<?xml version="1.0" encoding="UTF-8"?>
<!DOCTYPE svg PUBLIC "-//W3C//DTD SVG 1.1//EN" "http://www.w3.org/Graphics/SVG/1.1/DTD/svg11.dtd">
<svg version="1.1" xmlns="http://www.w3.org/2000/svg" xmlns:xlink="http://www.w3.org/1999/xlink" x="0" y="0" width="500" height="500" viewBox="0, 0, 500, 500">
  <g id="layer101">
    <path d="M352.955,500 C351.093,499.69 348.222,498.448 346.36,497.129 C344.497,495.81 341.626,494.103 339.919,493.172 C338.212,492.318 335.652,490.301 334.255,488.749 L331.772,485.878 L324.944,486.266 C321.219,486.421 314.236,487.042 309.347,487.585 C304.226,488.128 300.346,488.283 300.036,487.818 C299.182,486.576 291.811,482.231 288.63,481.067 C286.767,480.446 284.983,480.291 284.362,480.601 C282.577,481.61 273.654,481.688 269.541,480.757 C264.886,479.67 262.946,478.429 261.859,475.868 C260.773,473.152 258.368,470.98 257.281,471.678 C256.816,471.988 254.333,475.48 251.772,479.438 C247.427,486.188 246.806,486.809 242.151,489.059 C238.116,490.999 236.021,491.542 229.968,491.853 C220.269,492.396 153.771,494.568 153.693,494.336 C153.615,494.258 153.227,492.629 152.84,490.689 C152.219,487.585 152.374,486.731 154.547,482.309 C155.943,479.593 158.737,475.713 160.987,473.618 C164.246,470.437 164.944,469.35 164.944,467.1 C164.944,463.608 163.392,462.755 157.418,462.755 C153.615,462.755 152.141,462.289 148.106,459.961 C141.899,456.237 135.07,450.883 133.441,448.322 C132.199,446.538 132.199,446.15 133.363,443.744 C134.76,440.873 134.45,439.089 132.665,438.39 C130.803,437.692 129.484,438.623 128.242,441.649 C122.345,455.694 121.802,456.314 117.224,455.461 C114.198,454.84 110.395,452.202 100.308,443.511 C84.169,429.7 77.107,417.44 80.677,409.835 C81.375,408.361 84.634,404.326 87.971,400.835 C93.247,395.17 94.333,394.317 97.515,393.773 C101.239,393.153 103.567,391.523 116.525,381.126 C130.104,370.185 156.642,349.079 158.659,347.527 C160.289,346.286 172.704,336.121 175.342,333.793 C175.807,333.483 176.04,331.698 175.963,329.836 C175.807,327.12 176.273,325.723 178.29,322.619 C180.385,319.438 181.937,318.274 187.447,315.558 C191.094,313.696 194.818,312.222 195.827,312.222 C197.922,312.222 200.638,309.661 200.638,307.721 C200.638,306.014 202.422,304.152 205.914,302.057 C207.776,300.971 208.397,300.039 208.397,298.41 C208.397,295.927 209.639,294.375 211.656,294.375 C212.354,294.375 214.449,292.978 216.312,291.194 C219.648,288.012 224.769,285.141 227.097,285.064 C228.572,285.064 234.003,279.399 234.003,277.925 C234.003,277.382 232.529,275.675 230.744,274.123 C227.873,271.718 227.175,270.398 225.856,265.588 C224.226,259.846 224.226,259.846 221.588,259.846 C216.7,259.846 215.536,258.992 214.217,254.181 C212.044,246.499 211.811,245.879 210.647,245.879 C210.104,245.879 209.483,246.577 209.328,247.431 C208.785,251.388 208.319,252.241 206.457,253.095 C203.198,254.569 199.086,252.164 199.086,248.594 C199.086,246.189 197.767,244.715 195.594,244.715 C191.249,244.715 188.921,238.585 190.628,231.213 C191.481,227.178 191.481,226.79 189.464,222.911 C187.99,220.195 187.447,218.333 187.835,217.014 C188.223,215.384 187.679,214.453 185.041,211.97 C183.256,210.263 180.541,208.323 179.144,207.78 C175.963,206.383 170.997,201.029 170.143,198.003 C169.833,196.839 167.815,193.115 165.643,189.856 C163.548,186.597 161.608,183.027 161.375,181.941 C161.142,180.855 160.599,178.915 160.211,177.751 C159.435,175.268 160.056,173.716 162.539,171.466 C164.711,169.526 164.556,168.517 162.073,165.569 C160.444,163.629 159.901,161.999 159.668,158.585 C159.357,154.473 159.513,154.085 161.53,152.533 C165.643,149.429 165.875,149.119 165.332,147.179 C164.711,144.463 166.263,137.247 168.514,132.824 C169.677,130.496 170.376,127.78 170.376,125.452 C170.376,121.495 171.773,116.063 173.79,112.106 C174.566,110.632 174.876,108.925 174.566,107.761 C174.256,106.597 174.644,104.347 175.342,102.329 C176.273,100.001 176.428,98.449 175.963,97.518 C175.575,96.742 175.031,94.57 174.721,92.707 C174.023,87.897 172.316,85.181 168.746,82.775 C165.022,80.292 162.616,76.025 162.616,71.835 C162.616,69.74 161.918,67.877 160.366,65.705 C156.797,60.816 155.478,60.195 149.891,60.583 C144.615,61.049 140.114,59.963 138.407,57.945 C137.553,56.859 137.631,56.549 138.95,55.85 C139.804,55.385 141.588,53.833 142.985,52.436 C144.304,51.117 145.934,49.953 146.632,49.953 C148.417,49.953 150.124,47.78 149.658,46.073 C149.037,43.668 145.701,41.418 142.83,41.418 C139.648,41.418 138.795,40.331 138.485,36.064 C138.174,32.727 138.252,32.572 141.278,31.02 C143.063,30.089 144.459,28.77 144.615,27.839 C144.692,26.985 143.373,23.338 141.588,19.691 C139.261,14.88 138.252,11.777 138.019,8.285 C137.165,-1.182 141.2,-2.656 148.261,4.483 C151.443,7.664 152.684,9.837 154.779,15.268 C157.806,23.338 159.745,25.123 163.703,23.726 C167.272,22.407 167.35,22.407 170.997,26.675 L174.411,30.632 L171.928,33.348 C170.221,35.365 169.677,36.607 169.988,37.771 C170.997,41.262 172.781,41.883 181.161,41.806 C185.895,41.806 188.998,42.116 189.076,42.582 C189.464,45.685 187.059,48.634 182.093,51.039 C177.437,53.29 176.894,54.376 178.135,58.799 C178.834,61.282 179.765,62.834 181.317,63.687 C184.265,65.472 185.274,67.955 185.895,75.559 L186.438,82.077 L190.24,85.491 C192.335,87.431 195.827,89.759 197.999,90.845 C201.181,92.32 202.189,93.328 203.198,95.734 C203.897,97.596 205.216,99.148 206.38,99.691 C207.854,100.389 208.63,101.708 209.483,104.579 C211.656,112.416 211.656,113.813 209.561,117.926 C208.475,120.021 207.621,122.116 207.621,122.659 C207.621,123.124 208.63,125.22 209.871,127.315 C217.165,139.497 224.692,153.541 225.468,156.18 C226.166,158.74 226.709,159.361 228.804,159.749 C230.123,160.059 232.994,161.223 235.089,162.232 C237.96,163.706 239.668,164.094 241.685,163.706 C243.237,163.473 246.496,163.706 248.901,164.172 C253.635,165.181 255.73,164.405 255.73,161.766 C255.73,160.059 261.627,156.723 265.429,156.257 C268.3,155.869 268.688,155.559 270.55,151.757 C271.636,149.584 272.956,145.86 273.499,143.609 C275.128,137.091 276.602,134.531 278.697,134.531 C282.112,134.531 282.344,136.859 279.784,145.472 C276.68,156.102 276.913,157.188 280.793,149.274 C282.577,145.627 284.75,141.669 285.603,140.428 C288.086,136.859 297.475,127.547 298.562,127.547 C299.105,127.547 300.269,128.09 301.045,128.711 C303.062,130.263 306.554,130.186 308.882,128.634 C311.209,127.082 312.917,127.625 313.848,130.186 C314.546,131.893 315.012,132.048 319.59,131.893 C322.693,131.893 325.021,132.203 325.797,132.824 C327.427,134.22 328.901,141.592 328.28,145.316 L327.815,148.343 L332.16,149.662 C334.565,150.438 337.824,151.99 339.454,153.153 C341.083,154.317 343.178,155.559 344.265,155.869 C345.273,156.18 346.825,157.111 347.756,157.887 C349.153,159.206 349.774,159.283 353.576,158.43 C357.223,157.654 358.62,157.732 363.12,158.973 C366.069,159.749 369.405,161.223 370.569,162.154 C371.655,163.163 374.061,164.482 375.846,165.181 C379.88,166.81 380.036,168.44 376.777,173.25 C375.458,175.113 374.449,177.053 374.449,177.596 C374.449,179.768 384.303,186.597 388.959,187.605 C391.52,188.148 394.391,190.942 398.658,196.994 C400.21,199.167 402.771,202.115 404.323,203.59 C405.875,205.064 408.125,208.09 409.366,210.263 C410.608,212.436 413.556,216.005 415.962,218.177 C418.29,220.35 420.229,222.678 420.229,223.376 C420.229,225.394 417.514,227.489 415.419,227.101 C412.703,226.558 408.746,230.205 406.573,235.171 C405.176,238.197 404.245,239.361 402.693,239.749 C400.909,240.214 400.21,239.826 397.96,237.033 C395.322,233.929 393.071,232.843 393.071,234.86 C393.071,237.731 395.011,241.921 397.417,244.327 C401.219,248.206 401.064,250.922 396.796,253.793 C394.468,255.345 393.149,256.975 392.218,259.458 C387.562,271.795 384.226,280.098 382.363,283.977 C381.588,285.607 381.432,287.314 381.82,289.409 C382.053,291.039 382.363,295.772 382.441,299.807 C382.519,303.842 383.139,308.808 383.76,310.825 C384.769,314.317 384.769,314.627 383.139,316.8 C382.286,318.041 381.277,319.981 380.967,321.068 C380.424,323.318 377.941,325.413 375.923,325.413 C374.138,325.413 372.199,323.007 371.655,320.136 C371.035,317.11 370.259,316.489 366.534,316.412 C364.672,316.412 362.965,315.791 361.801,314.705 C359.551,312.61 357.999,312.532 356.137,314.627 C355.05,315.791 353.964,316.179 351.636,315.946 C347.756,315.714 347.446,316.489 347.368,325.878 C347.291,333.715 347.524,334.181 352.024,335.035 C353.576,335.267 356.137,336.664 357.844,338.138 C359.473,339.535 362.034,341.32 363.43,342.018 C364.827,342.716 366.379,344.268 366.767,345.432 C367.233,346.596 368.319,349.079 369.095,350.864 C370.104,353.192 370.492,355.054 370.104,356.839 C369.793,358.468 370.104,360.253 370.957,361.882 C372.043,363.977 372.121,364.908 371.345,367.624 C370.492,370.728 370.569,371.038 374.914,379.186 C377.397,383.841 381.044,389.428 382.984,391.756 C387.097,396.334 393.847,411.155 393.847,415.345 C393.847,418.06 392.839,419.147 387.407,422.483 C385.39,423.725 383.527,425.277 383.217,425.975 C382.363,428.303 385.079,432.415 388.338,433.734 C391.83,435.131 391.985,435.364 392.684,443.279 C393.149,447.934 393.615,449.253 395.089,450.572 C396.098,451.426 398.193,454.685 399.745,457.789 L402.538,463.453 L400.831,465.703 C399.9,466.945 398.115,468.807 396.796,469.738 C395.089,470.98 394.623,471.911 394.779,473.463 C395.011,475.325 395.477,475.635 398.503,476.101 C401.84,476.567 411.073,479.593 413.091,480.834 C414.41,481.765 414.332,492.861 412.858,496.353 L411.772,499.069 L396.02,499.534 C369.793,500.31 356.369,500.466 352.955,500 z" fill="#000000"/>
  </g>
</svg>
