<?xml version="1.0" encoding="UTF-8"?>
<!DOCTYPE svg PUBLIC "-//W3C//DTD SVG 1.1//EN" "http://www.w3.org/Graphics/SVG/1.1/DTD/svg11.dtd">
<svg version="1.1" xmlns="http://www.w3.org/2000/svg" xmlns:xlink="http://www.w3.org/1999/xlink" x="0" y="0" width="500" height="500" viewBox="0, 0, 500, 500">
  <g id="Layer_1">
    <path d="M422.574,332.729 L346.549,332.729 L384.66,426.147 L361.754,431.791 L361.754,456.382 L500,456.382 L500,431.791 L460.27,425.119 L422.574,332.729" fill="#000000"/>
    <path d="M167.641,111.522 L137.563,185.25 L213.597,185.25 L243.675,111.522 L256.32,111.522 L286.398,185.25 L362.432,185.25 L332.35,111.522 L406.297,111.522 L445.459,116.138 L442.396,42.388 L57.602,42.388 L54.528,117.67 L95.236,111.522 L167.641,111.522" fill="#000000"/>
    <path d="M153.442,332.729 L77.408,332.729 L39.719,425.119 L0,431.791 L0,456.382 L138.244,456.382 L138.244,431.791 L115.333,426.147 L153.442,332.729" fill="#000000"/>
    <path d="M216.708,271.996 C216.708,280.025 211.04,286.545 204.032,286.545 L134.295,286.545 C127.289,286.545 121.619,280.025 121.619,271.996 L121.619,242.264 C121.619,234.235 127.289,227.715 134.295,227.715 L204.032,227.715 C211.04,227.715 216.708,234.235 216.708,242.264 L216.708,271.996 z M232.563,194.352 L105.764,194.352 C98.759,194.352 93.088,200.871 93.088,208.922 L93.088,305.36 C93.088,313.389 98.759,319.908 105.764,319.908 L232.563,319.908 C239.566,319.908 245.239,313.389 245.239,305.36 L245.239,208.922 C245.239,200.871 239.566,194.352 232.563,194.352" fill="#000000"/>
    <path d="M379.956,271.996 C379.956,280.025 374.29,286.545 367.289,286.545 L297.551,286.545 C290.542,286.545 284.869,280.025 284.869,271.996 L284.869,242.264 C284.869,234.235 290.542,227.715 297.551,227.715 L367.289,227.715 C374.29,227.715 379.956,234.235 379.956,242.264 L379.956,271.996 z M395.818,194.352 L269.016,194.352 C262.015,194.352 256.34,200.871 256.34,208.922 L256.34,305.36 C256.34,313.389 262.015,319.908 269.016,319.908 L395.818,319.908 C402.819,319.908 408.485,313.389 408.485,305.36 L408.485,208.922 C408.485,200.871 402.819,194.352 395.818,194.352" fill="#000000"/>
    <path d="M495.668,286.545 L460.795,286.545 C453.794,286.545 448.128,280.025 448.128,271.996 L448.128,242.264 C448.128,234.235 453.794,227.715 460.795,227.715 L495.668,227.715 L495.668,194.352 L432.266,194.352 C425.265,194.352 419.599,200.871 419.599,208.922 L419.599,305.36 C419.599,313.389 425.265,319.908 432.266,319.908 L495.668,319.908 L495.668,286.545" fill="#000000"/>
    <path d="M4.323,286.545 L39.194,286.545 C46.197,286.545 51.872,280.025 51.872,271.996 L51.872,242.264 C51.872,234.235 46.197,227.715 39.194,227.715 L4.323,227.715 L4.323,194.352 L67.725,194.352 C74.728,194.352 80.403,200.871 80.403,208.922 L80.403,305.36 C80.403,313.389 74.728,319.908 67.725,319.908 L4.323,319.908 L4.323,286.545" fill="#000000"/>
    <path d="M156.483,266.242 C156.483,274.271 149.73,280.791 141.401,280.791 L32.086,280.791 C23.757,280.791 17.008,274.271 17.008,266.242 L17.008,248.04 C17.008,239.989 23.757,233.469 32.086,233.469 L141.401,233.469 C149.73,233.469 156.483,239.989 156.483,248.04 L156.483,266.242" fill="#000000"/>
    <path d="M319.735,266.242 C319.735,274.271 312.986,280.791 304.659,280.791 L195.336,280.791 C187.007,280.791 180.258,274.271 180.258,266.242 L180.258,248.04 C180.258,239.989 187.007,233.469 195.336,233.469 L304.659,233.469 C312.986,233.469 319.735,239.989 319.735,248.04 L319.735,266.242" fill="#000000"/>
    <path d="M483.001,266.242 C483.001,274.271 476.241,280.791 467.905,280.791 L358.582,280.791 C350.268,280.791 343.508,274.271 343.508,266.242 L343.508,248.04 C343.508,239.989 350.268,233.469 358.582,233.469 L467.905,233.469 C476.241,233.469 483.001,239.989 483.001,248.04 L483.001,266.242" fill="#000000"/>
  </g>
</svg>
