<?xml version="1.0" encoding="UTF-8"?>
<!DOCTYPE svg PUBLIC "-//W3C//DTD SVG 1.1//EN" "http://www.w3.org/Graphics/SVG/1.1/DTD/svg11.dtd">
<svg version="1.1" xmlns="http://www.w3.org/2000/svg" xmlns:xlink="http://www.w3.org/1999/xlink" x="0" y="0" width="500" height="500" viewBox="0, 0, 500, 500">
  <g id="layer101">
    <path d="M65.403,490.05 C52.656,484.842 52.93,485.527 53.89,467.847 C54.849,451.263 56.083,447.288 62.936,440.846 C68.418,435.638 68.281,433.719 62.25,430.156 L57.316,427.278 L58.276,419.602 C58.687,415.354 60.331,410.282 61.702,408.364 C63.073,406.308 65.677,399.044 67.321,392.054 C68.966,385.064 72.667,372.18 75.545,363.409 C78.56,354.774 80.89,345.317 80.89,342.576 C80.89,338.601 81.712,336.682 84.591,334.49 C92.677,328.185 96.515,319.002 106.931,281.722 C108.576,275.692 112.962,262.945 116.662,253.351 C120.363,243.757 123.378,234.163 123.378,232.107 C123.378,227.585 130.231,212.645 133.383,209.904 C136.261,207.574 136.261,200.036 133.52,192.635 C132.424,189.62 130.916,182.904 130.231,177.696 C128.723,166.868 127.216,164.538 123.652,166.731 C122.144,167.69 120.774,171.391 119.814,177.284 C118.17,187.153 116.251,190.579 112.276,190.579 C108.576,190.579 105.972,193.868 105.012,200.036 C104.601,203.051 102.682,207.711 100.9,210.315 C99.256,212.919 97.337,217.991 96.926,221.691 C95.692,231.97 86.784,257.874 83.083,261.849 C80.342,264.59 79.794,266.646 79.931,272.814 C80.068,283.23 73.763,302.829 67.87,309.819 C62.936,315.713 56.22,331.2 56.22,336.682 C56.22,338.464 54.849,342.576 53.341,345.728 C51.011,350.388 50.6,352.855 51.286,358.886 C52.108,366.287 52.108,366.424 46.763,371.358 C43.885,374.099 39.773,379.719 37.854,383.83 C35.798,388.079 31.823,393.424 28.671,396.028 L23.052,400.688 L13.595,396.851 C5.097,393.561 4.138,392.739 2.767,388.216 C0.711,380.815 0.985,378.348 4.96,367.932 C7.016,362.449 8.112,357.378 7.564,355.459 C6.742,352.033 8.387,348.058 12.361,343.809 C13.595,342.439 16.336,336.545 18.392,330.652 C26.204,308.586 27.163,302.829 24.148,298.169 C22.915,296.388 21.955,293.646 21.955,292.276 C21.955,288.849 18.529,286.108 10.58,283.23 C0.985,279.666 -2.578,272.951 1.945,266.646 C2.904,265.138 4.275,261.301 4.823,258.148 C5.92,251.158 7.427,249.788 14.417,249.24 L19.899,248.829 L19.488,242.25 C19.214,238.686 19.625,234.986 20.311,234.026 C20.996,233.067 22.366,229.915 23.326,226.899 C24.285,223.884 25.656,220.732 26.204,219.909 C27.575,218.265 29.768,208.808 31.001,199.488 C31.412,196.473 32.783,191.675 33.879,188.797 C35.935,184 35.935,183.315 33.879,178.792 C32.372,175.777 31.549,170.706 31.549,164.812 C31.549,154.396 34.153,147.68 42.103,136.578 C47.448,129.04 50.052,119.857 48.133,114.786 C47.448,113.004 46.214,105.603 45.255,98.202 C43.61,83.948 44.433,78.466 49.504,71.065 C51.149,68.872 52.108,65.171 52.108,61.471 C52.108,58.181 52.93,54.344 53.89,53.11 C56.494,49.547 65.951,45.298 71.296,45.298 C76.367,45.298 88.428,42.009 91.032,39.953 C91.855,39.267 96.241,37.486 100.763,35.841 C107.89,33.237 109.398,32.003 111.591,27.206 C116.662,16.379 128.038,5.962 133.109,7.607 C134.617,8.155 136.81,10.622 138.043,13.226 C140.647,18.572 141.058,18.709 149.419,15.556 C154.627,13.638 163.262,13.226 208.217,12.952 C259.202,12.541 260.847,12.541 263.451,9.8 C264.821,8.155 266.603,6.922 267.425,6.922 C270.167,6.922 288.943,25.562 290.588,29.948 C291.548,32.552 293.329,34.607 295.111,35.019 C306.624,37.349 318.137,40.227 322.523,42.009 C325.264,42.968 329.924,43.927 332.802,43.927 C337.051,43.927 338.97,44.887 342.944,49.136 C348.838,55.303 350.208,57.907 352.812,67.501 C353.909,71.476 356.102,78.055 357.609,82.029 C359.117,86.004 360.762,94.776 361.173,101.355 C361.721,108.07 362.543,114.101 363.092,114.923 C363.503,115.746 366.792,117.664 370.082,119.309 C378.716,123.284 386.117,127.944 389.407,131.37 C392.011,134.385 396.123,135.482 396.123,133.289 C396.123,132.604 395.163,130.959 394.067,129.451 C390.914,125.34 391.6,121.502 396.123,118.213 C400.92,114.512 401.194,111.634 397.493,103.822 C394.889,98.75 394.752,96.558 395.574,84.085 C396.534,68.735 396.945,69.42 385.432,60.648 C381.594,57.907 381.32,56.948 381.32,49.684 C381.32,39.13 382.006,37.349 386.254,35.156 C392.833,31.866 398.315,31.729 410.651,34.333 C426.823,37.623 427.372,37.897 427.92,42.968 C428.331,47.08 428.742,47.354 433.128,47.08 C435.732,47.08 439.57,46.531 441.763,45.983 C445.052,45.024 445.6,45.435 446.971,49.273 C449.164,55.577 456.291,59.415 463.692,58.318 C469.037,57.496 470.545,57.907 477.809,62.704 C482.195,65.582 488.911,69.42 492.748,71.339 C500.835,75.314 501.657,77.918 497.682,85.182 C489.87,99.025 487.814,118.213 491.241,146.446 C495.763,184.686 492.337,206.341 477.809,230.052 C471.778,239.92 454.783,257.463 450.123,258.56 C446.149,259.519 443.544,257.052 444.915,253.626 C446.423,249.925 449.849,211.138 449.027,207.574 C448.204,204.559 447.93,204.422 445.052,206.067 C443.407,207.163 439.296,208.671 435.869,209.63 C426.138,212.371 425.727,212.919 424.631,220.869 C424.082,224.98 422.986,233.478 422.163,239.92 C421.341,246.361 420.108,255.544 419.559,260.478 C419.011,265.412 418.052,270.347 417.641,271.443 C417.092,272.539 416.407,277.199 416.133,281.722 C415.859,286.245 414.899,293.372 413.94,297.484 C412.981,301.596 412.158,309.682 412.021,315.439 C411.884,324.484 411.336,326.54 408.047,331.474 C404.346,336.682 404.209,337.505 405.717,342.028 C409.828,354.637 401.331,364.642 390.229,360.119 C380.087,355.871 375.838,344.769 380.772,335.312 C382.965,330.926 383.513,328.185 382.828,323.251 C382.28,318.18 382.828,315.439 385.295,310.23 C387.625,305.57 388.584,300.91 388.721,293.92 C388.858,288.575 389.681,282.956 390.503,281.311 C391.326,279.666 392.011,275.418 391.874,271.854 C391.737,268.291 392.422,263.494 393.244,261.438 C394.067,259.245 394.615,254.859 394.478,251.707 C394.478,248.417 394.889,244.991 395.437,244.031 C396.123,242.935 397.082,237.727 397.63,232.519 C398.178,227.173 399.275,220.321 399.96,217.442 C402.016,209.63 400.234,207.026 392.97,207.026 C389.818,207.163 384.747,207.985 381.731,209.082 C374.056,211.96 372.549,211.686 368.437,207.026 C365.422,203.6 363.777,202.914 358.706,202.914 C354.457,202.914 351.99,202.092 350.208,200.173 C346.645,196.198 330.472,196.198 324.03,200.31 C321.426,201.818 318.274,202.777 316.903,202.366 C315.533,201.818 312.654,197.706 310.462,192.909 C308.406,188.249 306.076,183.178 305.39,181.67 C303.335,177.147 295.522,172.487 290.588,173.036 C286.202,173.447 286.065,173.721 282.228,187.153 C277.568,203.6 277.431,205.655 280.994,212.234 C282.502,214.975 284.695,220.732 285.791,224.98 C287.025,229.229 290.862,237.179 294.563,242.798 C301.553,253.626 319.919,286.245 328.142,302.829 L333.213,312.834 L339.244,312.012 C344.178,311.19 345.685,311.464 348.152,313.931 C350.345,316.124 350.756,317.768 350.071,321.88 C349.66,324.621 349.934,328.733 350.894,330.926 C351.99,333.804 351.99,336.134 350.894,339.424 C349.66,342.987 349.797,346.551 351.579,355.322 C355.965,377.389 360.625,394.247 364.736,403.43 C368.026,410.694 368.848,414.12 368.3,418.232 C367.752,422.618 368.163,423.988 370.63,426.044 C372.275,427.278 375.016,430.293 376.66,432.76 C378.305,435.09 381.183,437.557 382.828,438.105 C387.488,439.476 393.244,445.506 397.082,452.907 C399.96,458.527 400.371,460.72 399.549,466.613 C399.138,470.451 397.63,474.974 396.397,476.755 C392.833,481.415 378.99,484.293 365.285,483.197 C349.249,481.964 305.665,473.055 300.73,470.039 C297.989,468.395 293.878,467.435 289.355,467.435 C282.365,467.435 277.157,465.791 275.238,462.775 C274.69,461.953 274.141,457.841 274.141,453.593 C274.141,448.796 273.045,443.45 271.4,439.613 C268.111,432.212 266.329,430.704 264.958,434.13 C263.04,439.339 254.405,449.07 249.197,452.222 C243.989,455.374 220.963,462.227 219.181,461.131 C218.633,460.857 214.11,451.263 209.039,439.75 C203.831,428.237 198.897,417.546 197.937,416.039 C192.318,407.267 180.257,367.52 173.13,333.804 C172.445,330.515 171.211,328.322 169.977,328.322 C167.785,328.322 159.287,344.495 159.15,348.881 C159.013,350.388 160.383,354.226 162.028,357.378 C165.043,362.997 165.043,363.135 162.576,368.343 C159.698,374.373 157.642,409.049 158.739,433.719 C159.287,447.288 159.15,449.07 156.135,455.1 C152.982,461.405 152.708,461.542 147.774,460.857 C142.703,460.308 142.155,460.72 128.038,474.288 C119.951,481.964 111.317,489.228 108.576,490.324 C105.56,491.558 97.611,492.517 88.565,492.928 C74.86,493.339 72.53,493.065 65.403,490.05 z" fill="#000000"/>
  </g>
</svg>
