<?xml version="1.0" encoding="UTF-8"?>
<!DOCTYPE svg PUBLIC "-//W3C//DTD SVG 1.1//EN" "http://www.w3.org/Graphics/SVG/1.1/DTD/svg11.dtd">
<svg version="1.1" xmlns="http://www.w3.org/2000/svg" xmlns:xlink="http://www.w3.org/1999/xlink" x="0" y="0" width="500" height="500" viewBox="0, 0, 500, 500">
  <g id="Layer_1">
    <path d="M373.773,332.888 C334.486,328.617 300.423,341.529 261.236,370.869 C214.363,405.936 208.435,437.085 160.757,420.104 C108.91,401.616 147.243,363.886 152.116,359.665 C166.736,347.005 209.992,337.711 209.992,337.711 L290.325,317.012 C290.476,316.962 290.627,316.912 290.777,316.861 C294.746,315.254 349.306,293.249 366.237,274.861 C367.393,273.605 370.005,271.193 370.658,269.887 C383.218,258.232 390.402,248.234 396.381,239.844 C404.218,228.841 409.142,219.547 412.458,212.363 C418.386,199.502 421.903,192.066 421.099,182.119 C420.094,169.91 419.391,164.233 416.778,160.918 C416.778,160.817 417.934,155.14 417.934,155.039 L430.343,155.492 C428.534,148.96 425.62,142.681 421.099,137.204 C414.417,129.166 425.52,128.764 430.092,131.628 C430.594,131.929 431.448,134.09 431.348,130.774 C431.197,126.855 431.85,112.687 391.005,97.314 C367.142,88.321 388.343,82.996 393.668,82.192 C399.395,81.338 377.792,70.788 364.027,71.24 C362.469,71.29 361.866,69.079 362.972,67.924 L373.321,62.096 C371.965,61.192 369.804,59.936 367.041,58.931 C363.625,57.675 362.067,56.721 359.405,55.615 C357.546,54.862 355.034,54.51 352.472,51.546 C360.711,46.572 367.342,41.799 372.266,37.981 C372.266,37.981 386.635,26.677 389.599,16.83 C389.749,16.328 390.202,14.871 389.749,14.67 C388.594,14.117 377.189,30.897 341.72,40.744 C336.596,42.151 343.78,37.579 344.534,36.625 C345.991,34.766 358.45,29.792 370.508,17.182 C372.618,14.971 380.154,0.05 380.154,-0 L377.943,1.457 C370.005,7.787 364.529,13.364 352.572,19.694 C345.287,23.512 335.34,28.888 328.909,31.35 C328.407,31.55 327.402,31.852 326.146,31.751 C324.79,31.601 323.835,30.998 323.433,30.696 C322.127,32.103 320.821,33.007 319.816,33.61 C318.309,34.565 316.852,35.168 315.746,35.519 C314.993,35.821 313.033,36.625 311.928,36.826 C309.617,37.278 307.608,37.579 306.251,37.328 C306.904,35.972 307.608,33.962 307.959,31.45 C308.361,28.385 307.959,25.823 307.557,24.215 C306,26.125 299.921,34.414 298.213,36.373 C293.792,41.297 295.198,40.041 290.878,43.909 C288.316,46.019 284.497,48.632 279.473,50.642 C275.705,52.149 272.289,52.953 269.526,53.405 C268.22,55.565 266.562,58.881 265.607,63.252 C264.803,66.919 264.803,70.135 265.004,72.395 C264.552,73.35 263.748,74.556 262.492,75.711 C260.031,77.972 257.117,78.525 255.559,78.625 C255.107,78.675 254.705,78.374 254.655,77.922 C254.253,74.656 255.76,70.386 255.057,67.271 C253.098,70.185 251.088,73.4 249.129,77.017 C247.119,80.735 246.014,86.513 246.014,86.513 C245.964,86.663 240.688,91.838 241.593,80.735 C240.588,76.113 240.538,72.094 240.789,69.13 C238.377,72.345 235.865,76.063 233.454,80.383 C231.545,83.749 229.987,86.965 228.681,89.929 C228.932,90.18 231.344,92.742 230.791,96.259 C230.389,98.721 228.782,100.178 228.279,100.58 C228.43,104.348 228.731,108.467 229.334,112.939 C229.937,117.209 230.691,121.128 231.545,124.695 C232.298,123.037 233.504,120.676 235.363,118.264 C236.066,118.716 236.82,119.219 237.674,119.671 C239.432,120.625 241.04,121.228 242.397,121.63 C242.045,120.927 241.191,118.817 241.794,116.254 C242.145,114.697 242.899,113.542 243.401,112.939 C243.954,113.592 244.607,114.345 245.511,115.049 C247.571,116.757 249.732,117.561 251.138,117.912 C250.837,117.209 249.782,114.647 250.887,111.934 C251.239,111.08 251.691,110.427 252.093,109.975 C253.248,110.728 254.605,111.482 256.212,112.185 C258.323,113.089 260.232,113.642 261.839,113.994 C261.437,113.642 259.629,112.034 259.528,109.573 C259.478,108.769 259.679,108.065 259.83,107.563 C260.634,108.065 261.94,108.719 263.648,109.07 C265.858,109.522 267.717,109.271 268.772,109.02 C268.169,107.814 267.466,105.905 267.265,103.443 C267.064,101.333 267.366,99.474 267.717,98.118 C267.868,98.068 267.969,98.018 268.119,97.967 C271.837,92.893 276.007,91.486 279.825,89.125 C280.528,89.226 281.282,89.376 282.036,89.527 C281.131,90.281 280.227,91.084 279.323,92.039 C276.76,94.702 275.103,97.314 273.997,99.374 C274.048,101.484 273.897,103.946 273.495,106.659 C272.792,111.13 271.485,113.29 270.179,116.054 C269.928,116.556 269.476,116.958 268.973,117.159 C266.059,118.164 262.543,120.575 258.624,121.278 C255.509,121.781 252.645,122.082 250.083,122.183 C249.531,122.183 248.978,122.384 248.526,122.635 C246.215,123.991 242.597,126.554 239.583,130.975 C238.277,132.934 237.322,134.843 236.669,136.551 C232.047,134.341 226.571,132.03 219.99,129.769 C195.875,121.379 219.236,115.702 223.004,115.049 C227.023,114.345 205.671,103.092 192.358,104.398 C190.8,104.549 190.147,102.288 191.202,101.132 L201.401,95.053 C199.994,94.149 197.834,92.994 195.021,92.039 C191.554,90.883 189.946,91.084 187.334,90.029 C185.475,89.276 182.913,87.919 180.3,85.005 C188.389,79.831 194.87,74.907 199.743,70.938 C199.743,70.938 213.81,59.233 216.473,49.335 C216.624,48.833 217.026,47.376 216.573,47.175 C215.418,46.673 204.415,63.704 169.248,74.455 C164.173,76.013 171.207,71.24 171.91,70.285 C173.317,68.376 185.626,63.101 197.382,50.189 C199.442,47.929 206.576,32.806 206.576,32.756 L204.415,34.263 C196.628,40.795 191.353,46.522 179.547,53.154 C172.362,57.173 162.566,62.8 156.185,65.412 C155.733,65.613 154.728,65.965 153.422,65.864 C152.066,65.764 151.111,65.211 150.659,64.91 C149.353,66.316 148.097,67.271 147.142,67.924 C145.635,68.929 144.228,69.532 143.123,69.934 C142.369,70.285 140.41,71.089 139.355,71.34 C137.044,71.843 135.085,72.194 133.728,71.943 C134.331,70.587 135.034,68.577 135.286,66.015 C135.587,62.95 135.135,60.388 134.683,58.831 C133.176,60.74 127.298,69.23 125.64,71.24 C121.319,76.314 122.726,74.958 118.506,78.977 C115.994,81.137 112.276,83.85 107.302,86.01 C103.584,87.618 100.168,88.522 97.405,89.025 C96.149,91.185 94.592,94.551 93.788,98.972 C93.084,102.69 93.185,105.855 93.386,108.116 C92.934,109.07 92.18,110.326 90.974,111.482 C88.563,113.793 85.649,114.396 84.091,114.597 C83.639,114.647 83.237,114.345 83.187,113.893 C82.735,110.628 84.091,106.307 83.338,103.192 C81.479,106.156 79.57,109.422 77.711,113.14 C75.802,116.908 74.847,122.735 74.847,122.735 C74.847,122.836 69.723,128.161 70.326,117.058 C69.17,112.487 69.07,108.417 69.221,105.453 C66.91,108.719 64.498,112.537 62.187,116.908 C60.378,120.324 58.871,123.539 57.665,126.554 C57.967,126.805 60.429,129.267 59.926,132.834 C59.575,135.295 58.017,136.802 57.515,137.255 C57.766,141.023 58.168,145.142 58.921,149.563 C59.625,153.834 60.479,157.702 61.433,161.219 C62.137,159.511 63.292,157.15 65.051,154.688 C65.754,155.14 66.558,155.592 67.412,156.044 C69.17,156.949 70.828,157.501 72.185,157.903 C71.833,157.2 70.929,155.14 71.431,152.527 C71.733,150.92 72.486,149.815 72.938,149.161 C73.491,149.815 74.194,150.518 75.099,151.221 C77.209,152.879 79.369,153.583 80.826,153.934 C80.524,153.281 79.419,150.719 80.424,148.006 C80.725,147.152 81.178,146.499 81.579,145.996 C82.735,146.7 84.142,147.453 85.749,148.106 C87.859,148.96 89.819,149.463 91.426,149.764 C90.974,149.413 89.166,147.855 89.015,145.393 C88.965,144.59 89.115,143.886 89.266,143.384 C90.12,143.886 91.426,144.489 93.135,144.791 C95.345,145.193 97.204,144.891 98.259,144.64 C97.656,143.434 96.852,141.575 96.601,139.114 C96.35,137.003 96.601,135.145 96.903,133.788 C97.053,133.738 97.154,133.688 97.304,133.587 C100.922,128.412 105.041,126.905 108.759,124.444 C109.462,124.494 110.216,124.645 110.97,124.795 C110.116,125.549 109.211,126.403 108.357,127.408 C105.895,130.121 104.288,132.834 103.233,134.843 C103.333,136.953 103.283,139.415 102.881,142.128 C102.278,146.599 101.022,148.81 99.816,151.623 C99.565,152.126 99.163,152.527 98.611,152.728 C95.697,153.834 92.281,156.346 88.412,157.099 C85.347,157.702 82.484,158.054 79.922,158.205 C79.369,158.255 78.816,158.406 78.364,158.707 C76.103,160.114 72.536,162.776 69.673,167.298 C66.558,172.171 65.754,176.843 65.503,179.255 C66.256,177.798 67.613,175.638 69.924,173.729 C71.13,172.724 72.285,172.071 73.29,171.568 C72.938,172.875 72.637,174.281 72.386,175.839 C71.933,178.702 71.833,181.265 71.883,183.475 C73.039,179.355 75.651,172.171 81.027,168.152 C82.182,167.298 84.493,165.791 86.955,164.384 C88.312,163.63 90.773,162.274 93.838,161.018 C96.249,160.063 99.716,158.908 104.087,158.205 C103.986,159.611 104.087,161.52 104.991,163.53 C105.192,164.032 105.443,164.485 105.695,164.886 C104.338,165.138 102.73,165.339 100.872,165.339 C98.36,165.339 96.249,164.987 94.592,164.585 C95.245,166.092 96.3,168.102 98.108,170.111 C99.264,171.418 100.419,172.372 101.424,173.076 C104.238,172.925 107.352,173.276 110.769,173.126 C113.582,172.975 115.943,173.427 117.551,173.879 C120.164,169.408 125.087,162.324 133.527,156.295 C146.59,147.001 160.054,145.996 165.58,145.846 C164.123,144.389 163.52,142.429 164.073,140.721 C164.425,139.616 165.128,138.913 165.58,138.611 C171.91,140.219 179.898,143.736 188.69,148.408 C196.678,155.894 203.762,162.776 206.174,167.398 C219.136,192.619 220.291,224.521 197.03,251.399 C196.176,252.052 195.372,252.655 194.518,253.308 C192.71,252.856 190.851,252.454 188.891,252.002 C163.922,246.677 193.262,240.196 189.243,236.629 C182.461,230.65 166.434,229.444 158.295,230.198 C156.738,230.349 155.834,228.389 156.738,227.083 L166.133,219.748 C164.626,219.045 162.365,218.14 159.451,217.538 C155.884,216.834 154.326,217.186 151.563,216.483 C149.604,215.98 146.941,214.925 143.977,212.363 C151.362,206.234 157.19,200.506 161.511,195.985 C161.511,195.985 174.071,182.671 175.477,172.473 C175.528,171.97 175.779,170.463 175.276,170.312 C174.071,169.961 165.279,188.248 131.719,203.27 C126.845,205.43 133.276,199.803 133.879,198.798 C135.034,196.738 146.59,189.956 156.637,175.688 C158.396,173.176 163.621,157.3 163.621,157.25 L161.661,159.008 C154.728,166.444 150.207,172.824 139.305,180.812 C132.673,185.686 123.63,192.468 117.652,195.884 C117.199,196.135 116.245,196.638 114.989,196.688 C113.632,196.738 112.577,196.286 112.125,196.085 C111.02,197.643 109.864,198.748 109.01,199.502 C107.654,200.657 106.297,201.461 105.293,202.014 C104.589,202.415 102.781,203.47 101.726,203.872 C99.515,204.626 97.556,205.229 96.199,205.179 C96.601,203.722 97.053,201.662 97.003,199.15 C96.953,196.035 96.149,193.624 95.546,192.066 C94.29,194.176 89.517,203.32 88.111,205.48 C84.493,211.006 85.699,209.549 81.981,214.021 C79.721,216.483 76.355,219.597 71.733,222.411 C68.216,224.471 64.95,225.777 62.287,226.631 C61.333,228.942 60.177,232.509 59.876,236.93 C59.625,240.698 60.127,243.813 60.63,246.074 C60.328,247.078 59.725,248.385 58.67,249.691 C56.56,252.303 53.747,253.258 52.24,253.61 C51.838,253.71 51.385,253.459 51.285,253.057 C50.431,249.842 51.285,245.421 50.129,242.456 C48.622,245.622 47.115,249.138 45.759,253.007 C44.302,256.976 44.101,262.904 44.101,262.904 C44.05,263.055 39.629,268.983 38.826,257.83 C37.117,253.409 36.515,249.44 36.314,246.476 C34.404,249.992 32.495,254.062 30.737,258.684 C29.381,262.301 28.275,265.667 27.421,268.832 C27.723,269.083 30.486,271.193 30.436,274.76 C30.385,277.272 29.029,278.93 28.627,279.433 C29.33,283.151 30.235,287.17 31.541,291.49 C32.747,295.61 34.103,299.378 35.46,302.794 C35.962,301.036 36.766,298.574 38.273,295.861 C39.027,296.213 39.881,296.615 40.785,296.916 C42.644,297.569 44.352,297.971 45.759,298.172 C45.306,297.519 44.151,295.56 44.352,292.947 C44.452,291.34 45.055,290.134 45.457,289.43 C46.11,290.033 46.864,290.636 47.818,291.189 C50.129,292.545 52.34,292.997 53.847,293.198 C53.445,292.545 52.039,290.184 52.692,287.371 C52.893,286.466 53.244,285.763 53.596,285.21 C54.852,285.763 56.309,286.316 58.017,286.768 C60.228,287.371 62.237,287.622 63.895,287.722 C63.443,287.421 61.433,286.115 60.931,283.703 C60.78,282.899 60.831,282.196 60.931,281.694 C61.835,282.095 63.192,282.548 64.95,282.648 C67.211,282.799 68.969,282.246 69.974,281.844 C69.221,280.739 68.216,278.93 67.613,276.569 C67.11,274.509 67.11,272.65 67.261,271.244 C67.362,271.143 67.512,271.093 67.613,270.993 C70.527,265.416 74.445,263.406 77.862,260.543 C78.565,260.543 79.319,260.543 80.072,260.593 C79.319,261.447 78.515,262.402 77.761,263.507 C75.651,266.521 74.395,269.385 73.591,271.545 C73.943,273.655 74.194,276.067 74.144,278.83 C74.094,283.351 73.139,285.713 72.285,288.627 C72.134,289.179 71.733,289.631 71.23,289.883 C68.467,291.34 65.402,294.253 61.634,295.509 C58.67,296.514 55.857,297.167 53.345,297.67 C52.792,297.77 52.29,298.021 51.838,298.373 C49.778,300.031 46.562,303.146 44.251,307.969 C41.739,313.194 41.539,317.916 41.589,320.378 C42.141,318.821 43.247,316.56 45.306,314.349 C46.362,313.244 47.417,312.39 48.371,311.787 C48.17,313.093 48.019,314.55 47.969,316.158 C47.869,319.022 48.07,321.584 48.421,323.794 C49.074,319.574 50.783,312.139 55.606,307.466 C56.61,306.462 58.771,304.703 61.031,302.995 C62.287,302.041 64.548,300.433 67.412,298.825 C69.673,297.569 72.989,296.012 77.209,294.806 C77.309,296.213 77.661,298.122 78.766,299.981 C79.068,300.433 79.319,300.885 79.62,301.237 C78.314,301.639 76.706,302.041 74.898,302.242 C72.436,302.543 70.276,302.443 68.567,302.292 C69.371,303.699 70.677,305.557 72.737,307.366 C74.044,308.522 75.35,309.325 76.405,309.878 C79.168,309.376 82.333,309.376 85.699,308.773 C88.513,308.27 90.874,308.471 92.532,308.672 C94.541,303.9 98.56,296.263 106.197,289.23 C118.003,278.378 131.266,275.715 136.692,274.911 C135.085,273.655 134.231,271.746 134.582,269.988 C134.783,268.882 135.436,268.079 135.838,267.677 C142.319,268.531 156.085,271.394 145.886,284.758 C145.032,286.064 144.279,287.32 143.525,288.526 C136.039,293.651 128.503,298.876 121.018,304.402 C109.412,313.043 98.159,321.684 87.257,330.275 C80.273,336.806 69.472,348.613 62.036,366.347 C58.67,374.335 45.608,405.384 59.122,437.788 C68.919,461.35 87.859,473.86 93.185,477.377 C98.51,480.894 102.429,482.652 132.975,496.568 C144.329,499.181 171.709,501.743 199.442,498.427 C208.183,497.372 220.643,497.222 233.203,488.178 C241.04,484.26 244.607,479.839 249.028,476.523 C266.713,455.724 284.447,434.874 302.182,414.075 C308.411,409.051 315.596,403.776 323.785,398.601 C329.964,394.733 335.892,391.417 341.469,388.604 C359.003,380.314 373.421,379.611 381.56,379.912 C391.658,380.264 400.551,382.575 408.388,384.635 C409.644,384.986 423.711,388.654 432.554,392.723 C454.157,402.771 466.214,425.429 471.64,437.838 C471.238,437.637 495.855,346.151 373.773,332.888 z M276.459,71.591 C276.861,69.733 277.665,66.819 279.574,63.804 C281.182,61.292 282.99,59.534 284.347,58.378 C285.954,58.177 287.914,58.077 290.124,58.278 C291.682,58.429 293.038,58.68 294.244,58.931 C293.49,60.689 292.134,63.201 289.823,65.512 C284.749,70.587 278.569,71.441 276.459,71.591 z M282.387,110.527 C283.091,107.965 283.342,105.604 283.392,103.695 C283.744,102.991 285.603,99.625 289.722,98.269 C294.093,96.812 297.71,98.57 298.414,98.972 C299.017,99.625 299.569,100.278 300.072,100.931 C300.373,101.333 300.674,101.785 300.976,102.238 C301.227,103.343 301.529,105.604 300.624,108.116 C298.866,113.039 293.942,114.647 293.289,114.848 C292.335,115.3 290.777,115.853 288.717,115.853 C284.899,115.853 282.287,113.743 281.533,113.039 C281.885,112.235 282.136,111.431 282.387,110.527 z M276.208,121.982 C277.866,120.022 280.026,117.058 281.533,113.039 C281.483,114.195 281.634,116.254 282.789,118.314 C283.141,118.917 283.493,119.42 283.894,119.872 C283.543,120.525 282.739,121.68 281.332,122.434 C279.122,123.589 276.811,123.087 275.454,122.534 C275.756,122.384 276.007,122.233 276.208,121.982 z M250.887,132.08 C252.043,131.226 254.404,129.819 256.916,128.463 C258.323,127.709 260.784,126.453 263.849,125.298 C266.311,124.393 269.777,123.338 274.148,122.786 C273.997,124.192 274.098,126.101 274.902,128.111 C275.103,128.613 275.354,129.066 275.555,129.467 C274.198,129.668 272.591,129.819 270.732,129.769 C268.22,129.719 266.11,129.317 264.452,128.865 C265.055,130.372 266.059,132.432 267.818,134.491 C268.923,135.798 270.079,136.802 271.083,137.556 C273.897,137.456 277.012,137.908 280.428,137.858 C283.292,137.807 285.603,138.31 287.16,138.812 C289.873,134.391 294.997,127.458 303.588,121.63 C316.902,112.637 330.416,111.984 335.892,112.034 C334.486,110.527 333.933,108.568 334.536,106.86 C334.938,105.754 335.641,105.101 336.093,104.75 C340.766,106.106 346.342,108.467 352.421,111.632 C358.651,118.164 374.878,137.104 374.677,163.329 C374.426,198.145 345.338,221.959 336.345,229.344 C334.687,230.55 300.172,258.634 245.562,269.887 C243.05,270.39 249.631,252.303 253.148,229.696 C256.313,224.672 260.985,235.373 260.985,235.373 C260.985,235.373 272.289,192.92 251.188,168.855 C244.255,160.968 255.358,160.315 260.031,163.028 C260.533,163.329 261.437,165.439 261.236,162.174 C261.035,159.26 261.136,150.618 244.054,140.47 C245.662,137.405 247.873,134.24 250.887,132.08 z M239.734,137.405 C240.94,136.451 242.145,135.798 243.15,135.295 C242.798,136.501 242.447,137.858 242.145,139.314 C241.241,138.812 240.286,138.31 239.282,137.757 C239.382,137.657 239.533,137.506 239.734,137.405 z M104.84,107.061 C105.192,105.152 105.946,102.288 107.754,99.173 C109.312,96.611 111.02,94.802 112.376,93.647 C113.984,93.395 115.943,93.295 118.154,93.395 C119.711,93.496 121.068,93.697 122.274,93.948 C121.57,95.757 120.314,98.269 118.003,100.63 C113.08,105.805 106.951,106.809 104.84,107.061 z M111.02,157.702 C108.86,158.908 106.549,158.456 105.192,157.953 C105.494,157.803 105.745,157.652 105.946,157.401 C107.553,155.441 109.663,152.377 111.07,148.307 C111.07,149.513 111.221,151.523 112.427,153.532 C112.778,154.135 113.18,154.638 113.532,155.039 C113.18,155.743 112.427,156.898 111.02,157.702 z M130.01,142.881 C128.353,147.805 123.479,149.563 122.876,149.815 C121.922,150.267 120.364,150.92 118.355,150.92 C114.537,151.02 111.874,148.96 111.07,148.307 C111.321,147.504 111.573,146.7 111.824,145.846 C112.477,143.233 112.678,140.922 112.678,138.963 C113.029,138.259 114.788,134.843 118.857,133.336 C123.178,131.779 126.845,133.436 127.549,133.788 C128.152,134.391 128.704,135.044 129.257,135.697 C129.609,136.099 129.91,136.551 130.211,136.953 C130.463,138.058 130.865,140.319 130.01,142.881 z M71.532,243.662 C71.632,241.753 72.034,238.789 73.491,235.473 C74.697,232.76 76.204,230.751 77.359,229.444 C78.917,229.042 80.826,228.641 83.036,228.49 C84.594,228.389 86.001,228.44 87.206,228.54 C86.704,230.399 85.749,233.062 83.79,235.724 C79.57,241.401 73.591,243.16 71.532,243.662 z M83.941,293.198 C81.931,294.706 79.57,294.505 78.163,294.203 C78.414,294.053 78.666,293.801 78.816,293.55 C80.173,291.39 81.881,288.124 82.785,283.904 C82.936,285.06 83.338,287.069 84.795,288.928 C85.247,289.481 85.699,289.933 86.101,290.285 C85.85,290.938 85.247,292.194 83.941,293.198 z M100.922,276.117 C99.917,281.241 95.295,283.552 94.692,283.854 C93.838,284.407 92.331,285.261 90.321,285.512 C86.553,286.064 83.639,284.356 82.785,283.804 C82.936,283 83.087,282.146 83.187,281.241 C83.489,278.579 83.388,276.217 83.187,274.308 C83.438,273.555 84.745,269.988 88.663,267.978 C92.733,265.868 96.601,267.124 97.355,267.375 C98.008,267.928 98.661,268.481 99.314,269.083 C99.716,269.435 100.068,269.837 100.419,270.239 C100.771,271.294 101.474,273.505 100.922,276.117 z" fill="#000000"/>
  </g>
</svg>
