<?xml version="1.0" encoding="UTF-8"?>
<!DOCTYPE svg PUBLIC "-//W3C//DTD SVG 1.1//EN" "http://www.w3.org/Graphics/SVG/1.1/DTD/svg11.dtd">
<svg version="1.1" xmlns="http://www.w3.org/2000/svg" xmlns:xlink="http://www.w3.org/1999/xlink" x="0" y="0" width="500" height="500" viewBox="0, 0, 500, 500">
  <g id="layer101">
    <path d="M341.201,498.68 C336.501,497.978 328.294,496.225 322.962,494.892 C314.123,492.577 312.65,492.016 307.248,488.298 C303.109,485.491 300.794,483.387 299.531,481.282 C298.339,479.178 296.655,477.634 294.34,476.372 C292.376,475.319 290.271,473.987 289.57,473.355 C288.868,472.794 286.553,471.742 284.449,471.04 C282.064,470.339 280.24,469.286 279.749,468.304 C279.047,467.182 278.837,462.341 278.837,450.626 L278.907,434.491 L281.502,424.319 C282.905,418.707 284.729,411.973 285.501,409.237 C286.343,406.571 288.237,399.205 289.85,392.891 C291.955,384.473 293.288,380.685 294.901,378.23 C298.9,372.197 298.97,372.126 297.918,368.97 C297.357,367.426 294.831,363.077 292.376,359.289 C289.85,355.5 284.449,347.363 280.38,341.189 C266.7,320.495 266.139,319.793 264.245,320.986 C263.824,321.266 261.649,321.547 259.545,321.617 C257.44,321.757 250.776,322.038 244.813,322.249 C235.483,322.669 233.519,322.599 230.783,321.547 C226.012,319.723 225.03,319.863 223.417,322.459 C221.242,326.037 217.454,330.386 207.282,341.189 C197.671,351.361 192.831,356.763 191.147,359.359 C190.586,360.201 189.674,363.217 189.042,366.093 C187.92,371.495 184.342,379.703 181.606,383.07 C180.203,384.824 180.133,385.175 180.975,388.121 C181.957,391.699 181.536,397.1 179.853,401.029 C179.291,402.362 178.87,404.747 178.87,406.29 C178.87,407.834 177.467,417.865 175.714,428.458 C172.487,447.96 169.26,460.658 165.051,469.988 C164.068,472.092 163.437,474.408 163.577,475.109 C163.788,476.442 161.052,477.775 155.3,479.108 C151.792,479.949 149.617,482.124 149.266,485 C148.986,487.806 144.917,489.771 136.078,491.314 C132.43,491.945 126.116,493.068 122.048,493.769 C113.068,495.383 88.094,496.856 80.097,496.295 C76.87,496.084 70.977,495.383 67.119,494.751 C63.19,494.19 58.911,493.559 57.648,493.348 C54.772,492.998 51.194,491.174 51.124,490.051 C50.774,486.123 52.457,482.124 55.684,479.178 C57.648,477.424 58.21,476.372 58.21,474.408 C58.21,473.075 58.701,470.83 59.262,469.427 C60.735,465.919 60.595,464.516 58.21,459.816 C55.965,455.467 55.474,450.696 56.807,447.118 C57.227,446.066 59.613,442.418 62.278,438.911 C65.926,433.93 67.75,432.176 70.486,430.843 C76.519,427.827 78.413,425.933 81.36,420.04 C82.903,417.023 86.761,410.008 89.848,404.607 C92.935,399.135 100.23,385.104 105.983,373.459 C114.331,356.623 116.365,351.782 116.015,350.379 C115.734,349.117 116.225,347.223 117.698,344.206 C118.821,341.751 120.013,339.015 120.294,338.033 C121.206,334.946 124.433,330.106 127.239,327.51 C134.184,321.337 138.042,316.987 140.638,312.568 C144.286,306.324 144.847,305.763 147.583,305.763 C150.389,305.763 152.002,304.149 157.755,295.31 C164.139,285.629 164.139,285.629 162.806,281.911 C161.403,277.983 158.176,276.089 153.967,276.72 C152.423,276.931 147.162,276.72 142.181,276.299 C135.236,275.738 132.009,275.107 127.8,273.493 C108.438,265.987 105.071,261.848 95.39,232.875 C91.321,220.809 90.199,216.39 88.585,206.148 C86.691,193.941 86.551,190.504 87.112,172.475 C87.323,166.722 87.814,163.846 89.287,159.497 C92.023,151.499 99.739,139.574 107.105,131.927 C108.298,130.734 109.07,129.542 108.859,129.402 C108.578,129.261 106.755,128.911 104.72,128.63 C96.302,127.508 86.691,120.983 84.376,114.81 C79.185,100.92 77.571,93.694 78.133,86.749 C78.694,79.875 80.307,75.595 84.587,69.282 C88.726,63.108 93.145,59.18 98.687,56.654 C104.72,53.848 107.877,53.498 112.086,54.971 C116.365,56.514 118.189,56.093 121.907,52.656 L124.784,49.99 L123.661,46.412 C122.188,41.712 122.819,39.537 126.046,37.924 C127.449,37.292 129.133,35.819 129.764,34.627 C131.097,32.312 132.22,32.171 135.938,33.645 C139.375,35.048 140.568,33.995 141.059,28.944 C141.269,26.7 141.69,24.244 141.971,23.613 C142.813,21.719 148.284,19.614 156.352,18.141 C158.176,17.79 160.701,17.229 162.034,16.808 C163.367,16.457 168.839,14.984 174.17,13.651 C179.432,12.318 185.465,10.635 187.499,10.074 C189.463,9.442 194.304,8.039 198.162,6.917 C202.021,5.794 208.825,3.76 213.245,2.357 C225.1,-1.361 226.924,-1.01 231.695,5.794 C233.519,8.46 236.044,8.18 238.92,5.023 C241.165,2.567 241.376,2.497 243.901,3.269 C245.374,3.69 247.97,4.181 249.724,4.391 C253.582,4.812 255.616,6.917 256.318,10.986 C256.739,14.002 258.773,16.037 261.158,16.037 C261.86,16.037 263.614,14.774 265.017,13.23 C268.033,9.933 275.259,6.917 280.029,6.917 C284.308,6.917 297.357,10.284 300.934,12.389 C306.687,15.686 310.756,20.175 313.562,26.209 C317.49,34.627 318.051,38.204 317.069,49.218 C316.017,61.004 315.596,62.547 312.159,67.177 C308.16,72.509 308.441,73.14 315.315,73.561 C318.402,73.771 321.699,74.403 322.681,74.964 C323.664,75.455 326.961,78.121 330.047,80.857 C333.976,84.364 336.992,86.328 339.869,87.451 C347.796,90.467 357.968,96.22 361.054,99.517 C370.455,109.408 372.489,112.004 373.05,114.6 C373.471,116.844 374.103,117.616 376.347,118.809 C377.891,119.58 379.995,121.474 381.048,123.018 C383.363,126.315 386.449,134.242 387.221,138.942 C387.572,140.696 388.343,143.011 389.045,144.063 C389.746,145.116 390.237,147.08 390.167,148.553 C390.097,150.377 390.588,152.061 391.64,153.604 C394.867,158.444 397.814,164.057 397.744,165.249 C397.393,168.266 397.673,168.476 400.9,168.125 C402.795,167.915 405.25,166.933 406.863,165.81 C408.687,164.548 410.932,163.706 413.037,163.495 C417.737,163.074 418.789,164.267 418.789,169.949 C418.789,172.405 419.14,174.649 419.631,175.141 C420.122,175.632 422.156,175.982 424.191,175.982 C427.277,175.982 428.26,176.333 429.733,177.736 C431.416,179.42 431.487,179.841 431.066,183.909 C430.785,186.295 430.154,188.96 429.592,189.872 C428.681,191.275 428.189,191.416 425.103,190.995 C422.718,190.714 421.244,190.784 420.543,191.416 C419.21,192.538 419.14,197.308 420.403,198.361 C420.964,198.782 425.804,199.273 431.837,199.553 C437.59,199.764 443.132,200.255 444.184,200.676 C447.201,201.798 447.832,204.464 447.341,214.285 C446.99,223.475 446.008,226.492 443.483,226.492 C442.781,226.492 441.518,226.983 440.606,227.614 C439.203,228.596 439.063,229.227 439.344,231.542 C439.764,234.84 440.887,236.313 442.991,236.313 C446.008,236.313 447.481,238.417 448.253,243.679 C449.726,254.342 448.884,258.34 444.535,261.287 C441.588,263.321 441.518,263.321 430.715,263.321 L419.841,263.321 L418.929,265.285 C418.438,266.338 417.807,268.933 417.597,271.038 C417.386,273.142 416.825,275.177 416.404,275.528 C415.983,275.878 413.949,276.299 411.914,276.44 C407.425,276.86 405.811,278.193 404.899,282.473 C403.426,289.418 402.093,293.346 400.76,294.679 C399.006,296.433 394.376,297.064 391.29,296.012 C389.325,295.31 388.764,295.38 386.87,296.783 C383.994,298.888 380.136,298.888 377.821,296.713 C376.488,295.451 375.646,295.17 374.103,295.591 C368.49,296.994 367.158,296.854 364.632,294.609 C361.896,292.224 360.142,291.943 358.108,293.416 C356.845,294.328 356.915,294.609 360.002,301.273 C361.826,305.132 363.439,309.2 363.72,310.323 C364.001,311.515 364.632,313.62 365.263,315.023 C365.895,316.426 366.175,318.11 365.965,318.671 C365.754,319.232 363.229,320.425 360.493,321.266 C356.074,322.599 354.951,322.74 352.356,322.038 C348.427,320.986 347.936,320.986 347.936,322.249 C347.936,324.213 351.373,330.246 352.987,331.158 C353.899,331.579 356.354,332.21 358.459,332.491 C361.616,332.912 362.738,333.473 364.492,335.437 C366.386,337.471 366.807,338.664 367.508,343.715 C369.122,356.132 369.613,362.937 369.192,368.268 L368.771,373.74 L371.367,376.616 C374.594,380.194 374.874,384.192 372.138,387.91 C369.122,392.049 368.771,393.172 369.332,396.679 C369.683,399.205 370.385,400.538 372.138,402.221 C376.698,406.36 376.909,410.359 372.77,415.27 C371.367,416.953 370.385,418.918 370.385,419.97 C370.455,423.548 371.717,427.266 373.471,429.16 C377.259,433.158 377.259,436.455 373.401,441.997 C371.858,444.242 371.647,445.224 371.928,448.241 C372.279,451.538 372.629,452.24 376.137,455.467 C381.048,460.097 386.098,469.286 386.8,474.899 C387.291,478.897 387.922,479.879 391.57,482.545 C393.114,483.738 393.535,484.72 393.885,488.438 C394.587,494.962 394.306,495.453 388.413,497.207 C378.171,500.223 355.933,500.925 341.201,498.68 z M152.564,99.727 C158.316,97.974 159.789,95.799 157.264,92.782 C154.458,89.415 153.476,89.415 147.723,93.203 C142.111,96.851 141.339,98.324 143.093,101.692 C143.795,102.954 143.935,102.954 146.46,101.902 C147.863,101.271 150.669,100.289 152.564,99.727 z" fill="#000000"/>
  </g>
</svg>
