<?xml version="1.0" encoding="UTF-8"?>
<!DOCTYPE svg PUBLIC "-//W3C//DTD SVG 1.1//EN" "http://www.w3.org/Graphics/SVG/1.1/DTD/svg11.dtd">
<svg version="1.1" xmlns="http://www.w3.org/2000/svg" xmlns:xlink="http://www.w3.org/1999/xlink" x="0" y="0" width="500" height="500" viewBox="0, 0, 500, 500">
  <g id="Background">
    <rect x="0" y="0" width="500" height="500" fill="#000000" fill-opacity="0"/>
  </g>
  <g id="Layer_1">
    <path d="M229.953,46.655 C225.82,48.126 221.21,50.75 219.704,52.488 C218.202,54.226 215.251,56.722 213.148,58.039 C206.605,62.134 204.003,68.005 203.981,78.728 C203.959,90.404 201.385,99.314 194.917,110.138 C187.125,123.165 187.556,132.704 195.932,132.704 C199.628,132.704 200.259,135.218 198.518,142.99 C196.752,150.863 198.792,154.688 207.334,159.528 C214.182,163.406 216.54,162.498 222.348,153.755 C227.316,146.268 229.454,145.049 232.414,148.009 C236.076,151.671 234.265,158.488 227.181,167.734 C223.4,172.668 219.026,179.256 217.46,182.373 C215.895,185.494 212.84,189.703 210.669,191.727 C205.835,196.24 205.772,197.88 210.203,204.405 C212.117,207.227 213.5,209.974 213.277,210.518 C212.061,213.478 194.172,228.328 188.653,230.956 C183.439,233.442 181.94,234.966 180.852,238.904 C180.114,241.582 178.303,245.07 176.829,246.654 C175.355,248.242 173.944,251.381 173.696,253.638 C172.788,261.91 158.899,257.353 158.899,248.782 C158.899,233.951 140.514,224.023 136.337,236.597 C130.95,252.824 126.038,254.106 95.357,247.305 C32.314,233.329 -2.345,230.912 -2.345,240.491 C-2.345,248.603 33.342,258.974 94.675,268.683 C110.556,271.197 112.464,274.076 103.557,282.081 C96.881,288.081 96.221,290.281 99.644,295.165 C104.11,301.541 120.902,297.16 136.679,285.507 L143.905,280.17 L152.425,281.672 C157.114,282.499 165.694,284.985 171.493,287.194 C183.992,291.959 185.387,292.044 192.377,288.483 C198.565,285.324 201.834,285.161 215.342,287.32 C227.747,289.3 229.406,290.447 226.43,294.985 C224.988,297.189 224.497,299.8 225.028,302.459 C225.654,305.583 225.05,307.488 222.47,310.555 C212.869,321.967 214.688,342.763 226.213,353.389 C230.29,357.145 234.96,362.174 236.591,364.556 C238.338,367.114 241.233,369.261 243.637,369.789 C248.405,370.838 248.779,373.18 245.133,379.189 C233.806,397.854 251.237,415.58 271.631,406.139 C278.432,402.99 282.552,398.558 290.812,385.5 C294.379,379.865 299.068,373.362 301.233,371.055 C304.075,368.029 305.533,364.644 306.466,358.924 C309.427,340.73 325.496,339.9 325.65,357.934 C325.672,360.813 327.127,365.282 329.057,368.418 C330.927,371.454 332.436,376.012 332.448,378.667 C332.517,391.795 341.132,409.373 348.144,410.687 C355.419,412.054 358.804,417.356 358.072,426.253 C356.117,450.114 371.25,463.132 389.831,453.571 C399.523,448.583 402.569,441.43 401.56,426.011 C400.777,413.999 400.799,413.892 404.731,410.218 C412.466,402.993 411.997,385.94 403.886,379.56 C395.928,373.302 381.282,348.606 382.184,342.971 C382.841,338.85 382.266,336.226 379.582,331.091 C376.48,325.16 376.307,324.032 377.838,319.814 C379.739,314.578 380.27,276.6 378.532,270.377 C375.986,261.275 365.269,266.498 362.406,278.234 C358.05,296.101 353.395,294.605 346.764,273.202 C343.404,262.366 346.249,251.586 352.465,251.586 C353.477,251.586 356.516,248.509 359.219,244.747 C364.751,237.053 367.215,235.249 370.895,236.211 C375.009,237.286 382.533,248.861 383.369,255.398 C384.306,262.708 385.861,264.594 394.526,268.912 C403.345,273.306 406.152,276.851 406.23,283.699 C406.381,296.846 410.262,303.543 420.414,308.179 C430.723,312.884 449.155,300.476 446.657,290.516 C445.541,286.069 447.339,285.418 452.091,288.549 C454.297,290.004 457.302,291.201 458.763,291.204 C460.225,291.211 463.726,292.811 466.542,294.762 C472.761,299.071 479.069,297.776 484.755,291.019 C489.403,285.491 489.151,283.401 482.749,274.459 C476.486,265.716 476.278,264.38 480.018,257.054 C483.689,249.854 483.532,243.185 479.578,238.37 C477.834,236.245 474.169,230.783 471.441,226.229 C468.71,221.678 464.911,217.115 462.997,216.09 C458.26,213.557 458.483,213.142 466.699,209.226 L473.868,205.81 L474.264,193.854 C474.688,181.016 475.901,179.328 480.813,184.756 C495.283,200.747 502.345,181.93 491.631,155.936 C484.459,138.53 484.349,137.487 489.01,130.623 C493.476,124.039 492.659,118.224 486.269,111.103 C483.78,108.328 481.332,104.732 480.829,103.11 C478.667,96.158 457.99,81.764 453.845,84.326 C452.996,84.85 447.801,85.721 442.298,86.258 C423.214,88.128 411.479,96.982 406.812,113.029 C403.097,125.808 397.471,126.132 388.966,114.051 C381.254,103.098 380.352,102.325 376.442,103.305 C374.041,103.909 370.719,102.944 365.36,100.087 C354.822,94.471 341.541,92.274 330.839,94.38 C325.943,95.344 319.091,95.624 313.921,95.068 C305.514,94.169 305.112,94.27 301.416,98.223 C289.655,110.788 283.055,106.992 282.615,87.406 C281.898,55.773 257.469,36.868 229.953,46.655 M445.598,191.837 C447.751,194.429 454.008,212.297 453.213,213.582 C450.629,217.762 439.277,214.591 437.068,209.066 C433.089,199.119 440.022,185.117 445.598,191.837 M260.235,238.612 C260.86,240.95 260.703,243.241 259.851,244.272 C259.059,245.224 258.827,246.667 259.33,247.481 C259.832,248.295 258.607,250.627 256.602,252.664 C254.6,254.703 250.988,259.138 248.575,262.52 C244.813,267.79 243.414,268.73 238.778,269.101 C235.805,269.34 232.785,270.106 232.072,270.807 C227.951,274.855 214.167,269.824 215.722,264.839 C216.904,261.042 219.016,259.584 222.212,260.354 C223.718,260.716 226.389,259.361 228.907,256.954 C231.207,254.754 234.089,252.953 235.306,252.953 C238.326,252.953 247.717,246.425 247.717,244.326 C247.717,243.392 248.795,241.613 250.108,240.372 C251.425,239.13 253.324,237.116 254.332,235.896 C256.809,232.889 258.971,233.885 260.235,238.612" fill="#000000" id="blood-angels-dawnbreaker"/>
  </g>
</svg>
