<?xml version="1.0" encoding="UTF-8"?>
<!DOCTYPE svg PUBLIC "-//W3C//DTD SVG 1.1//EN" "http://www.w3.org/Graphics/SVG/1.1/DTD/svg11.dtd">
<svg version="1.1" xmlns="http://www.w3.org/2000/svg" xmlns:xlink="http://www.w3.org/1999/xlink" x="0" y="0" width="500" height="500" viewBox="0, 0, 500, 500">
  <g id="Background">
    <rect x="0" y="0" width="500" height="500" fill="#000000" fill-opacity="0"/>
  </g>
  <g id="Layer_1">
    <path d="M147.959,0.525 C145.202,1.165 144.432,2.017 144.133,4.771 C143.583,9.817 142.464,10.33 137.482,7.819 C134.561,6.346 129.369,5.298 122.546,4.803 L112.089,4.046 L107.012,7.856 C104.22,9.952 99.667,13.212 96.891,15.098 C90.367,19.538 87.282,24.332 82.998,36.691 C74.129,62.29 84.638,77.438 112.298,78.922 L123.803,79.541 L123.496,82.991 C122.715,91.773 122.898,91.619 113.14,91.625 C103.638,91.633 104.244,91.387 91.393,100.409 C80.23,108.249 71.459,126.585 71.459,142.089 C71.459,152.231 69.115,164.391 66.181,169.474 C61.532,177.528 62.294,182.114 69.276,188.128 C76.989,194.771 79.503,199.068 79.508,205.622 C79.516,216.449 89.173,233.449 96.045,234.737 C98.212,235.145 101.35,236.55 103.014,237.859 C105.853,240.09 106.311,240.132 110.354,238.516 C114.058,237.031 115.066,237.013 117.508,238.383 C119.072,239.262 122.54,239.891 125.218,239.786 C133.918,239.436 133.1,243.159 124.228,244.294 C121.464,244.646 117.865,245.609 116.23,246.432 L113.261,247.93 L113.029,271.295 C112.727,301.424 110.139,306.956 92.166,315.913 C81.066,321.443 75.335,331.24 75.912,343.694 C76.158,348.975 68.837,367.965 54.158,400.117 C48.66,412.159 47.85,423.121 51.904,430.68 C56.177,438.652 54.129,446.899 45.797,455.276 C37.394,463.722 38.645,471.704 49.536,479.136 C61.371,487.212 93.333,487.267 122.429,479.261 L135.492,475.665 L136.897,470.183 C137.67,467.169 138.146,463.973 137.955,463.084 C137.685,461.835 138.834,461.552 142.996,461.84 C152.717,462.518 154.061,456.318 155.288,405.097 C156.167,368.465 156.527,366.499 162.874,363.472 C168.293,360.887 168.428,361.25 166.398,372.881 C163.242,390.981 176.027,393.214 184.663,376.069 C185.695,374.024 188.081,371.553 189.968,370.576 C193.699,368.647 194.439,365.404 191.672,363.107 C189.656,361.435 189.809,343.231 191.854,341.186 C193.908,339.133 195.31,342.395 198.069,355.63 C201.549,372.331 204.769,379.527 210.338,383.03 C216.493,386.904 223.102,387.991 224.97,385.438 C226.788,382.951 229.399,384.393 228.455,387.364 C227.513,390.338 257.67,391.254 260.639,388.338 C261.24,387.748 265.513,387.267 270.13,387.267 C275.096,387.267 278.528,386.785 278.528,386.086 C278.528,385.438 279.795,384.427 281.343,383.84 C283.764,382.917 284.206,381.922 284.505,376.688 C284.769,372.116 285.328,370.518 286.762,370.246 C289.601,369.706 290.387,375.249 289.307,388.185 C288.045,403.274 287.981,402.901 296.919,430.982 C304.561,454.985 305.754,458.493 310.416,470.67 L312.617,476.422 L318.377,476.07 C326.159,475.596 329.347,478.163 330.225,485.6 C330.866,491.024 330.943,491.112 338.838,495.25 L346.805,499.428 L364.045,499.801 C381.402,500.176 391.906,499.084 401.817,495.869 C410.438,493.072 411.044,491.286 409.57,472.969 C408.625,461.245 409.472,458.147 415.383,451.688 C420.905,445.65 420.325,433.125 414.129,424.624 C411.832,421.478 406.794,413.312 402.931,406.483 C399.066,399.652 394.322,391.762 392.388,388.949 C387.805,382.29 383.238,372.421 383.225,369.148 C383.217,367.724 382.783,366.56 382.257,366.56 C381.73,366.56 379.616,363.964 377.56,360.789 C372.192,352.502 361.362,340.101 359.494,340.101 C358.621,340.101 357.904,339.609 357.904,339.011 C357.904,338.41 355.187,337.765 351.866,337.572 C347.418,337.318 345.826,336.77 345.826,335.5 C345.826,333.233 412.049,332.269 416.208,334.473 C419.418,336.175 422.082,335.143 423.395,331.687 C424.612,328.486 430.877,322.94 433.629,322.628 C434.69,322.506 439.291,322.376 443.86,322.339 C458.058,322.22 462.606,313.304 462.561,285.694 C462.519,259.728 459.905,256.465 438.934,256.209 C430.861,256.111 423.802,253.19 420.021,248.379 L417.518,245.194 L382.823,244.62 C348.254,244.045 342.846,243.297 349.853,240.042 C359.793,235.425 360.881,234.536 365.336,227.379 C369.588,220.553 369.964,219.312 369.75,212.808 C369.519,205.9 369.628,205.612 373.626,202.563 C376.078,200.69 378.923,196.822 380.674,192.975 C382.291,189.427 384.609,185.162 385.828,183.497 C389.927,177.901 388.379,151.159 383.609,145.111 C381.614,142.582 379.621,138.697 379.182,136.483 C377.944,130.223 373.71,123.812 365.767,116.16 C350.781,101.724 344.333,97.176 334.321,93.98 C329.892,92.564 325.172,90.979 323.83,90.455 C316.594,87.632 311.075,87.828 310.294,90.937 C309.331,94.771 307.437,94.718 304.288,90.77 C301.989,87.886 300.991,87.584 292.453,87.198 C277.975,86.539 279.851,81.279 294.575,81.245 L303.261,81.224 L307.225,76.453 C309.405,73.829 313.718,67.497 316.811,62.383 L322.433,53.082 L321.637,39.94 C320.547,21.948 318.872,18.289 309.275,12.923 C305.214,10.65 300.888,8.79 299.663,8.79 C298.438,8.79 294.763,8.097 291.495,7.251 C286.447,5.941 285.312,5.954 283.936,7.327 C281.2,10.066 274.813,7.706 273.736,3.557 L272.852,0.165 L212.132,-0.057 C178.736,-0.176 149.859,0.086 147.959,0.525" fill="#000000" id="blood-angels-angels-tears"/>
  </g>
</svg>
