<?xml version="1.0" encoding="UTF-8"?>
<!DOCTYPE svg PUBLIC "-//W3C//DTD SVG 1.1//EN" "http://www.w3.org/Graphics/SVG/1.1/DTD/svg11.dtd">
<svg version="1.1" xmlns="http://www.w3.org/2000/svg" xmlns:xlink="http://www.w3.org/1999/xlink" x="0" y="0" width="500" height="500" viewBox="0, 0, 500, 500">
  <g id="Layer_1">
    <g>
      <path d="M243.148,461.152 C240.407,460.648 237.666,460.257 234.926,459.697 C214.118,455.502 202.372,442.973 199.463,421.941 C197.338,406.503 199.183,391.233 201.98,376.075 C206.567,351.352 214.398,327.58 221.725,303.584 C232.576,268.121 242.477,232.435 250.14,196.133 C250.308,195.462 250.475,194.791 251.203,194.119 C252.153,198.315 253.048,202.566 253.999,206.761 C263.005,246.978 274.639,286.468 286.945,325.734 C293.154,345.591 298.579,365.615 301.544,386.255 C303.39,399.008 304.285,411.817 301.879,424.626 C298.076,444.819 285.714,456.789 265.298,459.977 C263.117,460.313 260.935,460.704 258.754,461.096 C253.608,461.152 248.35,461.152 243.148,461.152 z" fill="#000000"/>
      <path d="M13.368,280.427 C14.263,280.427 15.158,280.371 16.053,280.427 C34.735,281.489 53.306,281.378 71.82,278.245 C75.624,277.574 79.371,276.288 83.119,275.169 C84.07,274.889 85.133,274.33 85.692,273.603 C86.363,272.764 86.922,271.477 86.811,270.526 C86.755,269.967 85.077,269.408 84.126,269.352 C77.637,268.96 71.037,269.408 64.66,268.345 C50.845,266.051 39.378,258.668 29.03,249.495 C17.619,239.371 8.502,227.401 0.336,214.648 C0.224,214.424 0.168,214.144 0,213.585 C1.287,214.088 2.293,214.424 3.244,214.815 C18.85,221.136 34.791,226.338 51.572,228.128 C57.445,228.743 63.43,228.184 69.359,228.128 C69.639,228.128 69.974,228.072 70.198,227.96 C72.1,226.785 74.002,225.555 75.903,224.38 C74.505,222.926 73.33,221.08 71.652,220.017 C62.199,213.92 52.299,208.439 43.126,201.894 C29.03,191.826 18.123,179.017 12.418,162.349 C9.453,153.735 8.278,144.841 8.838,135.108 C9.9,136.003 10.684,136.563 11.411,137.178 C24.947,148.924 39.098,159.887 54.592,168.893 C59.738,171.857 65.22,174.207 70.701,176.556 C72.659,177.395 75.288,178.402 76.854,176.053 C78.309,173.871 76.295,171.969 74.952,170.403 C53.306,144.561 44.636,113.853 41.28,81.243 C40.049,69.497 39.825,57.639 39.21,45.837 C39.154,44.83 39.21,43.823 39.825,42.648 C40.217,43.487 40.609,44.326 41,45.165 C51.963,69.777 64.884,93.213 81.161,114.692 C104.766,145.736 134.803,167.942 171.384,181.478 C177.033,183.604 182.571,186.121 188.108,188.526 C189.786,189.253 191.408,190.204 193.031,191.155 C205.504,198.818 208.469,214.032 199.351,225.555 C196.443,229.246 192.583,232.155 188.891,235.176 C185.144,238.252 181.005,240.825 177.257,243.845 C165.231,253.41 162.155,266.107 165.623,280.483 C168.979,294.41 178.991,301.402 192.303,304.479 C195.212,305.15 198.177,305.429 201.421,305.933 C196.778,318.239 192.192,330.544 187.493,343.129 C186.542,342.234 185.815,341.563 185.088,340.892 C174.908,331.271 161.707,329.817 149.961,337.312 C146.213,339.717 142.801,342.682 139.445,345.591 C135.418,349.059 131.614,352.806 127.699,356.33 C116.009,366.846 102.472,372.048 86.531,371.209 C72.324,370.482 58.508,368.524 46.034,361.029 C43.685,359.63 41.504,357.952 38.707,356.05 C43.238,354.82 47.153,353.981 50.845,352.638 C60.521,349.114 70.198,345.479 79.763,341.507 C83.399,339.997 86.755,337.592 89.999,335.299 C92.013,333.844 94.026,332.11 95.369,330.041 C96.487,328.307 97.27,325.846 96.935,323.944 C96.767,323.049 93.691,322.21 91.901,322.042 C83.455,321.315 74.952,321.259 66.562,320.084 C42.902,316.784 25.059,304.926 14.375,283.167 C14.04,282.496 13.76,281.825 13.48,281.154 C13.257,280.986 13.312,280.762 13.368,280.427 z" fill="#000000"/>
    </g>
    <path d="M486.632,280.427 C485.737,280.427 484.842,280.371 483.947,280.427 C465.265,281.489 446.694,281.378 428.18,278.245 C424.376,277.574 420.629,276.288 416.881,275.169 C415.93,274.889 414.867,274.33 414.308,273.603 C413.637,272.764 413.078,271.477 413.189,270.526 C413.245,269.967 414.923,269.408 415.874,269.352 C422.363,268.96 428.963,269.408 435.34,268.345 C449.155,266.051 460.622,258.668 470.97,249.495 C482.381,239.371 491.498,227.401 499.664,214.648 C499.776,214.424 499.832,214.144 500,213.585 C498.713,214.088 497.707,214.424 496.756,214.815 C481.15,221.136 465.209,226.338 448.428,228.128 C442.555,228.743 436.57,228.184 430.641,228.128 C430.361,228.128 430.026,228.072 429.802,227.96 C427.9,226.785 425.998,225.555 424.097,224.38 C425.495,222.926 426.67,221.08 428.348,220.017 C437.801,213.92 447.701,208.439 456.874,201.894 C470.97,191.826 481.877,179.017 487.582,162.349 C490.547,153.735 491.722,144.841 491.162,135.108 C490.1,136.003 489.316,136.563 488.589,137.178 C475.053,148.924 460.902,159.887 445.408,168.893 C440.262,171.857 434.78,174.207 429.299,176.556 C427.341,177.395 424.712,178.402 423.146,176.053 C421.691,173.871 423.705,171.969 425.048,170.403 C446.75,144.673 455.364,113.965 458.776,81.355 C460.007,69.609 460.23,57.751 460.846,45.949 C460.902,44.942 460.846,43.935 460.23,42.76 C459.839,43.599 459.447,44.438 459.056,45.277 C448.093,69.889 435.172,93.325 418.895,114.804 C395.29,145.736 365.197,167.942 328.672,181.478 C323.023,183.604 317.485,186.121 311.948,188.526 C310.27,189.253 308.647,190.204 307.025,191.155 C294.552,198.818 291.587,214.032 300.705,225.555 C303.613,229.246 307.473,232.155 311.165,235.176 C314.912,238.252 319.051,240.825 322.799,243.845 C334.825,253.41 337.901,266.107 334.433,280.483 C331.077,294.41 321.065,301.402 307.753,304.479 C304.844,305.15 301.879,305.429 298.635,305.933 C303.278,318.239 307.864,330.544 312.563,343.129 C313.514,342.234 314.241,341.563 314.968,340.892 C325.148,331.271 338.349,329.817 350.095,337.312 C353.843,339.717 357.255,342.682 360.611,345.591 C364.638,349.059 368.442,352.806 372.357,356.33 C384.047,366.846 397.584,372.048 413.525,371.209 C427.732,370.482 441.548,368.524 454.022,361.029 C456.371,359.63 458.552,357.952 461.349,356.05 C456.818,354.82 452.903,353.981 449.211,352.638 C439.535,349.114 429.858,345.479 420.293,341.507 C416.657,339.997 413.301,337.592 410.057,335.299 C408.043,333.844 406.03,332.11 404.687,330.041 C403.569,328.307 402.786,325.846 403.121,323.944 C403.289,323.049 406.365,322.21 408.155,322.042 C416.601,321.315 425.103,321.259 433.494,320.084 C457.154,316.784 474.997,304.926 485.681,283.167 C486.016,282.496 486.296,281.825 486.576,281.154 C486.688,280.986 486.632,280.762 486.632,280.427 z" fill="#000000"/>
  </g>
</svg>
