<?xml version="1.0" encoding="UTF-8"?>
<!DOCTYPE svg PUBLIC "-//W3C//DTD SVG 1.1//EN" "http://www.w3.org/Graphics/SVG/1.1/DTD/svg11.dtd">
<svg version="1.1" xmlns="http://www.w3.org/2000/svg" xmlns:xlink="http://www.w3.org/1999/xlink" x="0" y="0" width="500" height="500" viewBox="0, 0, 500, 500">
  <g id="layer101">
    <path d="M185.205,496.524 C179.034,491.124 178.262,489.646 176.141,479.039 C175.755,476.789 174.662,473.897 173.763,472.611 C171.384,469.14 169.649,464.255 170.099,462.262 C170.291,461.298 171.32,459.562 172.348,458.341 C173.377,457.12 174.662,454.934 175.112,453.52 C176.077,450.82 176.141,451.206 172.348,438.735 C171.641,436.421 171.448,426.393 172.027,419.772 C172.413,415.08 172.348,414.759 169.584,408.523 C168.042,404.988 165.985,399.91 164.956,397.274 C163.992,394.639 162.899,392.067 162.513,391.682 C161.614,390.46 159.878,390.653 158.592,392.067 C156.728,394.124 151.264,396.053 145.993,396.567 C140.465,397.146 139.18,397.66 138.087,399.845 C137.637,400.681 135.001,402.674 132.237,404.281 C127.223,407.173 127.03,407.366 124.009,413.023 C122.274,416.173 120.474,419.001 119.895,419.322 C118.353,420.222 115.781,423.244 115.781,424.208 C115.781,424.722 115.074,426.65 114.174,428.515 C113.274,430.379 112.117,433.529 111.603,435.521 C110.639,439.378 108.196,444.135 105.946,446.642 C103.118,449.727 99.711,447.606 96.433,440.664 C93.733,435.007 93.476,430.764 95.212,423.694 C95.983,420.48 96.497,417.458 96.304,417.008 C96.111,416.494 94.569,415.916 92.897,415.658 C89.748,415.273 87.498,413.794 87.498,412.187 C87.498,409.68 95.019,402.931 98.811,402.031 C101.254,401.452 106.589,398.753 107.103,397.853 C107.361,397.467 109.546,395.924 111.86,394.382 C115.653,391.939 119.638,387.632 119.638,386.089 C119.638,385.768 120.667,384.097 121.888,382.361 C123.174,380.625 124.845,377.733 125.681,375.869 C126.516,374.005 128.059,371.755 129.216,370.726 L131.209,368.991 L129.859,366.355 C128.123,362.82 126.709,358.256 126.709,355.749 C126.709,354.206 127.288,353.178 129.087,351.571 C134.423,346.942 133.909,339.293 127.673,328.815 C125.102,324.444 123.688,322.709 122.788,322.709 C122.145,322.709 121.567,322.323 121.567,321.873 C121.567,320.33 117.838,316.923 116.167,316.923 C114.174,316.923 111.925,314.866 111.925,313.002 C111.925,312.295 111.667,311.845 111.346,312.038 C110.382,312.616 107.425,311.267 105.046,309.21 C103.825,308.117 102.475,307.281 101.961,307.281 C101.447,307.281 100.418,306.703 99.711,305.996 C98.683,304.967 98.49,304.196 98.811,302.46 C99.197,300.403 99.068,300.21 96.883,299.118 C94.697,298.089 94.054,296.739 94.44,293.718 C94.504,293.461 93.283,292.947 91.676,292.561 C88.912,291.854 86.855,290.44 86.855,289.218 C86.855,288.897 87.305,287.611 87.755,286.39 C88.462,284.719 88.526,284.14 87.948,284.076 C87.498,284.012 86.019,283.947 84.669,283.883 C80.877,283.626 79.463,280.476 82.098,278.291 C83.641,277.005 83.191,275.205 81.263,274.819 C76.699,273.855 75.67,273.405 74.449,271.862 C73.356,270.32 73.292,269.87 74.063,267.877 C74.77,265.884 74.706,265.499 73.485,263.892 C72.713,262.927 71.749,260.935 71.363,259.456 C70.978,258.042 69.949,256.049 69.114,255.021 C66.864,252.385 67.121,249.943 69.885,246.857 L72.199,244.286 L70.206,243.193 C66.671,241.136 66.157,236.508 69.242,233.937 C70.013,233.294 69.821,232.908 67.892,231.623 C65.064,229.694 63.2,226.03 63.521,223.073 C63.714,221.209 63.328,220.245 61.207,217.481 C58.314,213.56 57.607,211.181 58.572,208.61 C59.15,207.068 59.086,206.489 57.929,205.139 C55.936,202.632 53.493,197.297 52.851,193.89 C52.529,192.219 51.822,190.355 51.243,189.776 C50.729,189.133 49.765,187.333 49.251,185.791 C48.415,183.476 48.351,182.384 48.929,180.327 C49.572,178.141 49.444,177.177 48.351,174.22 C47.644,172.292 46.808,168.756 46.487,166.442 C46.101,164.064 45.201,160.914 44.365,159.371 C43.594,157.828 42.308,153.843 41.473,150.5 C40.637,147.222 38.966,142.465 37.68,139.894 C36.459,137.387 35.43,135.073 35.43,134.752 C35.43,134.43 34.402,131.602 33.116,128.388 C30.931,122.988 30.802,122.153 31.124,117.846 C31.445,113.668 31.252,112.511 29.388,107.24 C28.167,103.961 26.495,99.462 25.531,97.276 C23.474,92.326 21.61,85.577 20.26,78.12 C19.425,73.171 19.36,71.049 20.003,63.657 C20.453,58.9 21.096,54.272 21.417,53.372 C21.803,52.472 22.189,49.001 22.317,45.659 C22.639,36.081 24.888,25.989 26.624,26.503 C27.138,26.696 27.524,29.91 27.91,37.688 C28.36,48.423 29.388,55.815 30.159,54.979 C30.417,54.722 30.802,46.687 30.995,37.109 C31.316,23.61 31.638,18.725 32.474,15.768 C33.566,12.04 36.33,7.09 37.359,7.09 C37.68,7.09 37.745,8.826 37.552,10.883 C37.166,14.675 38.195,37.559 39.287,51.122 C39.673,55.944 40.38,59.608 41.537,62.629 C43.337,67.514 43.594,67.964 44.237,67.257 C44.751,66.743 44.687,57.036 44.108,48.873 C43.723,43.666 44.365,36.466 46.358,23.803 C48.222,12.297 53.3,-1.588 55.036,0.148 C55.293,0.405 55.229,3.748 54.843,7.54 C53.429,20.975 52.786,29.396 52.401,40.902 C52.015,50.865 52.143,53.308 53.108,57.293 C55.422,67.064 56.322,66.421 57.222,54.337 C58.122,43.409 58.957,38.652 60.886,34.281 C62.364,30.938 65.257,28.239 66.157,29.331 C66.414,29.653 66.478,36.016 66.221,43.409 C65.835,56.651 66.349,65.264 68.214,75.292 C69.242,80.756 72.006,90.784 73.035,92.584 C76.184,98.24 77.856,101.647 78.499,104.154 C78.948,105.761 80.106,108.075 81.134,109.361 C82.163,110.711 83.448,112.896 83.898,114.31 C85.312,118.296 88.012,122.153 89.362,122.153 C90.712,122.153 93.283,124.981 93.283,126.395 C93.283,130.059 101.64,148.058 105.239,152.172 C108.325,155.771 109.739,155.771 110.639,152.236 C111.86,147.479 112.696,145.872 114.56,144.908 C115.653,144.394 117.067,142.658 118.031,140.794 C119.574,137.773 121.567,135.909 122.402,136.744 C122.659,136.937 122.659,141.501 122.467,146.836 C122.145,154.422 122.274,157.636 123.109,161.492 C124.524,168.178 125.038,169.335 127.288,170.942 C128.573,171.842 129.473,173.32 129.987,175.056 C130.502,177.113 131.916,178.913 136.094,182.898 C141.044,187.655 141.558,188.426 143.036,192.926 C143.936,195.626 144.965,200.704 145.35,204.175 C145.736,207.646 146.508,213.174 146.958,216.324 C147.472,219.538 148.05,224.423 148.243,227.252 C148.822,233.873 149.4,235.865 152.807,241.715 C154.35,244.35 155.635,247.114 155.635,247.821 C155.635,248.593 156.6,249.75 157.885,250.65 C159.107,251.485 161.678,253.928 163.67,256.178 C167.592,260.678 171.191,262.863 172.67,261.642 C173.505,260.935 173.441,260.613 172.348,259.263 C170.934,257.464 168.877,250.971 169.456,250.071 C170.163,248.914 171.191,249.429 174.277,252.643 C178.326,256.885 179.419,256.885 179.419,252.643 C179.419,248.979 180.512,248.4 182.248,251.036 C182.826,251.935 183.855,252.643 184.562,252.643 C185.654,252.643 185.847,252.193 185.847,249.943 C185.847,246.086 187.84,239.851 189.19,239.401 C191.054,238.822 191.761,239.722 191.311,242.165 C190.861,244.8 191.375,246.857 192.597,246.857 C193.818,246.857 194.847,244.8 194.461,243.193 C194.011,241.458 195.361,234.644 196.197,234.644 C196.518,234.644 196.775,234.965 196.775,235.287 C196.775,235.672 197.225,235.93 197.739,235.93 C198.254,235.93 198.768,236.315 198.832,236.765 C199.218,239.979 200.568,244.093 201.789,245.572 C202.817,246.793 203.203,246.922 204.36,246.279 C205.132,245.893 205.774,245.057 205.774,244.415 C205.774,242.743 209.888,239.015 211.174,239.529 C212.074,239.851 212.202,240.558 211.817,243.708 C211.495,246.343 211.624,247.757 212.202,248.464 C212.91,249.3 213.424,249.043 215.802,246.407 C218.245,243.772 218.759,243.515 219.53,244.286 C220.816,245.7 222.487,251.228 222.487,253.992 C222.487,256.114 222.68,256.371 224.416,256.757 C226.666,257.206 226.794,257.914 225.059,260.163 C223.002,262.735 222.359,266.142 223.452,267.877 C224.866,269.998 227.244,269.741 230.78,267.17 C232.387,265.949 235.279,263.956 237.208,262.735 C241.45,259.906 250.064,249.814 254.049,242.872 C259.642,233.23 265.813,227.573 270.826,227.573 C274.233,227.509 277.704,226.545 280.211,224.745 C281.497,223.845 283.875,222.881 285.482,222.495 C289.596,221.595 294.289,216.131 299.367,206.489 C302.26,200.832 303.545,198.968 304.445,198.968 C305.217,198.968 305.859,199.547 306.117,200.575 C306.374,201.475 307.081,203.918 307.724,206.039 C308.366,208.16 308.945,212.531 309.009,215.681 C309.202,220.888 309.331,221.466 310.552,221.659 C312.609,221.981 322.765,217.224 329.643,212.66 C338.514,206.746 339.8,206.168 342.692,206.682 C344.878,207.068 346.099,206.553 354.006,202.439 C358.955,199.868 365.512,196.461 368.597,194.854 C380.939,188.619 400.352,169.142 412.244,151.272 C414.43,147.994 416.551,145.294 417.065,145.294 C419.058,145.294 417.129,155.836 414.044,162.007 C413.015,164.064 410.251,168.885 407.873,172.742 C402.088,181.998 400.352,185.148 400.866,185.148 C401.766,185.148 404.466,183.348 411.601,177.948 C423.815,168.692 433.907,156.929 449.141,134.237 C453.641,127.488 454.541,128.324 452.355,137.066 C450.62,144.008 447.148,151.208 441.235,160.4 C434.807,170.363 434.421,170.813 427.093,178.655 C418.158,188.169 414.88,192.861 417.451,192.861 C418.415,192.861 432.557,183.926 439.242,179.105 C445.734,174.413 464.054,154.743 471.704,144.33 C473.889,141.373 474.725,142.851 473.504,147.544 C471.061,156.929 467.59,162.714 457.112,174.863 C451.712,181.098 442.456,192.669 441.685,194.147 C440.785,195.818 441.749,195.818 445.284,194.211 C450.555,191.833 455.119,187.912 467.14,175.57 C481.474,160.914 482.76,160.335 477.81,171.07 C474.725,177.563 471.447,182.062 464.247,189.647 C460.776,193.311 458.783,196.076 459.555,196.076 C460.326,196.076 466.497,191.962 468.683,189.969 C469.582,189.197 470.932,188.169 471.768,187.783 C473.889,186.691 474.404,188.555 472.604,190.804 C471.897,191.769 470.161,194.147 468.875,196.076 C465.983,200.254 458.526,207.839 452.291,212.917 C444.256,219.474 434.678,228.473 432.107,231.88 C428.507,236.508 426.386,237.922 414.172,244.093 C403.566,249.429 393.538,255.599 388.717,259.778 C387.367,260.999 384.346,263.185 381.968,264.663 C375.411,268.841 374.961,269.227 374.511,271.22 C373.997,273.662 372.776,274.691 367.44,277.134 C364.933,278.291 362.041,280.026 361.012,280.99 C359.92,282.019 356.577,283.883 353.62,285.104 C349.249,286.84 347.899,287.74 346.678,289.604 C345.135,291.982 343.399,293.011 337.55,294.746 C334.85,295.518 333.693,296.289 332.729,297.832 C331.7,299.439 330.415,300.21 326.751,301.496 C322.572,302.91 321.865,303.424 320.644,305.674 C318.973,308.695 315.823,310.495 312.288,310.495 L309.781,310.495 L310.231,313.709 C310.616,316.666 310.552,317.052 308.816,318.787 C307.788,319.816 305.795,320.973 304.445,321.359 C303.095,321.68 301.36,322.644 300.524,323.416 C299.689,324.187 297.503,325.344 295.639,325.987 C292.81,326.887 292.168,327.401 292.039,328.751 C291.911,329.651 291.075,331.001 290.111,331.708 C288.182,333.251 285.74,333.058 281.304,331.065 C278.347,329.715 277.769,330.101 277.769,333.765 C277.769,337.107 276.355,337.75 272.433,336.079 C269.155,334.665 267.484,334.858 267.484,336.722 C267.484,339.679 263.627,340.836 259.32,339.293 C257.328,338.586 257.07,338.65 255.528,340.257 C253.856,342.057 251.928,342.443 249.292,341.414 C247.878,340.836 247.557,341.029 246.914,342.7 C245.821,345.335 244.343,345.914 240.357,345.464 C236.436,345.014 235.793,345.464 234.894,349.064 C234.251,351.506 232.194,352.406 230.458,350.928 C229.944,350.542 229.365,350.349 229.108,350.606 C228.915,350.799 229.044,350.992 229.43,350.992 C230.587,350.992 231.037,357.549 230.33,365.841 C229.944,370.148 229.815,374.069 230.008,374.455 C230.394,375.483 234.444,377.283 236.951,377.476 C238.493,377.604 239.2,378.247 240.422,380.433 C241.579,382.554 242.672,383.582 244.921,384.547 C246.528,385.189 248.007,386.025 248.2,386.346 C248.392,386.604 250,387.696 251.735,388.725 L254.949,390.589 L254.885,394.446 C254.885,398.238 254.885,398.238 252.956,398.174 C251.928,398.174 250.578,397.917 249.871,397.596 C248.778,397.146 248.714,397.338 249.164,400.36 C249.55,403.252 249.485,403.702 248.521,403.702 C247.943,403.702 246.207,402.674 244.728,401.452 C243.186,400.231 241.772,399.203 241.514,399.203 C241.257,399.203 241.193,400.745 241.257,402.609 C241.45,405.566 241.322,405.952 240.165,405.952 C239.2,405.952 238.172,404.538 235.986,400.488 C233.158,395.153 233.029,395.024 228.594,392.903 C226.151,391.746 223.066,390.268 221.845,389.689 C220.43,388.982 219.016,387.568 217.988,385.639 C217.088,384.032 215.545,381.975 214.581,381.14 C213.295,379.983 212.01,377.411 209.953,371.369 C208.346,366.805 207.06,362.305 207.06,361.341 C207.06,359.284 204.039,352.92 203.075,352.92 C202.689,352.92 202.56,352.085 202.689,350.992 C202.882,349.899 202.753,348.871 202.432,348.678 C202.175,348.485 201.918,349.064 201.918,349.964 C201.918,350.863 201.66,351.635 201.403,351.635 C200.76,351.635 196.132,359.67 196.132,360.827 C196.132,362.884 194.525,363.205 192.404,361.663 C191.247,360.891 190.54,359.991 190.733,359.799 C191.375,359.22 188.161,360.12 187.326,360.827 C185.526,362.177 186.554,367.641 189.318,371.755 C190.283,373.169 190.411,373.876 189.833,375.033 C189.383,376.126 189.447,377.476 190.154,380.304 C190.668,382.361 191.375,385.961 191.633,388.275 C191.954,390.589 192.533,393.482 192.918,394.703 C193.24,395.924 193.561,399.01 193.561,401.581 C193.561,406.723 194.204,407.623 197.804,407.366 C199.539,407.238 199.668,407.366 199.539,409.488 C198.896,424.272 199.025,423.629 196.004,431.022 C191.118,442.785 190.09,449.02 191.633,457.505 C192.661,463.483 192.661,463.74 191.504,464.897 C190.347,466.055 190.283,466.505 190.99,472.354 C191.44,475.761 192.34,480.453 192.982,482.703 C194.397,487.396 194.59,495.752 193.368,498.195 C191.954,501.023 189.833,500.573 185.205,496.524 z" fill="#000000"/>
  </g>
</svg>
