<?xml version="1.0" encoding="UTF-8"?>
<!DOCTYPE svg PUBLIC "-//W3C//DTD SVG 1.1//EN" "http://www.w3.org/Graphics/SVG/1.1/DTD/svg11.dtd">
<svg version="1.1" xmlns="http://www.w3.org/2000/svg" xmlns:xlink="http://www.w3.org/1999/xlink" x="0" y="0" width="500" height="500" viewBox="0, 0, 500, 500">
  <g id="Background">
    <rect x="0" y="0" width="500" height="500" fill="#000000" fill-opacity="0"/>
  </g>
  <g id="Layer_1">
    <path d="M147.959,0.525 C145.202,1.165 144.432,2.017 144.133,4.771 C143.583,9.817 142.464,10.33 137.482,7.819 C134.561,6.346 129.369,5.298 122.546,4.803 L112.089,4.046 L107.012,7.856 C104.22,9.952 99.667,13.212 96.891,15.098 C90.367,19.538 87.282,24.332 82.998,36.691 C74.129,62.29 84.638,77.438 112.298,78.922 L123.803,79.541 L123.496,82.991 C122.715,91.773 122.898,91.619 113.14,91.625 C103.638,91.633 104.244,91.387 91.393,100.409 C80.23,108.249 71.459,126.585 71.459,142.089 C71.459,152.231 69.115,164.391 66.181,169.474 C61.532,177.528 62.294,182.114 69.276,188.128 C76.989,194.771 79.503,199.068 79.508,205.622 C79.516,216.449 89.173,233.449 96.045,234.737 C98.212,235.145 101.35,236.55 103.014,237.859 C105.853,240.09 106.311,240.132 110.354,238.516 C114.058,237.031 115.066,237.013 117.508,238.383 C119.072,239.262 122.54,239.891 125.218,239.786 C133.918,239.436 133.1,243.159 124.228,244.294 C121.464,244.646 117.865,245.609 116.23,246.432 L113.261,247.93 L113.029,271.295 C112.727,301.424 110.139,306.956 92.166,315.913 C81.066,321.443 75.335,331.24 75.912,343.694 C76.158,348.975 68.837,367.965 54.158,400.117 C48.66,412.159 47.85,423.121 51.904,430.68 C56.177,438.652 54.129,446.899 45.797,455.276 C37.394,463.722 38.645,471.704 49.536,479.136 C61.371,487.212 93.333,487.267 122.429,479.261 L135.492,475.665 L136.897,470.183 C137.67,467.169 138.146,463.973 137.955,463.084 C137.685,461.835 138.834,461.552 142.996,461.84 C152.717,462.518 154.061,456.318 155.288,405.097 C156.167,368.465 156.527,366.499 162.874,363.472 C168.293,360.887 168.428,361.25 166.398,372.881 C163.242,390.981 176.027,393.214 184.663,376.069 C185.695,374.024 188.081,371.553 189.968,370.576 C193.699,368.647 194.439,365.404 191.672,363.107 C189.656,361.435 189.809,343.231 191.854,341.186 C193.908,339.133 195.31,342.395 198.069,355.63 C201.549,372.331 204.769,379.527 210.338,383.03 C216.493,386.904 223.102,387.991 224.97,385.438 C226.788,382.951 229.399,384.393 228.455,387.364 C227.513,390.338 257.67,391.254 260.639,388.338 C261.24,387.748 265.513,387.267 270.13,387.267 C275.096,387.267 278.528,386.785 278.528,386.086 C278.528,385.438 279.795,384.427 281.343,383.84 C283.764,382.917 284.206,381.922 284.505,376.688 C284.769,372.116 285.328,370.518 286.762,370.246 C289.601,369.706 290.387,375.249 289.307,388.185 C288.045,403.274 287.981,402.901 296.919,430.982 C304.561,454.985 305.754,458.493 310.416,470.67 L312.617,476.422 L318.377,476.07 C326.159,475.596 329.347,478.163 330.225,485.6 C330.866,491.024 330.943,491.112 338.838,495.25 L346.805,499.428 L364.045,499.801 C381.402,500.176 391.906,499.084 401.817,495.869 C410.438,493.072 411.044,491.286 409.57,472.969 C408.625,461.245 409.472,458.147 415.383,451.688 C420.905,445.65 420.325,433.125 414.129,424.624 C411.832,421.478 406.794,413.312 402.931,406.483 C399.066,399.652 394.322,391.762 392.388,388.949 C387.805,382.29 383.238,372.421 383.225,369.148 C383.217,367.724 382.783,366.56 382.257,366.56 C381.73,366.56 379.616,363.964 377.56,360.789 C372.192,352.502 361.362,340.101 359.494,340.101 C358.621,340.101 357.904,339.609 357.904,339.011 C357.904,338.41 355.187,337.765 351.866,337.572 C347.418,337.318 345.826,336.77 345.826,335.5 C345.826,333.233 412.049,332.269 416.208,334.473 C419.418,336.175 422.082,335.143 423.395,331.687 C424.612,328.486 430.877,322.94 433.629,322.628 C434.69,322.506 439.291,322.376 443.86,322.339 C458.058,322.22 462.606,313.304 462.561,285.694 C462.519,259.728 459.905,256.465 438.934,256.209 C430.861,256.111 423.802,253.19 420.021,248.379 L417.518,245.194 L382.823,244.62 C348.254,244.045 342.846,243.297 349.853,240.042 C359.793,235.425 360.881,234.536 365.336,227.379 C369.588,220.553 369.964,219.312 369.75,212.808 C369.519,205.9 369.628,205.612 373.626,202.563 C376.078,200.69 378.923,196.822 380.674,192.975 C382.291,189.427 384.609,185.162 385.828,183.497 C389.927,177.901 388.379,151.159 383.609,145.111 C381.614,142.582 379.621,138.697 379.182,136.483 C377.944,130.223 373.71,123.812 365.767,116.16 C350.781,101.724 344.333,97.176 334.321,93.98 C329.892,92.564 325.172,90.979 323.83,90.455 C316.594,87.632 311.075,87.828 310.294,90.937 C309.331,94.771 307.437,94.718 304.288,90.77 C301.989,87.886 300.991,87.584 292.453,87.198 C277.975,86.539 279.851,81.279 294.575,81.245 L303.261,81.224 L307.225,76.453 C309.405,73.829 313.718,67.497 316.811,62.383 L322.433,53.082 L321.637,39.94 C320.547,21.948 318.872,18.289 309.275,12.923 C305.214,10.65 300.888,8.79 299.663,8.79 C298.438,8.79 294.763,8.097 291.495,7.251 C286.447,5.941 285.312,5.954 283.936,7.327 C281.2,10.066 274.813,7.706 273.736,3.557 L272.852,0.165 L212.132,-0.057 C178.736,-0.176 149.859,0.086 147.959,0.525" fill="#000000" id="blood-angels-angels-tears" display="none"/>
    <path d="M211.222,1.568 C210.159,1.987 207.446,4.724 205.192,7.654 C196.344,19.152 181.788,27.376 170.281,27.376 C164.779,27.376 163.425,27.674 162.368,29.117 C161.202,30.711 160.733,30.763 156.779,29.717 C147.578,27.288 145.913,27.376 143.051,30.44 C140.688,32.97 140.173,33.149 137.717,32.293 C135.611,31.557 133.8,31.705 129.689,32.943 C126.458,33.914 121.016,34.591 115.776,34.672 C94.41,35.003 80.615,38.626 78.136,44.558 C77.496,46.089 76.126,48.11 75.088,49.05 C74.05,49.987 73.2,51.65 73.2,52.744 C73.2,53.838 71.977,56.421 70.481,58.486 C66.558,63.903 64.06,70.899 63.637,77.652 C63.435,80.889 62.814,88.023 62.26,93.503 C61.458,101.439 61.512,105.62 62.531,114.031 C64.016,126.307 63.104,130.386 57.97,134.403 C55.96,135.976 55.083,137.426 55.083,139.181 C55.083,142.831 53.328,147.625 51.357,149.358 C49.245,151.219 49.157,154.415 51.157,156.627 C53.366,159.067 53.347,166.866 51.12,171.641 C49.466,175.185 49.416,175.979 50.489,181.379 C51.507,186.513 51.47,187.725 50.188,190.928 C48.986,193.932 48.884,195.617 49.626,200.257 C50.566,206.141 49.943,210.202 47.54,213.871 C46.845,214.933 46.086,218.408 45.857,221.594 C45.292,229.397 43.261,231.288 37.611,229.28 C25.622,225.019 15.301,241.093 24.585,249.567 C26.893,251.675 35.102,256.105 36.7,256.105 C38.375,256.105 39.429,258.701 40.169,264.643 C40.982,271.166 43.961,274.389 53.724,279.308 C57.212,281.064 62.062,283.792 64.502,285.369 C68.363,287.863 69.779,288.248 75.398,288.336 C83.203,288.459 86.339,289.807 85.416,292.642 C83.951,297.138 83.101,313.594 84.224,315.708 C85.103,317.365 85.08,318.658 84.103,322.048 C80.101,335.962 86.378,340.158 92.925,327.942 C98.277,317.958 106.123,307.306 108.359,306.989 C111.13,306.595 119.07,309.495 120.968,311.593 C124.195,315.16 119.801,326.761 115.226,326.761 C109.176,326.761 107.505,329.453 106.221,341.252 C105.621,346.773 105.309,347.404 101.167,351.415 C98.739,353.767 96.679,356.419 96.587,357.305 C96.496,358.192 96.335,360.753 96.231,362.995 C96.127,365.236 95.754,368.155 95.402,369.482 C94.9,371.372 95.514,373.137 98.248,377.635 L101.735,383.377 L101.529,394.247 C101.363,403.076 100.867,406.614 98.883,413.083 L96.443,421.05 L90.258,425.549 C86.109,428.565 84.072,430.657 84.072,431.893 C84.072,432.907 83.051,434.682 81.807,435.837 C77.696,439.645 78.44,449.856 83.166,454.486 C87.364,458.603 87.401,458.794 84.905,463.686 C83.82,465.814 83.234,468.23 83.526,469.389 C84.068,471.549 81.695,475.381 77.29,479.464 C73.065,483.379 76.634,494.751 82.826,497.105 C86.643,498.555 116.076,500.001 132.987,499.568 C151.841,499.084 155.091,498.105 155.966,492.632 C157.335,484.063 167.192,472.943 172.634,473.827 C182.061,475.356 188.512,463.815 183.249,454.834 C181.682,452.161 180.705,448.948 180.44,445.591 C180.215,442.76 179.845,439.908 179.613,439.251 C177.563,433.409 178.794,395.613 181.109,393.34 C182.455,392.019 184.837,395.317 187.772,402.572 C192.614,414.537 201.365,432.011 202.938,432.853 C210.217,436.749 228.621,438.049 233.531,435.014 C233.892,434.791 239.236,433.97 245.411,433.191 C251.584,432.409 258.522,431.111 260.829,430.307 C267.702,427.909 269.977,431.563 268.506,442.652 C268.054,446.048 268.458,448.677 270.317,454.438 L272.709,461.853 L278.713,461.188 C286.426,460.332 287.599,460.43 290.22,462.147 C294.21,464.761 293.914,471.056 289.616,474.943 C286.03,478.189 287.672,483.298 293.229,486.177 C296.456,487.85 346.257,488.515 347.62,486.904 C353.691,479.725 355.826,473.987 355.826,464.874 C355.826,455.567 357.86,450.99 362.037,450.892 C362.712,450.875 364.519,449.808 366.05,448.519 C368.015,446.867 369.588,446.285 371.39,446.55 C374.776,447.048 374.898,442.991 371.657,437.728 C370.429,435.735 369.421,433.391 369.419,432.52 C369.417,431.647 368.994,430.934 368.479,430.934 C367.963,430.934 366.681,429.474 365.629,427.69 C364.577,425.907 362.81,424.103 361.704,423.684 C358.156,422.334 343.384,394.207 338.271,379.066 C333.608,365.255 335.586,365.041 346.551,378.168 C357.731,391.548 368.404,402.732 381.949,415.258 C388.258,421.092 393.925,426.767 394.541,427.872 C395.16,428.976 396.835,430.136 398.265,430.451 C400.719,430.991 406.555,435.789 406.555,437.266 C406.555,437.643 408.257,438.222 410.338,438.553 C412.417,438.887 418.226,441.358 423.245,444.043 C440.876,453.477 454.864,456.115 461.516,451.256 C470.382,444.783 478.582,414.84 481.841,377.035 C484.699,343.881 480.313,250.873 475.238,236.972 C473.35,231.801 466.629,231.109 463.11,235.722 C456.82,243.968 437.959,237.264 431.529,224.496 C421.935,205.447 428.981,181.937 449.37,164.965 C462.331,154.177 426.766,123.057 396.137,118.388 C384.539,116.619 370.444,116.74 366.975,118.638 C362.419,121.129 359.862,119.673 359.162,114.185 C358.856,111.779 357.979,105.768 357.216,100.83 C356.451,95.89 355.826,91.759 355.826,91.65 C355.826,91.54 356.589,91.25 357.518,91.009 C359.206,90.567 360.42,86.99 360.56,82.054 C360.718,76.383 348.278,66.126 342.544,67.201 C338.944,67.876 337.777,66.172 339.398,62.613 C340.278,60.684 340.684,60.513 342.319,61.388 C345.632,63.161 348.403,61.742 349.489,57.717 C350.951,52.283 348.011,48.148 342.298,47.602 C339.736,47.358 339.065,46.841 338.488,44.664 C337.584,41.26 336.35,40.543 331.369,40.522 C329.127,40.514 321.503,39.897 314.43,39.151 C307.355,38.405 298.183,37.743 294.048,37.678 C286.114,37.555 277.013,33.886 274.013,29.603 C272.336,27.209 268.575,25.978 260.389,25.14 C255.216,24.613 252.616,23.882 250.876,22.465 C249.561,21.392 247.303,19.817 245.859,18.963 C241.801,16.565 229.773,7.462 226.743,4.497 C223.804,1.622 215.211,-0.001 211.222,1.568 M141.84,178.96 C143.242,179.852 152.924,199.793 152.895,201.732 C152.885,202.491 152.078,204.13 151.103,205.376 C148.53,208.666 148.741,213.127 151.557,214.971 C154.199,216.702 154.405,218.831 152.322,222.859 C150.459,226.455 148.428,237.651 148.405,244.439 C148.376,252.454 141.34,271.693 137.965,272.989 C135.642,273.881 131.175,269.868 131.175,266.886 C131.175,263.703 134.96,255.875 141.703,245.116 C146.838,236.918 147.065,235.291 143.311,233.58 C140.296,232.207 140.886,231.938 134.952,237.393 C131.056,240.974 128.739,242.385 126.039,242.816 C124.031,243.137 121.347,244.22 120.072,245.223 C118.797,246.225 117.409,247.046 116.989,247.046 C116.568,247.046 114.215,248.473 111.763,250.217 C106.715,253.806 105.342,254.081 104.098,251.756 C102.733,249.21 101.831,239.064 102.852,237.768 C103.346,237.141 104.602,233.774 105.644,230.288 C107.894,222.763 117.411,207.554 120.639,206.326 C124.339,204.92 124.372,202.626 120.741,199.299 C116.516,195.428 116.893,194.284 125.199,185.844 C131.054,179.894 132.112,179.193 135.744,178.873 C137.965,178.677 139.984,178.452 140.234,178.373 C140.484,178.293 141.207,178.558 141.84,178.96 M322.562,260.547 C329.754,263.63 335.648,279.46 334.692,293.121 C333.95,303.701 333.129,304.701 324.535,305.506 L317.637,306.154 L314.311,302.982 C312.484,301.239 309.924,299.564 308.626,299.261 C306.838,298.845 305.861,297.657 304.615,294.392 C303.711,292.017 300.583,285.794 297.667,280.562 C291.61,269.699 291.364,267.487 295.914,264.838 C306.198,258.855 315.222,257.4 322.562,260.547" fill="#000000" id="blood-angels-crimson-paladins"/>
    <path d="M229.953,46.655 C225.82,48.126 221.21,50.75 219.704,52.488 C218.202,54.226 215.251,56.722 213.148,58.039 C206.605,62.134 204.003,68.005 203.981,78.728 C203.959,90.404 201.385,99.314 194.917,110.138 C187.125,123.165 187.556,132.704 195.932,132.704 C199.628,132.704 200.259,135.218 198.518,142.99 C196.752,150.863 198.792,154.688 207.334,159.528 C214.182,163.406 216.54,162.498 222.348,153.755 C227.316,146.268 229.454,145.049 232.414,148.009 C236.076,151.671 234.265,158.488 227.181,167.734 C223.4,172.668 219.026,179.256 217.46,182.373 C215.895,185.494 212.84,189.703 210.669,191.727 C205.835,196.24 205.772,197.88 210.203,204.405 C212.117,207.227 213.5,209.974 213.277,210.518 C212.061,213.478 194.172,228.328 188.653,230.956 C183.439,233.442 181.94,234.966 180.852,238.904 C180.114,241.582 178.303,245.07 176.829,246.654 C175.355,248.242 173.944,251.381 173.696,253.638 C172.788,261.91 158.899,257.353 158.899,248.782 C158.899,233.951 140.514,224.023 136.337,236.597 C130.95,252.824 126.038,254.106 95.357,247.305 C32.314,233.329 -2.345,230.912 -2.345,240.491 C-2.345,248.603 33.342,258.974 94.675,268.683 C110.556,271.197 112.464,274.076 103.557,282.081 C96.881,288.081 96.221,290.281 99.644,295.165 C104.11,301.541 120.902,297.16 136.679,285.507 L143.905,280.17 L152.425,281.672 C157.114,282.499 165.694,284.985 171.493,287.194 C183.992,291.959 185.387,292.044 192.377,288.483 C198.565,285.324 201.834,285.161 215.342,287.32 C227.747,289.3 229.406,290.447 226.43,294.985 C224.988,297.189 224.497,299.8 225.028,302.459 C225.654,305.583 225.05,307.488 222.47,310.555 C212.869,321.967 214.688,342.763 226.213,353.389 C230.29,357.145 234.96,362.174 236.591,364.556 C238.338,367.114 241.233,369.261 243.637,369.789 C248.405,370.838 248.779,373.18 245.133,379.189 C233.806,397.854 251.237,415.58 271.631,406.139 C278.432,402.99 282.552,398.558 290.812,385.5 C294.379,379.865 299.068,373.362 301.233,371.055 C304.075,368.029 305.533,364.644 306.466,358.924 C309.427,340.73 325.496,339.9 325.65,357.934 C325.672,360.813 327.127,365.282 329.057,368.418 C330.927,371.454 332.436,376.012 332.448,378.667 C332.517,391.795 341.132,409.373 348.144,410.687 C355.419,412.054 358.804,417.356 358.072,426.253 C356.117,450.114 371.25,463.132 389.831,453.571 C399.523,448.583 402.569,441.43 401.56,426.011 C400.777,413.999 400.799,413.892 404.731,410.218 C412.466,402.993 411.997,385.94 403.886,379.56 C395.928,373.302 381.282,348.606 382.184,342.971 C382.841,338.85 382.266,336.226 379.582,331.091 C376.48,325.16 376.307,324.032 377.838,319.814 C379.739,314.578 380.27,276.6 378.532,270.377 C375.986,261.275 365.269,266.498 362.406,278.234 C358.05,296.101 353.395,294.605 346.764,273.202 C343.404,262.366 346.249,251.586 352.465,251.586 C353.477,251.586 356.516,248.509 359.219,244.747 C364.751,237.053 367.215,235.249 370.895,236.211 C375.009,237.286 382.533,248.861 383.369,255.398 C384.306,262.708 385.861,264.594 394.526,268.912 C403.345,273.306 406.152,276.851 406.23,283.699 C406.381,296.846 410.262,303.543 420.414,308.179 C430.723,312.884 449.155,300.476 446.657,290.516 C445.541,286.069 447.339,285.418 452.091,288.549 C454.297,290.004 457.302,291.201 458.763,291.204 C460.225,291.211 463.726,292.811 466.542,294.762 C472.761,299.071 479.069,297.776 484.755,291.019 C489.403,285.491 489.151,283.401 482.749,274.459 C476.486,265.716 476.278,264.38 480.018,257.054 C483.689,249.854 483.532,243.185 479.578,238.37 C477.834,236.245 474.169,230.783 471.441,226.229 C468.71,221.678 464.911,217.115 462.997,216.09 C458.26,213.557 458.483,213.142 466.699,209.226 L473.868,205.81 L474.264,193.854 C474.688,181.016 475.901,179.328 480.813,184.756 C495.283,200.747 502.345,181.93 491.631,155.936 C484.459,138.53 484.349,137.487 489.01,130.623 C493.476,124.039 492.659,118.224 486.269,111.103 C483.78,108.328 481.332,104.732 480.829,103.11 C478.667,96.158 457.99,81.764 453.845,84.326 C452.996,84.85 447.801,85.721 442.298,86.258 C423.214,88.128 411.479,96.982 406.812,113.029 C403.097,125.808 397.471,126.132 388.966,114.051 C381.254,103.098 380.352,102.325 376.442,103.305 C374.041,103.909 370.719,102.944 365.36,100.087 C354.822,94.471 341.541,92.274 330.839,94.38 C325.943,95.344 319.091,95.624 313.921,95.068 C305.514,94.169 305.112,94.27 301.416,98.223 C289.655,110.788 283.055,106.992 282.615,87.406 C281.898,55.773 257.469,36.868 229.953,46.655 M445.598,191.837 C447.751,194.429 454.008,212.297 453.213,213.582 C450.629,217.762 439.277,214.591 437.068,209.066 C433.089,199.119 440.022,185.117 445.598,191.837 M260.235,238.612 C260.86,240.95 260.703,243.241 259.851,244.272 C259.059,245.224 258.827,246.667 259.33,247.481 C259.832,248.295 258.607,250.627 256.602,252.664 C254.6,254.703 250.988,259.138 248.575,262.52 C244.813,267.79 243.414,268.73 238.778,269.101 C235.805,269.34 232.785,270.106 232.072,270.807 C227.951,274.855 214.167,269.824 215.722,264.839 C216.904,261.042 219.016,259.584 222.212,260.354 C223.718,260.716 226.389,259.361 228.907,256.954 C231.207,254.754 234.089,252.953 235.306,252.953 C238.326,252.953 247.717,246.425 247.717,244.326 C247.717,243.392 248.795,241.613 250.108,240.372 C251.425,239.13 253.324,237.116 254.332,235.896 C256.809,232.889 258.971,233.885 260.235,238.612" fill="#000000" id="blood-angels-dawnbreaker" display="none"/>
    <path d="M223.872,3.152 C222.41,4.77 220.257,6.093 219.093,6.093 C214.851,6.093 199.921,22.703 198.804,28.667 C197.954,33.189 196.008,35.691 188.737,41.597 L179.723,48.922 L164.44,48.184 C135.98,46.807 128.185,57.994 139.852,83.482 C145.657,96.155 158.297,98.128 172.855,88.634 L179.723,84.156 L180.197,90.38 C180.725,97.252 174.361,104.698 167.964,104.698 C166.292,104.698 163.601,105.626 161.983,106.76 C160.361,107.894 153.558,109.485 146.859,110.294 C132.07,112.081 125.73,115.798 118.351,127.008 C110.725,138.588 101.545,159.138 100.307,167.387 C98.983,176.211 97.46,179.315 91.875,184.545 C85.003,190.976 89.299,198.253 104.829,206.492 C112.665,210.649 113.271,212.027 110.336,219.043 C102.835,236.997 118.538,265.284 137.111,267.271 C157.484,269.455 162.071,273.361 158.615,285.587 L156.364,293.555 L161.052,297.468 C168.069,303.324 166.634,317.151 158.415,322.909 C156.563,324.205 154.593,327.83 153.788,331.418 C153.013,334.854 150.917,339.718 149.127,342.23 C146.338,346.143 145.918,348.468 146.189,358.565 C146.68,376.955 136.305,422.354 130.469,427.353 C128.824,428.761 127.464,431.408 127.447,433.239 C127.426,435.067 126.137,439.38 124.573,442.819 L126.519,449.074 C134.68,449.074 137.239,456.196 133.15,467.511 C126.055,487.127 165.432,499.763 183.402,483.637 C185.426,481.819 189.83,478.631 193.188,476.552 C196.549,474.471 201.207,469.921 203.539,466.442 C206.027,462.729 209.144,459.916 211.077,459.638 C213.403,459.303 215.616,456.697 218.605,450.78 L222.836,442.396 L219.194,438.161 C217.187,435.832 215.887,432.864 216.303,431.564 C216.716,430.267 218.067,426.558 219.296,423.318 C220.917,419.06 221.553,411.485 221.601,395.904 C221.648,379.765 222.247,372.988 223.984,368.832 C225.378,365.491 226.279,359.134 226.245,352.831 C226.167,337.701 225.399,338.188 249.133,338.276 L269.497,338.351 L269.971,343.113 C270.232,345.733 269.646,349.802 268.674,352.151 C267.331,355.394 267.297,358.467 268.532,364.854 C269.433,369.488 270.424,388.515 270.743,407.132 C271.061,425.749 271.785,442.304 272.354,443.922 C276.565,455.894 277.485,456.785 287.156,458.23 C289.786,458.623 290.179,460.095 290.845,472.054 C291.688,487.174 292.216,488.132 302.953,494.079 C312.228,499.221 327.704,499.793 343.802,495.596 C357.098,492.126 359.522,487.641 357.227,470.747 C356.113,462.556 356.211,462.184 359.877,460.43 C365.54,457.726 366.298,442.257 361.028,436.986 C356.211,432.166 346.439,383.292 345.897,361.304 C345.64,350.817 344.797,344.961 343.068,341.614 C341.653,338.879 340.942,335.203 341.399,332.989 C341.934,330.386 340.583,325.779 337.249,318.83 C327.612,298.744 331.698,290.36 351.777,289.019 C367.608,287.96 370.82,287.984 383.185,289.222 L395.33,290.438 L399.677,285.787 C408.694,276.133 411.947,266.534 413.348,245.432 C414.997,220.607 411.212,213.377 397.723,215.56 C392.186,216.454 379.259,212.335 377.201,209.021 C374.869,205.267 376.818,202.59 385.402,197.742 C401.261,188.796 404.571,181.021 395.906,173.083 C390.747,168.358 390.652,168.074 392.396,162.793 C398.59,144.021 375.915,106.801 350.755,94.439 C333.986,86.203 335.106,83.252 355.169,82.798 C364.528,82.585 366.014,80.524 367.026,66.361 C368.211,49.829 367.906,49.623 344.208,50.811 C317.87,52.135 307.794,47.849 303.986,33.707 C302.198,27.069 287.982,11.668 278.873,6.503 C276.338,5.064 272.868,3.087 271.166,2.106 C268.6,0.633 267.226,0.823 263.177,3.209 C256.228,7.312 240.851,7.275 237.117,3.152 C235.655,1.534 232.673,0.207 230.496,0.207 C228.32,0.207 225.338,1.534 223.872,3.152 M175.658,206.411 C176.165,211.956 175.837,215.029 174.659,215.757 C171.572,217.662 170.895,215.131 170.81,201.405 C170.716,186.004 174.107,189.507 175.658,206.411 M321.367,194.703 C325.933,204.224 325.541,207.718 319.908,207.718 C314.875,207.718 314.75,207.569 313.988,200.823 C312.729,189.639 317.173,185.949 321.367,194.703" fill="#000000" id="dark-angels-dreadwing-interemptor" display="none"/>
    <path d="M175.198,1.944 C171.02,2.474 164.615,3.895 160.971,5.099 C155.566,6.89 153.768,7.067 151.198,6.065 C139.646,1.567 114.928,4.277 101.113,11.555 C96.568,13.951 91.527,15.911 89.916,15.911 C86.329,15.911 81.729,19.358 80.879,22.68 C80.467,24.294 78.085,26.249 73.968,28.352 C59.312,35.851 45.447,55.842 42.732,73.394 C39.395,94.982 40.042,101.353 47.89,124.127 C49.488,128.768 58.193,140.677 65.646,148.42 L70.372,153.326 L67.07,159.595 C60.446,172.174 67.304,184.123 87.526,195.23 C90.271,196.739 90.81,197.78 91.26,202.456 C91.63,206.302 92.786,209.285 95.166,212.522 C100.372,219.598 97.364,223.197 83.365,226.649 C78.327,227.893 71.208,230.545 67.544,232.546 C63.88,234.544 56.657,237.996 51.491,240.216 C45.924,242.607 41.223,245.409 39.947,247.093 C38.763,248.656 36.58,251.289 35.094,252.942 C29.961,258.657 31.082,269.802 37.479,276.641 L42.562,282.073 L40.714,287.214 C36.555,298.775 37.519,307.645 43.946,316.931 C45.472,319.137 48.569,326.031 50.824,332.247 C56.869,348.897 57.391,349.791 61.275,350.171 C64.2,350.458 64.929,351.243 67.075,356.42 C73.291,371.419 107.475,377.726 110.885,364.505 C112.556,358.036 117.681,355.898 123.743,359.143 C125.506,360.087 126.932,359.617 131.546,356.575 C134.65,354.53 138.657,352.102 140.448,351.18 C142.241,350.261 144.928,348.193 146.422,346.584 C147.916,344.976 151.083,342.663 153.463,341.441 C166.754,334.63 186.528,312.428 186.605,304.235 C186.663,297.904 187.874,297.444 197.878,299.957 C200.048,300.501 200.72,300.262 200.72,298.948 C200.72,296.712 204.562,294.345 209.627,293.458 C214.437,292.614 216.328,294.789 217.587,302.604 C219.123,312.171 220.152,311.948 219.937,302.097 C219.748,293.388 219.937,292.316 221.738,291.952 C224.211,291.45 231.127,297.869 231.127,300.664 C231.127,303.311 236.56,306.493 245.786,309.251 C254.756,311.928 256.104,312.858 256.104,316.362 C256.104,318.6 245.332,342.955 238.558,356.038 C223.779,384.575 226.354,409.522 247.003,437.808 C253.292,446.426 253.344,446.558 253.367,454.099 C253.404,467.149 259.664,472.767 282.758,480.479 C286.821,481.836 291.162,483.879 292.401,485.02 C293.64,486.162 296.473,488.852 298.693,491 C308.589,500.566 325.291,500.299 321.652,490.635 C320.288,487.016 320.66,486.134 323.55,486.134 C326.468,486.134 326.927,484.453 325.161,480.232 C323.57,476.423 317.94,472.027 314.641,472.02 C313.687,472.017 311.764,471.026 310.367,469.814 C308.971,468.603 306.576,467.359 305.042,467.049 C297.424,465.511 293.123,463.937 288.467,460.982 C283.28,457.69 275.652,450.057 275.652,448.159 C275.652,446.401 268.915,439.325 264.719,436.677 C262.506,435.281 258.462,430.695 255.572,426.309 C238.895,400.995 238.78,387.874 254.928,352.369 C261.022,338.966 262.099,340.39 263.69,363.963 C266.333,403.103 273.514,419.505 292.366,429.451 C303.102,435.116 323.071,433.333 332.122,425.902 C335.567,423.072 337.295,423.407 344.169,428.227 C352.844,434.309 365.182,440.568 374.664,443.688 C382.539,446.281 383.443,447.045 387.504,454.493 C392.013,462.763 397.668,463.997 413.026,460.071 C423.804,457.313 427.108,457.338 431.142,460.211 C434.979,462.943 450.467,465.915 455.317,464.851 C461.989,463.388 470.039,458.674 470.039,456.232 C470.039,452.203 457.605,443.451 449.947,442.09 C447.56,441.665 444.138,440.563 442.347,439.642 C439.862,438.363 435.228,437.948 422.8,437.886 C406.972,437.808 406.342,437.719 400.538,434.641 C395.502,431.974 393.202,431.454 385.876,431.322 C373.854,431.107 356.39,423.389 347.966,414.57 L344.803,411.263 L348.398,403.357 C354.177,390.647 355.294,390.349 360.317,400.208 C370.34,419.88 391.613,425.09 404.284,410.975 L408.258,406.55 L416.118,407.214 L423.979,407.878 L430.175,403.482 C438.068,397.882 438.733,393.566 432.573,387.924 C430.483,386.008 428.772,383.658 428.772,382.701 C428.772,381.745 427.468,379.412 425.874,377.519 L422.977,374.074 L424.748,366.846 C429.663,346.774 427.453,342.945 411.862,344.544 C404.092,345.338 392.505,340.969 386.915,335.135 L383.978,332.07 L391.815,322.511 C400.233,312.243 401.172,308.591 396.666,303.616 C394.61,301.341 394.91,299.62 401.309,277.085 C407.131,256.584 407.471,254.249 405.5,248.227 C404.561,245.359 403.795,241.665 403.795,240.022 C403.795,237.104 401.881,224.498 398.959,208.186 C397.206,198.392 397.458,197.595 402.755,196.169 C408.777,194.548 409.077,192.095 404.314,183.431 C402.119,179.437 399.339,172.975 398.135,169.071 C396.933,165.167 394.261,157.889 392.198,152.901 C388.311,143.5 388.184,140.797 391.626,140.797 C396.594,140.797 409.212,121.597 410.296,112.391 C410.743,108.602 412.149,103.566 413.423,101.201 C417.794,93.086 412.659,83.24 404.057,83.24 C402.161,83.24 399.006,82.535 397.046,81.676 C395.082,80.815 387.859,77.967 380.99,75.347 L368.502,70.581 L368.339,63.608 C368.112,53.809 372.601,49.85 380.523,52.863 C384.377,54.329 387.205,51.651 390.262,43.648 L392.17,38.648 L389.11,32.604 C387.429,29.277 385.037,26.157 383.793,25.667 C380.323,24.301 371.294,21.396 365.075,19.645 C361.995,18.779 357.354,17.105 354.759,15.929 C345.932,11.922 342.058,14.163 340.512,24.171 C338.701,35.903 338.979,39.155 342.191,43.788 C348.66,53.125 345.076,58.008 333.114,56.15 C325.496,54.968 325.174,55.011 322.446,57.556 C315.16,64.355 308.162,63.388 303.878,54.988 C299.25,45.919 288.527,39.023 272.604,34.874 C263.603,32.529 258.175,29.022 256.769,24.636 C254.808,18.521 249.378,15.564 241.685,16.416 C236.088,17.035 234.741,16.761 229.197,13.866 C206.36,1.939 195.02,-0.566 175.198,1.944 M280.337,354.892 C281.644,355.576 284.319,357.534 286.287,359.243 C288.253,360.951 292.659,363.761 296.075,365.487 C300.804,367.872 302.764,369.616 304.268,372.768 C305.354,375.048 308.109,379.145 310.39,381.867 C314.653,386.957 323.433,404.559 323.433,408.011 C323.433,416.55 299.21,410.606 290.483,399.926 C283.824,391.776 277.243,374.124 276.041,361.193 C275.292,353.131 275.736,352.476 280.337,354.892 M386.962,391.423 C398.255,397.338 399.426,399.429 393.993,403.999 C387.554,409.417 378.837,407.022 372.336,398.042 C363.744,386.183 370.835,382.976 386.962,391.423 M411.398,452.485 C413.673,453.981 411.443,455.32 404.119,456.849 C397.648,458.202 394.021,457.006 394.021,453.517 C394.021,451.121 408.051,450.29 411.398,452.485 M271.131,464.936 C276.743,470.366 277.043,470.886 274.565,470.883 C268.061,470.881 257.85,463.395 259.876,460.118 C261.417,457.623 265.284,459.276 271.131,464.936" fill="#000000" id="mechanicum-taghmata-vultarax-stratos-automata" display="none"/>
    <path d="M201.954,101.43 C199.791,102.38 189.323,103.254 183.208,102.997 C178.876,102.814 178.637,102.877 176.005,104.886 C171.619,108.233 170.97,108.467 168.06,107.733 C164.819,106.917 162.811,107.618 161.582,109.993 C160.355,112.368 149.817,121.936 148.429,121.936 C147.701,121.936 139.869,130.316 139.869,131.094 C139.869,131.497 139.175,132.476 138.326,133.267 C136.047,135.397 135.115,137.573 135.118,140.766 C135.124,151.353 131.933,154.73 121.779,154.894 C118.496,154.946 115.275,155.269 114.621,155.609 C113.306,156.295 107.769,157.102 103.631,157.211 L100.957,157.281 L100.661,153.581 C100.248,148.444 98.747,146.982 93.16,146.28 C90.895,145.995 88.248,145.349 87.278,144.842 C86.306,144.337 84.685,143.921 83.674,143.919 C82.564,143.917 81.388,143.421 80.707,142.668 C79.726,141.585 79.054,141.451 75.585,141.648 C66.936,142.136 63.652,148.921 69.234,154.762 C71.62,157.258 73.067,160.731 73.568,165.155 C74.021,169.154 73.706,169.889 69.437,174.833 C68.435,175.991 67.261,178.208 66.827,179.758 C65.798,183.435 65.413,183.59 56.054,184.084 C48.293,184.493 48.058,184.546 46.357,186.247 C45.398,187.206 43.554,188.659 42.262,189.474 C40.969,190.291 38.466,192.136 36.7,193.575 C34.933,195.015 33.214,196.191 32.881,196.191 C31.842,196.191 27.597,199.905 26.373,201.886 C25.203,203.78 24.074,204.394 19.48,205.638 C16.794,206.363 14.494,208.615 11.241,213.7 C10.173,215.371 8.912,217.059 8.439,217.451 C6.344,219.189 5.386,222.774 6.057,226.354 C6.649,229.507 6.593,229.908 5.296,231.834 C4.304,233.31 3.722,235.381 3.291,238.964 C2.957,241.74 2.536,245.216 2.357,246.686 C1.846,250.856 2.061,255.705 2.816,257.048 C3.194,257.72 3.953,260.008 4.505,262.131 C6.206,268.691 7.148,270.703 8.675,271.06 C10.264,271.431 10.839,273.798 9.809,275.723 C9.315,276.647 9.563,277.856 10.961,281.347 C11.941,283.792 12.741,286.155 12.741,286.595 C12.741,287.035 13.731,288.861 14.94,290.654 C16.87,293.516 18.122,297.315 18.854,302.527 L20.167,303.671 L21.469,305.171 C22.185,305.995 23.655,307.163 24.736,307.764 C202.065,399.588 210.353,399.088 219.174,398.734 C227.049,398.045 224.646,396.407 232.698,395.142 C238.05,394.3 238.417,394.125 239.309,391.988 C240.499,389.142 242.923,387.475 245.873,387.475 C246.954,385.688 246.977,385.224 249.245,381.203 C250.788,378.47 251.035,377.52 250.721,375.551 C250.318,373.031 250.711,372.443 254.944,369.266 C256.907,367.793 261.649,356.837 261.649,353.774 C261.649,352.667 262.246,351.215 263.134,350.158 C263.951,349.188 264.619,347.837 264.619,347.157 C264.619,345.331 266.775,344.294 271.45,343.873 C281.691,342.95 288.93,341.563 290.12,340.295 C292.165,338.118 296.063,329.844 296.464,326.834 C296.835,324.029 298.751,323.138 300.262,325.069 C300.996,326.006 309.489,329.605 343.924,343.569 C382.16,359.072 384.182,359.858 392.043,362.267 C394.657,363.067 398.399,364.305 400.36,365.019 C408.388,367.937 431.904,366.915 434.602,363.531 C439.509,361.135 442.181,360.567 444.626,360.189 C450.046,359.347 451.517,358.451 452.311,355.501 C452.748,353.876 453.561,352.815 455.156,351.787 C458.492,349.637 462.39,341.989 462.418,337.541 C462.44,333.966 462.893,333.118 465.876,331.077 C469.779,328.405 473.161,320.187 472.84,314.155 C472.598,309.598 472.687,309.023 473.717,308.472 C476.215,303.835 475.478,302.563 475.444,301.813 C475.135,295.041 475.172,292.582 475.599,291.728 C476.334,290.256 475.635,289.024 473.677,288.342 C471.684,287.647 471.386,286.151 473.131,285.596 C473.784,285.388 474.318,284.946 474.318,284.611 C474.318,284.276 473.784,283.322 473.131,282.492 C472.476,281.661 471.942,280.61 471.942,280.158 C471.942,279.706 471.103,277.804 470.077,275.932 C469.051,274.059 467.439,271.057 466.493,269.26 C465.549,267.464 463.211,264.389 461.299,262.429 C457.995,259.043 457.8,258.677 457.427,255.152 C456.944,250.603 456.962,250.599 464.061,253.747 C475.974,259.031 478.304,260.18 480.793,262.001 C482.232,263.053 483.769,263.914 484.212,263.914 C484.654,263.914 486.013,264.448 487.23,265.1 C490.286,266.738 493.026,267.153 495.1,266.294 C497.011,265.502 497.218,265.067 497.777,260.639 L498.154,257.662 L491.043,254.253 C487.133,252.378 483.574,250.842 483.135,250.84 C479.349,250.82 455.567,239.99 453.602,237.39 C453.071,236.686 452.189,235.299 451.646,234.306 C451.1,233.314 449.529,231.928 448.155,231.228 C442.782,228.487 441.689,225.77 444.559,222.292 C447.125,219.178 447.76,213.681 445.648,212.879 C442.974,211.861 441.412,207.551 442.292,203.617 C443.073,200.125 442.051,196.728 439.255,193.519 C438.685,192.865 438.023,191.662 437.784,190.845 C437.545,190.029 436.01,186.963 434.37,184.032 L431.389,178.705 L432.122,175.845 C432.916,172.744 432.531,169.825 431.376,170.209 C430.98,170.34 430.52,171.228 430.353,172.182 C429.91,174.719 428.604,174.299 427.44,171.242 C424.655,163.932 421.777,161.76 414.853,161.744 C413.09,161.739 411.13,161.211 409.327,160.251 C407.564,159.314 405.568,158.766 403.915,158.766 C402.475,158.766 399.059,158.244 396.324,157.606 C393.08,156.851 388.128,156.336 382.085,156.125 C373.051,155.811 368.813,155.107 364.271,153.167 C360.582,151.592 361.115,150.175 367.983,143.293 C371.25,140.018 373.924,136.987 373.924,136.558 C373.924,132.171 365.482,126.434 362.431,128.746 C361.211,129.669 360.161,129.425 357.725,127.647 C356.311,126.617 355.756,126.535 353.76,127.068 C351.332,127.715 349.609,127.248 346.79,125.175 C345.595,124.297 345.415,124.306 344.404,125.308 C343.802,125.904 342.581,126.864 341.687,127.444 C340.794,128.023 340.063,128.802 340.063,129.172 C340.063,130.423 335.278,136.198 333.058,137.627 C331.146,138.855 329.845,139.095 323.22,139.448 C316.74,139.794 315.173,140.075 312.847,141.31 C310.848,142.375 309.629,142.662 308.326,142.375 C305.734,141.805 297.93,142.015 295.51,142.719 C290.18,144.268 281.865,139.616 281.837,135.068 C281.824,132.67 277.495,129.149 275.5,129.914 C274.194,130.417 273.842,128.511 275.074,127.609 C276.797,126.349 276.615,114.919 274.817,111.419 C272.375,106.669 264.508,105.602 261.726,109.645 C259.171,113.358 257.988,113.612 255.16,111.057 C253.701,109.739 251.99,108.844 250.423,108.58 C248.946,108.33 247.006,107.36 245.545,106.14 C241.879,103.077 235.511,104.457 235.511,108.314 C235.511,110.712 230.46,109.825 227.332,106.879 C224.19,103.917 221.188,104.364 217.706,108.314 L215.004,111.378 L212.931,110.488 C210.282,109.348 205.895,104.823 205.306,102.62 C204.761,100.584 204.276,100.412 201.954,101.43" fill="#000000" id="legion-arquitor-bombard" display="none"/>
    <path d="M428.655,111.202 C420.94,112.345 419.901,112.731 417.447,115.371 C414.894,118.115 414.733,119.546 416.621,122.767 C418.692,126.301 418.379,130.427 415.633,135.818 C414.347,138.342 413.93,139.874 414.19,141.111 C414.425,142.221 414.229,143.228 413.646,143.891 C413.144,144.463 412.543,145.556 412.31,146.321 C411.777,148.072 410.297,148.098 408.477,146.388 C405.054,143.171 395.354,145.288 389.14,150.608 C386.445,152.915 384.026,153.708 377.85,154.31 C372.468,154.836 371.636,154.434 370.015,150.52 C367.336,144.057 364.273,142.877 356.383,145.274 C353.647,146.105 350.949,146.477 348.569,146.355 L344.934,146.168 L344.448,142.776 C343.752,137.913 341.799,134.229 339.283,133.029 C337.008,131.945 336.874,131.957 321.75,134.764 C314.881,136.039 314.497,136.049 310.205,135.037 C307.763,134.463 305.506,134.152 305.189,134.348 C304.872,134.544 302.109,134.988 299.046,135.334 C290.049,136.353 281.588,138.78 279.56,140.922 C278.286,142.265 277.048,142.835 274.737,143.142 C267.277,144.131 264.059,150.247 267.294,157.291 C269.305,161.671 270.415,162.234 277.034,162.234 C282.79,162.234 285.496,163.23 283.214,164.508 C282.023,165.175 264.588,166.353 262.75,165.891 C261.705,165.628 259.566,166.043 256.682,167.065 C251.32,168.965 239.797,170.894 228.435,171.792 C223.847,172.155 216.756,172.736 212.679,173.083 C205.494,173.694 197.635,174.123 186.106,174.534 C157.65,175.546 159.239,175.009 159.398,183.554 C159.452,186.443 159.266,190.655 158.986,192.913 C158.168,199.494 158.852,199.895 169.934,199.323 C174.721,199.076 179.293,198.625 180.095,198.321 C180.895,198.016 182.803,197.767 184.332,197.767 C185.863,197.767 187.582,197.525 188.154,197.23 C189.584,196.493 200.009,195.922 200.009,196.581 C200.009,197.551 193.441,200.239 191.073,200.239 C181.094,200.239 154.112,207.518 152.115,210.749 C151.896,211.102 147.536,213.462 142.423,215.994 C137.311,218.527 132.706,220.953 132.19,221.388 C131.672,221.821 130.203,222.732 128.921,223.412 C125.999,224.962 118.147,230.873 112.877,235.49 C108.684,239.163 101.44,244.114 100.259,244.114 C99.882,244.114 98.481,244.699 97.147,245.413 C95.221,246.445 94.11,246.633 91.758,246.32 C85.224,245.455 81.587,250.145 84.111,256.184 C85.467,259.429 87.467,259.128 90.315,255.246 C93.875,250.397 96.811,248.584 96.811,251.237 C96.811,251.714 95.837,253.08 94.647,254.27 C92.151,256.764 91.994,257.631 93.755,259.14 C94.482,259.763 94.892,260.68 94.714,261.285 C94.544,261.868 94.227,263.456 94.008,264.816 C93.099,270.494 91.931,271.433 87.932,269.704 C84.488,268.216 83.216,267.054 83.216,265.404 C83.216,262.397 77.651,262.866 74.476,266.142 C72.405,268.278 72.223,269.196 72.837,274.374 C73.004,275.766 72.671,275.991 69.003,276.979 C66.046,277.775 64.554,278.57 63.351,279.988 C61.613,282.038 59.427,282.676 45.52,285.189 C42.29,285.772 37.702,286.637 35.323,287.11 C32.944,287.584 28.495,288.256 25.435,288.604 C11.044,290.244 7.807,292.103 8.721,298.202 C9.114,300.823 6.67,304.057 4.296,304.057 C2.129,304.057 0.409,306.665 0.409,309.951 C0.409,311.784 -0.046,314.238 -0.602,315.402 C-1.855,318.03 -1.361,320.351 0.918,322.535 C1.84,323.418 3.089,324.917 3.696,325.867 C5.544,328.762 6.944,329.021 12.48,327.496 C19.267,325.626 21.753,325.263 30.997,324.785 C39.479,324.346 40.542,324.109 46.446,321.338 C48.486,320.382 52.1,319.134 54.48,318.564 C56.859,317.995 60.335,317.126 62.204,316.632 C64.073,316.139 66.994,315.493 68.693,315.195 C77.557,313.646 81.894,312.688 83.968,311.818 C88.123,310.074 90.012,310.998 90.012,314.775 C90.012,316.216 91.805,318.169 94.673,319.852 C96.627,321 95.089,321.859 90.274,322.311 C86.789,322.637 85.178,323.098 83.943,324.124 C81.166,326.434 79.785,326.911 73.19,327.842 C69.698,328.336 65.398,329.013 63.637,329.35 C61.876,329.687 59.035,329.797 57.322,329.593 C54.934,329.311 53.823,329.478 52.549,330.313 C50.521,331.641 44.384,331.352 41.351,329.782 C37.091,327.579 26.75,328.681 25.336,331.489 C24.803,332.545 23.67,334.156 22.816,335.068 C19.768,338.327 23.113,342.362 28.865,342.368 C30.411,342.368 32.01,342.702 32.418,343.11 C33.123,343.815 39.031,344.834 43.665,345.05 C45.606,345.14 45.889,344.944 46.419,343.143 C47.16,340.628 49.613,340.209 51.853,342.212 C52.848,343.102 52.935,343.073 52.935,341.856 C52.935,339.982 59.439,336.774 64.093,336.352 C68.207,335.978 68.86,336.566 67.422,339.348 C65.266,343.517 66.572,344.318 75.342,344.21 C80.572,344.146 83.95,344.415 86.291,345.079 C90.373,346.238 92.112,345.511 92.151,342.631 C92.183,340.326 93.468,340.073 97.957,341.485 C102.901,343.04 108.418,342.163 115.514,338.697 C123.415,334.837 125.083,334.764 128.82,338.12 C130.476,339.608 132.642,341.23 133.632,341.724 C134.623,342.217 135.989,343.086 136.668,343.652 C137.349,344.219 138.655,345.066 139.575,345.533 C140.493,346.002 144.386,348.215 148.226,350.45 C152.065,352.684 155.764,354.833 156.443,355.225 C163.197,359.122 184.436,368.271 194.865,371.778 C201.705,374.076 207.87,373.341 211.162,369.838 C213.068,367.81 213.666,367.908 217.004,370.796 C220.214,373.574 221.172,373.716 227.2,372.315 C234.02,370.729 235.081,370.23 236.407,367.98 C237.854,365.528 238.887,365.321 240.545,367.153 C242.93,369.788 255.326,367.349 258.483,363.624 C260.355,361.414 260.454,361.377 261.864,362.363 C263.741,363.678 265.934,363.645 272.342,362.212 C279.113,360.699 279.599,360.476 280.692,358.362 C281.753,356.313 282.279,356.202 284.392,357.587 C285.995,358.638 287.792,358.553 294.249,357.117 C299.468,355.956 300.835,355.252 301.483,353.39 C302.213,351.3 302.754,351.23 305.136,352.927 C307.208,354.402 309.235,354.255 316.46,352.105 C321.738,350.535 323.197,349.045 324.231,344.166 C325.351,338.894 327.911,336.19 331.786,336.19 C338.524,336.19 342.444,333.137 343.037,327.426 C343.352,324.387 343.837,322.896 344.875,321.778 C345.649,320.942 346.455,319.806 346.667,319.255 C347.299,317.609 350.295,316.753 351.181,317.966 C351.853,318.884 352.126,318.862 354.389,317.708 C356.625,316.567 357.932,316.153 364.078,314.645 C365.779,314.228 370.435,314.981 373.255,316.129 C373.959,316.416 374.583,316.298 374.877,315.822 C376.728,312.828 384.685,313.245 386.33,316.425 C386.849,317.43 387.898,318.408 388.659,318.6 C389.421,318.79 390.51,319.758 391.079,320.749 C391.647,321.739 392.827,322.73 393.699,322.949 C396.003,323.527 395.664,324.64 392.351,327.369 C390.736,328.699 385.382,333.134 380.454,337.226 C375.527,341.316 370.799,344.882 369.949,345.15 C369.099,345.417 366.983,346.848 365.248,348.329 C363.389,349.915 361.47,351.021 360.577,351.021 C359.488,351.021 358.521,351.791 357.133,353.76 C356.072,355.266 354.419,356.989 353.461,357.589 C352.503,358.189 350.166,360.085 348.269,361.802 C346.37,363.52 343.759,365.825 342.465,366.924 C340.001,369.021 339.61,373.401 341.563,377.051 C342.031,377.925 341.947,378.587 341.242,379.595 C338.867,382.986 340.45,387.829 344.629,389.961 C347.98,391.671 348.601,391.547 351.9,388.511 C353.5,387.037 356.148,384.925 357.786,383.818 C359.423,382.709 360.911,381.417 361.092,380.947 C361.272,380.475 362.347,379.518 363.48,378.818 C364.611,378.118 367.014,375.61 368.818,373.243 C370.623,370.878 372.34,368.942 372.636,368.942 C372.93,368.942 374.574,367.824 376.291,366.458 C378.007,365.092 380.028,363.819 380.783,363.629 C381.537,363.44 383.614,361.52 385.398,359.364 C387.183,357.207 389.293,355.279 390.091,355.079 C390.887,354.878 392.729,353.608 394.184,352.253 C395.639,350.9 397.317,349.632 397.912,349.438 C398.543,349.232 398.992,348.467 398.992,347.597 C398.992,346.569 399.567,345.813 400.847,345.151 C401.866,344.624 402.701,344.348 402.701,344.538 C402.701,344.729 403.256,344.587 403.937,344.223 C404.616,343.86 405.172,343.151 405.172,342.65 C405.172,341.146 411.808,337.251 413.601,337.702 C414.638,337.962 415.633,337.683 416.72,336.828 C417.599,336.137 418.849,335.573 419.502,335.573 C420.255,335.573 420.915,334.915 421.317,333.763 C422.359,330.774 426.691,329.728 429.008,331.906 C431.526,334.271 445.114,334.621 449.02,332.422 C452.539,330.439 456.03,325.248 455.624,322.598 C455.443,321.407 455.107,318.732 454.881,316.654 L454.469,312.876 L457.475,309.492 C459.128,307.631 460.954,305.229 461.533,304.155 C462.829,301.75 463.29,301.743 468.725,304.057 C474.914,306.69 477.717,306.275 482.005,302.087 C483.16,300.961 486.765,297.73 490.022,294.908 C498.169,287.842 499.225,283.797 494.747,276.819 C493.372,274.675 492.893,273.389 493.278,272.872 C501.855,261.351 498.737,252.287 484.227,246.568 C479.913,244.868 477.965,245.274 473.398,248.823 C471.391,250.382 468.637,252.223 467.278,252.914 C465.918,253.604 464.02,254.827 463.059,255.631 C462.099,256.434 460.646,257.091 459.83,257.091 C458.81,257.091 458.051,257.667 457.39,258.944 C456.862,259.965 456.021,260.799 455.521,260.799 C454.374,260.799 454.372,260.124 455.512,257.914 C456.008,256.952 456.564,255.422 456.747,254.516 C456.949,253.511 457.923,252.347 459.243,251.531 C461.676,250.026 462.018,248.35 460.369,245.998 C459.354,244.548 459.384,244.47 461.695,242.473 C464.371,240.157 464.493,237.404 462.271,229.408 L461.251,225.745 L463.493,221.739 C464.725,219.534 465.733,216.905 465.733,215.896 C465.733,211.46 467.407,208.084 471.309,204.652 C475.344,201.101 476.211,198.364 473.458,197.861 C470.204,197.265 470.338,194.904 473.726,193.153 C477.923,190.983 478.392,188.952 475.924,183.648 C475.077,181.828 474.384,179.792 474.384,179.119 C474.384,177.336 471.078,174.284 469.148,174.284 C467.876,174.284 467.328,173.815 466.62,172.122 C466.122,170.933 465.436,169.959 465.093,169.959 C464.749,169.959 463.294,168.883 461.857,167.567 C460.42,166.252 458.645,164.99 457.911,164.763 C456.108,164.204 455.931,163.56 455.208,154.91 C454.864,150.781 454.321,146.013 454.004,144.313 C453.686,142.614 453.255,139.554 453.048,137.516 C450.309,110.771 448.046,108.33 428.655,111.202 M242.031,181.391 C242.031,181.901 241.683,182.321 241.258,182.326 C240.833,182.331 239.929,182.474 239.25,182.643 C237.458,183.09 235.826,181.919 237.087,181.092 C238.586,180.107 242.031,180.316 242.031,181.391 M206.807,184.188 C206.807,185.09 203.77,186.126 202.4,185.691 C200.947,185.229 200.91,184.35 202.327,183.98 C204.38,183.443 206.807,183.555 206.807,184.188 M190.741,185.717 C190.741,186.232 190.191,186.644 189.504,186.644 C188.273,186.644 187.897,185.986 188.68,185.201 C189.433,184.449 190.741,184.776 190.741,185.717 M107.315,332.483 C110.258,335.425 108.676,336.822 102.504,336.731 C93.911,336.606 96.324,332.395 105.616,331.3 C105.871,331.271 106.636,331.802 107.315,332.483 M80.743,334.97 C80.743,335.935 78.176,336.704 74.233,336.922 C70.401,337.132 68.922,336.057 71.577,334.993 C73.564,334.196 80.743,334.178 80.743,334.97" fill="#000000" id="white-scars-kyzagan-assault-speeder" display="none"/>
  </g>
</svg>
