<?xml version="1.0" encoding="UTF-8"?>
<!DOCTYPE svg PUBLIC "-//W3C//DTD SVG 1.1//EN" "http://www.w3.org/Graphics/SVG/1.1/DTD/svg11.dtd">
<svg version="1.1" xmlns="http://www.w3.org/2000/svg" xmlns:xlink="http://www.w3.org/1999/xlink" x="0" y="0" width="500" height="500" viewBox="0, 0, 500, 500">
  <g id="Background">
    <rect x="0" y="0" width="500" height="500" fill="#000000" fill-opacity="0"/>
  </g>
  <g id="Layer_1">
    <path d="M211.222,1.568 C210.159,1.987 207.446,4.724 205.192,7.654 C196.344,19.152 181.788,27.376 170.281,27.376 C164.779,27.376 163.425,27.674 162.368,29.117 C161.202,30.711 160.733,30.763 156.779,29.717 C147.578,27.288 145.913,27.376 143.051,30.44 C140.688,32.97 140.173,33.149 137.717,32.293 C135.611,31.557 133.8,31.705 129.689,32.943 C126.458,33.914 121.016,34.591 115.776,34.672 C94.41,35.003 80.615,38.626 78.136,44.558 C77.496,46.089 76.126,48.11 75.088,49.05 C74.05,49.987 73.2,51.65 73.2,52.744 C73.2,53.838 71.977,56.421 70.481,58.486 C66.558,63.903 64.06,70.899 63.637,77.652 C63.435,80.889 62.814,88.023 62.26,93.503 C61.458,101.439 61.512,105.62 62.531,114.031 C64.016,126.307 63.104,130.386 57.97,134.403 C55.96,135.976 55.083,137.426 55.083,139.181 C55.083,142.831 53.328,147.625 51.357,149.358 C49.245,151.219 49.157,154.415 51.157,156.627 C53.366,159.067 53.347,166.866 51.12,171.641 C49.466,175.185 49.416,175.979 50.489,181.379 C51.507,186.513 51.47,187.725 50.188,190.928 C48.986,193.932 48.884,195.617 49.626,200.257 C50.566,206.141 49.943,210.202 47.54,213.871 C46.845,214.933 46.086,218.408 45.857,221.594 C45.292,229.397 43.261,231.288 37.611,229.28 C25.622,225.019 15.301,241.093 24.585,249.567 C26.893,251.675 35.102,256.105 36.7,256.105 C38.375,256.105 39.429,258.701 40.169,264.643 C40.982,271.166 43.961,274.389 53.724,279.308 C57.212,281.064 62.062,283.792 64.502,285.369 C68.363,287.863 69.779,288.248 75.398,288.336 C83.203,288.459 86.339,289.807 85.416,292.642 C83.951,297.138 83.101,313.594 84.224,315.708 C85.103,317.365 85.08,318.658 84.103,322.048 C80.101,335.962 86.378,340.158 92.925,327.942 C98.277,317.958 106.123,307.306 108.359,306.989 C111.13,306.595 119.07,309.495 120.968,311.593 C124.195,315.16 119.801,326.761 115.226,326.761 C109.176,326.761 107.505,329.453 106.221,341.252 C105.621,346.773 105.309,347.404 101.167,351.415 C98.739,353.767 96.679,356.419 96.587,357.305 C96.496,358.192 96.335,360.753 96.231,362.995 C96.127,365.236 95.754,368.155 95.402,369.482 C94.9,371.372 95.514,373.137 98.248,377.635 L101.735,383.377 L101.529,394.247 C101.363,403.076 100.867,406.614 98.883,413.083 L96.443,421.05 L90.258,425.549 C86.109,428.565 84.072,430.657 84.072,431.893 C84.072,432.907 83.051,434.682 81.807,435.837 C77.696,439.645 78.44,449.856 83.166,454.486 C87.364,458.603 87.401,458.794 84.905,463.686 C83.82,465.814 83.234,468.23 83.526,469.389 C84.068,471.549 81.695,475.381 77.29,479.464 C73.065,483.379 76.634,494.751 82.826,497.105 C86.643,498.555 116.076,500.001 132.987,499.568 C151.841,499.084 155.091,498.105 155.966,492.632 C157.335,484.063 167.192,472.943 172.634,473.827 C182.061,475.356 188.512,463.815 183.249,454.834 C181.682,452.161 180.705,448.948 180.44,445.591 C180.215,442.76 179.845,439.908 179.613,439.251 C177.563,433.409 178.794,395.613 181.109,393.34 C182.455,392.019 184.837,395.317 187.772,402.572 C192.614,414.537 201.365,432.011 202.938,432.853 C210.217,436.749 228.621,438.049 233.531,435.014 C233.892,434.791 239.236,433.97 245.411,433.191 C251.584,432.409 258.522,431.111 260.829,430.307 C267.702,427.909 269.977,431.563 268.506,442.652 C268.054,446.048 268.458,448.677 270.317,454.438 L272.709,461.853 L278.713,461.188 C286.426,460.332 287.599,460.43 290.22,462.147 C294.21,464.761 293.914,471.056 289.616,474.943 C286.03,478.189 287.672,483.298 293.229,486.177 C296.456,487.85 346.257,488.515 347.62,486.904 C353.691,479.725 355.826,473.987 355.826,464.874 C355.826,455.567 357.86,450.99 362.037,450.892 C362.712,450.875 364.519,449.808 366.05,448.519 C368.015,446.867 369.588,446.285 371.39,446.55 C374.776,447.048 374.898,442.991 371.657,437.728 C370.429,435.735 369.421,433.391 369.419,432.52 C369.417,431.647 368.994,430.934 368.479,430.934 C367.963,430.934 366.681,429.474 365.629,427.69 C364.577,425.907 362.81,424.103 361.704,423.684 C358.156,422.334 343.384,394.207 338.271,379.066 C333.608,365.255 335.586,365.041 346.551,378.168 C357.731,391.548 368.404,402.732 381.949,415.258 C388.258,421.092 393.925,426.767 394.541,427.872 C395.16,428.976 396.835,430.136 398.265,430.451 C400.719,430.991 406.555,435.789 406.555,437.266 C406.555,437.643 408.257,438.222 410.338,438.553 C412.417,438.887 418.226,441.358 423.245,444.043 C440.876,453.477 454.864,456.115 461.516,451.256 C470.382,444.783 478.582,414.84 481.841,377.035 C484.699,343.881 480.313,250.873 475.238,236.972 C473.35,231.801 466.629,231.109 463.11,235.722 C456.82,243.968 437.959,237.264 431.529,224.496 C421.935,205.447 428.981,181.937 449.37,164.965 C462.331,154.177 426.766,123.057 396.137,118.388 C384.539,116.619 370.444,116.74 366.975,118.638 C362.419,121.129 359.862,119.673 359.162,114.185 C358.856,111.779 357.979,105.768 357.216,100.83 C356.451,95.89 355.826,91.759 355.826,91.65 C355.826,91.54 356.589,91.25 357.518,91.009 C359.206,90.567 360.42,86.99 360.56,82.054 C360.718,76.383 348.278,66.126 342.544,67.201 C338.944,67.876 337.777,66.172 339.398,62.613 C340.278,60.684 340.684,60.513 342.319,61.388 C345.632,63.161 348.403,61.742 349.489,57.717 C350.951,52.283 348.011,48.148 342.298,47.602 C339.736,47.358 339.065,46.841 338.488,44.664 C337.584,41.26 336.35,40.543 331.369,40.522 C329.127,40.514 321.503,39.897 314.43,39.151 C307.355,38.405 298.183,37.743 294.048,37.678 C286.114,37.555 277.013,33.886 274.013,29.603 C272.336,27.209 268.575,25.978 260.389,25.14 C255.216,24.613 252.616,23.882 250.876,22.465 C249.561,21.392 247.303,19.817 245.859,18.963 C241.801,16.565 229.773,7.462 226.743,4.497 C223.804,1.622 215.211,-0.001 211.222,1.568 M141.84,178.96 C143.242,179.852 152.924,199.793 152.895,201.732 C152.885,202.491 152.078,204.13 151.103,205.376 C148.53,208.666 148.741,213.127 151.557,214.971 C154.199,216.702 154.405,218.831 152.322,222.859 C150.459,226.455 148.428,237.651 148.405,244.439 C148.376,252.454 141.34,271.693 137.965,272.989 C135.642,273.881 131.175,269.868 131.175,266.886 C131.175,263.703 134.96,255.875 141.703,245.116 C146.838,236.918 147.065,235.291 143.311,233.58 C140.296,232.207 140.886,231.938 134.952,237.393 C131.056,240.974 128.739,242.385 126.039,242.816 C124.031,243.137 121.347,244.22 120.072,245.223 C118.797,246.225 117.409,247.046 116.989,247.046 C116.568,247.046 114.215,248.473 111.763,250.217 C106.715,253.806 105.342,254.081 104.098,251.756 C102.733,249.21 101.831,239.064 102.852,237.768 C103.346,237.141 104.602,233.774 105.644,230.288 C107.894,222.763 117.411,207.554 120.639,206.326 C124.339,204.92 124.372,202.626 120.741,199.299 C116.516,195.428 116.893,194.284 125.199,185.844 C131.054,179.894 132.112,179.193 135.744,178.873 C137.965,178.677 139.984,178.452 140.234,178.373 C140.484,178.293 141.207,178.558 141.84,178.96 M322.562,260.547 C329.754,263.63 335.648,279.46 334.692,293.121 C333.95,303.701 333.129,304.701 324.535,305.506 L317.637,306.154 L314.311,302.982 C312.484,301.239 309.924,299.564 308.626,299.261 C306.838,298.845 305.861,297.657 304.615,294.392 C303.711,292.017 300.583,285.794 297.667,280.562 C291.61,269.699 291.364,267.487 295.914,264.838 C306.198,258.855 315.222,257.4 322.562,260.547" fill="#000000" id="blood-angels-crimson-paladins"/>
  </g>
</svg>
