<?xml version="1.0" encoding="UTF-8"?>
<!DOCTYPE svg PUBLIC "-//W3C//DTD SVG 1.1//EN" "http://www.w3.org/Graphics/SVG/1.1/DTD/svg11.dtd">
<svg version="1.1" xmlns="http://www.w3.org/2000/svg" xmlns:xlink="http://www.w3.org/1999/xlink" x="0" y="0" width="500" height="500" viewBox="0, 0, 500, 500">
  <g id="layer101">
    <path d="M319.169,443.517 C314.985,441.388 308.894,435.664 308.454,433.242 C308.087,431.554 307.5,430.894 305.959,430.6 C302.436,429.866 300.308,428.398 299.28,426.197 C297.592,422.234 297.225,421.94 294.363,420.913 C292.822,420.399 291.134,419.298 290.547,418.491 C289.079,416.363 286.878,416.656 283.795,419.445 C281.814,421.206 279.759,422.16 276.53,422.894 C271.099,423.995 268.971,423.335 267.209,419.959 C266.622,418.784 265.595,417.757 265.081,417.757 C264.494,417.757 262.145,419.592 259.87,421.793 C255.761,425.683 255.467,425.83 251.504,425.903 C238.661,426.05 228.974,425.83 227.066,425.389 C223.396,424.582 218.846,422.307 216.938,420.399 C214.369,417.61 211.067,418.271 211.067,421.573 C211.067,423.114 210.626,423.188 207.471,422.087 C205.709,421.5 204.902,421.5 204.095,422.16 C202.187,423.702 202.847,425.023 207.984,430.086 C210.773,432.802 212.901,435.444 212.681,435.957 C212.314,437.132 207.471,437.058 205.196,435.737 C203.287,434.636 199.912,434.27 199.104,435.15 C198.224,435.957 188.756,435.297 186.555,434.196 C182.518,432.215 177.968,433.462 175.546,437.205 C174.225,439.26 172.904,439.04 172.904,436.838 C172.904,434.27 170.85,433.169 166.299,433.169 C162.557,433.169 161.823,433.389 160.575,435.003 C158.74,437.278 157.933,437.278 156.979,435.15 C156.539,434.27 155.071,432.875 153.677,432.141 C150.447,430.38 145.971,431.04 145.09,433.315 C144.576,434.783 143.916,434.93 135.696,435.077 L126.89,435.224 L124.835,433.022 C123.073,431.187 122.339,430.894 120.138,431.187 C115.221,431.848 109.496,434.416 108.322,436.398 C107.588,437.719 106.561,438.306 105.313,438.306 C104.212,438.306 102.965,438.82 102.451,439.407 C101.937,439.994 100.323,440.508 98.855,440.508 L96.213,440.508 L96.653,435.591 C96.947,432.802 97.828,428.765 98.708,426.564 C100.543,421.72 100.616,419.005 99.149,417.757 C97.534,416.436 92.91,418.564 92.91,420.619 C92.91,422.821 87.113,425.83 83.003,425.83 C80.288,425.83 79.26,426.197 77.646,427.811 C76.031,429.426 75.15,429.719 72.362,429.573 C67.738,429.352 65.243,428.252 64.729,426.123 C64.142,423.922 61.72,422.894 57.243,422.894 C52.693,422.894 45.134,425.536 43.373,427.811 L41.832,429.646 L40.951,427.665 C40.144,425.903 39.703,425.756 37.649,426.123 C36.401,426.344 33.539,426.71 31.411,427.004 L27.521,427.518 L29.576,425.316 C39.85,414.675 42.272,411.592 42.272,409.171 C42.272,407.776 40.07,406.015 38.309,406.015 C35.594,406.015 28.989,402.272 27.521,399.85 C26.273,397.869 26.126,396.768 26.493,390.97 C27.081,383.705 29.356,377.32 32.438,374.384 C34.86,372.109 34.64,370.128 31.19,362.789 C29.576,359.339 27.741,354.936 27.154,353.101 C26.567,351.267 25.172,347.524 23.925,344.882 C21.209,338.79 20.182,330.571 22.017,328.81 C22.604,328.149 25.393,326.901 28.108,326.021 C30.897,325.14 33.539,323.966 34.126,323.452 C35.594,322.058 34.566,319.122 32.365,318.095 C29.649,316.847 27.741,316.994 24.145,318.755 C20.035,320.737 18.494,320.37 18.2,317.434 C18.054,315.746 18.494,314.499 20.035,312.811 C22.751,309.728 27.374,309.141 32.658,311.049 C34.713,311.783 36.548,312.15 36.841,311.857 C38.529,310.169 33.392,306.94 29.062,306.94 C25.613,306.94 26.053,304.444 29.796,302.977 C31.411,302.316 33.172,301.802 33.686,301.802 C36.181,301.802 42.639,304.298 44.254,305.912 C45.795,307.453 45.942,308.114 45.575,311.123 C44.987,315.233 47.116,321.177 49.391,321.911 C51.446,322.572 67.591,318.462 67.591,317.288 C67.591,316.113 68.252,316.48 56.069,310.609 C45.942,305.765 44.033,304.077 40.437,296.959 C36.621,289.4 38.236,279.419 44.033,273.988 C46.455,271.713 46.455,271.346 43.666,270.245 C41.758,269.438 40.511,269.438 36.107,270.465 C33.245,271.126 28.915,271.786 26.42,271.933 C23.411,272.08 20.622,272.814 17.76,274.208 C14.458,275.823 13.063,276.116 10.715,275.749 C9.1,275.456 7.559,274.869 7.266,274.502 C6.825,273.694 9.174,271.346 13.21,268.557 C15.485,267.016 15.705,264.741 13.724,263.64 C11.522,262.466 8.88,262.759 5.284,264.447 C1.101,266.502 -0.66,265.915 0,262.759 C0.661,259.31 2.348,257.916 6.972,256.962 C9.247,256.448 11.449,256.081 11.816,256.081 C12.256,256.154 16.879,256.521 22.09,256.962 C30.603,257.696 31.998,257.622 35.153,256.521 L38.676,255.274 L41.171,257.989 C44.033,261.145 43.887,261.145 54.014,257.549 C59.812,255.494 60.619,254.907 66.27,249.036 C69.646,245.586 72.362,242.211 72.362,241.55 C72.362,240.89 70.967,239.055 69.206,237.44 L66.05,234.505 L60.913,235.165 C58.124,235.606 52.547,235.752 48.51,235.606 C42.272,235.312 40.437,234.945 36.401,233.037 C30.163,230.175 24.952,224.45 24.218,219.754 C23.118,212.268 25.393,204.562 28.768,204.562 C29.943,204.562 30.163,205.076 29.943,208.231 C29.649,213.295 30.09,214.47 33.465,218.579 C36.695,222.542 40.144,224.671 43.226,224.744 C45.575,224.744 45.942,222.909 43.74,222.175 C41.758,221.588 41.832,218.579 43.813,217.332 C44.621,216.745 45.575,215.13 45.868,213.736 C46.162,212.048 47.042,210.8 48.29,210.066 C50.198,209.039 50.418,209.112 52.326,210.947 C55.482,213.956 59.225,215.203 65.243,215.203 C69.132,215.203 71.774,214.763 74.416,213.662 L78.159,212.121 L80.655,213.662 C82.93,215.057 83.297,215.13 84.177,214.029 C84.691,213.369 85.131,210.8 85.205,208.011 C85.351,202.36 87.186,197.517 91.002,192.82 C94.011,189.224 99.002,186.655 100.836,187.829 C102.965,189.15 102.598,190.838 99.515,194.214 C96.507,197.517 93.571,203.755 94.158,205.516 C94.598,206.69 101.057,206.69 102.818,205.369 C103.919,204.562 104.066,203.828 103.625,200.232 C103.185,196.196 103.258,195.976 105.387,194.067 C112.872,187.462 115.588,184.38 116.028,181.958 C116.615,179.023 115.001,175.353 112.725,174.106 C111.771,173.592 111.258,172.564 111.258,171.243 C111.258,170.069 110.597,167.721 109.79,165.959 C108.175,162.363 107.882,156.492 109.203,154.07 C109.643,153.19 110.964,151.575 112.138,150.474 C113.459,149.227 114.193,147.832 114.193,146.438 C114.193,145.337 115.001,142.768 116.028,140.714 C118.303,136.09 118.303,134.329 116.101,131.834 C114.487,129.852 114.267,129.852 111.478,130.659 C109.863,131.173 107.295,132.567 105.754,133.742 L102.965,136.017 L93.351,135.503 C83.223,134.989 81.609,134.476 75.958,129.999 C73.316,127.871 68.178,127.43 63.922,128.898 C60.766,129.925 60.106,129.925 56.216,128.825 C49.244,126.916 44.18,128.825 41.905,134.255 C41.318,135.65 40.437,136.677 39.924,136.53 C38.236,135.943 37.135,131.393 37.502,126.623 C37.869,122.513 37.795,121.999 36.621,121.999 C35.887,121.999 34.64,122.513 33.906,123.1 C30.163,125.889 28.255,123.394 30.53,118.697 C32.658,114.22 34.86,112.532 39.41,111.798 C41.612,111.431 46.455,110.551 50.198,109.89 L57.097,108.643 L64.509,112.385 C71.334,115.761 72.728,116.128 79.7,116.862 C83.957,117.303 89.168,118.183 91.296,118.77 C95.993,120.091 97.681,119.651 99.149,116.789 C99.809,115.615 101.203,114.147 102.304,113.413 C105.754,111.285 107.515,109.377 109.129,106.074 C110.01,104.313 111.771,102.038 113.166,101.01 C116.248,98.662 116.322,97.267 113.459,93.745 C104.799,82.81 102.378,62.701 109.276,58.591 C111.184,57.417 111.698,58.738 112.212,65.417 C112.505,69.746 113.092,72.095 114.78,75.544 C119.844,85.525 123.881,87.507 136.357,86.259 C140.54,85.819 145.237,85.672 146.925,85.819 C154.484,86.699 163.144,74.223 164.685,60.206 C165.125,56.169 165.419,55.582 166.813,55.362 C168.721,55.069 169.749,56.757 170.336,61.16 C171.29,68.205 171.07,67.912 175.106,67.325 C178.188,66.884 178.849,67.031 179.289,68.132 C179.583,69.013 179.143,69.893 177.748,70.921 C171.51,75.691 169.969,77.599 168.061,83.25 C166.299,88.167 166.153,89.121 167.033,91.103 C167.694,92.791 168.648,93.524 170.85,94.185 C172.978,94.699 174.152,95.653 175.253,97.487 C176.06,98.882 177.968,100.643 179.436,101.451 C180.977,102.184 182.665,103.359 183.179,104.019 C183.766,104.68 185.821,106.074 187.802,107.028 C190.665,108.496 191.986,108.789 194.554,108.349 C197.343,107.982 198.15,108.202 201.233,110.331 C206.37,113.853 214.149,116.789 219.36,117.156 C227.726,117.743 232.937,118.917 236.239,120.825 C240.496,123.32 242.918,123.247 248.568,120.311 C252.311,118.477 253.779,117.229 255.54,114.294 C259.21,108.496 260.678,107.101 262.439,108.056 C263.613,108.716 263.907,109.597 263.907,112.679 C263.907,116.789 262.366,120.752 259.21,124.935 C256.715,128.237 257.449,128.898 265.008,129.925 C271.539,130.806 272.713,130.366 272.713,127.21 C272.713,122.88 274.915,117.743 277.63,115.468 C283.355,110.771 289.006,109.156 295.831,110.331 C303.243,111.652 312.05,117.303 310.509,119.798 C309.848,120.825 308.16,120.678 303.243,119.064 C296.345,116.715 288.272,117.449 285.116,120.605 C283.061,122.66 283.135,128.751 285.263,130.879 C286.731,132.347 287.391,132.421 293.996,132.054 C303.243,131.54 307.059,129.999 309.481,125.595 C310.802,123.32 311.903,122.293 313.591,121.853 C317.701,120.752 319.169,116.862 317.554,111.285 C316.747,108.349 317.628,106.661 319.462,107.762 C322.031,109.303 324.379,114.734 324.453,119.064 C324.526,129.632 314.839,138.659 300.675,141.374 C295.391,142.402 293.262,143.429 293.262,145.117 C293.262,147.025 307.793,160.015 313.004,162.73 C319.315,166.106 322.911,169.409 327.315,176.16 C330.617,181.298 343.314,193.774 349.185,197.81 C353.074,200.379 357.331,201.553 359.312,200.526 C362.688,198.691 362.982,188.343 359.973,178.362 C358.358,173.225 358.505,171.17 360.34,171.17 C361.367,171.17 363.422,173.959 367.532,181.004 C370.321,185.701 371.275,185.848 374.944,182.325 C379.127,178.362 381.99,177.041 386.613,177.041 C391.824,177.041 395.2,178.069 399.456,180.931 C405.841,185.187 404.226,187.536 396.154,185.554 C389.989,184.086 387.714,184.086 384.558,185.554 C379.715,187.903 378.907,192.086 382.283,197.59 C387.274,205.81 395.86,212.048 406.648,215.277 C410.685,216.451 415.455,218.066 417.29,218.873 C419.124,219.607 421.326,220.487 422.207,220.708 C424.629,221.368 434.243,227.9 436.885,230.688 C438.132,232.083 441.141,236.633 443.49,240.89 C446.939,246.981 448.627,249.256 452.003,251.971 C457.213,256.154 467.047,260.264 470.203,259.604 C473.873,258.796 476.074,254.98 476.882,248.082 C477.762,240.816 478.423,239.275 480.624,239.569 C482.679,239.862 484.514,243.605 485.395,249.183 C485.982,253.072 485.908,253.806 484.074,257.622 C481.725,262.613 476.221,267.823 472.625,268.484 C469.91,268.998 458.314,268.484 455.305,267.677 C453.544,267.236 453.25,267.383 453.25,268.777 C453.25,274.061 460.442,290.501 464.332,294.243 C470.203,299.748 475.414,300.555 484.734,297.399 C490.165,295.638 491.339,296.005 495.889,300.848 C499.779,304.958 500.733,307.233 499.485,308.848 C498.678,309.728 498.238,309.655 496.183,308.407 C492.513,306.132 492.146,306.426 492.146,311.93 C492.146,318.095 491.192,319.563 487.303,319.709 C484.734,319.783 484.441,319.563 484.22,317.948 C483.633,313.031 479.817,310.609 472.625,310.609 C467.488,310.609 464.332,311.93 461.837,315.306 C459.562,318.242 458.975,318.462 457.36,316.774 C455.819,315.306 455.892,311.71 457.36,309.141 C458.754,306.866 458.314,304.958 456.406,304.224 C450.168,302.096 446.499,299.894 443.416,296.225 C441.508,294.023 439.453,292.262 438.866,292.262 C437.618,292.262 431.454,297.179 430.94,298.647 C430.72,299.234 431.013,302.023 431.674,304.958 C432.261,307.894 432.848,314.499 432.995,319.636 C433.142,326.755 433.435,329.25 434.243,329.764 C436.077,330.938 437.398,330.131 439.967,326.168 C443.343,320.957 446.645,321.177 446.645,326.755 C446.572,330.351 444.517,334.607 440.554,339.084 C438.426,341.432 436.958,343.854 436.664,345.542 C435.931,349.652 436.811,360.44 438.352,364.917 C439.527,368.513 439.894,368.953 441.875,369.173 C446.425,369.687 447.159,372.329 443.71,375.412 C441.288,377.613 441.288,377.54 442.242,382.897 C442.756,385.686 442.609,387.374 441.655,389.869 C440.994,391.704 440.114,393.392 439.747,393.685 C438.426,394.639 434.389,394.346 433.509,393.245 C432.188,391.704 424.042,388.622 418.684,387.668 C409.29,386.053 405.034,384.218 401.658,380.255 C399.97,378.2 397.108,375.632 395.346,374.458 C390.062,370.935 387.127,371.595 383.971,377.026 C382.87,378.861 381.696,380.329 381.402,380.329 C380.155,380.329 378.981,384.732 379.274,388.548 C379.494,390.676 380.669,396.327 381.99,401.024 C384.191,409.171 384.338,410.198 384.044,419.592 C383.824,425.096 383.531,429.793 383.237,430.013 C383.017,430.307 382.797,431.04 382.797,431.628 C382.797,432.288 381.623,433.462 380.228,434.196 C377.44,435.737 377.073,437.132 378.76,439.333 C380.522,441.682 380.082,441.975 375.018,441.975 C370.394,441.975 370.174,441.902 370.541,440.361 C371.422,437.205 369.954,436.104 364.817,436.104 C357.037,436.104 354.469,433.976 356.744,429.499 C358.212,426.637 357.624,424.729 354.982,423.628 C350.579,421.793 347.57,424.289 346.469,430.747 C346.176,432.802 345.075,434.93 343.093,437.058 C341.552,438.893 339.938,441.168 339.571,442.122 C338.91,443.81 338.397,444.03 332.599,444.471 C328.195,444.838 325.994,444.691 324.893,444.104 C323.939,443.443 323.132,443.37 322.471,443.883 C321.811,444.397 320.783,444.324 319.169,443.517 z M424.629,362.568 C424.629,358.459 424.262,355.083 423.528,353.395 C422.427,350.826 422.354,350.753 419.271,351.193 C414.061,352 410.831,353.175 408.483,355.083 C405.694,357.505 405.621,360.293 408.263,363.449 C409.877,365.357 410.611,365.724 412.446,365.431 C414.648,365.137 418.758,366.605 418.758,367.706 C418.758,367.999 419.638,368.807 420.739,369.467 C423.968,371.375 424.629,370.128 424.629,362.568 z M333.626,307.307 C336.342,305.912 339.204,304.004 339.791,303.123 C340.892,301.656 340.818,301.289 339.204,298.573 C336.782,294.464 335.534,293.803 333.7,295.491 C330.544,298.353 326.067,309.875 328.122,309.875 C328.342,309.875 330.837,308.701 333.626,307.307 z M76.471,303.857 C76.765,303.344 77.058,301.509 77.058,299.601 C77.132,295.271 81.242,286.758 86.232,280.52 C88.947,277.144 89.975,275.382 89.681,274.282 C89.461,273.474 89.241,272.08 89.241,271.199 C89.241,269.071 85.718,266.649 80.728,265.401 C75.297,263.934 72.875,265.108 68.032,271.64 C65.977,274.428 63.481,277.217 62.381,277.878 C61.353,278.612 59.812,280.666 59.005,282.428 C57.831,285.143 57.684,286.611 58.124,291.014 C58.931,299.674 60.619,301.656 68.325,303.564 C73.903,304.885 75.811,304.958 76.471,303.857 z M51.739,282.061 C53.354,277.657 53.721,274.648 52.693,274.648 C51.813,274.648 47.409,283.602 47.409,285.363 C47.409,289.546 49.611,287.859 51.739,282.061 z M350.286,236.56 C351.9,230.909 354.542,229.001 362.468,227.826 C365.257,227.386 368.413,226.432 369.44,225.771 C370.614,224.964 373.11,224.377 375.458,224.304 C381.109,224.083 387.861,222.909 388.815,221.955 C389.329,221.441 388.374,220.12 385.366,217.258 C383.09,215.13 379.494,211.167 377.44,208.452 C373.11,202.581 371.422,202.14 368.486,205.956 C365.697,209.552 362.615,210.8 356.157,210.8 C351.093,210.8 350.065,210.507 344.928,207.865 C341.772,206.25 338.764,204.929 338.25,204.929 C336.709,204.929 337.736,207.938 342.36,217.038 C346.469,225.111 346.469,225.111 346.543,232.083 C346.616,240.669 346.543,240.302 348.084,240.009 C348.818,239.862 349.698,238.541 350.286,236.56 z M135.109,211.461 C135.843,210.286 134.889,207.351 133.568,206.837 C131.807,206.177 128.504,208.011 128.504,209.699 C128.504,211.681 134.082,213.222 135.109,211.461 z M153.897,210.066 C156.319,208.745 155.585,205.956 151.915,201.993 C148.026,197.884 146.705,197.443 146.044,200.232 C145.384,202.947 146.925,207.571 149.2,209.259 C151.328,211.02 151.915,211.094 153.897,210.066 z M254.366,184.38 C254.733,184.38 255.394,183.72 255.834,182.839 C256.494,181.591 256.421,181.004 255.394,179.903 C253.632,177.922 251.357,178.436 250.477,180.931 C249.743,183.279 250.99,185.481 252.678,184.747 C253.265,184.527 254.073,184.38 254.366,184.38 z M262.439,173.005 C264.127,171.023 262.145,165.299 259.797,165.299 C258.696,165.299 255.834,169.409 255.834,170.95 C255.834,171.904 259.21,174.032 260.678,174.106 C261.118,174.106 261.925,173.592 262.439,173.005 z M279.906,146.805 C280.346,144.53 277.41,142.548 273.594,142.548 C269.411,142.548 268.824,142.915 269.851,144.897 C271.539,148.053 279.392,149.52 279.906,146.805 z M186.335,127.063 C189.49,126.183 189.931,124.495 187.435,122.146 C185.234,120.165 182.005,119.357 180.61,120.532 C178.482,122.293 179.73,127.871 182.298,127.871 C182.959,127.871 184.793,127.504 186.335,127.063 z" fill="#000000"/>
  </g>
</svg>
