<?xml version="1.0" encoding="UTF-8"?>
<!DOCTYPE svg PUBLIC "-//W3C//DTD SVG 1.1//EN" "http://www.w3.org/Graphics/SVG/1.1/DTD/svg11.dtd">
<svg version="1.1" xmlns="http://www.w3.org/2000/svg" xmlns:xlink="http://www.w3.org/1999/xlink" x="0" y="0" width="500" height="500" viewBox="0, 0, 500, 500">
  <g id="Layer_1">
    <path d="M201.647,498.29 C198.358,496.944 188.338,494.551 179.217,492.757 C164.861,489.916 158.879,489.467 132.859,489.916 C96.671,490.514 52.856,487.373 52.856,484.233 C52.856,483.635 54.8,480.943 57.342,478.252 C60.183,475.111 62.576,473.765 64.37,474.363 C65.866,474.812 74.24,475.56 82.913,476.008 L98.914,476.756 L105.942,468.382 C116.709,455.821 131.364,449.69 156.786,446.998 C171.59,445.502 182.506,440.717 184.002,435.035 C184.6,432.941 184.899,426.96 184.749,421.875 C184.151,408.267 184.151,398.846 185.198,380.602 C185.946,366.396 185.647,363.854 182.955,358.62 C181.31,355.33 179.516,349.648 179.067,346.059 C178.17,340.376 178.917,337.834 185.049,325.572 C188.937,317.796 193.273,309.272 194.918,306.431 C199.105,298.954 197.012,295.814 189.834,298.655 C186.544,299.851 170.543,298.057 164.861,295.814 C162.468,294.767 159.926,291.627 157.832,287.14 C156.188,283.252 153.197,278.318 151.402,276.074 C148.112,272.037 148.112,271.887 150.505,258.279 C152.748,246.167 152.748,244.372 150.655,241.232 C147.664,236.596 149.159,230.914 156.337,222.091 C159.477,218.053 162.02,214.315 162.02,213.717 C162.02,213.118 165.01,209.38 168.749,205.641 C174.282,199.809 175.478,197.566 175.478,192.931 C175.478,185.603 179.516,171.696 182.656,168.107 C184.151,166.612 187.142,164.369 189.684,163.172 C197.012,159.434 206.881,150.761 206.881,148.069 C206.881,146.573 203.143,140.143 198.657,133.564 C188.338,118.759 184.45,107.095 183.404,86.758 C182.506,72.103 183.404,64.925 187.74,48.326 C188.638,45.036 189.684,32.924 190.282,21.409 C191.03,4.212 191.628,0.474 193.572,0.025 C195.068,-0.274 197.012,2.119 199.105,6.754 C204.638,19.166 206.582,29.634 208.227,55.803 C208.975,69.86 210.47,84.664 211.367,88.702 C213.461,98.272 221.835,113.525 226.471,116.217 C229.91,118.011 231.256,117.862 240.079,114.273 C256.678,107.693 267.594,109.488 279.707,121.002 C283.894,125.04 287.782,128.33 288.231,128.33 C290.175,128.33 340.868,108.441 342.214,107.245 C346.401,103.058 359.411,108.441 359.411,114.273 C359.411,115.469 355.972,124.292 351.785,133.564 C341.766,156.443 341.766,157.938 351.187,162.275 C364.047,168.257 365.692,169.303 370.477,175.135 C374.664,180.519 375.113,181.865 375.113,191.884 C375.113,202.053 374.664,203.249 369.58,210.875 C366.44,215.362 363.898,219.698 363.898,220.595 C363.898,221.343 366.589,224.184 369.879,226.876 L375.861,231.661 L374.814,240.484 C374.066,248.559 374.365,249.756 377.954,253.943 C380.347,256.784 381.842,260.522 381.842,263.214 C381.842,266.803 383.786,269.794 390.067,276.374 C394.553,281.159 399.787,288.636 401.88,293.271 C403.825,297.758 406.068,301.795 406.965,302.393 C408.759,303.44 411.002,310.319 412.498,318.693 C413.096,322.432 415.489,326.768 419.227,330.806 C426.106,338.283 428.199,343.068 428.199,352.04 C428.199,356.676 429.695,361.461 433.583,368.639 C438.219,377.462 438.817,379.705 438.069,386.285 C436.275,402.585 437.77,410.361 443.751,415.296 C445.695,416.94 446.144,420.38 446.144,431.296 C446.144,447.297 444.649,451.634 438.518,453.877 C434.929,455.372 434.181,456.419 434.181,460.905 C434.181,463.746 433.583,466.438 432.835,467.036 C431.041,468.083 427.302,464.344 424.461,458.811 C421.62,453.428 418.479,452.381 413.993,455.222 C411.9,456.568 409.357,457.316 408.161,456.867 C405.021,455.671 396.796,436.68 395.002,426.66 C393.656,419.034 392.46,416.791 386.927,411.407 C383.338,407.968 378.851,401.987 376.758,397.949 C374.814,394.061 371.374,389.126 369.131,387.033 C366.888,384.939 364.047,381.35 362.851,378.808 C361.505,376.415 358.365,371.63 355.673,368.34 C352.832,364.901 350.439,359.816 349.99,356.377 C349.392,352.639 347.897,349.498 345.803,348.152 C340.868,344.713 335.186,338.731 329.653,331.105 C326.961,327.366 324.12,324.226 323.372,324.226 C322.625,324.226 322.027,327.965 322.027,332.451 C322.027,336.937 320.98,343.816 319.634,347.704 C318.139,352.04 316.942,360.714 316.793,369.088 C316.494,383.892 315.148,388.079 306.175,403.033 C302.586,409.015 302.586,409.763 304.082,418.735 C305.129,423.969 306.325,430.399 307.073,432.941 C308.718,439.67 303.783,455.222 297.951,461.204 C295.558,463.746 293.614,466.438 293.913,467.335 C294.212,468.083 292.418,470.775 289.876,473.167 C287.483,475.56 283.595,480.644 281.501,484.383 L277.464,491.261 L266.547,492.159 C260.416,492.607 250.397,494.252 244.266,496.047 C228.415,500.234 209.274,501.281 201.647,498.29 z M326.513,310.02 C328.008,308.225 328.008,306.88 326.662,303.889 C324.718,299.403 321.428,299.851 320.83,304.636 C319.783,311.515 322.924,314.357 326.513,310.02 z M330.7,289.383 C330.999,287.888 330.251,286.841 328.905,286.841 C327.41,286.841 326.513,288.187 326.513,289.982 C326.513,293.571 329.952,293.122 330.7,289.383 z M321.129,269.046 C322.176,265.308 322.027,263.663 320.232,261.868 C317.092,258.877 314.55,260.522 314.55,265.906 C314.55,275.626 318.737,277.57 321.129,269.046 z M320.531,232.409 C320.531,228.072 316.942,223.287 314.849,224.633 C312.456,225.979 312.606,234.951 314.849,237.194 C317.241,239.587 320.531,236.746 320.531,232.409 z M333.99,144.929 C334.737,143.284 335.485,140.293 335.485,138.199 C335.485,133.713 332.195,133.115 324.419,136.405 C317.092,139.545 316.793,141.34 323.073,144.629 C330.251,148.368 332.046,148.517 333.99,144.929 z" fill="#000000"/>
  </g>
</svg>
