<?xml version="1.0" encoding="UTF-8"?>
<!DOCTYPE svg PUBLIC "-//W3C//DTD SVG 1.1//EN" "http://www.w3.org/Graphics/SVG/1.1/DTD/svg11.dtd">
<svg version="1.1" xmlns="http://www.w3.org/2000/svg" xmlns:xlink="http://www.w3.org/1999/xlink" x="0" y="0" width="500" height="500" viewBox="0, 0, 500, 500">
  <g id="Layer_1">
    <path d="M193.243,498.42 C191.596,497.185 188.851,496.911 185.283,497.46 C182.264,497.871 174.854,498.42 168.815,498.695 C160.17,498.969 157.425,498.557 156.19,496.911 C155.367,495.676 155.092,493.892 155.778,492.656 C158.248,487.716 152.485,480.992 146.584,482.09 C144.525,482.501 142.055,482.501 141.094,482.09 C138.487,481.129 135.742,475.228 134.507,468.504 C133.547,462.191 125.038,449.428 115.158,439.136 C105.551,428.981 104.042,421.433 109.668,409.494 C111.864,404.691 114.609,401.534 118.177,399.339 C126.273,394.535 130.939,389.732 134.507,382.871 C138.487,375.186 141.094,372.853 153.445,365.717 C165.11,359.13 167.992,354.875 163.875,350.484 C157.288,343.485 147.544,316.862 147.544,305.746 C147.544,293.807 145.211,288.592 136.84,282.28 C132.861,279.26 128.744,275.144 127.646,273.085 C126.685,271.164 123.391,268.419 120.51,267.184 C117.628,266.086 106.1,261.009 94.71,256.068 C83.457,251.128 70.694,246.05 66.577,244.815 C62.46,243.443 56.559,240.424 53.54,237.954 C50.521,235.621 45.444,232.327 42.425,230.818 C35.151,227.112 28.152,221.211 28.152,218.741 C28.152,215.859 33.504,216.408 45.581,220.251 C51.482,222.172 59.167,223.681 62.735,223.681 C67.538,223.681 70.145,224.505 73.302,227.25 C76.87,230.131 111.59,245.501 122.156,248.795 C127.783,250.579 129.018,247.972 129.292,233.013 C130.116,187.315 131.076,173.317 133.684,162.613 C135.331,156.575 136.566,150.4 136.566,148.89 C136.566,142.989 140.271,140.107 149.054,139.146 C153.583,138.598 158.66,137.088 160.307,135.716 C164.561,132.559 178.833,132.148 194.203,134.892 C204.907,136.676 206.417,136.676 212.043,134.618 C217.258,132.697 218.768,131.05 222.748,124.188 C230.57,110.328 237.706,101.957 251.155,91.115 C258.428,85.352 264.466,79.313 264.878,77.667 C265.152,76.157 265.701,73.55 265.838,72.04 C266.25,69.982 267.897,69.021 273.386,67.923 C279.424,66.825 281.895,65.316 288.345,59.003 C292.461,54.886 297.265,48.985 298.774,45.966 C300.284,42.947 302.891,39.104 304.401,37.32 C306.734,34.85 307.42,31.694 308.243,20.852 C309.478,1.503 312.497,-3.849 318.261,2.601 C321.555,6.306 323.339,22.499 321.966,37.457 C321.006,47.064 320.182,50.357 317.163,54.612 C315.242,57.493 313.595,61.473 313.595,63.532 C313.595,66.413 312.086,68.06 306.322,71.766 C298.225,76.98 289.58,86.998 289.58,91.115 C289.58,93.174 287.658,94.546 282.444,96.605 C276.817,98.937 272.975,102.094 264.192,111.563 C258.153,118.287 253.213,124.6 253.213,125.698 C253.213,126.658 254.311,128.168 255.82,128.854 C262.545,132.559 275.307,129.815 281.346,123.365 C288.482,115.954 305.087,104.29 309.753,103.466 C312.223,102.917 316.477,100.584 319.085,98.114 C321.692,95.644 327.318,91.527 331.435,88.92 C335.552,86.175 340.904,82.058 343.1,79.588 C345.433,77.255 349.687,73.961 352.706,72.452 C355.725,70.942 360.117,67.923 362.313,65.865 C368.488,59.964 392.092,50.906 401.012,50.769 C405.678,50.769 407.325,51.455 409.246,54.2 C416.382,64.355 414.461,63.943 428.184,58.454 C442.593,52.827 455.219,51.318 456.042,55.16 C456.317,56.944 452.611,60.101 442.456,66.688 C414.735,84.528 401.973,101.408 393.19,131.736 C385.23,159.182 375.624,178.395 362.724,192.667 C355.863,200.215 352.157,203.097 344.198,206.665 C338.709,209.135 331.298,211.605 327.593,212.154 C317.712,213.389 317.3,213.938 319.222,221.074 C320.869,227.112 319.908,232.876 315.242,246.325 C314.419,248.658 313.184,253.598 312.36,257.303 C311.674,261.146 310.027,268.145 308.929,273.085 C307.694,278.025 306.185,287.632 305.499,294.493 C304.675,303.413 303.303,308.628 301.107,312.471 C297.265,319.332 298.225,321.94 305.636,323.861 C308.929,324.822 313.321,327.292 315.379,329.35 C319.908,334.016 328.965,337.31 343.375,339.505 C353.393,341.015 353.804,341.152 355.314,345.681 C356.549,349.523 358.47,351.307 365.743,354.875 C370.547,357.483 377.408,359.816 380.839,360.365 C384.27,360.776 388.524,362.149 390.445,363.384 C392.366,364.619 396.346,365.991 399.365,366.403 C404.031,366.952 405.129,367.912 407.188,372.029 C408.972,375.872 411.305,377.656 417.617,380.538 C422.146,382.596 427.772,384.243 430.105,384.243 C433.536,384.243 437.104,386.302 445.75,393.575 C451.925,398.79 459.061,404.416 461.531,406.063 C469.216,411.415 472.647,421.57 467.432,423.354 C464.139,424.315 449.043,421.982 441.221,419.237 C438.065,418.139 433.262,417.179 430.791,417.179 C427.086,417.179 425.851,416.355 424.204,413.199 C421.597,408.259 419.127,407.298 411.03,408.396 L404.443,409.219 L399.365,402.358 C391.68,391.654 379.878,386.988 372.879,391.928 C369.037,394.535 366.841,393.163 362.999,385.478 C359.294,378.479 354.079,374.637 348.04,374.637 C344.198,374.637 342.002,373.676 339.12,370.657 C334.043,365.305 319.908,358.992 315.516,360.09 C313.732,360.502 310.851,361.325 309.067,361.737 C306.459,362.423 304.95,361.188 300.146,355.013 C291.226,343.073 274.896,336.761 267.485,342.387 C266.113,343.485 263.917,344.446 262.682,344.446 C261.447,344.446 258.84,345.681 256.918,347.19 C254.997,348.7 251.017,350.896 247.998,351.856 C244.979,352.954 237.431,356.797 231.119,360.365 C224.806,363.933 217.807,367.775 215.611,368.873 C212.043,370.657 211.769,371.343 212.455,376.833 C213.004,381.636 212.592,383.145 210.397,384.518 C206.691,386.988 203.947,395.908 203.81,405.24 C203.81,409.631 202.986,415.12 201.888,417.59 C200.653,420.747 200.379,424.452 201.065,429.53 C201.614,433.647 201.888,443.527 201.614,451.35 C201.202,463.426 201.477,466.308 203.672,469.876 C205.045,472.209 206.554,475.777 207.103,477.835 C207.789,480.717 209.162,481.952 213.416,483.05 C219.728,484.697 226.865,490.598 227.413,494.715 C227.825,497.048 227.139,497.46 223.022,497.048 C220.277,496.773 216.298,497.322 214.102,498.283 C208.338,500.479 196.125,500.616 193.243,498.42 z M172.109,451.624 C174.167,438.861 174.03,436.117 170.874,423.354 C167.169,407.984 164.973,406.749 149.466,411.827 C139.585,414.983 137.389,417.59 139.31,423.629 C139.997,425.687 141.232,430.216 142.055,433.509 C143.153,437.626 145.623,441.606 150.015,445.998 C156.464,452.31 167.717,461.093 169.501,461.093 C170.05,461.093 171.148,456.839 172.109,451.624 z M268.858,303.276 C274.21,301.355 275.994,296.415 273.249,291.2 C269.818,284.475 268.446,272.673 270.504,266.635 C273.523,257.99 273.112,256.617 267.348,256.617 C264.466,256.617 260.349,255.657 258.153,254.559 C252.252,251.402 250.468,251.951 244.019,259.087 C234.55,269.105 233.314,274.732 238.118,284.613 C242.372,293.258 249.233,300.394 255.272,302.59 C261.859,304.923 264.329,305.06 268.858,303.276 z M171.834,213.664 C179.794,200.078 187.342,183.472 187.342,180.179 C187.342,177.023 182.264,175.65 173.618,176.611 C162.64,177.709 161.679,179.218 160.581,197.607 C160.17,205.567 159.072,214.899 158.248,218.467 C157.013,223.407 157.013,225.328 158.386,226.975 C161.268,230.406 163.463,228.21 171.834,213.664 z M333.631,179.493 C338.846,175.513 339.807,173.866 338.297,172.357 C336.65,170.71 327.867,173.592 324.299,176.748 C317.712,182.375 326.495,184.982 333.631,179.493 z M356.823,156.987 C359.431,155.889 362.999,149.439 362.999,145.596 C362.999,144.087 364.508,140.519 366.43,137.774 C373.154,127.893 368.763,125.286 361.352,134.618 C358.882,137.774 354.216,143.126 351.06,146.42 C343.924,153.83 343.649,156.026 349.687,156.849 C352.02,157.124 354.216,157.536 354.353,157.536 C354.49,157.673 355.588,157.398 356.823,156.987 z" fill="#000000"/>
  </g>
</svg>
