<?xml version="1.0" encoding="UTF-8"?>
<!DOCTYPE svg PUBLIC "-//W3C//DTD SVG 1.1//EN" "http://www.w3.org/Graphics/SVG/1.1/DTD/svg11.dtd">
<svg version="1.1" xmlns="http://www.w3.org/2000/svg" xmlns:xlink="http://www.w3.org/1999/xlink" x="0" y="0" width="500" height="500" viewBox="0, 0, 500, 500">
  <g id="layer101">
    <path d="M145.814,497.89 C139.883,490.32 138.01,475.883 142.302,470.498 C146.282,465.504 147.375,462.382 148.311,452.861 C148.857,447.711 149.716,441.546 150.184,439.204 C150.808,436.473 150.886,432.649 150.574,428.669 C150.262,425.235 150.028,418.212 150.106,413.061 C150.184,402.994 149.247,398.234 145.736,391.288 C143.473,386.762 143.629,383.094 146.36,380.207 C148.857,377.553 147.609,377.007 144.721,379.426 C142.848,380.987 141.912,381.299 140.819,380.675 C138.79,379.582 138.478,378.178 138.478,370.998 C138.478,365.535 138.79,363.974 140.819,359.994 C143.629,354.298 143.707,351.566 141.209,347.508 C138.712,343.528 138.712,340.094 141.209,334.007 C142.77,330.105 143.004,328.857 142.302,327.062 C140.741,322.848 139.337,315.434 138.478,306.538 C138.01,301.621 137.073,296.002 136.449,294.207 C135.2,290.305 134.966,285.467 135.747,279.224 C136.059,276.492 135.825,271.81 134.966,266.347 C134.108,260.807 133.718,254.485 133.952,248.398 C134.186,239.034 134.186,239.034 132.313,238.8 C131.298,238.643 127.865,239.814 124.587,241.453 C119.905,243.716 117.251,245.823 111.555,251.676 C104.063,259.324 101.8,260.338 101.8,255.89 C101.878,252.769 104.609,241.063 106.326,236.614 C107.184,234.507 108.121,230.996 108.433,228.811 C109.135,224.44 110.774,219.914 111.789,219.914 C112.179,219.914 113.662,218.041 115.066,215.856 C116.471,213.593 118.422,210.471 119.437,208.91 C120.919,206.725 121.309,205.165 121.309,201.107 C121.309,194.707 122.636,192.6 126.616,192.6 C132.859,192.522 139.493,188.464 142.77,182.923 C143.785,181.129 145.658,178.709 146.828,177.617 C152.993,171.764 163.529,171.686 166.572,177.461 C168.601,181.207 176.015,184.796 181.868,184.796 C186.082,184.796 190.062,182.299 192.949,177.851 C194.51,175.51 194.744,174.495 194.354,171.374 C194.042,169.267 192.949,166.301 191.935,164.818 C190.842,163.258 189.984,161.072 189.984,160.058 C189.984,157.795 185.614,148.976 184.287,148.508 C179.527,147.103 179.137,147.181 178.668,150.225 C178.356,151.864 177.342,154.985 176.249,157.092 C175.235,159.278 174.376,161.541 174.376,162.243 C174.376,163.96 172.035,166.535 169.694,167.238 C165.792,168.486 157.754,168.252 153.306,166.691 C150.964,165.911 147.765,165.052 146.282,164.818 C144.799,164.662 143.395,164.194 143.16,163.882 C142.458,162.945 139.805,163.023 135.357,164.116 C129.582,165.599 127.865,165.052 127.162,161.697 C126.928,160.214 126.382,159.199 125.914,159.434 C125.524,159.746 125.211,159.59 125.211,159.121 C125.211,158.731 124.041,158.029 122.714,157.561 C119.749,156.546 115.847,153.425 115.847,152.098 C115.847,151.552 115.535,151.396 115.066,151.63 C114.676,151.864 114.286,151.786 114.286,151.318 C114.286,150.927 113.584,150.381 112.725,150.069 C110.93,149.523 105.702,144.606 105.702,143.436 C105.702,143.045 105.467,142.655 105.155,142.655 C104.765,142.655 103.829,141.641 102.97,140.392 C102.19,139.143 101.175,138.285 100.863,138.441 C100.551,138.675 100.239,138.129 100.239,137.27 C100.239,136.49 99.849,135.632 99.458,135.476 C98.21,135.085 90.796,107.616 90.796,103.245 C90.718,98.407 91.342,93.022 92.279,89.979 C93.371,86.389 96.571,80.224 97.351,80.224 C97.664,80.224 97.742,79.834 97.507,79.443 C97.273,78.975 97.429,78.663 97.898,78.663 C98.366,78.663 98.522,78.351 98.288,77.883 C98.054,77.492 98.366,77.102 98.99,77.102 C99.693,77.102 100.239,76.79 100.239,76.478 C100.239,75.697 106.326,72.654 108.433,72.342 C111.008,72.03 115.066,73.278 115.066,74.371 C115.066,74.917 115.3,75.932 115.535,76.634 C115.847,77.492 115.613,77.883 114.676,77.883 C113.974,77.883 113.662,78.195 113.896,78.663 C114.13,79.131 113.818,79.443 113.115,79.443 C112.491,79.443 111.711,79.99 111.476,80.614 C111.164,81.238 110.462,81.785 109.838,81.785 C109.213,81.785 108.979,82.175 109.213,82.565 C109.447,82.955 109.291,83.345 108.823,83.345 C108.355,83.345 108.199,83.736 108.433,84.126 C108.667,84.594 108.589,84.906 108.121,84.906 C106.794,84.906 104.999,89.198 105.467,91.227 C105.702,92.242 106.404,93.49 107.028,94.037 C107.653,94.505 108.277,96.612 108.355,99.109 C108.667,103.714 110.306,109.879 111.242,109.879 C111.633,109.879 112.257,111.361 112.725,113.234 C113.193,115.029 113.818,117.136 114.052,117.995 C114.286,118.931 114.13,119.243 113.584,118.931 C112.959,118.541 112.959,118.931 113.506,120.414 C114.364,122.755 117.798,126.423 118.5,125.721 C118.734,125.408 118.968,125.643 118.968,126.189 C118.968,126.735 119.358,126.891 119.749,126.657 C120.217,126.423 120.529,126.735 120.529,127.359 C120.529,128.062 120.763,128.53 121.153,128.452 C121.466,128.374 122.402,128.686 123.338,129.154 C124.587,129.935 125.914,129.779 129.582,128.608 C132.079,127.828 133.874,127.125 133.406,127.125 C133.015,127.047 133.093,126.735 133.64,126.345 C135.044,125.487 135.435,121.507 134.264,120.336 C133.718,119.79 131.142,118.775 128.489,118.073 C125.055,117.136 123.651,116.356 123.651,115.419 C123.651,113.39 124.743,112.22 127.631,111.361 C131.377,110.191 137.776,109.879 137.151,110.893 C136.839,111.361 137.151,111.518 137.932,111.205 C138.712,110.971 139.258,110.971 139.258,111.361 C139.258,111.752 140.351,112.454 141.6,113 C142.926,113.547 143.941,114.483 143.941,115.107 C143.941,115.732 144.253,116.044 144.643,115.81 C145.033,115.497 145.58,116.356 145.892,117.683 C146.204,119.009 146.672,119.868 147.062,119.634 C147.375,119.399 147.921,120.18 148.155,121.194 C148.467,122.287 149.013,122.989 149.404,122.755 C149.872,122.521 150.184,122.755 150.184,123.458 C150.184,124.082 150.418,125.174 150.73,125.955 C150.964,126.735 150.886,127.125 150.496,126.891 C150.106,126.579 149.794,128.53 149.716,131.183 C149.638,134.773 149.091,137.114 147.531,140.236 C145.736,143.748 145.502,144.762 146.204,146.401 C146.828,147.728 147.531,148.196 148.623,147.884 C149.482,147.65 150.028,147.728 149.794,148.118 C149.404,148.82 156.115,148.586 158.534,147.806 C159.939,147.338 161.031,145.387 161.578,142.265 C161.89,140.548 163.841,136.412 164.309,136.412 C164.621,136.412 165.089,135.554 165.324,134.461 C166.728,128.842 176.093,122.755 184.599,121.819 C190.296,121.272 197.32,117.839 197.632,115.576 C197.788,114.483 196.851,113.078 194.51,111.049 C190.374,107.459 187.097,105.977 184.443,106.523 C182.024,106.991 181.088,105.821 181.712,103.323 C182.336,100.982 187.175,98.953 192.325,98.953 C198.49,98.953 197.554,97.627 189.984,95.91 C186.082,95.051 180.541,93.022 177.732,91.539 C174.922,90.057 171.411,88.808 170.006,88.808 C168.523,88.808 164.387,90.369 159.939,92.632 C155.725,94.739 151.823,96.3 151.277,96.066 C149.013,95.207 150.34,92.71 155.803,87.637 C160.017,83.579 163.138,81.472 168.679,78.897 C174.844,76.01 176.171,75.073 177.264,72.732 C167.431,64.538 165.48,64.538 162.202,65.24 C157.598,66.177 155.647,65.865 155.647,64.148 C155.647,62.353 158.924,60.012 163.217,58.763 C166.416,57.826 167.431,57.202 167.197,56.188 C166.806,54.081 161.968,52.208 155.647,51.661 C149.95,51.271 145.814,49.632 146.672,48.228 C147.531,46.823 154.632,45.106 159.861,45.106 C163.685,45.106 166.494,45.652 168.835,46.667 C173.049,48.618 175.157,48.696 175.157,46.901 C175.157,46.121 174.454,42.687 173.596,39.253 C171.489,30.825 167.275,22.163 164.465,20.446 C157.91,16.232 152.993,10.769 154.788,9.676 C155.959,8.896 172.659,20.055 176.015,23.879 C177.81,25.908 180.463,30.201 181.946,33.4 C187.253,45.106 189.516,52.13 191.155,52.13 C192.559,52.13 190.92,42.921 191.155,35.741 C191.467,25.128 190.062,20.914 186.004,15.061 C181.244,8.194 178.746,2.965 179.839,1.872 C180.541,1.248 181.244,1.716 182.804,3.745 C183.975,5.228 186.082,7.569 187.487,8.818 C188.891,10.145 202.314,31.215 205.202,34.181 C220.341,1.092 213.786,9.832 211.367,3.745 C210.664,1.95 210.274,0.312 210.586,0.077 C211.367,-0.703 216.595,4.604 217.766,7.413 C218.39,8.818 218.859,11.861 218.859,14.203 C218.859,16.544 219.249,18.729 219.717,18.963 C220.185,19.275 222.995,17.09 226.116,14.203 C230.642,9.832 231.735,9.13 231.969,10.301 C232.125,11.159 230.486,14.359 227.911,18.105 C225.102,22.163 223.151,26.065 222.37,29.108 C220.888,34.883 228.613,27.937 230.096,29.888 C231.111,31.293 231.267,31.215 235.325,29.264 C239.773,27.001 242.973,26.689 246.875,28.015 C250.542,29.342 249.762,31.215 245.002,32.386 C239.071,33.868 236.417,38.395 239.773,41.438 C241.022,42.609 241.49,42.609 245.314,41.438 C250.074,40.112 253.898,40.736 257.254,43.545 C258.815,44.872 258.893,45.184 257.878,45.886 C257.254,46.277 254.913,46.667 252.728,46.667 C246.719,46.667 245.938,48.228 248.201,55.329 C249.372,58.841 249.372,59.465 248.279,62.509 C247.577,64.304 246.562,68.05 246.016,70.703 L245.08,75.697 L247.499,77.727 C250.464,80.302 251.635,82.487 251.635,85.452 C251.635,88.418 250.308,89.588 247.811,89.12 C246.25,88.808 245.158,89.276 243.363,90.915 C242.036,92.086 239.851,93.725 238.524,94.427 C235.559,95.988 235.325,97.705 237.822,99.812 C239.461,101.294 239.461,101.372 238.056,102.309 C237.276,102.855 235.559,103.948 234.154,104.806 C231.033,106.913 228.145,111.908 228.379,114.951 C228.613,116.902 229.004,117.37 230.799,117.527 C232.047,117.683 234.779,117.214 236.886,116.434 C240.71,115.029 240.71,115.029 242.66,116.902 C244.377,118.541 245.08,118.619 249.684,118.229 C254.444,117.761 254.757,117.839 254.757,119.321 C254.757,120.18 254.444,121.507 254.054,122.287 C252.65,124.862 254.21,125.408 264.98,125.955 C276.998,126.579 279.183,125.955 281.68,121.35 C283.085,118.619 283.085,118.619 281.056,112.766 C279.885,109.567 278.949,106.367 278.949,105.665 C278.949,102.777 286.206,105.274 291.045,109.801 C295.493,114.015 303.765,119.946 305.95,120.492 C308.838,121.194 309.618,120.18 309.072,116.434 C308.526,112.298 309.072,110.659 310.945,110.659 C313.676,110.659 316.876,114.483 322.182,123.77 C327.723,133.759 329.674,136.1 331.625,135.319 C334.981,134.071 337.946,137.505 343.955,149.367 C347.155,155.61 348.482,157.249 357.3,165.599 C370.489,178.163 370.801,178.865 370.957,199.234 C371.035,213.671 371.113,214.373 374.157,227.718 C375.952,235.21 377.668,242.78 377.981,244.496 C378.995,249.725 381.961,256.046 384.458,258.7 C386.721,261.041 386.799,261.197 385.55,262.914 C383.912,265.255 383.99,268.298 385.863,279.614 C389.999,303.962 394.759,324.331 399.285,336.583 C401.314,342.045 402.719,347.352 403.109,351.02 C403.655,356.639 405.372,363.35 408.026,370.14 C409.508,373.964 409.586,377.553 408.338,377.553 C406.153,377.553 405.45,376.617 399.675,365.847 C397.178,361.321 391.715,346.182 386.643,329.949 C380.712,311.142 376.654,299.748 374.001,294.441 C372.752,291.866 370.411,286.247 368.772,281.955 C364.48,270.64 362.061,266.191 359.407,264.787 C356.754,263.46 356.052,261.665 355.817,256.436 C355.739,254.173 355.193,252.144 354.335,251.208 C353.164,249.959 353.086,249.413 353.866,247.93 C354.725,246.447 354.491,245.979 351.993,243.638 C349.106,240.985 348.638,239.892 349.964,239.034 C351.135,238.331 350.901,235.834 349.652,234.82 C349.028,234.273 348.248,232.79 348.013,231.542 C347.701,230.293 346.531,228.654 345.438,227.952 C344.268,227.172 341.458,224.909 339.195,222.88 C334.435,218.665 326.553,214.529 322.026,213.905 C319.997,213.593 317.656,213.905 315.627,214.763 C308.994,217.417 307.589,215.622 311.725,209.925 C314.222,206.491 314.613,204.774 313.208,203.838 C312.74,203.604 311.647,201.809 310.789,199.936 C309.54,196.97 308.526,196.112 303.687,193.615 C291.903,187.762 285.114,186.045 283.631,188.776 C283.319,189.401 282.773,191.118 282.461,192.6 C282.148,194.083 280.353,198.843 278.559,203.214 C276.686,207.506 274.501,213.281 273.642,216.09 C272.784,218.821 271.301,222.567 270.442,224.362 C268.335,228.576 268.335,229.279 271.067,234.585 C272.315,237.083 274.422,242.545 275.827,246.838 C277.154,251.13 279.027,256.592 279.885,258.934 C280.744,261.275 281.758,265.255 282.07,267.752 C282.695,272.044 283.007,272.591 289.796,279.926 C296.82,287.574 298.224,290.071 295.571,290.227 C294.791,290.305 293.23,290.383 292.059,290.462 C290.811,290.54 289.484,291.008 289.016,291.476 C287.767,292.725 289.25,296.627 292.215,300.06 C295.103,303.338 295.025,305.055 291.903,305.835 C287.143,307.162 287.143,310.596 291.981,317.697 C295.571,323.004 295.571,323.082 294.322,325.267 C292.45,328.389 292.606,329.169 296.117,333.929 C297.834,336.271 300.019,339.392 301.112,340.875 C302.126,342.358 304.78,345.557 306.965,347.898 C309.15,350.162 311.881,353.985 312.896,356.171 C313.988,358.434 315.237,360.541 315.627,360.775 C317.968,362.258 320.7,370.764 319.841,374.12 C319.139,376.773 318.202,376.461 313.286,372.481 C308.37,368.423 304.311,366.706 302.907,368.111 C302.361,368.657 301.97,371.622 301.97,375.368 C301.97,379.27 301.658,381.845 301.112,382.002 C300.644,382.158 298.771,380.363 296.976,378.022 C294.869,375.29 292.606,373.339 290.655,372.559 C286.441,370.92 285.27,368.735 282.695,357.887 C280.275,347.82 279.261,345.245 276.764,342.904 C274.501,340.875 273.798,341.733 273.252,347.118 C272.237,358.512 263.965,363.116 252.181,358.824 C248.201,357.341 245.704,357.029 237.978,357.029 C224.711,356.951 222.292,358.278 220.419,366.628 C219.015,373.183 219.483,379.114 221.98,386.138 C224.633,393.707 224.868,396.829 223.073,401.902 C221.902,405.335 221.98,405.647 223.853,410.174 C225.414,413.92 225.882,416.573 226.272,424.065 L226.74,433.351 L233.14,439.36 C236.651,442.638 239.929,445.369 240.319,445.447 C240.788,445.447 243.597,447.711 246.562,450.52 C249.606,453.329 252.571,455.827 253.274,455.983 C255.459,456.685 257.722,470.42 255.615,470.42 C255.225,470.42 251.635,468.781 247.577,466.752 C243.597,464.645 239.305,462.616 238.134,462.07 C236.105,461.211 236.027,461.289 236.105,463.24 C236.183,464.411 235.637,466.908 235.013,468.859 C234.31,470.81 233.686,473.464 233.686,474.712 C233.686,477.444 233.062,478.536 231.111,479.238 C230.252,479.551 229.316,479.238 228.613,478.38 C225.492,474.79 222.917,471.435 222.058,469.874 C219.171,466.986 219.639,466.752 218.78,466.05 C218.156,465.582 216.127,464.957 214.176,464.645 C208.479,463.787 204.577,461.524 200.753,457.075 C197.866,453.72 197.008,451.925 196.305,448.257 C195.213,442.56 195.213,429.293 196.227,428.669 C197.398,427.967 196.227,418.056 194.588,415.324 C193.73,413.998 193.106,411.969 193.106,410.876 C193.106,409.627 191.779,407.286 189.594,404.789 C184.053,398.312 185.458,394.8 193.184,395.736 C195.837,396.049 197.164,395.893 197.788,395.112 C199.037,393.551 199.895,382.002 199.115,377.163 C198.802,375.056 198.178,369.905 197.866,365.847 C197.086,357.029 195.369,351.488 192.559,348.523 C190.999,346.962 190.53,345.479 190.374,342.826 C190.296,339.938 189.828,338.846 187.799,336.973 C183.741,333.227 186.238,330.73 195.525,329.247 C201.69,328.233 203.251,326.906 201.456,324.253 C199.817,321.677 191.623,317.307 189.516,317.775 C188.579,318.009 186.706,320.272 184.989,323.238 C183.351,326.047 181.244,328.857 180.229,329.481 C177.732,331.12 175.157,336.817 175.157,340.641 C175.157,342.358 175.703,345.167 176.483,346.806 C178.434,351.566 178.278,360.619 176.015,365.457 C175,367.642 173.908,370.608 173.518,372.091 C173.206,373.573 172.659,375.758 172.347,376.929 C172.035,378.49 172.503,380.129 174.298,383.25 C177.342,388.557 177.342,390.82 174.298,398.624 C171.723,405.335 169.694,416.417 169.694,423.987 C169.694,428.747 172.347,439.282 174.688,443.731 C175.313,444.979 176.171,447.555 176.405,449.427 C176.795,451.691 177.888,453.798 179.839,455.905 C181.4,457.7 184.131,461.445 185.848,464.333 C188.579,468.859 189.048,470.42 189.516,475.805 C190.218,484.545 189.36,493.988 187.487,496.953 C186.394,498.904 185.614,499.373 183.897,499.138 C182.102,498.904 181.322,497.968 178.668,492.583 C173.986,483.14 173.362,482.36 169.694,481.736 C166.806,481.267 166.26,481.424 163.138,484.233 C161.266,485.872 157.832,488.681 155.413,490.476 C152.915,492.349 150.34,495.08 149.404,496.953 C148.545,498.67 147.765,500.075 147.609,499.997 C147.531,499.997 146.672,499.06 145.814,497.89 z M218.078,331.822 C218.078,330.496 215.269,330.34 214.488,331.588 C213.864,332.681 215.581,333.851 217.064,333.305 C217.61,333.071 218.078,332.447 218.078,331.822 z M241.1,174.417 C241.49,172.934 242.66,170.827 243.519,169.813 C246.719,166.379 249.45,160.058 248.904,157.483 C248.357,154.985 246.953,154.985 246.953,157.561 C246.953,159.746 243.597,165.989 240.397,169.891 C237.354,173.481 237.354,173.403 238.056,176.056 C238.759,178.553 240.163,177.773 241.1,174.417 z M314.379,173.403 C315.861,171.998 315.861,172.076 314.769,169.657 C313.286,166.535 310.008,165.599 305.95,167.159 C301.892,168.72 299.317,171.139 300.566,172.388 C301.346,173.169 307.121,174.417 311.101,174.573 C312.272,174.573 313.754,174.105 314.379,173.403 z M247.733,154.049 C247.733,152.878 246.64,151.318 246.094,151.708 C244.924,152.41 245.314,154.361 246.562,154.361 C247.187,154.361 247.733,154.205 247.733,154.049 z M261.312,135.632 C260.61,130.403 259.361,129.388 256.708,132.042 L254.679,134.071 L256.473,136.568 C257.41,137.973 258.815,139.69 259.439,140.314 C261.234,142.187 261.936,140.314 261.312,135.632 z" fill="#000000"/>
  </g>
</svg>
