<?xml version="1.0" encoding="UTF-8"?>
<!DOCTYPE svg PUBLIC "-//W3C//DTD SVG 1.1//EN" "http://www.w3.org/Graphics/SVG/1.1/DTD/svg11.dtd">
<svg version="1.1" xmlns="http://www.w3.org/2000/svg" xmlns:xlink="http://www.w3.org/1999/xlink" x="0" y="0" width="500" height="500" viewBox="0, 0, 500, 500">
  <g id="layer101">
    <path d="M328.913,474.341 C327.42,472.849 325.45,471.117 324.554,470.52 C322.345,469.028 322.345,465.803 324.673,461.445 C326.345,458.28 326.405,458.161 325.629,454.459 C324.852,450.757 324.614,450.519 320.852,447.772 C319.957,447.175 318.762,445.503 318.165,444.07 C316.912,441.145 316.792,441.085 308.672,438.816 C299,436.01 287.655,429.8 280.013,422.994 C265.922,410.396 257.981,401.559 248.607,388.066 C246.338,384.841 242.637,380.125 240.308,377.617 C237.979,375.109 235.412,372.184 234.576,371.109 C233.74,370.034 232.606,369.079 232.069,368.959 C230.576,368.78 230.218,368.243 229.979,366.094 C229.74,363.765 227.232,359.347 225.799,358.75 C223.59,357.914 214.097,357.914 212.485,358.75 C210.276,359.884 207.35,363.347 206.574,365.795 C205.917,367.646 205.559,367.944 202.156,368.84 L198.394,369.855 L195.648,368.303 C194.155,367.467 191.528,366.631 189.856,366.392 C186.93,366.034 186.751,366.153 184.423,368.422 C182.572,370.333 182.034,371.288 182.034,372.9 C182.034,375.348 183.288,377.259 185.677,378.512 C187.408,379.348 187.468,379.587 187.11,381.916 C186.871,383.289 186.453,384.901 186.154,385.438 C185.856,386.036 184.005,391.946 182.034,398.574 C178.392,411.172 177.795,413.023 176.004,417.561 C175.407,419.053 174.392,422.158 173.735,424.427 C173.078,426.755 171.705,431.054 170.69,433.98 C169.615,436.965 168.78,440.309 168.78,441.443 C168.839,445.742 169.974,454.4 170.989,458.101 C171.944,461.684 171.944,462.042 171.048,464.012 C169.854,466.46 169.377,466.221 167.108,461.564 C165.257,457.922 163.406,456.788 159.047,456.728 C157.435,456.668 155.823,456.43 155.584,456.071 C155.286,455.713 154.689,456.071 154.092,456.967 C151.763,460.31 145.972,466.52 143.942,467.833 C139.643,470.64 131.702,471.476 122.806,469.983 C119.641,469.505 117.372,469.446 113.432,469.983 C109.67,470.52 107.7,470.52 106.207,470.043 C105.073,469.684 101.55,469.207 98.445,468.968 C91.639,468.55 91.519,468.311 95.818,462.878 C98.983,458.997 100.893,457.862 114.268,452.19 C117.551,450.817 120.776,449.205 121.432,448.608 C122.089,448.071 124.298,446.459 126.388,445.085 C128.418,443.712 130.926,441.682 131.881,440.607 C132.896,439.533 134.866,438.04 136.359,437.323 C138.867,436.07 139.344,435.413 142.27,429.621 C144.001,426.099 145.912,421.919 146.509,420.247 C147.166,418.635 148.539,415.71 149.674,413.739 C150.808,411.829 152.48,408.545 153.435,406.515 C155.346,402.216 157.794,393.738 157.256,393.141 C157.017,392.961 149.136,392.782 139.762,392.782 C121.193,392.782 121.432,392.842 117.671,389.26 C115.462,387.17 113.611,381.975 114.268,379.468 C114.447,378.572 116.118,375.408 117.91,372.422 C122.388,364.899 123.104,360.123 119.522,361.496 C118.626,361.795 117.253,361.974 116.536,361.735 C114.506,361.257 114.805,359.168 117.193,356.66 C119.88,353.854 124.716,345.972 124.716,344.36 C124.716,343.644 125.134,342.748 125.612,342.33 C126.089,341.912 126.507,340.957 126.507,340.241 C126.507,337.733 127.164,336.957 132.717,332.777 C135.702,330.568 139.523,327.404 141.195,325.792 C144.598,322.448 150.271,319.045 152.36,319.045 C153.136,319.045 154.271,318.507 154.808,317.91 C155.405,317.254 156.958,316.537 158.212,316.358 C159.525,316.119 161.376,315.283 162.272,314.507 C163.227,313.731 164.66,313.074 165.436,313.074 C166.869,313.074 167.824,312.716 173.317,310.089 C176.124,308.775 177.079,309.074 178.154,311.641 C179.049,313.791 180.84,314.388 180.84,312.537 C180.84,311.94 180.064,310.447 179.049,309.193 C177.974,307.82 177.258,306.208 177.258,305.193 C177.258,303.7 177.616,303.282 179.646,302.506 C181.378,301.79 182.632,300.655 184.423,297.968 C185.736,295.998 186.811,293.908 186.811,293.252 C186.811,291.998 184.781,289.789 183.587,289.789 C183.109,289.789 181.019,287.878 178.93,285.549 C176.78,283.161 173.974,280.713 172.362,279.877 C170.81,279.101 169.257,277.907 168.899,277.25 C168.541,276.593 166.988,275.399 165.436,274.683 C158.928,271.518 155.047,267.697 152.301,261.906 C150.808,258.681 150.689,257.846 150.509,248.77 C150.33,241.068 150.151,238.978 149.435,238.381 C148.539,237.605 143.643,237.963 131.582,239.695 C125.671,240.531 123.761,239.993 120.119,236.769 C118.447,235.217 115.521,232.649 113.73,231.037 C111.76,229.366 109.372,226.44 107.939,223.992 C104.834,218.738 102.983,217.484 98.087,217.723 C94.863,217.842 94.266,217.663 92.236,216.051 C90.982,215.096 88.773,213.424 87.34,212.409 C85.907,211.394 84.175,210.08 83.459,209.424 C80.056,206.379 68.891,186.198 66.98,179.69 C65.607,174.973 59.338,163.211 56.83,160.464 C53.247,156.643 50.202,152.105 49.367,149.419 C48.829,147.448 48.053,146.493 45.605,145 C41.724,142.433 39.873,140.403 38.739,137.358 C38.022,135.447 37.186,134.492 35.276,133.477 C32.768,132.044 32.708,132.044 29.425,133.119 C26.559,134.014 26.021,134.432 25.245,136.343 C23.812,139.925 18.976,142.911 14.617,142.911 C13.125,142.911 11.274,143.149 10.378,143.508 C9.184,143.985 8.109,143.806 5.423,142.731 C2.437,141.537 1.9,141.06 1.243,138.97 C0.765,137.716 0.288,135.268 0.109,133.596 C-0.13,131.148 -0.011,130.372 0.825,129.715 C1.362,129.238 2.676,127.984 3.691,126.909 C4.706,125.894 5.84,124.999 6.199,124.999 C6.557,124.999 7.751,124.342 8.826,123.566 C12.05,121.177 16.767,120.64 19.394,122.431 C20.469,123.088 21.185,123.148 23.096,122.67 C25.902,121.894 26.499,121.297 27.335,118.132 C28.051,115.386 30.38,112.938 35.156,109.893 C39.754,106.967 40.291,106.251 39.455,103.922 C39.097,102.847 38.619,100.937 38.44,99.623 C38.082,97.295 37.127,95.086 32.231,85.115 C29.484,79.442 29.066,75.502 30.738,71.263 C31.813,68.636 33.067,67.68 35.395,67.68 C38.022,67.68 37.724,66.426 34.32,63.381 C32.47,61.769 30.977,60.038 30.977,59.56 C30.977,58.068 32.768,57.888 35.395,59.142 C36.709,59.799 38.798,60.575 39.933,60.814 C42.321,61.351 47.337,63.74 49.486,65.411 C50.859,66.486 50.979,66.486 51.695,65.531 C52.113,64.934 52.471,63.859 52.471,63.143 C52.471,61.113 55.277,58.127 57.128,58.127 C58.024,58.127 60.233,58.963 62.024,60.038 C70.622,64.874 70.801,64.934 75.996,62.307 C80.533,59.978 82.325,60.038 85.011,62.426 C86.504,63.68 88.116,64.456 90.206,64.755 C92.833,65.173 93.728,65.77 97.191,69.054 C101.371,73.114 103.699,74.547 109.67,76.577 C114.745,78.308 117.014,77.711 121.552,73.711 L125.015,70.606 L130.985,70.964 L136.956,71.322 L141.613,68.934 C144.24,67.561 146.628,66.486 146.987,66.486 C148.061,66.486 169.018,56.276 170.392,55.082 C171.048,54.545 172.541,53.649 173.676,53.172 C176.601,52.037 178.751,49.231 179.885,45.35 C180.422,43.559 181.258,41.947 181.736,41.768 C182.273,41.589 184.482,41.648 186.632,42.006 C190.214,42.484 191.17,42.365 196.304,40.812 C199.469,39.917 204.424,38.126 207.29,36.931 C212.425,34.782 212.843,34.722 220.426,34.663 C227.232,34.603 229.143,34.842 234.576,36.215 C240.905,37.887 243.831,39.379 243.831,40.872 C243.831,41.35 243.114,41.768 242.04,41.827 C233.263,42.604 218.038,49.291 215.41,53.59 C214.097,55.739 213.918,60.336 214.933,64.456 C215.59,66.904 215.53,67.322 214.276,68.994 C213.022,70.725 212.962,71.024 213.739,72.397 C214.216,73.233 215.649,74.547 216.963,75.263 C219.112,76.457 220.008,76.577 226.217,76.397 C235.532,76.099 238.756,75.502 240.726,73.83 C241.681,73.114 242.816,72.457 243.293,72.457 C244.965,72.457 247.115,69.651 247.115,67.441 C247.115,65.889 247.533,65.053 248.965,63.859 C249.98,63.023 250.996,62.307 251.175,62.307 C251.413,62.307 252.07,61.889 252.667,61.471 C253.623,60.754 253.623,60.456 252.966,59.381 C251.891,57.59 253.264,56.455 258.16,55.082 C263.235,53.709 273.027,54.067 276.49,55.799 C279.416,57.291 279.834,57.232 285.506,54.903 C288.193,53.769 292.85,52.157 295.775,51.201 C298.761,50.306 303.179,48.813 305.627,47.858 C316.374,43.738 322.822,41.589 327.718,40.514 C330.763,39.797 333.629,39.081 350.705,34.543 C365.453,30.662 388.977,26.602 399.366,26.184 C408.203,25.886 414.95,25.11 418.651,24.035 C423.189,22.721 425.339,22.9 428.563,24.871 C430.175,25.826 431.25,27.498 433.757,32.692 C435.489,36.334 437.758,40.514 438.773,42.006 C439.728,43.499 440.564,44.872 440.564,45.111 C440.564,45.35 441.877,47.738 443.549,50.425 C445.161,53.112 446.534,55.56 446.534,55.858 C446.534,56.694 457.759,76.099 462.536,83.503 C464.864,87.145 467.79,91.802 468.984,93.951 C471.193,97.772 477.224,107.027 480.448,111.565 C481.403,112.878 483.015,115.744 484.09,117.834 C485.165,119.983 486.538,122.252 487.135,122.909 C487.732,123.566 489.344,126.133 490.777,128.581 C492.15,131.029 494.3,134.253 495.494,135.746 C499.673,140.761 500.27,142.194 499.912,145.896 C499.733,147.687 498.778,151.449 497.882,154.255 C496.927,157.061 495.613,161.897 494.897,165.002 C494.18,168.107 492.867,173.122 491.971,176.048 C491.016,179.033 489.702,183.571 488.986,186.198 C488.269,188.825 487.374,191.81 487.015,192.765 C486.717,193.78 485.403,198.438 484.15,203.214 C482.896,207.991 480.328,216.29 478.477,221.723 C474.656,232.709 473.999,234.978 472.149,243.516 C471.432,246.8 469.999,252.472 468.865,256.054 C467.79,259.696 466.476,264.772 465.939,267.399 C464.864,272.892 463.73,276.892 462.118,281.131 C461.461,282.803 460.625,285.43 460.207,287.102 C459.789,288.714 457.938,292.296 456.028,295.162 C449.52,304.954 442.534,315.761 441.638,317.552 C441.161,318.567 440.026,320.657 439.191,322.269 C438.295,323.881 437.578,325.553 437.578,325.971 C437.578,326.389 436.743,327.404 435.728,328.12 C434.593,328.956 432.981,331.404 431.548,334.389 C430.235,337.076 428.802,339.584 428.324,339.942 C427.846,340.36 427.189,341.674 426.831,342.927 C426.115,345.554 422.652,348.659 419.547,349.495 C417.517,350.032 406.889,351.585 401.396,352.122 C397.993,352.421 395.963,351.525 396.56,349.913 C396.739,349.376 400.142,347.346 404.083,345.316 C412.502,341.017 414.591,339.226 415.069,335.822 C415.368,333.374 414.83,327.643 413.696,321.493 C412.741,316.119 412.92,314.447 415.248,310.328 C417.577,306.148 417.756,303.939 415.666,303.641 C413.517,303.342 412.92,301.969 412.382,295.64 C412.143,292.356 411.069,286.146 409.994,281.848 L408.143,274.086 L409.695,267.458 C410.591,263.816 411.308,260.413 411.308,259.876 C411.308,259.338 409.994,257.726 408.322,256.234 C405.815,253.905 405.337,253.188 405.337,251.338 C405.337,250.143 405.098,249.188 404.8,249.188 C403.785,249.188 397.694,253.188 394.351,256.054 C390.768,259.099 387.425,264.055 387.425,266.324 C387.425,267.339 388.321,268.175 391.186,269.727 C393.873,271.28 395.246,272.414 395.963,273.966 C396.5,275.16 398.172,277.907 399.605,280.116 C405.874,289.669 406.412,297.849 400.978,300.834 C399.068,301.909 398.709,302.446 398.112,305.312 C397.277,309.671 395.963,312.656 395.127,312.119 C394.709,311.88 394.59,310.686 394.829,308.835 C395.306,305.491 393.634,296.237 391.485,289.49 C390.231,285.729 389.933,285.311 388.44,285.131 C386.231,284.893 384.081,286.326 383.604,288.415 C383.365,289.311 382.529,291.102 381.693,292.356 C380.439,294.267 380.021,294.505 379.305,293.908 C378.827,293.55 378.29,292.237 378.111,290.983 C377.573,287.759 377.275,287.46 372.737,285.788 C359.423,280.952 359.303,280.892 355.183,281.907 C352.019,282.684 350.705,282.743 347.242,282.146 C342.585,281.31 341.749,281.609 341.152,284.475 C340.854,285.788 341.272,287.4 342.944,290.983 C346.645,298.864 344.496,299.461 337.51,292.535 C332.973,287.938 330.107,283.042 330.107,279.818 C330.107,277.489 331.42,274.563 332.734,274.086 C333.808,273.668 336.674,269.25 336.674,268.055 C336.674,267.578 335.361,266.025 333.808,264.592 C332.196,263.219 330.345,260.95 329.569,259.637 C327.718,256.293 324.972,254.562 321.987,254.741 C319.718,254.86 319.658,254.801 319.479,252.771 C319.359,251.636 319.061,250.442 318.822,250.203 C318.524,249.964 316.613,250.024 314.523,250.442 C311.478,250.979 309.568,250.92 304.911,250.263 C301.686,249.785 298.82,249.606 298.402,249.785 C297.447,250.382 298.522,252.173 302.88,257.308 C310.642,266.324 311.598,267.697 314.284,272.832 C315.777,275.758 317.927,279.638 319.061,281.43 C323.121,288.117 331.181,307.581 335.003,320.239 C336.674,325.732 336.913,327.284 336.854,332.777 C336.854,337.076 336.376,340.718 335.48,344.301 C334.406,348.779 334.286,350.032 334.823,352.182 C335.839,356.242 333.808,359.645 330.286,359.645 C328.733,359.645 326.226,356.6 325.629,353.973 C325.39,353.018 324.494,350.032 323.718,347.405 C322.464,343.405 321.628,342.032 318.822,339.046 C316.971,337.016 313.329,332.897 310.702,329.852 C308.075,326.807 304.194,322.508 302.045,320.299 C299.895,318.149 296.85,314.626 295.178,312.477 C292.014,308.298 284.909,299.7 280.55,294.744 C279.058,293.072 276.729,290.207 275.296,288.356 C273.505,285.967 272.311,285.012 271.355,285.012 C269.684,285.012 269.146,284.355 267.833,280.773 C266.698,277.788 263.116,273.907 262.101,274.504 C261.683,274.802 261.444,277.131 261.444,280.534 C261.444,284.773 261.205,286.326 260.549,287.042 C259.175,288.356 258.041,287.639 257.026,284.833 C256.548,283.46 255.832,281.251 255.354,279.937 C254.041,276.175 252.488,276.414 250.458,280.773 C249.383,282.922 248.846,284.833 249.085,285.669 C249.204,286.445 249.861,289.251 250.398,291.819 C252.011,299.103 253.205,301.491 255.772,302.327 C257.384,302.864 258.399,303.82 259.713,305.909 C260.728,307.521 262.161,309.014 263.116,309.372 C264.012,309.671 266.101,310.447 267.713,310.984 C271.415,312.298 278.759,316.239 281.147,318.269 C283.715,320.418 283.476,322.03 280.252,323.941 C277.923,325.374 277.565,325.851 277.565,327.583 C277.565,328.837 278.043,330.031 278.759,330.688 C279.416,331.285 279.953,332.3 279.953,332.897 C279.953,336.778 283.774,340.539 287.775,340.539 C288.909,340.539 290.342,340.897 290.999,341.315 C292.312,342.33 292.014,344.659 289.805,349.256 C288.073,352.898 287.237,360.183 288.252,362.75 C288.67,363.884 289.984,364.959 292.372,366.153 C295.596,367.765 300.253,372.064 300.253,373.378 C300.253,374.452 302.821,375.348 305.866,375.229 C309.806,375.169 311.239,376.184 312.135,379.707 C312.613,381.498 313.628,383.229 315.061,384.662 C316.255,385.916 318.165,388.066 319.24,389.558 C320.315,390.991 323.121,394.753 325.39,397.857 C327.718,400.962 331.122,405.5 332.973,407.888 C334.823,410.336 336.555,412.784 336.794,413.441 C337.033,414.038 337.749,414.874 338.466,415.292 C339.122,415.71 339.66,416.366 339.66,416.665 C339.66,417.023 341.093,418.755 342.884,420.486 L346.108,423.651 L353.153,424.188 C357.094,424.487 362.408,425.084 365.035,425.621 C367.662,426.158 373.573,426.934 378.17,427.412 C382.768,427.89 388.559,428.845 391.007,429.442 C393.814,430.218 395.664,430.457 396.082,430.099 C396.5,429.741 397.097,428.367 397.515,426.994 C398.53,423.531 406.949,406.515 408.143,405.56 C411.069,403.112 411.606,414.993 408.919,422.934 C407.964,425.86 407.546,428.965 407.247,435.89 C406.889,443.772 406.65,445.205 405.576,446.638 C403.725,449.086 401.874,449.862 398.769,449.504 C397.277,449.384 393.694,448.966 390.709,448.668 C386.111,448.19 375.902,446.876 369.812,445.921 C368.856,445.802 365.154,445.563 361.632,445.444 L355.243,445.145 L356.975,448.548 C358.766,452.011 361.572,454.698 364.139,455.355 C365.214,455.594 366.05,456.609 367.005,458.698 C368.976,463.057 369.334,466.639 368.02,469.505 C367.423,470.819 366.766,471.894 366.528,471.894 C366.229,471.894 364.736,470.759 363.184,469.326 C358.706,465.445 355.96,463.535 354.765,463.535 C353.631,463.594 350.407,467.714 350.407,469.147 C350.407,469.625 350.108,470.759 349.81,471.595 L349.213,473.207 L345.75,470.102 C341.869,466.58 340.555,465.923 337.271,465.923 C335.241,465.923 334.704,466.281 332.555,468.968 C329.808,472.431 329.51,474.341 331.42,475.595 C332.137,476.073 332.435,476.61 332.137,476.789 C331.838,476.969 330.405,475.894 328.913,474.341 z M301.328,412.784 C300.552,411.769 298.82,409.62 297.447,407.948 C296.014,406.336 294.462,404.306 293.924,403.47 C292.611,401.559 290.342,400.365 287.357,400.126 C283.476,399.828 284.013,401.679 289.088,406.097 C295.119,411.351 297.746,413.023 298.701,412.247 C299.238,411.829 299.716,412.068 300.492,413.083 C301.149,413.918 301.865,414.575 302.164,414.575 C302.463,414.575 302.104,413.739 301.328,412.784 z M379.544,255.338 C379.842,254.741 380.678,252.054 381.395,249.367 C382.828,244.053 382.708,243.038 380.439,237.904 C379.663,236.112 378.588,232.59 378.111,230.142 C377.573,227.634 376.917,225.126 376.618,224.589 C375.782,223.037 374.11,223.275 372.2,225.306 C371.244,226.321 370.05,227.097 369.453,227.097 C368.916,227.097 367.065,225.365 365.334,223.216 C362.468,219.514 362.169,219.275 360.079,219.454 L357.87,219.633 L357.213,216.35 L356.616,213.066 L354.109,213.245 C351.541,213.424 350.407,212.409 350.407,209.842 C350.407,208.05 349.392,207.812 348.019,209.185 C346.048,211.155 346.586,212.588 350.586,216.827 C354.348,220.828 358.945,226.201 363.124,231.396 C364.378,232.948 366.528,236.59 367.901,239.456 C369.274,242.382 370.886,245.367 371.364,246.203 C371.901,247.039 373.454,249.666 374.827,252.054 C377.335,256.353 378.588,257.249 379.544,255.338 z M316.673,210.976 C317.21,210.08 315.18,204.587 313.926,203.453 C313.031,202.677 312.553,202.617 310.821,203.274 C308.851,203.99 308.433,203.871 304.552,201.841 C300.313,199.632 298.82,199.214 298.223,200.169 C297.805,200.826 301.865,206.199 302.821,206.259 C303.239,206.259 305.985,207.453 308.911,208.886 C314.464,211.633 316.016,212.051 316.673,210.976 z M140.897,185.481 C141.195,185.183 141.494,183.989 141.553,182.854 C141.613,181.302 140.24,178.197 136.18,170.495 C133.195,164.823 129.732,157.837 128.537,154.971 C123.164,142.254 122.149,140.104 120.656,138.552 C119.223,137.059 119.044,136.402 119.044,132.581 C118.984,126.79 116.596,115.505 115.044,113.833 C112.655,111.266 110.924,111.027 104.953,112.46 C98.684,113.953 88.415,117.595 87.041,118.789 C86.504,119.267 85.788,120.7 85.37,121.954 C84.593,124.581 83.817,125.416 81.787,125.715 C80.772,125.834 79.936,126.67 79.1,128.282 C77.488,131.387 75.578,131.745 74.264,129.238 C73.369,127.506 71.756,126.193 70.443,126.193 C68.95,126.193 70.025,129.656 73.966,137.358 C79.518,148.344 81.489,150.911 85.788,152.941 C89.967,154.912 90.445,156.464 87.758,158.972 C86.743,159.927 85.907,161.061 85.907,161.539 C85.907,162.554 88.952,165.48 94.385,169.719 C96.594,171.45 100.654,175.271 103.461,178.316 L108.536,183.809 L114.685,183.63 C118.925,183.451 122.089,183.75 124.477,184.347 C126.448,184.824 128.955,185.123 130.09,184.944 C131.403,184.765 132.777,185.004 133.672,185.541 C135.284,186.496 139.941,186.437 140.897,185.481 z M246.816,178.137 C249.204,175.63 256.13,170.913 261.205,168.405 C266.519,165.718 267.057,165.062 266.639,161.778 C266.101,157.897 267.236,152.046 269.266,147.986 C272.191,142.075 272.729,138.373 272.788,124.581 C272.848,115.266 272.609,111.326 271.953,108.758 C270.818,104.459 265.982,94.847 264.609,94.071 C263.892,93.653 262.877,93.832 261.146,94.668 L258.698,95.862 L251.772,93.653 C246.637,92.041 244.428,91.026 243.174,89.712 C242.278,88.757 241.025,87.98 240.368,87.98 C237.8,87.98 224.844,94.19 219.351,98.011 C214.873,101.116 205.559,107.385 203.23,108.878 C202.156,109.535 201.618,109.594 201.081,109.057 C200.603,108.579 200.902,107.445 202.275,104.639 C203.648,101.653 205.857,99.026 212.007,92.757 L219.948,84.697 L214.873,84.338 C209.559,83.92 205.559,82.667 200.245,79.622 C195.946,77.174 193.02,76.815 189.617,78.308 C187.587,79.204 186.572,80.159 185.617,82.01 C184.064,84.995 182.99,85.473 180.721,84.159 C179.706,83.503 178.392,83.264 177.616,83.443 C174.273,84.279 168.123,87.503 165.794,89.652 C163.287,91.921 162.749,92.22 159.227,92.996 C156.361,93.653 157.376,94.906 162.272,96.936 C167.347,98.966 169.198,100.459 169.795,103.086 C170.093,104.101 171.228,105.415 172.78,106.49 C175.825,108.579 177.855,110.968 177.855,112.52 C177.855,113.117 178.452,113.953 179.228,114.311 C181.796,115.684 186.094,119.625 188.662,123.028 C191.17,126.431 208.604,144.403 221.68,157.18 C225.262,160.643 230.039,165.659 232.367,168.286 C239.532,176.466 242.995,179.929 244.07,179.929 C244.667,179.929 245.861,179.093 246.816,178.137 z M160.54,172.764 C161.197,172.406 162.272,171.032 162.988,169.659 L164.242,167.211 L162.57,160.882 C161.675,157.419 160.6,153.837 160.122,152.941 C159.704,152.046 159.346,150.553 159.346,149.657 C159.346,148.762 158.868,146.971 158.271,145.776 C156.898,142.731 147.226,132.402 144.479,130.969 C143.225,130.372 140.837,128.76 139.105,127.387 C137.434,126.014 133.971,124.163 131.403,123.207 C128.896,122.312 125.97,121.177 124.895,120.759 C123.821,120.341 122.806,120.162 122.567,120.341 C121.791,121.177 124.477,126.551 126.687,128.641 C128.836,130.611 129.075,131.148 129.493,135.029 C129.791,137.895 130.448,140.164 131.582,142.134 C132.478,143.687 134.448,147.269 135.941,150.075 C138.628,155.15 149.256,171.57 150.569,172.644 C152.181,174.018 158.152,174.018 160.54,172.764 z M57.128,99.802 C57.487,99.384 58.084,97.593 58.561,95.802 C59.696,91.085 60.89,90.667 63.696,93.772 C64.95,95.145 66.741,96.459 67.637,96.698 C69.547,97.175 73.488,96.101 74.563,94.847 C75.279,93.951 75.339,93.951 70.503,92.996 C69.547,92.817 68.771,91.861 67.995,90.07 L66.861,87.443 L63.935,87.801 C61.487,88.1 60.83,87.921 59.397,86.667 C58.263,85.712 57.546,84.398 57.308,82.846 C57.009,80.875 56.591,80.338 54.68,79.442 C53.486,78.905 52.471,78.009 52.471,77.532 C52.471,76.577 45.008,70.666 43.754,70.666 C43.336,70.666 42.859,71.203 42.62,71.8 C42.441,72.457 41.485,73.233 40.53,73.591 C39.515,73.89 38.739,74.547 38.739,74.964 C38.739,77.472 50.979,98.608 53.247,100.041 C54.382,100.758 56.412,100.579 57.128,99.802 z" fill="#000000"/>
  </g>
</svg>
