<?xml version="1.0" encoding="UTF-8"?>
<!DOCTYPE svg PUBLIC "-//W3C//DTD SVG 1.1//EN" "http://www.w3.org/Graphics/SVG/1.1/DTD/svg11.dtd">
<svg version="1.1" xmlns="http://www.w3.org/2000/svg" xmlns:xlink="http://www.w3.org/1999/xlink" x="0" y="0" width="500" height="500" viewBox="0, 0, 500, 500">
  <g id="layer101">
    <path d="M270.609,498.556 C268.804,497.329 267.216,497.113 261.153,497.113 C256.461,497.113 252.707,496.752 250.686,496.03 C248.953,495.38 246.282,494.947 244.622,494.947 C236.176,495.164 223.616,493.431 216.253,490.977 C212.138,489.605 207.374,488.45 205.642,488.45 C201.238,488.45 191.926,486.429 187.09,484.408 C183.841,483.036 181.676,482.675 176.767,482.675 C173.302,482.675 169.837,483.036 168.971,483.469 C165.578,485.274 162.98,488.017 161.969,490.832 C160.886,493.72 160.67,493.864 157.277,494.37 C155.256,494.586 152.441,495.308 150.997,495.958 C147.171,497.618 143.201,497.401 138.725,495.308 C134.25,493.215 132.589,493.07 130.279,494.658 C129.052,495.597 127.825,495.741 125.299,495.308 C120.534,494.586 106.891,493.864 103.859,494.153 C103.065,494.297 100.827,493.792 98.806,493.142 C96.857,492.493 94.764,491.771 94.331,491.626 C93.681,491.482 93.392,489.894 93.392,487.151 C93.392,483.253 93.537,482.892 95.558,481.665 C96.785,481.015 99.456,478.272 101.549,475.746 C103.571,473.147 106.314,470.404 107.685,469.538 C111.078,467.444 112.161,465.495 112.666,460.081 C113.099,455.317 113.099,455.245 110.356,452.285 C108.046,449.686 107.685,448.964 108.046,446.582 C108.335,444.056 110.284,440.663 113.749,436.26 L115.337,434.238 L112.594,431.712 L109.779,429.113 L110.212,424.493 C110.717,418.935 111.006,418.43 113.171,418.43 C114.11,418.43 115.265,417.924 115.77,417.347 C116.925,415.975 117.502,408.54 117.358,398.218 C117.214,391.432 116.997,390.205 115.048,386.307 C113.099,382.337 112.955,381.398 113.099,375.262 C113.171,371.076 113.604,368.333 114.11,368.044 C117.286,366.095 121.256,356.422 120.462,352.668 C120.029,350.864 120.462,349.997 123.71,346.388 C125.732,344.15 128.114,340.974 128.908,339.386 C129.702,337.798 131.651,335.055 133.239,333.25 C143.345,321.628 144.5,319.824 148.254,308.707 C149.553,304.953 151.574,300.117 152.729,297.951 C154.823,294.342 154.895,293.764 154.462,289.072 C154.173,285.896 154.317,283.009 154.895,281.204 C155.472,279.183 155.472,278.1 154.967,277.595 C153.668,276.295 149.986,277.595 146.666,280.266 C144.789,281.854 143.273,282.648 142.551,282.359 C139.447,281.132 136.487,281.06 135.838,282.215 C135.477,282.936 134.611,283.442 133.961,283.442 C133.239,283.442 131.146,284.741 129.197,286.329 C125.082,289.794 123.205,289.866 123.638,286.69 C123.783,285.463 123.855,281.493 123.783,277.739 C123.71,272.109 123.422,270.304 121.906,267.128 C120.895,265.034 119.74,263.085 119.307,262.797 C118.874,262.58 117.936,260.992 117.286,259.332 C116.492,257.599 112.449,252.691 107.324,247.349 C102.56,242.368 98.084,237.315 97.363,236.016 C96.352,234.283 95.053,233.417 92.021,232.406 C88.845,231.396 87.617,230.529 86.102,228.292 C84.874,226.415 82.998,224.899 80.832,223.96 C78.522,222.878 76.79,221.362 75.129,219.052 C73.902,217.175 71.592,213.927 70.076,211.833 C66.467,206.636 63.074,193.498 63.074,184.763 C63.074,180.721 62.713,178.05 61.919,176.318 C60.836,174.152 60.836,172.997 61.486,167.655 C62.064,163.252 62.064,160.798 61.558,159.426 C61.125,158.343 60.981,156.322 61.197,154.878 C61.486,152.857 61.27,151.774 60.115,150.331 C57.66,147.227 56.794,147.876 57.155,152.641 C57.516,157.766 55.639,161.014 50.803,163.469 C46.977,165.418 43.295,165.273 40.047,162.963 C37.52,161.159 36.004,161.086 32.323,162.602 C28.714,164.118 25.465,163.541 21.928,160.725 C18.968,158.416 16.153,153.435 16.153,150.619 C16.153,145.783 22.506,139.792 27.703,139.792 C28.93,139.792 30.013,139.358 30.157,138.925 C30.302,138.42 30.807,136.688 31.24,135.027 C32.539,130.046 34.922,127.303 38.82,126.004 C42.934,124.632 45.244,125.066 49.359,127.881 C50.803,128.891 52.679,129.685 53.546,129.685 C54.845,129.685 55.134,129.252 55.134,127.448 C55.134,123.189 58.021,115.393 60.331,113.444 C61.486,112.433 62.785,111.639 63.146,111.639 C63.507,111.639 64.59,110.051 65.528,108.174 C67.55,104.132 68.272,103.482 71.881,102.327 C73.325,101.822 74.985,100.667 75.635,99.728 C77.223,97.274 79.172,96.913 83.358,98.285 C86.896,99.439 87.112,99.439 90.649,97.924 C95.269,95.975 97.29,96.335 102.993,100.089 C105.375,101.749 107.974,102.977 108.768,102.832 C109.634,102.688 111.006,101.028 112.305,98.645 C114.326,94.964 114.471,94.242 114.182,88.323 C113.893,82.476 113.749,81.898 111.655,79.661 C107.18,74.896 106.53,70.926 109.851,67.605 C113.46,63.996 119.812,63.058 124.865,65.368 C128.475,67.028 130.207,69.266 130.207,72.37 C130.207,75.041 131.073,75.907 134.394,76.629 C137.209,77.206 140.674,80.021 142.19,82.909 C143.706,85.796 144.5,84.786 144.789,79.877 L145.005,75.907 L150.058,75.402 C158.36,74.463 165.001,73.38 168.466,72.298 C174.963,70.276 181.892,68.833 186.512,68.544 C189.111,68.399 191.854,67.966 192.648,67.605 C193.442,67.244 195.247,66.811 196.763,66.523 C198.206,66.306 201.094,65.223 203.26,64.068 C205.353,62.986 208.89,61.47 211.056,60.748 C213.221,60.026 216.181,58.943 217.552,58.221 C227.514,53.168 235.671,49.92 243.9,47.754 C248.159,46.671 251.769,45.156 254.295,43.495 C256.388,42.052 258.482,40.897 258.915,40.897 C259.348,40.897 261.802,39.958 264.401,38.803 C273.497,34.833 276.673,33.678 278.838,33.678 C279.993,33.678 281.148,33.389 281.365,33.028 C281.581,32.667 282.664,32.162 283.747,31.873 C284.83,31.657 286.562,30.791 287.573,30.069 C290.027,28.336 304.32,22.2 307.28,21.623 C309.951,21.118 315.148,18.663 320.923,15.126 C326.337,11.806 332.328,11.3 335.504,13.971 C337.02,15.271 338.103,15.631 339.475,15.271 C342.146,14.693 347.487,8.918 347.487,6.68 C347.487,4.082 349.797,2.855 356.15,1.988 C359.109,1.555 364.018,0.905 366.978,0.472 C372.175,-0.322 379.754,-0.105 388.994,1.05 C392.098,1.411 393.398,1.916 393.542,2.71 C393.759,3.865 383.075,14.549 379.321,16.931 C378.311,17.58 376.073,19.53 374.341,21.19 C372.464,23.067 370.298,24.438 368.782,24.727 C367.05,25.016 365.534,26.098 363.801,28.192 C362.502,29.852 360.12,32.018 358.604,33.028 C357.016,34.039 354.489,35.771 352.829,36.782 C349.292,39.164 348.209,39.236 348.209,37.071 C348.209,36.132 347.776,34.761 347.199,33.967 C346.188,32.595 346.116,32.595 343.661,33.967 C340.124,35.844 336.948,39.236 334.638,43.784 C333.555,45.877 332.184,47.899 331.606,48.187 C331.029,48.476 327.492,49.415 323.882,50.281 C320.201,51.075 315.437,52.591 313.343,53.529 C311.25,54.54 307.857,55.623 305.836,55.983 C303.815,56.417 301.072,57.499 299.628,58.438 C298.256,59.376 293.42,61.686 288.944,63.563 C284.397,65.512 278.477,68.111 275.662,69.41 C272.919,70.709 269.815,72.009 268.804,72.298 C267.794,72.514 263.896,74.102 260.142,75.69 C249.603,80.166 247.293,81.032 240.508,83.125 C237.043,84.136 233.866,85.508 233.433,86.013 C232.567,87.023 217.985,94.314 193.731,105.936 C186.801,109.257 180.16,112.65 178.933,113.516 C177.778,114.31 173.88,116.62 170.27,118.497 C166.733,120.446 163.052,122.756 162.186,123.622 C157.71,128.097 163.702,136.904 171.209,136.904 C174.241,136.904 177.633,135.172 187.234,128.53 C191.565,125.571 195.68,123.189 196.402,123.189 C199.361,123.189 200.516,127.159 198.423,129.974 C197.052,131.779 197.052,135.46 198.351,137.337 C199.795,139.431 203.981,140.946 210.767,141.957 C220.295,143.329 224.121,141.668 227.875,134.305 C230.835,128.603 236.104,124.632 240.941,124.632 C243.612,124.632 243.9,125.86 241.807,128.242 C238.559,132.14 238.486,137.77 241.518,141.091 C243.756,143.401 246.643,143.112 252.129,140.008 L256.894,137.337 L267.216,137.554 C273.497,137.626 279.199,138.131 281.654,138.781 C283.891,139.431 287.862,139.864 290.46,139.864 C293.059,139.864 296.38,140.297 297.968,140.73 C300.494,141.452 300.855,141.38 302.082,139.864 C303.887,137.626 303.815,136.182 301.649,133.006 C300.639,131.49 299.989,129.974 300.205,129.613 C300.494,129.252 301.866,128.964 303.382,128.964 C307.713,128.964 310.672,131.418 313.56,137.409 C316.736,143.978 317.674,144.411 327.42,143.906 C339.619,143.401 346.838,140.08 345.683,135.605 C345.394,134.522 344.672,133.078 344.095,132.429 C343.517,131.707 343.156,130.624 343.445,129.974 C343.806,129.036 344.455,128.891 346.621,129.325 C349.725,129.902 350.808,130.48 356.366,134.233 C362.069,138.203 365.029,138.42 371.092,135.388 C377.084,132.356 383.219,126.87 384.302,123.55 C386.468,117.053 381.343,111.567 364.956,102.616 C353.046,96.047 346.838,91.499 344.961,87.818 C344.383,86.663 343.589,84.208 343.156,82.331 C341.568,75.329 344.239,73.236 347.632,78.794 C349.942,82.62 353.695,85.074 364.812,90.055 C380.621,97.057 385.313,99.439 389.933,102.76 C394.192,105.792 394.697,105.936 396.285,105.07 C397.873,104.276 398.234,104.348 399.461,105.575 C400.183,106.297 401.41,108.535 402.132,110.484 C402.854,112.433 403.792,114.165 404.153,114.31 C404.586,114.382 405.525,113.299 406.319,111.855 C407.907,108.896 410,107.957 410.722,109.834 C411.372,111.567 408.34,124.921 406.247,129.541 C402.71,137.482 391.376,146.938 377.3,153.651 C373.907,155.312 371.02,157.116 370.803,157.694 C370.515,158.271 372.536,160.87 376.001,164.335 C380.26,168.594 382.209,170.11 383.869,170.254 C385.89,170.471 386.107,170.687 386.107,172.853 C386.107,176.751 387.767,177.473 395.996,177.184 C402.637,177.04 403.143,177.112 404.226,178.628 C405.453,180.432 412.022,183.897 420.973,187.434 C426.026,189.456 427.469,190.394 429.996,193.426 C435.41,199.995 445.299,209.09 446.96,209.09 C447.393,209.09 448.115,208.44 448.548,207.646 C450.352,204.254 452.879,206.925 452.879,212.194 C452.879,215.587 453.096,215.876 460.098,221.29 C461.397,222.228 463.418,225.188 464.717,227.786 C466.017,230.385 468.255,234.427 469.698,236.81 C471.142,239.12 472.874,242.729 473.524,244.75 C474.174,246.771 475.618,249.947 476.773,251.752 C477.928,253.557 478.866,255.434 478.866,255.867 C478.866,256.3 480.021,259.115 481.392,262.147 L483.847,267.561 L482.475,270.809 C481.609,272.903 481.248,274.852 481.465,276.223 C481.97,278.75 480.237,282.503 475.978,287.845 C474.39,289.866 473.091,292.176 473.091,292.97 C473.091,293.692 472.802,294.992 472.369,295.713 C472.008,296.435 471.359,299.251 470.925,301.994 C470.348,306.253 468.11,312.244 464.212,320.185 C462.624,323.433 459.52,325.959 457.21,325.887 C455.983,325.815 454.467,326.32 453.745,326.898 C453.096,327.547 451.219,328.63 449.631,329.424 C446.96,330.651 446.743,331.012 446.815,333.539 C446.888,335.56 447.537,336.859 449.486,338.881 C453.24,342.851 458.654,354.401 458.654,358.587 C458.654,359.67 459.159,360.897 459.737,361.403 C460.314,361.908 460.819,363.28 460.819,364.435 C460.819,365.59 461.469,368.044 462.191,369.921 C462.985,371.798 463.851,374.902 464.068,376.851 C464.501,379.882 465.078,380.893 467.821,383.419 L471.07,386.379 L470.565,394.825 C470.059,402.549 470.131,403.343 471.575,405.797 C473.452,408.973 473.452,409.623 471.647,417.419 C470.637,421.75 469.698,424.06 468.76,424.71 C466.955,426.009 466.955,426.442 468.76,428.536 C470.131,430.124 470.131,430.196 468.832,432.795 C467.027,436.115 464.068,438.931 460.603,440.374 C456.705,441.962 455.405,445.572 454.684,456.039 C454.178,464.918 454.756,471.198 455.911,468.599 C456.416,467.372 456.488,467.444 456.199,468.96 C455.55,471.992 457.138,476.612 459.087,477.55 C460.098,477.983 461.325,478.344 461.83,478.344 C463.635,478.344 465.512,481.232 465.223,483.614 C464.934,486.934 462.335,491.121 460.17,491.987 C457.138,493.142 453.312,493.503 452.229,492.854 C450.569,491.771 449.27,492.781 449.27,495.019 C449.27,497.979 445.805,500 440.896,500 C437.792,500 436.709,499.567 433.966,497.546 L430.718,495.019 L427.181,496.896 C425.232,497.907 423.355,498.989 422.994,499.35 C421.767,500.433 418.302,500.072 415.126,498.412 C412.527,497.113 410.939,496.896 403.792,496.968 C392.387,497.04 391.737,496.824 392.098,493.936 C392.387,491.626 392.315,491.554 389.933,491.771 L387.551,491.987 L389.788,491.266 C392.387,490.327 393.181,487.728 392.315,483.325 C391.665,480.077 389.066,479.499 387.767,482.314 C387.262,483.397 385.457,484.985 383.508,485.996 C381.631,486.934 379.899,488.306 379.682,489.028 C379.105,490.688 375.423,491.843 368.999,492.42 C366.4,492.637 363.079,493.287 361.78,493.792 C359.326,494.875 356.583,495.019 342.29,495.019 C337.959,495.019 331.967,495.308 328.935,495.741 C319.696,496.896 316.086,497.04 299.123,497.401 C287.573,497.618 281.654,498.051 278.694,498.845 C273.424,500.289 273.208,500.289 270.609,498.556 z M145.799,168.233 C147.46,165.706 150.78,164.118 153.307,164.696 C154.606,164.984 156.194,164.696 157.566,164.046 C158.865,163.324 161.536,162.891 164.207,162.891 C166.661,162.891 169.91,162.53 171.498,162.025 C173.735,161.375 174.89,161.375 176.839,162.097 C178.861,162.819 179.582,162.819 180.449,162.097 C181.82,160.942 181.098,160.22 177.489,159.354 C162.041,155.672 153.307,151.558 147.027,145.133 C144.5,142.607 142.118,140.513 141.757,140.513 C140.169,140.513 135.26,143.762 135.26,144.772 C135.26,145.35 136.126,146.794 137.209,147.876 C139.808,150.547 139.952,154.806 137.57,157.333 C135.549,159.426 135.549,161.88 137.498,162.891 C138.292,163.324 139.591,165.129 140.313,166.933 C141.901,170.615 143.923,171.12 145.799,168.233 z" fill="#000000"/>
  </g>
</svg>
