<?xml version="1.0" encoding="UTF-8"?>
<!DOCTYPE svg PUBLIC "-//W3C//DTD SVG 1.1//EN" "http://www.w3.org/Graphics/SVG/1.1/DTD/svg11.dtd">
<svg version="1.1" xmlns="http://www.w3.org/2000/svg" xmlns:xlink="http://www.w3.org/1999/xlink" x="0" y="0" width="500" height="500" viewBox="0, 0, 500, 500">
  <g id="layer101">
    <path d="M397.136,498.817 C390.094,497.536 388.174,497.465 385.542,498.105 C382.128,499.03 378.714,499.172 376.224,498.532 C374.73,498.105 374.659,497.963 375.726,496.398 C376.722,494.834 376.722,494.478 375.584,492.344 C374.588,490.566 374.233,487.792 373.948,479.043 L373.592,468.019 L371.814,468.09 C370.818,468.09 369.396,468.303 368.685,468.445 C367.547,468.659 366.835,467.663 364.773,462.684 C363.35,459.341 361.785,455.998 361.358,455.216 C359.865,452.513 358.158,445.969 357.162,438.856 C355.811,429.681 355.811,429.61 357.162,424.844 C357.802,422.568 358.442,419.51 358.585,418.087 C358.727,416.593 359.082,413.891 359.367,412.112 C359.794,409.125 359.651,408.627 357.731,406.422 C356.308,404.786 354.459,403.648 352.183,403.079 C349.836,402.439 347.915,401.23 345.995,399.238 C342.51,395.54 341.941,393.975 341.941,387.929 C341.941,382.381 343.292,378.967 347.418,374.13 C349.053,372.21 349.694,370.858 349.48,369.863 C349.267,369.08 349.48,367.444 349.907,366.235 C350.618,364.244 350.405,363.603 347.631,358.909 C344.715,354.001 344.501,353.859 342.012,354.001 L339.451,354.215 L339.736,348.738 C340.02,341.91 338.953,338.211 336.606,338.211 C334.828,338.211 332.196,340.985 331.627,343.474 C331.414,344.328 331.556,347.884 331.983,351.37 C332.41,354.926 332.765,358.838 332.694,360.118 C332.694,361.327 333.05,363.106 333.548,364.03 C334.543,365.88 335.041,390.916 334.117,393.406 C333.761,394.331 332.623,395.113 331.272,395.326 C329.422,395.753 328.782,396.464 327.288,399.878 C326.293,402.155 325.297,404.146 325.083,404.359 C324.941,404.502 323.092,404.857 321.1,405.071 C317.473,405.426 317.402,405.498 317.188,407.916 C316.833,413.25 316.193,415.029 313.988,417.234 C311.996,419.296 311.712,420.008 311.64,423.493 C311.569,431.459 306.875,442.413 301.683,446.751 C299.904,448.245 296.917,451.019 294.997,452.94 C289.306,458.559 285.963,457.278 283.972,448.458 C281.767,438.501 281.056,437.718 277.641,441.275 C274.654,444.404 273.658,443.551 273.658,437.718 C273.658,431.601 272.947,431.175 267.541,433.877 C264.696,435.3 263.131,435.727 261.424,435.371 C260.144,435.158 258.65,435.229 258.081,435.584 C257.512,435.94 256.659,438.714 256.161,442.199 C255.307,447.392 254.952,448.387 252.889,450.166 C250.613,452.299 250.115,454.078 249.191,463.538 C248.977,465.956 247.839,467.307 244.212,469.512 C242.576,470.437 240.157,472.713 238.806,474.491 C236.316,477.621 236.245,477.692 232.973,477.265 C230.199,476.838 229.275,477.052 227.497,478.403 C226.287,479.328 225.292,480.537 225.292,481.106 C225.292,481.675 226.643,483.311 228.208,484.733 C231.48,487.579 231.48,488.574 228.706,491.988 L227.07,493.909 L221.38,492.842 C217.966,492.202 214.054,491.917 211.635,492.202 C208.932,492.486 207.083,492.344 206.158,491.704 C204.949,490.993 203.953,491.135 199.899,492.557 C195.703,494.122 193.782,494.336 185.105,494.407 C179.628,494.407 173.369,494.691 171.235,494.905 C169.101,495.189 164.762,495.118 161.633,494.834 C156.44,494.407 155.942,494.193 155.587,492.557 C155.018,490.139 152.955,489.855 152.102,492.131 C151.533,493.553 150.75,493.98 147.976,494.336 C146.127,494.62 141.219,495.403 137.094,496.185 C132.968,496.896 129.199,497.536 128.701,497.536 C127.207,497.536 128.487,489.784 130.621,486.156 C131.617,484.378 132.684,482.386 132.968,481.746 C133.608,480.11 141.148,474.207 145.842,471.646 C150.537,469.085 152.03,467.805 152.03,466.098 C152.03,464.107 154.662,459.27 156.227,458.416 C158.219,457.349 168.39,447.32 168.39,446.396 C168.39,445.685 167.181,445.258 163.766,444.76 C161.917,444.475 161.561,440.99 162.7,435.656 C163.34,432.953 164.478,430.677 166.683,427.974 C168.674,425.484 170.168,422.71 170.879,420.15 C171.519,417.874 172.729,414.033 173.653,411.472 C177.281,401.301 177.85,399.594 178.703,395.113 C179.201,392.552 180.055,389.423 180.553,388.142 C181.335,386.364 181.335,385.511 180.695,384.515 C180.197,383.733 179.343,381.101 178.774,378.611 C177.565,373.49 177.992,370.574 180.41,365.88 C182.544,361.825 182.9,355.495 181.122,353.29 C180.41,352.294 179.77,350.445 179.77,349.165 C179.77,346.675 177.779,344.612 175.289,344.612 C172.8,344.612 159.499,355.637 152.955,363.177 C152.671,363.532 150.323,365.168 147.763,366.804 C145.202,368.44 142.215,370.645 141.006,371.712 C139.085,373.49 130.834,376.833 123.366,378.896 C120.948,379.536 120.45,380.176 118.672,384.017 C117.605,386.364 116.324,389.992 115.827,391.912 C115.329,393.904 114.119,396.678 113.124,398.1 C112.128,399.594 110.99,402.297 110.705,404.146 C110.279,406.351 109.283,408.271 107.931,409.694 C106.58,411.045 105.798,412.61 105.798,413.891 C105.798,414.957 105.015,416.665 104.019,417.731 C99.823,422.284 96.551,426.551 96.551,427.547 C96.551,428.045 94.986,430.321 92.995,432.455 C91.074,434.589 89.438,436.651 89.438,437.007 C89.438,437.363 85.597,441.488 80.903,446.325 C76.209,451.09 72.368,455.144 72.368,455.429 C72.368,455.642 73.221,456.78 74.359,457.918 L76.28,459.981 L74.502,461.333 C73.506,462.044 72.297,463.04 71.799,463.466 C71.301,463.893 70.945,465.245 71.087,466.454 C71.301,468.445 71.016,468.872 68.598,470.01 C66.108,471.148 65.895,471.504 66.322,473.282 C66.891,475.914 65.611,476.767 63.761,475.06 C61.556,473.069 52.381,473.566 48.967,475.914 C44.272,479.114 42.494,477.621 45.41,472.855 C46.975,470.295 46.975,469.512 45.41,462.044 C45.055,460.266 44.272,458.487 43.632,457.99 C41,456.14 43.917,450.592 47.544,450.592 C48.682,450.592 51.527,449.668 53.803,448.458 L58,446.396 L59.92,440.279 C62.125,433.095 63.619,432.241 63.975,438.003 C64.117,441.061 64.401,441.701 65.611,441.915 C67.602,442.199 78.342,430.25 84.815,420.577 C85.597,419.439 87.589,416.878 89.296,414.886 C92.781,410.832 92.995,408.912 89.794,409.196 C87.731,409.338 82.183,410.263 77.489,411.188 C75.711,411.543 74.644,411.33 73.15,410.263 C72.154,409.481 70.59,408.627 69.807,408.343 C67.531,407.631 65.966,403.293 65.824,397.247 C65.611,391.841 65.895,390.845 69.594,382.452 C70.305,380.816 70.945,378.754 70.945,378.042 C70.945,376.762 73.577,370.645 76.209,365.951 C77.418,363.817 79.48,355.495 79.48,352.863 C79.48,351.939 78.84,350.018 78.058,348.667 C77.204,347.315 76.706,345.11 76.706,343.474 C76.778,341.981 76.422,338.495 76.066,335.721 C75.64,333.019 75.284,329.036 75.213,326.973 C75.213,324.199 74.928,323.132 74.075,322.776 C73.435,322.563 72.652,322.776 72.368,323.345 C72.012,323.914 70.59,325.764 69.167,327.542 C67.744,329.32 65.397,332.307 63.832,334.228 C62.268,336.219 60.134,339.705 58.925,342.123 C57.004,346.177 53.306,350.303 51.598,350.303 C51.172,350.303 47.117,352.508 42.565,355.139 C25.993,364.955 22.009,366.662 15.75,366.662 C8.14,366.662 4.725,363.888 4.228,357.487 C4.014,354.072 4.299,352.508 5.935,348.809 C8.211,343.474 10.914,339.634 12.194,339.634 C14.612,339.634 14.968,341.554 13.616,348.524 C12.478,354.499 12.478,355.424 13.403,356.348 C14.612,357.558 15.466,357.202 24.357,351.796 C30.189,348.169 33.959,344.755 36.875,340.345 C39.436,336.504 46.904,329.889 49.322,329.249 C50.318,328.964 51.598,327.826 52.167,326.546 C52.808,325.337 54.657,322.99 56.222,321.283 C58.853,318.651 59.209,317.726 59.565,314.17 C59.92,309.973 60.347,309.618 63.263,310.827 C64.188,311.183 64.828,310.756 65.753,308.978 C66.464,307.697 68.029,305.492 69.309,304.07 C71.941,301.082 75.924,293.116 75.924,290.84 C75.924,287.568 74.288,284.865 70.874,282.376 C68.954,281.025 67.104,279.886 66.82,279.886 C66.464,279.886 65.611,279.175 64.828,278.393 C64.117,277.539 62.125,276.046 60.561,274.979 C58.925,273.983 54.586,270.782 50.958,267.937 C47.26,265.092 39.151,259.117 32.892,254.565 C19.307,244.75 18.097,243.611 19.022,241.051 C20.089,238.277 19.876,234.649 18.595,233.583 C17.6,232.8 17.244,232.871 16.106,234.365 C13.688,237.566 13.261,237.921 12.336,237.921 C11.767,237.921 8.282,235.645 4.512,232.871 L-2.316,227.821 L-2.316,224.62 C-2.316,217.792 -0.111,204.207 1.24,202.215 C2.023,201.148 2.663,199.512 2.663,198.517 C2.663,196.738 11.34,184.647 15.395,180.735 C17.6,178.672 17.6,178.601 19.876,179.81 C24.072,182.015 31.469,186.781 32.323,187.919 C32.821,188.559 33.034,190.266 32.75,192.329 C32.323,196.098 33.39,199.512 35.026,199.512 C36.164,199.512 36.377,199.157 37.088,195.814 C37.657,193.182 40.574,193.111 43.988,195.672 C45.339,196.667 47.615,198.09 49.109,198.801 C50.603,199.441 53.306,201.362 55.155,202.998 C58.782,206.27 77.987,220.139 78.911,220.139 C79.196,220.139 80.974,221.491 82.895,223.198 C84.815,224.834 87.873,227.323 89.723,228.675 C91.572,230.026 94.488,232.373 96.267,233.867 C98.045,235.29 99.752,236.499 100.107,236.499 C100.463,236.499 103.521,238.561 106.936,241.122 C114.333,246.741 115.115,247.168 117.676,247.168 C120.379,247.168 121.232,247.879 121.801,250.369 C122.37,252.716 122.939,253.214 130.479,258.975 C133.324,261.109 136.169,262.816 136.88,262.816 C137.592,262.816 139.583,261.393 141.361,259.757 C144.918,256.272 146.98,254.992 149.043,254.992 C150.892,254.992 153.453,252.858 155.942,249.302 L158.005,246.385 L156.156,242.687 C153.595,237.566 152.671,234.294 151.959,228.106 C151.533,224.407 151.604,222.344 152.173,221.277 C152.671,220.495 153.24,218.219 153.524,216.227 C153.809,214.307 155.16,210.253 156.583,207.336 C158.574,203.069 159.072,201.148 159.072,197.948 C159.001,195.743 159.285,193.467 159.57,192.969 C159.926,192.471 160.21,189.483 160.281,186.354 C160.566,173.693 167.678,163.237 181.548,155.271 C184.678,153.493 188.874,151.715 190.795,151.288 C194.28,150.577 204.096,150.719 210.426,151.573 C213.2,151.928 214.054,151.715 216.401,150.15 C218.463,148.727 219.673,148.372 221.38,148.727 C224.296,149.225 226.145,147.589 225.576,144.887 C225.363,143.82 225.078,142.255 224.865,141.401 C224.652,140.263 223.585,139.552 220.882,138.627 C215.832,137.063 215.405,136.636 214.907,132.582 C214.48,129.239 214.267,129.025 208.648,124.9 C205.518,122.553 201.464,119.21 199.686,117.36 C196.77,114.373 196.485,113.804 196.556,110.745 C196.556,107.971 197.196,106.478 200.113,102.139 C202.815,98.014 204.096,96.662 205.874,96.235 C207.154,95.88 208.292,95.026 208.577,94.244 C209.146,92.466 212.275,89.976 213.911,89.976 C214.623,89.976 217.539,91.897 220.526,94.244 C223.442,96.591 226.145,98.511 226.572,98.511 C226.928,98.511 227.781,97.8 228.421,96.947 C229.488,95.311 229.559,95.311 230.626,96.733 C231.266,97.516 231.907,99.294 232.12,100.716 C232.831,105.197 232.902,105.197 241.011,103.135 C247.483,101.499 249.262,101.285 255.023,101.641 C262.207,102.139 265.408,103.135 267.541,105.553 C268.324,106.336 269.177,107.047 269.533,107.047 C269.96,107.047 272.165,105.126 274.512,102.779 C276.93,100.432 279.135,98.511 279.491,98.511 C279.775,98.511 283.261,95.666 287.101,92.11 C291.013,88.625 294.428,85.709 294.712,85.709 C294.997,85.709 296.49,84.855 297.984,83.859 C300.26,82.223 301.185,82.01 304.243,82.294 C308.369,82.721 308.582,82.437 311,75.039 C311.712,72.906 313.988,66.789 316.121,61.525 C318.255,56.262 320.602,50.5 321.314,48.722 C322.025,46.944 324.159,42.25 325.937,38.195 C329.209,31.083 331.556,22.476 333.69,9.744 C334.472,5.406 334.97,4.197 336.677,2.845 C338.882,1.067 343.79,0.213 351.187,0.356 C353.321,0.356 356.664,0.285 358.585,0.213 L362.07,-0 L363.066,4.268 C363.777,7.397 363.848,9.247 363.35,11.38 C362.923,12.945 362.283,16.502 361.856,19.276 C361.145,24.468 360.434,27.171 356.451,39.262 C355.17,43.245 353.748,48.793 353.392,51.71 C352.468,58.538 349.978,70.132 348.698,73.475 C348.129,74.897 346.706,79.663 345.497,83.93 C344.217,88.269 342.51,93.888 341.585,96.52 C340.376,99.792 340.091,101.428 340.66,101.783 C341.087,102.068 343.15,102.281 345.355,102.352 C349.267,102.424 349.836,102.779 350.76,105.838 C351.045,106.691 351.899,107.047 353.534,107.047 C355.384,107.047 356.095,107.474 357.091,109.109 C358.585,111.67 358.585,112.737 357.091,116.009 L355.811,118.569 L357.802,119.992 C361.714,122.837 360.292,126.109 351.045,135.925 C347.773,139.41 344.501,143.037 343.861,144.033 C342.51,145.954 342.225,149.368 343.363,150.079 C343.79,150.363 346.066,149.581 348.484,148.372 C350.903,147.163 353.534,146.167 354.459,146.167 C355.384,146.167 358.016,144.531 360.576,142.397 C363.066,140.263 366.48,137.632 368.187,136.494 C370.249,135.142 371.53,133.648 372.099,131.941 C373.095,128.812 374.944,128.385 377.362,130.732 C379.14,132.368 379.852,132.51 389.596,132.866 C400.905,133.293 405.315,134.289 415.415,138.841 C422.03,141.757 422.955,141.472 421.603,136.636 C420.679,133.151 421.034,131.941 422.955,131.941 C424.306,131.941 427.294,135.569 434.904,146.238 C437.323,149.581 440.808,153.635 442.728,155.342 C444.578,156.978 446.356,158.543 446.711,158.828 C449.059,160.961 462.715,178.316 463.497,180.166 C464.707,183.011 466.129,183.864 469.828,183.864 C473.242,183.864 473.811,184.505 474.949,189.555 C475.447,191.688 476.158,194.32 476.514,195.387 C476.941,196.454 477.012,199.157 476.727,201.504 C476.3,205.274 476.585,206.767 479.928,217.365 C481.991,223.767 484.053,229.457 484.551,230.026 C485.334,230.809 485.974,230.666 488.748,229.03 C491.664,227.323 492.162,227.252 493.94,228.106 C495.647,228.959 495.932,229.528 495.86,231.733 C495.789,233.938 495.149,234.934 491.379,238.561 C489.032,240.838 487.041,243.327 487.041,244.109 C487.041,245.816 489.815,254.352 490.81,255.561 C491.166,256.059 493.087,256.414 495.291,256.414 C499.488,256.414 500.697,257.268 501.906,260.895 C502.902,263.812 502.12,266.301 499.132,269.644 L497.07,272.062 L498.421,275.05 C500.839,280.313 500.057,285.363 496.358,288.706 C494.296,290.556 492.162,297.953 492.589,301.723 C492.802,304.354 492.589,305.137 490.739,307.199 C488.25,310.044 487.325,313.316 488.392,315.379 C489.459,317.371 489.388,324.341 488.321,325.195 C487.823,325.621 485.689,326.475 483.627,327.115 C480.924,328.04 479.857,328.751 479.572,329.889 C478.221,336.433 477.723,338.424 476.372,342.834 C475.518,345.608 474.593,348.809 474.309,349.947 C473.313,353.717 470.824,357.842 468.263,359.976 C460.012,366.733 460.652,366.306 459.657,365.026 C459.159,364.386 458.376,361.825 457.95,359.336 C457.452,356.917 456.954,354.286 456.812,353.503 C456.669,352.721 455.816,351.796 454.891,351.37 C452.259,350.232 449.983,344.399 448.845,335.721 C448.276,331.454 447.565,326.546 447.138,324.839 C446.783,323.203 446.498,320.429 446.498,318.722 C446.498,316.517 445.929,314.81 444.364,312.534 C443.226,310.827 441.946,308.266 441.519,306.844 C440.666,303.785 434.478,297.668 432.344,297.668 C430.921,297.668 430.921,297.953 431.348,303.999 C431.988,313.814 430.992,315.45 424.875,314.099 C419.612,312.961 416.625,302.363 416.34,283.798 C416.269,279.886 415.984,276.33 415.7,275.903 C414.42,273.77 418.118,262.105 421.106,258.762 L422.528,257.126 L420.821,255.276 C419.896,254.281 417.834,252.787 416.269,252.005 C408.303,247.95 401.688,241.762 401.688,238.49 C401.688,237.779 400.265,236.214 398.558,234.934 C396.922,233.654 393.081,230.809 390.165,228.604 C386.822,226.043 383.408,224.123 380.919,223.411 C377.433,222.415 376.224,221.491 370.463,215.445 C363.99,208.759 361.856,207.55 361.856,210.822 C361.856,211.604 360.718,213.098 359.367,214.165 C358.016,215.16 356.877,216.441 356.877,217.01 C356.877,217.508 358.016,218.788 359.438,219.855 C362.639,222.344 371.743,233.654 371.814,235.218 C371.814,235.859 370.392,237.85 368.685,239.557 C362.994,245.105 363.706,248.092 371.743,251.933 C376.082,253.996 381.63,258.477 382.981,260.895 C383.479,261.749 383.835,263.385 383.906,264.452 C383.906,265.59 384.617,267.155 385.613,268.15 C387.818,270.355 394.077,273.485 396.353,273.485 C397.847,273.485 398.131,273.841 398.131,275.619 C398.131,276.757 398.629,279.175 399.198,280.953 C400.123,283.514 400.194,285.15 399.696,289.062 C398.843,294.681 397.776,297.028 393.864,301.58 C391.232,304.639 390.948,305.279 391.161,308.266 L391.374,311.538 L394.006,311.325 C395.998,311.183 396.709,311.396 396.993,312.463 C397.633,314.312 395.713,322.278 393.437,327.471 C390.734,333.588 391.801,335.081 397.349,333.161 C400.834,331.952 401.403,333.232 398.772,336.504 C395.5,340.629 394.433,343.546 395.357,345.893 C395.784,346.96 396.282,351.37 396.495,355.637 C396.78,362.75 397.064,363.746 398.843,366.306 C399.91,367.871 401.048,369.934 401.332,370.93 C401.617,371.925 402.612,373.846 403.537,375.197 C404.391,376.549 405.386,378.682 405.671,379.821 C406.24,382.452 407.947,384.444 409.512,384.444 C410.152,384.444 412.215,385.44 414.135,386.72 C417.763,389.138 417.122,389.138 425.373,386.791 C426.298,386.507 426.582,386.862 426.582,388.427 C426.511,389.565 426.084,391.272 425.515,392.268 C424.306,394.331 424.164,396.962 425.16,397.602 C425.587,397.816 427.009,397.673 428.361,397.176 C429.712,396.678 430.992,396.393 431.134,396.607 C431.704,397.176 429.996,402.439 428.503,404.573 C427.009,406.778 427.08,407.418 429.641,414.673 C430.637,417.447 431.917,422.07 432.628,424.986 C433.268,427.903 434.478,431.175 435.189,432.241 C435.971,433.379 436.54,435.442 436.54,437.22 C436.611,438.927 437.038,441.061 437.536,441.986 C438.034,442.911 438.318,444.262 438.176,444.902 C437.82,446.254 435.118,447.747 432.913,447.747 C430.423,447.747 430.494,449.881 433.197,454.86 C434.62,457.421 436.469,462.115 437.323,465.173 C438.176,468.303 439.528,471.931 440.381,473.353 C442.799,477.194 445.004,490.424 443.937,494.336 C443.297,496.825 434.122,499.315 425.515,499.315 C418.474,499.315 418.403,499.315 417.478,497.394 C416.198,494.62 413.779,494.691 413.779,497.465 C413.779,498.959 413.424,499.599 412.57,499.599 C411.859,499.67 410.01,499.812 408.445,499.955 C406.88,500.168 401.759,499.599 397.136,498.817 z M84.602,396.322 C90.292,391.983 97.974,382.808 97.974,380.39 C97.974,378.825 88.087,373.49 86.38,374.201 C85.099,374.699 83.392,378.042 82.681,381.599 C82.397,382.95 81.401,386.578 80.405,389.636 C78.556,395.326 78.627,398.669 80.547,398.669 C81.116,398.669 82.966,397.602 84.602,396.322 z M107.789,366.449 C109.496,364.599 110.777,361.043 110.777,357.984 C110.777,356.989 111.559,355.21 112.412,354.072 C115.186,350.729 118.032,345.395 117.605,344.257 C117.391,343.688 116.182,342.763 114.902,342.265 C109.71,340.06 108.074,334.868 110.634,328.538 C114.048,319.931 115.044,317.086 115.044,316.019 C115.044,314.668 110.848,311.183 109.283,311.183 C107.718,311.183 103.735,319.931 103.664,323.345 C103.664,324.057 102.739,326.404 101.53,328.609 C100.392,330.814 99.396,333.445 99.396,334.37 C99.396,335.366 98.756,337.357 97.974,338.922 C97.191,340.487 96.124,343.474 95.555,345.608 C94.986,347.671 94.062,350.374 93.493,351.512 C92.568,353.29 92.497,354.215 93.35,358.482 C94.133,362.608 94.631,363.746 96.836,365.737 C98.969,367.729 99.894,368.085 102.81,368.085 C105.513,368.085 106.58,367.729 107.789,366.449 z M131.475,365.524 C133.395,364.741 134.96,363.39 136.098,361.541 C137.52,359.265 138.232,358.767 139.441,359.122 C141.432,359.62 142.286,359.051 143.709,356.064 C145.202,353.005 145.202,351.796 143.78,351.227 C143.139,351.014 142.073,349.378 141.29,347.671 C140.01,344.612 137.805,342.834 137.236,344.47 C137.094,344.897 136.098,346.391 135.031,347.742 C133.893,349.093 132.47,352.152 131.83,354.57 C131.119,356.989 129.696,359.905 128.487,361.256 C126.282,363.817 125.713,366.662 127.491,366.662 C128.06,366.662 129.839,366.164 131.475,365.524 z M158.574,342.052 C160.21,341.554 160.921,338.78 159.926,336.931 C159.428,336.006 158.147,335.366 156.156,335.152 C148.901,334.228 149.541,334.014 149.612,336.931 C149.683,338.424 150.252,340.416 150.892,341.483 C152.03,343.119 152.457,343.261 154.733,342.834 C156.227,342.621 157.934,342.265 158.574,342.052 z M205.376,326.333 C207.581,322.847 207.581,322.919 206.372,315.806 C206.016,313.814 206.158,313.316 207.012,313.316 C207.652,313.316 208.363,313.672 208.577,314.028 C209.359,315.308 211.706,314.81 212.773,313.174 C213.342,312.249 214.48,309.547 215.192,307.199 C215.974,304.781 217.61,301.509 218.89,299.944 C220.811,297.526 221.095,296.673 220.74,294.681 C220.455,293.401 220.313,291.765 220.384,291.125 C220.953,283.443 220.099,265.945 218.961,262.674 C217.894,259.473 216.685,259.26 213.556,261.962 C212.275,263.029 210.355,264.452 209.359,265.163 C208.221,265.945 207.51,267.084 207.51,268.222 C207.51,271.28 205.447,274.125 200.895,277.468 C194.067,282.447 192.075,285.363 191.506,291.125 C191.222,293.827 190.795,296.317 190.581,296.673 C190.297,297.028 187.736,299.375 184.82,301.936 C179.77,306.417 179.628,306.63 179.984,309.262 C180.197,310.827 179.912,313.316 179.414,314.81 C178.276,317.94 178.845,318.722 181.904,318.438 C182.9,318.295 184.322,318.793 185.105,319.504 C185.887,320.216 187.665,321.567 189.017,322.563 C190.368,323.488 191.72,324.626 192.004,325.052 C192.573,325.764 200.824,329.462 202.318,329.605 C202.815,329.676 204.238,328.182 205.376,326.333 z M91.003,324.626 C91.643,323.274 92.852,320.002 93.706,317.228 C94.559,314.526 96.053,310.756 96.978,308.906 C99.183,304.497 99.112,303.216 96.551,300.3 C95.2,298.735 94.417,297.028 94.417,295.677 C94.417,293.187 92.781,292.263 91.216,293.827 C90.434,294.61 90.15,296.459 90.15,300.585 C90.15,303.714 89.865,306.915 89.438,307.626 C89.083,308.337 88.585,313.103 88.3,318.295 C88.016,325.906 88.087,327.613 88.869,327.4 C89.367,327.257 90.292,325.977 91.003,324.626 z" fill="#000000"/>
  </g>
</svg>
