<?xml version="1.0" encoding="UTF-8"?>
<!DOCTYPE svg PUBLIC "-//W3C//DTD SVG 1.1//EN" "http://www.w3.org/Graphics/SVG/1.1/DTD/svg11.dtd">
<svg version="1.1" xmlns="http://www.w3.org/2000/svg" xmlns:xlink="http://www.w3.org/1999/xlink" x="0" y="0" width="500" height="500" viewBox="0, 0, 500, 500">
  <g id="layer101">
    <path d="M268.006,461.952 C264.002,460.279 263.704,460.04 263.345,456.873 C263.046,454.004 263.763,451.674 267.707,443.189 C269.978,438.348 271.293,433.867 271.293,431.058 C271.293,428.489 273.324,424.545 275.834,422.214 C276.97,421.139 277.866,419.943 277.866,419.465 C277.866,418.987 277.029,417.374 275.954,415.94 C274.938,414.506 273.922,412.534 273.683,411.518 C273.504,410.562 272.906,409.665 272.428,409.546 C270.874,409.247 269.859,412.414 269.5,418.39 C269.141,425.381 268.365,425.859 264.899,421.258 C261.433,416.597 260.537,414.625 260.537,411.219 C260.537,407.693 258.923,404.108 256.772,402.674 C255.935,402.136 255.099,401.001 254.86,400.045 C254.382,397.953 253.485,396.878 251.752,396.22 C250.498,395.742 250.079,394.786 250.318,392.814 C250.378,392.336 250.139,391.619 249.721,391.141 C248.466,389.587 249.541,389.587 254.023,391.201 C256.413,392.037 259.282,392.695 260.357,392.695 C261.433,392.695 262.867,393.053 263.524,393.412 C265.616,394.726 266.691,393.292 269.201,385.942 C271.472,379.309 271.472,378.951 270.456,377.875 C269.918,377.218 268.484,376.501 267.349,376.321 C266.213,376.082 264.779,375.365 264.182,374.648 C263.465,373.871 262.389,373.453 261.313,373.513 C260.417,373.573 258.863,373.632 257.907,373.632 C256.832,373.632 255.398,374.29 254.143,375.365 C253.067,376.381 251.932,377.158 251.752,377.158 C251.513,377.158 249.721,376.501 247.749,375.724 C242.67,373.692 231.734,372.915 228.806,374.409 C227.671,374.947 225.579,375.604 224.205,375.784 C221.635,376.142 221.576,376.082 217.811,372.139 C215.72,369.987 213.628,368.195 213.21,368.195 C212.791,368.195 211.059,368.732 209.326,369.39 L206.218,370.525 L202.095,368.493 C198.57,366.76 197.613,366.521 196,367 C193.431,367.717 188.889,367.119 186.977,365.804 C185.602,364.848 184.527,364.729 179.806,364.968 C172.994,365.267 172.576,365.386 168.691,368.314 C164.927,371.182 159.37,373.035 154.171,373.154 L150.287,373.274 L150.466,375.664 C150.824,380.863 150.705,383.193 149.928,384.209 C149.45,384.747 148.434,386.48 147.657,388.093 C146.223,390.842 146.223,390.962 147.359,392.217 C148.852,393.83 152.796,395.623 154.948,395.682 C156.023,395.682 157.696,396.519 159.37,397.893 C162.059,400.104 162.059,400.164 161.64,402.853 C160.624,409.187 161.76,413.131 166.421,419.585 C169.409,423.648 172.098,428.489 172.098,429.624 C172.098,431.178 167.915,435.062 165.763,435.48 C163.552,435.898 158.294,433.628 149.39,428.369 C139.829,422.752 137.021,420.84 130.089,415.342 C120.289,407.634 116.524,404.048 116.524,402.495 C116.524,400.343 115.867,399.268 114.015,398.312 C112.341,397.415 112.162,397.475 110.907,398.611 C109.413,399.985 106.246,400.284 105.29,399.148 C104.991,398.73 104.394,396.937 104.035,395.145 C103.677,393.352 102.781,390.663 102.123,389.169 C101.167,386.958 100.988,385.763 101.287,383.014 C101.526,381.162 101.526,379.07 101.287,378.473 C100.928,377.218 98.179,375.963 95.789,375.963 C93.399,375.963 90.59,381.64 91.905,383.791 C92.383,384.568 92.443,386.42 92.084,389.946 C91.546,395.324 90.172,398.312 86.049,402.734 C85.093,403.809 84.256,405.124 84.256,405.542 C84.256,406.558 86.288,407.992 88.559,408.53 C90.351,409.008 95.61,414.267 95.61,415.581 C95.61,416.059 94.893,417.971 94.056,419.884 C92.682,422.871 92.502,423.768 92.861,427.174 C93.399,432.193 95.849,438.348 98.418,440.858 C101.406,443.906 100.988,447.371 97.402,448.865 C95.072,449.821 92.323,448.806 91.128,446.475 C90.232,444.682 89.156,444.204 82.643,442.292 C78.101,440.978 77.205,441.097 73.799,443.428 C70.691,445.579 70.452,445.28 70.632,439.245 C70.811,433.926 70.751,433.747 69.138,432.552 C67.644,431.417 67.285,431.357 65.552,432.074 C63.401,432.97 60.354,433.628 60.354,433.209 C60.354,433.03 60.891,431.357 61.549,429.445 C62.804,425.74 62.804,425.8 60.174,422.393 C58.501,420.242 58.262,420.123 56.051,420.481 L53.661,420.9 L54.079,417.852 C54.438,415.342 54.259,414.506 53.243,412.773 C50.315,408.112 52.884,405.841 59.099,407.634 C60.234,407.932 61.19,408.171 61.25,408.052 C61.31,407.992 61.549,407.215 61.788,406.319 C62.087,404.945 61.728,404.228 59.457,401.897 C56.35,398.79 54.976,398.67 54.02,401.598 C53.243,403.989 52.167,404.706 50.255,403.989 C48.641,403.331 48.701,402.913 51.032,395.264 C52.765,389.647 53.601,384.329 52.824,384.329 C51.868,384.329 47.088,394.607 46.371,398.073 C45.773,400.821 45.355,401.479 43.921,402.196 C42.905,402.674 40.933,404.108 39.559,405.423 C35.794,408.829 35.316,407.693 37.885,401.419 C39.439,397.654 40.037,395.384 40.037,392.993 C40.037,390.065 39.857,389.647 38.065,388.332 C37.049,387.496 35.495,386.719 34.659,386.54 C33.105,386.181 28.922,385.106 23.544,383.612 C19.002,382.357 8.246,372.676 3.526,365.565 C1.613,362.637 0,359.709 0,359.112 C0,356.602 1.135,356.841 19.959,363.235 C23.185,364.31 26.352,365.087 26.95,364.908 C27.548,364.669 29.161,363.593 30.535,362.458 C32.149,361.084 33.643,360.367 34.599,360.426 C38.184,360.665 38.423,360.247 36.152,357.558 C35.316,356.542 34.659,355.526 34.659,355.228 C34.659,354.331 43.861,354.63 44.937,355.526 C45.474,355.945 46.191,357.08 46.61,358.036 C48.044,361.562 48.343,361.143 53.063,347.579 C57.067,336.345 57.963,332.281 56.828,330.907 C56.47,330.489 54.079,329.353 51.51,328.397 C49,327.501 46.132,326.246 45.116,325.648 C44.16,325.051 42.487,324.573 41.411,324.573 C38.662,324.573 36.391,322.362 31.432,314.773 C24.918,304.853 23.305,301.268 25.396,301.268 C26.293,301.268 29.938,302.821 36.81,306.108 C42.427,308.857 43.741,309.096 47.088,308.02 C50.434,306.945 51.211,307.124 60.055,311.068 C63.64,312.681 65.313,313.1 66.748,312.86 C68.421,312.562 68.959,312.801 70.452,314.354 C72.484,316.506 73.141,316.625 74.217,315.131 C74.635,314.474 75.532,313.697 76.189,313.339 C77.982,312.442 79.595,306.646 79.834,300.431 C80.013,296.069 80.372,294.396 81.746,291.408 C83.778,287.165 86.826,283.46 88.977,282.624 C91.248,281.787 98.896,282.026 101.406,283.042 C102.541,283.52 104.633,283.939 106.007,283.939 C108.039,283.939 108.696,283.64 110.011,282.026 C112.222,279.337 115.27,279.337 117.779,282.026 C118.795,283.102 119.931,283.939 120.349,283.939 C120.767,283.939 121.843,283.102 122.859,282.086 C126.444,278.262 134.75,274.975 140.666,274.975 C143.235,274.975 144.072,274.676 145.207,273.481 C148.195,270.314 152.617,271.091 154.948,275.214 C156.023,277.126 157.517,278.202 164.031,281.608 C170.185,284.835 172.157,285.671 173.591,285.373 C175.026,285.134 176.221,285.612 179.507,287.763 C186.14,292.185 187.216,291.587 189.427,282.385 C190.443,277.963 191.16,276.35 193.012,274.139 C194.506,272.346 195.522,270.314 195.94,268.402 C196.837,264.1 200.482,257.228 203.589,253.881 C206.159,251.132 206.218,251.013 205.74,248.204 C205.023,244.021 205.441,234.759 206.457,232.309 C208.011,228.545 207.652,225.796 205.143,222.808 C203.888,221.314 202.215,219.282 201.378,218.207 L199.884,216.295 L197.195,217.49 C195.701,218.147 191.399,219.581 187.634,220.657 C179.866,222.928 177.117,222.987 167.795,221.434 C162.895,220.597 161.82,220.537 160.983,221.254 C160.146,221.971 160.206,222.21 161.939,223.585 C164.329,225.557 163.971,226.393 159.549,229.859 C157.876,231.174 155.665,233.325 154.649,234.58 C153.274,236.253 151.243,237.628 147.359,239.42 C134.87,245.217 128.237,245.336 136.304,239.6 C141.323,236.074 142.279,235.058 144.61,230.337 C145.745,228.126 147.179,225.676 147.837,224.959 C149.988,222.45 148.852,221.792 142.399,221.792 C138.873,221.732 135.587,221.374 134.152,220.896 C130.746,219.641 129.133,219.76 126.862,221.553 C125.309,222.748 124.89,223.465 124.89,225.139 C124.89,227.589 118.138,241.392 116.704,241.93 C115.389,242.468 115.031,241.571 113.596,233.504 C112.341,226.632 112.341,225.975 113.178,224.242 C114.493,221.732 114.373,221.075 112.282,219.043 C110.429,217.31 110.429,217.251 110.848,212.769 L111.206,208.228 L108.398,205.718 C105.888,203.507 105.29,203.268 102.422,203.268 C100.689,203.268 98.598,203.507 97.821,203.806 C96.984,204.104 93.996,204.164 91.068,203.985 L85.75,203.567 L85.87,201.595 C85.87,200.519 86.646,198.726 87.483,197.591 C88.32,196.515 88.857,195.44 88.618,195.32 C88.32,195.201 81.985,195.021 74.516,195.021 C64.835,195.021 60.652,194.782 59.995,194.304 C57.426,192.153 60.832,187.851 65.732,187.074 C68.122,186.715 69.437,186.058 71.349,184.265 C76.189,179.784 76.01,179.843 87.961,179.485 L98.837,179.186 L104.633,173.449 C107.8,170.282 112.341,165.92 114.732,163.709 C118.795,159.945 119.094,159.586 118.735,157.674 C118.198,154.089 119.213,153.551 122.381,155.821 C123.635,156.778 123.695,156.718 124.591,154.686 C125.07,153.491 125.488,152.057 125.488,151.519 C125.488,150.921 125.727,149.667 126.085,148.651 C126.384,147.635 127.34,143.034 128.177,138.432 C129.611,130.843 132.898,114.47 134.451,107.658 C134.81,106.164 135.467,102.16 135.945,98.695 C138.276,81.545 139.471,75.748 142.757,65.948 C143.773,62.901 144.61,60.152 144.61,59.793 C144.61,59.495 145.088,58.479 145.685,57.642 C146.223,56.746 147,55.252 147.299,54.236 C148.076,51.965 149.39,51.487 149.39,53.519 C149.39,55.252 150.526,56.148 151.243,55.013 C151.541,54.535 151.781,53.399 151.781,52.384 C151.781,51.428 152.378,49.396 153.035,47.902 C153.752,46.408 154.888,43.36 155.665,41.03 C156.979,37.026 157.099,36.847 158.951,36.847 C162.118,36.847 162.357,37.923 161.162,45.93 C158.533,63.08 158.174,66.606 158.891,69.235 C159.37,71.267 159.37,73.179 158.652,78.198 C157.338,87.162 157.338,87.221 155.426,88.178 C153.932,89.014 153.693,89.552 153.035,93.735 C151.482,104.252 148.613,118.295 147.478,121.223 C146.821,122.956 146.462,124.629 146.641,124.928 C146.821,125.226 146.343,128.274 145.506,131.68 C143.474,140.106 140.845,154.806 141.263,155.821 C141.502,156.539 141.921,156.479 143.713,155.642 C146.163,154.447 146.881,154.865 145.924,156.957 C144.55,159.945 145.028,161.02 149.749,165.621 C154.768,170.581 155.963,172.673 155.963,176.557 C155.963,178.051 156.322,179.485 156.74,179.903 C157.577,180.56 165.524,183.01 171.321,184.445 C173.054,184.863 175.145,185.64 175.982,186.178 C177.894,187.432 178.491,187.074 181.599,183.13 C184.407,179.485 189.666,175.182 191.16,175.182 C193.61,175.182 194.506,173.689 194.506,169.386 C194.506,165.98 194.865,164.606 196.657,160.841 C200.183,153.371 207.115,147.276 212.851,146.559 L216.018,146.201 L216.198,143.81 C216.317,142.496 216.676,141.121 216.974,140.763 C217.273,140.345 217.691,138.193 217.931,135.982 C218.17,133.652 218.946,130.425 219.783,128.573 C220.62,126.72 221.337,123.852 221.396,121.999 C221.576,118.593 223.548,111.662 224.743,110.228 C225.878,108.913 227.611,109.271 228.029,110.945 C228.388,112.498 228.388,112.737 226.535,126.182 C225.041,136.998 224.922,141.898 226.177,142.914 C226.954,143.571 227.731,143.571 230.3,142.914 C233.288,142.197 237.052,142.317 240.937,143.273 C243.088,143.751 243.626,142.556 244.402,135.385 C244.761,132.098 245.598,126.123 246.195,121.999 C246.852,117.876 247.51,112.917 247.689,110.945 C247.928,108.973 248.406,106.284 248.884,104.969 C249.302,103.654 249.84,101.324 250.079,99.83 C250.259,98.276 250.916,96.603 251.573,96.006 C252.589,95.109 252.828,95.109 254.501,95.946 C257.848,97.679 258.445,99.292 258.206,106.343 C258.146,109.809 257.788,113.156 257.489,113.693 C257.19,114.291 256.712,118.235 256.413,122.478 C256.115,126.78 255.577,130.843 255.159,131.56 C254.8,132.218 254.561,133.951 254.681,135.325 C254.8,137.357 255.099,137.895 256.115,138.014 C257.071,138.134 258.744,136.759 262.628,132.576 C265.496,129.469 268.723,125.645 269.859,124.091 C270.934,122.478 272.727,120.685 273.802,120.028 C274.878,119.43 276.372,118.354 277.089,117.637 C279.121,115.845 279.42,116.801 278.165,120.625 C277.268,123.254 275.774,125.406 271.771,129.887 C268.843,133.114 266.512,136.102 266.512,136.58 C266.512,136.998 265.974,138.074 265.317,138.91 C263.943,140.703 263.763,142.795 265.018,143.273 C265.496,143.452 266.572,144.826 267.409,146.26 C269.022,149.009 271.831,150.443 274.878,149.965 C276.671,149.726 276.432,150.921 281.75,117.518 C282.527,112.618 283.602,107.24 284.081,105.567 C284.618,103.953 285.037,101.862 285.037,101.025 C285.037,98.874 286.65,95.109 287.606,95.109 C288.323,95.109 291.251,98.336 292.626,100.726 C293.701,102.579 293.582,111.243 292.446,113.992 C291.849,115.426 291.311,119.071 291.072,123.195 C290.833,127.019 290.295,130.724 289.877,131.501 C289.339,132.457 288.981,135.684 288.921,140.584 C288.741,146.44 288.502,148.531 287.726,149.667 C287.188,150.503 286.829,151.818 286.949,152.595 C287.128,153.79 287.427,153.969 289.22,153.79 C301.47,152.834 302.187,152.893 306.25,154.746 C308.401,155.762 311.031,157.315 312.166,158.152 C314.855,160.184 319.337,168.848 320.89,174.943 C321.906,178.947 321.966,180.023 321.368,183.309 C320.591,187.731 321.07,188.747 322.862,186.357 C326.627,181.457 327.284,180.979 330.511,181.278 C334.694,181.696 335.172,182.413 333.26,185.221 C330.75,188.807 330.87,188.986 336.666,189.763 C340.132,190.241 340.431,190.839 338.817,194.304 C337.263,197.591 337.562,198.487 340.371,198.487 C342.94,198.487 345.51,199.264 345.809,200.16 C346.048,200.639 345.51,202.192 344.733,203.686 C343.06,206.674 343.538,207.451 347.063,207.451 C349.513,207.451 351.366,208.407 351.366,209.602 C351.366,210.14 350.828,211.335 350.111,212.291 C348.139,215.04 348.737,216.056 352.561,216.414 C354.354,216.593 356.206,216.952 356.624,217.191 C357.581,217.848 357.521,219.402 356.505,220.537 C354.593,222.689 349.573,231.652 349.573,232.907 C349.573,234.46 350.231,234.998 352.74,235.476 C353.756,235.715 354.652,236.134 354.772,236.552 C354.892,236.91 353.696,238.823 352.143,240.854 C345.271,249.579 345.45,249.22 346.824,252.447 C348.02,255.315 358.835,264.458 369.89,271.987 C379.152,278.262 383.156,282.325 379.093,281.309 C374.91,280.234 359.074,273.003 343.478,264.936 C341.028,263.681 340.431,263.562 338.578,264.219 C337.144,264.697 336.367,265.414 335.889,266.669 C335.531,267.685 334.455,269.239 333.439,270.195 C331.945,271.629 331.706,272.167 332.184,273.063 C333.857,276.23 355.489,292.902 357.879,292.902 C358.776,292.902 363.377,291.647 368.157,290.153 C372.878,288.6 382.26,285.671 389.012,283.52 C395.765,281.429 401.92,279.337 402.756,278.919 C403.593,278.501 406.222,277.963 408.612,277.784 C412.616,277.485 413.213,277.604 417.277,279.457 C419.727,280.532 422.535,282.445 423.85,283.759 C425.762,285.791 426.24,286.747 426.659,289.974 C426.957,292.065 427.256,294.874 427.256,296.248 C427.256,297.802 427.615,299.057 428.332,299.654 C429.826,300.969 435.981,302.642 437.952,302.164 C439.387,301.865 439.865,302.104 441.06,303.778 C441.896,304.853 442.852,306.407 443.211,307.303 L443.868,308.797 L462.572,308.917 C472.91,308.976 481.515,309.036 481.813,309.036 C482.052,309.036 482.232,309.395 482.232,309.873 C482.232,310.291 480.439,311.546 478.228,312.621 C467.89,317.521 453.37,320.808 449.007,319.254 C445.601,318.059 445.422,318.776 447.155,326.186 C447.992,329.712 448.828,333.476 449.067,334.552 C449.246,335.568 449.784,336.703 450.143,337.002 C452.294,338.795 480.678,339.631 491.554,338.257 C498.904,337.36 499.681,337.301 499.979,338.137 C500.338,339.093 496.035,341.185 487.012,344.471 C475.001,348.774 464.902,351.045 457.552,351.045 L453.429,351.045 L453.728,354.032 C453.848,355.646 453.728,357.737 453.37,358.693 C452.892,359.948 452.892,360.725 453.489,361.861 C453.967,362.637 454.326,364.37 454.385,365.625 C454.445,367.896 454.445,367.896 451.995,367.896 C450.023,367.956 448.231,368.792 442.673,372.258 C438.909,374.648 435.383,376.56 434.845,376.56 C434.307,376.56 433.59,376.023 433.232,375.365 C432.395,373.812 431.977,373.871 427.794,375.724 C423.611,377.636 423.432,378.532 425.941,383.731 C428.272,388.392 429.049,388.691 438.61,387.914 C442.972,387.556 448.35,386.898 450.681,386.42 C455.64,385.345 456.537,385.345 456.537,386.181 C456.537,388.691 446.02,398.611 439.446,402.315 C437.713,403.331 435.981,404.526 435.622,405.004 C434.905,405.841 435.024,411.04 435.981,417.553 C436.339,419.884 436.22,420.063 434.128,421.318 C432.873,422.035 431.439,422.573 430.901,422.453 C429.945,422.274 427.854,418.45 424.627,410.681 C423.611,408.231 422.416,406.14 421.998,405.96 C420.683,405.542 421.221,409.307 423.013,412.892 C425.643,417.971 428.451,424.365 428.451,425.262 C428.451,425.74 427.615,426.696 426.599,427.473 C425.583,428.25 422.535,430.879 419.846,433.389 C417.217,435.839 413.871,438.767 412.437,439.842 C409.389,442.232 398.274,448.925 393.912,451.076 C392.179,451.913 389.968,453.586 389.012,454.841 C383.754,461.474 374.073,459.741 374.073,452.152 C374.073,448.925 375.567,446.714 379.152,444.802 C382.32,443.069 382.857,442.053 382.977,437.452 C383.037,435.659 382.559,433.747 381.543,431.775 C379.332,427.473 379.571,426.696 383.634,423.111 C385.546,421.378 387.339,419.585 387.518,419.107 C387.698,418.689 387.1,417.135 386.263,415.641 C385.427,414.207 384.052,411.219 383.276,409.008 C382.021,405.303 381.961,404.825 382.738,403.212 C383.933,400.881 383.873,400.582 382.021,398.192 C380.646,396.34 380.527,395.921 381.124,394.308 C381.782,392.635 381.602,391.978 379.392,387.675 C376.643,382.357 375.507,380.743 374.252,380.743 C372.998,380.743 371.085,378.473 371.085,377.039 C371.026,375.545 368.337,370.704 361.883,360.606 C358.417,355.048 357.76,353.614 357.341,350.328 C357.043,348.236 356.565,346.264 356.206,345.906 C355.31,345.009 353.756,346.503 353.756,348.415 C353.756,349.252 353.159,351.045 352.382,352.359 C348.796,358.693 341.984,359.231 335.351,353.674 C332.841,351.582 330.631,350.447 330.033,351.045 C329.555,351.523 330.929,353.674 333.798,356.901 C335.949,359.351 336.427,360.247 336.188,361.502 C336.009,362.398 335.351,367.179 334.634,372.079 C333.977,377.039 332.841,383.791 332.124,387.137 C330.989,392.874 330.929,393.352 331.826,395.623 C332.543,397.415 332.782,399.686 332.662,404.586 C332.543,410.98 332.483,411.159 331.109,411.518 C329.794,411.876 329.734,412.056 330.033,415.402 L330.332,418.987 L326.029,425.381 C321.488,432.134 318.261,435.002 313.54,436.436 C310.015,437.512 309.716,436.556 312.166,431.954 C313.301,429.743 314.735,426.517 315.273,424.664 C316.588,420.601 316.05,419.884 312.106,420.063 C308.401,420.182 307.266,420.601 306.848,422.035 C306.37,423.589 304.577,424.425 300.932,424.903 C298.063,425.262 297.884,425.381 297.227,427.652 C296.868,428.967 295.793,431.118 294.956,432.432 C294.06,433.747 290.833,439.962 287.785,446.176 C283.184,455.618 281.75,458.008 279.3,460.339 C276.671,462.848 276.073,463.207 273.683,463.147 C272.189,463.147 269.679,462.609 268.006,461.952 z M417.098,427.652 C419.787,425.919 420.085,424.545 418.173,422.752 C415.663,420.541 414.767,420.601 412.556,422.991 C410.345,425.441 410.046,426.756 411.481,428.19 C412.795,429.504 414.349,429.385 417.098,427.652 z M345.629,352.06 C347.422,351.403 348.557,349.431 348.079,347.937 C347.721,346.682 342.462,344.053 340.849,344.412 C340.251,344.531 339.355,345.308 338.817,346.264 C338.04,347.698 338.04,348.057 338.817,349.491 C339.713,351.104 341.984,352.658 343.418,352.658 C343.777,352.658 344.793,352.419 345.629,352.06 z M395.227,341.065 C396.362,338.257 397.856,337.958 401.262,339.81 C405.983,342.32 411.6,341.484 407.955,338.795 C406.939,338.078 406.102,336.524 405.445,334.253 C404.728,331.863 403.712,330.07 402.039,328.337 C400.665,326.963 398.872,324.513 398.035,322.959 C395.705,318.597 394.091,318.776 387.518,324.274 C385.307,326.126 385.068,328.218 386.801,330.309 C387.578,331.265 389.012,334.074 389.849,336.524 C391.402,340.826 392.837,343.097 393.852,343.097 C394.151,343.097 394.749,342.201 395.227,341.065 z M340.729,300.312 C345.749,298.639 348.02,297.204 347.302,296.069 C346.585,294.934 333.379,288.6 332.423,288.958 C331.766,289.197 331.646,290.452 331.766,294.814 C331.945,300.013 332.005,300.371 333.439,301.089 C335.411,302.104 335.411,302.104 340.729,300.312 z M115.389,179.365 C117.54,179.365 119.154,179.067 119.691,178.529 C120.17,178.051 120.887,175.541 121.245,172.971 C121.663,170.402 122.141,167.713 122.321,166.996 C122.5,166.04 122.321,165.502 121.663,165.263 C120.946,164.964 119.691,165.86 117.54,168.071 C115.807,169.864 113.118,172.314 111.565,173.629 C107.262,177.035 106.426,180.441 110.131,179.724 C111.087,179.545 113.477,179.365 115.389,179.365 z M147.299,179.126 C148.972,178.409 149.39,177.931 149.39,176.557 C149.331,174.286 147.837,171.776 144.191,167.773 C140.905,164.187 139.411,163.649 138.933,165.801 C137.857,170.701 136.782,177.812 137.081,178.469 C137.26,178.947 138.574,179.365 140.248,179.545 C141.801,179.664 143.594,179.784 144.191,179.843 C144.789,179.903 146.163,179.545 147.299,179.126 z" fill="#000000"/>
  </g>
</svg>
