<?xml version="1.0" encoding="UTF-8"?>
<!DOCTYPE svg PUBLIC "-//W3C//DTD SVG 1.1//EN" "http://www.w3.org/Graphics/SVG/1.1/DTD/svg11.dtd">
<svg version="1.1" xmlns="http://www.w3.org/2000/svg" xmlns:xlink="http://www.w3.org/1999/xlink" x="0" y="0" width="500" height="500" viewBox="0, 0, 500, 500">
  <g id="layer101">
    <path d="M172.531,499.221 C162.453,494.703 161.41,488.101 168.708,475.59 C170.793,471.999 172.531,468.409 172.531,467.598 C172.531,466.787 173.689,464.934 175.079,463.428 C177.512,460.763 177.512,460.532 175.658,457.404 C174.268,454.972 173.573,450.338 173.11,440.376 C172.762,432.731 172.183,424.623 171.836,422.19 C171.256,418.252 171.604,417.441 175.311,413.966 C177.743,411.765 180.292,407.943 181.45,404.583 C183.187,399.139 183.187,398.908 181.218,397.749 C173.805,393.463 169.519,382.575 168.708,365.895 C168.245,355.817 168.361,354.543 171.372,348.519 C173.11,344.928 175.195,338.673 175.89,334.503 C178.902,316.665 181.797,286.432 181.797,272.879 C181.797,253.882 182.145,253.419 196.277,253.419 C203.227,253.419 206.123,252.955 206.354,252.029 C206.354,251.218 206.586,248.438 206.702,245.889 C206.818,243.341 207.86,238.128 209.019,234.306 C210.756,228.167 212.262,226.197 220.718,217.857 L230.448,208.359 L229.406,200.366 C228.247,191.678 225.467,185.887 222.456,186.466 C220.486,186.929 220.023,191.794 221.645,196.428 C222.919,200.25 219.676,199.787 216.085,195.501 C214.347,193.3 212.957,189.941 212.494,186.466 C212.146,183.454 211.683,180.211 211.567,179.284 C211.335,177.894 209.83,177.662 204.617,177.894 C197.204,178.242 184.809,175.693 179.133,172.681 C177.048,171.639 172.531,170.133 169.056,169.322 C156.198,166.426 148.205,162.372 148.205,159.013 C148.205,158.202 147.163,156.696 145.889,155.538 C142.645,152.526 139.749,155.075 140.676,160.055 C142.066,166.658 142.529,167.469 145.425,168.164 C149.595,169.206 153.997,173.956 153.997,177.431 C153.997,179.4 151.912,182.527 147.51,186.929 L141.139,193.532 L133.494,189.593 C129.324,187.393 125.154,184.497 124.227,182.991 C121.911,179.516 123.069,173.956 127.007,169.786 C129.672,167.006 129.903,166.079 129.324,160.519 C128.629,154.843 128.166,153.916 121.331,147.661 C114.266,141.174 113.918,141.059 108.821,141.754 C104.535,142.333 103.261,141.985 101.524,140.132 C98.396,136.773 99.439,133.761 103.84,132.834 C109.169,131.792 110.79,130.054 111.486,125.073 C111.833,122.757 112.644,118.471 113.339,115.575 C114.613,109.899 113.223,102.717 110.327,100.4 C108.358,98.663 108.358,96.462 110.559,94.724 C114.15,91.829 111.254,59.858 106.968,53.603 C106.041,52.445 105.346,50.591 105.346,49.549 C105.346,47.811 100.018,42.946 95.269,40.398 C91.794,38.544 91.909,37.27 95.964,35.185 C100.597,32.753 103.03,26.034 102.219,18.042 C101.524,10.86 103.145,4.489 106.505,1.477 C108.474,-0.26 109.285,-0.376 111.717,0.666 C115.076,2.288 119.246,8.543 119.246,12.134 C119.246,16.42 122.49,18.621 127.587,17.81 C131.293,17.231 131.988,17.347 131.988,19.2 C131.988,20.358 131.177,22.327 130.251,23.602 C129.324,24.76 128.513,27.077 128.513,28.698 C128.513,30.32 127.702,32.868 126.892,34.49 C125.733,36.459 125.617,38.081 126.428,40.282 C127.007,41.904 127.587,47.116 127.587,51.865 C127.587,60.785 130.251,79.55 131.757,80.94 C132.22,81.403 133.61,81.983 134.884,82.214 C136.622,82.562 137.201,83.488 136.969,86.037 C136.39,95.535 137.78,99.821 143.224,105.497 C146.004,108.509 148.784,110.941 149.364,110.941 C149.943,110.941 151.912,109.551 153.881,107.93 L157.472,104.918 L158.746,107.814 C160.368,111.405 157.472,118.586 153.649,120.324 C151.101,121.482 147.047,127.853 147.047,130.749 C147.047,131.328 149.248,134.224 151.796,137.004 C155.155,140.595 157.588,142.217 159.673,142.217 C165.233,142.217 171.141,144.534 172.994,147.429 C176.237,152.295 180.987,154.032 188.748,153.105 C196.393,152.295 197.088,151.252 193.381,146.503 C188.863,140.711 188.4,129.012 192.107,113.837 C194.423,104.918 195.35,101.559 197.435,95.883 C200.099,88.817 199.289,75.032 195.698,68.198 C189.558,56.036 197.204,59.395 203.922,71.789 L207.86,79.087 L207.745,95.883 C207.745,108.509 207.281,113.721 205.891,116.849 C201.374,127.274 203.111,136.773 210.061,139.205 C214.695,140.943 215.737,139.089 214.115,132.139 C213.305,128.896 213.073,124.957 213.536,123.22 C214.231,120.44 214.695,120.208 218.17,120.787 C221.529,121.482 222.34,121.135 224.193,118.471 C230.217,110.131 229.753,110.362 234.618,111.752 C237.167,112.563 240.642,113.49 242.379,113.837 C244.928,114.301 246.202,115.691 247.939,119.629 C250.488,125.537 252.109,126 255.7,122.177 C259.986,117.66 258.944,113.953 250.951,105.381 C245.507,99.242 239.252,86.153 237.514,77.118 C235.661,66.924 239.599,50.128 244.233,48.622 C245.507,48.159 245.623,49.085 244.812,53.719 C242.148,68.43 244.58,76.654 255.121,88.817 C268.674,104.455 276.435,118.471 275.276,125.421 C274.581,129.707 271.454,136.888 267.284,143.607 C265.199,147.082 264.851,148.356 265.894,149.978 C268.095,153.453 270.875,153.105 282.69,147.429 C292.652,142.796 295.432,141.985 303.656,141.522 C313.039,140.943 317.209,141.869 315.703,144.302 C315.355,144.997 311.764,146.966 307.71,148.935 C294.505,155.19 288.366,162.604 288.366,172.218 C288.366,173.724 289.987,178.242 291.957,182.296 C294.853,188.203 295.779,191.678 296.358,199.903 C297.053,210.096 297.169,210.212 302.266,216.004 C311.996,226.776 317.093,235.927 317.325,242.762 C317.325,245.542 321.147,253.882 323.695,256.894 C324.506,257.82 326.244,261.759 327.518,265.465 C329.256,270.678 329.603,273.111 328.676,275.543 C327.518,278.902 329.024,285.157 335.395,302.301 C339.681,313.885 347.326,318.981 354.855,315.39 C361.342,312.263 363.079,313.305 362.848,319.792 C362.5,324.541 362.848,325.468 365.164,326.395 C366.555,326.974 370.493,329.754 373.968,332.418 C381.381,338.326 383.003,342.148 384.393,356.512 C384.856,361.956 385.899,367.516 386.594,368.906 C389.027,373.424 388.216,382.922 384.277,397.054 C383.235,400.877 383.582,401.688 389.606,410.723 C393.081,416.051 396.324,422.306 396.672,424.623 C397.135,427.055 398.177,431.573 399.104,434.701 C400.61,439.45 400.61,441.419 399.452,445.705 C397.251,453.698 397.714,460.532 400.61,464.123 C404.433,468.756 407.908,476.749 407.097,479.181 C406.054,482.54 397.367,485.089 391.575,483.815 C389.027,483.235 385.204,482.772 383.119,482.888 C378.138,482.888 371.535,481.614 369.682,480.108 C367.713,478.602 366.439,479.992 368.176,481.961 C369.219,483.351 368.987,483.467 366.67,483.12 C365.164,482.772 362.384,483.351 360.299,484.394 C358.33,485.436 354.276,486.479 351.264,486.826 L345.704,487.29 L350.917,486.247 C361.574,484.046 368.292,478.718 368.292,472.347 C368.292,471.189 370.145,468.293 372.346,465.86 C377.327,460.648 378.37,457.288 376.053,453.582 C375.01,452.192 373.736,448.717 373.041,446.168 C372.346,443.504 370.956,440.608 369.914,439.797 C367.018,437.365 363.311,442.577 361.574,451.612 C360.068,458.794 360.184,459.373 362.964,465.049 C367.018,473.042 366.786,474.895 361.342,478.718 C356.94,481.73 356.361,481.845 344.314,481.382 C332.962,480.919 331.341,480.571 326.939,477.675 C322.421,474.548 322.19,474.085 322.653,469.567 C323.116,465.397 322.653,464.239 318.599,459.258 C311.533,450.802 309.564,446.863 308.753,439.797 C308.405,436.322 307.363,431.341 306.552,428.793 C305.046,424.507 304.699,424.275 299.833,424.16 C297.053,424.044 293.694,423.58 292.42,423.233 C290.682,422.654 288.713,423.696 284.891,427.287 C279.794,431.921 279.678,432.036 276.203,430.299 C274.35,429.256 270.527,428.445 267.747,428.445 C264.967,428.445 261.145,428.098 259.291,427.75 L255.932,426.94 L255.932,438.639 C255.932,449.064 255.7,450.338 253.615,451.497 C252.109,452.307 250.604,452.307 249.213,451.612 C247.939,450.917 246.433,450.917 245.391,451.612 C242.148,453.698 239.947,452.655 238.557,448.601 C236.935,443.736 232.07,437.596 229.753,437.596 C226.973,437.596 224.772,432.5 223.151,422.538 C221.413,410.839 220.023,410.144 214.926,418.484 C212.03,423.117 211.335,425.665 211.22,431.225 C211.104,438.176 208.903,445.705 206.354,448.253 C205.544,449.064 204.964,450.802 204.964,452.307 C204.964,453.698 203.343,456.593 201.374,458.563 L197.667,462.385 L200.679,464.702 C202.3,466.092 205.428,469.799 207.629,473.042 C211.335,478.486 211.567,479.297 210.756,484.046 C209.25,491.923 208.671,492.734 202.879,495.282 C194.192,499.105 186.894,500.495 184.114,498.757 C182.261,497.599 181.334,497.599 179.481,498.757 C176.932,500.263 175.195,500.379 172.531,499.221 z M287.207,261.295 C290.219,258.052 290.567,246.468 287.671,244.036 C286.049,242.762 285.586,242.878 284.196,244.731 C283.269,245.889 282.574,247.974 282.574,249.249 C282.574,250.639 281.763,252.724 280.836,253.882 C278.404,257.125 278.636,259.905 281.647,261.99 C284.891,264.307 284.312,264.307 287.207,261.295 z M261.955,247.743 C263.461,246.468 266.241,243.341 268.095,240.677 L271.454,235.812 L268.674,233.495 C266.473,231.757 264.62,231.294 260.913,231.757 C251.878,232.684 234.734,243.109 236.819,246.353 C237.398,247.511 239.831,247.627 245.97,247.048 C252.804,246.468 254.658,246.584 255.816,248.09 C257.785,250.407 258.48,250.407 261.955,247.743 z" fill="#000000"/>
  </g>
</svg>
