<?xml version="1.0" encoding="UTF-8"?>
<!DOCTYPE svg PUBLIC "-//W3C//DTD SVG 1.1//EN" "http://www.w3.org/Graphics/SVG/1.1/DTD/svg11.dtd">
<svg version="1.1" xmlns="http://www.w3.org/2000/svg" xmlns:xlink="http://www.w3.org/1999/xlink" x="0" y="0" width="500" height="500" viewBox="0, 0, 500, 500">
  <g id="layer101">
    <path d="M201.426,494.065 C198.042,492.749 197.289,491.432 198.23,487.86 C198.794,485.228 198.418,482.596 197.289,482.032 C194.281,479.964 173.036,485.228 174.352,487.484 C175.104,488.612 174.916,488.988 173.976,488.236 C173.224,487.484 170.78,483.348 168.524,478.836 C170.216,474.324 171.156,474.512 174.164,472.256 C176.232,470.751 177.737,468.683 177.737,467.555 C177.737,466.427 179.053,464.923 180.745,464.359 C182.437,463.795 187.325,459.095 191.837,453.831 C196.349,448.754 201.426,443.49 203.118,442.174 C207.63,438.978 213.834,423.561 215.526,412.093 C216.466,404.008 215.902,400.812 211.954,392.352 C209.51,386.899 203.87,379.003 199.734,374.679 C192.401,367.534 192.025,366.594 191.649,354.938 C191.461,348.358 192.025,340.273 192.777,337.077 C193.529,333.317 192.777,326.736 190.145,318.088 C184.129,297.971 184.505,265.069 191.085,246.081 C193.905,237.996 195.785,228.032 195.785,222.955 C195.597,212.239 199.17,204.531 211.578,188.738 C219.475,178.585 220.227,176.705 219.099,170.125 C216.466,153.392 211.954,152.076 198.042,164.297 C185.069,175.765 177.361,175.389 156.115,161.852 C149.535,157.716 142.391,154.896 136.563,154.144 C127.914,153.016 127.162,152.452 125.658,147 C124.718,143.616 123.214,140.795 122.274,140.795 C119.078,140.795 103.473,118.234 98.585,106.578 C94.072,95.673 93.696,93.417 94.448,69.54 C95.013,44.535 95.201,43.783 101.593,31.938 C111.745,13.325 128.102,4.677 138.819,12.197 C142.203,14.641 142.767,15.769 140.887,17.837 C139.759,19.341 137.503,20.47 135.999,20.47 C134.494,20.47 130.358,23.29 126.974,26.674 L120.77,32.878 L121.334,60.892 L121.71,88.717 L128.478,95.109 C139.195,104.698 152.355,103.194 152.355,92.477 C152.355,89.469 150.287,86.837 145.775,84.017 C136.939,78.94 138.255,75.932 149.159,76.12 C159.876,76.12 165.892,81.197 170.028,93.417 C173.788,103.946 171.344,114.474 163.26,122.935 C160.44,126.131 157.996,130.079 157.996,131.959 C157.996,135.531 167.02,140.795 173.412,140.795 C177.737,140.795 186.385,131.959 194.281,119.55 C196.161,116.73 199.546,113.346 201.99,112.406 C204.246,111.278 207.818,107.894 209.51,104.886 C214.774,96.049 221.167,92.853 233.763,92.853 C242.036,92.853 245.42,92.101 246.924,89.845 C249.368,85.897 247.3,78.376 242.036,71.796 C239.592,68.976 236.959,63.148 236.207,59.011 C230.943,28.366 230.943,29.306 234.139,21.034 C237.523,12.385 243.54,6.745 253.692,2.421 C267.417,-3.22 285.654,1.105 303.327,14.265 C328.52,33.066 326.828,32.314 336.792,31.186 C342.057,30.434 346.381,30.81 347.133,31.938 C349.013,35.134 343.937,39.27 336.228,40.399 C320.811,43.031 335.476,54.311 355.405,55.439 C366.31,56.003 366.122,55.815 364.43,66.532 C363.866,69.728 365.37,70.48 375.898,71.796 C388.119,73.3 399.775,78 404.288,83.453 C408.048,87.965 405.416,88.717 392.443,86.461 C372.138,82.889 358.977,84.393 366.874,89.281 C371.386,92.101 379.846,107.894 379.846,113.91 C379.846,117.294 379.094,120.114 378.154,120.114 C377.214,120.114 373.454,115.79 369.694,110.714 C359.353,96.237 346.381,89.469 336.416,93.229 C331.904,94.921 330.588,94.545 327.204,90.973 C325.136,88.717 318.931,84.393 313.479,81.385 C308.027,78.564 299.942,73.3 295.242,69.728 L286.97,63.336 L283.586,67.472 C279.449,72.548 279.261,75.744 283.022,78.752 C284.526,80.068 287.534,84.769 289.414,89.281 C294.114,99.621 302.575,105.074 314.231,105.074 C325.7,105.074 331.904,109.962 335.476,122.183 C337.168,127.447 340.176,133.087 342.245,134.779 C345.253,137.223 346.757,141.547 348.073,152.828 C349.201,160.912 351.269,170.689 352.961,174.449 C355.593,180.653 356.533,187.798 357.849,213.179 C358.225,218.443 359.541,224.459 360.669,226.716 C362.55,230.288 362.55,231.98 359.917,236.868 C357.285,241.944 357.285,244.012 359.353,251.157 C362.174,261.685 360.481,299.287 356.721,305.115 C355.217,307.372 353.149,312.072 351.833,315.832 C349.201,323.916 332.092,340.837 322.504,344.785 C318.931,346.289 313.855,347.605 311.223,347.605 C308.591,347.605 305.959,348.922 305.207,350.614 C304.643,352.118 306.523,360.954 309.343,370.167 C314.607,387.839 314.607,391.788 308.967,407.204 C306.523,413.973 306.523,417.169 308.403,430.706 C309.719,439.354 311.035,449.694 311.223,453.643 C311.411,458.907 312.727,461.915 315.547,463.795 C317.803,465.299 319.683,467.555 319.683,469.059 C319.683,470.375 321.376,473.196 323.444,475.076 C325.512,476.956 327.768,481.28 328.332,484.476 C329.46,490.492 329.46,490.492 321.94,490.492 C317.615,490.492 311.411,488.8 307.839,486.732 C302.387,483.536 300.13,483.16 293.362,484.664 C289.038,485.604 284.526,487.672 283.398,489.364 C280.202,493.877 269.673,491.432 268.169,485.98 C266.289,479.024 267.041,467.931 269.673,462.667 C270.989,459.847 273.621,448.942 275.313,438.414 C278.133,420.553 278.133,418.673 275.125,412.657 C268.733,399.12 261.965,404.76 264.221,422.057 C265.349,431.27 264.973,432.586 260.649,436.91 C258.016,439.542 254.444,441.61 252.376,441.61 C246.736,441.61 239.404,451.199 236.019,462.667 C232.635,474.512 228.875,479.588 224.927,478.084 C222.483,477.144 216.278,483.724 216.278,487.108 C216.466,491.056 211.578,492.561 210.262,493.877 C207.63,496.509 207.442,496.509 201.426,494.065 z M256.512,390.096 C255.572,385.395 245.608,370.167 244.292,371.483 C243.54,372.235 242.224,376.559 241.472,380.695 C240.532,387.275 240.908,389.155 244.48,392.728 C248.052,396.3 248.992,396.488 252.564,394.044 C254.82,392.54 256.512,390.66 256.512,390.096 z M238.84,348.546 C238.84,343.093 230.943,324.856 228.875,325.608 C227.559,325.984 226.431,329.181 226.055,332.941 C225.679,337.829 226.807,341.025 230.379,345.537 C235.831,351.93 238.84,353.058 238.84,348.546 z M315.923,330.685 C317.803,329.745 319.871,326.36 320.624,323.352 C321.188,320.156 323.444,314.328 325.512,310.192 C327.392,306.055 329.084,300.979 329.084,299.099 C329.084,297.031 330.776,291.579 332.844,286.691 C336.04,279.546 336.416,276.914 334.912,271.086 C331.716,259.429 325.888,251.345 321,252.097 C315.735,252.849 314.419,261.309 318.555,267.702 C322.692,273.906 322.316,276.914 317.803,275.41 C315.735,274.846 312.351,273.718 310.283,273.154 C306.711,272.026 306.523,272.778 306.523,289.699 C306.523,299.663 305.583,312.072 304.643,317.524 C302.011,331.061 306.147,335.949 315.923,330.685 z M316.299,224.835 L328.144,216.939 L327.58,201.898 C327.016,188.926 326.076,184.79 319.495,171.441 C310.471,152.452 308.027,151.888 293.926,165.049 C286.218,172.193 283.962,175.577 283.962,179.901 C283.962,186.67 292.234,205.471 298.438,212.991 C303.139,218.631 303.327,222.391 299.942,234.8 C298.814,239.312 298.814,239.312 301.635,236.116 C303.139,234.048 309.719,228.972 316.299,224.835 z" fill="#000000"/>
  </g>
</svg>
