<?xml version="1.0" encoding="UTF-8"?>
<!DOCTYPE svg PUBLIC "-//W3C//DTD SVG 1.1//EN" "http://www.w3.org/Graphics/SVG/1.1/DTD/svg11.dtd">
<svg version="1.1" xmlns="http://www.w3.org/2000/svg" xmlns:xlink="http://www.w3.org/1999/xlink" x="0" y="0" width="500" height="500" viewBox="0, 0, 500, 500">
  <g id="Layer_1">
    <path d="M379.086,460.521 C378.551,460.187 376.746,459.719 375.142,459.451 C373.47,459.184 369.994,457.847 367.387,456.443 C363.242,454.237 362.172,453.969 359.498,454.237 C356.824,454.571 356.289,454.905 355.353,456.844 C354.818,458.047 354.016,459.251 353.615,459.518 C352.211,460.387 349.804,459.05 348.066,456.443 C345.994,453.301 346.06,450.894 348.4,443.273 C349.069,441 349.938,436.52 350.406,433.378 C351.074,428.097 351.008,427.495 349.938,426.292 C348.4,424.554 348.467,420.676 350.205,418.403 C352.278,415.595 352.412,414.258 351.676,405.3 C350.606,391.996 347.13,380.698 343.52,378.826 C340.445,377.288 338.239,374.547 337.236,371.071 C336.367,368.13 335.899,367.461 334.428,367.127 C333.425,366.926 331.754,366.458 330.684,366.124 C327.81,365.255 327.208,366.191 328.277,369.868 C329.013,372.408 329.013,373.411 328.211,375.684 C326.874,379.829 327.007,389.121 328.411,390.726 C330.617,393.2 330.617,395.807 328.344,400.754 C327.141,403.228 325.737,405.835 325.135,406.436 C323.598,408.175 320.924,407.907 318.851,405.902 C316.11,403.294 315.241,404.097 314.171,410.047 C313.703,412.921 312.768,415.796 312.233,416.531 C310.561,418.537 307.352,417.467 302.806,413.256 C300.667,411.25 298.795,409.645 298.595,409.645 C298.461,409.645 297.258,410.581 295.854,411.651 C294.45,412.788 292.845,413.657 292.244,413.657 C291.642,413.657 289.837,412.386 288.232,410.849 L285.224,408.041 L285.358,402.626 C285.491,399.684 285.692,396.743 285.892,396.074 C286.36,394.603 284.89,386.247 283.954,385.11 C282.684,383.372 281.48,384.308 280.477,387.918 C279.274,391.929 277.603,393.601 274.661,393.601 C273.458,393.601 272.455,394.135 271.72,395.272 C269.647,398.414 266.706,398.013 265.368,394.403 C264.433,391.996 265.903,381.768 267.441,379.495 C269.112,377.155 269.112,376.62 267.24,374.013 C265.235,371.339 263.831,366.792 264.299,364.72 C264.499,363.918 265.235,361.511 266.037,359.505 C268.377,353.288 267.642,351.55 263.965,354.692 C262.761,355.762 260.756,357.166 259.552,357.767 C258.015,358.57 256.945,359.907 256.009,362.046 C255.274,363.784 254.07,365.79 253.402,366.525 C252.065,367.929 248.053,379.361 248.053,381.634 C248.053,382.369 248.789,383.238 249.725,383.706 C251.196,384.375 251.396,384.843 251.396,387.985 C251.396,389.924 251.597,391.996 251.797,392.598 C252.198,393.668 258.817,397.01 262.293,397.879 C266.505,398.882 263.229,401.623 257.747,401.623 C253.602,401.623 252.867,402.091 251.396,405.434 C250.728,407.038 249.19,409.445 248.053,410.849 C245.981,413.389 245.513,415.261 246.783,416.063 C247.184,416.264 248.12,417.868 248.856,419.473 C250.26,422.682 250.126,426.091 248.388,428.766 C247.853,429.568 247.519,431.707 247.519,433.579 C247.586,436.922 247.586,436.922 248.856,435.518 C250.126,434.047 250.126,434.047 248.989,436.32 C248.12,438.125 248.053,438.927 248.655,439.863 C249.658,441.534 249.591,444.61 248.388,446.147 C247.853,446.816 247.385,447.952 247.385,448.621 C247.385,449.289 246.65,450.56 245.714,451.496 C243.374,453.769 240.833,453.434 239.028,450.627 C237.29,447.886 235.285,447.819 233.145,450.426 C230.872,453.1 228.465,453.969 226.326,452.966 C225.39,452.565 224.454,451.496 224.254,450.627 C223.919,449.356 222.649,448.621 221.78,449.289 C221.646,449.356 221.045,449.022 220.443,448.554 C219.641,447.886 219.039,447.819 217.969,448.42 C215.362,449.824 210.148,450.025 208.276,448.822 C205.267,446.816 206.203,441.936 209.947,440.398 C211.552,439.729 211.953,439.128 211.953,437.59 C211.953,436.52 212.421,434.983 213.022,434.047 C213.557,433.178 214.159,431.039 214.293,429.233 C214.827,421.278 215.763,417.267 217.568,414.659 C218.972,412.654 219.24,411.651 218.839,410.314 C218.304,408.509 218.371,404.899 218.972,398.949 C219.173,396.943 219.106,394.938 218.839,394.537 C218.571,394.135 216.632,392.732 214.627,391.395 C208.61,387.383 205.802,384.375 208.142,384.174 C208.543,384.107 211.485,384.174 214.627,384.241 L220.309,384.308 L223.251,381.3 C226.126,378.358 226.192,378.291 225.123,376.62 C224.521,375.751 223.719,373.812 223.385,372.408 C222.983,371.004 222.382,368.531 221.981,366.859 C221.513,365.188 220.911,362.982 220.51,361.845 C218.504,356.096 217.1,349.879 216.499,344.463 C216.164,341.188 215.429,337.444 214.894,336.241 C213.624,333.299 213.691,331.828 215.295,330.424 C216.432,329.421 216.632,328.352 216.632,323.338 C216.632,317.789 216.766,317.187 219.039,312.976 C221.245,309.031 221.513,308.095 221.446,303.817 C221.446,299.805 221.646,298.602 222.983,296.663 C226.059,292.117 226.727,289.711 226.259,284.095 C225.858,279.014 225.858,278.88 228.131,275.605 C229.401,273.799 231.541,270.189 232.811,267.582 C234.081,265.042 236.287,260.83 237.624,258.356 C238.961,255.816 240.031,252.808 240.031,251.604 C240.031,248.997 241.034,247.86 243.441,247.86 C244.443,247.86 245.58,247.392 246.048,246.858 C247.184,245.454 245.914,242.98 242.906,240.64 C241.301,239.504 240.7,238.434 240.7,237.097 C240.7,235.827 240.098,234.824 238.694,233.821 C236.287,232.15 236.22,231.414 238.092,229.409 C240.633,226.735 238.092,223.793 233.145,223.793 C230.471,223.793 230.07,223.459 227.396,219.581 C225.056,216.172 221.58,214.033 220.243,215.169 C219.775,215.503 219.307,216.64 219.106,217.643 C218.638,220.116 211.217,227.136 209.145,227.136 C208.276,227.136 206.404,227.738 204.933,228.54 C202.727,229.743 201.992,229.81 199.852,229.208 C198.515,228.807 196.576,228.473 195.507,228.473 C194.437,228.473 192.365,227.671 190.894,226.802 C188.821,225.531 187.685,225.264 185.746,225.598 C183.473,225.933 183.206,225.799 183.206,224.529 C183.206,221.988 181.936,220.517 179.195,219.782 C176.52,219.047 176.52,219.047 176.454,215.57 C176.387,213.632 176.454,211.225 176.52,210.222 C176.587,209.019 175.919,207.615 174.582,206.01 C172.91,204.138 172.509,203.069 172.509,200.729 C172.509,198.255 172.242,197.587 170.771,196.584 C169.835,195.982 167.896,195.447 166.492,195.447 C164.821,195.381 163.35,194.846 162.348,193.977 C160.342,192.105 156.732,190.3 149.779,187.759 C146.637,186.556 143.227,185.152 142.091,184.55 C136.743,181.676 132.063,179.536 130.124,179.202 C128.988,179.001 127.45,178.266 126.715,177.664 C124.107,175.391 119.628,173.586 114.949,173.052 C111.338,172.584 109.734,171.982 107.929,170.511 C102.781,166.366 101.31,165.564 99.973,165.965 C96.631,167.035 94.893,167.102 93.756,166.099 C92.085,164.561 84.129,160.951 82.525,160.951 C80.853,160.951 77.578,158.143 77.578,156.739 C77.578,155.335 73.098,151.592 71.427,151.592 C70.625,151.592 69.221,150.856 68.285,149.987 C67.282,149.051 61.533,145.775 55.449,142.633 C49.365,139.558 42.145,135.614 39.404,133.942 C36.663,132.338 31.984,129.731 28.975,128.26 C23.827,125.786 20.953,124.048 9.053,116.226 C-4.05,107.602 -2.847,105.73 12.128,111.747 C17.075,113.686 23.359,116.427 26.1,117.831 C32.452,121.04 42.48,122.778 56.853,123.246 C69.488,123.647 70.758,123.847 72.697,125.653 C74.168,127.056 77.511,128.594 80.786,129.329 C81.789,129.597 83.059,129.196 84.397,128.193 C86.202,126.856 86.736,126.789 88.943,127.458 C90.28,127.859 92.018,128.193 92.686,128.193 C93.355,128.193 97.767,129.931 102.514,132.004 C109.935,135.279 111.405,136.215 112.742,138.355 C114.481,141.029 117.288,142.232 121.968,142.232 C124.308,142.232 125.043,142.7 128.319,146.11 C130.392,148.182 132.665,150.255 133.4,150.589 C134.135,150.99 135.071,152.06 135.539,152.929 C136.876,155.603 139.016,156.94 141.957,156.94 C143.695,156.94 145.768,157.608 147.707,158.745 C149.645,159.881 151.584,160.483 152.921,160.416 C154.726,160.283 155.796,160.884 159.339,164.227 C163.818,168.506 168.03,171.781 169.969,172.517 C171.306,172.985 177.189,170.712 177.189,169.709 C177.189,168.506 181,166.968 183.874,166.968 C186.482,166.968 186.548,166.901 186.548,164.762 C186.548,163.558 186.883,160.817 187.284,158.678 C187.685,156.539 187.819,154.667 187.685,154.466 C187.484,154.333 185.145,155.269 182.47,156.672 C175.25,160.283 173.512,160.55 171.506,158.411 C170.236,157.007 169.902,156.138 170.236,154.6 C170.504,153.062 170.236,152.26 169.233,151.324 C168.431,150.589 167.83,149.519 167.83,148.851 C167.83,147.046 181.401,133.675 184.61,132.472 C186.08,131.803 188.621,129.864 190.426,127.792 C194.905,122.778 198.448,121.574 199.785,124.516 C200.588,126.254 202.192,126.722 202.994,125.452 C203.195,125.051 203.462,122.31 203.596,119.368 L203.73,114.087 L208.008,109.741 C210.348,107.335 213.624,104.661 215.295,103.925 C216.9,103.123 218.705,101.652 219.24,100.649 C220.176,99.045 220.109,98.443 217.769,92.293 C216.432,88.683 214.827,83.669 214.226,81.061 C213.624,78.521 212.755,75.178 212.22,73.707 C210.415,68.493 211.351,62.209 214.025,61.54 C215.362,61.139 215.362,60.872 214.894,52.047 C214.159,38.476 214.159,38.342 215.362,38.075 C216.164,37.941 217.368,40.147 220.176,46.565 C222.315,51.312 223.986,56.058 223.986,56.994 C223.986,58.398 226.259,64.749 230.738,76.047 C231.14,76.983 231.875,78.387 232.41,79.256 C233.68,81.128 234.616,80.527 237.424,76.114 C239.028,73.707 239.229,72.705 238.895,70.298 C238.427,66.955 239.028,64.014 240.232,64.014 C240.633,64.014 241.836,64.816 242.772,65.886 C243.775,66.888 245.847,68.961 247.452,70.565 C249.056,72.103 251.463,74.443 252.8,75.78 C255.474,78.454 256.009,78.187 257.346,73.975 C257.747,72.638 258.75,70.967 259.485,70.298 C260.822,69.095 260.889,69.095 261.825,70.365 C262.561,71.301 262.694,72.638 262.36,75.379 C262.093,77.652 262.293,80.259 262.828,82.064 L263.63,85.073 L264.366,82.532 C266.171,76.515 269.045,78.387 269.781,85.942 C270.048,88.749 270.516,91.624 270.85,92.293 C271.586,93.63 273.525,93.763 274.661,92.627 C275.062,92.226 277.068,91.825 279.007,91.758 C281.48,91.624 283.553,91.089 285.558,89.886 C287.163,88.95 289.569,88.014 290.84,87.747 C295.72,86.878 296.79,86.075 297.725,82.8 C298.461,80.059 298.795,79.724 300.533,79.724 C301.804,79.657 302.539,79.323 302.673,78.721 C302.673,78.187 303.141,75.446 303.609,72.705 C305.748,59.601 309.157,62.008 310.227,77.384 C310.561,81.596 310.962,85.541 311.163,86.142 C311.765,87.546 319.854,91.424 322.261,91.424 C323.598,91.424 324.601,91.958 325.603,93.429 C326.874,95.234 327.408,95.435 330.417,95.435 C332.289,95.435 335.431,95.903 337.37,96.571 C341.448,97.842 342.25,97.507 344.389,93.362 C346.194,89.685 346.06,83.067 344.055,76.716 C343.186,73.975 342.25,70.766 341.982,69.563 C341.314,66.42 337.035,60.069 333.091,56.526 C329.681,53.518 328.679,51.312 330.617,51.312 C332.422,51.312 337.837,54.454 340.311,56.86 C350.139,66.42 352.345,69.161 355.62,75.981 C357.426,79.724 359.498,83.268 360.233,83.802 C360.969,84.337 361.704,85.541 361.838,86.543 C362.172,89.217 363.509,89.151 364.913,86.343 C365.582,85.006 367.32,83.067 368.791,82.131 C370.796,80.727 371.598,79.657 372.267,77.05 C373.47,72.705 374.273,71.769 375.543,72.838 C376.345,73.44 376.412,74.71 376.078,78.989 C375.81,81.997 375.342,84.671 375.008,85.073 C374.072,86.008 374.273,87.814 375.409,88.749 C376.278,89.485 376.746,89.485 378.083,88.749 C378.952,88.282 380.089,88.081 380.624,88.282 C381.76,88.683 382.362,92.493 381.626,95.101 C381.225,96.705 381.56,97.24 384.033,99.513 C387.175,102.388 392.524,105.463 394.462,105.463 C395.131,105.463 396.602,104.661 397.738,103.725 C402.752,99.513 412.513,77.117 418.797,55.323 C420.268,50.309 420.869,49.44 422.34,50.376 C423.744,51.245 425.282,56.727 425.683,62.409 C426.284,70.164 423.142,87.212 418.463,102.254 C416.925,107.134 415.989,109.14 414.652,110.143 C411.176,112.683 411.109,112.817 411.844,114.154 C412.178,114.822 413.515,116.026 414.719,116.761 C418.529,119.101 419.465,123.246 417.527,128.861 C416.123,132.873 416.19,133.14 419.399,136.683 C420.936,138.488 422.674,141.229 423.209,142.834 L424.145,145.775 L421.538,147.982 C419.131,149.987 418.997,150.255 419.733,151.926 C420.201,152.862 420.535,154.466 420.535,155.469 C420.535,156.472 421.27,158.879 422.206,160.817 C424.145,164.962 424.212,166.901 422.942,173.252 C422.407,175.793 422.073,178.132 422.273,178.4 C423.744,180.807 416.123,182.545 412.446,180.606 C409.237,179.001 408.836,180.071 410.106,185.821 C410.774,188.495 411.376,191.302 411.577,192.038 C412.178,194.913 413.783,196.049 417.059,196.049 C420.134,196.049 420.201,196.116 422.006,199.392 C423.41,202.066 423.945,204.339 424.546,210.757 C425.081,215.971 425.883,220.183 426.886,222.924 C427.755,225.13 428.691,228.54 428.959,230.412 C429.427,233.888 431.298,237.164 432.769,237.164 C433.237,237.164 435.978,236.428 438.853,235.493 C442.53,234.356 444.402,234.022 444.87,234.49 C445.739,235.359 444.268,236.83 439.254,240.039 C433.906,243.515 433.237,244.25 433.237,246.724 C433.237,249.933 434.641,252.139 437.248,252.941 C440.391,254.011 440.324,255.816 437.048,257.554 C435.042,258.624 434.574,259.225 434.708,260.563 C434.842,261.833 435.711,262.635 438.452,263.838 C440.324,264.774 441.928,265.844 441.928,266.245 C441.928,266.646 440.992,267.649 439.923,268.518 C437.984,269.922 437.917,270.123 438.318,273.465 C438.786,277.142 440.123,281.02 444.535,291.516 C447.477,298.535 449.549,306.223 448.948,307.962 C448.48,309.432 454.296,314.313 459.043,316.519 C461.115,317.455 463.388,318.792 463.99,319.393 C464.658,320.062 466.931,320.998 469.071,321.399 C472.747,322.201 473.416,322.669 479.7,328.753 C483.377,332.363 488.124,336.775 490.33,338.514 C497.082,344.129 500.425,347.338 499.957,347.806 C499.756,348.074 497.951,347.806 495.946,347.271 C485.583,344.33 475.288,342.19 469.004,341.722 C463.923,341.254 463.589,341.121 460.58,338.313 C458.909,336.775 456.903,335.438 456.168,335.438 C455.432,335.438 454.095,334.903 453.226,334.168 C450.418,332.029 446.073,330.09 443.934,330.09 C442.797,330.09 441.46,329.555 440.992,328.953 C440.457,328.285 439.187,326.747 438.251,325.611 C437.248,324.407 435.109,322.803 433.371,322.068 L430.296,320.664 L426.017,322.402 L421.672,324.14 L419.599,322.201 C417.861,320.597 417.126,320.329 414.853,320.53 C412.713,320.797 411.911,320.53 410.908,319.46 C409.905,318.324 408.836,318.056 405.76,318.056 C401.482,318.056 397.337,316.719 392.122,313.577 C388.111,311.237 386.908,309.098 387.71,306.156 C388.445,303.817 387.51,299.739 385.838,297.733 C384.835,296.596 373.337,290.647 372,290.647 C371.665,290.647 370.662,290.045 369.727,289.309 C368.791,288.574 367.32,287.972 366.451,287.972 C365.114,287.972 364.98,288.173 365.381,289.844 C365.916,291.917 367.587,293.989 368.724,293.989 C370.529,293.989 371.331,295.928 370.529,298.268 C369.526,301.009 370.729,307.159 372.468,308.028 C373.337,308.496 373.537,309.566 373.47,312.842 C373.403,316.92 373.337,317.12 370.997,318.591 L368.523,320.196 L368.657,328.887 L368.791,337.578 L372.802,341.455 L376.746,345.266 L382.161,345.667 C391.788,346.402 394.128,348.608 387.309,350.48 C378.685,352.887 377.749,353.422 376.813,356.631 C376.546,357.433 375.476,358.369 374.406,358.77 C372,359.572 372.066,359.572 373.738,364.051 C375.476,368.664 375.409,371.606 373.337,377.957 L371.665,383.172 L372.668,393.868 C373.871,406.035 375.342,412.386 377.883,415.729 C380.557,419.205 380.757,421.011 378.819,423.885 C376.813,426.827 376.679,427.495 378.15,429.1 C378.819,429.902 379.554,432.844 380.156,437.122 C381.025,444.209 382.228,446.482 385.37,447.484 C388.312,448.42 390.317,450.426 391.387,453.702 C392.524,457.312 392.791,460.454 391.855,460.454 C390.518,460.454 386.707,458.783 386.239,457.98 C385.905,457.512 385.37,457.245 385.036,457.512 C384.635,457.713 383.632,457.245 382.696,456.376 C381.56,455.306 380.891,455.039 380.356,455.574 C379.821,456.109 379.821,456.443 380.356,456.71 C381.158,457.245 381.359,461.122 380.624,461.122 C380.289,461.122 379.621,460.855 379.086,460.521 z M329.882,341.121 C329.748,337.11 327.943,332.162 326.874,333.232 C326.138,333.967 325.938,343.06 326.606,344.196 C326.874,344.53 327.743,344.798 328.478,344.664 C329.748,344.463 329.949,344.062 329.882,341.121 z M445.739,308.964 C446.14,307.828 439.254,292.92 435.376,286.435 C432.769,282.089 431.031,281.621 430.697,285.031 C430.563,286.568 431.499,288.908 434.24,293.855 C436.58,297.934 438.184,301.677 438.385,303.482 C438.585,305.287 439.388,307.026 440.457,308.229 C442.329,310.235 445.07,310.636 445.739,308.964 z M399.409,283.961 C402.552,280.485 403.02,278.546 401.214,276.139 C400.345,275.003 399.61,272.73 399.409,270.591 C398.808,265.042 393.192,250.535 391.721,250.535 C390.718,250.535 388.379,242.98 388.78,241.108 C389.181,239.37 388.512,237.766 384.434,230.545 C383.431,228.74 383.298,224.595 384.1,218.311 C384.635,214.233 384.702,214.434 380.089,206.144 C378.685,203.67 377.281,200.461 377.014,199.124 C375.61,192.573 373.604,187.291 371.866,185.419 C370.796,184.283 369.259,182.344 368.456,181.208 C366.785,178.801 364.512,178.333 361.37,179.804 C359.431,180.673 357.024,184.751 357.024,187.091 C357.024,187.826 356.088,189.364 354.952,190.433 C353.214,192.038 352.946,192.773 353.214,194.378 C354.016,198.188 355.62,201.063 357.359,201.732 C358.295,202.066 359.03,202.534 359.03,202.734 C359.03,203.938 357.492,205.676 355.821,206.344 C353.214,207.414 350.606,206.344 347.531,202.868 C345.392,200.395 344.991,200.194 344.055,201.063 C343.52,201.598 342.852,202.868 342.651,203.871 C342.25,205.475 342.517,205.877 344.59,207.147 C347.866,209.085 349.203,211.76 348.668,215.303 C348.066,219.18 350.205,224.061 353.882,227.27 L356.69,229.743 L354.751,231.682 L352.879,233.688 L354.618,235.225 C357.091,237.364 356.824,238.3 353.214,240.039 C350.205,241.442 350.005,241.71 349.604,244.518 C349.269,247.259 349.403,247.66 351.275,249.398 C353.013,251.069 353.615,251.27 355.888,250.936 C359.632,250.334 362.841,251.537 364.178,254.078 C364.779,255.281 365.782,256.952 366.451,257.822 C367.186,258.691 368.055,260.563 368.389,262.033 C368.991,264.239 368.924,265.042 367.654,267.582 C366.852,269.187 366.384,270.925 366.584,271.46 C366.785,271.994 371.532,274.735 377.214,277.61 C382.83,280.552 388.98,283.694 390.785,284.697 C395.398,287.17 396.535,287.103 399.409,283.961 z M255.073,205.743 C256.477,204.606 256.343,199.258 254.873,196.651 C254.271,195.447 252.399,192.706 250.728,190.5 C249.056,188.294 246.917,185.085 245.914,183.414 C244.911,181.742 243.708,180.339 243.173,180.339 C242.104,180.339 235.017,188.762 232.544,192.974 C228.064,200.595 227.931,200.929 228.933,201.932 C229.535,202.534 232.142,203.002 235.819,203.269 C241.034,203.67 241.836,203.938 242.973,205.409 C244.176,206.946 244.644,207.08 249.19,206.812 C251.864,206.679 254.471,206.211 255.073,205.743 z M198.248,179.67 C199.384,179.202 200.588,177.798 201.791,175.191 C202.794,173.052 204.131,170.578 204.733,169.709 C207.34,165.965 201.323,164.829 197.245,168.305 C195.975,169.375 194.437,170.311 193.902,170.311 C192.498,170.311 191.228,171.648 191.228,172.985 C191.228,174.322 194.972,180.339 195.841,180.339 C196.175,180.339 197.245,180.071 198.248,179.67 z" fill="#000000"/>
  </g>
</svg>
