<?xml version="1.0" encoding="UTF-8"?>
<!DOCTYPE svg PUBLIC "-//W3C//DTD SVG 1.1//EN" "http://www.w3.org/Graphics/SVG/1.1/DTD/svg11.dtd">
<svg version="1.1" xmlns="http://www.w3.org/2000/svg" xmlns:xlink="http://www.w3.org/1999/xlink" x="0" y="0" width="500" height="500" viewBox="0, 0, 500, 500">
  <g id="layer101">
    <path d="M275.827,498.174 C275.401,497.2 274.975,495.253 274.792,493.914 C274.549,492.209 273.818,490.81 272.357,489.227 C270.471,487.279 270.166,486.549 269.923,483.141 C269.679,479.245 267.975,472.246 266.758,469.994 C265.784,468.168 265.967,462.568 267.001,460.499 C268.219,458.125 268.158,457.638 266.332,456.178 L264.749,454.9 L265.784,449.422 C267.062,443.031 267.367,435.119 266.271,434.754 C265.48,434.449 265.115,436.032 264.323,442.179 C264.019,444.553 263.228,448.448 262.497,450.883 L261.158,455.265 L257.263,455.265 C254.098,455.265 253.063,455.021 251.785,453.926 C250.02,452.404 249.838,450.7 250.568,445.1 C251.055,441.631 250.385,440.84 249.046,443.335 C248.56,444.248 248.438,445.648 248.681,446.805 C248.986,448.326 248.681,449.361 247.281,451.552 C245.395,454.534 244.664,457.152 244.542,461.047 C244.482,463.238 244.299,463.542 242.473,464.09 C241.195,464.455 240.343,465.125 240.16,466.038 C239.978,466.768 239.369,467.742 238.882,468.168 C236.326,470.298 235.413,462.751 237.908,459.951 C239.856,457.821 239.917,456.786 238.273,454.413 C237.3,452.952 236.752,451.187 236.691,449.483 C236.569,447.231 236.874,446.5 238.578,444.796 C240.647,442.605 241.073,440.657 239.673,439.501 C239.004,438.953 238.517,439.197 237.178,440.779 C236.265,441.875 232.857,445.526 229.692,448.874 C224.153,454.656 223.849,455.082 223.849,457.699 C223.788,460.256 223.666,460.438 222.266,460.256 C221.414,460.195 220.136,460.438 219.406,460.803 C216.484,462.386 215.023,459.343 217.275,456.421 C218.979,454.23 219.223,453.074 218.31,451.796 C216.728,449.787 217.275,448.631 220.684,446.439 C225.127,443.64 227.379,440.718 229.387,435.24 C232.309,427.206 231.457,418.746 227.683,418.746 C226.222,418.746 223.057,421.485 221.292,424.346 C220.258,425.989 218.736,427.206 216.301,428.363 C213.502,429.702 212.71,430.371 212.163,432.136 C211.006,435.666 209.363,434.997 208.389,430.554 L207.841,428.18 L203.824,432.197 C200.477,435.484 199.746,436.519 199.746,438.162 C199.746,439.562 199.199,440.718 197.799,442.057 C195.486,444.37 193.66,447.292 193.66,448.631 C193.66,449.178 192.747,450.822 191.591,452.282 C189.156,455.508 186.356,461.29 186.356,463.116 C186.356,465.368 187.878,465.186 192.382,462.264 C194.816,460.682 196.947,459.525 197.129,459.708 C197.981,460.56 196.46,463.603 194.573,464.82 C192.017,466.525 188.791,471.089 188.365,473.828 C188.121,475.472 188.365,476.141 189.582,477.419 C190.982,478.819 191.712,479.002 195.121,479.002 C199.199,479.002 204.25,479.793 207.172,480.949 C208.815,481.558 217.64,490.505 217.154,490.992 C216.788,491.357 211.919,488.801 211.919,488.192 C211.919,487.34 208.937,486.306 206.441,486.306 C204.433,486.306 203.763,486.671 201.998,488.74 C199.807,491.296 197.981,491.844 196.642,490.201 C194.634,487.766 192.564,487.34 186.417,488.131 C183.191,488.497 179.783,489.166 178.748,489.592 C177.774,490.018 175.583,490.688 174.001,491.114 C171.444,491.722 170.836,491.662 168.706,490.566 C165.784,489.105 161.524,488.923 160.976,490.262 C160.55,491.479 156.411,493.609 154.524,493.609 C152.698,493.609 151.298,492.088 151.542,490.323 C151.664,489.592 151.177,488.497 150.507,487.827 C149.351,486.853 148.56,486.792 143.021,487.158 C138.091,487.462 136.387,487.827 135.048,488.801 C132.857,490.383 132.491,490.018 133.587,487.401 C135.656,482.41 142.595,479.124 149.472,479.854 C151.542,480.037 153.855,480.28 154.646,480.402 C155.924,480.523 156.289,480.097 157.141,477.785 C157.933,475.472 158.602,474.802 162.011,472.855 C164.263,471.516 166.454,470.663 167.062,470.846 C169.193,471.516 169.923,469.994 169.679,465.794 C169.558,463.603 169.132,461.534 168.766,461.169 C167.914,460.316 167.975,457.334 168.888,454.839 C169.923,452.1 176.679,444.309 178.018,444.309 C178.687,444.309 179.296,444.857 179.479,445.526 C180.392,448.935 182.4,444.979 184.165,436.336 C184.409,435.24 184.165,434.388 183.313,433.658 C181.791,432.258 181.791,431.406 183.374,427.267 C184.895,423.25 185.565,422.398 187.026,422.398 C187.695,422.398 188.182,422.337 188.182,422.276 C188.243,422.155 188.365,420.146 188.547,417.772 C189.034,411.077 187.087,408.399 178.2,403.53 C175.705,402.191 172.418,399.939 170.897,398.6 C167.914,395.922 167.001,395.74 162.619,396.774 C158.48,397.687 155.863,397.565 153.368,396.226 L151.116,395.009 L149.472,397.931 C147.586,401.217 146.247,402.921 145.516,402.921 C145.212,402.921 145.029,401.278 145.029,399.331 C145.09,397.322 144.908,395.435 144.664,395.07 C143.934,393.853 141.986,394.4 140.708,396.226 C137.969,400.061 136.934,397.687 139.186,392.635 C140.465,389.775 141.986,387.949 145.942,384.358 C151.298,379.489 152.272,377.785 150.994,375.472 C149.777,373.159 149.229,359.951 150.142,354.413 C150.385,353.013 150.264,350.456 149.838,348.631 C149.412,346.866 149.046,344.431 148.925,343.214 C148.864,341.996 148.133,340.17 147.342,339.075 C145.273,336.214 144.664,329.337 146.247,325.806 C146.855,324.407 147.403,322.946 147.403,322.642 C147.403,322.276 148.012,320.876 148.681,319.537 C150.325,316.372 149.716,314.607 146.186,312.842 C142.351,310.895 139.126,307.669 136.691,303.226 C135.413,300.974 133.161,297.687 131.639,295.861 C129.022,292.818 128.779,292.635 126.588,292.94 C125.066,293.122 123.24,294.096 121.231,295.8 C117.64,298.844 116.971,301.035 118.432,305.478 C119.466,308.704 119.162,310.834 117.154,313.877 C116.545,314.79 115.693,316.129 115.388,316.799 C114.536,318.381 111.798,318.685 109.911,317.407 C108.024,316.19 106.076,312.051 106.015,309.373 C106.015,308.278 105.407,306.512 104.616,305.356 C103.216,303.348 103.216,303.287 101.329,304.2 C99.564,305.052 99.259,304.991 97.86,304.078 C95.729,302.739 94.39,299.939 94.025,296.105 C93.721,293.244 93.843,292.696 95.182,291.357 C95.973,290.566 97.007,289.775 97.494,289.592 C98.955,289.105 97.677,286.366 95.547,285.393 C94.39,284.906 93.416,283.932 93.173,283.019 C92.443,280.463 92.625,274.254 93.416,272.915 C95.06,270.055 101.207,262.325 101.816,262.325 C102.242,262.325 102.364,261.595 102.059,260.134 C101.755,258.43 101.998,257.273 103.094,255.265 C103.885,253.804 104.798,252.587 105.163,252.587 C105.955,252.587 106.624,253.987 106.624,255.691 C106.624,257.03 107.78,257.152 110.641,256.117 C112.345,255.508 112.832,255.569 113.745,256.36 C114.476,256.969 116.606,257.395 119.71,257.638 C122.814,257.882 126.344,258.612 129.509,259.769 C132.187,260.743 135.413,261.716 136.569,261.96 C137.847,262.203 139.126,262.934 139.673,263.725 C140.16,264.516 141.743,265.49 143.143,265.916 C145.273,266.525 145.821,267.072 146.794,269.264 C147.403,270.724 148.194,272.124 148.56,272.307 C148.925,272.55 149.229,273.402 149.229,274.133 C149.229,275.959 151.238,278.515 153.611,279.732 C156.654,281.315 159.211,280.402 161.706,277.054 C163.654,274.437 163.836,273.828 163.836,269.811 C163.836,267.377 164.141,264.212 164.567,262.751 C165.175,260.316 165.115,259.89 163.897,258.186 C162.011,255.508 161.645,248.631 163.289,246.135 C163.897,245.161 164.445,243.396 164.445,242.179 C164.445,239.379 165.845,238.04 167.549,239.075 C169.375,240.231 170.714,239.927 172.844,237.918 C173.879,236.945 174.792,235.971 174.792,235.788 C174.792,235.606 173.392,232.867 171.688,229.702 C169.193,225.076 168.28,223.92 167.001,223.676 C162.741,222.824 162.315,222.52 161.402,219.477 C160.672,217.346 159.941,216.312 158.663,215.642 C155.62,214.06 153.55,211.747 153.124,209.434 C152.394,204.93 151.481,203.287 148.499,200.548 C145.09,197.505 144.908,195.983 148.012,195.983 C150.872,195.983 154.037,197.931 157.872,202.009 C159.819,204.078 161.767,205.721 162.193,205.721 C163.41,205.721 165.662,208.338 165.662,209.799 C165.662,211.747 166.271,213.025 167.184,213.025 C168.584,213.025 168.766,211.99 168.036,207.73 C167.367,203.53 164.871,198.174 161.098,192.94 C160.002,191.418 157.628,187.584 155.742,184.419 L152.333,178.576 L147.586,177.785 C139.43,176.446 137.056,175.411 135.413,172.307 C134.561,170.663 134.013,168.594 134.013,166.951 C134.013,163.421 132.796,161.108 128.474,156.726 C126.527,154.717 122.875,151.004 120.44,148.509 C117.945,145.953 114.232,142.909 111.919,141.509 C105.772,137.979 103.094,135.484 102.303,132.562 C101.937,131.163 101.025,129.215 100.294,128.18 C98.042,125.137 96.886,122.033 97.007,119.416 C97.068,117.407 96.399,115.825 93.356,110.651 C91.286,107.121 89.582,103.895 89.582,103.408 C89.582,102.922 88.06,99.817 86.174,96.531 C83.861,92.453 82.948,90.383 83.374,89.957 C84.409,88.923 86.965,91.175 92.93,98.357 C99.138,105.843 107.415,114.425 108.389,114.425 C109.485,114.425 115.145,120.694 115.145,121.85 C115.145,122.398 115.936,123.737 116.971,124.772 C117.945,125.806 118.919,127.389 119.162,128.302 C120.501,134.327 122.023,136.945 124.153,136.945 C124.518,136.945 124.944,134.754 125.188,132.075 C125.492,128.484 125.979,126.78 126.953,125.563 C128.109,123.981 128.231,123.128 128.231,114.729 C128.231,106.695 128.353,105.6 129.266,105.417 C129.874,105.295 130.422,105.782 130.665,106.634 C132.004,111.26 134.256,116.251 134.987,116.251 C135.413,116.251 136.265,115.581 136.813,114.729 C137.361,113.877 138.76,112.782 139.856,112.295 C142.108,111.382 143.386,109.251 144.056,105.478 C144.299,104.017 144.725,102.678 145.029,102.495 C146.125,101.826 147.342,103.591 147.768,106.391 C148.012,107.973 148.56,110.286 149.107,111.564 C150.02,113.877 149.959,113.938 148.438,115.216 C146.673,116.738 144.36,121.059 144.36,122.946 C144.36,123.615 143.812,124.954 143.082,125.928 C141.925,127.511 141.925,127.876 142.595,131.832 C142.96,134.145 143.63,136.579 144.056,137.249 C144.603,138.101 144.725,139.562 144.36,142.422 C143.751,146.926 144.299,147.961 146.125,146.135 C147.464,144.796 147.403,142.422 145.821,139.257 C145.334,138.345 145.09,136.701 145.212,135.606 C145.395,134.51 145.516,132.867 145.516,131.954 C145.577,129.641 147.707,127.632 149.594,127.998 C152.333,128.484 153.672,126.659 154.098,121.911 C154.585,116.677 156.228,113.147 158.48,112.355 C159.393,112.051 160.306,111.929 160.55,112.112 C160.732,112.355 160.428,114.364 159.88,116.616 C159.028,119.964 158.967,121.181 159.576,123.189 C160.063,125.076 160.063,126.659 159.576,129.641 C158.663,134.632 158.663,134.571 159.211,136.153 C159.576,137.31 159.393,137.675 158.115,138.162 C156.898,138.588 156.533,139.136 156.533,140.657 C156.533,141.753 156.168,142.909 155.681,143.275 C154.889,143.822 154.95,144.918 155.863,151.126 C156.837,157.517 157.75,160.256 158.663,159.404 C158.846,159.221 159.211,157.334 159.454,155.204 C160.063,150.761 161.524,149.117 164.749,149.117 C167.549,149.117 170.592,146.866 171.566,143.944 C172.54,141.144 176.374,136.945 177.896,136.945 C179.418,136.945 179.844,137.918 179.053,139.44 C178.626,140.11 178.079,142.483 177.774,144.674 C177.348,147.839 177.409,148.996 178.14,150.517 C179.296,152.891 179.296,153.135 177.835,154.595 C177.166,155.265 176.618,156.543 176.618,157.517 C176.618,158.795 176.131,159.343 174.609,160.073 C171.262,161.656 168.584,169.203 170.775,171.029 C171.688,171.759 172.053,171.576 173.575,169.933 C175.279,168.046 175.401,168.046 179.235,168.411 L183.191,168.777 L186.478,165.247 C188.608,162.995 190.069,161.899 190.556,162.142 C191.043,162.508 191.286,164.212 191.165,167.559 C191.104,170.298 191.225,173.159 191.469,173.95 C191.834,174.985 191.651,175.411 190.799,175.715 C188.791,176.446 186.356,178.393 186.356,179.306 C186.356,179.793 187.391,180.645 188.608,181.193 C191.651,182.41 196.277,181.984 198.103,180.219 C199.746,178.698 200.538,178.637 201.511,179.793 C202.059,180.463 202.059,181.497 201.511,184.358 C200.842,187.462 200.477,188.131 199.016,188.74 C196.216,189.897 197.068,191.418 200.355,191.418 C201.877,191.418 203.703,191.175 204.372,190.931 C206.259,190.262 207.659,191.905 207.659,194.705 C207.659,196.531 207.294,197.261 205.833,198.296 C204.859,199.087 204.007,199.939 204.007,200.243 C204.007,200.548 205.042,201.339 206.381,202.009 C208.693,203.226 210.58,206.208 209.85,207.486 C209.606,207.852 209.972,209.13 210.58,210.408 C211.737,212.782 212.771,216.433 213.441,220.39 C213.867,223.128 217.275,226.598 219.223,226.293 C220.988,226.05 222.205,224.285 221.353,223.128 C219.04,219.964 218.553,219.111 218.858,218.564 C219.162,218.138 219.771,218.138 220.866,218.564 C224.092,219.781 225.309,216.433 222.449,214.303 C219.527,212.112 219.162,211.747 219.406,211.016 C219.527,210.59 220.562,210.164 221.718,209.982 C223.483,209.677 223.788,209.434 223.605,208.156 C223.423,206.269 221.171,203.895 219.649,203.895 C218.979,203.895 217.275,202.739 215.815,201.278 C213.867,199.331 213.076,197.991 212.771,196.105 C212.528,194.644 211.798,193.061 210.945,192.27 C208.876,190.323 208.024,186.732 208.937,184.114 C209.546,182.532 209.546,181.68 208.998,180.463 C208.146,178.576 203.581,176.385 201.146,176.628 C198.773,176.872 198.955,175.35 201.511,173.646 C204.372,171.698 206.807,171.881 211.798,174.376 C217.154,177.054 219.466,179.61 218.979,182.228 C218.675,183.628 218.919,184.358 220.258,185.758 C221.292,186.853 222.023,188.375 222.205,190.018 C222.57,192.575 222.631,192.635 224.944,192.757 C228.839,193.001 231.091,191.601 232.917,188.01 C233.83,186.306 234.682,183.384 234.865,181.619 C235.23,178.393 235.169,178.393 232.978,177.054 C230.483,175.593 230.239,174.62 232.187,173.768 C235.535,172.307 233.222,168.594 228.961,168.594 C225.309,168.594 224.092,166.525 227.135,165.49 C228.231,165.064 228.961,164.394 228.961,163.786 C228.961,161.716 227.44,160.621 223.91,160.134 C218.249,159.404 215.754,156.056 220.562,155.691 C222.51,155.569 223.24,155.204 223.362,154.413 C223.727,152.708 221.718,150.943 219.588,150.943 C216.788,150.943 212.224,148.509 212.224,146.987 C212.224,145.892 212.589,145.77 215.388,145.953 C218.067,146.135 218.614,146.013 219.223,144.857 C220.136,143.153 219.466,139.257 217.945,137.31 C217.336,136.519 216.788,135.545 216.788,135.18 C216.788,134.814 216.362,133.232 215.815,131.649 C215.084,129.458 214.962,128.545 215.51,127.693 C216.301,126.415 216.362,124.346 215.632,123.92 C215.388,123.737 214.78,122.337 214.354,120.816 C213.38,117.346 212.467,116.555 210.215,117.346 C209.302,117.651 206.563,117.772 204.25,117.651 C200.477,117.346 199.503,117.529 195.729,119.172 C192.564,120.572 190.495,121.059 187.269,121.181 C181.852,121.303 177.896,120.633 176.131,119.233 C175.34,118.624 173.696,117.833 172.479,117.407 C169.132,116.373 165.054,112.842 165.054,111.016 C165.054,109.617 165.236,109.556 167.123,109.86 C169.679,110.347 170.471,109.312 168.888,107.547 C165.602,103.895 164.932,95.74 167.793,94.461 C170.349,93.305 170.532,88.314 168.036,87.036 C167.062,86.488 166.514,86.732 164.749,88.558 C163.532,89.714 162.071,90.688 161.463,90.688 C160.124,90.688 158.359,88.801 158.359,87.34 C158.359,86.488 158.724,86.366 160.063,86.61 C162.193,87.036 162.923,86.549 163.471,84.48 C163.897,82.532 165.662,81.862 169.923,81.923 C172.966,81.984 176.983,83.993 177.531,85.819 C177.714,86.427 177.47,88.497 176.922,90.323 C176.192,92.879 176.131,93.974 176.618,94.948 C177.47,96.531 180.513,96.592 183.13,94.948 C185.991,93.183 186.539,91.722 186.113,86.975 L185.687,82.775 L188.547,79.489 C191.834,75.654 192.808,75.107 194.208,76.324 C194.756,76.811 195.851,77.054 196.703,76.872 C197.799,76.689 198.651,77.054 199.686,78.15 C201.694,80.341 205.407,80.341 208.328,78.211 L210.398,76.628 L211.98,78.576 C212.832,79.61 213.806,80.402 214.171,80.28 C214.476,80.158 216.545,78.089 218.797,75.715 C221.962,72.307 222.936,70.846 223.483,68.533 C224.275,65.003 224.031,64.151 221.049,59.038 C218.736,55.143 218.736,55.021 218.858,49.483 C219.04,44.127 219.162,43.761 221.049,41.57 C223.666,38.527 223.97,38.405 226.831,38.892 C228.839,39.257 229.205,39.501 229.022,40.475 C228.9,41.144 228.779,43.64 228.718,45.953 C228.657,49.665 228.9,50.578 230.483,53.135 C231.518,54.778 232.917,57.091 233.709,58.308 C236.326,62.629 237.604,68.229 237.361,74.376 C237.117,80.158 236.326,82.775 233.83,85.88 C233.1,86.732 232.37,88.558 232.187,89.957 C231.822,92.514 231.883,92.514 233.77,92.514 C234.804,92.514 236.387,92.94 237.178,93.488 C239.795,95.192 244.969,93.366 250.203,88.74 C255.255,84.358 257.75,84.967 253.611,89.531 C251.238,92.149 250.994,93.305 252.455,94.461 C254.707,96.348 255.742,97.444 255.742,97.931 C255.742,98.235 254.646,99.574 253.307,100.852 C250.69,103.408 249.472,106.512 251.055,106.512 C252.272,106.512 254.707,104.504 262.802,96.835 C266.514,93.305 271.566,89.105 274.062,87.462 C282.583,81.984 284.287,80.645 284.713,79.124 C284.956,78.271 285.565,77.054 286.174,76.385 C287.756,74.559 288.304,73.281 290.799,65.673 C292.017,61.838 293.538,58.065 294.147,57.273 C294.816,56.482 295.303,55.143 295.303,54.352 C295.303,52.526 298.407,47.9 300.842,46.135 C301.816,45.405 302.607,44.431 302.607,44.005 C302.607,43.579 303.459,42.605 304.494,41.875 C305.711,41.023 307.294,38.649 308.754,35.666 C310.824,31.467 311.128,30.189 311.189,26.537 C311.189,20.39 311.98,16.373 313.319,15.399 C314.902,14.242 315.571,15.216 317.154,20.998 C317.884,23.676 318.919,27.389 319.406,29.215 C320.623,33.415 320.075,39.136 318.188,42.788 C317.397,44.187 316.606,46.074 316.362,47.048 C316.18,47.961 315.754,48.691 315.449,48.691 C313.867,48.691 308.815,55.387 307.78,58.917 C307.172,60.986 308.146,60.56 311.919,56.908 C313.867,55.021 316.849,52.587 318.614,51.491 C320.379,50.335 322.205,48.935 322.692,48.387 C323.179,47.839 324.153,47.109 324.944,46.805 C325.857,46.439 326.344,45.77 326.344,44.857 C326.344,44.005 326.831,42.727 327.5,41.936 C329.448,39.379 330.483,36.884 331.396,32.319 C331.944,29.702 332.857,27.328 333.587,26.537 C334.317,25.806 334.865,24.65 334.865,23.92 C334.865,23.25 335.656,21.607 336.569,20.329 C338.152,18.138 339.369,17.407 346.916,13.816 C349.229,12.721 352.272,8.947 353.429,5.721 C355.255,0.487 355.498,0 356.411,0 C357.507,0 359.819,3.652 359.819,5.295 C359.819,5.965 359.393,7.73 358.906,9.13 C358.054,11.503 358.054,11.869 358.967,12.842 C359.819,13.816 359.819,14.121 358.602,16.433 C356.776,20.024 353.49,24.163 349.412,28.058 C347.099,30.25 345.942,31.832 346.125,32.38 C346.308,32.867 345.942,34.51 345.334,35.971 C344.116,38.771 342.108,46.622 341.864,49.3 C341.804,50.152 341.682,51.187 341.682,51.552 C341.499,52.769 337.482,56.969 333.161,60.438 C330.605,62.447 329.509,63.664 330.057,63.786 C331.883,64.151 337.665,61.351 341.986,58.065 C345.516,55.387 346.734,53.926 348.255,51.004 C349.229,48.935 350.081,46.805 350.081,46.257 C350.081,45.648 350.629,44.492 351.298,43.64 C351.968,42.788 352.516,41.631 352.516,41.023 C352.516,38.892 357.385,31.649 358.846,31.649 C359.211,31.649 360.185,31.102 361.037,30.432 C361.889,29.763 363.532,29.215 364.689,29.215 C365.845,29.215 368.219,28.545 369.862,27.754 C374.67,25.502 377.166,22.276 381.061,13.329 C383.861,6.878 386.782,3.408 389.034,3.774 C391.53,4.139 391.834,5.539 390.373,9.982 C389.643,12.234 389.034,14.851 389.034,15.825 C389.034,16.799 388.791,17.712 388.486,17.955 C388.121,18.138 388.06,19.598 388.243,21.181 C388.73,25.38 386.6,30.128 383.617,31.528 C381.791,32.441 381.487,32.867 381.609,34.267 C381.852,36.397 380.452,37.675 374.183,40.779 C368.097,43.822 366.697,45.1 365.602,48.874 C365.115,50.517 364.445,52.222 364.202,52.587 C363.897,52.952 363.471,54.474 363.289,55.934 C362.802,59.83 359.089,64.942 355.681,66.403 C353.124,67.498 353.003,67.62 353.976,68.716 C354.524,69.264 354.95,69.933 354.95,70.177 C354.95,71.089 350.507,73.828 348.742,73.95 C347.647,74.072 346.551,74.133 346.308,74.194 C346.003,74.254 345.821,74.62 345.821,75.107 C345.821,76.324 342.899,78.515 341.195,78.515 C338.882,78.515 337.908,79.124 338.517,80.219 C338.821,80.828 339.186,81.741 339.369,82.349 C339.612,83.201 340.099,83.323 341.378,83.019 C345.212,82.045 354.829,77.663 357.324,75.715 C358.785,74.559 360.367,73.646 360.793,73.646 C361.28,73.646 361.828,72.915 362.011,72.002 C362.254,71.089 364.141,68.594 366.149,66.464 C368.219,64.334 371.14,61.29 372.723,59.647 C376.314,55.873 378.992,54.534 385.078,53.317 C391.773,51.978 394.573,51.126 396.034,49.848 C396.703,49.3 398.103,48.387 399.138,47.9 C400.172,47.352 401.511,46.135 402.12,45.222 C403.581,42.97 405.528,40.84 410.337,36.153 C416.423,30.189 417.032,30.797 414.476,40.475 C412.284,48.874 410.215,55.021 409.424,55.326 C409.119,55.447 407.598,56.908 406.076,58.551 C402.972,62.021 400.172,63.481 396.642,63.542 C394.451,63.603 394.208,63.786 394.025,65.186 C393.843,66.768 392.625,67.559 390.13,67.559 C388.852,67.559 387.208,68.29 383.252,70.481 C381.183,71.637 380.148,72.611 379.905,73.646 C379.235,77.054 371.444,86.245 369.071,86.549 C367.914,86.671 367.427,87.097 367.427,87.949 C367.427,89.957 366.636,90.627 362.193,92.635 C359.88,93.67 358.054,94.827 358.176,95.192 C358.906,97.444 369.74,95.131 371.384,92.331 C372.723,90.018 380.696,83.019 383.617,81.497 C385.382,80.645 388.182,80.037 392.625,79.61 C396.155,79.306 400.477,78.637 402.181,78.15 C405.407,77.237 406.015,76.75 411.189,71.272 C415.206,66.951 416.119,67.316 415.632,73.281 C415.145,78.515 414.536,80.402 412.284,83.201 C408.45,88.071 406.928,89.349 404.494,89.775 C403.216,89.957 401.207,90.566 400.112,91.053 C398.955,91.54 396.034,92.088 393.538,92.331 C389.278,92.696 388.852,92.879 386.295,95.253 C383.496,97.809 382.522,100.365 384.652,99.513 C385.2,99.27 386.782,98.965 388.182,98.904 C389.521,98.844 391.165,98.478 391.773,98.174 C392.504,97.748 393.66,97.809 395.668,98.418 C400.477,99.939 407.78,98.357 413.258,94.644 C415.084,93.427 415.632,93.244 416.241,93.914 C416.91,94.583 416.91,95.192 416.119,97.444 C415.145,100.122 411.311,104.687 410.032,104.687 C409.667,104.687 408.693,105.356 407.963,106.147 C405.65,108.643 398.286,111.686 394.938,111.564 C391.773,111.442 390.678,112.416 392.077,114.121 C393.234,115.52 396.277,115.338 407.172,113.39 C408.815,113.086 409.119,113.208 409.119,114.303 C409.119,114.973 407.902,116.981 406.381,118.807 C403.703,122.033 400.72,123.92 397.555,124.285 C396.521,124.407 395.973,124.894 395.851,125.867 C395.729,126.719 394.999,127.511 394.025,127.876 C393.112,128.18 391.956,128.606 391.469,128.789 C390.008,129.337 392.504,130.858 394.877,130.858 C395.912,130.858 397.129,131.284 397.555,131.771 C398.164,132.502 398.042,133.049 396.703,134.814 C395.79,135.971 394.147,137.31 393.112,137.797 C392.017,138.223 390.799,139.075 390.312,139.623 C389.826,140.231 388.365,141.205 387.087,141.875 C384.652,143.153 384.226,144.248 385.687,145.466 C387.939,147.352 386.295,149.422 379.6,153.074 C374.792,155.63 374.244,156.178 375.157,157.821 C376.253,159.89 372.844,162.264 363.958,165.794 C362.68,166.281 361.645,166.951 361.645,167.316 C361.645,167.62 362.376,168.777 363.289,169.872 L364.932,171.82 L363.532,172.915 C362.254,174.011 360.063,174.741 356.046,175.593 C355.072,175.776 354.342,176.263 354.342,176.689 C354.342,177.054 355.559,178.758 357.081,180.402 C358.602,181.984 359.819,183.749 359.819,184.236 C359.819,185.575 353.855,188.071 350.629,188.071 C348.864,188.071 347.525,188.436 347.038,188.984 C346.308,189.897 346.308,190.018 349.168,193.974 C349.594,194.583 349.29,195.192 347.707,196.409 C345.942,197.809 345.76,198.296 346.003,200 C346.429,202.435 345.76,202.982 342.047,203.53 C338.821,204.017 338.213,204.565 338.213,207.243 C338.213,208.825 337.969,209.069 335.778,209.556 C334.439,209.799 331.578,210.164 329.387,210.347 C324.883,210.773 323.666,211.686 324.579,214.06 C325.614,216.799 325.249,218.381 323.362,219.416 C322.205,219.964 321.414,220.998 321.171,222.094 C320.684,224.346 319.892,225.015 316.545,225.989 L313.867,226.78 L313.989,230.736 L314.171,234.632 L311.737,236.275 C308.937,238.223 308.754,239.379 310.519,242.848 C312.345,246.379 312.102,248.022 309.606,249.544 C307.05,251.126 306.989,252.039 308.998,256.36 C309.85,258.125 310.519,260.073 310.519,260.621 C310.519,261.229 309.424,262.386 308.085,263.238 C306.685,264.09 305.468,265.186 305.285,265.673 C305.042,266.159 305.468,267.742 306.198,269.203 C306.928,270.663 307.476,272.307 307.476,272.855 C307.476,274.072 305.163,275.107 302.364,275.107 C301.268,275.107 299.929,275.472 299.259,275.898 C298.225,276.689 298.286,276.811 300.233,278.271 C302.972,280.341 307.294,282.532 309.606,283.019 C312.102,283.506 312.041,285.332 309.485,286.792 C307.476,288.01 296.338,289.288 292.625,288.74 C289.582,288.314 288.852,289.166 289.765,292.027 C290.252,293.366 290.373,294.766 290.13,295.192 C289.339,296.47 282.278,299.452 280.026,299.452 C277.592,299.452 276.07,300.365 275.035,302.495 C274.609,303.348 272.966,304.626 271.384,305.356 C269.801,306.147 268.523,307.182 268.523,307.669 C268.523,308.217 269.375,309.677 270.41,311.016 C274.853,316.555 274.183,325.32 269.193,326.902 C267.975,327.267 266.697,327.632 266.271,327.754 C264.871,328.18 266.697,331.71 269.071,333.171 C277.044,338.223 278.687,348.204 272.784,355.508 C271.505,357.03 271.505,357.273 272.297,364.334 C272.723,368.29 273.027,373.95 272.905,376.932 L272.784,382.228 L274.975,382.228 C276.74,382.228 277.653,382.715 280.026,385.21 C282.887,388.131 283.07,388.253 286.539,388.253 C288.547,388.253 290.921,388.314 291.895,388.436 C293.599,388.618 293.721,388.436 294.573,385.271 C295.973,379.732 296.095,377.115 295.06,375.046 C293.721,372.489 293.843,371.881 295.486,371.881 C297.129,371.881 298.286,373.037 299.868,376.08 C300.72,377.724 300.842,379.002 300.538,381.923 C300.112,386.427 300.903,388.131 303.276,387.401 C304.068,387.158 304.859,386.914 305.042,386.853 C305.224,386.792 305.407,388.558 305.468,390.749 C305.468,393.061 306.076,396.105 306.807,398.052 C307.537,399.939 308.085,402.8 308.085,404.626 C308.085,406.391 308.511,408.825 308.998,410.043 C309.485,411.199 309.911,413.877 309.911,415.886 C309.911,417.894 310.276,420.937 310.763,422.642 C311.25,424.346 312.345,428.545 313.197,432.015 C315.449,441.205 317.397,444.857 321.171,446.865 C322.875,447.778 324.579,448.57 325.005,448.57 C325.431,448.57 326.161,447.474 326.709,446.135 C327.805,443.457 330.118,441.266 331.883,441.266 C333.526,441.266 333.891,442.362 332.796,444.005 C331.335,446.257 331.639,449.117 333.648,452.161 C334.682,453.682 335.474,455.63 335.474,456.725 C335.474,458.734 333.465,462.568 332.43,462.568 C331.213,462.568 329.387,465.003 329.387,466.646 C329.387,467.559 330.057,469.324 330.909,470.603 C334.865,476.628 335.474,477.602 336.021,479.124 C336.387,480.037 337.726,481.436 339.004,482.289 C341.134,483.628 343.386,486.914 343.386,488.618 C343.386,489.957 342.108,490.018 340.099,488.801 C337.543,487.219 336.569,487.219 335.169,488.74 C333.891,490.14 333.039,490.323 333.039,489.166 C333.039,487.827 330.118,484.054 328.779,483.688 C326.953,483.201 317.154,488.192 313.684,491.357 C308.876,495.74 304.433,499.27 304.068,498.904 C303.885,498.722 304.007,497.018 304.372,495.07 C305.346,489.897 305.224,485.088 304.189,485.088 C303.703,485.088 303.155,485.879 302.911,486.853 C302.668,488.131 301.877,488.923 300.294,489.714 C299.077,490.262 297.312,491.296 296.338,491.905 L294.634,493.122 L295.06,490.444 C295.668,486.427 297.92,482.471 300.72,480.523 C302.12,479.61 304.189,477.724 305.407,476.324 C309.85,471.211 310.032,471.029 311.189,471.394 C311.919,471.637 312.467,471.333 312.893,470.542 C314.11,468.29 313.623,466.951 310.58,464.273 C307.659,461.777 307.537,461.473 306.807,457.091 C305.468,448.631 296.947,433.171 291.104,428.545 C287.695,425.867 284.287,420.572 283.922,417.407 C283.496,413.999 282.522,412.234 279.6,409.373 C276.374,406.269 275.522,406.817 276.131,411.686 C276.374,413.694 276.618,416.251 276.557,417.225 C276.496,418.259 276.861,422.885 277.348,427.572 C278.322,437.614 278.383,440.84 277.592,442.909 C277.166,444.127 277.348,445.161 278.566,447.9 C279.783,450.456 280.087,451.856 279.783,453.378 C279.418,455.265 280.087,460.682 281.244,465.307 C282.339,469.568 280.757,486.914 278.748,492.696 C278.383,493.731 277.774,495.74 277.348,497.261 L276.557,500 L275.827,498.174 z M228.961,415.825 C228.961,413.451 225.735,412.234 225.127,414.425 C224.762,415.886 225.735,416.92 227.561,416.92 C228.474,416.92 228.961,416.555 228.961,415.825 z M215.328,412.538 C215.571,411.747 216.545,410.103 217.58,408.886 C219.345,406.634 219.406,406.573 218.31,405.356 C217.701,404.687 216.728,404.139 216.119,404.139 C215.206,404.139 215.084,404.504 215.388,406.208 C215.571,407.608 215.388,408.764 214.719,409.677 C213.684,411.199 213.38,413.877 214.293,413.877 C214.597,413.877 215.084,413.268 215.328,412.538 z M248.986,402.495 C246.429,399.878 243.812,396.896 243.082,395.861 C241.438,393.488 239.491,387.645 239.004,383.628 C238.639,380.889 238.273,380.158 236.387,378.698 C233.222,376.202 231.761,375.533 229.631,375.533 C227.561,375.533 227.257,376.202 228.657,377.358 C229.752,378.271 229.813,379.428 228.839,380.949 C228.292,381.862 228.353,382.715 229.266,385.027 C231.213,390.323 235.048,397.2 237.117,399.209 C239.612,401.643 249.959,407.121 252.09,407.182 C253.429,407.182 253.063,406.634 248.986,402.495 z M206.32,404.017 C206.624,403.591 207.05,402.009 207.172,400.487 C207.598,396.287 204.189,390.079 201.937,390.931 C200.598,391.479 197.19,397.87 197.616,399.209 C197.981,400.426 203.763,404.747 204.981,404.747 C205.346,404.747 205.955,404.382 206.32,404.017 z M166.941,352.404 C167.549,352.039 168.645,350.7 169.314,349.422 C169.984,348.083 171.749,346.013 173.27,344.796 C174.792,343.518 176.009,342.179 176.009,341.692 C176.009,341.266 177.227,339.501 178.687,337.858 C180.148,336.214 181.548,334.206 181.791,333.414 C182.035,332.623 183.435,330.797 184.835,329.276 C188.426,325.38 188.791,322.946 186.356,319.294 C185.322,317.772 184.226,316.372 183.922,316.19 C183.617,316.007 182.461,316.433 181.365,317.103 C179.783,318.077 178.809,318.259 176.679,317.955 L174.001,317.529 L174.305,319.598 C174.975,323.859 172.236,325.441 171.14,321.424 C170.836,320.146 170.105,318.868 169.619,318.685 C168.28,318.198 166.393,320.329 165.906,322.885 C165.541,325.076 165.906,331.345 166.575,334.206 C166.88,335.484 166.575,336.275 165.054,337.979 C163.228,340.049 163.167,340.353 163.836,342.362 C164.445,344.248 164.384,344.796 163.289,346.683 C161.767,349.239 161.645,350.761 162.984,352.039 C164.08,353.195 165.297,353.256 166.941,352.404 z M187.817,351.491 C191.773,349.848 194.269,345.526 194.269,340.292 C194.269,338.71 193.903,337.188 193.356,336.579 C192.504,335.606 192.504,335.301 193.477,333.293 C194.451,331.223 194.451,330.919 193.538,329.397 C191.834,326.598 190.921,327.328 190.738,331.71 C190.617,334.571 190.252,335.971 189.399,336.884 C188.365,337.979 183.13,349.057 182.278,352.039 C181.974,353.013 182.157,353.074 183.922,352.708 C185.017,352.465 186.782,351.917 187.817,351.491 z M267.306,349.909 C268.097,348.448 267.732,346.926 266.514,346.926 C265.297,346.926 264.202,349.665 265.054,350.517 C266.028,351.491 266.575,351.369 267.306,349.909 z M263.289,341.692 C264.689,341.144 264.506,339.623 263.045,339.623 C262.254,339.623 261.828,340.049 261.828,340.84 C261.828,342.179 261.889,342.24 263.289,341.692 z M258.176,336.884 C258.967,335.971 258.602,334.145 257.628,334.145 C256.533,334.145 254.342,336.397 254.768,337.066 C255.376,338.101 257.263,337.979 258.176,336.884 z M200.842,329.702 C201.755,328.971 201.816,325.867 200.842,325.259 C199.381,324.346 196.399,329.397 197.677,330.676 C198.103,331.041 199.686,330.615 200.842,329.702 z M264.567,320.816 C264.567,316.981 263.045,316.19 259.88,318.442 C258.967,319.111 258.663,318.99 257.872,317.833 C256.837,316.433 255.133,316.007 255.133,317.164 C255.133,317.59 255.437,318.929 255.802,320.146 C256.594,322.702 258.663,323.798 262.437,323.615 C264.506,323.494 264.567,323.433 264.567,320.816 z M100.781,293.974 C101.268,292.331 101.207,291.844 100.233,291.175 C98.712,290.018 98.103,290.627 98.103,293.305 C98.103,297.079 99.807,297.505 100.781,293.974 z M174.67,111.869 C174.488,111.442 173.879,110.956 173.21,110.834 C172.236,110.651 172.175,110.773 172.905,111.625 C173.879,112.782 174.975,112.903 174.67,111.869 z M216.788,105.478 C216.788,101.582 216.119,100.609 214.658,102.252 C213.258,103.774 211.98,103.834 211.432,102.313 C210.824,100.548 211.615,86.366 212.406,84.784 C212.893,83.932 212.954,83.323 212.528,83.08 C212.163,82.897 211.676,83.384 211.371,84.175 C210.58,86.184 209.789,86.366 205.833,85.453 C196.947,83.323 192.382,85.393 194.695,90.505 C195.242,91.783 196.216,93.366 196.825,94.096 C197.738,95.131 197.86,95.679 197.312,97.018 C197.007,97.931 196.703,99.331 196.703,100.061 C196.703,100.852 196.155,101.948 195.486,102.556 C193.599,104.261 193.964,105.66 196.521,106.695 C198.468,107.425 199.199,107.425 202.12,106.695 C208.754,105.113 209.241,105.052 210.58,106.391 C211.25,107.06 212.771,107.73 213.867,107.912 C214.962,108.034 216.058,108.217 216.362,108.217 C216.606,108.278 216.788,107.06 216.788,105.478 z M216.667,95.983 C216.545,95.253 216.241,94.644 215.875,94.644 C215.145,94.644 214.719,97.139 215.267,98.478 C215.632,99.452 215.693,99.452 216.241,98.418 C216.606,97.809 216.788,96.713 216.667,95.983 z" fill="#000000"/>
  </g>
</svg>
