<?xml version="1.0" encoding="UTF-8"?>
<!DOCTYPE svg PUBLIC "-//W3C//DTD SVG 1.1//EN" "http://www.w3.org/Graphics/SVG/1.1/DTD/svg11.dtd">
<svg version="1.1" xmlns="http://www.w3.org/2000/svg" xmlns:xlink="http://www.w3.org/1999/xlink" x="0" y="0" width="500" height="500" viewBox="0, 0, 500, 500">
  <g id="layer101">
    <path d="M66.728,477.191 C62.078,475.314 56.727,472.344 55.132,470.878 C51.232,467.212 49.972,467.192 41.982,471.379 C37.444,473.643 33.47,474.477 29.703,473.694 C26.834,472.927 24.326,472.165 24.334,471.805 C24.335,471.625 25.279,469.12 26.405,466.258 C33.157,449.99 41.051,419.157 47.38,385.059 C49.94,371.961 53.943,358.526 55.955,356.578 C57.053,355.516 61.043,353.783 64.843,352.586 C70.272,350.876 73.193,348.405 76.892,342.526 C79.486,338.069 85.348,332.045 89.718,329.059 C105.194,318.515 100.428,312.856 81.07,318.653 C60.988,324.62 37.871,329.095 26.893,328.911 C20.595,328.807 15.177,329.797 12.99,331.381 C8.435,334.725 1.595,334.612 0.216,330.988 C-0.301,329.54 0.131,325.225 1.274,321.465 C2.79,316.988 3.038,312.852 1.847,308.693 C-0.697,299.29 3.047,290.711 15.138,278.131 C23.194,269.985 25.962,265.89 26.029,261.93 C26.15,254.732 31.895,244.746 40.303,237.145 C48.53,229.542 52.697,227.99 55.167,231.091 C56.576,232.917 55.802,236.144 52.26,243.464 C46.845,255.076 47.515,258.148 55.46,256.66 C59.614,255.828 61.942,256.588 64.777,259.336 L68.495,262.997 L82.686,254.053 C92.143,248.27 108.029,234.853 129.247,214.685 C162.721,182.839 166.369,180.02 173.927,180.144 C178.787,180.225 184.102,174.553 184.192,169.155 C184.257,165.195 178.906,162.226 171.168,162.098 C162.89,161.959 159.535,157.943 164.29,153.521 C166.119,151.752 170.307,148.942 173.392,147.372 C178.294,144.933 179.035,143.686 178.207,139.352 C177.559,135.021 178.301,133.772 182.842,131.328 C190.652,127.137 190.379,121.912 181.987,117.812 C173.239,113.346 172.923,110.821 180.193,106.622 C183.465,104.696 188.768,99.744 191.899,95.475 C196.687,89.074 198.507,87.845 203.727,87.931 C207.145,87.989 211.848,86.626 214.395,85.049 C216.766,83.287 221.469,81.926 224.887,81.982 C231.727,82.097 234.126,78.537 230.809,72.361 C229.243,69.095 229.27,67.475 230.939,64.622 C232.6,62.129 232.83,59.072 231.504,52.209 C229.842,43.901 229.855,43.181 234.045,40.191 C236.594,38.432 238.077,35.938 237.384,34.305 C235.487,29.235 240.761,26.081 250.293,26.6 C263.242,27.356 263.602,27.363 264.396,22.876 C265.213,17.128 272.937,18.156 283.974,25.541 C292.52,31.263 292.88,31.27 297.61,28.288 L302.522,25.131 L309.233,32.982 C315.592,40.29 316.126,40.659 319.233,37.829 C324.161,33.771 326.132,34.345 330.155,41.431 C332.077,44.885 334.549,47.807 335.449,47.821 C338.329,47.87 342.487,57.659 346.031,71.76 C348.392,81.34 350.651,86.239 355.606,91.362 C359.852,95.752 363.17,101.929 365.211,109.163 C367.088,115.315 369.851,122.382 371.251,124.745 C372.83,127.292 374.713,133.084 375.172,137.951 C375.967,144.266 377.362,146.989 380.393,148.661 C382.714,149.959 387.453,157.24 392.147,167.219 C397.012,177.741 400.87,183.926 402.668,183.954 C408.788,184.057 426.967,173.38 433.938,165.573 C439.991,158.834 442.538,157.256 449.938,156.12 C454.992,155.303 462.757,153.813 467.46,152.452 C481.201,148.901 482.224,152.337 470.691,163.846 C455.669,179.438 452.013,193.599 458.948,209.555 C462.413,217.714 467.406,220.497 476.255,218.845 C482.575,217.691 500.068,226.622 500,230.762 C499.933,234.72 496.314,235.921 485.336,235.737 C474.358,235.555 454.771,244.229 454.686,249.269 C454.596,254.667 465.029,266.003 470.069,266.088 C472.947,266.135 477.225,268.727 481.646,273.48 C487.667,279.521 488.356,281.333 486.52,283.463 C483.217,287.189 473.325,286.663 464.942,282.023 C455.131,276.639 447.904,278.138 438.571,287.345 C432.163,293.719 431.416,295.326 431.285,303.244 C431.146,311.524 431.668,312.613 439.644,320.126 C446.198,326.535 447.951,329.446 447.879,333.764 C447.825,337.004 446.882,339.509 445.803,339.491 C442.744,339.439 429.489,335.438 425.025,333.204 C415.739,328.73 409.353,344.645 408.489,374.873 C408.024,391.967 407.223,396.814 403.883,402.88 C396.636,416.441 390.507,416.878 384.773,404.541 C383.39,401.098 380.933,397.277 379.511,396.173 C378.269,395.072 374.979,387.276 372.238,378.95 L367.63,363.751 L371.581,353.556 C373.833,348.012 375.762,340.305 375.827,336.345 C375.926,330.405 375.404,329.316 372.344,329.266 C367.486,329.185 351.513,337.02 342.944,343.538 C337.29,347.944 335.998,349.902 335.908,355.302 C335.829,359.982 333.586,364.984 327.317,373.881 C322.707,380.465 317.935,385.966 316.675,385.944 C310.556,385.844 307.622,356.63 312.766,350.415 C316.434,346.337 313.864,338.554 307.636,334.129 C297.85,327.306 282.705,328.674 269.231,337.81 C258.127,345.185 256.804,348.943 258.649,367.877 C260.803,389.875 264.292,396.593 276.439,402.196 C284.836,406.116 286.431,407.583 289.005,415.186 C293.141,426.238 291.319,427.467 273.347,425.727 C259.687,424.42 259.507,424.416 252.932,430.068 C247.822,434.304 245.284,435.34 241.88,434.385 C239.369,433.803 235.428,432.657 233.097,432.077 C229.873,431.125 227.33,432.522 221.282,438.902 C213.405,447.051 212.32,447.393 191.759,449.751 C183.821,450.699 183.105,450.507 183.164,446.909 C183.2,444.749 181.661,439.862 179.748,435.87 C177.835,431.877 176.29,427.35 176.319,425.552 C176.346,423.932 175.167,419.051 173.621,414.706 C171.38,408.728 169.436,406.534 163.892,404.282 C159.961,402.596 156.943,400.025 156.966,398.585 C156.993,396.965 160.31,392.341 164.342,388.088 C176.433,375.508 179.231,358.812 171.331,346.799 C168.871,343.158 166.961,338.986 166.981,337.726 C167.003,336.466 171.916,333.309 178.083,330.531 C186.609,326.532 189.894,323.886 192.681,318.713 C197.514,309.612 197.195,307.087 190.951,303.743 C179.888,297.797 177.705,299.201 170.023,317.255 C166.27,326.373 161.07,336.009 158.68,339.029 C156.111,341.866 152.234,347.742 150.179,352.208 C145.893,360.958 136.258,366.557 125.816,366.564 C116.818,366.413 107.741,370.944 102.041,378.23 C99.278,381.963 94.317,388.002 90.834,391.724 C81.662,402.013 81.077,404.703 84.515,425.282 C86.788,440.081 88.332,444.608 91.702,447.724 C99.857,455.241 105.317,462.532 106.488,467.774 L107.662,473.013 L98.319,471.957 C88.615,470.895 83.719,472.974 83.627,478.553 C83.57,481.973 77.277,481.507 66.728,477.191 z M213.981,390.894 C215.112,387.854 212.023,378.8 209.683,378.763 C206.983,378.718 205.817,383.918 207.537,388.628 C209.256,393.517 212.478,394.651 213.981,390.894 z" fill="#000000"/>
  </g>
</svg>
