<?xml version="1.0" encoding="UTF-8"?>
<!DOCTYPE svg PUBLIC "-//W3C//DTD SVG 1.1//EN" "http://www.w3.org/Graphics/SVG/1.1/DTD/svg11.dtd">
<svg version="1.1" xmlns="http://www.w3.org/2000/svg" xmlns:xlink="http://www.w3.org/1999/xlink" x="0" y="0" width="500" height="500" viewBox="0, 0, 500, 500">
  <g id="layer101">
    <path d="M162.272,499.242 C160.091,498.878 156.167,498.297 153.55,497.861 C150.934,497.425 145.264,496.771 140.831,496.407 C136.47,495.971 127.022,495.026 119.972,494.227 C106.453,492.701 105.726,492.41 99.621,487.686 C97.441,486.014 83.777,468.571 83.777,467.48 C83.777,467.117 83.195,466.318 82.541,465.809 C80.579,464.137 76.145,456.869 74.328,452.29 C73.384,449.964 71.13,444.295 69.241,439.717 C63.426,425.544 62.481,422.927 62.263,420.093 C62.118,418.567 61.101,415.441 59.865,413.116 C56.158,405.557 54.414,397.635 54.341,387.387 C54.341,380.191 53.542,379.537 50.417,384.116 C47.727,388.113 45.184,389.276 41.477,388.186 C38.57,387.241 35.808,383.971 35.808,381.281 C35.808,379.319 38.424,375.467 40.314,374.522 C41.259,374.086 44.675,372.487 48.018,370.961 C51.289,369.507 54.341,367.836 54.777,367.327 C55.286,366.673 54.632,365.655 52.161,363.329 C47.655,359.114 47.8,356.352 52.452,353.954 C53.978,353.227 56.594,351.41 58.266,350.029 C60.01,348.575 61.9,347.412 62.554,347.412 C63.281,347.34 65.316,345.959 67.133,344.287 C69.604,342.107 70.622,340.508 70.912,338.618 C71.494,334.911 77.381,326.19 83.777,319.648 C91.408,311.799 98.24,304.24 100.13,301.478 C101.002,300.17 106.162,295.01 111.468,290.068 C116.846,285.125 121.425,280.692 121.716,280.256 C122.806,278.439 120.262,275.822 113.794,272.188 C110.16,270.153 105.799,267.246 104.2,265.792 C102.528,264.339 100.857,263.103 100.493,263.103 C100.057,263.103 97.877,261.359 95.551,259.251 C93.225,257.071 89.228,254.309 86.611,253.146 C82.687,251.256 80.361,249.221 71.349,239.773 C61.609,229.525 57.612,224.146 57.612,221.385 C57.612,220.803 56.522,219.422 55.141,218.259 C53.833,217.169 52.161,215.134 51.507,213.898 C50.853,212.59 49.326,210.773 48.018,209.901 C46.419,208.665 44.457,205.54 41.113,198.636 C38.642,193.33 36.535,188.678 36.535,188.315 C36.535,187.007 32.828,184.754 29.848,184.245 C28.176,183.954 25.851,183.3 24.688,182.791 C23.452,182.282 21.272,182.064 19.818,182.21 C16.547,182.646 15.603,181.628 14.73,176.541 C14.44,174.36 13.931,172.107 13.64,171.453 C13.35,170.654 14.004,169.273 15.53,167.528 C16.838,166.002 19.091,162.513 20.545,159.606 C22.071,156.481 23.816,154.082 24.906,153.501 C26.141,152.847 29.63,152.629 36.171,152.774 C42.567,152.847 46.128,152.629 47.291,152.047 C48.381,151.393 50.853,151.248 55.65,151.611 C61.391,151.975 63.136,152.411 68.151,154.809 C71.349,156.408 74.837,157.862 75.927,158.08 C77.018,158.371 79.125,159.897 80.579,161.496 C82.105,163.24 84.286,164.694 85.812,165.13 C90.609,166.438 95.042,171.962 97.586,179.739 C98.24,181.846 98.24,183.3 97.586,186.062 C96.496,190.495 97.077,192.312 99.912,193.766 C101.584,194.638 103.255,194.784 106.599,194.493 C111.105,193.984 120.044,195.365 121.789,196.819 C123.751,198.418 129.202,199.362 141.194,200.162 C152.605,200.889 154.204,201.179 156.021,202.633 C158.856,204.813 160.963,204.668 162.853,202.052 C165.179,198.926 168.086,197.691 173.61,197.473 C178.261,197.255 178.552,197.182 180.951,194.42 C182.332,192.821 184.585,189.914 185.966,187.879 C187.346,185.917 189.236,183.155 190.254,181.774 C191.271,180.393 192.071,178.285 192.071,177.049 C192.071,173.852 188.873,167.383 187.056,166.802 C186.184,166.584 182.477,166.729 178.697,167.165 C171.139,168.037 158.928,167.165 154.786,165.493 C153.55,164.912 150.279,163.095 147.518,161.496 C144.828,159.824 140.54,157.498 138.069,156.408 C131.746,153.501 130.874,151.466 133.49,145.652 C134.508,143.398 135.38,141.436 135.38,141.291 C135.38,140.128 131.601,138.093 128.911,137.729 C123.46,136.93 112.413,133.877 109.07,132.206 C107.325,131.334 104.491,129.662 102.674,128.426 C98.458,125.592 72.221,99.718 71.349,97.537 C70.985,96.52 70.985,95.357 71.421,94.557 C72.802,91.941 89.737,82.856 93.153,82.856 C95.842,82.856 97.586,84.963 100.13,91.432 C104.127,101.607 112.195,109.965 121.353,113.381 C126.876,115.489 137.27,116.434 150.279,116.143 C158.856,115.998 160.963,115.707 161.981,114.762 C163.071,113.599 162.853,113.236 159.219,109.239 C156.167,105.968 153.695,101.898 148.899,92.231 C145.41,85.181 141.122,77.695 139.305,75.515 C135.525,70.863 134.217,67.593 135.38,65.485 C136.107,64.104 141.34,62.069 147.518,60.761 C151.297,59.889 151.878,58.58 149.698,55.31 C147.227,51.603 146.718,49.35 147.881,47.896 C148.826,46.661 154.64,42.736 163.653,37.212 C168.595,34.16 168.74,34.087 171.284,35.177 C174.627,36.558 175.79,39.029 177.171,47.606 C178.552,56.255 180.805,61.197 185.602,66.066 C190.036,70.573 192.798,72.39 199.92,75.515 C206.098,78.204 206.752,77.986 207.988,72.971 C208.496,71.081 209.877,67.593 211.113,65.122 C214.892,57.636 219.544,46.079 220.416,41.937 C221.87,34.814 218.672,24.421 213.439,19.551 C210.241,16.571 209.369,14.173 210.241,10.975 C211.985,4.288 217.509,-0 224.268,-0 C229.283,-0 230.737,1.744 232.626,10.03 C233.499,13.664 234.734,17.879 235.316,19.406 C237.278,24.057 239.313,33.142 239.313,37.212 C239.313,43.608 237.932,49.277 234.443,57.636 C232.626,61.924 231.391,65.921 231.609,66.503 C232.118,67.956 234.516,67.447 240.985,64.54 C245.2,62.723 246.654,62.36 250.07,62.651 C253.631,62.941 254.43,63.305 256.466,65.63 C259.227,68.828 259.954,68.974 261.044,66.212 C261.989,64.031 264.17,62.142 268.749,59.671 C275.435,56.109 279.505,52.112 282.921,45.861 C285.392,41.21 286.846,39.393 288.736,38.375 C291.716,36.849 293.678,36.704 295.64,38.012 C299.565,40.556 305.307,42.009 312.866,42.373 L320.642,42.809 L323.768,40.265 C328.201,36.486 330.818,35.395 342.883,32.052 C348.915,30.38 355.892,28.2 358.436,27.182 C361.053,26.165 363.742,25.511 364.469,25.656 C366.068,26.092 371.155,25.002 374.644,23.476 C376.897,22.531 377.696,22.458 379.441,23.185 C383.293,24.784 383.947,28.273 382.13,36.268 C381.476,38.811 380.531,43.608 379.95,46.952 C379.005,52.257 379.005,53.275 379.95,55.528 C381.403,58.871 381.331,59.162 379.295,61.56 C378.351,62.651 376.897,66.139 376.025,69.264 C371.955,84.164 369.774,87.725 359.817,96.302 C356.546,99.136 356.401,99.427 356.837,102.116 C358.582,113.963 358.872,115.198 360.035,115.417 C360.835,115.562 363.451,112.945 367.667,107.785 C371.155,103.497 375.443,98.409 377.115,96.592 C378.787,94.775 380.386,92.595 380.604,91.723 C380.894,90.851 382.275,89.542 383.584,88.815 C384.965,88.161 389.18,84.673 392.959,81.184 C398.12,76.46 400.445,73.698 401.899,70.645 C404.588,65.122 408.004,63.087 413.819,63.45 C419.633,63.813 426.102,68.392 429.881,74.861 C431.407,77.477 432.643,80.53 432.643,81.62 C432.643,84.673 428.863,88.089 422.758,90.414 C419.924,91.432 415.854,93.394 413.746,94.703 C410.112,96.883 409.676,97.464 406.769,104.078 C402.844,112.945 400.954,118.687 399.428,126.246 C398.047,133.223 398.41,134.095 402.844,134.822 C404.37,135.113 407.059,136.203 408.876,137.366 C410.621,138.456 413.673,140.128 415.636,140.927 C421.159,143.398 423.558,145.652 429.154,153.574 C441.146,170.508 449.359,178.867 459.389,184.245 C464.259,186.861 466.948,189.987 466.657,192.53 C466.439,194.129 465.204,195.147 458.808,198.636 C450.886,202.996 442.673,205.976 439.766,205.54 C438.094,205.322 438.021,205.104 436.277,198.418 C435.55,195.801 434.024,193.766 429.009,188.606 C423.049,182.428 416.435,174.215 411.929,167.383 C410.475,165.057 409.458,164.258 408.077,164.258 C406.26,164.258 395.503,169.636 390.27,173.197 C388.744,174.215 386.782,175.305 385.982,175.596 C385.183,175.814 380.313,178.285 375.153,181.047 C361.925,188.242 357.491,189.187 344.045,187.515 C336.632,186.571 335.76,187.007 337.94,190.931 C339.321,193.475 339.394,194.202 338.74,200.235 C337.795,209.247 337.795,209.029 340.702,213.753 C343.537,218.332 343.537,219.059 340.629,228.289 C338.231,236.066 337.504,251.91 339.249,259.832 C339.83,262.667 340.993,268.772 341.792,273.569 C342.665,278.293 344.118,284.18 345.063,286.652 C347.098,291.812 348.697,298.135 349.424,303.804 C349.86,307.002 350.441,308.165 352.404,309.982 C354.584,312.017 354.802,312.526 354.439,315.07 C354.221,316.669 353.494,319.576 352.84,321.465 C351.677,324.954 351.677,324.954 353.712,328.734 C356.256,333.385 358.073,335.057 360.689,335.057 C363.669,335.057 364.759,336.801 363.742,339.708 C362.434,343.27 362.652,344.796 365.05,347.776 C366.286,349.302 367.23,350.974 367.23,351.555 C367.23,352.137 368.248,353.663 369.556,354.898 C371.301,356.643 371.955,357.951 372.027,360.131 C372.1,361.73 372.754,364.856 373.408,367.036 C374.789,371.397 375.589,376.412 376.606,386.078 C377.042,389.858 378.06,394.291 379.15,396.98 C381.621,403.086 389.543,418.712 390.852,420.02 C392.959,422.128 402.699,418.93 408.876,414.133 C410.33,412.97 411.566,411.517 411.566,411.008 C411.566,410.426 410.185,408.755 408.586,407.228 C404.806,403.74 399.719,396.69 397.829,392.329 C395.867,387.75 394.631,381.209 394.776,376.485 C395.431,357.806 395.576,357.37 402.48,349.956 C404.734,347.558 407.495,343.924 408.658,341.889 C409.821,339.854 411.638,337.819 412.656,337.383 C416.217,335.711 425.084,336.51 438.821,339.563 C444.054,340.726 446.089,341.961 447.179,344.651 C448.124,346.904 450.013,350.029 458.008,362.385 C459.825,365.219 461.933,368.635 462.66,369.871 C463.314,371.179 464.332,372.124 464.84,371.978 C465.276,371.76 466.657,370.016 467.748,367.908 C469.419,364.783 470.509,363.838 474.289,361.948 C480.176,359.041 484.028,358.387 484.682,360.131 C484.973,360.858 484.827,362.457 484.391,363.766 C483.665,365.655 483.737,366.745 484.973,370.307 L486.426,374.522 L482.865,382.88 C478.868,391.966 476.324,395.89 470.655,401.705 C468.547,403.812 466.803,405.993 466.803,406.574 C466.803,407.156 465.712,410.208 464.332,413.334 C457.136,429.977 455.61,433.829 455.028,436.809 C454.738,438.626 453.357,441.897 451.976,444.077 C450.668,446.258 449.359,449.02 449.069,450.183 C448.778,451.345 446.743,454.035 444.417,456.215 C434.242,466.027 432.57,467.844 432.134,469.734 C431.843,471.187 430.608,472.35 427.773,474.094 C425.666,475.33 422.177,477.51 420.069,478.819 C418.034,480.127 415.636,481.29 414.836,481.435 C414.037,481.58 411.566,482.089 409.385,482.598 C407.205,483.034 402.917,483.688 399.937,483.979 C396.957,484.342 393.468,484.996 392.16,485.578 C390.198,486.377 389.107,486.377 385.255,485.505 C382.493,484.851 376.824,484.415 371.228,484.415 C366.068,484.415 359.163,484.124 356.038,483.761 L350.296,483.107 L346.88,486.813 L343.391,490.593 L333.289,490.593 L323.186,490.593 L321.006,492.846 L318.898,495.099 L306.906,494.736 C296.44,494.445 294.259,494.154 289.462,492.555 C280.377,489.357 278.778,489.357 274.272,492.337 C268.967,495.971 266.495,496.407 250.578,497.207 C243.02,497.57 232.19,498.152 226.594,498.588 C220.997,498.951 207.188,499.46 195.923,499.751 C177.535,500.187 175.282,500.114 174.264,499.024 C172.81,497.57 172.156,497.57 170.993,498.951 C169.976,500.114 168.377,500.187 162.272,499.242 z M185.893,141.654 C186.62,140.564 184.221,138.238 181.895,137.729 C180.587,137.439 178.552,137.802 176.299,138.747 C170.848,140.927 168.958,141.145 164.67,139.91 C160.673,138.747 159.146,138.892 160.6,140.346 C162.272,142.018 184.948,143.18 185.893,141.654 z M333.507,128.063 C335.106,127.045 337.65,120.94 337.577,118.469 C337.286,111.274 335.251,110.038 330.89,114.472 C329.509,115.925 326.966,117.888 325.294,118.905 C323.55,119.923 322.169,121.158 322.169,121.74 C322.169,122.321 323.695,123.847 325.585,125.156 C330.6,128.644 331.908,129.153 333.507,128.063 z M203.99,104.514 C205.153,102.625 203.118,101.026 195.341,97.537 C184.948,92.813 177.898,88.743 172.738,84.455 C170.121,82.347 167.795,80.748 167.577,80.966 C166.923,81.62 169.322,87.216 171.866,91.214 C174.191,94.703 174.409,94.848 178.261,95.284 C183.276,95.793 184.657,96.374 185.239,98.337 C186.038,101.098 187.71,102.334 192.652,103.788 C201.446,106.404 202.682,106.477 203.99,104.514 z M336.123,78.858 C336.414,77.623 336.341,76.387 335.978,76.024 C335.033,75.079 333.071,76.896 333.071,78.858 C333.071,82.129 335.251,82.129 336.123,78.858 z M349.787,55.673 C349.787,55.528 350.005,54.874 350.223,54.22 C350.514,53.347 350.223,53.057 349.133,53.057 C348.116,53.057 347.607,53.493 347.607,54.51 C347.607,55.31 348.116,55.964 348.697,55.964 C349.278,55.964 349.787,55.819 349.787,55.673 z" fill="#000000"/>
  </g>
</svg>
