<?xml version="1.0" encoding="UTF-8"?>
<!DOCTYPE svg PUBLIC "-//W3C//DTD SVG 1.1//EN" "http://www.w3.org/Graphics/SVG/1.1/DTD/svg11.dtd">
<svg version="1.1" xmlns="http://www.w3.org/2000/svg" xmlns:xlink="http://www.w3.org/1999/xlink" x="0" y="0" width="500" height="500" viewBox="0, 0, 500, 500">
  <g id="layer101">
    <path d="M355.948,482.198 C351.12,480.767 345.397,476.654 338.78,469.769 C335.025,465.924 331.895,462.258 331.895,461.721 C331.895,461.095 329.481,458.323 326.53,455.373 C323.49,452.422 320.986,449.024 320.718,447.593 C320.45,446.252 319.198,442.944 317.946,440.44 C316.694,437.847 315.889,435.343 316.158,434.985 C316.873,433.823 312.581,420.41 307.574,408.428 C303.013,397.519 301.94,395.463 300.51,395.463 C298.811,395.463 296.128,399.218 296.128,401.543 C296.128,405.478 293.624,412.005 291.121,414.241 C288.706,416.565 288.438,419.248 289.869,428.011 C292.104,442.407 292.551,446.788 291.836,447.504 C290.853,448.487 287.991,441.96 285.845,433.644 C284.951,430.246 283.699,427.295 283.073,427.027 C281.464,426.401 273.863,432.839 273.327,435.164 C273.148,436.148 272.701,438.562 272.433,440.44 C271.628,445.268 266.71,450.455 261.255,452.243 C258.483,453.137 256.159,454.657 254.996,456.177 C254.013,457.608 252.045,459.218 250.615,459.843 C248.558,460.648 247.574,461.989 246.501,465.298 C243.64,473.793 235.414,477.906 228.35,474.24 C224.326,472.183 217.53,464.94 214.49,459.396 C212.97,456.714 211.539,455.551 208.946,454.657 C206.979,454.031 204.207,452.422 202.776,451.081 C199.647,448.04 194.729,440.529 192.046,434.449 C190.884,431.945 189.095,429.084 187.933,428.1 C186.86,427.117 184.803,423.987 183.373,421.215 C180.958,416.387 180.869,416.029 182.121,412.989 C183.909,408.697 183.82,405.656 181.584,400.828 C180.422,398.145 179.707,394.39 179.438,389.651 C178.991,379.994 174.967,368.101 170.049,362.289 C167.278,358.981 166.115,356.566 165.042,351.917 C163.075,343.243 162.717,342.796 159.409,345.568 C157.62,347.088 154.759,348.25 150.914,348.876 C147.785,349.413 142.867,350.933 139.916,352.185 C129.543,356.745 119.797,361.752 119.439,362.736 C119.171,363.362 118.903,366.223 118.813,369.264 C118.634,373.913 118.187,375.076 115.684,377.937 C114.164,379.725 112.822,381.961 112.822,382.944 C112.822,383.839 111.839,385.359 110.587,386.342 C109.335,387.326 107.815,389.472 107.278,391.171 C106.742,392.78 105.311,395.284 104.149,396.625 C103.076,398.056 102.092,399.665 102.092,400.291 C102.092,400.917 101.109,402.706 99.857,404.405 C98.605,406.104 97.621,408.339 97.621,409.501 C97.621,412.542 95.118,418.085 94.045,417.37 C92.525,416.476 93.061,410.127 95.386,400.828 C98.337,389.114 110.945,352.9 114.968,344.495 C116.041,342.349 116.31,342.259 123.731,342.617 C130.527,342.885 132.136,342.617 136.429,340.65 C139.916,339.04 141.972,337.341 143.224,335.285 C144.297,333.586 146.354,331.619 147.785,330.993 C149.305,330.367 153.597,326.522 157.173,322.319 L163.79,314.719 L163.254,310.337 C162.807,306.94 162.986,305.688 164.237,304.257 C165.31,303.005 165.579,301.843 165.132,300.054 C163.88,294.958 163.88,292.186 165.132,290.218 C165.847,289.145 166.473,287.894 166.473,287.447 C166.473,287.089 164.684,284.049 162.449,280.74 C157.799,273.855 157.173,269.384 160.214,265.539 C162.538,262.678 162.449,262.052 159.766,259.548 C158.515,258.386 157.263,256.061 156.995,254.273 C156.637,252.305 154.849,249.355 152.524,246.672 C150.378,244.347 148.589,242.022 148.589,241.665 C148.589,241.307 147.427,240.502 145.996,240.055 C144.476,239.519 142.33,237.641 141.168,235.674 C140.005,233.796 138.306,231.65 137.412,230.935 C134.998,228.968 133.12,223.96 132.584,218.416 C132.047,213.767 131.868,213.409 128.202,211.442 C124.268,209.206 123.195,207.597 120.78,199.728 C119.707,196.42 118.992,195.615 116.399,194.721 C113.359,193.648 113.269,193.469 113.269,189.177 C113.269,186.584 112.733,184.08 112.018,183.186 C111.302,182.292 107.189,179.788 102.808,177.642 C96.727,174.602 94.492,172.903 92.793,170.22 C91.541,168.342 88.769,165.213 86.444,163.424 C83.404,160.831 82.152,159.132 81.437,156.092 C80.185,151.443 75.446,146.882 68.203,143.484 C60.245,139.818 52.108,133.648 50.23,129.893 C49.246,128.015 47.19,125.511 45.67,124.438 C41.646,121.488 35.029,114.603 35.029,113.44 C35.029,112.993 36.102,111.652 37.354,110.668 C39.411,109.059 39.589,108.522 38.785,106.913 C38.248,105.929 36.46,104.23 34.85,103.157 C33.241,102.084 30.558,100.296 28.859,99.044 C27.16,97.792 24.657,96.808 23.315,96.808 C20.454,96.808 15.447,92.785 5.7,82.681 C-0.201,76.421 -0.648,75.795 0.514,74.096 C3.644,69.268 14.016,68.105 22.511,71.682 C32.078,75.617 35.566,77.315 42.004,81.429 C46.832,84.379 49.604,85.452 52.376,85.631 C57.026,85.721 57.562,86.078 60.692,90.996 C63.553,95.646 82.867,111.831 90.289,115.854 C92.972,117.374 97.442,121.13 100.93,125.064 C104.596,129.088 108.262,132.128 110.319,133.023 C112.733,133.917 114.611,135.705 116.757,139.014 C121.049,145.72 138.485,162.441 142.509,163.782 C144.297,164.408 146.443,165.839 147.248,167.091 C150.556,172.187 164.327,186.494 167.278,187.835 C169.066,188.64 171.301,190.697 172.285,192.396 C174.878,196.867 187.128,209.475 188.827,209.475 C189.542,209.475 192.136,207.507 194.46,205.182 C197.59,202.053 198.663,200.264 198.663,198.297 C198.663,195.436 201.346,186.584 204.118,180.146 C206.621,174.602 206.264,172.098 202.24,166.196 C200.273,163.335 198.663,159.848 198.663,158.596 C198.663,155.109 197.054,153.499 191.599,151.353 C188.917,150.37 184.714,148.134 182.121,146.435 C179.528,144.736 176.935,143.306 176.309,143.306 C175.683,143.306 172.106,140.087 168.351,136.152 C163.79,131.413 160.839,128.999 159.498,128.999 C157.173,128.999 156.995,130.072 158.962,133.023 C160.214,134.99 160.214,135.437 158.425,138.745 C157.442,140.802 156.1,142.411 155.564,142.411 C153.597,142.411 148.679,137.941 145.281,132.844 C141.436,127.3 139.737,122.74 139.916,119.163 C140.095,117.553 139.379,116.659 137.68,115.765 C134.819,114.424 134.64,113.798 136.607,110.042 C137.949,107.539 137.949,107.002 136.518,103.962 C135.087,100.832 135.087,100.475 136.518,98.239 C137.859,96.272 137.859,95.467 136.965,93.321 C136.16,91.175 136.16,90.013 137.054,87.42 C138.038,84.916 138.038,83.843 137.144,82.502 C136.518,81.518 136.071,78.836 136.071,76.511 C135.981,74.096 135.445,71.235 134.73,69.983 C133.12,67.211 133.12,64.261 134.461,58.448 C135.624,53.352 136.607,52.726 137.859,56.213 C138.396,57.554 139.558,59.7 140.542,61.041 C141.525,62.472 142.33,64.618 142.33,65.87 C142.33,68.463 144.029,72.666 145.102,72.666 C146.801,72.666 147.606,76.064 146.622,79.193 C145.728,82.233 145.907,82.949 148.858,88.761 C150.735,92.159 152.166,96.183 152.166,97.613 C152.166,99.044 152.613,100.564 153.06,100.832 C153.597,101.101 153.954,102.084 153.954,102.889 C153.954,103.694 154.491,105.482 155.206,106.734 C155.832,107.986 156.637,110.042 156.995,111.384 C157.263,112.725 157.889,113.798 158.336,113.798 C158.783,113.798 161.734,116.212 164.953,119.073 C169.602,123.276 171.748,124.528 175.415,125.333 C181.048,126.584 183.104,127.568 186.771,130.966 C189.006,133.112 190.079,133.559 191.867,133.112 C195.802,132.128 196.875,129.267 196.249,122.292 C195.712,116.301 195.533,115.854 191.42,111.741 C188.827,109.238 186.771,106.197 186.145,104.141 C184.803,99.312 185.072,88.94 186.592,83.754 C187.844,79.461 191.778,74.454 192.672,75.974 C192.851,76.332 193.03,80.356 193.03,84.827 C193.119,91.801 193.387,93.5 195.444,97.345 C196.696,99.759 197.769,102.263 197.769,102.889 C197.769,103.515 199.647,105.84 201.882,108.075 C205.548,111.562 206.442,112.009 208.857,111.473 C211.271,111.026 211.897,111.294 212.97,113.351 C213.596,114.603 216.368,116.927 219.05,118.448 C221.733,119.968 225.846,123.187 228.081,125.511 C231.837,129.356 232.731,129.804 237.56,130.34 C244.892,131.234 246.859,132.218 253.118,138.119 C256.784,141.607 258.752,144.289 259.378,146.614 C259.914,148.492 261.524,151.89 262.954,154.125 C265.637,158.507 269.303,166.196 269.303,167.627 C269.303,168.164 270.018,169.594 271.002,170.846 C271.896,172.187 272.969,174.87 273.327,176.837 C273.684,178.804 275.473,183.275 277.35,186.852 C279.228,190.429 281.195,194.631 281.732,196.241 L282.805,199.191 L284.593,197.045 C285.756,195.615 286.292,193.648 286.292,190.518 C286.292,184.527 287.276,183.007 292.73,181.219 C300.331,178.804 302.298,177.463 305.517,172.545 C307.216,169.952 310.077,165.66 311.866,162.977 C313.654,160.295 318.393,154.662 322.417,150.459 C332.342,140.176 334.578,137.046 334.578,133.38 C334.667,128.909 336.098,123.455 337.439,122.65 C338.065,122.203 340.658,121.309 343.072,120.594 C349.242,118.716 356.843,110.758 363.46,99.312 C364.801,97.077 367.215,94.305 368.914,93.232 C370.613,92.248 376.246,86.794 381.432,81.339 C390.911,71.056 394.487,65.155 394.487,59.432 C394.487,55.229 396.633,53.262 401.82,52.547 C409.241,51.563 412.639,49.775 424.71,40.654 C441.432,28.136 455.112,21.519 466.826,20.267 C469.598,19.999 473.801,19.105 476.304,18.389 C481.938,16.601 492.847,16.69 496.96,18.658 C498.659,19.462 500,20.357 500,20.714 C500,20.982 498.748,22.413 497.318,23.844 C495.261,25.811 493.562,26.526 489.181,26.973 C484.978,27.51 483.19,28.136 481.938,29.656 C479.881,32.249 479.881,32.875 482.117,35.11 L483.905,36.899 L475.321,45.393 C470.582,50.043 465.843,54.156 464.77,54.425 C461.372,55.229 456.185,60.058 456.185,62.383 C456.185,65.87 458.153,66.675 467.273,66.496 C471.923,66.407 475.947,66.675 476.215,67.211 C476.483,67.658 475.321,69.268 473.622,70.788 C470.135,73.828 468.704,76.779 468.704,80.713 C468.704,82.681 468.167,83.306 466.29,83.843 C464.591,84.201 463.697,84.022 463.16,83.038 C462.087,81.071 460.12,81.25 457.974,83.396 C455.649,85.721 455.738,87.241 458.421,90.192 C461.103,93.142 461.193,93.947 458.779,98.776 C457.795,100.922 456.633,103.247 456.275,103.962 C455.917,104.677 451.625,107.36 446.707,109.774 C435.888,115.228 431.596,118 427.93,121.935 C424.353,125.869 423.995,127.121 425.515,130.251 C426.588,132.218 426.588,133.291 425.784,135.347 C425.158,136.778 424.979,138.924 425.247,140.176 C425.873,142.769 423.995,146.972 420.687,150.638 C418.809,152.605 418.541,153.589 418.988,156.182 C419.524,158.864 419.256,159.49 417.557,160.563 C416.395,161.278 413.98,162.173 412.192,162.441 C410.314,162.799 407.721,163.961 406.38,165.123 C402.982,167.895 400.3,169.237 398.064,169.237 C395.203,169.237 389.301,172.545 388.675,174.512 C387.96,176.837 389.48,179.698 391.715,180.414 C394.398,181.219 400.121,177.821 402.803,173.797 C405.486,169.684 405.486,169.684 410.761,171.114 C413.98,172.009 415.858,171.83 422.922,170.22 C435.888,167.18 443.667,166.912 452.519,169.237 C461.729,171.561 471.208,175.764 472.012,177.821 C472.907,180.324 470.313,181.308 460.567,182.47 C450.016,183.722 445.366,185.6 444.203,189.087 C443.488,191.233 443.667,191.949 445.813,194.184 C450.016,198.566 447.959,200.622 438.302,201.785 C428.466,202.947 420.866,204.378 419.256,205.182 C418.272,205.719 417.736,206.792 417.915,207.954 C418.094,209.475 419.345,210.1 424.085,211.263 C431.596,213.23 432.043,213.498 432.043,216.628 C432.043,218.327 433.116,220.473 434.815,222.44 C438.213,226.285 437.676,227.179 431.596,228.342 C423.012,229.951 419.167,233.17 421.223,237.105 C422.654,239.698 422.386,242.291 420.776,242.917 C419.971,243.185 417.468,243.453 415.232,243.453 C410.135,243.453 408.884,244.168 407.095,248.103 L405.665,251.054 L397.17,251.501 C392.52,251.769 387.96,252.305 387.155,252.753 C384.83,253.826 384.383,256.598 386.082,259.459 C388.228,263.125 387.245,264.913 383.131,264.913 C379.018,264.913 378.124,265.45 376.514,268.937 C375.263,271.62 375.173,271.62 367.662,271.62 C363.46,271.62 359.525,271.977 358.899,272.335 C358.184,272.871 358.005,274.213 358.363,276.538 C358.899,279.757 358.72,280.114 356.485,280.651 C353.624,281.366 347.99,279.846 342.893,276.895 C338.601,274.392 336.187,274.213 334.578,276.091 C333.952,276.806 333.058,277.432 332.61,277.432 C332.163,277.432 326.888,275.018 320.897,271.977 C310.077,266.523 309.898,266.523 303.729,266.97 C297.291,267.328 286.471,271.083 284.414,273.497 C282.805,275.465 284.236,279.041 288.259,282.797 C292.194,286.374 292.462,289.056 288.975,289.056 C285.756,289.056 285.935,291.56 289.332,295.315 C291.031,297.282 294.161,302.2 296.218,306.224 C298.185,310.337 301.225,314.898 302.834,316.418 C304.712,318.206 306.232,320.71 306.858,323.124 C307.395,325.27 308.289,327.863 308.825,328.847 C313.922,337.61 315.979,340.918 317.946,343.511 C320.271,346.641 320.36,347.088 320.629,359.875 C320.718,365.508 320.897,366.045 324.116,369.264 C326.709,371.946 327.424,373.466 327.424,375.88 C327.424,380.441 333.147,388.846 337.081,390.187 C339.585,390.992 340.658,392.244 343.162,397.519 C345.397,402.259 346.202,405.12 346.202,408.518 C346.202,411.737 347.543,416.923 351.03,426.58 C353.624,433.912 356.485,440.976 357.29,442.049 C358.094,443.212 358.72,445.09 358.72,446.252 C358.72,448.13 358.363,448.309 355.412,448.04 C352.014,447.772 352.014,447.772 352.282,450.812 C352.461,452.511 353.713,456.088 354.965,458.86 C357.2,463.51 357.647,463.867 360.777,464.135 C363.46,464.404 364.533,465.03 366.231,467.623 C368.914,471.468 373.117,474.15 376.514,474.15 C381.254,474.15 380.359,479.247 375.263,481.751 C372.133,483.181 360.151,483.539 355.948,482.198 z M344.861,446.788 C346.47,446.073 348.08,444.821 348.348,444.195 C348.974,442.496 336.903,417.728 334.22,415.224 C330.375,411.558 327.603,406.819 326.62,401.901 C325.457,396.268 321.88,388.935 318.393,384.912 C316.962,383.302 315.8,381.335 315.8,380.441 C315.711,377.49 310.971,369.979 309.094,369.979 C307.484,369.979 307.305,370.515 307.484,374.539 C307.842,382.766 315.532,403.868 320.629,410.574 C321.88,412.273 323.222,415.135 323.49,416.834 C324.295,421.036 325.278,422.914 328.855,426.938 C332.074,430.515 336.634,439.009 337.618,443.301 C338.333,446.252 339.674,448.219 341.016,448.219 C341.552,448.219 343.251,447.593 344.861,446.788 z M203.939,416.118 C204.743,415.582 205.012,414.062 204.565,410.574 C203.134,396.983 202.955,390.724 203.939,387.147 C204.565,385.09 205.101,380.351 205.28,376.685 L205.459,370.068 L199.826,364.614 C196.696,361.574 194.192,358.355 194.192,357.371 C194.192,356.387 193.566,354.688 192.762,353.615 C192.046,352.542 190.794,349.681 190.079,347.267 C188.469,341.723 185.787,338.236 184.356,339.756 C183.462,340.561 183.552,342.081 184.714,346.373 C185.876,351.112 185.966,352.9 185.072,357.103 C184.088,362.11 184.267,364.167 186.949,374.45 C187.486,376.417 188.917,382.497 190.168,387.862 C191.42,393.317 193.387,399.755 194.55,402.169 C195.712,404.673 197.143,408.428 197.769,410.664 C199.378,416.565 200.899,417.996 203.939,416.118 z M344.771,269.205 C345.487,267.954 345.397,267.328 344.235,266.165 C341.552,263.483 337.528,266.97 339.943,269.921 C341.373,271.53 343.43,271.262 344.771,269.205 z M378.392,256.866 C381.164,254.094 380.628,251.769 376.872,249.802 C375.799,249.265 374.1,248.818 373.117,248.818 C370.971,248.818 367.662,251.769 367.662,253.736 C367.662,255.972 371.06,258.654 373.921,258.654 C375.441,258.654 377.409,257.849 378.392,256.866 z M283.52,249.176 C290.942,244.884 293.535,242.47 295.86,237.552 C297.112,234.869 298.542,232.634 299.168,232.544 C299.705,232.455 302.566,232.365 305.606,232.365 C310.793,232.276 311.419,232.008 319.645,226.464 C324.384,223.245 328.318,220.383 328.318,219.936 C328.318,217.254 316.336,219.489 303.818,224.497 C291.031,229.593 274.668,241.486 274.668,245.599 C274.668,247.388 277.529,251.501 278.871,251.501 C279.139,251.501 281.285,250.428 283.52,249.176 z M410.404,236.121 C412.103,234.422 411.745,231.829 409.688,231.829 C407.632,231.829 406.559,233.796 407.363,235.853 C407.989,237.462 408.973,237.552 410.404,236.121 z M389.569,230.041 C389.569,228.073 386.082,228.342 385.724,230.309 C385.456,231.65 385.814,231.918 387.513,231.65 C388.586,231.471 389.569,230.756 389.569,230.041 z M180.78,229.325 C180.78,228.342 179.796,227.179 178.544,226.643 C174.967,225.033 174.342,225.391 175.862,228.252 C177.471,231.292 180.78,232.008 180.78,229.325 z M419.882,223.602 C421.67,221.099 421.67,218.953 419.971,217.522 C416.842,214.929 411.566,219.668 412.818,223.871 C413.623,226.285 418.094,226.106 419.882,223.602 z M268.409,220.115 C272.343,215.734 274.4,211.531 273.148,210.279 C272.343,209.475 271.181,209.922 268.409,212.425 C266.442,214.303 264.653,215.734 264.385,215.734 C264.117,215.734 262.418,215.108 260.54,214.392 C257.5,213.051 257.142,213.051 256.069,214.571 C254.907,216.27 255.264,219.758 256.963,221.725 C257.5,222.351 259.646,222.887 261.881,222.887 C265.19,222.887 266.263,222.44 268.409,220.115 z M342.446,208.759 C342.715,207.328 342.268,206.792 340.926,206.792 C338.78,206.792 337.797,208.133 338.512,210.011 C339.317,212.068 342.089,211.173 342.446,208.759 z M264.832,205.987 C266.352,203.036 265.816,200.264 263.401,198.297 C261.076,196.42 261.076,196.33 262.507,193.558 C264.296,190.16 264.296,187.21 262.686,183.365 C261.971,181.755 260.987,178.804 260.451,176.837 C259.914,174.87 258.126,171.025 256.337,168.342 C254.638,165.66 253.208,162.888 253.208,162.083 C253.208,160.205 251.419,158.507 249.631,158.507 C248.737,158.507 247.574,160.116 246.591,162.977 C245.697,165.392 244.177,168.432 243.282,169.594 C240.779,172.813 240.332,176.479 242.031,180.503 C242.835,182.381 243.908,186.405 244.266,189.356 C245.071,194.274 245.428,194.989 249.631,198.655 C255.264,203.484 261.345,207.686 262.775,207.686 C263.401,207.686 264.296,206.881 264.832,205.987 z M432.311,189.803 C435.441,186.852 435.888,186.047 435.083,184.706 C433.652,182.381 431.864,182.292 428.466,184.616 C424.8,187.21 423.548,190.16 425.426,192.038 C427.393,194.005 428.108,193.737 432.311,189.803 z M376.962,188.819 C380.807,185.779 379.555,181.755 374.816,181.755 C371.328,181.755 363.549,184.259 362.297,185.779 C360.777,187.657 362.476,189.624 366.142,190.071 C372.67,190.876 374.637,190.607 376.962,188.819 z M101.198,162.53 C101.198,161.815 100.572,161.189 99.767,161.189 C98.515,161.189 98.515,161.457 99.41,162.53 C100.036,163.246 100.662,163.872 100.84,163.872 C101.019,163.872 101.198,163.246 101.198,162.53 z M409.778,154.662 C409.688,153.589 408.437,153.857 408.079,155.019 C407.811,155.556 408.168,155.913 408.794,155.735 C409.331,155.466 409.778,155.019 409.778,154.662 z M405.933,112.278 C406.112,111.562 405.486,111.115 404.413,111.115 C402.535,111.115 401.283,112.278 402.267,113.261 C403.161,114.155 405.486,113.53 405.933,112.278 z M432.579,107.449 C436.335,106.287 439.196,103.068 439.822,99.223 C440.448,95.199 438.302,91.443 435.262,91.443 C429.539,91.443 415.322,105.75 418.272,108.612 C418.898,109.327 429.181,108.433 432.579,107.449 z M440.09,57.822 C440.09,57.018 439.464,56.571 438.57,56.749 C436.335,57.197 436.067,59.253 438.213,59.253 C439.286,59.253 440.09,58.717 440.09,57.822 z" fill="#000000"/>
  </g>
</svg>
