<?xml version="1.0" encoding="UTF-8"?>
<!DOCTYPE svg PUBLIC "-//W3C//DTD SVG 1.1//EN" "http://www.w3.org/Graphics/SVG/1.1/DTD/svg11.dtd">
<svg version="1.1" xmlns="http://www.w3.org/2000/svg" xmlns:xlink="http://www.w3.org/1999/xlink" x="0" y="0" width="500" height="500" viewBox="0, 0, 500, 500">
  <g id="layer101">
    <path d="M326.839,498.734 C323.283,498.079 317.108,497.424 313.272,497.33 C309.436,497.33 301.389,496.301 295.494,495.085 L284.734,493.026 L284.454,488.816 C284.173,484.886 284.36,484.512 287.728,482.266 C290.629,480.395 291.377,479.366 291.565,476.465 C291.939,471.6 287.635,462.524 281.74,456.068 C278.84,452.793 276.313,448.77 274.91,445.027 C273.413,441.004 271.729,438.384 269.577,436.7 C265.179,433.238 262.559,427.905 262.559,422.384 C262.653,417.238 261.156,415.554 257.413,416.303 C254.419,416.958 253.203,416.303 251.612,413.402 C250.302,410.876 245.343,408.069 243.565,408.817 C242.068,409.379 239.916,416.49 240.852,417.893 C241.975,419.858 240.104,425.285 236.922,429.121 C234.209,432.396 233.741,433.425 234.302,436.138 C234.677,437.916 234.396,440.536 233.741,442.033 C232.525,445.027 226.63,449.612 224.197,449.612 C223.355,449.612 216.993,446.898 210.069,443.624 C203.145,440.255 196.97,437.448 196.315,437.261 C195.473,437.074 195.099,438.29 195.005,441.378 C194.911,445.121 194.35,446.431 191.45,449.331 C189.578,451.296 185.274,456.816 181.906,461.682 C176.105,469.916 174.421,473.939 176.666,473.939 C177.228,473.939 177.602,475.342 177.602,477.12 C177.602,481.518 173.298,485.167 168.152,485.167 C166.093,485.167 162.538,485.635 160.199,486.196 C157.111,487.038 151.871,486.945 140.082,486.196 C119.03,484.793 116.316,484.138 113.977,479.459 C112.948,477.494 112.106,475.342 112.106,474.687 C112.2,474.032 114.164,472.442 116.691,471.319 C119.123,470.103 122.398,468.044 123.895,466.734 C130.164,461.308 139.427,458.22 147.754,458.781 C151.216,458.968 154.678,458.781 155.427,458.407 C157.485,457.191 168.058,444.279 168.713,442.127 C169.649,439.32 167.31,435.483 162.631,432.209 C153.649,425.753 150.468,422.384 149.158,417.706 C147.099,410.876 146.07,409.379 143.17,409.379 C141.766,409.379 139.801,408.724 138.866,407.975 C137.836,407.227 135.591,406.572 133.907,406.572 C132.035,406.572 129.228,405.543 127.264,404.233 C125.392,402.923 122.772,401.893 121.369,401.893 C117.439,401.893 113.977,397.964 113.977,393.566 C113.977,390.198 113.603,389.543 109.767,386.923 C103.217,382.432 102.001,378.221 105.65,372.327 C106.866,370.362 107.334,368.491 106.96,367.274 C106.586,366.151 106.866,363.251 107.428,360.631 C108.738,355.204 107.428,345.661 104.621,340.234 C103.685,338.363 101.533,333.684 99.849,329.848 C98.165,326.012 95.638,321.801 94.235,320.492 C90.586,317.123 88.527,311.884 89.557,308.889 C90.773,305.895 103.217,295.977 123.802,281.849 C128.48,278.574 130.819,276.235 131.942,273.709 C133.158,270.902 134.562,269.592 138.866,267.533 C144.012,265.007 144.293,265.007 146.912,266.504 C148.409,267.346 150.094,268.095 150.561,268.095 C152.62,268.095 151.123,263.978 147.474,259.3 C145.228,256.586 142.328,252.844 141.018,251.16 C139.708,249.382 136.339,246.668 133.532,245.171 C129.322,242.832 127.451,242.364 121.93,242.364 C115.849,242.364 114.819,242.645 107.428,246.855 C103.03,249.382 97.603,252.002 95.264,252.75 C75.428,258.832 56.715,241.803 66.259,226.271 C68.972,221.78 70.563,222.341 72.247,228.33 C74.118,234.505 76.925,237.967 80.855,238.715 C83.381,239.183 84.598,238.528 90.96,233.101 C99.194,226.084 107.802,221.031 113.977,219.441 C121.088,217.663 120.901,217.85 119.217,215.23 C117.439,212.517 117.346,209.71 118.843,202.412 C119.965,197.079 119.965,196.985 117.252,194.178 L114.632,191.371 L116.036,186.038 C116.878,183.044 118.188,177.243 118.936,173.032 C119.685,168.915 121.743,162.366 123.334,158.53 C125.018,154.694 126.609,149.735 126.796,147.395 C127.451,140.472 127.919,139.068 131.1,135.419 C132.784,133.548 134.749,130.834 135.497,129.337 C136.246,127.84 138.772,125.782 141.766,124.378 C148.222,121.197 148.222,120.636 141.205,101.642 C139.334,96.589 138.398,92.847 138.772,91.256 C139.24,89.291 138.491,87.981 134.562,84.052 C128.293,77.689 128.199,74.976 134.094,70.017 C137.462,67.21 138.304,65.993 137.836,64.403 C137.556,63.186 138.398,59.725 139.801,56.169 C141.205,52.614 142.047,49.245 141.673,47.935 C140.55,43.257 151.123,30.064 155.614,30.626 C157.392,30.906 157.485,31.468 157.205,40.356 C156.924,48.31 157.111,50.087 158.421,51.397 C160.666,53.643 162.631,52.988 165.158,49.245 C166.748,47 167.31,44.754 167.31,41.292 C167.31,37.737 168.152,34.743 170.584,29.596 C175.263,19.772 186.771,0.778 188.362,0.123 C190.327,-0.625 192.666,2.182 192.104,4.521 C190.982,9.667 188.549,25.199 187.52,34.181 C186.865,39.982 185.836,44.941 184.9,46.345 C184.058,47.748 183.122,51.865 182.748,56.637 C182.28,61.97 181.625,65.151 180.409,66.648 C179.38,67.958 178.537,71.233 178.07,75.631 C177.508,81.712 177.695,83.022 179.38,85.736 C180.409,87.42 181.532,90.695 181.906,92.94 C182.187,95.092 183.122,97.619 183.871,98.274 C185.929,100.426 188.643,98.461 189.298,94.25 C190.42,87.326 190.795,86.578 194.911,81.9 C197.531,78.905 199.496,75.631 200.151,73.011 C201.555,67.303 202.958,66.368 205.578,69.175 C208.759,72.543 210.35,77.876 209.227,81.338 C208.666,82.929 207.917,86.484 207.543,89.291 C207.075,92.285 205.578,96.028 203.894,98.648 C199.87,104.636 197.438,109.782 196.315,114.367 C195.473,117.642 194.631,118.671 190.42,121.104 C185.181,124.285 180.315,127.56 176.76,130.273 C174.795,131.864 174.701,132.425 175.543,135.325 C176.198,137.758 176.105,139.629 175.263,141.875 C168.62,160.307 163.848,171.722 161.976,173.687 C160.386,175.465 159.169,178.74 157.766,184.822 L155.895,193.523 L157.766,196.049 C158.889,197.453 160.292,200.166 161.134,201.944 C162.818,205.967 167.59,209.242 171.52,208.961 C173.111,208.868 175.263,209.149 176.385,209.523 C178.444,210.178 185.742,218.224 187.707,221.967 C188.736,223.838 189.485,224.026 196.128,223.932 C201.274,223.838 203.987,223.371 205.671,222.154 C210.443,218.879 215.402,217.382 219.519,218.037 C223.917,218.692 223.73,219.16 223.542,210.271 C223.542,206.248 222.794,203.16 221.484,200.447 C219.706,196.985 216.525,186.693 214.092,176.401 C213.625,174.623 211.94,169.57 210.35,165.173 C206.233,154.132 205.484,150.764 206.607,147.863 C207.169,146.46 207.543,142.343 207.543,138.694 C207.543,131.676 209.508,125.688 212.595,123.162 C213.999,122.039 214.467,122.133 216.993,124.565 C221.671,129.057 223.355,132.612 224.852,141.875 C226.537,151.325 229.811,163.208 233.273,172.19 C234.49,175.278 236.174,179.956 237.016,182.482 C247.402,213.359 253.577,230.388 254.793,231.137 C257.507,232.914 259.378,230.388 260.688,223.09 C261.811,216.353 261.811,209.991 260.314,184.354 C259.846,176.214 260.033,172.939 261.343,168.448 C262.185,165.36 263.214,161.337 263.589,159.559 C263.963,157.688 265.647,153.664 267.331,150.483 C269.857,145.805 270.325,143.933 270.138,140.191 C269.857,136.448 270.232,135.045 272.571,131.489 C274.161,129.15 276.126,125.688 276.968,123.817 C280.15,116.799 288.851,109.221 292.126,110.531 C294.278,111.373 293.997,114.928 290.816,124.94 C289.225,129.805 287.728,135.793 287.541,138.226 C287.261,140.659 286.138,144.027 284.921,145.805 C281.366,151.044 280.337,163.395 280.337,201.851 C280.243,234.973 280.337,235.908 282.302,240.306 C283.986,243.955 284.266,245.358 283.424,247.604 C282.208,251.066 283.331,254.06 286.699,256.773 C290.816,260.048 291.752,261.92 292.687,269.685 C293.249,273.709 294.465,279.416 295.494,282.317 C296.524,285.311 297.366,289.147 297.366,290.925 C297.366,293.264 298.021,294.574 299.798,295.884 C301.202,296.913 302.512,299.065 302.886,300.843 C303.447,303.743 303.915,304.118 306.629,304.398 C311.962,304.96 334.605,299.346 343.868,295.229 C346.862,293.919 349.294,293.451 351.259,293.825 C354.066,294.293 354.347,294.013 358.651,286.714 C361.552,281.755 364.265,278.481 366.323,277.264 C371.657,274.083 372.499,270.808 369.411,264.82 C366.323,258.738 366.978,253.966 371.376,251.721 C376.428,249.008 382.323,250.972 384.382,255.838 C385.411,258.458 385.224,259.3 382.697,264.539 C380.639,268.843 380.078,270.808 380.732,272.025 C381.949,274.27 383.165,274.177 386.534,271.276 C388.779,269.405 389.995,269.031 392.335,269.405 C394.767,269.873 396.826,269.218 401.972,266.504 C408.147,263.136 415.258,257.616 415.258,256.118 C415.258,254.996 421.246,248.82 423.398,247.604 C424.521,247.043 427.141,246.575 429.199,246.575 C432.1,246.575 433.316,247.136 434.813,249.101 C438.275,253.405 435.749,257.522 426.954,261.732 C419.281,265.381 405.527,273.615 402.253,276.609 C400.381,278.2 399.352,280.258 398.978,283.159 C398.603,285.404 397.574,288.586 396.732,290.27 C395.516,292.703 395.422,293.638 396.358,295.697 C397.013,297.007 397.481,298.878 397.481,299.72 C397.481,300.562 398.51,303.369 399.82,305.895 C401.691,309.544 402.159,311.884 402.159,317.217 C402.159,325.451 400.288,331.158 396.171,335.462 C391.118,340.702 390.65,342.292 391.399,350.713 C392.054,359.134 394.206,363.999 401.598,375.04 C409.644,387.11 410.767,397.87 404.872,408.162 C403.188,411.156 400.568,415.273 399.165,417.332 C391.773,427.811 391.492,428.279 391.118,433.612 C390.744,438.29 391.212,439.975 394.112,446.337 C395.984,450.36 397.481,453.729 397.481,453.916 C397.481,454.103 396.732,454.29 395.797,454.29 C393.551,454.29 380.545,440.817 378.019,435.858 C373.715,427.53 374.464,420.887 380.732,410.314 C387.376,399.087 386.534,392.35 377.177,381.964 C374.37,378.783 371.282,374.666 370.347,372.888 C368.756,369.801 366.417,358.947 365.201,349.31 C364.452,343.415 362.861,342.199 358.557,344.164 C356.78,345.099 354.534,347.064 353.692,348.655 C350.698,354.175 349.107,355.672 347.797,354.362 C346.02,352.678 348.265,342.854 351.727,336.678 C354.628,331.626 354.253,330.129 350.417,331.252 C344.897,332.936 322.441,342.199 317.763,344.819 C312.617,347.626 312.336,347.626 309.623,346.222 C307.003,344.912 306.254,344.912 300.921,346.222 C282.863,350.9 281.46,350.713 277.904,343.134 C276.501,340.234 274.91,337.801 274.442,337.801 C273.881,337.801 273.694,340.047 273.787,343.134 C274.255,350.152 273.6,351.742 269.67,354.082 C266.957,355.766 266.583,356.327 267.331,357.824 C268.922,360.725 276.501,367.929 281.46,371.11 C284.547,373.169 286.699,375.414 287.916,378.128 C288.945,380.28 290.255,382.338 290.816,382.713 C292.032,383.461 292.032,388.42 290.816,390.666 C289.88,392.443 291.939,404.513 293.717,407.507 C298.582,415.835 298.676,416.209 298.863,426.688 C299.143,442.594 300.079,449.612 302.512,452.887 C303.635,454.477 306.348,459.156 308.5,463.366 C312.523,471.413 314.395,473.097 320.757,474.313 C322.628,474.594 326.371,476.559 329.084,478.617 C331.798,480.676 334.418,482.36 334.885,482.36 C335.353,482.36 336.57,484.044 337.599,486.009 C338.628,488.067 340.219,490.313 341.154,490.968 C342.09,491.623 343.681,493.588 344.71,495.272 C346.207,497.985 346.3,498.453 345.084,499.202 C343.119,500.418 334.698,500.231 326.839,498.734 z M205.11,330.129 C205.952,327.977 204.081,322.831 199.777,315.626 C196.034,309.264 193.882,307.954 191.73,310.48 C190.982,311.509 191.824,313.942 195.379,320.866 C197.999,325.918 200.245,330.409 200.619,330.877 C201.461,332.281 204.455,331.813 205.11,330.129 z M389.434,323.205 C391.025,321.895 391.867,320.492 391.68,319.182 C391.399,317.497 390.744,317.217 387.188,317.217 C383.259,317.217 382.978,317.404 382.697,319.837 C382.042,325.451 384.849,326.854 389.434,323.205 z M366.136,322.363 C366.136,320.304 362.487,320.585 362.113,322.644 C361.832,324.047 362.207,324.328 363.984,324.047 C365.107,323.86 366.136,323.111 366.136,322.363 z" fill="#000000"/>
  </g>
</svg>
