<?xml version="1.0" encoding="UTF-8"?>
<!DOCTYPE svg PUBLIC "-//W3C//DTD SVG 1.1//EN" "http://www.w3.org/Graphics/SVG/1.1/DTD/svg11.dtd">
<svg version="1.1" xmlns="http://www.w3.org/2000/svg" xmlns:xlink="http://www.w3.org/1999/xlink" x="0" y="0" width="500" height="500" viewBox="0, 0, 500, 500">
  <g id="layer101">
    <path d="M288.837,462.349 C287.152,460.309 284.758,458.092 283.517,457.383 C281.034,456.053 280.058,456.585 274.206,462.881 C271.723,465.541 268.619,465.984 266.846,463.856 C265.25,461.905 265.072,446.565 266.58,440.535 C267.821,435.835 267.821,435.746 265.161,431.579 C263.742,429.273 262.501,427.145 262.501,426.879 C262.501,426.613 261.525,424.839 260.284,423.066 C256.293,417.125 257.712,412.425 264.097,410.208 C265.693,409.676 267.289,408.523 267.732,407.725 C269.772,403.735 272.521,377.576 272.078,365.339 C271.9,357.358 271.9,357.003 274.294,354.698 C276.6,352.304 277.132,352.215 285.379,352.215 C295.222,352.126 298.769,350.796 301.517,346.185 C303.912,342.372 303.734,339.091 301.074,335.988 C299.833,334.48 297.793,330.933 296.463,328.096 C293.182,320.913 288.571,314.794 285.999,314.174 C283.162,313.464 279.437,315.326 276.955,318.785 C275.802,320.292 271.279,323.662 266.757,326.322 C254.254,333.682 242.106,344.057 242.106,347.338 C242.106,347.959 243.17,350.619 244.411,353.19 C247.337,359.132 247.603,366.935 245.298,373.763 C243.347,379.527 244.234,382.453 249.288,386.532 C256.382,392.207 255.584,397.35 246.539,404.444 C243.702,406.75 241.041,409.41 240.687,410.563 C239.268,415.174 226.765,439.559 224.814,441.51 C223.661,442.752 219.671,444.614 215.769,445.767 C211.956,446.919 207.877,448.604 206.636,449.402 C205.394,450.2 200.695,452.329 196.172,454.102 C191.65,455.787 186.595,458.27 184.999,459.511 C179.856,463.413 176.486,461.639 176.486,455.077 C176.486,451.885 175.245,451.708 169.836,454.191 C167.087,455.521 164.338,456.319 163.629,456.053 C162.919,455.787 161.766,454.368 160.88,452.772 C159.106,449.225 160.259,444.437 163.895,440.712 C165.225,439.382 167.708,436.278 169.392,433.973 C171.077,431.667 173.738,428.918 175.334,427.943 C176.93,426.968 179.058,424.928 180.122,423.509 C181.097,422.091 184.024,419.519 186.507,417.834 C194.753,412.425 198.655,407.725 201.227,400.277 C202.113,397.705 203.887,393.626 205.128,391.143 C206.37,388.66 207.7,384.581 208.055,382.187 C208.764,376.423 207.079,373.142 198.034,363.033 C188.723,352.57 187.482,350.087 188.901,345.298 C189.433,343.259 191.472,339.18 193.335,336.254 C195.197,333.327 197.325,328.805 198.212,326.322 C200.783,318.164 213.464,302.469 228.361,288.813 C231.908,285.621 234.036,282.34 238.736,272.674 C247.869,254.141 247.781,249.619 238.381,242.17 C232.174,237.293 229.691,235.697 228.272,235.608 C227.74,235.608 223.041,241.549 217.809,248.821 C212.134,256.713 207.877,261.944 207.168,261.678 C206.547,261.412 204.774,263.186 203.089,265.669 C201.315,268.24 199.808,269.659 199.453,269.127 C199.098,268.595 197.502,270.014 195.64,272.674 C193.246,275.955 192.004,277.019 190.763,276.664 C189.788,276.398 188.103,276.842 187.039,277.551 C185.886,278.349 183.403,279.236 181.452,279.591 C173.649,281.009 168.506,288.99 168.506,299.808 C168.506,303.355 168.062,306.636 167.619,307.08 C167.087,307.612 166.2,309.74 165.579,311.957 C164.515,315.504 164.161,315.859 161.766,315.681 C156.978,315.326 156.269,313.198 156.801,301.671 C157.244,291.65 157.155,291.473 155.293,291.473 C152.456,291.473 149.884,296.35 149.973,301.671 C149.973,307.966 153.608,322.775 155.471,324.637 C156.712,325.879 156.801,326.499 156.003,327.475 C155.471,328.184 155.205,329.248 155.471,329.869 C156.091,331.465 154.229,333.593 152.101,333.771 C150.771,333.859 149.441,332.441 146.692,328.007 C142.524,321.09 141.371,317.721 140.485,310.715 C140.041,306.636 139.598,305.661 138.445,305.838 C137.292,306.104 136.938,307.878 136.406,315.326 C135.785,325.169 134.277,328.894 130.642,329.426 C127.006,329.958 126.563,327.83 127.627,314.706 C128.957,298.478 128.868,296.882 127.183,296.173 C125.144,295.375 123.548,297.592 123.016,301.937 C122.661,304.597 122.927,306.104 123.902,307.08 C125.055,308.233 125.144,309.031 124.257,311.78 C123.725,313.642 122.395,316.125 121.42,317.277 C120.178,318.607 119.646,318.873 120.001,317.898 C120.355,316.923 119.735,315.947 118.316,314.972 C117.075,314.174 116.365,313.198 116.631,312.666 C116.986,312.223 116.276,311.07 115.124,310.095 C113.794,309.031 113.528,308.41 114.326,308.321 C115.301,308.321 115.212,307.966 114.06,306.636 C112.641,305.04 112.641,304.686 113.882,302.203 C114.68,300.784 115.301,298.656 115.301,297.503 C115.301,296.35 116.631,293.069 118.316,290.143 C121.154,285 121.863,284.379 127.449,282.96 C128.07,282.783 130.553,279.857 133.125,276.398 C136.317,271.965 138.888,269.482 141.815,267.974 C144.032,266.822 147.046,265.048 148.554,264.073 C150.239,262.831 151.48,262.565 152.19,263.186 C152.722,263.629 153.786,263.807 154.584,263.452 C155.293,263.186 156.18,263.452 156.535,263.984 C156.889,264.516 157.953,264.693 158.84,264.427 C159.816,264.073 161.146,264.25 161.678,264.782 C163.274,266.023 166.91,265.669 168.86,264.073 C169.836,263.275 170.279,263.186 169.925,263.807 C169.57,264.339 169.658,264.871 170.013,264.871 C170.457,264.871 173.826,260.614 177.462,255.383 C185.354,244.121 185.975,243.057 184.644,243.944 C184.024,244.298 183.58,244.298 183.58,243.944 C183.58,242.791 195.551,226.741 196.438,226.741 C198.389,226.741 202.025,222.573 203.443,218.583 C204.33,216.277 205.926,213.617 207.079,212.73 L209.03,211.134 L206.902,208.562 C204.596,205.991 204.596,205.547 206.281,198.099 L206.902,195.527 L201.227,195.793 C194.221,196.059 187.571,198.365 187.571,200.582 C187.571,201.468 187.039,202.355 186.329,202.621 C185.443,202.887 185.265,202.621 185.62,201.646 C186.063,200.493 185.088,200.582 180.211,202.444 C176.93,203.774 172.762,205.015 170.9,205.193 C168.949,205.459 167.264,206.257 166.732,207.232 C165.845,209.006 159.727,213.351 154.939,215.745 C151.392,217.519 143.943,224.613 142.258,227.805 C141.549,229.135 141.017,231.795 141.017,233.835 C141.017,235.785 140.396,238.889 139.687,240.574 C138.445,243.5 138.09,243.766 135.519,243.323 C130.376,242.436 111.665,244.564 105.103,246.781 C100.404,248.289 98.364,249.53 96.679,251.747 C95.438,253.343 92.246,256.89 89.497,259.639 C82.758,266.289 80.363,270.989 81.161,276.132 C82.403,284.379 78.501,287.483 72.028,283.492 C68.215,281.187 65.289,281.275 58.815,283.936 C54.648,285.621 52.431,285.975 49.15,285.621 C43.741,285.089 39.13,287.217 37.356,291.03 C36.735,292.537 35.494,294.399 34.696,295.375 C33.898,296.261 32.124,299.099 30.617,301.759 C23.523,314.44 16.695,324.992 13.769,327.83 C11.995,329.514 9.512,332.618 8.182,334.658 C6.32,337.584 5.256,338.471 3.483,338.471 C-0.685,338.471 -1.129,334.125 2.241,326.588 C3.483,323.839 4.458,320.204 4.458,318.607 C4.458,316.923 5.433,313.11 6.586,310.006 C7.739,306.902 8.98,302.912 9.335,301.227 C9.69,299.542 12.705,292.36 15.986,285.266 C19.267,278.172 22.902,269.482 23.966,265.846 C25.119,262.299 27.513,257.333 29.375,254.762 C33.188,249.441 41.701,233.657 46.224,223.637 C47.908,219.735 50.569,214.681 51.987,212.287 C55.002,207.498 64.579,198.72 70.077,195.616 C72.117,194.463 74.333,192.424 75.043,191.005 C76.639,187.99 87.014,180.187 98.719,173.181 C103.507,170.344 111.843,164.314 117.252,159.703 C122.661,155.092 128.957,150.481 131.174,149.417 C133.391,148.441 140.307,144.185 146.514,140.106 C155.382,134.342 157.953,132.214 158.397,130.263 C160.259,121.839 162.919,118.203 169.126,115.898 C175.334,113.592 176.664,113.681 180.122,116.518 C183.403,119.356 185.354,123.435 185.354,127.869 C185.354,130.352 184.556,131.948 181.541,135.229 C179.501,137.534 176.398,141.436 174.802,143.83 C173.117,146.313 170.191,150.126 168.328,152.52 C164.604,156.954 164.515,158.461 167.53,161.742 C169.126,163.427 170.191,163.516 181.097,163.427 L192.98,163.338 L197.325,159.969 C203.443,155.446 208.409,153.141 214.882,152.165 C217.897,151.722 221.444,150.481 222.774,149.594 C224.105,148.618 225.701,147.82 226.41,147.82 C228.095,147.82 229.957,145.515 232.617,140.283 C233.859,137.889 236.608,134.165 238.736,132.125 C242.904,128.046 250.973,123.878 254.609,123.878 C255.85,123.878 259.22,123.08 262.057,122.105 C266.048,120.686 267.91,120.509 270.836,121.129 C291.763,125.74 296.729,125.652 300.01,120.775 C303.646,115.1 307.725,115.1 312.956,120.686 C316.769,124.676 319.252,124.499 327.854,119.533 C336.366,114.745 346.121,111.553 359.156,109.247 C368.467,107.651 374.674,105.877 379.817,103.306 C382.389,102.064 383.719,100.557 385.049,97.453 C387.886,90.98 390.458,88.054 397.818,83.177 C403.759,79.186 410.232,76.526 418.568,74.753 C422.115,74.043 439.672,62.161 447.032,55.599 C451.821,51.254 454.924,49.214 458.117,48.239 C460.511,47.53 466.097,45.135 470.442,43.007 C488.355,34.051 500.68,32.189 499.971,38.573 C499.794,40.436 498.552,41.588 494.828,43.805 C480.374,52.229 476.65,55.599 475.94,61.185 C475.585,63.491 474.521,66.949 473.546,68.811 C471.861,72.181 471.861,73.068 472.659,91.246 C473.191,101.621 474.167,113.503 474.876,117.671 C477.448,132.302 476.206,143.653 471.95,145.958 C470.974,146.49 465.831,151.811 460.511,157.752 C455.279,163.693 445.525,174.423 438.963,181.694 C432.401,188.965 423.8,198.454 419.898,202.887 C408.548,215.656 405.001,217.253 396.665,213.44 C391.345,211.045 391.611,207.587 397.375,201.38 C400.744,197.833 401.808,194.108 400.389,190.739 C397.641,184.266 393.828,183.822 383.187,189.054 L374.851,193.133 L371.57,189.497 C368.91,186.571 367.669,185.95 365.008,185.95 C361.107,185.95 357.648,188.965 356.85,193.044 C356.23,195.705 354.722,196.769 354.722,194.463 C354.722,193.842 354.013,193.044 353.126,192.867 C352.239,192.601 350.554,190.473 349.49,188.079 C348.338,185.684 346.653,183.024 345.766,182.137 C344.702,181.162 344.081,179.389 344.081,177.438 C344.081,175.487 343.549,174.157 342.751,173.802 C340.712,173.093 337.874,176.108 337.874,179.034 C337.874,184.532 341.51,188.345 353.835,195.793 C360.397,199.784 361.55,201.114 364.92,209.006 C365.452,210.159 367.137,211.755 368.733,212.641 C370.417,213.528 373.964,217.43 377.334,222.13 C383.009,229.933 384.073,231.884 382.034,230.642 C380.704,229.756 381.324,230.82 389.216,242.081 C392.852,247.313 396.222,251.57 396.665,251.57 C397.02,251.57 397.109,251.037 396.754,250.505 C396.399,249.885 396.842,250.062 397.818,250.86 C398.971,251.836 400.655,252.279 402.872,252.013 C405.444,251.836 408.991,253.077 419.188,257.688 C433.82,264.25 438.608,267.265 443.84,273.472 C448.008,278.349 453.151,286.507 453.151,288.192 C453.151,288.813 453.594,289.788 454.215,290.409 C454.924,291.118 454.658,291.828 453.062,293.158 C451.555,294.399 451.289,295.02 452.264,295.02 C453.239,295.02 452.973,295.552 451.555,296.794 C450.402,297.769 449.692,298.922 449.958,299.365 C450.313,299.808 449.604,300.873 448.54,301.582 C445.702,303.621 444.727,302.114 444.638,295.197 C444.549,287.66 442.155,281.542 439.495,281.896 C438.076,282.074 437.721,282.694 437.899,284.379 C437.987,285.621 438.52,292.715 439.052,300.163 C440.027,314.706 439.584,316.657 436.037,316.125 C432.401,315.592 430.893,311.868 430.273,302.025 C429.741,294.577 429.386,292.803 428.233,292.537 C427.08,292.36 426.637,293.335 426.194,297.414 C425.307,304.42 424.154,307.789 419.987,314.706 C417.238,319.139 415.908,320.558 414.577,320.47 C412.449,320.292 410.587,318.164 411.208,316.568 C411.474,315.947 411.208,314.883 410.676,314.174 C409.878,313.198 409.966,312.578 411.208,311.336 C413.07,309.474 416.706,294.665 416.706,288.369 C416.794,283.049 414.223,278.172 411.385,278.172 C409.523,278.172 409.434,278.349 409.878,288.369 C410.41,299.631 409.789,301.493 405.178,302.557 C403.316,303.001 402.518,302.557 400.478,299.986 C398.882,297.858 398.261,296.173 398.616,295.02 C398.882,294.045 398.261,289.966 397.197,285.975 C395.69,280.3 394.626,278.083 392.497,276.221 C389.483,273.561 380.438,267.974 377.955,267.088 C377.068,266.822 374.408,263.984 372.102,260.703 C369.619,257.333 367.58,255.294 367.225,255.826 C366.871,256.358 365.363,254.939 363.59,252.368 C361.905,249.885 360.131,248.111 359.511,248.377 C358.801,248.643 355.52,244.83 351.441,239.155 L344.525,229.49 L344.081,239.421 C343.726,245.628 343.017,250.505 342.13,252.456 C341.421,254.141 340.446,258.841 340.18,262.92 L339.559,270.28 L344.702,275.423 C348.426,279.059 350.466,282.074 351.885,285.709 C353.037,288.547 355.432,293.158 357.294,295.907 C361.195,301.671 366.25,317.721 366.338,324.903 C366.338,327.298 366.693,331.111 367.048,333.593 C367.669,337.406 367.491,338.914 365.363,344.412 C364.033,347.87 362.082,351.86 361.107,353.279 C360.131,354.609 358.624,357.89 357.737,360.55 C356.762,363.211 354.988,366.403 353.747,367.733 C350.288,371.103 335.746,377.221 326.169,379.261 C309.409,382.719 306.927,384.138 305.242,390.434 C302.936,399.124 302.582,401.075 301.961,406.75 C301.606,409.942 300.985,413.932 300.453,415.617 C299.744,418.1 299.921,419.608 301.429,423.332 C302.582,426.258 303.025,429.007 302.759,430.603 C302.315,432.82 302.759,433.707 305.685,436.633 C311.892,442.574 320.316,453.57 319.962,455.255 C319.43,458.092 314.464,457.738 307.104,454.279 C303.468,452.506 300.01,451.087 299.567,451.087 C298.946,451.087 298.769,453.215 299.123,457.206 C299.567,462.349 299.389,463.59 298.059,464.743 C295.31,467.315 292.295,466.516 288.837,462.349 z" fill="#000000"/>
  </g>
</svg>
