<?xml version="1.0" encoding="UTF-8"?>
<!DOCTYPE svg PUBLIC "-//W3C//DTD SVG 1.1//EN" "http://www.w3.org/Graphics/SVG/1.1/DTD/svg11.dtd">
<svg version="1.1" xmlns="http://www.w3.org/2000/svg" xmlns:xlink="http://www.w3.org/1999/xlink" x="0" y="0" width="500" height="500" viewBox="0, 0, 500, 500">
  <g id="Layer_1">
    <path d="M500,251.421 L444.533,195.897 L444.533,234.087 L290.577,234.087 L399.864,124.801 L426.802,151.739 L426.802,73.255 L348.318,73.255 L375.313,100.25 L267.39,208.115 L267.39,55.524 L305.524,55.524 L250,0 L194.476,55.524 L232.667,55.524 L232.667,210.161 L123.721,101.216 L150.716,74.221 L72.232,74.221 L72.232,152.705 L99.17,125.767 L207.49,234.087 L55.524,234.087 L55.524,195.897 L0,251.421 L55.524,306.945 L55.524,268.811 L206.695,268.811 L100.25,375.313 L73.255,348.318 L73.255,426.802 L151.739,426.802 L124.801,399.864 L232.667,291.941 L232.667,444.533 L194.476,444.533 L250,500 L305.524,444.533 L267.39,444.533 L267.39,293.987 L374.233,400.83 L347.295,427.768 L425.835,427.768 L425.835,349.284 L398.841,376.279 L291.373,268.811 L444.533,268.811 L444.533,306.945 z" fill="#000000"/>
  </g>
</svg>
