<?xml version="1.0" encoding="UTF-8"?>
<!DOCTYPE svg PUBLIC "-//W3C//DTD SVG 1.1//EN" "http://www.w3.org/Graphics/SVG/1.1/DTD/svg11.dtd">
<svg version="1.1" xmlns="http://www.w3.org/2000/svg" xmlns:xlink="http://www.w3.org/1999/xlink" x="0" y="0" width="500" height="500" viewBox="0, 0, 500, 500">
  <g id="layer101">
    <path d="M200.355,496.601 C188.183,491.385 188.68,483.435 201.846,460.582 C206.566,452.633 210.043,433.257 211.782,407.919 C212.776,393.263 214.266,380.594 215.012,379.6 C216.005,378.855 215.26,374.135 213.521,369.167 C211.534,363.453 210.789,351.033 211.037,336.874 C211.782,317.001 213.024,311.784 218.738,300.854 C223.209,292.905 229.668,285.453 236.623,280.733 C248.795,272.535 254.26,262.102 254.26,246.452 C254.26,232.79 249.789,224.096 241.343,221.115 C232.4,217.885 227.929,222.108 220.228,239.994 C215.26,250.924 210.789,256.637 200.107,264.835 C182.47,278.497 176.756,287.688 180.483,295.886 C181.973,299.115 185.699,302.345 188.68,303.09 C196.381,305.077 202.591,312.529 200.604,317.249 C199.113,321.472 190.667,325.447 185.202,324.205 C183.464,323.956 176.756,325.447 170.298,327.434 C163.839,329.67 153.654,331.16 147.693,330.912 C139.992,330.663 136.266,331.657 134.527,334.638 C131.297,340.6 124.094,339.855 121.361,333.396 C117.635,324.702 110.183,324.453 109.934,333.147 C109.437,339.606 109.437,339.358 107.947,331.409 C105.96,320.23 99.749,318.74 53.048,317.746 C33.176,317.249 16.284,316.752 15.539,316.752 C14.545,316.504 12.061,312.529 9.825,307.81 C4.36,296.383 7.341,291.166 21.749,285.701 C30.691,282.223 37.399,281.727 52.303,282.72 C62.985,283.466 76.896,284.211 83.603,284.211 C90.061,283.962 95.278,284.956 95.278,285.95 C95.278,286.943 104.221,287.937 115.151,287.937 C131.794,287.937 135.272,287.192 138.253,282.969 C141.234,278.994 142.476,278.746 145.705,281.23 C150.673,285.453 156.884,277.255 174.769,243.223 C182.221,229.561 191.661,214.656 196.132,209.936 C200.604,205.465 205.075,198.261 205.82,194.286 C208.305,183.605 220.477,170.936 233.394,165.968 C239.356,163.732 244.076,160.503 243.579,159.012 C243.082,157.522 237.617,152.305 231.158,147.585 C223.458,141.872 219.483,136.904 219.483,133.674 C219.483,130.693 223.954,120.757 229.668,111.566 C255.006,69.833 257.986,40.272 239.356,16.673 C229.916,4.501 234.388,2.266 247.056,12.699 C257.241,21.393 269.165,46.483 269.165,59.648 C269.165,66.107 265.687,76.54 259.229,90.451 C253.515,101.878 248.547,115.789 247.553,121.751 C246.311,131.687 246.56,132.432 252.77,134.171 C261.216,136.158 261.961,135.413 264.445,121.005 C267.674,104.114 276.12,96.91 291.273,98.649 C300.465,99.642 303.942,101.63 310.649,109.579 C315.121,114.795 318.847,120.26 318.847,121.999 C318.847,127.216 327.79,130.445 334.745,127.713 C344.93,123.986 343.439,112.311 330.025,91.693 C313.133,65.61 311.146,59.897 310.649,37.291 C310.401,21.145 311.146,15.431 315.121,8.724 C323.318,-5.435 325.057,-3.199 325.057,21.642 C325.057,43.75 325.554,45.737 334.745,63.374 C339.962,73.559 349.898,89.706 356.357,99.642 C363.064,109.579 368.529,119.515 368.529,121.751 C368.529,124.235 362.319,132.432 354.866,140.381 C347.414,148.331 341.204,156.28 341.204,158.515 C341.204,160.503 349.65,168.949 359.835,177.395 C380.701,194.535 385.918,200.745 385.918,209.191 C385.918,212.917 389.892,218.631 397.344,225.338 C403.555,231.051 410.759,239.745 413.243,244.465 C415.727,249.185 421.192,256.637 425.663,260.612 C430.134,264.835 435.599,272.039 438.084,276.758 C443.549,287.192 457.708,301.103 472.364,310.045 C486.523,318.988 492.734,329.421 492.734,345.32 C492.734,360.224 489.753,363.702 478.574,361.963 C471.619,360.721 470.128,359.23 467.644,350.785 C466.402,345.32 460.44,335.88 454.975,329.918 C446.281,320.479 443.549,318.988 435.103,318.988 C425.415,318.988 424.918,318.491 422.185,306.568 C421.192,302.345 416.72,297.873 408.026,292.905 C398.586,287.44 392.873,281.975 387.656,273.032 C378.962,258.128 356.605,234.529 350.892,234.529 C336.981,234.529 329.032,272.039 337.726,296.631 C341.701,307.313 345.675,323.708 351.389,350.039 C354.369,362.708 350.892,396.74 345.675,406.428 C341.701,414.378 334.248,416.613 325.802,412.39 C321.579,410.155 317.108,408.416 315.866,408.416 C314.872,408.416 313.879,414.626 313.879,422.327 C313.879,436.734 318.847,455.117 326.796,470.767 C329.28,475.735 331.267,482.193 331.267,485.174 C331.267,490.142 330.025,490.391 311.643,490.391 C288.292,490.391 286.057,488.652 288.292,471.76 C289.286,464.805 289.783,454.371 289.535,448.161 C289.286,441.951 289.286,427.543 289.286,415.868 C289.286,398.231 288.292,392.269 282.827,380.345 C275.375,364.447 275.872,361.715 287.299,343.084 C293.012,333.644 294.254,329.918 292.267,326.689 C287.299,318.491 279.35,320.479 266.681,333.147 C253.267,346.81 249.292,357.243 249.292,380.345 C249.292,391.772 247.802,398.479 242.833,407.919 C238.859,415.62 235.878,426.053 235.133,435.989 C234.388,444.684 232.152,455.117 230.165,458.843 C228.426,462.569 227.432,466.792 228.177,468.034 C229.668,470.518 231.158,476.232 233.642,489.397 C234.884,496.85 234.388,497.098 225.445,498.588 C212.279,500.824 209.547,500.576 200.355,496.601 z" fill="#000000"/>
  </g>
</svg>
