<?xml version="1.0" encoding="UTF-8"?>
<!DOCTYPE svg PUBLIC "-//W3C//DTD SVG 1.1//EN" "http://www.w3.org/Graphics/SVG/1.1/DTD/svg11.dtd">
<svg version="1.1" xmlns="http://www.w3.org/2000/svg" xmlns:xlink="http://www.w3.org/1999/xlink" x="0" y="0" width="500" height="500" viewBox="0, 0, 500, 500">
  <g id="layer101">
    <path d="M211.26,482.116 C209.966,481.326 208.242,479.242 207.451,477.589 C205.726,473.852 201.127,470.403 198.972,471.121 C198.109,471.337 197.247,472.343 197.031,473.349 C196.385,475.792 192.935,478.451 189.63,479.026 C187.33,479.385 184.815,478.882 176.479,476.152 C170.802,474.283 162.682,471.84 158.37,470.762 C152.55,469.253 150.035,468.175 148.31,466.666 C147.088,465.516 143.711,462.426 140.837,459.696 C135.663,454.881 135.591,454.809 132.357,455.168 C130.561,455.312 127.471,456.318 125.53,457.396 C121.578,459.408 119.207,459.768 117.841,458.402 C117.266,457.827 116.548,457.755 115.254,458.402 L113.53,459.193 L115.685,453.659 C117.41,449.132 117.769,447.479 117.41,444.533 C117.195,442.593 117.338,439 117.841,436.557 C118.56,432.461 118.488,431.958 116.979,429.371 C116.117,427.79 113.745,425.059 111.805,423.191 C108.715,420.244 108.284,419.526 108.715,417.729 C109.362,414.783 107.853,413.777 103.828,414.352 C98.295,415.214 95.924,412.412 98.798,408.316 C99.804,406.806 99.876,404.579 99.517,387.835 C98.87,362.397 97.792,348.384 96.139,344.288 C92.834,336.24 89.672,327.688 88.235,322.945 C86.798,318.131 86.726,317.125 87.444,310.585 C87.876,306.705 89.025,301.244 90.031,298.441 C91.612,294.129 91.9,291.758 92.259,281.266 C92.69,270.99 92.546,268.619 91.469,265.242 C90.75,262.87 90.175,257.984 89.959,253.025 C89.6,242.606 87.876,230.533 85.36,219.97 C82.127,206.532 81.049,188.495 82.63,173.26 C82.845,171.751 82.486,171.464 80.618,171.248 C77.887,170.961 74.653,172.182 74.078,173.692 C73.863,174.338 74.15,176.35 74.869,178.219 C76.234,182.027 76.306,184.758 75.3,188.495 C74.078,192.878 70.629,193.741 68.976,190.076 C67.826,187.561 66.892,187.92 65.886,191.225 C64.88,194.603 65.383,195.393 69.623,197.549 C71.563,198.483 72.138,199.274 72.282,201.142 C72.497,203.514 70.485,210.268 68.042,215.083 C67.252,216.592 66.677,218.389 66.677,219.179 C66.677,220.904 64.09,222.844 61.79,222.844 C59.06,222.844 57.335,221.479 55.898,218.173 C54.676,215.371 54.245,214.939 50.508,213.861 C47.059,212.855 46.34,212.352 45.406,210.268 C44.831,208.903 44.4,207.035 44.4,206.101 C44.4,205.166 43.107,201.789 41.526,198.699 C39.945,195.609 38.651,192.303 38.651,191.441 C38.651,187.345 35.561,183.177 30.315,180.087 C21.98,175.201 12.135,160.038 8.829,147.103 C6.027,136.109 5.308,129.354 6.098,121.162 C6.745,114.694 6.673,113.688 5.452,110.814 C4.302,108.299 4.086,106.79 4.518,102.909 C4.877,98.598 4.733,97.735 2.721,93.639 C1.571,91.124 0.35,87.387 0.134,85.375 C-0.225,82.142 0.062,80.992 1.931,76.968 C3.583,73.518 4.158,71.291 4.158,68.344 C4.158,63.53 4.446,63.027 8.254,61.518 C10.698,60.512 11.775,59.505 13.284,56.559 C14.794,53.757 16.159,52.463 18.89,50.954 C20.83,49.948 23.776,47.577 25.501,45.78 C28.231,42.762 28.878,42.475 31.824,42.475 C33.693,42.475 36.639,42.115 38.436,41.684 C40.879,41.037 42.819,41.037 46.268,41.684 L50.796,42.475 L54.245,39.888 C58.916,36.366 59.491,35.504 59.491,31.767 C59.491,24.653 62.724,19.264 68.186,16.964 C70.629,16.03 70.916,16.03 72.497,17.323 C73.36,18.186 74.653,18.617 75.372,18.401 C76.019,18.186 76.809,18.258 77.025,18.689 C77.671,19.623 75.444,25.3 73.791,27.096 C72.569,28.39 72.497,29.037 73.072,31.696 C73.935,35.72 74.869,36.582 76.593,35.073 C78.39,33.42 78.677,33.492 79.971,36.007 C81.336,38.594 81.336,41.253 79.971,44.99 C79.396,46.571 78.965,50.02 78.893,52.679 C78.893,57.134 78.749,57.637 75.875,61.302 C74.294,63.386 71.204,66.907 69.12,69.135 C66.533,71.865 65.024,74.237 64.305,76.752 C62.653,82.285 59.634,87.675 55.97,91.627 C54.101,93.639 51.802,96.514 50.939,97.951 C50.077,99.46 48.28,101.544 46.987,102.622 C45.622,103.771 43.897,106.215 43.035,108.227 C41.166,112.467 40.591,112.898 36.711,112.898 C35.058,112.898 33.477,113.257 33.262,113.688 C32.687,114.551 35.777,125.186 38.148,130.432 C41.454,137.905 52.089,150.984 54.82,150.984 C55.898,150.984 58.269,148.972 62.437,144.373 C68.617,137.618 78.174,130 85.72,125.833 C91.181,122.814 97.505,116.994 101.745,111.245 C103.541,108.802 106.415,105.209 108.14,103.34 C111.23,100.035 111.374,99.747 110.871,96.514 C110.655,94.645 110.368,91.771 110.296,90.118 C110.224,88.465 109.937,86.884 109.649,86.597 C108.571,85.591 109.074,84.872 111.589,83.651 C114.536,82.213 114.751,80.992 112.308,79.411 C110.727,78.405 110.08,78.333 107.35,79.123 C101.529,80.704 101.457,78.62 107.062,73.231 C109.002,71.291 111.23,69.782 111.949,69.782 C112.739,69.782 114.105,69.422 115.111,68.991 C116.62,68.272 117.41,68.488 120.285,70.069 C124.237,72.297 124.668,72.297 126.536,70.644 C127.255,69.997 129.267,68.775 130.92,67.985 L133.866,66.548 L133.938,61.661 C133.938,57.781 134.225,56.487 135.375,55.338 C136.669,54.116 137.172,54.044 138.968,54.691 C140.118,55.194 142.346,55.769 143.927,56.056 C146.011,56.416 147.017,56.99 147.591,58.284 C152.694,69.494 152.837,69.566 161.389,68.416 C169.078,67.338 173.461,66.045 179.497,63.099 C182.659,61.518 184.24,60.368 184.384,59.362 C184.528,58.499 183.665,55.122 182.587,51.816 C180.791,46.427 180.288,45.565 178.204,44.702 C175.904,43.696 175.904,43.553 176.264,40.391 C176.551,38.594 176.91,36.223 177.054,35.145 C177.342,33.636 176.91,32.845 174.898,31.193 C172.599,29.396 172.311,28.821 172.311,25.731 L172.311,22.282 L176.264,20.485 C178.491,19.551 180.863,18.761 181.581,18.761 C184.025,18.761 189.414,21.491 189.845,22.857 C190.708,25.659 194.085,27.815 198.9,28.749 C201.487,29.252 204.002,30.043 204.505,30.474 C205.367,31.193 206.661,33.276 210.613,40.75 C212.194,43.696 215.643,45.565 221.536,46.786 C223.907,47.289 226.71,48.152 227.788,48.655 C228.865,49.229 230.949,49.661 232.458,49.661 C233.968,49.732 235.836,50.092 236.698,50.595 C239.07,51.96 247.046,61.302 247.405,63.099 C248.555,68.632 248.34,68.344 251.43,68.344 C253.011,68.344 255.669,67.626 257.25,66.835 C262.712,64.033 268.029,62.595 272.7,62.595 C278.521,62.595 279.527,63.458 285.276,73.59 C287.432,77.399 288.366,77.902 292.534,77.758 C294.977,77.686 297.492,78.117 299.576,79.052 C301.301,79.842 305.972,81.135 309.924,81.926 C321.206,84.369 327.889,86.812 330.045,89.256 C331.051,90.477 331.841,91.915 331.841,92.489 C331.841,93.064 332.344,94.573 332.991,95.795 C333.638,97.017 334.428,99.675 334.716,101.688 C335.003,103.7 335.866,106.933 336.584,108.802 L337.949,112.323 L335.578,114.263 C333.35,116.06 333.207,116.347 334.069,118.144 C334.859,119.868 334.716,120.371 332.991,122.886 C331.123,125.545 331.051,125.761 332.129,127.845 C333.566,130.575 332.991,133.881 330.548,137.474 L328.751,140.205 L330.045,145.379 C330.979,149.259 331.123,151.918 330.763,156.301 C330.404,160.829 330.548,162.697 331.41,164.781 C332.704,167.871 332.919,174.123 331.841,176.207 C331.41,176.925 330.476,177.572 329.757,177.572 C327.817,177.572 324.799,173.692 324.296,170.53 C323.362,165.212 323.362,165.14 320.847,168.015 C319.625,169.452 317.469,171.033 316.104,171.608 C314.02,172.542 313.517,172.542 312.655,171.608 C311.72,170.745 311.72,169.883 312.367,166.865 C313.373,162.266 313.373,157.81 312.439,156.086 C311.577,154.433 303.313,151.056 298.426,150.265 C293.684,149.546 281.539,150.696 280.246,151.99 C279.311,152.852 279.383,153.643 280.461,157.739 C282.186,164.134 285.276,169.308 288.797,171.608 C291.025,173.045 292.965,173.62 297.564,174.051 C300.798,174.338 305.253,175.057 307.409,175.704 C309.565,176.35 313.014,176.853 315.098,176.853 C317.11,176.853 319.697,177.213 320.847,177.644 C324.44,179.081 351.531,181.812 362.813,181.884 C372.011,181.884 381.425,177.788 386.958,171.32 C389.904,167.871 390.479,167.512 393.21,167.512 C394.863,167.512 396.947,168.015 397.881,168.661 C399.677,169.955 406.864,172.686 412.397,174.266 C417.499,175.704 430.721,181.021 436.757,184.039 C439.704,185.477 445.524,187.561 449.692,188.639 C455.657,190.219 458.819,191.585 464.783,195.178 C468.951,197.621 473.262,200.136 474.484,200.639 C476.927,201.789 478.293,205.382 478.365,210.843 C478.436,213.358 478.939,214.939 480.449,217.023 C482.82,220.329 484.329,223.706 486.269,230.461 C488.138,236.857 489.647,238.797 494.461,240.809 C497.695,242.174 500.713,244.761 499.851,245.48 C499.635,245.624 494.749,244.905 490.15,243.971 C488.856,243.755 487.778,243.755 487.778,244.043 C487.778,244.33 489.287,246.199 491.084,248.283 C496.258,254.031 496.761,254.822 495.467,256.618 C494.605,257.912 494.318,257.984 493.527,256.978 C492.234,255.397 491.371,255.684 491.371,257.696 C491.371,260.571 493.168,264.236 495.97,267.038 C498.414,269.41 499.348,271.709 497.982,271.709 C497.623,271.709 496.402,271.278 495.252,270.703 C492.449,269.41 488.497,268.691 488.497,269.553 C488.497,269.913 489.503,271.35 490.653,272.643 C493.168,275.59 493.312,276.021 491.371,276.021 C486.485,276.021 480.089,270.775 477.646,264.739 C476.281,261.433 475.849,260.858 474.556,261.217 C473.694,261.361 471.897,261.864 470.532,262.152 C464.855,263.517 465.214,272.643 471.322,279.973 C474.628,283.997 475.562,285.937 475.562,289.027 C475.562,291.83 474.197,291.686 471.035,288.596 C467.154,284.859 462.483,284.141 465.07,287.662 C465.717,288.596 467.37,291.039 468.879,293.195 C470.747,295.926 472.4,297.363 474.628,298.369 C477.215,299.447 477.718,300.022 477.718,301.675 C477.718,304.334 475.131,308.502 473.622,308.214 C472.256,307.927 471.682,306.921 470.532,302.681 C469.669,299.519 467.154,296.645 456.806,287.087 C452.136,282.776 448.255,276.38 448.255,272.931 C448.255,269.338 445.668,267.182 442.147,267.829 C439.56,268.332 439.344,268.188 434.53,263.158 C429.284,257.624 428.493,255.972 427.487,248.714 C427.128,246.127 426.338,242.174 425.619,239.875 C424.182,234.988 422.242,233.264 406.935,223.06 C401.833,219.682 396.444,216.161 395.007,215.227 C393.641,214.293 391.414,212.352 390.048,210.987 C387.605,208.472 387.605,208.472 381.281,208.472 C376.035,208.472 374.095,208.113 370.502,206.604 C365.041,204.304 360.873,204.448 351.603,207.322 C343.483,209.765 320.487,214.365 306.331,216.377 C300.438,217.167 294.474,218.029 293.18,218.245 C291.456,218.532 290.378,219.323 289.013,221.479 C286.785,225.072 284.773,226.006 281.467,225.215 C280.03,224.784 277.946,224.784 276.293,225.215 C272.269,226.221 271.263,225.072 271.838,219.898 C272.269,216.161 272.197,215.73 270.76,215.299 C268.964,214.724 264.436,215.442 260.34,216.88 C253.657,219.251 244.028,217.454 239.86,213.071 C238.495,211.634 235.117,208.688 232.458,206.532 C227.716,202.723 227.428,202.579 224.338,203.082 C218.949,203.873 216.506,202.22 202.205,187.992 C199.403,185.189 196.169,182.315 195.091,181.596 C194.013,180.949 192.217,179.081 191.139,177.572 C190.061,175.991 188.911,174.769 188.624,174.698 C188.264,174.698 186.252,176.207 184.096,178.075 C180.36,181.381 180.216,181.524 180.216,185.189 C180.216,187.92 179.641,190.004 178.06,193.022 C176.264,196.399 175.904,197.98 175.904,201.933 C175.904,207.035 173.749,212.64 169.868,217.742 C168.862,219.107 168,221.191 168,222.269 C168,223.419 170.443,229.527 173.461,235.994 C181.869,253.96 184.528,262.942 184.528,273.721 C184.528,277.602 184.096,281.051 183.162,283.782 C182.444,286.009 181.653,288.74 181.366,289.746 C180.935,291.686 182.444,301.675 183.809,305.699 C184.24,306.992 185.893,312.669 187.474,318.418 C190.564,329.413 192.792,334.228 195.738,336.096 C198.397,337.892 217.009,337.174 222.829,335.09 C231.452,332 238.351,330.419 239.501,331.353 C240.291,332 240.363,332.575 239.645,334.012 C238.926,335.665 238.998,336.024 240.435,336.958 C242.519,338.324 242.447,339.833 240.148,342.204 C238.71,343.713 238.207,345.15 237.92,348.528 C237.561,351.905 237.201,352.983 236.195,353.271 C234.542,353.774 234.471,354.923 235.836,356.935 C236.986,358.588 237.273,365.774 236.195,367.068 C235.692,367.643 235.692,368.361 236.195,369.367 C236.626,370.158 236.842,371.236 236.626,371.739 C236.411,372.314 236.914,373.679 237.776,374.685 C239.07,376.41 239.645,376.625 241.728,376.194 C243.166,375.907 245.106,376.122 246.328,376.625 C249.777,378.062 248.915,380.937 245.034,380.937 C244.387,380.937 243.022,381.583 242.016,382.374 L240.219,383.739 L242.232,384.458 C243.381,384.889 245.034,385.248 245.968,385.248 C247.549,385.248 257.466,388.985 258.4,389.919 C258.688,390.207 257.897,391.285 256.604,392.291 C253.514,395.021 246.615,403.357 246.04,405.226 C245.753,406.088 245.25,406.806 244.89,406.806 C244.531,406.806 243.741,407.812 243.094,408.962 C241.8,411.477 239.573,411.837 238.423,409.681 C237.561,408.028 234.686,407.741 233.465,409.25 C232.962,409.896 232.818,411.334 233.105,413.202 C233.608,416.436 232.674,421.107 230.375,426.352 C228.65,430.233 229.009,431.958 231.596,431.958 C232.89,431.958 233.824,431.167 235.189,429.083 C236.195,427.502 237.489,426.209 238.064,426.209 C238.567,426.209 239.501,425.634 240.004,424.987 C241.082,423.478 245.25,420.46 246.184,420.46 C246.471,420.46 248.196,421.897 249.921,423.694 C252.651,426.496 253.011,427.143 252.22,428.221 C250.064,431.239 249.705,432.604 250.495,434.473 C250.998,435.479 252.148,436.628 253.082,437.06 C254.591,437.778 255.166,437.635 256.819,436.341 C259.909,433.898 261.706,434.401 264.221,438.209 C266.808,442.09 266.88,442.521 265.227,444.821 C264.077,446.473 264.149,446.617 265.73,447.911 C267.167,449.06 267.383,449.923 267.526,456.031 C267.742,464.654 266.951,466.163 262.568,465.373 C260.987,465.085 258.616,464.726 257.394,464.51 C253.801,463.935 251.358,467.385 253.945,469.469 C256.963,471.984 257.825,473.062 258.256,474.786 C258.975,477.589 256.172,479.817 251.07,480.463 C247.765,480.894 246.687,480.751 244.747,479.529 C242.16,477.948 233.321,475.074 231.093,475.074 C230.303,475.074 228.434,476.08 227.069,477.373 C224.482,479.601 216.362,483.697 214.565,483.697 C214.062,483.697 212.553,482.978 211.26,482.116 z" fill="#000000"/>
  </g>
</svg>
