<?xml version="1.0" encoding="UTF-8"?>
<!DOCTYPE svg PUBLIC "-//W3C//DTD SVG 1.1//EN" "http://www.w3.org/Graphics/SVG/1.1/DTD/svg11.dtd">
<svg version="1.1" xmlns="http://www.w3.org/2000/svg" xmlns:xlink="http://www.w3.org/1999/xlink" x="0" y="0" width="500" height="500" viewBox="0, 0, 500, 500">
  <g id="layer101">
    <path d="M332.764,499.829 C324.833,498.479 319.686,496.285 314.37,492.067 C311.248,489.535 307.958,487.173 307.03,486.667 C306.102,486.16 302.642,483.123 299.352,480.001 C295.977,476.795 292.855,474.179 292.349,474.179 C290.914,474.179 279.946,463.464 275.221,457.389 C272.774,454.352 269.23,450.049 267.29,447.939 C265.349,445.83 262.987,442.539 262.059,440.767 C260.456,437.646 254.718,430.558 248.137,423.471 C246.618,421.868 243.412,419.59 241.134,418.408 C237.337,416.552 236.156,416.383 226.031,416.552 C220.041,416.637 210.338,417.227 204.516,417.733 C195.15,418.662 193.21,419.083 187.641,421.868 C184.182,423.64 179.288,425.243 176.757,425.58 C171.188,426.34 168.91,427.774 165.957,432.499 C164.27,435.199 162.582,436.633 160.051,437.561 C155.917,439.164 148.154,446.842 145.707,451.82 C144.779,453.677 143.345,457.136 142.586,459.498 C140.223,466.67 129.423,479.832 123.77,482.448 C121.999,483.207 119.552,484.642 118.202,485.485 C116.177,486.835 114.658,487.004 106.811,486.667 C95.59,486.16 93.396,485.148 89.599,478.651 C88.08,475.951 86.14,472.661 85.296,471.226 C84.452,469.876 82.934,466.755 81.837,464.392 C80.74,462.03 79.39,459.751 78.884,459.498 C77.534,458.655 77.787,455.87 79.221,455.28 C80.824,454.689 80.824,451.061 79.221,449.711 C76.859,447.77 76.859,445.492 79.305,441.949 C81.246,439.249 81.499,438.321 80.655,437.224 C78.799,434.693 78.631,433.68 79.137,430.727 C79.812,427.099 81.668,425.243 84.537,425.243 C88.84,425.158 93.733,422.037 101.918,414.274 C108.077,408.368 109.933,406.006 109.596,404.824 C109.089,403.474 109.596,403.306 113.477,403.306 C117.358,403.306 118.286,402.968 120.733,400.606 C123.18,398.243 123.77,397.99 125.036,398.918 C128.664,401.534 130.267,400.859 130.267,396.809 C130.267,395.712 131.533,393.434 133.136,391.746 C134.655,389.975 136.933,386.431 138.114,383.815 C139.97,379.765 141.067,378.584 145.37,375.969 C150.348,372.931 162.329,360.444 162.329,358.334 C162.329,357.744 164.27,354.116 166.632,350.15 C168.995,346.185 172.707,339.35 174.732,334.963 C185.701,311.929 185.11,313.448 185.11,306.36 C185.11,296.236 184.604,296.151 172.707,304.251 C167.307,307.879 161.401,312.182 159.545,313.616 C157.773,315.135 154.482,317.16 152.373,318.088 C150.179,319.101 146.973,320.873 145.201,322.054 C142.248,324.079 141.573,324.163 134.655,323.826 C130.52,323.573 126.386,322.982 125.458,322.476 C123.264,321.294 119.889,314.207 119.889,310.917 C119.889,309.567 120.227,306.023 120.564,303.154 L121.239,297.839 L128.495,297.839 C136.173,297.839 145.539,296.32 152.626,293.957 C155.495,293.029 158.532,291.004 161.907,287.714 C173.045,277.167 180.723,273.37 192.282,272.78 C198.694,272.358 199.032,272.442 200.803,274.636 L202.575,276.83 L206.963,275.395 C210.253,274.383 211.603,273.37 212.194,271.767 C213.713,267.886 212.531,266.283 205.275,262.149 C199.369,258.858 197.766,258.267 193.632,258.352 C189.076,258.352 188.822,258.183 185.279,254.302 C176.757,245.021 171.273,233.208 169.501,220.806 C168.91,216.418 167.391,215.068 165.113,216.924 C164.438,217.599 161.992,218.612 159.882,219.202 C150.517,221.902 149.082,222.409 145.961,224.265 C144.104,225.362 140.898,226.543 138.789,226.965 C136.173,227.387 134.317,228.399 132.798,230.171 C130.352,232.955 119.13,240.043 115.67,240.886 C114.405,241.224 113.139,241.815 112.886,242.236 C112.633,242.658 109.511,242.996 105.968,243.08 C98.205,243.165 88.249,244.768 87.405,246.118 C87.068,246.624 83.018,247.299 78.377,247.636 C73.737,247.974 68.59,248.818 66.987,249.577 C65.384,250.252 60.659,251.096 56.44,251.433 C48.594,251.939 47.834,252.193 36.697,259.28 C31.888,262.317 27.5,267.042 26.91,269.658 C25.222,277.083 23.197,278.939 15.519,279.361 C11.132,279.698 10.879,279.614 9.022,276.83 C6.322,272.864 6.322,266.705 9.022,264.427 C11.216,262.486 16.11,260.039 18.472,259.702 C19.907,259.449 20.16,258.689 20.244,254.386 C20.328,251.602 19.991,246.877 19.569,243.924 C18.978,239.705 19.063,238.187 20.075,236.668 C20.75,235.655 21.678,233.293 22.185,231.437 C23.113,228.062 24.8,225.615 30.875,219.202 C33.659,216.249 34.25,215.996 36.866,216.418 C39.397,216.924 39.987,216.671 41.422,214.562 C42.35,213.296 43.531,210.934 44.206,209.415 C44.797,207.896 45.725,206.378 46.231,206.04 C47.75,205.112 50.534,200.556 50.618,198.7 C50.703,197.856 51.631,196.506 52.728,195.747 C57.031,192.962 60.49,188.575 97.699,139.216 C118.792,111.12 137.186,87.073 138.451,85.639 C142.501,81.167 147.142,74.755 147.142,73.574 C147.142,72.983 146.298,70.958 145.286,69.186 L143.345,65.811 L145.792,61.424 C147.142,58.977 149.926,55.096 151.951,52.818 C153.976,50.624 155.579,48.262 155.579,47.587 C155.579,46.996 157.351,44.296 159.629,41.596 C161.823,38.896 164.27,35.69 165.029,34.509 C167.476,30.628 185.363,13.584 190.679,10.125 C196.5,6.159 197.513,6.075 198.694,8.775 C200.044,11.728 199.032,15.862 195.572,21.515 C192.535,26.662 192.113,29.784 194.56,30.206 C196.247,30.543 197.175,29.531 204.516,20.165 C213.038,9.197 223.162,-0 226.537,-0 C228.562,-0 229.828,3.122 228.9,5.569 C228.562,6.581 224.006,15.947 218.859,26.409 C212.784,38.812 208.903,45.646 207.891,45.984 C207.047,46.237 204.178,49.359 201.563,52.818 C198.947,56.362 195.404,60.58 193.632,62.268 C190.257,65.727 181.144,70.874 178.529,70.874 C176.166,70.874 172.707,73.911 170.766,77.624 C169.923,79.395 168.573,80.999 167.898,81.252 C167.223,81.505 165.282,84.289 163.51,87.495 C159.207,95.089 157.014,98.295 152.542,103.358 C150.517,105.72 133.389,126.982 114.574,150.607 C95.674,174.316 78.631,195.409 76.774,197.603 C65.215,210.681 64.54,212.115 71.206,208.487 C73.146,207.475 76.774,206.8 81.752,206.462 C86.224,206.125 91.962,205.112 95.674,203.931 C99.133,202.75 103.521,201.568 105.377,201.315 C110.017,200.472 116.261,197.35 116.599,195.578 C116.767,194.819 115.67,192.878 114.236,191.275 L111.621,188.237 L116.261,185.284 C118.792,183.681 122.336,181.572 124.192,180.644 C126.048,179.716 128.242,177.859 129.086,176.425 C130.773,173.81 139.97,165.372 141.151,165.372 C141.573,165.372 143.767,163.853 145.961,161.913 C148.239,160.057 153.301,156.935 157.267,155.163 C163.257,152.294 165.704,151.619 172.032,151.113 C176.251,150.776 180.638,150.776 181.988,151.113 C184.857,151.957 188.147,151.029 192.366,148.16 C194.138,146.979 198.441,145.46 201.816,144.701 C205.191,144.026 208.735,143.013 209.578,142.591 C210.506,142.085 212.447,141.832 213.966,141.916 C217.341,142.254 217.425,141.494 214.134,132.466 C210.169,121.245 212.278,111.795 223.331,92.052 C231.094,78.299 233.034,73.996 233.456,70.03 C233.625,67.921 235.143,63.449 236.915,60.074 C239.447,54.927 239.953,53.071 239.953,48.515 C239.953,41.512 241.05,38.643 243.581,38.981 C247.293,39.487 248.474,43.959 248.643,59.061 C248.812,72.055 248.728,72.73 246.956,74.417 C245.943,75.346 244.678,77.286 244.087,78.721 C243.496,80.239 240.881,86.145 238.265,91.967 C233.203,103.104 230.672,111.373 230.672,116.942 C230.672,119.642 231.178,120.823 233.203,122.764 C234.637,124.113 235.734,125.97 235.734,126.982 C235.734,128.754 237.168,130.779 238.434,130.779 C238.772,130.779 239.109,130.104 239.109,129.26 C239.109,126.56 241.556,124.198 245.69,122.848 C249.571,121.498 249.993,121.582 256.827,123.692 C260.793,124.957 265.012,126.138 266.362,126.307 C267.627,126.56 269.399,127.657 270.327,128.838 C272.437,131.538 274.04,130.61 273.365,126.982 C273.027,125.463 273.449,121.92 274.208,118.967 C275.305,114.664 275.39,112.554 274.63,107.07 C274.124,103.358 273.28,99.561 272.774,98.633 C271.93,96.945 271.508,95.511 268.302,84.036 C267.543,81.336 265.94,77.961 264.759,76.527 C262.734,74.08 262.565,73.489 263.071,68.343 C263.409,65.305 263.746,61.171 263.915,59.061 C264.252,53.999 268.724,43.705 271.34,42.44 C276.655,39.571 277.836,42.524 275.305,52.227 L273.533,58.977 L275.643,64.714 C276.824,67.836 277.921,72.899 278.174,75.852 C278.596,80.999 280.283,85.133 287.708,99.814 C288.383,101.164 288.889,102.767 288.889,103.442 C288.889,104.117 289.818,105.636 290.999,106.817 C293.024,108.842 293.192,109.601 293.361,117.532 C293.53,125.632 293.361,126.56 290.661,132.635 L287.877,139.132 L292.939,144.194 C298.508,149.679 304.414,152.885 319.264,158.454 C333.27,163.685 344.238,169.169 345.504,171.363 C346.601,173.556 351.495,178.366 355.038,180.813 C356.22,181.656 357.232,182.837 357.232,183.512 C357.232,184.187 359.426,186.128 362.126,187.816 C364.741,189.587 367.104,191.106 367.272,191.275 C367.526,191.444 366.851,192.372 365.922,193.469 C364.91,194.481 363.729,196.928 363.223,198.868 C362.632,201.147 360.944,203.762 358.919,205.787 C355.207,209.415 354.701,211.946 356.726,215.912 C358.244,218.696 360.944,220.637 364.657,221.396 C367.61,222.071 367.779,222.409 366.597,225.531 C365.922,227.218 366.091,227.809 367.104,228.146 C367.947,228.484 368.285,228.315 367.947,227.471 C367.526,226.543 367.947,226.459 369.972,227.218 C371.322,227.724 372.419,228.484 372.419,228.821 C372.419,229.159 374.36,229.496 376.722,229.496 C380.35,229.496 381.532,229.074 383.978,226.965 C385.497,225.615 387.1,224.434 387.522,224.434 C387.944,224.434 388.197,221.312 388.028,217.515 C387.86,210.681 387.185,207.221 386.003,207.896 C385.75,208.065 385.582,206.631 385.75,204.775 C385.919,202.834 385.582,200.303 385.075,199.122 C384.232,197.181 384.232,197.265 384.653,199.965 C384.907,202.075 384.822,202.581 384.232,201.653 C383.135,199.881 383.388,194.819 384.738,192.625 C385.413,191.612 385.919,189.756 385.919,188.575 C385.919,187.394 386.257,186.466 386.678,186.466 C387.606,186.466 386.763,190.684 385.413,192.794 C384.738,193.722 384.232,194.987 384.232,195.747 C384.316,197.35 387.522,191.528 387.606,189.756 C387.606,188.491 389.547,184.019 394.188,174.738 C396.128,170.941 402.456,163.938 404.65,163.178 C405.831,162.841 406.084,162.419 405.325,161.997 C404.65,161.575 404.903,161.238 406.084,160.9 C407.181,160.647 407.687,160.816 407.266,161.407 C406.928,161.913 407.434,162.082 408.531,161.828 C409.628,161.491 410.219,161.66 410.134,162.335 C410.05,162.841 410.472,163.178 411.062,163.094 C411.569,162.925 412.075,163.263 412.075,163.685 C412.075,164.191 411.653,164.528 411.147,164.528 C410.64,164.528 410.387,165.288 410.64,166.216 C410.894,167.144 410.725,167.735 410.387,167.481 C409.965,167.228 409.206,168.578 408.7,170.603 C407.856,173.472 407.94,174.569 408.953,176.341 C409.628,177.522 409.965,178.956 409.712,179.631 C409.544,180.222 409.797,181.066 410.387,181.403 C411.147,181.909 410.64,182.753 408.616,184.694 L405.747,187.225 L408.447,189.84 C409.965,191.275 411.4,192.372 411.737,192.287 C411.99,192.287 412.497,192.54 412.75,192.878 C413.087,193.215 412.834,193.215 412.328,192.878 C411.569,192.456 411.231,192.878 411.231,194.059 C411.231,195.156 411.569,195.662 412.159,195.24 C412.834,194.903 412.834,195.24 412.159,196.506 C411.569,197.434 410.809,198.278 410.303,198.278 C409.797,198.278 409.712,198.7 410.05,199.29 C410.387,199.797 410.303,200.05 409.881,199.797 C409.459,199.543 408.362,199.628 407.434,200.05 C405.916,200.64 405.916,200.725 407.856,200.725 C409.037,200.809 410.809,201.062 411.822,201.315 C413.34,201.737 413.931,201.4 414.606,199.459 C415.281,197.687 415.281,197.012 414.437,196.422 C413.594,195.915 413.762,195.747 414.859,195.747 C415.703,195.747 416.293,195.156 416.293,194.312 C416.293,192.962 416.125,192.962 415.45,194.059 C414.775,194.987 414.69,194.65 415.112,192.794 C415.787,189.672 416.293,189.081 416.378,191.19 C416.462,192.119 416.715,191.781 417.053,190.262 C417.39,188.828 417.306,187.225 416.8,186.55 C416.125,185.622 416.125,185.453 416.968,185.959 C417.559,186.297 417.981,186.128 417.981,185.369 C417.981,182.753 420.09,182.247 423.381,184.019 L426.503,185.706 L429.034,183.006 C430.384,181.572 431.481,179.8 431.481,179.041 C431.481,178.281 430.806,178.956 429.878,180.559 C428.275,183.597 425.321,184.862 423.634,183.175 C422.959,182.5 423.381,182.331 425.153,182.669 C427.431,183.091 427.853,182.837 429.203,180.138 C429.962,178.45 430.637,176.256 430.721,175.244 C430.806,173.472 430.806,173.556 431.481,175.497 C432.071,177.269 432.156,176.931 432.24,173.81 C432.324,171.616 432.831,169.422 433.421,168.831 C434.265,167.819 434.096,167.735 432.746,168.241 C431.565,168.663 431.312,168.578 431.987,167.903 C432.578,167.313 433.59,167.228 435.024,167.819 C436.206,168.241 437.893,168.494 438.737,168.325 C439.665,168.156 440.593,167.988 440.846,167.988 C441.859,167.819 443.293,163.516 443.799,159.213 C444.474,153.475 445.402,151.872 447.934,151.872 C451.309,151.872 453.418,149.088 453.418,144.532 C453.418,139.891 453.755,139.216 457.046,137.613 C458.312,136.938 459.324,135.841 459.324,135.166 C459.324,134.154 458.733,134.407 457.046,135.926 L454.683,137.951 L456.624,135.757 C457.89,134.323 458.48,132.466 458.649,129.851 L458.733,126.138 L459.324,129.935 L459.915,133.732 L459.999,129.851 C460.168,126.645 460.59,125.717 462.699,124.198 C464.133,123.101 465.23,121.835 465.23,121.245 C465.23,120.57 464.893,120.654 464.386,121.498 C463.711,122.595 463.543,122.51 463.543,121.329 C463.543,120.485 463.965,119.81 464.471,119.81 C464.977,119.81 465.146,119.22 464.893,118.46 C464.64,117.785 464.724,117.448 465.23,117.701 C465.736,117.954 466.074,117.532 466.074,116.689 C466.074,115.845 466.749,114.157 467.593,113.061 C469.111,110.867 469.786,105.551 470.799,89.267 C471.474,78.805 470.461,65.389 469.364,69.608 C468.774,71.549 468.774,71.296 469.027,68.258 C469.196,66.149 469.027,63.28 468.605,61.93 C468.099,60.074 467.846,59.905 467.761,61.171 C467.593,62.605 467.508,62.521 466.918,60.749 C466.58,59.568 466.243,57.88 466.243,56.952 C466.243,55.602 466.411,55.687 467.002,57.374 C468.689,62.099 466.833,53.408 464.724,46.574 C463.29,42.018 462.193,39.824 461.602,40.162 C460.843,40.584 460.843,40.499 461.602,39.656 C462.277,38.981 462.361,37.968 461.855,36.618 C461.265,35.184 461.349,34.678 462.108,34.846 C462.699,34.931 463.036,34.593 462.952,34.003 C462.783,33.243 463.29,33.159 464.724,33.749 C465.821,34.171 466.918,34.34 467.086,34.171 C467.255,33.918 469.871,36.281 472.908,39.402 C475.861,42.44 477.717,44.718 477.042,44.38 C476.367,44.043 477.296,45.14 479.152,46.912 C481.008,48.599 482.02,49.696 481.345,49.359 C480.755,49.021 480.333,49.021 480.502,49.443 C480.671,49.865 481.514,51.974 482.442,54.168 C483.286,56.362 484.299,58.049 484.552,57.88 C484.889,57.627 485.142,58.555 485.058,59.736 C485.058,61.086 485.48,61.93 486.07,61.846 C487.167,61.593 488.517,64.799 487.674,65.558 C487.42,65.896 487.167,65.474 487.167,64.714 C487.167,63.871 486.83,63.28 486.408,63.28 C486.07,63.28 486.155,64.63 486.661,66.233 C487.336,68.511 487.674,68.849 488.18,67.668 C488.602,66.571 488.77,66.571 488.77,67.499 C488.855,68.174 489.108,69.693 489.277,70.874 C489.698,72.73 489.614,72.73 488.939,71.296 C488.517,70.368 488.095,70.03 488.095,70.621 C487.927,72.308 489.023,74.249 489.783,73.742 C490.205,73.489 490.542,73.658 490.542,74.164 C490.542,74.586 490.205,75.092 489.783,75.261 C489.361,75.43 489.192,76.527 489.445,77.792 C489.698,79.058 490.205,79.902 490.627,79.649 C491.048,79.395 491.133,80.408 490.795,81.927 C490.458,83.867 490.542,84.458 491.217,84.036 C491.892,83.614 492.23,84.12 492.23,85.386 C492.23,86.82 491.977,87.073 491.47,86.145 C490.88,85.302 490.711,85.555 490.795,87.158 C490.88,88.339 491.217,89.098 491.555,88.93 C491.892,88.677 491.977,90.28 491.723,92.389 C491.47,95.089 491.555,96.186 492.145,95.764 C492.736,95.426 493.073,96.27 492.989,98.042 C492.905,100.658 492.905,100.742 492.23,98.717 C491.639,96.861 491.555,97.03 491.47,99.983 C491.386,102.598 491.639,103.104 492.314,102.092 C493.073,101.079 493.158,101.079 492.736,102.345 C492.483,103.189 492.23,104.708 492.145,105.72 C492.061,107.408 491.977,107.408 491.386,105.467 C490.795,103.864 490.711,104.286 490.88,107.323 C490.964,109.517 490.795,111.12 490.373,110.867 C490.036,110.614 489.698,110.867 489.698,111.289 C489.698,111.795 490.12,112.217 490.542,112.217 C491.048,112.217 491.386,112.639 491.386,113.145 C491.386,113.567 490.964,113.736 490.373,113.398 C489.783,112.976 489.614,113.229 489.952,114.157 C490.205,114.917 490.036,115.676 489.445,115.929 C488.686,116.182 488.686,116.351 489.53,116.351 C490.036,116.435 490.542,116.857 490.542,117.364 C490.542,117.785 490.205,118.039 489.783,117.701 C488.77,117.11 487.589,122.679 488.349,124.451 C488.602,125.21 488.517,125.548 488.011,125.295 C486.999,124.704 485.986,128.67 486.83,130.02 C487.167,130.61 487.083,130.779 486.577,130.526 C486.07,130.188 485.48,130.526 485.142,131.201 C484.889,131.876 485.058,132.635 485.48,132.888 C486.577,133.563 486.577,135.841 485.48,135.841 C485.058,135.841 484.889,135.166 485.227,134.407 C485.48,133.563 485.564,133.057 485.227,133.31 C484.974,133.563 484.214,135.335 483.539,137.276 C482.695,139.891 482.611,141.073 483.286,141.832 C483.961,142.591 483.961,142.676 483.286,142.338 C482.78,142.001 481.936,142.676 481.43,143.857 C480.924,145.038 480.839,145.966 481.261,146.135 C482.274,146.472 481.345,150.185 480.249,150.185 C479.827,150.185 479.911,149.341 480.502,148.413 C481.008,147.401 481.092,146.81 480.586,147.063 C479.827,147.654 476.789,156.175 475.861,160.732 C475.439,162.588 475.524,162.925 476.199,161.997 C476.874,160.9 477.042,160.9 477.042,162.166 C477.042,164.444 475.439,167.903 474.427,167.903 C473.752,167.903 473.836,167.481 474.596,166.469 C475.186,165.625 474.68,165.878 473.414,166.975 C471.221,169 470.293,172.966 472.064,172.966 C472.486,172.966 471.389,174.822 469.533,177.016 C466.243,180.897 466.158,181.15 467.002,184.356 C467.846,187.394 467.761,187.816 465.99,189.165 C460.083,193.469 459.324,193.89 462.952,190.515 C465.146,188.575 466.918,186.55 466.918,186.212 C466.918,185.2 459.408,192.372 458.312,194.397 C457.721,195.409 457.805,196.253 458.396,196.843 C459.915,198.362 459.408,200.387 457.046,202.581 C455.78,203.678 455.274,203.931 455.865,203.172 C456.708,202.075 456.708,201.653 456.033,201.653 C454.683,201.653 448.355,206.8 448.355,207.896 C448.355,208.318 449.452,207.728 450.718,206.462 C451.983,205.196 453.418,204.184 453.924,204.184 C454.346,204.268 453.587,205.112 452.237,206.293 C450.127,207.981 449.874,208.487 450.802,209.584 C452.152,211.187 450.887,211.44 449.284,209.921 C448.44,208.993 448.355,209.078 448.777,210.343 C449.115,211.103 450.043,211.778 450.802,211.778 C451.562,211.778 453.165,212.453 454.262,213.212 C456.287,214.562 456.287,214.562 455.105,213.043 C454.008,211.693 454.008,211.524 455.105,211.946 C455.949,212.199 456.371,213.381 456.287,215.574 C456.202,218.106 455.78,219.118 454.177,220.046 C452.152,221.227 452.152,221.227 454.262,219.456 L456.371,217.684 L453.671,218.612 C452.152,219.118 451.14,219.877 451.393,220.299 C451.646,220.721 451.477,221.059 450.971,221.059 C450.549,221.059 450.043,220.552 449.79,220.046 C449.537,219.202 449.115,219.202 448.271,220.131 C447.512,220.89 447.512,221.059 448.187,220.721 C448.693,220.384 449.199,220.552 449.199,221.059 C449.199,221.649 448.187,221.818 446.162,221.396 C443.884,220.974 443.209,221.059 443.631,221.818 C443.968,222.324 443.884,222.746 443.377,222.746 C442.956,222.746 442.449,222.24 442.196,221.734 C441.943,220.974 441.015,221.396 439.412,222.999 C437.134,225.193 437.049,225.446 438.484,226.459 C439.243,227.049 439.918,228.399 439.918,229.412 C439.918,230.677 440.256,231.099 441.015,230.677 C441.69,230.255 441.69,230.424 440.846,231.437 C440.256,232.196 439.412,232.618 438.99,232.365 C438.568,232.112 436.796,232.196 435.109,232.534 C432.409,233.04 432.156,233.208 433.59,233.883 C434.94,234.474 434.856,234.558 432.999,234.305 C431.649,234.052 430.637,234.305 430.637,234.643 C430.637,235.065 429.962,235.402 429.203,235.402 C427.853,235.402 427.853,235.233 428.95,234.558 C429.878,233.883 429.625,233.799 427.768,234.052 C426.334,234.305 423.634,236.077 421.609,238.102 C417.981,241.646 417.222,243.249 418.74,244.261 C419.247,244.515 419.415,244.008 419.247,243.08 C419.078,242.068 420.09,240.465 422.031,238.693 L425.153,235.824 L422.537,238.777 C421.103,240.38 420.09,242.236 420.259,242.827 C420.512,243.418 420.006,244.936 419.162,246.202 C418.318,247.468 417.728,248.818 417.812,249.239 C417.981,249.661 417.559,249.661 416.968,249.155 C415.534,247.974 408.278,249.83 406.337,251.771 C404.987,253.121 404.987,253.205 406.591,252.614 C407.519,252.277 408.784,251.602 409.459,251.096 C410.472,250.336 410.556,250.421 410.05,251.349 C409.628,251.939 408.025,252.952 406.422,253.627 C404.903,254.302 403.384,255.399 403.131,256.074 C402.794,256.749 402.203,257.086 401.781,256.749 C401.191,256.411 401.022,257.086 401.275,258.521 C401.697,260.799 400.769,262.233 399.841,260.799 C399.588,260.292 398.744,260.208 397.984,260.461 C396.719,260.967 396.803,261.052 398.238,261.642 C399.756,262.233 399.756,262.317 397.984,262.317 C396.972,262.402 395.959,261.896 395.791,261.389 C395.538,260.714 395.284,260.883 395.284,261.811 C395.2,262.57 394.778,263.245 394.188,263.245 C393.681,263.245 392.416,263.92 391.488,264.764 C389.716,266.199 389.716,266.199 391.319,264.342 C392.247,263.245 392.5,262.402 392.078,262.402 C390.644,262.402 389.041,264.849 389.631,266.199 C389.885,266.958 389.8,267.38 389.463,267.127 C388.788,266.705 386.425,268.983 380.435,275.817 C377.819,278.77 378.832,278.686 382.544,275.564 C384.232,274.13 384.147,274.383 382.207,276.577 C380.772,278.011 379.254,279.276 378.663,279.276 C378.072,279.276 377.313,279.698 376.975,280.289 C376.554,280.964 376.807,281.048 377.819,280.711 C379,280.205 379.085,280.458 378.325,281.808 C377.819,282.736 377.229,283.495 376.975,283.495 C376.722,283.495 376.807,282.989 377.144,282.483 C378.157,280.542 370.31,289.654 368.622,292.354 C367.694,293.873 365.669,296.911 364.151,299.189 C362.632,301.467 361.619,303.745 361.788,304.251 C362.041,304.842 361.366,305.939 360.354,306.867 C358.498,308.385 358.498,308.385 359.763,306.613 C360.438,305.685 360.016,306.023 358.751,307.457 C356.388,309.988 355.46,312.857 357.401,311.676 C357.991,311.338 358.076,311.423 357.738,312.098 C357.401,312.604 356.81,312.857 356.388,312.604 C355.966,312.351 355.038,313.279 354.279,314.713 C353.604,316.063 353.351,317.245 353.773,317.245 C354.195,317.245 354.785,316.57 354.954,315.81 C355.291,314.629 355.376,314.545 355.46,315.641 C355.46,316.316 354.954,317.666 354.195,318.595 C353.52,319.438 353.182,319.607 353.52,318.932 C353.941,318.088 353.857,317.92 353.266,318.51 C351.41,320.282 348.879,327.285 349.892,327.622 C350.651,327.876 350.566,328.297 349.723,329.141 C348.71,330.154 348.626,330.154 349.132,329.057 C349.47,328.382 349.132,328.551 348.373,329.479 C347.613,330.407 347.192,332.01 347.36,333.022 C347.529,334.035 347.445,334.71 347.023,334.541 C346.685,334.288 346.01,335.385 345.42,336.988 C344.913,338.591 343.985,340.11 343.395,340.279 C341.96,340.869 340.357,339.266 340.357,337.325 C340.357,336.482 340.02,335.807 339.682,335.807 C339.26,335.807 339.26,333.782 339.598,331.419 C339.935,328.972 340.189,325.26 340.189,323.151 L340.104,319.354 L339.514,323.573 L338.923,327.791 L338.839,324.248 C338.67,320.451 339.345,317.835 340.357,318.51 C340.695,318.679 341.37,316.738 341.96,314.123 C343.057,308.385 343.142,307.12 342.045,308.807 C341.37,309.904 341.201,309.82 341.201,308.638 C341.201,307.795 341.792,307.12 342.467,307.12 C343.226,307.12 343.732,306.36 343.648,305.264 C343.648,303.407 343.563,303.407 342.888,305.01 C342.214,306.613 342.129,306.613 342.129,304.842 C342.045,303.745 342.382,302.901 342.72,302.901 C343.057,302.901 343.479,301.889 343.563,300.623 C343.648,299.357 343.985,298.176 344.407,297.923 C344.745,297.67 345.082,296.826 345.251,296.151 C345.42,295.476 346.263,292.776 347.107,290.245 C347.951,287.714 349.723,281.808 350.988,277.167 C352.254,272.527 353.435,268.308 353.604,267.802 C353.773,267.295 352.423,266.283 350.566,265.608 C348.288,264.68 346.517,263.161 344.998,260.63 C341.539,255.061 331.329,245.696 326.183,243.333 C321.542,241.224 319.517,239.874 311.923,234.305 C306.945,230.593 304.836,230.509 303.824,234.137 C301.208,243.165 295.892,250.168 289.564,252.868 C286.358,254.302 284.671,257.255 283.827,262.992 C283.405,265.692 282.646,269.152 282.14,270.67 C281.38,272.78 281.296,274.045 282.055,275.564 C282.815,277.336 283.49,277.589 287.455,277.589 C293.699,277.589 295.471,279.361 298.508,288.979 C301.714,299.02 303.57,303.576 307.62,312.013 C310.405,317.751 311.248,320.704 312.345,328.719 C313.526,337.41 313.611,338.76 312.43,340.7 C311.502,342.472 310.405,343.063 307.789,343.4 C305.258,343.738 303.739,344.497 302.052,346.438 C299.52,349.56 299.436,349.982 301.039,351.753 C302.305,353.188 306.608,363.566 306.608,365.253 C306.608,365.759 307.367,367.784 308.295,369.641 C309.308,371.497 309.814,373.69 309.561,374.534 C309.308,375.378 309.73,376.559 310.573,377.319 C312.767,379.259 318.926,382.212 320.698,382.212 C323.145,382.212 336.982,387.95 339.851,390.059 C341.285,391.24 343.648,393.35 345.167,394.868 C348.035,397.821 349.385,397.99 356.135,396.809 C363.644,395.374 366.091,397.821 363.898,404.318 L362.801,407.609 L369.635,413.852 C377.566,421.193 379,423.893 377.735,428.955 C377.229,430.811 376.975,434.355 377.229,436.802 C377.65,440.683 377.988,441.274 380.097,442.033 C383.219,443.13 383.978,444.986 382.46,447.77 C381.7,449.205 381.363,452.074 381.532,456.208 C381.7,461.523 381.447,462.789 380.013,464.73 C379,465.995 376.132,470.214 373.685,474.179 C368.201,482.785 367.441,483.629 361.451,487.426 C358.919,489.113 355.207,491.813 353.351,493.501 C348.373,497.804 338.754,500.757 332.764,499.829 z M215.316,369.303 C218.522,369.05 220.294,368.459 221.812,367.025 C224.597,364.409 224.428,363.566 221.222,363.819 L218.437,364.072 L217.931,356.563 C217.425,349.138 217.341,348.969 214.303,346.353 C211.181,343.738 208.735,338.085 208.735,333.276 C208.735,330.997 205.95,326.526 204.516,326.526 C203.081,326.526 200.044,331.841 199.707,334.879 C199.2,339.604 197.935,342.978 195.235,346.353 C193.885,348.041 192.535,350.572 192.282,352.091 C191.185,357.322 188.485,364.831 187.135,366.266 C184.182,369.556 185.869,370.147 198.694,369.809 C205.36,369.725 212.869,369.472 215.316,369.303 z M403.637,254.386 C404.481,253.374 404.481,253.121 403.3,253.121 C402.541,253.121 401.95,253.711 401.95,254.386 C401.95,255.061 402.119,255.652 402.287,255.652 C402.456,255.652 403.047,255.061 403.637,254.386 z M409.881,197.856 C411.99,196.253 410.64,196.253 407.856,197.856 C406.675,198.531 406.253,199.037 407.012,199.037 C407.687,199.037 409.037,198.531 409.881,197.856 z" fill="#000000"/>
  </g>
</svg>
