<?xml version="1.0" encoding="UTF-8"?>
<!DOCTYPE svg PUBLIC "-//W3C//DTD SVG 1.1//EN" "http://www.w3.org/Graphics/SVG/1.1/DTD/svg11.dtd">
<svg version="1.1" xmlns="http://www.w3.org/2000/svg" xmlns:xlink="http://www.w3.org/1999/xlink" x="0" y="0" width="500" height="500" viewBox="0, 0, 500, 500">
  <g id="Layer_1">
    <path d="M446.845,324.577 L395.288,280.393 L395.082,280.238 C444.937,272.092 482.986,228.784 482.986,176.609 C482.986,118.607 435.966,71.587 377.965,71.587 C339.194,71.587 305.321,92.622 287.121,123.917 L284.337,77.825 L301.505,81.073 L247.989,9.925 L193.133,86.435 L210.301,80.3 C210.301,80.3 209.373,110.564 208.342,120.36 C189.317,94.891 158.95,78.392 124.716,78.392 C67.127,78.392 20.417,125.103 20.417,182.692 C20.417,236.466 61.095,280.702 113.374,286.373 L60.94,316.019 L50.32,282.043 L0,417.071 L114.972,416.658 L102.289,390.467 L135.079,366.751 C135.079,367.473 135.028,368.246 135.028,368.968 C135.028,435.837 189.214,490.075 256.135,490.075 C316.096,490.075 365.849,446.51 375.49,389.281 L402.609,410.11 L382.966,427.691 L500,448.159 L460.301,280.393 L446.845,324.577 z M378.016,109.017 C415.343,109.017 445.607,139.281 445.607,176.609 C445.607,213.936 415.343,244.2 378.016,244.2 C340.689,244.2 310.373,213.987 310.373,176.66 C310.373,139.333 340.637,109.017 378.016,109.017 z M52.124,182.692 C52.124,142.581 84.657,110.048 124.768,110.048 C164.879,110.048 197.412,142.581 197.412,182.692 C197.412,222.804 164.828,255.336 124.716,255.336 C84.605,255.336 52.124,222.804 52.124,182.692 z M256.909,454.965 C210.507,454.965 172.922,417.38 172.922,370.979 C172.922,324.577 210.507,286.992 256.909,286.992 C303.31,286.992 340.895,324.577 340.895,370.979 C340.895,417.38 303.31,454.965 256.909,454.965 z" fill="#000000"/>
  </g>
</svg>
