<?xml version="1.0" encoding="UTF-8"?>
<!DOCTYPE svg PUBLIC "-//W3C//DTD SVG 1.1//EN" "http://www.w3.org/Graphics/SVG/1.1/DTD/svg11.dtd">
<svg version="1.1" xmlns="http://www.w3.org/2000/svg" xmlns:xlink="http://www.w3.org/1999/xlink" x="0" y="0" width="500" height="500" viewBox="0, 0, 500, 500">
  <g id="layer101">
    <path d="M291.001,497.025 C290.409,496.211 289.965,494.214 289.965,492.66 C289.965,491.18 289.3,487.851 288.412,485.336 C287.598,482.894 287.006,480.157 287.154,479.195 C287.228,478.307 286.784,476.68 286.044,475.57 C284.565,473.351 284.861,471.427 286.636,471.427 C288.486,471.427 287.894,469.43 285.526,467.728 C282.937,465.878 282.937,464.621 285.6,464.029 C286.562,463.807 287.45,462.993 287.598,462.327 C287.968,460.552 284.861,459.59 280.348,460.034 C278.276,460.182 276.057,460.034 275.243,459.664 C272.432,458.11 269.25,454.485 269.25,452.783 C269.25,451.822 268.806,450.416 268.215,449.602 C267.697,448.788 266.957,447.087 266.735,445.829 C265.921,442.278 263.554,440.65 257.783,439.615 C251.79,438.579 248.535,437.469 248.535,436.581 C248.535,436.211 247.795,435.176 246.908,434.288 C244.466,431.846 241.137,425.114 241.137,422.673 C241.137,419.121 239.657,419.121 236.698,422.599 C233.369,426.52 231.445,426.446 230.483,422.377 C229.966,420.305 230.04,419.195 230.631,418.308 C232.259,416.014 232.481,414.978 231.741,413.055 C231.371,411.945 231.297,410.243 231.593,409.282 C231.889,408.246 232.555,405.287 233.073,402.771 C233.517,400.182 234.774,396.853 235.736,395.447 C237.142,393.449 237.364,392.414 236.846,390.934 C236.328,389.232 236.772,382.796 237.808,378.505 C237.956,377.691 238.991,376.064 239.953,375.028 C242.025,372.808 241.877,371.625 239.139,368.369 C238.178,367.186 237.438,366.002 237.438,365.78 C237.438,364.744 228.116,355.422 225.971,354.313 C224.787,353.721 221.754,351.353 219.312,349.06 C212.802,343.067 211.47,342.475 207.179,344.399 C202.37,346.545 193.048,354.979 193.048,357.198 C193.048,358.456 192.456,359.27 191.199,359.713 C190.163,360.083 189.349,360.971 189.349,361.637 C189.349,362.377 188.831,363.561 188.165,364.3 C186.982,365.558 187.056,365.854 188.683,368.887 L190.385,372.142 L188.387,375.028 C187.278,376.655 186.39,378.579 186.39,379.467 C186.39,381.686 187.87,385.755 189.349,387.457 C190.089,388.271 190.903,390.12 191.199,391.526 C191.495,392.932 192.382,395.151 193.122,396.409 C193.862,397.666 194.528,399.294 194.528,399.96 C194.528,400.626 195.194,401.514 196.008,402.031 C196.821,402.549 197.487,403.215 197.487,403.585 C197.487,403.881 197.117,403.955 196.673,403.659 C196.23,403.437 194.602,403.585 192.974,404.103 C190.533,404.917 189.941,404.917 188.165,403.733 C187.13,403.067 185.502,402.623 184.614,402.771 C183.061,403.067 182.987,402.919 183.283,399.146 C183.505,396.335 183.209,394.263 182.321,392.192 C180.989,389.306 180.989,389.232 182.617,387.531 C184.614,385.385 184.318,383.832 181.137,379.467 C178.622,375.99 178.474,373.992 180.471,370.071 C181.285,368.443 181.951,366.52 181.951,365.706 C181.951,363.634 179.362,362.451 176.254,363.043 C174.331,363.413 173.295,363.191 172.259,362.229 C169.448,359.639 167.746,362.081 166.415,370.663 C165.971,373.474 164.935,376.581 163.973,377.913 C163.085,379.171 160.866,382.426 159.016,385.089 C155.687,390.046 155.021,390.564 149.916,392.562 C147.919,393.375 146.809,394.411 146.069,396.261 C144.146,400.922 142.148,400.552 139.855,395.225 C138.967,393.228 137.931,391.378 137.561,391.156 C137.117,390.86 135.712,391.378 134.306,392.192 C130.311,394.707 130.015,394.041 132.752,388.567 C135.49,383.092 136.008,379.467 134.232,377.173 C132.605,375.028 132.9,372.734 134.972,369.627 C136.23,367.778 136.822,365.928 136.822,363.782 C136.822,362.081 137.709,358.604 138.819,355.94 C142.148,347.95 141.26,341.366 136.304,336.557 L134.084,334.485 L132.087,336.113 C130.163,337.667 130.015,337.667 128.609,336.335 C126.612,334.559 122.025,326.865 122.025,325.386 C122.025,324.72 121.581,323.24 120.989,322.13 C120.397,321.021 119.732,318.579 119.436,316.73 L118.918,313.326 L123.431,308.813 C125.946,306.298 127.944,303.931 127.944,303.413 C127.944,302.969 126.982,301.415 125.724,300.009 C124.54,298.678 123.505,297.124 123.505,296.606 C123.505,296.088 122.321,294.535 120.915,293.129 C119.51,291.723 118.326,290.022 118.326,289.208 C118.326,288.468 117.956,287.211 117.586,286.471 C116.92,285.213 116.55,285.139 114.997,285.879 C113.369,286.619 112.851,286.471 111.076,284.917 C106.267,280.478 101.754,278.333 94.06,276.557 C88.733,275.299 87.993,275.447 86.513,277.815 C85.034,280.182 71.273,293.129 70.311,293.129 C68.98,293.129 69.423,291.28 71.347,288.394 C74.602,283.585 76.23,279.812 76.674,275.965 C77.044,273.006 77.488,272.044 79.115,271.008 C81.261,269.751 84.294,266.347 85.552,263.906 C87.623,259.985 88.807,239.344 87.401,230.17 C87.105,227.877 86.217,225.139 85.478,223.955 C84.442,222.402 84.294,221.144 84.59,218.777 C85.034,215.965 84.886,215.447 83.11,214.042 C82,213.154 80.373,210.935 79.485,208.937 C75.342,200.355 64.319,190.219 51.964,183.857 C43.677,179.566 41.606,179.27 37.759,181.785 C35.465,183.339 34.208,183.709 32.506,183.413 C29.473,182.747 26.957,183.857 23.11,187.334 C19.633,190.589 18.449,190.959 18.449,188.888 C18.449,186.076 28.659,175.053 34.208,171.946 C35.761,171.058 38.129,170.318 39.46,170.318 C40.866,170.318 42.346,169.726 43.012,169.06 C44.787,166.989 47.303,161.662 47.303,159.887 C47.303,159.073 47.821,156.335 48.486,153.894 C49.522,149.899 49.522,149.307 48.486,147.679 C47.821,146.718 47.303,145.312 47.303,144.498 C47.303,143.684 46.637,142.649 45.823,142.205 C44.195,141.317 28.141,141.095 22.001,141.835 C17.858,142.353 17.784,142.353 14.602,139.393 C10.459,135.546 8.536,135.102 4.763,137.026 C-0.046,139.467 -1.082,138.876 1.064,134.806 C3.135,130.737 11.347,126.668 17.488,126.668 C20.003,126.668 20.817,127.038 22.001,128.74 C24.22,131.773 30.731,133.623 37.315,132.957 C40.2,132.735 46.341,132.587 51.002,132.587 C58.622,132.735 59.806,132.957 62.617,134.585 C64.984,135.99 66.316,136.286 68.018,135.916 C69.645,135.546 70.755,135.768 71.569,136.508 C72.235,137.174 74.676,138.358 77.044,139.245 C81.483,140.873 83.184,141.983 89.991,147.605 C97.759,154.042 103.677,158.481 104.565,158.481 C105.527,158.481 112.333,165.879 115.293,170.17 C116.18,171.428 117.438,172.538 118.03,172.538 C118.696,172.538 119.14,171.65 119.214,170.17 C119.436,166.101 119.806,158.555 120.101,149.603 C120.323,144.942 120.693,139.097 121.063,136.656 C121.729,132.069 120.397,125.485 118.474,123.561 C116.994,122.081 117.438,120.38 119.732,118.678 C120.915,117.79 122.099,116.163 122.395,114.979 C122.617,113.795 123.801,111.872 124.984,110.762 C126.168,109.578 127.648,106.989 128.314,104.918 C132.531,91.157 135.046,83.906 136.156,82.649 C136.896,81.835 138.449,79.024 139.633,76.36 C141.26,72.809 143.184,70.22 147.031,66.521 C149.842,63.783 152.728,61.564 153.246,61.564 C153.838,61.564 155.539,60.232 157.019,58.604 C158.794,56.607 160.274,55.645 161.606,55.645 C162.641,55.645 164.713,55.127 166.193,54.535 C167.598,53.944 168.93,53.426 169.004,53.426 C169.078,53.426 170.41,54.387 171.889,55.571 L174.553,57.717 L180.545,56.163 C187.204,54.387 187.87,54.683 187.87,59.122 C187.87,60.528 188.609,62.304 189.719,63.635 C190.977,65.115 191.569,66.743 191.569,68.592 C191.569,70.738 192.234,71.995 195.12,75.103 C197.043,77.248 199.633,80.429 200.816,82.279 C201.926,84.128 203.776,86.422 204.812,87.458 C205.921,88.493 207.253,90.121 207.919,91.083 C209.768,93.968 210.804,92.414 210.804,86.866 C210.804,84.128 211.1,81.539 211.396,81.095 C213.024,78.728 223.751,71.921 225.897,71.921 C226.488,71.921 229.744,74.363 232.999,77.322 L238.991,82.649 L238.548,93.376 C238.326,99.295 237.956,104.844 237.734,105.657 C237.438,106.841 237.956,107.655 239.657,108.913 L242.025,110.614 L240.101,112.168 C238.622,113.426 237.956,115.127 236.698,121.046 C235.884,125.115 235.218,130.368 235.218,132.735 C235.218,136.804 234.996,137.322 232.777,139.319 C229.818,141.983 222.049,146.644 220.644,146.644 C220.126,146.644 217.537,144.868 214.947,142.649 C212.358,140.429 209.472,138.432 208.585,138.136 C207.031,137.618 206.957,137.396 207.401,129.036 C207.697,124.227 208.067,118.308 208.289,115.793 C208.659,111.28 208.659,111.206 206.439,110.022 C203.998,108.839 203.554,107.581 205.033,106.101 C205.699,105.435 205.551,104.77 204.368,103.142 C203.48,101.958 201.26,97.963 199.411,94.264 C197.561,90.565 195.12,86.422 193.936,85.09 C192.752,83.759 190.903,81.095 189.793,79.098 C187.056,74.363 184.91,73.031 181.877,74.067 C177.956,75.398 177.512,75.177 177.512,71.847 C177.512,69.184 177.068,68.296 174.331,65.559 C171.297,62.599 171.001,62.452 167.82,62.821 C163.233,63.339 155.539,68.074 150.804,73.253 C145.699,78.876 140.743,88.715 136.896,100.922 C134.158,109.652 134.01,110.688 134.676,114.239 C136.304,122.747 136.304,122.525 134.306,124.375 C133.27,125.411 132.383,126.594 132.383,127.112 C132.383,127.63 131.569,128.962 130.607,130.146 C129.275,131.773 128.683,133.771 128.018,139.245 C126.834,148.493 125.798,171.206 126.168,179.566 C126.464,185.632 126.686,186.52 129.201,190.663 C132.826,196.582 137.265,201.835 140.225,203.684 C141.556,204.498 142.888,205.83 143.11,206.644 C143.406,207.383 145.551,210.121 147.993,212.636 C150.36,215.078 152.358,217.593 152.358,218.185 C152.358,218.777 156.353,223.29 161.236,228.098 C166.119,232.907 170.706,238.16 171.519,239.788 C173.073,242.747 174.701,243.709 180.841,245.04 C182.913,245.558 187.352,246.816 190.755,247.852 C196.451,249.701 197.265,250.219 200.373,253.918 C202.222,256.138 204.146,258.283 204.516,258.579 C205.699,259.467 210.804,258.579 212.358,257.174 C214.059,255.62 214.133,254.51 212.728,251.773 C211.766,249.997 211.766,249.479 212.654,248.222 C214.059,246.298 213.615,238.752 211.914,235.201 C210.212,231.872 210.804,230.984 215.317,230.466 C217.093,230.318 219.238,229.8 220.126,229.356 C221.014,228.986 222.493,228.764 223.455,228.912 C224.935,229.06 225.305,229.652 225.823,232.833 C227.302,242.969 227.376,243.117 229.3,243.561 C230.853,243.931 231.223,244.523 231.593,247.556 C232.111,252.143 233.739,253.253 237.734,251.699 C239.139,251.181 239.879,250.071 240.767,246.964 C242.099,242.377 242.543,241.859 246.686,240.602 C248.313,240.084 249.941,239.418 250.311,239.048 C250.755,238.678 251.716,238.382 252.456,238.382 C253.566,238.382 253.788,238.752 253.344,240.084 C251.938,244.745 251.938,244.893 254.454,245.188 C257.857,245.484 258.671,247.112 257.413,250.959 C256.451,253.918 256.451,254.14 258.153,255.398 C259.855,256.656 259.855,256.804 258.671,258.653 C258.005,259.689 257.413,260.873 257.413,261.317 C257.413,262.87 262.666,264.35 269.546,264.794 L276.427,265.238 L279.904,262.056 L283.307,258.875 L283.159,254.288 C282.937,249.701 282.937,249.627 286.488,245.928 C290.335,241.785 290.705,240.084 288.56,236.606 C287.746,235.349 286.784,232.981 286.34,231.354 C285.231,227.285 285.009,226.989 280.348,224.695 C278.128,223.586 275.243,221.662 273.911,220.404 C271.47,218.111 270.582,217.815 264.663,217.741 C261.778,217.667 261.112,217.445 261.112,216.335 C261.112,215.595 261.556,214.56 262.074,214.042 C263.406,212.71 261.186,211.304 256.525,210.713 C253.27,210.269 252.53,210.417 251.642,211.526 C250.755,212.71 250.977,213.08 253.048,214.856 C254.38,215.965 256.673,217.297 258.079,217.741 C262.296,219.147 271.47,224.547 271.47,225.583 C271.47,226.915 269.102,227.729 263.702,228.32 C258.745,228.838 253.788,228.172 245.65,225.805 C238.252,223.733 236.106,222.476 235.514,220.034 C235.218,218.925 234.479,217.445 233.813,216.705 C232.481,215.152 221.827,208.419 216.131,205.534 C213.172,204.054 212.284,203.166 212.284,201.909 C212.284,199.541 210.508,197.322 207.549,195.916 C204.22,194.362 201.778,194.436 199.485,196.212 C196.008,198.949 190.089,197.47 191.125,194.14 C191.421,193.253 192.826,191.181 194.232,189.48 C197.117,186.076 197.191,185.263 195.564,180.972 C194.454,178.086 194.454,177.79 196.008,174.831 C198.079,170.688 199.337,170.318 201.926,173.203 C203.11,174.461 204.812,175.497 205.625,175.497 C206.513,175.497 208.215,176.163 209.398,177.051 C212.284,179.048 215.169,178.456 216.945,175.423 C218.794,172.168 218.572,169.948 216.205,168.395 C215.021,167.655 213.541,166.323 212.876,165.435 C212.136,164.547 210.582,163.66 209.324,163.438 C206.217,162.772 206.439,160.7 209.916,157.001 C212.58,154.264 213.098,154.042 216.797,154.042 C220.718,154.042 220.792,153.968 225.231,149.233 C230.188,143.832 231.223,143.684 233.443,147.753 C234.552,149.825 234.626,150.565 233.887,152.118 C232.777,154.634 233.665,156.853 236.994,159.813 C239.805,162.254 241.729,162.698 244.096,161.44 C245.132,160.848 246.538,161.588 251.125,165.139 C258.745,171.058 259.633,170.984 258.153,164.843 C257.191,160.478 258.227,159.221 260.372,162.254 C263.332,166.619 265.773,168.838 267.549,168.838 C268.806,168.838 273.393,167.211 275.095,166.101 C275.539,165.805 273.541,158.999 272.875,158.111 C271.618,156.779 272.21,154.634 274.503,152.488 C276.649,150.491 276.723,150.121 276.279,146.792 C275.909,144.054 276.131,142.501 277.388,139.615 C278.276,137.544 279.312,133.771 279.682,131.107 C279.978,128.444 280.792,123.635 281.383,120.38 C282.937,112.168 282.863,106.027 281.161,101.662 C279.978,98.629 279.83,97.223 280.348,92.562 C280.718,89.529 281.236,86.496 281.531,85.756 C282.271,83.759 283.603,84.646 284.047,87.532 C284.343,89.603 284.713,90.047 286.266,90.047 C287.746,90.047 288.264,89.529 288.93,87.458 C289.374,86.052 290.927,83.537 292.333,81.909 C293.739,80.281 295.81,77.47 296.92,75.62 C298.03,73.771 300.619,69.628 302.69,66.373 C306.685,60.084 312.16,49.357 312.16,47.729 C312.16,45.953 315.193,37.593 316.747,35.078 C317.561,33.82 318.523,32.859 318.893,33.154 C319.263,33.376 319.41,33.82 319.189,34.19 C318.523,35.3 319.706,37.15 321.112,37.15 C322.518,37.15 331.84,31.527 336.131,28.124 C337.388,27.162 339.164,26.052 340.274,25.608 C342.123,24.794 345.674,21.613 348.782,17.84 C349.669,16.878 351.001,15.695 351.741,15.251 C352.999,14.585 353.073,14.215 352.333,12.513 C351.519,10.664 351.667,10.442 354.552,8.074 C356.254,6.743 360.249,4.671 363.504,3.487 C370.384,1.046 376.081,0.75 379.114,2.674 C381.63,4.301 380.89,5.115 375.859,6.077 C368.683,7.409 366.167,10.072 364.392,17.988 C363.874,20.429 361.211,23.833 359.879,23.833 C358.769,23.833 357.29,26.052 357.29,27.532 C357.29,29.159 364.836,36.41 366.537,36.41 C367.425,36.41 368.757,37.076 369.497,37.889 C370.237,38.703 371.568,39.369 372.456,39.369 C373.344,39.369 374.675,40.035 375.415,40.849 C376.525,42.106 377.561,42.328 381.482,42.18 C386.291,41.958 387.992,42.772 387.105,45.066 C386.883,45.584 387.031,46.027 387.326,46.027 C392.579,46.249 396.648,46.841 398.72,47.729 C400.125,48.321 404.786,49.357 409.077,50.096 C413.368,50.762 419.213,51.798 422.172,52.39 C430.68,54.018 433.418,53.944 436.747,51.65 C438.3,50.614 440.224,49.727 440.964,49.727 C441.63,49.727 443.183,48.987 444.367,48.025 C446.291,46.471 447.03,46.323 457.98,46.397 C466.636,46.397 469.817,46.619 470.705,47.433 C472.48,48.839 471.667,49.579 467.672,50.17 C462.345,50.984 454.355,53.87 451.913,56.015 C449.768,57.717 448.584,58.235 445.033,58.752 C443.183,59.048 440.52,64.375 438.744,71.181 C438.005,74.067 437.043,76.804 436.599,77.248 C436.081,77.766 435.711,79.837 435.711,81.983 C435.711,84.498 435.341,86.126 434.601,86.718 C433.122,87.976 433.196,88.715 434.971,90.195 C436.747,91.749 436.821,92.858 435.267,95.226 C434.527,96.41 434.231,97.667 434.601,98.777 C434.823,99.665 435.341,102.994 435.637,106.175 C436.081,110.022 436.673,112.39 437.561,113.352 C438.892,114.757 438.892,115.053 437.783,116.903 C436.303,119.344 437.043,120.972 440.224,122.599 C442.148,123.635 442.37,124.079 442,126.224 C441.556,128.296 441.778,128.814 443.405,129.924 C444.441,130.589 445.329,131.551 445.329,132.069 C445.329,133.549 454.651,145.83 459.607,150.935 C465.378,156.779 467.08,157.741 472.554,157.741 C476.993,157.741 476.993,157.741 483.43,162.476 C484.762,163.438 492.9,165.953 498.078,166.989 C500.89,167.507 500.594,168.69 497.339,170.096 C495.119,170.984 493.048,171.132 487.499,170.762 C483.652,170.54 479.139,169.948 477.511,169.504 C475.884,169.06 473.812,168.543 472.998,168.321 C471.741,168.025 470.927,168.69 469.299,171.058 C468.115,172.76 466.266,175.201 465.23,176.533 C464.194,177.79 462.419,180.824 461.309,183.265 C460.125,185.706 458.35,189.406 457.388,191.477 C455.982,194.51 455.612,196.286 455.834,199.615 C456.056,203.832 455.982,203.98 454.059,204.202 C450.656,204.572 450.064,206.2 451.839,209.825 C452.727,211.6 453.467,213.598 453.467,214.264 C453.467,215.152 454.133,215.447 456.056,215.447 C457.462,215.447 460.273,216.113 462.345,216.927 C464.416,217.741 466.932,218.407 467.967,218.407 C470.261,218.407 473.442,221.736 473.442,224.103 C473.442,225.065 472.776,227.211 471.963,228.764 C470.557,231.502 470.187,231.724 467.45,231.724 C464.934,231.724 464.046,231.28 461.309,228.468 C458.128,225.139 454.651,223.586 453.467,224.769 C452.579,225.657 452.357,230.614 453.023,234.461 C453.467,236.754 453.245,238.012 452.357,239.344 C451.247,241.045 451.247,241.415 452.283,243.339 C452.875,244.523 453.911,245.928 454.503,246.446 C455.168,247.038 455.686,248.518 455.686,249.849 C455.686,252.513 461.087,269.677 462.641,271.97 C463.233,272.858 465.304,274.116 467.228,274.855 C474.108,277.445 475.662,278.333 476.328,279.96 C476.993,281.662 482.838,287.506 487.499,291.058 C489.57,292.611 489.94,293.203 489.2,293.943 C487.351,295.793 477.363,292.019 459.977,283.068 C458.424,282.254 456.648,282.18 450.434,282.846 C446.291,283.215 442.222,283.955 441.482,284.325 C440.742,284.769 438.67,284.843 436.895,284.621 C434.009,284.177 433.492,284.325 432.752,285.657 C432.16,286.841 431.272,287.211 429.201,287.137 C424.614,286.989 410.853,290.688 405.526,293.425 C403.233,294.609 402.345,296.088 403.973,296.088 C405.082,296.088 414.256,304.448 414.256,305.484 C414.256,305.928 415.218,307.112 416.328,308.074 C417.511,309.035 419.583,311.699 420.989,314.066 C422.32,316.434 424.762,319.689 426.241,321.242 C429.201,324.276 429.275,324.646 429.497,332.34 C429.497,335.003 430.014,338.628 430.606,340.33 C431.568,343.363 431.494,343.659 430.236,344.621 C429.127,345.361 428.535,345.435 427.795,344.769 C426.241,343.511 424.91,340.478 424.318,337.149 C423.43,332.192 423.208,331.748 419.805,329.75 C416.18,327.679 415.662,326.125 417.363,321.464 C418.251,319.097 418.103,318.579 415.736,314.214 C413.96,310.885 411.741,308.222 408.486,305.558 C405.896,303.413 402.715,300.527 401.383,299.196 C399.238,296.976 398.794,296.828 397.092,297.568 C395.613,298.308 394.799,298.234 392.949,297.272 C391.026,296.31 390.582,296.31 389.842,297.198 C389.25,297.938 389.176,298.604 389.842,299.788 C391.026,302.007 390.064,302.969 386.957,302.525 C385.181,302.229 383.775,302.451 382.888,303.191 C382.074,303.783 380.816,304.079 380.076,303.857 C376.451,302.673 358.843,311.551 354.848,316.582 C353.221,318.653 352.481,318.727 350.113,316.878 C347.672,314.954 346.488,315.546 345.526,319.245 C343.899,325.829 343.825,328.419 345.156,330.564 C347.08,333.376 349.965,340.404 350.409,343.067 C350.557,344.325 352.333,348.616 354.33,352.685 C356.328,356.754 358.103,360.971 358.325,362.081 C358.547,363.191 359.435,364.226 360.249,364.522 C361.802,365.04 366.167,370.515 366.167,372.069 C366.167,373.252 367.277,373.326 369.201,372.29 C371.938,370.811 375.785,374.806 375.785,379.097 C375.785,380.207 376.969,381.982 378.818,383.758 C381.778,386.643 381.852,386.791 381.408,390.564 L380.964,394.411 L384.293,395.891 C386.735,396.927 387.696,397.888 388.066,399.442 C388.362,400.552 389.546,402.919 390.804,404.621 C393.245,408.098 395.908,415.274 395.021,416.162 C394.281,417.05 390.878,416.014 389.62,414.608 C389.102,413.869 387.474,410.243 386.069,406.396 C384.293,401.514 383.035,399.146 381.704,398.332 C380.668,397.666 378.745,396.187 377.413,395.077 C375.933,393.819 374.158,393.006 372.752,393.006 C371.198,393.006 369.867,392.34 368.461,390.712 C365.28,387.235 360.989,377.987 360.989,374.584 C360.989,373.03 360.545,371.329 359.953,370.885 C359.361,370.367 358.177,368.443 357.29,366.52 C356.402,364.596 355.07,362.377 354.404,361.563 C351.963,358.752 348.412,351.575 348.412,349.43 C348.412,348.172 347.598,346.323 346.562,345.065 C345.526,343.807 344.713,342.328 344.713,341.736 C344.713,341.144 344.047,339.22 343.233,337.445 C342.419,335.669 341.753,333.302 341.753,332.266 C341.753,331.156 341.161,329.603 340.496,328.715 C339.312,327.309 338.868,327.235 336.353,327.901 C334.873,328.345 332.209,330.12 330.434,331.822 C327.697,334.559 326.883,334.929 323.997,334.929 C320.742,334.929 320.668,335.003 319.78,337.889 C319.263,339.516 318.671,341.736 318.449,342.845 C318.227,344.029 317.413,344.991 316.377,345.287 C315.489,345.583 312.678,347.876 310.163,350.318 C306.39,353.943 305.502,355.348 305.502,357.198 C305.502,359.344 305.798,359.565 310.902,361.563 C318.301,364.448 318.597,364.818 316.895,368.295 C316.007,370.145 314.824,371.329 313.64,371.551 C312.604,371.773 311.716,372.512 311.568,373.178 C311.272,374.732 313.418,378.949 314.528,378.949 C315.046,378.949 315.12,379.985 314.75,382.13 C314.454,383.832 314.158,387.087 314.084,389.306 C314.01,392.044 313.418,394.263 312.308,396.039 C310.311,399.294 310.237,400.552 312.086,402.179 C313.862,403.733 314.306,405.879 315.267,417.272 C315.859,423.856 316.303,426.298 317.043,426.298 C317.561,426.298 318.301,426.742 318.597,427.333 C319.484,428.813 322.148,429.997 324.663,429.997 C327.697,429.997 328.584,431.846 329.25,439.984 C329.916,447.753 329.398,454.411 328.066,454.411 C327.549,454.411 326.587,455.817 325.773,457.444 C322.814,464.029 319.928,465.804 318.079,462.031 C317.043,459.96 317.043,459.96 316.747,461.661 C316.599,462.845 316.969,463.807 317.931,464.473 C320.076,465.952 320.594,468.838 319.115,471.131 C318.079,472.611 317.487,472.907 315.859,472.537 C312.974,471.871 312.16,473.425 312.308,478.899 C312.53,483.338 312.308,483.93 309.571,488.073 C307.943,490.515 306.316,493.178 305.872,493.918 C304.836,495.915 302.986,496.877 301.433,496.285 C300.397,495.915 300.249,495.249 300.545,493.178 C301.063,490.071 300.545,488.443 299.139,488.443 C298.399,488.443 298.104,489.479 298.104,491.994 C298.104,497.765 297.586,498.653 294.626,498.579 C292.925,498.505 291.667,497.987 291.001,497.025 z M285.452,454.781 C286.488,453.819 286.414,453.449 284.787,451.896 C283.751,450.86 282.049,449.824 280.94,449.602 C279.164,449.158 278.794,449.38 277.684,451.748 C276.575,453.893 276.575,454.559 277.388,455.521 C278.572,457 283.751,456.483 285.452,454.781 z M296.624,431.107 C296.624,430.441 295.218,428.369 293.517,426.446 C291.741,424.522 290.261,422.821 290.187,422.673 C290.113,422.525 289.522,422.599 288.856,422.895 C287.376,423.412 288.042,424.744 292.037,429.109 C295.07,432.364 296.624,433.03 296.624,431.107 z M278.424,416.014 C279.016,415.052 276.945,412.685 276.057,413.277 C274.577,414.165 275.021,416.68 276.575,416.68 C277.388,416.68 278.202,416.384 278.424,416.014 z M148.955,384.941 C149.695,384.128 151.174,383.092 152.358,382.648 C154.873,381.612 156.501,379.319 157.463,375.472 C157.907,373.918 158.868,370.737 159.756,368.295 C161.902,362.451 161.606,360.897 158.276,360.601 C156.279,360.453 154.577,361.045 151.026,363.339 C145.773,366.816 144.442,368.887 145.551,372.069 C146.143,373.77 145.995,374.88 144.812,377.395 C143.48,380.281 143.48,383.684 144.738,385.829 C145.33,386.865 147.697,386.347 148.955,384.941 z M230.557,270.416 C231.149,270.195 231.519,269.085 231.371,267.531 C231.297,265.83 231.667,264.72 232.555,264.054 C233.369,263.462 233.813,262.426 233.591,261.243 C233.443,259.763 232.851,259.393 230.409,259.023 C228.782,258.801 226.71,258.283 225.823,257.765 C224.417,256.952 224.047,257.1 222.789,258.949 C221.901,260.133 219.756,261.465 217.463,262.278 C213.098,263.832 210.656,265.978 211.248,267.605 C211.914,269.307 215.021,269.751 217.093,268.419 C219.756,266.643 221.162,266.939 222.049,269.529 C222.789,271.748 222.937,271.822 226.192,271.304 C227.968,271.008 229.966,270.638 230.557,270.416 z M248.165,203.61 C247.943,203.24 247.204,202.87 246.612,202.87 C246.02,202.87 245.724,203.24 245.946,203.61 C246.168,204.054 246.908,204.35 247.499,204.35 C248.091,204.35 248.387,204.054 248.165,203.61 z M273.319,201.391 C274.059,200.207 272.136,193.105 270.656,191.477 C269.028,189.702 267.475,190.293 265.847,193.401 C264.663,195.694 264.663,195.842 266.217,196.804 C267.031,197.396 267.771,198.21 267.771,198.653 C267.771,201.021 272.21,203.166 273.319,201.391 z M260.003,191.773 C259.263,190.959 257.931,190.293 257.117,190.293 C255.638,190.367 255.638,190.367 257.339,191.773 C258.301,192.587 259.559,193.253 260.224,193.253 C261.186,193.253 261.112,193.031 260.003,191.773 z" fill="#000000"/>
  </g>
</svg>
