<?xml version="1.0" encoding="UTF-8"?>
<!DOCTYPE svg PUBLIC "-//W3C//DTD SVG 1.1//EN" "http://www.w3.org/Graphics/SVG/1.1/DTD/svg11.dtd">
<svg version="1.1" xmlns="http://www.w3.org/2000/svg" xmlns:xlink="http://www.w3.org/1999/xlink" x="0" y="0" width="500" height="500" viewBox="0, 0, 500, 500">
  <g id="layer101">
    <path d="M324.308,408.304 C322.857,407.415 321.219,406.385 320.564,405.964 C319.956,405.543 318.739,405.168 317.803,405.168 C316.913,405.121 315.322,404.747 314.339,404.279 C312.654,403.483 312.373,403.483 311.39,404.092 C310.454,404.747 310.127,404.7 308.348,403.811 C307.225,403.296 305.072,401.798 303.527,400.488 C300.672,398.054 299.174,397.352 297.911,397.867 C297.349,398.054 297.255,398.522 297.489,399.833 C297.817,401.705 297.302,402.36 295.477,402.36 C294.775,402.36 294.4,402.688 294.307,403.436 C294.073,405.028 292.107,404.653 287.848,402.126 C284.665,400.254 283.963,400.02 282.372,400.301 C280.733,400.535 280.312,400.394 278.814,399.084 C277.878,398.288 276.381,397.399 275.491,397.165 C274.602,396.931 272.87,395.854 271.607,394.824 C267.909,391.735 266.13,391.782 266.598,394.918 C266.879,396.556 266.786,396.743 265.943,396.743 C265.428,396.743 264.118,395.995 263.041,395.105 C261.965,394.216 260.888,393.467 260.701,393.467 C260.514,393.467 259.437,392.718 258.361,391.829 C257.004,390.659 255.927,390.191 254.851,390.191 C253.914,390.191 252.744,389.77 251.949,389.114 C251.247,388.553 249.421,387.242 247.877,386.212 C246.379,385.183 244.366,383.825 243.477,383.17 C242.12,382.234 241.324,382 239.311,382.094 C236.924,382.234 236.644,382.094 231.355,378.583 C228.312,376.571 224.381,374.09 222.555,373.154 C220.777,372.171 218.109,370.392 216.705,369.176 C215.301,367.959 212.96,366.086 211.556,365.057 C204.863,360.095 198.919,352.794 195.362,345.258 C194.707,343.854 193.115,340.484 191.805,337.77 C189.371,332.668 187.686,327.52 187.686,325.226 C187.686,323.073 188.622,320.92 189.558,320.92 C190.026,320.92 191.945,322.746 193.958,325.039 C199.434,331.451 205.004,335.617 211.322,338.051 C214.224,339.221 215.254,339.361 220.215,339.361 C223.445,339.408 226.908,339.127 228.406,338.799 C232.197,337.863 239.031,335.523 241.23,334.4 C243.805,333.089 250.076,328.783 253.072,326.209 C256.442,323.307 256.582,322.324 254.242,317.503 C252.651,314.087 251.855,313.104 247.315,308.891 C244.507,306.27 240.856,303.088 239.171,301.777 C237.486,300.467 234.865,298.36 233.32,297.05 C225.504,290.591 221.058,287.549 214.599,284.272 C210.152,282.072 201.54,279.124 195.128,277.626 C190.026,276.409 182.959,274.209 172.943,270.699 C170.368,269.81 166.905,268.733 165.22,268.359 C159.837,267.142 151.179,264.755 148.838,263.819 C142.286,261.244 133.252,256.002 128.853,252.258 C126.466,250.245 125.623,248.373 127.074,248.373 C127.449,248.373 130.351,249.684 133.486,251.228 C143.737,256.377 150.945,258.717 163.722,261.01 C169.011,261.993 173.457,262.929 177.155,263.865 C180.01,264.614 182.07,265.082 184.878,265.691 C187.452,266.206 188.997,266.58 192.647,267.516 C195.081,268.171 196.579,268.171 196.579,267.516 C196.579,266.814 183.942,260.964 173.177,256.704 C166.811,254.224 158.106,249.309 153.285,245.518 C142.754,237.28 130.959,223.754 121.036,208.589 C118.743,205.126 116.356,201.522 115.748,200.539 C114.437,198.62 113.875,198.386 107.65,196.888 C101.8,195.484 95.2,193.331 87.852,190.382 L81.908,187.995 L77.789,189.212 C75.542,189.868 72.687,190.429 71.377,190.476 C69.317,190.57 69.037,190.429 68.896,189.587 C68.803,189.025 69.411,187.527 70.254,186.17 C71.096,184.859 71.658,183.643 71.517,183.502 C71.377,183.362 68.194,183.923 64.45,184.766 C58.786,186.03 57.429,186.217 56.446,185.749 C54.387,184.813 54.948,183.643 59.208,180.085 C61.407,178.213 63.186,176.435 63.186,176.06 C63.186,174.703 61.735,174.048 58.318,173.72 C54.761,173.392 52.187,172.269 51.625,170.865 C51.438,170.35 51.906,169.601 53.123,168.618 C55.229,166.84 55.136,166.184 52.421,163.283 C50.408,161.13 49.894,160.989 45.073,161.785 C42.639,162.206 41.328,162.112 37.49,161.317 C30.329,159.866 29.3,159.445 29.112,157.9 C28.925,156.496 29.253,156.309 35.571,154.015 C37.21,153.407 38.988,152.471 39.55,151.956 L40.486,150.973 L39.222,150.037 C38.473,149.475 37.912,148.773 37.912,148.446 C37.912,148.118 37.069,147.135 36.039,146.339 C34.963,145.497 33.746,144.093 33.278,143.157 C32.436,141.472 32.389,141.472 26.772,140.442 C12.403,137.821 -0,132.719 -0,129.396 C-0,127.571 2.949,127.149 7.348,128.366 C12.871,129.864 17.177,130.66 25.508,131.549 C28.598,131.924 31.265,132.111 31.499,131.97 C32.201,131.549 31.733,130.192 28.27,123.312 C22.139,110.955 16.943,102.811 11.935,97.663 C8.518,94.105 7.348,92.187 8.004,90.97 C9.174,88.957 13.62,90.923 18.815,95.744 C23.496,100.143 29.159,107.679 35.384,117.789 C39.269,124.107 40.205,125.277 41.375,125.277 C42.686,125.277 46.57,127.711 47.273,128.975 C47.553,129.537 48.162,129.958 48.63,129.958 C50.408,129.958 50.783,128.694 51.017,121.814 L51.251,115.214 L52.468,115.074 C54.106,114.887 55.978,117.133 58.506,122.282 C59.582,124.341 60.893,126.728 61.548,127.571 C62.344,128.694 62.718,130.005 62.952,132.532 C63.326,136.417 63.654,136.885 67.118,138.383 C69.879,139.646 70.675,139.365 70.675,137.259 C70.675,134.966 71.096,134.17 72.266,134.17 C73.577,134.17 75.262,135.949 77.602,139.787 C78.772,141.752 79.802,142.876 80.41,142.969 C81.533,143.157 81.393,143.484 82.61,136.744 C83.406,132.438 84.389,130.192 85.231,130.707 C87.01,131.783 90.333,141.565 90.333,145.684 C90.333,148.446 91.456,148.071 93.094,144.795 C93.89,143.203 95.154,142.642 96.136,143.531 C96.839,144.093 98.477,149.896 98.992,153.454 C99.319,155.794 99.6,156.215 106.293,163.938 C111.02,169.414 115.139,174.796 119.351,180.928 C121.036,183.408 122.955,185.655 123.564,185.936 C124.219,186.264 126.513,186.778 128.712,187.059 C130.912,187.34 133.954,187.761 135.499,187.995 C137.044,188.229 140.086,188.651 142.286,188.931 C146.124,189.446 150.851,190.336 154.689,191.272 C155.719,191.506 159.229,191.552 162.505,191.412 C168.169,191.131 170.088,191.318 178.559,192.723 C182.304,193.378 183.567,193.705 190.775,195.952 C209.403,201.803 227.236,214.861 237.018,229.885 C239.031,232.974 241.23,236.344 241.932,237.374 C244.507,241.352 249.468,247.765 251.387,249.59 C254.851,252.866 260.841,257.687 262.386,258.436 C263.416,258.904 266.224,259.232 271.56,259.466 C278.066,259.7 279.61,259.606 281.576,258.951 C287.988,256.845 290.562,252.445 292.06,241.259 C292.575,237.374 292.575,237.093 291.358,233.536 C290.656,231.524 289.579,228.949 289.018,227.779 C287.614,225.018 281.248,219.074 275.444,215.095 C272.215,212.895 256.348,205.126 253.212,204.236 C249.702,203.207 248.626,202.364 249.281,201.241 C250.123,199.837 253.493,199.182 259.671,199.228 C265.85,199.228 268.377,199.837 277.036,203.394 C278.955,204.19 280.733,204.845 281.014,204.845 C282.98,204.845 307.318,216.546 314.526,220.899 C318.692,223.473 327.257,227.779 328.1,227.779 C328.521,227.779 329.316,228.107 329.925,228.528 C330.533,228.949 331.891,229.511 332.92,229.745 C333.997,229.979 335.214,230.447 335.588,230.821 C336.01,231.196 337.648,231.804 339.286,232.179 C342.89,233.021 343.498,233.536 342.703,234.847 C341.86,236.157 342.281,236.532 344.762,236.906 C347.664,237.327 355.199,241.212 355.714,242.569 C355.995,243.318 356.978,243.88 359.178,244.629 C360.863,245.144 363.016,246.267 363.999,247.063 C364.982,247.811 366.386,248.794 367.088,249.169 C368.305,249.777 368.398,250.011 368.164,251.415 C367.837,252.96 367.883,253.007 370.551,253.943 C372.049,254.505 374.155,255.253 375.279,255.675 C376.355,256.096 378.134,257.126 379.163,258.015 C380.24,258.904 381.363,259.606 381.691,259.606 C382.018,259.606 382.767,260.121 383.376,260.776 C383.984,261.432 386.137,262.836 388.15,263.865 C392.269,266.065 394.468,268.218 393.579,269.248 C393.298,269.622 392.783,269.903 392.456,269.903 C391.473,269.903 391.192,272.337 391.941,273.882 C392.83,275.66 394.89,277.579 398.774,280.294 C402.893,283.196 403.782,284.179 402.987,285.115 C402.238,286.004 402.659,286.566 406.076,288.765 C408.229,290.216 408.369,290.404 408.369,292.369 C408.416,295.037 409.212,296.254 412.114,298.08 C415.156,299.999 418.432,303.134 418.432,304.117 C418.432,305.147 419.462,305.896 425.968,309.687 C431.678,313.01 435.048,315.678 435.422,317.176 C435.797,318.627 434.814,318.767 432.052,317.691 C428.308,316.193 415.671,313.572 414.454,314.04 C413.752,314.321 413.752,314.508 414.688,315.772 C416.092,317.737 415.53,318.252 412.535,317.878 C410.382,317.644 409.961,317.691 409.68,318.393 C409.305,319.422 412.067,321.856 413.611,321.856 C414.173,321.856 415.624,321.341 416.841,320.686 C419.602,319.235 419.93,319.235 422.832,320.827 C424.657,321.856 426.389,322.277 430.087,322.746 C439.073,323.822 447.17,327.286 452.506,332.34 C456.438,336.038 457.467,338.893 455.127,339.455 C453.863,339.782 453.208,339.642 446.609,337.583 C440.898,335.804 434.486,336.085 434.907,338.144 C435.001,338.472 439.354,340.625 444.643,342.871 C465.705,351.858 472.445,356.07 483.069,366.835 C487.048,370.861 491.307,375.635 492.477,377.413 C497.017,384.2 502.353,396.603 498.889,392.391 C498.234,391.595 497.953,391.501 497.485,391.923 C496.923,392.484 497.064,392.765 499.17,395.62 C499.966,396.697 499.03,396.884 497.438,395.948 C496.596,395.433 493.273,392.905 490.043,390.331 C475.861,378.958 464.816,372.826 449.791,368.099 C446.328,366.976 444.034,366.601 439.494,366.367 C433.925,366.04 433.55,366.086 431.257,367.163 L428.87,368.333 L425.266,367.116 C422.364,366.133 421.428,365.993 420.304,366.414 C419.556,366.648 418.666,366.789 418.339,366.648 C417.262,366.274 416.045,367.257 416.326,368.193 C416.654,369.269 415.858,369.831 413.752,369.831 C412.394,369.831 412.067,370.018 411.973,370.954 C411.692,372.78 412.207,373.95 414.454,376.524 C415.624,377.928 416.56,379.473 416.56,379.987 C416.56,380.502 417.683,382.094 419.041,383.545 C423.066,387.897 424.985,390.144 424.985,390.612 C424.985,391.501 423.487,392.531 422.177,392.531 C421.428,392.531 420.679,392.765 420.492,393.046 C419.79,394.263 424.61,397.118 431.865,399.786 C439.401,402.547 439.962,402.828 439.962,404.045 C439.962,405.262 438.745,406.104 436.967,406.104 C436.312,406.104 434.72,406.526 433.363,407.04 C432.052,407.555 430.555,407.883 430.04,407.696 C429.525,407.555 428.636,407.789 427.934,408.211 C426.997,408.866 426.155,408.959 423.862,408.725 C416.373,407.883 408.744,404.513 402.051,399.084 C401.208,398.428 399.991,398.054 398.072,397.96 C396.528,397.867 395.077,397.773 394.843,397.726 C394.609,397.68 391.66,394.965 388.243,391.595 C381.831,385.276 381.176,384.902 378.508,385.932 C376.495,386.727 376.636,387.663 379.116,390.425 C380.567,392.016 381.316,393.233 381.176,393.701 C380.989,394.076 380.708,394.403 380.474,394.403 C380.24,394.403 380.053,394.684 380.053,395.012 C380.053,395.901 390.443,405.449 392.69,406.572 C395.919,408.211 394.843,409.661 390.911,408.913 C387.635,408.304 384.593,407.181 379.116,404.607 C374.483,402.454 374.108,402.313 372.47,402.875 C370.411,403.53 368.305,403.202 364.841,401.611 C363.297,400.862 361.799,400.488 361.19,400.675 C360.629,400.815 359.365,400.675 358.429,400.394 C357.446,400.113 356.51,400.02 356.323,400.16 C356.182,400.347 356.697,401.33 357.493,402.313 C358.335,403.343 358.991,404.419 358.991,404.653 C358.991,406.151 352.391,403.858 348.787,401.096 C346.775,399.552 346.26,400.113 348.038,401.939 C349.162,403.109 349.255,403.39 348.694,403.764 C347.43,404.56 345.792,404.279 339.941,402.266 L334.184,400.301 L333.435,401.33 C333.061,401.892 332.452,402.36 332.078,402.36 C331.704,402.36 331.189,402.781 330.908,403.296 C330.627,403.811 329.925,404.232 329.27,404.232 C327.632,404.232 327.491,404.934 328.802,406.479 C330.206,408.164 330.253,408.725 329.082,409.381 C327.678,410.13 327.07,409.989 324.308,408.304 z M240.388,250.011 C240.528,249.637 238.609,245.846 236.129,241.493 C229.295,229.698 227.002,226.469 222.462,222.116 C209.403,209.619 196.626,202.786 178.185,198.339 C175.47,197.684 173.177,197.684 173.177,198.292 C173.177,198.573 174.44,199.65 176.032,200.773 C185.346,207.279 190.448,211.538 199.621,220.29 C202.944,223.52 207.578,227.732 209.871,229.651 C212.165,231.57 216.33,235.174 219.139,237.608 C221.947,240.042 225.364,242.85 226.674,243.833 C228.874,245.424 238.843,250.667 239.779,250.713 C239.967,250.713 240.248,250.386 240.388,250.011 z M181.508,235.923 C182.865,234.987 182.818,233.957 181.227,231.57 C179.917,229.605 173.177,223.286 167.654,218.746 C166.016,217.389 163.722,215.516 162.552,214.533 C159.369,211.866 149.915,207.466 143.222,205.547 C136.763,203.722 135.827,203.862 137.699,206.343 C144.907,215.704 158.48,227.358 167.326,231.804 C171.117,233.677 178.746,236.625 179.963,236.672 C180.244,236.672 180.946,236.344 181.508,235.923 z M102.502,180.834 C102.502,179.009 92.72,168.337 91.035,168.337 C89.069,168.337 88.695,169.976 89.677,174.703 C89.911,176.107 92.673,178.073 96.839,179.898 C100.583,181.536 102.502,181.817 102.502,180.834 z M82.001,164.593 C82.704,163.236 83.172,161.925 83.031,161.738 C82.891,161.504 82.048,161.317 81.206,161.317 C79.287,161.317 78.632,162.253 78.959,164.593 C79.427,168.244 80.129,168.244 82.001,164.593 z M64.59,152.658 C64.59,151.956 64.216,151.441 63.654,151.254 C61.876,150.692 61.22,151.956 62.531,153.407 C63.467,154.483 64.59,154.062 64.59,152.658 z" fill="#000000"/>
  </g>
</svg>
