<?xml version="1.0" encoding="UTF-8"?>
<!DOCTYPE svg PUBLIC "-//W3C//DTD SVG 1.1//EN" "http://www.w3.org/Graphics/SVG/1.1/DTD/svg11.dtd">
<svg version="1.1" xmlns="http://www.w3.org/2000/svg" xmlns:xlink="http://www.w3.org/1999/xlink" x="0" y="0" width="500" height="500" viewBox="0, 0, 500, 500">
  <g id="layer101">
    <path d="M48.616,487.673 C20.167,486.601 18.608,486.309 22.213,481.145 C24.162,478.32 39.75,470.526 44.913,469.649 C47.057,469.259 50.272,467.993 52.025,466.726 C55.435,464.096 61.086,463.608 66.347,465.46 C70.731,467.018 73.751,465.947 75.31,462.244 C77.064,457.958 74.433,444.805 71.024,441.103 C69.757,439.739 66.932,435.939 64.788,432.724 C60.014,425.71 59.43,425.223 49.103,418.987 C44.621,416.357 40.334,413.142 39.652,411.778 C37.217,407.101 27.572,399.015 20.362,395.702 C11.204,391.416 8.476,388.59 8.476,382.94 C8.476,379.043 8.963,378.166 14.906,372.125 C18.414,368.423 23.382,362.967 26.013,359.85 C28.546,356.83 33.32,352.348 36.632,349.912 C48.81,341.047 51.831,338.513 51.831,337.247 C51.831,335.883 45.108,330.232 35.073,323.12 C17.244,310.455 7.891,296.913 3.994,278.012 C-0.779,254.825 4.676,223.161 18.219,195.59 C25.233,181.365 32.345,171.233 42.673,160.906 C48.031,155.547 50.662,152.332 50.272,151.358 C49.98,150.481 47.934,148.63 45.693,147.071 C31.371,137.329 15.004,119.987 9.158,108.491 C2.923,96.118 0.974,89.59 0.487,77.996 L-0,67.182 L4.579,56.855 C20.362,21.489 58.65,4.342 99.862,14.182 C115.352,17.885 123.828,21.489 133.279,28.212 C143.996,35.714 157.051,49.938 157.051,53.932 C157.051,54.712 158.025,58.219 159.194,61.824 C161.045,67.085 161.435,70.495 161.435,79.555 C161.435,89.395 161.045,91.539 158.804,97.092 C157.44,100.599 155.979,104.691 155.589,106.25 C155.005,109.075 145.749,118.818 135.812,127.099 C133.084,129.34 123.731,135.38 114.963,140.544 C106.194,145.707 96.062,151.748 92.457,153.891 C85.053,158.275 85.248,157.593 88.658,167.239 C91.288,174.546 92.847,183.606 92.165,187.698 C91.775,189.939 92.165,192.569 93.139,195.005 C94.698,198.61 94.601,198.805 92.75,200.851 C91.678,202.02 90.801,204.26 90.801,206.014 C90.801,211.373 86.514,216.926 82.325,216.926 C80.669,216.926 79.11,218.485 76.187,223.259 C71.413,230.663 64.983,236.411 56.994,240.113 C52.025,242.451 50.174,242.744 41.114,242.744 L30.981,242.744 L30.105,246.641 C28.741,252.876 29.91,268.269 32.248,274.505 C35.56,283.273 41.309,291.457 46.277,294.282 C48.616,295.646 51.246,296.815 52.123,296.815 C53.097,296.815 56.312,293.308 59.625,288.924 C62.742,284.539 74.239,271.971 85.053,260.865 C100.349,245.277 105.22,239.626 106.974,235.632 C109.507,229.981 112.819,227.838 119.152,227.838 C124.023,227.838 126.361,226.376 129.966,220.92 C144.872,198.707 145.749,198.025 160.461,195.395 C172.931,193.251 182.479,188.77 186.96,182.827 C189.786,179.125 189.981,178.345 189.494,173.474 C188.032,159.542 199.334,149.604 221.352,145.415 C225.639,144.636 227.685,143.759 227.685,142.785 C227.685,142.005 224.177,139.18 219.89,136.355 C199.528,123.105 192.611,116.967 187.935,107.614 C184.915,101.671 184.72,98.456 186.863,91.344 C189.201,83.452 193.488,83.355 192.416,91.344 C191.734,96.215 194.949,102.743 200.405,107.516 C207.225,113.654 234.602,126.32 240.74,126.32 C242.201,126.32 244.929,126.807 246.683,127.489 C249.703,128.463 250.092,128.366 252.723,125.443 C254.672,123.202 255.451,121.351 255.451,118.72 C255.451,114.823 252.723,108.198 249.605,104.204 C247.852,101.866 247.754,101.476 249.021,100.21 C251.262,97.969 258.471,101.086 262.368,105.958 C264.024,108.004 265.875,109.757 266.557,109.757 C268.506,109.757 271.721,113.752 274.059,119.013 C278.054,128.268 280.879,129.34 286.238,123.981 C293.544,116.675 289.16,109.855 265.486,91.344 C261.296,88.129 260.03,85.401 262.758,85.401 C266.07,85.401 288.576,98.553 297.052,105.471 C302.8,110.147 306.6,118.136 305.82,123.884 C305.138,128.658 302.41,134.698 298.611,139.764 C297.247,141.518 296.467,143.564 296.76,144.343 C297.052,145.123 299.585,146.877 302.41,148.338 C310.107,152.235 318.875,158.665 322.577,163.342 C327.156,168.992 333.587,181.658 333.197,184.191 C332.71,187.308 330.274,186.626 328.033,182.924 C325.111,177.858 313.127,165.582 309.912,164.316 C304.456,161.978 302.508,165.582 305.625,171.915 C306.794,174.156 306.892,175.812 306.307,178.735 C305.528,181.95 305.723,183.216 307.184,185.457 C308.353,187.113 309.035,189.939 309.035,192.667 C309.035,196.077 309.815,198.317 312.835,202.896 C314.881,206.014 317.414,209.424 318.486,210.301 C321.408,213.029 327.156,214.977 331.833,214.977 C336.509,214.977 338.263,216.146 340.699,220.92 C341.575,222.479 344.011,224.622 346.349,225.792 C348.59,226.961 352.292,229.494 354.533,231.54 C356.774,233.488 360.476,235.632 362.814,236.314 C365.153,236.996 368.075,238.554 369.439,239.724 C372.167,242.257 386.489,250.051 388.243,250.051 C390.581,250.051 402.174,256.091 414.548,263.885 C421.66,268.269 433.74,275.089 441.535,279.084 C449.329,283.078 459.753,288.631 464.722,291.554 C469.593,294.477 477.972,299.251 483.233,302.271 C497.554,310.552 502.523,316.3 498.821,320.003 C496.775,322.048 489.76,321.269 481.284,318.249 C476.803,316.593 462.871,310.163 450.303,303.927 C437.735,297.692 421.173,289.606 413.476,285.903 C405.779,282.299 397.79,278.109 395.744,276.843 C391.458,274.115 372.654,264.372 353.851,255.019 C347.129,251.707 339.237,247.712 336.217,246.154 C329.495,242.549 318.096,239.042 316.147,239.724 C314.491,240.405 314.491,240.211 316.732,259.793 C318.388,274.017 320.337,281.422 325.305,291.652 C330.761,302.856 337.094,309.968 342.647,311.039 C348.2,312.014 351.123,310.65 353.559,305.583 C355.702,301.394 359.697,286.001 361.353,275.869 C361.84,272.556 362.62,270.997 363.594,270.997 C365.445,270.997 365.347,272.361 362.717,289.995 C359.697,310.552 355.41,317.957 345.375,319.808 C342.55,320.295 340.504,319.71 333.879,316.495 C326.377,312.793 325.403,311.916 320.337,304.707 C310.691,291.067 308.646,285.319 301.728,252.486 C298.124,235.729 296.565,231.832 291.986,228.714 C289.745,227.253 287.894,225.012 287.504,223.356 C286.725,220.433 281.269,215.075 279.028,214.977 C277.079,214.977 271.721,227.643 272.403,230.76 C272.793,232.904 272.306,234.17 270.065,236.411 C268.506,238.067 266.947,240.6 266.655,242.062 C266.363,243.523 265.681,246.056 265.096,247.615 C264.512,249.271 263.537,252.876 262.758,255.701 C262.076,258.527 260.42,262.424 259.056,264.47 C257.692,266.418 256.23,269.828 255.841,271.971 C255.451,274.115 254.574,277.038 253.892,278.499 C253.113,279.96 252.528,282.104 252.528,283.273 C252.528,284.539 250.774,286.975 248.144,289.313 C240.642,296.036 241.324,302.758 249.898,306.46 C254.087,308.214 261.589,316.008 268.311,325.556 C273.085,332.181 282.243,349.717 284.679,356.732 C285.75,359.85 287.991,364.526 289.647,367.157 C293.447,373.002 294.421,379.53 292.083,383.037 C291.109,384.499 288.576,386.447 286.335,387.519 C281.756,389.565 271.526,397.554 265.583,403.497 C263.44,405.64 259.543,409.245 256.912,411.388 C248.436,418.403 242.688,430.678 244.15,438.375 C244.539,440.518 246.293,443.636 248.047,445.682 C249.8,447.631 251.651,450.358 252.041,451.722 C253.308,455.814 255.451,457.568 259.445,457.568 C262.466,457.568 263.537,458.153 265.194,460.491 C266.363,462.147 269.773,464.778 272.793,466.239 C275.91,467.798 280.295,470.818 282.73,472.961 C285.166,475.007 287.991,477.053 289.063,477.443 C291.596,478.222 294.616,483.191 293.837,485.237 C292.862,487.673 287.699,487.088 283.51,484.165 C279.125,481.145 273.767,480.073 262.271,480.073 C257.692,479.976 248.339,479.684 241.519,479.294 L229.048,478.709 L226.223,474.715 C223.593,471.208 223.3,470.136 223.3,463.024 C223.3,454.645 221.254,440.421 219.501,435.745 C218.526,433.309 218.039,433.017 215.409,433.601 C213.655,433.893 209.758,434.186 206.543,434.186 C201.282,434.186 200.503,434.478 198.164,437.109 C196.703,438.765 194.657,440.031 193.391,440.031 C189.299,440.031 189.981,442.175 196.411,448.41 C201.769,453.574 202.841,455.132 202.841,457.86 C202.841,460.978 201.38,463.901 197.677,467.798 C196.508,469.162 196.021,470.623 196.411,472.474 C196.898,474.812 196.313,475.592 192.319,478.515 C184.525,484.165 183.648,484.458 180.433,482.606 C173.223,478.32 169.716,477.735 148.769,477.053 C137.565,476.761 127.531,476.079 126.556,475.494 C125.095,474.618 125.485,474.13 129.479,471.013 C132.11,469.064 135.909,466.531 138.053,465.265 C143.119,462.342 143.411,461.855 143.314,456.107 C143.314,447.825 141.95,442.077 139.611,439.836 C137.76,438.18 137.468,437.206 137.955,433.699 C138.735,428.535 138.053,427.951 129.284,426.392 C125.582,425.71 121.003,424.541 119.249,423.761 C112.819,421.131 103.272,425.807 99.764,433.211 C99.18,434.575 97.718,436.816 96.647,438.18 C94.698,440.518 94.601,441.103 95.575,454.256 C96.452,465.167 97.036,468.285 98.595,470.428 C102.102,475.202 100.738,481.437 95.283,484.75 C92.847,486.309 89.34,487.088 81.838,487.77 C76.285,488.257 70.926,488.647 69.854,488.549 C68.783,488.452 59.235,488.16 48.616,487.673 z M167.962,455.912 C170.398,453.768 170.203,451.04 167.28,447.241 C161.727,440.031 158.025,440.811 158.025,449.384 C158.025,453.574 158.415,454.84 160.168,456.009 C162.994,458.055 165.722,457.958 167.962,455.912 z M90.216,415.48 C95.77,413.921 96.354,413.142 93.139,411.486 C87.489,408.563 85.735,405.543 84.761,397.456 C83.299,384.206 82.812,381.673 81.643,380.699 C80.279,379.53 58.943,383.914 57.189,385.57 C56.604,386.155 58.163,388.396 61.281,391.611 C64.009,394.339 67.906,399.307 70.049,402.62 C73.946,408.855 82.033,416.649 84.663,416.649 C85.54,416.649 87.976,416.162 90.216,415.48 z M148.087,405.055 C148.769,404.666 151.985,399.307 155.2,393.169 C160.948,382.258 161.143,381.868 161.435,373.1 C161.727,365.793 161.532,363.747 160.266,362.578 C159.486,361.701 158.22,361.214 157.44,361.506 C156.758,361.798 153.543,362.285 150.231,362.675 L144.19,363.357 L138.247,370.761 C134.935,374.853 129.674,380.699 126.654,383.719 C120.906,389.467 120.029,391.026 122.27,391.805 C132.207,395.313 135.227,396.872 139.806,401.061 C145.067,406.03 145.944,406.419 148.087,405.055 z M232.751,402.035 C236.063,398.333 242.98,384.304 242.006,383.329 C241.616,382.94 239.57,383.037 237.427,383.524 C235.284,384.011 231.971,384.499 230.12,384.499 C225.931,384.499 224.275,385.96 224.275,389.565 C224.275,392.877 222.326,396.969 219.501,399.502 C215.409,403.204 216.968,404.763 224.957,404.861 C229.536,404.958 230.412,404.568 232.751,402.035 z M250.092,375.73 C251.554,374.171 251.554,373.587 250.58,372.32 C248.241,369.397 245.806,371.443 245.708,376.51 C245.708,378.263 248.144,377.874 250.092,375.73 z M190.663,363.942 C192.514,362.285 194.073,360.142 194.073,359.168 C194.073,356.537 186.96,352.056 184.135,352.835 C178.972,354.491 174.587,357.317 174.587,359.07 C174.587,361.798 180.92,366.962 184.33,366.962 C186.181,366.962 188.422,365.89 190.663,363.942 z M104.733,307.435 C105.902,306.85 107.656,305.389 108.533,304.317 C109.994,302.368 110.481,302.368 113.599,303.44 C116.619,304.512 117.593,304.512 120.516,303.05 C122.659,302.076 123.926,300.81 123.926,299.543 C123.926,295.451 125.582,294.087 129.966,294.574 C135.714,295.159 137.76,293.405 138.442,287.462 L139.027,282.688 L143.314,282.688 C146.821,282.591 147.99,282.104 150.328,279.473 C152.861,276.648 153.056,275.869 152.472,271.874 L151.887,267.295 L154.712,267.88 C156.271,268.172 158.707,268.756 160.168,269.146 C163.87,270.023 167.378,267.587 168.157,263.69 C168.742,260.573 168.742,260.573 173.223,261.255 C175.756,261.547 178.387,262.132 179.069,262.424 C179.848,262.716 181.894,261.352 183.745,259.404 C186.668,256.189 187.253,255.896 189.591,256.87 C193.098,258.137 192.709,258.332 196.898,254.24 C199.041,252.194 201.672,249.856 202.938,248.979 C204.692,247.712 205.277,246.446 205.277,243.621 C205.374,241.477 205.959,237.288 206.641,234.268 L208.004,228.714 L203.523,221.895 C200.113,216.926 198.944,214.198 198.944,211.665 C198.944,206.988 197.288,206.501 191.539,209.424 C188.909,210.691 185.694,212.152 184.33,212.542 C182.966,212.931 180.628,214.295 179.166,215.562 C177.608,216.828 175.854,217.9 175.269,217.9 C174.685,217.9 171.762,220.238 168.742,223.064 C165.819,225.889 159.681,230.565 155.102,233.488 C136.299,245.277 136.981,244.79 134.156,250.538 C131.038,257.26 127.043,260.086 121.782,259.404 C118.762,259.111 117.301,259.598 113.988,262.132 C111.65,263.788 108.63,265.931 107.169,266.905 C105.805,267.782 104.343,269.828 103.954,271.387 C103.272,274.699 91.191,285.806 84.858,289.021 C82.812,290.093 81.058,291.457 81.058,291.944 C81.058,292.431 79.694,294.379 78.038,296.231 L75.018,299.738 L77.356,302.563 C81.351,307.629 86.027,308.799 90.801,305.876 C93.432,304.414 93.626,304.414 96.159,306.363 C99.18,308.701 101.615,308.993 104.733,307.435 z M49.785,231.637 C56.994,227.935 62.84,221.7 64.496,216.049 C65.081,213.906 64.788,212.249 63.327,209.521 C62.06,207.086 61.378,204.066 61.476,200.656 C61.476,196.661 61.086,195.102 59.527,193.641 C56.897,191.205 53.292,190.329 50.954,191.498 C47.446,193.446 41.309,204.748 37.314,216.634 C33.417,228.422 32.638,232.417 34.099,233.878 C35.268,235.144 45.79,233.586 49.785,231.637 z M74.239,181.95 C78.038,179.222 78.72,175.91 76.577,171.525 C75.603,169.479 74.141,167.628 73.459,167.433 C71.803,166.946 58.261,180.391 59.04,181.755 C60.014,183.314 65.568,184.678 68.88,184.191 C70.536,183.996 72.875,182.924 74.239,181.95 z M208.004,171.136 C209.953,170.064 213.071,169.187 214.922,169.187 C217.552,169.187 218.721,168.505 220.28,166.362 C223.982,161.296 222.618,160.224 214.532,161.49 C206.348,162.757 205.179,163.147 201.964,165.875 C197.97,169.187 197.775,173.084 201.672,173.084 C203.133,173.084 205.959,172.207 208.004,171.136 z M73.654,137.621 C77.454,135.283 83.397,131.97 86.904,130.217 C99.472,124.079 122.757,110.439 127.141,106.737 C129.479,104.691 131.817,101.768 132.207,100.307 C132.499,98.748 134.253,96.02 136.007,94.169 C140.586,89.298 141.852,85.498 141.268,78.094 C140.586,70.202 135.52,59.193 129.577,52.666 C117.496,39.416 94.211,31.816 70.049,33.083 C54.266,33.96 44.524,37.662 32.833,47.112 C23.48,54.712 19.777,61.434 17.634,74.684 C16.757,80.432 16.855,81.309 20.07,90.272 C25.72,106.25 32.735,115.603 49.785,130.509 C60.502,139.764 63.424,141.908 65.373,141.908 C66.152,141.908 69.854,139.959 73.654,137.621 z" fill="#000000"/>
  </g>
</svg>
