<?xml version="1.0" encoding="UTF-8"?>
<!DOCTYPE svg PUBLIC "-//W3C//DTD SVG 1.1//EN" "http://www.w3.org/Graphics/SVG/1.1/DTD/svg11.dtd">
<svg version="1.1" xmlns="http://www.w3.org/2000/svg" xmlns:xlink="http://www.w3.org/1999/xlink" x="0" y="0" width="500" height="500" viewBox="0, 0, 500, 500">
  <g id="Layer_1">
    <path d="M499.976,82.195 C493.365,98.669 477.265,110.291 458.392,110.291 C433.654,110.291 413.608,90.245 413.608,65.508 C413.608,40.77 433.654,20.724 458.392,20.724 C463.883,20.724 469.214,21.737 474.066,23.55 C459.298,9.582 439.359,0.998 417.393,0.998 C371.757,0.998 334.757,37.998 334.757,83.634 C334.757,93.817 336.57,103.521 339.928,112.531 C339.768,112.477 339.715,112.424 339.715,112.424 L308.846,143.346 C277.125,121.594 238.686,108.799 197.314,108.799 C129.286,108.799 69.308,143.239 33.801,195.593 C65.149,173.788 103.215,161.046 144.267,161.046 C185.798,161.046 224.344,174.161 255.853,196.446 L220.292,232.06 C198.22,218.358 172.15,210.415 144.267,210.415 C64.616,210.415 0,275.031 0,354.735 C0,434.439 64.616,499.002 144.267,499.002 C223.918,499.002 288.534,434.386 288.534,354.735 C288.534,329.411 281.976,305.633 270.567,284.947 L270.567,284.947 C270.567,284.947 286.082,269.699 306.714,249.334 C326.44,279.669 337.902,315.869 337.902,354.735 C337.902,401.971 321.002,445.262 292.906,478.849 C353.577,445.208 394.682,380.485 394.682,306.166 C394.682,265.221 382.206,227.155 360.827,195.647 C373.356,183.171 384.819,171.602 393.402,162.752 C400.973,165.045 409.023,166.271 417.34,166.271 C462.977,166.271 499.976,129.271 499.976,83.634 C500.03,83.155 499.976,82.675 499.976,82.195 z" fill="#000000"/>
  </g>
</svg>
