<?xml version="1.0" encoding="UTF-8"?>
<!DOCTYPE svg PUBLIC "-//W3C//DTD SVG 1.1//EN" "http://www.w3.org/Graphics/SVG/1.1/DTD/svg11.dtd">
<svg version="1.1" xmlns="http://www.w3.org/2000/svg" xmlns:xlink="http://www.w3.org/1999/xlink" x="0" y="0" width="500" height="500" viewBox="0, 0, 500, 500">
  <g id="layer101">
    <path d="M324.542,466.526 C312.396,465.579 305.979,463.899 298.786,459.807 C295.771,458.128 294.823,457.998 295.943,459.42 C296.288,459.85 295.814,459.42 294.953,458.429 C294.091,457.482 293.445,456.62 293.531,456.534 C293.617,456.448 293.014,455.673 292.196,454.768 C289.353,451.71 287.372,448.695 286.855,446.671 C286.597,445.551 286.123,444.388 285.865,444.043 C285.477,443.527 285.477,443.484 285.908,443.742 C286.554,444.13 286.554,443.785 285.908,442.579 C285.606,442.062 285.176,439.564 284.874,437.066 C284.314,432.371 283.367,430.132 280.868,427.892 C279.706,426.858 279.706,425.394 280.868,424.36 C281.601,423.714 281.687,423.24 281.471,421.604 C281.256,419.924 281.342,419.493 282.161,418.804 C284.831,416.392 285.003,410.836 282.376,410.836 C281.816,410.836 280.352,411.525 279.103,412.386 C275.872,414.583 274.925,413.98 276.346,410.577 C276.863,409.285 276.992,408.165 276.777,405.84 L276.475,402.782 L278.327,401.403 C279.361,400.628 281.127,399.379 282.333,398.647 C284.443,397.268 284.917,396.364 283.496,396.45 C283.108,396.493 280.998,396.795 278.844,397.182 C275.7,397.699 274.02,398.302 270.531,400.111 C265.966,402.48 264.932,402.566 265.449,400.413 C265.621,399.853 268.55,396.493 271.996,392.875 C276.691,387.965 278.456,385.855 278.93,384.476 C279.275,383.443 280.955,380.858 282.677,378.748 C284.4,376.594 286.123,374.355 286.554,373.709 C287.157,372.718 287.587,372.503 288.923,372.589 C290.086,372.632 291.162,372.201 292.971,371.081 L295.383,369.531 L295.556,367.033 C295.771,364.104 295.125,362.08 293.316,360.227 C292.627,359.538 291.507,357.643 290.818,356.093 C290.129,354.542 289.009,352.862 288.363,352.345 C285.089,349.761 275.657,351.139 267.086,355.447 C259.075,359.452 251.02,366.516 246.584,373.407 C245.421,375.13 243.483,378.188 242.191,380.083 C238.487,385.812 237.324,389.085 236.247,397.268 C234.998,406.572 235.472,411.396 238.185,417.21 C240.554,422.336 246.799,427.633 250.503,427.633 C252.097,427.633 252.442,427.806 252.915,428.839 C253.432,429.916 253.648,430.002 256.06,429.959 C260.367,429.873 262.219,429.313 265.837,427.16 C271.221,423.929 271.953,424.446 269.196,429.658 C267.301,433.362 265.535,435.042 257.136,441.287 C253.605,443.871 252.183,444.603 247.015,446.499 C240.425,448.91 234.309,450.504 227.633,451.538 C221.904,452.399 205.279,453.174 198.56,452.873 C191.884,452.572 187.448,451.193 178.618,446.628 C175.345,444.948 172.373,443.57 171.985,443.57 C171.641,443.57 170.133,444.603 168.712,445.852 C164.232,449.729 161.347,451.71 158.892,452.572 C157.6,453.002 153.379,454.639 149.459,456.146 C140.716,459.635 140.457,459.721 134.6,460.841 C130.809,461.573 129.043,461.703 125.77,461.487 C123.53,461.315 119.74,461.1 117.371,460.927 C115.002,460.798 112.547,460.41 111.901,460.109 C111.255,459.764 109.791,459.463 108.585,459.377 C107.422,459.334 106.604,459.118 106.733,458.903 C106.862,458.688 106.647,458.645 106.216,458.774 C105.785,458.946 105.57,458.903 105.742,458.645 C105.871,458.429 105.398,457.955 104.708,457.568 C103.201,456.836 102.77,456.749 103.158,457.352 C103.287,457.611 102.167,457.008 100.617,456.017 C99.066,455.027 97.774,454.165 97.774,454.036 C97.774,453.907 98.506,454.294 99.411,454.811 C100.272,455.371 101.478,456.06 102.081,456.405 C103.115,456.965 103.115,456.965 102.296,456.319 C100.789,455.07 95.664,451.753 95.319,451.753 C95.147,451.796 95.577,452.27 96.267,452.873 C97.042,453.562 97.214,453.821 96.654,453.519 C95.707,453.045 94.458,451.753 94.974,451.753 C95.147,451.753 95.061,451.452 94.759,451.107 C94.458,450.763 94.027,450.461 93.811,450.461 C93.553,450.461 93.639,450.806 93.941,451.193 C94.328,451.667 94.07,451.624 93.122,450.935 C92.39,450.418 91.744,449.686 91.744,449.341 C91.744,448.997 91.529,448.738 91.27,448.738 C91.055,448.738 90.969,448.997 91.141,449.298 C91.356,449.557 90.753,449.255 89.892,448.609 C89.031,447.963 87.652,447.145 86.92,446.8 C85.886,446.369 85.757,446.197 86.36,446.197 C86.834,446.197 87.997,446.757 88.901,447.446 C89.849,448.178 90.667,448.652 90.797,448.566 C91.141,448.221 89.246,445.896 88.126,445.293 C87.523,444.991 87.006,444.388 87.006,444 C87.006,443.01 82.355,437.54 80.761,436.678 C79.77,436.118 79.426,435.602 79.34,434.482 C79.254,433.663 78.392,431.467 77.401,429.572 C75.808,426.514 75.334,425.997 73.439,425.006 C72.276,424.403 71.242,423.585 71.156,423.197 C71.07,422.81 71.415,421.604 71.931,420.441 C72.965,418.072 72.793,415.746 71.372,412.559 C70.596,410.922 70.467,409.716 70.467,405.021 L70.424,399.422 L68.141,399.508 C65.471,399.637 62.068,398.819 59.398,397.441 C58.364,396.924 56.641,396.407 55.608,396.364 C53.066,396.192 51.903,395.33 50.654,392.617 C49.362,389.946 44.409,385.252 42.342,384.821 C39.068,384.089 37.819,379.868 39.542,375.431 C40.145,373.881 40.49,371.9 40.576,369.272 L40.705,365.396 L39.628,365.525 C39.025,365.611 37.216,365.741 35.623,365.741 C32.737,365.827 32.694,365.827 30.885,364.018 C29.894,363.027 28.43,361.606 27.655,360.917 C26.362,359.711 26.233,359.452 26.319,357.126 C26.362,355.748 26.147,353.293 25.846,351.613 C24.683,345.411 25.2,338.52 27.31,332.49 C29.464,326.374 31.876,322.627 36.915,317.673 C39.456,315.175 41.868,312.806 42.213,312.419 C43.332,311.213 47.553,308.327 48.587,308.026 C49.147,307.896 50.31,308.112 51.257,308.542 C53.669,309.619 56.598,309.188 59.872,307.207 C60.647,306.733 61.638,306.647 63.403,306.776 C65.815,307.035 65.902,306.992 66.548,305.743 C67.108,304.666 67.495,304.451 68.83,304.408 C75.937,304.278 78.134,303.977 79.038,302.986 C80.373,301.522 82.312,301.22 84.637,302.082 C87.222,303.072 88.514,302.685 89.591,300.574 C90.667,298.464 90.71,296.827 89.72,296.569 C88.255,296.224 77.315,296.526 75.808,296.956 C74.817,297.258 73.87,297.301 73.224,297.042 C72.621,296.827 70.898,296.741 69.347,296.913 C67.366,297.086 65.902,296.956 64.394,296.526 C63.231,296.138 62.111,295.836 61.982,295.836 C61.853,295.836 61.508,296.569 61.25,297.516 C60.948,298.421 60.432,299.454 60.001,299.756 C59.441,300.273 52.765,300.962 48.458,301.005 C45.486,301.048 38.81,300.273 37.992,299.799 C36.053,298.679 32.909,297.99 29.808,297.99 C27.009,297.99 26.535,297.861 25.544,296.87 C24.166,295.492 21.194,294.544 18.179,294.544 C16.93,294.544 14.518,294.157 12.838,293.683 C10.728,293.123 8.402,292.822 5.731,292.822 C2.286,292.822 1.597,292.692 0.864,291.96 C0.003,291.099 -0.298,288.773 0.348,287.782 C0.951,286.835 4.009,286.059 8.402,285.758 C10.771,285.586 13.872,285.198 15.293,284.853 C16.715,284.509 18.567,284.164 19.385,284.035 C20.203,283.906 21.969,283.604 23.261,283.346 C28.774,282.312 30.54,282.183 31.919,282.786 C34.029,283.69 39.111,283.518 41.05,282.484 C41.911,282.011 43.246,281.623 43.935,281.623 C45.357,281.623 47.381,279.986 47.381,278.867 C47.381,278.522 47.166,277.704 46.907,277.014 C46.649,276.368 46.477,274.086 46.477,271.975 C46.563,267.151 46.003,264.61 44.065,260.648 C42.256,257.073 41.868,253.842 42.945,251.689 C43.289,251 44.581,249.363 45.787,248.114 C47.424,246.434 48.415,245.788 49.621,245.616 C50.482,245.443 51.559,244.97 51.99,244.496 C52.808,243.591 52.851,243.721 50.008,236.399 C49.319,234.59 49.104,233.039 49.104,229.938 C49.061,225.416 48.286,221.625 47.338,221.41 C46.39,221.238 45.012,222.745 44.495,224.597 C44.194,225.502 43.591,227.569 43.074,229.163 C42.6,230.756 42.213,232.824 42.213,233.771 C42.213,235.15 41.997,235.666 41.136,236.226 C40.188,236.872 39.801,236.872 38.379,236.399 C35.537,235.494 34.589,236.614 30.368,246.09 C29.808,247.296 28.774,249.535 28.042,251.172 C27.31,252.766 26.707,254.273 26.707,254.488 C26.707,255.436 23.606,262.5 22.96,263.016 C21.797,263.878 19.514,263.662 18.567,262.586 C17.447,261.423 16.973,259.054 17.619,257.676 C17.877,257.073 18.093,255.264 18.093,253.627 C18.093,250.784 18.222,250.44 21.754,243.462 C23.778,239.457 25.415,235.968 25.415,235.709 C25.415,235.408 24.941,234.331 24.338,233.341 C23.089,231.144 22.96,228.775 23.95,226.794 C25.458,223.865 27.267,221.754 28.731,221.281 C30.411,220.721 31.229,219.687 32.091,216.758 C32.435,215.595 33.211,213.959 33.814,213.14 C35.666,210.685 36.699,208.359 37.346,205.258 C37.949,202.243 40.963,194.878 41.954,193.845 C42.385,193.371 42.428,192.94 42.083,192.036 C41.653,190.916 41.782,190.528 43.203,188.461 C44.065,187.212 44.797,185.79 44.797,185.316 C44.797,184.843 45.098,184.024 45.486,183.508 C46.132,182.56 46.089,182.431 44.625,181.009 C43.763,180.191 43.074,179.33 43.074,179.157 C43.074,178.942 42.514,178.554 41.782,178.253 C40.317,177.65 40.145,176.745 41.222,175.582 C43.332,173.257 43.074,167.744 40.791,166.107 C40.145,165.633 39.628,164.987 39.628,164.686 C39.628,164.341 39.241,163.824 38.724,163.48 C37.561,162.661 37.69,159.517 38.853,159.517 C39.801,159.517 40.662,158.656 40.317,158.053 C39.801,157.234 37.992,157.536 37.302,158.526 C36.915,159.043 36.613,160.077 36.613,160.809 C36.57,165.245 33.168,162.92 31.832,157.579 C31.014,154.133 30.885,152.841 31.445,152.195 C31.919,151.635 32.134,151.635 33.168,152.238 C34.589,153.099 37.001,152.798 37.992,151.635 C39.198,150.3 39.284,149.094 38.336,146.94 C37.69,145.519 37.518,144.442 37.69,143.365 C37.862,142.289 37.69,141.169 37.087,139.747 C36.57,138.628 36.312,137.249 36.441,136.732 C36.656,135.742 35.45,125.405 35.02,124.673 C34.847,124.457 34.632,122.993 34.46,121.442 C34.287,119.892 33.814,117.523 33.383,116.231 C32.952,114.939 32.565,112.914 32.522,111.708 C32.392,108.823 31.919,106.368 31.1,104.817 C30.713,104.042 30.411,101.974 30.325,99.347 C30.196,95.772 29.98,94.738 28.861,92.24 C27.611,89.527 27.568,89.225 28.042,87.33 C28.473,85.607 28.473,85.047 27.784,83.454 C27.353,82.42 26.879,80.008 26.664,78.113 C26.061,72.212 25.544,69.025 24.941,67.948 C24.64,67.388 24.209,65.278 24.037,63.254 C23.735,59.42 23.089,54.467 22.314,50.117 C21.582,45.767 21.452,37.454 22.098,35.257 C22.831,32.716 24.123,32.415 25.415,34.482 C27.698,38.229 28.99,42.493 30.799,52.357 C31.143,54.295 31.703,56.707 32.091,57.74 C32.435,58.774 32.737,61.057 32.737,62.823 C32.737,65.321 32.952,66.441 33.684,67.776 C34.46,69.154 34.632,70.231 34.632,73.375 C34.675,76.649 34.847,77.553 35.709,79.19 C36.57,80.783 36.829,82.032 37.087,86.081 C37.432,91.896 37.819,94.265 39.068,98.356 C40.102,101.716 40.834,105.765 41.351,110.632 C41.825,115.154 42.471,118.083 43.246,119.633 C43.634,120.322 43.935,121.873 43.935,123.036 C43.935,125.792 45.486,130.315 46.649,130.961 C47.166,131.262 48.845,131.607 50.396,131.779 C54.315,132.167 58.579,133.545 63.016,135.828 C65.126,136.948 67.108,137.723 67.452,137.594 C68.141,137.335 68.227,135.613 67.667,133.718 C67.452,132.985 67.021,131.306 66.763,130.013 C66.461,128.721 65.772,126.912 65.169,126.051 C64.394,124.888 64.136,124.07 64.308,123.251 C64.609,121.744 62.628,117.695 58.536,111.536 C56.9,109.038 55.565,106.669 55.565,106.238 C55.565,103.956 60.216,106.927 64.394,111.881 C65.6,113.302 67.797,116.489 69.261,118.987 C72.19,123.854 72.018,123.725 76.368,124.199 L78.866,124.5 L78.564,122.39 C78.392,121.27 78.091,119.849 77.875,119.289 C76.842,116.489 75.808,111.708 75.808,109.684 C75.808,106.669 76.885,101.63 77.703,100.811 C78.909,99.562 79.555,100.854 79.813,105.162 C80.201,111.407 82.699,117.997 86.834,123.811 C89.074,126.912 93.295,131.004 94.027,130.746 C94.587,130.573 94.673,129.023 94.156,127.558 C93.941,126.826 94.156,126.266 95.19,125.189 C96.482,123.854 96.525,123.682 96.353,120.753 C96.18,117.308 95.104,113.216 92.304,105.248 C90.064,98.873 89.849,97.581 91.012,97.366 C93.295,96.892 97.473,103.525 100.746,112.785 C101.737,115.499 102.899,118.298 103.416,118.944 L104.278,120.15 L103.33,123.897 C102.512,127.171 102.469,127.989 102.899,130.272 C103.158,131.736 103.373,133.674 103.373,134.622 C103.373,137.551 104.149,138.972 106.56,140.523 C112.074,144.055 117.63,147.242 118.233,147.242 C119.18,147.242 119.051,144.313 117.931,141.341 C116.295,136.905 111.729,129.109 108.886,125.836 C107.163,123.897 106.604,122.821 105.527,119.117 C104.795,116.705 103.89,113.905 103.502,112.871 C101.737,107.918 101.263,103.912 102.124,101.199 C103.158,97.969 103.33,97.71 104.45,97.71 C105.57,97.71 105.699,97.969 106.13,101.156 C106.647,105.118 108.542,111.235 110.868,116.446 C112.547,120.193 115.089,123.381 116.941,123.984 C118.448,124.5 119.611,126.051 120.386,128.721 C120.946,130.616 123.186,134.794 124.693,136.776 C127.062,139.92 128.354,144.442 128.354,149.869 C128.354,153.53 128.527,154.865 129.216,156.33 C130.206,158.526 130.293,160.551 129.56,162.618 C129.173,163.738 129.173,164.47 129.56,165.978 C130.206,168.433 129.474,171.62 128.053,172.568 C127.493,172.912 127.062,173.429 127.062,173.687 C127.062,173.946 127.967,175.066 129.13,176.142 C130.766,177.736 131.757,178.296 134.6,179.071 C136.495,179.631 138.476,180.234 139.036,180.449 C139.596,180.665 140.543,180.837 141.189,180.837 C141.836,180.837 144.592,181.957 147.306,183.292 C150.019,184.627 153.12,185.876 154.197,186.049 C155.274,186.221 157.126,186.609 158.289,186.867 C159.495,187.125 162.165,187.513 164.232,187.685 C166.3,187.901 168.798,188.375 169.702,188.805 L171.382,189.581 L172.933,188.202 C175.474,185.963 176.378,186.522 176.852,190.528 C177.068,192.337 177.455,193.371 178.144,194.06 C179.092,194.964 179.393,195.051 181.891,194.792 C184.217,194.577 184.906,194.663 186.543,195.481 C189.472,196.989 190.764,198.022 191.927,199.831 L192.961,201.511 L196.105,201.425 C199.809,201.339 202.092,202.243 205.193,204.914 C206.485,206.034 207.648,206.68 208.38,206.68 C210.06,206.68 213.333,207.627 217.296,209.221 C220.612,210.556 220.828,210.599 223.024,210.082 C224.876,209.652 225.695,209.652 227.116,210.082 C228.107,210.384 230.26,210.771 231.897,210.987 C233.534,211.202 235.17,211.504 235.558,211.676 C236.893,212.279 245.464,212.451 252.355,212.02 C257.352,211.719 259.376,212.107 261.917,213.829 C264.545,215.595 265.966,215.811 276.518,215.94 C286.683,216.069 288.966,215.811 291.636,214.389 C292.196,214.088 293.316,213.7 294.177,213.485 C295.685,213.097 308.348,212.193 310.76,212.322 C314.981,212.494 316.703,212.322 319.589,211.461 C321.355,210.901 323.724,210.341 324.887,210.255 C326.868,210.039 326.997,210.125 328.892,212.064 C330.314,213.485 331.089,213.959 331.606,213.743 C331.994,213.571 333.372,213.313 334.664,213.14 C335.956,212.968 338.239,212.279 339.703,211.633 C342.029,210.599 342.46,210.255 342.804,208.962 C343.02,208.187 343.752,206.981 344.441,206.292 C345.087,205.646 346.078,204.526 346.638,203.88 C347.801,202.459 348.231,202.76 349.523,205.818 C349.954,206.895 350.6,208.101 350.945,208.489 C351.548,209.221 351.505,209.867 350.773,212.839 C350.557,213.786 350.729,214.303 351.462,215.078 C352.323,215.983 352.409,216.284 351.979,217.232 C351.289,218.74 351.332,220.075 352.108,221.195 C352.668,222.013 352.668,222.314 351.935,223.994 C350.557,227.224 350.514,227.914 351.677,229.507 C352.969,231.273 353.055,232.35 351.892,233.039 C351.203,233.513 351.031,234.073 351.031,236.183 C351.031,237.734 351.246,239.026 351.591,239.37 C351.849,239.629 352.151,240.792 352.194,241.912 C352.194,243.032 352.366,244.539 352.538,245.228 C352.754,246.262 352.625,246.736 351.935,247.339 C350.902,248.286 350.816,248.932 351.548,250.957 C352.065,252.292 352.022,252.507 351.203,253.153 C350.557,253.67 350.17,254.618 349.954,256.254 C349.567,259.528 349.351,260.088 348.533,260.088 C347.585,260.088 342.847,254.79 342.847,253.756 C342.847,251.516 339.273,249.966 333.243,249.535 C331.046,249.363 328.936,249.148 328.548,249.061 C328.16,248.932 327.127,249.449 326.222,250.267 L324.585,251.689 L319.202,251.603 C315.325,251.516 312.698,251.215 309.984,250.526 C306.797,249.751 305.979,249.664 304.816,250.095 C302.318,251 299.561,250.741 296.762,249.32 L294.22,248.028 L277.164,248.028 L260.151,248.028 L257.481,249.277 C253.475,251.086 252.011,251.473 248.651,251.473 C246.885,251.473 244.818,251.775 243.741,252.163 C241.76,252.938 239.52,253.369 234.438,254.015 C230.475,254.575 229.399,255.091 229.786,256.34 C230.002,256.857 230.174,258.537 230.174,260.088 C230.217,261.638 230.475,263.576 230.777,264.395 C231.035,265.213 231.294,266.764 231.251,267.84 C231.251,268.917 231.337,271.631 231.423,273.87 C231.466,276.11 231.38,282.312 231.208,287.653 C230.949,295.492 230.734,297.602 230.131,298.722 C229.442,300.057 229.442,300.144 230.217,301.048 C231.983,302.986 242.751,307.853 248.824,309.447 C252.355,310.351 262.219,310.653 267.689,310.007 C272.728,309.447 275.657,309.361 278.456,309.835 C279.533,310.007 281.127,309.835 282.764,309.404 C284.185,309.016 286.123,308.499 287.071,308.284 C288.018,308.069 289.569,307.681 290.516,307.423 C291.464,307.207 292.842,306.82 293.531,306.647 C294.35,306.475 295.039,305.915 295.426,305.097 C295.771,304.365 296.719,303.029 297.58,302.039 C298.441,301.091 299.475,299.885 299.863,299.368 C300.38,298.765 301.112,298.421 302.016,298.421 C302.921,298.421 305.505,297.215 310.071,294.587 C313.775,292.477 317.866,290.237 319.158,289.591 C320.451,288.945 322.001,288.041 322.561,287.61 C323.121,287.136 323.939,286.792 324.37,286.792 C324.801,286.792 326.179,286.318 327.428,285.758 C330.701,284.25 333.889,283.001 338.067,281.58 C340.005,280.891 342.847,279.685 344.312,278.867 C346.509,277.661 347.111,277.488 348.016,277.833 C348.619,278.091 350.729,278.307 352.754,278.35 C355.855,278.393 356.889,278.22 359.43,277.187 C361.11,276.498 363.22,275.464 364.125,274.818 C365.417,273.913 366.407,273.655 368.216,273.612 C369.551,273.569 371.619,273.31 372.782,273.009 C378.553,271.631 392.982,272.191 397.074,273.913 C398.366,274.473 399.443,274.646 400.433,274.473 C401.596,274.258 402.113,274.387 402.931,275.162 C403.75,275.938 404.267,276.067 405.473,275.852 C406.679,275.636 407.454,275.808 409.392,276.928 L411.847,278.307 L420.935,277.962 C433.383,277.531 439.929,277.574 447.639,278.134 C451.257,278.436 456.598,278.823 459.57,279.082 C462.542,279.297 465.944,279.685 467.107,279.9 C468.313,280.116 470.725,280.503 472.491,280.762 C474.257,281.02 476.583,281.408 477.659,281.623 C478.736,281.838 480.976,282.226 482.613,282.528 C489.332,283.647 496.869,285.844 498.764,287.222 C502.124,289.591 498.85,290.625 486.274,291.142 C475.635,291.572 471.156,291.96 466.03,293.037 C456.684,294.932 456.167,295.406 461.292,297.172 C463.058,297.775 465.729,298.895 467.236,299.627 C469.821,300.962 469.907,301.091 469.907,302.642 C469.907,304.451 470.897,305.657 473.912,307.423 C475.635,308.456 476.367,309.49 476.367,310.825 C476.367,311.299 477.444,312.591 478.908,313.883 C480.631,315.348 481.622,316.597 481.967,317.716 C482.268,318.578 483.043,319.999 483.689,320.818 C486.661,324.651 487.738,328.398 487.48,333.954 C487.264,337.572 487.135,338.218 486.015,339.812 C484.378,342.138 484.034,342.784 482.225,346.746 C480.674,350.192 477.616,354.585 476.324,355.274 C475.247,355.877 473.912,355.791 473.654,355.188 C473.568,354.887 473.568,354.025 473.654,353.293 C473.869,352.001 473.74,351.872 471.5,350.795 C470.165,350.192 468.916,349.675 468.658,349.675 C468.442,349.675 468.012,348.986 467.753,348.168 C467.495,347.349 467.107,346.66 466.892,346.66 C466.676,346.66 465.901,347.435 465.169,348.383 C463.101,351.01 462.154,350.666 461.723,347.091 C461.508,345.325 461.379,345.153 460.259,345.023 C459.57,344.937 457.761,343.904 456.253,342.741 C454.315,341.276 453.109,340.63 452.161,340.63 C451.171,340.63 450.482,340.243 449.706,339.338 C448.673,338.089 448.457,338.046 446.519,338.304 C445.227,338.477 443.892,339.037 442.944,339.812 C442.083,340.501 441.049,341.147 440.661,341.276 C439.929,341.492 437.603,346.229 437.603,347.478 C437.603,347.78 440.102,350.709 443.117,353.939 C452.204,363.63 456.124,369.703 454.789,372.115 C453.798,374.01 451.472,372.546 447.768,367.593 C445.356,364.448 440.145,359.151 439.412,359.151 C439.197,359.151 438.766,359.452 438.422,359.84 C438.12,360.184 437.173,360.874 436.268,361.304 C433.77,362.596 433.296,363.285 433.296,365.654 C433.296,368.109 434.33,369.488 436.225,369.488 C437.474,369.488 440.188,370.952 440.188,371.598 C440.188,371.857 439.8,373.106 439.326,374.398 C437.517,379.179 430.324,384.347 422.098,386.716 C420.332,387.19 418.265,387.793 417.532,388.051 C414.948,388.827 412.536,388.525 410.469,387.147 C408.401,385.769 405.946,385.467 403.75,386.285 C402.759,386.673 402.328,386.587 401.338,385.855 C399.184,384.261 398.107,384.089 394.49,384.606 C391.345,385.036 391.001,385.036 389.364,384.175 C388.029,383.486 386.823,383.27 384.196,383.27 C380.836,383.27 380.793,383.27 379.587,381.763 C378.123,379.911 377.304,379.868 375.495,381.504 C373.815,383.012 374.117,383.572 377.218,384.563 C379.113,385.166 379.242,385.338 379.372,386.802 C379.458,387.664 379.802,388.611 380.147,388.87 C380.922,389.559 380.922,390.506 380.104,392.445 C379.242,394.555 379.242,394.641 380.879,395.373 C382.171,395.933 382.257,396.106 382.128,397.871 C382.042,399.508 382.171,399.939 383.162,400.714 L384.282,401.619 L383.42,404.806 C382.171,409.414 381.611,411.999 381.611,412.946 C381.611,413.42 381.138,414.368 380.535,415.057 C379.932,415.789 379.458,416.564 379.458,416.866 C379.458,417.641 382.171,417.21 384.971,416.004 C386.823,415.186 387.426,414.626 388.503,412.774 C390.484,409.328 390.872,409.328 395.609,412.946 C398.237,414.971 402.501,417.081 405.3,417.813 C411.933,419.536 413.871,419.579 417.016,417.986 L419.428,416.78 L422.399,417.684 C423.993,418.201 426.104,418.804 427.051,419.062 C427.999,419.321 429.377,419.708 430.109,419.924 C430.841,420.139 431.789,420.311 432.263,420.311 C432.693,420.311 433.942,420.613 435.019,420.957 C436.096,421.302 437.474,421.69 438.163,421.819 C439.843,422.163 441.049,423.542 441.049,425.049 C441.049,427.074 439.929,427.806 435.881,428.409 C431.315,429.098 428.214,429.701 424.898,430.519 C420.117,431.768 418.997,431.725 417.36,430.39 C414.905,428.28 410.253,428.323 401.855,430.562 C399.83,431.079 394.533,433.793 392.982,435.085 C391.733,436.118 390.096,437.109 389.622,437.109 C389.493,437.109 389.364,436.032 389.364,434.74 C389.364,431.854 388.503,429.615 387.167,428.883 C386.608,428.581 385.875,428.107 385.574,427.763 C385.229,427.461 384.066,427.203 382.731,427.203 L380.448,427.203 L380.19,429.615 C380.061,430.907 379.544,432.716 379.07,433.577 C378.596,434.439 376.271,438.961 373.859,443.57 L369.551,452.012 L367.398,452.658 C366.235,453.045 365.244,453.261 365.244,453.174 C365.244,453.088 365.546,451.71 365.89,450.116 C366.235,448.523 366.838,445.163 367.183,442.622 C367.527,440.124 368.173,436.894 368.69,435.559 C369.638,432.802 369.853,428.538 369.035,427.72 C368.302,426.987 366.752,427.074 366.02,427.978 C365.072,429.098 363.995,431.897 363.522,434.482 C363.263,435.774 362.703,437.497 362.229,438.272 C361.756,439.09 361.368,439.952 361.368,440.21 C361.368,442.105 359.774,445.637 358.008,447.661 C356.889,448.91 354.907,451.322 353.615,453.002 C348.92,459.161 341.211,464.33 333.415,466.526 C331.778,467 330.185,467 324.542,466.526 z M294.91,457.137 C293.919,456.189 293.488,456.362 294.393,457.352 C294.823,457.826 295.254,458.128 295.383,458.042 C295.469,457.912 295.254,457.525 294.91,457.137 z M116.079,438.573 C117.328,438.057 119.309,433.233 119.309,430.562 C119.309,428.796 119.18,428.624 115.648,425.954 C112.633,423.671 111.858,423.326 109.877,423.326 L108.111,423.326 L108.111,421.13 C108.111,418.933 107.853,418.416 105.311,415.401 C103.244,412.946 100.487,413.894 101.004,416.909 C101.392,419.235 100.961,420.225 99.066,421.173 C97.085,422.163 96.568,423.413 97.516,424.834 C98.377,426.169 99.712,426.858 101.866,427.16 C103.589,427.418 103.589,427.418 103.847,429.701 C104.019,430.95 104.45,432.414 104.838,432.974 C105.57,434.137 108.154,435.171 109.489,434.826 C110.824,434.482 111.514,434.912 112.418,436.678 C113.452,438.703 114.442,439.176 116.079,438.573 z M145.023,438.487 C145.281,438.315 145.755,437.626 145.97,436.98 C146.444,435.817 146.487,435.774 148.942,436.075 C151.914,436.377 153.034,435.946 153.982,434.051 C154.498,433.147 154.585,432.199 154.369,430.864 C154.025,428.538 153.379,427.892 151.613,428.28 C150.407,428.538 150.062,428.366 148.124,426.384 C146.272,424.575 146.013,424.059 146.272,423.24 C146.487,422.68 146.616,421.69 146.659,420.957 C146.659,419.665 146.659,419.665 144.161,419.622 C142.137,419.536 141.491,419.708 140.802,420.441 C139.639,421.69 139.725,423.24 141.017,423.843 C142.051,424.274 143.86,427.677 143.86,429.098 C143.86,429.486 142.955,430.95 141.879,432.328 C139.811,434.999 139.725,435.645 141.103,437.884 C141.749,438.832 143.903,439.22 145.023,438.487 z M159.021,427.547 C159.279,426.772 160.356,424.489 161.39,422.379 C163.113,418.933 163.242,418.459 162.854,416.866 C162.423,414.928 161.347,413.808 160.011,413.98 C159.452,414.023 158.892,414.841 158.159,416.65 C157.556,418.072 156.738,420.182 156.264,421.388 C155.317,423.628 155.403,427.117 156.394,428.323 C157.298,429.399 158.504,429.012 159.021,427.547 z M163.974,393.004 C165.611,392.229 166.3,391.626 166.515,390.808 C166.903,389.171 166.084,387.707 164.275,386.845 C162.811,386.113 162.768,386.027 163.026,384.261 C163.285,382.366 162.639,380.514 161.347,379.437 C160.787,378.963 160.485,379.006 159.538,379.652 C155.92,382.237 154.972,382.495 153.206,381.375 C152.302,380.772 151.182,380.514 150.019,380.643 C148.985,380.729 149.459,382.237 151.182,384.606 C152.086,385.898 153.551,387.922 154.369,389.171 C155.446,390.765 156.221,391.454 157.212,391.669 C157.987,391.842 158.978,392.445 159.495,393.004 C160.614,394.297 161.174,394.297 163.974,393.004 z M67.409,383.184 C69.433,382.28 68.96,381.634 63.102,377.025 C59.829,374.441 59.096,374.053 57.847,374.182 C56.254,374.312 58.709,381.548 60.819,383.012 C61.982,383.83 65.815,383.916 67.409,383.184 z M314.033,361.907 C315.541,361.304 318.039,360.4 319.589,359.926 C323.466,358.72 325.231,357.729 326.394,356.179 C327.17,355.145 327.687,354.844 328.892,354.844 C329.711,354.844 330.874,354.542 331.434,354.154 C331.994,353.81 332.898,353.551 333.458,353.638 C334.319,353.767 334.492,354.068 334.664,356.351 C334.793,357.772 335.052,359.194 335.224,359.495 C335.87,360.443 337.291,360.055 339.488,358.289 C341.9,356.394 343.45,356.093 344.14,357.428 C344.786,358.677 345.346,358.505 347.198,356.523 C348.791,354.801 349.567,354.499 351.289,355.059 C352.022,355.274 352.754,354.887 354.477,353.336 C356.544,351.484 356.802,351.355 358.482,351.613 C360.119,351.872 360.42,351.742 361.713,350.45 C364.469,347.565 364.34,346.488 360.593,339.812 C358.784,336.625 358.31,336.108 356.199,334.988 C354.907,334.299 353.314,333.351 352.711,332.834 C351.591,331.93 351.548,331.93 344.958,332.662 C329.409,334.342 327.773,334.6 324.413,336.022 C323.078,336.625 320.02,337.874 317.651,338.907 C311.621,341.405 307.228,344.55 305.72,347.349 C304.557,349.503 304.557,349.632 305.16,351.398 C305.505,352.389 305.806,354.241 305.806,355.447 C305.85,356.653 306.065,358.031 306.366,358.505 C307.142,359.84 310.243,362.984 310.803,363.027 C311.061,363.027 312.482,362.51 314.033,361.907 z M45.658,332.619 C46.907,331.198 46.993,330.853 46.778,329.259 C46.606,328.269 46.304,327.321 46.046,327.063 C45.357,326.374 43.935,328.269 43.505,330.552 C43.289,331.715 42.988,333.222 42.816,333.911 C42.557,335.031 42.6,335.074 43.375,334.643 C43.849,334.428 44.883,333.48 45.658,332.619 z M130.551,317.975 C131.326,317.113 133.178,315.864 134.6,315.132 C138.002,313.409 139.984,311.902 139.984,310.997 C139.984,310.093 140.5,309.188 143.042,305.441 C146.057,301.048 146.057,301.005 145.324,298.636 C144.98,297.473 144.463,296.353 144.161,296.181 C143.903,296.009 142.654,295.836 141.448,295.836 C138.907,295.836 138.002,296.569 137.572,298.895 C137.141,301.134 136.71,301.436 133.911,301.436 C131.455,301.436 131.369,301.393 130.249,299.756 C128.785,297.473 127.148,296.827 125.382,297.732 C124.65,298.119 124.047,298.636 124.047,298.851 C124.047,299.67 122.324,301.005 121.248,301.005 C120.602,301.005 119.568,300.359 118.491,299.282 C116.295,297.086 114.442,296.956 112.289,298.851 C111.471,299.584 110.609,300.144 110.351,300.144 C110.092,300.144 109.748,300.316 109.619,300.574 C109.188,301.263 110.222,307.552 110.954,308.629 C111.557,309.576 111.815,309.619 114.055,309.361 C116.208,309.145 116.596,309.232 117.328,310.007 C117.845,310.567 118.06,311.256 117.888,312.031 C117.716,313.108 118.836,317.458 119.482,318.104 C119.826,318.449 125.426,319.396 127.536,319.482 C128.742,319.525 129.345,319.224 130.551,317.975 z M194.167,292.089 C194.468,290.065 192.056,286.705 185.725,280.503 C181.116,275.895 179.738,275.162 178.015,276.282 C177.154,276.799 177.024,277.273 177.024,279.383 C177.024,283.044 179.48,287.739 182.408,289.763 C185.811,292.132 188.912,293.252 191.669,293.123 C193.736,293.037 194.037,292.908 194.167,292.089 z M213.204,289.117 C213.204,288.299 213.462,287.179 213.807,286.662 C214.152,286.146 214.539,284.207 214.712,282.398 C214.97,279.297 214.927,279.082 214.065,278.608 C213.29,278.177 213.161,277.876 213.419,276.756 C214.109,273.741 214.152,267.797 213.506,266.85 C213.032,266.118 212.946,264.825 213.118,261.294 C213.462,253.584 211.998,251.861 207.691,254.747 C205.968,255.91 202.738,256.857 199.206,257.245 C197.311,257.46 196.363,257.805 195.545,258.58 C194.899,259.183 193.348,260.001 192.056,260.432 C190.592,260.906 189.687,261.423 189.601,261.897 C189.515,262.327 190.161,264.179 190.979,266.031 C191.841,267.927 192.53,270.037 192.53,270.726 C192.53,272.277 195.071,277.23 197.182,279.814 C199.464,282.614 203.556,285.844 205.494,286.361 C206.485,286.662 208.165,287.696 209.543,288.945 C212.213,291.357 213.204,291.4 213.204,289.117 z M145.497,283.26 C145.755,282.915 145.841,281.322 145.626,278.953 C145.367,275.335 145.281,275.119 143.817,273.784 C142.309,272.406 142.266,272.234 142.008,268.357 C141.663,263.706 140.888,261.681 139.122,260.949 C137.873,260.432 137.528,259.786 135.892,254.79 C134.6,250.741 133.308,249.32 130.982,249.32 C129.603,249.32 129,248.028 128.742,244.41 C128.44,240.964 127.708,235.279 127.278,233.556 C127.191,233.082 126.588,232.436 126.029,232.092 C125.426,231.79 124.866,231.273 124.693,230.929 C124.435,230.239 127.838,223.004 130.637,218.18 C132.102,215.725 132.317,214.992 132.102,213.528 C131.8,211.331 132.834,210.168 136.236,208.833 C137.572,208.316 139.165,207.283 139.768,206.594 C141.146,204.957 141.233,202.545 139.94,200.908 C137.356,197.592 127.924,195.567 122.669,197.161 C118.836,198.367 114.141,196.386 111.298,192.38 C109.705,190.14 108.886,189.882 108.154,191.433 C107.723,192.423 107.465,192.552 106.345,192.294 C104.493,191.949 100.401,193.198 98.937,194.577 C97.386,195.998 96.654,197.376 96.31,199.702 C96.18,200.736 95.491,202.674 94.802,204.009 C93.811,205.991 93.553,207.24 93.338,210.427 L93.079,214.389 L96.18,216.155 C97.903,217.103 100.617,218.955 102.253,220.204 C104.924,222.314 105.441,223.004 107.896,227.655 C109.36,230.455 110.824,233.814 111.083,235.106 C111.384,236.399 111.987,238.897 112.461,240.62 C113.28,243.678 113.28,243.85 112.547,245.357 C112.074,246.348 111.083,247.339 109.963,247.942 C108.068,248.975 107.12,249.061 95.276,248.846 C93.036,248.803 92.347,248.932 91.615,249.664 C90.797,250.526 90.753,250.741 91.27,252.938 C92.562,258.795 100.617,266.548 106.474,267.582 C107.551,267.797 108.929,268.616 110.566,270.037 C113.883,272.923 115.175,273.569 117.199,273.31 C118.233,273.181 119.912,273.397 121.549,273.913 C125.985,275.292 128.354,277.187 128.354,279.34 C128.354,280.202 128.139,280.331 126.804,280.331 C125.899,280.331 125.382,280.503 125.555,280.762 C126.201,281.795 128.354,281.192 129.948,279.47 C131.455,277.919 131.757,277.747 133.781,277.747 C136.366,277.747 137.141,278.436 137.528,280.891 C137.658,281.838 138.002,282.829 138.304,283.174 C138.95,283.949 144.851,284.035 145.497,283.26 z M97.473,282.226 C99.798,281.451 100.014,280.762 98.506,278.565 C97.085,276.411 94.974,275.162 92.821,275.162 C90.71,275.162 90.021,274.559 88.686,271.501 C86.274,266.031 80.761,259.485 75.937,256.34 C75.377,255.953 74.516,254.919 74.085,254.015 C72.319,250.612 71.328,251.516 71.673,256.211 C72.018,260.863 73.181,263.706 75.808,266.118 C77.186,267.367 77.961,268.486 77.961,269.089 C77.961,270.683 78.737,271.674 81.235,273.267 C84.379,275.292 85.111,276.455 84.982,279.426 C84.896,280.719 85.068,282.011 85.327,282.355 C86.059,283.217 94.845,283.131 97.473,282.226 z M66.16,279.47 C67.237,279.039 67.28,278.91 66.978,277.187 C66.806,276.196 66.548,274.258 66.375,272.837 C66.117,270.683 65.858,270.166 64.652,269.176 C63.36,268.099 63.231,267.797 63.49,266.505 C64.566,260.906 64.265,259.657 61.939,259.657 C61.207,259.657 60.001,259.355 59.226,258.968 C58.407,258.58 57.417,258.365 56.986,258.451 C55.78,258.666 55.005,260.82 54.789,264.395 C54.617,267.237 54.789,268.142 56.081,271.975 C56.986,274.603 58.149,277.058 59.01,278.134 C60.345,279.814 60.561,279.9 62.714,279.9 C63.963,279.9 65.514,279.685 66.16,279.47 z M72.534,237.26 C73.137,237.045 73.827,236.485 74.085,235.968 C74.473,235.236 74.343,234.891 73.267,233.814 C71.759,232.307 71.372,232.221 70.209,233.384 C68.787,234.805 69.261,237.691 70.898,237.691 C71.199,237.691 71.931,237.518 72.534,237.26 z M154.843,196.903 C154.671,196.472 154.283,195.481 153.982,194.706 C153.723,193.931 153.292,193.112 153.077,192.94 C152.431,192.337 146.143,191.906 145.841,192.423 C145.324,193.242 147.478,195.567 149.674,196.601 C150.88,197.161 152.56,197.635 153.508,197.635 C154.886,197.635 155.101,197.506 154.843,196.903 z M46.347,194.835 C47.553,194.361 47.855,194.017 47.726,193.242 C47.553,192.036 45.443,191.691 44.151,192.595 C43.419,193.155 43.375,193.371 43.849,194.361 C44.452,195.654 44.366,195.654 46.347,194.835 z M61.724,167.485 C62.327,167.011 63.231,166.624 63.705,166.624 C64.782,166.624 68.83,162.489 69.649,160.637 C70.338,158.957 69.649,158.053 66.031,156.028 C64.394,155.124 62.327,153.875 61.422,153.186 C58.881,151.334 58.149,151.678 58.149,154.736 C58.149,157.062 56.34,158.096 55.823,156.071 C55.651,155.468 55.349,154.995 55.048,154.995 C54.789,154.995 54.315,154.65 54.014,154.262 C53.497,153.53 53.411,153.53 52.808,154.349 C51.947,155.511 52.162,156.028 53.54,156.201 C54.918,156.373 55.048,157.493 54.057,161.24 C53.368,163.91 53.626,165.03 55.177,166.495 C57.287,168.433 59.958,168.863 61.724,167.485 z M97.042,154.736 C97.386,154.392 92.089,148.965 91.4,148.965 C91.141,148.965 90.28,148.405 89.461,147.716 C88.686,147.026 87.523,146.294 86.92,146.165 C84.25,145.476 85.327,148.534 88.126,149.611 C89.117,149.998 91.141,151.377 92.605,152.669 C95.017,154.822 96.353,155.425 97.042,154.736 z M53.411,148.232 C53.411,147.673 50.482,145.519 49.793,145.519 C48.932,145.519 48.932,145.734 49.836,147.285 C50.439,148.276 50.913,148.534 51.99,148.534 C52.765,148.534 53.411,148.405 53.411,148.232 z M82.613,144.141 C82.699,143.753 81.967,142.59 81.019,141.556 C80.029,140.566 78.521,138.628 77.617,137.335 C76.583,135.828 75.679,134.967 75.162,134.967 C74.387,134.967 74.3,135.225 74.43,137.766 C74.516,139.317 74.731,141.04 74.99,141.643 C75.894,144.011 82.225,146.122 82.613,144.141 z" fill="#000000"/>
  </g>
</svg>
