<?xml version="1.0" encoding="UTF-8"?>
<!DOCTYPE svg PUBLIC "-//W3C//DTD SVG 1.1//EN" "http://www.w3.org/Graphics/SVG/1.1/DTD/svg11.dtd">
<svg version="1.1" xmlns="http://www.w3.org/2000/svg" xmlns:xlink="http://www.w3.org/1999/xlink" x="0" y="0" width="500" height="500" viewBox="0, 0, 500, 500">
  <g id="Layer_1">
    <g>
      <path d="M371.147,393.886 C371.147,452.491 323.638,500 265.033,500 C206.428,500 158.919,452.491 158.919,393.886 C158.919,335.281 206.428,287.772 265.033,287.772 C323.638,287.772 371.147,335.281 371.147,393.886 z" fill="#000000"/>
      <path d="M143.444,372.332 C156.156,304.905 197.607,287.772 248.398,273.403 C248.398,273.403 214.74,265.112 208.66,234.163 C202.581,203.213 256.412,185.582 265.033,144.076 C270.56,117.548 253.98,118.1 256.743,87.15 C259.507,56.201 305.379,67.807 305.379,67.807 C305.379,67.807 372.253,82.176 391.596,10.328 C391.596,10.328 362.857,64.491 248.398,4.802 C214.242,-12.995 166.657,23.04 158.919,41.831 C151.182,60.622 163.009,89.251 155.051,119.758 C141.786,170.605 83.755,148.498 38.989,210.95 C-5.778,273.403 25.724,380.069 52.805,414.335 C79.887,448.601 163.838,491.434 188.211,491.71 C191.527,491.765 128.854,449.872 143.444,372.332 z" fill="#000000"/>
      <path d="M482.235,315.959 C451.285,368.463 379.99,343.04 379.99,343.04 C406.519,446.943 341.303,487.841 341.303,487.841 C505.337,462.971 482.235,315.959 482.235,315.959 z" fill="#000000"/>
    </g>
  </g>
</svg>
