<?xml version="1.0" encoding="UTF-8"?>
<!DOCTYPE svg PUBLIC "-//W3C//DTD SVG 1.1//EN" "http://www.w3.org/Graphics/SVG/1.1/DTD/svg11.dtd">
<svg version="1.1" xmlns="http://www.w3.org/2000/svg" xmlns:xlink="http://www.w3.org/1999/xlink" x="0" y="0" width="500" height="500" viewBox="0, 0, 500, 500">
  <g id="layer101">
    <path d="M210.552,494.807 C207.865,488.945 206.156,488.213 199.806,489.189 C195.41,489.922 190.525,488.945 187.594,486.991 C185.152,485.038 180.756,483.572 178.069,483.572 C173.673,483.572 173.917,482.595 181.489,475.513 C186.129,471.361 191.99,466.476 194.677,465.255 C197.608,463.79 200.05,460.859 200.538,458.417 C202.248,450.357 193.456,432.773 183.931,425.202 C167.323,412.013 163.416,386.858 173.185,357.062 C178.069,342.164 183.198,332.883 187.35,331.418 C194.921,328.487 207.133,296.737 206.156,282.328 C205.911,278.665 208.598,269.384 212.017,262.057 C219.832,244.961 219.832,237.634 212.017,227.132 C208.598,222.492 204.69,214.677 203.225,209.548 C202.004,204.419 199.806,200.267 198.34,200.267 C195.41,200.267 179.046,212.967 179.046,215.409 C179.046,216.386 176.604,219.806 173.429,222.981 C170.498,226.4 163.904,237.634 158.531,247.892 C151.693,262.057 149.739,268.651 150.716,274.024 C151.448,277.932 150.96,283.305 149.739,285.991 C146.32,292.097 134.597,292.097 128.979,285.747 C126.537,283.061 122.63,280.863 120.431,280.863 C114.326,280.863 110.174,274.757 111.151,266.942 C111.883,261.08 111.151,260.347 104.557,260.103 C98.695,260.103 96.986,258.882 96.497,254.486 C96.009,251.311 97.23,247.403 99.428,245.938 C102.603,243.251 102.603,241.542 98.207,229.575 C92.834,214.677 81.599,173.891 79.645,162.412 C78.913,158.504 74.761,142.629 70.12,127.243 C58.886,90.12 59.374,80.595 71.83,80.595 C75.005,80.595 80.378,94.028 84.041,111.124 C85.751,119.183 91.613,136.768 97.23,150.2 C103.091,163.633 108.22,178.042 108.953,181.95 C111.639,196.36 124.828,228.354 128.003,228.354 C132.643,228.354 152.181,206.861 152.181,201.488 C152.181,199.29 156.089,192.94 160.485,187.567 C165.125,182.194 169.766,174.379 170.498,169.983 C174.894,148.247 176.848,144.095 184.175,140.431 C188.083,138.233 192.723,133.837 194.188,130.662 C195.654,127.243 200.538,122.358 205.179,119.672 C209.575,117.23 213.238,113.566 213.238,111.857 C213.238,109.903 216.169,104.286 219.832,98.912 C224.961,91.341 226.427,85.968 226.671,75.711 C226.915,68.384 228.38,48.357 230.334,31.261 C233.021,3.663 233.998,0 238.15,0 C241.08,0 242.546,1.71 242.79,5.617 C242.79,8.548 244.255,25.888 245.965,43.961 C247.674,62.034 248.651,78.397 248.163,80.595 C247.674,82.549 253.048,90.609 260.13,98.18 C274.051,113.322 286.995,119.672 303.847,119.672 C311.662,119.672 314.349,121.137 321.92,130.418 C326.804,136.524 331.689,145.072 333.154,149.712 C334.376,154.352 338.772,162.412 342.679,167.296 C346.831,172.425 350.006,177.31 350.006,178.287 C350.006,179.264 353.67,181.95 358.066,183.904 C362.462,186.102 368.568,190.498 371.742,193.917 C375.162,197.337 378.825,200.267 379.802,200.267 C381.023,200.267 385.664,202.954 390.06,206.373 C394.456,209.792 403.248,214.188 409.598,216.386 C417.902,219.317 423.275,223.469 429.38,231.284 C434.021,237.39 437.928,243.984 437.928,245.938 C437.928,251.067 431.334,263.034 427.671,264.255 C423.275,265.965 413.506,262.057 413.261,258.394 C413.017,256.684 412.529,253.509 412.284,251.555 C412.04,249.601 411.552,246.426 411.307,244.961 C410.819,240.565 400.073,241.053 396.41,245.45 C391.037,252.044 386.152,250.09 387.862,242.03 C389.083,236.169 388.35,234.215 384.198,232.017 C380.29,229.819 378.092,230.063 375.406,232.261 C372.719,234.459 370.277,234.459 363.927,231.284 C359.775,229.33 352.937,226.4 349.273,224.934 C345.61,223.469 340.481,218.829 338.283,214.677 C331.933,203.198 323.141,192.94 319.233,192.94 C317.524,192.94 314.837,197.581 313.128,203.442 C311.662,209.06 308.487,217.119 305.801,221.271 C299.451,231.773 299.939,241.786 307.755,253.021 C311.174,258.149 315.57,268.163 317.28,274.757 C323.141,297.226 332.177,320.916 341.214,337.524 C351.227,356.329 351.472,358.283 345.854,368.296 C342.191,374.402 341.947,377.577 344.145,388.079 C346.099,397.604 345.854,402.733 343.412,410.548 C340.97,417.631 340.481,422.515 342.435,427.4 C344.145,432.528 343.9,437.657 341.214,445.961 C336.818,460.615 336.818,467.942 341.214,469.651 C346.587,471.849 352.693,482.351 350.983,486.747 C350.25,488.945 344.633,492.364 338.283,494.318 C328.27,497.982 326.804,497.982 322.897,494.318 C318.989,490.899 318.012,490.899 311.174,494.318 C302.137,499.203 301.16,499.203 301.16,494.807 C301.16,492.853 297.986,490.655 293.834,489.678 C289.926,488.701 286.507,487.236 286.507,486.014 C286.507,481.374 289.682,476.245 292.612,476.245 C294.566,476.245 297.986,473.315 300.672,469.651 C304.824,463.79 305.312,459.149 305.068,439.611 C304.824,425.934 303.359,413.967 301.405,410.548 C299.207,406.64 298.718,400.29 299.939,389.544 C300.916,379.531 300.672,373.669 298.962,372.448 C297.497,371.716 290.17,373.914 282.843,377.333 C265.747,385.881 254.757,384.415 243.767,372.204 C234.486,362.191 229.846,361.702 223.252,370.25 C216.169,379.042 214.704,390.521 219.1,399.069 C221.298,403.221 222.03,409.083 221.298,413.234 C220.321,418.852 221.298,421.782 226.427,427.155 C232.532,433.505 233.021,435.459 231.555,445.228 C229.846,455.486 230.334,456.707 239.126,466.476 C246.453,474.536 247.919,477.467 245.721,480.641 C244.499,483.084 241.08,485.282 238.638,485.77 C236.196,486.259 233.021,487.968 232.044,489.922 C231.067,491.876 227.404,493.341 224.229,493.341 C221.054,493.341 217.39,495.295 215.925,497.493 C213.971,501.401 213.238,500.912 210.552,494.807 z M280.401,367.808 C288.461,361.946 283.332,357.062 270.143,358.283 C255.49,359.748 252.315,360.725 252.315,363.9 C252.315,370.25 272.83,373.425 280.401,367.808 z" fill="#000000"/>
  </g>
</svg>
