<?xml version="1.0" encoding="UTF-8"?>
<!DOCTYPE svg PUBLIC "-//W3C//DTD SVG 1.1//EN" "http://www.w3.org/Graphics/SVG/1.1/DTD/svg11.dtd">
<svg version="1.1" xmlns="http://www.w3.org/2000/svg" xmlns:xlink="http://www.w3.org/1999/xlink" x="0" y="0" width="500" height="500" viewBox="0, 0, 500, 500">
  <g id="layer101">
    <path d="M235.362,499.631 C235.106,499.247 234.082,499.119 232.803,499.375 C231.075,499.695 230.243,499.439 228.387,497.903 C227.107,496.943 226.083,495.535 226.083,494.832 C226.083,494.128 225.636,491.632 225.124,489.264 C224.356,485.361 224.356,484.657 225.38,481.841 C226.723,477.938 229.347,474.354 231.715,473.267 C232.675,472.819 233.506,471.923 233.634,471.283 C233.762,470.579 234.402,469.555 235.106,468.851 C236.834,467.123 236.77,462.708 234.978,460.788 C233.57,459.38 233.57,459.316 234.658,455.477 C235.298,453.301 235.874,449.91 235.938,447.926 C236.066,445.942 236.322,443.831 236.514,443.319 C237.538,440.695 238.818,428.985 239.202,418.682 C239.522,407.548 239.522,406.972 237.986,402.3 C237.09,399.613 236.258,395.069 236.002,392.19 C235.682,387.007 235.682,387.007 237.346,386.367 L239.01,385.727 L238.562,379.456 C237.602,371.969 238.754,372.289 239.458,372.289 C240.609,372.289 240.801,371.905 240.737,369.921 C240.609,365.889 239.906,363.65 238.69,363.458 C238.562,362.882 238.562,361.602 236.386,360.514 C235.362,359.938 233.57,358.146 232.419,356.419 C231.267,354.755 229.155,352.323 227.619,350.979 C226.083,349.636 224.804,348.036 224.804,347.396 C224.804,346.82 224.484,345.604 224.036,344.708 C223.332,343.173 223.204,343.173 215.269,343.173 C208.358,343.237 207.206,343.365 207.014,344.26 C206.886,344.964 207.91,345.86 210.086,347.076 C213.477,348.932 214.309,350.404 213.733,353.539 C213.541,354.499 213.797,356.547 214.309,358.146 C215.013,360.514 215.077,362.882 214.501,370.625 C213.733,382.079 214.373,387.326 217.125,391.742 C219.428,395.325 220.068,399.741 218.852,403.58 C217.637,407.548 218.725,411.835 222.5,417.594 C224.74,420.986 226.083,422.33 227.747,422.97 L229.923,423.737 L229.987,428.281 C230.051,430.712 230.051,433.144 229.987,433.592 C229.923,434.04 230.755,435.832 231.779,437.623 C232.867,439.351 233.762,441.079 233.762,441.463 C233.762,441.975 232.035,442.039 228.195,441.719 C225.06,441.527 220.772,441.335 218.597,441.399 C215.269,441.399 214.437,441.207 213.797,440.119 C212.901,438.711 210.982,438.391 210.598,439.607 C210.278,440.439 208.102,439.927 202.343,437.815 C201.063,437.368 199.847,437.112 199.655,437.304 C199.527,437.495 199.335,435.96 199.271,433.976 C199.207,431.096 198.951,430.137 197.927,429.433 C197.032,428.793 196.648,427.833 196.648,425.977 C196.648,424.057 196.264,423.034 194.984,421.882 C193.384,420.346 193.32,420.346 194.088,415.419 C194.6,412.219 194.664,408.188 194.344,404.028 C194.088,400.445 193.832,391.934 193.768,385.087 C193.704,373.184 193.576,372.225 191.656,365.314 C190.504,361.282 188.905,356.931 188.009,355.651 C187.113,354.371 183.401,350.276 179.69,346.564 C173.163,339.909 171.883,338.245 169.003,332.806 L167.596,330.054 L169.003,325.639 C170.155,322.12 171.051,320.648 173.483,318.408 C177.834,314.377 178.922,313.737 186.409,311.305 C194.792,308.553 200.487,307.274 207.782,306.378 C215.333,305.418 218.149,304.01 219.044,300.618 C219.492,299.019 220.388,297.675 221.476,296.971 C222.436,296.395 223.588,295.499 224.036,294.923 C225.06,293.707 224.996,288.908 223.972,285.325 C223.396,283.533 223.268,281.677 223.588,280.205 C224.484,276.238 226.339,261.456 226.595,256.657 C226.723,254.161 226.531,251.537 226.147,250.833 C225.764,250.129 222.82,247.762 219.556,245.65 C214.757,242.515 213.285,241.811 211.877,242.067 C209.766,242.579 207.526,240.595 207.526,238.291 C207.526,236.627 205.222,232.98 203.559,231.892 C202.599,231.316 201.959,231.7 199.719,233.876 C196.904,236.691 195.304,240.595 190.312,257.104 C187.689,265.807 182.761,279.181 180.586,283.533 C174.507,295.563 159.213,314.697 154.861,315.72 C151.278,316.552 151.406,315.272 155.885,305.61 C162.796,290.572 163.756,288.012 166.636,275.022 C169.067,264.016 170.411,256.785 170.411,253.841 C170.411,252.561 170.987,249.682 171.691,247.506 C172.395,245.33 172.971,242.323 172.971,240.915 C172.971,239.507 173.291,237.267 173.675,235.987 C174.251,234.196 174.251,232.98 173.739,231.508 C173.163,229.908 173.227,229.076 173.931,227.669 C175.53,224.597 174.827,220.758 172.011,217.43 C170.219,215.318 170.219,213.591 172.075,210.967 C173.803,208.471 173.803,208.407 172.779,206.168 C172.139,204.952 171.691,203.288 171.691,202.456 C171.691,201.688 170.603,199.257 169.195,197.145 C165.484,191.386 165.42,190.81 168.299,189.466 C171.499,187.93 172.139,185.946 171.243,180.699 C170.731,177.564 169.835,175.452 167.468,171.868 C163.692,166.237 163.18,165.085 163.692,163.23 C163.948,162.142 164.588,161.758 166.38,161.63 C168.299,161.502 168.875,161.118 169.387,159.774 C170.027,157.918 169.835,157.47 165.1,149.855 C161.516,144.032 161.005,142.432 162.348,141.345 C163.436,140.449 165.74,140.641 168.939,141.984 C170.859,142.752 171.115,142.688 172.715,141.281 C174.443,139.617 174.507,138.593 173.227,130.402 C172.907,128.418 173.163,127.714 175.211,125.283 L177.578,122.467 L177.13,116.58 L176.682,110.757 L178.794,109.093 C180.586,107.685 180.906,107.045 181.098,103.718 C181.354,100.518 181.674,99.75 183.337,98.279 C184.937,96.871 185.449,95.847 185.833,92.903 C186.153,90.344 186.985,88.296 188.585,85.992 C189.801,84.2 192.808,78.569 195.24,73.45 C203.303,56.492 209.83,45.678 218.021,35.439 C221.092,31.6 231.139,21.745 235.042,18.738 C243.361,12.338 260.127,3.636 268.638,1.332 C273.309,0.116 284.699,-0.46 287.963,0.436 C290.075,1.012 290.779,1.588 291.098,2.868 C291.674,4.979 291.162,5.299 282.076,9.907 C263.454,19.313 247.712,31.408 240.481,41.838 C239.074,43.822 236.258,47.278 234.274,49.389 C231.523,52.333 230.435,54.061 229.859,56.492 C229.411,58.284 228.067,60.908 226.851,62.443 C224.612,65.195 224.1,67.371 224.996,70.058 C225.38,71.146 224.804,72.17 222.18,75.178 L218.916,78.889 L219.3,83.113 L219.684,87.272 L216.805,90.088 C213.029,93.799 212.517,96.231 214.885,99.686 C216.933,102.63 216.677,104.038 213.605,107.365 C210.534,110.693 208.166,114.532 208.166,116.196 C208.166,117.092 209.19,118.692 210.726,120.227 C212.133,121.635 213.285,123.043 213.285,123.363 C213.285,123.683 212.005,125.411 210.406,127.203 C206.246,131.874 205.222,134.242 205.542,138.849 C205.67,140.449 207.27,141.792 210.022,142.56 C211.43,142.944 212.645,143.648 212.901,144.16 C213.093,144.672 212.261,146.464 211.046,148.128 C206.886,153.951 203.687,159.582 203.687,161.182 C203.751,162.27 204.518,163.23 206.31,164.509 C210.214,167.197 210.982,166.941 210.47,162.782 C210.022,158.494 210.726,157.726 215.461,157.854 C219.492,157.918 220.708,156.958 220.068,154.079 C219.62,151.647 221.412,149.599 224.036,149.599 C226.339,149.599 227.939,147.872 230.563,142.56 C233.25,137.121 234.21,136.033 235.682,136.801 C240.162,139.233 239.65,153.119 234.722,163.741 C233.89,165.661 233.123,167.837 233.123,168.541 C233.123,169.309 232.291,170.972 231.203,172.316 C230.179,173.66 229.283,175.452 229.283,176.284 C229.283,178.779 222.244,184.731 216.997,186.714 C214.309,187.738 213.029,188.634 212.069,190.234 C211.366,191.45 209.638,193.113 208.23,194.009 C205.35,195.865 204.646,197.337 205.606,199.768 C205.926,200.728 206.246,202.712 206.246,204.184 C206.246,206.68 206.566,207.255 210.278,210.775 C214.821,215.19 217.381,216.47 221.924,216.47 C224.676,216.47 225.188,216.662 225.828,218.07 C230.819,228.756 231.523,229.524 237.154,230.228 C241.569,230.74 242.849,231.252 247.009,234.26 C249.376,235.923 250.016,236.115 251.744,235.603 C253.92,234.964 254.048,234.836 256.415,229.588 C258.591,224.853 258.015,222.933 252.704,217.11 C245.537,209.175 242.209,201.688 241.697,192.154 C241.313,185.562 240.609,182.171 238.434,176.86 C236.578,172.38 236.834,171.1 239.522,171.484 L241.441,171.804 L241.313,167.581 C241.121,163.485 241.185,163.357 242.657,163.357 C243.745,163.357 244.769,164.189 246.241,166.237 C247.329,167.837 248.544,169.053 248.864,168.989 C249.184,168.861 249.504,164.893 249.632,160.094 C249.76,151.839 249.696,151.263 248.096,147.616 C246.689,144.48 246.497,143.648 247.201,143.2 C248.416,142.432 251.168,144.032 253.472,146.784 C254.56,148.064 255.711,148.896 256.095,148.704 C257.695,147.68 258.207,143.072 257.503,135.457 C256.543,125.219 256.607,120.675 257.695,119.204 C258.591,117.988 258.655,117.988 259.935,119.14 C260.639,119.78 261.663,121.699 262.238,123.427 C262.814,125.155 263.646,126.563 264.094,126.563 C264.542,126.563 265.374,125.347 265.95,123.939 C266.91,121.507 267.166,121.315 268.958,121.571 C271.709,121.955 272.029,121.123 273.117,111.077 C274.077,101.798 274.781,99.046 276.317,99.046 C277.532,99.046 280.732,104.102 282.076,108.069 C282.716,109.989 283.612,111.269 284.635,111.717 C286.107,112.357 286.235,112.869 286.299,116.452 C286.427,123.747 287.515,126.051 289.243,122.659 C290.906,119.396 293.402,112.677 293.978,109.925 C294.81,105.829 295.834,104.166 297.434,104.166 C299.353,104.166 300.121,105.254 301.081,109.157 C301.849,112.741 301.273,118.5 299.225,127.075 C298.329,130.85 298.329,131.298 299.353,133.218 C300.377,135.073 300.441,135.905 299.737,140.321 C299.353,143.072 299.225,145.568 299.545,145.888 C299.801,146.144 301.017,145.696 302.169,144.8 C303.897,143.584 304.601,143.392 305.624,143.904 C306.712,144.544 306.84,145.056 306.456,148.96 C306.2,151.391 306.264,153.503 306.584,153.695 C308.376,154.783 311.832,149.663 313.367,143.712 C313.815,141.856 314.519,140.257 314.903,140.129 C315.287,140.001 316.055,140.833 316.631,141.92 C318.295,145.184 317.335,152.735 314.647,157.79 C311.768,163.102 311.768,163.933 314.647,162.718 C317.975,161.31 318.999,162.014 318.743,165.469 L318.551,168.413 L320.79,168.413 C323.798,168.477 323.99,170.077 321.366,174.94 C318.743,179.867 314.263,191.77 314.711,192.537 C314.967,192.857 316.631,192.921 318.551,192.729 C321.558,192.345 322.134,192.473 322.518,193.497 C322.774,194.265 322.582,194.841 321.75,195.289 C319.894,196.377 313.815,202.776 312.663,204.952 C310.36,209.239 304.025,217.238 301.529,219.03 C296.858,222.357 295.194,224.213 295.194,226.197 C295.194,228.309 296.218,229.588 297.818,229.588 C300.185,229.588 300.441,230.996 299.609,239.379 C298.585,249.362 298.969,251.025 302.873,253.265 C306.2,255.185 308.632,259.216 308.632,262.864 C308.632,265.999 309.976,267.663 313.559,269.007 C317.847,270.543 319.063,271.694 318.551,273.742 C317.975,276.046 315.991,277.966 310.552,281.549 C307.928,283.277 305.688,284.813 305.56,284.941 C305.432,285.069 305.816,286.029 306.392,287.116 C307.032,288.46 307.288,289.868 307.032,291.276 C306.52,293.707 308.12,298.955 309.912,300.938 C310.552,301.642 311.64,303.434 312.408,304.906 C314.583,309.257 315.671,309.449 320.342,306.378 C325.27,303.178 328.341,302.282 333.461,302.73 C339.028,303.178 347.667,307.594 347.667,310.025 C347.667,311.113 345.043,312.137 342.163,312.137 C339.22,312.137 336.724,313.481 334.612,316.232 C330.901,321.096 330.133,325.255 332.309,328.903 C333.397,330.758 333.525,332.422 333.717,342.213 C333.781,348.356 333.781,354.499 333.653,355.843 C333.525,357.315 333.909,358.85 334.548,359.938 C335.188,360.898 335.956,363.522 336.276,365.825 C336.596,368.129 336.98,371.137 337.172,372.48 C337.684,375.488 336.66,376.768 333.909,376.768 C332.629,376.768 331.413,377.28 330.645,378.112 C330.005,378.88 328.277,379.967 326.87,380.607 C325.462,381.183 323.926,382.207 323.414,382.783 C322.39,383.999 319.639,384.063 313.879,383.039 C309.976,382.335 309.656,382.335 308.696,383.551 C308.056,384.383 305.816,385.343 302.937,386.047 C296.346,387.646 288.219,387.07 280.412,384.447 C277.212,383.423 274.205,382.527 273.693,382.527 C272.669,382.527 272.477,384.831 273.437,385.407 C273.885,385.663 273.885,386.175 273.437,387.007 C272.413,388.926 272.669,391.806 274.013,393.534 L275.229,395.069 L269.022,405.308 L262.814,415.483 L260.703,424.761 L258.527,434.04 L258.975,447.03 C259.423,459.956 259.423,459.956 257.951,461.428 C254.368,464.884 253.984,463.348 262.302,480.05 C265.502,486.449 265.31,487.857 260.639,492.592 C258.527,494.768 256.351,497.391 255.775,498.415 C254.879,500.271 254.688,500.335 253.344,499.439 C252.576,498.927 251.232,498.351 250.4,498.223 C249.632,498.159 248.224,497.007 247.265,495.855 C246.369,494.64 245.985,493.808 246.433,494.128 C247.585,494.832 247.329,493.808 245.921,491.952 C244.897,490.672 244.641,490.544 244.641,491.504 C244.641,492.272 244.129,492.592 242.785,492.592 C241.185,492.592 240.673,493.04 239.586,495.407 C237.986,498.735 236.002,500.655 235.362,499.631 z M282.908,363.01 C283.612,362.114 284.699,361.41 285.403,361.41 C286.043,361.41 288.091,360.066 289.883,358.402 C291.738,356.675 293.658,354.947 294.234,354.435 C295.066,353.795 295.194,353.027 294.874,351.107 C294.618,349.572 294.682,348.612 295.066,348.612 C295.834,348.612 297.754,343.237 297.754,341.061 C297.754,340.101 296.602,338.309 294.426,336.134 C292.57,334.278 290.459,332.038 289.755,331.206 C288.987,330.374 287.131,328.519 285.595,327.047 C281.756,323.527 279.196,320.456 279.196,319.496 C279.196,319.048 278.684,318.024 277.98,317.192 C277.34,316.36 276.189,314.441 275.421,312.905 C274.077,310.281 274.077,310.025 275.037,308.553 C276.189,306.826 277.084,306.698 282.908,307.785 C286.683,308.489 287.067,308.425 287.899,307.338 C289.307,305.418 288.987,303.882 286.555,301.642 C284.635,299.787 284.379,299.211 284.699,297.483 C285.275,294.667 283.356,290.38 281.436,290.38 C278.94,290.38 274.077,296.523 274.077,299.659 C274.077,301.13 273.373,302.346 271.133,304.458 C267.102,308.425 266.846,309.065 267.998,311.881 C268.51,313.161 268.958,315.208 268.958,316.488 C268.958,317.704 269.469,319.304 270.109,320.008 C271.069,321.16 271.069,321.288 270.173,320.904 C268.638,320.392 267.422,323.015 267.934,325.703 C268.446,328.583 271.581,334.598 272.797,335.238 C273.309,335.494 274.525,335.942 275.421,336.326 C277.02,336.965 277.084,337.093 277.468,345.156 C277.788,350.788 278.172,353.731 278.876,354.819 C279.772,356.163 279.772,356.483 278.876,358.21 C277.596,360.706 277.66,363.138 279.068,363.906 C280.796,364.93 281.564,364.738 282.908,363.01 z M245.985,349.252 C246.177,347.652 246.561,345.284 246.817,344.004 C247.585,340.485 245.985,340.165 242.721,343.109 C239.522,345.988 237.666,346.052 232.803,343.493 C228.771,341.381 224.996,340.933 224.356,342.597 C223.908,343.876 225.188,344.772 227.555,344.772 C228.515,344.772 230.947,345.668 232.931,346.692 C234.914,347.78 236.898,348.612 237.474,348.612 C238.69,348.612 243.361,351.235 243.361,352.003 C243.361,352.259 243.873,352.451 244.513,352.323 C245.281,352.195 245.729,351.299 245.985,349.252 z" fill="#000000"/>
  </g>
</svg>
