<?xml version="1.0" encoding="UTF-8"?>
<!DOCTYPE svg PUBLIC "-//W3C//DTD SVG 1.1//EN" "http://www.w3.org/Graphics/SVG/1.1/DTD/svg11.dtd">
<svg version="1.1" xmlns="http://www.w3.org/2000/svg" xmlns:xlink="http://www.w3.org/1999/xlink" x="0" y="0" width="500" height="500" viewBox="0, 0, 500, 500">
  <g id="layer101">
    <path d="M286.417,391.742 C284.933,391.427 283.223,390.662 282.459,389.987 C281.424,389.133 280.525,388.818 279.175,388.818 C275.937,388.818 272.879,386.839 267.481,381.397 C262.534,376.359 259.97,373.076 259.97,371.727 C259.97,370.107 258.351,369.343 255.202,369.433 C253.538,369.478 252.009,369.613 251.784,369.747 C251.559,369.882 248.951,369.837 245.982,369.703 C241.709,369.433 240.495,369.208 240.27,368.668 C239.865,367.544 246.387,361.652 248.996,360.752 C251.424,359.942 252.774,358.863 252.774,357.783 C252.774,357.379 252.459,356.029 252.099,354.815 C251.199,351.712 248.231,348.653 245.442,347.978 C244.318,347.664 243.238,347.214 243.103,346.989 C242.609,346.224 243.733,345.235 245.622,344.74 C246.612,344.515 248.186,344.065 249.13,343.84 L250.885,343.391 L250.84,337.364 L250.75,331.382 L248.906,328.728 C247.871,327.244 246.387,325.715 245.532,325.31 C243.193,324.095 239.82,324.275 235.772,325.804 C231.409,327.469 223.988,329.313 218.996,329.942 C213.778,330.572 211.664,331.112 209.955,332.146 C208.156,333.226 207.211,333.271 205.772,332.326 C204.918,331.786 203.793,331.652 200.87,331.742 C196.147,331.966 195.382,332.551 192.864,337.903 C190.795,342.401 189.985,342.581 188.816,338.893 C188.411,337.544 188.051,335.789 188.051,334.98 C188.006,333.226 186.972,332.146 185.352,332.146 C183.688,332.146 182.699,333.001 182.519,334.62 C182.384,335.789 182.159,335.969 180.945,336.104 C179.011,336.284 179.056,337.184 181.035,338.713 C183.328,340.422 183.148,341.322 180.63,341.007 C178.246,340.647 177.436,341.322 178.066,343.031 C178.606,344.515 179.55,345.235 182.789,346.584 C184.768,347.439 185.532,347.978 185.532,348.608 C185.532,349.238 185.172,349.508 184.138,349.598 C183.328,349.688 182.339,350.137 181.889,350.632 C180.765,351.891 180.09,351.712 177.526,349.463 C176.222,348.338 174.243,347.124 172.939,346.719 C171.724,346.314 169.52,345.505 168.126,344.92 C163.448,342.986 162.729,343.661 164.888,348.023 C166.642,351.487 170.825,357.694 171.814,358.233 C172.759,358.728 180.405,367.454 181.169,368.893 C181.574,369.613 181.529,369.927 181.079,370.332 C180.225,371.052 175.862,368.713 172.084,365.52 C167.631,361.742 160.84,352.926 155.397,343.885 C153.418,340.557 151.214,337.454 150.54,336.914 C148.201,335.205 142.939,336.104 141.679,338.443 C141.319,339.163 141.454,339.837 142.309,341.682 C142.939,342.986 143.388,344.74 143.388,345.505 C143.343,346.629 143.793,347.439 145.187,349.013 C146.222,350.092 147.076,351.352 147.076,351.712 C147.076,352.116 147.976,353.376 149.055,354.545 C150.135,355.715 151.349,357.379 151.709,358.323 C152.069,359.223 154.273,361.786 156.612,364.08 C159.94,367.319 161.694,368.623 165.067,370.422 C167.406,371.637 172.039,374.29 175.367,376.359 C179.955,379.148 181.619,380.452 182.339,381.712 C182.834,382.611 183.103,383.511 182.924,383.736 C182.384,384.275 174.603,381.442 167.811,378.203 C157.511,373.256 152.384,369.747 144.558,362.056 C140.735,358.368 137.091,354.815 136.417,354.185 C135.697,353.556 134.798,352.386 134.393,351.622 C133.853,350.542 133.223,350.092 132.009,349.867 C130.075,349.508 129.31,348.428 128.861,345.505 C128.636,343.84 128.141,342.851 126.477,340.962 C121.934,335.789 121.169,335.52 110.825,335.025 C104.663,334.71 104.438,334.755 103.628,335.655 C103.044,336.329 102.279,336.644 101.109,336.644 C99.67,336.644 99.355,336.824 99.13,337.768 C98.996,338.398 98.456,339.118 98.006,339.388 C97.511,339.613 97.151,340.197 97.151,340.692 C97.151,342.041 96.252,342.221 94.993,341.187 C91.304,338.218 88.156,336.734 88.156,337.993 C88.156,338.263 89.415,339.972 90.99,341.861 C92.519,343.75 94.588,346.404 95.532,347.798 C98.501,352.026 100.975,360.482 99.265,360.482 C98.366,360.482 97.466,359.313 95.892,356.209 C94.498,353.421 92.159,350.587 91.304,350.587 C91.035,350.587 90.585,351.082 90.315,351.712 C89.595,353.331 88.516,353.466 85.907,352.341 C83.883,351.487 83.523,351.442 82.939,352.026 C82.579,352.386 82.174,353.421 81.994,354.365 C81.724,355.984 81.814,356.119 85.952,360.167 C89.865,363.99 90.315,364.62 91.844,368.353 C92.744,370.602 93.733,373.256 94.003,374.245 C94.948,377.978 93.193,378.698 91.349,375.325 C88.741,370.422 84.783,364.035 83.793,363.091 C83.029,362.371 82.039,362.056 79.925,361.921 C77.496,361.742 77.002,361.562 76.012,360.392 C73.898,357.873 71.784,359.493 72.819,362.821 C73.133,363.9 73.718,367.139 74.123,370.017 C74.843,375.64 74.708,376.719 72.774,379.193 C71.604,380.677 71.064,380.182 71.064,377.664 C71.064,374.785 68.186,368.893 66.657,368.668 C64.723,368.398 64.318,369.253 64.318,373.571 C64.318,378.563 63.193,381.981 60.9,383.691 C58.876,385.265 58.021,384.86 58.021,382.431 C57.976,380.002 56.672,375.01 55.502,373.031 C54.288,370.962 52.489,370.692 51.814,372.491 C51.544,373.166 51.229,374.425 51.094,375.235 C50.78,377.124 48.666,380.137 45.607,383.196 C42.774,385.939 40.84,386.974 39.85,386.119 C38.996,385.445 39.22,384.905 42.729,377.843 C44.618,374.155 45.427,371.996 45.427,370.827 C45.427,367.499 42.909,367.319 41.289,370.512 C40.21,372.716 33.823,379.463 31.349,381.037 C30.405,381.622 28.471,382.296 27.076,382.566 C25.682,382.836 23.523,383.286 22.264,383.646 C15.427,385.49 14.123,385.49 14.483,383.601 C14.573,383.016 15.472,382.611 17.631,382.071 C21.229,381.172 23.838,379.553 25.232,377.259 C25.772,376.314 26.807,374.875 27.526,374.065 C28.201,373.256 28.786,372.311 28.786,371.996 C28.786,371.682 29.28,370.962 29.91,370.377 C30.54,369.747 31.034,368.893 30.945,368.398 C30.675,366.689 29.595,366.554 24.513,367.679 C19.475,368.803 17.451,368.623 17.181,367.139 C17.091,366.599 17.766,366.149 19.61,365.43 C25.862,363.091 26.537,361.382 21.139,361.382 C19.745,361.382 18.801,361.157 18.441,360.707 C17.586,359.673 18.396,359.088 21.094,358.638 C23.928,358.188 25.862,357.289 25.862,356.434 C25.862,355.894 24.648,355.715 19.115,355.49 C9.67,355.085 5.397,353.691 1.259,349.777 C0.54,349.148 0,348.248 0,347.798 C0,347.349 0.045,346.989 0.135,346.989 C0.225,346.989 1.799,347.529 3.643,348.203 C6.477,349.283 7.646,349.463 11.469,349.418 C18.711,349.373 20.69,347.798 16.777,345.145 C12.144,342.041 9.67,338.848 11.379,338.173 C11.694,338.083 13.358,338.533 15.067,339.253 C19.16,340.917 22.309,341.771 23.163,341.457 C24.153,341.052 23.973,339.927 22.849,339.298 C22.309,338.983 20.735,337.724 19.385,336.464 C16.912,334.08 15.292,331.202 15.292,328.998 C15.292,328.323 14.078,325.22 12.594,322.161 C9.4,315.595 7.961,309.613 9.85,310.737 C10.12,310.917 10.705,311.906 11.154,312.941 C13.538,318.248 24.198,326.839 25.637,324.545 C25.817,324.185 25.862,321.891 25.772,319.373 C25.502,314.695 25.907,312.806 27.166,312.806 C27.481,312.806 27.976,313.661 28.291,314.65 C28.606,315.685 29.37,317.034 29.955,317.619 C30.9,318.563 31.169,318.653 31.754,318.158 C32.339,317.709 32.429,316.944 32.249,314.83 C32.114,313.076 32.249,311.727 32.654,310.917 C33.238,309.747 33.148,309.433 31.079,305.52 C28.786,301.202 27.481,296.389 28.066,294.14 C28.561,292.251 29.1,292.836 30.315,296.524 C31.214,299.178 31.979,300.527 33.688,302.416 C34.948,303.721 36.207,304.71 36.522,304.62 C36.837,304.485 37.466,303.226 37.916,301.741 C39.535,296.479 40.57,294.365 42.324,292.791 C45.067,290.317 45.517,290.722 44.258,294.32 C43.898,295.445 43.718,296.839 43.853,297.424 L44.123,298.548 L45.157,297.559 C45.697,297.064 46.597,296.614 47.136,296.614 C47.811,296.614 48.486,296.074 49.115,295.04 C50.51,292.611 51.454,293.106 51.769,296.389 C51.949,297.873 52.219,299.448 52.399,299.897 C52.939,301.202 53.748,300.482 54.063,298.368 C55.367,289.732 55.412,288.968 54.873,288.293 C54.603,287.933 52.399,286.629 50.015,285.325 C44.123,282.221 39.805,279.343 37.241,277.004 C34.678,274.62 33.643,274.53 26.447,276.014 C23.793,276.554 21.454,276.869 21.319,276.689 C20.87,276.284 22.399,275.115 23.838,274.755 C24.468,274.575 25.457,273.99 26.087,273.451 C26.717,272.866 27.841,272.101 28.606,271.741 C30.405,270.842 30.81,269.807 29.91,268.458 C29.415,267.649 28.786,267.379 27.661,267.379 C26.807,267.379 26.087,267.199 26.087,266.929 C26.087,266.299 30.135,263.331 31.439,263.016 C32.069,262.881 33.283,262.341 34.138,261.846 C34.948,261.352 36.882,260.542 38.366,260.002 C41.469,258.923 42.279,257.933 42.279,254.965 C42.279,253.571 41.919,252.671 40.93,251.412 C39.49,249.613 39.4,249.298 39.58,246.374 C39.625,245.205 39.355,243.945 38.861,243.136 C37.691,241.112 38.456,240.437 41.064,241.247 C44.528,242.326 46.507,242.326 48.441,241.337 C50.15,240.482 52.624,238.053 52.624,237.289 C52.624,237.109 53.703,235.849 55.052,234.455 C56.402,233.061 58.021,230.902 58.696,229.598 C59.82,227.394 59.955,226.539 60.315,219.298 C60.54,214.935 60.81,210.887 60.99,210.257 C61.169,209.448 60.945,208.728 60.36,208.008 C59.55,207.019 59.415,206.974 58.066,207.559 C57.301,207.873 55.277,209.628 53.613,211.517 C47.676,218.173 40.66,223.031 33.733,225.325 C30.45,226.449 25.277,226.359 23.028,225.19 C20.645,223.975 20.645,223.256 23.028,223.571 C24.738,223.795 25.187,223.661 26.447,222.626 C27.571,221.682 28.246,221.457 29.325,221.592 C31.214,221.906 33.913,221.052 38.276,218.758 C41.289,217.184 42.549,216.149 46.012,212.371 C51.859,205.939 54.423,203.511 56.132,202.791 C57.706,202.071 58.471,200.677 58.471,198.383 C58.471,197.619 59.28,195.235 60.27,193.166 C61.619,190.422 62.024,189.073 61.844,188.173 C61.529,186.734 60.54,185.744 59.865,186.194 C59.595,186.329 58.246,188.668 56.852,191.367 C54.423,196.134 53.073,197.529 53.073,195.235 C53.073,193.885 55.097,187.768 56.447,185.07 C56.987,183.945 57.706,182.281 58.021,181.337 C58.516,179.762 58.471,179.493 57.616,178.593 C55.502,176.344 56.942,171.622 61.349,166.224 C62.969,164.2 64.318,162.176 64.318,161.681 C64.318,160.782 62.834,158.983 62.114,158.983 C61.889,158.983 59.73,157.229 57.256,155.115 C54.828,153.001 52.084,150.887 51.184,150.392 C48.891,149.223 48.711,148.683 50.195,147.514 L51.454,146.479 L50.285,144.77 C49.655,143.78 48.171,141.307 46.957,139.193 C45.742,137.034 43.223,133.616 41.109,131.322 C37.601,127.454 35.982,124.8 35.982,122.956 C35.982,122.326 36.297,122.101 37.331,122.101 C39.04,122.101 39.085,121.517 37.556,114.815 C36.387,109.598 36.162,107.708 36.792,107.708 C37.376,107.708 38.456,110.047 40.93,116.704 C43.268,122.956 44.618,125.16 45.427,123.9 C46.012,122.956 45.967,121.472 45.202,117.828 C43.943,112.026 45.697,111.262 47.676,116.794 C48.576,119.403 49.43,120.887 51.005,122.551 C52.219,123.855 53.793,126.284 54.693,128.218 C56.672,132.536 58.381,134.695 62.339,137.663 C65.937,140.362 67.106,140.632 68.186,138.968 C69.22,137.349 70.615,137.169 73.088,138.248 C75.023,139.103 75.292,139.463 76.822,142.791 C77.856,145.04 78.711,146.389 79.16,146.389 C79.565,146.389 81.454,144.41 83.433,141.981 C88.201,136.134 97.151,126.734 100.75,123.765 C104.213,120.932 110.24,116.929 114.018,114.95 C119.19,112.251 128.321,112.116 133.853,114.635 C137.091,116.119 142.354,121.382 143.883,124.665 C144.468,125.924 145.367,127.139 145.907,127.364 C159.76,133.571 168.621,140.587 173.928,149.628 C182.564,164.245 184.903,174.41 187.106,206.614 C187.691,214.665 188.591,219.568 189.805,220.782 C190.57,221.547 190.885,221.592 193.223,221.142 C196.957,220.377 197.901,220.422 197.901,221.457 C197.901,221.996 197.226,222.716 196.237,223.346 C193.988,224.695 192.504,226.044 192.504,226.719 C192.504,227.798 195.247,230.452 196.912,230.992 C197.811,231.262 199.07,231.801 199.655,232.161 C201.499,233.331 206.267,233.691 209.505,232.881 C211.799,232.296 212.699,232.296 214.048,232.701 C216.477,233.421 217.466,233.331 219.49,232.296 C220.48,231.801 221.784,231.397 222.414,231.397 C223.044,231.397 224.348,230.992 225.292,230.497 C228.216,229.013 231.005,228.518 232.534,229.148 C237.661,231.262 236.132,238.593 230.375,239.762 C228.396,240.167 228.531,239.403 230.735,237.963 C231.724,237.334 232.804,236.209 233.163,235.49 C233.793,234.275 233.793,234.095 232.939,233.016 C231.319,230.947 230.555,230.812 228.171,232.026 C226.957,232.611 224.888,234.05 223.583,235.22 C221.334,237.154 220.975,237.289 219.535,237.019 C218.636,236.839 217.376,236.614 216.747,236.479 C216.072,236.344 214.858,236.569 214.003,236.974 C212.474,237.693 211.259,237.693 205.097,237.019 C202.939,236.749 202.219,236.884 199.61,238.098 C193.763,240.797 183.508,243.001 170.6,244.395 C168.801,244.62 166.822,245.115 166.147,245.565 C165.023,246.284 164.978,246.464 165.247,249.118 C165.427,250.872 165.832,252.266 166.417,252.986 C166.957,253.616 167.856,255.235 168.531,256.584 C169.16,257.933 170.15,259.553 170.69,260.182 C171.229,260.812 172.534,262.791 173.613,264.59 C174.693,266.434 175.997,268.188 176.492,268.503 C178.111,269.538 181.709,269.807 183.958,268.998 C185.082,268.593 186.297,268.278 186.657,268.278 C187.017,268.278 188.141,267.873 189.13,267.379 C190.12,266.884 191.154,266.524 191.469,266.479 C191.739,266.479 192.819,265.759 193.853,264.905 C194.888,264.05 196.012,263.331 196.372,263.331 C196.732,263.331 197.721,262.611 198.621,261.756 C199.925,260.452 200.51,260.182 202.084,260.182 C203.433,260.182 204.468,259.822 205.547,259.058 C206.402,258.428 207.391,257.933 207.841,257.933 C208.291,257.933 209.1,256.854 210.045,254.92 C211.844,251.277 216.927,245.789 218.501,245.789 C221.02,245.789 223.538,248.533 223.538,251.277 C223.493,254.2 220.705,257.574 218.861,256.899 C217.871,256.494 217.961,256.044 219.49,254.11 C220.975,252.266 221.289,250.107 220.12,249.658 C218.231,248.938 214.183,252.401 213.148,255.685 C212.294,258.383 211.484,259.238 208.471,260.587 C206.897,261.307 204.603,262.791 203.433,263.87 C201.409,265.715 196.012,268.728 194.663,268.728 C194.348,268.728 193.538,268.998 192.909,269.358 C190.57,270.572 184.993,272.056 181.934,272.326 L178.786,272.551 L178.921,274.125 C179.011,274.98 179.011,278.353 178.966,281.547 C178.921,288.788 179.1,289.058 182.744,287.708 C185.307,286.719 188.141,285.01 189.49,283.526 C190.12,282.851 190.66,282.716 191.784,282.896 C193.988,283.346 196.552,282.131 196.552,280.692 C196.552,279.882 197.047,279.298 198.531,278.443 C199.655,277.813 200.825,277.409 201.229,277.544 C202.399,277.993 208.876,276.464 209.37,275.61 C211.035,272.821 212.969,272.146 215.487,273.496 C216.792,274.125 216.927,274.125 217.781,273.361 C218.726,272.506 220.435,272.416 224.978,273.001 C227.361,273.316 227.541,273.271 228.306,272.101 C229.16,270.797 229.52,270.797 233.388,271.966 C235.232,272.506 235.367,272.506 236.177,271.472 C237.166,270.257 239.505,269.673 243.733,269.628 C245.847,269.628 247.017,269.358 248.141,268.683 C249.67,267.738 249.805,267.694 252.099,268.458 C253.358,268.863 255.023,269.088 255.742,268.908 C256.732,268.728 257.946,269.133 260.645,270.572 C264.063,272.371 264.288,272.461 266.132,271.966 C267.526,271.562 268.966,271.562 271.304,271.876 C275.127,272.416 275.712,272.281 276.747,270.527 C277.196,269.807 277.736,269.178 277.916,269.178 C278.141,269.178 279.535,268.368 281.065,267.334 C283.313,265.804 283.943,265.58 284.483,266.029 C284.843,266.344 285.157,267.064 285.157,267.649 C285.157,268.278 285.607,268.998 286.282,269.448 C287.361,270.167 287.541,270.122 290.06,268.998 C293.253,267.604 293.343,267.559 294.423,268.773 C294.873,269.313 295.817,270.032 296.537,270.347 C297.346,270.797 298.156,271.876 298.831,273.406 C299.46,274.8 300.495,276.194 301.304,276.824 C302.114,277.364 302.969,278.353 303.193,278.938 C303.553,279.882 303.823,280.017 304.858,279.837 C311.02,278.533 311.694,278.578 311.694,280.242 C311.694,281.052 311.919,281.322 312.729,281.322 C313.313,281.322 314.258,281.906 314.978,282.716 C316.102,283.975 316.372,284.11 318.126,283.84 C319.16,283.706 321.409,283.526 323.118,283.436 C325.997,283.301 326.402,283.391 327.706,284.56 C329.28,285.954 330.495,286.179 330.855,285.145 C331.259,284.11 333.104,284.335 335.352,285.64 C337.062,286.629 337.691,286.764 339.265,286.494 C340.3,286.314 342.729,286.089 344.663,285.999 C347.676,285.864 348.396,285.954 349.34,286.719 C350.735,287.798 351.859,287.888 352.624,286.944 C352.939,286.584 353.748,286.269 354.423,286.269 C355.098,286.269 356.402,286.584 357.256,286.944 C358.156,287.304 359.82,287.619 360.945,287.619 C362.789,287.619 362.969,287.529 362.969,286.539 C362.969,284.965 364.093,284.785 366.477,285.999 C369.985,287.753 370.66,287.843 371.514,286.764 C372.504,285.415 374.888,284.965 379.16,285.235 C382.219,285.46 382.849,285.37 383.838,284.605 C384.828,283.795 385.232,283.75 386.762,284.155 C387.976,284.47 389.19,284.515 390.495,284.2 C391.709,283.93 393.059,283.93 394.138,284.155 C395.442,284.47 396.297,284.38 397.511,283.885 C398.411,283.481 401.199,283.076 403.673,282.941 C407.316,282.716 408.621,282.446 410.42,281.502 C415.862,278.668 417.391,278.713 417.391,281.816 C417.391,283.121 417.706,283.93 418.516,284.695 C419.82,286.044 419.91,286.044 422.789,284.92 C425.397,283.885 425.892,284.02 427.376,286.269 C427.961,287.124 429.041,288.113 429.715,288.473 C430.885,289.013 431.289,288.968 433.898,287.888 L436.777,286.719 L438.711,287.843 C440.42,288.833 441.139,288.968 445.008,288.968 C448.741,288.968 449.64,289.103 451.574,290.092 C454.318,291.487 454.543,292.341 452.069,291.936 C449.91,291.622 448.606,292.566 449.325,293.87 C449.73,294.635 452.564,295.849 467.092,301.427 C470.06,302.596 472.669,303.676 472.894,303.855 C473.119,304.08 473.029,304.53 472.669,304.98 C472.129,305.655 472.264,305.924 474.063,307.454 C475.592,308.758 475.952,309.298 475.547,309.703 C475.143,310.107 474.738,310.062 473.883,309.478 C472.444,308.533 470.645,308.533 470.285,309.478 C469.745,310.917 471.184,312.131 475.682,313.885 C478.156,314.83 481.979,316.494 484.183,317.529 C490.615,320.542 494.798,322.206 497.316,322.746 C498.621,323.016 499.79,323.376 499.925,323.601 C500.42,324.365 498.396,324.5 495.832,323.825 C494.393,323.466 492.774,323.151 492.234,323.151 C491.694,323.151 487.961,322.116 483.913,320.857 C479.865,319.598 475.547,318.248 474.288,317.888 C473.074,317.529 469.835,317.169 467.092,317.079 C464.393,317.034 460.435,316.629 458.321,316.179 C451.214,314.785 450,314.56 446.987,314.29 C444.873,314.11 443.388,314.245 441.769,314.785 C440.555,315.19 438.486,315.505 437.137,315.46 C434.258,315.37 429.985,316.179 428.816,317.034 C428.096,317.574 428.051,317.843 428.546,318.833 C429.4,320.767 429.175,321.352 427.421,322.071 C426.117,322.611 425.307,322.701 423.598,322.341 C421.529,321.936 421.394,321.981 420.855,323.106 C420.45,323.96 419.775,324.365 418.426,324.68 C414.063,325.58 409.565,323.511 406.732,319.283 C405.922,318.068 405.023,316.809 404.798,316.539 C404.033,315.64 402.054,315.325 400.525,315.909 C399.76,316.179 398.411,316.404 397.556,316.404 C396.702,316.404 395.307,316.629 394.453,316.899 C391.979,317.664 389.505,318.248 386.807,318.653 C385.457,318.878 383.029,319.373 381.409,319.777 C379.79,320.182 377.092,320.812 375.337,321.127 C373.628,321.487 370.885,322.071 369.265,322.476 C367.646,322.881 365.622,323.376 364.768,323.556 C362.429,324.095 360.72,324.86 360.72,325.355 C360.72,325.804 363.059,328.098 365.262,329.807 C365.892,330.302 366.972,331.562 367.691,332.596 C368.681,334.035 368.861,334.53 368.411,334.98 C367.826,335.565 368.006,335.655 360.495,331.157 C358.111,329.718 355.727,328.458 355.187,328.323 C353.793,327.963 350.6,329.178 347.811,331.112 C345.652,332.596 345.292,332.686 343.538,332.371 C338.051,331.337 335.442,332.101 334.858,334.89 C334.363,337.049 333.328,337.229 330.315,335.745 C327.391,334.26 326.672,334.17 325.053,334.89 C323.523,335.61 322.849,337.274 323.208,339.613 C323.613,342.491 322.804,342.581 317.541,340.062 C311.424,337.094 311.154,337.274 310.57,344.245 C310.255,348.248 308.951,351.622 307.781,351.397 C307.107,351.262 306.927,350.722 306.837,348.338 C306.657,344.38 306.072,343.795 304.408,345.864 C302.969,347.574 302.249,347.574 302.249,345.864 C302.249,344.245 301.799,343.391 300.9,343.391 C299.73,343.391 293.253,350.362 293.253,351.622 C293.253,352.701 294.738,354.32 297.032,355.715 C298.201,356.434 298.246,356.659 298.021,358.458 C297.796,359.897 297.886,360.572 298.426,361.112 C299.955,362.596 301.214,362.461 304.363,360.482 C306.027,359.448 308.006,358.548 308.771,358.458 C309.49,358.368 311.244,358.188 312.594,358.008 C314.573,357.739 315.562,357.873 317.721,358.683 C320.735,359.807 323.838,362.416 323.838,363.721 C323.838,364.575 323.658,364.62 321.949,364.26 C317.766,363.451 314.393,363.99 314.393,365.475 C314.393,366.959 315.652,368.983 317.091,369.703 C317.856,370.107 320.105,370.602 322.129,370.872 C334.363,372.401 333.059,372.041 335.083,374.245 C338.591,378.068 338.591,379.957 335.128,378.698 C332.519,377.798 328.606,377.798 327.706,378.743 C327.301,379.103 326.987,379.957 326.987,380.542 C326.987,383.466 325.367,384.23 317.991,384.815 C312.594,385.22 311.559,385.04 304.093,382.701 C302.969,382.341 301.619,382.071 301.079,382.071 C300.495,382.071 299.011,381.667 297.751,381.172 C293.478,379.508 288.216,380.317 287.586,382.746 C287.226,384.14 287.946,386.794 289.475,389.763 C290.915,392.641 290.825,392.686 286.417,391.742 z M170.69,340.647 C170.87,340.377 170.645,339.253 170.24,338.173 C169.07,335.115 165.697,333.81 163.988,335.7 C162.684,337.139 163.268,338.128 166.372,339.703 C169.475,341.232 170.24,341.412 170.69,340.647 z M203.074,322.656 C214.093,322.836 225.472,320.992 235.907,317.259 C237.166,316.854 238.696,316.359 239.325,316.224 C240,316.089 240.99,315.595 241.574,315.145 L242.609,314.29 L240.36,313.526 C238.966,313.076 237.571,312.896 236.627,313.076 C235.232,313.346 235.187,313.301 235.322,312.131 C235.547,310.017 234.378,309.747 230.69,311.007 L227.496,312.131 L226.462,310.827 L225.382,309.478 L222.774,310.062 C218.051,311.097 215.487,311.187 214.543,310.332 C213.778,309.658 213.598,309.658 211.484,310.782 C209.37,311.861 209.145,311.906 207.931,311.277 C207.256,310.917 206.312,310.197 205.862,309.658 C205.142,308.803 204.738,308.713 202.939,308.938 C201.769,309.118 199.835,309.747 198.621,310.377 C195.562,311.906 193.223,312.401 191.604,311.771 C190.48,311.367 189.985,311.412 188.726,312.086 C186.657,313.166 184.723,312.896 184.408,311.457 C184.228,310.692 183.778,310.287 183.059,310.152 C181.169,309.927 177.256,311.007 175.862,312.221 C174.648,313.211 174.513,313.616 174.513,315.864 C174.513,318.698 175.547,320.902 177.301,321.846 C179.011,322.791 183.373,323.106 190.48,322.836 C194.213,322.656 199.88,322.611 203.074,322.656 z M161.469,318.203 C161.919,317.978 162.954,316.809 163.718,315.64 C165.067,313.661 165.112,313.391 164.663,312.041 C164.168,310.737 164.258,310.287 165.112,308.488 C166.327,306.059 165.967,305.61 163.044,305.924 C159.4,306.374 160.03,304.71 164.798,301.472 C168.486,298.953 169.16,298.143 168.846,296.884 C168.666,296.074 169.026,295.355 170.375,293.78 C171.949,291.981 172.219,291.307 172.489,288.788 C172.669,287.169 172.759,284.335 172.624,282.491 C172.444,278.488 171.814,277.544 169.79,278.128 C168.531,278.443 168.441,278.623 168.441,280.512 C168.441,281.682 168.306,282.716 168.126,282.896 C167.631,283.391 166.012,282.671 164.348,281.232 C163.493,280.467 162.639,279.972 162.504,280.152 C162.324,280.332 162.549,281.502 162.999,282.806 C163.718,285.01 164.303,292.431 163.808,293.825 C163.448,294.86 162.684,294.365 159.4,291.217 C154.858,286.809 153.598,286.899 152.474,291.667 C152.159,293.016 151.169,296.884 150.315,300.212 C148.111,308.803 147.841,310.062 148.156,310.782 C148.606,311.951 150.855,311.502 153.958,309.658 C158.951,306.644 159.535,307.319 156.072,312.086 C153.733,315.325 153.508,316.134 154.993,316.224 C155.487,316.269 156.432,316.809 157.106,317.484 C158.321,318.698 159.985,318.968 161.469,318.203 z M97.961,317.214 C100.345,316.494 100.525,313.481 98.231,312.446 C96.657,311.727 96.567,311.727 94.993,313.256 C93.868,314.29 93.148,314.605 91.754,314.605 C89.55,314.605 86.807,315.685 86.807,316.494 C86.807,317.978 87.841,318.248 92.204,317.978 C94.543,317.798 97.151,317.484 97.961,317.214 z M137.091,314.83 C138.801,314.29 139.61,313.795 140.06,312.896 C140.735,311.547 142.894,303.99 144.378,297.738 C147.076,286.404 146.537,284.92 139.385,284.245 C134.888,283.84 133.268,285.145 131.964,290.317 C131.559,291.936 130.75,294.05 130.165,295.04 C129.265,296.614 129.13,297.559 128.951,303.181 C128.816,306.644 128.501,309.927 128.231,310.467 C127.466,311.951 127.646,313.211 128.861,314.38 C129.76,315.28 130.39,315.505 132.369,315.505 C133.673,315.505 135.832,315.19 137.091,314.83 z M104.393,308.038 C105.742,306.869 106.507,304.89 107.316,300.572 C108.126,296.254 109.475,293.376 111.769,291.217 C114.513,288.608 115.052,287.214 116.312,280.377 C118.156,269.987 118.156,269.987 113.029,274.44 C108.171,278.713 105.427,280.647 101.919,282.221 C98.681,283.661 93.913,284.92 91.709,284.92 C90.99,284.92 90,285.325 89.46,285.864 C88.201,287.124 88.561,289.688 90.135,291.037 C91.079,291.891 91.619,291.981 94.183,291.801 C97.017,291.577 97.151,291.577 97.646,292.746 C97.961,293.376 99.085,294.455 100.165,295.085 C101.244,295.715 102.054,296.479 101.964,296.749 C101.874,297.109 99.985,297.379 96.432,297.514 C89.55,297.828 88.336,298.503 87.032,302.731 C86.222,305.385 86.177,307.499 86.897,308.218 C87.211,308.533 88.741,308.803 90.405,308.803 C92.024,308.848 93.913,308.983 94.633,309.163 C95.352,309.298 97.646,309.298 99.67,309.163 C102.504,308.983 103.673,308.713 104.393,308.038 z M115.322,307.544 C115.952,306.599 117.166,304.035 118.066,301.786 C119.955,297.154 120.9,295.49 122.564,293.915 C123.238,293.286 123.958,292.431 124.183,292.026 C124.678,291.127 124.273,289.867 123.463,289.867 C122.474,289.867 118.246,295.175 117.616,297.154 C117.301,298.233 116.087,301.067 114.918,303.451 C112.939,307.499 112.624,309.208 113.793,309.208 C114.018,309.208 114.738,308.443 115.322,307.544 z M466.642,304.755 C467.361,304.44 467.002,304.215 464.843,303.586 C460.57,302.326 458.771,302.191 458.771,303.091 C458.771,304.665 464.078,305.745 466.642,304.755 z M67.871,298.863 C69.895,296.659 71.064,294.95 70.975,294.5 C70.885,293.915 69.49,293.241 66.252,292.116 C62.384,290.812 61.619,290.677 60.99,291.172 C60.09,291.891 60.09,294.14 60.9,297.604 C61.619,300.662 62.699,302.461 63.823,302.461 C64.273,302.461 66.072,300.887 67.871,298.863 z M74.753,301.697 C75.832,300.482 76.912,298.098 76.912,297.064 C76.912,295.715 75.247,296.029 74.123,297.559 C72.954,299.088 72.459,302.461 73.403,302.461 C73.763,302.461 74.393,302.101 74.753,301.697 z M78.936,287.394 C79.25,286.404 80.06,284.56 80.735,283.256 C81.949,281.007 81.949,280.782 81.499,277.679 C80.78,272.731 80.645,272.686 73.538,273.451 C70.12,273.855 63.373,274.125 57.301,274.125 C49.61,274.125 46.732,274.26 46.147,274.71 C45.202,275.385 45.517,276.329 47.046,277.409 C48.711,278.668 56.582,282.671 57.301,282.671 C57.661,282.671 59.011,281.771 60.315,280.647 C61.619,279.523 62.834,278.623 63.058,278.623 C63.598,278.623 63.508,279.703 62.744,281.547 C61.394,284.65 62.294,285.325 70.39,287.574 C78.576,289.777 78.216,289.777 78.936,287.394 z M95.442,281.322 C96.882,280.872 98.906,279.972 99.94,279.343 C101.829,278.263 110.915,269.268 116.492,263.061 C118.921,260.317 122.384,255.145 123.328,252.851 C124.273,250.647 121.214,248.938 116.312,248.938 C114.423,248.938 111.994,248.713 110.87,248.398 C109.295,247.993 108.261,247.993 106.372,248.353 C103.448,248.983 102.549,248.758 102.549,247.409 C102.549,246.149 104.933,244.755 108.396,243.99 C114.153,242.686 116.042,241.517 116.042,239.133 C116.042,238.503 116.897,237.199 118.246,235.759 C119.505,234.455 120.9,232.476 121.394,231.397 C121.889,230.272 122.969,228.608 123.778,227.664 C124.948,226.314 125.217,225.595 125.217,223.75 C125.262,221.726 125.082,221.367 123.418,219.613 C122.384,218.533 120.81,216.509 119.91,215.115 C119.011,213.676 117.886,212.326 117.391,212.056 C116.897,211.786 116.177,211.067 115.772,210.437 C115.052,209.358 115.052,209.268 115.952,208.413 L116.942,207.559 L115.862,204.725 C114.423,200.902 113.118,198.383 111.005,195.415 C110.06,194.065 109.16,192.221 109.026,191.322 C108.801,189.882 108.891,189.568 110.105,188.713 C111.589,187.678 112.219,186.149 112.669,182.596 C112.804,181.337 113.118,180.032 113.343,179.673 C114.108,178.458 114.918,179.987 114.918,182.596 C114.918,185.969 115.412,186.329 118.336,185.16 C119.595,184.62 121.035,184.17 121.529,184.17 C122.609,184.17 123.058,185.385 122.384,186.509 C121.934,187.229 121.979,187.589 122.564,188.488 C123.508,189.927 124.858,189.837 126.297,188.308 C128.051,186.464 129.085,186.014 131.739,186.059 C136.012,186.059 136.057,186.059 136.687,175.759 C136.957,170.857 137.406,165.325 137.631,163.481 C139.34,148.548 139.115,134.155 137.181,135.37 C136.957,135.505 136.237,137.394 135.562,139.553 C132.999,148.053 126.117,157.184 122.249,157.184 C121.889,157.184 120.405,157.589 118.921,158.128 C117.481,158.668 114.648,159.253 112.669,159.433 C109.79,159.702 108.441,160.107 106.012,161.412 C102.504,163.256 100.3,163.481 98.951,162.131 C97.691,160.872 97.826,159.702 99.4,157.948 C101.109,155.969 103.178,155.07 104.123,155.834 C104.483,156.149 104.798,156.689 104.798,157.004 C104.798,157.813 105.202,157.768 107.586,157.004 C112.849,155.205 116.357,154.53 117.841,154.935 C120.54,155.699 123.058,154.665 126.207,151.562 C129.445,148.278 131.334,144.725 132.909,138.968 C134.213,134.2 134.303,133.031 133.268,131.906 C132.189,130.737 129.625,130.872 124.993,132.446 C114.423,135.954 108.396,140.587 100.165,151.427 C98.051,154.215 95.487,157.544 94.498,158.758 C93.508,160.017 92.159,161.816 91.484,162.806 C90.765,163.795 88.741,166.269 86.942,168.248 C85.142,170.272 83.658,172.341 83.658,172.836 C83.658,173.286 83.208,174.365 82.624,175.22 C81.409,177.064 79.61,180.122 79.61,180.347 C79.61,180.482 80.24,180.842 80.96,181.247 C82.534,182.056 82.759,183.541 81.589,185.34 C80.645,186.779 80.96,188.893 82.489,191.142 C83.208,192.221 83.568,193.166 83.388,193.571 C83.208,193.975 82.939,196.224 82.804,198.563 C82.624,200.902 82.174,203.556 81.769,204.455 C81.364,205.355 80.915,206.974 80.735,208.053 C80.555,209.133 80.015,210.752 79.52,211.607 C77.856,214.665 76.597,216.554 75.607,217.589 C75.067,218.173 74.528,219.478 74.348,220.422 C73.988,222.806 71.604,229.643 70.795,230.542 C70.48,230.902 70.165,231.846 70.165,232.566 C70.165,233.96 68.951,235.4 66.522,236.884 C65.712,237.379 65.262,238.143 65.082,239.313 C64.948,240.212 64.498,241.337 64.093,241.741 C63.418,242.461 62.429,245.924 61.799,249.613 C61.259,252.536 64.903,255.685 68.816,255.685 C69.94,255.685 72.009,255.954 73.403,256.314 C76.912,257.124 77.181,256.854 77.496,252.131 C77.901,245.924 79.385,246.059 80.465,252.356 C81.679,259.598 84.333,263.286 89.865,265.58 C95.622,267.963 95.982,268.863 91.664,269.942 C88.516,270.707 87.076,272.326 87.436,274.53 C87.886,277.184 88.561,279.208 89.505,280.782 C90.585,282.491 91.664,282.626 95.442,281.322 z M140.555,279.747 C141.409,279.388 142.849,278.758 143.748,278.398 C147.796,276.689 142.624,273.945 138.216,275.475 C136.282,276.194 135.202,278.713 136.372,279.882 C137.091,280.602 138.621,280.557 140.555,279.747 z M144.333,270.347 C147.436,269.538 152.024,268.413 154.498,267.873 C165.697,265.355 165.742,265.355 165.877,264.41 C165.967,263.915 165.517,262.431 164.933,261.082 C163.763,258.383 163.178,256.089 162.324,250.512 C162.054,248.533 161.559,246.644 161.289,246.284 C160.75,245.61 155.712,245.879 149.595,247.004 C147.616,247.364 144.963,247.813 143.748,247.993 C141.049,248.443 140.465,249.163 140.15,252.491 C139.97,253.885 139.655,255.909 139.34,257.034 C138.531,260.182 138.396,263.331 138.981,265.22 C139.43,266.794 139.385,267.199 138.531,268.818 C137.676,270.482 137.586,271.876 138.351,271.876 C138.486,271.876 141.184,271.202 144.333,270.347 z M161.469,239.673 C161.964,239.133 161.919,238.863 161.334,238.278 C160.75,237.649 160.435,237.649 159.265,238.143 C157.826,238.728 157.421,239.673 158.456,240.077 C159.58,240.572 160.93,240.392 161.469,239.673 z M180.135,239.088 C181.889,238.818 184.903,238.413 186.882,238.143 C193.133,237.334 196.327,236.659 196.957,236.074 C197.496,235.58 197.361,235.265 196.057,234.005 C192.639,230.767 188.906,227.798 188.231,227.798 C187.826,227.798 185.532,228.653 183.148,229.643 C180.765,230.677 176.492,232.296 173.703,233.241 C170.915,234.185 167.946,235.31 167.091,235.714 C165.292,236.569 164.618,238.188 165.562,239.358 C166.102,239.987 166.957,240.032 171.589,239.807 C174.558,239.673 178.426,239.358 180.135,239.088 z M137.316,235.4 C141.769,233.421 143.613,233.241 145.952,234.545 L147.841,235.58 L152.744,234.14 C161.469,231.577 161.874,231.397 162.549,230.137 C162.864,229.463 163.403,227.214 163.673,225.1 C163.988,222.986 164.843,218.443 165.562,214.98 C169.88,194.785 170.825,188.983 170.015,187.993 C169.25,187.049 167.856,187.723 166.147,189.837 C165.247,190.917 163.763,192.266 162.864,192.806 C161.964,193.346 160.21,194.83 158.951,196.134 C155.982,199.193 151.079,201.711 148.111,201.711 C143.163,201.711 140.915,200.137 138.486,195.055 C137.316,192.581 136.867,192.086 135.112,191.277 C132.459,190.152 129.715,190.152 126.972,191.367 C124.183,192.581 122.789,193.93 122.789,195.37 C122.789,196.629 126.387,200.362 130.615,203.511 C135.067,206.794 139.295,211.247 139.97,213.406 C140.375,214.53 140.915,216.149 141.229,217.004 C142.129,219.478 141.949,220.332 139.205,225.685 C136.507,230.947 135.922,231.711 134.033,232.161 C130.795,232.926 130.345,236.704 133.493,236.794 C133.853,236.794 135.562,236.164 137.316,235.4 z M179.37,226.359 C182.429,225.325 185.352,224.155 185.847,223.75 L186.792,222.986 L185.847,217.858 C185.307,215.025 184.588,208.683 184.183,203.735 C183.373,192.851 182.699,186.059 182.159,183.046 C181.934,181.831 181.484,179.403 181.214,177.649 C180.675,174.365 179.775,170.587 178.966,168.113 C178.336,166.134 177.256,166.224 175.232,168.428 C173.748,170.092 173.613,170.452 173.883,171.936 C174.333,174.455 174.873,175.175 176.222,175.175 C179.145,175.175 179.28,177.244 176.537,179.942 C174.378,182.101 174.243,182.416 173.838,187.004 C173.523,190.782 171.994,199.643 171.094,203.286 C170.69,204.77 170.105,207.469 169.745,209.358 C169.43,211.202 168.531,215.655 167.811,219.253 C166.327,226.314 166.102,229.418 167.002,229.732 C167.676,229.957 172.264,228.743 179.37,226.359 z M151.889,198.068 C153.913,197.079 160.165,192.086 160.525,191.142 C160.615,190.917 162.594,188.893 164.888,186.734 C169.97,181.921 170.915,180.167 170.915,175.714 C170.915,168.383 168.081,167.888 164.303,174.59 C161.469,179.673 157.421,183.99 153.733,185.834 C150.81,187.319 146.852,188.668 145.412,188.668 C145.008,188.668 143.748,189.028 142.669,189.433 C140.825,190.107 140.735,190.242 140.915,191.547 C141.634,195.819 141.904,196.269 144.603,198.248 C146.717,199.777 148.471,199.732 151.889,198.068 z M147.706,185.655 C150.495,185.385 153.014,183.99 156.432,180.842 C159.805,177.693 162.144,173.421 160.48,173.376 C160.165,173.376 158.141,173.78 156.027,174.365 C152.249,175.31 152.114,175.31 150.045,174.545 C148.561,173.96 147.571,173.196 146.717,171.936 L145.547,170.137 L145.187,154.08 C144.828,136.494 144.468,133.391 142.714,132.716 C142.354,132.581 141.904,132.536 141.724,132.626 C141.544,132.761 141.454,137.169 141.589,142.431 C141.769,151.427 141.634,154.26 140.33,164.83 C138.801,177.064 138.441,185.34 139.385,185.924 C139.925,186.284 142.489,186.194 147.706,185.655 z M154.948,172.431 C155.937,172.206 158.231,171.217 159.985,170.317 C164.303,168.158 164.843,167.169 164.798,160.782 C164.798,152.506 162.009,146.434 155.307,140.047 C151.439,136.404 148.966,134.83 147.751,135.325 C147.076,135.55 147.032,135.909 147.346,137.978 C147.526,139.238 147.706,146.884 147.706,154.935 C147.751,168.293 147.841,169.687 148.561,170.812 C149.865,172.836 151.709,173.286 154.948,172.431 z M81.949,167.079 C82.534,166.314 85.412,162.941 88.336,159.523 C91.304,156.149 95.262,151.337 97.196,148.863 C104.123,139.957 110.6,134.335 118.021,130.827 C120.54,129.613 122.609,129.073 127.106,128.398 C130.3,127.948 132.954,127.544 132.999,127.499 C133.044,127.499 133.313,127.094 133.583,126.599 C133.988,125.834 133.853,125.16 132.909,123.091 C131.514,120.032 130.345,118.728 128.006,117.514 C121.934,114.41 112.894,117.514 102.369,126.374 C98.276,129.837 89.1,140.587 82.669,149.448 C81.184,151.517 81.184,151.607 81.589,156.149 C81.904,159.568 81.859,160.017 80.78,162.401 C80.15,163.795 79.475,165.729 79.34,166.674 C79.07,168.248 79.16,168.428 79.97,168.428 C80.465,168.428 81.364,167.798 81.949,167.079 z M176.177,161.412 C176.537,160.467 173.118,153.9 171.049,151.562 L169.475,149.762 L169.745,151.562 C170.15,154.395 172.039,160.287 172.849,161.277 C173.748,162.311 175.772,162.401 176.177,161.412 z M141.409,126.779 C141.814,125.744 140.285,122.821 139.25,122.596 C138.486,122.461 138.441,122.686 138.666,124.305 C139.026,127.094 140.735,128.578 141.409,126.779 z" fill="#000000"/>
  </g>
</svg>
