<?xml version="1.0" encoding="UTF-8"?>
<!DOCTYPE svg PUBLIC "-//W3C//DTD SVG 1.1//EN" "http://www.w3.org/Graphics/SVG/1.1/DTD/svg11.dtd">
<svg version="1.1" xmlns="http://www.w3.org/2000/svg" xmlns:xlink="http://www.w3.org/1999/xlink" x="0" y="0" width="500" height="500" viewBox="0, 0, 500, 500">
  <g id="layer101">
    <path d="M158.243,492.994 C156.098,492.604 154.993,491.629 154.993,490.199 C154.993,489.549 153.953,488.378 152.717,487.598 C151.482,486.818 150.442,485.908 150.442,485.583 C150.442,484.087 146.866,485.128 144.461,487.338 C141.795,489.679 140.3,489.939 139.195,488.183 C137.959,486.233 140.56,482.657 147.256,477.196 C151.287,473.88 154.213,470.955 154.993,469.395 C155.708,467.964 156.293,466.729 156.293,466.534 C156.293,465.559 153.757,464.129 149.922,462.958 C140.495,460.163 139.975,460.098 135.229,461.203 C132.108,461.983 130.483,462.048 129.573,461.593 C126.842,460.098 128.597,456.782 133.734,453.856 C136.789,452.101 138.024,451.841 144.331,451.451 C149.467,451.126 152.197,451.256 154.018,451.841 C155.578,452.361 160.649,452.751 167.28,452.816 C178.982,452.946 181.648,453.401 187.629,456.457 C193.09,459.188 194.586,459.122 198.356,455.807 C200.047,454.247 201.932,452.361 202.452,451.516 C203.752,449.501 209.539,444.625 215.455,440.464 C222.541,435.523 232.878,424.536 235.479,419.14 C237.299,415.564 237.624,414.264 237.234,412.313 C236.584,408.672 233.463,406.137 227.807,404.447 C213.764,400.286 203.102,394.955 196.276,388.648 C193.415,385.983 189.45,382.602 187.369,381.107 C184.053,378.702 183.533,377.921 181.713,373.305 C179.698,368.039 179.113,363.163 180.023,358.678 L180.478,356.207 L173.066,356.662 C167.345,356.987 164.485,356.857 160.259,356.012 C157.268,355.427 154.668,355.037 154.473,355.232 C154.278,355.427 153.237,354.907 152.132,354.062 C151.027,353.216 148.036,351.786 145.501,350.876 C142.965,349.966 139.78,348.471 138.414,347.56 C136.984,346.585 135.034,345.87 133.734,345.87 C129.768,345.87 128.142,347.3 125.217,353.346 C123.722,356.402 120.471,361.928 117.935,365.634 C115.465,369.34 113.384,372.915 113.384,373.5 C113.384,375.646 109.484,380.977 107.923,380.977 C107.078,380.977 105.778,381.692 104.933,382.602 C104.153,383.447 101.097,385.723 98.171,387.543 C95.246,389.429 92.32,391.314 91.605,391.834 C90.89,392.289 89.2,393.459 87.769,394.37 C86.404,395.28 82.178,397.425 78.343,399.051 L71.451,402.041 L60.399,402.106 L49.347,402.106 L44.341,399.701 C39.855,397.555 38.88,396.71 34.134,390.989 C30.948,387.153 28.543,383.578 28.088,382.017 C26.787,377.661 27.047,364.399 28.413,360.173 C30.623,353.672 41.025,333.258 43.756,330.137 C49.217,323.961 55.198,323.376 60.009,328.577 C61.179,329.812 61.699,331.242 61.894,333.648 C62.089,336.573 61.894,337.418 60.464,339.369 C56.043,345.48 54.158,348.666 51.427,354.322 C46.616,364.399 45.771,366.934 45.771,371.615 C45.771,375.711 45.901,376.101 48.437,379.092 C49.932,380.847 51.687,382.602 52.467,382.992 C53.183,383.382 56.628,383.708 60.139,383.643 C65.86,383.578 67.16,383.317 71.711,381.367 C78.408,378.572 91.67,369.86 92.32,367.844 C92.58,366.999 93.881,365.049 95.246,363.489 C98.887,359.393 104.348,351.071 104.738,348.991 C104.933,348.015 106.038,346.13 107.208,344.765 C110.394,340.994 110.784,339.889 110.784,334.363 C110.784,329.552 110.654,329.097 108.443,326.041 C104.088,319.995 101.877,314.664 100.122,306.277 C98.366,297.825 97.196,295.29 92.905,290.999 C91.605,289.699 89.46,288.399 87.899,287.944 C83.739,286.838 76.067,287.553 71.386,289.504 C68.266,290.869 66.185,291.194 60.789,291.389 C55.003,291.584 53.963,291.454 53.378,290.479 C52.792,289.569 52.922,288.984 54.093,287.553 C54.873,286.578 56.108,284.628 56.823,283.263 C57.603,281.832 60.074,279.492 62.739,277.476 C69.826,272.34 70.736,269.155 66.575,263.889 C65.145,262.068 63.715,259.533 63.39,258.233 C59.749,243.735 59.164,240.159 59.294,231.772 C59.359,222.476 60.334,217.6 65.21,201.216 C66.705,196.21 67.81,191.399 67.745,190.489 C67.29,186.848 62.869,188.539 55.978,194.845 C50.517,199.851 46.226,201.801 37.124,203.557 C31.533,204.597 24.187,203.687 15.995,200.826 C5.008,196.925 4.943,196.86 4.163,189.254 C3.903,186.523 2.863,182.102 1.887,179.437 C0.522,175.731 0.067,173.261 0.002,169.035 C-0.063,163.379 1.497,154.732 3.253,151.351 C4.423,149.141 7.673,139.974 9.039,135.098 C9.689,132.758 10.989,130.417 12.614,128.532 C14.045,126.907 15.215,125.411 15.215,125.151 C15.215,124.891 15.865,123.786 16.71,122.681 C18.596,119.95 22.431,112.799 29.518,98.366 C37.709,81.723 39.465,80.032 49.282,79.837 C56.628,79.707 58.384,82.373 56.888,91.279 C56.498,93.815 55.848,97.586 55.458,99.731 C55.133,101.942 54.093,104.607 52.987,106.232 C48.242,113.189 43.691,121.771 42.52,125.801 C41.35,129.832 40.05,132.108 35.044,139.064 C34.134,140.299 33.094,142.38 32.768,143.745 C32.378,145.11 31.858,146.41 31.533,146.605 C31.208,146.8 28.933,150.961 26.527,155.902 L22.041,164.809 L22.106,172.286 C22.171,183.923 24.187,186.913 31.793,186.913 C37.449,186.913 40.505,185.093 48.957,176.836 C54.808,171.115 57.213,169.23 61.569,167.085 C66.38,164.679 67.16,164.419 70.151,164.809 C76.977,165.719 82.893,170.595 85.494,177.422 C87.249,182.167 88.68,189.709 88.68,194.26 C88.68,197.901 87.314,205.507 86.144,208.693 C83.609,215.454 81.918,219.55 81.463,220.135 C81.138,220.525 80.878,222.15 80.943,223.711 C80.943,225.271 80.813,228.067 80.553,229.887 C80.163,232.683 80.358,233.853 81.853,237.363 C82.828,239.639 83.869,242.174 84.194,243.02 C84.974,245.035 87.314,245.815 94.921,246.335 C106.428,247.18 126.127,245.49 141.86,242.239 C150.897,240.419 151.547,239.899 150.442,235.543 C149.532,231.902 150.182,227.677 152.457,222.28 C154.213,218.25 157.268,215.519 164.225,211.683 C171.896,207.523 172.286,207.002 171.246,202.647 C170.531,199.461 170.531,198.876 171.831,196.015 C172.611,194.26 173.977,191.854 174.887,190.684 C177.552,187.173 178.917,183.338 179.373,177.812 C179.633,174.951 180.283,171.83 180.738,170.855 C181.973,168.45 186.589,166.759 190.62,167.345 C207.263,169.75 216.56,170.27 217.145,168.775 C217.6,167.54 215.065,155.122 213.829,152.782 C213.309,151.741 211.619,149.336 210.059,147.451 C208.563,145.565 206.548,142.965 205.573,141.729 C202.257,137.309 187.174,122.486 184.899,121.445 C166.24,112.539 165.85,112.344 160.519,112.019 C154.278,111.628 146.736,112.669 143.225,114.424 C141.86,115.139 138.154,117.415 135.034,119.495 C127.622,124.436 113.84,131.587 110.134,132.498 C108.508,132.888 103.698,133.408 99.472,133.668 L91.735,134.123 L85.494,127.687 C82.048,124.111 78.017,120.21 76.522,119.04 C74.702,117.675 73.532,116.179 73.141,114.619 C72.751,113.319 71.646,111.238 70.606,109.938 C66.965,105.322 66.055,103.177 65.6,98.366 C65.08,93.23 66.055,90.369 68.396,90.369 C70.281,90.369 77.172,94.855 82.958,99.926 C85.949,102.527 89.525,105.387 90.955,106.362 C92.385,107.338 94.271,108.638 95.116,109.288 C97.716,111.368 106.363,110.653 111.434,107.923 C112.214,107.533 115.66,104.542 119.106,101.356 C123.526,97.326 126.192,95.31 127.947,94.855 C133.213,93.425 137.634,91.019 140.17,88.094 C141.6,86.468 143.225,85.168 143.745,85.168 C144.331,85.168 146.281,86.078 148.036,87.249 C150.767,89.004 152.067,89.394 156.878,89.719 C160.129,89.979 163.704,90.759 165.395,91.474 C168.385,92.775 176.317,95.375 183.143,97.261 C185.679,97.911 188.019,99.211 190.1,100.966 C206.873,115.269 213.894,121.575 218.055,125.996 C223.516,131.783 227.807,137.179 229.302,140.104 C229.823,141.209 230.928,142.64 231.708,143.355 C232.488,144.07 233.593,145.5 234.113,146.475 C234.634,147.516 235.219,148.231 235.349,148.036 C236.324,147.061 232.293,123.786 230.213,118.325 C227.417,111.043 223.906,96.546 223.906,92.19 C223.906,90.369 224.296,89.459 225.597,88.484 C227.872,86.664 229.367,86.794 231.253,88.744 C233.008,90.629 237.689,102.267 239.249,108.573 C239.835,110.913 240.55,113.124 240.875,113.514 C241.2,113.904 242.045,115.854 242.695,117.805 C243.345,119.69 244.516,122.551 245.296,124.046 C246.011,125.476 246.661,127.817 246.661,129.052 C246.661,130.352 246.856,131.327 247.181,131.197 C247.441,131.132 249.326,130.157 251.407,129.117 C254.788,127.427 255.373,127.362 257.973,128.012 C259.598,128.402 262.199,128.727 263.824,128.727 C265.385,128.727 268.57,129.312 270.846,130.027 C276.242,131.717 277.802,131.652 280.468,129.702 C281.833,128.727 283.133,128.207 283.848,128.467 C285.669,128.987 286.774,127.752 288.399,123.396 C290.09,118.65 291.52,117.74 295.031,119.235 C297.826,120.405 297.176,120.665 304.197,114.944 C308.748,111.303 314.079,108.508 318.24,107.598 C323.181,106.492 332.088,101.551 339.174,95.96 C345.09,91.279 352.177,79.967 355.623,69.76 C357.118,65.404 357.313,63.974 356.988,59.813 C356.143,49.086 353.477,41.87 348.211,36.279 C344.44,32.248 335.664,26.332 330.723,24.576 C324.156,22.236 313.949,22.886 298.216,26.722 C294.38,27.697 286.709,32.053 283.848,34.913 C281.768,36.994 278.192,38.229 276.242,37.449 C275.592,37.189 275.267,36.149 275.267,33.938 C275.267,31.012 275.527,30.557 278.777,27.242 C283.718,22.366 289.895,16.905 292.04,15.604 C296.526,12.874 310.634,8.518 315.12,8.453 C316.81,8.453 319.93,7.933 322.076,7.348 C325.587,6.373 326.822,6.373 333.323,7.153 C337.354,7.608 340.93,8.193 341.255,8.453 C341.645,8.713 343.855,9.363 346.326,9.948 C349.836,10.728 351.657,11.639 355.428,14.564 C358.093,16.58 360.368,18.205 360.629,18.205 C360.889,18.205 363.229,19.96 365.895,22.106 C372.201,27.177 377.142,34.913 379.807,43.885 C382.993,54.742 383.123,55.392 382.863,69.11 C382.733,81.072 382.538,82.763 380.978,87.964 C378.247,97.066 373.696,105.062 365.374,115.269 C356.598,126.061 356.533,126.191 357.183,127.427 C357.508,128.012 359.198,129.052 360.889,129.702 C364.724,131.132 365.895,132.108 368.69,136.203 C369.86,138.024 371.551,140.429 372.396,141.599 C373.241,142.77 374.151,145.175 374.411,146.931 C374.801,149.921 374.671,150.441 372.526,153.692 C369.275,158.568 368.235,158.698 364.074,154.342 C360.824,151.026 360.434,150.831 357.378,150.831 C354.517,150.831 353.737,150.506 351.267,148.361 C348.341,145.76 345.155,144.33 342.425,144.33 C341.385,144.33 339.694,145.63 337.159,148.296 C335.143,150.506 331.893,153.302 330.072,154.472 C328.187,155.707 326.627,157.073 326.627,157.593 C326.627,158.113 327.602,159.218 328.772,159.998 C329.877,160.778 331.763,162.274 332.933,163.379 C334.688,165.069 335.274,165.264 337.484,164.874 C338.849,164.614 343.27,164.159 347.301,163.769 C354.322,163.119 354.777,163.184 357.053,164.484 C359.198,165.784 359.978,165.849 365.635,165.459 C371.551,165.069 372.006,165.134 375.777,166.954 C380.327,169.165 381.368,170.985 382.538,178.657 C383.318,183.598 382.928,185.288 380.262,188.799 C379.352,189.969 378.637,191.529 378.637,192.31 C378.637,195.885 388.064,203.752 394.565,205.507 C395.931,205.897 397.881,206.807 398.791,207.523 C399.701,208.238 402.497,209.993 404.967,211.358 C413.159,215.974 416.28,218.12 421.286,222.345 C427.007,227.221 432.923,233.073 435.003,235.738 C436.239,237.428 436.824,237.624 440.204,237.689 C442.285,237.754 444.365,237.819 444.82,237.884 C445.275,237.884 446.121,238.989 446.641,240.289 C447.161,241.589 449.046,244.06 450.801,245.815 C455.352,250.366 457.238,254.722 457.758,261.548 C458.148,266.944 458.083,267.204 456.002,270.845 L453.922,274.551 L456.718,280.142 C459.058,284.693 460.293,286.318 463.804,289.114 C478.497,301.141 478.562,301.401 477.197,322.595 C476.677,330.202 475.961,337.158 475.636,338.068 C475.246,338.979 472.971,342.684 470.565,346.195 C465.559,353.542 457.368,361.863 452.362,364.724 C448.526,366.934 447.226,368.234 447.876,369.275 C448.071,369.6 449.826,370.9 451.647,372.135 C453.532,373.305 456.393,375.711 458.018,377.466 C460.553,380.262 461.399,381.887 463.869,389.104 C466.73,397.49 466.73,397.62 466.535,405.552 C466.34,415.369 464.519,421.935 460.748,426.551 C454.637,434.028 451.127,437.993 449.241,439.619 C446.121,442.219 447.681,442.544 453.272,440.269 C461.464,436.953 464.584,436.563 473.426,437.538 C481.813,438.448 485.973,440.074 493.515,445.405 C495.595,446.9 497.936,448.33 498.781,448.655 C500.406,449.306 500.406,450.411 498.781,451.451 C498.066,451.906 496.571,451.711 493.775,450.866 C490.849,450.021 488.769,449.826 485.648,450.086 C478.497,450.736 475.506,453.141 475.506,458.212 C475.506,460.488 475.896,461.593 477.457,463.348 C478.757,464.779 479.342,466.014 479.082,466.729 C478.887,467.379 479.017,468.679 479.342,469.655 C480.187,471.735 479.732,471.8 473.816,470.305 C469.85,469.265 469.395,469.265 467.38,470.24 C466.145,470.825 464.714,472.19 464.129,473.295 C463.154,475.246 463.154,475.506 464.389,477.911 C466.34,481.552 465.104,484.022 461.724,483.307 C460.748,483.112 457.628,483.307 454.702,483.762 L449.501,484.478 L446.901,481.552 C443.715,477.976 440.529,476.741 431.558,475.766 C425.056,475.051 424.991,475.051 418.75,477.131 C412.574,479.211 412.444,479.211 408.998,478.236 C404.707,477.001 402.952,475.116 402.367,471.215 C401.782,467.379 399.051,463.153 394.63,459.318 C392.03,456.977 390.925,456.392 389.364,456.522 C387.674,456.717 387.154,457.302 385.398,460.813 C384.228,463.088 382.018,466.144 380.457,467.639 C378.832,469.134 376.687,471.93 375.647,473.88 C373.826,477.326 368.43,482.397 366.61,482.397 C365.374,482.397 364.334,479.342 364.074,474.596 C363.944,472.255 363.424,469.525 362.969,468.549 C362.254,466.989 362.319,466.534 363.554,464.974 C365.765,462.243 366.285,460.618 365.635,458.342 C365.114,456.522 365.309,456.067 367.975,453.076 C369.535,451.321 371.356,448.785 372.071,447.42 C372.721,446.12 374.086,444.3 375.061,443.389 C377.857,440.789 378.832,438.448 377.922,436.693 C377.077,435.198 369.47,425.771 365.895,421.935 C364.789,420.7 362.514,418.229 360.889,416.409 C359.263,414.654 356.858,412.053 355.623,410.688 C354.322,409.323 352.892,407.307 352.437,406.137 C351.202,403.341 350.552,402.886 344.375,400.806 C341.45,399.831 337.549,398.01 335.664,396.84 C330.333,393.264 329.227,393.915 328.902,400.741 C328.772,403.406 328.382,404.252 326.952,405.357 C325.457,406.592 325.262,407.112 325.652,409.128 C326.237,412.118 325.587,414.784 324.351,414.784 C323.181,414.784 321.036,409.973 319.995,404.967 C318.89,399.636 318.175,399.116 313.039,399.831 C308.293,400.481 306.408,401.911 303.872,406.722 C302.962,408.412 301.142,411.728 299.711,414.004 C298.346,416.344 295.941,421.025 294.38,424.471 C290.025,433.832 287.359,436.693 285.799,433.832 C285.344,433.117 285.539,431.687 286.319,429.477 C289.764,419.725 295.356,401.001 295.616,398.205 C296.071,394.175 294.575,387.478 293.015,386.373 C292.43,385.918 291.39,385.723 290.675,385.918 C289.049,386.438 279.232,396.71 277.282,399.896 L275.787,402.431 L277.152,406.202 C278.387,409.453 278.517,410.428 277.867,413.093 C277.477,414.784 276.762,416.994 276.307,417.969 C275.332,419.79 269.415,425.446 264.539,429.087 C258.038,434.028 248.026,445.34 240.615,456.197 C238.599,459.188 234.894,463.543 232.358,465.949 C229.042,469.199 227.807,470.825 227.807,472.06 C227.807,473.815 221.761,482.657 217.47,487.143 C211.164,493.839 202.192,494.294 192.18,488.443 C189.385,486.753 188.604,486.623 182.623,486.623 C176.642,486.688 175.797,486.818 172.221,488.703 C170.076,489.809 167.735,491.304 167.085,492.084 C165.85,493.449 162.599,493.774 158.243,492.994 z M443.91,414.784 C446.316,410.038 446.381,409.778 445.991,405.032 C445.275,396.645 441.505,390.989 433.898,387.153 C429.672,385.008 427.982,385.203 427.202,387.933 C426.552,390.144 426.552,390.209 431.493,398.856 C434.028,403.341 435.393,407.112 438.839,419.205 C439.424,421.22 441.505,419.4 443.91,414.784 z M277.607,396.515 C277.802,396.125 277.607,395.085 277.152,394.24 C276.437,392.809 276.502,392.224 278.062,389.234 C280.403,384.683 283.328,380.522 287.684,375.256 C289.699,372.85 291.845,369.925 292.43,368.82 C293.34,366.934 293.34,366.674 292.43,365.764 C290.805,364.074 287.814,364.529 283.198,367.259 C277.217,370.705 275.267,371.03 272.146,369.21 C270.846,368.43 269.61,367.649 269.48,367.584 C268.765,366.999 271.236,365.309 274.161,364.334 C276.047,363.749 279.037,362.578 280.793,361.798 C282.613,361.018 285.409,359.848 287.034,359.263 C291.52,357.637 292.43,356.792 291.91,354.777 C291.455,352.761 289.439,352.436 287.424,353.997 C286.709,354.452 284.954,355.102 283.523,355.297 C282.028,355.557 279.753,356.402 278.517,357.182 C277.282,358.027 274.031,359.328 271.366,360.173 C268.7,361.018 266.165,361.928 265.71,362.318 C265.19,362.643 264.865,365.049 264.734,368.43 C264.604,372.915 264.344,374.151 263.434,374.736 C261.484,375.906 260.184,374.411 258.233,368.95 C257.258,366.219 256.348,363.814 256.218,363.684 C255.828,363.228 244.06,366.544 243.085,367.324 C241.525,368.625 241.915,369.925 245.036,373.891 C246.661,375.971 249.066,379.612 250.367,382.082 C251.667,384.488 252.902,386.633 253.162,386.828 C253.422,387.023 253.942,387.803 254.397,388.583 C255.373,390.469 261.159,393.329 263.954,393.329 C265.58,393.329 266.425,393.72 267.205,394.89 C267.725,395.8 268.7,396.645 269.285,396.775 C271.561,397.36 277.152,397.23 277.607,396.515 z M357.183,379.352 C357.183,378.311 348.796,370.055 345.09,367.389 C342.425,365.504 340.93,365.959 340.93,368.69 C340.93,371.42 345.025,375.451 350.682,378.311 C355.167,380.522 357.183,380.847 357.183,379.352 z M419.4,355.232 C421.806,353.932 426.422,351.721 429.542,350.356 C439.749,345.805 445.21,342.294 450.021,337.028 C456.718,329.617 458.408,325.001 456.328,320.06 C454.962,316.809 453.662,315.444 451.387,314.989 C448.461,314.339 447.161,315.119 445.015,318.89 C442.155,323.961 437.019,328.837 429.997,333.193 C422.651,337.743 418.1,339.239 409.843,340.019 C403.212,340.604 399.051,341.449 397.946,342.554 C396.711,343.79 398.011,345.22 400.351,345.22 C402.107,345.22 403.017,345.74 404.772,347.69 C405.943,349.056 407.893,350.811 409.063,351.656 C410.558,352.696 411.144,353.607 411.144,354.907 C411.144,355.882 411.339,356.922 411.599,357.117 C412.509,358.092 415.174,357.442 419.4,355.232 z M181.128,331.827 C185.549,330.397 186.589,329.747 189.97,326.106 C193.87,321.88 195.301,318.695 195.301,314.014 C195.301,311.348 194.196,311.738 191.855,315.184 C189.775,318.305 188.344,318.63 187.759,316.289 C186.979,313.104 188.149,308.423 192.31,298.931 C193.285,296.655 193.285,296.265 191.66,291.259 C190.1,286.448 189.84,286.058 188.149,286.058 C182.623,286.058 170.661,301.401 169.491,309.983 C168.775,315.444 166.695,316.289 164.745,311.933 C164.03,310.373 163.444,308.553 163.444,307.837 C163.379,307.122 162.989,305.692 162.599,304.652 L161.754,302.766 L155.968,308.748 C150.052,314.794 148.947,316.614 147.841,322.66 C147.126,326.301 147.841,328.317 150.312,329.747 C151.807,330.592 159.414,332.542 166.045,333.778 C169.231,334.363 176.187,333.453 181.128,331.827 z M217.535,332.282 C218.38,331.957 219.811,331.502 220.786,331.307 C221.696,331.112 223.906,329.812 225.662,328.382 C227.417,327.016 229.823,325.391 230.993,324.806 C233.333,323.571 233.333,322.075 230.993,322.27 C230.148,322.335 227.937,322.53 226.052,322.66 C222.606,322.92 220.201,324.221 215.65,328.512 C212.139,331.827 213.244,333.973 217.535,332.282 z M392.615,311.348 C395.02,310.113 395.54,310.048 400.546,310.828 C406.463,311.673 408.543,311.218 411.209,308.423 C411.989,307.577 413.224,306.862 413.874,306.862 C415.629,306.862 417.645,305.692 417.645,304.652 C417.645,304.132 418.685,302.506 419.92,301.011 C422.326,298.151 422.586,296.98 421.546,294.185 C421.026,292.819 421.221,291.779 422.326,289.244 C424.081,285.018 423.561,284.498 416.67,283.133 C408.673,281.637 397.946,275.916 388.974,268.44 C385.073,265.189 383.513,265.059 384.033,268.05 C386.504,281.832 387.089,285.928 387.089,290.804 C387.089,298.281 385.984,305.302 384.358,308.293 C383.578,309.593 383.188,311.088 383.383,311.673 C383.968,313.234 389.429,313.038 392.615,311.348 z M128.272,304.717 C128.663,304.197 129.703,301.856 130.613,299.451 C133.343,292.104 132.628,287.618 127.817,283.328 C123.917,279.752 115.79,277.606 114.88,279.947 C114.685,280.467 116.375,284.628 118.781,289.504 C121.121,294.25 123.787,299.776 124.697,301.856 C126.387,305.692 127.037,306.212 128.272,304.717 z M260.379,158.373 C261.354,157.528 262.589,156.682 263.044,156.487 C264.604,155.902 262.069,154.082 258.428,153.107 C255.568,152.392 254.983,152.392 254.723,153.107 C254.267,154.277 256.803,159.933 257.713,159.933 C258.168,159.933 259.338,159.218 260.379,158.373 z" fill="#000000"/>
  </g>
</svg>
