<?xml version="1.0" encoding="UTF-8"?>
<!DOCTYPE svg PUBLIC "-//W3C//DTD SVG 1.1//EN" "http://www.w3.org/Graphics/SVG/1.1/DTD/svg11.dtd">
<svg version="1.1" xmlns="http://www.w3.org/2000/svg" xmlns:xlink="http://www.w3.org/1999/xlink" x="0" y="0" width="500" height="500" viewBox="0, 0, 500, 500">
  <g id="layer102">
    <path d="M190.091,491.384 C190.523,487.076 193.539,481.044 197.201,476.952 C202.801,470.489 204.525,465.967 203.662,460.581 C203.447,459.72 204.525,456.919 205.817,454.549 C207.54,451.104 207.324,448.088 204.739,441.842 C203.016,437.317 201.94,433.44 202.37,433.009 C202.801,432.579 204.739,417.5 206.678,399.836 C208.616,381.958 210.986,365.588 212.063,363.218 C213.787,359.771 213.57,350.294 212.063,350.294 C211.849,350.294 211.417,347.063 210.986,343.401 C210.556,337.585 211.202,336.292 214.648,336.292 C216.803,336.292 218.095,335.431 217.449,334.139 C216.803,333.062 220.68,322.937 226.28,311.521 L236.405,291.058 L254.067,291.058 C268.069,291.058 272.377,291.919 274.961,294.935 C280.132,300.535 292.408,327.461 292.408,333.062 C292.408,336.292 293.271,337.801 294.995,337.155 C298.01,335.861 300.81,347.063 298.225,350.294 C296.287,352.879 296.287,351.372 302.533,400.914 C305.979,428.701 306.627,439.687 304.903,442.271 C302.102,446.579 301.887,453.257 304.04,455.627 C304.903,456.488 305.764,460.796 306.195,465.104 C306.41,470.921 308.349,474.798 313.088,478.891 C317.827,483.199 319.334,486.215 319.12,491.815 L318.688,498.923 L366.938,499.569 L414.973,500 L413.466,489.877 C412.389,484.06 411.313,474.151 411.097,467.69 C410.236,452.826 408.081,441.842 405.928,441.842 C405.065,441.842 403.773,440.118 403.127,438.18 C402.481,436.025 396.449,418.792 389.556,399.836 C382.878,380.882 376.202,361.28 374.908,356.326 C373.401,351.372 371.678,346.632 370.817,345.771 C369.954,344.908 369.308,341.463 369.308,338.016 C369.308,334.139 368.232,331.984 366.077,331.984 C364.354,331.984 362.847,330.692 362.847,329.4 C362.847,327.893 361.338,323.799 359.616,320.352 C357.03,315.614 356.815,313.46 358.753,311.09 C360.692,308.72 360.262,306.998 356.6,303.336 C354.231,300.535 352.076,296.442 352.076,294.074 C352.076,291.704 351.215,288.903 350.137,287.826 C346.907,284.38 335.489,251.423 332.69,237.852 C329.674,221.697 326.658,216.097 321.058,215.236 C317.396,214.805 316.319,212.866 315.889,205.974 C315.458,201.234 313.734,195.849 312.01,193.91 C308.134,189.602 310.072,179.048 314.595,179.048 C318.257,179.048 321.704,172.585 320.197,168.493 C319.334,165.477 324.935,159.66 328.813,159.66 C329.889,159.66 331.613,162.03 332.69,165.046 C333.768,168.062 335.706,170.431 336.998,170.431 C338.076,170.431 339.151,172.37 339.151,174.523 C339.151,176.893 341.521,181.632 344.537,185.079 C348.414,189.602 349.922,194.125 349.922,200.157 C349.922,205.111 350.783,209.419 351.861,210.065 C356.815,213.296 358.107,239.791 354.014,255.301 C352.507,261.116 352.507,264.347 354.014,265.856 C355.308,267.148 356.384,269.732 356.384,271.671 C356.384,273.609 358.322,277.056 360.692,279.21 C366.077,284.166 376.849,282.225 387.403,274.255 C394.727,268.872 395.157,267.794 394.51,259.178 C393.864,254.009 394.296,246.254 395.157,241.945 C397.958,229.453 399.035,183.356 396.665,183.356 C395.588,183.356 395.157,180.986 396.019,178.401 C396.665,175.6 396.449,170.215 395.373,166.769 L393.433,160.092 L405.496,157.076 C415.621,154.491 417.56,153.199 417.128,149.752 C416.697,147.599 415.19,144.583 413.681,143.505 C412.174,142.213 407.22,130.15 402.912,116.579 C398.389,103.009 392.141,87.069 388.91,81.039 C383.31,70.914 383.095,69.622 385.465,60.574 C386.972,55.19 388.479,50.019 388.695,48.727 C391.065,38.819 382.232,34.511 358.107,33.218 C338.505,32.141 328.597,28.479 328.382,22.664 C328.382,21.372 324.289,17.493 319.334,14.048 C314.165,10.817 308.565,6.292 306.841,3.923 C303.611,0.262 299.518,0.046 256.222,0.046 C214.002,-0.169 208.833,0.262 206.248,3.708 C203.447,7.37 196.555,12.109 190.091,14.479 C187.938,15.125 184.276,19.217 181.692,23.095 C178.03,29.125 175.875,30.417 169.414,30.634 C140.549,30.849 121.378,36.019 122.671,42.696 C123.102,44.85 124.609,51.743 125.901,57.775 C128.271,68.329 128.056,69.836 123.317,78.238 C120.516,83.409 114.486,99.132 109.746,113.349 C105.224,127.565 100.053,140.06 98.546,140.921 C97.037,141.782 95.745,143.937 95.745,145.66 C95.745,147.167 94.452,148.891 93.16,149.537 C89.93,150.829 100.484,155.352 110.393,156.861 C115.993,157.938 117.07,158.799 115.993,161.599 C114.486,164.615 114.486,182.71 115.347,250.776 C115.562,266.717 117.931,271.671 128.486,277.271 C135.595,280.933 147.873,281.15 151.319,277.703 C152.827,276.195 153.905,272.102 153.905,268.44 C153.905,264.778 154.981,260.685 156.058,259.609 C157.567,258.1 157.782,255.516 156.273,251.639 C153.688,245.176 154.981,221.051 158.213,212.65 C159.289,209.419 160.797,202.958 161.444,198.218 C162.09,193.264 164.459,187.018 166.829,184.002 C169.197,180.986 171.137,176.678 171.137,174.523 C171.137,172.155 172.43,170.431 174.151,170.431 C175.875,170.431 177.599,168.276 178.03,165.477 C178.459,162.461 180.183,160.738 182.768,160.738 C187.292,160.738 189.662,164.185 191.6,173.231 C192.246,176.463 194.185,179.048 195.908,179.048 C199.57,179.048 200.431,190.894 196.986,193.049 C195.908,193.695 194.831,198.65 194.831,203.819 C194.831,211.789 194.185,213.296 189.662,214.373 C184.922,215.451 181.692,220.62 180.829,227.514 C180.614,228.806 179.968,231.174 179.322,232.898 C178.676,234.622 175.875,243.884 173.29,253.363 C170.706,262.84 166.181,275.549 163.382,281.579 C160.581,287.611 158.213,293.211 158.213,294.074 C158.213,295.15 156.058,298.597 153.688,302.259 C150.243,306.782 149.812,309.151 151.535,310.229 C154.551,312.167 148.734,327.676 143.995,330.477 C142.273,331.338 140.981,334.139 140.981,336.509 C140.981,338.662 140.118,342.324 139.04,344.477 C138.18,346.417 135.595,353.093 133.657,358.91 C117.716,406.514 109.532,428.701 106.084,433.655 C103.93,436.671 102.208,441.625 102.208,444.641 C102.208,447.442 100.699,451.104 98.975,452.611 C97.037,454.118 96.391,456.488 97.468,457.78 C99.838,461.227 98.761,479.752 95.745,487.29 C94.021,491.169 93.806,494.614 94.884,495.692 C95.959,496.769 113.838,498.062 134.518,498.493 C194.185,499.569 189.231,500.215 190.091,491.384 z" fill="#000000"/>
    <path d="M190.091,491.384 C190.523,487.076 193.539,481.044 197.201,476.952 C202.801,470.489 204.525,465.967 203.662,460.581 C203.447,459.72 204.525,456.919 205.817,454.549 C207.54,451.104 207.324,448.088 204.739,441.842 C203.016,437.317 201.94,433.44 202.37,433.009 C202.801,432.579 204.739,417.5 206.678,399.836 C208.616,381.958 210.986,365.588 212.063,363.218 C213.787,359.771 213.57,350.294 212.063,350.294 C211.849,350.294 211.417,347.063 210.986,343.401 C210.556,337.585 211.202,336.292 214.648,336.292 C216.803,336.292 218.095,335.431 217.449,334.139 C216.803,333.062 220.68,322.937 226.28,311.521 L236.405,291.058 L254.067,291.058 C268.069,291.058 272.377,291.919 274.961,294.935 C280.132,300.535 292.408,327.461 292.408,333.062 C292.408,336.292 293.271,337.801 294.995,337.155 C298.01,335.861 300.81,347.063 298.225,350.294 C296.287,352.879 296.287,351.372 302.533,400.914 C305.979,428.701 306.627,439.687 304.903,442.271 C302.102,446.579 301.887,453.257 304.04,455.627 C304.903,456.488 305.764,460.796 306.195,465.104 C306.41,470.921 308.349,474.798 313.088,478.891 C317.827,483.199 319.334,486.215 319.12,491.815 L318.688,498.923 L366.938,499.569 L414.973,500 L413.466,489.877 C412.389,484.06 411.313,474.151 411.097,467.69 C410.236,452.826 408.081,441.842 405.928,441.842 C405.065,441.842 403.773,440.118 403.127,438.18 C402.481,436.025 396.449,418.792 389.556,399.836 C382.878,380.882 376.202,361.28 374.908,356.326 C373.401,351.372 371.678,346.632 370.817,345.771 C369.954,344.908 369.308,341.463 369.308,338.016 C369.308,334.139 368.232,331.984 366.077,331.984 C364.354,331.984 362.847,330.692 362.847,329.4 C362.847,327.893 361.338,323.799 359.616,320.352 C357.03,315.614 356.815,313.46 358.753,311.09 C360.692,308.72 360.262,306.998 356.6,303.336 C354.231,300.535 352.076,296.442 352.076,294.074 C352.076,291.704 351.215,288.903 350.137,287.826 C346.907,284.38 335.489,251.423 332.69,237.852 C329.674,221.697 326.658,216.097 321.058,215.236 C317.396,214.805 316.319,212.866 315.889,205.974 C315.458,201.234 313.734,195.849 312.01,193.91 C308.134,189.602 310.072,179.048 314.595,179.048 C318.257,179.048 321.704,172.585 320.197,168.493 C319.334,165.477 324.935,159.66 328.813,159.66 C329.889,159.66 331.613,162.03 332.69,165.046 C333.768,168.062 335.706,170.431 336.998,170.431 C338.076,170.431 339.151,172.37 339.151,174.523 C339.151,176.893 341.521,181.632 344.537,185.079 C348.414,189.602 349.922,194.125 349.922,200.157 C349.922,205.111 350.783,209.419 351.861,210.065 C356.815,213.296 358.107,239.791 354.014,255.301 C352.507,261.116 352.507,264.347 354.014,265.856 C355.308,267.148 356.384,269.732 356.384,271.671 C356.384,273.609 358.322,277.056 360.692,279.21 C366.077,284.166 376.849,282.225 387.403,274.255 C394.727,268.872 395.157,267.794 394.51,259.178 C393.864,254.009 394.296,246.254 395.157,241.945 C397.958,229.453 399.035,183.356 396.665,183.356 C395.588,183.356 395.157,180.986 396.019,178.401 C396.665,175.6 396.449,170.215 395.373,166.769 L393.433,160.092 L405.496,157.076 C415.621,154.491 417.56,153.199 417.128,149.752 C416.697,147.599 415.19,144.583 413.681,143.505 C412.174,142.213 407.22,130.15 402.912,116.579 C398.389,103.009 392.141,87.069 388.91,81.039 C383.31,70.914 383.095,69.622 385.465,60.574 C386.972,55.19 388.479,50.019 388.695,48.727 C391.065,38.819 382.232,34.511 358.107,33.218 C338.505,32.141 328.597,28.479 328.382,22.664 C328.382,21.372 324.289,17.493 319.334,14.048 C314.165,10.817 308.565,6.292 306.841,3.923 C303.611,0.262 299.518,0.046 256.222,0.046 C214.002,-0.169 208.833,0.262 206.248,3.708 C203.447,7.37 196.555,12.109 190.091,14.479 C187.938,15.125 184.276,19.217 181.692,23.095 C178.03,29.125 175.875,30.417 169.414,30.634 C140.549,30.849 121.378,36.019 122.671,42.696 C123.102,44.85 124.609,51.743 125.901,57.775 C128.271,68.329 128.056,69.836 123.317,78.238 C120.516,83.409 114.486,99.132 109.746,113.349 C105.224,127.565 100.053,140.06 98.546,140.921 C97.037,141.782 95.745,143.937 95.745,145.66 C95.745,147.167 94.452,148.891 93.16,149.537 C89.93,150.829 100.484,155.352 110.393,156.861 C115.993,157.938 117.07,158.799 115.993,161.599 C114.486,164.615 114.486,182.71 115.347,250.776 C115.562,266.717 117.931,271.671 128.486,277.271 C135.595,280.933 147.873,281.15 151.319,277.703 C152.827,276.195 153.905,272.102 153.905,268.44 C153.905,264.778 154.981,260.685 156.058,259.609 C157.567,258.1 157.782,255.516 156.273,251.639 C153.688,245.176 154.981,221.051 158.213,212.65 C159.289,209.419 160.797,202.958 161.444,198.218 C162.09,193.264 164.459,187.018 166.829,184.002 C169.197,180.986 171.137,176.678 171.137,174.523 C171.137,172.155 172.43,170.431 174.151,170.431 C175.875,170.431 177.599,168.276 178.03,165.477 C178.459,162.461 180.183,160.738 182.768,160.738 C187.292,160.738 189.662,164.185 191.6,173.231 C192.246,176.463 194.185,179.048 195.908,179.048 C199.57,179.048 200.431,190.894 196.986,193.049 C195.908,193.695 194.831,198.65 194.831,203.819 C194.831,211.789 194.185,213.296 189.662,214.373 C184.922,215.451 181.692,220.62 180.829,227.514 C180.614,228.806 179.968,231.174 179.322,232.898 C178.676,234.622 175.875,243.884 173.29,253.363 C170.706,262.84 166.181,275.549 163.382,281.579 C160.581,287.611 158.213,293.211 158.213,294.074 C158.213,295.15 156.058,298.597 153.688,302.259 C150.243,306.782 149.812,309.151 151.535,310.229 C154.551,312.167 148.734,327.676 143.995,330.477 C142.273,331.338 140.981,334.139 140.981,336.509 C140.981,338.662 140.118,342.324 139.04,344.477 C138.18,346.417 135.595,353.093 133.657,358.91 C117.716,406.514 109.532,428.701 106.084,433.655 C103.93,436.671 102.208,441.625 102.208,444.641 C102.208,447.442 100.699,451.104 98.975,452.611 C97.037,454.118 96.391,456.488 97.468,457.78 C99.838,461.227 98.761,479.752 95.745,487.29 C94.021,491.169 93.806,494.614 94.884,495.692 C95.959,496.769 113.838,498.062 134.518,498.493 C194.185,499.569 189.231,500.215 190.091,491.384 z" fill-opacity="0" stroke="#000000" stroke-width="0.1"/>
  </g>
</svg>
