<?xml version="1.0" encoding="UTF-8"?>
<!DOCTYPE svg PUBLIC "-//W3C//DTD SVG 1.1//EN" "http://www.w3.org/Graphics/SVG/1.1/DTD/svg11.dtd">
<svg version="1.1" xmlns="http://www.w3.org/2000/svg" xmlns:xlink="http://www.w3.org/1999/xlink" x="0" y="0" width="500" height="500" viewBox="0, 0, 500, 500">
  <g id="layer102">
    <path d="M364.436,362.768 C361.371,361.632 361.201,361.632 358.703,362.597 C357.057,363.278 354.105,363.676 349.791,363.79 C344.057,364.017 343.149,363.903 341.389,362.881 C338.835,361.348 334.975,361.348 332.08,362.824 C330.263,363.733 328.73,363.96 324.133,363.96 C319.535,363.96 318.002,363.733 316.186,362.824 C314.937,362.2 313.177,361.689 312.269,361.689 C311.36,361.689 309.43,362.2 307.954,362.824 C305.797,363.733 304.038,363.96 298.701,363.96 C292.287,363.96 292.003,363.903 289.562,362.257 C288.143,361.292 286.384,360.383 285.645,360.156 C284.226,359.816 279.969,361.632 278.72,363.108 C278.152,363.79 276.62,363.96 271.851,363.96 C266.742,363.96 265.38,363.79 263.677,362.824 C261.123,361.405 257.944,361.405 255.56,362.824 C253.97,363.79 252.721,363.96 246.079,363.96 C241.936,363.96 238.36,363.733 238.189,363.449 C237.508,362.427 232.91,362.2 230.412,363.051 C226.95,364.3 216.05,364.243 211.85,363.051 C208.955,362.2 208.444,362.2 205.435,363.051 C203.278,363.619 199.872,363.96 195.842,363.96 C190.052,363.96 189.428,363.846 186.305,362.257 C182.218,360.213 181.707,360.156 178.074,362.029 C175.406,363.335 174.725,363.449 169.219,363.278 C164.337,363.108 162.634,362.824 160.193,361.689 L157.241,360.327 L154.233,361.689 C150.372,363.449 140.438,363.96 137.089,362.597 C134.592,361.519 131.072,361.405 130.107,362.37 C129.142,363.335 117.392,363.676 113.531,362.824 C108.706,361.746 104.392,361.519 103.711,362.2 C103.314,362.597 100.646,362.824 96.956,362.824 C92.074,362.824 90.258,362.597 87.873,361.632 C81.572,359.134 68.46,354.48 63.691,353.117 C62.215,352.663 60.796,351.812 60.172,350.904 C59.434,349.825 58.412,349.257 56.936,349.087 C54.892,348.803 51.77,347.611 49.954,346.362 C49.5,346.078 47.683,345.17 45.924,344.432 C44.164,343.637 42.404,342.616 42.007,342.105 C41.609,341.651 40.985,341.253 40.587,341.253 C40.19,341.253 39.282,340.742 38.487,340.175 C37.749,339.551 36.103,338.812 34.911,338.415 C33.662,338.075 30.71,336.826 28.383,335.577 C26.055,334.385 22.933,332.795 21.458,332.057 C18.96,330.865 18.733,330.581 18.733,328.651 C18.733,326.835 18.392,326.324 16.292,324.791 C14.192,323.315 13.624,322.464 12.602,319.228 C11.977,317.128 11.239,314.46 11.069,313.324 C10.729,311.395 10.842,311.168 12.658,309.975 C13.737,309.237 14.929,308.216 15.27,307.648 C15.838,306.797 15.724,306.626 14.475,306.626 C12.545,306.626 11.977,304.356 13.397,302.198 C14.702,300.212 15.1,294.705 13.907,294.705 C12.943,294.705 11.637,292.378 11.126,289.597 C10.275,285.396 8.855,282.217 7.834,282.217 C7.209,282.217 6.528,281.479 6.017,280.287 C5.563,279.208 4.03,277.278 2.611,275.973 L0,273.532 L0,267.685 C0,262.178 0.057,261.781 1.135,261.781 C2.1,261.781 2.27,261.384 2.327,259.113 C2.384,254.629 2.27,241.346 2.157,237.372 L1.987,233.682 L3.69,233.512 C6.698,233.171 6.925,232.547 6.585,226.927 C6.414,224.089 6.131,220.569 5.904,219.037 C5.336,214.836 5.904,213.53 8.174,213.53 C9.196,213.53 10.331,213.19 10.615,212.849 C11.239,211.998 12.431,208.137 12.602,206.151 C12.772,204.845 13.056,204.732 15.894,204.561 C17.597,204.505 19.811,204.05 20.833,203.596 C22.763,202.631 23.955,202.574 26.68,203.085 C28.212,203.426 28.439,203.653 28.212,204.845 C27.929,206.491 30.086,208.989 31.789,208.989 C32.64,208.989 32.924,209.386 32.924,210.635 C32.924,211.544 33.321,212.565 33.775,212.963 C34.4,213.473 34.57,214.212 34.287,215.347 C34.059,216.652 34.23,217.277 35.195,218.185 C36.216,219.15 36.33,219.717 36.046,221.534 C35.706,223.464 35.819,223.748 36.727,223.691 C38.714,223.634 39.736,222.954 39.168,222.045 C38.26,220.683 38.544,219.32 39.679,218.923 C40.474,218.696 40.871,217.958 40.985,216.482 C41.155,214.552 41.326,214.382 43.028,214.212 C44.731,214.041 44.902,213.871 44.618,212.678 C44.221,211.089 45.526,210.124 48.08,210.124 C50.067,210.124 51.089,211.032 51.089,212.736 C51.089,213.473 51.373,214.212 51.714,214.439 C52.111,214.666 52.224,215.574 52.054,216.652 C51.827,218.015 51.997,218.81 52.736,219.434 C54.041,220.626 54.609,220.569 55.801,219.207 C56.709,218.128 57.447,218.071 69.084,218.071 C81.345,218.071 84.808,218.526 85.887,220.172 C86.114,220.569 87.249,220.91 88.328,220.91 C90.201,220.91 90.314,220.796 90.144,219.377 C89.974,217.844 89.86,217.788 85.716,217.504 C83.389,217.334 81.061,216.936 80.607,216.652 C80.153,216.368 78.904,216.028 77.769,215.801 C75.101,215.403 74.987,214.041 77.088,207.57 C81.061,195.535 89.065,182.99 97.24,176.122 C98.204,175.327 99.51,174.135 100.192,173.51 C101.724,172.034 106.492,168.742 108.99,167.38 C110.069,166.812 111.885,165.734 112.964,164.995 C114.043,164.258 116.597,163.122 118.64,162.498 C120.684,161.817 123.011,160.852 123.863,160.398 C125.168,159.716 131.98,157.956 133.513,157.9 C133.74,157.9 133.797,157.446 133.57,156.935 C132.945,155.175 131.583,153.926 130.221,153.926 C128.574,153.926 127.723,152.393 127.723,149.442 C127.723,148.193 127.326,145.752 126.872,143.992 C126.02,140.7 126.19,139.564 127.609,137.918 C128.348,137.01 129.199,136.953 135.046,137.294 C138.679,137.464 142.596,137.975 143.845,138.429 C145.264,138.883 148.783,139.167 153.949,139.167 C161.215,139.167 161.896,139.054 162.18,138.088 C162.861,135.42 167.686,135.137 168.367,137.748 C168.651,138.827 169.105,139.167 170.751,139.281 L172.852,139.451 L172.852,144.787 C172.852,148.59 172.625,150.237 172.114,150.35 C171.716,150.52 171.433,151.656 171.433,153.415 C171.433,155.97 171.319,156.197 169.843,156.481 C168.992,156.708 167.856,157.048 167.345,157.389 C166.04,158.07 163.088,158.07 162.634,157.332 C162.464,157.048 161.045,156.764 159.455,156.764 C157.922,156.764 156.674,157.048 156.674,157.332 C156.674,157.673 156.901,157.9 157.241,157.9 C157.525,157.9 157.809,159.319 157.809,161.078 L157.809,164.315 L160.42,163.917 C161.896,163.747 165.699,163.576 168.878,163.576 L174.725,163.576 L175.35,161.873 C175.804,160.568 176.258,160.171 177.393,160.171 C179.039,160.171 181.083,161.078 181.083,161.817 C181.083,162.1 180.458,162.498 179.664,162.668 C178.869,162.895 178.245,163.236 178.245,163.52 C178.245,164.144 184.602,164.768 186.703,164.371 C188.122,164.087 188.406,164.201 188.576,165.336 C188.746,166.698 188.86,166.698 196.296,166.869 L203.846,167.039 L204.811,168.685 C205.833,170.502 207.99,171.013 208.557,169.537 C208.955,168.458 211.112,168.458 211.509,169.537 C211.736,169.991 212.191,170.388 212.588,170.388 C212.985,170.388 213.95,170.899 214.745,171.524 C216.277,172.715 221.046,173.113 221.67,172.091 C222.181,171.296 230.299,171.41 240.914,172.375 C245.852,172.773 250.223,173 250.678,172.829 C251.075,172.659 252.211,173.17 253.118,173.964 C254.538,175.156 255.673,175.44 260.101,175.781 C262.996,176.008 266.061,176.576 266.913,176.973 C268.389,177.711 268.502,178.052 268.502,181.174 C268.502,184.069 268.332,184.637 267.083,185.602 C266.289,186.226 265.664,186.907 265.664,187.078 C265.664,187.702 271.113,187.418 271.738,186.793 C272.306,186.226 280.423,185.715 280.252,186.283 C280.196,186.453 280.877,187.532 281.785,188.724 C282.921,190.256 283.829,190.824 284.964,190.824 C285.816,190.824 286.951,191.335 287.518,191.959 C288.824,193.435 295.012,193.605 295.523,192.243 C295.977,191.108 297.396,191.164 298.758,192.356 C299.837,193.322 299.894,193.322 300.688,192.129 L301.54,190.824 L303.299,192.073 C304.832,193.208 305.059,193.208 305.684,192.356 C306.649,191.051 307.954,191.164 308.976,192.697 L309.884,193.946 L310.963,192.583 C311.871,191.505 312.212,191.335 313.233,191.903 C313.858,192.243 314.539,192.811 314.709,193.208 C314.88,193.776 315.164,193.662 315.618,192.924 C316.356,191.732 318.626,191.676 319.591,192.811 C320.5,193.889 321.294,193.889 321.294,192.868 C321.294,191.562 322.089,191.392 323.849,192.3 C324.757,192.754 325.608,192.924 325.779,192.583 C326.347,191.676 334.294,192.129 334.975,193.095 C335.429,193.832 335.599,193.832 336.11,192.981 C336.848,191.676 338.835,191.676 339.8,192.924 C340.538,193.889 340.652,193.889 341.219,192.981 C341.957,191.676 343.32,191.676 344.682,192.924 C345.647,193.776 345.76,193.776 346.498,192.754 C347.293,191.732 347.406,191.732 348.996,192.64 C350.529,193.549 350.699,193.549 351.55,192.64 C352.459,191.789 352.629,191.789 354.105,192.64 C355.581,193.549 355.808,193.549 356.659,192.697 C357.511,191.846 357.738,191.903 359.611,193.549 C361.598,195.365 361.711,195.365 367.501,195.365 C371.759,195.365 373.576,195.138 374.03,194.571 C374.484,194.003 375.676,193.889 378.628,194.117 C381.069,194.287 383.226,194.117 384.247,193.662 C385.44,193.208 386.235,193.151 387.086,193.605 C388.278,194.287 391.286,194.457 409.849,195.081 C421.032,195.478 421.6,195.592 425.005,197.125 C426.935,198.033 430.171,199.055 432.271,199.452 C434.769,199.963 436.245,200.531 436.586,201.155 C436.869,201.723 437.04,205.186 436.983,208.819 C436.813,216.482 437.324,215.858 429.717,218.071 C427.39,218.753 424.778,219.888 423.927,220.512 C422.281,221.761 418.193,222.67 414.788,222.613 C413.539,222.556 411.438,223.01 410.076,223.521 C408.203,224.202 407.408,224.316 406.84,223.805 C406.273,223.407 398.382,223.18 380.444,223.18 C365.061,223.124 354.673,222.897 354.502,222.556 C354.048,221.875 348.712,221.875 348.258,222.613 C347.804,223.407 339.857,223.351 339.062,222.556 C338.721,222.215 337.302,221.705 335.996,221.478 C334.01,221.08 333.272,221.193 332.193,222.102 C330.263,223.634 325.041,223.578 322.713,222.045 C320.727,220.739 317.207,220.569 316.015,221.761 C315.391,222.329 315.277,223.067 315.561,224.146 C315.958,225.678 316.128,225.735 320.272,225.849 C322.657,225.905 325.608,226.246 326.801,226.643 C327.993,227.041 331.228,227.495 334.01,227.665 L339.062,228.005 L339.8,230.163 C341.503,235.044 343.774,236.464 347.747,234.988 C349.223,234.477 349.904,234.534 351.607,235.328 C352.799,235.896 353.935,236.918 354.218,237.712 C354.673,238.905 355.127,239.075 357.625,239.075 C360.292,239.075 367.445,241.061 370.226,242.537 C371.021,242.992 371.532,242.992 371.986,242.537 C373.064,241.459 374.37,241.856 376.357,243.9 C377.549,245.149 378.798,245.887 379.706,245.887 C380.444,245.887 382.147,246.341 383.396,246.966 C387.71,248.895 394.749,250.882 396.566,250.598 C398.098,250.371 398.496,250.598 399.574,252.358 C400.369,253.607 401.447,254.515 402.356,254.742 C403.208,254.912 404.513,255.31 405.308,255.651 C410.474,257.807 416.604,259.397 418.647,259.17 C421.145,258.886 421.656,259.113 423.076,261.384 C423.643,262.235 424.552,262.917 425.176,262.917 C426.652,262.917 432.555,264.506 433.35,265.073 C434.258,265.812 441.07,268.025 442.432,268.025 C443.057,268.025 444.079,268.65 444.76,269.444 C445.611,270.523 447.087,271.204 450.437,271.999 C452.934,272.624 456.51,273.759 458.384,274.497 C460.768,275.519 462.357,275.859 463.606,275.632 C464.798,275.405 465.479,275.519 465.479,275.916 C465.479,277.222 469.113,281.649 470.191,281.649 C470.815,281.649 472.632,282.273 474.278,283.012 C475.868,283.806 478.535,284.941 480.239,285.623 C485.177,287.553 488.015,289.483 489.037,291.583 C489.548,292.775 490.797,294.024 492.046,294.649 C495.338,296.351 496.984,298.622 498.631,303.504 C500.561,309.407 500.504,309.805 498.12,310.656 C496.19,311.395 496.133,311.508 496.133,314.29 C496.133,315.879 495.849,317.468 495.452,317.866 C494.941,318.377 495.054,318.944 496.02,320.25 C496.701,321.158 497.268,322.066 497.268,322.237 C497.268,322.578 491.705,330.354 490.74,331.376 C489.151,333.079 484.78,334.555 483.588,333.817 C483.077,333.533 481.942,334.271 479.954,336.485 L477.059,339.551 L470.02,341.026 C466.104,341.764 462.357,342.275 461.676,342.105 C460.825,341.878 460.144,342.275 459.235,343.354 C458.213,344.659 457.532,344.943 455.091,345 C451.061,345.113 445.668,346.078 443.057,347.214 C441.808,347.668 439.764,348.065 438.402,347.951 C436.586,347.895 435.677,348.179 434.656,349.087 C433.747,349.939 432.612,350.336 430.966,350.336 C429.603,350.336 427.617,350.733 426.425,351.244 C423.416,352.493 419.896,353.231 414.39,353.742 C408.771,354.253 405.591,354.934 403.605,356.012 C402.81,356.41 401.277,356.978 400.199,357.205 C399.12,357.431 396.736,357.999 394.92,358.51 C393.103,359.021 391.23,359.419 390.719,359.419 C389.527,359.419 385.042,361.519 383.226,362.938 C381.182,364.527 368.921,364.414 364.436,362.768 z" fill="#000000"/>
  </g>
</svg>
