<?xml version="1.0" encoding="UTF-8"?>
<!DOCTYPE svg PUBLIC "-//W3C//DTD SVG 1.1//EN" "http://www.w3.org/Graphics/SVG/1.1/DTD/svg11.dtd">
<svg version="1.1" xmlns="http://www.w3.org/2000/svg" xmlns:xlink="http://www.w3.org/1999/xlink" x="0" y="0" width="500" height="500" viewBox="0, 0, 500, 500">
  <g id="Layer_1">
    <path d="M10.743,151.228 C59.143,151.173 107.542,151.118 155.942,151.118 C156.928,159.833 160.272,179.182 174.578,198.367 C189.651,218.592 208.452,227.362 216.619,230.596 L197.764,403.968 L149.912,386.593 L176.003,332.164 C172.605,330.136 169.042,327.943 165.424,325.477 C161.587,322.901 158.025,320.324 154.736,317.803 C140.485,331.451 126.233,345.155 111.982,358.803 L80.629,324.545 L126.343,290.89 C123.602,287.437 120.807,283.765 118.011,279.818 C114.558,274.995 111.434,270.226 108.584,265.676 C90.386,274.501 72.243,283.271 54.045,292.096 L27.516,240.737 C50.099,236.681 72.681,232.624 95.264,228.513 C94.442,225.334 93.729,221.772 93.181,217.935 C92.633,214.098 92.304,210.48 92.195,207.246 C67.529,207.411 42.863,207.52 18.198,207.685 L10.743,151.228 z" fill="#000000"/>
    <path d="M489.257,151.228 C440.857,151.173 392.458,151.118 344.058,151.118 C343.072,159.833 339.728,179.182 325.422,198.367 C310.349,218.592 291.548,227.362 283.381,230.596 L302.236,403.968 L350.088,386.593 L324.052,332.164 C327.45,330.136 331.013,327.943 334.631,325.477 C338.467,322.901 342.03,320.324 345.319,317.803 C359.57,331.451 373.822,345.155 388.073,358.803 L419.426,324.545 L373.712,290.89 C376.452,287.437 379.248,283.765 382.043,279.818 C385.497,274.995 388.621,270.226 391.471,265.676 C409.669,274.501 427.812,283.271 446.01,292.096 L472.539,240.737 C449.956,236.681 427.373,232.624 404.791,228.513 C405.613,225.334 406.325,221.772 406.873,217.935 C407.422,214.098 407.75,210.48 407.86,207.246 C432.526,207.411 457.191,207.52 481.857,207.685 L489.257,151.228 z" fill="#000000"/>
    <path d="M250.274,0 L286.615,59.8 L262.662,78.656 L269.349,166.904 L283.381,166.904 L299.386,151.118 L325.367,177.812 L299.441,203.574 L285.025,189.213 L271.706,189.487 L287.821,410.162 L250.329,500 L211.138,410.272 L228.678,189.377 L216.071,189.323 L201.217,203.135 L174.414,176.222 L200.175,151.118 L216.619,166.904 L231.364,166.904 L238.215,78.93 L213.879,60.02 z" fill="#000000"/>
  </g>
</svg>
