<?xml version="1.0" encoding="UTF-8"?>
<!DOCTYPE svg PUBLIC "-//W3C//DTD SVG 1.1//EN" "http://www.w3.org/Graphics/SVG/1.1/DTD/svg11.dtd">
<svg version="1.1" xmlns="http://www.w3.org/2000/svg" xmlns:xlink="http://www.w3.org/1999/xlink" x="0" y="0" width="500" height="500" viewBox="0, 0, 500, 500">
  <g id="Background">
    <rect x="0" y="0" width="500" height="500" fill="#000000" fill-opacity="0"/>
  </g>
  <g id="Layer_1">
    <path d="M223.872,3.152 C222.41,4.77 220.257,6.093 219.093,6.093 C214.851,6.093 199.921,22.703 198.804,28.667 C197.954,33.189 196.008,35.691 188.737,41.597 L179.723,48.922 L164.44,48.184 C135.98,46.807 128.185,57.994 139.852,83.482 C145.657,96.155 158.297,98.128 172.855,88.634 L179.723,84.156 L180.197,90.38 C180.725,97.252 174.361,104.698 167.964,104.698 C166.292,104.698 163.601,105.626 161.983,106.76 C160.361,107.894 153.558,109.485 146.859,110.294 C132.07,112.081 125.73,115.798 118.351,127.008 C110.725,138.588 101.545,159.138 100.307,167.387 C98.983,176.211 97.46,179.315 91.875,184.545 C85.003,190.976 89.299,198.253 104.829,206.492 C112.665,210.649 113.271,212.027 110.336,219.043 C102.835,236.997 118.538,265.284 137.111,267.271 C157.484,269.455 162.071,273.361 158.615,285.587 L156.364,293.555 L161.052,297.468 C168.069,303.324 166.634,317.151 158.415,322.909 C156.563,324.205 154.593,327.83 153.788,331.418 C153.013,334.854 150.917,339.718 149.127,342.23 C146.338,346.143 145.918,348.468 146.189,358.565 C146.68,376.955 136.305,422.354 130.469,427.353 C128.824,428.761 127.464,431.408 127.447,433.239 C127.426,435.067 126.137,439.38 124.573,442.819 L126.519,449.074 C134.68,449.074 137.239,456.196 133.15,467.511 C126.055,487.127 165.432,499.763 183.402,483.637 C185.426,481.819 189.83,478.631 193.188,476.552 C196.549,474.471 201.207,469.921 203.539,466.442 C206.027,462.729 209.144,459.916 211.077,459.638 C213.403,459.303 215.616,456.697 218.605,450.78 L222.836,442.396 L219.194,438.161 C217.187,435.832 215.887,432.864 216.303,431.564 C216.716,430.267 218.067,426.558 219.296,423.318 C220.917,419.06 221.553,411.485 221.601,395.904 C221.648,379.765 222.247,372.988 223.984,368.832 C225.378,365.491 226.279,359.134 226.245,352.831 C226.167,337.701 225.399,338.188 249.133,338.276 L269.497,338.351 L269.971,343.113 C270.232,345.733 269.646,349.802 268.674,352.151 C267.331,355.394 267.297,358.467 268.532,364.854 C269.433,369.488 270.424,388.515 270.743,407.132 C271.061,425.749 271.785,442.304 272.354,443.922 C276.565,455.894 277.485,456.785 287.156,458.23 C289.786,458.623 290.179,460.095 290.845,472.054 C291.688,487.174 292.216,488.132 302.953,494.079 C312.228,499.221 327.704,499.793 343.802,495.596 C357.098,492.126 359.522,487.641 357.227,470.747 C356.113,462.556 356.211,462.184 359.877,460.43 C365.54,457.726 366.298,442.257 361.028,436.986 C356.211,432.166 346.439,383.292 345.897,361.304 C345.64,350.817 344.797,344.961 343.068,341.614 C341.653,338.879 340.942,335.203 341.399,332.989 C341.934,330.386 340.583,325.779 337.249,318.83 C327.612,298.744 331.698,290.36 351.777,289.019 C367.608,287.96 370.82,287.984 383.185,289.222 L395.33,290.438 L399.677,285.787 C408.694,276.133 411.947,266.534 413.348,245.432 C414.997,220.607 411.212,213.377 397.723,215.56 C392.186,216.454 379.259,212.335 377.201,209.021 C374.869,205.267 376.818,202.59 385.402,197.742 C401.261,188.796 404.571,181.021 395.906,173.083 C390.747,168.358 390.652,168.074 392.396,162.793 C398.59,144.021 375.915,106.801 350.755,94.439 C333.986,86.203 335.106,83.252 355.169,82.798 C364.528,82.585 366.014,80.524 367.026,66.361 C368.211,49.829 367.906,49.623 344.208,50.811 C317.87,52.135 307.794,47.849 303.986,33.707 C302.198,27.069 287.982,11.668 278.873,6.503 C276.338,5.064 272.868,3.087 271.166,2.106 C268.6,0.633 267.226,0.823 263.177,3.209 C256.228,7.312 240.851,7.275 237.117,3.152 C235.655,1.534 232.673,0.207 230.496,0.207 C228.32,0.207 225.338,1.534 223.872,3.152 M175.658,206.411 C176.165,211.956 175.837,215.029 174.659,215.757 C171.572,217.662 170.895,215.131 170.81,201.405 C170.716,186.004 174.107,189.507 175.658,206.411 M321.367,194.703 C325.933,204.224 325.541,207.718 319.908,207.718 C314.875,207.718 314.75,207.569 313.988,200.823 C312.729,189.639 317.173,185.949 321.367,194.703" fill="#000000" id="dark-angels-dreadwing-interemptor"/>
  </g>
</svg>
