<?xml version="1.0" encoding="UTF-8"?>
<!DOCTYPE svg PUBLIC "-//W3C//DTD SVG 1.1//EN" "http://www.w3.org/Graphics/SVG/1.1/DTD/svg11.dtd">
<svg version="1.1" xmlns="http://www.w3.org/2000/svg" xmlns:xlink="http://www.w3.org/1999/xlink" x="0" y="0" width="500" height="500" viewBox="0, 0, 500, 500">
  <g id="Layer_1">
    <path d="M347.561,248.97 C344.203,263.533 330.556,275.326 329.269,291.647 C327.585,312.977 341.39,338.942 296.749,330.275 C287.348,333.898 287.844,343.258 286.586,350.592 C279.772,351.996 279.156,347.183 278.456,342.458 C273.211,343.986 279.941,357.501 272.357,356.684 C265.013,358.62 269.523,348.692 268.292,344.501 C256.925,341.251 267.5,359.952 258.13,358.727 C248.855,361.231 258.32,344.98 252.033,344.501 C246.211,344.767 253.789,358.442 247.967,358.727 C246.612,358.727 245.257,358.727 243.904,358.727 C236.175,360.36 241.318,349.118 239.839,344.501 C230.721,342.831 240.274,359.828 231.708,358.727 C223.691,359.97 229.316,347.556 227.641,342.458 C218.282,339.883 224.4,352.777 219.512,354.66 C209.737,353.292 213.05,349.438 213.415,340.434 C207.009,340.132 212.556,351.765 203.251,348.568 C205.024,338.658 200.474,335.07 199.186,328.233 C167.288,335.07 150.219,308.573 166.666,285.556 C156.431,260.55 146.951,246.608 150.407,214.41 C162.491,101.829 376.649,122.786 347.561,248.97 z M396.343,301.806 C400.809,294.755 400.003,282.43 404.471,275.397 C437.991,268.258 470.028,259.644 500,248.97 C466.37,241.263 434.13,232.187 402.44,222.544 C402.489,211.657 398.099,205.21 396.343,196.117 C412.286,179.423 433.088,157.347 449.187,141.239 C454.234,136.195 465.592,131.471 461.383,124.988 C432.022,134.241 401.008,141.843 369.919,149.373 C345.585,125.095 312.608,99.041 268.292,94.495 C205.956,88.11 158.695,117.529 128.049,149.373 C96.784,141.345 65.538,133.3 34.552,124.988 C50.31,148.52 82.822,172.922 103.657,198.159 C97.781,204.464 99.093,217.979 93.495,224.568 C61.765,232.827 28.993,240.019 0,250.995 C31.806,259.839 64.831,267.476 95.529,277.422 C97.726,286.746 100.088,295.892 103.657,303.848 C78.311,325.924 56.622,351.658 32.52,374.977 C65.518,368.015 96.202,358.727 128.049,350.592 C152.932,374.515 185.261,400.924 229.675,405.471 C293.667,412.024 339.797,382.258 371.951,350.592 C402.299,358.869 432.521,367.251 463.415,374.977 C448.67,351.108 414.474,329.085 396.343,301.806" fill="#000000"/>
    <path d="M231.708,246.928 C240.988,278.718 219.743,297.188 189.024,295.714 C178.942,288.184 170.738,278.771 172.765,259.129 C184.225,248.047 214.238,245.294 231.708,246.928" fill="#000000"/>
    <path d="M325.203,259.129 C326.612,278.15 319.309,288.468 308.944,295.714 C276.447,299.799 256.043,272.236 266.26,246.928 C283.73,245.294 313.743,248.047 325.203,259.129" fill="#000000"/>
    <path d="M239.839,277.422 C245.152,276.853 248.58,278.168 247.967,283.513 C251.883,282.696 249.573,275.646 256.098,277.422 C264.946,287.509 274.49,305.553 268.292,324.166 C257.577,325.391 252.192,321.306 249.999,314.007 C242.916,317.08 242.421,326.759 229.675,324.166 C221.709,307.649 232.935,290.653 239.839,277.422" fill="#000000"/>
  </g>
</svg>
