<?xml version="1.0" encoding="UTF-8"?>
<!DOCTYPE svg PUBLIC "-//W3C//DTD SVG 1.1//EN" "http://www.w3.org/Graphics/SVG/1.1/DTD/svg11.dtd">
<svg version="1.1" xmlns="http://www.w3.org/2000/svg" xmlns:xlink="http://www.w3.org/1999/xlink" x="0" y="0" width="500" height="500" viewBox="0, 0, 500, 500">
  <g id="Layer_1">
    <path d="M386.626,213.627 L439.06,183.981 L449.68,217.957 L500,82.929 L385.028,83.342 L397.711,109.533 L364.921,133.249 C364.921,132.527 364.972,131.754 364.972,131.032 C364.972,64.163 310.786,9.925 243.865,9.925 C183.904,9.925 134.151,53.49 124.51,110.719 L97.391,89.89 L117.034,72.309 L0,51.841 L39.699,219.607 L53.155,175.423 L104.712,219.607 L104.919,219.762 C55.063,227.908 17.014,271.216 17.014,323.391 C17.014,381.393 64.034,428.413 122.035,428.413 C160.806,428.413 194.679,407.378 212.879,376.083 L215.663,422.175 L198.495,418.927 L252.011,490.075 L306.867,413.565 L289.699,419.7 C289.699,419.7 290.627,389.436 291.658,379.64 C310.683,405.109 341.05,421.608 375.284,421.608 C432.873,421.608 479.583,374.897 479.583,317.308 C479.583,263.534 438.905,219.298 386.626,213.627 z M121.984,390.983 C84.657,390.983 54.393,360.719 54.393,323.391 C54.393,286.064 84.657,255.8 121.984,255.8 C159.311,255.8 189.627,286.013 189.627,323.34 C189.627,360.667 159.363,390.983 121.984,390.983 z M243.091,213.008 C196.69,213.008 159.105,175.423 159.105,129.021 C159.105,82.62 196.69,45.035 243.091,45.035 C289.493,45.035 327.078,82.62 327.078,129.021 C327.078,175.423 289.493,213.008 243.091,213.008 z M375.232,389.952 C335.121,389.952 302.588,357.419 302.588,317.308 C302.588,277.196 335.172,244.664 375.284,244.664 C415.395,244.664 447.876,277.196 447.876,317.308 C447.876,357.419 415.343,389.952 375.232,389.952 z" fill="#000000"/>
    <path d="M164.312,289.673 C156.682,267.349 134.048,263.843 124.252,263.379 C124.252,263.379 123.428,263.328 121.984,263.328 C121.984,263.328 121.984,263.328 121.932,263.328 C121.932,263.328 121.932,263.328 121.881,263.328 C120.437,263.328 119.612,263.379 119.612,263.379 C109.868,263.843 87.235,267.349 79.604,289.673 C73.056,308.749 85.43,330.249 82.955,333.136 C72.902,344.788 86.564,363.245 88.42,364.74 C91.772,367.473 102.495,361.905 100.794,364.792 C99.505,366.957 98.319,383.455 98.319,383.455 L101.619,383.455 L103.217,377.733 L106.053,377.681 L106.62,383.455 L112.394,383.455 L112.961,377.939 L114.869,377.681 L115.127,383.455 L119.819,383.455 L120.128,377.526 L123.943,377.526 L124.149,383.455 L128.841,383.455 L129.099,377.681 L131.006,377.939 L131.574,383.455 L137.348,383.455 L137.915,377.681 L140.751,377.733 L142.349,383.455 L145.649,383.455 C145.649,383.455 144.463,366.957 143.174,364.792 C141.473,361.905 152.196,367.473 155.548,364.74 C157.404,363.193 171.066,344.788 161.013,333.136 C158.486,330.197 170.86,308.698 164.312,289.673 z M115.797,345.148 C114.508,346.644 112.601,348.345 110.023,349.789 C103.836,353.243 97.752,352.779 95.277,352.418 C95.123,352.418 94.968,352.366 94.813,352.263 C89.4,348.861 87.338,343.499 88.936,340.199 C89.194,339.683 90.07,338.034 92.906,337.002 C93.06,336.951 93.215,336.951 93.421,336.951 C96.824,337.26 101.052,337.931 105.743,339.426 C109.559,340.611 112.755,342.055 115.436,343.447 C116.106,343.705 116.261,344.581 115.797,345.148 z M128.686,365.307 C128.686,365.668 128.171,365.823 127.965,365.565 C127.397,364.843 126.573,363.967 125.49,363.193 C124.356,362.369 123.273,361.853 122.396,361.544 C121.571,361.853 120.437,362.369 119.303,363.193 C118.22,363.967 117.447,364.843 116.828,365.565 C116.57,365.874 116.106,365.72 116.106,365.307 C115.9,362.472 116.055,356.749 120.283,352.521 C120.85,351.954 121.52,351.49 122.396,351.026 C123.221,351.49 123.943,351.954 124.51,352.521 C128.738,356.749 128.893,362.523 128.686,365.307 z M149.361,352.315 C149.206,352.418 149.051,352.47 148.897,352.47 C146.422,352.831 140.338,353.294 134.151,349.84 C131.574,348.397 129.717,346.644 128.377,345.2 C127.861,344.633 128.016,343.756 128.686,343.396 C131.316,342.004 134.564,340.56 138.379,339.374 C143.071,337.879 147.35,337.209 150.701,336.899 C150.856,336.899 151.011,336.899 151.217,336.951 C154.052,337.982 154.929,339.683 155.187,340.147 C156.785,343.55 154.774,348.912 149.361,352.315 z" fill="#000000"/>
    <path d="M418.798,282.61 C410.909,259.615 387.657,256.058 377.604,255.594 C377.604,255.594 376.727,255.542 375.284,255.542 C375.284,255.542 375.284,255.542 375.232,255.542 C375.232,255.542 375.232,255.542 375.18,255.542 C373.685,255.542 372.86,255.594 372.86,255.594 C362.807,256.058 339.555,259.667 331.666,282.61 C324.964,302.202 337.647,324.371 335.069,327.361 C324.706,339.323 338.781,358.347 340.689,359.894 C344.143,362.729 355.176,357.007 353.423,359.945 C352.134,362.214 350.897,379.176 350.897,379.176 L354.3,379.176 L355.95,373.247 L358.888,373.196 L359.456,379.125 L365.385,379.125 L365.952,373.453 L367.911,373.196 L368.169,379.125 L373.015,379.125 L373.221,373.041 L377.14,373.041 L377.346,379.125 L382.192,379.125 L382.45,373.196 L384.409,373.453 L384.976,379.125 L390.905,379.125 L391.472,373.196 L394.411,373.247 L396.061,379.176 L399.464,379.176 C399.464,379.176 398.226,362.214 396.938,359.945 C395.185,357.007 406.218,362.678 409.672,359.894 C411.58,358.347 425.655,339.374 415.292,327.361 C412.766,324.319 425.5,302.202 418.798,282.61 z M368.839,339.735 C367.498,341.23 365.539,343.035 362.91,344.53 C356.568,348.087 350.278,347.623 347.752,347.262 C347.597,347.262 347.391,347.211 347.288,347.108 C341.72,343.602 339.606,338.085 341.256,334.682 C341.514,334.167 342.442,332.414 345.329,331.383 C345.484,331.331 345.69,331.331 345.845,331.331 C349.35,331.641 353.733,332.362 358.528,333.858 C362.446,335.095 365.746,336.538 368.478,337.982 C369.2,338.24 369.355,339.116 368.839,339.735 z M382.089,360.461 C382.089,360.873 381.574,361.028 381.316,360.719 C380.697,359.945 379.872,359.069 378.789,358.244 C377.604,357.368 376.469,356.852 375.593,356.543 C374.716,356.852 373.582,357.419 372.396,358.244 C371.314,359.069 370.489,359.945 369.87,360.719 C369.612,361.028 369.148,360.873 369.097,360.461 C368.891,357.574 369.045,351.645 373.376,347.314 C373.943,346.747 374.665,346.283 375.541,345.819 C376.366,346.283 377.14,346.798 377.707,347.314 C382.192,351.645 382.295,357.574 382.089,360.461 z M403.382,347.056 C403.227,347.159 403.073,347.211 402.918,347.211 C400.392,347.572 394.102,348.087 387.76,344.478 C385.131,342.983 383.172,341.179 381.831,339.683 C381.316,339.116 381.47,338.188 382.192,337.827 C384.925,336.384 388.276,334.94 392.143,333.703 C396.989,332.208 401.371,331.486 404.826,331.177 C404.98,331.177 405.187,331.177 405.341,331.228 C408.229,332.311 409.157,334.012 409.414,334.528 C411.013,338.034 408.899,343.55 403.382,347.056 z" fill="#000000"/>
    <path d="M298.309,82.414 C288.307,53.284 258.816,48.747 246.082,48.128 C246.082,48.128 244.999,48.077 243.143,48.077 C243.143,48.077 243.143,48.077 243.091,48.077 C243.091,48.077 243.091,48.077 243.04,48.077 C241.184,48.077 240.101,48.128 240.101,48.128 C227.366,48.747 197.876,53.284 187.874,82.414 C179.367,107.264 195.504,135.363 192.205,139.127 C179.109,154.284 196.948,178.362 199.319,180.372 C203.702,183.93 217.674,176.712 215.457,180.424 C213.807,183.259 212.26,204.81 212.26,204.81 L216.591,204.81 L218.653,197.334 L222.365,197.283 L223.087,204.81 L230.615,204.81 L231.336,197.644 L233.863,197.283 L234.224,204.81 L240.359,204.81 L240.668,197.077 L245.618,197.077 L245.927,204.81 L252.062,204.81 L252.423,197.283 L254.949,197.644 L255.671,204.81 L263.199,204.81 L263.92,197.283 L267.632,197.334 L269.695,204.81 L274.026,204.81 C274.026,204.81 272.479,183.311 270.829,180.424 C268.612,176.66 282.584,183.93 286.966,180.372 C289.39,178.362 307.228,154.336 294.081,139.127 C290.678,135.363 306.816,107.264 298.309,82.414 z M234.997,154.852 C233.296,156.759 230.821,159.028 227.47,160.935 C219.427,165.472 211.435,164.802 208.239,164.39 C208.033,164.39 207.826,164.286 207.62,164.183 C200.557,159.698 197.876,152.789 199.99,148.407 C200.299,147.737 201.485,145.571 205.197,144.231 C205.403,144.179 205.609,144.128 205.816,144.128 C210.301,144.54 215.818,145.417 221.901,147.324 C226.851,148.871 231.079,150.727 234.533,152.531 C235.409,152.995 235.616,154.13 234.997,154.852 z M251.804,181.146 C251.804,181.661 251.186,181.816 250.876,181.455 C250.103,180.475 249.072,179.393 247.68,178.362 C246.185,177.279 244.741,176.557 243.658,176.196 C242.576,176.609 241.132,177.279 239.637,178.362 C238.245,179.393 237.214,180.475 236.44,181.455 C236.131,181.816 235.512,181.661 235.512,181.146 C235.255,177.485 235.461,169.958 240.978,164.493 C241.699,163.771 242.627,163.152 243.71,162.585 C244.793,163.204 245.721,163.771 246.443,164.493 C251.908,169.958 252.062,177.485 251.804,181.146 z M278.769,164.132 C278.563,164.235 278.408,164.338 278.15,164.338 C274.902,164.802 266.962,165.421 258.919,160.884 C255.568,159.028 253.093,156.708 251.392,154.8 C250.773,154.078 250.928,152.944 251.804,152.48 C255.259,150.675 259.486,148.819 264.436,147.273 C270.571,145.365 276.088,144.489 280.522,144.076 C280.728,144.076 280.934,144.076 281.14,144.179 C284.801,145.52 285.987,147.737 286.348,148.355 C288.513,152.738 285.832,159.698 278.769,164.132 z" fill="#000000"/>
  </g>
</svg>
