<?xml version="1.0" encoding="UTF-8"?>
<!DOCTYPE svg PUBLIC "-//W3C//DTD SVG 1.1//EN" "http://www.w3.org/Graphics/SVG/1.1/DTD/svg11.dtd">
<svg version="1.1" xmlns="http://www.w3.org/2000/svg" xmlns:xlink="http://www.w3.org/1999/xlink" x="0" y="0" width="500" height="500" viewBox="0, 0, 500, 500">
  <g id="layer102">
    <path d="M182.839,490.951 C182.07,483.765 182.839,482.737 189.255,481.968 C196.184,481.198 196.184,481.198 199.777,449.888 C202.856,422.427 204.139,418.578 208.503,417.295 C211.583,416.526 214.919,417.552 216.714,420.119 C219.024,423.198 222.104,423.711 229.546,422.427 C234.936,421.401 243.919,419.862 249.822,419.347 C255.466,418.578 260.856,417.039 261.626,415.754 C266.503,407.8 277.281,452.455 274.973,471.19 C274.201,477.349 279.848,482.994 284.981,481.968 C287.033,481.455 288.831,484.535 289.856,490.181 L291.141,499.162 L339.902,499.162 L388.662,499.162 L389.432,493.002 C389.945,489.666 388.406,482.224 385.839,476.834 C382.246,468.623 381.99,465.8 384.3,461.694 C386.352,458.358 386.608,455.278 384.813,451.17 C383.272,447.834 377.113,427.304 370.697,405.489 C364.281,383.675 357.865,363.657 356.583,361.347 C355.044,358.782 354.016,354.931 354.016,352.623 C354.016,348.259 334.512,315.666 330.406,312.843 C327.839,311.048 322.449,292.826 315.007,260.489 C308.591,231.489 307.565,229.435 299.096,230.461 C290.626,231.233 290.626,227.64 298.583,222.507 C301.919,220.196 306.024,214.293 307.822,209.162 C310.902,199.666 313.981,197.612 316.289,203.772 C317.061,205.569 321.423,207.877 325.785,208.905 C332.201,209.931 333.486,211.213 331.432,213.78 C329.637,215.834 329.893,221.481 332.46,232.259 C334.255,240.729 336.053,251.763 336.053,256.897 C336.053,262.028 337.848,267.675 339.902,269.472 C341.953,271.267 343.751,275.116 343.751,278.453 C343.751,282.817 349.397,297.959 352.734,302.321 C353.246,302.834 356.326,302.321 360.175,301.295 C366.078,300.011 366.848,298.472 366.848,287.692 C367.104,276.145 371.212,266.905 376.6,266.905 C379.936,266.905 381.477,271.011 383.529,285.64 C385.326,296.418 384.557,298.472 377.372,307.711 C368.132,319.515 367.619,323.108 374.548,329.267 C379.167,333.119 380.708,333.375 388.149,330.039 C392.512,328.241 398.671,323.879 401.751,320.543 C406.628,315.153 408.68,309.25 414.839,284.869 C417.919,272.808 415.867,257.922 408.167,233.541 C403.805,220.196 400.212,207.108 400.212,204.797 C400.212,202.489 398.158,200.179 395.848,199.666 C388.406,198.381 384.3,147.054 389.432,117.028 C392.512,97.011 392.512,93.931 389.175,92.134 C386.867,90.851 385.839,87.515 386.867,83.41 C387.637,78.532 386.867,76.994 383.272,76.994 C380.451,76.994 368.645,73.399 356.583,69.037 C344.52,64.675 331.432,59.797 327.07,58.259 C322.964,56.974 316.548,53.638 313.212,50.815 C309.874,48.25 306.024,46.196 304.999,46.196 C303.716,46.196 302.688,54.666 302.432,64.931 C302.175,95.47 298.07,97.267 297.557,66.726 C297.557,48.507 296.272,38.239 293.964,35.159 C290.626,30.797 291.397,21.302 296.272,9.239 C298.839,3.08 293.964,-0 281.389,-0 L271.893,-0 L273.432,10.267 C274.458,15.655 274.201,23.356 273.432,26.948 C271.893,33.108 270.608,33.621 260.343,33.108 C253.927,32.595 247.512,33.621 245.714,35.418 C241.609,39.524 229.033,39.524 227.751,35.418 C226.981,33.364 222.361,32.595 214.662,33.108 C201.318,33.877 201.061,33.621 202.343,10.78 L203.113,-0 L191.307,-0 C185.15,-0 179.247,1.028 178.475,2.31 C177.449,3.595 178.218,10.524 180.016,17.966 C182.326,28.231 182.326,32.339 180.016,36.188 C178.218,39.011 176.936,52.099 176.68,68.524 C176.423,90.595 175.91,94.188 174.113,85.974 C173.087,80.33 171.802,70.063 171.546,62.877 C171.29,55.948 170.777,49.276 170.007,48.25 C169.494,47.222 163.591,49.276 156.919,52.612 C142.802,60.054 96.609,76.994 90.706,76.994 C87.626,76.994 86.856,78.532 88.139,83.151 C88.908,86.746 88.139,90.338 86.344,92.134 C82.492,95.213 84.546,119.082 89.936,135.25 C91.475,139.869 91.988,144.489 91.475,145.515 C88.652,149.877 87.113,184.524 89.68,186.065 C93.785,188.629 92.503,209.675 87.113,233.285 C83.007,252.276 82.751,255.356 86.087,258.692 C88.139,260.746 89.167,264.338 88.395,266.649 C86.344,273.578 105.591,287.435 117.395,287.435 C128.945,287.435 137.415,262.8 130.483,249.709 C127.919,244.834 128.175,242.011 131.768,233.028 C140.494,211.729 142.29,209.162 149.218,208.392 C153.326,207.877 156.406,205.569 157.175,202.233 C158.458,197.612 159.227,197.356 162.563,200.179 C164.874,201.976 166.671,205.569 166.671,208.392 C166.671,210.957 169.494,215.834 173.087,219.17 C181.555,226.869 181.555,232.002 173.087,229.948 C167.697,228.666 166.671,229.435 165.13,235.338 C155.378,278.968 146.654,307.455 140.494,315.666 C128.945,331.065 118.423,349.028 117.395,355.959 C116.626,359.808 111.751,377.002 106.617,393.942 C101.483,410.879 96.096,429.358 94.555,435.002 C93.016,440.649 90.706,448.091 89.68,451.685 C88.652,455.278 88.908,459.897 90.449,462.207 C92.247,465.03 91.731,468.623 88.652,474.782 C84.546,483.506 83.264,495.569 86.344,498.905 C87.369,499.677 109.44,500.19 135.617,499.933 L183.352,499.162 L182.839,490.951 z" fill="#000000"/>
  </g>
</svg>
