<?xml version="1.0" encoding="UTF-8"?>
<!DOCTYPE svg PUBLIC "-//W3C//DTD SVG 1.1//EN" "http://www.w3.org/Graphics/SVG/1.1/DTD/svg11.dtd">
<svg version="1.1" xmlns="http://www.w3.org/2000/svg" xmlns:xlink="http://www.w3.org/1999/xlink" x="0" y="0" width="500" height="500" viewBox="0, 0, 500, 500">
  <g id="layer102">
    <path d="M294.961,462.63 C301.216,461.106 307.711,459.502 309.315,459.021 C314.287,457.738 315.57,455.653 315.57,449.319 C315.57,443.866 315.57,443.786 311.961,440.337 C309.956,438.333 308.353,436.248 308.353,435.526 C308.353,434.002 309.074,433.923 312.041,435.125 C313.324,435.526 315.169,435.767 316.131,435.446 C317.574,435.125 317.975,434.484 317.975,432.239 C317.975,430.715 318.376,429.432 318.858,429.432 C319.499,429.432 319.579,428.389 319.258,426.305 C319.018,424.38 319.098,422.937 319.579,422.616 C320.06,422.295 320.381,420.21 320.3,417.965 C320.14,413.154 321.904,403.772 322.867,403.772 C323.267,403.772 323.588,406.578 323.588,410.026 C323.588,417.324 325.833,426.626 328.4,430.074 C330.644,433.121 335.456,435.045 336.498,433.362 C336.9,432.72 337.22,431.758 337.22,431.276 C337.22,429.753 339.225,429.993 340.588,431.677 C341.23,432.399 342.192,434.564 342.673,436.328 C343.715,439.937 345.239,440.979 347.965,440.177 C350.05,439.536 350.852,438.413 350.852,435.927 C350.852,434.163 351.093,434.083 354.46,434.564 C357.748,435.125 358.068,434.965 358.389,433.281 C358.63,432.239 358.71,430.234 358.71,428.791 C358.63,427.026 359.191,425.503 360.394,424.38 C362.158,422.616 362.158,422.616 363.361,424.139 C364.003,425.022 364.484,426.225 364.484,426.786 C364.484,427.587 365.446,427.828 367.932,427.668 C371.3,427.427 371.3,427.427 371.059,424.46 C370.899,422.776 371.059,421.414 371.22,421.414 C371.46,421.414 372.583,422.857 373.625,424.541 C375.55,427.587 382.045,432.639 384.05,432.639 C386.375,432.639 387.979,428.47 386.215,426.545 C385.813,426.145 384.931,423.658 384.129,421.012 C383.408,418.366 382.446,415.319 382.045,414.357 C380.361,410.107 378.276,382.923 379.639,382.923 C381.083,382.923 382.927,386.371 384.611,392.145 C385.493,395.273 387.096,400.324 388.139,403.371 C389.102,406.499 390.224,411.711 390.544,414.999 C390.865,418.286 391.346,421.414 391.748,421.814 C392.87,423.178 395.757,435.606 395.757,439.215 C395.757,443.064 395.998,443.304 404.016,447.234 C410.751,450.521 421.256,452.767 435.048,453.889 C438.336,454.13 442.185,454.531 443.629,454.691 C446.756,455.092 472.736,448.356 473.618,446.913 C474.901,444.908 474.34,439.937 472.336,436.168 C471.213,434.083 470.331,431.196 470.331,429.833 C470.331,427.989 469.93,427.106 468.887,426.786 C468.005,426.626 467.203,425.423 466.883,424.06 C466.482,422.135 465.68,421.333 463.194,420.291 C460.147,419.088 459.907,418.767 459.907,415.88 C459.907,414.036 459.265,412.032 458.303,410.749 C457.421,409.626 456.699,408.103 456.699,407.38 C456.699,406.659 456.298,405.376 455.817,404.494 C455.416,403.612 454.855,401.848 454.694,400.484 C454.534,399.121 454.053,397.598 453.652,397.117 C453.171,396.555 451.327,392.386 449.482,387.735 C447.638,383.084 445.633,378.193 444.992,376.749 C444.35,375.386 443.869,374.023 443.869,373.702 C443.869,373.221 442.586,370.174 440.341,365.282 C439.86,364.16 438.977,362.957 438.496,362.636 C437.214,361.834 434.247,355.82 434.247,353.976 C434.247,353.255 433.685,352.212 433.044,351.651 C432.402,351.089 431.841,350.127 431.841,349.405 C431.841,348.764 431.279,347.561 430.638,346.84 C429.997,346.118 429.275,344.113 428.954,342.429 C428.714,340.665 427.912,338.34 427.19,337.217 C426.468,336.094 425.987,334.169 426.068,332.967 C426.228,331.523 425.426,329.679 423.822,327.675 C422.459,325.991 421.176,323.344 420.855,321.66 C420.614,320.057 420.053,318.533 419.733,318.293 C418.37,317.491 419.011,315.807 421.016,314.925 C422.058,314.444 423.501,313 424.143,311.637 C425.105,309.793 426.388,308.991 429.756,308.029 C433.044,307.066 434.487,306.104 435.61,304.34 C436.331,302.977 437.614,301.694 438.416,301.453 C440.26,300.892 445.072,304.18 456.459,313.722 C463.916,319.977 465.599,321.821 466.322,324.387 C466.803,326.151 467.765,327.675 468.567,327.915 C469.368,328.236 470.651,329.679 471.373,331.203 C473.218,335.132 475.944,336.575 481.156,336.496 C485.968,336.496 491.901,334.25 495.108,331.363 C497.755,328.958 500,323.825 500,320.057 C500,317.41 499.439,316.448 495.991,313 C493.825,310.835 491.981,308.67 491.981,308.189 C491.981,307.708 491.26,307.547 490.377,307.788 C489.495,308.029 488.774,307.949 488.774,307.628 C488.774,306.906 483.562,303.057 475.062,297.524 C471.614,295.359 466.001,291.43 462.392,288.944 C458.864,286.378 452.93,282.529 449.161,280.284 C445.392,278.038 442.105,275.874 441.864,275.473 C440.983,274.029 442.265,271.624 444.27,271.142 C445.312,270.902 446.355,269.94 446.675,269.138 C446.916,268.336 448.76,265.85 450.685,263.765 C452.69,261.681 454.294,259.676 454.294,259.355 C454.294,258.473 458.864,257.831 465.119,257.831 C469.77,257.831 471.133,257.511 472.255,256.308 C473.218,255.266 473.378,254.624 472.736,254.223 C472.255,253.902 472.015,253.101 472.255,252.459 C472.977,250.775 470.01,245.563 466.722,242.757 C463.515,239.87 461.109,239.629 454.694,241.313 C449.803,242.676 448.68,241.955 448.68,237.544 C448.68,233.053 445.633,222.549 443.789,220.465 C441.944,218.54 441.864,217.738 443.388,217.738 C445.152,217.738 445.954,214.691 446.756,205.71 C447.077,202.502 447.638,200.258 448.359,199.856 C449.803,199.054 449.803,198.012 448.119,192.88 C447.077,189.672 446.996,188.229 447.638,186.465 C448.359,184.541 448.279,183.899 447.077,182.857 C444.751,180.772 443.629,177.243 444.591,175.399 C445.473,173.715 444.431,168.503 442.746,166.419 C442.185,165.777 440.902,162.569 439.94,159.362 C438.657,155.513 437.374,153.027 435.931,151.904 C434.006,150.381 433.846,149.739 433.926,144.687 C433.926,140.758 434.327,138.754 435.209,137.872 C436.171,136.91 436.331,135.947 435.77,134.023 C434.727,130.174 436.091,117.023 437.775,115.178 C438.898,113.976 438.977,113.254 438.336,111.971 C437.133,109.726 437.214,106.679 438.577,105.556 C439.218,104.995 439.539,103.952 439.298,103.151 C438.817,101.386 440.421,98.66 445.232,92.887 L448.68,88.717 L446.836,86.712 C445.713,85.59 444.35,84.627 443.629,84.627 C442.907,84.627 442.105,84.306 441.864,83.825 C440.983,82.382 440.26,82.943 435.77,88.396 C428.714,97.056 425.266,104.273 424.223,112.292 C423.983,114.537 423.582,116.943 423.341,117.745 C422.86,119.349 421.416,119.589 421.416,117.985 C421.416,117.424 420.935,116.462 420.294,115.901 C419.572,115.339 419.251,114.056 419.412,112.853 C419.653,111.651 419.974,109.245 420.214,107.48 C420.775,103.632 421.978,99.302 423.181,96.896 C423.822,95.533 423.822,94.571 423.181,93.288 C422.699,92.245 422.138,88.396 421.818,84.627 C421.416,78.533 421.577,77.25 423.422,72.84 C425.827,66.826 425.827,66.986 423.903,66.986 C423.02,66.986 422.138,66.666 421.898,66.264 C421.657,65.864 420.695,65.703 419.733,65.943 C418.77,66.264 417.728,65.943 417.327,65.303 C416.445,63.779 414.841,65.543 413.478,69.793 C412.837,71.557 412.035,73.882 411.634,75.005 L410.832,77.01 L409.309,75.085 C408.105,73.562 407.785,71.958 407.785,66.425 C407.785,62.736 408.186,58.086 408.667,56.161 C409.629,52.312 408.907,50.067 406.501,49.505 C403.134,48.784 395.516,48.944 394.474,49.746 C393.351,50.548 392.709,58.486 392.229,75.406 L392.148,80.217 L389.582,80.458 C387.979,80.618 386.936,80.377 386.936,79.816 C386.936,79.335 385.974,78.614 384.771,78.132 C383.327,77.651 381.163,75.326 378.917,71.958 C373.866,64.58 370.979,62.736 365.125,63.137 C360.635,63.458 360.474,63.538 352.937,69.632 C351.253,70.995 350.932,70.995 347.885,69.793 C345.239,68.751 344.196,68.67 342.833,69.391 C338.342,71.797 338.022,68.43 341.711,58.086 C342.753,55.119 343.635,52.392 343.635,51.991 C343.635,51.51 342.592,50.708 341.23,50.147 C339.946,49.586 338.824,49.024 338.824,48.784 C338.824,48.623 339.706,47.26 340.828,45.817 C341.951,44.373 342.833,42.609 342.833,41.888 C342.833,40.364 337.541,36.515 335.376,36.515 C334.574,36.515 333.131,35.954 332.088,35.312 C330.244,34.11 330.163,34.19 327.196,40.284 C325.513,43.732 323.108,49.105 321.824,52.151 C320.461,55.279 318.617,58.647 317.574,59.769 C316.531,60.892 315.489,63.297 315.169,65.222 C314.848,67.066 314.126,69.712 313.485,70.995 C312.683,72.599 312.522,73.802 313.004,74.764 C314.287,77.25 314.848,82.062 313.966,82.623 C313.565,82.864 313.164,84.066 313.164,85.189 C313.164,86.231 312.443,88.156 311.641,89.358 C308.995,92.967 308.674,95.773 310.678,97.136 C313.324,98.981 312.683,99.863 308.834,99.863 C306.829,99.863 305.065,100.184 304.824,100.584 C304.584,100.905 303.141,100.825 301.617,100.344 L298.81,99.462 L298.891,85.429 C298.97,70.114 298.169,59.128 296.966,57.605 C295.843,56.161 293.278,56.321 291.754,57.765 C290.872,58.647 290.23,58.807 289.509,58.166 C288.787,57.605 288.226,57.684 287.584,58.486 C286.863,59.368 286.782,61.132 287.424,65.864 C288.226,71.076 288.146,72.359 287.103,73.882 C286.461,74.925 285.9,76.849 285.9,78.212 C285.9,79.495 285.178,81.34 284.377,82.141 C282.132,84.387 281.49,86.952 283.013,87.514 C284.056,87.915 284.297,89.358 284.297,94.571 C284.377,105.315 284.297,106.599 283.094,107.321 C281.73,108.042 281.49,111.57 282.693,112.292 C283.174,112.532 283.495,113.976 283.495,115.499 L283.495,118.145 L276.919,118.547 C269.302,119.028 258.477,121.834 251.741,125.202 C249.095,126.485 244.364,128.489 241.156,129.532 C235.463,131.457 235.222,131.617 233.378,135.706 C232.255,137.952 230.972,140.117 230.571,140.358 C228.807,141.48 225.6,147.494 225.279,150.3 C225.119,151.904 224.557,154.23 223.996,155.433 C223.515,156.635 223.114,159.923 223.034,162.73 C222.953,167.461 223.114,167.942 225.76,170.507 C227.284,172.032 229.849,174.838 231.373,176.682 C232.897,178.607 234.34,180.371 234.58,180.611 C234.901,181.012 229.689,180.371 226.963,179.73 C219.345,177.885 213.571,175.88 197.293,169.386 C190.718,166.819 182.058,163.451 178.049,162.008 C174.12,160.565 168.507,158.319 165.62,156.956 C160.407,154.471 140.601,147.093 136.672,146.131 C135.549,145.81 133.625,144.687 132.502,143.485 C130.979,141.962 129.937,141.56 128.653,141.962 C127.691,142.282 126.729,142.202 126.408,141.801 C126.168,141.4 124.885,140.518 123.682,139.716 C121.997,138.674 121.517,137.712 121.677,136.108 C121.918,134.103 121.437,133.782 115.101,131.297 C111.333,129.853 107.003,128.089 105.479,127.367 C103.956,126.645 101.149,126.084 99.305,126.164 C97.06,126.245 95.857,125.924 95.536,125.041 C95.215,124.24 94.494,123.999 93.131,124.401 C91.848,124.721 90.404,124.401 89.281,123.599 C88.319,122.876 86.716,122.315 85.673,122.315 C84.711,122.315 83.027,121.914 81.904,121.433 C80.381,120.712 79.579,120.712 78.777,121.433 C77.814,122.155 77.333,121.914 76.291,120.391 C75.57,119.268 75.008,117.824 75.008,117.103 C75.008,116.462 74.848,115.901 74.687,115.901 C74.527,115.901 73.805,115.66 73.164,115.419 C72.522,115.178 70.678,116.061 69.074,117.584 C66.428,119.83 65.867,119.99 64.103,119.188 C60.174,117.424 58.169,117.985 56.805,121.433 C55.363,125.202 52.876,126.164 49.348,124.32 C47.905,123.599 46.863,123.438 46.542,123.919 C45.74,125.282 44.537,124.801 44.537,123.197 C44.537,121.593 42.773,120.632 39.165,120.23 C38.122,120.151 35.796,119.83 33.952,119.509 C27.778,118.547 21.283,117.824 12.061,117.103 C9.897,116.943 6.368,116.301 4.203,115.66 C2.118,115.018 0.274,114.778 0.034,115.099 C-0.528,115.98 5.887,119.509 24.731,128.73 C38.202,135.385 40.127,136.108 42.933,135.626 C45.419,135.225 46.461,135.466 48.306,136.989 C49.509,138.032 51.192,139.154 51.994,139.395 C54.48,140.277 54.4,142.282 51.754,149.739 C49.188,156.956 49.188,157.036 49.83,165.937 L50.551,174.838 L52.957,175.239 C55.442,175.72 55.442,175.8 54.4,180.932 C54.24,182.055 54.561,184.38 55.282,186.064 C56.003,187.748 57.126,191.276 57.768,194.003 C59.211,199.696 59.372,200.017 63.622,208.917 C65.546,212.846 69.155,218.46 72.362,222.309 C75.329,225.917 80.14,231.691 83.027,235.139 C89.202,242.596 93.531,247.006 97.621,250.133 L100.668,252.379 L107.805,251.577 C115.262,250.695 122.399,247.968 125.045,245.082 C126.408,243.558 126.568,241.794 126.007,235.459 C125.606,231.45 124.885,230.809 119.913,230.087 C112.295,228.965 103.956,225.757 101.39,223.03 C98.824,220.144 94.253,213.248 94.253,212.205 C94.253,211.884 93.692,210.361 92.89,208.917 C91.927,206.993 91.607,204.026 91.527,198.172 C91.527,191.356 91.767,189.593 93.291,186.706 C94.253,184.861 95.055,182.857 95.055,182.295 C95.055,181.734 95.937,180.211 96.979,178.847 C98.824,176.522 98.984,176.522 100.427,177.885 C101.309,178.607 102.192,179.248 102.513,179.248 C103.555,179.248 106.281,175.64 106.281,174.276 C106.281,173.474 106.682,172.834 107.163,172.834 C107.644,172.834 107.885,172.272 107.565,171.63 C106.842,169.626 108.446,166.419 110.29,166.419 C111.173,166.419 111.894,166.098 111.894,165.697 C111.894,165.296 112.857,164.734 113.979,164.494 C116.866,163.772 138.437,170.668 141.644,173.395 C143.327,174.838 144.29,175.239 144.931,174.597 C145.412,174.116 146.615,174.036 148.139,174.517 C150.144,175.078 150.785,174.918 151.988,173.395 L153.431,171.63 L160.488,174.036 C165.379,175.72 168.346,177.243 170.03,178.928 C172.516,181.574 176.766,184.059 178.69,184.059 C179.332,184.059 180.855,184.541 182.138,185.182 C190.558,189.352 199.298,193.12 203.388,194.323 C205.954,195.045 208.119,196.087 208.119,196.569 C208.119,198.333 210.685,199.535 214.775,199.776 C219.906,199.937 223.354,201.219 223.354,202.904 C223.354,203.706 225.119,204.988 228.005,206.191 C234.661,209.078 234.982,209.319 234.982,211.002 C234.982,212.125 236.425,213.087 240.755,214.852 C243.962,216.054 247.17,216.936 247.891,216.615 C248.614,216.375 249.576,215.012 250.057,213.729 C250.537,212.365 251.5,211.323 252.141,211.323 C253.986,211.323 258.637,214.771 258.637,216.134 C258.637,216.776 257.193,218.7 255.429,220.465 C253.665,222.148 252.222,223.832 252.222,224.233 C252.222,224.554 251.5,225.115 250.618,225.356 C249.736,225.596 249.014,226.478 249.014,227.2 C249.014,228.563 246.929,235.62 245.807,237.785 C245.486,238.507 244.925,240.591 244.604,242.516 C244.203,245.082 243.161,246.846 240.995,249.011 C239.392,250.614 237.307,253.02 236.505,254.303 C235.703,255.587 234.18,257.27 233.137,258.152 C232.095,258.954 231.453,260.077 231.694,260.638 C231.854,261.2 231.534,262.643 230.892,263.925 C230.17,265.209 229.93,267.053 230.17,268.096 C230.732,270.261 228.727,273.869 227.043,273.869 C226.401,273.869 225.76,274.43 225.519,275.072 C225.199,275.713 223.515,277.237 221.59,278.44 C217.34,281.166 216.859,281.807 217.501,284.053 C217.902,285.817 217.26,286.298 214.694,285.977 C214.133,285.897 213.492,286.378 213.251,287.1 C213.01,287.742 211.967,288.303 211.006,288.303 C209.883,288.303 208.76,289.185 207.798,290.709 C206.996,292.072 204.35,295.279 201.864,297.845 C187.831,312.199 184.063,316.608 185.025,317.731 C186.068,319.095 185.506,319.736 183.02,319.977 C180.214,320.297 178.129,321.581 175.643,324.547 C174.44,325.991 172.757,327.434 171.874,327.835 C170.992,328.156 170.11,329.118 169.87,330 C169.629,330.882 169.148,331.604 168.827,331.604 C168.507,331.604 166.582,333.127 164.577,335.052 C162.573,336.896 159.766,339.302 158.403,340.344 C155.917,342.188 153.19,345.957 150.144,351.651 C149.262,353.174 147.818,355.58 146.856,356.863 C144.049,360.712 141.964,365.523 143.087,365.924 C144.531,366.405 144.049,368.329 142.285,368.891 C141.403,369.212 140.842,369.933 141.083,370.495 C141.243,371.056 140.681,371.697 139.719,372.018 C138.356,372.339 138.196,372.66 138.918,373.381 C139.479,373.943 139.639,374.745 139.238,375.225 C138.356,376.429 135.389,388.296 135.229,391.263 C135.149,393.669 137.073,396.555 138.757,396.555 C139.238,396.555 140.521,397.438 141.564,398.56 L143.408,400.565 L141.644,402.409 C140.521,403.692 139.639,406.097 139.077,409.465 C138.597,412.272 137.714,415.399 137.073,416.362 C136.431,417.404 135.87,420.451 135.79,423.499 C135.71,427.828 135.95,429.031 137.153,429.914 C137.955,430.475 138.998,431.758 139.479,432.8 C139.96,433.762 141.483,435.125 142.766,435.847 C144.129,436.489 145.333,437.29 145.412,437.691 C146.294,439.536 155.677,435.767 166.021,429.432 C168.667,427.828 173.157,425.102 176.044,423.418 C178.931,421.734 183.421,418.447 186.068,416.201 L190.879,412.032 L195.69,412.593 C201.303,413.234 208.199,414.918 209.321,415.88 C209.723,416.282 211.166,416.602 212.529,416.602 C213.892,416.602 215.736,417.164 216.699,417.805 C217.661,418.526 219.505,419.088 220.708,419.088 C221.911,419.088 226.401,419.328 230.571,419.489 C236.986,419.81 239.312,419.569 245.165,417.885 C249.095,416.843 252.382,416.201 252.623,416.602 C252.864,416.923 252.703,418.286 252.302,419.489 C251.901,420.772 251.339,423.899 251.099,426.545 C250.618,430.635 250.858,431.677 252.703,434.804 C254.387,437.771 254.708,438.975 254.306,441.781 C253.665,446.031 254.868,449.479 256.953,449.479 C258.075,449.479 258.637,450.2 259.037,451.884 C259.76,455.172 262.646,457.658 267.698,459.502 C270.023,460.304 273.15,461.748 274.754,462.79 C280.127,466.158 281.089,466.158 294.961,462.63 z" fill="#000000"/>
    <path d="M271.788,199.135 C270.504,198.172 269.382,197.37 269.382,197.37 C269.302,197.291 269.061,196.568 268.74,195.687 C268.419,194.483 268.66,194.003 269.702,193.843 C270.425,193.762 272.75,193.441 274.754,193.201 C278.443,192.72 278.523,192.8 278.844,195.206 C279.084,197.05 278.763,198.092 277.481,199.295 C275.315,201.3 274.594,201.3 271.788,199.135 z" fill="#FEFEFE"/>
    <path d="M417.648,140.197 C415.483,139.796 415.242,137.952 417.166,136.829 C418.289,136.268 418.37,135.787 417.648,134.183 C417.006,132.66 417.087,131.937 418.209,130.495 C421.016,127.126 422.139,128.169 421.657,133.782 C421.256,139.475 420.935,140.839 420.053,140.678 C419.733,140.598 418.61,140.358 417.648,140.197 z" fill="#FEFEFE"/>
    <path d="M301.537,125.202 C300.254,124.561 298.57,123.919 297.928,123.678 C296.886,123.358 296.726,122.235 297.207,116.301 C297.528,112.452 298.089,109.004 298.49,108.603 C298.811,108.282 300.414,107.801 301.938,107.721 C304.103,107.561 304.664,107.721 304.424,108.684 C304.263,109.325 304.022,110.528 303.943,111.33 C303.943,112.051 303.301,113.174 302.58,113.736 C300.254,115.499 300.174,117.825 302.339,121.113 C305.145,125.122 304.824,126.645 301.537,125.202 z" fill="#FEFEFE"/>
    <path d="M388.139,91.443 C387.898,90.802 387.577,89.679 387.337,88.958 C387.016,87.995 387.257,87.754 388.219,88.156 C388.861,88.396 389.983,88.637 390.625,88.637 C391.266,88.637 391.748,89.439 391.748,90.641 C391.748,92.085 391.346,92.646 390.144,92.646 C389.262,92.646 388.3,92.085 388.139,91.443 z" fill="#FEFEFE"/>
    <path d="M338.263,82.943 C335.376,82.141 335.215,81.741 336.419,78.693 C337.3,76.368 340.187,75.807 340.909,77.812 C341.23,78.453 342.032,79.014 342.833,79.014 C344.998,79.014 345.319,80.056 343.956,82.062 C342.673,83.986 342.111,84.066 338.263,82.943 z" fill="#FEFEFE"/>
  </g>
</svg>
