<?xml version="1.0" encoding="UTF-8"?>
<!DOCTYPE svg PUBLIC "-//W3C//DTD SVG 1.1//EN" "http://www.w3.org/Graphics/SVG/1.1/DTD/svg11.dtd">
<svg version="1.1" xmlns="http://www.w3.org/2000/svg" xmlns:xlink="http://www.w3.org/1999/xlink" x="0" y="0" width="500" height="500" viewBox="0, 0, 500, 500">
  <g id="layer102">
    <path d="M206.573,488.851 C206.573,479.258 207.611,476.925 213.056,474.592 C218.499,472 219.537,469.667 219.537,461.369 C219.537,452.038 222.908,422.48 226.277,402.258 C228.092,389.555 232.501,391.888 232.501,405.37 C232.501,415.74 233.278,417.555 239.241,419.888 C251.166,424.295 274.759,425.333 288.241,421.703 C301.205,418.332 301.205,418.332 302.5,406.147 C304.056,394.221 306.389,388.776 308.983,391.629 C309.76,392.147 312.093,409.259 314.167,429.222 C318.574,470.703 319.094,473.036 326.093,474.851 C330.502,476.148 331.279,477.963 330.502,487.556 L329.723,498.703 L382.353,499.482 C439.909,500.259 438.614,500.518 430.577,484.444 C428.242,480.037 425.909,469.667 425.65,461.369 C425.132,453.332 423.058,443.48 420.725,439.074 C418.39,434.926 416.575,427.407 416.575,422.48 C416.575,417.555 414.501,411.074 411.909,408.221 C405.169,400.702 398.427,381.257 398.427,369.851 C398.427,364.665 397.13,359.479 395.576,358.702 C390.908,355.59 383.389,330.962 378.982,305.036 C377.946,298.035 375.614,294.405 370.686,292.072 C366.021,289.739 362.391,284.812 359.537,277.034 C357.463,270.553 354.613,263.813 353.574,261.998 C352.28,260.183 352.018,256.553 353.057,253.7 C353.833,251.108 352.28,243.071 349.427,236.331 C346.576,229.589 343.723,219.219 342.687,213.516 C341.649,207.812 339.316,201.072 336.983,198.736 C333.612,194.848 333.612,194.071 338.539,190.959 C341.649,189.146 343.982,186.034 343.982,184.219 C343.982,180.33 348.909,171.516 354.872,164.774 C359.02,159.849 359.02,159.849 361.873,165.033 C363.426,168.145 364.724,173.849 364.724,178.256 C364.724,182.404 366.797,189.923 369.648,194.589 C372.242,199.257 375.872,210.403 377.688,219.478 C379.5,228.553 382.871,236.59 384.945,237.885 C388.575,239.959 388.575,241.256 385.983,247.219 C381.576,256.553 384.686,276.257 391.167,282.738 C397.65,289.221 410.871,287.147 424.873,277.554 L434.725,270.553 L433.169,253.7 C431.872,239.959 432.39,236.07 435.761,233.219 C440.429,229.33 441.206,215.848 437.058,205.22 C435.502,201.331 433.946,190.959 433.169,182.404 C432.651,173.849 431.095,164.515 429.798,161.664 C423.835,148.441 419.946,132.108 422.538,129.514 C424.094,127.958 423.058,122.774 419.428,114.996 C413.724,102.812 413.983,98.143 420.464,98.143 C424.353,98.143 442.503,75.848 442.503,71.18 C442.503,69.626 440.168,66.773 437.317,64.958 C434.466,63.143 432.131,60.033 432.131,58.218 C432.131,53.032 418.39,43.698 410.871,43.698 C407.761,43.698 401.539,41.885 397.391,39.809 C393.502,37.735 387.798,35.92 385.204,35.92 C382.353,35.92 379.5,34.366 378.723,32.292 C376.908,27.365 357.463,23.994 353.574,27.883 C348.909,32.551 339.575,31.254 338.019,25.809 C336.465,19.846 323.76,13.106 299.131,4.81 C276.574,-2.709 249.61,-1.414 224.723,8.699 C194.388,20.884 196.203,19.069 196.203,39.032 C196.203,49.143 195.167,56.662 193.611,56.662 C192.314,56.662 191.017,50.958 191.017,43.698 C191.017,32.033 190.499,30.736 185.315,30.736 C181.944,30.736 176.24,29.18 172.351,27.106 C166.388,23.994 164.832,23.994 162.24,27.106 C160.684,29.18 157.054,30.736 154.462,30.736 C151.868,30.736 143.054,33.587 135.018,37.217 C126.981,40.847 117.129,43.698 112.981,43.698 C106.498,43.698 105.462,44.736 105.462,50.44 C105.462,54.588 102.35,60.033 97.684,64.44 C93.277,68.329 89.906,72.477 89.906,73.515 C89.906,76.884 108.833,98.143 111.684,98.143 C118.685,98.143 120.759,103.847 116.35,110.59 C114.017,113.958 111.943,122.254 111.425,128.996 C110.387,147.662 107.018,160.885 102.87,163.218 C100.794,164.515 94.054,166.589 88.091,168.145 C81.351,169.96 76.942,172.552 76.942,174.626 C76.942,176.7 72.535,180.589 67.09,183.183 L57.497,187.849 L58.276,203.146 C58.535,213.257 60.35,219.737 62.683,221.552 C64.757,223.108 66.572,225.441 66.572,226.997 C66.572,228.295 70.461,230.368 74.868,231.663 C82.905,233.996 83.425,235.034 82.646,244.109 C81.869,252.146 82.646,253.961 87.832,256.035 C91.203,257.071 95.351,257.589 96.905,257.071 C99.24,256.035 100.276,258.368 100.276,263.552 C100.276,274.183 114.017,285.071 129.573,286.627 C139.424,287.924 141.239,287.147 144.869,281.702 C149.794,274.183 151.091,260.96 148.499,249.034 C146.943,242.812 147.461,239.441 150.314,237.367 C152.388,235.552 156.018,225.441 158.61,214.813 C161.202,204.182 164.832,193.035 166.647,190.182 C168.721,187.331 170.277,180.848 170.277,175.664 C170.277,170.478 172.092,164.774 174.166,162.959 C177.276,160.367 178.055,160.367 178.055,163.218 C178.055,165.292 180.388,168.404 182.98,169.96 C185.833,171.775 188.684,176.7 189.722,181.107 C190.758,185.257 193.611,190.182 196.462,191.479 C202.425,194.848 202.684,198.998 197.5,202.887 C195.426,204.44 193.352,209.368 192.573,213.516 C189.463,230.107 187.648,236.849 185.315,238.405 C184.018,239.182 182.721,245.145 182.203,251.367 C180.647,271.071 171.833,292.59 165.091,292.59 C158.351,292.59 154.721,298.035 154.721,308.405 C154.721,323.184 147.202,350.147 141.239,356.628 C137.609,360.517 136.315,364.147 137.609,368.554 C139.424,376.591 130.611,403.037 123.351,410.815 C119.462,414.963 118.424,418.332 119.721,422.221 C121.795,428.445 116.611,442.963 112.722,442.963 C111.166,442.963 110.907,444.778 111.684,446.852 C112.461,449.184 111.684,453.073 110.128,455.927 C107.795,459.554 107.795,461.628 110.128,464.222 C112.202,467.073 112.202,470.185 109.61,477.445 C107.795,482.629 105.721,487.815 104.683,488.592 C103.647,489.63 102.87,492.74 102.87,495.334 C102.87,499.741 106.239,500 154.721,500 L206.573,500 L206.573,488.851 z" fill="#000000"/>
  </g>
</svg>
