<?xml version="1.0" encoding="UTF-8"?>
<!DOCTYPE svg PUBLIC "-//W3C//DTD SVG 1.1//EN" "http://www.w3.org/Graphics/SVG/1.1/DTD/svg11.dtd">
<svg version="1.1" xmlns="http://www.w3.org/2000/svg" xmlns:xlink="http://www.w3.org/1999/xlink" x="0" y="0" width="500" height="500" viewBox="0, 0, 500, 500">
  <g id="Layer_1">
    <path d="M59.873,477.582 C59.873,489.963 49.836,500 37.455,500 C25.074,500 15.037,489.963 15.037,477.582 C15.037,465.201 25.074,455.165 37.455,455.165 C49.836,455.165 59.873,465.201 59.873,477.582 z" fill="#000000"/>
    <path d="M98.465,411.464 C94.549,412.316 71.223,434.733 71.223,434.733 C69.748,435.074 62.71,437.003 57.035,433.031 C46.252,425.653 35.242,429.909 33.198,430.193 C15.435,432.463 7.092,469.353 7.092,469.353 C24.118,452.327 37.171,442.679 54.197,456.3 C71.791,468.218 58.738,496.027 58.738,496.027 C61.973,497.106 67.421,491.373 70.088,485.812 C74.572,476.39 70.656,463.678 70.656,461.975 C80.872,447.787 105.276,429.625 109.816,420.545 C109.816,420.545 106.411,409.762 98.465,411.464 z" fill="#000000"/>
    <path d="M163.732,345.63 C106.07,333.258 113.221,282.066 141.03,267.31 C154.084,257.094 515.605,41.998 491.768,-0 C494.038,1.135 235.809,186.152 230.134,185.017 C223.891,188.422 226.729,170.829 226.729,170.829 C160.327,222.474 101.303,271.283 76.331,289.444 C51.757,307.321 71.791,345.062 86.547,345.062 C101.303,345.062 112.767,338.536 127.977,353.008 C139.895,364.359 89.385,401.816 89.385,401.816 C105.843,405.221 115.491,414.869 115.491,431.896 C115.491,431.896 187.568,350.738 163.732,345.63 z" fill="#000000"/>
    <path d="M145.571,402.951 C155.673,407.151 183.028,406.924 183.028,406.924 L159.759,381.385 C159.759,381.385 138.76,400.113 145.571,402.951 z" fill="#000000"/>
    <path d="M160.327,376.844 C160.327,376.844 168.272,390.465 173.38,390.465 C178.488,390.465 189.839,391.6 202.892,387.628 C202.892,385.925 169.975,363.224 169.975,363.224 L160.327,376.844 z" fill="#000000"/>
    <path d="M235.809,364.359 C227.296,363.224 156.808,333.598 166.002,342.792 C170.542,347.333 173.948,351.873 171.11,358.116 C169.407,361.918 185.298,371.737 200.622,376.277 C215.832,380.817 243.13,365.323 235.809,364.359 z" fill="#000000"/>
    <path d="M252.835,335.414 C246.592,333.712 134.788,308.74 131.95,315.551 C124.572,326.334 156.808,341.43 159.759,340.522 C165.435,333.144 210.27,354.143 221.053,349.603 C226.672,347.276 260.1,337.401 252.835,335.414 z" fill="#000000"/>
    <path d="M276.672,287.741 C223.323,303.632 135.355,270.715 128.545,288.876 C124.799,297.219 128.545,307.605 128.545,307.605 C128.545,307.605 218.783,324.064 244.89,320.658 C262.483,318.388 274.402,297.389 276.672,287.741 z" fill="#000000"/>
    <path d="M157.489,261.635 C140.576,271.51 140.463,276.39 140.463,276.39 C140.463,276.39 224.458,296.254 268.159,278.661 C276.161,269.183 284.617,236.663 284.617,236.663 C284.617,236.663 179.055,260.499 157.489,261.635 z" fill="#000000"/>
    <path d="M281.78,182.179 C257.943,192.963 243.755,209.421 191.541,237.798 C178.545,246.652 174.402,249.319 175.083,251.986 C177.58,261.975 253.97,241.203 274.402,232.123 C286.32,221.907 281.78,182.179 281.78,182.179 z" fill="#000000"/>
    <path d="M205.162,380.25 C205.162,380.25 208.227,386.209 206.865,389.33 C204.992,393.587 195.911,391.317 194.946,393.303 C192.676,397.843 231.269,417.14 261.348,420.545 C270.372,420.488 290.293,418.275 290.293,418.275 C290.293,418.275 258.511,397.276 224.458,377.98 C215.945,381.385 205.162,380.25 205.162,380.25 z" fill="#000000"/>
    <path d="M246.592,346.765 C248.295,348.468 226.161,353.008 226.161,353.008 C226.161,353.008 248.295,361.521 248.295,364.926 C248.295,368.331 231.836,374.574 231.836,374.574 C231.836,374.574 268.726,399.546 297.103,399.546 C325.48,399.546 357.262,363.224 357.262,363.224 C335.696,368.331 244.89,345.062 246.592,346.765 z" fill="#000000"/>
    <path d="M266.343,316.629 C267.818,314.472 245.571,329.228 245.571,329.228 C245.571,329.228 265.548,330.874 266.456,334.279 C267.421,337.684 253.97,341.09 253.97,341.09 C253.97,341.09 305.673,362.372 337.001,353.519 C368.329,344.665 390.747,305.902 390.747,305.902 C368.386,317.764 264.753,318.956 266.343,316.629 z" fill="#000000"/>
    <path d="M280.645,265.04 L270.088,281.839 C270.088,281.839 282.915,282.917 284.617,286.039 C286.32,289.16 272.699,305.902 272.699,305.902 C269.294,312.713 382.801,301.93 382.801,301.93 C409.816,283.768 444.663,228.717 444.663,228.717 C425.48,245.176 281.666,275.88 280.645,265.04 z" fill="#000000"/>
    <path d="M467.364,142.452 C444.663,167.991 298.068,215.948 285.185,225.312 C284.106,226.107 280.02,229.058 280.645,231.555 C281.212,233.712 284.844,233.485 286.887,235.528 C291.939,240.522 281.382,253.405 283.482,259.364 C283.482,259.364 364.64,253.121 430.474,227.015 C455.389,202.554 476.445,145.857 467.364,142.452 z" fill="#000000"/>
    <path d="M286.887,215.096 C307.886,220.772 444.663,155.505 458.284,145.289 C471.904,135.074 490.066,28.944 490.066,28.944 C490.066,28.944 326.615,165.721 286.887,179.909 C286.887,179.909 291.995,203.746 286.887,215.096 z" fill="#000000"/>
  </g>
</svg>
