<?xml version="1.0" encoding="UTF-8"?>
<!DOCTYPE svg PUBLIC "-//W3C//DTD SVG 1.1//EN" "http://www.w3.org/Graphics/SVG/1.1/DTD/svg11.dtd">
<svg version="1.1" xmlns="http://www.w3.org/2000/svg" xmlns:xlink="http://www.w3.org/1999/xlink" x="0" y="0" width="500" height="500" viewBox="0, 0, 500, 500">
  <g id="Layer_1">
    <path d="M94.798,499.067 C92.961,498.332 91.123,496.617 90.634,495.148 C90.144,493.678 88.796,490.983 87.572,489.146 C84.265,484.614 84.632,481.552 88.919,477.388 C93.818,472.489 93.696,469.059 88.796,468.08 C85.122,467.345 85,467.1 85.489,462.201 C85.979,456.567 94.308,418.353 99.33,398.389 C103.494,381.854 103.371,376.832 98.105,366.054 C95.655,361.277 92.961,356.623 91.981,355.888 C89.041,353.439 89.776,350.744 97.003,338.006 C107.168,320.369 107.291,320.001 107.291,316.695 C107.291,314.98 109.128,311.918 111.823,309.101 C115.864,304.936 116.354,303.712 116.477,298.078 L116.477,291.586 L105.454,283.992 C90.634,273.704 79.978,267.58 74.466,266.355 C67.362,264.763 55.482,265.131 45.439,267.335 C34.66,269.662 30.129,268.56 30.129,263.538 C30.129,259.986 33.191,257.659 46.051,251.168 C51.073,248.596 55.604,245.901 56.094,245.166 C56.584,244.431 54.869,241.982 52.052,239.532 C46.051,234.266 44.336,228.632 46.786,221.65 C49.358,214.424 48.868,212.709 44.214,209.892 C39.437,207.198 36.865,203.156 35.64,196.664 C35.028,193.357 35.64,191.03 37.967,186.498 C40.907,181.109 41.152,178.782 42.377,155.266 C43.479,134.812 44.214,128.443 46.296,122.197 C49.48,113.011 48.868,111.418 41.274,107.866 C36.987,105.784 35.518,104.192 32.578,97.945 C27.556,87.535 26.822,81.533 29.884,76.389 C31.231,74.184 32.946,70.388 33.68,67.938 C35.518,62.181 46.541,51.648 54.135,48.219 C58.666,46.259 61.116,45.892 66.26,46.626 C72.017,47.239 72.874,47.116 73.486,45.034 C73.976,43.687 73.976,41.85 73.486,40.747 C72.384,37.808 75.079,33.889 79.733,32.051 C82.917,30.704 84.142,29.112 85.367,25.315 C87.694,17.721 91.001,15.394 101.412,14.047 C116.477,12.21 149.056,5.596 159.1,2.289 C169.756,-1.141 172.328,-0.896 178.697,4.248 C182.493,7.188 184.086,7.678 188.005,7.188 C192.292,6.576 193.027,6.943 195.599,10.372 L198.416,14.169 L211.276,14.169 C226.219,14.292 227.811,14.904 234.67,23.233 C240.426,30.214 242.386,36.338 242.509,47.851 L242.631,56.425 L248.143,56.057 C251.205,55.812 257.451,54.465 261.983,53.118 C286.479,45.769 304.483,59.119 325.795,100.518 C327.265,103.212 330.082,107.989 332.164,110.928 C340.37,123.054 342.085,133.955 336.941,142.161 C333.266,148.162 333.144,150.122 336.451,154.164 C337.798,156.001 339.268,159.553 339.635,162.002 C340.492,167.637 342.82,170.454 348.944,173.516 C352.863,175.598 353.475,176.455 353.475,180.129 C353.475,182.334 354.088,184.661 354.823,185.151 C356.782,186.253 364.499,202.911 364.499,205.85 C364.499,209.77 365.968,210.994 373.072,213.689 C376.747,215.159 381.891,218.098 384.463,220.303 C388.382,223.61 389.484,225.692 391.444,233.408 C392.791,238.43 394.751,243.207 395.853,244.064 C399.038,246.391 412.266,247.126 417.532,245.289 C424.269,242.839 431.862,244.309 437.374,249.086 C442.396,253.495 443.253,253.74 445.335,251.168 C447.295,248.841 452.684,248.841 458.073,251.045 C462.482,252.883 469.464,260.599 470.566,264.886 C470.934,266.355 469.096,276.276 466.279,286.932 C463.585,297.588 459.665,314.735 457.583,325.146 C455.379,335.556 453.174,345.355 452.562,346.947 C451.949,348.539 451.459,351.601 451.459,353.683 C451.459,360.297 441.538,389.815 437.374,395.449 C435.169,398.511 427.943,400.103 424.269,398.266 C422.064,397.164 421.329,395.449 420.717,390.55 C420.227,387.12 418.635,381.854 416.92,378.914 C414.593,374.505 413.491,373.648 410.428,373.648 C405.039,373.648 402.345,379.527 402.59,390.917 C402.712,399.981 400.018,408.677 395.976,412.106 C394.751,412.964 393.894,414.678 393.894,415.781 C393.894,420.435 388.382,433.295 381.033,446.033 C377.604,451.667 363.274,460.241 353.475,462.323 C347.351,463.67 336.083,462.935 332.164,460.976 C328.979,459.261 311.832,456.444 309.873,457.179 C308.648,457.669 308.158,460.118 308.158,465.14 C308.158,473.714 305.341,480.573 301.544,481.43 C290.888,483.88 283.662,484.125 273.863,482.532 C268.107,481.675 260.758,480.818 257.574,480.818 C252.185,480.818 227.076,473.469 224.627,471.142 C224.014,470.652 224.504,467.222 225.484,463.548 C226.954,457.546 226.954,455.832 225.484,450.075 C223.647,443.094 220.217,439.174 215.808,439.174 C213.358,439.174 205.765,436.48 194.007,431.336 C191.435,430.233 186.658,429.376 183.351,429.376 C178.084,429.376 176.859,429.866 175.145,432.438 C171.96,437.337 173.797,442.481 181.514,450.32 C187.638,456.567 188.25,457.669 187.515,460.976 C186.903,464.038 186.045,464.773 182.249,465.263 C163.142,468.08 161.304,469.304 156.528,481.675 C153.098,490.738 152.608,491.473 145.872,495.393 L138.768,499.557 L118.437,499.924 C106.678,500.169 96.758,499.802 94.798,499.067 z M340.86,434.03 C344.902,431.091 347.351,427.784 350.658,421.292 C355.435,411.249 355.558,408.065 350.903,407.575 C348.576,407.33 347.106,408.065 345.514,410.637 C344.289,412.474 340.615,416.883 337.431,420.19 C334.124,423.619 330.694,428.029 329.714,429.988 C328,433.173 328,433.785 329.837,435.745 C332.654,438.807 334.491,438.562 340.86,434.03 z M319.303,412.596 C321.998,410.759 325.305,407.085 326.775,404.39 C328.122,401.573 330.327,398.144 331.674,396.674 C334.124,394.102 334.124,393.734 332.164,389.693 C330.327,385.773 330.327,384.671 331.919,379.404 C332.899,376.097 334.981,372.055 336.696,370.341 C341.717,365.319 342.575,351.111 338.043,344.008 C336.206,341.068 327.632,339.108 322.121,340.456 L318.936,341.313 L319.793,353.194 C320.773,366.911 319.793,370.341 313.547,376.832 C309.995,380.507 309.015,382.589 307.913,389.57 C307.055,395.817 307.055,399.736 308.035,404.268 C309.26,409.902 312.2,415.903 313.792,415.903 C314.037,415.903 316.609,414.433 319.303,412.596 z M183.351,411.494 C184.576,409.902 184.208,408.922 180.534,405.247 C175.88,400.593 173.43,400.716 173.43,405.615 C173.43,412.596 179.431,416.148 183.351,411.494 z M226.341,402.43 C225.729,391.04 224.259,387.243 219.605,385.161 C215.196,383.201 212.256,378.179 210.051,368.748 C207.969,359.93 207.357,359.073 202.09,358.215 C194.007,356.868 192.904,358.338 193.517,368.504 C194.252,380.996 197.191,388.1 204.417,395.204 C208.459,399.123 210.174,401.818 209.684,403.043 C209.317,404.268 210.174,406.227 212.011,408.065 C214.583,410.637 216.053,411.127 220.952,410.759 L226.709,410.392 L226.341,402.43 z M275.701,223.855 C276.436,223.365 278.885,220.303 281.212,217.118 C283.539,213.934 286.479,209.892 287.704,208.3 C288.928,206.585 291.256,205.238 292.848,205.238 C296.4,205.238 301.421,201.196 300.564,198.991 C300.197,198.012 297.135,196.297 293.95,195.072 C280.11,189.805 279.008,189.071 274.476,182.334 C272.026,178.66 269.699,173.393 269.209,170.699 C268.719,167.882 267.372,165.064 266.147,164.33 C264.188,163.227 263.33,163.717 260.268,167.269 C258.186,169.596 255.736,173.026 254.757,174.863 C253.042,178.047 253.287,178.415 257.941,183.069 C263.33,188.336 264.065,192.01 261.003,197.889 C260.023,199.726 257.574,202.053 255.614,202.911 C252.062,204.503 251.94,204.87 252.429,211.117 C253.042,219.935 255.491,223.365 261.248,223.977 C269.699,224.835 274.476,224.835 275.701,223.855 z" fill="#000000"/>
  </g>
</svg>
