<?xml version="1.0" encoding="UTF-8"?>
<!DOCTYPE svg PUBLIC "-//W3C//DTD SVG 1.1//EN" "http://www.w3.org/Graphics/SVG/1.1/DTD/svg11.dtd">
<svg version="1.1" xmlns="http://www.w3.org/2000/svg" xmlns:xlink="http://www.w3.org/1999/xlink" x="0" y="0" width="500" height="500" viewBox="0, 0, 500, 500">
  <g id="layer101">
    <path d="M228.006,408.735 C221.966,407.302 223.092,395.837 230.156,388.159 C233.943,383.962 234.046,383.757 232.817,380.277 C231.691,377.206 231.794,375.772 233.636,369.221 C235.786,362.055 237.219,353.354 238.857,338.203 C239.369,333.494 239.164,327.967 238.345,322.336 C237.117,314.454 237.322,304.422 238.755,299.406 C239.266,297.666 239.983,297.563 246.228,298.075 C250.834,298.485 253.7,298.28 254.826,297.461 C256.362,296.335 257.795,292.752 267.213,266.239 C270.489,256.821 270.796,253.033 268.134,252.009 C265.985,251.191 261.378,254.057 259.535,257.333 C257.897,260.199 254.417,262.349 244.897,266.443 C242.747,267.365 240.188,268.081 239.062,268.081 C238.038,268.081 236.81,268.593 236.503,269.105 C235.479,270.743 232.305,270.231 230.36,268.081 C228.211,265.624 224.014,265.42 219.1,267.467 C217.257,268.286 214.698,268.695 213.47,268.388 C212.139,268.081 209.682,268.695 207.532,269.924 C202.414,272.688 190.027,276.271 185.319,276.271 C183.169,276.271 178.358,277.192 174.672,278.318 C168.223,280.263 167.711,280.57 163.719,286.712 C161.364,290.295 158.293,295.311 156.86,297.87 C150.616,308.926 136.08,317.116 139.765,307.493 C142.324,300.737 137.308,298.28 123.898,299.713 C115.811,300.532 112.432,301.351 94.211,307.083 C89.195,308.619 80.187,311.383 74.352,313.226 C63.398,316.604 59.918,318.753 59.918,322.336 C59.918,326.533 55.618,327.864 39.546,328.274 C22.963,328.683 13.647,327.352 5.048,323.155 C-1.913,319.777 -1.708,318.651 5.867,317.935 C14.671,317.013 25.624,313.021 29.617,309.131 C32.995,305.855 36.066,305.139 39.546,307.083 C41.799,308.21 46.405,306.981 78.139,296.54 C116.63,283.846 120.008,282.208 126.662,271.869 C128.914,268.388 131.268,266.239 135.056,264.294 C137.922,262.861 142.733,259.789 145.702,257.537 C151.537,253.136 155.12,246.993 162.286,229.898 C164.743,224.063 166.073,222.016 167.302,222.22 C169.656,222.63 171.294,230 171.396,240.135 C171.499,244.946 172.011,248.836 172.625,249.246 C173.239,249.553 174.979,248.631 176.617,247.096 C180.2,243.615 186.342,242.694 190.539,244.844 C192.28,245.765 195.453,248.222 197.705,250.474 C203.438,256.207 205.895,257.333 208.658,255.49 C209.887,254.773 213.265,253.545 216.029,252.828 C222.99,251.088 225.754,249.143 225.754,245.97 C225.754,241.67 229.439,230.717 232.101,226.929 C233.124,225.599 233.022,224.677 231.998,222.63 C231.179,221.299 230.872,218.945 231.282,217.614 C231.589,216.181 236.298,210.039 241.723,203.999 C254.007,189.974 254.212,189.463 251.858,183.935 C250.834,181.478 249.196,178.714 248.377,177.588 C247.456,176.564 246.739,174.005 246.739,171.958 C246.739,168.272 246.739,168.272 241.826,167.965 C235.991,167.556 234.455,165.713 232.817,156.91 C232.203,153.634 231.282,150.051 230.77,149.13 C229.439,146.57 229.542,145.444 232.101,140.428 C235.069,134.389 240.188,131.727 246.535,132.546 C251.858,133.263 257.386,131.727 261.378,128.451 C262.914,127.12 265.78,125.38 267.725,124.357 C269.67,123.435 272.741,121.285 274.583,119.648 C276.938,117.498 278.883,116.577 281.34,116.577 C283.489,116.577 285.537,115.86 286.663,114.529 C291.986,108.592 308.877,101.733 321.98,100.095 C332.626,98.765 334.673,99.174 349.619,105.009 C367.943,112.175 373.778,115.246 378.589,120.569 C380.944,123.23 383.401,125.687 384.117,126.097 C386.267,127.428 391.283,121.9 401.315,106.749 C406.741,98.56 411.961,91.599 412.883,91.292 C415.442,90.268 417.694,92.52 418.411,96.717 C418.718,98.867 420.048,104.088 421.174,108.285 C423.222,115.655 423.222,116.269 421.686,125.073 C420.765,130.703 420.356,136.334 420.765,139.609 C421.686,146.775 419.639,151.586 415.032,153.327 C406.843,156.398 406.126,158.547 411.347,164.382 C414.93,168.272 418.615,177.486 418.001,180.761 C417.796,181.683 415.647,183.628 413.19,185.163 C407.867,188.234 407.252,189.36 409.607,191.715 C410.835,192.943 412.268,193.25 414.93,192.738 C419.127,192.022 424.553,190.486 428.443,188.951 C431.104,187.927 432.128,187.62 444.822,184.344 C454.239,181.887 465.193,178.407 471.847,175.848 C474.611,174.824 477.272,173.903 477.886,173.903 C478.501,173.903 481.776,172.47 485.257,170.832 C492.934,167.044 496.21,167.658 498.565,173.391 C500.714,178.407 500.51,180.761 497.541,183.628 C495.596,185.675 494.061,186.187 490.068,186.187 C487.304,186.187 484.233,186.801 483.107,187.722 C482.083,188.541 480.241,189.258 479.217,189.258 C478.193,189.258 473.996,190.179 470.004,191.305 C455.775,195.4 445.231,198.676 441.75,200.007 C439.805,200.723 436.12,201.952 433.561,202.668 C427.317,204.408 426.805,205.023 429.364,208.298 C430.797,210.141 431.411,211.984 431.104,213.417 C430.695,214.748 431.002,217 431.514,218.535 C432.128,220.071 432.742,222.527 432.947,223.961 C433.152,225.394 433.663,228.055 434.073,229.898 C434.687,232.662 434.278,233.583 431.207,236.961 C428.033,240.442 426.907,240.954 421.584,241.466 L415.647,241.977 L415.032,247.096 C414.009,255.592 411.142,258.459 400.599,261.837 C396.811,263.065 396.709,263.168 397.323,267.365 C397.732,269.719 399.165,273.404 400.496,275.452 C402.748,278.83 403.055,279.956 402.339,284.972 C401.827,289.783 402.032,291.216 403.874,294.185 C405.103,296.13 406.638,297.768 407.355,297.768 C409.607,297.768 411.961,301.249 413.599,306.674 C414.828,310.666 415.954,312.407 418.615,313.942 C421.379,315.58 422.812,317.73 425.883,325.305 C428.033,330.526 430.183,334.928 430.695,335.235 C431.104,335.542 433.152,339.329 435.199,343.629 C438.168,349.873 438.987,353.149 439.396,359.291 C439.908,366.866 439.908,367.071 437.042,369.221 C435.404,370.449 433.561,371.882 432.947,372.394 C431.514,373.623 432.23,378.127 434.175,379.765 C437.451,382.529 435.301,393.175 430.388,398.908 C427.009,402.798 425.372,403.412 411.142,407.404 C403.67,409.452 403.567,409.452 401.417,407.507 C400.189,406.381 398.244,404.947 397.016,404.333 C395.685,403.617 394.661,402.183 394.661,400.955 C394.661,397.577 392.409,390.616 390.669,388.466 C389.747,387.442 387.291,385.907 385.243,385.088 C381.968,383.757 381.353,383.041 381.353,380.379 C381.353,378.639 380.432,375.363 379.408,373.111 C378.385,370.756 377.156,367.685 376.849,366.15 C376.133,362.772 373.676,362.465 370.707,365.229 C369.479,366.252 366.305,367.788 363.439,368.709 C360.675,369.63 356.99,370.859 355.249,371.371 C353.612,371.882 349.005,373.725 345.013,375.363 C336.823,378.741 332.421,379.765 329.35,379.048 C326.996,378.332 320.854,368.811 318.909,362.772 C318.192,360.52 316.35,355.504 314.814,351.511 C310.515,340.66 304.987,320.903 303.042,308.824 C301.813,301.044 298.742,303.091 293.419,314.966 C289.734,323.053 289.836,324.896 293.829,326.431 C295.262,326.943 296.388,327.557 296.49,327.659 C296.49,327.864 296.797,341.172 297.104,357.346 L297.616,386.726 L295.057,387.34 C293.317,387.852 290.962,390.206 288.198,394.506 C282.773,402.798 281.544,403.821 275.607,404.538 C272.946,404.947 269.363,405.971 267.622,406.79 C265.37,408.018 260.354,408.53 247.456,408.837 C238.038,409.042 229.337,408.94 228.006,408.735 z" fill="#000000"/>
  </g>
</svg>
