<?xml version="1.0" encoding="UTF-8"?>
<!DOCTYPE svg PUBLIC "-//W3C//DTD SVG 1.1//EN" "http://www.w3.org/Graphics/SVG/1.1/DTD/svg11.dtd">
<svg version="1.1" xmlns="http://www.w3.org/2000/svg" xmlns:xlink="http://www.w3.org/1999/xlink" x="0" y="0" width="500" height="500" viewBox="0, 0, 500, 500">
  <g id="layer101">
    <path d="M318.313,498.104 C311.848,496.952 305.914,495.535 305.205,494.915 C302.814,492.878 304.851,483.579 308.216,481.01 C309.013,480.39 309.191,479.859 308.571,479.859 C306.888,479.859 308.305,476.051 311.05,473.305 C314.593,469.762 314.327,468.877 309.899,469.585 C307.773,469.939 301.485,470.382 295.906,470.648 C285.012,471.179 273.764,469.585 271.284,467.105 C270.576,466.397 269.867,464.094 269.601,461.969 C269.159,458.426 269.424,457.895 271.55,456.477 C274.295,454.706 273.498,452.935 269.513,451.961 C268.184,451.695 266.147,450.809 265.085,450.012 C263.313,448.949 263.048,448.241 263.579,445.584 C264.199,441.953 263.313,440.536 258.442,438.056 C256.494,437.081 253.04,434.602 250.825,432.476 C248.523,430.35 244.271,427.251 241.437,425.656 C238.515,423.974 236.035,422.025 235.858,421.317 C235.769,420.52 237.098,417.774 238.869,415.117 C240.64,412.46 244.006,406.172 246.397,401.212 C248.788,396.164 252.685,388.547 255.165,384.207 C257.645,379.956 262.25,370.48 265.439,363.306 C270.93,350.906 271.373,349.578 271.993,341.253 C272.701,332.396 272.701,332.396 269.07,321.768 L265.439,311.14 L265.616,298.475 C265.793,284.748 265.262,283.242 261.099,286.253 C251.18,293.516 248.7,294.047 243.032,290.062 C241.083,288.733 238.426,287.67 237.098,287.67 C234.441,287.67 228.595,284.57 228.595,283.242 C228.595,282.799 227.267,280.939 225.584,279.168 C222.661,275.979 220.359,273.323 215.399,267.3 C213.716,265.263 212.653,262.872 212.476,260.658 L212.211,257.115 L207.162,256.495 C201.317,255.786 196.357,253.484 192.992,249.852 C190.246,247.018 187.058,240.287 186.969,237.453 C186.969,236.479 185.552,233.911 183.869,231.874 C182.187,229.837 180.77,227.799 180.77,227.445 C180.77,226.205 173.596,217.526 170.407,214.957 C169.344,214.072 168.282,211.415 167.485,207.252 L166.333,200.875 L168.636,198.395 C171.559,195.296 171.559,194.587 168.813,191.31 C167.573,189.805 165.359,185.819 163.942,182.365 C159.868,172.8 149.948,156.947 141.535,146.673 C139.409,144.016 136.929,140.739 135.955,139.322 C135.069,137.816 130.287,131.085 125.327,124.266 C94.329,81.045 81.841,65.015 71.479,54.741 C62.888,46.327 61.559,44.645 57.751,36.585 C51.906,24.629 49.426,15.949 49.514,8.332 C49.514,3.904 49.957,1.867 51.02,0.804 C52.349,-0.524 52.703,-0.347 55.006,2.398 C56.423,4.081 59.877,9.307 62.711,13.912 C72.099,29.677 78.298,38.268 85.827,46.062 C90.521,50.933 94.329,55.892 96.1,59.347 C97.606,62.446 101.768,68.557 105.311,73.074 C111.068,80.337 118.596,90.522 155.794,141.093 C172.001,163.235 177.05,168.903 184.135,173.42 C188.652,176.342 190.6,178.025 190.955,179.797 C191.309,181.125 192.017,182.542 192.549,182.985 C194.586,184.579 202.911,186.793 205.745,186.528 L208.668,186.262 L208.402,181.302 C208.225,178.291 208.579,175.103 209.376,173.154 C210.882,169.7 216.639,165.006 220.536,164.12 C223.724,163.412 226.824,160.578 226.824,158.275 C226.824,154.998 229.392,151.544 233.821,148.71 C236.301,147.116 238.692,146.053 239.135,146.319 C239.577,146.673 241.969,147.293 244.449,147.736 C247.814,148.356 249.585,148.267 251.8,147.381 C253.394,146.673 256.759,145.876 259.151,145.521 C262.693,144.99 264.287,144.104 267.122,141.27 C269.07,139.322 272.258,136.842 274.207,135.868 C277.661,134.008 277.75,133.831 277.484,129.58 C277.041,122.937 279.609,116.295 284.126,112.309 C288.997,108.058 290.237,104.958 288.732,100.53 C287.846,97.873 287.846,96.721 288.643,95.659 C292.54,90.079 293.426,87.333 292.806,81.842 C292.452,78.92 291.034,73.783 289.617,70.417 C287.315,65.28 287.049,63.598 287.315,57.841 C287.58,50.49 288.643,48.63 294.311,45.796 C298.651,43.582 299.448,43.67 307.773,47.036 C316.364,50.401 321.767,55.361 325.575,63.066 C327.612,67.317 328.232,69.974 328.941,78.565 C329.561,86.359 330.269,90.079 331.952,93.887 C334.432,99.378 336.026,100.441 339.657,99.024 C343.289,97.696 349.754,97.961 352.234,99.556 C353.651,100.53 356.928,101.15 361.71,101.327 C365.696,101.504 371.01,102.124 373.401,102.655 C375.881,103.187 381.638,103.895 386.243,104.25 C393.151,104.692 395.188,105.135 397.757,106.907 C403.425,110.804 405.373,113.106 408.739,120.014 C411.927,126.568 412.37,127.1 417.95,130.111 C425.655,134.362 431.589,139.676 433.36,143.927 C438.409,156.327 438.674,157.478 437.612,160.046 C436.372,163.146 425.921,172.623 421.404,174.748 C417.241,176.697 416.356,179.442 418.924,183.074 C421.05,186.085 424.149,187.236 432.12,187.945 C435.752,188.299 439.029,189.273 441.508,190.69 C443.545,191.93 445.937,192.904 446.734,192.904 C449.391,192.904 450.719,195.296 450.454,199.813 C450.099,206.366 444.52,214.249 435.84,220.36 C432.829,222.486 432.209,222.574 418.216,222.663 L403.691,222.751 L401.388,225.408 C400.148,226.825 398.288,229.394 397.314,230.988 C396.34,232.671 394.303,236.036 392.708,238.605 C391.203,241.173 389.343,245.513 388.546,248.081 C387.306,252.332 386.509,253.395 381.195,257.469 C375.969,261.543 374.818,262.075 372.338,261.543 C369.681,261.1 369.238,261.277 367.821,263.846 C367.024,265.44 364.633,268.629 362.596,271.02 C360.47,273.411 358.788,275.802 358.788,276.422 C358.788,277.042 360.116,280.054 361.71,283.242 L364.544,288.999 L364.544,307.155 L364.456,325.311 L360.028,338.419 L355.511,351.526 L356.662,357.903 C357.282,361.446 359.053,367.291 360.647,370.922 C363.039,376.502 363.57,378.805 363.747,385.359 C363.836,391.736 364.279,393.507 365.696,395.101 C368.087,397.847 369.416,400.592 369.416,402.983 C369.416,404.135 370.213,406.615 371.187,408.563 C372.161,410.512 372.958,413.169 372.958,414.497 C372.958,417.597 376.058,427.073 378.272,430.705 C381.638,436.461 384.737,446.027 385.535,453.289 C386.863,464.537 386.509,467.46 383.94,470.294 C381.815,472.419 381.726,473.039 382.258,477.113 C383.143,483.313 381.992,484.73 371.453,490.575 C355.953,499.255 354.536,499.698 341.517,499.963 C332.572,500.141 327.347,499.698 318.313,498.104 z" fill="#000000"/>
  </g>
</svg>
