<?xml version="1.0" encoding="UTF-8"?>
<!DOCTYPE svg PUBLIC "-//W3C//DTD SVG 1.1//EN" "http://www.w3.org/Graphics/SVG/1.1/DTD/svg11.dtd">
<svg version="1.1" xmlns="http://www.w3.org/2000/svg" xmlns:xlink="http://www.w3.org/1999/xlink" x="0" y="0" width="500" height="500" viewBox="0, 0, 500, 500">
  <g id="Layer_1">
    <path d="M216.463,499.135 C213.54,497.807 213.54,497.63 214.16,493.556 C214.869,488.154 216.994,484.7 224.522,476.552 C233.555,466.81 233.644,466.633 231.43,462.028 C230.456,459.991 229.393,456.891 229.039,455.209 C227.179,445.024 225.319,441.747 216.906,433.334 C212.478,428.817 208.315,425.097 207.607,425.097 C206.987,425.097 205.658,426.426 204.773,428.109 C203.002,430.943 202.824,431.031 198.308,430.588 C193.171,430.146 191.223,428.551 192.02,425.363 C192.728,422.795 191.046,420.669 188.3,420.669 C185.732,420.669 185.555,422.529 187.857,426.337 C188.743,427.843 189.806,430.057 190.16,431.297 C190.514,432.537 192.108,436.079 193.614,439.267 C196.182,444.758 196.359,445.555 196.271,455.209 C196.182,464.33 195.917,465.925 193.88,469.91 C190.337,476.906 188.389,476.906 179.975,469.91 C177.319,467.696 174.839,465.836 174.485,465.836 C174.219,465.836 172.093,463.002 169.879,459.46 C166.514,454.323 165.894,452.552 166.337,450.338 C166.691,448.389 166.248,446.795 164.743,444.581 C163.591,442.898 161.289,438.647 159.606,435.105 C156.684,429.171 156.241,428.64 152.344,427.312 C149.422,426.249 147.739,425.009 146.499,422.972 C144.728,419.872 140.565,417.215 128.167,411.016 C124.27,409.068 118.691,405.437 115.768,402.957 C112.845,400.566 107.975,396.935 104.875,394.898 C101.775,392.861 97.701,389.141 95.576,386.219 C87.251,375.326 86.543,372.846 89.111,364.433 C89.908,362.041 90.528,358.322 90.528,356.196 C90.528,350.705 91.768,348.934 95.31,348.934 C97.613,348.934 98.941,348.226 100.624,346.189 C101.864,344.683 102.927,343.001 102.927,342.381 C102.927,341.672 105.229,336.624 107.975,331.133 C112.668,321.746 113.023,320.417 113.731,312.624 C115.06,296.505 115.945,290.04 117.274,286.941 C118.779,283.487 121.082,274.542 122.942,265.243 C124.359,258.247 126.307,255.944 130.824,255.944 C133.038,255.944 133.835,255.501 134.277,253.996 C135.075,250.896 134.897,242.837 134.012,242.306 C133.569,242.04 132.418,240.003 131.355,237.789 C129.318,233.361 128.964,226.896 130.469,222.379 C131.709,218.748 129.849,213.611 125.51,208.652 C122.144,204.844 120.462,205.11 119.399,209.715 C118.691,213.08 113.023,220.431 110.189,221.582 C108.86,222.202 106.469,223.796 104.875,225.125 C97.613,231.324 96.284,224.859 103.015,216.18 C104.609,214.143 104.521,212.549 102.927,212.549 C102.484,212.549 100.712,213.789 98.941,215.294 C94.867,218.925 92.742,218.305 93.628,213.611 C94.513,208.829 97.436,204.578 100.89,203.073 C102.838,202.276 104.255,200.947 104.875,199.264 C105.318,197.759 106.115,196.608 106.558,196.608 C107.443,196.608 109.569,193.331 110.366,190.674 C110.897,189.08 110.454,188.46 108.063,187.22 C103.104,184.74 97.701,178.895 97.17,175.353 C96.196,169.33 95.842,168.533 93.716,166.231 C92.388,164.725 91.325,162.246 90.882,159.677 C90.528,156.666 89.642,154.895 87.96,153.478 L85.657,151.53 L89.199,147.898 L92.742,144.267 L90.882,142.762 C89.819,141.965 88.314,140.814 87.428,140.371 C86.1,139.574 85.834,137.98 85.745,129.92 C85.657,118.939 86.277,119.382 75.649,122.127 C67.767,124.164 65.376,125.669 63.162,130.009 C61.214,133.817 58.114,136.828 55.28,137.714 C52.623,138.511 51.915,136.385 53.775,132.843 C54.572,131.337 55.014,129.566 54.749,129.035 C54.572,128.415 54.306,128.592 54.306,129.389 C54.217,130.186 53.42,131.692 52.446,132.843 C51.472,133.994 50.675,135.146 50.675,135.5 C50.675,136.74 44.21,139.042 40.756,139.042 C37.745,139.042 36.594,138.511 33.76,135.588 C30.749,132.577 30.306,131.692 30.306,127.972 C30.306,124.341 30.749,123.367 33.671,120.444 C36.239,117.876 37.922,117.079 41.287,116.636 C43.944,116.282 46.07,116.37 46.601,116.902 C47.93,118.23 50.675,117.965 50.675,116.548 C50.675,115.219 48.815,114.245 46.158,114.245 C43.944,114.245 44.033,112.828 46.158,111.588 C48.461,110.437 52.712,110.437 57.051,111.765 C60.063,112.651 61.302,112.474 66.439,110.702 C78.749,106.451 84.594,102.555 86.72,97.33 C87.605,94.938 89.199,93.167 91.325,92.016 C93.096,91.042 96.461,88.916 98.764,87.322 C101.598,85.374 104.521,84.134 107.62,83.78 C112.048,83.16 112.226,83.248 114.617,86.082 C116.654,88.562 117.185,88.828 117.982,87.676 C118.425,86.968 118.868,85.551 118.868,84.488 C118.868,82.363 124.27,73.152 127.547,69.787 C128.787,68.37 130.558,67.307 131.532,67.307 C133.303,67.307 133.303,67.219 131.621,75.455 C130.912,78.554 133.658,80.06 138.971,79.44 C143.311,78.997 146.765,76.252 150.396,70.672 C152.964,66.599 154.115,66.421 155.267,69.964 C156.418,73.152 158.721,73.418 162.794,70.938 C167.4,68.104 170.145,63.676 171.296,57.477 C172.359,50.923 173.156,49.595 176.079,49.595 C179.71,49.595 209.998,39.41 231.341,30.997 C241.526,27.011 258.53,21.255 260.124,21.255 C260.744,21.255 264.109,20.104 267.563,18.598 C271.106,17.181 275.357,15.764 277.128,15.41 C278.899,15.056 281.645,14.081 283.062,13.196 C284.566,12.31 289.792,10.185 294.575,8.502 C299.357,6.731 305.378,4.074 307.947,2.657 L312.641,-0 L322.914,1.328 C339.033,3.454 360.465,10.45 362.502,14.347 C363.83,16.915 362.325,17.712 355.771,17.712 C343.018,17.89 324.243,23.026 319.283,27.631 C317.601,29.225 316.272,29.403 310.427,29.314 C305.911,29.225 301.393,29.757 297.32,30.908 C289.437,33.122 265.525,41.536 245.511,49.152 C237.009,52.34 225.231,56.768 219.386,58.805 C198.928,66.156 196.094,68.547 197.068,77.935 C197.688,83.868 196.891,85.019 192.286,85.019 C187.326,85.019 180.241,87.676 178.647,89.979 C177.496,91.75 176.522,92.104 173.068,92.104 C167.488,92.104 164.566,93.699 164.034,96.975 L163.591,99.632 L156.507,99.632 C148.979,99.721 141.008,102.289 141.008,104.769 C141.008,105.389 142.425,107.249 144.285,108.843 C147.119,111.411 147.385,111.854 146.145,113.005 C144.285,114.865 137.997,113.891 133.392,111.057 C125.687,106.363 124.359,105.92 122.853,107.16 C121.17,108.577 121.17,112.297 122.764,116.636 C123.473,118.496 124.624,124.784 125.51,130.629 C126.307,136.474 127.635,144.267 128.521,147.898 L130.026,154.541 L133.48,155.249 C135.429,155.603 138.794,156.578 141.008,157.286 C143.222,158.083 147.03,159.146 149.422,159.766 C151.901,160.386 155.887,161.803 158.189,162.865 C162.706,164.814 166.248,165.257 167.045,163.928 C167.311,163.574 170.499,162.954 174.219,162.6 C182.632,161.803 183.252,161.537 183.961,158.614 C184.226,157.286 185.643,154.895 187.06,153.301 C188.566,151.707 189.717,149.581 189.717,148.518 C189.717,147.456 190.337,145.419 191.134,143.913 C192.374,141.522 193.614,138.068 195.828,130.629 C196.271,129.212 196.891,126.378 197.245,124.43 C198.131,118.762 198.573,117.787 200.256,117.787 C202.647,117.787 203.621,119.47 204.33,124.872 C205.216,131.337 206.013,133.374 209.201,136.563 C211.592,138.954 212.212,139.131 214.337,138.245 C215.666,137.714 218.5,137.271 220.714,137.36 C222.928,137.36 226.116,137.271 227.799,137.094 C230.899,136.828 230.899,136.828 230.633,140.194 C230.367,143.293 230.633,143.648 233.555,144.799 C236.035,145.95 237.806,145.95 242.412,145.242 C248.168,144.356 251.711,144.976 251.711,147.013 C251.711,147.456 249.674,149.404 247.283,151.175 C242.766,154.541 241.26,157.197 242.323,159.943 C242.766,161.094 243.651,161.271 245.954,160.917 C247.991,160.563 250.028,161.006 252.242,162.157 C256.227,164.105 259.947,164.371 261.364,162.6 C262.515,161.271 274.824,137.625 279.253,128.592 C281.379,123.987 282.264,123.013 283.859,123.278 C285.187,123.455 285.895,124.341 286.337,126.466 C286.693,128.061 287.755,130.186 288.73,131.072 C290.944,133.109 291.918,138.599 291.121,144.179 C290.766,147.101 291.032,149.315 292.006,151.795 C293.512,155.426 293.246,160.031 291.121,165.08 C290.235,167.116 290.235,168.268 290.944,169.596 C291.475,170.659 292.006,176.947 292.094,184.652 C292.183,198.822 292.892,201.921 296.346,204.135 C298.293,205.375 298.826,205.464 301.04,204.312 C302.368,203.604 307.328,201.656 311.933,200.061 C321.319,196.873 323.889,196.696 342.044,198.29 C348.155,198.822 355.328,199.353 357.985,199.53 C366.044,200.061 382.162,201.921 385.439,202.807 C387.122,203.25 392.258,203.87 396.864,204.135 C401.469,204.401 405.631,204.932 405.986,205.198 C406.428,205.464 410.679,205.995 415.373,206.438 C423.167,207.058 424.141,206.969 426.355,205.464 C427.683,204.49 429.1,203.693 429.632,203.693 C430.074,203.693 432.377,205.907 434.768,208.652 C437.071,211.309 441.322,216.091 444.156,219.191 C446.901,222.379 449.204,225.656 449.204,226.542 C449.204,228.224 441.145,236.46 439.551,236.46 C439.108,236.46 437.337,235.663 435.742,234.778 C432.466,232.829 421.927,231.147 413.336,231.147 C410.237,231.147 404.391,230.35 400.318,229.376 C391.639,227.339 378.266,225.567 375.963,226.099 C373.749,226.542 379.683,229.198 394.915,234.335 C412.185,240.092 417.056,241.154 430.606,241.508 C441.853,241.863 442.739,241.774 444.244,240.092 C445.219,239.029 446.281,238.232 446.724,238.232 C447.167,238.232 449.47,240.092 451.861,242.306 C456.732,246.822 457.352,249.391 454.429,252.047 C450.621,255.501 450.532,256.653 453.72,263.295 L456.732,269.406 L453.366,272.328 C451.595,273.922 450.089,275.782 450.089,276.49 C450.089,278.616 455.049,280.299 457.706,279.059 C458.946,278.527 460.274,278.085 460.717,278.085 C461.691,278.085 463.817,282.601 465.676,288.446 C466.651,291.723 466.651,292.343 465.322,293.937 C463.817,295.62 456.466,298.454 453.455,298.454 C452.569,298.454 451.418,297.48 450.887,296.328 C450.355,295.177 448.85,293.76 447.521,293.14 C436.539,287.915 422.547,281.804 415.55,279.236 C410.945,277.553 405.189,275.428 402.709,274.542 C395.89,271.974 378.177,265.952 375.963,265.42 C373.306,264.8 372.686,265.952 374.635,267.634 C376.229,269.051 392.878,278.262 395.358,279.236 C398.192,280.21 418.65,293.76 425.292,298.897 C427.506,300.579 431.049,303.236 433.263,304.653 C435.477,306.07 437.514,307.576 437.868,307.93 C438.222,308.284 443.447,313.686 449.381,319.797 C468.599,339.458 470.193,342.646 465.588,352.919 C464.436,355.665 460.451,361.599 456.82,366.027 C450.178,374.351 434.414,390.115 429.986,392.949 C428.657,393.747 425.026,396.403 422.104,398.617 C419.093,400.92 414.31,404.108 411.476,405.614 C407.137,407.916 405.631,408.359 402.709,407.828 C400.76,407.562 397.395,407.385 395.181,407.474 C383.934,408.094 380.125,406.677 376.583,400.123 C372.863,393.392 372.332,392.949 367.461,393.481 C364.273,393.747 363.299,393.569 363.653,392.684 C363.919,392.064 363.476,391.09 362.679,390.47 C361.97,389.761 359.402,386.484 357.099,383.031 C354.797,379.665 351.52,375.148 349.926,373.112 C348.243,371.163 344.524,366.381 341.601,362.661 C335.756,355.222 317.334,337.687 308.035,330.779 C293.512,319.886 279.076,307.841 272.61,301.199 C265.083,293.406 261.807,291.192 257.29,290.838 C252.951,290.483 245.157,283.31 241.969,276.668 C238.781,270.114 236.921,268.343 232.316,267.723 C228.862,267.28 228.773,267.28 227.799,271 C227.002,273.922 226.205,274.896 223.725,275.959 C219.297,277.819 219.828,280.653 224.965,282.158 C229.57,283.487 231.518,285.081 234.441,290.129 C236.389,293.406 236.655,294.734 236.212,298.188 C235.592,302.793 236.655,306.69 239.312,309.524 C240.198,310.498 241.526,313.332 242.234,315.812 C243.829,321.303 246.663,326.971 248.611,328.565 C250.825,330.425 253.482,336.181 253.482,339.104 C253.482,340.521 252.685,343.355 251.711,345.48 C250.736,347.606 249.939,350.617 249.939,352.122 C249.939,353.628 248.965,356.816 247.637,359.119 C246.397,361.421 245.6,363.901 245.866,364.521 C246.574,366.381 245.511,368.418 243.74,368.418 C242.854,368.418 240.375,367.621 238.072,366.558 C231.696,363.724 227.622,366.292 231.164,371.075 C232.581,372.934 233.555,373.289 237.541,373.289 C241.615,373.289 242.412,373.643 244.271,375.946 C245.423,377.363 246.751,379.754 247.283,381.259 C247.814,382.676 249.231,385.865 250.471,388.256 C254.987,396.846 255.607,401.009 255.696,421.555 L255.696,440.596 L260.39,449.629 C264.464,457.688 264.995,459.371 264.995,464.242 C264.995,467.961 264.552,470.176 263.578,471.238 C262.781,472.124 262.072,474.692 261.983,477.083 C261.807,481.246 256.404,493.91 253.925,495.947 C250.294,498.958 221.511,501.349 216.463,499.135 z M167.311,394.632 C167.045,393.924 164.831,387.104 162.44,379.311 C159.96,371.606 157.215,363.547 156.329,361.333 C155.355,359.119 154.115,355.576 153.407,353.451 C152.698,351.325 151.636,349.466 150.927,349.2 C150.219,348.934 147.916,350.794 145.171,353.805 C138.971,360.713 138.706,361.244 137.997,365.584 C137.466,368.949 137.643,369.392 139.591,370.278 C140.742,370.809 142.159,372.226 142.691,373.377 C143.134,374.529 144.905,376.034 146.499,376.654 C150.396,378.248 151.281,379.577 151.901,384.27 C152.521,389.23 156.507,393.569 161.643,394.809 C167.045,396.049 167.842,396.049 167.311,394.632 z M441.233,256.83 C441.233,255.501 437.956,254.084 436.274,254.793 C434.857,255.324 434.857,255.413 436.451,256.564 C438.311,257.892 441.233,258.07 441.233,256.83 z" fill="#000000"/>
  </g>
</svg>
