<?xml version="1.0" encoding="UTF-8"?>
<!DOCTYPE svg PUBLIC "-//W3C//DTD SVG 1.1//EN" "http://www.w3.org/Graphics/SVG/1.1/DTD/svg11.dtd">
<svg version="1.1" xmlns="http://www.w3.org/2000/svg" xmlns:xlink="http://www.w3.org/1999/xlink" x="0" y="0" width="500" height="500" viewBox="0, 0, 500, 500">
  <g id="layer101">
    <path d="M245.953,498.918 C239.338,498.316 235.008,497.113 230.558,494.708 C222.62,490.378 221.177,488.574 217.689,479.193 C216.126,474.863 213.72,470.173 212.397,468.85 C210.834,467.286 209.992,464.881 209.992,461.634 C209.992,458.507 208.428,454.057 205.421,448.163 L200.851,439.383 L201.212,421.944 C201.332,412.323 201.212,403.543 200.851,402.22 C200.25,400.295 199.288,400.175 194.116,400.777 C190.869,401.258 185.938,402.46 183.292,403.543 C179.563,405.106 178,405.106 175.474,404.024 C173.67,403.182 170.302,402.941 167.416,403.302 C163.086,404.024 162.124,403.663 159.478,400.897 C155.389,396.447 154.787,384.66 158.155,373.956 C160.32,366.74 160.44,366.018 158.636,362.53 C157.554,360.486 155.509,357.238 153.946,355.434 C151.179,352.187 151.059,350.984 151.059,336.432 C151.059,319.233 152.743,313.34 158.877,309.371 C160.56,308.288 162.244,306.123 162.605,304.44 C163.086,302.756 165.492,300.11 168.258,298.426 C173.55,295.058 188.463,289.646 192.432,289.646 C193.755,289.646 197.604,292.533 201.332,296.381 C205.301,300.471 208.428,302.756 209.511,302.395 C212.517,301.312 213.359,296.622 212.036,289.045 C211.435,285.076 210.834,279.183 210.713,275.815 C210.593,269.922 210.473,269.801 203.377,264.991 C196.642,260.3 195.559,258.977 193.635,251.52 C193.394,250.678 191.35,249.957 189.065,249.957 C186.058,249.957 184.374,249.115 183.051,247.311 C180.766,244.064 180.525,237.449 182.69,235.765 C183.412,235.163 191.35,231.796 200.25,228.549 C209.15,225.181 216.847,221.693 217.328,220.851 C217.93,220.009 218.411,217.844 218.411,216.161 C218.411,213.755 217.569,212.673 215.163,211.59 C208.909,209.185 199.769,207.501 190.748,207.261 C180.766,207.02 170.062,203.532 164.409,198.721 C162.485,197.158 159.959,195.835 158.756,195.835 C155.629,195.835 154.908,195.234 146.368,184.77 C142.279,179.598 138.431,175.389 137.829,175.389 C137.228,175.389 135.905,176.952 134.943,178.877 C131.936,184.529 126.163,188.619 121.112,188.619 C111.851,188.619 107.521,182.244 107.762,168.413 C107.882,163.362 107.641,153.62 107.16,146.764 C106.318,134.617 106.318,134.376 109.566,129.566 C112.813,124.875 112.933,124.274 113.294,106.955 C113.414,92.522 113.895,88.553 115.579,86.028 C117.143,83.502 117.503,81.217 116.902,74.722 C116.541,70.272 115.82,61.492 115.459,55.358 L114.737,44.053 L110.407,42.129 C107.401,40.926 100.425,40.084 89.12,39.603 L72.282,38.881 L68.313,31.064 C64.584,23.847 64.344,22.645 65.065,14.947 C65.426,10.377 66.388,5.206 67.23,3.522 C68.553,0.635 69.395,0.395 77.574,0.034 C96.336,-0.688 149.255,10.257 176.677,20.48 C182.45,22.645 180.886,25.892 172.227,29.861 C164.169,33.469 161.883,35.995 161.883,41.287 C161.883,45.496 156.832,50.307 152.502,50.307 C147.691,50.307 146.248,52.352 146.248,59.568 C146.248,67.626 144.564,71.234 139.393,74 C134.822,76.406 133.499,79.653 134.822,85.546 C135.905,90.237 135.905,95.048 134.822,113.209 L133.86,127.401 L137.709,132.091 C139.874,134.737 142.279,139.187 143.362,141.954 C144.324,144.72 145.647,147.606 146.368,148.448 C147.691,150.012 172.828,160.956 175.234,160.956 C175.955,160.956 178,161.918 179.684,163.121 C186.058,167.571 190.628,168.413 197.243,166.248 C205.181,163.723 205.662,163.121 203.016,159.633 C200.37,156.266 199.408,152.658 197.844,140.51 C196.521,128.964 197.243,125.837 202.294,121.267 C206.865,117.298 213.72,116.336 218.772,119.102 C224.304,121.989 230.318,127.762 231.52,131.009 C232.122,132.933 233.445,134.497 234.287,134.497 C236.812,134.497 244.87,125.717 244.87,123.071 C244.991,118.741 249.2,111.164 253.65,107.195 C258.822,102.625 266.399,100.34 272.893,101.302 C278.426,102.264 289.25,108.157 294.903,113.449 C299.714,118.02 300.315,123.432 296.587,129.085 C295.023,131.37 294.181,134.737 294.181,138.345 C294.181,143.998 295.865,147.005 299.954,148.208 C301.037,148.568 303.442,151.335 305.246,154.341 C307.05,157.348 310.057,160.355 311.861,161.197 C323.648,166.008 327.857,168.293 331.826,171.781 C336.036,175.509 336.637,175.629 342.891,174.787 C347.461,174.306 349.987,173.224 351.19,171.66 C353.114,168.894 363.698,164.564 368.509,164.564 C370.313,164.564 374.402,166.369 377.649,168.774 C380.897,171.059 384.625,172.983 385.708,172.983 C389.797,172.983 394.006,175.75 394.728,178.877 C395.089,180.56 396.171,183.567 397.254,185.371 C398.937,188.498 398.817,188.979 396.893,191.144 C395.089,193.189 393.766,193.429 388.594,192.828 C384.264,192.227 381.137,192.588 378.131,193.79 C374.402,195.354 373.56,196.557 371.876,202.089 C369.832,209.305 368.028,211.35 360.932,214.597 C358.286,215.92 356.001,217.844 355.76,218.927 C355.52,220.13 358.286,223.858 362.616,228.188 C367.908,233.359 369.952,236.246 369.952,238.531 C369.952,240.215 370.674,243.101 371.636,244.905 C373.44,248.273 372.959,259.578 371.035,259.578 C369.23,259.578 361.413,274.252 361.774,276.897 C362.375,280.866 366.103,280.626 371.035,276.056 C373.56,273.77 376.928,271.485 378.371,271.004 C381.979,269.922 391.24,273.53 392.202,276.416 C392.563,277.739 394.127,279.664 395.69,280.866 C397.133,282.069 399.298,284.475 400.501,286.279 C401.704,288.083 403.628,289.887 404.71,290.248 C407.236,290.969 409.641,295.78 409.641,299.749 C409.641,301.312 410.483,303.237 411.566,304.199 C414.212,306.364 416.858,311.896 416.858,315.264 C416.858,317.188 418.662,319.834 422.15,322.961 C425.036,325.607 427.923,328.734 428.644,330.057 C429.246,331.26 429.727,337.033 429.486,342.926 C429.246,351.947 429.486,353.871 431.651,356.517 C433.936,359.524 434.898,368.905 435.259,392.478 C435.379,402.941 423.473,419.058 413.25,422.064 C408.679,423.508 407.356,423.387 400.741,421.102 C396.772,419.659 391.841,418.216 390.037,417.855 C388.233,417.374 385.828,415.57 384.625,413.766 C380.055,406.309 375.244,401.498 372.598,401.498 C367.306,401.498 360.932,396.086 357.203,388.389 C355.279,384.299 352.753,380.691 351.551,380.33 C347.341,379.007 346.259,381.774 345.537,395.845 C345.176,403.182 344.455,410.518 344.094,411.962 C342.651,416.532 333.39,420.862 317.755,424.229 C304.284,427.116 303.081,427.597 301.518,430.844 C300.676,432.769 299.954,435.415 300.075,436.858 C300.195,438.181 300.436,443.713 300.556,449.005 C300.796,454.297 301.398,459.589 301.879,460.671 C302.48,462.115 301.999,464.4 300.315,467.046 C298.872,469.451 297.79,473.42 297.669,475.826 C297.669,478.231 297.068,482.08 296.226,484.365 C294.542,489.296 289.371,491.34 270.969,494.708 C264.595,495.791 258.702,497.595 257.98,498.436 C257.258,499.399 256.296,500 255.815,500 C255.454,499.88 251.004,499.399 245.953,498.918 z" fill="#000000"/>
  </g>
</svg>
