<?xml version="1.0" encoding="UTF-8"?>
<!DOCTYPE svg PUBLIC "-//W3C//DTD SVG 1.1//EN" "http://www.w3.org/Graphics/SVG/1.1/DTD/svg11.dtd">
<svg version="1.1" xmlns="http://www.w3.org/2000/svg" xmlns:xlink="http://www.w3.org/1999/xlink" x="0" y="0" width="500" height="500" viewBox="0, 0, 500, 500">
  <g id="layer101">
    <path d="M267.145,453.499 C260.152,451.904 257.392,450.616 251.687,446.322 C241.749,438.9 237.333,432.397 232.548,418.35 C229.91,410.621 229.604,410.498 223.531,414.056 C221.2,415.406 216.108,418.105 212.244,420.006 C206.11,423.012 204.576,423.503 200.773,423.748 C192.369,424.239 184.027,420.19 175.929,411.664 C165.563,400.745 161.698,387.434 163.722,369.583 C164.336,364.43 164.152,363.94 162.066,363.51 C158.938,362.835 88.823,353.941 86.922,353.941 C85.634,353.941 84.468,354.493 83.548,355.413 C82.812,356.272 80.665,357.928 78.825,359.155 C68.519,365.964 60.913,373.693 57.539,380.809 C54.226,387.679 51.957,388.538 37.419,388.17 C26.991,387.863 23.126,387.066 22.267,384.857 C22.083,384.366 22.574,382.281 23.371,380.134 C24.782,376.453 25.702,374.92 31.1,367.62 C32.573,365.718 33.738,363.94 33.738,363.694 C33.738,363.387 33.125,362.835 32.389,362.467 C31.591,362.038 29.506,360.443 27.727,358.848 C26.009,357.315 21.961,354.677 18.832,353.021 C9.999,348.359 6.502,345.414 3.128,339.525 C1.902,337.44 0,332.41 0,331.183 C0,330.201 5.521,325.355 7.852,324.374 L10.49,323.208 L14.538,325.049 C16.746,326.091 18.955,326.95 19.445,326.95 C19.936,326.95 20.734,325.969 21.224,324.803 C21.715,323.638 22.881,322.104 23.862,321.368 C24.844,320.632 25.825,319.528 25.948,318.914 C26.438,317.197 27.604,317.442 34.29,320.877 C40.24,323.944 40.424,323.944 42.265,323.024 C44.289,321.92 45.393,320.325 45.393,318.424 C45.393,317.749 46.068,316.706 46.865,316.154 C48.215,315.357 48.644,315.295 50.117,316.031 C51.589,316.706 51.834,317.258 52.018,319.896 C52.141,321.552 52.509,323.27 52.816,323.699 C53.184,324.067 54.963,324.742 56.742,325.11 C58.582,325.478 60.729,326.337 61.526,327.012 C62.385,327.625 63.735,328.177 64.532,328.177 C65.329,328.177 67.231,328.852 68.826,329.711 C71.525,331.121 72.322,331.244 79.929,331.244 C85.94,331.244 88.333,330.999 88.823,330.447 C89.192,330.017 89.56,327.318 89.682,324.496 C89.866,319.405 89.866,319.282 91.461,319.098 L93.117,318.914 L93.117,323.883 C93.117,330.815 93.24,330.876 101.399,330.447 C105.018,330.201 108.514,329.772 109.189,329.404 C109.864,329.036 111.029,327.502 111.765,325.907 C113.483,322.288 115.507,321.429 124.218,320.816 C131.518,320.264 134.646,319.466 135.566,317.81 C136.609,315.786 135.198,312.596 131.15,308.118 C129.923,306.707 127.469,302.72 125.69,299.224 C121.396,290.574 120.415,289.409 115.017,286.771 C111.029,284.747 107.962,282.293 107.962,281.005 C107.962,280.269 112.808,277.876 114.28,277.876 C115.078,277.876 116.366,277.202 117.164,276.282 C118.452,274.932 119.126,274.748 122.071,274.871 C123.911,274.993 126.058,274.748 126.794,274.319 C127.53,273.889 128.389,273.582 128.757,273.582 C129.861,273.582 133.113,276.772 135.321,280.085 C137.161,282.845 138.02,283.581 140.964,284.685 C144.399,285.974 144.522,285.974 150.595,284.992 C158.263,283.765 159.919,283.765 160.594,284.992 C160.901,285.544 161.698,285.851 162.311,285.728 C163.293,285.544 163.477,284.869 163.661,280.637 C163.845,275.852 164.397,274.196 165.992,274.196 C167.955,274.196 168.691,276.036 168.691,281.005 C168.691,285.299 168.875,286.158 170.225,287.937 C171.39,289.47 171.758,290.697 171.758,293.089 C171.758,295.604 172.003,296.402 173.108,297.138 C176.42,299.469 177.892,297.69 177.892,291.433 C177.892,285.79 178.506,284.869 181.389,285.974 C183.106,286.648 183.536,286.526 185.56,284.869 C186.848,283.888 188.75,282.477 189.915,281.68 C191.081,280.944 192.001,279.962 192.001,279.533 C192.001,279.103 189.241,276.036 185.867,272.662 C178.812,265.608 178.567,264.811 182.861,262.725 C184.395,261.989 186.787,260.087 188.259,258.431 C189.67,256.836 192.185,254.014 193.719,252.235 C199.117,246.101 212.98,232.79 215.188,231.624 C216.415,230.95 218.071,230.152 218.746,229.784 C219.482,229.416 227.886,221.687 237.394,212.547 C250.092,200.463 254.999,195.371 255.797,193.531 C257.33,189.973 265.55,182.428 268.863,181.508 C276.346,179.484 282.542,182.796 284.076,189.544 C284.628,192.059 292.97,204.757 295.424,206.72 C296.835,207.946 297.387,207.517 313.888,192.549 C321.924,185.25 332.352,175.864 337.075,171.57 C341.799,167.338 348.546,161.265 352.104,158.014 C356.95,153.597 359.281,151.941 361.428,151.266 C363.759,150.53 366.581,148.383 375.23,140.654 C381.18,135.317 387.314,129.858 388.909,128.508 C392.467,125.441 438.228,84.771 452.398,72.073 C458.165,66.921 464.974,60.848 467.611,58.517 C470.433,56.002 472.519,53.671 472.703,52.751 C473.378,49.254 474.42,48.15 477.365,47.782 C478.898,47.537 480.8,47.046 481.536,46.616 C485.953,44.224 495.461,51.953 498.712,60.541 L500,64.038 L498.466,67.166 C497.608,68.884 496.872,70.724 496.872,71.276 C496.872,72.81 494.479,74.22 491.841,74.22 C489.879,74.22 488.652,74.957 482.64,79.925 C467.366,92.5 449.393,107.775 398.417,151.512 C379.769,167.583 379.585,167.706 378.727,170.221 C378.297,171.57 377.07,173.349 375.966,174.208 C374.862,175.067 370.752,178.502 366.826,181.876 C362.9,185.25 356.398,190.771 352.411,194.144 C348.424,197.518 342.78,202.364 339.836,204.879 C331.064,212.486 318.979,222.791 314.808,226.226 C312.354,228.312 310.514,230.459 309.778,232.054 C308.98,233.894 307.14,235.918 303.03,239.231 C295.608,245.242 294.442,246.715 294.442,249.72 C294.442,252.419 293.277,255.671 291.375,258.063 C289.535,260.394 290.701,261.498 294.442,261.007 C297.326,260.639 297.387,260.639 299.227,263.216 C301.497,266.283 302.662,269.473 302.172,271.313 C301.987,272.11 300.699,273.398 299.35,274.196 C294.258,277.263 294.136,277.386 295.301,279.594 C296.773,282.416 296.528,283.52 294.136,285.422 C291.437,287.569 290.946,290.145 292.234,294.623 C293.093,297.629 293.461,298.058 295.669,298.978 C297.019,299.53 298.552,299.96 299.043,299.96 C300.822,299.96 306.772,303.027 310.269,305.664 C316.771,310.695 322.476,318.914 325.175,327.134 C325.911,329.465 326.892,331.49 327.383,331.674 C327.813,331.858 329.039,331.244 330.082,330.385 C331.125,329.527 332.291,328.79 332.72,328.79 C333.149,328.79 334.008,328.238 334.622,327.564 C335.235,326.889 336.032,326.337 336.462,326.337 C336.83,326.337 338.057,325.662 339.222,324.803 C340.388,323.944 341.799,323.27 342.412,323.27 C343.025,323.27 344.007,323.024 344.62,322.718 C351.797,318.914 361.551,318.056 368.36,320.693 C377.377,324.19 383.389,329.036 389.032,337.44 C392.222,342.163 395.534,350.812 396.148,356.088 C397.007,363.019 395.105,371.546 391.67,376.76 C390.811,377.987 390.136,379.459 390.136,379.95 C390.136,381.238 378.42,391.605 374.065,394.12 C368.482,397.432 360.201,399.579 354.864,399.15 C350.264,398.782 344.007,396.696 338.609,393.69 C335.296,391.85 328.855,386.697 326.892,384.305 C326.034,383.324 325.727,383.262 324.929,383.876 C324.439,384.305 323.887,385.471 323.641,386.513 C323.151,388.967 320.145,391.973 318.12,391.973 C317.323,391.973 316.464,392.218 316.219,392.525 C316.035,392.893 316.464,396.206 317.139,400.009 C319.102,411.112 318.55,417.185 314.747,425.956 C312.968,430.066 306.65,439.452 305.177,440.249 C304.503,440.556 299.534,443.255 294.136,446.138 C285.609,450.739 283.523,451.597 278.248,452.702 C272.421,453.867 269.66,454.112 267.145,453.499 z M320.083,382.956 C319.961,380.257 319.654,378.171 319.286,378.171 C318.918,378.171 318.611,380.257 318.489,382.956 C318.366,386.943 318.489,387.679 319.286,387.679 C320.083,387.679 320.206,386.943 320.083,382.956 z M169.427,353.511 C171.267,351.732 171.635,349.953 170.286,349.463 C169.795,349.279 167.771,348.911 165.808,348.727 C161.759,348.236 160.287,349.095 161.023,351.487 C162.189,355.229 166.544,356.272 169.427,353.511 z M241.075,240.151 C241.504,239.66 242.792,239.108 244.08,238.924 C245.307,238.679 246.841,238.433 247.516,238.311 C248.252,238.127 251.442,235.734 254.57,232.974 C258.496,229.539 261.87,227.208 264.875,225.797 C267.391,224.693 269.538,223.405 269.66,222.975 C270.028,221.994 268.863,219.663 266.286,216.044 C263.955,212.915 264.078,212.854 256.962,219.417 C254.079,222.055 248.129,227.515 243.651,231.563 C239.234,235.612 235.554,239.415 235.554,240.028 C235.554,240.826 236.045,241.071 237.946,241.071 C239.296,241.071 240.645,240.703 241.075,240.151 z" fill="#000000"/>
  </g>
</svg>
