<?xml version="1.0" encoding="UTF-8"?>
<!DOCTYPE svg PUBLIC "-//W3C//DTD SVG 1.1//EN" "http://www.w3.org/Graphics/SVG/1.1/DTD/svg11.dtd">
<svg version="1.1" xmlns="http://www.w3.org/2000/svg" xmlns:xlink="http://www.w3.org/1999/xlink" x="0" y="0" width="500" height="500" viewBox="0, 0, 500, 500">
  <g id="Layer_1">
    <path d="M428.312,419.681 C401.431,378.577 374.326,337.696 347.593,296.591 C344.093,291.23 340.296,289.368 334.115,289.368 C320.116,289.443 306.042,289.517 292.043,289.517 C278.043,289.517 263.97,289.517 249.97,289.517 C235.971,289.517 221.897,289.517 207.898,289.517 C193.899,289.517 179.825,289.517 165.826,289.443 C160.762,289.443 156.964,290.336 153.762,295.102 C126.583,336.206 99.106,377.162 71.926,418.341 C70.213,420.947 68.65,425.489 69.841,427.5 C71.107,429.659 75.724,430.627 78.851,430.627 C110.424,430.851 141.997,430.702 173.57,430.851 C176.772,430.851 180.495,430.776 183.027,432.34 C199.335,442.541 216.461,451.924 227.929,468.083 C234.482,477.242 240.364,486.848 246.619,496.23 C249.97,501.219 254.14,501.294 256.151,496.23 C267.395,467.636 288.841,448.945 314.978,434.797 C319.594,432.34 324.658,430.999 329.871,430.999 C360.699,430.702 391.601,430.925 422.43,430.702 C424.515,430.702 426.6,429.957 428.685,429.212 C430.1,428.691 430.919,427.202 430.546,425.712 C430.025,423.628 429.429,421.468 428.312,419.681 z" fill="#000000"/>
    <path d="M342.455,170.896 C335.828,170.077 331.136,166.577 327.562,160.843 C319.222,147.365 318.701,147.216 308.797,160.322 C300.01,171.864 289.213,178.417 274.618,176.108 C260.097,173.8 245.726,170.747 231.429,167.47 C225.323,166.055 221.823,167.172 220.557,173.725 C219.812,177.895 218.174,181.916 217.429,186.086 C213.259,209.245 198.367,220.191 176.027,222.499 C169.847,223.17 163.517,223.17 157.337,222.946 C150.337,222.648 143.412,221.457 136.412,221.085 C129.859,220.787 127.477,224.435 130.53,229.946 C138.497,244.466 146.539,258.912 154.954,273.135 C156.369,275.518 159.794,277.454 162.475,277.454 C190.995,277.752 219.589,277.677 248.109,277.677 C248.109,277.603 248.109,277.529 248.109,277.454 C276.405,277.454 304.702,277.454 332.998,277.454 C336.796,277.454 339.849,277.529 341.413,272.316 C349.753,244.02 358.614,215.872 367.326,187.65 C371.794,173.279 371.794,173.353 356.603,172.608 C351.912,172.385 347.146,171.491 342.455,170.896 z" fill="#000000"/>
    <path d="M102.084,154.513 C105.733,167.172 110.275,179.682 115.041,191.969 C119.509,203.437 128.742,209.766 140.582,211.553 C148.475,212.745 156.518,213.489 164.485,213.117 C190.622,211.702 199.856,204.405 208.047,179.608 C210.579,171.789 212.738,163.896 215.195,155.556 C218.025,156.226 220.334,156.896 222.791,157.269 C240.513,160.098 258.161,163.151 275.958,165.46 C284.149,166.502 291.67,163.077 296.287,156.301 C301.574,148.556 305.893,140.067 309.989,131.578 C310.659,130.238 308.723,126.44 307.01,125.398 C302.095,122.494 296.808,120.26 291.521,118.026 C259.204,104.176 226.961,90.251 194.569,76.698 C192.112,75.656 187.644,76.4 185.559,78.113 C158.752,99.931 132.168,121.973 105.807,144.312 C103.276,146.397 101.265,151.609 102.084,154.513 z" fill="#000000"/>
    <path d="M326.892,124.579 C326.892,130.61 326.669,136.568 326.966,142.599 C327.562,155.184 338.583,162.705 355.859,161.439 C360.029,161.141 365.911,158.609 367.624,155.333 C378.272,134.557 389.516,113.93 397.856,92.187 C404.707,74.166 396.293,53.614 378.496,46.242 C361.518,39.243 347.891,44.008 341.04,60.018 C332.179,80.496 326.147,101.793 326.892,124.579 z" fill="#000000"/>
    <path d="M115.637,106.931 C118.317,113.335 121.37,114.079 127.179,109.537 C141.923,97.921 156.518,86.155 170.964,74.167 C172.825,72.603 174.985,69.624 174.761,67.465 C173.421,49.37 169.549,31.871 161.73,15.414 C158.23,7.819 151.901,3.872 143.486,5.957 C133.434,8.489 123.381,11.468 113.775,15.489 C102.382,20.18 98.138,29.637 99.552,39.392 C101.265,64.412 106.924,86.081 115.637,106.931 z" fill="#000000"/>
    <path d="M265.459,93.304 C265.459,93.304 265.459,93.304 265.459,93.304 C279.16,99.335 292.787,105.516 306.34,111.697 C306.563,111.771 306.712,111.845 306.936,111.92 C307.084,111.994 307.233,112.069 307.382,112.069 C307.68,112.143 307.904,112.218 308.127,112.292 C308.201,112.292 308.35,112.367 308.425,112.367 C308.797,112.441 309.095,112.516 309.393,112.59 C309.467,112.59 309.542,112.59 309.616,112.59 C309.84,112.665 310.063,112.665 310.361,112.665 C310.435,112.665 310.584,112.665 310.659,112.665 C310.808,112.665 311.031,112.665 311.18,112.665 C311.329,112.665 311.403,112.665 311.478,112.59 C311.627,112.59 311.776,112.516 311.925,112.516 C311.999,112.516 312.148,112.441 312.223,112.441 C312.371,112.367 312.52,112.367 312.669,112.292 C312.744,112.218 312.893,112.218 312.967,112.143 C313.116,112.069 313.191,111.994 313.339,111.92 C313.414,111.845 313.563,111.771 313.637,111.771 C313.786,111.697 313.861,111.622 314.01,111.548 C314.084,111.473 314.159,111.399 314.307,111.324 C314.382,111.25 314.531,111.101 314.605,111.026 C314.68,110.952 314.754,110.877 314.829,110.728 C314.903,110.58 315.052,110.505 315.127,110.356 C315.201,110.282 315.276,110.133 315.35,110.058 C315.424,109.909 315.499,109.76 315.648,109.612 C315.722,109.463 315.797,109.388 315.871,109.239 C315.946,109.09 316.02,108.867 316.095,108.718 C316.169,108.569 316.169,108.495 316.244,108.346 C316.318,108.122 316.393,107.899 316.467,107.675 C316.541,107.601 316.541,107.452 316.616,107.378 C316.765,107.005 316.839,106.707 316.988,106.335 C319.818,96.208 323.541,86.304 325.552,76.028 C328.009,64.039 329.498,51.902 330.615,39.69 C331.36,30.977 326.743,25.095 318.478,21.967 C307.233,17.648 295.617,16.382 283.852,18.393 C272.012,20.403 264.938,27.18 263.002,38.945 C261.512,48.03 260.917,57.338 259.651,68.582 C259.651,69.252 259.651,69.996 259.651,70.741 C259.651,72.603 259.725,74.688 259.725,76.996 C259.725,77.368 259.725,77.666 259.725,78.039 C259.725,78.932 259.725,79.9 259.651,80.868 C259.651,81.017 259.651,81.166 259.651,81.315 C259.651,81.911 259.576,82.507 259.576,83.102 C259.576,83.102 259.576,83.102 259.576,83.102 C259.055,88.24 260.768,91.293 265.459,93.304 z" fill="#000000"/>
    <path d="M197.101,64.784 C211.398,71.337 225.993,77.368 240.364,83.698 C245.949,86.155 248.258,83.996 249.077,78.634 C251.906,60.763 253.023,42.891 249.3,24.946 C245.354,5.659 238.875,0 219.217,0 C194.048,0 188.835,5.287 188.91,34.254 C189.431,39.541 190.027,48.849 191.59,57.933 C191.963,60.54 194.643,63.667 197.101,64.784 z" fill="#000000"/>
  </g>
</svg>
