<?xml version="1.0" encoding="UTF-8"?>
<!DOCTYPE svg PUBLIC "-//W3C//DTD SVG 1.1//EN" "http://www.w3.org/Graphics/SVG/1.1/DTD/svg11.dtd">
<svg version="1.1" xmlns="http://www.w3.org/2000/svg" xmlns:xlink="http://www.w3.org/1999/xlink" x="0" y="0" width="500" height="500" viewBox="0, 0, 500, 500">
  <g id="layer101">
    <path d="M311.741,497.506 C308.358,496.017 301.185,491.957 295.907,488.438 C287.787,483.16 285.487,480.86 282.78,475.04 C280.886,471.251 278.72,467.733 278.044,467.191 C277.232,466.785 276.555,464.62 276.555,462.59 C276.555,460.425 275.472,457.312 274.119,455.553 C272.766,453.793 270.465,448.109 269.112,442.832 C267.758,437.689 265.864,432.411 264.781,431.193 C263.834,429.975 262.345,424.156 261.668,418.336 C260.992,412.517 259.503,404.262 258.285,400.202 C257.203,396.142 256.255,390.864 256.255,388.564 C256.255,386.263 254.902,382.744 253.413,380.714 C250.842,377.466 250.571,375.978 251.519,367.316 C252.06,361.497 251.789,356.084 250.977,353.919 C249.895,351.212 250.03,348.776 251.383,344.851 C253.143,340.25 253.007,339.167 250.977,335.784 C249.624,333.619 247.188,330.642 245.429,329.153 C243.805,327.664 240.692,322.928 238.527,318.732 C234.061,309.936 233.249,309.665 222.016,312.778 C218.092,313.86 213.355,315.078 211.325,315.484 C208.889,316.026 206.047,318.732 202.664,323.875 L197.657,331.318 L199.957,336.326 C201.717,340.385 201.852,342.821 200.769,349.453 C199.687,356.219 198.739,358.249 194.815,361.633 C191.296,364.61 189.672,367.452 188.589,372.324 C187.777,375.842 186.153,380.714 185.071,382.88 C179.251,394.247 176.139,421.99 180.063,428.351 C182.499,432.411 180.469,436.065 174.786,437.96 C162.47,441.884 108.202,454.741 99.947,455.688 C91.692,456.635 89.527,456.365 81.136,453.387 C65.302,447.703 64.896,447.297 65.844,436.877 C66.656,429.298 67.332,427.539 70.445,424.968 C72.61,423.208 74.775,421.855 75.452,421.855 C76.129,421.855 80.053,419.284 84.113,416.171 C88.173,412.923 96.428,407.916 102.518,404.939 C113.48,399.525 113.48,399.525 114.292,393.435 C114.698,390.052 116.187,385.045 117.54,382.203 C120.112,377.06 120.112,376.925 116.999,365.286 C115.104,358.791 113.616,351.077 113.616,348.099 C113.48,345.122 111.992,339.844 110.232,336.596 C107.255,330.777 107.12,330.236 109.15,325.364 C110.909,321.168 112.804,319.544 119.164,316.702 C127.69,312.778 129.043,311.695 129.043,307.365 C129.043,303.305 133.915,292.884 138.923,285.711 L143.118,279.622 L140.547,272.043 C138.246,265.412 137.028,263.923 132.021,261.352 C128.773,259.592 122.142,254.585 117.134,250.119 C109.285,243.082 107.526,240.781 104.278,232.12 C102.248,226.707 100.624,219.94 100.624,217.098 C100.624,214.256 99.676,210.196 98.594,208.166 C95.075,201.129 94.805,194.363 97.646,186.378 C99.135,182.318 101.436,175.416 102.518,171.221 C103.736,167.026 105.36,163.101 106.037,162.695 C106.849,162.154 107.12,159.176 106.714,155.522 C105.902,149.568 106.308,148.35 113.074,136.982 C117.134,130.215 122.954,121.419 126.066,117.494 C129.179,113.57 131.75,109.51 131.75,108.427 C131.75,105.45 140.005,96.924 147.99,91.781 C155.162,87.18 156.11,86.909 170.726,86.097 C179.116,85.691 186.559,84.744 187.236,84.067 C189.401,81.902 185.341,73.511 179.928,68.504 C173.568,62.82 171.538,56.866 170.32,41.302 C169.508,29.258 169.643,28.04 172.214,25.469 C173.838,23.845 175.056,21.138 175.056,19.379 C175.056,8.146 200.769,-1.868 224.452,0.297 C229.595,0.838 235.685,1.921 237.985,2.868 C245.564,6.116 253.278,14.777 259.638,27.363 C266.405,40.761 267.488,48.475 263.698,57.407 C262.616,59.978 261.668,63.361 261.668,64.85 C261.668,66.203 259.774,69.857 257.473,72.699 C249.083,83.12 254.767,87.586 279.397,90.293 C286.975,91.104 294.419,92.458 295.637,93.134 C296.855,93.811 304.027,100.848 311.606,108.833 C323.109,121.013 325.816,124.802 328.793,132.516 C333.259,144.425 337.319,147.673 345.574,146.455 C359.107,144.425 383.467,143.613 393.617,144.696 C407.691,146.184 415.676,148.891 423.119,154.71 C430.833,160.8 433.54,167.296 434.216,181.912 C434.758,191.927 434.487,193.415 432.186,194.904 C430.021,196.122 429.48,198.017 429.48,203.565 C429.48,209.52 429.074,210.738 426.502,211.55 C424.878,211.956 418.789,215.61 412.834,219.67 C407.015,223.594 397.135,229.278 390.775,232.526 C383.332,236.18 378.054,239.834 375.753,242.811 C371.422,248.495 367.363,250.661 356.807,252.826 C349.634,254.314 347.875,254.179 342.732,252.285 C337.184,250.119 335.83,250.119 325.274,252.149 C318.914,253.367 312.959,254.991 312.147,255.668 C311.2,256.48 310.388,259.186 310.388,261.758 C310.388,264.329 309.847,267.442 309.17,268.795 C307.817,271.231 308.358,272.449 314.854,281.516 C317.29,284.899 317.29,285.035 314.583,288.824 L311.741,292.613 L314.312,300.733 C315.801,305.199 317.425,314.402 317.966,321.304 C318.778,333.078 319.184,334.025 324.462,340.927 C329.334,347.287 329.876,348.776 329.74,354.866 C329.47,358.655 329.199,374.76 328.793,390.729 C328.387,414.141 328.658,420.772 330.282,424.562 C331.364,427.404 331.906,431.058 331.364,433.764 C330.417,439.178 334.342,446.35 340.432,449.869 C346.521,453.523 359.107,476.664 359.107,484.243 C359.107,487.491 358.566,491.01 358.025,491.957 C356.536,494.258 348.957,496.288 341.514,496.288 C338.131,496.288 331.77,497.235 327.304,498.318 C317.56,500.618 319.184,500.753 311.741,497.506 z M156.922,194.363 C157.463,193.551 159.493,193.145 161.794,193.686 C166.53,194.633 168.425,191.521 165.177,188.002 C164.094,186.784 162.876,184.213 162.606,182.453 C162.47,180.559 161.523,178.935 160.711,178.664 C159.087,178.123 152.05,190.438 152.05,193.821 C152.05,196.122 155.568,196.528 156.922,194.363 z" fill="#000000"/>
  </g>
</svg>
