<?xml version="1.0" encoding="UTF-8"?>
<!DOCTYPE svg PUBLIC "-//W3C//DTD SVG 1.1//EN" "http://www.w3.org/Graphics/SVG/1.1/DTD/svg11.dtd">
<svg version="1.1" xmlns="http://www.w3.org/2000/svg" xmlns:xlink="http://www.w3.org/1999/xlink" x="0" y="0" width="500" height="500" viewBox="0, 0, 500, 500">
  <g id="layer102">
    <path d="M26.924,85.882 C23.369,85.882 19.837,86.293 16.31,86.679 C0.717,88.532 -3.297,91.466 2.57,97.332 C14.766,109.528 19.398,141.641 10.135,151.367 C7.356,154.3 6.738,157.079 6.275,169.584 C5.812,181.626 6.121,184.868 8.282,187.184 C9.671,188.574 10.598,190.426 10.289,191.198 C9.826,192.434 13.376,203.087 16.773,211.115 C17.545,212.813 18.935,217.907 19.86,222.385 C22.023,231.957 25.11,234.272 34.373,232.882 C40.24,231.957 41.012,232.265 45.026,237.36 C48.577,241.836 49.194,243.999 48.885,250.174 C48.422,257.275 48.577,257.43 52.744,257.43 C56.759,257.43 57.377,258.202 60.774,268.083 L64.478,278.889 L60.619,283.367 C53.517,291.858 46.261,310.539 46.107,321.191 C46.107,325.977 45.798,326.132 39.931,326.132 C36.38,326.132 31.594,327.212 29.124,328.448 C25.11,330.454 24.493,331.69 24.493,337.093 C24.493,344.812 27.117,346.047 49.194,348.054 C64.788,349.444 65.559,349.598 70.808,354.693 C75.285,359.169 77.602,360.096 82.85,360.096 C89.025,360.096 89.334,360.251 91.033,366.735 C95.819,384.798 96.128,385.416 108.323,397.458 C116.815,405.794 122.373,409.962 127.468,411.661 C134.878,414.286 143.678,414.903 145.376,413.05 C147.538,411.044 194.316,409.654 269.965,409.5 C337.895,409.5 349.011,409.191 356.113,406.875 C360.744,405.486 364.913,403.325 365.375,401.934 C365.839,400.545 368.617,396.686 371.397,393.289 C374.176,390.047 377.109,385.107 377.881,382.482 L379.116,377.85 L392.548,378.314 C405.825,378.777 406.134,378.777 413.698,373.219 C418.639,369.514 421.263,366.426 421.418,364.265 C421.418,362.103 424.196,358.707 428.982,355.155 L436.548,349.29 L433.615,344.194 C427.13,333.388 424.351,331.998 406.288,330.609 C386.99,329.065 385.755,328.756 385.755,325.051 C385.755,323.507 384.673,320.882 383.439,319.338 C379.888,314.707 380.659,313.781 387.144,313.781 C390.54,313.781 393.783,313.163 394.246,312.237 C395.636,310.076 420.182,310.229 425.123,312.546 C428.056,313.935 429.446,313.935 430.835,312.546 C432.07,311.31 440.562,310.693 457.08,310.693 C479.93,310.693 481.936,310.384 486.105,307.296 C490.119,304.363 490.737,302.973 490.737,296.644 C490.737,290.314 490.119,288.925 486.26,286.145 C482.091,283.212 479.621,282.903 456.927,282.903 C434.077,282.903 432.07,282.75 432.071,280.125 C432.07,275.802 435.158,273.486 438.554,275.339 C440.562,276.419 443.032,276.419 445.81,275.493 C448.59,274.567 451.06,274.567 452.758,275.493 C454.61,276.573 456.927,276.419 459.86,275.184 C462.947,273.95 468.351,273.64 476.997,274.412 C487.495,275.339 490.274,275.03 494.751,272.714 C499.691,269.936 500,269.472 500,261.598 C500,255.269 499.383,253.261 497.375,252.489 C495.831,251.872 494.133,250.791 493.516,249.864 C492.744,248.784 478.694,248.013 452.604,247.703 C430.681,247.549 406.597,246.932 399.186,246.469 C390.695,246.005 384.828,246.16 383.593,247.241 C382.204,248.321 380.197,248.321 376.8,247.086 C372.786,245.542 371.088,245.542 368.772,247.086 C366.456,248.475 364.758,248.475 362.751,247.394 C361.053,246.623 357.656,246.314 355.032,246.777 C351.018,247.703 350.246,247.395 350.246,244.616 C350.246,242.918 349.319,240.756 348.085,239.83 C346.85,238.903 345.152,235.971 344.071,233.5 C341.91,228.405 339.902,227.788 335.733,230.875 C333.11,232.728 333.11,233.346 335.271,238.441 C338.049,245.079 337.586,245.85 330.794,245.85 C325.699,245.85 319.06,239.83 312.421,228.56 L309.334,223.465 L287.72,222.538 C275.832,221.921 247.889,221.458 225.811,221.304 C179.187,221.149 178.878,221.149 164.52,234.427 C159.58,239.058 154.948,242.763 154.176,242.763 C153.404,242.763 152.632,240.911 152.324,238.594 C151.86,234.581 151.243,234.272 143.678,233.808 C136.576,233.346 135.65,232.883 135.65,229.949 C135.804,226.09 143.678,217.135 150.471,213.121 C159.888,207.718 155.874,195.985 143.832,194.132 C140.59,193.668 136.731,192.588 135.187,191.662 C133.334,190.581 130.401,190.89 125.923,192.434 C122.373,193.668 116.815,195.058 113.573,195.676 C110.486,196.293 107.861,197.374 107.861,198.146 C107.861,200.924 103.538,199.381 101.067,195.676 C98.752,192.124 98.752,191.816 101.686,190.271 C105.545,188.265 105.7,184.715 101.994,182.707 C99.678,181.473 99.215,179.156 99.061,168.812 C98.906,162.02 98.444,155.69 97.825,154.917 C97.362,153.992 94.583,153.22 91.805,153.22 C88.872,153.22 84.239,151.522 80.997,149.359 C74.513,145.037 68.955,144.575 61.236,147.662 C55.215,150.286 52.899,152.603 52.127,156.925 C51.201,161.865 48.113,161.403 45.489,156.153 C44.099,153.374 43.019,150.286 43.019,149.359 C43.019,146.581 36.071,142.412 31.903,142.412 C26.037,142.412 21.404,138.244 21.404,132.841 C21.404,130.216 20.632,123.732 19.707,118.483 C18.78,112.616 18.626,106.904 19.398,103.661 C20.632,99.03 21.559,98.258 27.271,97.024 C32.984,95.633 33.755,95.016 33.755,91.311 C33.806,86.485 31.03,86.164 26.924,85.882 z M183.973,380.166 C196.478,380.166 197.558,380.63 200.8,387.114 C204.197,393.906 202.963,395.605 194.316,395.605 C188.296,395.605 186.288,394.987 185.054,392.517 C182.893,388.349 175.79,388.349 174.71,392.363 C174.093,394.833 172.394,395.605 166.682,395.914 C162.822,396.222 158.808,396.222 157.727,395.914 C155.72,395.297 156.801,390.973 158.808,390.973 C159.58,390.973 162.976,388.503 166.527,385.57 C172.548,380.475 173.629,380.166 183.973,380.166 z M238.92,381.185 C245.29,381.239 242.302,381.153 247.889,381.402 C256.689,381.864 257.461,382.328 259.622,386.805 C261.011,389.43 261.629,392.208 261.32,392.826 C260.857,393.444 257.151,394.061 252.829,394.061 C246.962,394.061 244.801,393.444 243.411,390.973 C240.787,386.805 236.309,387.114 234.148,391.745 C232.45,395.45 228.281,397.149 228.281,394.061 C228.281,390.973 233.839,381.864 236,381.402 C237.399,381.184 236.432,381.312 238.92,381.185 z M305.166,383.255 C313.657,383.255 315.355,383.717 318.597,387.269 C320.758,389.584 321.993,391.9 321.53,392.672 C321.068,393.444 317.207,394.061 312.885,394.061 C306.555,394.061 305.011,393.598 304.394,390.973 C303.313,386.805 297.137,386.959 294.359,391.283 C291.271,395.759 287.72,393.752 290.499,388.966 C293.277,383.872 294.667,383.255 305.166,383.255 z M125.735,212.651 C127.536,212.881 128.273,213.032 129.629,214.357 C133.026,217.29 133.489,221.149 130.556,221.149 C127.004,221.304 122.681,225.78 122.373,230.104 C122.218,232.419 120.984,237.205 119.903,240.602 C117.123,248.63 118.668,252.798 124.226,251.409 C127.159,250.637 128.24,251.255 129.475,253.878 C130.401,255.886 131.945,258.665 132.871,260.209 C134.724,262.679 133.026,264.841 117.896,279.661 C96.436,300.658 92.731,304.826 90.106,311.001 C89.025,313.781 87.481,316.56 86.864,317.332 C84.394,319.648 82.387,317.177 82.696,312.237 C82.85,307.606 84.086,304.209 87.945,296.489 C88.717,294.945 89.334,292.167 89.334,290.159 C89.334,288.153 90.106,285.837 90.878,285.065 C91.805,284.139 93.811,279.97 95.356,275.493 C97.825,269.009 97.98,267.156 96.281,264.841 C95.201,263.297 93.811,256.658 93.194,250.174 C92.267,240.139 92.422,237.822 94.584,235.661 C95.973,234.272 96.745,231.957 96.281,230.567 C95.51,227.942 97.825,225.008 106.317,217.752 C108.015,216.209 111.412,214.974 113.882,214.974 C116.352,214.974 120.366,214.202 122.682,213.43 C124.437,212.819 123.428,213.111 125.735,212.651 z M351.742,276.3 C354.231,277.934 354.687,278.309 354.878,281.514 C354.878,285.065 351.327,285.373 348.702,282.131 C347.158,280.279 347.158,279.353 348.702,277.5 C350.202,276.187 349.251,276.718 351.742,276.3 z M367.06,274.39 C369.414,275.752 370.115,276.242 370.316,279.198 C370.316,281.514 369.39,282.903 368,282.903 C365.222,282.903 363.369,279.198 364.758,275.956 C365.268,274.864 365.746,274.413 367.06,274.39 z M379.839,275.431 C382.392,275.755 381.403,275.281 382.976,276.419 C383.902,277.345 384.211,279.198 383.748,280.433 C382.358,284.139 376.492,283.521 376.492,279.816 C376.786,277.639 377.617,276.159 379.839,275.431 z M418.578,274.148 C421.512,275.401 422.563,275.656 422.807,279.198 C422.807,282.75 422.344,283.058 417.095,282.595 C410.302,281.978 408.295,277.964 413.545,275.184 C416.327,274.043 414.681,274.518 418.578,274.148 z" fill="#000000"/>
  </g>
</svg>
