<?xml version="1.0" encoding="UTF-8"?>
<!DOCTYPE svg PUBLIC "-//W3C//DTD SVG 1.1//EN" "http://www.w3.org/Graphics/SVG/1.1/DTD/svg11.dtd">
<svg version="1.1" xmlns="http://www.w3.org/2000/svg" xmlns:xlink="http://www.w3.org/1999/xlink" x="0" y="0" width="500" height="500" viewBox="0, 0, 500, 500">
  <g id="layer102">
    <path d="M344.21,143.333 C341.572,143.214 338.949,143.541 336.345,143.921 C332.302,144.718 331.465,145.542 330.607,148.739 C329.752,151.58 329.972,153.718 331.372,156.341 C334.056,161.942 333.695,162.414 327.174,161.528 C318.403,160.265 317.694,159.903 318.558,155.876 C319.179,152.676 319.063,152.438 315.384,152.407 C313.01,152.386 309.796,153.546 307.287,155.423 C303.226,158.475 302.987,158.591 290.177,157.651 C282.941,157.233 276.184,156.226 275.003,155.622 C273.822,154.9 270.977,154.401 268.603,154.381 C266.348,154.362 264.098,153.868 263.748,153.153 C262.813,151.483 255.335,151.538 252.115,153.291 C250.685,153.991 245.452,155.252 240.578,156.041 C235.706,156.83 229.287,158.081 226.313,158.768 C213.231,161.86 209.547,162.423 197.556,162.913 L184.732,163.398 L185.342,175.39 C185.641,182.039 186.065,188.096 186.295,188.928 C186.526,189.762 188.531,191.203 190.778,192.172 C193.025,193.021 195.97,195.657 197.256,197.924 C199.012,200.788 201.605,202.827 205.156,204.163 C208.112,205.375 210.474,206.701 210.471,207.175 C210.464,208.006 205.748,218.055 204.91,218.997 C204.791,219.115 200.391,219.907 195.283,220.576 C186.847,221.573 180.912,221.759 170.591,221.077 C168.218,220.939 166.551,221.637 165.468,223.408 C163.665,226.004 157.605,226.783 156.318,224.635 C155.148,222.727 150.988,223.284 146.576,225.858 C142.877,228.081 142.045,228.193 137.19,226.846 C132.337,225.379 131.505,225.492 128.638,227.603 C125.533,229.832 121.372,230.746 108.779,232.182 C105.452,232.51 101.764,233.546 100.452,234.365 C98.899,235.421 96.762,235.639 94.63,235.028 C91.67,234.172 91.319,233.576 91.133,227.639 C90.929,223.721 89.781,219.201 88.38,216.34 C83.008,206.207 79.468,203.802 69.498,203.717 C62.614,203.659 61.544,204.005 55.572,208.346 C48.406,213.625 45.397,218.466 45.34,225.112 C45.318,227.723 44.698,230.922 43.974,232.221 C43.011,233.876 43.002,234.944 43.943,235.901 C44.649,236.619 45.23,238.049 45.222,238.998 C45.197,241.965 50.958,248.423 55.098,250.001 C57.701,250.973 59.468,252.531 59.809,254.195 C60.153,255.622 63.077,260.751 66.36,265.527 C69.523,270.301 72.214,274.953 72.207,275.784 C72.192,277.446 53.836,286.666 50.512,286.637 C49.326,286.627 47.557,285.306 46.62,283.755 C44.98,281.248 44.034,280.885 40.35,281.446 C37.974,281.664 34.525,282.465 32.739,283.162 C29.168,284.436 22.896,282.247 19.959,278.661 C18.784,277.226 16.651,276.852 9.645,277.268 C4.777,277.463 0.499,278.021 0.14,278.374 C-1.056,279.431 5.623,289.577 12.324,297.111 C24.084,309.911 46.153,324.579 63.78,331.259 C68.394,333.078 69.808,334.277 71.673,338.328 C74.117,343.928 78.238,347.879 85.679,352.096 L90.876,354.99 L136.448,355.616 C161.488,355.948 182.139,356.007 182.259,355.77 C182.498,355.654 210.152,355.652 243.739,355.82 C281.6,356.024 306.052,355.758 308.076,354.945 C310.457,354.134 311.762,354.146 312.821,355.223 C314.469,356.899 320.165,356.947 323.384,355.313 C325.053,354.377 326.714,354.51 329.197,355.6 C331.918,356.692 333.816,356.707 337.267,355.669 C340.598,354.748 342.853,354.768 345.456,355.739 C348.177,356.712 350.314,356.73 353.171,355.805 C356.026,354.88 358.163,354.898 361.003,355.872 C363.961,356.965 365.979,356.982 369.311,355.824 C372.881,354.786 374.425,354.681 376.432,355.884 C379.15,357.332 384.972,356.551 395.324,353.434 C399.966,352.05 412.017,344.439 414.896,340.902 C416.095,339.488 417.767,338.434 418.716,338.443 C419.546,338.449 422.65,336.34 425.521,333.753 C428.392,331.166 431.139,329.054 431.732,329.059 C432.208,329.063 434.836,327.067 437.706,324.481 C440.457,322.011 443.919,319.667 445.347,319.204 C446.776,318.742 449.284,316.864 450.842,315.098 C452.401,313.212 455.626,310.866 458.128,309.7 C460.511,308.533 463.021,306.655 463.743,305.475 C464.346,304.293 466.617,302.414 468.762,301.364 C470.908,300.314 474.85,297.381 477.6,294.912 C480.472,292.325 483.099,290.33 483.574,290.334 C484.168,290.339 486.916,288.226 489.786,285.639 C492.656,283.052 495.642,280.941 496.472,280.948 C497.422,280.957 499.814,278.841 501.974,276.13 C506.653,270.235 508.028,262.057 505.11,256.335 C503.009,252.163 497.834,246.541 496.173,246.526 C495.579,246.522 493.338,244.959 491.219,242.924 C489.099,241.007 486.271,238.609 484.974,237.648 C483.087,236.208 482.972,235.732 484.292,234.081 C485.61,232.55 485.619,231.482 484.458,228.505 C483.061,225.288 482.471,224.927 479.499,225.496 C476.527,226.063 476.173,225.823 476.196,223.093 C476.227,219.533 473.389,218.204 469.693,220.189 C467.308,221.474 466.122,221.346 461.512,219.169 C457.376,217.117 454.531,216.618 447.527,216.914 C440.284,217.208 437.44,216.709 429.987,213.798 C419.459,209.672 418.629,209.547 417.773,212.625 C417.161,214.756 416.447,214.868 411.351,214.113 C405.067,213.228 403.771,212.149 404.165,207.761 C404.545,204.797 404.545,204.797 417.72,204.791 C429.47,204.891 431.252,204.669 434.239,202.321 C437.346,199.855 438.652,199.747 461.558,199.943 L485.65,200.148 L486.203,191.014 C486.602,185.915 486.641,181.285 486.29,180.808 C486.056,180.331 474.666,179.878 461.017,179.88 C439.06,179.812 435.857,179.547 433.856,177.749 C431.972,175.952 428.888,175.689 409.898,175.646 C397.91,175.661 384.497,175.903 380.103,176.222 C368.82,177.075 366.927,176.347 365.076,170.753 L363.573,165.993 L354.804,164.493 C345.322,162.869 343.552,161.786 347.366,159.801 C349.512,158.632 349.877,157.568 349.576,151.156 L349.283,143.795 L345.132,143.403 L344.21,143.333 z M201.827,343.712 C206.693,343.754 206.929,343.874 206.9,347.316 C206.872,350.639 206.632,350.875 202.359,350.838 C198.682,350.806 197.499,350.203 196.451,347.939 C194.82,344.246 195.537,343.659 201.827,343.712 z M168.597,343.429 C172.039,343.458 176.049,346.46 176.027,349.07 C176.018,350.02 174.589,350.602 171.86,350.578 C168.417,350.548 167.474,349.947 166.546,347.446 C165.036,343.398 164.918,343.397 168.597,343.429 z M129.551,343.095 C142.725,343.208 145.21,344.06 145.175,348.214 C145.148,351.299 138.503,351.124 136.869,347.905 C136.168,346.593 135.109,345.516 134.397,345.51 C133.685,345.504 132.845,346.565 132.478,347.867 C131.987,349.762 130.797,350.227 127.236,350.196 C123.912,350.169 122.375,349.561 121.441,347.773 C120.74,346.462 119.681,345.385 118.969,345.379 C118.257,345.372 117.417,346.434 117.049,347.735 C116.559,349.63 115.368,350.096 111.808,350.065 C105.874,350.015 105.888,348.353 111.967,345.319 C115.781,343.452 118.989,343.005 129.551,343.095 z M235.542,342.812 C239.934,342.85 240.75,344.519 238.227,348.177 C236.663,350.537 235.353,351.12 232.507,350.858 C225.273,350.084 228.066,342.748 235.542,342.812 z M244.953,347.894 C245.643,348.021 245.313,347.906 245.941,348.242 C246.65,348.605 246.879,349.556 246.517,350.265 C246.036,350.974 245.324,350.967 244.5,350.13 C243.882,349.336 243.41,348.744 244.303,347.901 L244.953,347.894 z M269.485,343.102 C273.282,343.135 280.488,347.232 280.47,349.368 C280.456,351.03 276.069,350.4 274.542,348.487 C273.72,347.53 272.421,346.688 271.59,346.681 C270.76,346.675 269.447,347.494 268.609,348.437 C266.931,350.321 260.874,350.744 259.702,349.072 C258.65,347.165 265.213,343.066 269.485,343.102 z M303.905,343.159 C308.057,343.313 315.258,347.885 314.174,349.656 C313.092,351.308 306.926,350.662 305.4,348.75 C304.577,347.794 303.278,346.952 302.448,346.945 C301.617,346.938 300.304,347.757 299.465,348.699 C297.906,350.586 292.323,351.131 292.337,349.469 C292.356,347.214 300.107,343.008 303.905,343.159 z M336.815,343.373 C338.755,343.464 337.9,343.374 339.389,343.581 C344.484,344.454 347.422,347.922 344.558,349.678 C341.575,351.551 338.139,350.929 335.906,348.299 C334.154,346.123 332.928,343.679 336.815,343.373 z M372.509,342.795 C378.087,342.843 380.526,349.036 375.65,350.299 C372.795,351.106 367.938,349.996 366.884,348.325 C364.658,344.865 366.812,342.746 372.509,342.795 z M403.395,339.863 C404.274,339.97 403.89,340.181 403.978,340.928 C403.969,341.877 403.602,343.06 403.126,343.413 C402.047,344.59 400.387,344.458 400.398,343.152 C400.403,342.559 401.243,341.497 402.199,340.675 C402.905,340.12 402.51,340.398 403.395,339.863 z M413.225,328.02 C415.462,328.065 414.945,328.583 416.055,330.348 C417.223,332.614 416.979,333.324 413.991,335.672 C409.929,338.842 408.385,339.067 406.271,336.437 C404.861,334.763 405.223,334.054 408.809,331.118 C410.189,329.97 411.547,328.713 413.225,328.02 z M439.539,309.953 C440.672,310.21 440.244,309.965 440.911,310.503 C442.913,312.537 442.42,314.551 439.075,317.134 C435.49,319.951 435.847,319.835 433.363,318.864 C430.406,317.653 431.138,315.404 435.557,312.118 C436.788,311.231 438.005,310.237 439.539,309.953 z M76.893,285.284 C77.301,285.459 77.805,285.492 78.117,285.808 C79.738,287.445 78.648,292.5 78.574,294.591 C78.048,300.64 77.323,302.177 73.491,306.061 C71.096,308.532 68.467,310.528 67.756,310.521 C65.146,310.38 57.359,304.973 55.605,301.753 C52.915,297.221 54.233,295.689 66.512,289.384 C69.815,287.708 73.147,285.669 76.893,285.284 z M451.487,302.013 L452.412,302.041 C453.41,302.51 454.099,302.662 454.143,303.85 C454.134,304.918 452.932,306.689 451.378,307.981 C448.151,310.564 446.487,310.788 444.727,308.518 C443.551,307.201 443.915,306.256 445.949,304.374 C447.631,303.205 449.357,302.069 451.487,302.013 z M488.165,276.052 C489.307,276.46 489.896,276.561 489.971,277.926 C489.95,280.3 486.376,281.931 482.465,281.185 C479.741,280.569 479.263,280.921 479.242,283.294 C479.23,284.719 478.022,287.2 476.585,288.731 C473.83,291.674 473.236,291.789 470.396,290.697 C466.849,289.242 468.656,286.053 475.7,281.128 C479.465,278.703 483.526,276.015 488.165,276.052 z M379.368,204.02 C383.339,204.123 387.298,204.421 391.252,204.803 C399.436,205.585 400.146,205.828 399.061,207.836 C398.216,209.372 396.192,210.067 391.087,210.379 C387.405,210.585 384.2,210.796 384.079,210.912 C383.242,211.618 375.45,206.804 375.462,205.498 C375.509,205.302 375.473,205.062 375.604,204.909 C376.509,203.853 378.177,204.119 379.368,204.02 z" fill="#000000"/>
  </g>
</svg>
