<?xml version="1.0" encoding="UTF-8"?>
<!DOCTYPE svg PUBLIC "-//W3C//DTD SVG 1.1//EN" "http://www.w3.org/Graphics/SVG/1.1/DTD/svg11.dtd">
<svg version="1.1" xmlns="http://www.w3.org/2000/svg" xmlns:xlink="http://www.w3.org/1999/xlink" x="0" y="0" width="500" height="500" viewBox="0, 0, 500, 500">
  <g id="layer101">
    <path d="M56.205,496.591 C54.437,494.571 53.048,492.677 53.048,492.172 C53.048,489.016 56.331,474.749 58.856,466.29 C60.876,459.977 61.886,454.674 61.381,452.023 C61.002,449.75 61.634,445.458 62.644,442.554 C65.421,434.6 70.471,413.01 71.482,404.804 C72.239,398.238 71.987,396.976 69.083,392.809 C67.315,390.158 65.548,386.749 65.169,385.36 C64.285,382.457 54.311,373.619 45.852,368.19 C39.665,364.15 36.13,359.352 37.266,356.195 C38.024,353.923 45.347,347.61 59.487,336.878 C65.421,332.333 68.578,328.419 75.395,317.309 C108.096,263.146 109.611,260.368 120.09,234.738 C124.887,222.996 125.266,221.229 124.004,217.694 C123.12,215.421 122.489,212.643 122.489,211.507 C122.489,207.972 120.216,207.846 115.166,211.255 C107.969,215.926 86.001,224.764 84.233,223.628 C83.35,223.123 76.91,222.618 69.84,222.618 C58.856,222.491 56.331,222.113 53.427,219.966 C47.746,215.674 45.473,211.633 44.463,203.679 C43.579,196.104 43.579,196.104 38.781,195.347 C36.256,194.968 33.731,194.21 33.226,193.705 C31.459,191.938 34.994,188.529 42.569,184.489 L50.144,180.322 L54.816,168.202 C59.992,154.566 60.245,152.42 57.341,148.127 C51.028,138.532 68.325,104.695 84.612,94.848 C101.404,84.747 99.889,85.126 120.09,85 C141.048,85 142.689,84.368 142.689,76.793 C142.689,69.596 144.836,64.799 150.391,60.506 C153.295,58.107 155.315,55.456 155.315,53.815 C155.315,49.648 150.138,42.83 144.962,40.053 C138.649,36.77 135.872,32.478 137.008,27.554 C139.912,14.171 163.016,3.565 195.212,0.914 C215.034,-0.728 217.811,-0.475 223.366,4.323 C228.417,8.489 228.29,10.509 222.861,15.686 C216.801,21.367 216.17,25.407 220.21,34.876 C223.998,43.84 224.124,45.482 221.599,49.522 C220.336,51.29 219.452,57.223 218.947,65.809 C218.064,79.066 218.064,79.192 221.094,80.328 C230.563,83.99 233.214,84.747 235.866,84.495 C237.381,84.495 240.79,84.242 243.441,84.116 C248.87,83.737 261.117,89.04 270.838,95.984 C274.373,98.509 279.424,101.665 282.201,103.054 C284.979,104.443 290.155,108.736 293.69,112.649 C299.877,119.341 300.634,119.72 306.19,119.72 C311.997,119.72 316.669,118.078 318.563,115.427 C319.068,114.67 319.194,111.387 318.689,108.104 C317.174,96.11 318.815,90.807 326.769,82.222 C335.102,73.384 340.91,70.859 350.253,72.248 C356.06,73.132 357.07,73.763 360.353,78.561 C361.489,80.202 364.898,81.338 372.6,82.601 C382.069,84.116 383.837,84.116 389.518,82.222 C400.628,78.561 407.32,80.581 411.865,88.914 C417.042,98.888 427.268,102.802 455.171,105.327 C460.095,105.832 464.766,106.715 465.65,107.473 C469.185,110.251 466.534,118.836 459.968,125.022 C454.666,130.073 446.585,131.714 435.727,129.82 C427.395,128.431 426.511,128.558 422.471,130.956 C417.168,134.365 416.663,135.502 416.663,146.486 C416.663,153.809 416.032,156.46 413.507,160.753 C411.865,163.783 409.466,166.56 408.204,166.939 C405.679,167.949 393.937,166.813 388.129,165.045 C383.458,163.53 377.019,156.965 375.377,151.915 C374.746,149.895 373.231,148.001 371.969,147.748 C369.443,147.243 353.788,163.025 352.02,167.949 C351.389,169.717 349.369,171.863 347.475,172.621 C343.94,174.009 314.396,173.757 307.452,172.242 C305.432,171.737 299.498,172.242 294.574,173.126 C287.63,174.514 284.348,175.903 280.812,178.933 C275.762,183.479 276.393,183.479 258.592,178.933 C243.693,175.272 243.062,175.398 240.158,183.226 C238.769,186.761 237.254,191.18 236.749,192.948 C236.244,194.715 234.477,198.755 232.836,202.038 C228.164,211.128 228.543,224.133 233.719,236.127 C240.411,251.909 241.168,253.929 243.567,263.019 C244.956,267.943 248.239,278.17 251.016,285.745 C269.828,337.005 274.752,352.029 275.888,360.993 C276.772,367.685 276.52,368.568 271.47,377.406 C266.546,385.992 266.293,387.254 267.051,393.062 C267.429,396.597 269.449,404.299 271.596,410.233 C273.616,416.293 275.257,422.984 275.257,425.131 C275.257,430.055 281.317,436.115 296.216,445.963 C301.897,449.75 308.589,455.432 311.24,458.588 C313.765,461.745 316.921,464.649 318.31,465.027 C321.719,466.164 321.719,476.769 318.31,480.43 C313.007,485.986 296.468,487.122 272.732,483.461 C268.187,482.703 260.359,481.567 255.435,480.935 C245.208,479.42 236.876,475.885 234.856,471.845 C232.078,466.921 229.553,456.442 230.31,453.538 C231.699,448.362 228.669,439.271 223.619,432.454 C220.841,428.792 217.18,421.974 215.286,417.05 C212.761,410.359 209.983,406.066 204.049,399.753 C197.105,392.178 195.464,391.042 189.783,390.032 C186.247,389.274 181.323,389.148 178.798,389.527 C176.273,389.906 170.087,389.527 165.037,388.769 C156.704,387.254 155.441,387.38 150.265,389.779 C147.108,391.168 143.321,392.431 141.806,392.431 C138.144,392.431 135.619,396.597 134.609,403.92 C133.599,410.485 130.695,414.399 124.509,416.924 C119.711,418.944 119.206,420.207 118.07,435.989 C116.807,450.761 115.292,455.558 110.116,460.482 C105.444,464.775 105.444,464.901 105.065,476.895 C104.687,487.374 104.182,489.521 101.53,493.056 C98.121,497.601 96.354,497.98 74.259,499.242 L59.487,500 L56.205,496.591 z" fill="#000000"/>
  </g>
</svg>
