<?xml version="1.0" encoding="UTF-8"?>
<!DOCTYPE svg PUBLIC "-//W3C//DTD SVG 1.1//EN" "http://www.w3.org/Graphics/SVG/1.1/DTD/svg11.dtd">
<svg version="1.1" xmlns="http://www.w3.org/2000/svg" xmlns:xlink="http://www.w3.org/1999/xlink" x="0" y="0" width="500" height="500" viewBox="0, 0, 500, 500">
  <g id="layer101">
    <path d="M385.148,390.294 C383.127,389.791 381.528,389.213 372.865,385.897 C366.48,383.467 359.141,378.214 354.651,372.897 C344.613,361.031 341.115,355.283 340.677,349.73 C340.575,348.417 340.364,345.848 340.192,344.054 C339.962,342.254 340.041,338.59 340.317,335.894 C340.791,331.263 341.027,330.695 344.471,324.829 C346.696,321.03 347.916,318.371 347.6,317.983 C347.337,317.66 346.289,317.493 345.326,317.632 C343.708,317.821 342.868,318.505 342.271,320.28 C342.118,320.62 339.328,325.309 335.991,330.712 C325.891,347.21 320.119,353.844 314.022,356.122 C312.854,356.535 309.329,357.418 306.243,358.049 C300.677,359.197 300.618,359.191 293.54,357.755 C277.577,354.581 262.95,347.042 256.293,338.601 C253.517,335.059 249.22,327.275 246.808,321.342 C242.233,309.917 242.242,301.152 246.818,292.323 C247.413,291.139 247.749,290.167 247.574,290.149 C247.339,290.125 247.551,289.791 247.951,289.358 C248.409,288.932 248.916,287.443 249.119,286.043 L249.495,283.535 L244.513,283.025 C241.758,282.742 228.417,281.731 214.835,280.755 C201.254,279.779 173.81,277.679 153.899,276.054 C114.427,272.842 115.904,272.875 113.727,276.205 C113.162,277.095 112.022,278.399 111.176,279.142 C110.33,279.885 109.054,281.353 108.348,282.465 C107.648,283.519 106.572,284.771 106.002,285.127 C103.841,286.564 100.742,290.807 96.685,298.032 C90.833,308.331 87.243,316.788 86.173,322.601 C85.669,325.215 84.948,327.628 84.508,327.879 C84.126,328.136 79.399,328.6 73.982,328.875 C53.39,329.846 50.617,329.739 50.194,327.504 C50.078,326.9 51.091,322.799 52.497,318.323 C54.924,310.813 60.97,298.046 65.554,290.876 C67.108,288.429 66.942,286.576 65.167,285.98 C64.476,285.79 60.035,284.625 55.353,283.494 C44.724,280.866 41.784,279.498 40.672,276.482 C39.874,274.446 39.382,274.041 35.177,272.307 C30.579,270.355 30.415,270.22 25.862,264.364 C23.355,261.087 20.959,257.88 20.603,257.311 C20.095,256.489 19.351,256.235 18.154,256.349 C16.659,256.492 16.214,256.209 15.315,254.578 L14.212,252.629 L7.823,251.974 C2.841,251.464 1.277,251.126 0.651,250.292 C-1.4,247.772 1.638,242.398 6.356,240.275 C9.097,238.956 14.943,238.548 20.811,239.09 C24.21,239.438 24.432,239.58 25.869,241.74 C26.892,243.326 27.986,244.208 29.819,244.81 C32.743,245.761 33.734,245.329 34.467,242.798 C34.74,241.879 35.247,240.391 35.525,239.412 C36.151,237.344 42.267,229.679 43.875,229.014 C47.642,227.505 56.572,229.367 61.899,232.874 C63.286,233.786 65.201,234.752 66.115,235.082 C68.915,236.08 71.254,238.688 71.488,241.023 C71.699,243.591 72.689,244.343 75.778,244.245 C78.92,244.212 79.749,243.645 79.989,241.301 C80.217,239.073 81.903,237.647 84.072,237.869 C85.947,238.061 87.052,239.418 87.333,241.875 C87.672,244.93 88.274,245.407 92.085,245.797 C94.019,245.995 96.263,246.639 97.152,247.204 C98.317,247.975 99.712,248.236 102.022,248.236 C104.337,248.177 105.902,248.515 107.758,249.475 C110.294,250.741 110.47,250.759 119.5,249.907 C124.525,249.415 129.603,248.988 130.794,248.932 C134.136,248.682 134.63,247.903 134.254,243.482 C133.7,237.325 133.7,237.325 136.238,237.407 L138.425,237.453 L138.065,240.97 C137.669,244.838 138.08,247.19 139.256,247.844 C140.726,248.528 152.695,247.325 157.933,245.907 C159.154,245.558 160.141,244.593 161.295,242.579 C162.225,241.016 163.589,239.26 164.423,238.635 C166.66,237.028 170.784,236.088 173.949,236.412 C175.474,236.568 178.575,236.353 180.927,235.943 C187.684,234.739 195.429,234.289 199.033,234.954 C201.946,235.429 202.842,235.936 205.263,238.316 C206.825,239.838 209.143,241.497 210.396,241.981 C213.647,243.202 225.135,244.379 237.246,244.671 C245.16,244.889 248.091,245.189 249.509,245.808 C252.501,247.24 259.031,247.672 260.206,246.608 C262.303,244.631 263.113,241.93 262.464,239.021 C261.923,236.774 261.937,236.065 262.708,234.9 C263.202,234.122 263.879,232.71 264.158,231.732 C264.43,230.812 264.919,229.5 265.22,228.879 C265.52,228.259 265.556,227.907 265.303,228.059 C265.045,228.27 262.837,227.273 260.425,225.96 L255.946,223.428 L250.661,224.723 C244.707,226.186 243.066,226.018 234.928,223.349 L230.342,221.873 L225.461,223.268 C220.275,224.75 218.692,224.588 216.956,222.456 C214.589,219.548 217.286,216.922 220.899,218.655 L222.709,219.492 L222.613,217.527 C222.54,216.513 222.094,213.92 221.595,211.856 C220.596,207.726 220.105,207.32 213.807,205.787 C210.689,204.994 207.375,206.135 202.952,209.414 C201.342,210.67 198.618,212.405 196.869,213.292 C195.178,214.185 191.614,216.604 189.035,218.649 L184.389,222.378 L180.995,221.972 C176.834,221.546 163.481,218.342 161.566,217.376 C160.664,216.928 160.144,216.224 160.216,215.52 C160.282,214.876 163.102,212.203 166.785,209.204 C170.333,206.369 173.265,203.768 173.307,203.357 C173.343,203.005 172.746,202.471 171.944,202.21 C171.147,201.892 170.176,200.964 169.733,200.089 C169.284,199.273 167.143,197.04 165.019,195.223 C162.187,192.801 160.346,190.54 158.39,187.082 C156.884,184.44 154.455,180.401 153.035,178.064 C149.783,172.815 149.165,171.33 149.778,169.972 C150.314,168.783 155.345,165.922 157.509,165.611 C159.069,165.415 167.184,167.727 171.09,169.489 C176.296,171.858 178.177,171.991 183.921,170.27 C190.339,168.321 191.811,168.413 193.172,170.744 C194.129,172.382 194.246,172.393 195.919,171.676 C197.591,170.959 197.662,170.848 198.279,165.403 C198.585,162.414 198.996,159.554 199.032,159.202 C199.251,158.218 203.003,158.602 203.721,159.682 C203.978,160.064 204.106,162.861 203.924,165.804 C203.642,170.868 203.711,171.349 205.265,173.522 C206.814,175.753 206.895,176.117 206.445,180.513 C206.018,184.674 206.075,185.273 207.129,185.973 C209.014,187.232 212.79,186.79 216.307,184.84 C218.062,183.894 221.718,182.314 224.488,181.295 C227.193,180.328 231.184,178.368 233.222,176.977 C238.63,173.326 240.267,172.961 244.156,174.306 C247.583,175.546 246.973,175.72 252.804,171.402 C254.984,169.788 254.839,168.885 252.377,168.634 C249.447,168.333 245.221,160.438 245.659,156.159 C245.876,154.05 246.721,153.307 251.418,150.826 C254.047,149.437 256.05,147.806 257.479,145.998 C258.579,144.512 260.277,142.968 261.204,142.589 C262.067,142.263 264.416,140.727 266.342,139.266 C273.478,133.777 275.502,133.096 280.571,134.504 C282.064,134.953 283.671,134.88 286.105,134.242 C287.935,133.718 290.334,133.431 291.272,133.527 C293.792,133.785 296.17,132.548 297.776,130.166 C298.746,128.784 299.704,128.112 300.958,128.004 C303.298,127.71 306.444,126.493 309.861,124.355 C312.069,123.041 313.166,122.739 315.334,122.961 C317.444,123.177 319.45,122.672 324.38,120.808 L330.729,118.378 L333.052,119.978 L335.382,121.52 L339.06,120.297 C341.079,119.675 344.059,118.914 345.631,118.601 C349.543,117.995 351.369,116.938 352.863,114.485 C353.8,112.864 354.944,112.092 358.084,110.933 C360.302,110.094 363.359,109.163 364.995,108.798 C367.729,108.13 367.963,108.154 369.959,109.484 C373.348,111.667 374.052,114.049 373.378,121.206 C372.735,128.069 373.377,131.63 375.752,133.886 C378.121,136.202 380.982,136.021 390.2,132.76 C404.517,127.711 410.231,126.283 416.387,126.321 C421.481,126.309 422.39,126.107 431.139,122.797 C439.272,119.721 441.097,119.257 445.494,119.115 C448.285,119.045 451.873,118.702 453.452,118.331 C455.328,117.931 457.281,117.952 459.068,118.432 C462.771,119.285 468.097,118.172 478.987,114.194 C483.729,112.429 488.193,111.05 488.838,111.116 C491.066,111.344 492.642,113.875 495.63,122.295 C498.822,131.032 500.369,138.475 499.925,142.813 C499.583,146.153 498.579,146.702 486.928,150.01 C475.952,153.091 473.481,154.082 469.441,157.103 C467.843,158.243 463.499,160.759 459.813,162.632 C454.383,165.334 451.373,166.388 444.645,167.89 C440.041,168.899 435.887,170.132 435.429,170.559 C434.964,171.045 433.215,171.931 431.555,172.531 C429.888,173.19 427.458,174.362 426.202,175.063 C424.881,175.816 420.457,177.377 416.368,178.557 C412.22,179.732 408.711,181.03 408.493,181.423 C408.269,181.873 408.457,184.084 408.933,186.384 C410.403,193.996 410.284,195.169 407.259,199.834 C405.005,203.335 404.282,204.031 402.017,204.746 C399.87,205.474 399.161,205.461 397.931,204.743 C395.414,203.3 387.583,205.163 388.1,207.052 C388.234,207.481 389.471,209.858 390.884,212.254 C394.066,217.613 395.515,222.559 395.974,229.062 C396.251,233.295 396.566,234.275 397.952,235.779 C400.717,238.847 401.228,238.484 406.201,230.405 C410.25,223.831 411.203,222.626 415.65,219.113 C420.237,215.378 420.924,215.033 426.32,213.81 C436.328,211.518 444.867,212.569 455.748,217.356 C462.149,220.203 467.434,224.12 471.543,229.101 C477.389,236.215 480.433,248.135 478.601,256.773 C477.7,260.945 475.633,267.248 474.213,270.123 C473.477,271.528 471.892,274.86 470.666,277.577 C467.708,283.908 465.556,286.412 459.819,290.385 C456.378,292.757 453.76,294.029 449.67,295.21 C444.784,296.664 443.464,296.824 437.637,296.465 C432.579,296.125 430.363,295.779 427.751,294.682 C420.19,291.598 411.439,288.57 410.881,288.809 C409.378,289.602 410.372,290.889 413.447,292.092 C417.143,293.596 425.11,298.498 425.366,299.472 C425.394,299.772 427.33,301.687 429.559,303.633 C433.906,307.454 435.817,310.197 440.245,319.001 C443.735,325.992 445.014,330.269 445.253,336.038 C445.425,340.142 445.276,341.015 443.66,345.233 C442.686,347.799 441.648,350.416 441.283,351.09 C440.918,351.763 439.874,354.44 438.888,357.123 C435.537,366.137 430.019,376.648 426.697,380.157 C421.708,385.51 416.23,388.68 408.71,390.398 C402.944,391.762 401.63,391.864 394.755,391.337 C390.581,391.029 386.244,390.584 385.148,390.294 z M62.914,323.595 C64.134,323.246 64.343,321.787 63.272,321.262 C62.2,320.738 59.911,321.688 59.803,322.743 C59.713,323.623 61.207,324.072 62.914,323.595 z M77.794,323.461 C79.555,322.457 78.797,320.602 76.691,320.919 C74.709,321.19 73.177,322.277 73.614,323.21 C74.11,324.149 76.344,324.319 77.794,323.461 z M66.369,315.301 C67.791,314.144 67.359,313.153 65.367,312.948 C63.373,312.744 61.936,313.486 61.803,314.775 C61.701,315.771 65.335,316.143 66.369,315.301 z M80.691,315.406 C81.35,314.763 81.391,314.353 80.971,313.836 C80.129,312.802 77.09,313.557 76.718,314.881 C76.352,316.146 79.504,316.588 80.691,315.406 z M68.722,307.369 C70.364,306.945 71.066,305.299 69.788,305.05 C67.526,304.582 65.213,305.766 65.797,307.01 C66.24,307.885 66.768,307.939 68.722,307.369 z M82.384,308.709 C85.611,307.855 85.726,306.15 82.62,305.831 C80.334,305.597 78.219,307.157 79.167,308.32 C79.956,309.29 80.19,309.314 82.384,308.709 z M86.847,300.993 C87.909,300.45 87.503,298.632 86.272,298.505 C84.807,298.356 82.934,299.289 82.838,300.227 C82.736,301.223 85.414,301.675 86.847,300.993 z M73.801,298.828 C75.069,298.01 74.785,296.737 73.203,296.575 C71.738,296.425 69.829,297.71 70.22,298.52 C70.71,299.518 72.357,299.627 73.801,298.828 z M106.844,274.019 C106.934,273.14 106.038,272.634 104.941,272.936 C103.422,273.314 103.683,274.229 105.324,274.397 C106.145,274.481 106.814,274.313 106.844,274.019 z M261.795,273.304 C263.098,272.727 263.704,272.019 263.806,271.023 L263.95,269.616 L254.865,268.685 C244.543,267.688 231.957,267.406 230.038,268.216 C228.43,268.88 228.562,269.901 230.395,271.095 C232.561,272.502 259.313,274.412 261.795,273.304 z M59.131,252.964 C59.466,252.584 60.426,250.728 61.152,248.848 C63.234,243.553 63.875,242.493 65.465,242.005 C67.249,241.358 67.38,240.661 66.064,239.045 C64.697,237.365 52.128,232.288 48.207,231.827 C46.155,231.617 45.225,233.18 46.694,234.455 C49.302,236.737 49.594,237.359 49.366,239.586 C49.234,240.875 48.39,243.336 47.501,245.081 C46.081,247.956 45.986,248.301 46.775,249.271 C47.249,249.852 49.621,250.983 52.081,251.828 C57.64,253.641 58.279,253.765 59.131,252.964 z M15.236,246.1 C17.319,245.425 17.34,244.065 15.347,243.861 C13.295,243.651 9.137,244.35 8.121,245.016 C5.773,246.553 11.434,247.369 15.236,246.1 z M180.32,244.764 C187.643,244.389 195.53,243.716 197.829,243.241 C200.252,242.719 198.447,240.106 195.457,239.799 C194.226,239.673 174.712,241.11 170.156,241.651 C167.634,241.984 168.776,244.707 171.584,245.054 C172.17,245.114 176.092,244.982 180.32,244.764 z M180.905,218.231 C181.381,217.628 180.204,216.975 179.166,217.283 C178.744,217.358 178.356,217.674 178.326,217.967 C178.254,218.67 180.423,218.893 180.905,218.231 z M170.599,215.34 C170.805,215.065 170.484,214.736 169.839,214.669 C169.136,214.597 168.578,214.837 168.548,215.129 C168.512,215.481 168.839,215.752 169.308,215.8 C169.777,215.848 170.388,215.673 170.599,215.34 z M341.153,147.874 C342.203,147.449 343.406,146.683 343.76,146.128 C344.389,145.185 349.29,143.022 350.462,143.142 C351.693,143.268 353.333,141.126 353.126,139.683 C352.826,137.402 350.131,134.224 348.373,134.044 C346.614,133.864 341.023,135.838 340.199,136.938 C339.917,137.383 338.103,138.323 336.249,139.081 C333.156,140.363 332.833,140.626 332.441,142.718 C332.126,144.64 332.359,145.256 333.949,147.078 C335.96,149.416 336.892,149.57 341.153,147.874 z" fill="#000000"/>
  </g>
</svg>
