<?xml version="1.0" encoding="UTF-8"?>
<!DOCTYPE svg PUBLIC "-//W3C//DTD SVG 1.1//EN" "http://www.w3.org/Graphics/SVG/1.1/DTD/svg11.dtd">
<svg version="1.1" xmlns="http://www.w3.org/2000/svg" xmlns:xlink="http://www.w3.org/1999/xlink" x="0" y="0" width="500" height="500" viewBox="0, 0, 500, 500">
  <g id="layer101">
    <path d="M167.778,370.536 C91.877,356.443 67.586,351.746 65.484,350.695 C62.085,348.965 60.478,347.605 47.56,335.305 C41.935,329.989 35.878,324.303 34.024,322.572 C32.169,320.903 30.315,318.678 29.882,317.627 C29.326,316.268 28.523,315.588 27.286,315.341 C25.988,315.093 24.938,314.043 23.207,311.199 C20.982,307.676 20.858,307.182 21.291,304.091 C21.6,301.186 21.538,300.754 20.487,300.445 C19.808,300.197 18.819,299.518 18.201,298.838 C17.273,297.787 17.212,297.231 17.892,293.46 C18.262,291.173 19.004,288.639 19.499,287.897 C19.993,287.156 20.364,285.672 20.364,284.56 C20.364,283.385 20.982,281.902 21.909,280.789 C23.207,279.244 23.454,278.317 23.454,274.794 C23.454,270.529 22.836,269.169 20.858,269.169 C18.819,269.169 10.845,264.781 8.126,262.185 C3.428,257.611 1.698,249.638 4.232,244.075 C5.715,240.861 7.817,239.192 12.081,237.956 C16.655,236.658 16.408,235.36 11.34,234 C4.046,232.022 -1.702,221.206 0.461,213.418 C1.265,210.513 3.985,206.001 6.519,203.281 C8.744,200.871 13.503,199.325 18.571,199.325 C20.982,199.325 22.342,199.016 22.898,198.337 C24.196,196.791 28.028,195.122 31.366,194.628 C34.147,194.257 34.951,194.504 39.71,196.791 C45.52,199.635 47.869,202.107 49.847,207.299 C50.897,210.204 52.319,212.305 53.184,212.305 C53.493,212.305 54.111,211.564 54.606,210.575 C55.78,208.226 65.052,196.915 67.524,194.813 C69.44,193.206 69.502,192.897 69.502,188.509 C69.502,184.368 69.316,183.811 67.833,182.204 C65.979,180.288 65.731,178.929 66.72,177.013 C67.709,175.22 70.058,175.591 72.469,177.878 C74.694,179.979 75.992,183.255 75.992,186.964 C75.992,189.683 76.795,190.981 78.155,190.425 C79.082,190.116 79.144,189.251 78.959,184.615 C78.773,179.794 78.588,178.867 77.104,176.889 C75.065,174.293 74.941,173.304 76.486,171.944 C77.29,171.202 78.217,171.017 79.948,171.326 C81.74,171.573 82.543,171.45 83.038,170.77 C84.212,169.163 85.51,169.163 88.292,170.77 C90.517,172.006 91.259,172.191 92.186,171.573 C96.141,169.101 100.839,173.551 101.89,180.721 C102.26,183.502 102.322,183.564 104.609,183.75 C106.711,183.935 107.267,183.626 109.739,181.154 C111.285,179.608 113.201,178.125 114.066,177.94 C116.6,177.322 121.359,178.001 124.388,179.485 C127.973,181.216 129.085,181.03 130.693,178.372 C133.288,173.922 136.008,171.697 139.902,170.893 C141.88,170.523 144.538,170.275 145.774,170.461 C147.319,170.646 148.864,170.275 150.842,169.286 C155.292,167.061 159.001,166.32 161.411,167.123 C162.524,167.494 163.637,167.556 163.884,167.309 C164.193,166.999 164.811,164.527 165.305,161.869 C166.418,155.503 166.603,155.07 168.767,154.205 C169.817,153.772 170.992,152.66 171.424,151.795 C172.352,150.126 173.588,138.691 173.402,133.561 C173.341,130.1 174.639,128.616 176.616,129.852 C177.42,130.409 177.667,131.398 177.667,134.179 C177.667,136.96 177.853,137.826 178.594,137.826 C179.583,137.826 180.016,136.651 181.19,130.161 L181.994,125.588 L185.95,123.548 C190.153,121.385 190.709,120.828 191.327,118.356 C191.945,115.884 194.85,111.681 196.21,111.31 C198.868,110.568 200.166,111.001 202.391,113.473 C204.43,115.698 204.678,116.316 204.369,118.418 C203.874,122.188 205.11,123.363 209.684,123.239 C211.786,123.239 217.534,123.301 222.479,123.424 C230.761,123.61 231.441,123.672 231.626,124.784 C231.997,126.638 230.205,127.627 227.732,126.947 C226.063,126.453 224.889,126.638 221.675,127.875 C219.45,128.678 215.371,129.791 212.589,130.347 C206.965,131.398 205.667,132.139 205.914,134.055 C206.099,135.168 206.47,135.353 208.572,135.292 C209.931,135.23 212.342,134.983 214.011,134.735 C216.298,134.364 217.719,134.55 220.81,135.662 C225.136,137.269 229.092,137.331 233.048,135.971 C234.469,135.477 236.818,135.106 238.302,135.168 C239.785,135.168 241.392,134.921 241.887,134.488 C242.69,133.808 243.494,133.808 246.028,134.426 C249.056,135.168 249.242,135.168 251.714,133.314 C253.136,132.325 254.681,130.718 255.175,129.729 C256.412,127.256 256.782,127.071 261.047,127.442 C265.312,127.751 269.762,129.173 271.617,130.78 C273.162,132.078 277.303,134.117 279.466,134.674 C281.259,135.106 283.36,138.32 284.349,142.152 C284.596,143.203 285.585,146.108 286.451,148.642 C287.934,152.845 287.996,153.587 287.378,156.554 C286.945,158.532 286.698,165.145 286.821,173.86 C286.945,186.346 286.821,188.138 285.894,189.56 C285.276,190.549 284.967,191.723 285.214,192.465 C285.709,194.01 290.654,196.977 291.952,196.482 C292.941,196.111 294.177,192.65 294.177,190.178 C294.177,189.003 294.98,186.778 295.722,185.851 C296.216,185.295 303.448,183.008 309.011,181.71 C314.45,180.474 317.17,180.227 325.267,180.227 L334.971,180.165 L337.072,182.019 C339.544,184.182 339.977,184.244 341.46,182.637 C342.944,180.968 344.056,181.092 347.332,183.255 C348.878,184.244 350.361,185.109 350.608,185.109 C350.917,185.109 351.968,185.666 352.895,186.346 C353.884,187.087 355.615,187.644 356.727,187.582 C357.84,187.582 361.981,187.767 365.937,187.953 C371.809,188.262 373.416,188.2 374.961,187.335 C376.444,186.593 377.31,186.531 378.731,187.026 C380.153,187.52 381.018,187.458 382.378,186.84 C383.552,186.284 386.828,186.037 392.762,186.037 L401.415,186.037 L401.971,187.644 C402.713,189.869 401.291,192.774 399.252,193.021 C398.386,193.145 396.594,193.577 395.234,194.072 C392.082,195.122 383.367,195.802 382.872,194.999 C382.131,193.763 379.164,194.443 374.899,196.791 C370.758,199.016 370.14,199.202 364.144,199.449 C357.407,199.696 356.604,200.067 356.604,202.849 C356.604,203.714 357.222,204.517 358.334,205.012 C359.57,205.63 360.065,206.372 360.189,207.855 C360.312,208.968 360.745,210.018 361.239,210.204 C362.414,210.698 365.689,208.844 366.864,206.99 C368.595,204.394 369.954,204.023 372.427,205.445 C375.27,207.175 376.012,207.113 379.287,204.888 C382.563,202.663 383.429,202.601 384.665,204.394 C385.468,205.506 385.592,206.681 385.283,209.833 C384.788,214.345 384.232,215.396 382.254,215.396 C379.287,215.396 377.742,216.817 379.967,217.497 C380.524,217.683 386.025,218.301 392.144,218.795 C405.062,219.97 407.596,220.711 416.929,225.841 C420.576,227.943 424.099,229.612 424.593,229.612 C425.15,229.612 426.509,230.292 427.684,231.157 C428.982,232.084 430.589,232.702 431.948,232.702 C433.679,232.702 434.544,233.258 436.893,235.731 C439.86,238.821 444.372,241.541 465.696,253.099 C472.186,256.56 478.058,260.022 478.861,260.702 C480.036,261.814 480.221,262.556 480.221,267.253 C480.221,274.114 480.839,276.03 483.744,278.626 C485.042,279.739 487.02,281.531 488.133,282.52 C489.369,283.633 490.358,285.178 490.667,286.476 C491.038,288.207 491.409,288.639 492.583,288.701 C493.448,288.763 494.437,288.825 494.87,288.886 C495.241,288.886 496.291,291.235 497.157,294.078 C498.517,298.467 498.64,299.518 498.022,301.495 C497.404,303.535 497.466,303.968 498.64,305.204 C499.382,306.007 500,307.305 500,308.171 C500,310.767 498.331,316.02 496.91,317.813 C495.982,319.049 495.673,320.038 495.921,321.398 C496.106,322.387 496.044,323.623 495.797,323.994 C494.932,325.354 487.02,328.815 477.44,332.091 C468.972,334.996 465.202,335.799 435.101,341.177 C416.929,344.452 401.044,347.172 399.87,347.172 C398.695,347.234 394.616,347.048 390.907,346.801 C384.108,346.307 384.108,346.307 383.305,347.728 C382.378,349.583 378.855,361.45 378.855,362.933 C378.793,363.551 377.928,364.602 376.877,365.282 C375.764,365.962 374.652,367.445 374.219,368.62 C373.539,370.659 373.168,370.907 363.959,374.368 C344.304,381.785 347.023,381.229 308.949,385.37 C290.036,387.41 272.976,389.078 270.937,389.017 C268.959,388.955 222.54,380.672 167.778,370.536 z M188.36,137.393 C189.287,136.466 189.349,133.994 188.422,133.437 C187.495,132.881 186.197,134.364 185.702,136.466 C185.331,137.826 185.455,138.135 186.444,138.135 C187.062,138.135 187.927,137.826 188.36,137.393 z" fill="#000000"/>
  </g>
</svg>
