<?xml version="1.0" encoding="UTF-8"?>
<!DOCTYPE svg PUBLIC "-//W3C//DTD SVG 1.1//EN" "http://www.w3.org/Graphics/SVG/1.1/DTD/svg11.dtd">
<svg version="1.1" xmlns="http://www.w3.org/2000/svg" xmlns:xlink="http://www.w3.org/1999/xlink" x="0" y="0" width="500" height="500" viewBox="0, 0, 500, 500">
  <g id="layer102">
    <path d="M303.724,136.367 C304.431,136.573 304.666,137 304.745,137.681 C304.745,139.531 306.252,143.642 307.211,144.669 C307.896,145.354 309.609,145.697 312.35,145.697 L316.391,145.697 L316.391,157.892 L310.774,158.303 C307.622,158.509 301.867,158.851 297.894,159.056 C293.92,159.262 290.289,159.605 289.741,159.742 C288.165,160.358 290.22,162.139 292.482,162.139 C293.509,162.139 294.537,162.413 294.742,162.688 C294.948,163.03 297.414,163.852 300.223,164.537 C304.265,165.565 305.499,166.182 306.046,167.415 C306.458,168.305 307.622,169.333 308.719,169.744 C309.746,170.087 311.322,171.525 312.212,172.964 C314.679,176.664 315.57,177.212 319.269,177.212 C321.804,177.212 322.695,177.486 323.242,178.582 C323.654,179.335 324.681,179.952 325.572,179.952 C326.394,179.952 328.449,180.843 330.162,181.939 C345.303,191.736 345.029,191.599 348.866,191.599 C352.291,191.599 355.443,192.763 355.443,193.997 C355.443,194.477 356.059,195.367 356.744,195.984 C357.772,196.943 358.389,197.011 359.417,196.463 C361.061,195.573 361.403,195.915 365.034,201.328 C366.336,203.314 368.665,206.192 370.172,207.699 C371.68,209.206 374.146,212.289 375.653,214.481 C377.16,216.674 379.353,219.278 380.517,220.373 C381.682,221.401 383.943,224.073 385.45,226.334 C387.026,228.595 388.739,230.65 389.356,230.924 C389.972,231.13 395.384,231.335 401.345,231.335 L412.17,231.335 L412.649,239.831 C412.923,244.421 412.923,249.217 412.717,250.381 C412.17,252.711 413.197,253.807 414.773,252.505 C416.074,251.409 417.239,251.957 426.077,258.054 C437.244,265.865 436.285,264.22 436.285,275.525 C436.285,282.102 436.559,285.459 437.107,286.007 C437.587,286.486 439.985,286.829 443.205,286.829 C449.987,286.829 450.33,286.486 449.782,279.224 C449.439,273.743 449.439,273.743 451.22,272.99 C453.687,272.031 456.702,273.058 471.774,280.046 C474.103,281.142 477.94,282.924 480.337,284.02 C482.667,285.116 487.394,287.308 490.751,288.884 C494.177,290.46 497.602,292.036 498.493,292.378 C499.795,292.858 500,293.475 500,296.42 C500,299.709 499.931,299.846 497.534,300.873 C496.095,301.422 494.656,302.312 494.245,302.86 C493.834,303.34 490.82,304.094 487.326,304.573 C483.969,304.984 479.173,305.669 476.707,306.08 C471.705,306.903 461.36,306.423 455.126,305.121 C451.357,304.368 451.015,304.162 450.81,302.381 C450.672,301.285 450.261,300.531 449.782,300.737 C448.822,301.011 448.069,305.258 447.384,313.548 C446.767,321.084 444.986,324.373 439.779,327.661 C437.656,328.963 435.189,329.991 434.161,329.991 C431.969,329.991 424.227,334.855 423.679,336.636 C423.2,338.212 416.212,342.322 414.019,342.322 C411.142,342.322 403.4,347.323 403.4,349.242 C403.4,350.201 395.933,354.654 394.425,354.654 C392.781,354.654 385.724,358.217 383.738,360.067 C379.558,363.903 374.968,364.588 367.98,362.396 C364.691,361.368 363.801,361.368 360.376,362.122 C354.004,363.629 349.619,363.766 346.057,362.601 C342.083,361.231 339.206,361.231 336.054,362.533 C334.684,363.081 331.738,363.56 329.546,363.56 C327.285,363.56 324.339,363.081 323.037,362.533 C321.667,361.985 319.269,361.505 317.762,361.505 C316.255,361.505 313.857,361.985 312.487,362.533 C311.185,363.081 308.444,363.56 306.458,363.56 C304.471,363.56 301.73,363.081 300.428,362.533 C297.277,361.231 291.248,361.231 288.988,362.533 C286.658,363.835 279.396,363.835 277.615,362.533 C275.902,361.231 269.325,361.231 266.79,362.533 C264.323,363.835 257.678,363.835 255.417,362.533 C254.458,361.985 251.923,361.574 249.594,361.574 C247.265,361.574 244.73,361.985 243.771,362.533 C242.811,363.081 240.345,363.492 238.29,363.492 C236.234,363.492 233.768,363.081 232.809,362.533 C231.781,361.985 229.246,361.574 226.643,361.574 C224.039,361.574 221.504,361.985 220.477,362.533 C219.518,363.081 217.257,363.492 215.338,363.492 C213.489,363.492 211.159,363.081 210.2,362.533 C209.173,361.985 206.637,361.574 204.034,361.574 C201.431,361.574 198.896,361.985 197.868,362.533 C196.909,363.081 194.443,363.492 192.388,363.492 C190.332,363.492 187.866,363.081 186.907,362.533 C185.879,361.985 183.344,361.574 180.74,361.574 C178.137,361.574 175.602,361.985 174.574,362.533 C172.314,363.835 167.176,363.766 164.778,362.465 C163.27,361.642 161.558,361.505 157.242,361.848 C154.158,362.054 149.568,362.259 147.033,362.19 L135.523,362.19 C126.412,362.19 120.383,362.19 112.778,362.122 C109.284,362.122 104.625,362.328 102.433,362.533 C99.556,362.875 97.774,362.739 95.719,361.916 C92.294,360.546 86.881,360.478 83.661,361.848 C80.715,363.081 75.714,363.218 73.659,362.054 C72.836,361.574 68.931,361.026 64.958,360.82 C58.586,360.409 57.422,360.204 54.818,358.491 C53.242,357.395 51.324,355.545 50.571,354.38 C48.721,351.366 44.473,348.077 41.185,347.118 C38.376,346.228 34.196,342.734 30.566,338.075 C28.853,335.883 24.742,333.348 21.385,332.388 C19.946,331.977 16.041,328.483 11.862,323.756 C9.327,320.879 5.148,317.59 2.613,316.494 C0.9,315.74 0.626,315.124 0.147,311.767 C-0.059,309.643 -0.059,306.354 0.215,304.436 C0.489,302.449 0.9,298.27 1.174,295.05 C1.722,288.884 3.024,285.595 5.559,283.883 C10.355,280.663 10.149,281.485 10.149,264.631 L10.149,249.285 L13.575,246.408 C17.069,243.462 17.754,241.68 16.384,239.008 C16.041,238.392 15.082,235.994 14.26,233.733 C13.438,231.472 12.478,229.074 12.136,228.458 C11.793,227.773 11.519,226.745 11.519,226.197 C11.519,225.649 11.246,224.621 10.903,223.936 C10.56,223.32 9.807,221.743 9.327,220.579 C8.299,217.907 7.34,217.428 4.942,218.387 C3.504,218.866 2.818,218.798 1.859,217.907 C-0.059,216.195 0.283,215.098 3.298,213.18 C5.901,211.536 6.655,210.234 5.559,209.138 C4.257,207.836 3.298,202.903 3.298,197.354 L3.298,191.051 L6.45,190.572 C8.163,190.366 10.766,190.298 12.205,190.572 C14.74,190.983 14.945,190.914 16.589,188.31 C17.548,186.803 18.644,185.365 19.056,185.091 C19.398,184.885 19.741,182.556 19.741,180.021 C19.741,176.87 20.083,175.088 20.7,174.54 C21.933,173.512 23.851,174.334 23.851,175.979 C23.851,177.623 27.551,179.267 31.319,179.267 C35.087,179.267 36.868,181.597 36.868,186.461 C36.868,190.366 38.033,191.668 39.883,189.886 C40.499,189.27 42.212,188.859 44.336,188.859 C47.419,188.859 47.83,188.653 48.241,187.214 C48.583,185.776 49.132,185.57 53.38,185.227 C59.066,184.748 59.888,184.953 60.436,187.214 L60.916,188.927 L71.329,188.584 C85.511,188.105 85.922,188.105 91.129,188.584 C96.198,188.995 96.062,189.133 96.609,184.063 C96.815,182.35 96.815,182.35 105.036,182.213 C109.558,182.076 113.6,181.871 114.08,181.733 C114.491,181.528 114.97,180.706 115.108,179.815 C115.313,178.376 115.655,178.24 120.451,178.034 C127.234,177.76 128.672,178.171 128.672,180.294 C128.672,181.459 129.152,182.076 130.248,182.35 C131.07,182.556 151.213,182.624 174.917,182.556 L218.079,182.35 L218.421,174.266 C218.695,167.21 218.97,165.976 220.065,165.154 C221.093,164.401 224.245,164.195 233.768,164.126 C240.619,164.126 246.785,163.852 247.539,163.578 C248.292,163.236 249.662,163.304 250.484,163.578 C252.197,164.263 257.13,163.304 257.815,162.208 C257.952,161.865 257.952,160.632 257.746,159.468 C257.335,157.686 256.993,157.344 255.28,157.344 C253.978,157.344 252.677,156.727 251.581,155.494 C250.279,154.124 248.909,153.576 245.757,153.096 C243.428,152.822 241.304,152.411 240.962,152.137 C240.619,151.932 240.345,149.739 240.345,147.204 C240.413,143.436 240.688,142.272 241.989,140.627 C243.359,138.983 243.907,138.709 245.552,139.189 C246.648,139.463 248.498,139.6 249.594,139.531 C250.758,139.531 258.5,139.325 266.859,139.12 C279.67,138.846 282.41,138.983 284.123,139.874 C285.63,140.627 288.302,140.901 293.783,140.901 L301.319,140.901 L301.319,138.914 C301.319,137.75 301.73,136.791 302.416,136.516 C303.157,136.304 302.725,136.384 303.724,136.367 z M264.803,332.046 C260.213,332.046 260.144,332.115 259.459,334.101 L258.705,336.157 L251.992,336.157 C243.907,336.157 243.085,336.43 243.085,338.897 C243.085,339.993 242.468,342.254 241.783,343.967 C240.413,347.049 240.413,347.049 241.852,349.996 C242.674,351.64 243.633,353.695 244.044,354.654 C244.73,356.162 245.415,356.436 248.909,356.709 C253.842,357.189 255.28,356.504 256.445,353.079 C257.61,349.585 258.705,348.488 260.829,348.488 C263.296,348.488 263.844,349.037 265.283,352.805 C266.653,356.504 267.955,357.395 271.654,357.395 C275.56,357.395 277.34,356.093 278.505,352.599 C279.053,350.886 280.081,349.037 280.834,348.351 C282.479,346.913 282.479,345.953 280.766,343.145 C280.013,341.911 279.396,339.993 279.396,338.897 C279.396,336.704 278.711,336.362 273.915,336.019 C272.134,335.883 271.449,335.471 271.243,334.444 C270.901,332.388 269.941,332.046 264.803,332.046 z M344.824,333.074 C339.685,333.074 339.343,333.142 339.137,334.58 C338.863,336.568 337.767,336.842 327.696,337.047 C319.474,337.184 319.474,337.184 319.269,338.897 C318.858,342.254 316.255,347.666 313.925,349.927 C311.527,352.256 310.979,354.449 312.418,355.888 C312.897,356.367 315.295,356.709 318.515,356.709 L323.722,356.709 L324.887,353.489 C325.572,351.64 326.189,349.79 326.394,349.379 C326.531,348.831 327.764,348.488 329.272,348.488 C332.355,348.488 332.834,348.968 334.479,353.489 L335.711,356.778 L340.85,356.573 C346.468,356.367 346.125,356.573 348.318,351.434 C349.277,348.968 349.825,348.488 351.401,348.488 C354.552,348.488 355.305,349.173 356.539,352.736 C357.224,354.86 358.183,356.367 359.142,356.709 C359.896,357.052 360.923,357.326 361.335,357.326 C362.91,357.463 366.404,356.504 366.404,356.024 C366.404,355.682 365.034,354.654 363.39,353.695 C358.389,350.749 354.963,345.679 353.798,339.445 C353.525,337.801 352.839,336.773 352.017,336.499 C351.332,336.293 350.647,335.403 350.51,334.58 C350.304,333.142 349.962,333.074 344.824,333.074 z M183.443,332.078 C182.013,332.171 180.519,332.28 180.193,333.964 C179.987,335.403 179.645,335.471 173.547,335.471 C166.764,335.471 166.353,335.677 166.353,339.102 C166.353,341.5 163.27,347.529 160.804,349.858 C159.571,351.023 157.378,352.599 155.94,353.421 C154.569,354.243 153.542,355.134 153.748,355.477 C154.295,356.367 163.339,356.162 164.093,355.203 C164.435,354.723 165.326,352.805 165.942,351.023 C167.176,347.735 167.176,347.735 169.984,347.94 C172.588,348.146 172.793,348.352 173.821,351.229 C175.534,356.024 175.534,356.024 181.083,356.024 C186.016,356.024 186.222,355.956 187.249,353.969 C187.797,352.873 188.277,351.571 188.276,351.16 C188.277,349.585 190.538,347.803 192.593,347.803 C194.58,347.803 196.43,349.311 196.498,350.955 C196.498,351.366 196.977,352.873 197.526,354.243 L198.553,356.709 L203.554,356.709 C209.241,356.709 209.926,356.367 210.543,353.764 C210.954,352.256 210.68,351.435 209.309,349.996 C206.706,347.187 204.925,343.624 204.034,339.377 L203.281,335.471 L197.389,335.471 C192.182,335.471 191.565,335.334 191.223,334.17 C190.949,333.142 190.058,332.731 187.317,332.388 C186.032,332.228 184.742,332.067 183.443,332.078 z M105.79,331.361 C102.022,331.361 99.898,332.457 99.898,334.444 C99.898,335.198 98.597,335.471 94.965,335.608 L90.032,335.814 L89.279,339.239 C88.114,344.035 87.361,345.679 84.894,348.762 C82.77,351.435 82.634,353.01 84.278,355.203 C85.031,356.093 93.526,356.367 94.828,355.477 C95.308,355.203 96.198,353.353 96.815,351.435 C97.98,347.803 97.98,347.803 100.926,347.803 C103.803,347.803 103.803,347.803 105.584,351.914 L107.366,356.024 L112.846,356.024 C119.012,356.024 119.15,355.888 120.383,350.201 C120.794,348.352 121.136,348.146 123.74,347.94 C126.48,347.735 126.686,347.872 127.713,350.338 C130.385,356.504 129.769,356.024 135.181,356.024 C137.853,356.024 140.32,355.819 140.525,355.613 C140.799,355.339 139.497,354.38 137.716,353.421 C135.935,352.53 133.537,350.681 132.372,349.447 C129.906,346.844 127.302,341.706 127.302,339.513 C127.302,338.76 126.96,337.527 126.617,336.773 C125.932,335.608 125.11,335.471 119.081,335.471 C112.71,335.471 112.23,335.403 112.23,334.101 C112.23,332.251 110.175,331.361 105.79,331.361 z M48.034,335.681 L47.795,335.71 C47.17,335.945 46.881,336.643 46.597,337.184 C44.953,340.747 45.638,343.145 48.721,345.543 C51.392,347.529 53.311,348.351 53.311,347.461 C53.311,347.187 52.831,346.159 52.283,345.063 C51.735,343.967 50.845,341.432 50.297,339.445 C49.927,338.096 49.576,336.439 48.282,335.688 L48.034,335.681 z M407.202,328.724 C405.757,329.129 406.401,328.871 405.25,329.442 C404.085,330.059 396.275,335.814 394.494,337.389 C394.288,337.527 395.384,338.692 396.892,339.993 C398.398,341.226 400.112,342.322 400.66,342.322 C401.276,342.322 403.469,341.226 405.661,339.856 C409.908,337.184 410.251,336.293 408.812,331.224 C408.501,330.162 408.417,329.088 407.202,328.724 z M30.428,321.632 L29.195,323.139 C28.51,323.961 27.962,325.674 27.962,326.976 C27.962,328.826 28.442,329.579 30.566,331.155 C31.936,332.183 33.511,333.485 34.06,333.964 C35.155,334.992 37.417,334.444 39.266,332.594 C40.637,331.292 40.637,331.224 35.498,326.428 L30.428,321.632 z M420.895,327.108 C419.586,327.147 416.365,327.11 418.883,328.963 C420.665,330.333 422.172,330.265 424.022,328.62 C425.872,327.182 425.872,327.182 421.555,327.113 L420.895,327.108 z" fill="#000000"/>
  </g>
</svg>
