<?xml version="1.0" encoding="UTF-8"?>
<!DOCTYPE svg PUBLIC "-//W3C//DTD SVG 1.1//EN" "http://www.w3.org/Graphics/SVG/1.1/DTD/svg11.dtd">
<svg version="1.1" xmlns="http://www.w3.org/2000/svg" xmlns:xlink="http://www.w3.org/1999/xlink" x="0" y="0" width="500" height="500" viewBox="0, 0, 500, 500">
  <g id="layer101">
    <path d="M101.381,422.644 C99.346,422.135 95.532,421.626 92.989,421.499 C89.047,421.372 88.03,420.736 86.758,417.557 C85.741,415.142 85.36,410.946 85.868,406.622 C86.504,400.646 86.25,399.248 83.707,396.323 C80.782,393.017 80.528,392.89 75.442,394.67 C72.39,395.56 69.339,397.34 68.576,398.485 C67.686,399.629 65.27,401.155 63.235,401.918 C61.074,402.681 57.386,404.588 54.843,406.368 C46.706,411.836 38.187,413.107 24.073,410.818 C10.976,408.784 2.839,404.461 2.839,399.502 C2.839,398.23 2.076,395.56 1.058,393.653 C-0.976,389.584 0.041,380.048 3.093,375.343 C4.237,373.563 8.179,370.003 11.739,367.206 C17.97,362.501 28.269,349.023 28.269,345.463 C28.269,344.573 29.922,342.03 31.956,339.741 C36.025,335.036 42.255,323.72 42.255,321.05 C42.255,320.032 43.654,316.854 45.434,313.929 C47.087,311.005 49.122,305.792 49.884,302.613 C50.647,299.307 52.428,294.984 53.953,292.949 C56.115,290.025 56.496,288.245 55.861,283.667 C54.589,274.894 52.809,272.096 46.07,269.045 C35.898,264.34 32.592,260.653 25.726,246.158 C17.842,229.755 10.849,219.329 6.78,217.803 C3.983,216.658 3.856,216.15 4.619,209.157 C5.127,204.833 4.873,200.256 4.11,198.094 C2.203,193.135 3.347,189.83 8.306,186.524 C17.842,180.039 21.911,175.207 21.911,170.375 C21.911,164.908 24.709,158.805 27.633,157.66 C28.777,157.279 31.32,156.897 33.355,156.897 C35.644,156.897 39.077,155.117 43.018,151.811 C50.012,146.09 49.63,147.87 49.757,122.185 C49.884,104.511 51.792,98.662 60.438,89.762 C66.923,83.023 72.772,79.971 83.071,77.555 C91.844,75.521 93.37,75.775 96.168,79.971 C97.439,81.878 100.364,83.404 104.432,84.421 C112.061,86.201 113.46,87.727 118.673,99.044 C121.725,105.783 122.361,108.834 121.852,112.267 C121.343,114.81 120.708,120.659 120.326,125.491 C119.436,135.409 120.708,137.825 126.557,137.825 C129.481,137.825 131.77,139.351 136.856,144.564 C140.416,148.378 144.231,152.701 145.248,154.227 C146.519,156.007 149.825,157.66 154.784,158.932 C159.235,160.076 164.066,162.492 166.609,164.654 C171.06,168.595 173.73,169.231 175.256,166.815 C175.764,166.052 177.417,158.423 178.943,150.031 C183.139,127.78 186.699,116.463 191.15,112.013 C194.71,108.58 195.473,108.326 202.975,108.834 C209.459,109.216 212.13,110.106 216.326,113.03 C219.123,115.192 229.041,120.914 238.323,125.745 C251.546,132.739 255.742,135.536 257.65,138.842 L260.066,143.165 L256.76,153.464 C252.564,166.179 249.766,193.008 252.309,195.933 C253.454,197.331 255.488,197.586 261.464,196.95 C267.822,196.314 269.856,195.424 272.399,192.627 C278.375,186.015 279.901,185.634 308.764,185.634 C338.518,185.506 340.298,185.888 339.535,193.008 C338.899,199.366 333.305,201.655 318.428,201.655 C305.204,201.527 302.025,202.418 303.297,205.723 C303.933,207.376 306.603,207.758 320.081,207.758 C337.628,207.758 343.222,209.157 346.783,214.497 C460.583,231.027 432.991,224.627 436.043,222.211 C436.933,221.575 438.332,218.778 438.967,216.108 C439.73,213.438 441.638,209.623 443.418,207.716 C447.232,203.266 447.741,204.41 448.122,218.142 L448.504,228.314 L461.219,228.696 C468.212,228.823 478.766,229.586 484.742,230.222 C497.457,231.748 500,233.782 500,242.174 C500,249.803 497.584,250.524 491.481,252.686 C485.759,254.593 484.996,254.466 455.243,249.507 C446.215,247.981 442.273,247.854 440.366,248.744 C436.552,250.778 431.338,250.397 424.981,247.472 C310.926,240.225 348.563,247.556 344.24,250.989 C339.789,254.55 339.662,254.55 324.658,253.914 C314.613,253.405 309.4,253.66 308.764,254.55 C308.383,255.312 309.4,257.983 311.053,260.526 C312.833,263.069 315.503,268.409 317.029,272.351 C319.318,278.581 319.572,280.361 318.301,284.939 C316.775,290.788 317.665,300.705 320.081,305.664 C320.971,307.444 321.988,314.438 322.37,321.304 C322.878,328.17 323.768,335.926 324.531,338.469 C326.311,345.208 328.473,400.138 326.947,401.155 C326.184,401.536 323.005,401.409 319.699,400.901 C316.394,400.392 312.96,399.883 312.198,399.883 C310.926,399.756 310.545,395.052 310.545,380.556 C310.545,367.206 309.4,351.439 306.73,328.806 C304.568,310.878 302.534,296.001 302.28,295.747 C302.025,295.492 299.228,296.255 296.176,297.4 C288.039,300.451 286.767,304.393 285.877,328.552 C285.114,348.514 281.046,397.595 279.901,400.773 C279.011,403.062 277.867,403.571 273.162,403.571 C269.983,403.571 267.059,402.935 266.677,402.299 C266.169,401.536 265.279,397.213 264.643,392.763 C263.753,386.405 264.134,379.921 266.169,364.535 C267.567,353.473 268.966,341.521 269.22,338.088 C269.475,334.528 270.619,328.043 271.636,323.466 C272.654,318.888 273.798,311.895 274.306,307.699 C275.069,300.833 274.942,300.07 271.891,296.891 C268.203,293.076 267.695,290.406 268.966,280.234 C269.475,276.42 269.475,272.605 268.966,271.842 C267.313,269.426 255.87,261.161 252.564,259.763 C250.783,259.127 246.715,258.618 243.409,258.618 C239.213,258.618 236.288,257.728 232.982,255.44 C230.439,253.66 225.608,251.879 222.174,251.498 C218.614,250.989 214.291,249.591 212.384,248.192 C205.136,243.106 189.115,241.962 181.486,246.03 C176.527,248.701 170.297,248.828 158.345,246.412 C155.166,245.776 153.513,246.285 149.825,249.209 C147.282,251.244 145.248,253.532 145.248,254.422 C145.248,255.694 148.427,263.704 149.953,265.993 C150.334,266.883 161.015,267.519 180.215,267.9 C202.212,268.282 205.136,269.299 217.978,280.87 C227.515,289.389 233.364,297.145 238.704,308.462 C243.409,318.125 244.044,322.067 241.629,324.483 C240.866,325.246 239.848,330.713 239.34,336.562 C238.577,345.844 237.941,348.006 234.762,352.202 C228.913,359.704 225.353,366.443 225.353,370.003 C225.353,373.563 229.168,375.598 236.543,375.598 C240.866,375.725 250.275,379.158 250.021,380.684 C249.893,381.065 249.512,385.134 249.003,389.711 L248.113,398.103 L242.264,398.993 C232.728,400.265 197.889,399.883 193.947,398.358 C192.04,397.722 190.005,396.323 189.497,395.56 C188.988,394.67 188.479,386.787 188.479,377.886 C188.479,357.033 185.555,345.208 180.596,345.081 C179.96,345.081 178.562,346.098 177.29,347.37 C175.001,349.659 174.747,349.659 168.517,346.861 C164.956,345.336 159.87,342.538 157.2,340.758 C150.461,336.181 143.849,336.435 134.313,341.394 C130.244,343.555 125.412,346.607 123.632,348.26 C121.852,349.786 118.038,352.456 114.986,354.109 C110.536,356.525 109.646,357.669 109.9,360.339 C110.281,363.137 110.917,363.518 116.385,363.9 C120.072,364.154 122.361,364.917 122.361,365.807 C122.361,366.697 123.505,369.621 124.904,372.419 C128.337,379.158 128.083,383.354 123.505,401.409 C119.436,417.303 117.91,421.245 115.495,422.898 C113.714,424.042 106.467,423.915 101.381,422.644 z" fill="#000000"/>
  </g>
</svg>
