<?xml version="1.0" encoding="UTF-8"?>
<!DOCTYPE svg PUBLIC "-//W3C//DTD SVG 1.1//EN" "http://www.w3.org/Graphics/SVG/1.1/DTD/svg11.dtd">
<svg version="1.1" xmlns="http://www.w3.org/2000/svg" xmlns:xlink="http://www.w3.org/1999/xlink" x="0" y="0" width="500" height="500" viewBox="0, 0, 500, 500">
  <g id="layer101">
    <path d="M34.925,486.852 C17.932,486.069 16.59,485.845 8.317,482.38 C0.156,478.802 -0.403,478.355 0.156,475.672 C0.492,474.107 1.274,468.517 1.945,463.263 C3.51,451.747 4.628,448.729 7.423,448.729 C11.224,448.729 12.566,445.822 11.224,440.568 C10.442,437.661 10.33,435.202 11.001,433.972 C11.56,432.966 12.007,426.593 12.007,419.997 C12.007,405.24 13.907,379.862 15.584,372.148 C16.143,369.13 16.814,361.975 16.926,356.385 L17.038,346.211 L21.845,341.069 C24.416,338.162 26.54,334.92 26.54,333.802 C26.54,332.572 28.106,329.777 29.894,327.429 C33.695,322.734 36.937,312.896 36.378,308.2 C36.155,305.853 34.813,304.511 30.453,302.387 C23.857,298.921 20.28,294.002 19.162,286.847 C18.715,283.94 17.597,280.475 16.702,279.133 C15.025,276.562 15.249,273.096 17.373,267.059 C18.044,265.27 19.162,261.581 19.833,259.01 C20.615,255.656 21.957,253.755 24.64,252.078 C27.547,250.29 29.335,247.606 32.466,240.34 C37.72,228.154 37.72,226.924 32.13,224.017 C27.994,221.893 24.304,217.086 24.304,213.732 C24.304,212.949 22.739,210.154 20.951,207.471 C14.019,197.186 14.019,182.205 21.062,162.082 C24.304,152.579 24.416,152.02 22.851,147.548 C21.957,145.089 20.839,141.511 20.392,139.611 C20.056,137.822 18.715,134.133 17.485,131.561 L15.249,126.978 L18.603,116.804 C23.186,102.718 30.677,93.103 44.987,82.93 C52.03,77.899 57.396,76.445 66.116,77.116 C74.278,77.787 79.756,75.216 80.762,70.073 C82.327,62.247 82.998,61.353 89.147,58.334 C92.5,56.657 97.196,55.204 99.655,55.204 C105.916,55.204 112.289,52.968 115.419,49.95 C116.984,48.384 119.555,42.683 121.679,36.422 C124.698,27.255 126.04,24.795 130.288,20.659 C136.437,14.734 141.02,12.721 148.622,12.721 C154.883,12.721 166.51,17.305 169.417,20.882 C170.199,21.889 173.106,27.59 175.789,33.515 C178.472,39.552 181.379,45.031 182.162,45.813 C182.944,46.596 186.41,47.714 189.764,48.384 C205.303,50.956 225.986,55.428 232.023,57.328 C235.824,58.446 243.762,66.384 246.668,71.862 C250.917,79.799 273.052,103.277 276.183,103.277 C277.189,103.277 281.102,101.712 285.015,99.923 C289.71,97.687 293.064,96.792 294.965,97.128 C296.753,97.575 300.89,96.681 305.585,94.892 C320.231,89.414 343.484,78.346 346.615,75.551 C348.292,73.986 352.316,71.415 355.558,69.849 C359.919,67.613 361.595,66.16 362.266,63.589 C365.397,52.745 368.974,51.515 376.688,58.782 C382.837,64.483 384.178,68.396 381.943,74.657 C380.825,78.011 379.371,79.688 376.688,80.806 C372.104,82.818 372.552,84.495 378.141,85.613 C383.843,86.843 389.098,84.942 394.799,79.799 C397.37,77.452 401.507,74.992 404.078,74.321 C412.016,72.197 414.028,74.098 421.742,90.979 C428.562,106.072 428.785,107.637 425.208,111.997 C421.854,115.91 416.935,117.81 411.121,117.587 C406.091,117.475 400.165,120.605 395.582,125.86 L391.892,130.108 L393.793,135.362 C396.923,144.53 399.271,148.554 401.731,148.89 C403.855,149.225 414.364,144.753 441.866,131.785 C447.455,129.102 457.741,124.406 464.784,121.164 C471.827,117.922 481.218,113.562 485.69,111.438 C490.609,109.09 494.857,107.749 496.87,107.972 L500,108.308 L499.888,116.692 C499.888,121.276 498.994,129.549 497.876,135.139 C496.534,141.399 496.087,147.325 496.422,151.238 C497.205,158.393 496.422,160.069 489.491,167.336 C484.796,172.255 484.013,172.703 480.212,172.255 C475.405,171.585 472.274,173.485 469.703,178.404 C468.026,181.534 467.579,181.758 463.554,181.087 C459.082,180.417 458.3,180.752 453.269,187.013 C451.704,188.913 450.586,189.36 448.014,188.801 C443.766,187.907 440.971,189.472 436.835,195.509 C431.804,202.776 429.121,201.993 427.444,192.602 C426.549,187.348 420.065,178.963 415.705,177.174 C411.569,175.386 409.556,176.056 368.639,192.491 L339.013,204.453 L327.274,204.565 C320.79,204.565 315.2,204.676 314.753,204.788 C313.97,205.012 316.541,212.726 321.237,223.794 C322.914,227.818 323.026,229.495 322.019,233.185 C320.901,237.209 321.237,239.11 324.479,249.507 C327.162,257.78 327.945,261.916 327.274,263.258 C326.603,264.264 322.578,266.5 318.107,268.289 C302.231,274.214 287.362,280.139 274.729,285.729 C254.718,294.449 254.159,294.561 250.134,286.512 C246.557,279.692 243.538,281.369 243.426,290.313 C243.426,292.884 242.532,293.779 237.054,296.462 C229.34,300.039 229.34,300.263 233.812,315.132 C236.495,323.628 236.83,326.535 236.271,333.69 C235.712,341.404 236.048,342.969 239.066,350.348 C241.526,356.273 242.308,359.18 241.637,361.416 C241.19,362.981 240.743,367.9 240.631,372.148 C240.52,378.744 239.849,381.204 236.495,387.8 C231.688,397.191 214.135,422.68 210.111,425.922 C204.745,430.282 209.552,436.431 218.272,436.431 C219.725,436.431 221.402,437.214 222.185,438.22 C223.079,439.114 225.315,440.568 227.327,441.462 C229.34,442.245 231.576,444.145 232.358,445.599 C233.029,446.94 235.153,449.847 236.83,451.859 C239.961,455.437 240.855,458.902 239.402,462.704 C238.954,463.71 234.818,466.281 230.234,468.405 C221.961,472.206 221.849,472.206 205.527,472.094 C189.876,471.983 188.422,471.759 169.081,466.84 L148.958,461.586 L148.622,458.232 C148.399,456.443 147.84,454.431 147.281,453.76 C146.834,453.201 146.051,448.953 145.604,444.481 C145.045,438.891 144.151,435.649 142.809,434.419 C139.343,431.065 138.784,428.27 138.896,416.867 C139.12,402.333 140.797,398.42 148.064,394.619 C156.672,390.259 159.579,386.458 161.367,376.955 C162.374,371.701 162.597,367.005 162.038,363.763 C161.591,360.968 161.591,356.608 162.262,353.925 C163.268,349.342 163.156,349.006 158.908,344.646 C148.399,333.69 133.642,325.417 125.816,325.976 C121.12,326.311 121.12,326.311 114.301,338.05 C110.5,344.534 105.804,352.248 103.904,355.267 C101.109,359.515 100.326,362.086 100.326,366.111 C100.326,373.266 98.538,376.732 93.954,378.856 C91.83,379.862 89.929,381.315 89.706,381.986 C86.24,393.948 81.433,408.482 78.861,415.078 C77.073,419.55 75.507,425.922 75.284,429.164 C75.172,432.295 73.942,437.214 72.601,439.897 C69.023,447.276 69.359,449.176 74.948,452.865 L79.644,456.108 L79.644,468.741 L79.644,481.485 L71.818,484.169 C62.092,487.411 57.508,487.746 34.925,486.852 z M436.164,156.716 C443.543,153.473 438.288,142.853 430.798,145.759 C426.438,147.325 424.872,151.685 427.22,155.262 C429.233,158.281 431.804,158.728 436.164,156.716 z M401.619,107.749 C402.066,106.407 401.172,103.053 399.495,99.252 C397.147,94.221 396.253,93.103 394.24,93.439 C389.768,94.109 389.321,96.792 392.451,103.612 C394.799,108.867 395.805,109.984 398.153,109.984 C399.942,109.984 401.172,109.202 401.619,107.749 z" fill="#000000"/>
  </g>
</svg>
