<?xml version="1.0" encoding="UTF-8"?>
<!DOCTYPE svg PUBLIC "-//W3C//DTD SVG 1.1//EN" "http://www.w3.org/Graphics/SVG/1.1/DTD/svg11.dtd">
<svg version="1.1" xmlns="http://www.w3.org/2000/svg" xmlns:xlink="http://www.w3.org/1999/xlink" x="0" y="0" width="500" height="500" viewBox="0, 0, 500, 500">
  <g id="Layer_1">
    <path d="M251.93,370.37 C227.975,364.233 191.348,354.928 170.56,349.582 L132.647,339.881 L127.5,344.336 C121.065,349.879 118.491,351.166 103.049,357.105 C94.734,360.273 90.18,361.56 89.19,360.966 C86.221,359.382 81.865,354.037 81.568,351.859 C81.469,350.572 81.271,349.285 81.271,348.889 C81.172,348.394 79.687,348.097 77.905,348.097 C75.431,348.097 73.748,347.206 70.976,344.336 C68.897,342.257 67.313,339.584 67.313,338.297 C67.313,336.12 70.481,332.556 75.332,329.091 C77.311,327.804 77.509,327.21 76.421,326.122 C75.728,325.429 60.384,319.885 42.269,313.847 L9.404,302.859 L4.752,283.655 C2.178,273.063 0,264.154 0,263.758 C0,263.362 16.333,244.949 36.23,222.776 C71.966,182.982 72.461,182.289 71.867,178.824 C71.57,176.844 70.976,171.4 70.679,166.747 L69.986,158.234 L77.113,149.424 C81.073,144.672 85.033,140.416 85.924,140.02 C86.814,139.624 108.295,134.575 133.538,128.636 L179.469,117.945 L225.599,125.765 C250.94,129.923 272.421,133.684 273.312,133.882 C274.698,134.278 274.797,134.773 273.906,137.248 C272.421,141.109 273.51,142.099 280.044,142.89 C284.696,143.385 285.488,143.88 287.765,147.246 C289.151,149.424 290.636,151.107 291.031,151.107 C291.427,151.107 294.793,149.721 298.555,148.038 L305.286,144.969 L314.294,146.652 C319.145,147.642 323.797,148.83 324.49,149.325 C325.084,149.919 325.678,151.602 325.678,153.185 C325.678,155.561 326.173,156.155 329.44,157.046 C331.42,157.541 336.864,159.026 341.517,160.313 L349.931,162.59 L350.624,168.529 C351.317,174.369 350.921,194.068 349.832,202.78 C349.337,206.838 348.941,207.432 346.664,207.729 C344.585,207.927 343.1,209.709 338.844,216.935 C335.973,221.885 333.498,226.24 333.3,226.636 C333.201,227.131 328.648,227.032 323.401,226.339 C312.314,225.052 310.83,225.547 310.83,230.893 C310.83,232.972 310.137,234.654 309.048,235.446 C305.979,237.525 304.89,240.693 304.89,247.028 L304.89,252.968 L297.268,257.125 C293.011,259.402 288.755,261.976 287.666,262.867 C285.983,264.352 285.785,264.253 284.399,262.273 C282.221,259.105 280.638,259.402 274.995,264.154 L269.947,268.311 L270.54,276.725 C271.332,287.713 270.244,289.495 256.583,298.899 C233.122,315.134 217.977,319.489 206.593,313.451 C204.613,312.362 202.138,311.471 201.148,311.471 C198.872,311.471 194.021,313.649 194.021,314.738 C194.021,315.233 194.516,315.233 195.209,314.837 C195.902,314.342 196.1,314.639 195.803,315.629 C195.407,316.42 195.704,317.113 196.298,317.113 C196.991,317.212 198.872,317.707 200.455,318.301 C202.138,318.895 223.619,324.043 248.367,329.883 C299.347,341.762 296.179,341.663 294.892,331.566 C293.308,318.895 291.823,320.677 310.632,312.956 L327.361,306.224 L349.931,261.085 C366.264,228.418 373.292,215.252 375.371,213.57 L378.341,211.194 L388.933,213.867 C394.674,215.351 400.317,217.133 401.406,217.925 C402.495,218.618 404.87,222.182 406.751,225.745 L410.216,232.18 L409.127,240.891 C408.533,245.642 407.741,250.592 407.345,251.78 C406.751,253.562 407.345,254.453 410.711,256.729 C412.889,258.214 414.67,260.095 414.769,260.788 C414.769,261.58 413.878,265.242 412.691,268.905 L410.612,275.735 L404.573,276.032 C398.535,276.329 398.436,276.428 396.753,279.992 C395.763,281.972 395.268,284.249 395.565,285.041 C395.862,285.832 402.198,287.812 412.097,289.99 L428.133,293.653 L441.497,289.594 C448.822,287.317 455.157,285.14 455.553,284.843 C456.444,284.051 470.204,240.891 470.204,238.911 C470.204,238.119 459.315,228.418 446.05,217.331 C431.004,204.759 421.501,196.147 420.808,194.464 C419.917,191.99 420.214,191.594 423.382,189.713 L426.846,187.634 L441.398,190.208 C449.317,191.594 457.434,193.277 459.315,193.771 C462.681,194.761 468.422,200.602 493.764,228.319 L500,235.149 L489.507,271.578 C483.667,291.574 478.519,308.699 478.123,309.59 C477.529,310.481 468.917,313.649 454.959,317.905 L432.786,324.637 L408.632,318.598 C389.23,313.748 384.379,312.758 383.29,313.847 C382.598,314.54 378.539,324.835 374.183,336.713 C369.828,348.691 365.967,358.689 365.472,359.085 C364.383,360.075 298.654,381.754 296.971,381.655 C296.179,381.655 275.886,376.607 251.93,370.37 z M126.807,294.841 C128.093,293.752 132.647,290.683 136.904,287.812 C141.358,284.744 144.526,281.873 144.526,280.883 C144.526,279.992 146.803,277.517 149.475,275.438 C155.019,271.182 156.504,269.103 156.108,265.935 C156.009,264.352 156.999,263.263 160.265,261.481 C165.611,258.61 169.075,255.343 169.768,252.671 C173.035,241.089 177.787,236.733 203.821,221.885 C221.243,211.986 224.708,209.61 224.708,207.828 C224.708,206.541 224.51,205.551 224.312,205.551 C224.114,205.551 218.076,204.264 210.948,202.582 C203.821,200.998 197.387,199.909 196.694,200.206 C196.001,200.404 194.12,202.879 192.536,205.551 C190.952,208.323 189.269,210.501 188.874,210.501 C188.478,210.501 185.112,209.412 181.449,208.026 C177.787,206.64 173.827,205.749 172.738,206.046 C171.649,206.343 159.077,221.885 144.229,241.287 L117.6,276.032 L119.283,285.535 C120.174,290.683 121.065,295.336 121.362,295.83 C122.154,297.117 124.332,296.721 126.807,294.841 z M70.877,285.239 C71.273,284.348 70.184,279.596 68.501,274.548 C66.027,267.123 65.631,265.242 66.719,263.956 C67.412,263.164 78.301,250.493 91.071,235.842 C108.592,215.648 113.938,208.917 113.245,207.729 C112.255,206.244 97.802,200.602 94.932,200.602 C92.952,200.602 33.36,272.964 32.865,275.933 C32.469,278.309 32.469,278.309 51.376,282.863 C69.293,287.119 70.184,287.218 70.877,285.239 z" fill="#000000"/>
  </g>
</svg>
