<?xml version="1.0" encoding="UTF-8"?>
<!DOCTYPE svg PUBLIC "-//W3C//DTD SVG 1.1//EN" "http://www.w3.org/Graphics/SVG/1.1/DTD/svg11.dtd">
<svg version="1.1" xmlns="http://www.w3.org/2000/svg" xmlns:xlink="http://www.w3.org/1999/xlink" x="0" y="0" width="500" height="500" viewBox="0, 0, 500, 500">
  <g id="Layer_1">
    <path d="M134.152,391.615 C125.556,390.182 118.154,388.75 117.676,388.511 C116.721,387.874 113.617,379.756 113.617,377.766 C113.617,376.97 114.652,374.423 116.005,372.035 C117.279,369.647 118.393,367.1 118.393,366.384 C118.393,364.792 118.313,364.792 105.658,362.563 C92.286,360.176 93.56,361.29 93.798,352.375 L94.037,344.655 L87.192,344.894 L80.347,345.132 L74.139,334.944 C65.463,320.538 37.048,273.26 35.536,270.553 C34.82,269.28 31.079,262.912 27.258,256.306 C23.438,249.779 19.14,242.377 17.787,239.989 C13.568,232.667 7.599,223.036 6.007,220.807 C4.335,218.579 3.301,210.221 0.913,179.976 C-0.201,165.092 -0.281,161.431 0.594,155.7 C1.152,151.879 1.948,148.218 2.346,147.502 C3.141,145.83 9.827,143.841 18.503,142.726 C24.711,141.93 25.348,142.01 27.895,143.602 C29.407,144.477 31.397,145.273 32.273,145.273 C34.66,145.273 36.252,147.263 37.685,152.118 C38.64,155.541 39.356,156.496 40.869,156.894 C42.699,157.371 63.155,155.222 65.463,154.267 C66.02,154.108 66.896,152.277 67.453,150.208 C68.965,144.238 69.682,142.885 71.91,142.089 C73.104,141.612 75.094,140.418 76.288,139.383 C78.039,137.871 79.87,137.314 84.725,136.916 C91.729,136.279 95.39,134.846 97.699,131.981 C99.211,129.991 99.211,129.991 97.141,126.091 C95.47,122.828 95.231,121.793 95.947,120.201 C97.062,117.813 102.793,116.142 112.423,115.426 C120.86,114.709 122.293,114.152 125.477,109.695 C126.83,107.785 128.82,106.113 129.854,105.795 C132.322,105.238 137.177,106.75 137.814,108.342 C138.052,108.979 138.689,109.297 139.167,108.979 C139.803,108.66 139.724,108.262 139.008,107.785 C137.256,106.75 142.191,105.317 145.853,105.795 C148.24,106.034 149.753,106.989 151.981,109.377 C153.653,111.128 155.006,113.117 155.006,113.754 C155.006,114.391 153.732,116.381 152.22,118.291 C147.365,124.022 146.887,126.171 150.389,126.171 C153.334,126.171 163.124,129.514 165.035,131.265 C166.865,132.857 166.945,133.414 167.024,143.443 L167.104,153.869 L171.641,153.551 C182.864,152.755 184.455,152.039 184.455,147.741 C184.455,144.875 186.206,142.249 188.753,141.134 C190.107,140.577 191.46,140.179 191.858,140.338 C192.176,140.418 192.415,139.94 192.415,139.304 C192.415,136.677 202.682,135.642 207.299,137.871 C209.846,139.065 210.88,139.065 217.009,138.189 C220.75,137.553 224.491,137.155 225.207,137.155 C225.924,137.155 226.799,136.518 227.038,135.722 C227.595,134.051 228.55,133.653 234.201,132.936 C237.305,132.538 238.977,132.777 241.763,134.051 C243.753,134.926 247.016,135.722 249.006,135.722 C252.03,135.722 252.985,135.324 254.736,133.334 C256.726,131.106 257.283,130.946 262.377,130.946 C269.143,130.946 271.849,131.901 272.486,134.448 C273.043,136.677 274.714,137.314 281.082,137.314 C285.141,137.314 286.096,136.995 288.484,134.926 C290.792,132.857 291.747,132.538 295.886,132.538 C301.776,132.538 304.482,133.573 305.438,136.12 C306.313,138.428 308.94,139.224 313.556,138.587 C323.107,137.234 326.53,137.234 329.316,138.667 C331.067,139.542 332.181,140.816 332.34,141.93 C332.499,143.124 333.056,143.681 333.932,143.522 C336.399,143.124 339.106,150.208 339.504,158.008 L339.822,164.853 L343.165,166.047 C347.463,167.559 348.1,169.708 347.622,180.613 L347.224,189.129 C346.173,190.882 342.831,190.563 332.022,190.323 C322.388,190.11 306.711,188.89 297.08,187.856 C281.878,186.264 279.251,186.184 277.421,187.139 C274.635,188.572 270.576,188.572 267.71,187.06 C266.118,186.184 260.547,185.627 248.289,184.99 C229.346,184.035 223.217,184.433 221.705,186.582 C220.193,188.652 215.815,189.288 212.711,187.776 C210.244,186.662 208.811,186.741 192.096,188.97 C182.227,190.244 173.71,191.597 173.233,191.915 C172.676,192.233 172.516,193.984 172.835,196.929 C173.392,201.864 173.233,202.023 169.492,205.207 C167.343,206.879 165.99,207.356 162.886,207.356 C159.304,207.356 158.349,207.834 153.016,211.813 L147.126,216.271 L146.887,221.046 L146.649,225.822 L143.146,227.254 C140.042,228.448 139.326,228.448 137.416,227.493 C135.744,226.618 134.789,226.618 133.516,227.254 C131.844,228.13 131.605,228.687 132.56,230.12 C133.356,231.473 139.008,233.702 142.271,234.1 C143.783,234.259 154.051,235.293 164.955,236.408 C183.739,238.318 187.639,239.114 193.37,242.059 C194.484,242.696 195.996,243.173 196.633,243.173 C197.429,243.173 197.827,243.969 197.668,245.72 L197.588,248.347 L217.964,249.859 C229.107,250.735 238.897,251.212 239.614,250.894 C240.728,250.496 240.967,249.302 240.967,244.845 L240.967,239.353 L250.279,235.93 L259.512,232.587 L268.745,237.283 L277.978,241.979 L278.455,245.322 C278.694,247.232 279.012,248.824 279.251,248.984 C279.41,249.222 283.072,251.212 287.37,253.52 C291.668,255.829 295.648,258.455 296.284,259.41 C296.841,260.286 298.513,265.061 299.946,269.837 C301.856,276.284 303.05,279.07 304.562,280.343 L306.631,282.015 C307.905,283.129 308.223,283.607 312.681,287.188 C318.809,291.486 318.889,291.884 320.322,293.476 C321.913,295.227 321.993,296.501 322.55,316.479 C322.868,330.487 322.789,337.889 322.311,338.208 C319.844,339.72 247.016,365.747 245.265,365.747 C244.071,365.747 238.022,364.712 231.654,363.359 C225.366,362.086 219.477,360.972 218.601,360.972 C217.328,360.972 216.213,362.643 213.427,368.533 C210.96,373.707 209.368,376.094 208.493,376.094 C207.776,376.094 200.692,375.06 192.813,373.786 C184.933,372.513 178.088,371.717 177.61,371.876 C177.133,372.035 175.143,375.776 173.233,380.154 C171.322,384.611 169.173,388.511 168.457,388.829 C166.467,389.944 152.14,394.401 150.947,394.321 C150.31,394.321 142.748,393.048 134.152,391.615 z" fill="#000000"/>
    <path d="M377.773,284.083 C361.952,271.955 348.935,261.94 348.787,261.769 C348.634,261.679 348.088,259.247 347.57,256.418 L346.579,251.241 L342.864,250.739 C339.308,250.249 339.154,250.158 338.885,247.187 C338.765,245.503 338.955,242.803 339.305,241.232 C339.826,239.513 339.745,238.391 339.27,238.357 C338.872,238.329 338.322,237.094 338.189,235.568 C337.932,233.555 338.662,231.133 341.193,225.806 C343.077,221.71 344.594,217.189 344.728,215.284 C344.924,212.505 345.292,211.813 347.276,210.836 C348.512,210.284 350.797,209.568 352.322,209.437 C357.555,208.769 364.053,207.153 365.402,206.131 C366.161,205.546 367.068,204.014 367.474,202.767 C367.819,201.274 368.771,200.225 369.661,200.049 C370.789,199.889 371.526,198.505 372.571,194.987 C374.268,189.043 377.277,185.984 381.252,186.185 C383.157,186.32 383.486,186.183 382.488,185.633 C381.251,185.068 381.262,184.909 383.211,183.291 C386.935,180.282 396.615,179.928 402.487,182.657 C408.125,185.289 408.443,185.311 410.007,183.507 C412.006,181.175 417.274,181.148 424.388,183.246 C430.87,185.219 432.947,186.323 432.846,187.752 C432.796,188.467 433.817,188.699 435.972,188.691 C437.73,188.656 440.423,188.925 441.994,189.276 C445.438,190.237 450.653,195.472 450.486,197.854 C450.401,199.045 451.423,200.394 453.852,202.161 C455.747,203.571 458.29,205.986 459.453,207.584 C461.503,210.202 461.617,210.848 460.9,214.228 C460.289,217.218 460.427,218.663 461.586,221.458 C462.546,223.68 463.139,227.711 463.348,232.673 C463.522,238.112 463.978,240.697 464.869,241.638 C465.913,242.669 468.357,243.081 476.864,243.522 C482.66,243.931 490.067,244.135 493.185,244.035 C498.544,243.855 499.015,243.968 499.697,245.612 C500.458,247.262 500.022,247.79 495.618,251.389 C492.74,253.738 489.078,255.874 486.799,256.511 C480.121,258.434 479.653,261.672 485.119,267.882 C489.109,272.393 489.293,275.438 485.564,278.526 C483.36,280.366 482.872,280.491 480.144,279.58 C472.112,276.938 472.276,276.87 469.66,281.154 L467.389,285.062 L463.702,284.164 C461.66,283.701 458.984,283.193 457.634,283.097 C455.257,282.85 455.257,282.85 454.23,288.362 C453.699,291.357 452.953,294.018 452.613,294.313 C451.763,295.051 409.077,306.32 407.727,306.225 C407.092,306.18 393.593,296.211 377.773,284.083 z" fill="#000000"/>
  </g>
</svg>
