<?xml version="1.0" encoding="UTF-8"?>
<!DOCTYPE svg PUBLIC "-//W3C//DTD SVG 1.1//EN" "http://www.w3.org/Graphics/SVG/1.1/DTD/svg11.dtd">
<svg version="1.1" xmlns="http://www.w3.org/2000/svg" xmlns:xlink="http://www.w3.org/1999/xlink" x="0" y="0" width="500" height="500" viewBox="0, 0, 500, 500">
  <g id="layer101">
    <path d="M53.708,408.771 C40,406.973 34.944,399.22 36.517,382.029 C37.303,372.816 36.067,368.209 28.764,352.591 C27.191,349.22 25.843,345.4 25.843,344.052 C25.843,342.816 27.865,337.76 30.449,332.816 C35.169,323.602 35.056,323.827 33.034,312.703 C32.247,308.097 38.315,298.883 44.157,296.074 C48.989,293.602 49.438,291.805 45.506,289.22 C43.933,288.209 42.247,285.512 41.685,283.153 C41.011,280.793 39.213,277.647 37.753,276.299 C34.045,272.816 33.371,269.108 35.281,264.389 C36.854,260.793 36.742,259.557 34.607,251.13 C32.022,240.793 30.449,238.434 25.618,237.423 C21.011,236.411 14.944,230.793 11.798,224.614 C10.337,221.805 8.202,218.321 6.854,216.973 C3.371,213.265 -0,207.31 -0,204.838 C0.112,198.321 8.876,185.625 16.292,181.243 C18.876,179.782 21.573,177.085 22.36,175.4 C24.494,170.232 36.517,162.142 45.056,160.119 C46.742,159.67 50.674,156.411 54.045,152.479 C61.348,143.939 62.472,138.996 59.213,129.445 L57.079,123.153 L61.236,114.838 C68.09,101.355 78.989,93.153 93.258,90.906 C104.831,88.996 110,90.793 119.326,99.67 C127.079,107.085 127.191,107.085 128.652,115.849 C130.112,124.164 131.685,127.872 133.82,127.872 C134.382,127.872 136.742,126.074 139.213,123.939 C146.18,117.535 149.888,116.524 160.786,117.76 C165.955,118.434 172.921,118.883 176.18,118.883 C182.472,118.883 185.506,120.007 189.551,123.715 C191.798,125.737 193.034,125.849 201.236,125.288 C210.112,124.726 210.674,124.501 213.933,120.793 C217.753,116.524 217.303,116.524 243.258,114.838 C255.056,114.052 260.674,115.737 263.146,120.793 C264.494,123.602 265.281,123.939 270.786,123.939 C274.157,124.052 278.764,124.389 281.011,124.951 C285.955,125.962 289.551,124.389 291.011,120.569 C292.472,116.636 297.753,114.389 307.64,113.602 C314.719,113.041 317.079,113.378 320.225,114.951 C323.595,116.636 325.955,116.861 337.079,116.299 C344.157,115.849 350.674,115.962 351.573,116.524 C353.933,117.984 352.36,124.164 346.517,135.737 C341.91,144.951 341.011,146.074 336.18,148.434 C331.236,150.793 330.899,151.243 330.562,155.737 C330.337,158.434 330.786,161.355 331.573,162.254 C333.146,164.164 347.079,164.389 359.775,162.703 C364.27,162.142 380.786,161.467 396.404,161.243 C413.933,160.906 425.393,160.232 426.067,159.557 C426.742,158.883 427.865,157.198 428.539,155.737 C429.775,153.265 430.674,153.153 443.258,152.366 C450.674,152.029 463.82,151.13 472.36,150.569 C487.079,149.445 488.315,149.557 491.124,151.58 C492.809,152.703 495.506,153.715 497.079,153.715 L500,153.715 L500,164.389 C500,175.063 500,175.063 497.191,175.063 C495.281,175.063 493.933,175.962 493.034,177.872 C491.461,181.467 491.573,181.355 465.73,182.928 C454.045,183.715 441.685,184.501 438.315,184.838 C432.697,185.4 432.135,185.175 428.989,181.805 L425.73,178.097 L412.697,178.883 C399.775,179.67 395.506,180.681 395.506,183.153 C395.506,183.827 393.258,189.108 390.449,195.063 C387.528,201.13 385.393,207.31 385.393,209.445 C385.393,213.49 382.135,217.76 379.213,217.76 C378.202,217.76 376.067,217.085 374.382,216.299 C370,214.164 323.258,215.849 319.551,218.321 C314.157,221.805 308.427,219.445 309.775,214.276 C311.124,209.333 308.764,208.771 288.652,208.771 C267.416,208.771 266.292,209.108 266.292,216.411 C266.292,221.58 265.73,222.366 260,225.512 C257.528,226.973 254.607,229.557 253.483,231.243 C251.011,235.512 245.506,238.771 238.427,240.344 C233.483,241.355 231.461,242.703 224.494,249.557 C217.978,255.962 215.618,257.647 212.921,257.647 C210.337,257.647 209.551,258.097 209.551,259.894 C209.551,263.378 216.292,266.299 222.472,265.512 C227.528,264.838 227.528,264.951 234.27,271.917 C241.798,279.782 243.595,284.389 243.708,297.198 C243.708,302.366 243.146,304.838 241.573,306.861 C240.337,308.434 239.326,310.906 239.326,312.366 C239.326,315.737 230.899,327.085 225.73,330.569 C223.258,332.254 220.899,335.512 218.876,339.782 C214.607,349.22 210.112,361.805 210.112,364.501 C210.112,369.557 222.472,377.198 230.899,377.31 C236.404,377.31 249.213,381.243 251.91,383.715 C255.056,386.524 254.607,394.726 251.236,399.22 C245.843,406.299 242.472,406.748 205.955,405.625 C176.966,404.726 173.034,404.389 168.315,402.254 C163.933,400.344 162.809,399.22 161.685,395.512 C159.888,389.445 161.685,379.67 166.854,368.434 C169.213,363.153 170.786,357.872 170.786,355.175 C170.786,352.703 171.91,346.748 173.146,341.805 C176.854,328.434 176.629,326.636 171.685,324.276 C168.989,322.928 166.629,320.681 165.169,317.872 C162.697,312.928 162.697,312.928 145.506,310.906 C139.326,310.232 133.371,309.22 132.135,308.546 C130.899,307.872 127.191,307.76 123.146,308.097 C119.326,308.546 114.831,308.883 112.921,308.883 C107.753,308.883 103.371,311.018 102.921,313.715 C102.697,314.951 101.348,322.254 100,329.894 L97.528,343.602 L100.449,348.097 C104.045,353.602 104.382,357.984 101.798,365.849 C100.337,370.232 100.112,372.591 100.899,374.838 C101.91,377.76 101.124,387.76 99.551,392.816 C99.101,393.939 96.292,397.085 93.258,399.67 C88.09,404.052 86.517,404.614 74.494,407.198 C67.191,408.658 61.011,409.782 60.674,409.782 C60.337,409.67 57.303,409.22 53.708,408.771 z M305.281,165.4 C308.202,164.838 309.438,161.58 308.427,157.198 C307.303,151.917 303.933,149.22 298.539,149.22 C295.955,149.22 292.809,148.434 291.685,147.535 C288.876,145.4 284.382,145.4 281.573,147.535 C280.337,148.434 276.966,149.22 274.045,149.22 C266.742,149.22 264.944,151.243 265.393,158.546 C265.618,163.153 266.18,164.614 268.202,165.512 C270.562,166.748 299.551,166.636 305.281,165.4 z M211.011,157.535 C212.697,157.085 212.809,153.49 211.011,151.692 C209.213,149.894 196.404,149.894 194.607,151.692 C192.921,153.378 192.921,156.299 194.607,157.984 C195.73,159.108 206.742,158.883 211.011,157.535 z" fill="#000000"/>
  </g>
</svg>
