<?xml version="1.0" encoding="UTF-8"?>
<!DOCTYPE svg PUBLIC "-//W3C//DTD SVG 1.1//EN" "http://www.w3.org/Graphics/SVG/1.1/DTD/svg11.dtd">
<svg version="1.1" xmlns="http://www.w3.org/2000/svg" xmlns:xlink="http://www.w3.org/1999/xlink" x="0" y="0" width="500" height="500" viewBox="0, 0, 500, 500">
  <g id="layer101">
    <path d="M398.042,432.495 C397.78,431.586 389.008,425.742 378.664,419.378 L359.809,407.949 L319.874,408.729 C297.877,409.248 272.868,409.898 264.096,410.287 L248.384,410.807 L242.23,406.261 C236.076,401.586 235.552,400.807 235.945,395.872 C236.207,393.794 234.635,392.495 229.267,390.417 C225.47,388.859 220.364,387.3 218.138,386.91 C215.781,386.521 210.936,384.313 207.532,381.975 C203.997,379.638 188.939,369.768 174.013,360.157 C139.184,337.69 130.935,332.235 121.377,325.352 C107.629,315.482 104.617,313.404 100.034,311.326 C97.547,310.157 92.833,307.04 89.56,304.313 C86.286,301.716 75.549,294.313 65.86,287.949 C42.816,272.884 32.21,261.975 23.83,244.703 C20.688,238.079 20.033,235.482 20.688,231.456 C21.342,227.56 21.081,226.391 19.771,226.391 C17.152,226.391 12.701,221.326 10.344,216.001 C9.427,213.534 6.547,202.365 4.321,191.066 L0,170.806 L2.75,166.391 C4.845,163.014 5.368,160.157 5.237,153.014 C4.976,146.001 5.63,142.625 7.856,138.339 L10.606,132.755 L5.499,127.69 C-0.393,121.975 -0.655,120.936 3.142,117.17 C5.499,114.832 6.809,114.573 12.832,115.352 C16.76,115.742 20.164,115.612 20.557,114.962 C20.95,114.313 27.627,111.196 35.352,108.209 C43.732,104.962 51.327,100.936 54.076,98.469 C59.314,93.793 68.479,90.027 74.764,90.027 C79.478,90.027 89.036,87.949 95.975,85.482 C107.105,81.456 129.757,74.443 131.721,74.443 C133.03,74.443 136.303,72.365 139.184,69.767 C144.552,64.962 145.207,64.832 153.98,68.209 C156.598,69.248 157.515,70.417 157.515,73.144 C157.515,76.651 156.598,77.43 147.957,80.157 C143.767,81.456 145.862,86.261 152.277,90.027 C155.551,91.845 159.479,95.482 161.05,97.949 C166.811,106.91 168.513,108.209 177.679,110.806 C182.654,112.235 188.284,114.703 190.118,116.521 C194.7,120.677 203.735,125.092 207.925,125.092 C209.758,125.092 213.817,126.391 216.828,127.949 C227.303,133.274 229.267,134.183 247.991,141.326 C258.335,145.352 270.119,149.378 274.047,150.287 C277.975,151.196 285.438,154.053 290.414,156.651 C295.52,159.118 313.72,166.781 331.004,173.664 C370.939,189.248 376.438,191.845 378.271,194.832 C379.188,196.261 385.865,201.326 393.067,206.131 C400.399,210.936 406.815,215.742 407.208,216.781 C407.601,217.819 406.684,220.027 405.113,221.716 C400.399,226.651 401.578,228.209 415.195,234.832 C422.134,238.209 432.871,243.534 439.025,246.651 C445.179,249.768 451.464,252.235 453.035,252.365 C454.606,252.365 457.487,250.936 459.582,249.248 C461.546,247.56 465.343,245.222 467.831,243.923 C470.318,242.625 475.294,238.469 478.698,234.703 C485.638,227.04 489.566,225.871 495.196,229.768 C497.684,231.586 498.077,232.755 497.684,237.3 C497.291,240.417 497.815,244.183 498.862,246.261 C501.088,250.807 500.564,252.625 492.577,265.742 C484.067,279.897 473.461,291.326 468.747,291.326 C464.295,291.326 458.534,296.391 448.714,308.858 C444.524,314.313 439.68,320.417 438.108,322.235 C436.406,324.183 435.097,326.521 435.097,327.43 C435.097,328.339 439.68,331.975 445.31,335.612 C450.809,339.248 456.963,343.664 459.058,345.612 C465.867,351.975 465.212,353.144 433.788,394.573 C417.944,415.482 404.065,433.014 402.887,433.404 C399.875,434.573 398.828,434.313 398.042,432.495 z M412.707,307.43 C416.373,302.755 416.111,301.716 411.66,301.716 C402.887,301.716 398.042,306.261 403.411,309.378 C407.077,311.586 409.826,310.936 412.707,307.43 z M401.708,267.17 C419.254,263.534 422.134,262.755 421.611,261.066 C420.825,258.599 409.041,253.534 402.494,252.884 C396.602,252.235 396.209,252.365 389.008,259.508 C384.818,263.534 381.414,267.69 381.414,268.729 C381.414,271.066 383.901,270.936 401.708,267.17 z M39.804,134.703 C41.114,134.313 43.732,130.806 45.696,126.651 C47.66,122.625 50.541,117.949 51.981,116.261 C53.945,114.183 54.207,113.014 53.029,111.845 C51.065,109.897 31.293,117.819 28.806,121.586 C25.925,126.001 25.009,131.326 26.711,134.313 C28.151,137.04 31.686,137.04 39.804,134.703 z M132.768,98.858 C132.899,97.949 133.03,95.092 133.161,92.625 C133.292,90.157 133.946,87.04 134.47,85.871 C136.303,81.975 131.721,81.586 121.246,84.962 C111.688,87.949 108.676,90.157 111.295,92.754 C112.08,93.534 114.044,93.274 116.532,91.716 C119.936,89.897 120.853,89.767 122.686,91.196 C123.864,92.105 124.781,93.923 124.781,95.092 C124.781,99.378 132.375,102.884 132.768,98.858 z" fill="#000000"/>
  </g>
</svg>
