<?xml version="1.0" encoding="UTF-8"?>
<!DOCTYPE svg PUBLIC "-//W3C//DTD SVG 1.1//EN" "http://www.w3.org/Graphics/SVG/1.1/DTD/svg11.dtd">
<svg version="1.1" xmlns="http://www.w3.org/2000/svg" xmlns:xlink="http://www.w3.org/1999/xlink" x="0" y="0" width="500" height="500" viewBox="0, 0, 500, 500">
  <g id="layer101">
    <path d="M235.578,498.584 C231.69,497.524 230.983,496.11 230.099,486.919 C228.862,475.431 229.745,466.948 232.573,463.589 C233.811,461.822 233.104,461.292 229.569,461.292 C224.09,461.292 223.56,459.701 222.676,434.604 C222.146,419.581 221.262,414.632 218.434,409.86 C215.96,405.972 214.369,399.256 213.662,390.596 C213.132,383.349 212.425,374.159 211.895,370.271 C211.188,361.61 194.221,325.909 190.156,324.495 C188.388,323.788 185.737,324.848 183.263,327.146 C177.607,332.448 164.175,358.959 160.463,372.038 C156.045,387.061 153.217,392.186 144.38,400.316 C137.487,406.679 136.073,409.507 130.241,428.595 C126.529,440.26 122.818,450.864 121.757,452.278 C120.697,453.515 119.813,459.171 119.813,464.827 C119.813,482.677 115.571,485.152 72.623,492.398 L43.108,497.347 L33.741,493.105 C22.429,487.98 19.955,485.328 19.955,477.905 C19.955,469.422 25.611,463.766 38.159,459.701 C57.777,453.162 66.438,440.083 72.27,408.623 C75.451,391.303 75.628,390.419 73.861,381.229 C72.623,375.043 72.977,373.982 78.809,367.973 C85.702,360.903 85.702,360.02 85.349,327.323 C85.349,317.425 86.056,315.835 99.311,300.282 C103.553,295.333 104.967,292.328 104.26,289.5 C103.553,287.38 103.73,284.728 104.613,283.845 C105.32,282.784 107.088,275.184 108.325,266.878 C110.976,250.441 113.804,242.664 121.227,233.12 C124.408,228.879 125.999,224.637 125.999,220.395 C125.999,214.916 126.706,213.856 129.534,213.856 C134.659,213.856 135.72,209.26 132.008,203.605 C130.241,200.954 128.297,195.298 127.766,190.879 L126.883,182.926 L107.795,180.805 C88.353,178.684 74.568,174.089 64.493,165.959 C55.833,159.243 55.126,156.062 59.721,143.513 C62.019,137.327 65.731,130.081 68.205,127.43 C70.503,124.955 74.568,119.476 77.219,115.411 C80.93,109.402 84.819,106.398 95.953,100.742 C108.678,94.379 111.33,93.672 123.348,93.672 C130.771,93.672 138.371,94.556 140.138,95.44 C144.733,97.914 162.584,95.616 163.821,92.435 C164.528,90.844 162.584,88.724 158.873,86.426 C155.515,84.482 151.98,80.77 151.096,78.119 C148.622,71.933 145.44,45.952 145.617,33.757 C145.794,24.92 146.324,23.683 153.57,16.437 C165.059,5.125 176.9,0 192.63,0 C207.653,0 212.248,1.414 222.322,9.897 C227.801,14.316 230.983,18.734 232.927,24.744 C234.517,29.516 236.992,34.288 238.406,35.348 C241.234,37.822 241.941,59.208 239.113,60.975 C237.522,61.859 230.276,75.468 230.276,77.235 C230.276,78.826 243.885,83.421 249.717,83.952 C253.075,84.305 268.275,84.835 283.298,84.835 C305.037,85.189 312.106,84.659 317.232,82.361 C325.892,78.649 343.036,78.649 348.338,82.361 C350.459,83.775 353.64,88.017 355.408,91.551 L358.412,98.091 L382.272,98.975 C395.351,99.505 407.369,100.565 408.783,101.626 C410.374,102.686 424.16,103.04 443.424,102.686 C481.6,101.979 482.484,102.333 478.419,116.118 C477.005,120.89 474.531,125.486 472.763,126.723 C467.815,130.258 466.401,131.671 463.573,135.736 C461.982,138.211 458.447,140.155 454.559,140.685 C449.257,141.569 447.136,140.862 442.187,136.62 C436.885,132.025 434.941,131.318 425.75,131.495 C415.853,131.671 415.146,132.025 413.909,136.267 C413.379,138.918 410.904,143.336 408.783,146.341 C405.602,150.759 405.249,152.173 407.016,155.531 C410.197,161.541 408.076,164.368 399.946,164.368 C393.053,164.368 385.807,159.773 385.807,155.531 C385.807,151.643 375.556,149.345 358.943,149.345 L341.622,149.345 L335.083,155.885 L328.543,162.424 L330.841,171.438 C333.315,181.335 332.608,188.405 327.129,202.721 C321.827,217.214 316.348,219.511 293.549,216.507 C285.772,215.446 284.712,214.563 278.879,205.726 C271.986,195.298 267.921,193.884 262.089,199.716 C257.847,203.958 258.908,206.786 264.74,206.786 C267.038,206.786 269.866,208.2 270.749,210.144 C271.81,211.911 275.168,216.507 278.526,220.572 C282.237,224.99 285.065,230.469 285.772,235.064 C286.302,239.129 289.307,247.083 292.135,252.738 C298.321,265.11 298.674,267.938 293.902,271.826 C291.781,273.594 289.837,278.012 289.13,281.901 C288.6,285.966 286.126,291.091 283.651,293.919 C279.233,298.691 279.233,298.691 282.944,298.691 C285.949,298.691 286.833,299.751 286.833,303.109 C286.833,305.407 288.423,310.532 290.544,314.421 C293.725,320.783 293.902,322.374 292.135,331.741 C290.898,337.75 290.544,347.825 291.074,355.248 C293.018,379.815 292.135,396.251 288.6,403.321 C284.005,412.335 283.121,465.003 287.54,477.198 C291.074,487.449 289.66,497.7 284.358,499.114 C279.233,500.528 241.057,500.175 235.578,498.584 z" fill="#000000"/>
  </g>
</svg>
