<?xml version="1.0" encoding="UTF-8"?>
<!DOCTYPE svg PUBLIC "-//W3C//DTD SVG 1.1//EN" "http://www.w3.org/Graphics/SVG/1.1/DTD/svg11.dtd">
<svg version="1.1" xmlns="http://www.w3.org/2000/svg" xmlns:xlink="http://www.w3.org/1999/xlink" x="0" y="0" width="500" height="500" viewBox="0, 0, 500, 500">
  <g id="layer101">
    <path d="M209.51,484.892 C208.271,484.129 206.65,483.748 205.507,484.129 C202.075,485.273 191.4,482.604 184.823,478.982 C179.391,476.028 178.437,475.075 177.866,472.215 C177.389,469.832 177.675,467.64 179.009,464.495 C180.534,461.159 180.725,459.634 179.962,457.632 C179.295,455.917 179.295,454.201 179.867,452.581 C180.439,451.246 180.82,449.245 180.82,448.196 C180.82,447.052 181.487,445.432 182.345,444.479 C184.061,442.573 186.444,432.755 186.539,427.513 C186.539,424.844 187.397,423.414 191.114,419.888 C197.786,413.502 203.791,401.874 204.458,394.058 C204.744,390.627 206.174,386.051 208.652,380.714 C212.464,372.803 212.464,372.517 211.797,365.464 C211.416,361.556 211.035,356.79 210.939,354.979 C210.749,350.499 209.033,350.404 202.457,354.312 C199.502,356.123 195.785,358.029 194.164,358.696 C192.639,359.268 189.97,360.221 188.35,360.889 C184.538,362.318 180.916,369.943 179.772,379.189 C179.295,382.716 178.056,387.1 177.008,388.816 C175.959,390.531 175.101,393.105 175.101,394.63 C175.006,400.349 171.861,404.924 163.378,411.5 C154.037,418.839 152.417,421.794 154.609,427.132 C156.42,431.516 156.42,432.374 154.037,437.616 C152.131,441.81 152.131,443.049 153.751,449.626 C154.132,451.151 153.942,452.771 153.179,453.629 C152.512,454.391 150.796,458.585 149.271,462.874 C146.221,471.834 144.506,473.645 138.406,474.503 C133.354,475.265 132.21,474.789 132.21,471.834 C132.21,470.595 131.352,468.879 130.304,467.926 C129.256,466.973 128.207,465.353 127.826,464.209 C127.54,463.16 126.301,461.254 125.252,460.015 C124.204,458.871 122.774,455.44 122.202,452.39 C120.868,445.909 121.916,441.715 126.491,435.996 C128.779,433.041 129.351,431.516 129.351,427.608 C129.351,421.508 130.59,418.268 134.498,414.074 C138.406,409.975 140.979,405.019 143.934,396.441 C146.031,390.341 146.126,388.816 145.554,378.236 C145.173,371.85 144.601,366.131 144.22,365.559 C143.839,364.987 144.029,360.984 144.601,356.504 C145.65,349.26 145.554,348.117 143.839,343.923 C142.695,341.349 141.456,336.488 140.884,333.057 C140.217,329.149 139.263,326.48 138.31,325.908 C137.453,325.432 134.307,323.335 131.352,321.429 C128.398,319.427 124.585,317.521 122.87,317.235 C120.201,316.663 119.248,317.044 116.579,319.618 C114.863,321.333 112.48,324.86 111.241,327.624 C110.097,330.388 107.333,336.202 105.141,340.682 C101.424,348.307 101.233,349.26 101.329,356.885 C101.329,361.365 101.71,366.322 102.091,367.847 C102.377,369.467 103.235,372.993 103.807,375.758 C104.379,378.522 105.427,381.19 106.19,381.762 C106.857,382.334 107.429,383.383 107.429,384.05 C107.429,384.717 108.572,387.481 109.907,390.055 C111.718,393.581 112.194,395.583 111.718,397.68 C110.955,401.492 106.19,405.877 103.711,405.21 C102.568,404.924 101.71,405.21 101.71,405.686 C101.71,406.353 99.899,406.544 97.23,406.258 C93.513,405.877 84.839,402.35 74.831,397.203 C73.974,396.822 75.403,401.683 76.928,404.638 C77.595,405.877 80.074,409.022 82.361,411.596 C86.555,416.361 89.319,420.936 90.749,425.511 C91.13,426.846 92.75,429.324 94.18,431.04 C96.372,433.518 96.849,434.757 96.372,436.758 C95.514,440.285 94.943,440.762 90.558,441.715 C83.505,443.335 56.626,434.185 55.578,429.801 C55.292,428.752 54.815,425.225 54.434,421.889 C54.053,418.649 53.386,415.694 53.005,415.408 C52.528,415.122 52.147,413.216 52.147,411.214 C52.147,409.117 51.289,405.114 50.24,402.35 C48.144,396.822 48.144,394.153 50.145,391.77 C54.148,386.909 49.001,366.512 38.231,344.781 C35.371,339.157 34.895,337.156 35.276,333.82 C36.039,327.529 37.468,321.81 38.612,320.38 C39.184,319.713 40.328,316.568 40.995,313.422 C41.757,310.277 43.092,306.369 43.95,304.558 C45.761,301.127 45.57,295.408 42.901,277.298 C42.139,272.056 41.186,263.287 40.709,257.759 C40.232,252.231 39.375,246.036 38.898,243.939 C38.326,241.842 37.85,238.792 37.85,237.076 C37.85,232.31 41.948,224.399 46.809,219.634 C51.67,214.963 51.956,213.915 49.478,208.005 C48.429,205.718 47.858,203.335 48.144,202.572 C49.001,200.19 43.568,201.81 13.354,213.152 C4.871,216.298 1.249,216.202 0.201,212.866 C-0.276,211.532 0.105,210.293 1.249,209.149 C2.298,208.196 11.352,204.193 21.551,200.094 C51.67,188.18 53.005,187.703 67.873,181.699 C91.225,172.358 100.947,168.259 102.282,167.116 C104.283,165.4 103.902,163.494 100.757,159.872 C97.516,156.155 97.325,154.248 99.327,144.812 C101.329,135.186 102.377,131.945 104.093,130.039 C105.999,127.942 109.24,118.601 108.668,117.076 C108.477,116.409 106.952,115.456 105.427,114.884 C101.805,113.645 101.805,110.976 105.618,105.066 C108.096,101.254 108.477,99.919 107.905,97.346 C106.476,91.055 106.857,84.574 108.763,82.477 C109.812,81.333 111.241,80.475 112.099,80.475 C112.957,80.475 116.579,78.95 120.201,77.139 C123.918,75.329 127.826,73.804 128.97,73.804 C130.113,73.804 132.02,73.041 133.163,72.088 C135.165,70.468 135.165,70.277 134.021,60.841 C132.973,51.786 133.068,50.928 134.974,45.114 C136.213,41.778 138.215,37.87 139.549,36.536 C142.695,33.105 153.846,28.148 159.661,27.386 C163.664,26.909 164.522,27.195 165.665,28.72 C166.428,29.769 168.811,31.579 170.908,32.628 C178.533,36.536 183.203,45.495 180.916,51.977 C180.344,53.692 179.867,57.124 179.867,59.602 C179.867,65.321 178.247,68.943 175.387,69.61 C171.194,70.658 173.005,72.564 178.723,73.136 C185.395,73.708 189.494,75.614 192.258,79.522 C193.878,81.81 194.545,85.146 195.785,96.393 C196.833,106.306 197.786,111.262 198.93,112.882 C199.788,114.217 201.503,117.267 202.552,119.84 C203.696,122.318 205.125,124.606 205.793,124.796 C207.127,125.368 217.04,121.937 232.29,115.742 C240.201,112.501 304.728,86.957 323.219,79.808 C328.175,77.807 330.272,76.472 331.607,74.185 C333.799,70.372 335.419,69.8 340.566,70.563 C344.093,71.039 346.476,70.468 357.818,65.892 C365.062,63.033 373.449,59.697 376.5,58.553 C380.312,57.028 382.409,55.599 383.362,53.788 C385.078,50.547 386.412,49.975 393.37,49.975 C399.947,49.975 412.147,45.495 417.008,41.206 C418.724,39.776 420.725,38.537 421.583,38.537 C424.728,38.537 433.974,32.819 435.975,29.578 C438.549,25.575 441.885,24.717 451.226,25.479 C459.327,26.051 462.854,24.908 463.616,21.286 C463.902,19.761 464.665,18.14 465.237,17.759 C466.19,17.187 488.493,14.709 496.309,14.328 C503.743,14.042 500.312,17.95 482.679,29.959 C481.535,30.722 479.152,32.533 477.437,33.962 C473.91,37.012 472.385,37.203 469.24,35.201 C465.904,33.009 463.235,34.534 457.421,41.683 C451.988,48.45 447.985,50.642 443.029,49.498 C440.741,49.022 439.978,49.403 438.168,51.881 C436.928,53.597 433.878,55.789 430.828,57.124 C427.492,58.649 425.395,60.174 425.11,61.413 C424.442,63.986 420.153,66.178 415.864,66.178 C413.958,66.178 411.956,66.846 411.289,67.703 C407.191,72.66 406.714,72.946 404.522,71.802 C403.378,71.135 402.044,70.086 401.662,69.419 C400.328,67.132 398.136,67.894 398.04,70.753 C397.945,72.183 397.85,96.488 397.754,124.701 C397.659,160.825 397.373,176.171 396.611,176.456 C396.039,176.647 393.847,174.36 391.75,171.31 C389.653,168.259 384.506,160.825 380.312,154.725 C376.023,148.625 371.638,141.762 370.399,139.475 C369.256,137.187 366.11,132.04 363.346,128.132 C360.677,124.225 355.626,116.885 352.194,111.929 C332.941,83.811 334.943,85.622 326.841,88.958 C321.789,91.055 270.701,111.357 246.11,120.984 C237.246,124.51 227.524,128.323 224.665,129.562 C221.805,130.801 217.993,132.326 216.277,132.993 C211.13,134.9 210.368,136.139 211.035,141.762 C211.321,144.431 212.179,147.862 212.941,149.387 C213.608,150.817 214.18,153.391 214.085,155.106 C213.894,156.727 214.371,159.681 215.038,161.492 C216.086,164.352 216.086,165.4 214.752,168.545 C213.894,170.547 213.227,172.549 213.227,173.025 C213.227,174.455 216.563,173.978 221.233,171.881 C226.571,169.594 228.573,170.07 231.908,174.455 C234.959,178.458 237.723,178.649 244.966,175.408 C252.21,172.263 267.27,169.689 273.561,170.547 C283.378,171.881 286.333,171.5 292.242,167.783 C298.819,163.78 303.203,163.398 309.685,166.258 C311.972,167.211 315.689,168.355 317.882,168.736 C321.789,169.308 321.98,169.213 326.46,164.352 C329.033,161.588 331.511,159.586 331.988,159.872 C332.465,160.158 332.941,167.878 333.036,177.124 C333.227,195.424 333.799,197.425 340.28,205.527 C342.854,208.768 343.235,210.102 344.093,219.252 C344.855,227.449 344.76,229.832 343.712,231.453 C343.044,232.596 342.187,237.743 341.805,242.985 C341.424,248.228 340.852,253.851 340.471,255.472 C339.994,257.569 340.28,259.284 341.424,260.904 C342.568,262.715 342.949,265.48 342.854,272.723 C342.758,277.87 343.044,287.02 343.426,293.121 C343.807,299.125 343.807,305.702 343.426,307.513 C341.901,315.615 333.132,323.907 326.174,323.716 C313.878,323.335 309.589,322.382 305.3,319.141 C301.773,316.472 300.534,314.661 298.152,308.466 C295.102,300.46 293.195,290.928 293.481,284.638 C293.577,281.683 292.814,279.681 290.241,275.678 C288.334,272.914 285.38,267.672 283.473,263.955 C278.993,254.995 272.703,248.228 268.795,248.228 C264.315,248.228 263.267,250.325 263.553,258.426 C263.648,262.334 264.315,266.433 264.887,267.576 C265.554,268.72 266.317,271.866 266.698,274.439 C266.984,277.108 267.842,282.636 268.509,286.735 C269.748,295.503 269.462,298.172 265.554,309.229 C261.932,319.427 259.454,324.955 256.499,329.34 C255.26,331.151 253.545,335.726 252.878,339.348 C250.781,349.928 247.635,357.076 239.152,371.087 C235.149,377.664 232.48,385.098 231.813,391.675 C231.623,393.295 231.432,394.82 231.432,395.106 C231.337,395.392 228.287,398.824 224.474,402.731 C215.991,411.596 211.988,419.507 210.272,430.849 C209.319,437.521 209.319,439.904 210.368,443.907 C211.035,446.671 211.607,451.341 211.511,454.391 C211.321,459.538 211.607,460.11 215.038,463.923 C217.04,466.21 219.422,470.118 220.376,472.978 L221.996,478.029 L219.613,481.079 C216.468,485.178 212.179,486.798 209.51,484.892 z M75.117,377.473 C74.355,367.942 74.545,362.414 75.785,358.506 C76.547,355.742 76.928,352.406 76.547,350.118 C75.785,345.257 78.263,339.729 81.313,339.729 C86.46,339.729 91.035,327.338 89.319,317.902 C88.747,314.757 88.557,310.563 88.938,308.371 C89.414,305.321 89.224,304.368 88.08,303.891 C85.507,302.938 82.933,305.225 81.408,309.705 C80.55,311.993 78.835,315.329 77.595,317.044 C76.261,318.76 74.355,321.905 73.306,324.002 C72.258,326.099 69.684,329.435 67.492,331.341 C64.823,333.724 63.584,335.63 63.584,337.251 C63.394,341.254 63.012,343.351 62.25,355.932 C61.773,363.653 61.964,364.987 65.395,378.331 C65.777,379.951 67.206,383.097 68.445,385.289 L70.733,389.197 L73.02,384.336 C74.259,381.572 75.213,378.522 75.117,377.473 z" fill="#000000"/>
  </g>
</svg>
