<?xml version="1.0" encoding="UTF-8"?>
<!DOCTYPE svg PUBLIC "-//W3C//DTD SVG 1.1//EN" "http://www.w3.org/Graphics/SVG/1.1/DTD/svg11.dtd">
<svg version="1.1" xmlns="http://www.w3.org/2000/svg" xmlns:xlink="http://www.w3.org/1999/xlink" x="0" y="0" width="500" height="500" viewBox="0, 0, 500, 500">
  <g id="Layer_1">
    <path d="M326.234,497.954 C302.149,495.907 294.121,494.018 291.603,489.296 C289.399,485.203 289.714,479.536 292.39,476.073 C295.538,471.823 295.381,463.794 291.917,459.229 C287.51,453.405 264.055,413.579 261.851,407.912 C260.749,405.078 256.027,397.05 251.304,389.966 C246.582,382.882 242.804,375.956 242.804,374.382 C242.804,368.715 235.09,358.64 218.876,343.056 L202.033,326.842 L191.171,326.213 C181.096,325.583 179.995,325.898 173.698,330.305 C170.077,332.982 166.772,336.13 166.142,337.547 C165.67,338.806 157.956,345.89 148.984,353.288 C140.011,360.687 132.612,367.456 132.455,368.558 C132.455,369.66 132.455,374.067 132.612,378.632 C132.77,383.197 131.353,392.17 129.621,398.781 C126.473,410.115 126.473,411.532 128.52,428.376 C130.094,441.284 130.409,451.673 129.464,467.257 C128.677,478.906 128.047,488.666 128.047,488.666 C126.631,490.87 111.361,492.759 76.887,494.963 L34.542,497.639 L30.764,493.389 C27.458,489.453 27.301,488.194 28.245,477.017 C28.718,470.406 29.82,463.637 30.607,462.063 C32.496,458.285 46.821,451.673 56.58,450.099 C75.313,446.951 77.989,442.858 73.109,426.014 C71.377,419.718 69.331,408.226 68.859,400.356 C67.914,386.975 66.812,382.882 61.775,375.012 C59.886,372.021 60.988,367.298 71.063,334.083 C77.359,313.305 83.813,292.526 85.388,287.803 C86.962,283.081 89.008,270.33 89.795,259.468 C91.369,241.838 91.212,239.476 88.851,237.273 C87.434,235.856 77.359,228.457 66.498,220.901 C44.932,205.947 41.468,201.382 41.468,188.631 C41.311,178.871 45.089,171.788 60.673,151.166 C69.803,139.36 78.304,125.665 86.175,110.08 L98.138,86.625 L107.111,85.523 C136.705,81.903 160.318,67.421 151.345,58.448 C148.354,55.457 149.141,46.484 153.549,37.039 C156.382,30.585 161.105,24.603 169.133,16.89 C178.578,7.917 182.356,5.399 190.699,2.88 C206.44,-2.157 224.701,-0.426 233.044,6.815 L237.294,10.436 L236.822,32.159 C236.664,44.123 236.822,54.985 237.294,56.559 C238.081,58.763 251.619,68.05 257.758,70.412 C258.703,70.726 264.999,74.662 271.926,79.227 C304.511,100.635 336.309,110.71 342.605,101.737 C344.809,98.746 344.809,97.802 342.763,94.811 C341.346,92.607 341.031,90.876 341.976,90.246 C342.92,89.774 343.55,85.996 343.55,82.06 C343.55,75.134 344.022,74.504 355.513,63.643 C362.125,57.503 368.422,51.994 369.524,51.364 C373.144,49.16 401.007,45.382 405.887,46.327 C412.813,47.586 416.591,45.068 422.888,35.308 C431.231,22.4 438.787,21.613 443.509,33.261 C447.287,42.706 456.102,54.04 462.556,57.818 C469.168,61.754 473.261,70.412 471.687,77.18 C471.214,79.857 467.909,85.051 464.445,88.829 C458.621,95.126 458.306,95.913 459.251,102.524 C460.353,109.293 460.038,109.766 454.686,113.858 C449.648,117.636 449.019,118.896 449.019,125.507 C448.861,129.443 447.917,134.48 446.657,136.684 C443.667,142.036 443.667,148.018 447.13,153.842 C450.435,159.824 449.019,162.815 440.361,167.695 C429.814,173.519 407.776,175.093 400.534,170.371 C398.173,168.797 395.497,166.593 394.553,165.176 C392.979,163.13 392.191,163.287 388.413,166.278 C385.423,168.639 381.802,169.741 377.237,169.741 C371.57,169.741 369.366,170.686 365.273,174.464 C362.44,177.14 355.986,181.862 350.948,185.01 C343.078,189.733 339.457,190.835 328.753,191.937 C310.965,193.668 301.048,195.715 298.371,198.391 C296.325,200.437 296.955,206.262 302.464,245.301 C309.391,293.785 310.178,303.545 306.715,303.545 C303.251,303.545 296.325,309.841 296.325,312.99 C296.325,319.129 304.353,333.139 308.918,335.028 C311.909,336.287 314.428,339.278 316.632,344.473 C318.521,348.723 319.937,352.816 319.937,353.603 C319.937,354.548 322.141,357.066 324.66,359.113 C327.651,361.789 329.382,364.622 329.382,367.298 C329.382,369.974 331.586,373.752 335.679,377.845 C342.763,385.086 342.448,384.614 345.911,402.717 C347.643,412.634 349.532,417.986 353.31,423.181 C356.458,427.589 359.606,435.459 361.81,444.432 C363.857,452.146 365.273,458.442 365.116,458.6 C364.958,458.6 363.384,459.387 361.653,460.331 C357.717,462.692 358.19,467.1 363.384,477.647 C365.746,482.369 367.162,487.564 366.847,490.24 C366.375,494.176 365.273,495.12 358.504,497.481 C354.254,498.898 350.319,500 349.847,500 C349.374,499.843 338.827,499.056 326.234,497.954 z" fill="#000000"/>
  </g>
</svg>
