<?xml version="1.0" encoding="UTF-8"?>
<!DOCTYPE svg PUBLIC "-//W3C//DTD SVG 1.1//EN" "http://www.w3.org/Graphics/SVG/1.1/DTD/svg11.dtd">
<svg version="1.1" xmlns="http://www.w3.org/2000/svg" xmlns:xlink="http://www.w3.org/1999/xlink" x="0" y="0" width="500" height="500" viewBox="0, 0, 500, 500">
  <g id="layer101">
    <path d="M370.598,492.761 C344.45,483.744 341.294,482.166 324.387,468.641 C288.095,440.013 255.185,396.733 235.123,351.199 C226.557,331.362 222.499,329.334 215.511,341.055 C211.905,347.142 211.003,353.002 210.778,376.897 C210.327,409.357 208.749,416.57 199.281,429.644 C195.675,434.603 190.715,446.325 188.236,455.342 C185.756,464.358 183.277,472.022 183.051,472.248 C182.6,472.473 176.74,474.953 169.977,477.883 C151.268,485.773 127.373,484.42 118.808,474.953 C114.75,470.67 114.299,468.416 115.877,457.37 C116.779,450.382 120.611,439.562 124.668,432.574 C132.558,418.599 133.234,414.316 128.275,410.258 C123.316,406.201 124.218,395.381 130.529,376.446 C133.685,367.429 136.165,355.257 136.165,349.621 C136.165,333.842 139.771,328.883 156.001,320.768 C156.452,320.768 159.157,314.682 162.088,307.243 C167.047,295.07 167.272,293.718 163.891,288.533 C161.862,285.377 156.903,279.742 152.845,275.91 C142.927,266.668 143.153,261.032 154.198,244.577 C159.157,237.138 163.215,228.798 163.215,226.093 C163.215,223.162 165.694,219.33 169.075,217.302 C173.358,214.371 174.485,211.892 174.035,206.482 C173.584,201.973 172.006,199.268 169.526,198.817 C166.37,198.141 164.793,200.621 162.764,208.736 C160.284,217.978 158.255,220.457 148.112,226.995 C131.431,237.589 120.385,252.692 120.385,265.09 C120.385,275.234 114.074,292.591 108.889,296.648 C107.086,298.226 102.127,300.029 97.844,300.931 C93.335,302.058 91.307,303.185 93.335,303.862 C104.155,307.243 107.988,318.739 100.774,325.051 C93.335,331.588 81.614,336.322 75.528,335.194 C56.818,331.362 32.473,318.739 32.473,312.653 C32.473,308.37 46.674,278.164 50.957,273.656 C53.211,270.951 56.367,264.865 57.72,260.131 C58.847,255.397 62.904,247.282 66.285,242.323 C69.667,237.364 77.105,224.966 83.192,214.597 L93.786,196.112 L89.729,190.252 C81.163,178.305 75.302,167.935 75.302,164.329 C75.302,162.075 78.458,154.636 82.065,147.648 C85.897,140.66 88.827,133.672 88.827,132.094 C88.827,130.742 91.758,123.528 95.364,115.864 C102.803,100.085 124.218,77.543 134.136,75.515 C143.153,73.486 145.858,69.203 144.28,59.285 C141.349,41.927 153.973,27.952 174.936,25.021 C182.15,24.12 190.039,21.415 193.646,18.484 C197.027,15.779 200.859,13.525 202.212,13.525 C203.339,13.525 207.847,10.369 212.13,6.763 L219.794,0 L263.3,0 C304.776,0 307.03,0.225 311.088,4.734 C313.342,7.439 317.625,10.369 320.555,11.496 C323.26,12.623 326.642,16.005 327.769,19.16 C330.699,26.825 334.982,28.177 346.704,24.796 C364.061,20.062 379.389,28.853 387.504,48.239 C392.012,58.608 390.66,68.977 383.672,77.769 L378.938,83.855 L383.897,89.716 C386.377,93.097 391.336,100.31 394.492,105.946 C405.537,124.43 406.665,126.233 408.693,126.233 C409.595,126.233 415.005,123.303 420.415,119.471 C425.825,115.864 432.137,112.708 434.165,112.708 C441.829,112.708 449.494,117.893 451.522,124.881 C457.383,143.816 467.527,233.982 467.527,267.119 C467.527,322.12 452.875,396.733 434.165,437.308 C430.333,445.423 427.854,455.342 427.177,466.612 C425.825,483.293 425.6,483.519 417.935,487.351 C413.652,489.605 408.468,493.437 406.214,495.917 C401.255,502.003 395.845,501.552 370.598,492.761 z M253.381,317.837 C256.312,316.034 256.312,315.583 253.156,315.583 C251.127,315.583 246.844,313.554 243.688,311.075 C236.475,305.214 235.348,305.439 235.348,311.977 C235.348,319.415 245.717,322.797 253.381,317.837 z" fill="#000000"/>
  </g>
</svg>
