<?xml version="1.0" encoding="UTF-8"?>
<!DOCTYPE svg PUBLIC "-//W3C//DTD SVG 1.1//EN" "http://www.w3.org/Graphics/SVG/1.1/DTD/svg11.dtd">
<svg version="1.1" xmlns="http://www.w3.org/2000/svg" xmlns:xlink="http://www.w3.org/1999/xlink" x="0" y="0" width="500" height="500" viewBox="0, 0, 500, 500">
  <g id="layer102">
    <path d="M225.559,498.904 C225.97,498.267 227.108,497.402 228.019,496.991 C234.577,494.168 237.4,493.439 239.723,493.986 C242,494.487 242.273,494.35 243.002,492.073 C243.548,490.434 239.267,490.661 277.704,489.978 L308.353,489.432 L309.31,487.337 C310.585,484.468 310.494,479.185 309.173,478.228 C308.49,477.773 308.263,477.09 308.263,475.496 C308.217,472.308 307.078,470.487 303.708,468.255 C302.069,467.208 299.792,465.887 298.608,465.386 C297.469,464.885 296.057,463.974 295.511,463.382 L294.509,462.289 L295.374,461.014 C295.875,460.331 296.467,458.919 296.695,457.917 C297.241,455.23 297.105,449.446 296.467,448.172 C296.148,447.579 295.875,446.259 295.875,445.257 C295.921,443.936 295.602,443.025 294.782,442.069 C293.552,440.612 293.461,440.02 294.19,438.425 C294.6,437.515 294.555,437.059 293.917,436.149 C293.507,435.511 292.869,435.101 292.551,435.192 C292.095,435.374 291.822,434.919 291.594,433.689 C291.412,432.733 290.775,430.957 290.137,429.727 C289.226,427.997 288.998,426.904 289.044,424.854 C289.089,423.078 288.816,421.347 288.179,419.799 C287.678,418.524 287.45,417.294 287.632,417.112 C287.86,416.885 289.909,417.659 292.232,418.752 C294.555,419.89 296.558,420.801 296.649,420.801 C296.786,420.801 297.97,421.302 299.382,421.94 C302.888,423.579 310.631,426.129 314.547,426.949 C322.061,428.498 326.388,427.541 332.171,422.987 C336.452,419.617 345.196,410.782 350.616,404.406 C355.534,398.577 364.597,389.696 365.371,389.97 C365.735,390.106 367.602,390.379 369.47,390.562 C373.341,390.926 375.208,390.379 376.119,388.695 C376.437,388.148 377.121,387.419 377.713,387.1 C380.036,385.871 381.584,380.816 380.172,379.085 C379.307,378.038 380.126,376.262 383.724,370.933 C388.278,364.376 391.329,361.233 399.527,354.903 C410.73,346.205 412.643,343.928 418.836,331.996 C420.567,328.626 422.707,324.527 423.573,322.887 C424.438,321.248 425.577,318.698 426.169,317.195 C428.901,310.045 430.723,306.037 431.816,304.671 C433.046,303.077 435.368,301.984 441.243,300.117 C452.036,296.747 457.455,293.422 462.738,287.047 C466.974,281.9 468.249,279.942 472.438,271.699 C476.401,263.957 478.268,258.902 479.907,251.388 C480.135,250.249 480.773,247.608 481.273,245.467 C482.594,240.139 484.279,228.936 485.418,218.142 C485.691,215.774 486.192,211.994 486.556,209.718 C486.921,207.486 487.558,202.75 487.923,199.243 C488.332,195.736 488.833,192.047 489.061,191.046 C489.289,190.043 489.516,187.721 489.516,185.854 C489.516,182.575 489.471,182.484 487.786,180.753 C486.829,179.797 485.418,178.886 484.689,178.749 C483.96,178.567 482.594,178.066 481.638,177.565 C480.636,177.11 479.497,176.7 479.042,176.7 C478.541,176.7 478.085,176.518 477.904,176.29 C477.493,175.607 472.712,173.922 470.389,173.649 C469.25,173.512 466.974,173.375 465.334,173.33 C463.194,173.284 462.055,173.057 461.463,172.51 C460.917,172.055 459.459,171.691 457.638,171.554 C455.998,171.417 451.398,170.871 447.391,170.37 C443.383,169.869 434.776,169.277 428.263,168.958 C421.751,168.685 412.005,168.275 406.631,168.047 C401.257,167.774 389.69,167.364 380.901,167.136 C335.268,165.861 317.553,165.041 303.663,163.493 C301.522,163.22 298.516,163.038 296.968,163.038 C293.871,163.038 293.416,162.673 292.323,159.258 C291.959,158.028 291.093,157.026 289.317,155.705 C287.951,154.704 286.858,153.611 286.858,153.292 C286.858,152.563 283.716,150.924 281.484,150.468 C280.027,150.195 279.435,148.874 280.482,148.237 C281.165,147.827 281.029,144.912 280.255,143.728 C279.617,142.772 279.617,142.316 280.209,139.766 C280.937,136.578 280.801,135.895 279.526,135.576 C279.025,135.44 278.661,134.939 278.661,134.438 C278.661,133.891 278.478,133.345 278.205,133.208 C277.977,133.072 277.795,132.115 277.841,131.113 C277.886,129.884 277.613,129.018 276.976,128.29 C276.475,127.743 275.29,125.557 274.38,123.417 C271.693,117.36 271.283,116.586 270.645,116.586 C270.053,116.586 270.372,114.309 271.283,112.669 C271.693,111.895 271.556,111.439 270.645,110.073 C269.279,108.024 268.095,107.386 266.592,107.75 C265.089,108.115 263.404,106.976 262.949,105.337 C262.539,103.606 261.901,102.923 260.672,102.923 C260.125,102.923 258.85,102.103 257.803,101.147 C255.617,99.052 253.476,98.415 252.292,99.462 C251.837,99.872 251.154,100.191 250.789,100.191 C249.605,100.191 247.328,98.688 246.827,97.595 C246.554,97.003 246.053,96.547 245.689,96.547 C245.325,96.547 244.277,96.138 243.275,95.682 C242.319,95.181 240.77,94.498 239.859,94.088 C238.949,93.678 237.765,92.813 237.309,92.221 C236.626,91.356 235.988,91.082 234.531,91.082 C233.484,91.082 232.664,90.855 232.664,90.627 C232.664,90.354 232.299,89.99 231.89,89.853 C229.704,89.033 226.743,86.847 226.743,86.027 C226.743,85.344 226.425,85.162 224.967,85.162 C223.966,85.162 222.963,84.889 222.645,84.479 C222.326,84.115 221.825,83.796 221.552,83.796 C221.233,83.796 219.912,82.748 218.546,81.519 C217.18,80.244 215.768,79.242 215.358,79.242 C214.447,79.242 210.212,76.646 207.98,74.688 C206.296,73.276 206.25,73.139 206.25,70.179 C206.25,66.126 204.884,61.299 203.244,59.613 C202.561,58.885 201.149,57.928 200.147,57.473 C195.457,55.424 194.637,54.877 194.637,53.784 C194.637,52.873 194.956,52.555 196.14,52.281 C197.552,51.917 197.643,51.78 197.369,50.46 L197.051,49.093 L198.872,49.412 C200.011,49.594 200.785,49.503 201.013,49.23 C201.149,48.957 201.741,48.729 202.333,48.729 C203.518,48.729 204.702,47.591 204.975,46.224 C205.066,45.587 205.43,45.359 206.068,45.45 C206.569,45.496 207.935,45.04 209.028,44.448 C210.759,43.446 211.032,43.082 211.032,41.807 C211.032,40.668 211.259,40.304 211.943,40.168 C213.947,39.894 217.726,37.572 218.41,36.251 C218.774,35.522 220.413,33.564 222.007,31.97 C223.92,30.057 224.922,28.645 224.922,27.962 C224.922,27.006 225.97,25.594 228.93,22.497 C229.613,21.769 229.886,20.994 229.84,19.947 C229.704,18.717 229.886,18.444 230.842,18.217 C233.256,17.716 238.584,12.16 238.584,10.11 C238.584,9.427 235.67,9.518 230.615,10.474 C229.112,10.748 226.743,11.158 225.378,11.385 C224.011,11.613 221.962,11.977 220.823,12.25 C219.685,12.478 218.182,12.842 217.407,12.979 C215.859,13.298 213.719,13.753 209.438,14.755 C204.975,15.757 201.104,16.395 199.601,16.395 C198.827,16.395 198.052,16.577 197.779,16.85 C197.552,17.078 191.768,17.351 183.935,17.442 C176.557,17.533 169.544,17.806 168.314,18.08 C165.764,18.626 164.853,19.628 164.808,21.951 C164.808,23.363 165.081,23.818 166.629,25.048 C169.088,27.006 168.997,28.008 166.037,31.196 C163.305,34.11 162.804,34.11 160.937,31.424 C160.026,30.148 159.616,28.737 159.342,26.55 C158.841,22.042 158.341,21.086 156.291,20.539 C152.101,19.355 149.825,20.129 147.593,23.408 C146.409,25.23 146.181,25.913 146.409,27.142 C146.637,28.418 146.454,29.01 145.407,30.421 C143.677,32.744 143.403,32.835 141.946,31.97 C141.081,31.469 140.489,30.604 140.17,29.465 C139.395,26.55 139.76,25.412 141.764,24.365 C143.677,23.363 145.999,19.765 145.544,18.49 C144.997,17.124 141.9,16.076 136.8,15.484 C131.153,14.846 127.555,13.981 120.632,11.704 C112.617,9.017 107.243,6.74 103.509,4.326 C102.143,3.461 100.64,2.733 100.139,2.733 C99.683,2.733 99.137,2.55 99,2.277 C98.864,2.049 98.363,1.822 97.953,1.822 C97.498,1.822 96.815,1.412 96.359,0.911 C95.949,0.41 95.039,-0 94.355,-0 C93.08,-0 93.08,-0 92.943,3.598 C92.807,6.877 92.898,7.286 93.991,8.562 C94.628,9.29 95.129,10.429 95.129,11.021 C95.129,12.16 97.042,17.488 97.816,18.399 C98.044,18.672 98.226,19.628 98.18,20.493 C98.135,21.905 98.909,23.955 100.913,27.553 C101.187,28.053 101.687,29.329 101.96,30.33 C102.279,31.378 103.236,33.109 104.055,34.156 C104.921,35.249 105.604,36.342 105.604,36.661 C105.604,36.98 104.511,37.663 103.236,38.209 C101.915,38.756 100.321,39.803 99.729,40.577 L98.591,41.989 L92.943,41.67 L87.296,41.352 L85.566,42.763 C84.609,43.537 83.334,44.175 82.788,44.175 C81.604,44.175 77.824,46.27 77.824,46.908 C77.824,47.135 76.776,47.864 75.547,48.501 C74.135,49.23 73.088,50.141 72.814,50.779 C72.404,51.826 72.177,51.917 69.171,51.917 C66.348,51.917 65.846,52.054 64.981,53.056 C64.435,53.693 63.706,54.194 63.296,54.194 C62.157,54.194 58.697,56.061 58.697,56.699 C58.697,57.883 56.647,57.61 53.505,56.107 C48.95,53.83 46.901,54.103 37.52,58.293 C36.518,58.748 34.559,59.477 33.193,59.932 C29.368,61.162 27.637,62.437 26.134,65.17 C24.905,67.492 24.814,67.902 24.859,72.638 C24.905,78.559 25.634,82.02 27.91,86.574 C31.281,93.268 31.326,93.314 42.621,93.861 C55.645,94.498 57.558,94.179 59.607,90.9 C60.336,89.671 60.882,89.261 61.839,89.261 C63.16,89.261 66.666,90.763 67.121,91.538 C67.532,92.175 66.529,93.359 65.573,93.359 C65.163,93.359 64.07,94.179 63.114,95.181 C62.066,96.32 61.019,97.003 60.336,97.003 C59.152,97.003 55.417,98.551 54.506,99.417 C53.733,100.145 46.993,103.379 46.218,103.379 C44.715,103.379 42.939,107.022 42.621,110.665 C42.256,114.809 44.214,121.777 46.218,123.462 C46.719,123.872 46.856,124.737 46.81,126.559 C46.765,127.971 46.993,130.977 47.266,133.208 C47.539,135.485 47.766,138.855 47.766,140.768 C47.766,142.681 48.085,145.231 48.45,146.461 C48.814,147.69 49.133,150.377 49.133,152.427 C49.133,156.024 49.178,156.207 50.59,157.527 C52.002,158.848 52.047,158.984 51.455,160.396 C51.137,161.216 50.772,162.536 50.636,163.265 C50.362,165.087 52.093,174.468 52.776,174.879 C53.141,175.106 53.232,176.882 53.004,181.3 C52.73,187.357 52.73,187.493 54.142,191.091 C54.917,193.14 56.009,195.418 56.556,196.146 C57.785,197.786 62.977,202.704 66.302,205.3 C67.577,206.347 68.716,207.349 68.852,207.531 C68.943,207.714 68.897,210.036 68.67,212.678 C68.215,218.051 68.897,234.492 69.763,237.497 C70.537,240.412 70.264,245.012 69.171,246.469 C68.67,247.152 68.26,247.881 68.26,248.063 C68.26,248.291 67.759,249.156 67.167,250.067 C66.348,251.251 65.437,251.889 63.66,252.435 C59.516,253.801 58.697,255.168 60.746,257.308 L61.93,258.538 L60.973,260.906 C60.473,262.227 59.015,264.868 57.785,266.735 C56.51,268.648 55.509,270.333 55.509,270.56 C55.509,270.743 54.917,272.2 54.188,273.794 C51.228,280.17 50.044,283.722 50.044,286.181 C50.044,287.821 49.861,288.731 49.406,288.868 C49.087,289.005 48.632,289.87 48.495,290.735 C48.313,291.646 47.675,293.377 47.083,294.606 C46.446,295.836 45.945,297.111 45.945,297.43 C45.945,297.794 45.535,298.751 45.034,299.57 C44.533,300.39 44.123,301.346 44.123,301.711 C44.123,302.075 43.941,302.394 43.668,302.394 C42.621,302.394 40.48,309.453 40.48,312.959 C40.48,314.735 37.884,320.201 36.518,321.339 C35.516,322.113 35.379,322.523 35.653,323.889 C35.789,324.754 36.336,325.848 36.837,326.303 C37.338,326.758 37.747,327.669 37.747,328.307 C37.747,329.764 36.381,332.633 34.742,334.592 L33.558,336.094 L35.015,337.461 L36.518,338.872 L35.926,341.286 C35.288,343.973 35.47,344.611 37.11,345.248 C40.07,346.341 40.343,346.296 41.664,344.292 C42.939,342.379 42.985,342.379 45.08,342.607 C47.675,342.925 47.949,342.652 48.632,339.191 C49.315,336.049 50.818,333.635 52.321,333.453 C53.459,333.271 55.509,332.132 56.055,331.313 C56.237,331.085 56.419,330.402 56.419,329.901 C56.419,329.035 57.011,327.396 58.924,323.115 C59.972,320.747 64.161,310.227 64.161,309.954 C64.161,309.817 64.753,308.405 65.482,306.857 C66.165,305.263 67.668,301.756 68.761,299.024 C70.856,293.832 71.858,292.739 73.361,294.06 C74.545,295.107 74.59,296.246 73.406,298.113 C71.585,301.119 70.082,304.626 70.082,305.991 C70.082,307.176 70.355,307.449 72.177,308.132 C75.774,309.498 79.281,309.225 83.471,307.176 C86.158,305.855 87.251,305.536 87.797,305.901 C88.708,306.493 88.981,308.132 88.389,309.407 C88.116,309.954 87.569,311.32 87.16,312.504 C86.704,313.688 86.067,314.735 85.702,314.872 C85.247,315.054 85.11,315.51 85.292,316.375 C85.475,317.149 85.065,319.426 84.382,321.977 C83.744,324.345 82.924,327.35 82.56,328.671 C82.241,329.992 81.968,332.405 82.013,334.09 C82.104,336.777 82.013,337.233 81.148,337.779 C80.283,338.372 80.146,338.736 80.42,340.466 C80.602,341.924 80.465,342.744 79.919,343.609 C79.19,344.701 75.091,347.024 73.861,347.024 C73.543,347.024 72.905,347.206 72.45,347.434 C72.04,347.616 71.084,348.117 70.309,348.481 C69.581,348.846 67.395,349.392 65.528,349.711 C60.199,350.622 60.199,350.622 59.835,351.442 C59.653,351.897 59.562,353.901 59.562,355.95 C59.607,359.412 59.516,359.821 57.376,364.376 C53.232,373.211 52.776,374.395 52.776,375.943 C52.776,376.899 52.047,378.948 50.954,381.044 C49.953,383.002 49.042,384.915 48.95,385.279 C48.814,385.643 48.085,387.01 47.311,388.239 C44.852,392.338 42.894,396.892 42.529,399.306 C42.347,400.626 41.983,401.81 41.71,402.038 C40.981,402.494 40.389,403.495 38.021,408.277 C36.882,410.554 35.562,413.105 35.061,413.97 C33.603,416.52 32.374,419.344 32.009,420.938 C31.873,421.712 30.916,423.989 29.96,425.993 C28.958,427.951 28.184,429.864 28.184,430.182 C28.184,430.501 27.774,431.503 27.273,432.414 C26.772,433.325 26.362,434.327 26.362,434.691 C26.362,435.101 26.18,435.738 25.952,436.194 C24.131,439.609 22.263,444.118 21.99,445.621 C21.854,446.623 20.988,448.536 20.123,449.811 C18.074,452.953 15.887,457.189 15.887,457.963 C15.887,458.281 15.432,459.329 14.886,460.285 C12.836,463.837 12.244,465.204 12.244,466.251 C12.244,466.798 11.835,468.073 11.334,469.075 C10.15,471.397 10.195,471.989 11.516,472.855 C13.884,474.448 21.307,474.175 23.038,472.491 C23.402,472.126 24.131,471.807 24.631,471.807 C25.406,471.807 25.497,471.989 25.223,472.855 C25.042,473.401 24.723,475.314 24.495,477.044 C23.721,483.694 23.493,484.286 21.58,484.65 C19.44,485.014 20.851,486.198 26.317,488.703 C32.465,491.527 32.419,491.527 44.123,492.528 C48.495,492.893 54.461,493.439 57.33,493.713 C60.199,493.94 64.845,494.35 67.577,494.578 C70.355,494.806 73.725,495.124 75.137,495.307 C77.641,495.58 77.687,495.58 78.143,494.305 C78.644,492.984 80.328,487.383 81.695,482.737 C82.879,478.547 82.605,478.547 88.298,482.191 C91.076,484.012 93.718,485.47 94.128,485.47 C95.312,485.47 96.769,484.331 97.907,482.419 C98.818,480.961 99,480.004 99.091,475.678 C99.501,462.016 100.868,453.818 104.101,446.304 C104.602,445.165 105.239,443.025 105.604,441.522 C105.923,440.02 106.651,437.059 107.198,434.919 C107.79,432.778 108.61,429.499 109.019,427.632 C109.429,425.765 110.158,423.488 110.704,422.623 C111.615,421.074 114.53,411.784 116.853,403.04 C117.445,400.672 118.355,398.076 118.856,397.302 C119.767,395.754 122.91,386.508 122.91,385.233 C122.91,384.095 124.185,383.184 125.05,383.731 C125.46,384.004 127.236,386.691 129.012,389.742 C132.701,396.072 139.213,405.545 144.542,412.376 C150.917,420.573 168.132,441.932 169.863,443.799 C170.773,444.801 171.639,446.031 171.821,446.577 C171.957,447.078 173.233,448.49 174.599,449.674 C175.965,450.858 177.422,452.452 177.832,453.272 C178.697,454.912 179.563,455.868 180.246,455.868 C180.519,455.868 181.84,456.87 183.206,458.1 C188.808,463.154 193.088,465.705 195.32,465.204 C197.051,464.84 202.88,462.016 203.29,461.378 C203.427,461.105 204.064,460.877 204.702,460.877 C205.612,460.877 205.795,461.105 205.795,462.289 C205.795,463.064 206.25,465.204 206.796,467.071 C207.297,468.938 207.662,470.578 207.525,470.714 C207.343,470.851 206.523,470.76 205.612,470.532 C204.702,470.259 204.019,470.213 204.11,470.35 C204.2,470.532 204.656,471.488 205.111,472.445 C205.567,473.447 206.979,475.268 208.254,476.544 C210.349,478.639 211.669,481.189 211.715,483.102 C211.715,483.466 210.667,483.648 208.072,483.648 C206.068,483.648 204.428,483.83 204.428,484.058 C204.428,484.559 208.391,489.432 209.62,490.479 C210.075,490.843 211.168,492.255 212.034,493.667 C212.944,495.033 213.719,496.263 213.764,496.308 C214.083,496.673 223.374,499.997 224.057,499.997 C224.467,500.043 225.15,499.542 225.559,498.904 z" fill="#000000"/>
  </g>
</svg>
