<?xml version="1.0" encoding="UTF-8"?>
<!DOCTYPE svg PUBLIC "-//W3C//DTD SVG 1.1//EN" "http://www.w3.org/Graphics/SVG/1.1/DTD/svg11.dtd">
<svg version="1.1" xmlns="http://www.w3.org/2000/svg" xmlns:xlink="http://www.w3.org/1999/xlink" x="0" y="0" width="500" height="500" viewBox="0, 0, 500, 500">
  <g id="layer101">
    <path d="M249.75,498.95 C242.172,498.235 237.883,497.091 235.882,495.376 C232.879,492.659 221.441,488.799 216.438,488.799 C214.722,488.799 211.005,490.372 208.288,492.23 C203.856,495.233 202.855,495.376 199.71,493.66 C193.562,490.372 176.548,488.227 171.544,489.943 C168.113,491.229 165.969,490.943 161.393,489.085 C153.101,485.51 153.816,480.507 162.966,477.504 C169.686,475.36 173.26,471.356 177.406,461.348 C180.552,453.771 180.695,452.198 179.694,437.758 C178.979,429.323 178.836,420.887 179.265,419.029 C179.694,417.313 179.122,412.452 177.835,408.306 C176.691,404.303 175.834,398.012 175.834,394.438 C175.977,390.863 175.548,384.716 174.976,380.569 C173.546,370.99 175.834,358.695 182.696,337.821 C185.842,328.385 189.702,315.374 191.417,308.655 C193.133,301.935 195.707,293.071 197.279,288.925 C201.425,277.63 200.997,273.77 195.135,270.338 C188.415,266.335 187.128,260.044 191.275,250.894 C195.421,241.458 195.421,229.878 191.275,219.298 C186.842,208.003 186.128,207.145 182.267,207.145 C176.977,207.145 164.539,199.996 159.392,193.992 C156.675,190.846 153.101,184.699 151.385,180.266 C142.95,157.963 139.948,154.818 127.223,156.104 C121.504,156.676 118.216,156.39 116.215,155.103 C114.785,154.103 108.351,152.673 102.06,152.101 C95.77,151.529 88.192,150.814 85.19,150.528 C76.754,149.671 56.595,134.373 57.31,129.369 C57.882,124.936 63.029,124.936 68.176,129.083 C73.609,133.801 76.182,133.801 80.758,129.226 C84.189,125.794 84.332,124.794 83.474,117.216 C82.902,111.783 83.045,108.495 84.046,107.923 C85.619,106.922 92.767,113.499 92.767,115.786 C92.767,118.36 101.203,121.362 105.921,120.361 C114.499,118.789 115.643,117.645 115.643,110.21 C115.643,102.633 117.358,99.916 122.362,99.916 C124.507,99.916 125.794,100.917 126.223,103.205 C129.082,117.502 129.797,118.503 136.373,118.503 C138.947,118.503 141.806,119.504 142.807,120.647 C146.524,125.222 151.385,123.221 161.251,112.927 C167.255,106.636 172.259,102.633 174.976,102.061 C183.411,100.202 186.842,98.201 190.131,93.054 C194.563,86.191 199.567,83.618 215.008,79.757 C222.156,78.042 228.876,75.468 230.306,73.896 C233.451,70.464 235.024,55.738 233.022,49.448 C232.021,46.731 230.02,43.3 228.59,42.013 C224.301,38.153 224.873,32.863 231.307,17.708 C237.168,3.983 240.743,0.98 252.609,0.122 C267.764,-1.021 277.486,5.841 282.633,21.139 C283.634,23.856 285.35,27.287 286.636,28.574 C287.923,30.003 289.353,34.007 289.639,37.295 C290.211,42.442 289.782,44.015 286.779,47.017 C284.349,49.448 282.776,53.022 282.204,57.74 C281.632,61.743 280.632,66.175 280.06,67.748 C279.488,69.321 279.488,71.894 280.06,73.61 C281.061,76.326 282.347,76.612 291.498,76.755 C297.216,76.755 302.506,77.47 303.364,78.328 C304.222,79.186 306.795,79.9 309.083,79.9 C315.803,79.9 322.808,84.047 327.383,90.909 C330.529,95.341 333.96,98.201 339.25,100.488 C343.968,102.633 348.4,106.064 351.546,109.924 C355.835,115.357 356.693,115.929 361.268,115.071 C369.274,113.785 371.99,110.353 371.276,102.49 C370.561,94.912 371.99,91.338 375.708,91.338 C379.568,91.338 381.427,94.341 382.427,101.918 C383.571,109.639 386.859,112.498 391.721,109.924 C393.293,109.067 396.296,108.638 398.44,109.21 C402.014,109.924 402.586,109.353 407.304,99.631 C414.024,85.762 420.887,84.19 419.171,96.914 C418.599,100.631 419.171,103.062 421.173,105.492 C424.175,109.21 427.32,108.638 427.32,104.206 C427.32,101.346 433.611,95.627 436.757,95.627 C441.189,95.627 443.476,102.347 442.475,112.498 C440.474,131.513 437.328,135.516 420.172,140.091 C414.739,141.521 408.448,143.523 406.161,144.81 C403.587,146.096 400.156,146.668 397.153,146.239 C392.578,145.524 392.006,145.81 389.719,150.671 C387.288,155.818 387.002,155.961 381.141,155.103 L375.136,154.246 L359.409,168.972 C343.11,184.127 334.246,189.703 324.238,190.989 C317.232,191.99 315.231,195.135 318.09,200.568 C320.378,205.143 320.664,209.433 318.805,210.719 C317.089,211.72 312.943,229.878 312.943,236.168 C312.943,238.885 314.516,245.89 316.375,251.752 C321.95,268.623 324.095,279.489 325.096,296.502 C325.668,305.223 327.526,317.948 329.385,325.24 C331.672,333.961 333.388,346.685 334.532,362.984 C336.105,385.573 336.105,388.147 333.674,394.581 C331.958,399.442 331.101,406.018 331.101,414.883 C331.101,425.748 330.386,429.895 327.097,438.473 C324.953,444.049 321.522,450.768 319.377,453.342 C316.089,457.345 315.66,458.775 316.375,464.065 C317.518,472.643 319.52,475.931 324.524,476.932 C327.669,477.504 328.67,478.505 328.67,481.078 C328.67,483.08 327.812,484.51 326.668,484.51 C325.525,484.51 323.094,486.368 321.236,488.656 C315.517,495.661 312.514,496.519 306.367,492.373 C299.075,487.369 291.641,487.512 285.493,492.945 C276.486,500.665 274.77,500.951 249.75,498.95 z M188.272,181.124 C189.273,180.123 189.988,177.121 189.988,174.405 C189.988,167.113 192.847,162.395 198.423,160.536 C204.571,158.535 205.715,156.39 203.999,150.099 C203.141,147.383 202.998,141.664 203.427,137.518 C203.999,132.657 203.713,129.94 202.855,129.94 C200.282,129.94 180.838,141.378 178.264,144.524 C176.548,146.382 175.691,149.814 175.691,154.532 C175.691,158.392 174.69,163.396 173.546,165.683 C170.687,171.116 172.688,176.12 178.836,179.98 C184.269,183.269 185.985,183.412 188.272,181.124 z M325.811,171.402 C328.67,170.687 333.674,167.113 337.105,163.682 C342.681,157.963 343.396,156.533 343.253,151.243 C342.967,144.667 339.965,138.805 336.105,137.661 C327.955,134.944 324.381,132.943 317.661,126.795 C307.796,117.931 306.081,118.646 306.367,131.37 C306.51,138.948 305.938,141.664 303.936,143.952 C300.648,147.669 301.22,152.959 305.223,154.96 C310.942,157.82 312.943,160.25 312.943,164.397 C312.943,166.827 314.087,169.258 316.089,170.544 C319.806,173.261 319.377,173.261 325.811,171.402 z" fill="#000000"/>
  </g>
</svg>
