<?xml version="1.0" encoding="UTF-8"?>
<!DOCTYPE svg PUBLIC "-//W3C//DTD SVG 1.1//EN" "http://www.w3.org/Graphics/SVG/1.1/DTD/svg11.dtd">
<svg version="1.1" xmlns="http://www.w3.org/2000/svg" xmlns:xlink="http://www.w3.org/1999/xlink" x="0" y="0" width="500" height="500" viewBox="0, 0, 500, 500">
  <g id="layer101">
    <path d="M105.548,334.39 C105.494,331.006 105.064,330.63 102.218,331.06 C98.619,331.597 97.222,331.543 95.396,330.898 C89.863,328.965 88.198,328.481 86.265,328.159 C83.74,327.783 83.042,326.279 85.137,325.742 C86.855,325.312 86.909,324.238 85.244,322.035 C84.546,321.069 83.794,319.726 83.579,318.974 C83.364,318.222 82.129,315.268 80.839,312.314 C79.55,309.413 78.476,306.513 78.476,305.868 C78.476,303.934 77.026,302.484 74.877,302.108 C73.749,301.947 71.977,301.678 70.902,301.464 C69.237,301.195 68.754,301.356 67.572,302.645 L66.176,304.149 L64.994,302.645 C63.92,301.302 63.597,301.141 61.61,301.464 C60.374,301.678 59.032,301.84 58.602,301.84 C58.172,301.786 56.614,301.786 55.218,301.732 C51.941,301.732 50.437,300.389 50.867,298.08 C51.136,296.844 50.867,296.038 49.524,294.427 L47.859,292.386 L41.843,292.493 C34.807,292.654 32.551,293.03 31.691,294.051 C30.832,295.072 29.919,294.964 28.791,293.729 C27.663,292.493 24.064,292.278 21.808,293.298 C20.358,293.944 17.296,293.353 14.556,291.849 C13.804,291.418 12.139,290.613 10.904,290.022 C8.218,288.787 8.165,287.927 10.689,286.8 C11.656,286.37 12.408,285.725 12.408,285.403 C12.408,284.651 9.507,282.449 8.487,282.449 C6.822,282.449 6.499,281.16 6.499,273.855 C6.499,265.529 6.177,264.831 2.31,264.24 L0.322,263.917 L0.161,258.17 L0,252.423 L2.095,251.886 C6.016,250.811 6.392,249.844 6.661,241.358 C6.929,231.152 7.305,229.917 10.904,226.425 C12.838,224.545 14.127,222.826 14.664,221.215 C15.523,218.583 16.866,217.992 17.135,220.141 C17.242,220.893 17.618,221.806 17.887,222.182 C18.692,223.149 23.742,222.988 25.246,221.967 C26.427,221.108 26.588,221.108 27.985,221.967 C29.919,223.041 34.323,223.095 35.935,222.021 C36.955,221.269 37.224,221.269 38.674,222.021 C40.823,223.095 44.905,223.041 46.839,221.913 C48.289,221.054 48.504,221.054 49.954,221.913 C52.049,223.149 54.573,223.095 55.916,221.752 C57.205,220.463 57.259,219.711 56.185,218.529 C55.433,217.67 55.486,217.509 57.152,216.22 C58.387,215.306 59.354,214.984 60.321,215.145 C62.523,215.575 63.973,214.501 63.973,212.352 C63.973,210.311 64.564,209.72 66.122,210.204 C66.928,210.472 67.196,211.009 67.196,212.352 C67.196,214.447 68.056,214.93 70.526,214.178 C73.319,213.426 76.22,213.588 78.476,214.769 C81.108,216.112 83.74,216.112 85.459,214.769 C87.231,213.373 90.293,213.373 92.066,214.769 C94.107,216.381 96.416,216.166 97.974,214.178 C98.726,213.158 99.962,212.352 101.036,212.137 C102.271,211.922 103.131,211.278 103.722,210.204 C104.474,208.861 104.957,208.592 106.73,208.592 C108.18,208.592 109.63,208.055 111.456,206.82 C112.96,205.906 114.679,205.101 115.324,205.101 C116.076,205.101 117.096,204.349 118.117,203.113 C120.803,199.622 121.071,198.87 120.104,197.044 C119.352,195.647 119.352,195.11 119.943,193.499 C120.695,191.457 120.641,191.457 117.848,189.739 C116.935,189.148 116.935,189.094 117.848,188.02 C118.385,187.429 119.836,186.784 121.179,186.569 C124.025,186.193 124.401,185.71 124.401,182.38 C124.401,180.124 124.616,179.64 126.496,177.922 C128.591,176.042 128.591,175.988 128.269,172.711 C128,169.22 129.236,164.278 130.471,163.849 C130.847,163.741 131.492,164.493 131.921,165.46 C132.781,167.608 133.533,168.307 135.574,168.79 C137.508,169.22 137.4,170.079 135.413,170.778 C133.909,171.315 133.801,171.583 133.801,173.947 C133.801,177.331 135.305,179.318 137.83,179.318 C140.032,179.318 140.354,179.748 139.495,181.359 C139.065,182.165 138.958,183.562 139.173,185.388 C139.495,187.859 139.817,188.396 142.61,190.92 L145.672,193.713 L144.007,194.895 C142.879,195.701 142.396,196.507 142.396,197.473 C142.396,199.031 144.222,202.415 145.028,202.415 C145.672,202.415 149.754,206.444 150.453,207.786 C150.775,208.324 150.99,209.505 150.99,210.365 C150.99,212.245 152.44,213.695 154.427,213.695 C156.683,213.695 156.039,215.468 153.675,215.897 C152.655,216.058 150.56,216.972 149.056,217.885 C147.552,218.852 145.887,219.604 145.404,219.604 C143.685,219.604 143.9,221.161 145.887,223.632 C147.015,224.975 148.358,226.049 148.895,226.049 C149.432,226.049 150.99,225.082 152.386,223.847 C155.233,221.376 156.791,221.269 157.865,223.525 C158.295,224.384 158.993,224.975 159.638,224.975 C160.229,224.975 161.249,225.243 161.84,225.566 C162.646,225.995 164.257,225.995 167.963,225.512 C171.616,225.082 173.227,225.082 174.033,225.512 C175.644,226.371 175.43,226.962 173.012,228.198 C169.951,229.755 170.166,231.206 173.711,232.656 C175.913,233.623 182.036,233.945 184.454,233.301 C185.42,233.032 186.817,233.139 188.106,233.569 C190.201,234.267 190.255,234.267 192.027,232.549 L193.853,230.776 L196.861,232.173 C199.547,233.462 200.675,233.623 206.745,233.838 L213.62,233.999 L215.876,231.958 C217.81,230.185 218.132,229.541 218.132,227.714 C218.132,224.814 218.562,223.901 220.012,223.901 C221.033,223.901 221.409,224.384 222.107,226.479 C222.59,227.875 223.45,229.809 224.041,230.776 C225.061,232.495 225.276,232.549 228.123,232.441 C230.057,232.334 231.238,232.549 231.507,232.978 C231.829,233.408 233.441,233.677 236.449,233.677 C240.155,233.73 241.014,233.569 241.444,232.763 C241.766,232.28 242.465,231.313 242.948,230.669 L243.807,229.541 L245.365,230.937 C247.138,232.602 249.501,233.139 251.274,232.334 C252.294,231.85 252.724,232.011 253.852,233.247 C255.195,234.697 255.248,234.697 260.62,234.429 C263.628,234.267 266.367,233.838 266.797,233.515 C267.28,233.086 267.549,231.743 267.549,229.541 C267.549,225.834 268.892,223.363 270.825,223.363 C272.115,223.363 273.457,226.21 273.457,229.003 C273.457,232.119 275.123,233.354 279.849,233.73 C282.159,233.891 284.254,233.838 284.845,233.515 C285.489,233.139 286.51,233.193 287.96,233.623 C290.592,234.429 292.687,233.677 293.976,231.421 C295.158,229.326 296.877,229.326 299.509,231.421 C301.442,232.978 302.248,233.247 304.128,233.086 C304.611,233.032 306.169,233.515 307.619,234.106 C309.768,235.019 311.702,235.288 318.685,235.557 L327.118,235.825 L328.514,234.267 C329.32,233.462 331.361,231.045 333.134,228.95 C335.819,225.673 336.303,224.76 336.303,222.934 C336.303,221.752 336.625,220.517 337.055,220.194 C338.774,218.744 340.815,221.376 340.707,224.975 C340.546,227.929 340.761,228.198 343.93,230.024 C347.207,231.904 348.603,231.743 349.409,229.272 C349.946,227.661 350.376,227.285 353.061,226.371 L356.123,225.351 L359.991,227.123 C363.213,228.574 364.019,228.789 365.093,228.251 C365.845,227.929 366.866,227.661 367.349,227.661 C367.833,227.661 368.853,227.177 369.605,226.586 C371.324,225.243 372.398,225.243 373.634,226.586 C374.816,227.875 374.278,228.681 371.217,230.078 C370.035,230.615 369.122,231.313 369.229,231.635 C369.337,231.958 371.217,232.28 373.688,232.334 C375.997,232.387 380.348,232.549 383.302,232.71 C386.471,232.871 389.318,232.71 390.339,232.387 C391.628,231.958 392.326,232.011 393.669,232.71 C394.582,233.193 396.301,233.569 397.483,233.569 C399.148,233.569 399.846,233.891 400.974,235.181 C402.962,237.598 401.78,240.337 398.987,239.8 C397.268,239.478 394.958,240.337 392.487,242.325 L390.93,243.614 L392.38,246.299 C395.388,251.778 415.853,267.301 431.108,275.627 C444.482,282.878 448.994,285.081 454.205,286.746 C460.221,288.68 463.067,289.969 463.873,291.258 C464.786,292.708 463.551,293.138 457.857,293.353 C452.647,293.514 451.197,293.836 451.949,294.588 C452.11,294.803 456.944,295.018 462.638,295.125 C471.608,295.34 473.219,295.233 474.723,294.427 C476.388,293.567 476.442,293.567 478.591,295.018 C480.417,296.307 481.062,296.468 483.049,296.146 C484.338,295.931 486.433,295.286 487.722,294.749 L490.086,293.729 L493.255,295.178 C497.015,296.844 498.143,298.133 497.391,300.013 C496.853,301.464 497.122,302.323 498.143,302.323 C498.519,302.323 499.109,302.538 499.539,302.806 C500.828,303.612 499.217,305.009 497.122,305.009 C495.779,305.009 494.92,305.438 493.846,306.62 C492.127,308.554 491.59,308.607 489.71,306.889 L488.259,305.546 L469.889,305.546 C459.791,305.546 450.982,305.707 450.337,305.868 C449.585,306.083 449.102,306.62 449.102,307.211 C449.102,308.822 447.329,309.306 441.206,309.306 C436.318,309.306 435.136,309.144 433.793,308.231 C432.451,307.318 431.269,307.157 426.757,307.157 C422.46,307.157 421.171,307.318 420.633,308.017 C419.452,309.359 417.25,308.715 416.229,306.674 C414.725,303.612 413.919,303.343 406.56,303.504 C399.954,303.666 399.954,303.666 399.792,305.009 C399.685,305.761 399.094,306.889 398.503,307.533 C397.161,308.983 395.818,308.5 394.743,306.19 C394.045,304.74 393.991,304.74 387.653,304.578 C382.658,304.471 381.046,304.633 380.026,305.277 C378.414,306.298 377.448,306.298 376.534,305.223 C376.051,304.578 375.299,304.471 373.849,304.686 C372.291,304.955 371.7,304.794 370.894,303.881 C369.229,302.001 367.134,301.249 363.912,301.249 C361.656,301.249 360.528,301.517 359.722,302.215 C358.433,303.343 354.243,305.009 352.685,305.009 C352.095,305.009 350.537,303.827 349.14,302.323 L346.562,299.691 L341.835,299.53 C337.538,299.369 337.108,299.261 336.518,298.133 C335.497,296.092 334.852,295.662 332.113,295.34 L329.588,295.072 L329.32,291.418 C329.051,287.552 328.192,286.209 325.936,286.209 C325.076,286.209 324.969,286.477 325.238,287.552 C325.452,288.411 325.291,289.378 324.754,290.13 C324.324,290.774 323.948,291.902 323.948,292.708 C323.948,294.212 322.068,297.327 320.618,298.241 C319.866,298.67 319.383,298.456 318.04,296.952 C317.181,295.984 316.429,294.749 316.429,294.32 C316.429,292.761 313.743,289.432 311.702,288.464 C310.037,287.713 309.661,287.229 309.553,285.725 C309.446,284.704 308.909,283.254 308.318,282.556 C307.781,281.804 307.243,280.354 307.243,279.28 C307.19,278.205 307.029,276.647 306.814,275.735 C306.491,274.123 306.438,274.123 303.269,274.284 C299.509,274.553 298.918,274.929 297.575,277.99 C297.038,279.28 296.34,280.3 296.071,280.3 C295.749,280.3 294.997,279.064 294.352,277.615 C292.58,273.425 291.398,272.78 285.865,272.78 C282.589,272.78 280.87,272.995 280.118,273.586 C279.581,274.016 278.345,274.392 277.486,274.392 C274.585,274.392 272.168,277.077 271.309,281.106 C270.825,283.523 269.751,283.04 268.677,279.978 C267.388,276.057 266.152,274.445 263.896,273.479 C262.392,272.834 261.533,272.78 260.298,273.21 C259.438,273.479 256.645,273.747 254.12,273.801 C249.018,273.908 247.675,274.499 245.956,277.4 C245.365,278.42 244.559,279.226 244.183,279.226 C243.754,279.226 242.894,278.205 242.196,276.97 C241.498,275.788 240.585,274.499 240.101,274.231 C238.758,273.425 236.395,274.231 235.858,275.735 C235.374,277.077 234.246,277.615 234.246,276.54 C234.246,276.218 233.709,275.412 233.011,274.714 C231.829,273.532 231.614,273.532 227.532,274.069 L223.235,274.66 L222,277.239 C221.355,278.635 220.549,279.763 220.227,279.763 C219.958,279.763 219.206,278.689 218.669,277.4 C217.165,274.016 216.682,273.801 212.277,274.069 C208.464,274.284 206.852,274.983 206.852,276.272 C206.852,276.647 206.369,277.561 205.724,278.367 C204.704,279.656 204.328,279.763 200.675,279.763 C196.271,279.763 195.035,280.461 196.109,282.395 C197.076,284.275 198.527,284.597 206.208,284.597 C213.459,284.597 213.835,284.651 217.273,286.262 C220.657,287.82 221.086,287.927 225.276,287.605 C232.474,287.014 232.581,287.068 234.891,288.68 C237.953,290.828 238.49,291.795 237.254,293.084 C235.804,294.749 234.085,295.018 215.608,296.2 C210.558,296.521 209.108,297.166 209.753,298.832 C209.914,299.261 210.558,299.637 211.149,299.637 C212.277,299.637 213.19,300.98 212.546,301.624 C211.901,302.269 206.637,302.914 199.44,303.29 C192.296,303.666 192.242,303.666 190.953,305.277 C189.449,307.157 189.341,308.07 190.523,309.359 C191.651,310.595 191.168,311.239 188.751,311.723 C186.28,312.153 185.367,312.851 185.367,314.247 C185.367,315.537 183.379,319.511 182.681,319.511 C182.412,319.511 181.875,318.867 181.499,318.061 C181.123,317.201 180.264,316.503 179.619,316.395 C178.975,316.289 178.169,315.858 177.793,315.375 C177.202,314.677 177.31,314.409 178.545,313.495 C180.425,312.098 180.371,310.863 178.33,308.769 L176.611,307.103 L170.38,307.372 C166.943,307.533 163.451,307.641 162.538,307.587 C160.39,307.533 151.849,307.587 148.841,307.694 C143.685,307.855 137.83,306.835 133.264,305.062 C116.183,298.348 116.452,298.456 115.861,299.96 C115.377,301.249 115.485,303.29 116.076,303.666 C117.15,304.31 116.559,305.384 114.196,307.103 C112.262,308.5 111.779,309.144 111.779,310.434 C111.779,311.293 112.047,312.475 112.423,313.066 C112.96,313.925 112.907,314.301 111.832,315.429 C110.328,317.041 110.812,318.33 113.659,319.995 C114.948,320.747 115.539,321.498 115.539,322.358 C115.539,323.97 116.505,324.883 118.224,324.883 C118.976,324.883 120.104,325.205 120.695,325.635 C121.823,326.494 121.608,326.655 118.278,327.246 C116.076,327.622 114.464,328.965 114.464,330.308 C114.464,331.006 113.981,331.328 112.745,331.435 C110.597,331.651 109.093,334.014 110.167,335.411 C110.758,336.055 110.436,336.163 108.233,336.163 C105.602,336.163 105.602,336.163 105.548,334.39 z" fill="#000000"/>
  </g>
</svg>
