<?xml version="1.0" encoding="UTF-8"?>
<!DOCTYPE svg PUBLIC "-//W3C//DTD SVG 1.1//EN" "http://www.w3.org/Graphics/SVG/1.1/DTD/svg11.dtd">
<svg version="1.1" xmlns="http://www.w3.org/2000/svg" xmlns:xlink="http://www.w3.org/1999/xlink" x="0" y="0" width="500" height="500" viewBox="0, 0, 500, 500">
  <g id="layer101">
    <path d="M182.609,498.999 C177.181,498.32 175.825,497.506 172.84,493.029 C170.94,490.18 169.312,487.195 169.312,486.245 C169.312,483.124 182.609,463.858 185.322,463.043 C187.9,462.094 193.734,450.968 193.734,446.762 C193.734,445.541 194.549,441.877 195.363,438.35 L197.127,432.108 L192.378,428.174 C180.845,418.405 176.096,415.827 166.734,414.606 C158.729,413.52 156.558,413.656 150.588,415.962 C140.276,420.033 132,420.711 120.603,418.133 C115.04,417.048 109.748,415.42 108.663,414.606 C104.185,410.806 108.12,402.53 117.482,395.746 C120.738,393.439 125.352,388.419 127.794,384.484 C130.236,380.55 134.578,374.851 137.156,371.595 C141.633,366.303 171.754,322.207 175.689,315.287 C176.639,313.659 177.453,311.217 177.453,309.725 C177.453,308.368 179.759,304.976 182.609,302.126 C187.765,296.835 189.393,294.257 192.92,285.438 C194.142,282.453 196.719,279.332 199.569,277.704 C204.725,274.719 210.423,264.95 212.187,256.673 C214.222,246.226 213.951,228.452 211.644,224.789 C210.423,222.889 209.473,220.175 209.338,218.683 C209.338,214.206 203.232,214.477 197.262,219.226 C190.342,224.789 184.101,226.688 176.367,225.467 C167.277,224.11 163.749,221.804 155.744,212.442 C145.297,199.823 142.719,193.718 141.633,178.793 C141.09,171.738 139.869,163.868 138.784,161.29 C135.935,154.642 136.07,153.963 142.99,141.888 C148.146,132.933 150.452,130.355 156.287,126.963 C160.086,124.792 164.699,122.621 166.598,122.214 C168.498,121.807 173.925,119.636 178.81,117.33 C185.729,114.073 191.564,109.46 205.946,95.349 C215.986,85.58 230.368,71.605 237.831,64.55 C245.293,57.359 253.57,47.861 256.283,43.52 C260.218,37.007 262.66,34.7 269.173,31.173 C273.515,28.866 282.741,21.811 289.389,15.569 C300.379,5.393 302.686,3.901 310.691,1.73 C319.51,-0.577 319.917,-0.577 324.938,1.73 C333.621,5.936 332.671,8.65 318.289,22.218 C297.666,41.756 296.852,42.57 296.852,44.741 C296.852,45.826 298.887,49.761 301.329,53.289 C307.706,62.65 325.073,94.535 326.023,98.606 C326.43,100.505 326.159,103.897 325.345,105.933 C324.123,109.46 324.395,110.274 328.737,114.48 C331.314,117.058 333.485,120.179 333.485,121.4 C333.485,122.621 334.164,124.656 334.842,125.742 C335.928,127.506 336.606,127.37 340.269,125.335 C342.576,123.842 345.425,123.164 346.511,123.571 C349.767,124.792 348.682,131.847 344.34,137.275 C342.033,140.124 340.676,142.838 341.219,143.38 C342.305,144.33 352.481,146.772 360.757,148.129 C367.405,149.079 369.441,151.928 369.576,160.205 C369.848,180.557 370.119,182.321 373.24,186.527 C393.727,214.748 393.185,213.798 393.185,219.768 C393.185,223.975 391.964,226.145 386.129,232.658 C382.195,237 377.853,242.563 376.632,244.869 C375.411,247.176 371.883,250.297 368.898,251.789 C365.913,253.417 362.657,255.995 361.843,257.759 C358.179,264.407 347.325,275.397 341.626,278.247 C338.234,279.875 335.385,282.046 335.114,283.131 C334.978,284.217 337.556,289.101 340.948,293.714 C346.646,301.584 347.189,302.805 346.375,307.961 C345.697,312.438 347.053,319.358 352.616,339.439 C356.415,353.685 361.164,371.595 362.928,379.464 C367.134,396.696 368.898,403.344 374.597,420.575 C378.667,433.329 378.803,434.008 376.632,437.536 C375.275,439.571 373.104,443.505 371.612,446.219 C369.983,448.933 366.32,452.596 363.335,454.224 C357.094,457.752 355.466,461.822 357.908,467.521 C359.536,471.591 366.049,474.441 373.918,474.441 C379.345,474.441 382.33,478.647 382.33,485.973 C382.33,494.386 380.295,496.285 369.712,497.099 C364.556,497.506 358.044,497.099 354.244,496.149 C350.717,495.335 344.475,494.521 340.541,494.657 C332.671,494.793 326.294,492.215 324.666,488.416 C322.902,484.21 322.495,463.043 324.123,459.38 C325.209,456.531 325.073,454.089 323.445,448.526 C322.224,444.591 321.274,439.706 321.274,437.671 C321.274,435.772 320.46,433.329 319.51,432.515 C318.425,431.701 310.013,430.887 299.158,430.616 C288.982,430.48 280.163,429.802 279.62,429.123 C279.078,428.581 278.128,420.983 277.721,412.299 C276.771,395.339 275.957,391.676 273.108,391.676 C269.987,391.676 269.444,393.982 268.087,411.078 C267.409,420.847 266.188,428.309 265.102,429.395 C264.017,430.48 258.047,431.43 249.228,431.837 C241.494,432.38 233.896,433.465 232.268,434.415 C228.062,437.128 226.026,446.219 225.077,466.028 L224.263,484.21 L216.8,490.858 C212.73,494.521 207.981,498.185 206.217,498.863 C202.825,500.356 193.192,500.356 182.609,498.999 z M186.95,177.3 C187.765,175.672 188.307,171.602 188.036,168.074 C187.629,162.647 187.222,161.697 184.644,161.29 C182.337,160.883 181.116,161.969 179.488,165.903 C178.403,168.617 177.453,172.145 177.453,173.773 C177.453,179.878 184.237,182.321 186.95,177.3 z M220.871,131.305 C220.871,130.626 219.921,129.405 218.835,128.455 C217.207,127.099 216.393,127.099 214.765,128.455 C213.68,129.405 213.137,130.626 213.544,131.305 C214.494,132.933 220.871,132.933 220.871,131.305 z M249.092,101.319 C253.705,98.47 254.248,95.621 250.585,94.807 C247.871,94.264 241.223,99.556 241.223,102.133 C241.223,104.847 243.801,104.576 249.092,101.319 z" fill="#000000"/>
  </g>
</svg>
