<?xml version="1.0" encoding="UTF-8"?>
<!DOCTYPE svg PUBLIC "-//W3C//DTD SVG 1.1//EN" "http://www.w3.org/Graphics/SVG/1.1/DTD/svg11.dtd">
<svg version="1.1" xmlns="http://www.w3.org/2000/svg" xmlns:xlink="http://www.w3.org/1999/xlink" x="0" y="0" width="500" height="500" viewBox="0, 0, 500, 500">
  <g id="Layer_1">
    <path d="M243.801,499.842 C240.184,499.652 236.853,499.081 236.568,498.51 C235.331,496.511 236.473,490.801 238.471,489.278 C241.326,486.994 245.228,480.808 245.228,478.429 C245.228,477.287 244.372,475.574 243.325,474.432 C240.28,471.386 235.426,464.915 233.618,461.774 C232.666,459.871 230.191,457.967 226.67,456.349 C220.579,453.399 215.155,447.023 214.298,441.598 C213.346,435.697 210.777,427.893 208.112,422.944 C206.684,420.28 205.352,417.139 205.066,416.092 C204.115,412.761 201.926,413.618 197.643,419.042 C192.123,425.895 191.362,427.988 193.646,431.034 C199.261,438.647 201.545,447.594 201.64,462.06 C201.64,469.292 202.211,474.717 203.449,479.476 C205.162,485.852 205.162,486.614 203.829,489.278 C202.973,490.801 201.355,492.514 200.213,492.99 C197.072,494.227 164.428,499.652 159.765,499.652 C156.72,499.652 155.102,499.081 153.389,497.273 C152.056,496.035 151.009,494.322 151.009,493.561 C151.009,491.277 156.815,485.852 161.669,483.568 C170.995,479.19 171.757,475.479 166.142,460.917 C163.762,454.827 162.335,452.542 160.336,451.496 C158.909,450.734 157.481,450.163 157.1,450.163 C155.958,450.163 157.481,464.153 158.909,467.008 C159.765,468.531 160.622,471.386 161.002,473.29 C161.859,477.763 159.86,480.332 154.911,481.189 C153.008,481.57 150.819,482.141 149.963,482.616 C145.775,484.805 141.112,475.574 143.396,469.673 C144.443,467.008 143.396,452.257 141.492,440.17 C141.016,437.03 139.684,424.657 138.637,412.666 C136.924,394.108 136.353,390.396 134.64,388.017 C131.88,384.115 131.024,369.744 133.308,366.127 C135.592,362.701 134.545,354.041 131.404,350.234 C127.883,346.141 125.408,339.67 124.742,333.198 C124.171,327.869 124.266,327.202 127.312,322.539 L130.452,317.59 L128.644,302.268 C127.693,293.798 126.36,282.282 125.694,276.476 C124.933,270.766 123.981,261.915 123.505,256.966 C122.363,245.927 120.364,204.718 120.935,203.766 C121.221,203.385 121.031,198.627 120.555,193.202 C120.079,187.682 119.222,168.648 118.651,150.851 C117.7,121.538 117.129,107.929 114.94,67.672 C114.273,55.395 114.178,54.919 111.704,52.92 C108.563,50.351 108.468,49.113 111.514,45.497 C112.846,43.974 113.893,42.071 113.893,41.405 C113.893,39.216 108.278,35.218 105.137,35.218 C102.758,35.218 100.664,33.886 95.43,29.032 C91.718,25.606 87.816,22.085 86.769,21.133 C84.295,18.944 74.587,7.809 73.636,6.096 C73.16,5.145 73.445,3.717 74.397,2.194 C76.015,-0.185 76.3,-0.28 82.867,0.291 C89.148,0.767 96.762,2.194 106.469,4.859 C108.373,5.335 111.228,6.858 112.846,8.095 C115.416,10.379 115.891,10.474 119.793,9.427 C124.837,8 127.978,8.761 131.88,11.997 C134.45,14.186 135.401,14.376 139.018,13.9 C142.349,13.329 145.965,14.091 156.815,17.231 C164.333,19.325 171.281,21.514 172.232,21.99 C175.183,23.608 174.136,27.129 169.853,30.65 C161.288,37.407 157.291,39.596 144.062,44.355 C139.779,45.878 139.494,46.163 139.779,48.923 L140.065,51.873 L151.485,52.92 C157.767,53.586 166.522,54.062 170.995,54.157 C178.704,54.253 212.109,51.873 216.297,50.922 C217.343,50.731 225.528,50.446 234.379,50.446 C249.321,50.351 251.319,50.541 262.359,53.301 C275.112,56.442 282.535,58.535 296.145,62.818 C309.659,67.006 328.598,71.193 344.016,73.192 C351.344,74.239 381.418,72.906 410.255,70.337 C423.293,69.194 426.053,69.765 426.053,73.763 C426.053,75.095 425.292,77.76 424.34,79.758 C423.198,82.233 422.722,84.898 423.008,88.514 C423.674,99.268 423.008,105.645 421.009,108.5 C419.581,110.594 419.581,110.974 421.39,113.925 C422.532,115.638 423.103,117.732 422.817,118.493 C422.532,119.349 422.817,121.063 423.388,122.3 C424.245,124.298 424.15,125.631 422.341,129.913 C420.819,133.53 420.438,135.529 421.104,136.766 C421.58,137.717 421.675,139.335 421.294,140.382 C420.914,141.429 421.009,143.237 421.58,144.475 C422.246,145.902 422.246,147.33 421.485,149.043 C420.819,150.375 420.628,152.469 420.914,153.801 C421.294,155.229 420.914,157.037 419.962,158.465 C419.01,159.892 418.63,161.7 418.915,163.033 C419.296,164.46 419.01,165.698 418.059,166.459 C415.775,168.362 416.25,170.266 419.01,171.313 C421.294,172.264 421.485,172.55 420.819,176.357 C420.343,179.878 419.962,188.729 420.248,194.63 C420.438,200.054 419.772,206.24 418.725,208.049 C417.773,209.667 417.868,210.428 418.915,211.855 C420.533,213.949 420.819,218.517 419.296,219.374 C418.725,219.755 418.63,221.182 418.915,222.895 C419.296,224.608 419.106,226.702 418.344,228.035 C417.392,229.938 417.392,230.604 418.725,231.937 C419.486,232.888 420.914,235.458 421.77,237.552 C423.008,240.787 423.103,242.215 422.246,245.451 C421.485,248.496 421.485,250.685 422.627,255.349 C423.483,258.775 423.959,264.295 423.769,268.387 C423.579,272.289 423.769,276.001 424.15,276.476 C428.052,282.092 420.723,288.753 408.446,290.752 C402.26,291.799 400.642,291.609 383.892,288.278 C339.162,279.427 320.699,277.333 289.959,277.618 C249.511,277.904 214.774,278.761 213.822,279.332 C213.251,279.617 212.87,280.759 212.87,281.806 C212.87,283.9 219.818,289.325 222.578,289.325 C227.241,289.325 232.666,294.559 236.663,302.744 C237.805,305.123 240.47,308.168 242.659,309.786 C248.464,313.974 252.747,322.444 252.842,329.487 C252.842,335.768 249.511,348.33 245.609,356.134 L243.04,361.464 L249.035,379.451 C252.271,389.254 255.602,398.771 256.363,400.484 C257.696,403.244 257.696,403.815 256.363,405.814 C255.221,407.527 253.984,408.098 251.605,408.003 C247.322,407.907 242.373,411.429 242.373,414.569 C242.373,418.186 247.703,427.893 250.939,430.177 C252.557,431.319 254.936,433.889 256.078,435.792 C257.315,437.696 259.694,440.741 261.408,442.549 C263.025,444.358 265.69,448.64 267.213,451.971 C268.736,455.302 271.4,459.68 273.209,461.679 C275.112,463.677 276.73,466.628 277.016,468.436 C277.206,470.149 277.872,474.051 278.348,477.001 C278.919,481.189 278.824,483.378 277.777,486.043 C277.111,488.041 276.254,490.706 275.969,492.038 C275.302,495.845 266.737,498.795 252.842,499.937 C251.51,500.033 247.513,500.033 243.801,499.842 z M159.384,420.47 C160.051,419.804 160.526,417.71 160.526,415.711 C160.526,410.858 164.143,401.531 168.997,394.108 C173.279,387.446 173.565,386.399 171.471,386.399 C170.71,386.399 168.997,388.207 167.759,390.491 C164.524,395.916 161.002,399.152 159.099,398.39 C156.434,397.439 156.434,395.059 159.099,389.825 C160.526,386.97 161.478,384.305 161.098,383.734 C160.241,382.306 152.818,384.686 151.39,386.875 C150.438,388.397 150.438,391.443 151.58,404.005 C152.437,412.38 153.198,419.804 153.389,420.47 C153.865,421.897 157.862,421.993 159.384,420.47 z M150.819,315.782 C152.627,311.88 163.572,300.65 168.997,297.129 C175.754,292.655 176.23,290.467 171.376,286.089 C167.759,282.758 167.855,283.234 169.282,274.573 C169.758,271.718 164.428,269.624 152.913,267.911 C139.303,265.817 139.874,265.056 141.302,284.471 C142.73,302.839 144.347,315.116 145.585,316.734 C147.012,318.542 149.677,318.066 150.819,315.782 z" fill="#000000"/>
  </g>
</svg>
