<?xml version="1.0" encoding="UTF-8"?>
<!DOCTYPE svg PUBLIC "-//W3C//DTD SVG 1.1//EN" "http://www.w3.org/Graphics/SVG/1.1/DTD/svg11.dtd">
<svg version="1.1" xmlns="http://www.w3.org/2000/svg" xmlns:xlink="http://www.w3.org/1999/xlink" x="0" y="0" width="500" height="500" viewBox="0, 0, 500, 500">
  <g id="layer101">
    <path d="M433.656,443.168 C435.854,441.947 438.663,441.459 441.349,441.825 C446.233,442.68 456.611,439.261 463.449,434.621 C465.769,433.034 468.577,431.69 469.554,431.69 C471.874,431.69 484.206,422.289 485.794,419.358 C486.404,418.137 486.893,415.817 486.893,414.108 C486.893,412.398 488.48,409.224 490.433,406.904 C492.387,404.706 494.463,401.287 494.829,399.211 C495.317,397.258 496.783,391.885 498.126,387.246 C500.446,379.431 500.568,378.698 498.736,374.791 C497.149,371.617 497.027,369.907 498.004,367.343 C499.347,363.802 498.614,353.546 496.661,346.83 C496.05,344.876 495.195,341.702 494.829,339.748 C494.463,337.917 492.631,334.986 490.678,333.277 C488.724,331.567 486.77,328.271 486.404,326.073 C485.061,318.869 469.554,301.042 464.67,301.042 C462.839,301.042 460.274,299.455 457.955,296.891 C455.512,293.96 452.826,292.373 449.53,291.884 C446.965,291.396 442.57,290.053 439.884,288.832 C434.267,286.146 414.12,285.535 408.381,287.855 C403.131,289.931 396.415,287.123 391.165,280.773 C388.723,277.965 386.769,274.668 386.769,273.691 C386.769,272.715 390.066,268.685 393.973,264.778 C401.666,257.208 403.864,252.324 403.864,242.922 C403.864,240.114 403.009,235.84 402.032,233.398 C401.055,230.956 400.323,227.415 400.445,225.584 C400.689,221.432 399.468,219.234 396.782,219.234 C395.683,219.234 392.997,218.135 391.043,216.792 C388.967,215.449 386.525,214.35 385.426,214.35 C384.45,214.35 382.496,213.618 381.275,212.641 C378.955,210.931 378.955,210.687 381.153,202.506 C382.618,196.646 383.106,192.25 382.496,188.343 C381.885,184.191 382.13,182.115 383.595,179.918 C386.037,176.499 386.037,175.888 383.595,173.568 C382.008,171.981 380.176,171.737 373.949,172.347 L366.256,173.202 L358.198,165.021 C353.68,160.626 348.796,156.718 347.209,156.23 C345.621,155.864 339.15,156.108 332.679,156.84 C326.207,157.573 318.271,158.184 315.096,158.184 C305.816,158.184 300.322,162.823 297.025,173.324 C296.537,175.034 295.926,175.278 294.949,174.301 C293.973,173.324 293.973,172.469 295.194,171.004 C296.659,169.295 296.415,168.196 293.973,163.556 L291.042,158.184 L295.194,153.91 C298.979,150.003 299.955,149.637 306.427,149.637 C314.241,149.637 317.66,147.439 319.125,141.578 C320.102,137.915 317.904,129.856 315.462,127.78 C314.608,127.048 309.968,125.949 305.206,125.338 C295.316,124.117 289.821,121.309 287.867,116.669 C286.769,113.983 287.013,112.396 289.211,107.878 C293.484,98.965 289.699,91.028 281.274,91.028 C278.466,91.028 275.902,90.051 273.704,87.975 C271.384,85.778 269.186,85.045 265.889,85.167 C260.273,85.411 258.929,84.557 257.953,80.161 C257.098,75.887 245.132,61.113 240.004,58.061 C231.579,52.932 219.613,54.153 212.653,60.625 C210.455,62.7 208.99,62.945 204.35,62.334 C199.71,61.602 198.611,61.846 198.001,63.433 C197.513,64.776 198.245,66.608 199.832,68.317 C203.618,72.346 203.251,76.986 198.734,78.818 C196.78,79.673 194.338,81.626 193.239,83.336 C191.407,86.144 190.675,86.266 185.18,85.533 C179.564,84.801 179.075,84.923 175.656,88.586 C173.581,90.906 171.871,94.447 171.505,97.011 C170.406,105.07 166.987,112.274 163.08,114.838 C160.76,116.303 157.341,120.943 154.411,126.437 L149.405,135.717 L155.265,155.742 C158.44,166.853 161.859,176.743 162.836,177.842 C163.813,178.941 167.842,180.772 171.749,181.871 C180.418,184.313 184.692,187.854 182.86,191.151 C181.761,193.227 180.785,193.471 176.023,192.738 C171.017,192.128 170.162,192.372 166.621,195.791 C162.958,199.21 161.981,199.454 149.893,200.309 C140.247,200.919 134.02,200.553 124.984,199.088 C115.705,197.5 112.286,197.378 109.722,198.477 C107.035,199.576 105.448,199.332 100.93,197.378 C98,196.035 94.581,194.814 93.482,194.814 C92.383,194.814 91.162,193.837 90.796,192.616 C90.43,191.395 92.139,179.551 94.825,166.12 C97.389,152.689 99.221,140.967 98.855,140.113 C98.611,139.258 96.901,138.647 95.192,138.892 C92.75,139.136 91.773,140.113 91.162,142.921 C90.796,144.997 88.354,156.474 85.79,168.562 C81.394,190.052 78.098,200.431 75.045,202.384 C74.19,202.873 72.359,203.361 70.894,203.361 C69.428,203.361 67.23,204.582 66.009,206.169 C62.102,211.176 61.248,210.931 54.41,203.972 C44.275,193.471 37.071,193.715 31.455,204.582 C28.036,211.298 26.327,220.211 25.96,233.276 C25.838,239.381 24.983,247.806 24.129,251.957 C23.03,257.94 22.908,260.504 24.007,262.824 C25.106,265.389 24.983,266.487 23.03,269.784 C21.687,271.982 19.489,274.79 18.024,276.011 C13.262,280.285 15.704,294.204 21.687,297.379 C25.838,299.577 26.815,302.874 24.129,306.17 C22.908,307.88 21.443,310.688 20.954,312.52 C20.466,314.473 18.268,317.037 15.582,318.747 C11.919,321.067 10.698,322.776 9.599,327.416 C8.744,330.468 7.035,335.353 5.569,338.039 C3.738,341.702 3.249,344.388 3.738,348.539 C4.226,352.813 3.86,354.889 1.906,357.575 C0.075,360.017 -0.292,362.093 0.197,364.901 C0.563,367.099 1.418,372.838 2.028,377.722 C2.761,383.705 3.982,387.856 5.691,390.176 C7.035,392.13 8.256,395.304 8.256,397.136 C8.256,401.287 12.041,407.881 15.46,409.712 C16.925,410.445 18.024,411.788 18.024,412.643 C18.024,415.085 25.106,420.701 28.036,420.701 C29.379,420.701 32.187,422.533 34.385,424.853 C40.49,431.446 45.13,433.156 60.149,434.255 C76.51,435.476 87.988,434.499 93.36,431.446 C96.168,429.737 98.488,429.248 100.93,429.859 C105.57,430.836 124.984,422.777 126.083,419.358 C127.304,415.817 132.799,412.154 137.072,412.154 C140.613,412.154 146.23,408.125 146.23,405.683 C146.23,405.194 148.184,399.7 150.626,393.595 C152.946,387.49 154.655,381.385 154.289,380.164 C154.044,378.821 154.777,376.745 155.998,375.524 C158.074,373.448 159.661,373.326 169.063,373.814 C188.111,375.035 192.262,376.256 196.414,381.995 C198.734,385.292 203.007,388.711 208.257,391.519 L216.438,396.037 L216.438,403.729 C216.316,408.003 215.95,412.398 215.461,413.497 C214.729,415.085 216.072,416.184 222.177,418.748 C229.137,421.8 232.067,422.289 253.069,423.51 L276.268,424.853 L286.036,421.312 C291.408,419.48 296.292,417.527 296.781,417.038 C297.391,416.55 296.292,414.352 294.339,412.276 C291.897,409.468 288.844,407.881 283.716,406.538 C275.657,404.462 270.773,401.654 270.773,399.211 C270.773,398.235 271.994,397.502 273.826,397.502 C275.535,397.502 278.221,396.769 279.687,395.793 C281.152,394.816 284.449,393.717 287.013,393.351 C289.699,392.862 292.263,391.397 293.362,389.81 C294.339,388.222 297.025,386.269 299.467,385.414 C301.787,384.559 303.741,383.338 303.741,382.728 C303.741,381.995 305.938,379.309 308.625,376.623 C311.311,373.937 313.509,370.762 313.509,369.663 C313.509,368.442 314.608,365.267 316.073,362.703 C317.904,358.918 318.393,356.476 317.782,352.08 C317.172,346.708 317.294,346.22 320.468,344.754 C323.399,343.289 323.887,342.434 323.887,337.795 C323.887,333.399 324.376,332.3 326.574,331.445 C330.237,330.102 331.946,326.561 330.359,323.875 C328.771,321.067 329.992,318.136 332.679,318.136 C333.778,318.136 336.22,316.671 338.051,314.962 C343.301,309.955 346.598,311.543 351.238,321.189 C353.314,325.584 355.023,330.224 355.023,331.323 C355.023,332.422 353.558,337.795 351.849,343.167 C349.406,350.737 348.918,354.156 349.529,358.43 C350.017,361.482 350.261,368.076 350.139,373.082 C349.895,386.147 352.947,398.723 357.465,402.997 C360.273,405.683 361.128,407.636 361.128,411.3 C361.128,415.573 362.105,417.038 369.919,425.219 C380.176,435.72 383.473,437.796 390.31,437.796 C394.096,437.796 395.805,438.528 398.613,441.459 L402.032,445.122 L416.074,445.122 C426.452,444.999 431.092,444.511 433.656,443.168 z M358.198,286.024 C354.413,281.017 354.291,279.552 357.587,277.843 C360.518,276.256 362.838,277.599 365.524,282.849 C369.309,290.175 363.326,292.739 358.198,286.024 z M260.517,223.019 C260.15,222.531 261.249,220.211 262.837,218.013 C264.546,215.693 265.889,212.641 265.889,211.176 C265.889,207.268 268.453,202.14 270.285,202.14 C271.14,202.14 272.238,203.239 272.605,204.582 C273.093,205.925 274.803,208.611 276.39,210.687 L279.442,214.228 L273.582,217.281 C270.407,218.868 266.622,221.066 265.279,222.165 C262.47,224.362 261.371,224.485 260.517,223.019 z M283.228,170.76 C284.449,170.516 286.402,170.516 287.501,170.76 C288.722,171.126 287.745,171.371 285.425,171.371 C283.105,171.371 282.129,171.126 283.228,170.76 z M240.858,108.855 C240.858,105.192 244.644,103.482 247.086,105.924 C248.917,107.634 248.917,108.366 247.574,109.954 C245.376,112.518 240.858,111.785 240.858,108.855 z" fill="#000000"/>
  </g>
</svg>
