<?xml version="1.0" encoding="UTF-8"?>
<!DOCTYPE svg PUBLIC "-//W3C//DTD SVG 1.1//EN" "http://www.w3.org/Graphics/SVG/1.1/DTD/svg11.dtd">
<svg version="1.1" xmlns="http://www.w3.org/2000/svg" xmlns:xlink="http://www.w3.org/1999/xlink" x="0" y="0" width="500" height="500" viewBox="0, 0, 500, 500">
  <g id="layer101">
    <path d="M334.052,499.269 C312.723,494.778 308.875,493.495 305.507,488.845 C303.582,486.279 299.894,477.458 297.168,469.44 L292.357,454.686 L284.98,453.884 C279.206,453.243 275.999,451.639 270.707,446.828 L263.811,440.574 L262.368,422.773 C260.443,397.274 258.198,383.483 254.67,375.945 C250.821,368.087 250.661,366.002 254.029,362.314 C257.396,358.625 255.953,354.937 250.661,352.852 C247.614,351.73 246.652,350.126 246.652,346.437 C246.652,341.787 244.567,338.9 236.548,332.485 C235.265,331.363 233.662,326.872 233.02,322.543 C231.737,313.081 230.294,311.637 225.483,315.005 C223.559,316.449 219.229,317.571 216.182,317.571 C212.974,317.571 209.607,318.373 208.484,319.496 C205.597,322.382 206.078,328.316 209.607,331.844 C211.21,333.448 212.974,337.296 213.616,340.504 C214.257,343.711 216.182,349.805 218.106,353.975 C222.757,364.559 222.917,377.87 218.266,386.85 C216.342,390.699 214.418,394.869 213.936,396.312 C212.654,400.802 201.748,408.019 196.937,407.698 C193.409,407.377 192.287,408.179 191.485,411.226 C189.881,417.801 177.693,424.376 158.289,429.027 C139.365,433.518 127.177,433.518 117.876,428.706 C109.376,424.376 109.376,414.113 117.876,402.406 C120.281,399.038 123.97,393.906 126.055,391.02 C128.139,388.133 129.262,384.766 128.62,383.483 C128.139,382.039 127.177,376.587 126.536,371.295 C125.894,366.002 124.13,359.267 122.526,356.38 C116.753,345.154 118.196,326.391 125.734,315.166 C127.017,313.402 127.979,309.713 127.979,306.987 C127.979,303.779 130.064,298.968 133.271,294.157 C142.091,281.488 143.054,278.922 144.176,266.574 C144.818,258.235 146.101,253.584 148.506,250.216 C150.912,247.009 152.034,243.16 152.034,238.349 C152.034,232.095 151.072,229.85 144.016,221.51 C139.686,216.218 135.356,211.568 134.394,210.926 C131.347,209.002 126.696,211.888 125.092,216.379 C124.13,218.944 121.083,222.793 118.357,224.878 C115.631,226.803 110.178,232.415 106.329,236.906 C100.716,243.962 99.113,247.33 97.509,256.15 C96.547,262.084 94.302,270.262 92.698,274.272 C91.094,278.281 89.491,286.78 89.009,293.195 C88.528,302.015 87.566,305.704 85.161,308.43 C77.784,316.449 77.784,316.93 79.868,363.116 C82.915,429.027 80.831,465.431 73.133,480.024 C70.727,484.675 63.671,482.911 60.303,476.977 C53.568,465.27 52.445,450.677 53.247,385.728 C53.728,350.607 53.568,323.825 52.606,322.382 C51.483,320.458 50.681,320.458 47.153,322.222 C45.068,323.505 41.38,323.986 39.135,323.344 C35.286,322.382 35.126,321.901 35.286,309.873 C35.286,300.091 35.927,296.884 38.173,294.318 C39.776,292.554 42.342,289.026 43.625,286.46 C45.87,281.969 45.87,281.328 42.663,276.196 C35.927,265.131 39.295,238.67 48.436,231.132 C50.521,229.368 50.842,227.444 50.04,221.831 C48.757,213.332 51.964,207.719 59.822,204.351 C67.841,201.144 69.284,197.134 68.803,180.456 C68.482,167.466 68.963,165.221 72.812,158.004 C76.501,151.109 77.142,147.901 77.303,135.553 C77.463,122.563 77.944,120.478 81.953,114.705 C84.359,111.177 87.085,105.564 87.887,102.357 C88.849,98.828 91.575,94.98 94.462,92.734 C105.848,84.075 106.971,82.471 106.008,76.377 C105.207,71.245 105.688,69.962 110.98,65.151 C117.876,58.576 123.168,56.812 139.686,55.369 C153.157,54.246 157.326,51.52 162.619,40.935 C163.902,38.209 167.109,34.681 169.675,33.077 C172.401,31.634 174.486,29.87 174.486,29.229 C174.486,28.587 176.41,26.021 178.655,23.295 C180.901,20.729 184.108,16.239 185.872,13.352 C187.636,10.626 190.362,7.739 191.966,7.258 C193.57,6.777 196.136,5.013 197.739,3.249 C200.145,0.523 202.711,0.042 212.493,0.042 C220.832,0.042 224.04,0.523 223.879,1.966 C223.238,5.013 230.454,5.494 231.577,2.607 C232.86,-0.76 244.727,-0.921 246.01,2.447 C247.293,5.654 252.425,6.937 256.113,5.013 C260.924,2.447 263.49,4.211 271.509,15.437 C275.518,21.05 279.688,25.7 280.489,25.7 C281.452,25.7 283.857,29.549 285.942,34.2 C288.027,38.69 292.196,44.945 295.083,47.671 C300.054,52.482 301.979,53.123 317.374,55.048 C330.204,56.812 335.656,58.255 340.948,61.623 C349.929,67.236 349.929,70.443 341.429,93.055 C339.505,97.866 338.062,102.838 338.062,104.281 C338.062,105.564 340.948,112.62 344.637,119.837 C348.165,127.374 351.853,137.638 352.655,143.09 C353.617,148.543 354.9,153.835 355.863,154.957 C356.664,155.92 365.485,162.334 375.267,169.07 C409.746,192.484 414.237,196.493 433.641,220.548 C444.707,234.34 464.753,264.489 464.753,267.376 C464.753,271.225 447.914,289.667 435.245,299.931 C419.85,312.119 390.823,324.467 366.928,328.957 C361.155,329.919 355.863,331.363 355.061,332.004 C353.457,333.608 365.324,342.589 374.626,346.758 C383.125,350.607 383.286,353.173 375.107,369.851 C369.494,381.398 359.872,392.944 355.702,392.944 C352.174,392.944 354.419,401.604 359.391,407.859 C366.126,416.518 368.051,430.631 362.919,434.961 C360.193,437.206 360.032,438.168 361.796,440.574 C366.287,447.149 367.409,452.281 367.569,468.478 C367.73,488.524 367.249,489.326 352.976,495.901 C343.193,500.231 340.628,500.712 334.052,499.269 z M289.63,220.869 C289.951,199.38 289.791,197.134 287.225,196.172 C285.621,195.691 283.055,194.087 281.612,192.965 C278.405,190.078 275.518,191.521 275.518,195.851 C275.518,197.455 272.952,201.625 269.905,205.153 C263.49,212.209 262.849,215.737 267.66,219.586 C270.065,221.51 271.188,224.718 271.829,230.17 C273.273,245.726 273.112,245.566 281.612,245.085 L289.149,244.603 L289.63,220.869 z" fill="#000000"/>
  </g>
</svg>
