<?xml version="1.0" encoding="UTF-8"?>
<!DOCTYPE svg PUBLIC "-//W3C//DTD SVG 1.1//EN" "http://www.w3.org/Graphics/SVG/1.1/DTD/svg11.dtd">
<svg version="1.1" xmlns="http://www.w3.org/2000/svg" xmlns:xlink="http://www.w3.org/1999/xlink" x="0" y="0" width="500" height="500" viewBox="0, 0, 500, 500">
  <g id="layer102">
    <path d="M86.452,102.251 C78.824,102.361 71.172,102.05 63.554,102.572 C60.639,102.771 56.5,102.85 54.429,105.312 C52.91,107.12 52.891,109.942 52.566,112.152 L51.741,117.338 L35.594,117.102 C20.037,116.867 19.329,116.984 15.558,119.813 L11.786,122.642 L11.786,147.039 C11.786,171.083 11.786,171.555 14.497,174.029 C16.854,176.269 18.622,176.623 26.283,176.623 C33.708,176.623 35.358,176.976 35.358,178.509 C35.358,180.276 23.218,186.523 13.554,189.587 C10.961,190.412 8.368,191.473 7.779,191.944 C7.307,192.533 6.836,200.548 6.954,209.859 L7.072,226.714 L3.536,228.717 C1.65,229.778 0,231.664 0,232.725 C0,234.375 0.825,234.611 4.597,234.021 C9.783,233.432 11.079,234.021 12.022,237.321 C12.375,238.618 14.379,244.157 16.5,249.697 C22.158,264.665 22.04,263.841 17.561,267.493 L13.554,270.794 L13.2,288.237 C12.847,304.856 12.729,305.799 10.136,308.038 C3.771,313.46 2.357,317.586 2.357,331.964 C2.357,343.396 2.593,345.401 4.36,345.99 C7.661,347.287 11.432,350.704 20.861,360.605 C22.629,362.608 25.694,364.494 27.58,364.848 C29.701,365.319 33.826,368.502 38.305,373.098 C42.43,377.105 46.555,380.523 47.734,380.523 C48.795,380.523 53.156,383.823 57.281,387.712 L64.824,395.02 L74.488,396.199 C79.91,396.789 86.51,397.26 89.221,397.141 C96.175,396.906 106.664,396.906 113.736,396.906 C116.919,397.024 122.694,397.024 126.348,397.024 C130.119,396.906 136.13,396.906 139.666,396.906 C152.433,396.971 165.204,396.799 177.971,397.024 C187.164,397.024 196.239,397.024 202.722,396.906 C209.676,396.906 218.869,396.789 228.298,396.906 L241.616,396.906 C249.159,396.789 255.996,396.789 265.778,396.906 C269.668,396.906 275.679,397.024 278.979,397.024 C290.883,396.906 298.19,396.906 304.672,397.024 L329.424,397.024 C338.616,396.906 347.81,396.906 355.589,397.024 L368.907,397.024 C372.443,396.906 377.983,396.906 381.283,397.024 C387.175,397.024 395.19,397.024 405.444,396.789 C408.391,396.789 413.105,397.024 416.051,397.378 C422.063,398.203 423.123,397.967 429.37,393.37 C431.845,391.603 436.56,389.245 439.742,388.184 C443.16,387.006 447.403,384.412 449.643,382.055 C453.886,377.695 458.835,374.631 461.547,374.631 C463.668,374.631 472.154,369.326 473.45,367.205 C474.865,364.965 481.583,360.487 483.587,360.487 C486.768,360.487 493.723,355.773 496.08,351.883 C497.612,349.29 498.673,344.693 499.38,337.504 C500.559,324.186 500.205,321.592 497.023,319.353 C495.608,318.292 492.426,315.7 489.951,313.578 L485.59,309.571 L485.59,287.413 L474.039,280.105 C467.675,275.98 461.429,272.09 460.132,271.384 C458.246,270.322 457.775,268.319 457.303,260.187 L456.714,250.286 L447.875,249.697 C440.449,249.226 439.035,248.754 438.681,246.868 C438.446,245.689 433.731,237.203 428.309,228.128 C422.888,219.053 418.291,211.156 418.056,210.449 C417.937,209.859 415.108,209.153 411.927,208.916 C386.35,207.031 381.99,205.853 368.907,197.248 C365.135,194.655 363.132,194.419 342.153,193.595 C319.995,192.77 319.641,192.887 318.109,195.362 C316.458,197.838 315.869,197.838 284.282,197.838 C254.227,197.838 252.106,197.719 252.46,195.834 C252.813,194.184 253.992,193.713 258.117,193.713 C263.185,193.713 263.421,193.595 263.421,190.176 L263.539,186.641 L273.439,185.698 C278.979,185.109 318.816,184.401 362.071,184.166 L440.685,183.695 L444.81,179.804 C448.581,176.151 448.817,175.561 448.228,170.612 C447.403,164.6 446.106,162.479 442.924,162.479 C441.746,162.479 440.449,161.537 440.095,160.357 C438.446,155.054 439.388,155.171 406.622,155.289 C389.415,155.289 375.036,155.408 374.446,155.408 C373.975,155.408 373.621,156.704 373.621,158.354 L373.621,161.3 L335.199,161.3 L331.191,157.529 C324.355,151.165 318.227,148.925 315.28,151.754 C314.573,152.343 309.623,153.05 304.319,153.286 L294.418,153.875 L295.008,151.046 C295.243,149.514 294.772,147.393 293.829,146.45 C292.297,145.036 292.415,144.682 293.947,144.093 C297.365,142.796 295.833,141.264 291.237,141.264 C288.643,141.264 286.168,140.793 285.814,140.085 C285.461,139.496 280.393,138.907 274.617,138.907 C268.842,138.907 263.774,138.436 263.421,137.728 C262.478,136.196 245.506,136.196 244.563,137.728 C243.62,139.26 224.762,139.26 223.23,137.846 C221.816,136.431 208.379,129.478 207.201,129.478 C206.611,129.478 205.315,131.364 204.254,133.603 C202.722,136.903 202.604,137.964 203.901,139.496 C204.725,140.439 206.022,141.264 206.729,141.264 C209.087,141.382 220.873,147.746 221.344,149.279 C222.051,151.518 218.987,150.928 211.208,147.157 C207.201,145.271 203.076,143.622 202.133,143.622 C201.308,143.622 200.247,143.15 199.893,142.679 C199.54,142.089 196.239,141.028 192.468,140.203 C188.696,139.26 183.982,138.199 182.096,137.728 C180.093,137.139 175.614,136.314 172.078,135.96 C163.238,134.782 161.942,133.839 160.999,128.064 C158.995,114.392 158.877,114.038 155.106,111.445 C152.042,109.088 141.905,106.259 125.759,102.959 C123.873,102.606 107.726,102.252 89.811,102.252 L86.452,102.251 z M296.513,362.789 L298.852,362.852 C300.481,363.366 301.959,363.562 302.904,365.083 C303.612,366.497 305.615,367.559 307.737,367.794 C310.919,368.148 311.744,368.855 313.512,373.688 C315.633,379.226 315.516,379.226 312.687,385.12 C309.741,390.895 309.505,391.131 304.79,391.131 C299.486,391.131 297.011,389.598 297.011,386.181 C297.011,384.177 293.829,381.702 291.237,381.702 C290.529,381.702 288.997,383.706 287.936,386.181 C285.932,390.306 285.461,390.541 279.803,390.895 C274.382,391.249 273.793,391.013 272.379,387.949 C271.553,386.181 270.375,383.706 269.785,382.527 C269.078,381.231 269.078,379.58 269.903,378.166 C270.493,376.988 271.082,374.748 271.082,373.216 C271.082,368.855 273.321,367.559 281.1,367.559 C286.757,367.559 288.643,367.087 290.294,365.202 C292.154,363.58 293.956,362.903 296.513,362.789 z M385.29,364.023 C391.89,364.023 392.833,364.965 395.662,374.041 C397.784,380.523 397.547,381.702 394.601,381.702 C391.419,381.702 387.765,384.884 387.765,387.712 C387.765,388.774 387.058,390.07 386.233,390.306 C385.526,390.66 382.579,391.013 379.869,391.013 C375.272,391.131 374.683,390.777 373.15,387.123 C372.207,385.002 370.911,382.763 370.204,382.409 C367.846,380.877 364.664,382.88 362.66,387.006 C360.774,390.895 360.421,391.131 354.763,391.131 C346.867,391.131 346.277,389.245 351.699,381.348 C354.057,377.931 355.942,374.159 355.943,372.745 C355.942,368.502 358.3,367.559 368.435,367.559 C375.978,367.559 378.218,367.205 378.807,365.791 C379.279,364.494 381.164,364.023 385.29,364.023 z M119.04,362.844 C122.34,362.844 124.344,363.551 125.759,365.202 C127.408,367.087 129.294,367.559 134.951,367.559 L142.141,367.559 L143.674,373.216 C144.852,377.105 146.974,380.288 150.981,384.177 C154.163,387.241 156.403,389.952 155.931,390.423 C154.87,391.366 148.152,391.249 146.738,390.188 C146.031,389.717 144.97,387.831 144.38,385.827 C143.437,383.234 142.259,382.174 140.137,381.937 C137.545,381.584 136.602,382.409 134.716,386.063 C132.83,389.717 131.651,390.66 128.469,390.895 C122.105,391.603 119.63,390.424 118.451,386.18 C117.508,383.234 116.565,382.174 114.09,381.937 C111.379,381.584 110.554,382.174 109.14,385.709 C107.136,390.424 103.011,392.192 97.943,390.423 C93.818,388.892 93.582,386.298 97.118,380.877 C98.65,378.402 100.418,374.394 100.772,372.037 C101.597,367.676 101.832,367.559 106.547,367.559 C110.083,367.559 111.733,366.969 112.911,365.202 C113.972,363.433 115.622,362.844 119.04,362.844 z M207.194,362.832 L209.336,362.883 C211.152,363.39 212.827,363.662 214.154,365.083 C215.569,366.616 218.28,367.559 222.169,367.794 C227.473,368.148 228.063,368.502 228.416,371.094 C228.887,374.983 231.716,380.995 233.955,382.88 C236.077,384.649 236.312,389.481 234.191,390.306 C233.484,390.66 230.537,391.013 227.826,391.012 C223.112,391.131 222.64,390.777 220.401,386.298 C217.455,380.523 213.801,380.406 210.972,385.827 C208.497,390.66 207.554,391.249 202.133,390.895 C198.008,390.541 197.065,389.952 195.061,386.18 C193.529,383.234 191.879,381.702 190.347,381.702 C188.814,381.702 187.164,383.234 185.632,386.18 C183.51,390.07 182.686,390.541 178.207,390.895 C172.549,391.366 171.253,388.892 176.085,386.652 C179.975,384.884 184.453,378.637 186.339,372.626 L187.753,367.559 L194,367.559 C199.068,367.559 200.482,367.087 201.543,365.202 C203.122,363.429 204.747,362.924 207.194,362.832 z M55.513,368.737 C56.22,368.737 60.109,378.52 60.109,380.169 C60.109,381.584 56.456,380.052 54.216,377.577 C51.741,374.983 51.623,374.394 53.038,371.683 C53.862,370.034 55.042,368.737 55.513,368.737 z M453.284,359.439 C455.686,360.27 455.044,360.697 456.125,362.844 C457.775,366.851 456.714,368.855 450.939,372.391 C447.167,374.631 443.632,373.805 442.335,370.388 C441.628,368.619 446.106,362.844 448.11,362.844 C448.7,362.844 449.996,362.019 450.939,361.076 C452.243,359.869 451.482,360.441 453.284,359.439 z M35.253,353.828 L35.805,353.852 C38.078,354.692 39.942,356.125 41.605,357.894 C45.613,362.019 46.202,362.962 44.905,364.494 C42.901,366.969 41.723,366.851 37.009,363.905 C33.944,362.019 33.001,360.722 33.001,358.011 C33.051,356.657 33.052,354.359 34.711,353.874 L35.253,353.828 z M469.442,357.219 L470.241,357.261 C471.204,357.453 472.53,358.146 472.036,359.308 C471.093,360.84 468.264,360.84 467.321,359.426 C466.968,358.837 467.204,357.894 467.911,357.54 L468.634,357.254 L469.442,357.219 z M45.966,178.98 C49.856,178.98 50.681,179.333 50.681,181.219 C50.681,182.515 49.973,183.812 49.148,184.048 C46.555,185.109 44.08,184.873 42.666,183.458 C39.837,180.63 41.133,178.98 45.966,178.98 z M354.174,174.266 C371.972,174.266 375.154,174.737 372.797,176.976 C372.443,177.447 363.603,177.801 353.349,177.801 C337.556,177.801 334.727,177.566 334.727,176.033 C334.727,174.501 337.674,174.266 354.174,174.266 z M442.116,173.662 C443.228,174.304 442.966,173.845 443.16,174.855 C443.16,175.798 442.335,176.623 441.392,176.623 C440.449,176.623 439.624,176.151 439.624,175.561 C439.624,174.972 440.449,174.266 441.392,173.794 L442.116,173.662 z" fill="#000000"/>
  </g>
</svg>
