<?xml version="1.0" encoding="UTF-8"?>
<!DOCTYPE svg PUBLIC "-//W3C//DTD SVG 1.1//EN" "http://www.w3.org/Graphics/SVG/1.1/DTD/svg11.dtd">
<svg version="1.1" xmlns="http://www.w3.org/2000/svg" xmlns:xlink="http://www.w3.org/1999/xlink" x="0" y="0" width="500" height="500" viewBox="0, 0, 500, 500">
  <g id="Layer_1">
    <path d="M403.745,219.352 L383.952,195.437 L383.952,72.155 L403.745,89.472 L403.745,219.352" fill="#000000"/>
    <path d="M250.046,0 L240.977,0 L240.977,223.062 L259.023,223.062 L259.023,0 L250.046,0" fill="#000000"/>
    <path d="M329.795,432.657 L320.726,432.657 L320.726,344.558 C320.726,342.053 322.751,340.021 325.26,340.021 C327.769,340.021 329.795,342.053 329.795,344.558 L329.795,432.657 z M300.393,453.684 L291.305,453.684 L291.305,339.336 C291.305,336.83 293.35,334.799 295.859,334.799 C298.349,334.799 300.393,336.83 300.393,339.336 L300.393,453.684 z M269.598,470.725 L260.528,470.725 L260.528,334.111 C260.528,331.608 262.554,329.577 265.063,329.577 C267.572,329.577 269.598,331.608 269.598,334.111 L269.598,470.725 z M239.472,470.725 L230.402,470.725 L230.402,334.111 C230.402,331.608 232.428,329.577 234.937,329.577 C237.427,329.577 239.472,331.608 239.472,334.111 L239.472,470.725 z M208.676,453.684 L199.607,453.684 L199.607,339.336 C199.607,336.83 201.632,334.799 204.141,334.799 C206.65,334.799 208.676,336.83 208.676,339.336 L208.676,453.684 z M179.256,432.657 L170.186,432.657 L170.186,344.558 C170.186,342.053 172.231,340.021 174.74,340.021 C177.23,340.021 179.256,342.053 179.256,344.558 L179.256,432.657 z M404.637,228.853 L396.813,236.045 L396.776,236.008 L396.441,236.387 L381.239,250.391 L370.143,237.227 L310.374,264.538 L275.731,247.033 L251.589,256.872 L265.807,294.941 L273.148,314.021 L250.046,300.578 L250.046,300.521 L249.991,300.55 L249.954,300.521 L249.954,300.578 L226.834,314.021 L234.193,294.941 L248.392,256.872 L224.269,247.033 L189.626,264.538 L129.838,237.227 L118.761,250.391 L103.54,236.387 L103.224,236.008 L103.169,236.045 L95.363,228.853 L76.573,249.265 L83.561,255.695 L144.725,326.952 L157.01,316.418 L157.01,434.03 L203.286,466.328 L249.638,500 L249.991,455.697 L250.362,500 L296.714,466.328 L342.99,434.03 L342.99,316.418 L355.257,326.952 L416.439,255.695 L423.427,249.265 L404.637,228.853" fill="#000000"/>
    <path d="M96.255,219.352 L116.048,195.437 L116.048,72.155 L96.255,89.472 L96.255,219.352" fill="#000000"/>
    <path d="M362.096,73.995 C357.766,73.995 354.272,70.488 354.272,66.159 C354.272,61.833 357.766,58.326 362.096,58.326 C366.426,58.326 369.92,61.833 369.92,66.159 C369.92,70.488 366.426,73.995 362.096,73.995 z M362.096,134.736 C357.766,134.736 354.272,131.227 354.272,126.903 C354.272,122.574 357.766,119.067 362.096,119.067 C366.426,119.067 369.92,122.574 369.92,126.903 C369.92,131.227 366.426,134.736 362.096,134.736 z M362.096,187.412 C357.766,187.412 354.272,183.905 354.272,179.578 C354.272,175.252 357.766,171.743 362.096,171.743 C366.426,171.743 369.92,175.252 369.92,179.578 C369.92,183.905 366.426,187.412 362.096,187.412 z M137.904,73.995 C133.574,73.995 130.061,70.488 130.061,66.159 C130.061,61.833 133.574,58.326 137.904,58.326 C142.216,58.326 145.728,61.833 145.728,66.159 C145.728,70.488 142.216,73.995 137.904,73.995 z M137.904,134.736 C133.574,134.736 130.061,131.227 130.061,126.903 C130.061,122.574 133.574,119.067 137.904,119.067 C142.216,119.067 145.728,122.574 145.728,126.903 C145.728,131.227 142.216,134.736 137.904,134.736 z M137.904,187.412 C133.574,187.412 130.061,183.905 130.061,179.578 C130.061,175.252 133.574,171.743 137.904,171.743 C142.216,171.743 145.728,175.252 145.728,179.578 C145.728,183.905 142.216,187.412 137.904,187.412 z M378.376,198.03 L378.376,55.25 L377.875,55.25 C372.485,47.836 297.903,16.411 264.301,10.822 L264.301,94.384 L264.431,94.384 L264.58,229.66 L235.401,229.66 L235.569,94.384 L235.68,94.384 L235.68,10.822 C202.078,16.411 127.496,47.836 122.107,55.25 L121.605,55.25 L121.605,198.03 L99.08,225.117 L118.167,240.95 L144.353,209.456 L249.954,249.094 L249.954,249.131 L249.991,249.113 L250.046,249.131 L250.046,249.094 L355.628,209.456 L381.833,240.95 L400.92,225.117 L378.376,198.03" fill="#000000"/>
  </g>
</svg>
