<?xml version="1.0" encoding="UTF-8"?>
<!DOCTYPE svg PUBLIC "-//W3C//DTD SVG 1.1//EN" "http://www.w3.org/Graphics/SVG/1.1/DTD/svg11.dtd">
<svg version="1.1" xmlns="http://www.w3.org/2000/svg" xmlns:xlink="http://www.w3.org/1999/xlink" x="0" y="0" width="500" height="500" viewBox="0, 0, 500, 500">
  <g id="layer101">
    <path d="M199.362,470.86 C194.446,469.945 180.041,464.915 177.526,463.2 C174.096,461.028 173.982,457.255 177.068,447.538 C178.326,443.651 185.3,438.735 185.3,437.934 C190.787,431.761 185.185,431.189 185.757,422.615 C185.986,417.242 186.214,411.411 186.1,409.468 C186.1,407.638 186.1,404.209 186.214,402.037 C186.329,399.864 186.443,391.29 186.443,382.944 C186.443,370.94 185.986,367.053 184.385,363.738 C182.67,359.965 182.556,358.936 183.928,355.85 C184.842,353.677 185.3,348.647 185.185,342.588 C184.957,333.785 185.3,332.184 188.386,326.011 C191.588,319.723 191.702,319.037 189.987,317.78 C188.958,316.979 187.358,316.293 186.672,316.293 C184.156,316.293 179.469,313.778 178.898,312.063 C178.555,311.149 178.783,308.291 179.583,305.547 C181.413,298.802 180.269,295.372 175.239,293.085 C171.123,291.028 171.123,291.028 171.924,285.654 C172.267,282.682 173.982,275.251 175.582,269.077 C179.126,255.13 178.783,254.558 167.808,254.558 C160.377,254.558 159.92,254.672 159.92,257.188 C159.92,258.559 159.462,260.274 159.005,260.96 C157.633,263.132 148.945,267.02 144.372,267.591 C142.085,267.934 139.684,268.62 139.113,269.192 C138.541,269.763 137.855,278.909 137.398,289.541 C136.597,313.549 136.597,312.864 137.626,315.95 C138.884,319.837 135.226,320.638 118.191,320.18 C104.93,319.952 93.954,318.122 91.782,316.065 C91.439,315.607 92.125,313.549 93.383,311.492 C95.326,308.291 95.784,305.432 96.127,294.572 L96.47,281.424 L89.039,281.767 C80.807,282.225 74.405,285.311 63.887,293.543 C60,296.629 56.342,298.459 52.34,299.145 C48.568,299.831 44.909,301.66 41.594,304.289 C38.85,306.576 34.849,308.634 32.677,309.091 C29.361,309.548 28.332,309.205 25.36,306.004 L22.044,302.46 L17.929,304.404 C14.385,306.118 13.241,306.118 10.269,304.861 C6.039,303.146 1.352,297.887 0.323,293.886 C-1.049,288.512 1.809,284.854 11.641,279.024 C16.786,276.051 22.502,272.507 24.217,271.249 C27.761,268.734 27.761,268.391 25.246,256.845 C24.331,252.729 24.56,249.642 26.389,241.754 C28.447,232.951 29.018,231.693 31.991,230.55 C34.734,229.407 36.106,229.635 41.708,232.151 C49.711,235.809 52.798,235.923 56.113,232.494 C58.971,229.635 65.602,225.405 77.835,218.66 C82.179,216.374 85.609,213.744 85.609,212.944 C85.609,212.144 85.037,209.743 84.351,207.685 C83.094,204.255 83.208,203.798 85.723,201.74 C95.441,194.081 105.158,191.222 119.792,191.565 C123.907,191.68 126.88,191.108 128.938,189.851 C130.538,188.707 134.654,186.421 138.084,184.592 C143.686,181.619 144.829,181.391 149.402,182.419 C155.004,183.563 158.548,182.762 160.949,179.79 C162.32,178.189 162.206,177.046 159.92,172.13 C158.433,168.929 156.49,166.071 155.69,165.614 C154.546,164.928 154.661,163.556 155.918,158.526 C156.833,155.096 157.633,149.951 157.633,147.208 L160.606,144.921 L163.578,147.665 L166.322,144.235 C168.494,141.606 169.066,139.548 168.837,135.432 C168.723,130.745 169.18,129.487 172.838,125.486 C177.183,120.684 177.983,118.626 178.44,111.081 C178.669,107.88 179.469,106.279 181.184,105.365 C185.3,103.307 192.845,96.219 194.331,93.018 C195.132,91.303 196.16,89.931 196.618,89.931 C197.075,89.931 199.133,88.559 201.191,86.844 C204.506,83.986 205.878,83.643 213.538,83.529 C218.568,83.529 224.627,82.614 227.828,81.471 C230.915,80.442 235.374,79.413 237.66,79.185 C240.061,78.956 243.148,78.041 244.634,77.012 C246.463,75.64 248.521,75.298 251.379,75.755 C257.553,76.784 265.098,72.782 265.098,68.438 C265.098,64.894 269.214,60.321 274.816,57.806 C277.216,56.663 278.703,54.605 280.303,50.603 C281.446,47.517 283.276,43.63 284.533,41.915 C287.62,37.57 294.136,34.712 298.709,35.513 C301.682,36.084 302.939,35.627 305.226,33.226 C309.57,28.539 312.314,27.967 318.831,30.482 C323.746,32.426 325.004,32.54 328.777,31.168 C334.493,29.225 339.752,30.711 342.839,35.055 C345.125,38.256 345.697,38.485 351.756,38.256 L358.158,37.913 L361.931,43.515 C363.989,46.488 365.704,50.26 365.704,51.747 C365.704,53.462 367.19,55.519 369.819,57.463 C371.991,59.178 375.307,63.522 377.136,67.066 L380.451,73.583 L387.654,74.154 C395.771,74.84 403.088,77.927 404.002,81.014 C404.688,83.072 411.319,88.216 418.521,92.218 C420.922,93.475 423.437,95.647 424.123,97.019 C426.41,101.363 424.581,111.081 419.322,121.599 L414.52,131.202 L417.721,138.862 C419.436,143.092 423.094,152.352 425.838,159.44 C430.868,172.473 432.012,175.331 446.76,210.2 C451.218,220.718 454.877,229.75 454.877,230.321 C454.877,230.893 457.506,237.524 460.707,244.955 C463.908,252.5 467.567,261.189 468.824,264.276 C469.967,267.477 472.254,272.621 473.74,275.708 C475.226,278.909 478.084,285.54 480.142,290.57 C482.2,295.601 485.63,303.832 487.688,308.862 C489.86,313.892 492.604,320.638 493.747,323.724 C494.89,326.925 496.834,332.07 498.206,335.385 C499.463,338.701 500.263,342.131 499.92,343.045 C499.577,343.96 495.69,347.047 491.232,350.019 C482.772,355.621 465.394,371.626 461.279,377.571 C446.874,398.607 445.045,401.922 438.985,419.757 C434.184,433.819 432.469,436.334 427.667,436.334 C416.807,436.334 381.709,426.388 364.217,418.385 C356.672,414.841 352.556,413.583 351.756,414.384 C351.07,415.07 352.213,418.271 355.414,423.758 C359.644,431.418 360.102,432.79 359.759,439.078 L359.416,445.937 L351.413,450.51 C344.782,454.397 342.153,455.197 335.979,455.54 L328.548,455.883 L314.601,446.051 C306.941,440.678 299.624,434.733 298.252,432.904 C295.966,429.703 295.966,429.36 297.795,426.731 C298.824,425.13 299.624,421.815 299.624,419.528 C299.624,416.098 298.938,414.727 296.423,412.897 C294.594,411.64 291.393,408.896 289.449,406.838 C286.134,403.523 285.676,402.38 285.905,397.349 C286.019,394.263 285.676,391.29 284.991,390.604 C284.305,389.918 280.532,388.432 276.645,387.174 C270.471,385.345 269.442,385.231 267.956,386.831 C266.127,388.661 266.013,389.804 266.241,400.322 C266.356,405.123 267.156,408.096 268.871,410.497 C271.958,414.841 271.958,420.671 268.871,423.987 C267.613,425.473 265.555,428.445 264.412,430.618 C263.269,432.79 261.554,435.534 260.639,436.563 C259.839,437.706 259.382,439.992 259.611,441.936 C260.068,444.68 259.382,446.166 256.524,448.91 C253.323,451.996 226.799,464.915 216.853,468.23 C211.48,470.06 202.22,471.431 199.362,470.86 z" fill="#000000"/>
  </g>
</svg>
