<?xml version="1.0" encoding="UTF-8"?>
<!DOCTYPE svg PUBLIC "-//W3C//DTD SVG 1.1//EN" "http://www.w3.org/Graphics/SVG/1.1/DTD/svg11.dtd">
<svg version="1.1" xmlns="http://www.w3.org/2000/svg" xmlns:xlink="http://www.w3.org/1999/xlink" x="0" y="0" width="500" height="500" viewBox="0, 0, 500, 500">
  <g id="layer101">
    <path d="M161.302,453.656 C158.292,451.987 155.327,446.544 154.24,440.726 C153.028,433.685 156.444,425.092 161.103,423.844 C162.579,423.477 163.834,422.763 163.94,422.289 C164.026,421.909 164.774,421.679 165.532,421.848 C167.997,422.4 167.759,419.46 165.138,417.38 C162.033,414.793 159.096,405.673 161.257,405.361 C163.722,405.017 165.911,400.13 166.828,393.366 C167.574,387.361 167.817,386.718 170.802,384.498 C172.491,383.184 174.116,381.258 174.371,380.121 C174.817,378.129 174.103,361.742 173.077,349.864 C172.818,346.122 173.239,339.348 174.1,334.163 C175.599,325.241 175.662,324.956 179.704,320.683 C183.884,316.242 186.826,315.108 191.566,316.169 C193.084,316.508 194.938,316.227 195.772,315.617 C197.323,314.47 197.428,313.996 199.196,294.082 C200.062,285.316 200.827,281.007 202.021,278.785 C203.416,276.11 203.491,275.331 202.376,274.086 C201.671,273.231 200.566,272.386 199.902,272.238 C199.238,272.089 198.514,270.434 198.348,268.505 C198.182,266.577 197.153,264.056 195.995,263.001 C194.712,261.619 194.271,260.026 194.695,258.131 C195.056,256.519 194.669,254.242 193.786,252.85 C192.756,251.225 192.422,249.16 192.919,247.38 C193.28,245.768 193.316,243.386 192.812,242.079 C192.307,240.771 192.205,238.558 192.544,237.041 C193.721,232.227 194.845,212.965 194.241,208.549 C193.229,201.055 193.956,200.919 167.548,215.718 C156.738,221.762 155.26,223.024 153.019,228.596 C152.194,230.502 151.189,232.766 150.809,233.577 C150.334,234.367 145.99,235.983 141.067,237.072 C136.123,238.256 130.377,240.354 128.267,241.775 C126.062,243.173 123.827,244.266 123.163,244.117 C119.087,243.205 93.165,256.719 89.237,261.814 C81.995,271.045 79.758,273.033 74.211,275.576 C69.667,277.645 67.24,279.591 64.062,283.559 C61.254,287.212 60.197,289.265 60.575,290.246 C60.996,291.037 61.772,292.904 62.35,294.327 C63.453,296.963 63.803,316.753 62.884,325.309 L62.404,329.682 L48.493,338.018 C40.804,342.57 33.685,346.353 32.673,346.425 C30.302,346.791 23.974,343.483 18.321,338.934 C15.795,336.875 11.742,334.077 9.394,332.555 C4.583,329.587 -0.015,323.88 0.001,320.698 C-0.051,319.591 2.35,313.756 5.457,307.881 C8.469,301.984 11.745,295.349 12.728,293.181 C13.711,291.011 15.116,288.737 15.834,288.2 C16.783,287.516 18.488,281.228 21.046,269.355 C23.252,259.495 26.802,245.853 29.036,238.986 C32.973,226.726 33.036,226.441 35.968,225.803 C38.803,225.143 47.985,215.251 48.685,212.121 C48.855,211.363 50.416,209.721 52.105,208.407 C57.264,204.484 61.685,206.966 58.991,212.337 C56.497,217.254 58.569,220.007 70.55,227.865 C73.761,229.977 76.561,231.699 76.751,231.742 C76.941,231.784 78.85,230.818 81.012,229.608 C83.268,228.421 86.546,227.562 88.696,227.744 C90.751,227.905 93.682,227.267 95.263,226.425 C100.843,223.293 110.078,220.282 112.448,220.813 C113.776,221.11 116.01,220.913 117.433,220.336 C119.742,219.358 120.08,218.737 120.36,214.817 C120.874,208.959 119.696,207.999 115.045,210.542 C110.415,212.991 109.731,212.937 105.858,208.885 C103.459,206.257 102.217,205.581 99.435,205.556 C96.389,205.373 95.695,204.918 93.413,201.321 C92.015,199.117 90.965,196.692 91.134,195.933 C91.601,193.847 103.291,184.317 109.387,181.102 C113.341,178.999 116.549,176.232 120.044,171.738 C125.279,165.244 126.125,163.243 126.208,157.089 C126.265,153.717 126.699,153.116 134.242,147.437 C138.588,144.029 145.076,138.611 148.696,135.34 C156.114,128.437 156.23,128.363 161.446,128.634 C163.595,128.817 166.462,128.462 167.77,127.959 C169.193,127.381 171.838,127.575 174.661,128.306 C178.579,129.481 179.307,129.345 180.796,127.588 C181.755,126.408 183.088,123.122 183.725,120.279 C184.531,116.675 185.651,114.338 187.424,112.644 C189.197,110.95 189.958,109.328 190.046,107.157 C190.102,104.681 190.693,103.818 192.443,103.114 C193.656,102.589 196.368,100.707 198.35,98.96 C200.957,96.656 203.287,95.585 206.417,95.389 C209.991,94.994 211.34,94.3 213.926,91.195 C215.69,89.101 218.696,86.786 220.657,86.031 C223.156,85.097 226.269,82.309 230.734,77.035 L237.141,69.31 L234.818,65.903 C231.862,61.757 232.457,59.102 236.78,56.685 C245.292,52.019 250.344,48.57 253.847,45.37 C256.401,42.856 258.52,41.837 260.944,41.682 C262.736,41.685 265.435,41.194 266.837,40.711 C269.03,39.807 269.599,39.934 271.672,41.793 C275.019,44.632 279.823,52.975 281.154,58.151 C282.306,62.789 282.717,63.18 289.995,65.804 C292.754,66.819 294.248,68.149 295.93,71.313 C298.084,75.479 298.084,75.479 300.889,74.513 C303.503,73.505 303.841,72.884 305.2,66.816 C306.281,61.981 306.327,59.104 305.52,56.036 C303.676,49.153 305.703,46.32 315.436,42.425 C320.475,40.367 334.489,41.81 338.004,44.786 C340.362,46.708 340.424,47.319 339.406,51.87 C338.452,56.136 337.543,57.526 333.903,60.893 C328.806,65.428 328.521,66.26 330.147,71.004 C331.333,74.156 340.55,83.685 343.206,84.28 C343.68,84.386 346.02,83.714 348.402,82.854 C355.056,80.261 364.432,81.961 370.822,86.775 C375.843,90.586 381.321,98.582 383.956,105.942 C385.877,111.15 394.247,123.576 396.048,123.978 C396.807,124.148 398.316,123.191 399.603,121.887 C403.043,118.077 406.723,117.208 413.919,118.419 C422.747,119.897 428.721,120.338 431.273,119.614 C434.246,118.786 439.449,120.448 441.869,122.981 C443.395,124.617 445.849,125.663 450.684,126.745 C455.403,127.9 458.047,128.99 459.572,130.626 C461.918,133.042 460.38,132.797 480.771,132.88 C484.259,132.863 485.85,133.319 487.271,134.532 C488.355,135.472 490.714,136.498 492.441,136.784 C496.941,137.592 498.729,139.386 499.524,143.845 C500.423,148.726 500.423,148.726 496.14,151.849 L492.342,154.583 L493.941,157.231 C494.876,158.834 495.189,160.994 494.722,163.08 C493.492,168.579 491.604,169.451 482.016,168.7 C477.221,168.324 472.816,168.434 472.236,168.802 C471.424,169.317 471.495,171.224 472.501,174.735 C476.245,187.818 473.558,194.485 462.148,200.991 L455.197,204.911 L452.938,214.561 C450.585,224.189 447.877,230.951 443.495,237.636 C439.904,243.005 434.983,249.869 433.168,251.753 C432.619,252.426 431.131,254.183 430.033,255.531 C424.311,262.414 416.173,271.644 414.147,273.58 C412.807,274.674 411.71,276.022 411.604,276.496 C411.2,278.297 400.464,284.457 395.309,285.693 C390.554,286.919 389.069,286.885 383.771,285.202 C377.356,283.17 370.649,278.881 369.041,275.833 C368.569,274.832 367.389,273.871 366.536,273.681 C365.588,273.468 364.115,272.043 363.253,270.556 C362.318,268.953 360.477,266.949 359.182,266.062 C357.719,265.037 356.561,263.086 356.354,261.347 C356.219,259.723 355.326,257.931 354.442,257.434 C351.262,255.628 350.431,254.447 350.309,251.432 C350.208,248.323 348.388,246.224 346.448,246.885 C344.718,247.493 344.8,249.802 346.849,253.545 C349.887,259.103 357.124,275.258 359.77,282.122 C363.171,290.947 365.632,294.186 370.004,295.562 C373.448,296.631 373.742,297.096 375.798,303.927 C377.109,308.302 377.861,312.951 377.53,315.763 C377.263,318.292 377.046,322.823 377.168,325.837 C377.195,328.831 377.198,333.71 377.131,336.681 C377.158,339.674 377.802,345.692 378.692,350.172 C379.603,354.557 380.25,358.783 380.101,359.447 C379.931,360.206 380.413,362.504 381.053,364.538 C381.788,366.595 382.751,371.19 383.283,374.594 C383.7,378.073 384.873,382.617 385.682,384.789 C386.49,386.96 387.695,391.809 388.311,395.73 C388.948,399.556 390.361,406.146 391.409,410.362 L393.315,417.857 L390.085,422.51 C386.42,427.763 386.134,428.595 386.645,432.99 C386.998,435.857 386.691,436.784 383.831,440.226 C380.379,444.531 375.841,447.062 376.13,447.129 C376.507,447.218 378.191,448.522 354.187,448.129 C326.642,447.541 323.112,446.851 321.201,442.042 C320.666,440.43 319.405,438.057 318.311,436.717 C317.017,434.934 316.683,432.868 317.036,429.064 C317.538,424.597 317.255,423.637 315.339,422.412 C311.79,420.026 307.278,414.835 306.091,411.682 C305.209,409.394 305.435,407.055 306.94,401.219 C309.187,392.065 310.129,381.624 309.318,373.676 C308.955,370.409 309.088,365.362 309.461,362.359 C309.835,359.356 309.83,355.372 309.316,353.665 C308.823,351.862 308.817,348.775 309.263,346.784 C309.931,343.349 310.103,334.128 309.518,330.513 C309.308,329.67 308.109,327.909 306.71,326.6 C305.31,325.291 303.849,322.475 303.515,320.409 C302.01,312.008 299.384,313.511 294.993,325.571 C291.533,335.251 291.416,336.22 291.148,353.881 C291.022,361.12 291.798,370.553 292.917,376.677 C293.377,379.069 293.206,380.724 292.383,381.734 C290.525,383.808 284.949,385.148 282.537,383.913 C281.2,383.215 279.745,383.487 277.868,384.759 C275.294,386.473 274.704,386.441 269.027,384.672 C263.349,382.904 262.264,382.86 254.832,384.483 C245.619,386.504 245.461,386.767 245.92,396.726 C246.095,399.951 246.288,404.873 246.379,407.58 C246.672,415.611 248.83,424.655 250.789,425.691 C253.822,427.266 252.026,430.846 246.34,434.453 C242.722,436.829 240.769,438.881 239.839,441.261 C237.618,446.738 232.977,456.352 231.965,457.32 C231.437,457.899 222.879,458.771 212.898,459.326 C198.777,460.149 192.243,459.981 183.657,458.757 C170.244,456.852 164.935,455.663 161.302,453.656 z M389.652,247.791 C399.02,240.627 416.075,215.572 419.623,203.722 C422.757,193.273 420.958,191.078 410.965,193.023 C406.275,193.966 406.138,194.134 405.225,198.211 C404.335,202.193 399.813,209.942 394.513,216.721 C391.863,220.11 388.554,220.664 385.638,218.121 C384.554,217.181 381.436,215.985 378.265,215.475 C375.305,214.912 371.218,213.6 369.186,212.448 C365.027,210.124 363.625,210.607 360.909,215.176 C358.554,219.03 359.309,221.886 365.249,231.379 C372.692,243.498 377.164,247.983 383.022,249.393 C385.75,250.103 387.11,249.81 389.652,247.791 z" fill="#000000"/>
  </g>
</svg>
