<?xml version="1.0" encoding="UTF-8"?>
<!DOCTYPE svg PUBLIC "-//W3C//DTD SVG 1.1//EN" "http://www.w3.org/Graphics/SVG/1.1/DTD/svg11.dtd">
<svg version="1.1" xmlns="http://www.w3.org/2000/svg" xmlns:xlink="http://www.w3.org/1999/xlink" x="0" y="0" width="500" height="500" viewBox="0, 0, 500, 500">
  <g id="Layer_1">
    <path d="M250.025,-0 L32.472,217.553 L129.235,314.266 L132.401,382.326 L246.657,500 L376.445,377.601 L376.445,308.736 L467.628,217.553 L250.025,-0 z M363.225,298.432 L362.421,372.273 L248.215,482.558 L145.571,379.16 L140.846,307.429 L51.121,216.146 L250.578,17.744 L449.482,216.146 L363.225,298.432 z" fill="#000000"/>
    <path d="M258.771,453.554 C258.771,459.078 254.293,463.557 248.768,463.557 C243.244,463.557 238.765,459.078 238.765,453.554 C238.765,448.029 243.244,443.551 248.768,443.551 C254.293,443.551 258.771,448.029 258.771,453.554 z" fill="#000000"/>
    <path d="M256.157,42.525 C256.157,48.938 250.959,54.137 244.546,54.137 C238.133,54.137 232.934,48.938 232.934,42.525 C232.934,36.112 238.133,30.914 244.546,30.914 C250.959,30.914 256.157,36.112 256.157,42.525 z" fill="#000000"/>
    <path d="M86.76,217.201 C86.76,223.309 81.808,228.26 75.701,228.26 C69.594,228.26 64.642,223.309 64.642,217.201 C64.642,211.094 69.594,206.143 75.701,206.143 C81.808,206.143 86.76,211.094 86.76,217.201 z" fill="#000000"/>
    <path d="M431.286,214.034 C431.286,220.725 425.862,226.149 419.171,226.149 C412.481,226.149 407.057,220.725 407.057,214.034 C407.057,207.344 412.481,201.92 419.171,201.92 C425.862,201.92 431.286,207.344 431.286,214.034 z" fill="#000000"/>
    <path d="M359.304,201.92 L338.594,201.92 L338.996,191.867 L333.718,191.867 C331.808,178.848 328.089,167.136 322.76,156.881 L334.472,145.169 L344.224,154.921 L344.224,122.198 L311.501,122.198 L320.498,131.195 L311.551,140.243 C298.633,125.214 280.788,115.311 258.771,111.541 L258.771,95.054 L280.336,95.054 L246.406,61.124 L212.426,95.054 L233.99,95.054 L233.99,111.491 C212.023,115.311 195.988,125.566 184.829,141.148 L175.681,132 L185.433,122.248 L152.709,122.248 L152.709,154.971 L161.707,145.974 L174.977,159.244 C171.006,168.945 168.191,179.853 166.432,191.917 L161.154,191.917 L161.556,201.97 L137.629,201.97 L137.629,184.126 L103.699,218.056 L137.629,251.986 L137.629,233.588 L162.762,233.588 L163.818,260.983 L152.759,271.539 C166.985,282.598 179.3,290.54 183.372,298.432 C188.097,289.987 196.29,285.915 197.094,285.262 L197.346,289.333 L172.866,313.813 L163.868,304.816 L163.868,337.539 L196.592,337.539 L186.739,327.737 L198.803,315.673 L201.266,358.601 L188.097,367.548 L249.824,420.881 L249.824,421.333 L250.075,421.082 L250.326,421.333 L250.326,420.881 L312.054,367.498 L298.884,358.601 L301.397,314.617 L311.551,324.771 L302.553,333.769 L335.277,333.769 L335.277,301.096 L325.525,310.848 L302.905,288.228 L303.056,285.212 C303.81,285.865 312.003,289.937 316.779,298.381 C320.85,290.49 333.115,282.548 347.391,271.489 L336.332,260.933 L337.388,233.538 L359.354,233.538 L359.354,251.935 L393.284,218.005 L359.354,184.076 L359.354,201.92 z M226.601,373.882 L220.77,365.437 L220.77,296.873 L226.55,298.432 L226.55,373.882 z M211.822,264.653 C201.669,267.719 187.845,264.502 183.321,254.65 C180.607,248.668 181.713,241.128 185.433,236.202 C195.436,222.881 221.323,231.477 230.27,237.76 C227.656,241.43 224.791,260.732 211.822,264.653 z M239.771,367.548 L234.493,370.162 L234.493,298.432 L239.771,298.432 L239.771,367.548 z M251.382,367.548 L246.657,367.548 L246.657,298.432 L251.382,298.432 L251.382,367.548 z M264.049,370.162 L258.771,367.548 L258.771,298.432 L264.049,298.432 L264.049,370.162 z M277.772,365.437 L271.991,373.882 L271.991,298.432 L277.772,296.873 L277.772,365.437 z M315.271,254.65 C310.797,264.502 296.923,267.719 286.77,264.653 C273.751,260.732 270.936,241.43 268.322,237.76 C277.269,231.427 303.156,222.831 313.159,236.202 C316.879,241.128 318.035,248.668 315.271,254.65 z" fill="#000000"/>
  </g>
</svg>
