<?xml version="1.0" encoding="UTF-8"?>
<!DOCTYPE svg PUBLIC "-//W3C//DTD SVG 1.1//EN" "http://www.w3.org/Graphics/SVG/1.1/DTD/svg11.dtd">
<svg version="1.1" xmlns="http://www.w3.org/2000/svg" xmlns:xlink="http://www.w3.org/1999/xlink" x="0" y="0" width="500" height="500" viewBox="0, 0, 500, 500">
  <g id="layer101">
    <path d="M363.969,499.309 C359.304,497.937 356.56,496.359 355.462,494.232 C354.09,491.488 353.335,478.933 354.433,476.875 C354.913,475.983 355.393,473.856 355.462,472.141 C355.599,470.426 355.874,468.231 356.079,467.27 C356.628,465.075 354.982,463.223 352.375,463.223 C350.454,463.223 348.876,461.85 342.77,454.99 C339.888,451.765 339.134,450.256 337.487,444.699 C336.458,441.132 335.086,437.084 334.4,435.78 C333.714,434.477 331.244,429.057 328.912,423.775 C325.756,416.64 324.727,413.415 324.795,411.357 C324.864,409.436 324.521,408.201 323.698,407.584 C323.08,407.035 321.845,405.045 321.022,403.056 C320.13,401.135 318.827,399.077 318.072,398.596 C316.906,397.773 316.631,396.813 316.563,393.52 C316.563,391.324 316.7,388.306 316.974,386.934 C317.386,384.807 317.112,383.778 315.671,381.239 C313.475,377.603 312.584,371.703 313.544,367.793 C314.23,365.254 308.673,354.415 305.38,351.876 L302.91,349.955 L303.047,343.232 C303.253,336.577 303.253,336.577 300.989,333.97 C299.137,331.912 298.794,330.883 298.931,328.756 C299.137,325.12 298.245,324.571 296.461,327.041 C295.707,328.139 293.511,330.609 291.728,332.392 C287.543,336.509 288.023,337.744 293.649,337.195 C297.01,336.852 297.353,336.92 298.451,338.567 C299.068,339.596 299.754,342.203 299.96,344.398 C300.303,348.309 300.235,348.515 297.765,351.259 C294.952,354.415 294.815,356.267 297.422,356.884 C299.549,357.365 301.332,360.452 302.224,365.186 C303.185,369.988 302.636,372.252 299.686,375.476 C296.187,379.318 296.736,380.553 302.087,380.553 C306.752,380.553 307.232,380.896 308.399,384.944 C308.81,386.453 308.81,387.688 308.399,388.511 C307.987,389.197 307.713,391.599 307.713,393.863 C307.713,397.224 307.438,398.253 306.203,399.557 C305.311,400.449 303.665,402.576 302.499,404.222 L300.44,407.309 L293.58,408.544 C285.622,409.985 277.183,409.71 271.969,407.858 C267.716,406.349 266.893,407.035 266.275,412.66 C265.863,416.159 264.148,424.872 262.09,433.585 C261.884,434.408 260.992,435.437 260.101,435.849 C259.277,436.261 258.042,437.427 257.425,438.525 C256.533,439.965 254.955,440.926 250.908,442.298 C246.448,443.876 243.841,444.287 234.648,444.768 C225.729,445.179 222.231,445.66 216.125,447.375 C212.008,448.541 207.412,449.501 205.902,449.501 C204.462,449.501 199.659,450.325 195.269,451.285 C187.928,452.932 186.35,453.069 175.373,452.795 L163.436,452.52 L160.349,449.09 C152.733,440.72 151.979,439.485 152.047,434.889 C152.047,428.371 153.694,424.872 157.673,422.883 C159.457,421.922 162.27,420.001 163.916,418.561 C165.494,417.12 168.375,415.13 170.228,414.17 C173.727,412.317 178.049,408.544 178.049,407.378 C178.049,406.966 179.009,405.663 180.244,404.428 L182.439,402.164 L180.45,398.459 C178.529,394.96 178.46,394.549 179.284,391.393 C179.695,389.609 180.038,386.385 180.038,384.327 C179.97,379.799 180.724,377.672 183.126,375.476 C184.703,373.967 184.909,373.418 184.498,370.674 C184.155,367.93 184.36,367.107 186.144,364.431 C188.751,360.589 189.369,358.119 188.34,356.198 C187.722,355.101 187.791,354.003 188.614,351.533 C189.163,349.749 189.78,347.074 190.055,345.565 C190.329,344.055 191.29,341.037 192.181,338.91 C193.073,336.714 193.828,333.902 193.828,332.667 C193.828,331.363 194.445,329.511 195.2,328.55 C196.847,326.492 196.915,325.326 195.543,323.542 C193.897,321.347 194.308,319.289 196.778,317.779 C197.944,317.025 199.934,316.407 201.169,316.407 C202.335,316.407 203.57,316.064 203.776,315.721 C204.05,315.31 205.354,315.104 206.726,315.172 C209.058,315.378 209.264,315.241 210.156,312.634 C210.705,311.125 211.048,308.381 211.048,306.46 C210.979,303.372 211.254,302.823 213.929,299.942 C216.125,297.678 217.497,295.277 219.212,290.68 C220.515,287.319 223.534,280.184 225.935,274.901 C231.904,261.866 231.904,262.072 227.239,259.877 C221.339,257.064 219.898,255.692 219.898,252.673 C219.898,249.723 217.977,246.43 217.085,247.871 C216.536,248.831 216.811,267.286 217.497,273.598 C217.84,276.205 217.634,277.302 216.879,277.92 C216.33,278.4 213.037,278.949 209.539,279.155 C204.393,279.498 202.678,279.909 200.757,281.213 C198.836,282.516 197.601,282.791 194.857,282.654 L191.427,282.448 L189.369,278.194 C186.556,272.431 185.87,271.814 182.714,271.814 C181.205,271.814 179.352,271.471 178.598,271.059 C176.608,269.962 175.099,271.745 174.618,275.724 C174.344,278.331 173.932,279.086 172.286,279.978 C169.61,281.487 166.111,286.427 166.66,288.073 C166.866,288.759 168.787,290.2 170.845,291.229 C175.03,293.287 176.059,295.208 174.687,298.913 C174.275,300.079 173.932,302.275 173.932,303.784 C173.932,305.568 173.521,307.008 172.766,307.694 C172.08,308.312 170.914,309.41 170.091,310.096 C169.061,311.056 168.444,312.908 167.758,317.574 C167.278,321.004 167.141,324.709 167.415,325.806 C168.375,329.442 167.758,336.509 166.386,338.018 C164.534,340.008 162.956,344.055 162.956,346.868 C162.956,348.24 162.338,350.847 161.584,352.768 C160.417,355.787 160.349,356.679 160.966,359.286 C161.652,361.893 161.515,363.059 160.28,367.107 C158.496,372.938 158.496,373.075 160.211,375.202 C161.858,377.329 161.309,378.632 158.153,380.142 C156.095,381.171 155.615,381.994 153.076,389.472 C150.058,398.391 150.675,397.636 143.746,400.792 C142.443,401.409 140.316,407.035 139.698,411.426 C139.355,414.376 138.944,414.993 136.954,416.228 C132.838,418.698 126.252,425.009 124.262,428.508 C122.684,431.252 122.41,432.35 122.753,434.614 C123.165,436.878 122.616,439.073 120.352,445.934 C117.745,453.618 117.265,454.51 115.344,455.264 C113.903,455.882 112.668,455.95 111.502,455.539 C110.541,455.196 108.62,455.059 107.248,455.264 C105.19,455.607 104.641,455.47 104.641,454.647 C104.641,454.029 103.338,452.932 101.554,452.177 C97.438,450.325 97.095,448.678 99.77,443.533 C102.24,438.936 102.309,438.387 100.731,435.712 C99.427,433.585 99.564,432.83 103.681,422.265 C104.573,419.933 105.327,417.12 105.327,415.954 C105.327,414.17 105.053,413.827 103.749,413.827 C101.76,413.827 100.525,415.13 98.192,419.795 C97.095,421.991 96.409,424.529 96.409,426.382 C96.409,428.44 95.928,430.018 94.762,431.527 C93.321,433.585 92.429,436.055 91.332,441.406 C90.714,444.219 89.136,445.385 85.912,445.385 C82.344,445.385 73.563,441.337 72.397,439.211 C71.642,437.77 71.642,437.633 74.729,432.007 C76.101,429.4 76.101,427.479 74.661,425.009 C73.632,423.088 73.632,422.745 76.513,414.238 L79.394,405.457 L78.16,401.752 C76.925,398.116 76.925,398.048 78.365,396.538 C80.149,394.617 82.55,389.197 83.099,385.767 L83.511,383.297 L78.022,381.033 C75.004,379.799 71.299,377.878 69.79,376.78 C65.811,373.898 62.792,369.233 62.792,365.94 C62.792,363.471 64.233,357.845 65.536,355.444 C66.359,353.866 71.573,337.949 72.603,333.627 C73.563,329.991 73.632,329.854 76.925,328.893 C81.59,327.521 92.498,327.041 96.889,328.002 C105.259,329.923 109.649,324.297 108.963,312.634 C108.552,306.871 108.552,306.871 110.473,305.979 C112.119,305.225 112.325,304.882 111.982,302.48 C111.708,300.285 111.913,299.53 113.491,297.953 C115.481,295.894 117.951,291.298 118.705,288.211 C119.048,286.701 118.774,286.152 117.127,284.918 C115.618,283.888 114.932,282.654 114.589,280.664 C114.177,278.263 114.315,277.577 115.824,276.067 C118.431,273.255 121.861,267.355 125.36,259.808 C127.83,254.594 128.653,251.85 128.927,248.488 C129.133,245.264 129.888,242.863 131.397,239.912 C133.387,236.139 133.524,235.453 133.044,231.68 C132.358,225.986 132.495,220.566 133.387,217.067 C134.141,214.391 134.553,213.98 138.944,211.784 C141.551,210.481 144.158,208.697 144.707,207.805 C147.451,203.62 151.842,182.764 152.116,172.885 L152.322,164.79 L149.783,162.732 C146.833,160.262 145.461,156.763 146.01,152.784 C146.696,147.776 147.657,146.541 152.253,144.62 C154.517,143.659 157.467,142.836 158.702,142.836 C161.24,142.836 162.544,140.984 160.692,139.955 C158.839,138.994 157.467,135.633 157.467,132.271 C157.467,128.429 159.388,126.782 162.887,127.469 C164.808,127.88 165.357,127.606 167.758,125.067 C170.022,122.666 170.777,122.323 173.041,122.392 C175.785,122.46 183.537,120.951 187.654,119.51 C193.965,117.246 195.886,116.08 196.847,113.816 C197.327,112.513 198.905,110.317 200.345,108.945 C201.718,107.573 203.227,105.309 203.707,103.868 C205.011,100.095 207.275,99.203 212.008,100.644 C216.948,102.222 219.075,101.467 221.064,97.488 C222.917,93.715 222.985,93.44 221.27,93.44 C219.692,93.44 213.586,90.49 211.185,88.638 C209.882,87.609 208.647,87.472 203.913,87.746 C199.797,88.021 197.19,87.815 194.788,87.06 C189.917,85.551 186.213,85.139 183.469,85.894 C180.862,86.648 174.413,85.962 168.787,84.316 C166.935,83.767 163.161,83.081 160.554,82.807 L155.752,82.326 L152.047,85.276 C147.931,88.569 141.345,90.628 139.836,89.118 C138.669,87.952 137.023,76.495 136.817,68.742 C136.474,52.003 139.287,44.868 148.686,38.419 C152.596,35.812 154.997,33.822 164.328,25.521 C172.149,18.523 183.263,8.781 185.938,6.655 C187.448,5.42 191.495,3.499 195.063,2.195 L201.375,0 L209.813,0.686 C226.415,2.127 245.145,3.499 255.161,4.048 C263.943,4.597 265.452,4.871 266.275,5.969 C267.647,7.89 267.441,12.28 265.795,15.711 C264.286,18.866 264.286,20.033 266.001,26.825 C267.03,30.804 267.167,30.941 272.381,32.588 C275.605,33.617 275.88,33.617 278.212,32.313 C279.516,31.558 281.711,29.5 283.015,27.717 C285.896,23.943 299.48,10.634 302.224,8.85 C304.077,7.684 304.968,7.684 313.27,8.301 C318.278,8.713 326.099,9.056 330.627,9.056 C335.223,9.125 343.868,9.536 349.973,10.016 C356.011,10.497 361.911,10.771 363.077,10.634 C364.312,10.428 367.331,10.977 369.938,11.732 C384.688,16.397 384.619,16.328 394.018,25.178 C404.377,34.92 408.7,44.25 411.307,62.774 C412.267,69.291 412.541,68.811 402.525,79.033 C392.44,89.324 392.509,89.255 390.313,91.314 C389.216,92.343 386.54,94.95 384.413,97.214 C378.376,103.594 376.181,105.103 373.025,105.103 C370.075,105.103 369.114,104.349 368.428,101.536 C368.154,100.507 367.605,99.409 367.193,98.997 C365.135,97.351 347.984,98.174 346.063,100.095 C345.102,101.056 344.622,104.623 345.308,105.721 C345.857,106.475 346.337,106.475 348.464,105.721 C350.66,104.897 351.277,104.966 352.855,105.858 C353.884,106.407 355.187,107.847 355.736,109.014 C357.246,112.17 361.431,115.463 368.085,118.687 C372.613,120.882 376.249,121.98 384.207,123.627 C397.517,126.234 399.644,126.851 401.633,128.635 C405.132,131.928 412.679,144.963 412.679,147.913 C412.679,148.668 413.433,150.52 414.325,152.029 C415.697,154.43 416.04,156.489 416.795,166.985 C417.824,180.912 417.412,195.182 415.766,199.71 C414.051,204.649 414.394,206.913 417.207,209.177 C423.999,214.597 431.888,224.408 431.888,227.358 C431.888,227.907 431.271,229.484 430.516,230.994 C428.869,234.15 428.801,235.865 430.104,238.952 C431.408,242.245 431.476,268.109 430.173,271.814 C429.35,274.078 429.418,276.822 430.31,289.857 C431.271,303.784 431.271,305.499 430.31,307.214 C427.292,312.703 427.36,312.36 428.801,313.457 C430.104,314.486 430.104,314.486 428.252,314.075 C426.537,313.663 426.262,313.938 425.096,316.545 C424.342,318.191 423.381,320.524 422.969,321.69 C422.421,323.199 421.117,324.503 419.265,325.532 C417.207,326.63 415.903,328.07 414.462,330.814 C410.689,338.155 409.454,339.664 406.573,340.419 C405.132,340.762 402.868,341.997 401.496,343.095 C400.124,344.124 397.38,345.77 395.39,346.731 C388.187,350.23 384.139,351.945 382.218,352.356 C381.12,352.631 379.336,353.797 378.17,354.895 C376.455,356.61 376.181,357.296 376.524,359.354 C377.347,364.294 379.062,364.774 383.933,361.618 C385.785,360.452 387.501,359.697 387.844,359.903 C388.187,360.109 389.421,362.236 390.588,364.568 C393.058,369.576 396.556,374.036 397.997,374.036 C398.546,374.036 398.958,374.722 398.958,375.614 C399.026,378.015 401.976,385.767 404.172,389.129 C408.494,395.715 411.101,399.214 414.462,402.85 C417.344,405.937 429.212,421.785 435.936,431.527 C437.857,434.271 437.651,436.329 434.975,442.161 C433.26,445.797 432.986,446.071 430.79,446.071 C427.086,446.071 425.714,447.992 425.714,453.138 C425.645,455.676 425.096,458.9 424.273,461.164 C422.832,465.143 422.009,468.162 421.323,472.278 C420.774,475.503 412.061,486.617 407.808,489.704 C403.897,492.517 396.008,496.427 391.685,497.8 C385.168,499.789 368.771,500.75 363.969,499.309 z M364.518,315.515 C365.067,313.457 364.792,311.742 362.803,304.264 C361.705,300.216 360.127,298.364 359.441,300.285 C359.167,300.903 359.51,302.48 360.058,303.784 C361.019,305.774 361.088,306.597 360.401,309.135 C359.647,311.948 360.196,315.584 361.774,318.671 C362.254,319.632 363.969,317.642 364.518,315.515 z M349.013,267.698 C351.14,265.777 353.198,263.307 353.678,262.141 C355.187,258.573 353.678,245.058 351.757,245.058 C351.414,245.058 350.248,245.813 349.15,246.773 C348.053,247.733 345.994,248.694 344.554,248.968 C339.957,249.654 339.34,251.37 340.643,259.122 C342.152,268.041 343.25,271.128 344.759,271.128 C345.034,271.128 346.955,269.55 349.013,267.698 z" fill="#000000"/>
  </g>
</svg>
