<?xml version="1.0" encoding="UTF-8"?>
<!DOCTYPE svg PUBLIC "-//W3C//DTD SVG 1.1//EN" "http://www.w3.org/Graphics/SVG/1.1/DTD/svg11.dtd">
<svg version="1.1" xmlns="http://www.w3.org/2000/svg" xmlns:xlink="http://www.w3.org/1999/xlink" x="0" y="0" width="500" height="500" viewBox="0, 0, 500, 500">
  <g id="layer101">
    <path d="M251.283,498.628 C244.553,496.82 243.247,495.213 242.744,488.181 C242.142,480.246 246.16,470.803 251.484,467.388 C253.493,466.082 256.808,463.47 258.917,461.562 C263.739,457.042 263.739,454.128 259.017,448.805 C255.602,444.987 255.401,444.586 257.008,442.878 C257.913,441.974 258.616,440.266 258.616,439.161 C258.616,438.157 259.319,435.244 260.223,432.732 C262.131,427.308 262.634,417.062 263.036,378.69 C263.337,345.842 262.935,347.349 270.469,347.349 C273.482,347.349 274.688,346.947 274.688,345.943 C274.688,343.833 273.282,343.231 267.958,342.829 C263.136,342.427 260.625,341.021 262.533,339.916 C264.14,338.911 263.839,336.299 262.131,335.596 C261.227,335.295 259.721,335.797 258.716,336.701 C257.109,338.208 256.506,338.208 254.698,337.103 C251.986,335.496 251.685,329.268 254.196,329.268 C256.908,329.268 269.967,324.245 271.976,322.538 C274.688,320.026 276.697,315.205 276.094,312.593 C275.09,308.876 277.4,303.854 282.121,299.434 C284.532,297.124 287.144,293.708 287.746,291.9 C288.45,289.992 289.956,287.982 291.162,287.48 C295.582,285.572 292.468,274.823 287.947,276.531 C287.144,276.832 285.336,276.33 283.728,275.426 C281.418,274.02 279.61,273.919 272.076,274.622 L263.136,275.527 L261.127,279.545 C258.214,285.27 251.986,288.284 244.553,287.782 C236.717,287.179 231.193,285.471 229.485,283.161 C228.681,282.056 227.275,280.147 226.471,279.042 L224.965,277.033 L218.938,279.444 C213.312,281.755 212.509,281.855 207.386,280.65 C202.464,279.545 197.943,279.846 165.699,283.261 C145.809,285.371 127.929,287.782 126.02,288.485 C117.783,291.599 114.669,292.302 110.35,291.599 C106.232,290.996 105.83,291.197 104.926,293.608 C103.62,296.923 103.62,306.465 104.825,307.771 C105.428,308.274 100.405,308.675 91.063,308.776 C82.927,308.776 72.38,309.178 67.457,309.68 C59.12,310.484 58.517,310.383 56.207,308.173 C54.901,306.968 52.992,303.653 51.988,300.84 C50.883,297.726 49.175,295.215 47.568,294.21 C41.642,290.594 35.916,281.051 39.633,281.051 C40.235,281.051 40.034,279.746 39.13,278.038 C35.514,271.107 38.628,264.376 47.066,260.459 C50.381,258.952 54.399,257.948 57.111,257.948 C59.622,257.948 63.64,257.144 65.951,256.24 C68.964,255.035 73.083,254.432 79.512,254.432 C89.557,254.432 93.072,255.838 95.684,261.263 C97.291,264.577 97.693,264.577 105.729,261.363 C109.345,259.957 112.861,259.153 113.765,259.454 C116.779,260.76 129.436,263.171 135.764,263.673 C145.608,264.477 203.267,260.057 205.879,258.349 C208.39,256.742 212.81,256.34 216.125,257.445 C217.933,258.048 218.737,257.445 220.846,254.03 C222.252,251.82 223.458,249.51 223.458,248.907 C223.458,247.3 220.846,247.702 217.129,249.912 C214.719,251.318 212.71,251.82 211.002,251.318 C209.596,251.017 206.883,251.318 204.774,251.921 C200.555,253.327 196.838,252.021 195.733,248.606 C194.829,245.693 196.135,245.09 204.874,244.186 C212.71,243.382 212.81,243.382 216.225,238.962 C219.741,234.241 220.143,230.625 217.129,230.022 C216.125,229.821 212.207,231.529 208.39,233.839 L201.359,237.958 L196.336,235.748 C187.396,231.931 187.295,228.616 196.135,227.31 C199.852,226.707 200.455,226.406 198.847,225.803 L196.838,225 L198.847,224.297 C199.952,223.895 202.062,222.087 203.569,220.379 C205.778,217.767 206.984,217.265 210.5,217.265 C214.116,217.265 215.02,216.863 216.125,214.754 C216.828,213.347 217.431,210.535 217.431,208.325 C217.431,202.9 220.846,197.878 226.07,195.568 C229.284,194.061 230.59,192.855 231.494,190.244 C232.197,188.034 233.905,186.025 236.115,184.719 C238.827,183.112 239.53,182.007 239.53,179.696 C239.53,175.779 241.84,174.272 253.392,170.555 C262.433,167.642 263.839,167.14 268.761,164.428 C275.19,160.912 277.701,158.803 278.605,156.291 C279.208,154.483 280.514,153.278 282.423,152.876 C283.929,152.474 286.24,151.369 287.445,150.264 C289.153,148.657 289.956,148.456 291.764,149.461 C293.673,150.465 294.376,150.264 296.888,147.853 C298.495,146.246 300.303,143.233 301.006,140.922 C301.609,138.712 303.216,135.9 304.522,134.594 C306.531,132.786 306.832,131.781 306.33,129.37 C305.727,126.859 306.229,125.654 308.841,122.741 C311.754,119.325 311.855,119.024 310.348,117.015 C306.933,112.193 306.43,110.486 308.138,107.974 C308.942,106.668 311.152,105.162 313.06,104.659 C316.174,103.755 316.375,103.354 316.375,99.336 C316.375,93.61 318.585,92.003 322.904,94.514 C326.32,96.623 327.927,96.121 327.927,93.007 C327.927,91.802 328.429,89.391 329.132,87.583 C330.036,84.971 329.936,82.661 328.73,76.433 C327.425,69.803 327.425,68.095 328.53,65.182 C329.635,62.671 329.735,60.361 329.032,55.941 C327.826,48.909 327.123,47.503 322.503,43.083 C317.882,38.563 317.48,33.239 321.398,30.024 C324.813,27.413 333.552,27.312 339.278,29.924 C344.3,32.234 348.318,32.435 349.926,30.527 C352.236,27.814 352.437,18.171 350.428,10.235 C348.72,3.103 348.72,2.702 350.428,0.994 C352.136,-0.613 352.336,-0.513 355.35,3.103 C357.962,6.117 359.268,6.82 362.181,6.82 C364.491,6.82 366.4,7.523 367.605,8.829 C368.61,10.035 370.92,11.843 372.728,12.948 C375.139,14.454 376.445,16.263 377.751,20.381 C379.358,25.705 379.358,26.107 377.65,29.924 C375.641,34.344 375.942,37.558 379.358,45.795 C381.568,51.019 382.472,51.923 383.677,50.014 C384.28,49.01 387.796,33.339 390.809,17.267 C392.517,8.528 395.932,1.295 398.243,1.295 C400.252,1.295 402.261,5.615 402.261,9.834 C402.261,11.742 401.557,16.765 400.754,20.883 C396.234,42.681 396.234,45.695 400.754,43.987 C407.484,41.476 417.328,44.087 418.835,48.909 C419.136,50.014 419.036,52.525 418.433,54.534 C417.63,57.648 417.931,59.055 421.045,65.885 C423.054,70.104 425.465,74.625 426.369,75.83 C427.373,77.136 428.478,80.953 428.88,84.871 C429.684,92.605 432.798,99.336 437.418,103.655 C439.126,105.262 442.843,109.883 445.555,113.901 C448.267,117.919 451.381,121.736 452.386,122.238 C453.39,122.841 454.796,124.75 455.399,126.457 C456.002,128.165 457.81,131.078 459.518,132.987 C463.234,137.306 463.335,138.612 459.618,141.625 C456.605,144.036 451.682,154.684 442.341,178.591 C441.035,182.007 440.733,190.645 441.236,209.731 C441.336,214.452 441.336,219.174 441.236,220.178 C441.035,221.484 441.838,222.689 443.446,223.493 C445.856,224.799 445.856,224.799 442.341,224.196 C439.829,223.794 437.619,224.196 435.61,225.201 C433.903,226.105 430.487,226.808 428.077,226.808 C424.661,226.808 423.154,227.411 421.346,229.319 C419.136,231.629 419.036,232.132 420.241,235.447 C420.944,237.456 421.246,240.57 420.844,242.78 C420.442,245.291 420.744,247.903 421.748,250.414 C424.159,256.14 423.858,257.948 420.442,257.948 C416.123,257.948 414.917,260.057 415.721,266.386 C416.022,269.5 415.822,273.116 415.219,274.622 C414.415,276.832 414.616,278.239 415.922,281.252 C417.429,284.768 417.529,285.27 416.123,286.375 C413.612,288.284 413.009,292.804 414.917,295.516 C415.721,296.923 416.324,299.233 416.123,300.84 C415.822,303.452 415.52,303.653 412.205,303.352 C409.091,303.151 408.288,303.552 406.178,306.666 C403.165,311.086 402.16,311.488 397.841,309.68 C395.832,308.876 392.919,308.173 391.311,308.173 C386.791,308.173 385.887,310.785 386.691,321.433 C387.494,331.377 387.092,332.281 381.97,332.281 C378.454,332.281 377.148,334.793 377.148,341.623 C377.148,346.847 377.349,347.249 381.467,350.563 C383.778,352.472 386.791,354.682 388.097,355.285 C389.403,355.988 392.818,358.8 395.631,361.412 C398.443,364.124 403.064,367.941 405.776,370.051 C414.516,376.58 429.282,390.945 430.889,394.36 C432.195,396.871 432.295,398.378 431.492,401.392 C429.885,407.117 430.186,411.437 432.396,413.647 C434.204,415.455 434.304,415.756 432.597,420.578 C430.487,426.605 424.862,431.929 405.576,446.193 C388.7,458.649 382.572,461.26 372.125,460.457 C362.181,459.653 353.642,458.247 351.131,456.841 C349.926,456.238 348.72,454.631 348.419,453.224 C347.414,449.206 348.821,439.764 350.93,436.851 C351.935,435.445 356.907,432.456 356.807,431.351 C356.706,430.246 349.725,424.998 346.611,418.669 C343.396,412.341 340.584,405.611 340.182,403.702 C339.78,401.793 338.575,399.784 337.47,399.182 C334.858,397.675 333.954,396.369 334.255,394.461 C334.456,393.054 333.954,392.552 332.548,392.552 C332.246,392.552 332.548,393.958 333.15,395.666 C334.054,398.177 333.853,398.88 332.447,399.985 C330.94,401.09 330.74,402.095 331.342,405.711 C331.744,408.122 333.351,422.989 334.958,438.759 C337.671,466.383 337.771,467.488 335.963,469.397 C332.949,472.812 331.744,476.027 332.347,479.141 C332.648,480.848 332.648,483.862 332.347,485.971 L331.744,489.889 L323.005,491.898 C291.162,499.331 263.437,501.843 251.283,498.628 z M397.037,292.905 C399.247,290.695 398.443,287.078 395.631,286.074 C392.517,284.868 391.211,285.471 391.211,288.183 C391.211,292.905 394.425,295.516 397.037,292.905 z M399.749,268.997 C398.946,262.468 397.941,261.263 393.823,262.367 C390.307,263.272 388.197,265.682 388.197,268.897 C388.197,271.91 390.006,274.02 394.727,276.431 C399.348,278.841 400.653,276.933 399.749,268.997 z M273.583,249.51 C275.391,247.601 275.692,246.396 275.19,243.985 C274.788,242.277 274.186,240.67 273.683,240.369 C272.377,239.565 266.652,246.094 266.652,248.505 C266.652,252.724 270.168,253.226 273.583,249.51 z M439.93,160.711 C441.436,156.994 443.747,151.57 445.053,148.557 C447.363,143.534 447.464,143.032 445.957,140.721 C444.55,138.712 444.048,138.511 442.843,139.516 C440.432,141.424 438.523,145.744 435.409,156.09 C433.099,163.524 432.697,166.135 433.501,167.743 C435.008,170.555 436.715,168.747 439.93,160.711 z M422.25,152.173 C423.556,150.465 428.378,137.909 428.378,135.9 C428.378,135.096 427.775,134.393 427.072,134.393 C424.762,134.393 414.315,146.447 414.315,149.059 C414.315,152.575 420.04,154.784 422.25,152.173 z M400.051,136.201 C403.265,132.987 400.151,127.361 395.129,127.361 C391.01,127.361 390.508,129.672 393.622,133.891 C396.535,137.607 398.042,138.21 400.051,136.201 z M423.154,129.37 C428.378,124.348 431.391,120.732 431.19,119.627 C430.688,116.714 428.579,117.115 427.876,120.229 C427.373,122.841 426.369,123.645 422.351,125.051 C418.433,126.457 417.228,127.361 416.826,129.471 C416.525,130.978 415.319,132.987 414.214,133.991 C413.21,134.895 412.306,136.101 412.306,136.603 C412.306,138.813 415.52,136.703 423.154,129.37 z M385.184,126.357 C384.581,125.252 383.677,124.348 383.175,124.348 C382.572,124.348 382.17,125.252 382.17,126.357 C382.17,127.663 382.874,128.366 384.179,128.366 C385.988,128.366 386.088,128.064 385.184,126.357 z M334.657,121.133 C335.762,119.727 334.456,106.066 333.05,103.253 C331.543,100.44 328.931,101.043 325.014,104.961 C322.603,107.372 320.594,110.586 319.891,113.198 C318.083,120.129 318.484,120.732 325.918,121.435 C329.534,121.736 332.749,122.037 333.05,122.138 C333.452,122.238 334.155,121.736 334.657,121.133 z M384.983,105.061 C386.691,101.043 386.791,100.139 385.586,99.135 C382.974,97.025 381.166,99.838 381.166,106.066 C381.166,112.394 381.869,112.193 384.983,105.061 z M361.076,90.496 C361.076,86.578 357.962,80.149 356.053,80.149 C354.546,80.149 354.848,84.167 356.656,89.491 C358.665,95.317 361.076,95.82 361.076,90.496 z M358.062,63.675 C358.062,62.269 357.56,60.863 357.058,60.561 C355.752,59.758 354.647,62.57 355.45,64.579 C356.354,66.99 358.062,66.287 358.062,63.675 z M348.519,54.534 C348.519,51.219 348.218,50.516 346.51,50.516 C344.3,50.516 343.497,52.927 344.401,56.644 C344.903,58.352 345.606,59.055 346.812,58.854 C348.118,58.653 348.519,57.548 348.519,54.534 z" fill="#000000"/>
  </g>
</svg>
