<?xml version="1.0" encoding="UTF-8"?>
<!DOCTYPE svg PUBLIC "-//W3C//DTD SVG 1.1//EN" "http://www.w3.org/Graphics/SVG/1.1/DTD/svg11.dtd">
<svg version="1.1" xmlns="http://www.w3.org/2000/svg" xmlns:xlink="http://www.w3.org/1999/xlink" x="0" y="0" width="500" height="500" viewBox="0, 0, 500, 500">
  <g id="Layer_2">
    <path d="M249.984,500 L153.583,430.19 L186.21,361.918 L147.49,357.362 L147.49,353.547 L190.708,346.715 L190.708,340.622 L166.964,298.428 C166.338,297.233 166.679,295.809 167.704,295.012 L175.562,290.571 L145.554,199.408 L152.843,194.966 L136.159,124.416 L140.714,121.398 L133.767,83.419 L136.159,81.995 L134.223,58.023 L147.49,50.792 L153.013,78.294 L157.626,78.636 L163.035,115.306 L169.754,115.021 L184.73,170.71 L178.637,100.9 L183.932,100.159 L179.377,55.404 L183.932,55.404 L184.673,19.759 L199.079,17.481 L202.894,55.404 L207.449,56.144 L208.987,96.344 L213.542,96.344 L223.393,149.47 L224.93,81.198 L230.226,81.198 L228.688,34.165 L232.503,34.165 L236.318,0 L252.717,0 L253.742,31.887 L258.07,31.887 L257.557,81.027 L263.081,81.198 L263.081,169.229 L270.483,97.142 L276.291,97.882 L276.291,48.571 L281.245,48.4 L282.668,13.21 L298.612,15.203 L300.719,48.856 L303.737,50.108 L305.331,98.85 L309.829,100.387 L306.128,175.265 C306.128,175.265 314.498,178.283 314.498,189.671 C314.498,201.059 334.997,150.211 334.997,150.211 L334.997,118.324 C334.997,118.324 344.108,102.38 349.403,103.918 C354.699,105.455 360.051,150.211 360.051,150.211 C360.051,150.211 364.607,150.211 366.144,155.506 C367.681,160.802 348.72,207.095 348.72,207.095 C348.72,207.095 350.998,209.373 349.46,216.946 C347.923,224.519 322.926,288.293 322.926,288.293 C322.926,288.293 334.314,291.311 335.054,296.663 C335.794,301.959 311.537,341.419 311.537,341.419 L351.738,351.27 L351.738,357.362 L311.936,363.512 L344.165,429.393 L249.984,500 z" fill="#000000"/>
    <path d="M249.984,500 L153.583,430.19 L186.21,361.918 L147.49,357.362 L147.49,353.547 L190.708,346.715 L190.708,340.622 L166.964,298.428 C166.338,297.233 166.679,295.809 167.704,295.012 L175.562,290.571 L145.554,199.408 L152.843,194.966 L136.159,124.416 L140.714,121.398 L133.767,83.419 L136.159,81.995 L134.223,58.023 L147.49,50.792 L153.013,78.294 L157.626,78.636 L163.035,115.306 L169.754,115.021 L184.73,170.71 L178.637,100.9 L183.932,100.159 L179.377,55.404 L183.932,55.404 L184.673,19.759 L199.079,17.481 L202.894,55.404 L207.449,56.144 L208.987,96.344 L213.542,96.344 L223.393,149.47 L224.93,81.198 L230.226,81.198 L228.688,34.165 L232.503,34.165 L236.318,0 L252.717,0 L253.742,31.887 L258.07,31.887 L257.557,81.027 L263.081,81.198 L263.081,169.229 L270.483,97.142 L276.291,97.882 L276.291,48.571 L281.245,48.4 L282.668,13.21 L298.612,15.203 L300.719,48.856 L303.737,50.108 L305.331,98.85 L309.829,100.387 L306.128,175.265 C306.128,175.265 314.498,178.283 314.498,189.671 C314.498,201.059 334.997,150.211 334.997,150.211 L334.997,118.324 C334.997,118.324 344.108,102.38 349.403,103.918 C354.699,105.455 360.051,150.211 360.051,150.211 C360.051,150.211 364.607,150.211 366.144,155.506 C367.681,160.802 348.72,207.095 348.72,207.095 C348.72,207.095 350.998,209.373 349.46,216.946 C347.923,224.519 322.926,288.293 322.926,288.293 C322.926,288.293 334.314,291.311 335.054,296.663 C335.794,301.959 311.537,341.419 311.537,341.419 L351.738,351.27 L351.738,357.362 L311.936,363.512 L344.165,429.393 L249.984,500 z" fill-opacity="0" stroke="#000000" stroke-width="1" stroke-miterlimit="10"/>
  </g>
</svg>
