<?xml version="1.0" encoding="UTF-8"?>
<!DOCTYPE svg PUBLIC "-//W3C//DTD SVG 1.1//EN" "http://www.w3.org/Graphics/SVG/1.1/DTD/svg11.dtd">
<svg version="1.1" xmlns="http://www.w3.org/2000/svg" xmlns:xlink="http://www.w3.org/1999/xlink" x="0" y="0" width="500" height="500" viewBox="0, 0, 500, 500">
  <g id="layer102">
    <path d="M86.677,482.731 C86.3,478.953 87.81,469.132 90.077,460.82 C92.344,452.512 96.122,424.561 98.765,398.497 C102.919,354.3 104.43,349.012 119.919,318.417 C129.36,299.907 138.425,285.175 140.315,285.175 C142.582,285.175 143.716,297.264 143.336,313.883 C142.582,347.125 142.582,347.125 175.445,351.279 C207.173,355.056 206.796,354.68 207.553,378.854 C207.93,397.363 214.728,445.711 221.905,478.953 L223.792,489.152 L264.966,489.152 L306.139,489.152 L303.495,471.399 C298.961,437.023 260.055,327.859 244.946,307.085 C242.302,303.685 241.549,299.531 242.682,298.02 C244.946,295.753 301.985,301.041 333.337,306.328 C346.179,308.595 347.313,308.219 348.446,298.02 C349.58,285.555 345.802,285.932 402.462,292.729 C423.238,295.373 442.125,298.774 444.012,300.284 C446.279,301.798 459.121,304.441 472.72,305.952 L497.65,308.595 L499.537,296.507 C502.561,276.867 491.229,271.199 451.566,272.71 C445.522,273.09 419.838,270.066 394.907,266.289 C369.976,262.134 342.025,257.98 332.203,257.224 C322.759,256.09 308.406,253.07 300.095,250.426 C288.386,246.269 285.743,243.625 286.496,237.204 C287.253,232.67 285.743,225.495 283.852,221.338 C278.565,211.52 285.366,175.257 293.674,169.213 C298.585,165.435 298.961,162.792 295.941,155.99 C293.674,151.08 289.143,137.484 285.743,125.772 C282.342,113.687 275.544,99.331 270.633,93.287 C263.079,84.599 261.945,80.068 263.456,66.092 C265.723,45.692 261.945,41.538 228.703,28.696 C216.238,23.786 201.885,17.364 196.975,14.341 C190.554,10.187 187.153,9.81 184.133,12.83 C178.845,18.118 134.271,18.118 124.45,13.207 C120.672,10.943 117.275,10.563 117.275,12.454 C117.275,14.341 111.607,18.118 105.186,20.765 C98.385,23.786 90.077,27.94 87.053,30.207 C84.033,32.85 74.968,37.004 67.033,40.028 C59.479,42.672 53.058,47.206 53.058,49.85 C53.058,52.494 51.171,54.761 48.904,54.761 C46.26,54.761 45.503,59.291 47.017,67.603 C48.904,78.178 47.77,82.335 39.839,91.023 C34.551,96.687 26.617,113.307 22.086,128.039 C17.929,142.772 12.641,157.124 10.374,159.391 C8.107,162.792 8.487,164.679 11.884,166.189 C37.195,174.877 37.949,175.634 37.949,186.209 C37.949,191.876 36.062,198.674 33.795,200.941 C26.997,207.742 31.528,225.872 41.726,231.159 C48.147,234.183 50.794,238.714 51.171,246.269 C51.171,254.957 53.438,257.6 64.39,261.378 C82.523,267.045 81.012,273.466 51.171,330.502 C38.705,353.546 2.82,465.354 5.463,472.152 C6.597,475.176 5.843,478.577 3.953,479.707 C-7.002,486.508 4.33,489.152 43.993,489.152 C83.276,489.152 87.433,488.395 86.677,482.731 z" fill="#000000"/>
  </g>
</svg>
