<?xml version="1.0" encoding="UTF-8"?>
<!DOCTYPE svg PUBLIC "-//W3C//DTD SVG 1.1//EN" "http://www.w3.org/Graphics/SVG/1.1/DTD/svg11.dtd">
<svg version="1.1" xmlns="http://www.w3.org/2000/svg" xmlns:xlink="http://www.w3.org/1999/xlink" x="0" y="0" width="500" height="500" viewBox="0, 0, 500, 500">
  <g id="layer101">
    <path d="M235.007,497.227 C217.93,494.478 215.378,493.693 215.378,490.553 C215.378,486.823 206.937,481.327 203.404,482.701 C201.637,483.29 197.515,480.542 193.001,476.027 C183.186,465.82 181.42,455.613 188.486,447.957 C193.59,442.461 193.982,441.087 197.712,419.103 C200.263,405.166 198.301,400.259 192.804,405.951 C188.879,409.877 185.542,410.466 163.753,411.84 C147.657,413.018 146.283,412.821 141.965,408.503 C136.665,403.203 133.524,383.378 136.665,375.133 C138.039,371.404 138.039,368.067 136.665,364.534 C135.487,361.393 134.31,351.579 133.721,342.353 C132.936,325.472 131.365,322.331 125.869,326.846 C118.017,333.323 115.073,343.727 115.858,362.571 C116.251,373.956 117.625,383.181 119.784,387.5 C121.551,391.229 125.28,400.455 128.028,407.914 C132.936,421.262 132.936,421.654 129.795,431.273 C127.636,437.554 123.514,444.228 118.214,449.135 C113.699,453.65 109.184,458.557 108.203,460.128 C105.455,464.839 83.47,482.505 77.385,485.253 C70.515,488.197 57.364,488.197 41.268,485.253 C30.668,483.29 28.116,482.112 25.761,477.597 C24.19,474.457 23.013,470.531 23.013,468.568 C23.209,462.876 28.312,450.313 32.238,445.995 C35.183,442.658 35.771,438.143 36.164,421.066 C37.342,372.582 36.557,345.297 33.612,337.249 C31.846,332.931 30.864,326.257 31.257,322.527 C31.846,316.442 32.435,315.854 38.716,315.461 C42.445,315.265 46.764,315.068 48.138,315.068 C49.316,314.872 50.493,312.909 50.493,310.357 C50.493,307.806 51.867,304.076 53.438,301.917 C57.56,296.617 57.167,294.262 50.69,286.802 C47.549,283.269 43.427,276.595 41.66,272.081 C39.108,265.603 36.949,263.444 32.042,262.266 C27.527,261.088 25.368,258.929 23.994,254.414 C22.816,250.881 19.087,245.189 15.75,241.852 C10.843,236.552 9.468,233.019 8.291,223.597 C7.702,217.119 5.935,208.875 4.757,205.342 C2.991,200.042 3.187,197.097 5.935,189.442 C10.843,175.309 10.254,166.083 3.972,159.41 C-0.935,154.306 -0.935,153.717 2.009,150.38 C3.776,148.417 5.346,144.688 5.346,142.136 C5.346,139.584 7.506,133.892 10.057,129.573 C12.609,125.059 15.357,118.385 16.142,114.655 C16.928,110.926 19.872,104.644 22.816,100.915 C25.957,97.185 29.883,91.1 31.649,87.567 C35.379,80.304 47.745,70.686 57.364,67.545 C60.897,66.368 66,62.638 68.748,59.105 C71.3,55.572 80.722,48.898 89.555,43.99 C101.529,37.316 105.259,34.372 104.081,32.213 C103.296,30.643 102.707,25.932 102.707,21.613 C102.51,15.528 103.492,13.173 107.81,10.032 C113.11,6.106 113.306,6.106 121.354,9.639 L129.402,13.369 L134.702,7.088 C139.609,1.199 140.591,0.806 152.957,0.806 C166.698,0.806 170.624,2.769 173.175,10.817 C174.746,15.528 170.035,23.576 164.342,25.343 C159.435,26.913 159.239,33.391 164.146,36.139 C166.305,37.12 175.334,37.905 184.364,37.905 C193.197,37.905 206.348,38.69 213.415,39.868 C244.822,44.972 251.888,47.524 260.329,56.553 C263.077,59.301 268.573,62.638 272.499,63.619 C276.621,64.797 282.509,67.742 285.454,70.293 C288.398,72.845 297.624,76.771 305.672,79.323 C321.375,84.034 322.945,85.408 336.686,104.448 C348.463,121.329 353.371,132.91 351.996,141.743 C351.211,145.669 351.604,152.147 352.782,155.876 C354.156,160.587 353.959,166.28 352.389,174.917 L350.034,187.479 L357.1,194.742 C361.026,198.668 365.541,204.949 367.307,208.286 C369.27,212.016 373.785,216.334 378.496,218.689 C385.366,222.223 387.329,222.615 393.61,220.456 C397.536,219.082 405.977,213.782 412.258,208.679 C427.372,196.116 433.065,195.92 439.739,207.501 C442.487,212.212 445.431,218.493 446.216,221.438 C446.805,224.186 449.749,227.915 452.694,229.289 C463.49,234.982 465.649,239.496 465.06,254.414 L464.668,267.959 L474.875,278.362 C486.849,290.336 500,308.591 500,312.909 C500,314.48 498.233,318.405 496.27,321.35 C493.522,325.668 492.934,328.612 494.111,333.52 C496.663,345.297 494.7,346.082 463.686,346.671 L436.205,347.26 L423.643,340.39 C407.351,331.557 377.907,304.076 378.692,298.384 C379.477,293.476 389.881,286.214 400.284,283.269 C408.921,281.11 409.314,277.577 401.069,274.632 C396.162,272.866 394.984,273.651 386.936,282.288 L378.103,291.71 L364.952,290.336 C357.689,289.551 349.445,287.391 346.5,285.821 C342.182,283.269 339.434,283.073 333.545,284.643 C324.319,287.195 314.701,284.84 310.579,279.147 C306.85,273.651 306.85,263.836 310.579,258.733 C315.683,252.059 313.916,247.152 302.924,236.552 C295.072,229.289 290.557,226.541 286.632,226.541 C279.565,226.541 266.806,217.904 264.254,211.623 C263.273,208.875 262.488,203.182 262.488,198.864 C262.488,190.424 259.74,183.357 256.403,183.357 C253.262,183.357 250.514,193.368 249.533,208.482 C249.14,216.53 247.766,224.578 246.784,226.541 C243.644,232.43 244.429,240.87 250.121,257.163 C252.869,265.799 255.225,275.221 254.832,278.362 C254.636,281.306 256.795,288.765 259.74,294.654 C262.488,300.739 266.414,309.376 268.573,314.087 C271.321,320.957 273.087,322.724 276.817,322.724 C284.472,322.724 287.024,327.435 284.276,336.072 C282.509,341.175 282.117,355.112 282.706,382.593 C283.883,431.469 286.828,462.876 290.95,469.157 C294.68,474.849 294.876,486.431 291.146,489.375 C286.828,493.104 262.291,499.386 253.655,499.189 C249.336,498.993 240.896,498.208 235.007,497.227 z M201.441,369.441 C201.637,362.178 200.852,360.019 198.693,360.019 C193.786,360.019 193.001,365.123 195.945,378.274 C198.301,389.266 198.693,389.855 199.871,384.555 C200.656,381.415 201.245,374.545 201.441,369.441 z" fill="#000000"/>
  </g>
</svg>
