<?xml version="1.0" encoding="UTF-8"?>
<!DOCTYPE svg PUBLIC "-//W3C//DTD SVG 1.1//EN" "http://www.w3.org/Graphics/SVG/1.1/DTD/svg11.dtd">
<svg version="1.1" xmlns="http://www.w3.org/2000/svg" xmlns:xlink="http://www.w3.org/1999/xlink" x="0" y="0" width="500" height="500" viewBox="0, 0, 500, 500">
  <g id="layer102">
    <path d="M205.87,142.47 C205.028,142.508 204.458,143.079 203.896,143.631 C203.01,144.665 201.728,145.158 198.082,145.946 C192.169,147.227 189.311,148.607 188.326,150.677 C187.439,152.549 186.01,153.19 184.877,152.155 C183.448,150.972 182.216,150.775 181.033,151.564 C179.752,152.401 179.506,153.781 180.442,155.21 C180.885,155.949 180.689,156.688 179.456,159.201 C178.57,160.926 177.88,162.601 177.88,162.946 C177.88,163.882 176.599,164.129 175.564,163.39 C175.071,162.995 174.135,162.65 173.544,162.65 C172.903,162.65 171.819,162.207 171.129,161.665 C169.651,160.532 167.631,160.384 167.237,161.369 C167.089,161.763 166.645,162.207 166.202,162.355 C165.364,162.7 161.471,161.517 159.796,160.384 C159.008,159.891 157.037,159.694 152.454,159.694 C147.28,159.694 145.95,159.842 144.669,160.581 C143.831,161.073 142.156,161.813 140.973,162.157 C138.904,162.847 138.756,162.798 138.066,161.763 C137.13,160.334 134.765,160.285 134.026,161.665 C133.632,162.404 132.991,162.65 131.562,162.65 C130.527,162.65 129.493,162.897 129.345,163.143 C129.197,163.439 128.704,163.636 128.31,163.636 C127.768,163.636 127.62,162.897 127.571,160.581 C127.571,158.856 127.275,156.688 126.93,155.752 C126.339,154.175 126.142,154.027 124.368,154.027 C122.545,154.027 122.446,154.126 122.298,155.653 L122.151,157.23 L117.913,157.23 C112.197,157.23 110.078,156.294 109.734,153.584 C109.586,152.401 108.945,151.169 108.157,150.381 L106.876,149.1 L105.939,150.184 C104.954,151.416 103.969,151.613 103.081,150.726 C102.441,150.085 101.16,150.923 100.47,152.549 C100.224,153.091 99.829,153.88 99.583,154.274 C99.336,154.668 98.942,155.653 98.745,156.491 C98.499,157.28 97.76,158.216 97.119,158.511 C95.69,159.25 95.099,160.088 95.099,161.566 C95.099,162.601 94.951,162.65 90.172,162.65 C84.357,162.65 84.062,162.897 83.618,168.169 C83.372,170.731 83.471,171.471 84.012,171.717 C85.096,172.111 84.899,173.491 83.815,173.491 C83.273,173.491 82.682,173.737 82.534,173.984 C82.387,174.279 80.514,174.476 78.444,174.476 C74.404,174.476 71.743,175.462 72.877,176.595 C73.566,177.285 73.616,189.554 72.926,189.998 C71.989,190.589 72.433,191.722 73.911,192.461 C74.897,192.954 76.818,193.2 80.317,193.2 L85.244,193.2 L85.244,196.157 C85.244,199.754 84.751,200.099 79.923,200.099 C76.67,200.099 76.325,200 74.305,198.325 C73.172,197.339 72.137,196.354 72.039,196.107 C71.793,195.467 66.52,191.574 64.894,190.885 C64.155,190.54 63.071,190.047 62.43,189.801 C59.178,188.519 58.636,188.273 58.636,187.829 C58.636,187.583 58.291,186.992 57.848,186.597 C57.207,185.957 55.729,185.809 49.274,185.809 L41.44,185.809 L40.454,187.189 C39.863,188.027 38.483,188.963 37.104,189.456 C34.048,190.589 31.535,191.87 31.535,192.314 C31.535,192.461 31.092,192.806 30.501,192.954 C29.958,193.151 27.988,194.728 26.165,196.452 C22.961,199.458 22.814,199.557 21.73,198.818 C21.04,198.325 20.104,198.128 19.217,198.325 C18.429,198.473 17.64,198.374 17.492,198.128 C17.345,197.832 16.408,197.635 15.521,197.635 L13.846,197.635 L13.698,192.855 L13.55,188.027 L2.217,188.027 L2.069,193.053 C1.971,197.537 1.823,198.128 0.985,198.374 C0,198.67 0,199.261 0,225.771 C0,248.979 0.098,252.822 0.69,252.822 C1.724,252.822 2.168,253.808 1.527,254.448 C0.197,255.779 1.675,261.544 4.238,264.894 C5.519,266.619 10.298,270.068 11.333,270.068 C11.628,270.068 12.072,270.61 12.318,271.3 C12.565,271.99 13.057,272.63 13.402,272.729 C15.669,273.32 18.379,274.306 20.941,275.488 C22.567,276.227 25.228,277.361 26.854,277.952 C28.48,278.593 31.042,279.726 32.57,280.514 C34.098,281.253 35.625,281.894 36.019,281.894 C36.364,281.894 37.399,282.387 38.286,283.027 C39.666,283.964 39.912,284.407 39.912,286.082 C39.912,287.216 40.158,288.349 40.503,288.694 C40.947,289.137 40.947,289.433 40.503,289.877 C40.06,290.32 39.567,290.221 38.286,289.532 C36.906,288.793 36.463,288.743 35.527,289.285 C34.639,289.729 34.443,290.172 34.64,291.157 C34.984,292.931 33.654,298.204 32.669,298.894 C32.028,299.387 31.979,299.781 32.373,300.963 C33.21,303.279 35.428,306.531 36.216,306.531 C37.251,306.531 37.596,307.468 36.906,308.305 C36.611,308.699 35.576,309.389 34.64,309.783 C33.753,310.227 32.718,311.064 32.422,311.606 C31.979,312.444 32.126,312.74 33.21,313.577 C34.886,314.76 36.709,318.16 36.709,320.032 C36.709,321.314 37.005,321.56 39.173,322.348 C40.503,322.792 42.376,323.235 43.213,323.235 C44.741,323.284 44.839,323.383 44.839,325.157 C44.839,326.142 44.494,327.423 44.1,327.916 C43.657,328.507 43.509,329.345 43.706,330.134 C44.149,332.006 44.297,332.154 45.48,331.71 C46.909,331.168 52.083,332.942 52.723,334.125 C53.216,335.011 53.265,335.011 55.335,334.125 C58.341,332.745 59.129,332.843 59.129,334.568 C59.129,336.244 59.868,336.884 61.445,336.638 C62.085,336.588 62.578,336.736 62.578,337.032 C62.578,337.328 63.219,337.574 64.056,337.574 C65.042,337.574 65.535,337.82 65.535,338.313 C65.535,338.806 66.027,339.052 67.013,339.052 C67.801,339.052 68.491,339.299 68.491,339.545 C68.491,340.383 70.068,340.087 72.285,338.756 C74.601,337.426 75.488,337.525 75.34,339.2 C75.094,342.157 75.241,342.403 77.705,342.403 C80.366,342.403 83.471,343.585 84.16,344.768 C84.505,345.409 84.801,345.458 85.639,345.014 C86.23,344.719 87.166,344.275 87.708,343.98 C88.25,343.733 89.137,343.487 89.728,343.487 C90.566,343.487 90.714,343.684 90.517,344.571 C90.073,346.148 91.009,347.577 92.291,347.232 C93.916,346.837 98.992,348.464 99.337,349.498 C99.681,350.632 100.864,350.632 102.885,349.4 C105.447,347.823 106.334,348.069 106.235,350.385 C106.186,352.751 107.023,353.785 108.157,352.849 C108.748,352.356 109.191,352.356 110.177,352.8 C110.867,353.095 111.803,353.342 112.296,353.342 C112.789,353.342 113.774,353.835 114.513,354.376 L115.843,355.411 L119.046,354.376 C123.038,353.095 122.988,353.046 123.333,354.721 C123.53,355.46 123.875,356.397 124.171,356.791 C124.614,357.431 124.762,357.431 125.353,356.692 C125.698,356.199 126.191,355.805 126.388,355.805 C126.585,355.805 127.078,356.199 127.423,356.692 C128.064,357.481 128.162,357.481 128.852,356.594 C129.591,355.608 129.591,355.608 130.281,356.544 C130.922,357.481 131.02,357.481 131.907,356.692 C132.794,355.854 132.892,355.854 133.73,356.692 C134.42,357.333 134.716,357.382 134.863,356.889 C135.159,356.101 138.066,353.342 138.608,353.342 C138.805,353.342 139.298,354.229 139.742,355.313 C140.628,357.481 141.367,357.776 142.304,356.298 C143.191,354.869 147.576,354.919 149.054,356.298 L150.138,357.333 L152.306,355.313 C153.489,354.229 154.622,353.342 154.869,353.342 C155.066,353.342 155.559,354.229 156.002,355.313 C156.889,357.579 157.185,357.678 158.417,356.298 C159.057,355.559 159.944,355.313 161.718,355.313 C163.492,355.313 164.329,355.559 164.921,356.298 C165.413,356.84 165.955,357.283 166.202,357.283 C166.399,357.283 167.483,356.397 168.616,355.313 C170.193,353.835 170.834,353.49 171.326,353.884 C171.671,354.229 171.967,354.721 171.967,355.017 C171.967,355.362 172.263,356.052 172.657,356.594 C173.347,357.53 173.396,357.53 174.431,356.446 C175.219,355.559 176.007,355.313 177.88,355.313 C179.752,355.313 180.541,355.559 181.329,356.446 C182.265,357.382 182.462,357.431 182.955,356.791 C183.891,355.608 186.306,353.835 187.045,353.835 C187.439,353.835 187.735,354.13 187.735,354.475 C187.735,354.77 188.178,355.608 188.72,356.298 C189.607,357.481 189.706,357.481 190.494,356.692 C191.283,355.904 191.381,355.904 192.022,356.692 C192.613,357.481 192.711,357.481 193.451,356.544 C194.14,355.608 194.239,355.608 194.83,356.446 C195.619,357.481 196.407,357.53 196.801,356.495 C197.097,355.756 197.195,355.756 198.082,356.544 C198.969,357.382 199.068,357.333 200.694,355.608 C201.63,354.623 202.665,353.835 202.96,353.835 C203.305,353.835 203.896,354.623 204.291,355.559 C205.079,357.53 205.72,357.727 206.459,356.298 C206.902,355.46 207.494,355.313 209.908,355.313 C212.322,355.313 212.914,355.46 213.357,356.298 C213.653,356.84 214.195,357.283 214.589,357.283 C214.934,357.283 215.427,356.84 215.574,356.298 C215.722,355.756 216.117,355.313 216.363,355.313 C216.609,355.313 217.348,354.869 217.891,354.327 C219.27,353.046 219.862,353.292 220.354,355.214 C220.896,357.283 221.586,357.579 222.769,356.347 C224.148,354.869 228.189,354.869 229.568,356.347 L230.554,357.431 L235.481,353.292 L236.516,355.263 C237.65,357.579 237.945,357.678 239.128,356.298 C240.36,354.869 244.154,354.919 245.78,356.446 C246.913,357.53 246.962,357.53 247.652,356.594 C248.49,355.46 250.806,353.835 251.643,353.835 C251.988,353.835 252.284,354.13 252.284,354.475 C252.284,354.82 252.629,355.608 253.023,356.199 C253.762,357.185 253.91,357.234 254.945,356.544 C255.98,355.854 256.127,355.854 256.374,356.544 C256.768,357.53 258,357.481 258.443,356.446 C258.739,355.608 258.788,355.608 259.232,356.446 C259.823,357.481 261.104,357.53 261.498,356.544 C261.745,355.854 261.843,355.854 262.632,356.544 C263.469,357.333 263.666,357.234 265.588,355.313 C267.46,353.44 268.544,353.145 268.544,354.475 C268.544,354.82 268.988,355.608 269.53,356.298 L270.466,357.53 L271.254,356.446 C271.895,355.51 272.486,355.313 274.753,355.313 C277.019,355.313 277.66,355.51 278.448,356.446 C279.286,357.431 279.434,357.431 279.877,356.692 C280.518,355.608 283.672,353.686 284.263,354.031 C284.46,354.179 284.953,354.968 285.298,355.805 C285.988,357.481 286.382,357.628 287.268,356.544 C287.712,356.052 288.845,355.805 291.063,355.805 C293.378,355.805 294.266,356.003 294.463,356.544 C294.906,357.628 295.3,357.481 297.419,355.559 C298.454,354.623 299.538,353.835 299.883,353.835 C300.179,353.835 300.819,354.623 301.263,355.559 C302.248,357.53 302.494,357.628 303.677,356.298 C304.859,354.919 309.393,354.869 310.674,356.298 C311.512,357.234 311.561,357.234 313.63,355.559 C314.764,354.623 315.897,353.835 316.193,353.835 C316.439,353.835 317.03,354.623 317.523,355.608 C318.311,357.333 318.361,357.382 319.346,356.495 C320.282,355.658 320.332,355.658 321.022,356.594 C321.761,357.53 321.761,357.53 322.697,356.397 C323.633,355.313 323.682,355.313 323.978,356.298 C324.372,357.53 325.16,357.579 325.998,356.446 C326.589,355.608 326.688,355.608 327.329,356.495 C327.969,357.382 328.117,357.333 330.137,355.313 L332.256,353.194 L333.291,355.214 C334.375,357.431 335.311,357.875 335.804,356.298 C336.05,355.46 336.543,355.313 339.105,355.313 C341.52,355.313 342.209,355.51 342.899,356.347 L343.737,357.382 L345.658,355.608 C348.073,353.391 349.009,353.342 349.798,355.559 C350.487,357.53 350.832,357.678 352.064,356.298 C353.395,354.82 357.879,354.869 358.963,356.446 L359.751,357.53 L360.687,356.446 C361.18,355.805 361.771,355.313 361.968,355.313 C362.165,355.313 362.855,354.869 363.447,354.278 C364.777,353.046 365.417,353.342 365.861,355.313 C366.305,357.283 366.994,357.579 368.128,356.347 C369.507,354.919 373.942,354.869 375.223,356.298 C376.307,357.481 376.75,357.53 377.095,356.544 C377.391,355.805 381.235,352.849 381.974,352.849 C382.22,352.849 382.663,353.391 382.959,354.081 C383.501,355.313 385.029,355.756 385.571,354.82 C385.768,354.524 386.359,354.426 386.852,354.574 C387.394,354.77 388.133,354.623 388.527,354.327 C388.921,353.982 389.71,353.835 390.252,353.982 C390.744,354.13 391.434,353.933 391.779,353.539 C392.124,353.145 392.814,352.997 393.455,353.145 C394.391,353.391 394.736,353.095 395.721,351.124 C397.298,347.971 397.889,347.577 398.727,349.202 C399.811,351.469 400.846,351.765 402.225,350.287 C403.457,348.956 407.793,347.675 409.222,348.217 C410.208,348.611 411.637,347.33 412.425,345.409 C413.164,343.684 414.248,343.536 414.84,345.162 C415.529,346.887 416.712,347.084 417.944,345.704 C418.535,345.014 419.52,344.472 420.112,344.472 C420.753,344.472 421.837,344.226 422.526,343.881 C423.512,343.437 424.054,343.437 424.694,343.832 C425.828,344.521 426.271,344.226 427.897,341.664 C429.425,339.151 430.164,339.003 431.051,341.023 C431.79,342.649 433.367,342.994 433.712,341.614 C434.007,340.53 437.456,339.397 440.363,339.446 C441.94,339.496 442.482,339.299 442.729,338.608 C442.876,338.165 443.616,337.13 444.404,336.391 L445.784,335.061 L446.621,336.342 C447.509,337.722 448.789,337.968 449.184,336.835 C449.381,336.342 449.923,336.244 450.908,336.44 C451.894,336.638 452.337,336.49 452.337,336.095 C452.337,335.701 452.781,335.554 453.618,335.751 C454.456,335.899 455.146,335.652 455.786,335.011 C456.329,334.371 456.772,334.223 457.018,334.568 C457.61,335.554 458.152,335.11 459.728,332.4 C460.566,330.922 461.453,329.69 461.699,329.69 C461.946,329.69 462.537,330.528 463.03,331.563 C463.966,333.533 465.888,334.322 466.43,332.942 C466.922,331.71 471.456,329.591 472.983,329.936 C474.166,330.183 474.412,329.986 475.89,327.078 C477.27,324.467 477.418,323.728 477.024,322.644 C476.531,321.412 476.629,321.314 477.763,321.314 C478.403,321.314 479.635,321.806 480.424,322.348 C482.296,323.728 484.513,323.333 484.119,321.658 C483.971,321.018 484.267,319.885 484.858,318.85 C485.4,317.913 485.991,316.731 486.139,316.287 C486.336,315.795 486.731,315.401 487.125,315.401 C487.47,315.401 487.963,315.006 488.209,314.563 C488.85,313.331 487.322,307.566 486.238,306.975 C485.154,306.383 485.055,304.757 486.041,304.412 C486.435,304.264 487.519,304.215 488.406,304.363 C489.539,304.511 490.377,304.314 491.165,303.673 L492.299,302.786 L491.264,301.456 C490.426,300.421 490.18,299.337 490.081,296.381 C489.983,292.833 489.884,292.537 488.16,290.714 C486.829,289.285 485.942,288.793 484.858,288.793 C484.021,288.793 483.232,288.497 483.084,288.152 C482.739,287.265 483.725,284.851 484.415,284.85 C484.76,284.851 485.302,284.456 485.646,284.013 C486.484,282.88 486.534,280.367 485.696,280.465 C484.366,280.613 483.922,280.367 483.774,279.332 C483.676,278.593 483.232,278.149 482.493,278.051 C481.902,277.952 481.409,277.558 481.409,277.164 C481.409,276.77 480.916,276.474 480.226,276.474 C479.34,276.474 478.995,276.178 478.847,275.39 C478.699,274.355 478.502,274.257 475.742,274.454 C472.195,274.651 470.569,275.193 470.569,276.227 C470.569,276.622 470.125,276.967 469.583,276.967 C468.647,276.967 468.598,276.622 468.598,271.202 C468.598,264.205 469.386,261.051 471.111,260.804 C471.751,260.706 472.49,260.263 472.786,259.868 C473.476,258.932 475.792,259.376 478.058,260.903 C478.946,261.494 480.916,262.579 482.394,263.367 C483.873,264.155 485.45,265.141 485.893,265.584 C486.287,266.028 487.42,266.915 488.357,267.555 C490.18,268.787 495.206,274.848 495.206,275.833 C495.206,276.178 496.093,277.361 497.128,278.445 L499.049,280.465 L499.64,278.691 C500.183,277.016 500.133,275.587 499.345,271.546 C498.951,269.526 497.374,267.605 496.093,267.605 C495.6,267.605 494.368,266.866 493.333,265.929 C489.49,262.431 487.519,260.805 485.45,259.524 C484.316,258.834 483.38,257.897 483.38,257.503 C483.38,257.109 482.838,256.666 482.148,256.518 C481.458,256.37 480.374,256.173 479.734,256.025 C479.093,255.877 478.453,255.335 478.305,254.793 C478.108,254.005 477.664,253.808 476.038,253.808 C474.56,253.808 473.87,253.561 473.427,252.822 C472.737,251.689 471.653,251.59 468.253,252.379 C466.233,252.822 465.493,252.773 462.931,251.837 C461.305,251.245 458.94,250.408 457.659,249.964 C455.885,249.373 455.195,248.831 454.85,247.796 C454.554,247.008 453.766,246.17 452.978,245.825 C451.056,245.037 447.853,244.84 446.572,245.53 C445.291,246.17 443.961,245.776 443.961,244.692 C443.961,244.298 443.419,243.066 442.729,241.982 C441.546,240.109 441.497,239.715 441.497,232.176 C441.497,223.553 441.251,222.814 438.688,223.504 C437.9,223.701 434.993,223.997 432.184,224.095 C428.39,224.243 426.715,224.145 425.532,223.553 C424.694,223.159 423.413,222.962 422.723,223.11 C421.984,223.258 421.245,223.11 421.097,222.814 C420.654,222.124 418.683,222.124 418.092,222.716 C417.796,223.011 416.367,223.504 414.889,223.898 C413.411,224.292 411.341,224.982 410.257,225.426 C409.222,225.869 407.35,226.214 406.069,226.214 C404.049,226.214 403.654,226.362 402.915,227.692 C402.422,228.481 401.831,229.171 401.585,229.171 C400.698,229.171 397.643,227.101 397.643,226.51 C397.643,226.165 398.185,224.243 398.875,222.272 C400.008,218.922 400.057,218.577 399.318,217.788 C398.875,217.295 397.889,216.754 397.101,216.605 C395.623,216.261 395.524,216.064 395.672,213.797 C395.721,212.614 395.425,212.269 392.913,211.185 C388.823,209.362 387.344,209.362 386.31,211.185 C385.521,212.565 385.324,212.664 382.91,212.516 C379.953,212.319 379.116,212.812 378.672,215.029 C378.278,216.901 376.898,219.809 376.307,219.808 C376.11,219.809 375.814,219.513 375.666,219.118 C375.272,218.084 372.414,216.95 372.119,217.739 C372.02,218.084 371.33,218.33 370.591,218.33 C369.852,218.33 369.014,218.577 368.67,218.922 C367.98,219.611 361.476,219.513 360.096,218.774 C359.603,218.527 359.209,217.936 359.209,217.542 C359.209,215.521 354.282,213.846 353.592,215.62 C353.345,216.261 351.375,216.359 339.992,216.359 C330.285,216.359 326.688,216.211 326.688,215.768 C326.688,215.472 327.674,214.29 328.905,213.107 C330.827,211.333 331.123,210.791 331.123,209.017 L331.123,206.997 L351.916,206.849 C373.351,206.652 377.44,206.357 380.348,204.878 C381.284,204.435 382.959,204.041 384.092,204.041 C385.521,204.041 386.408,203.745 387.049,203.055 C387.887,202.119 388.675,202.07 400.796,201.971 L413.657,201.824 L413.657,174.723 L400.501,174.476 C387.492,174.23 387.295,174.23 386.556,173.146 C385.965,172.308 385.275,172.012 383.846,172.012 C382.762,172.012 381.185,171.717 380.298,171.323 C376.75,169.795 372.562,169.549 352.508,169.549 C341.421,169.549 332.108,169.352 331.812,169.155 C331.517,168.958 331.073,168.07 330.876,167.184 C330.581,165.706 330.433,165.607 328.413,165.607 C326.54,165.607 326.047,165.853 325.111,167.134 C324.076,168.514 323.781,168.613 322.007,168.317 C320.923,168.169 318.607,167.874 316.882,167.775 C314.665,167.578 313.187,167.135 311.955,166.297 C310.969,165.656 309.639,165.114 308.9,165.114 C307.126,165.114 304.416,166.543 304.17,167.627 C303.923,168.514 303.135,168.563 289.19,168.563 C279.927,168.563 274.408,168.366 274.211,168.07 C274.063,167.824 273.275,167.578 272.486,167.578 C270.959,167.578 270.022,166.494 270.022,164.67 C270.022,164.079 269.776,163.636 269.53,163.636 C269.234,163.636 269.037,163.34 269.037,162.946 C269.037,162.552 268.298,162.01 267.411,161.714 C266.475,161.369 265.145,160.482 264.356,159.694 L263.026,158.265 L261.252,159.989 C260.069,161.123 259.232,161.566 258.739,161.369 C258.295,161.172 257.507,161.073 256.965,161.123 C256.423,161.172 254.649,161.271 253.023,161.32 C251.397,161.418 249.574,161.763 248.933,162.108 C247.554,162.847 246.371,162.502 246.371,161.32 C246.322,160.334 243.316,158.216 241.986,158.216 C241.493,158.216 240.803,158.511 240.507,158.905 C239.719,159.842 237.157,160.285 232.081,160.384 L227.942,160.433 L226.563,157.969 C225.823,156.639 225.232,155.112 225.232,154.619 C225.183,153.485 224.148,151.761 222.966,150.824 C219.566,148.213 215.722,146.833 210.056,146.143 C207.641,145.848 207.494,145.749 207.346,144.271 C207.185,143.19 206.98,142.671 205.87,142.47 z M156.108,343.696 C156.76,343.776 157.391,343.902 157.973,344.226 C159.648,345.014 159.944,345.458 159.303,346.098 C158.712,346.739 156.79,346.443 156.002,345.655 C155.355,344.951 154.615,343.855 156.108,343.696 z M309.935,326.241 L312.398,326.241 L312.398,327.916 C312.398,330.183 314.123,335.652 315.355,337.229 C315.897,337.919 316.34,338.707 316.34,338.954 C316.34,339.644 320.775,343.487 321.514,343.487 C321.859,343.487 322.401,343.832 322.746,344.226 C323.239,344.817 323.239,345.113 322.746,345.704 C322.352,346.148 321.268,346.443 319.789,346.443 C317.326,346.443 316.833,346 316.833,343.782 C316.833,342.008 315.897,341.516 312.349,341.516 C308.21,341.516 307.471,341.812 307.471,343.339 C307.471,345.704 306.633,346.443 304.12,346.443 C299.686,346.443 299.341,343.93 303.036,339.052 C304.416,337.278 305.5,335.504 305.5,335.11 C305.5,334.667 305.697,334.125 305.944,333.878 C306.486,333.238 307.471,329.148 307.471,327.522 C307.471,326.339 307.619,326.241 309.935,326.241 z M366.31,344.564 C367.35,344.682 368.033,344.786 368.473,345.852 C368.571,346.246 368.029,346.443 366.896,346.443 C365.615,346.443 365.122,346.246 365.122,345.704 C365.2,345.006 365.617,344.655 366.31,344.564 z M268.377,325.814 C270.952,325.87 270.939,327.158 271.008,329.444 C271.008,332.4 272.141,335.455 274.507,338.904 C275.788,340.777 275.985,341.319 275.492,342.058 C275.196,342.551 274.95,343.487 274.95,344.127 C274.95,344.768 274.704,345.507 274.359,345.852 C273.472,346.739 269.727,346.591 268.84,345.655 C268.397,345.261 268.052,344.423 268.052,343.782 C268.052,342.107 267.115,341.516 264.307,341.516 C262.878,341.516 261.547,341.269 261.4,341.023 C261.252,340.728 261.745,339.545 262.533,338.362 C264.257,335.849 265.588,332.055 266.031,328.507 C266.327,326.093 266.376,325.994 267.953,325.847 L268.377,325.814 z M338.58,344.56 C338.805,344.63 339.059,344.638 339.252,344.771 C339.804,345.148 339.482,345.775 339.154,346.148 C338.563,346.739 336.789,346.246 336.789,345.458 C336.789,345.014 337.331,344.669 338.12,344.571 L338.58,344.56 z M237.403,343.339 C239.078,343.536 240.951,344.916 240.606,345.753 C240.261,346.69 237.305,346.64 236.516,345.704 C235.629,344.62 236.122,343.241 237.403,343.339 z M227.397,325.787 C227.793,325.828 227.987,325.787 228.31,326.05 C229.233,326.802 229.242,328.59 229.519,329.641 C230.209,333.632 231.983,337.82 233.954,339.939 C234.989,341.073 234.102,341.516 230.652,341.516 C227.056,341.516 226.168,342.008 226.168,343.98 C226.168,344.669 225.922,345.507 225.577,345.852 C224.789,346.64 220.995,346.591 220.403,345.852 C220.108,345.507 219.763,344.325 219.615,343.29 C219.369,341.614 219.517,341.122 220.748,339.742 C223.163,336.933 225.183,332.154 225.183,329 C225.183,326.487 225.282,326.241 226.415,325.945 C226.979,325.82 226.653,325.88 227.397,325.787 z M352.322,325.757 C352.928,325.823 353.548,325.817 354.084,326.142 C354.38,326.339 354.823,327.719 355.021,329.197 C355.415,332.499 356.203,334.962 357.337,336.687 C357.829,337.377 358.223,338.165 358.223,338.461 C358.223,338.707 358.568,339.2 358.963,339.545 C360.145,340.53 359.85,341.516 358.322,341.516 C356.745,341.516 355.76,342.304 355.76,343.635 C355.76,344.127 355.513,344.965 355.218,345.507 C354.823,346.345 354.282,346.493 352.163,346.345 C349.847,346.197 349.601,346.098 349.453,344.965 C349.157,342.403 348.319,341.516 346.299,341.516 C344.772,341.516 344.427,341.368 344.427,340.53 C344.427,339.989 344.574,339.545 344.772,339.545 C345.018,339.545 345.412,339.052 345.708,338.412 C346.003,337.82 346.743,336.44 347.285,335.356 C347.827,334.272 348.566,331.908 348.862,330.183 C349.206,328.409 349.551,326.684 349.65,326.389 C350.106,325.606 351.677,325.87 352.322,325.757 z M184.039,325.994 L188.474,325.994 L188.819,328.704 C189.016,330.183 189.509,332.351 189.903,333.533 C190.642,335.554 193.352,339.989 194.288,340.58 C194.535,340.777 194.584,341.664 194.387,342.551 C193.697,346.098 193.795,346 190.79,345.852 C188.03,345.704 187.981,345.655 187.833,344.127 C187.587,341.812 186.848,341.467 182.512,341.614 L178.619,341.762 L178.372,343.487 C178.176,344.472 177.88,345.507 177.683,345.852 C177.141,346.739 172.213,346.443 172.213,345.556 C172.213,345.162 173.297,344.275 174.677,343.487 C178.077,341.614 179.456,340.038 181.526,335.948 C182.758,333.533 183.448,331.415 183.694,329.197 L184.039,325.994 z M257.866,343.393 C258.278,343.63 258.134,343.482 258.345,343.782 C258.542,344.127 258.493,344.916 258.197,345.458 C257.753,346.295 257.26,346.443 255.881,346.345 C253.368,346.148 253.319,345.211 255.832,344.029 C256.483,343.747 257.137,343.391 257.866,343.393 z M144.616,325.733 L144.9,325.733 C145.769,325.869 145.388,325.791 146.049,325.945 C147.034,326.192 147.231,326.635 147.527,329.493 C147.724,331.267 148.069,333.139 148.315,333.681 C149.35,335.701 149.941,336.785 150.878,338.461 C152.159,340.777 151.765,341.417 149.005,341.614 C146.591,341.762 146.147,342.157 145.655,344.571 C145.507,345.261 144.965,345.95 144.472,346.049 C144.028,346.148 142.649,346.098 141.417,345.95 C139.397,345.704 139.199,345.556 139.052,344.226 C138.953,343.437 138.658,342.551 138.411,342.304 C137.672,341.467 137.919,340.53 139.544,338.165 C141.515,335.307 142.452,332.696 142.846,328.951 C142.942,328.035 142.935,326.454 143.859,325.904 C144.27,325.718 144.023,325.797 144.616,325.733 z M385.768,342.008 C386.507,342.008 386.458,343.98 385.669,344.177 C385.374,344.275 384.388,344.571 383.6,344.866 C382.762,345.113 382.072,345.359 381.974,345.409 C381.924,345.458 381.875,345.064 381.875,344.521 C381.875,343.635 384.437,342.008 385.768,342.008 z M109.565,339.224 C110.777,339.573 112.437,340.879 112.838,342.107 C112.838,342.551 110.818,342.649 109.684,342.206 C108.797,341.861 108.6,339.791 109.438,339.249 L109.565,339.224 z M396.017,313.429 C396.066,313.429 396.165,314.612 396.165,316.041 C396.165,319.096 397.249,323.531 398.579,326.142 C399.663,328.113 402.817,331.661 404.344,332.548 C405.231,333.09 405.182,333.188 403.655,334.42 C402.324,335.504 402.078,335.997 402.176,337.475 C402.324,338.954 402.127,339.348 401.092,339.89 C400.402,340.235 398.924,340.53 397.791,340.53 C395.918,340.53 395.721,340.432 395.425,339.052 C395.13,337.722 394.933,337.574 393.159,337.574 C392.075,337.574 390.744,337.82 390.153,338.116 C389.611,338.412 389.069,338.51 388.921,338.362 C388.773,338.215 389.266,336.194 390.005,333.878 C391.779,328.507 391.582,323.925 389.414,319.392 C387.936,316.288 387.887,315.401 389.168,315.401 C389.611,315.401 391.336,314.957 392.913,314.415 C394.539,313.873 395.918,313.429 396.017,313.429 z M84.183,314.773 C85.285,314.886 84.831,314.713 85.589,315.154 C86.525,315.795 86.575,316.337 86.476,320.328 C86.378,323.284 86.525,324.91 86.92,325.255 C87.264,325.502 91.552,325.797 96.627,325.847 L105.693,325.994 L106.087,327.966 C106.284,329.05 106.728,330.823 106.974,331.908 C108.107,336.342 108.107,336.785 107.122,336.391 C106.58,336.194 105.594,335.899 104.806,335.751 C104.067,335.603 103.328,335.258 103.18,335.061 C102.589,334.125 100.913,334.667 100.125,336.096 C99.14,337.82 97.711,338.017 94.853,336.835 C93.128,336.096 93.079,335.997 93.375,334.174 C93.67,332.351 93.621,332.252 91.552,331.168 C90.27,330.479 88.447,330.035 86.969,329.986 C84.751,329.936 84.505,330.035 84.357,331.07 C84.111,332.597 83.126,332.893 80.662,332.154 C77.656,331.267 77.36,330.922 78.001,328.951 C78.346,327.719 78.346,326.931 77.952,326.093 C76.966,324.023 76.818,322.398 77.656,321.609 C78.642,320.574 79.479,320.624 81.746,321.806 C83.273,322.545 83.766,322.644 84.21,322.151 C84.751,321.461 83.766,318.948 82.682,318.308 C81.943,317.815 82.633,315.499 83.717,314.957 L84.183,314.773 z M413.098,335.73 C413.271,335.769 413.375,335.884 413.509,335.997 C413.953,336.441 413.854,336.588 412.918,336.588 C411.982,336.588 411.883,336.441 412.327,335.997 L412.636,335.748 C412.936,335.741 412.782,335.747 413.098,335.73 z M435.069,300.495 C435.817,300.537 436.302,300.489 436.422,301.357 C437.703,309.931 440.216,314.464 446.227,319.146 C449.677,321.806 449.873,322.102 449.873,324.073 C449.873,325.403 449.627,325.65 447.311,326.635 C444.503,327.818 444.749,327.916 443.221,325.009 C442.63,323.876 441.99,323.876 437.801,324.96 C434.5,325.797 433.367,326.832 434.155,328.311 C434.796,329.493 434.401,330.035 432.48,330.873 C430.262,331.858 427.7,331.858 427.7,330.922 C427.7,330.528 428.489,329 429.425,327.571 C431.593,324.319 432.627,320.919 432.627,316.977 C432.627,313.528 431.1,308.354 429.622,306.728 C429.129,306.186 428.686,305.447 428.686,305.151 C428.686,304.807 428.439,304.56 428.193,304.56 C427.897,304.56 427.7,304.117 427.7,303.575 C427.7,302.885 428.045,302.589 428.735,302.589 C429.326,302.589 430.509,302.146 431.346,301.653 C432.184,301.111 433.662,300.618 434.599,300.52 L435.069,300.495 z" fill="#000000"/>
  </g>
</svg>
