<?xml version="1.0" encoding="UTF-8"?>
<!DOCTYPE svg PUBLIC "-//W3C//DTD SVG 1.1//EN" "http://www.w3.org/Graphics/SVG/1.1/DTD/svg11.dtd">
<svg version="1.1" xmlns="http://www.w3.org/2000/svg" xmlns:xlink="http://www.w3.org/1999/xlink" x="0" y="0" width="500" height="500" viewBox="0, 0, 500, 500">
  <g id="layer102">
    <path d="M193.793,156.78 L193.295,157.003 C192.729,157.285 189.34,157.567 185.839,157.567 C182.337,157.567 179.174,157.793 178.834,158.019 C177.535,158.866 176.801,162.481 177.479,164.854 C177.818,166.096 178.326,167.283 178.608,167.452 C179.569,168.017 179.23,169.881 178.157,170.219 C176.067,170.897 161.663,170.389 160.647,169.655 C160.138,169.259 159.178,168.864 158.5,168.864 C156.806,168.864 155.055,166.661 154.603,164.006 C154.208,161.577 153.473,160.956 149.52,159.714 C145.735,158.584 138.505,157.567 133.874,157.567 C131.162,157.567 128.79,157.285 128.621,157.003 C128.395,156.607 127.943,156.607 127.209,157.003 C126.644,157.285 123.255,157.567 119.753,157.567 C116.251,157.567 113.088,157.793 112.749,158.019 C111.789,158.584 110.885,162.255 111.224,164.006 C111.506,165.475 111.506,165.475 108.23,165.475 C106.423,165.475 103.429,165.87 101.565,166.322 C99.532,166.831 94.674,167.226 89.647,167.283 L81.175,167.452 L81.005,182.477 C80.892,196.88 80.892,197.501 82.022,198.518 C83.716,200.043 83.434,200.777 80.327,202.754 C76.995,204.9 74.51,208.233 73.549,211.791 C72.815,214.559 73.154,219.304 74.227,221.676 C74.736,222.862 74.736,223.314 74.001,224.048 C73.154,224.896 72.871,224.783 70.838,223.201 C67.393,220.434 63.665,219.078 60.05,219.191 C58.299,219.247 56.265,219.134 55.531,218.852 C54.74,218.626 50.674,218.4 46.494,218.344 L38.812,218.287 L38.755,213.881 C38.755,211.339 38.473,209.25 38.078,208.854 C37.682,208.459 37.4,207.273 37.4,206.143 C37.4,205.014 37.005,203.601 36.553,202.98 C36.101,202.415 35.706,201.342 35.706,200.664 C35.706,199.422 35.536,199.365 30.678,199.365 L25.651,199.365 L25.256,201.059 C24.522,204.449 21.019,204.166 21.019,200.721 C21.019,199.365 20.963,199.365 15.653,199.365 C10.457,199.365 10.288,199.422 10.288,200.664 C10.231,201.342 9.892,202.528 9.44,203.319 C8.988,204.11 8.65,205.522 8.593,206.482 C8.593,207.386 8.311,208.459 7.972,208.798 C7.633,209.137 7.351,213.26 7.294,219.417 L7.181,229.527 L5.317,229.979 C2.832,230.657 2.267,232.295 3.171,236.192 C3.623,238.113 3.679,239.751 3.397,240.711 C3.058,241.615 3.115,243.027 3.453,244.27 C3.792,245.512 3.792,246.924 3.453,248.111 C3.171,249.07 3.115,250.765 3.284,251.725 C3.848,254.606 3.115,257.543 1.815,257.543 C0.177,257.543 -0.049,258.334 0.008,264.378 L0.008,269.913 L2.437,272.737 C3.792,274.319 5.317,275.562 5.825,275.618 C6.334,275.618 7.464,276.521 8.255,277.595 C9.102,278.668 10.118,279.572 10.513,279.572 C11.417,279.572 11.982,280.814 11.982,282.678 C11.982,283.469 12.547,285.502 13.225,287.31 C15.484,293.523 23.674,299.905 29.266,299.905 C30.226,299.905 30.848,300.301 31.017,300.922 C31.356,302.221 37.569,303.295 44.573,303.295 C48.979,303.295 49.261,303.351 50.278,304.876 C51.012,305.949 51.464,307.813 51.69,311.089 C51.916,313.631 52.311,316.229 52.594,316.794 C52.989,317.472 54.345,318.15 56.152,318.545 C57.791,318.941 59.541,319.506 59.993,319.732 C60.445,320.014 62.761,321.087 65.077,322.16 C67.845,323.459 69.878,324.815 70.895,326.171 C72.307,327.978 72.702,328.147 75.413,328.147 C79.085,328.147 86.597,331.649 89.986,334.982 C92.019,337.015 92.415,337.185 94.392,336.846 C95.917,336.62 97.668,336.846 99.927,337.637 C105.576,339.614 108.23,340.743 109.812,341.873 C111.619,343.228 113.822,343.228 116.194,342.043 C118.51,340.8 127.943,340.8 130.259,341.986 C132.292,343.059 135.116,343.059 137.15,341.986 C138.279,341.421 140.539,341.139 144.436,341.139 C148.333,341.139 150.593,341.421 151.723,341.986 C153.812,343.059 155.62,343.059 157.879,341.929 C160.195,340.687 170.023,340.743 172.395,341.986 C174.485,343.059 176.293,343.059 178.552,341.929 C181.037,340.687 190.865,340.687 193.407,341.929 C195.667,343.116 197.192,343.059 199.564,341.873 C200.75,341.252 203.179,340.8 206.059,340.687 C209.844,340.518 211.143,340.687 213.346,341.647 C216.679,343.116 217.864,343.116 220.689,341.703 C222.383,340.856 224.021,340.574 227.636,340.574 C231.195,340.574 232.889,340.856 234.64,341.703 C235.94,342.325 237.521,342.833 238.199,342.833 C238.876,342.833 240.458,342.325 241.757,341.703 C243.508,340.856 245.203,340.574 248.648,340.574 C252.094,340.574 253.788,340.856 255.539,341.703 C258.42,343.116 259.832,343.116 261.244,341.873 C262.091,341.082 263.56,340.8 267.627,340.687 C272.089,340.518 273.275,340.63 275.365,341.647 C278.358,343.116 278.923,343.116 281.861,341.703 C283.611,340.856 285.306,340.574 289.034,340.574 C292.762,340.574 294.4,340.856 296.094,341.703 C298.806,343.116 300.782,343.116 302.703,341.873 C304.849,340.461 315.073,340.518 317.219,341.873 C319.026,343.059 321.399,343.116 323.715,341.929 C326.143,340.687 336.763,341.082 339.304,342.438 C340.999,343.398 343.145,343.228 344.614,342.043 C345.913,341.026 358.734,341.308 360.768,342.438 C363.027,343.68 363.253,343.68 366.247,341.703 C369.862,339.275 374.55,338.145 380.255,338.202 C384.548,338.202 385.282,338.088 386.92,336.846 C389.518,334.812 394.432,333.626 400.306,333.57 C404.882,333.513 405.616,333.344 407.367,332.045 C408.44,331.197 409.965,330.407 410.756,330.238 C411.547,330.068 413.862,329.503 415.952,328.938 C419.228,328.091 420.076,328.091 421.996,328.712 C424.368,329.447 425.555,329.108 427.757,326.848 C428.209,326.453 430.864,325.493 433.632,324.815 C436.456,324.137 439.619,323.346 440.749,323.064 C441.878,322.725 443.234,322.499 443.742,322.499 C444.702,322.499 448.431,320.183 450.577,318.15 C451.198,317.585 454.192,314.874 457.185,312.163 C460.179,309.452 462.834,306.684 463.003,306.119 C463.173,305.497 462.947,303.464 462.495,301.544 C461.986,299.68 461.591,297.59 461.591,296.912 C461.591,296.291 461.365,294.991 461.083,294.032 C460.744,293.071 460.236,290.755 459.84,288.892 C458.541,282.848 457.581,281.21 454.813,280.419 C454.022,280.193 450.803,279.007 447.583,277.764 C443.065,276.013 441.822,275.279 441.822,274.432 C441.822,272.963 440.184,271.664 437.19,270.704 C435.835,270.252 434.253,269.687 433.632,269.405 C432.559,268.953 429.96,268.049 423.013,265.507 C416.348,263.078 410.417,260.819 409.513,260.311 C408.948,260.028 408.045,259.802 407.48,259.802 C406.915,259.802 406.237,259.576 405.898,259.35 C405.616,259.068 403.865,258.277 402.001,257.6 C400.137,256.865 398.104,256.075 397.482,255.849 C396.861,255.566 395.336,255.001 394.093,254.606 C392.851,254.21 391.325,253.533 390.704,253.194 C389.574,252.516 389.574,252.516 390.648,251.725 C391.664,250.991 391.664,250.652 390.987,246.472 C389.631,238.056 389.292,235.797 388.953,233.142 C388.727,231.674 388.275,230.375 387.937,230.261 C387.598,230.149 384.265,230.487 380.537,231.052 C375.002,231.899 372.969,232.013 369.354,231.504 C366.078,231.109 364.722,231.109 364.157,231.561 C361.841,233.481 348.285,234.667 343.766,233.368 C340.434,232.465 339.7,231.335 340.321,228.284 C340.886,225.347 340.208,225.065 333.261,225.065 C328.629,225.065 326.482,224.839 325.466,224.218 C324.618,223.71 321.907,223.258 318.631,223.088 C314.734,222.862 312.813,222.523 311.684,221.733 C310.328,220.885 308.69,220.716 299.709,220.659 C288.526,220.546 287.565,220.264 288.864,217.779 C289.825,215.971 290.616,215.689 292.027,216.649 C293.27,217.44 293.44,217.44 294.456,216.536 C295.473,215.632 295.586,215.632 296.659,216.593 C297.732,217.553 299.483,217.44 299.483,216.31 C299.483,215.406 301.743,215.632 302.081,216.593 C302.533,217.722 303.946,217.666 304.397,216.593 C304.623,215.858 305.245,215.802 307.165,216.084 C308.916,216.31 309.933,216.197 310.893,215.52 C311.853,214.842 313.548,214.616 317.897,214.616 C321.681,214.616 324.167,214.333 325.127,213.825 C327.16,212.808 340.999,213.26 342.693,214.39 C344.162,215.463 346.365,215.406 347.946,214.277 C349.132,213.486 351.731,213.429 372.969,213.768 C391.89,214.107 396.748,214.333 397.256,214.954 C397.595,215.406 398.838,215.745 399.968,215.745 C401.549,215.745 402.114,215.463 402.566,214.503 L403.131,213.204 L430.808,213.316 C458.767,213.429 461.591,213.599 463.907,215.576 C465.262,216.705 495.312,216.593 496.837,215.463 C497.458,215.011 498.418,214.616 498.983,214.616 C499.943,214.616 500,213.938 500,205.804 L500,196.993 L498.305,196.371 C497.401,196.033 496.611,195.524 496.611,195.298 C496.611,195.072 489.212,194.846 480.231,194.846 C469.668,194.846 463.851,195.072 463.851,195.411 C463.851,195.75 463.229,195.976 462.495,195.976 C461.704,195.976 460.913,196.259 460.744,196.541 C460.518,196.88 450.351,197.106 432.163,197.106 L403.921,197.106 L402.622,195.693 C401.097,194.056 399.177,193.886 397.313,195.129 C396.239,195.919 393.246,195.976 371.556,195.581 C353.142,195.242 346.817,194.96 346.252,194.451 C345.461,193.604 343.202,193.491 342.693,194.282 C342.241,195.016 324.506,195.016 324.054,194.282 C323.884,193.943 321.173,193.717 317.897,193.717 C312.813,193.717 311.966,193.604 311.062,192.587 C309.763,191.119 308.238,191.175 306.77,192.644 L305.584,193.83 L303.098,191.457 L300.726,193.83 L299.709,192.644 C298.466,191.231 297.337,191.119 296.885,192.305 C296.433,193.434 294.569,193.378 293.892,192.192 C293.383,191.288 293.27,191.288 292.141,192.305 C291.18,193.208 290.785,193.265 289.994,192.7 C288.186,191.401 287.509,191.288 286.944,192.192 C286.266,193.378 285.419,193.378 284.12,192.192 C283.329,191.457 282.934,191.401 282.425,191.909 C281.578,192.757 279.149,192.813 279.149,192.022 C279.149,191.74 278.641,191.457 278.02,191.457 C277.398,191.457 276.89,191.74 276.89,192.022 C276.89,192.757 275.026,192.757 274.235,191.966 C273.896,191.627 272.428,191.344 270.903,191.288 C269.378,191.231 267.796,190.893 267.401,190.497 C266.949,190.045 265.141,189.763 262.995,189.763 C260.001,189.763 259.267,189.594 259.041,188.803 C258.363,186.656 257.685,186.035 253.675,183.945 C251.416,182.759 249.213,181.516 248.818,181.177 C248.422,180.895 248.083,178.918 247.971,176.602 L247.801,172.535 L236.335,172.423 C224.247,172.309 223.23,172.083 223.23,169.711 C223.23,169.033 222.722,168.017 222.101,167.452 C221.423,166.831 220.971,165.701 220.971,164.684 C220.971,162.425 220.576,161.86 218.147,160.843 C212.838,158.471 207.698,157.567 200.185,157.567 C197.361,157.567 194.876,157.285 194.706,157.003 C194.332,156.611 194.596,156.78 193.793,156.78 z M128.056,318.263 L139.296,318.263 L139.974,322.894 C140.313,325.493 141.047,328.147 141.499,328.882 C142.403,330.294 142.29,334.191 141.217,336.225 C140.765,337.072 139.804,337.185 133.761,337.185 C126.192,337.185 126.079,337.128 126.079,333.852 C126.079,333.005 125.797,332.045 125.457,331.706 C125.006,331.254 125.062,330.576 125.683,329.334 C126.587,327.526 127.661,322.951 127.943,319.958 L128.056,318.263 z M339.304,317.98 C341.789,317.98 344.105,318.206 344.444,318.432 C344.727,318.658 345.348,320.861 345.687,323.29 C346.139,326.057 346.929,328.712 347.777,330.181 C349.132,332.44 349.641,335.999 348.793,336.846 C348.568,337.015 345.235,337.128 341.337,337.072 L334.221,336.903 L333.939,334.361 C333.712,332.384 333.43,331.763 332.526,331.649 C330.606,331.311 330.436,330.633 331.566,328.599 C332.187,327.526 332.865,324.872 333.091,322.725 C333.317,320.579 333.825,318.658 334.164,318.432 C334.503,318.206 336.819,317.98 339.304,317.98 z M300.759,317.945 C302.44,318.075 301.742,317.902 302.889,318.288 C304.325,319.023 303.998,322.089 304.284,323.403 C304.454,324.984 305.188,327.582 305.979,329.164 C307.391,332.045 307.73,334.53 307.052,336.337 C306.713,337.128 305.922,337.241 300.105,336.903 C296.49,336.677 293.214,336.451 292.818,336.337 C292.479,336.168 292.141,335.208 292.141,334.135 C292.141,332.722 291.745,331.932 290.728,331.141 L289.26,330.124 L290.333,327.865 C290.954,326.622 291.576,324.137 291.801,322.273 C292.027,320.466 292.31,318.715 292.479,318.489 C292.649,318.206 295.191,317.981 298.071,317.98 L299.13,317.977 L300.03,317.951 L300.759,317.945 z M251.755,318.263 L262.487,318.263 L263.051,322.216 C263.673,326.114 264.012,327.47 265.085,329.39 C265.65,330.52 265.763,335.66 265.198,336.225 C264.52,336.959 252.32,336.677 251.585,335.942 C251.19,335.547 250.907,334.53 250.907,333.626 C250.907,332.666 250.455,331.649 249.947,331.254 C249.044,330.576 249.044,330.407 249.947,328.373 C250.455,327.131 251.077,324.42 251.359,322.216 L251.755,318.263 z M213.471,318.013 C215.564,318.07 214.627,318.042 216.283,318.093 L221.762,318.263 L222.383,322.499 C222.722,324.815 223.456,327.526 223.965,328.543 C224.925,330.35 225.32,335.49 224.53,336.281 C224.304,336.451 220.971,336.563 217.074,336.507 L209.957,336.337 L209.788,334.361 C209.674,333.288 209.166,331.932 208.658,331.367 C207.867,330.463 207.867,330.238 208.714,328.43 C209.223,327.356 209.788,325.154 209.957,323.516 C210.09,322.289 210.084,318.908 211.372,318.276 C211.978,317.979 212.852,318.035 213.471,318.013 z M174.734,318.039 C176.495,318.113 177.442,318.267 178.834,319.449 C180.36,320.635 180.868,321.595 181.15,323.516 C181.376,324.928 181.715,326.453 181.998,326.961 C183.636,330.238 183.805,330.972 183.41,333.288 C183.184,334.643 182.901,335.999 182.732,336.225 C182.619,336.451 179.23,336.563 175.333,336.507 L168.159,336.337 L167.99,334.078 C167.877,332.836 167.481,331.649 167.143,331.423 C166.691,331.141 166.803,330.238 167.594,328.091 C168.159,326.453 168.78,323.572 168.95,321.708 L169.289,318.263 L173.073,318.093 C174.036,318.05 173.482,318.071 174.734,318.039 z M381.789,319.177 C383.302,319.47 383.69,320.069 384.548,321.313 C385.338,322.556 386.355,323.685 386.807,323.855 C387.937,324.307 389.857,327.639 389.857,329.164 C389.857,330.633 389.236,330.915 382.797,332.496 C375.962,334.248 375.849,334.191 374.55,331.197 C373.646,329.051 373.59,328.204 374.042,326.509 C374.324,325.38 374.606,323.685 374.606,322.668 C374.606,320.974 374.776,320.805 377.657,320.014 C379.004,319.617 380.368,319.164 381.789,319.177 z M85.329,314.324 C87.523,314.585 89.593,315.433 91.681,316.117 L98.12,318.319 L98.459,322.047 C98.628,324.363 99.306,326.905 100.266,328.825 C101.113,330.52 101.791,332.101 101.791,332.271 C101.791,332.836 99.136,332.722 97.95,332.158 C96.481,331.423 94.392,330.576 92.132,329.786 C91.003,329.39 89.478,328.656 88.8,328.147 C87.614,327.244 87.557,327.018 88.235,325.041 C88.913,323.007 88.856,322.782 87.67,321.821 C85.75,320.24 84.394,320.522 83.321,322.782 C82.813,323.855 82.078,324.758 81.739,324.758 C81.344,324.758 79.536,324.024 77.729,323.12 C75.921,322.217 73.549,321.143 72.533,320.691 C69.708,319.562 70.33,318.771 74.34,318.376 C77.673,318.037 81.344,316.625 84.338,314.535 C84.848,314.283 84.529,314.395 85.329,314.324 z M409.505,322.828 C409.619,322.889 409.757,322.917 409.848,323.009 C410.184,323.348 410.118,323.881 410.078,324.307 C409.965,325.098 409.231,325.775 407.932,326.227 C403.978,327.639 403.582,327.131 406.633,324.363 C407.445,323.645 408.357,322.807 409.505,322.828 z M424.565,309.155 C424.844,309.249 425.14,309.301 425.402,309.435 C426.06,309.769 426.568,310.352 427.136,310.807 C428.322,311.937 429.847,313.123 430.525,313.462 C431.655,314.083 431.711,314.196 430.808,315.551 C430.243,316.399 429.96,317.585 430.13,318.489 C430.299,319.336 430.299,320.24 430.073,320.579 C429.678,321.143 424.255,322.669 419.511,323.629 C418.268,323.855 416.969,324.081 416.63,324.137 C416.235,324.137 415.557,323.177 415.049,321.934 C414.258,319.901 413.975,319.675 412.168,319.675 C410.248,319.675 409.4,318.545 410.756,317.698 C411.038,317.529 411.321,316.342 411.321,315.156 C411.321,312.727 412.789,311.202 415.218,311.202 C416.517,311.202 419.398,310.581 423.069,309.452 C423.942,309.183 423.447,309.299 424.565,309.155 z M438.376,315.721 C441.37,315.721 441.709,316.117 440.523,318.037 C440.014,318.884 439.336,319.11 437.868,318.997 C436.173,318.828 435.891,318.602 435.722,317.303 C435.552,315.777 435.609,315.721 438.376,315.721 z M29.142,268.381 C30.7,268.469 30.043,268.352 31.13,268.614 C32.542,269.122 32.599,269.292 32.599,273.923 L32.599,278.724 L39.942,279.289 L40.111,281.549 C40.28,284.09 38.36,286.915 36.496,286.915 C34.35,286.915 31.187,288.1 31.187,288.892 C31.187,290.134 28.645,289.908 26.499,288.496 C24.183,286.971 22.319,284.316 21.867,281.661 C21.528,279.798 21.585,279.572 22.827,279.289 C24.917,278.781 25.99,276.013 25.651,272.116 L25.425,268.896 L27.515,268.501 L28.469,268.384 L29.142,268.381 z" fill="#000000"/>
  </g>
</svg>
