<?xml version="1.0" encoding="UTF-8"?>
<!DOCTYPE svg PUBLIC "-//W3C//DTD SVG 1.1//EN" "http://www.w3.org/Graphics/SVG/1.1/DTD/svg11.dtd">
<svg version="1.1" xmlns="http://www.w3.org/2000/svg" xmlns:xlink="http://www.w3.org/1999/xlink" x="0" y="0" width="500" height="500" viewBox="0, 0, 500, 500">
  <g id="layer102">
    <path d="M398.822,440.812 C401.351,438.377 408.939,431.207 415.862,424.848 C422.652,418.488 430.107,411.588 432.503,409.288 C437.429,404.688 449.413,393.727 458.869,385.335 C476.447,369.499 478.306,367.204 478.254,360.632 C478.225,357.145 477.252,352.861 475.895,350.859 C473.585,347.123 461.545,334.477 448.838,322.239 C441.267,314.923 440.58,312.916 443.632,308.733 C446.684,304.685 445.994,302.276 440.859,297.488 C436.671,293.766 435.057,293.243 428.753,293.293 L421.511,293.352 L407.72,279.781 L393.928,266.077 L381.453,266.043 C367.77,265.885 365.619,265.231 366.527,261.468 C367.049,259.586 366.507,258.92 364.763,258.934 C363.289,258.945 361.67,257.886 360.856,256.685 C359.766,254.548 357.349,254.299 342.327,254.42 C326.367,254.682 324.893,254.829 322.099,257.668 C320.502,259.29 319.178,261.447 319.186,262.386 C319.205,264.8 316.409,267.371 313.861,267.392 C312.654,267.401 311.162,265.268 310.061,261.788 C309.095,258.577 307.452,254.298 306.361,252.027 C305.269,249.889 303.349,244.539 302.109,240.391 C300.179,233.969 300.029,231.957 301.477,228.593 C302.925,225.228 302.782,224.156 301.157,222.157 C300.074,220.959 297.768,217.623 296.136,214.954 L293.144,209.881 L296.052,204.492 C297.638,201.529 300.164,198.826 301.501,198.279 C302.839,197.865 303.904,196.784 303.896,195.845 C303.89,195.04 309.356,190.972 315.896,186.895 C322.571,182.952 328.575,178.88 329.37,177.8 C330.168,176.855 331.503,176.039 332.173,176.034 C333.38,176.024 339.786,171.949 353.394,162.852 C355.93,161.223 358.6,159.725 359.136,159.721 C359.672,159.716 362.609,157.949 365.678,155.913 C377.149,147.907 382.087,144.782 383.294,144.772 C383.831,144.768 386.233,143.273 388.499,141.511 C390.766,139.883 394.769,137.302 397.307,135.94 C399.845,134.579 404.642,130.65 407.968,127.271 C413.555,121.457 415.822,119.83 427.838,112.893 C430.508,111.395 436.38,107.592 441.049,104.336 C445.718,101.213 449.99,98.63 450.526,98.626 C451.197,98.62 453.064,97.264 454.794,95.641 C456.658,93.882 460.661,91.301 463.734,89.801 C466.806,88.301 469.341,86.537 469.337,86 C469.332,85.464 472.001,83.699 475.209,82.331 C478.416,80.83 481.752,78.657 482.683,77.577 C483.612,76.496 485.081,75.545 485.885,75.539 C486.824,75.531 490.025,73.36 493.09,70.786 L498.55,65.913 L495.01,59.369 C493.103,55.763 490.394,52.432 488.914,51.907 C485.822,50.993 477.939,54.947 458.455,67.176 C454.451,69.622 448.443,73.158 445.103,74.794 C441.764,76.564 438.961,78.331 438.697,78.869 C438.434,79.408 436.031,80.903 433.359,82.266 C430.687,83.495 426.013,86.08 423.077,87.982 C415.739,92.87 413.202,94.366 407.193,97.633 C404.388,99.131 401.186,101.303 400.122,102.385 C399.058,103.467 397.053,104.421 395.578,104.433 C392.359,104.459 385.947,107.73 380.214,112.069 C377.948,113.831 375.143,115.328 373.936,115.338 C372.595,115.349 371.661,115.893 371.666,116.563 C371.671,117.234 368.336,119.541 364.329,121.586 C360.323,123.764 356.985,125.803 356.989,126.339 C356.994,126.876 354.991,127.965 352.719,128.922 C350.312,129.88 347.108,131.784 345.643,133.137 C344.178,134.356 339.774,137.208 335.901,139.252 C332.163,141.428 327.356,144.149 325.219,145.24 C323.215,146.328 319.746,148.636 317.346,150.399 C315.079,152.028 312.676,153.388 311.871,153.394 C311.2,153.4 309.999,154.215 309.068,155.162 C308.272,156.241 304.268,158.687 300.262,160.865 C293.983,164.135 292.242,164.417 289.415,163.099 C287.53,162.309 284.038,161.667 281.489,161.687 L276.795,161.725 L276.726,153.141 L276.657,144.557 L270.041,139.111 C266.394,136.055 262.888,133.669 262.083,133.675 C259.803,133.694 249.126,140.352 246.2,143.461 C244.604,145.217 243.152,148.046 242.898,149.926 C242.653,152.745 241.718,153.289 237.83,153.454 C235.148,153.61 230.869,155.12 228.068,157.154 C225.267,159.054 221.661,161.096 220.057,161.645 C218.451,162.195 215.38,163.828 213.245,165.322 C211.245,166.813 204.836,170.486 199.227,173.482 C193.617,176.479 188.143,179.607 187.078,180.555 C186.012,181.502 182.675,183.541 179.736,185.04 C171.587,189.13 160.505,195.389 151.695,200.825 C147.29,203.409 142.217,206.401 140.346,207.356 C138.477,208.309 136.61,209.666 135.946,210.475 C134.353,212.5 136.014,218.925 139.13,222.79 C140.62,224.656 141.849,227.329 141.859,228.67 C141.879,231.084 140.538,231.229 124.444,231.359 L107.007,231.499 L94.24,245.015 L81.338,258.532 L46.466,258.813 C24.201,258.992 9.854,259.644 6.509,260.609 C1.826,262.123 1.294,262.798 0.665,267.766 C0.152,270.855 0.196,292.853 0.656,316.859 L1.411,360.58 L10.2,369.362 L18.99,378.278 L42.469,378.893 C55.349,379.327 67.16,380.171 68.641,380.83 C70.121,381.488 72.946,382.539 74.829,383.194 C77.654,384.11 78.604,385.578 79.311,389.998 C80.439,396.83 85.352,407.387 87.909,408.306 C88.85,408.7 96.552,415.747 105.07,424.129 C113.588,432.511 121.155,439.291 121.959,439.284 C122.63,439.279 123.845,440.343 124.661,441.677 C126.566,445.015 138.506,445.321 235.481,444.943 C281.085,444.71 318.777,444.81 319.047,445.076 C319.318,445.342 336.353,445.473 356.875,445.442 L394.162,445.142 L398.822,440.812 z" fill="#000000"/>
  </g>
</svg>
