<?xml version="1.0" encoding="UTF-8"?>
<!DOCTYPE svg PUBLIC "-//W3C//DTD SVG 1.1//EN" "http://www.w3.org/Graphics/SVG/1.1/DTD/svg11.dtd">
<svg version="1.1" xmlns="http://www.w3.org/2000/svg" xmlns:xlink="http://www.w3.org/1999/xlink" x="0" y="0" width="500" height="500" viewBox="0, 0, 500, 500">
  <g id="svgg">
    <path d="M139.197,2.535 C138.691,2.642 137.811,2.83 137.241,2.951 C136.386,3.134 136.205,3.479 136.205,4.933 C136.205,8.376 133.28,8.938 130.197,6.084 C129.549,5.485 128.473,4.996 127.806,4.996 C127.14,4.996 126.465,4.788 126.309,4.536 C125.891,3.861 116.728,3.943 116.044,4.627 C115.739,4.931 115.492,5.644 115.492,6.213 C115.492,6.852 115.008,7.531 114.22,7.996 C112.468,9.031 111.809,10.672 111.809,13.995 C111.809,17.183 111.169,19.502 109.905,20.907 C109.4,21.465 109.047,22.545 109.047,23.525 C109.047,24.445 108.84,25.323 108.587,25.479 C108.333,25.637 108.126,26.283 108.126,26.918 C108.126,28.176 107.363,29.885 106.561,30.421 C105.679,31.009 93.642,30.836 93.032,30.226 C92.61,29.802 92.05,29.922 90.571,30.754 C89.029,31.62 88.492,31.727 87.81,31.301 C86.515,30.492 85.857,30.655 84.443,32.13 C83.448,33.168 82.858,33.429 81.931,33.245 C81.015,33.061 80.371,33.335 79.288,34.371 C78.501,35.123 77.21,35.881 76.42,36.054 C75.63,36.228 74.984,36.654 74.984,37 C74.984,37.347 74.214,38.211 73.271,38.921 C71.154,40.516 69.019,42.848 67.987,44.696 C67.555,45.467 66.727,46.636 66.144,47.297 C65.562,47.956 64.605,49.531 64.017,50.797 C63.427,52.063 62.548,53.865 62.06,54.8 C61.57,55.743 61.174,57.426 61.174,58.571 C61.174,59.708 60.968,60.767 60.714,60.923 C60.014,61.357 60.165,63.761 60.941,64.537 C61.446,65.043 61.551,65.776 61.34,67.318 C61.067,69.306 61.125,69.454 62.492,70.231 C63.733,70.938 63.93,71.308 63.933,72.929 C63.937,74.819 64.356,75.283 66.744,76.032 C67.151,76.159 67.9,77.107 68.411,78.139 L69.339,80.016 L67.271,81.171 C64.905,82.494 64.703,82.527 63.508,81.78 C62.311,81.034 61.174,82.002 61.174,83.766 C61.174,84.495 61.006,85.09 60.799,85.09 C59.153,85.09 58.351,88.986 58.376,96.863 C58.407,106.059 57.958,107.314 55.316,105.433 C54.312,104.717 53.813,104.615 53.153,104.984 C52.513,105.341 51.974,105.274 51.023,104.712 C49.137,103.598 48.412,104.132 48.089,106.872 C47.517,111.731 48.026,119.089 49.096,121.454 C49.798,123.004 50.384,125.202 50.876,128.129 C51.004,128.889 51.478,130.236 51.933,131.122 C52.733,132.685 54.874,139.287 55.399,141.803 C55.74,143.442 57.813,143.848 60.944,142.886 C66.043,141.32 66.699,142.258 66.699,151.128 C66.699,156.397 66.692,156.422 65.541,156.711 C62.89,157.376 49.684,174.605 46.345,181.756 C44.494,185.717 43.797,187.383 43.265,189.12 C41.647,194.384 40.64,197.3 39.527,199.937 C39.312,200.445 38.611,203.019 37.966,205.659 C36.854,210.218 36.347,211.192 35.073,211.208 C34.485,211.216 33.562,208.473 33.558,206.701 C33.558,206.117 33.367,204.771 33.137,203.708 C32.907,202.647 32.484,200.33 32.199,198.558 C31.913,196.784 31.481,194.143 31.237,192.688 C30.993,191.233 30.587,188.799 30.334,187.279 C30.08,185.761 29.675,183.326 29.432,181.871 C28.492,176.24 28.437,174.512 29.173,173.776 C29.558,173.391 29.873,172.901 29.873,172.686 C29.873,172.472 30.926,171.274 32.213,170.025 C34.757,167.558 34.653,168.116 33.495,163.113 C33.261,162.1 32.894,159.925 32.679,158.279 C31.425,148.64 26.636,143.988 17.812,143.829 L15.06,143.78 L8.17,150.915 L1.279,158.049 L1.528,162.423 C2.154,173.419 3.735,177.443 8.618,180.465 C10.399,181.569 10.899,182.68 11.459,186.798 C11.684,188.455 12.094,191.053 12.37,192.573 C12.646,194.091 13.062,196.784 13.294,198.558 C13.527,200.33 13.944,203.125 14.219,204.771 C14.497,206.417 14.921,209.058 15.164,210.64 C15.405,212.222 15.804,214.812 16.05,216.393 C16.294,217.976 16.699,220.617 16.95,222.263 C17.496,225.853 18.279,230.769 18.859,234.231 C22.307,254.802 22.29,255.1 17.601,256.52 C17.054,256.686 16.356,257.124 16.05,257.495 C15.742,257.865 15.134,258.168 14.697,258.168 C11.155,258.168 9.37,260.942 9.517,266.222 C9.671,271.805 10.276,272.898 13.221,272.898 C15.925,272.898 17.204,282.584 14.953,286.021 C13.961,287.534 14.035,289.157 15.143,290.159 C15.66,290.626 16.064,291.577 16.064,292.324 C16.064,295.654 18.542,297.754 22.47,297.754 C25.564,297.754 27.775,299.573 28.199,302.466 C29.208,309.37 29.265,309.553 30.969,311.46 C31.945,312.551 32.599,313.844 32.771,315.016 C32.919,316.028 33.271,318.099 33.551,319.619 C33.832,321.137 34.248,323.52 34.475,324.913 C35.04,328.382 37.635,343.44 38.202,346.547 C38.458,347.939 38.863,350.269 39.102,351.726 C40.018,357.269 40.509,360.217 40.956,362.888 C41.392,365.47 41.8,367.99 42.785,374.165 C43.008,375.559 43.395,378.148 43.648,379.92 C43.901,381.692 44.335,384.385 44.613,385.904 C44.888,387.423 45.511,391.047 45.995,393.959 C46.478,396.871 47.01,399.944 47.178,400.787 C47.409,401.96 47.25,402.635 46.503,403.646 C45.842,404.538 45.524,405.651 45.524,407.059 C45.524,408.359 45.319,409.149 44.98,409.149 C39.307,409.149 36.413,418.114 38.067,430.554 C38.614,434.666 38.347,435.287 35.232,437.16 L32.665,438.704 L30.931,437.632 C29.977,437.042 28.366,436.522 27.349,436.476 C26.332,436.429 24.91,436.241 24.188,436.057 C22.966,435.746 22.449,436.15 16.707,441.879 C10.015,448.557 9.239,449.823 10.049,452.741 C10.316,453.703 10.537,455.423 10.54,456.561 C10.543,457.701 10.76,459.407 11.022,460.352 C11.605,462.452 10.965,465.24 9.622,466.456 C8.583,467.396 8.298,471.983 9.176,473.623 C9.681,474.566 11.213,474.828 11.691,474.053 C11.847,473.8 12.126,473.593 12.31,473.593 C12.827,473.593 16.064,478.091 16.064,478.81 C16.064,480.133 21.178,484.64 22.678,484.64 C24.092,484.64 24.489,486.374 23.42,487.875 C22.105,489.721 22.372,491.194 24.127,491.776 C24.89,492.03 26,492.725 26.594,493.324 C27.912,494.648 30.643,494.443 31.656,492.941 C32.572,491.582 34.103,491.793 35.74,493.502 C41.095,499.097 41.661,498.946 54.247,488.574 C62.505,481.766 64.444,480.599 68.384,480.065 C70.642,479.759 71.222,479.46 72.645,477.874 C75.253,474.966 78.666,470.451 78.666,469.907 C78.666,469.634 79.081,468.967 79.587,468.424 C80.093,467.88 80.508,466.949 80.508,466.355 C80.508,465.761 80.823,464.794 81.208,464.205 C81.594,463.617 81.853,462.439 81.783,461.588 C81.654,459.99 82.382,459.448 89.023,456.194 C90.095,455.669 92.135,453.456 92.95,451.933 C93.276,451.323 93.503,449.243 93.488,447.009 L93.459,443.143 L98.17,438.459 C100.762,435.883 103.597,433.148 104.469,432.378 C110.092,427.423 110.475,424.759 105.957,422.013 C104.221,420.958 102.747,420.367 102.205,420.508 C101.56,420.677 101.216,420.442 100.97,419.663 C100.51,418.207 98.881,416.852 94.814,414.541 C90.757,412.238 88.615,410.245 89.061,409.193 C90.508,405.779 88.793,402.876 84.911,402.175 C83.281,401.88 81.506,398.217 81.465,395.066 C81.421,391.705 80.796,390.964 77.612,390.492 C74.928,390.096 71.526,391.206 71.164,392.599 C70.873,393.705 69.997,393.773 69.592,392.72 C69.428,392.291 68.606,391.273 67.766,390.456 C66.926,389.641 66.237,388.801 66.235,388.589 C66.234,388.378 66.014,386.962 65.748,385.444 C65.482,383.924 65.068,381.44 64.829,379.92 C64.589,378.402 64.197,376.019 63.954,374.626 C63.711,373.234 63.279,370.747 62.995,369.103 C62.71,367.457 62.289,365.075 62.06,363.809 C61.668,361.638 61.132,358.491 60.26,353.222 C60.05,351.956 59.632,349.574 59.33,347.928 C59.029,346.282 58.603,343.797 58.382,342.404 C57.922,339.478 57.279,335.885 56.571,332.277 C56.058,329.665 55.503,326.509 54.989,323.302 C54.827,322.288 54.505,320.425 54.274,319.159 C54.042,317.893 53.626,315.511 53.35,313.865 C53.072,312.219 52.614,309.777 52.33,308.438 L51.813,306.004 L53.828,303.95 C54.978,302.777 56.268,301.897 56.836,301.897 C60.932,301.897 63.307,294.85 61.138,289.141 C60.772,288.182 61.103,287.37 63.317,283.792 C67.507,277.011 69.171,273.807 70.359,270.224 C70.973,268.374 71.643,266.757 71.848,266.629 C72.054,266.503 72.221,265.595 72.221,264.611 C72.221,263.629 72.429,262.697 72.682,262.54 C72.936,262.383 73.142,261.885 73.142,261.434 C73.142,260.982 73.557,260.236 74.063,259.779 C74.569,259.32 74.984,258.485 74.984,257.922 C74.984,255.208 77.12,252.167 79.672,251.25 C81.337,250.651 81.367,250.597 81.307,248.305 C81.263,246.613 81.602,245.207 82.537,243.208 C83.248,241.688 84.15,239.753 84.541,238.91 C85.001,237.918 86.042,236.939 87.478,236.148 C89.206,235.194 89.702,234.666 89.712,233.77 C89.729,232.137 90.809,228.782 92.203,226.029 C92.859,224.735 93.396,223.378 93.396,223.015 C93.396,222.652 94.588,221.021 96.043,219.389 C105.705,208.559 108.293,204.098 106.504,201.366 C105.905,200.451 105.876,199.69 106.308,196.202 C106.587,193.952 106.934,191.077 107.076,189.811 C107.242,188.346 108.065,186.158 109.342,183.788 C110.942,180.823 111.349,179.606 111.349,177.782 L111.349,175.494 L114.787,174.884 L118.227,174.272 L119.867,175.712 C122.202,177.761 125.18,177.446 126.09,175.053 C126.753,173.306 127.414,173.831 128.459,176.935 C128.968,178.447 129.599,179.943 129.859,180.26 C130.121,180.577 130.398,183.27 130.477,186.243 C130.556,189.218 130.756,192.814 130.92,194.235 C131.18,196.481 131.109,196.858 130.375,197.123 C121.894,200.191 119.924,213.45 126.76,221.453 C128.648,223.665 130.08,226.605 130.405,228.938 C130.545,229.95 130.893,231.814 131.18,233.08 C131.467,234.346 131.835,236.085 131.997,236.942 C132.268,238.374 132.645,238.749 134.824,239.76 C135.204,239.936 135.618,240.784 135.744,241.644 C136.006,243.414 136.508,243.502 141.269,242.613 C143.191,242.255 144.133,242.284 145.182,242.735 C148.423,244.13 149.585,244.444 150.351,244.133 C151.151,243.808 154.767,243.173 158.649,242.675 C160.296,242.464 160.653,242.23 160.894,241.204 C161.05,240.534 161.759,239.364 162.47,238.604 C164.282,236.665 164.638,234.905 163.478,233.63 C161.179,231.104 160.996,229.463 162.904,228.478 C163.662,228.084 164.285,227.898 164.285,228.062 C164.285,228.226 164.61,228.09 165.007,227.76 C165.404,227.431 165.633,226.791 165.515,226.34 C164.783,223.546 168.956,225.214 173.606,229.577 C175.165,231.04 175.332,231.424 175.332,233.554 C175.332,236.042 175.808,236.753 178.67,238.53 C181.432,240.245 180.234,243.411 176.816,243.432 C175.502,243.439 171.783,247.077 171.574,248.56 C171.375,249.959 170.002,250.211 168.731,249.08 C166.609,247.195 160.714,246.46 159.139,247.884 C158.674,248.305 157.829,248.88 157.261,249.164 C155.663,249.96 155.809,252.661 157.495,253.468 C158.42,253.913 158.756,254.408 158.745,255.316 C158.728,256.681 157.189,258.849 156.527,258.439 C156.297,258.297 154.996,258.083 153.637,257.963 C152.278,257.843 149.599,257.606 147.684,257.436 C142.957,257.017 135.12,262.599 132.423,268.308 C131.464,270.339 130.354,271.565 128.726,272.403 C127.426,273.069 127.244,273.549 127.425,275.819 C127.483,276.539 127.121,278.196 126.619,279.502 C126.12,280.806 125.465,283.738 125.164,286.016 C124.865,288.294 124.321,290.719 123.953,291.405 C123.37,292.496 123.373,292.857 123.977,294.301 C124.515,295.588 124.568,296.467 124.221,298.296 C123.977,299.586 123.777,302.135 123.777,303.959 C123.777,306.693 123.614,307.424 122.856,308.112 C121.693,309.163 121.693,310.997 122.856,312.484 C123.621,313.463 123.758,314.382 123.767,318.613 C123.774,321.691 123.994,323.975 124.344,324.598 C124.656,325.15 124.926,326.949 124.942,328.595 C124.959,330.241 125.221,333.75 125.524,336.394 C126.124,341.636 125.946,342.194 123.84,341.696 C122.408,341.358 116.584,343.178 115.553,344.285 C111.309,348.841 111.155,365.658 115.32,369.905 C115.627,370.221 116.264,370.946 116.734,371.517 C119.728,375.162 125.082,379.548 127.248,380.129 C128.503,380.467 130.006,381.23 130.584,381.827 C131.677,382.95 133.178,383.254 133.673,382.452 C134.04,381.859 136.717,381.859 138.275,382.45 C138.939,382.704 139.366,383.1 139.224,383.33 C138.765,384.072 139.462,385.122 140.605,385.409 C141.262,385.573 141.828,386.136 141.991,386.787 C142.144,387.393 142.768,388.358 143.38,388.933 C143.99,389.507 144.491,390.413 144.491,390.945 C144.491,391.478 144.775,392.321 145.123,392.821 C145.47,393.321 145.885,395.179 146.043,396.951 C146.949,407.139 146.949,407.286 146.06,408.936 C145.273,410.398 145.264,410.62 145.929,411.792 C146.326,412.49 146.905,414.926 147.216,417.206 C147.526,419.484 147.961,422.177 148.18,423.189 C148.622,425.221 149.238,435.287 149.29,441.329 L149.323,445.199 L147.928,445.702 C144.855,446.809 135.744,457.096 135.744,459.458 C135.744,460.616 135.541,462.1 135.294,462.754 C134.464,464.931 137.632,475.405 139.347,476.164 C142.741,477.665 164.19,477.041 173.155,475.181 C176.251,474.539 179.209,473.924 179.729,473.817 C180.549,473.647 180.672,473.283 180.65,471.093 C180.614,467.323 181.18,466.942 187.002,466.82 C192.48,466.707 194.268,467.06 194.859,468.372 C195.093,468.889 197.164,470.517 199.463,471.99 L203.641,474.668 L208.245,473.644 C215.32,472.07 215.341,472.069 216.074,472.676 C216.627,473.136 216.76,474.61 216.76,480.297 C216.76,484.237 216.952,487.467 217.196,487.618 C218.901,488.671 249.021,492.573 249.825,491.845 C250.558,491.183 251.337,491.114 255.24,491.371 C260.932,491.743 263.669,490.808 267.043,487.341 C269.746,484.563 268.841,484.56 283.779,487.402 C298.569,490.216 296.745,490.264 304.081,486.884 L310.203,484.062 L310.17,481.705 C310.151,480.409 309.684,476.262 309.132,472.493 L308.128,465.638 L306.283,465.094 C305.27,464.794 303.422,463.773 302.178,462.822 C300.199,461.313 299.651,461.115 297.809,461.245 C296.225,461.357 295.736,461.241 295.834,460.771 C296.055,459.724 294.978,458.863 293.461,458.871 C292.34,458.876 291.659,458.456 290.392,456.984 C289.017,455.385 288.421,455.051 286.583,454.845 C283.885,454.54 283.715,454.275 284.877,452.204 C285.389,451.294 285.807,450.116 285.807,449.585 C285.807,448.77 286.01,448.661 287.123,448.885 C295.632,450.586 297.012,449.434 296.28,441.229 C296.072,438.902 296.015,433.788 296.154,429.864 C296.766,412.493 296.512,407.65 294.945,406.811 C293.811,406.204 293.77,404.089 294.897,404.38 C296.348,404.755 296.991,402.282 296.63,397.722 C296.32,393.789 296.337,393.685 297.426,393.103 C301.136,391.117 302.065,385.267 300.543,373.475 C299.916,368.606 299.914,368.33 300.497,365.65 C301.112,362.822 301.872,360.903 302.553,360.46 C303.315,359.967 306.115,356.326 307.855,353.567 C309.671,350.687 309.857,350.649 311.343,352.877 C311.976,353.826 312.782,355.016 313.135,355.524 C319.598,364.826 320.271,366.275 318.981,368.086 C316.221,371.961 310.531,382.378 310.507,383.603 C310.49,384.489 311.172,386.026 312.413,387.892 C313.476,389.493 314.346,390.896 314.346,391.011 C314.346,391.124 315.382,392.783 316.648,394.694 C317.914,396.606 318.95,398.273 318.95,398.397 C318.95,398.522 319.492,399.335 320.154,400.204 C323.022,403.964 331.283,401.15 334.676,395.257 C336.623,391.873 336.369,391.73 341.348,399.044 C345.835,405.635 345.945,405.947 345.103,409.597 L344.558,411.956 L340.539,414.03 C335.762,416.498 336.096,415.813 335.732,423.881 C335.387,431.562 335.593,432.117 339.257,433.334 C343.676,434.802 351.171,432.333 351.171,429.408 C351.171,429.194 352.256,428.787 353.582,428.502 C357.043,427.761 357.623,427.237 360.844,421.954 C362.436,419.342 364.484,415.984 365.395,414.491 C366.307,412.998 367.836,410.978 368.794,410.004 C370.309,408.465 370.47,408.104 370.018,407.259 C369.568,406.419 369.717,406.056 371.101,404.61 C371.984,403.69 372.84,402.49 373.002,401.946 C373.247,401.129 379.904,389.765 381.052,388.205 C381.238,387.952 381.771,386.399 382.236,384.754 C382.868,382.524 383.52,381.348 384.793,380.14 C385.969,379.023 386.77,377.662 387.363,375.767 C388.071,373.511 388.785,372.456 391.333,369.912 C393.889,367.358 394.442,366.541 394.447,365.308 C394.456,363.443 394.76,362.976 396.572,362.048 C398.224,361.203 399.793,359.453 401.105,356.998 C402.101,355.13 402.747,354.95 404.735,355.986 C407.263,357.305 411.932,354.581 411.932,351.789 C411.932,350.503 418.042,341.141 419.807,339.724 C420.608,339.082 421.138,338.215 421.138,337.553 C421.138,336.313 425.01,330.051 426.014,329.667 C426.371,329.529 426.662,329.129 426.662,328.777 C426.662,328.426 427.387,327.335 428.274,326.354 C429.16,325.374 429.885,324.104 429.885,323.534 C429.885,322.134 436.06,312.783 437.49,312.019 C438.293,311.588 438.63,311.021 438.63,310.1 C438.63,307.762 444.99,298.298 447.032,297.599 C447.563,297.416 447.837,296.844 447.837,295.909 C447.837,294.946 448.715,293.191 450.598,290.39 C452.118,288.13 453.36,286.134 453.36,285.955 C453.36,285.356 457.509,281.643 458.178,281.643 C458.54,281.643 459.406,280.867 460.1,279.916 C460.795,278.967 461.582,277.977 461.85,277.716 C462.118,277.454 462.933,276.107 463.661,274.723 C464.844,272.48 469.494,265.089 471.823,261.753 C472.301,261.067 472.693,260.4 472.693,260.272 C472.693,260.143 473.497,258.839 474.481,257.376 C476.92,253.745 480.698,247.914 480.978,247.345 C481.639,246.011 496.432,223.884 498.138,221.68 C499.049,220.502 499.129,219.805 499.21,212.357 L499.298,204.309 L498.01,202.929 C496.498,201.31 494.693,201.145 490.49,202.239 C486.602,203.253 485.49,203.144 484.56,201.66 C483.075,199.295 482.589,198.6 480.46,195.786 C478.052,192.608 476.745,190.285 477.139,189.891 C477.879,189.152 476.625,187.162 474.535,185.753 C472.408,184.323 471.542,183.248 464.405,173.191 C458.492,164.862 456.649,161.746 456.896,160.509 C457.226,158.861 456.48,157.939 453.932,156.848 C452.848,156.383 451.82,155.634 451.648,155.185 C451.476,154.735 450.744,153.539 450.021,152.525 C446.894,148.147 445.075,145.197 445.077,144.514 C445.078,144.111 444.435,141.708 443.648,139.176 C442.243,134.655 442.027,134.027 440.989,131.445 C440.705,130.737 440.471,129.658 440.471,129.05 C440.471,128.441 440.281,127.467 440.046,126.885 C439.812,126.304 438.75,123.031 437.686,119.614 C435.42,112.341 435.25,112.13 426.416,105.718 C423.386,103.519 420.183,100.957 419.297,100.024 C415.97,96.524 412.845,96.147 409.981,98.9 C408.926,99.912 407.9,100.741 407.696,100.741 C407.494,100.741 407.329,101.019 407.329,101.359 C407.329,101.7 406.914,102.354 406.408,102.813 C405.902,103.27 405.487,103.891 405.487,104.194 C405.487,104.495 405.073,105.116 404.567,105.573 C404.061,106.032 403.646,106.563 403.646,106.753 C403.646,106.943 402.766,108.462 401.689,110.126 C400.614,111.79 399.052,114.268 398.216,115.632 C395.87,119.468 394.888,120.185 391.405,120.604 C389.741,120.804 387.697,121.388 386.867,121.902 C386.036,122.416 384.863,122.84 384.259,122.845 C382.925,122.856 378.996,127.436 376.154,132.296 C375.108,134.081 373.565,136.606 372.725,137.907 C371.883,139.209 370.286,141.735 369.176,143.523 C368.066,145.309 366.969,146.772 366.737,146.772 C366.504,146.772 366.005,147.549 365.629,148.498 C365.25,149.448 364.536,150.977 364.041,151.898 C362.624,154.527 362.739,155.103 366.02,161.854 C366.543,162.934 367.249,164.047 367.588,164.327 C368.744,165.286 367.998,166.886 361.375,177.657 C357.933,183.257 357.635,183.484 356.462,181.411 C355.471,179.658 354.616,178.359 351.194,173.399 C349.562,171.032 347.796,168.464 347.271,167.692 C344.331,163.359 342.6,161.578 340.813,161.046 C339.071,160.526 336.303,159.282 333.769,157.879 C331.977,156.886 327.171,155.889 325.313,156.126 C323.947,156.299 323.418,156.124 322.558,155.21 C321.713,154.31 321.125,154.108 319.684,154.223 C317.983,154.359 317.772,154.228 316.268,152.142 L314.664,149.917 L316.232,146.911 C320.435,138.844 328.526,135.164 336.401,137.738 C340.514,139.085 342.598,137.869 343.01,133.884 C343.224,131.814 345.348,125.47 346.554,123.295 C346.905,122.663 347.243,121.178 347.304,119.997 C347.366,118.815 347.638,117.431 347.913,116.92 C348.185,116.409 348.409,115.553 348.409,115.018 C348.409,114.482 348.756,113.38 349.18,112.57 C349.628,111.714 349.991,109.832 350.046,108.071 C350.099,106.406 350.424,104.593 350.768,104.042 C351.263,103.249 351.277,102.858 350.836,102.151 C350.509,101.627 350.307,99.83 350.35,97.793 C350.427,93.984 349.674,92.455 347.719,92.455 C347.164,92.455 346.336,92.04 345.877,91.534 C344.566,90.085 341.2,92.13 342.439,93.623 C342.831,94.096 342.844,94.296 342.481,94.296 C342.198,94.296 341.964,94.118 341.964,93.899 C341.964,93.68 341.015,93.371 339.855,93.211 C338.694,93.052 337.194,92.639 336.519,92.292 C334.444,91.228 332.437,90.716 331.24,90.944 C330.611,91.064 329.609,90.851 329.011,90.471 C328.414,90.093 326.993,89.644 325.853,89.473 C322.305,88.945 321.969,88.792 322.893,88.116 C323.477,87.689 323.604,87.168 323.386,86.085 C323.224,85.284 322.964,83.957 322.807,83.134 C322.175,79.815 320.1,78.849 317.589,80.703 C316.128,81.78 315.984,81.8 314.808,81.105 C313.46,80.309 311.123,81.226 311.123,82.552 C311.123,84.173 300.581,83.651 297.314,81.871 C296.206,81.266 293.508,81.029 284.656,80.763 C282.378,80.693 280.15,80.604 279.707,80.563 C278.727,80.471 278.623,79.566 279.592,79.566 C280.697,79.566 280.399,78.669 278.741,77.012 C277.85,76.12 277.371,75.298 277.606,75.063 C278.288,74.381 277.524,73.213 276.057,72.702 C275.294,72.435 273.904,71.355 272.967,70.301 C271.512,68.661 271.134,68.456 270.349,68.877 C269.472,69.345 269.162,69.848 267.445,73.582 C266.396,75.861 264.632,76.842 264.632,75.144 C264.632,74.671 264.38,74.501 263.932,74.673 C263.349,74.896 263.267,74.567 263.437,72.697 C263.664,70.193 264.698,67.848 265.751,67.444 C266.628,67.108 265.969,65.368 263.801,62.293 C261.178,58.571 259.533,58.535 257.684,62.159 C256.871,63.755 255.426,64.584 255.426,63.455 C255.426,62.73 254.045,62.919 253.751,63.685 C253.606,64.065 253.192,64.376 252.833,64.376 C250.88,64.376 248.475,82.193 249.681,87.738 C250.08,89.573 248.559,89.923 247.684,88.198 C244.588,82.084 240.37,76.672 238.978,77.02 C238.404,77.165 237.934,77.074 237.934,76.818 C237.934,76.564 237.058,75.803 235.987,75.127 C232.952,73.211 232.68,72.785 232.571,69.801 C232.461,66.731 231.896,65.757 230.233,65.757 C229.246,65.757 229.128,65.913 229.374,66.895 C229.727,68.298 229.022,68.117 225.968,66.025 C224.83,65.245 222.862,64.072 221.595,63.419 C220.329,62.766 218.645,61.883 217.855,61.458 C217.064,61.034 214.696,60.064 212.593,59.304 C210.488,58.544 208.385,57.576 207.92,57.155 C206.901,56.235 188.7,56.138 185.367,57.035 C184.326,57.316 182.269,57.54 180.793,57.532 C178.901,57.523 177.888,57.743 177.352,58.279 C176.474,59.158 172.669,61.153 171.875,61.153 C171.422,61.153 166.745,63.835 163.074,66.198 C161.827,67.001 159.844,65.234 159.142,62.694 C158.673,60.989 158.617,61.103 161.361,58.082 C162.425,56.908 163.475,52.533 163.181,50.488 C162.901,48.528 162.857,47.675 162.951,46.078 C162.994,45.358 162.772,42.648 161.69,30.773 C161.46,28.243 161.07,26.86 160.236,25.594 C158.959,23.656 158.308,21.25 157.976,17.243 C157.827,15.452 157.454,14.21 156.875,13.588 C155.833,12.469 155.784,11.531 156.707,10.314 C157.905,8.728 155.901,4.996 153.851,4.996 C153.213,4.996 152.084,4.566 151.346,4.039 C150.394,3.363 149.625,3.167 148.701,3.369 C147.812,3.565 147.212,3.431 146.809,2.945 C146.238,2.256 141.677,2.012 139.197,2.535 M96.389,33.075 C96.545,33.329 96.247,33.535 95.725,33.535 C95.203,33.535 94.777,33.329 94.777,33.075 C94.777,32.821 95.075,32.614 95.441,32.614 C95.805,32.614 96.233,32.821 96.389,33.075 M106.077,39.577 C106.849,40.305 107.729,40.901 108.033,40.901 C108.337,40.901 108.587,41.134 108.587,41.42 C108.587,42.115 105.11,41.557 103.822,40.655 C102.682,39.856 101.147,39.778 100.442,40.483 C100.078,40.847 99.592,40.759 98.684,40.163 L97.429,39.342 L98.413,38.544 C99.975,37.278 104.253,37.855 106.077,39.577 M94.662,39.635 C94.372,40.505 92.936,40.63 92.936,39.783 C92.936,39.356 93.33,39.059 93.894,39.059 C94.457,39.059 94.774,39.297 94.662,39.635 M83.27,43.633 C83.27,43.841 82.699,44.256 82.004,44.555 C80.588,45.164 77.996,48.924 76.114,53.099 C75.43,54.617 74.441,56.726 73.918,57.784 C73.129,59.38 73.057,59.91 73.498,60.876 C74.213,62.445 73.005,65.678 72.013,64.854 C71.43,64.371 71.239,63.357 70.561,57.188 C70.093,52.927 72.652,49.323 79.195,45.03 C82.304,42.988 83.27,42.657 83.27,43.633 M104.424,49.931 C107.067,52.154 108.542,62.401 106.712,65.819 C106.332,66.531 106.422,67.149 107.112,68.544 C108.221,70.783 107.942,71.046 103.983,71.489 C92.983,72.721 92.403,72.651 91.753,70.028 C91.443,68.776 90.943,68.119 89.944,67.647 C88.294,66.868 87.889,66.336 87.88,64.929 C87.875,64.237 87.393,63.603 86.478,63.089 C85.357,62.459 85.137,62.088 85.353,61.205 C85.548,60.401 85.285,59.755 84.375,58.804 C83.336,57.721 83.226,57.387 83.715,56.801 C84.036,56.413 84.186,55.664 84.049,55.139 C83.74,53.956 85.058,52.539 86.825,52.151 C87.528,51.997 88.725,51.599 89.483,51.268 C92.004,50.168 94.979,49.54 97.341,49.61 C98.623,49.648 100.177,49.477 100.792,49.231 C102.491,48.552 102.873,48.626 104.424,49.931 M74.977,67.993 C74.965,69.375 74.14,70.247 73.61,69.44 C73.1,68.663 73.002,67.431 73.418,67.017 C73.902,66.533 74.984,67.209 74.977,67.993 M77.881,73.771 C77.771,75.294 77.533,75.631 76.856,75.212 C75.974,74.666 76.25,72.111 77.17,72.301 C77.738,72.418 77.947,72.852 77.881,73.771 M276.149,74.743 C276.469,75.13 276.608,75.57 276.456,75.721 C275.985,76.192 274.76,75.489 274.76,74.748 C274.76,73.846 275.403,73.845 276.149,74.743 M279.548,164.955 C280.738,165.76 281.866,166.106 283.321,166.106 C286.671,166.106 291.527,172.163 290.486,175.043 C289.66,177.326 289.816,178.047 291.617,180.243 L293.283,182.278 L292.531,183.973 C291.111,187.175 290.483,190.741 290.332,196.494 L290.18,202.255 L294.499,208.692 C302.112,220.038 304.328,222.728 308.014,225.096 C309.87,226.288 310.155,226.665 309.921,227.603 C309.602,228.872 310.504,229.093 312.079,228.132 C313.094,227.511 314.346,228.55 314.346,230.015 C314.346,230.385 314.838,231.743 315.44,233.034 C316.042,234.325 316.868,236.316 317.277,237.458 C317.728,238.714 318.429,239.712 319.06,239.988 C319.858,240.338 320.124,240.874 320.206,242.287 L320.313,244.128 L317.031,245.686 C312.112,248.022 310.171,250.074 305.615,257.744 C305.227,258.396 303.707,260.881 302.236,263.266 C300.767,265.652 299.317,268.012 299.015,268.51 C298.713,269.01 297.582,270.747 296.501,272.373 C293.491,276.904 293.49,277.017 296.452,283.839 L297.505,286.265 L295.914,289.303 C294.368,292.255 293.729,292.816 291.33,293.338 C290.697,293.475 289.365,294.317 288.37,295.211 C286.737,296.674 284.613,297.328 283.879,296.593 C283.748,296.463 284.095,295.454 284.653,294.355 C285.865,291.958 286.455,285.591 285.851,281.413 C285.4,278.286 285.744,277.507 287.588,277.485 C289.915,277.457 290.652,276.423 289.945,274.171 C288.435,269.36 284.858,263.698 282.053,261.682 C280.838,260.808 280.158,259.875 279.819,258.614 C279.319,256.76 278.293,255.866 276.663,255.866 C276.158,255.866 275.446,255.566 275.08,255.199 C274.052,254.173 271.145,252.643 270.219,252.643 C269.762,252.643 269.247,252.502 269.073,252.328 C268.9,252.155 268.012,251.756 267.101,251.444 C265.433,250.87 265.294,250.886 258.129,252.468 C257.463,252.617 256.809,252.558 256.675,252.342 C256.237,251.633 258.51,245.713 260.04,243.584 C260.987,242.265 261.618,240.759 261.763,239.468 C262.054,236.889 262.073,236.879 265.301,237.945 C269.702,239.397 271.537,238.708 271.537,235.602 C271.537,234.158 272.31,233.31 273.626,233.31 C275.126,233.31 275.679,231.476 275.679,226.515 C275.679,221.443 276.28,219.379 278.976,215.173 C284.87,205.972 282.468,194.206 274.036,190.99 L271.768,190.125 L271.943,184.444 C272.1,179.278 272.215,178.646 273.209,177.462 C274.434,176 274.62,173.951 273.664,172.418 C272.397,170.384 272.365,167.945 273.606,167.945 C274.662,167.945 276.083,166.434 276.742,164.609 C277.128,163.539 277.538,163.589 279.548,164.955 M272.668,198.152 C274.965,199.034 275.447,204.481 273.6,208.659 C271.268,213.932 269.28,210.361 270.219,202.584 C270.793,197.839 270.978,197.505 272.668,198.152 M137.411,205.034 C139.65,207.369 139.869,208.17 138.507,209.021 C137.441,209.687 137.293,211.741 138.116,214.484 C139.333,218.549 133.679,218.984 131.65,214.982 C129.481,210.704 130.028,205.977 132.91,204.088 C135.142,202.625 135.093,202.614 137.411,205.034 M241.05,221.727 C241.371,221.932 241.579,222.578 241.51,223.163 C241.408,224.049 241.696,224.316 243.229,224.754 C245.568,225.421 245.932,227.294 244.316,230.341 C243.421,232.028 243.35,232.481 243.834,233.392 C244.66,234.945 243.914,238.853 241.475,245.74 C239.131,252.36 238.773,252.65 238.225,248.376 C237.707,244.348 235.179,241.738 231.567,241.505 L229.418,241.366 L229.418,239.079 C229.418,237.168 229.588,236.706 230.45,236.275 C232.792,235.109 233.331,234.212 233.331,231.484 C233.331,228.03 234.501,225.73 237.491,223.299 C240.072,221.202 240.161,221.162 241.05,221.727 M60.071,294.281 C59.908,294.925 59.464,295.452 59.082,295.452 C58.474,295.452 58.478,295.279 59.125,294.028 C59.967,292.4 60.506,292.543 60.071,294.281 M285.232,338.092 C285.801,338.245 286.267,338.639 286.267,338.97 C286.267,339.301 285.801,340.159 285.232,340.876 C284.662,341.595 283.973,342.582 283.702,343.071 C283.061,344.228 282.124,344.529 282.124,343.577 C282.124,343.167 281.799,342.336 281.4,341.729 C279.896,339.432 282.171,337.272 285.232,338.092 M278.512,344.245 C278.424,345.511 278.165,346.43 277.937,346.29 C277.457,345.994 277.369,342.71 277.828,342.251 C278.503,341.576 278.665,342.046 278.512,344.245 M283.746,348.86 C284.573,349.773 284.554,349.831 282.845,351.581 C281.216,353.247 281.118,353.501 281.394,355.366 C282.454,362.551 281.104,364.468 278.564,359.388 C276.337,354.928 276.259,353.884 278.072,352.762 C278.891,352.256 280.15,350.96 280.872,349.885 C282.37,347.654 282.584,347.576 283.746,348.86 M218.483,363.233 C219.448,364.562 221.448,367.457 222.932,369.664 C227.092,375.86 233.074,378.088 242.078,376.793 L244.608,376.429 L244.608,380.131 C244.608,384.364 244.845,384.227 240.219,382.693 C236.37,381.417 234.252,381.219 234.252,382.135 C234.252,382.467 233.63,383.335 232.871,384.063 C231.852,385.037 231.489,385.808 231.489,386.992 C231.489,387.877 231.296,389.236 231.059,390.015 C228.811,397.393 228.237,402.802 229.552,404.241 C230.2,404.949 230.354,405.503 230.088,406.157 C229.881,406.665 229.698,407.868 229.681,408.831 C229.664,409.794 229.46,411.451 229.229,412.514 C227.914,418.561 227.685,423.028 228.625,424.299 C229.293,425.204 229.489,426.067 229.367,427.581 C228.915,433.16 228.458,448.565 228.626,452.536 C228.781,456.163 228.653,457.425 227.967,459.095 C226.563,462.511 225.789,461.83 226.165,457.509 L226.485,453.854 L223.43,450.95 C221.749,449.353 219.976,447.859 219.489,447.63 C219,447.402 218.601,446.951 218.601,446.628 C218.601,445.204 216.441,444.299 212.823,444.204 C209.629,444.122 209.108,443.977 207.762,442.795 C206.938,442.071 205.982,441.376 205.642,441.25 C204.711,440.908 205.993,439.85 208.245,439.103 C211.268,438.1 211.341,437.963 211.005,433.807 C210.773,430.933 210.87,429.706 211.431,428.382 C212.489,425.889 212.311,423.349 210.707,418.016 C210.461,417.196 210.168,414.71 210.058,412.492 C209.947,410.273 209.676,407.423 209.457,406.157 C207.611,395.526 207.444,394.237 207.831,393.622 C208.502,392.559 207.472,382.442 206.553,381.071 C205.5,379.497 205.241,375.841 206.173,375.702 C206.553,375.646 208.858,375.468 211.295,375.305 C215.869,374.999 217.181,374.228 216.555,372.215 C216.086,370.706 215.836,360.816 216.266,360.816 C216.522,360.816 217.519,361.904 218.483,363.233 M288.579,366.582 C289.45,367.634 288.968,367.7 287.418,366.741 C286.211,365.992 286.16,365.885 287.016,365.882 C287.555,365.882 288.257,366.196 288.579,366.582 M217.45,447.356 C217.625,447.637 216.909,447.816 215.609,447.816 C214.31,447.816 213.594,447.637 213.767,447.356 C213.925,447.102 214.753,446.896 215.609,446.896 C216.465,446.896 217.294,447.102 217.45,447.356 M246.008,449.543 C246.155,450.238 246.47,451.168 246.708,451.608 C246.946,452.046 247.14,452.499 247.14,452.611 C247.14,453.134 243.033,454.788 242.076,454.647 C240.473,454.414 240.526,453.659 242.202,452.879 C243.309,452.365 243.847,451.69 244.307,450.233 C245.021,447.977 245.627,447.731 246.008,449.543" fill="#000000" id="path0"/>
  </g>
</svg>
