<?xml version="1.0" encoding="UTF-8"?>
<!DOCTYPE svg PUBLIC "-//W3C//DTD SVG 1.1//EN" "http://www.w3.org/Graphics/SVG/1.1/DTD/svg11.dtd">
<svg version="1.1" xmlns="http://www.w3.org/2000/svg" xmlns:xlink="http://www.w3.org/1999/xlink" x="0" y="0" width="500" height="500" viewBox="0, 0, 500, 500">
  <g id="layer101">
    <path d="M181.012,495.02 C175.854,492.293 171.349,489.566 171.052,489.032 C170.637,488.262 170.874,487.432 172.001,485.772 C173.957,482.986 175.617,478.065 174.906,477.354 C174.609,477.057 171.052,476.405 166.962,475.931 C162.93,475.456 158.958,474.804 158.128,474.508 C153.386,472.848 149.829,472.492 145.679,473.263 C143.367,473.678 141.055,474.389 140.462,474.804 C139.513,475.516 139.513,475.694 140.521,478.48 C141.825,482.274 141.825,483.756 140.403,484.527 C138.921,485.298 104.595,486.602 103.409,485.95 C101.69,484.942 94.754,478.895 94.754,478.302 C94.695,478.006 95.584,476.82 96.71,475.634 C98.133,474.152 99.26,471.959 100.623,467.75 C102.342,462.533 102.757,461.821 104.773,460.517 C106.018,459.746 107.144,458.442 107.381,457.612 C107.619,456.604 108.567,455.715 109.99,455.004 C111.65,454.233 112.243,453.581 112.361,452.336 C112.48,451.15 112.302,450.735 111.591,450.735 C110.939,450.735 111.591,449.549 113.843,446.822 C116.748,443.325 117.163,442.495 118.053,438.108 C118.586,435.44 119.001,432.357 119.001,431.29 C119.001,430.223 119.298,428.741 119.653,428.089 C120.009,427.437 120.543,425.48 120.78,423.82 C121.017,422.16 121.787,418.188 122.44,415.046 C123.151,411.904 123.981,407.339 124.277,404.968 C124.633,402.597 125.463,398.15 126.115,395.127 C126.767,392.044 127.538,387.776 127.834,385.641 C128.131,383.448 128.783,379.772 129.317,377.52 C129.791,375.207 130.502,371.176 130.858,368.627 C131.747,361.631 132.399,358.252 133.407,355.288 C133.881,353.806 134.593,351.435 135.008,349.953 C135.363,348.47 135.897,346.87 136.134,346.396 C136.846,345.091 139.039,344.973 141.588,346.099 C142.833,346.692 144.849,347.166 146.094,347.225 L148.347,347.285 L148.109,344.024 C147.517,336.673 147.635,336.199 149.532,335.132 C151.37,334.124 151.489,333.531 150.659,330.211 C150.422,329.144 150.599,327.84 151.192,326.654 C152.319,324.223 154.216,316.279 154.097,314.501 C153.979,312.841 152.2,309.64 151.37,309.64 C151.074,309.64 149.71,310.707 148.287,312.011 C143.722,316.22 143.485,315.983 138.387,302.703 C135.423,294.996 135.304,293.989 136.846,288.238 C138.506,281.954 138.861,281.243 140.936,280.531 C141.885,280.175 142.774,279.583 142.893,279.168 C143.07,278.753 142.952,276.322 142.596,273.714 C142.24,271.164 141.944,267.133 141.885,264.821 C141.825,260.79 141.766,260.612 139.632,258.715 C138.387,257.648 136.608,255.336 135.601,253.557 C133.763,250.415 132.992,249.881 129.791,249.881 C128.012,249.822 123.388,246.028 121.787,243.36 C120.839,241.76 120.365,241.463 119.357,241.76 C118.645,241.997 116.926,242.352 115.444,242.649 C113.962,242.886 111.531,243.419 109.99,243.894 C105.722,245.079 102.935,243.242 101.809,238.321 C101.394,236.602 101.335,236.543 101.275,237.965 C101.097,241.878 96.058,244.783 90.071,244.309 C85.624,244.012 83.787,242.708 80.111,237.254 L77.206,233.045 L77.384,228.48 C77.562,223.085 75.368,207.849 74.183,206.189 C73.708,205.537 72.641,204.114 71.811,202.988 C71.04,201.862 70.211,200.261 69.973,199.431 C69.796,198.601 68.728,196.763 67.602,195.34 C66.535,193.917 65.646,192.495 65.646,192.258 C65.646,191.961 64.816,190.538 63.808,189.056 C60.607,184.551 61.614,178.859 66.772,171.923 L68.906,169.078 L68.906,161.963 C68.906,154.849 68.906,154.79 70.566,153.486 C71.455,152.715 72.167,151.589 72.167,150.818 C72.167,150.047 72.463,148.387 72.819,147.202 C73.412,145.245 73.353,144.771 72.167,143.171 C71.455,142.163 70.803,140.384 70.744,139.08 C70.685,137.598 69.914,135.641 68.728,133.804 C64.816,127.697 64.164,124.022 66.239,119.991 C68.669,115.189 72.878,113.114 79.281,113.529 C81.474,113.706 83.727,113.588 84.261,113.291 C85.802,112.461 85.387,110.268 83.194,107.363 C81.237,104.814 79.637,103.806 76.139,103.095 C74.479,102.68 73.234,100.783 73.768,99.36 C74.183,98.352 79.34,94.676 81.119,94.143 C81.889,93.906 83.194,93.194 83.964,92.601 C84.735,91.949 85.624,91.475 85.98,91.475 C87.344,91.475 94.576,88.214 97.955,86.139 C102.402,83.294 107.796,81.397 111.176,81.397 C114.614,81.397 117.163,78.966 119.001,73.808 C121.432,67.169 127.242,63.967 133.229,66.101 C136.193,67.109 136.786,65.864 136.786,58.869 C136.786,53.652 136.905,53 138.328,51.103 C139.75,49.206 139.81,48.791 139.513,44.581 C139.276,41.973 139.395,39.364 139.75,38.475 C140.64,36.045 143.841,35.037 150.54,34.918 C158.366,34.859 158.425,34.918 158.425,43.514 C158.425,49.739 158.484,50.154 159.848,51.221 C160.737,51.992 161.982,52.348 163.108,52.229 C164.59,52.111 165.183,51.577 166.25,49.443 C166.962,48.02 167.732,45.649 167.91,44.107 C168.325,40.669 169.57,38.12 174.372,30.709 C176.506,27.448 179.471,22.646 181.012,20.038 C184.273,14.525 188.423,8.893 190.32,7.588 C191.09,7.055 192.928,6.699 195.062,6.699 C198.086,6.699 198.679,6.521 199.805,5.158 C200.516,4.268 201.88,2.786 202.769,1.779 L204.429,0 L210.476,0.474 C216.76,0.889 218.598,1.66 218.598,3.735 C218.598,4.328 219.072,5.395 219.665,6.106 C220.732,7.47 221.029,7.47 239.762,7.885 C250.256,8.122 259.089,8.478 259.385,8.715 C260.156,9.189 273.91,27.389 274.384,28.634 C274.621,29.108 274.266,30.353 273.673,31.361 C272.724,32.903 272.606,33.851 273.021,37.586 C273.376,41.321 273.613,41.973 274.621,42.151 C276.755,42.566 278.475,44.819 281.439,51.043 C283.099,54.423 285.174,58.335 286.122,59.699 C288.612,63.315 288.909,64.857 287.367,66.576 C286.359,67.761 286.122,68.532 286.359,70.429 C286.774,73.216 288.019,74.283 290.924,74.283 C292.347,74.283 293.473,74.698 294.185,75.468 C295.667,77.128 296.675,76.95 299.402,74.52 C307.109,67.524 317.898,67.465 326.435,74.283 C329.162,76.476 333.964,82.345 336.217,86.199 C337.462,88.392 338.411,89.222 340.841,90.23 C342.501,90.882 344.28,91.475 344.813,91.475 C345.347,91.475 346.355,91.89 347.066,92.364 C347.777,92.839 350.327,94.083 352.817,95.032 C355.307,96.04 358.33,97.522 359.575,98.352 C360.761,99.182 363.428,100.783 365.444,101.968 C372.38,105.822 378.664,112.876 383.348,122.125 C384.889,125.207 384.948,126.571 383.407,127.935 C381.984,129.239 381.925,131.077 383.111,133.982 C383.585,135.108 384,136.471 384,136.886 C384,137.301 381.866,138.902 379.257,140.384 C376.589,141.926 374.396,143.645 374.159,144.356 C373.981,145.008 373.981,146.728 374.218,148.15 C374.396,149.573 374.277,153.427 373.862,156.687 C373.27,161.726 373.27,162.793 373.981,163.446 C375.344,164.691 379.85,166.232 382.459,166.291 C383.822,166.35 388.209,167.24 392.3,168.248 C398.287,169.73 400.244,170.5 402.556,172.279 C404.156,173.465 405.757,174.472 406.231,174.472 C408.543,174.472 414.946,177.14 417.792,179.274 C424.017,183.898 426.329,188.167 424.965,192.435 C424.076,195.162 422.297,196.704 418.385,198.127 C412.99,200.083 407.358,200.32 402.378,198.838 C399.473,197.949 397.339,197.652 395.916,197.889 C392.892,198.364 382.399,195.34 376.174,192.198 C373.744,190.953 372.736,191.131 372.736,192.791 C372.736,194.155 373.862,195.222 375.404,195.222 C377.242,195.222 381.629,198.186 384.356,201.328 C387.201,204.529 389.632,205.715 394.493,206.249 C401.311,206.96 411.804,210.458 413.583,212.651 C413.998,213.185 415.48,213.896 416.843,214.252 C418.147,214.608 419.807,215.378 420.459,215.971 C421.112,216.564 423.187,217.75 425.024,218.52 C428.166,219.943 434.391,224.982 434.391,226.109 C434.391,226.405 435.221,227.769 436.229,229.251 C440.26,235.001 437.118,242.056 430.538,242.056 C429.708,242.056 428.285,242.412 427.396,242.886 C425.38,243.834 419.215,243.242 415.717,241.76 C414.413,241.167 412.1,240.633 410.559,240.515 C408.899,240.455 407.061,239.862 405.994,239.151 C405.046,238.44 403.445,237.906 402.378,237.906 C400.066,237.906 389.573,233.46 387.557,231.622 C386.727,230.851 384.118,229.428 381.747,228.48 C377.953,226.879 377.064,226.761 373.27,227.057 C369.535,227.354 368.823,227.65 366.333,229.666 C362.598,232.808 360.642,233.638 356.018,234.112 C351.453,234.586 347.422,234.053 345.762,232.808 C344.813,232.096 344.635,231.326 344.754,228.184 C344.932,223.915 344.576,223.441 340.901,222.789 C336.573,222.077 334.201,224.686 334.201,230.14 C334.201,232.808 333.905,233.401 331.712,235.95 C330.289,237.55 328.51,240.04 327.68,241.582 C326.198,244.427 324.538,245.613 321.989,245.613 C321.1,245.613 319.736,246.443 318.432,247.688 C314.401,251.719 311.259,250.356 305.686,241.937 C302.247,236.72 302.07,236.305 301.595,231.8 C301.358,229.547 300.884,227.472 300.528,227.116 C300.173,226.761 298.987,227.413 297.208,228.954 C295.667,230.318 294.303,231.385 294.244,231.385 C292.643,231.385 283.395,233.401 282.862,233.816 C281.261,235.12 282.684,236.128 286.122,236.128 C289.739,236.128 292.762,237.313 296.556,240.1 C300.054,242.708 302.188,246.147 303.789,251.956 C305.152,256.995 305.212,257.766 305.152,275.848 C305.034,293.159 305.33,300.925 306.101,303.118 C306.338,303.77 306.931,303.415 308.413,301.695 C310.132,299.739 310.666,299.502 312.029,299.798 C314.519,300.451 317.246,303.652 318.728,307.565 C320.507,312.248 320.151,318.769 317.958,322.148 C315.468,325.824 309.243,332.997 307.879,333.768 C306.397,334.539 306.338,335.013 305.212,353.628 C304.915,358.43 304.5,362.58 304.322,362.876 C304.145,363.173 303.967,365.663 303.967,368.39 C303.907,371.117 303.611,374.97 303.374,376.927 C303.077,378.883 302.662,385.819 302.425,392.341 C302.247,398.862 301.832,404.612 301.536,405.205 C300.528,407.102 300.943,408.999 302.722,410.244 C304.263,411.43 304.382,411.845 304.678,416.469 C304.856,419.315 305.449,422.279 305.982,423.346 C306.516,424.354 306.931,425.717 306.931,426.369 C306.931,427.022 307.998,428.444 309.362,429.571 C311.496,431.409 311.911,432.298 313.511,437.752 C314.46,441.072 315.646,444.332 316.179,444.866 C318.195,447.119 317.068,448.423 310.784,451.209 C303.73,454.351 303.848,454.351 288.257,450.794 C272.013,447.06 272.25,447.237 274.918,441.546 C275.925,439.353 276.578,437.337 276.281,437.159 C274.858,435.914 269.226,435.203 264.365,435.618 C261.52,435.914 255.295,436.151 250.552,436.151 C239.169,436.211 238.458,436.744 241.541,442.85 L243.082,445.992 L241.837,447.356 C240.059,449.253 240.177,451.091 242.134,452.039 C242.964,452.454 243.912,453.225 244.149,453.699 C245.513,456.367 247.054,460.102 247.054,460.754 C247.054,461.169 248.003,463.54 249.188,465.971 C250.315,468.461 251.086,470.654 250.789,470.892 C249.9,471.662 243.082,473.856 241.482,473.856 C240.652,473.856 236.917,474.508 233.241,475.279 C229.625,476.109 224.764,476.879 222.451,477.116 L218.302,477.531 L213.559,474.212 C206.919,469.528 206.326,469.706 208.816,475.397 C209.646,477.235 210.298,479.547 210.298,480.496 C210.298,481.444 210.654,482.333 211.188,482.511 C211.84,482.748 212.077,483.756 212.077,485.95 C212.077,487.669 212.61,490.1 213.262,491.582 C214.507,494.249 214.804,497.273 213.974,497.806 C212.907,498.459 205.556,499.289 198.145,499.644 L190.438,500 L181.012,495.02 z M136.134,456.249 C137.498,455.063 138.683,451.861 138.031,450.854 C137.853,450.557 136.549,449.964 135.186,449.609 C133.704,449.194 132.577,448.482 132.459,447.889 C132.281,447.356 131.984,446.17 131.806,445.281 C131.569,444.332 131.154,443.621 130.858,443.621 C129.969,443.621 123.092,451.98 123.329,452.691 C123.447,453.106 124.574,453.403 125.819,453.403 C127.597,453.403 128.309,453.759 129.494,455.359 C131.273,457.553 134.059,457.968 136.134,456.249 z M199.924,441.783 C200.635,440.657 199.627,437.159 198.086,435.321 C197.256,434.373 196.367,433.543 196.129,433.543 C195.477,433.543 196.129,440.835 196.782,441.724 C197.552,442.613 199.39,442.672 199.924,441.783 z M225.119,400.225 C225.89,398.684 226.364,397.261 226.127,397.024 C225.356,396.194 222.689,397.972 221.918,399.87 C220.08,404.138 222.866,404.434 225.119,400.225 z M218.124,367.916 C218.657,366.671 219.724,362.58 220.614,358.845 C222.985,348.767 223.815,346.336 225.297,344.973 C226.068,344.261 227.076,342.364 227.55,340.764 C228.676,336.851 231.403,334.302 236.146,332.76 C240.77,331.219 242.371,331.397 243.379,333.531 C244.268,335.309 245.928,335.606 247.114,334.183 C247.766,333.412 247.469,332.464 245.394,328.255 C243.734,324.994 242.549,323.275 241.897,323.275 C240.177,323.275 236.087,326.061 235.257,327.84 C233.004,332.642 233.241,332.464 230.218,332.642 C226.957,332.879 225.712,332.108 225.712,329.855 C225.712,327.84 225.238,327.188 222.866,326.002 C220.376,324.757 216.997,320.133 216.167,316.872 C215.337,313.73 214.685,313.315 213.085,314.857 C212.314,315.568 210.773,316.161 209.409,316.279 L207.038,316.457 L206.682,323.275 C206.504,327.01 206.148,330.922 205.852,331.99 C205.496,333.472 205.793,334.835 207.215,338.214 C210.239,345.625 210.239,345.921 206.919,349.597 C202.828,354.102 199.449,363.291 201.524,364.536 C202.651,365.248 203.777,362.876 203.777,359.675 C203.777,357.422 204.014,356.533 204.726,356.237 C207.868,355.051 213.618,357.244 214.152,359.853 C214.389,360.742 214.804,362.284 215.1,363.232 C215.397,364.181 215.634,365.959 215.634,367.145 C215.634,370.82 216.879,371.176 218.124,367.916 z M221.621,309.165 C221.799,306.438 221.444,305.786 220.08,306.26 C219.013,306.675 218.894,309.402 219.843,311.833 C220.317,313.197 220.554,313.315 220.969,312.544 C221.266,312.07 221.562,310.529 221.621,309.165 z M210.891,311.714 C211.958,310.41 211.425,300.451 210.239,299.265 C209.468,298.435 209.172,298.553 207.63,300.213 C206.03,301.814 205.852,302.407 205.911,305.786 C205.971,309.936 207.215,312.604 209.053,312.604 C209.646,312.604 210.476,312.189 210.891,311.714 z M220.969,296.538 C220.969,295.886 220.732,295.53 220.376,295.708 C220.08,295.886 219.784,296.597 219.784,297.249 C219.784,297.901 220.08,298.257 220.376,298.079 C220.732,297.901 220.969,297.19 220.969,296.538 z M319.025,231.681 C320.625,230.021 321.93,224.271 321.337,221.01 C320.922,218.224 320.685,217.927 318.017,216.564 L315.171,215.082 L313.986,216.505 C311.851,219.113 312.622,225.931 315.527,230.318 C317.187,232.808 317.661,232.986 319.025,231.681 z M165.658,209.983 C165.717,208.857 165.954,206.782 166.132,205.3 C166.547,202.691 166.487,202.573 163.523,199.846 C160.974,197.475 160.5,196.704 160.5,194.925 C160.5,190.835 158.247,187.515 155.52,187.515 C154.097,187.515 154.334,188.582 156.469,191.843 C158.01,194.214 158.425,195.577 158.603,198.719 C158.781,200.854 159.255,203.166 159.67,203.818 C160.144,204.47 160.5,205.419 160.5,205.893 C160.5,207.375 163.998,212.533 164.828,212.236 C165.183,212.118 165.598,211.11 165.658,209.983 z" fill="#000000"/>
  </g>
</svg>
