<?xml version="1.0" encoding="UTF-8"?>
<!DOCTYPE svg PUBLIC "-//W3C//DTD SVG 1.1//EN" "http://www.w3.org/Graphics/SVG/1.1/DTD/svg11.dtd">
<svg version="1.1" xmlns="http://www.w3.org/2000/svg" xmlns:xlink="http://www.w3.org/1999/xlink" x="0" y="0" width="500" height="500" viewBox="0, 0, 500, 500">
  <g id="layer101">
    <path d="M384.275,492.114 L384.275,484.156 L380.369,483.071 C374.436,481.335 372.628,481.552 370.458,484.301 C368.215,487.05 367.057,492.982 368.432,494.646 C369.083,495.442 369.083,495.659 368.359,495.659 C367.853,495.659 367.057,495.153 366.623,494.574 C365.972,493.778 362.717,493.344 351.72,492.765 C343.979,492.331 335.876,491.825 333.778,491.608 C330.161,491.246 329.944,491.102 330.378,489.655 C330.667,488.786 331.174,485.024 331.463,481.263 C331.825,477.573 332.331,474.245 332.693,473.956 C332.983,473.594 337.323,472.002 342.315,470.338 C347.307,468.602 351.937,466.866 352.588,466.432 C354.542,465.057 359.027,457.967 358.448,457.099 C357.725,455.869 356.061,440.894 355.771,433.08 C355.627,429.535 355.12,423.676 354.614,420.058 C354.107,416.513 353.601,410.653 353.456,407.036 C353.167,399.078 352.009,391.916 350.562,389.094 C349.911,387.937 349.622,386.49 349.839,385.911 C350.128,385.26 349.984,382.873 349.55,380.485 C348.609,375.493 349.043,373.685 351.141,372.961 C352.299,372.6 353.095,372.961 353.963,374.047 C356.64,377.302 359.027,375.421 357.146,371.514 C356.205,369.489 356.133,368.476 356.712,366.812 C357.291,365.076 357.218,364.208 356.35,362.833 C354.831,360.59 354.035,360.663 353.167,362.905 C352.733,364.063 351.937,364.714 350.924,364.714 C348.971,364.714 345.426,361.097 344.775,358.492 C344.485,357.335 343.328,354.513 342.17,352.271 C338.625,345.108 337.83,340.623 338.843,334.112 C339.638,328.831 339.566,328.396 338.264,327.094 C336.889,325.72 336.672,325.72 332.548,326.805 C325.965,328.686 318.079,328.469 314.1,326.443 C309.904,324.273 305.202,319.787 302.091,315.013 C300.789,312.915 299.342,311.178 298.908,311.178 C297.316,311.178 296.448,314.796 297.172,318.268 C297.606,320.366 297.606,322.754 297.244,324.417 C296.81,326.081 296.882,328.252 297.244,329.843 C297.678,331.435 297.678,333.533 297.316,334.98 C296.954,336.282 296.81,337.874 297.027,338.38 C297.533,339.682 301.368,339.682 303.9,338.308 C305.564,337.512 306.866,337.44 310.483,338.018 C315.837,338.887 316.632,339.248 319.382,342.142 C322.348,345.181 321.769,346.845 317.645,347.423 C315.764,347.713 313.377,348.509 312.292,349.232 C311.062,350.028 308.891,350.607 306.938,350.607 L303.61,350.607 L303.104,387.141 C302.814,409.496 302.236,427.437 301.585,433.37 L300.572,443.064 L297.75,445.524 C296.231,446.826 293.193,449.141 291.022,450.588 C288.924,452.107 285.379,455.001 283.136,457.099 C278,461.946 275.54,463.031 273.587,461.295 C272.791,460.572 272.14,459.631 272.14,459.125 C272.14,458.329 269.536,454.639 262.373,445.379 C260.565,442.992 258.901,440.387 258.684,439.592 C258.467,438.796 258.611,434.383 258.973,429.825 C259.407,424.761 259.407,415.573 259.045,406.674 C258.684,398.499 258.467,382.366 258.539,370.863 C258.611,359.288 258.394,349.449 258.105,348.943 C257.743,348.364 256.658,348.219 254.777,348.509 C252.607,348.87 251.304,348.581 249.279,347.423 C247.832,346.555 245.517,345.615 244.07,345.325 C240.019,344.457 239.512,342.793 242.406,339.827 C245.227,336.933 245.083,336.789 238.644,336.21 C233.363,335.776 226.779,332.737 221.353,328.324 C219.111,326.443 216.94,324.924 216.506,324.924 C215.349,324.924 214.915,327.601 215.204,332.375 C215.421,335.703 215.855,336.933 217.447,338.597 C218.532,339.755 219.545,341.78 219.834,343.444 C220.051,344.964 220.702,347.134 221.209,348.219 C222.439,350.607 221.788,352.632 218.243,357.262 C215.204,361.241 215.059,362.905 217.664,364.135 C220.341,365.437 220.847,367.897 220.63,378.46 C220.558,383.451 220.847,389.456 221.281,391.843 C222.294,396.908 222.511,407.036 221.86,411.811 C221.498,414.271 221.643,415.645 222.439,416.875 C223.017,417.816 223.741,419.841 223.958,421.288 C224.392,423.531 224.103,424.254 222.294,426.425 C219.038,430.114 218.315,432.429 218.315,439.592 L218.243,446.03 L215.71,447.767 C210.574,451.239 213.829,453.627 219.689,450.733 L222.945,449.069 L232.205,453.482 C237.269,455.942 242.551,458.257 243.925,458.691 C245.3,459.125 247.325,460.21 248.338,461.15 C250.075,462.525 250.364,463.466 250.726,468.313 L251.16,473.883 L248.121,476.488 L245.083,479.02 L229.456,478.875 L213.902,478.658 L212.6,475.981 L211.225,473.232 L206.45,473.305 C203.773,473.377 199.65,473.594 197.262,473.883 L192.994,474.317 L191.33,478.658 C189.883,482.348 189.087,483.433 185.615,485.82 L181.563,488.569 L169.916,487.774 C163.477,487.34 156.821,486.761 155.157,486.544 L152.191,486.182 L151.685,481.118 C151.395,478.369 150.889,475.909 150.527,475.692 C150.093,475.475 148.212,475.475 146.186,475.764 C142.931,476.198 142.497,476.56 141.122,479.164 C139.748,481.914 139.603,481.986 136.637,481.624 C134.973,481.407 128.534,480.828 122.385,480.467 C107.192,479.382 107.916,479.599 107.916,475.981 C107.916,471.279 110.231,464.84 112.256,463.755 C112.835,463.466 115.657,462.38 118.478,461.295 C121.3,460.282 125.568,458.257 127.883,456.81 C130.27,455.363 133.598,453.41 135.335,452.541 L138.445,450.877 L141.339,452.469 L144.161,454.061 L145.897,452.107 C147.923,449.72 147.561,447.55 144.884,446.175 C138.952,443.064 132.513,434.672 132.513,429.897 C132.513,428.957 133.743,425.412 135.335,421.939 C136.854,418.539 138.663,413.258 139.386,410.292 C140.037,407.325 141.05,403.419 141.629,401.61 C143.654,395.027 145.535,387.43 145.535,385.477 C145.535,384.392 145.969,382.728 146.548,381.86 C147.85,379.834 151.323,367.897 151.323,365.437 C151.323,364.425 151.974,362.327 152.77,360.735 C153.566,359.143 154.217,357.335 154.217,356.611 C154.217,354.007 156.677,350.317 159.064,349.16 C161.162,348.147 161.451,347.713 161.162,346.049 C160.873,344.964 161.162,343.227 161.813,341.997 C162.392,340.84 162.681,339.248 162.464,338.235 C162.175,337.078 162.392,335.993 163.188,335.125 C163.839,334.401 165.213,331.724 166.154,329.192 C167.167,326.66 168.686,323.983 169.554,323.332 C171.073,322.247 171.218,321.234 172.014,309.442 C172.81,296.42 173.316,294.539 176.065,294.539 C177.874,294.539 182.432,291.066 182.432,289.692 C182.432,289.185 181.853,287.811 181.202,286.798 C180.117,285.206 179.899,283.108 179.827,276.091 C179.755,268.205 179.899,267.12 181.419,264.443 C182.359,262.851 183.155,260.681 183.155,259.741 C183.155,258.728 183.589,257.353 184.168,256.557 C184.747,255.762 185.615,253.664 186.121,251.855 C186.628,250.046 188.002,246.863 189.232,244.693 C192.198,239.267 195.381,237.892 206.089,237.531 C213.612,237.241 214.481,237.386 218.387,239.122 C224.392,241.871 227.72,244.403 228.733,246.863 C230.107,250.046 231.699,250.625 235.244,249.251 C240.019,247.37 238.789,243.897 233.363,243.897 C230.107,243.897 228.299,242.522 229.022,240.641 C229.239,239.99 230.035,239.339 230.686,239.05 C231.409,238.833 233.363,237.314 234.954,235.65 C236.618,233.986 238.355,232.394 238.789,231.96 C239.223,231.598 240.308,230.368 241.104,229.283 C241.9,228.126 243.129,227.257 243.853,227.257 C246.53,227.257 247.832,223.93 245.734,222.193 C245.155,221.759 242.044,221.108 238.861,220.819 C233.942,220.385 232.856,220.095 231.916,218.648 C230.758,217.057 230.324,216.984 225.188,217.274 C218.749,217.708 213.757,220.095 211.37,224.002 C210.574,225.304 209.416,226.606 208.765,226.823 C206.378,227.764 201.531,227.185 199.433,225.811 C198.275,225.015 196.828,224.364 196.25,224.364 C195.743,224.364 192.994,226.1 190.1,228.27 C182.287,234.13 177.078,236.445 167.094,238.471 C164.779,238.905 164.418,239.99 163.622,247.731 C162.971,255.111 162.754,255.762 161.524,256.268 C160.439,256.702 158.702,263.503 158.63,267.554 C158.558,270.954 157.183,273.559 154,276.669 L151.106,279.346 L151.468,290.849 C151.685,297.216 151.612,302.714 151.395,303.148 C150.672,304.233 134.828,302.859 132.585,301.484 C132.151,301.195 129.836,300.833 127.377,300.616 C123.325,300.326 122.819,300.471 120.576,302.424 C117.321,305.246 113.269,305.897 108.856,304.233 C106.903,303.582 105.094,302.714 104.66,302.352 C103.358,301.195 102.273,301.773 101.477,303.944 C100.536,306.765 98.583,307.416 93.519,306.62 C91.276,306.259 87.659,306.042 85.489,306.042 C81.727,306.114 81.582,306.042 83.318,305.101 C85.055,304.088 85.055,304.088 81.148,303.003 C78.977,302.352 76.011,301.701 74.637,301.412 C69.573,300.471 68.053,299.458 66.606,296.203 C65.883,294.394 65.232,292.658 65.232,292.368 C65.232,292.007 64.581,289.909 63.713,287.666 C62.627,284.7 61.904,283.687 60.819,283.687 C59.155,283.687 52.933,287.16 52.933,288.028 C52.933,288.389 52.137,289.113 51.197,289.619 C50.184,290.126 47.724,291.573 45.554,292.803 C30.795,301.339 25.369,303.944 22.62,303.944 C18.931,303.944 16.182,302.859 13.649,300.471 C10.539,297.577 9.526,295.045 9.526,290.415 C9.526,284.772 11.19,282.168 16.543,279.419 C20.45,277.393 27.106,273.486 46.06,262.056 C50.256,259.524 54.018,256.919 54.308,256.268 C54.669,255.617 54.959,248.31 55.031,240.063 C55.103,231.743 55.321,224.581 55.465,224.147 C55.61,223.64 55.899,222.338 56.189,221.18 C56.55,219.372 56.84,219.155 58.938,219.517 C60.24,219.661 62.338,220.312 63.64,220.819 C66.389,221.976 67.981,221.325 69.428,218.359 C71.237,214.597 68.777,209.75 63.423,206.639 C62.193,205.916 62.266,205.409 63.713,197.234 C65.232,188.553 66.1,186.744 68.777,186.744 C69.428,186.744 73.841,187.685 78.616,188.914 C83.391,190.072 88.165,191.085 89.251,191.085 C90.697,191.085 92.361,189.927 95.617,186.744 C100.536,181.897 101.694,179.582 101.043,176.037 C100.536,173.505 101.477,171.479 104.805,167.934 C105.745,166.921 106.831,164.968 107.192,163.593 C107.916,160.917 111.027,155.708 114.933,150.571 C116.525,148.473 117.248,146.809 117.176,145.218 C117.104,143.915 117.321,142.396 117.682,141.89 C117.972,141.383 118.478,138.851 118.84,136.175 C119.202,133.57 119.708,130.315 119.925,129.012 C120.648,125.323 119.636,124.816 111.099,124.31 C106.903,124.02 102.852,123.514 102.128,123.08 C101.405,122.718 98.728,122.357 96.196,122.357 C93.664,122.357 88.744,121.922 85.127,121.344 C81.582,120.765 75.071,119.897 70.802,119.39 C62.989,118.45 60.24,117.509 61.18,115.99 C61.398,115.556 62.7,114.977 64.002,114.76 C65.232,114.471 67.981,113.241 69.934,112.011 C74.854,108.9 84.476,100.146 86.284,97.036 C88.093,94.069 89.468,92.405 102.707,77.502 C111.316,67.808 113.125,66.144 116.235,64.987 C118.261,64.263 120.504,63.106 121.3,62.382 C122.095,61.659 124.555,60.212 126.726,59.199 C128.896,58.114 131.211,56.956 131.79,56.594 C133.092,55.726 141.412,53.194 144.667,52.615 C146.042,52.398 148.429,51.024 150.093,49.577 C151.757,48.202 155.447,45.887 158.196,44.585 C161.668,42.849 163.622,41.402 164.49,39.883 C166.371,36.555 167.89,36.338 170.278,39.159 L172.303,41.619 L174.474,39.521 C175.631,38.436 178.308,36.265 180.406,34.818 C182.504,33.372 184.602,31.563 184.964,30.767 C186.121,28.597 188.943,24.618 191.619,21.579 C193.139,19.915 194.007,18.107 194.007,16.877 C194.007,15.719 194.513,14.2 195.092,13.404 C195.671,12.681 196.467,10.872 196.901,9.498 C198.348,4.506 207.752,1.105 211.659,4.072 C212.455,4.65 213.829,5.157 214.77,5.157 C216.94,5.157 219.328,7.617 219.328,9.859 C219.328,11.596 223.379,20.349 224.175,20.349 C224.392,20.349 226.49,19.192 228.805,17.673 C232.856,15.213 233.363,14.489 233.942,10.655 C234.086,9.932 234.737,8.919 235.461,8.485 C236.546,7.834 237.052,8.051 238.427,9.715 C240.453,12.247 241.465,12.174 242.84,9.498 C243.419,8.34 244.649,6.965 245.589,6.531 C246.457,6.097 248.049,4.867 249.062,3.927 C250.87,2.263 251.16,2.191 253.041,3.203 C254.777,4.072 257.454,4.144 267.438,3.782 C281.255,3.276 286.464,3.348 292.758,4.216 C296.737,4.723 297.172,5.012 299.125,7.906 C301.223,11.089 303.104,11.74 304.695,9.859 C305.202,9.281 305.998,8.774 306.504,8.774 C307.01,8.774 311.568,10.944 316.632,13.549 C321.624,16.153 326.182,18.107 326.761,17.962 C327.267,17.745 327.918,16.153 328.208,14.417 C328.497,12.681 329.365,10.438 330.089,9.353 C330.885,8.34 331.463,6.893 331.463,6.097 C331.463,4.289 332.114,3.493 335.442,1.612 C338.698,-0.269 343.69,-0.558 346.222,1.033 C347.018,1.612 348.609,2.263 349.694,2.552 C351.141,2.842 351.792,3.565 352.082,5.012 C352.299,6.097 353.022,7.978 353.673,9.136 C354.397,10.366 355.048,13.911 355.337,17.239 C355.699,22.303 356.061,23.533 357.652,25.197 C358.665,26.354 360.04,28.235 360.619,29.465 C361.27,30.695 363.368,32.793 365.393,34.023 C369.589,36.772 369.806,37.206 370.313,44.079 C370.747,48.998 371.398,50.807 372.556,49.649 C372.845,49.36 373.207,45.887 373.424,41.836 C373.713,36.048 374.002,34.457 374.871,34.24 C375.449,34.167 376.318,34.818 376.679,35.687 C377.113,36.699 379.935,38.58 383.914,40.606 C387.531,42.415 391.655,44.802 393.246,45.887 C394.766,46.9 397.153,47.985 398.672,48.275 C406.124,49.577 420.81,54.496 422.98,56.522 C423.776,57.173 426.598,58.765 429.202,60.067 C433.47,62.02 435.496,63.901 446.565,75.477 C465.52,95.444 471.524,101.015 476.95,103.908 C479.627,105.283 482.738,106.441 483.895,106.441 C486.066,106.441 487.73,107.526 487.73,109.045 C487.73,110.347 484.474,111.36 474.346,112.952 C469.209,113.82 460.094,115.339 454.089,116.352 C448.157,117.365 440.994,118.378 438.173,118.595 C435.424,118.739 432.675,119.246 432.168,119.68 C430.938,120.693 431.589,124.382 433.543,127.782 C434.628,129.591 434.845,130.893 434.556,132.702 C434.194,134.655 434.411,135.74 435.496,137.332 C437.811,140.588 438.173,144.422 436.437,147.677 C435.062,150.427 435.062,150.427 436.437,151.729 C438.462,153.537 438.101,155.418 435.279,158.095 C433.109,160.121 432.747,160.989 432.747,163.666 C432.747,167.717 435.062,176.254 436.654,177.99 C437.305,178.714 439.113,179.509 440.633,179.799 C443.165,180.161 443.743,180.739 445.842,184.357 C450.399,192.315 451.702,196.583 451.195,202.298 C450.906,205.337 450.11,208.303 449.242,209.75 C447.867,211.92 447.867,212.21 448.952,213.874 C449.603,214.886 451.05,216.116 452.136,216.695 C454.957,218.142 459.081,222.772 460.889,226.317 C462.698,229.862 462.843,232.9 461.323,234.926 C460.745,235.65 460.238,237.024 460.238,237.892 C460.238,240.135 467.618,250.842 475.937,260.681 C486.066,272.546 486.572,273.342 485.849,276.018 C485.632,277.104 485.921,278.767 486.644,280.214 C490.623,287.955 491.564,294.901 489.176,298.518 C488.381,299.748 487.223,302.352 486.644,304.45 C485.414,308.646 481.508,313.349 479.265,313.349 C478.397,313.349 476.444,311.757 474.346,309.37 C472.537,307.199 470.511,305.391 469.933,305.391 C468.847,305.391 464.579,299.965 464.579,298.59 C464.579,298.156 463.204,295.986 461.468,293.815 C459.804,291.645 457.996,288.968 457.417,287.883 C456.838,286.798 454.812,284.049 452.859,281.734 C450.978,279.491 449.386,277.176 449.386,276.742 C449.386,275.367 445.914,272.908 443.092,272.401 C441.067,272.039 440.271,272.256 438.607,273.848 C436.003,276.38 433.181,276.235 428.768,273.486 C424.355,270.665 423.631,269.797 422.257,265.311 C421.678,263.358 420.521,260.681 419.725,259.307 C418.929,257.932 418.278,255.979 418.278,254.893 C418.278,253.736 417.337,251.71 415.963,250.119 C413.792,247.442 413.575,247.37 410.32,247.804 C406.413,248.31 406.051,248.093 400.336,239.412 C395.923,232.9 395.2,230.079 395.127,220.312 C395.127,216.333 394.766,210.329 394.332,207.073 C393.68,202.081 393.68,200.779 394.693,198.319 C395.778,195.643 395.706,195.208 394.693,192.459 C393.753,190.289 393.608,188.408 393.97,184.935 C394.259,182.186 394.114,178.28 393.536,175.53 C392.451,169.526 392.957,168.947 400.553,167.355 C403.664,166.632 406.341,165.691 406.558,165.185 C406.703,164.679 405.69,163.81 404.171,163.159 C401.855,162.219 401.566,161.785 401.855,160.121 C402,159.036 402.362,157.589 402.651,156.938 C403.085,156.07 402.651,155.418 400.987,154.623 C398.383,153.248 396.936,148.907 397.587,144.711 C397.876,142.975 397.659,141.311 396.936,140.009 C396.357,138.851 395.851,136.898 395.851,135.596 C395.851,134.366 395.489,133.064 395.127,132.847 C394.187,132.268 386.735,135.017 384.42,136.826 C383.19,137.838 381.526,138.273 378.922,138.273 C374.654,138.273 374.002,138.634 372.628,141.528 C372.049,142.686 370.964,143.771 370.168,143.915 C367.13,144.494 366.84,145.362 366.985,154.044 C367.057,160.193 366.84,162.508 366.117,163.304 C365.538,163.81 362.572,164.462 359.099,164.751 C353.312,165.257 353.095,165.33 350.562,168.151 C347.235,171.841 344.268,178.28 344.196,182.042 C344.124,184.863 344.124,184.863 347.379,185.369 C353.963,186.382 356.712,187.467 358.448,189.855 C361.197,193.544 362.789,198.536 362.282,201.72 C361.993,203.239 361.559,206.277 361.414,208.592 C360.98,212.499 360.836,212.788 355.771,217.78 C350.273,223.061 348.609,223.857 344.124,223.496 C341.664,223.278 341.23,222.989 340.724,220.963 C340.217,219.082 339.566,218.504 337.396,217.853 C335.949,217.491 333.634,216.478 332.331,215.682 C330.74,214.669 328.714,214.235 325.82,214.235 C322.058,214.235 321.552,214.452 319.816,216.478 C318.079,218.576 317.573,218.793 313.666,218.793 C309.977,218.793 304.695,220.168 304.695,221.108 C304.695,221.759 307.879,224.364 308.747,224.364 C309.253,224.364 312.002,225.811 314.896,227.619 C317.79,229.428 320.756,230.875 321.48,230.875 C323.144,230.875 324.301,233.117 323.433,234.709 C322.999,235.36 322.203,235.939 321.624,235.939 C319.888,235.939 316.271,240.207 316.271,242.088 C316.271,244.186 318.803,246.067 321.552,246.067 C323.071,246.067 323.867,245.489 324.807,243.752 C327.774,238.109 336.6,232.322 344.485,230.875 C349.188,230.007 359.099,231.092 361.704,232.756 C364.308,234.492 367.491,239.484 370.675,246.863 C373.713,254.098 376.39,257.643 378.705,257.643 C380.079,257.643 380.079,257.715 378.994,258.945 C378.343,259.596 377.62,261.839 377.403,263.864 C376.969,266.758 377.113,267.771 378.126,268.711 C379.067,269.724 379.211,270.737 378.777,274.137 C378.56,276.38 377.981,278.84 377.62,279.563 C377.186,280.359 377.258,282.964 377.837,286.508 C378.56,291.934 378.56,292.368 377.113,294.322 C375.811,296.13 375.666,296.709 376.39,298.663 C376.824,300.037 378.198,301.556 379.645,302.424 C381.888,303.727 382.105,304.233 382.105,307.199 C382.105,311.395 383.552,313.638 387.386,315.157 C392.016,317.038 394.332,318.992 396.212,322.754 C399.179,328.614 399.83,332.448 398.745,337.729 C397.876,342.287 397.876,342.432 399.685,344.312 C400.626,345.398 402,347.279 402.651,348.436 C404.894,352.777 406.486,354.079 409.09,353.645 C410.32,353.5 411.911,353.573 412.563,353.934 C414.154,354.73 420.159,365.293 420.738,368.331 C420.955,369.706 423.053,374.047 425.368,377.953 C430.649,387.069 430.721,387.141 433.832,394.376 C435.279,397.776 437.956,402.334 439.692,404.649 C443.02,408.917 443.382,410.509 442.08,414.271 C441.356,416.224 441.501,417.164 443.526,421.722 C446.637,428.74 445.914,430.042 438.896,430.693 C437.232,430.838 436.654,431.344 436.509,432.574 C436.292,433.876 437.449,435.395 441.356,439.157 C446.637,444.222 447.071,445.09 445.697,448.201 C444.684,450.443 443.743,450.805 437.811,451.311 C430.938,451.89 430.36,452.469 434.556,454.495 C437.232,455.797 438.245,456.737 438.679,458.329 C439.982,463.466 445.552,465.564 449.603,462.38 L451.412,460.933 L461.468,465.708 C474.997,472.075 479.916,474.534 481.291,475.62 C482.304,476.415 482.304,477.428 481.58,484.59 C481.146,489.076 480.64,492.838 480.423,493.055 C480.278,493.272 472.031,493.2 462.192,492.982 L444.322,492.548 L444.322,488.352 C444.322,484.518 444.178,484.084 442.08,482.565 C440.343,481.335 439.186,481.118 436.364,481.335 C434.411,481.552 431.951,482.348 430.866,483.071 C428.117,485.024 427.466,485.386 426.091,485.82 C425.078,486.11 424.789,486.978 424.789,489.582 C424.789,491.825 424.138,494.068 422.836,496.455 L420.955,500 L402.579,500 L384.275,500 L384.275,492.114 z M372.121,461.874 C372.845,461.223 373.424,460.138 373.424,459.414 C373.424,457.606 375.232,456.014 378.415,455.146 C381.382,454.35 382.756,452.614 380.948,451.963 C380.296,451.746 376.752,451.529 372.99,451.529 L366.189,451.529 L364.38,454.422 C363.368,456.014 362.572,457.533 362.572,457.823 C362.644,458.329 369.372,462.742 370.458,463.031 C370.675,463.104 371.398,462.597 372.121,461.874 z M208.259,376.434 C210.357,375.132 212.238,367.535 210.719,366.595 C209.778,366.016 208.765,367.535 207.463,371.225 C205.727,376.217 205.944,377.881 208.259,376.434 z M161.885,370.791 C162.175,369.633 161.885,368.114 161.09,366.595 C159.787,364.208 159.787,364.135 161.307,362.037 C163.188,359.36 164.128,354.296 162.898,353.5 C161.741,352.777 161.524,353.139 160.656,357.913 C160.221,360.229 159.209,363.484 158.485,365.148 C156.821,368.765 156.821,369.055 158.268,371.08 C159.715,373.178 161.307,373.106 161.885,370.791 z M161.451,351.041 C161.451,350.172 160.004,349.232 159.498,349.738 C158.992,350.245 159.932,351.692 160.8,351.692 C161.162,351.692 161.451,351.402 161.451,351.041 z M290.95,337.729 C290.95,337.295 290.66,335.848 290.299,334.618 C289.865,333.099 290.009,331.507 290.66,329.626 C291.384,327.384 291.456,326.443 290.733,324.996 C289.431,322.247 288.49,322.464 286.247,325.792 C283.498,329.988 277.928,335.776 276.698,335.776 C276.191,335.776 275.106,335.414 274.383,334.908 C272.646,333.822 270.693,334.618 270.693,336.427 C270.693,338.018 272.357,338.308 284.294,338.525 C289.214,338.67 290.95,338.453 290.95,337.729 z M264.544,335.269 C264.254,333.75 264.037,331.073 264.11,329.409 C264.254,326.95 264.037,326.371 263.314,326.805 C260.058,328.758 251.811,334.618 251.449,335.125 C251.232,335.486 251.521,335.92 252.028,336.065 C254.271,336.716 260.42,337.729 262.663,337.874 L265.05,337.946 L264.544,335.269 z M240.308,325.286 C241.683,324.273 242.985,323.043 243.346,322.609 C244.359,320.945 243.998,314.289 242.768,313.059 C241.393,311.612 241.538,311.612 238.282,313.132 C236.691,313.855 232.856,314.506 228.733,314.796 C220.702,315.23 220.051,315.953 223.813,320.294 C229.89,327.239 235.388,328.903 240.308,325.286 z M252.317,325.213 C256.007,322.754 260.565,318.34 260.565,317.255 C260.565,316.749 258.828,315.374 256.658,314.144 C253.692,312.48 252.607,311.468 252.245,309.804 C251.666,307.127 250.219,306.548 248.628,308.357 C247.47,309.514 247.47,310.238 248.194,313.855 C249.279,319.353 249.206,322.898 247.904,324.635 C247.325,325.358 246.819,326.226 246.819,326.588 C246.819,327.673 249.641,327.022 252.317,325.213 z M328.208,315.447 C331.029,314.361 332.548,313.349 333.272,311.902 C335.587,307.416 334.574,306.476 328.714,307.561 C325.314,308.14 323.867,308.067 321.335,307.199 C316.849,305.608 314.969,305.825 314.028,307.85 C312.364,311.468 314.969,315.013 320.25,316.315 C323.578,317.111 323.867,317.038 328.208,315.447 z M343.762,312.987 C344.485,312.119 344.485,311.612 343.907,311.034 C342.749,309.876 339.132,311.178 338.843,312.842 C338.553,314.434 342.46,314.578 343.762,312.987 z M309.76,305.68 C309.76,304.016 309.326,303.003 308.313,302.497 C306.721,301.629 303.972,302.135 303.972,303.293 C303.972,304.305 305.347,306.91 306.721,308.429 C308.24,310.238 309.76,308.863 309.76,305.68 z M224.971,303.148 C227.503,299.603 228.95,298.373 232.495,296.709 C234.954,295.552 238.644,294.249 240.742,293.815 C246.023,292.73 246.891,291.5 244.287,288.751 C241.393,285.713 239.512,286.002 234.593,290.126 C230.831,293.237 229.818,293.671 225.767,294.105 C218.243,294.973 215.71,296.999 215.71,302.063 C215.71,304.233 216.145,304.957 218.098,306.114 C219.328,306.91 220.775,307.561 221.136,307.561 C221.57,307.561 223.234,305.535 224.971,303.148 z M326.978,289.041 C326.833,288.389 324.88,286.581 322.565,284.917 C318.948,282.385 318.224,282.095 316.705,282.819 C314.607,283.759 313.522,286.508 314.896,287.377 C315.475,287.738 316.922,288.028 318.079,288.1 C319.309,288.1 321.407,288.606 322.782,289.113 C326.182,290.415 327.267,290.415 326.978,289.041 z M434.773,268.35 C435.713,267.409 435.93,264.949 435.207,263.141 C434.556,261.405 433.977,261.694 432.458,264.515 C431.372,266.541 431.228,267.192 432.024,268.133 C433.109,269.435 433.615,269.507 434.773,268.35 z M116.959,191.736 C117.465,190.217 118.985,188.48 121.01,187.106 C124.845,184.357 124.989,183.488 123.542,174.445 C122.457,167.717 121.734,165.909 120.359,166.777 C119.202,167.5 116.308,173.071 115.295,176.471 C114.499,179.003 113.703,180.016 110.81,181.752 C104.95,185.369 102.2,191.808 106.324,192.387 C107.265,192.532 109.218,193.472 110.592,194.413 C112.908,195.932 113.414,196.077 114.644,195.208 C115.512,194.63 116.525,193.11 116.959,191.736 z M204.714,188.48 C206.595,187.25 206.667,186.816 205.293,184.935 C204.352,183.633 204.28,183.633 202.254,184.863 C199.433,186.672 196.901,188.987 196.901,189.855 C196.901,190.795 202.688,189.783 204.714,188.48 z M335.659,186.527 C335.515,185.514 334.936,184.935 333.995,184.935 C332.476,184.935 331.753,186.744 332.476,188.625 C333.127,190.361 335.949,188.48 335.659,186.527 z M162.826,186.672 C165.358,185.804 165.575,184.935 163.839,182.982 C162.03,181.029 160.221,181.39 159.353,183.923 C158.123,187.467 158.847,188.046 162.826,186.672 z M337.685,174.807 C338.336,173.143 337.468,171.551 336.166,171.986 C334.719,172.564 334.719,175.892 336.166,175.892 C336.817,175.892 337.468,175.386 337.685,174.807 z M346.583,161.061 C348.899,158.529 349.55,157.227 349.405,155.78 C349.188,154.044 348.826,153.827 346.222,153.61 C342.46,153.32 341.809,154.116 341.158,159.831 C340.724,164.028 340.796,164.317 342.098,164.317 C342.894,164.317 344.92,162.87 346.583,161.061 z M385.144,122.935 C386.663,121.633 388.616,118.595 388.616,117.509 C388.616,116.279 384.927,116.279 383.335,117.509 C382.033,118.45 380.514,122.718 381.237,123.369 C381.888,124.093 383.914,123.876 385.144,122.935 z" fill="#000000"/>
  </g>
</svg>
