<?xml version="1.0" encoding="UTF-8"?>
<!DOCTYPE svg PUBLIC "-//W3C//DTD SVG 1.1//EN" "http://www.w3.org/Graphics/SVG/1.1/DTD/svg11.dtd">
<svg version="1.1" xmlns="http://www.w3.org/2000/svg" xmlns:xlink="http://www.w3.org/1999/xlink" x="0" y="0" width="500" height="500" viewBox="0, 0, 500, 500">
  <g id="layer101">
    <path d="M335.351,499.673 C330.588,499.55 326.802,499.184 326.313,498.757 C325.886,498.39 325.519,497.352 325.519,496.497 C325.519,493.2 324.787,492.956 312.085,491.246 C305.552,490.33 300.056,489.475 299.934,489.353 C299.506,488.987 301.033,479.766 301.583,479.277 C302.682,478.239 329.977,465.905 331.198,465.844 C331.931,465.844 333.274,466.027 334.129,466.21 C335.106,466.454 336.022,466.332 336.572,465.783 C337.06,465.355 338.159,464.5 339.136,463.89 C340.052,463.279 340.785,462.424 340.785,461.936 C340.785,461.447 341.09,461.02 341.396,461.02 C341.762,461.02 342.006,460.653 342.006,460.165 C342.006,459.676 341.029,459.249 339.259,459.066 C337.793,458.882 335.473,458.211 334.068,457.539 L331.626,456.257 L330.832,457.905 C329.794,460.165 327.229,460.348 325.153,458.272 C323.565,456.623 323.504,456.562 323.932,450.578 C324.176,447.28 324.115,442.945 323.749,441.052 C323.443,439.098 323.016,432.015 322.772,425.298 C322.588,418.581 322.161,407.895 321.856,401.483 C321.245,388.476 321.184,388.721 325.519,385.24 C327.718,383.469 327.962,382.981 327.962,380.416 L327.962,377.607 L326.008,377.852 C322.039,378.279 317.398,373.577 316.604,368.326 C315.81,362.891 315.566,362.586 312.269,363.013 C310.62,363.257 308.177,364.112 306.773,364.906 C305.368,365.7 303.414,366.372 302.376,366.372 C301.155,366.372 300.3,366.799 299.873,367.593 C299.445,368.387 299.262,379.744 299.323,402.826 C299.384,432.015 299.262,437.877 298.407,443.555 L297.369,450.211 L291.202,456.684 C287.843,460.226 284.607,463.89 284.057,464.744 C282.164,467.737 279.661,470.362 279.172,469.813 C278.867,469.507 276.608,466.271 274.165,462.668 C271.662,459.004 268.486,454.364 267.082,452.288 L264.456,448.502 L264.456,439.342 C264.456,433.663 263.846,424.992 262.869,416.443 C261.769,406.49 261.22,397.88 260.976,385.301 C260.792,374.554 260.426,367.593 259.999,367.104 C259.632,366.677 258.777,366.433 258.167,366.616 C257.434,366.799 255.48,366.127 253.526,365.028 C248.946,362.525 247.297,362.891 245.527,366.799 C244.794,368.387 243.756,370.28 243.084,370.951 C242.473,371.623 241.68,373.333 241.313,374.737 C240.703,377.058 240.764,377.668 242.168,380.538 L243.756,383.775 L243.328,403.01 C243.145,413.573 242.84,422.794 242.779,423.466 C242.657,424.137 242.534,426.091 242.534,427.862 C242.473,430.61 242.168,431.343 240.092,433.785 C237.405,436.9 235.146,442.823 235.146,446.792 C235.146,448.257 234.779,449.967 234.413,450.7 C233.253,452.532 235.146,453.692 239.359,453.692 C241.985,453.692 243.634,454.119 246.443,455.585 C248.458,456.623 250.656,457.966 251.328,458.577 C253.526,460.47 258.472,462.851 260.182,462.851 C263.296,462.851 265.738,467.065 266.532,473.965 C266.96,478.056 267.631,477.629 258.594,478.667 C252.732,479.4 229.04,479.583 226.78,478.972 C225.62,478.667 225.376,478.178 225.376,476.285 C225.376,475.003 224.887,473.415 224.338,472.683 C223.3,471.522 222.506,471.461 212.98,471.339 C205.164,471.217 202.538,471.4 202.172,471.95 C201.927,472.377 201.561,474.148 201.378,475.858 C201.134,477.568 200.767,479.155 200.523,479.4 C200.218,479.644 197.836,480.438 195.149,481.109 C191.547,481.964 187.089,482.392 177.93,482.758 L165.534,483.185 L165.534,480.438 C165.534,476.163 165.228,476.041 153.993,476.591 L144.284,477.018 L143.856,473.11 C143.673,471.034 143.551,467.614 143.673,465.599 C143.856,462.058 143.917,461.936 146.91,459.676 C148.619,458.394 151.062,457.05 152.405,456.745 C157.657,455.463 161.687,454.119 164.801,452.654 C166.938,451.616 169.747,451.005 172.922,450.7 C177.441,450.333 177.869,450.15 179.578,448.196 C181.716,445.632 181.654,444.533 179.334,443.372 C177.869,442.701 177.197,442.701 175.182,443.311 C172.922,444.105 172.739,444.044 170.968,442.334 C167.793,439.342 165.961,436.106 166.328,433.908 C167.488,427.374 168.16,425.175 170.358,420.901 C174.449,413.024 180.922,391.163 181.044,384.691 C181.166,381.76 181.532,380.05 182.632,378.157 L184.158,375.653 L182.754,373.15 C181.471,370.951 181.349,370.096 181.716,365.883 C181.899,363.318 182.143,358.922 182.326,356.174 C182.448,353.426 182.754,350.129 182.998,348.846 C183.486,346.16 187.15,338.283 188.371,337.367 C188.921,336.939 189.165,334.802 189.104,329.123 C189.104,324.91 189.287,319.353 189.593,316.788 C190.02,312.209 190.142,311.964 193.012,309.033 C194.6,307.446 196.371,304.881 196.92,303.354 C197.897,300.79 197.897,300.546 196.737,297.737 C195.027,293.767 195.088,289.493 197.042,282.959 C199.119,275.998 199.424,274.41 198.569,273.861 C197.531,273.25 191.852,277.158 191.486,278.685 C191.364,279.357 191.058,281.066 190.875,282.41 C190.631,283.753 189.959,286.012 189.348,287.356 C188.494,289.371 187.761,290.043 185.929,290.653 C184.586,291.081 182.876,292.058 182.021,292.79 C179.7,294.928 176.83,296.149 174.266,296.149 C172.984,296.21 171.274,296.576 170.419,297.065 C169.259,297.676 167.366,297.859 162.481,297.614 L156.069,297.248 L153.077,299.446 C151.428,300.668 149.596,301.645 148.986,301.645 C148.375,301.645 147.093,302.438 146.116,303.415 L144.345,305.186 L137.994,304.881 C131.583,304.515 129.507,303.782 129.507,301.828 C129.507,300.607 128.163,300.851 124.988,302.622 C122.667,303.904 121.69,304.148 119.859,303.782 C116.744,303.171 111.188,302.805 105.264,302.927 C98.425,302.988 97.754,302.744 97.754,299.874 C97.754,297.553 94.701,289.859 93.479,289.127 C93.174,288.943 92.869,288.15 92.869,287.478 C92.869,286.745 92.319,284.364 91.647,282.165 C89.999,276.548 88.594,269.953 88.594,267.693 C88.594,263.846 87.861,263.541 77.481,263.175 C66.306,262.747 48.598,262.931 47.682,263.48 C47.315,263.663 45.117,263.846 42.675,263.846 C38.828,263.846 37.973,263.602 34.92,261.77 C33.027,260.61 30.157,259.084 28.569,258.29 C24.417,256.336 23.501,254.809 24.295,250.596 C24.844,247.665 24.783,247.176 23.684,246.26 C20.203,243.146 20.509,237.406 24.173,235.819 C25.821,235.086 26.127,234.536 26.737,231.3 C27.409,227.88 28.813,225.316 30.096,225.316 C30.401,225.316 32.782,224.461 35.347,223.423 C40.537,221.347 42.003,221.347 50.124,223.056 C52.628,223.606 58.49,224.339 63.07,224.766 L71.496,225.438 L73.512,223.728 C77.297,220.37 84.991,218.293 89.327,219.393 C92.93,220.308 93.357,219.576 93.846,210.844 C94.09,206.63 94.578,203.089 94.945,202.783 C96.044,201.867 113.264,201.867 121.874,202.722 C126.27,203.15 130.85,203.333 132.071,203.089 C134.086,202.722 134.392,202.417 135.308,199.669 C136.223,196.921 138.544,194.173 140.009,194.173 C140.315,194.173 142.086,192.708 143.856,190.876 C146.604,188.006 147.154,187.09 147.52,184.464 C147.764,182.51 147.642,180.678 147.154,179.213 C146.36,177.137 146.421,176.893 147.764,175.916 C148.925,175 149.108,174.45 148.802,173.107 C148.497,171.824 148.68,171.092 149.657,170.053 C150.695,168.954 150.879,168.283 150.512,166.145 C150.268,164.741 149.963,163.52 149.718,163.398 C149.535,163.214 146.604,162.726 143.246,162.176 C139.887,161.627 136.04,160.894 134.697,160.528 C133.354,160.161 129.629,159.367 126.453,158.757 C117.66,157.047 111.798,155.765 108.684,154.788 C107.096,154.299 105.264,153.872 104.532,153.872 C102.822,153.872 100.196,151.246 100.196,149.597 C100.196,148.926 100.807,147.765 101.479,147.094 C102.639,145.933 103.188,145.811 106.913,146.178 L111.004,146.605 L113.996,143.674 C115.645,142.025 118.21,139.094 119.736,137.14 C121.263,135.186 123.034,133.11 123.644,132.561 C124.255,132.011 125.232,131.095 125.782,130.484 C126.331,129.874 128.041,128.042 129.69,126.393 C131.277,124.745 132.56,123.096 132.56,122.791 C132.56,122.424 133.415,121.691 134.453,121.142 C137.689,119.493 145.017,113.02 145.871,111.066 C146.299,110.028 147.093,109.296 147.703,109.296 C148.314,109.296 149.352,108.868 150.024,108.38 C150.634,107.891 151.55,107.464 151.978,107.464 C152.466,107.464 154.665,106.365 156.863,105.082 C159.122,103.739 162.603,102.09 164.618,101.418 C166.633,100.747 169.808,99.525 171.64,98.732 C175.304,97.144 179.09,96.228 181.227,96.411 C182.265,96.533 182.876,95.862 184.158,93.175 C185.563,90.183 186.173,89.633 189.226,88.168 C193.195,86.336 198.508,82.977 199.668,81.573 C200.157,81.023 201.073,80.596 201.805,80.596 C202.477,80.596 204.553,79.924 206.324,79.069 C208.156,78.214 210.232,77.543 210.965,77.543 C211.698,77.543 212.919,77.115 213.713,76.505 C214.506,75.955 216.033,75.344 217.01,75.161 C218.415,74.856 219.025,74.306 219.392,72.963 C219.636,71.925 220.307,70.765 220.918,70.398 C222.323,69.299 226.292,69.421 227.208,70.52 C229.04,72.719 230.871,71.375 239.481,61.788 C242.29,58.613 245.099,55.804 245.71,55.499 C247.114,54.705 248.58,55.804 248.58,57.636 C248.58,60.445 249.496,60.811 252.671,59.346 C254.259,58.613 256.701,57.88 258.045,57.636 C265.189,56.476 264.212,54.522 254.075,50.125 C243.389,45.485 239.848,42.737 237.222,37.119 C235.573,33.577 235.451,32.722 235.451,26.555 L235.512,19.838 L238.138,15.075 C239.97,11.778 241.741,9.579 244.061,7.625 C247.786,4.633 249.923,3.839 256.152,3.229 C259.205,2.985 260.731,2.496 262.014,1.397 C264.212,-0.374 265.372,-0.374 267.631,1.519 C269.769,3.29 270.318,3.351 273.616,2.069 C274.959,1.519 276.547,1.275 277.096,1.458 C277.646,1.702 280.088,1.519 282.47,1.153 C286.683,0.42 286.988,0.481 288.576,1.702 C290.103,2.923 290.958,3.046 298.041,3.046 C305.674,3.046 305.857,3.046 306.834,1.519 C308.116,-0.496 310.498,-0.496 311.78,1.458 C312.33,2.252 313.246,3.168 313.795,3.351 C315.688,4.206 326.374,5.427 331.504,5.488 C337.243,5.488 336.938,5.305 342.312,12.083 C343.655,13.732 345.609,15.564 346.586,16.113 C350.25,18.128 352.876,23.929 352.021,28.02 C351.777,29.242 351.532,34.005 351.532,38.584 C351.471,48.538 351.044,49.515 347.93,46.523 C346.83,45.423 345.487,44.569 344.937,44.569 C344.022,44.569 340.785,48.843 340.785,50.064 C340.785,50.431 341.884,52.324 343.289,54.339 C345.976,58.247 346.159,60.018 343.96,60.323 C342.006,60.628 339.625,58.918 338.648,56.476 C337.549,53.911 336.45,53.545 333.274,54.705 C331.565,55.316 328.206,55.682 323.382,55.804 C319.291,55.865 315.261,56.293 314.284,56.659 C312.574,57.392 312.574,57.453 313.612,58.613 C314.223,59.224 317.032,61.056 319.963,62.582 C322.833,64.109 326.191,65.88 327.351,66.551 C328.573,67.284 330.588,67.773 332.236,67.773 C333.763,67.773 337.488,68.078 340.48,68.444 C344.632,68.933 346.586,68.872 348.418,68.322 C351.166,67.467 352.998,66.124 352.998,64.964 C352.998,63.987 355.807,60.628 357.272,59.834 C358.555,59.163 363.501,60.445 365.088,61.849 C365.699,62.338 366.92,62.888 367.897,63.132 C369.485,63.559 371.317,64.781 375.164,68.078 C375.713,68.566 376.202,69.604 376.202,70.398 C376.202,71.192 376.874,72.719 377.728,73.879 C380.049,77.054 379.682,82.855 377.057,84.443 C375.652,85.298 376.08,86.397 378.889,88.962 C380.293,90.244 381.636,91.709 381.82,92.198 C382.003,92.747 383.468,92.992 387.376,92.992 C392.506,92.992 392.811,93.053 393.91,94.64 C394.887,96.045 395.742,96.411 398.612,96.778 C404.474,97.449 416.504,101.479 418.152,103.311 C419.862,105.204 423.282,106.731 425.785,106.731 C428.472,106.731 430.121,107.891 434.456,112.837 C436.166,114.791 439.28,117.967 441.356,119.921 C443.432,121.875 445.325,123.951 445.509,124.5 C445.692,125.05 449.111,128.469 453.141,132.194 C457.233,135.858 460.652,139.522 460.835,140.255 C461.446,142.636 463.278,143.552 470.117,144.956 C473.842,145.689 477.322,146.666 477.811,147.155 C479.154,148.193 479.032,151.612 477.689,152.834 C476.773,153.627 475.307,153.872 470.728,153.872 C465.232,153.872 464.927,153.933 464.133,155.337 C463.339,156.925 461.935,157.658 457.416,158.818 C455.95,159.184 453.447,160.1 451.92,160.894 C450.394,161.627 448.195,162.482 447.035,162.665 C444.409,163.214 431.098,167 425.663,168.771 L421.694,170.053 L421.694,175.244 L421.694,180.434 L424.686,182.327 C427.8,184.403 428.777,185.869 430.548,190.815 C431.098,192.525 432.502,195.7 433.54,197.898 C435.311,201.684 435.433,202.417 435.494,208.89 C435.494,212.737 435.738,217.194 435.983,218.843 C436.471,221.53 436.349,222.018 435.067,223.178 C434.151,224.033 433.54,225.499 433.235,227.636 C432.624,232.399 434.029,235.574 438.242,238.75 C440.013,240.215 441.539,241.375 441.539,241.436 C441.539,241.436 441.967,242.597 442.394,243.94 C442.944,245.528 443.066,246.81 442.7,247.787 C442.333,248.642 442.394,249.68 442.761,250.413 C443.493,251.756 447.646,254.015 449.478,254.015 C450.149,254.015 450.882,254.443 451.065,254.931 C451.248,255.42 452.042,255.969 452.714,256.214 C453.935,256.58 458.271,260 462.362,263.785 C463.217,264.64 464.866,267.144 465.904,269.403 C466.942,271.602 468.59,274.105 469.506,274.899 C472.01,276.975 474.514,282.593 473.842,284.425 C472.987,286.623 473.109,286.928 475.368,288.272 C478.361,290.043 479.338,293.157 477.811,295.966 C477.078,297.37 476.162,298.164 474.941,298.408 C473.842,298.653 472.987,299.263 472.804,299.996 C472.621,300.668 471.827,302.438 471.094,304.026 C470.3,305.553 469.629,307.69 469.629,308.789 C469.629,309.888 468.835,313.186 467.858,316.178 C466.881,319.17 465.904,322.834 465.659,324.299 C465.11,327.78 463.583,330.161 459.981,333.459 C458.393,334.924 456.439,337.367 455.584,338.832 C454.729,340.42 453.264,342.007 452.287,342.496 C448.44,344.328 445.509,340.969 447.279,336.756 C447.951,335.229 447.951,334.191 447.463,332.298 C446.913,330.283 446.974,329.367 447.829,327.474 C448.379,326.192 448.989,324.543 449.172,323.872 C449.356,323.139 450.333,322.223 451.371,321.795 C453.752,320.818 454.363,319.475 453.996,316.544 C453.264,311.293 453.508,311.476 446.73,308.301 C443.188,306.591 440.196,304.942 440.013,304.637 C439.769,304.331 439.036,304.087 438.242,304.087 C437.509,304.087 435.799,303.293 434.456,302.255 C433.174,301.278 431.586,300.423 431.037,300.423 C430.426,300.423 429.937,299.996 429.937,299.507 C429.937,299.019 427.495,296.943 424.442,294.928 C418.641,291.02 418.396,290.714 415.099,284.547 C413.206,280.944 412.84,280.578 411.252,280.761 C404.413,281.494 403.192,281.25 400.993,279.112 C398.368,276.548 398.307,275.571 400.383,268.487 L401.97,263.114 L400.505,260.244 L399.101,257.374 L396.108,257.557 C391.712,257.862 389.819,256.824 387.987,253.16 C387.132,251.451 385.483,249.008 384.384,247.726 C382.186,245.283 381.942,244.245 382.98,241.314 C383.59,239.543 383.468,239.299 380.904,236.796 C376.385,232.46 374.858,224.4 377.423,218.049 L378.644,214.996 L377.301,212.065 C375.835,208.89 374.553,203.76 373.82,198.448 C373.088,192.586 371.134,190.754 369.118,193.868 C368.386,194.967 368.203,196.25 368.447,198.204 C368.63,200.035 368.447,201.196 367.897,201.745 C366.981,202.661 360.02,203.577 357.822,203.028 C355.196,202.417 352.815,203.516 352.265,205.592 C351.96,206.691 351.288,207.607 350.555,207.79 C349.7,208.035 349.334,208.645 349.334,209.867 C349.334,210.783 348.784,213.042 348.113,214.813 C345.914,220.492 346.464,221.652 352.387,224.339 C354.219,225.194 356.784,226.842 358.066,228.063 C360.081,230.079 360.325,230.567 360.325,233.437 C360.325,235.208 360.02,237.711 359.654,239.055 C359.287,240.398 358.799,242.474 358.555,243.635 C358.005,246.688 355.624,250.168 353.914,250.596 C353.12,250.779 352.265,251.512 352.082,252.245 C351.166,255.114 341.518,256.519 339.259,254.015 C338.709,253.405 336.877,252.428 335.351,251.878 C333.091,251.145 332.236,250.474 331.565,248.947 C330.465,246.505 327.596,245.955 325.825,247.909 C325.214,248.581 324.115,249.13 323.382,249.13 C322.71,249.13 321.184,249.802 320.085,250.657 C318.253,251.939 317.642,252.061 314.284,251.756 C311.292,251.512 310.376,251.634 309.704,252.367 C309.032,253.222 309.215,253.771 311.17,256.091 C312.391,257.618 313.978,258.9 314.711,259.023 C315.444,259.145 316.665,260.183 317.459,261.404 C318.863,263.541 319.108,263.602 323.138,263.969 C326.557,264.274 327.962,264.091 330.099,263.175 C339.442,259.145 351.41,260.977 357.15,267.266 C360.203,270.563 363.989,277.647 365.516,283.02 C366.065,285.035 366.981,287.539 367.47,288.638 C368.203,290.165 368.325,291.63 368.019,294.744 C367.348,301.706 366.798,302.866 362.768,306.408 C358.799,309.949 358.31,311.293 360.509,313.063 C361.669,313.979 361.852,314.59 361.669,316.91 C361.547,318.437 361.18,319.903 360.875,320.208 C360.57,320.574 360.325,323.2 360.325,326.07 L360.325,331.321 L363.562,334.68 C368.08,339.504 368.63,340.481 369.118,345.305 C369.363,347.686 370.218,351.777 371.134,354.464 C372.599,358.861 373.149,359.777 377.24,363.868 C383.285,369.913 387.682,378.767 387.254,383.836 C387.193,385.057 387.865,387.255 389.208,389.942 C391.651,394.705 396.719,408.933 397.146,412.169 C397.33,413.39 398.307,415.711 399.284,417.359 C401.97,421.878 402.154,423.344 400.261,425.42 C398.551,427.252 398.551,427.618 400.383,434.274 C401.543,438.426 401.543,438.426 400.261,439.708 C399.528,440.441 398.001,441.174 396.902,441.418 C394.399,441.907 394.032,443.128 395.437,446.731 C396.231,448.746 396.902,449.479 398.429,450.028 C400.993,450.883 402.825,454.119 403.375,458.882 C403.68,461.63 403.558,462.974 402.825,464.378 C402.276,465.416 401.848,466.698 401.848,467.248 C401.848,468.958 404.352,470.179 407.649,469.996 C410.336,469.935 411.557,470.362 418.03,473.904 C422.06,476.102 426.762,478.423 428.411,479.033 C430.121,479.644 432.38,481.17 433.479,482.331 C435.311,484.285 435.555,484.956 435.861,488.803 L436.166,493.078 L431.769,495.459 L427.312,497.841 L416.259,497.413 C410.214,497.169 402.642,496.864 399.589,496.619 L393.91,496.253 L393.544,494.177 C392.933,490.818 391.773,490.513 379.682,490.147 C367.47,489.78 367.653,489.719 367.653,494.421 L367.653,496.803 L361.302,498.451 C356.295,499.734 353.792,500.1 349.273,499.978 C346.098,499.917 339.869,499.734 335.351,499.673 z M248.335,357.517 C249.312,356.663 250.778,355.808 251.633,355.624 C254.014,355.136 255.907,354.22 255.907,353.67 C255.907,353.365 254.747,352.755 253.343,352.327 C251.877,351.9 249.435,350.923 247.847,350.129 C243.084,347.747 241.252,348.358 241.252,352.51 C241.252,354.403 241.68,355.197 243.573,356.907 C244.794,358.067 246.015,359.044 246.198,359.044 C246.381,359.044 247.358,358.372 248.335,357.517 z M314.284,354.647 C313.978,351.228 313.673,350.617 310.986,347.808 C309.338,346.099 307.261,343.351 306.346,341.763 C305.185,339.87 303.781,338.405 302.193,337.611 C297.98,335.474 295.965,330.405 297.613,326.192 C298.652,323.566 298.102,321.795 296.27,321.795 C294.011,321.795 293.461,323.444 294.621,326.742 C295.598,329.489 295.659,329.978 294.805,332.42 C294.072,334.619 294.011,335.657 294.56,337.367 C295.049,339.015 295.049,340.298 294.499,342.191 C294.072,343.961 294.011,345.549 294.438,347.381 C294.744,348.846 294.927,351.045 294.866,352.266 L294.682,354.464 L299.262,354.525 C304.086,354.586 309.704,355.93 311.78,357.456 C314.223,359.288 314.711,358.739 314.284,354.647 z M284.607,355.502 L287.355,355.075 L287.416,345.61 C287.416,340.42 287.66,335.718 287.904,335.168 C288.149,334.619 287.843,333.642 287.172,332.787 L286.073,331.443 L283.325,335.901 C281.859,338.405 278.928,342.191 276.913,344.389 C273.371,348.114 273.127,348.541 272.944,351.716 C272.7,355.014 272.761,355.075 274.532,355.441 C276.974,355.991 281.249,355.991 284.607,355.502 z M265.067,353.854 C265.067,353.304 264.517,352.938 263.601,352.938 C261.892,352.938 260.976,353.915 262.136,354.342 C263.723,355.014 265.067,354.77 265.067,353.854 z M259.938,345.915 C260.365,344.816 257.922,340.725 256.823,340.725 C256.335,340.725 255.358,341.58 254.625,342.618 L253.282,344.572 L254.625,345.671 C256.335,347.076 259.449,347.198 259.938,345.915 z M251.633,339.992 C253.343,337.183 253.282,331.993 251.572,330.283 C250.29,329.001 249.251,329.062 246.015,330.711 C245.099,331.199 243.634,331.566 242.779,331.566 C240.519,331.566 240.275,333.092 242.107,335.718 C244.977,339.87 247.236,341.946 248.885,341.946 C249.984,341.946 250.778,341.397 251.633,339.992 z M314.528,333.092 C316.665,331.993 318.802,329.367 318.802,327.841 C318.802,326.803 318.314,326.681 313.612,326.864 C308.666,326.986 308.422,327.047 308.422,328.39 C308.422,329.123 308.849,330.711 309.277,331.871 C310.315,334.252 311.658,334.558 314.528,333.092 z M238.138,318.559 C239.359,317.216 241.13,316.3 247.786,313.552 C250.778,312.27 251.511,310.743 250.167,308.667 C248.824,306.591 247.786,306.713 243.756,309.583 C241.863,310.926 239.665,312.025 238.993,312.025 C238.26,312.025 236.978,312.27 236.123,312.636 C234.779,313.125 234.535,313.613 234.535,315.628 C234.535,320.147 235.695,321.063 238.138,318.559 z M236.611,263.48 C237.283,262.992 238.81,262.564 240.031,262.564 C241.741,262.564 242.657,262.076 244.244,260.427 C245.343,259.267 246.748,258.29 247.358,258.29 C247.969,258.29 249.129,257.496 249.923,256.519 C250.717,255.542 252.488,254.199 253.953,253.466 C256.762,252.061 257.251,250.596 255.358,248.886 C254.442,248.092 253.526,247.97 249.984,248.275 C246.443,248.581 245.343,248.459 243.817,247.543 C241.985,246.505 241.863,246.505 238.993,247.787 C237.405,248.459 235.512,249.252 234.779,249.436 C234.108,249.619 233.131,250.657 232.642,251.695 C232.093,252.916 231.116,253.832 229.955,254.199 C227.024,255.114 226.536,255.847 226.719,258.534 C226.902,260.854 227.085,261.099 230.261,262.686 C234.169,264.579 235.024,264.701 236.611,263.48 z M384.14,231.422 C384.873,230.079 383.957,225.316 382.491,222.995 C381.759,221.774 381.453,221.713 380.659,222.385 C379.927,222.934 379.805,223.911 380.049,226.232 C380.598,231.727 382.613,234.292 384.14,231.422 z M204.492,229.468 C204.92,229.04 205.225,227.575 205.225,226.171 C205.225,222.812 206.446,221.591 211.637,219.515 C214.018,218.599 216.277,217.561 216.705,217.194 C218.598,215.668 215.728,206.813 212.003,202.539 C209.866,200.158 205.591,198.448 201.744,198.448 C198.386,198.448 197.287,197.532 197.287,194.784 C197.287,193.502 196.981,192.219 196.554,191.975 C195.638,191.426 188.86,198.814 188.371,200.89 C187.333,205.226 185.99,208.584 184.097,211.332 C182.937,213.042 182.021,214.691 182.021,214.935 C182.021,215.24 182.693,215.973 183.547,216.645 C184.708,217.561 185.685,217.805 187.455,217.561 C190.875,217.072 192.402,218.782 192.402,223.056 C192.402,224.827 192.707,226.598 193.134,227.025 C193.562,227.453 195.088,227.758 196.676,227.758 C198.386,227.758 200.096,228.247 201.256,228.979 C203.393,230.384 203.515,230.445 204.492,229.468 z M395.131,221.591 C395.681,220.308 395.742,219.576 395.254,219.087 C394.215,218.049 393.299,219.148 393.299,221.408 C393.299,223.972 394.093,224.094 395.131,221.591 z M153.688,203.028 C154.237,201.684 153.443,199.058 152.527,199.058 C151.672,199.058 148.436,201.928 148.436,202.661 C148.436,204.188 153.138,204.554 153.688,203.028 z M374.37,185.075 C374.675,184.403 374.981,183.121 374.981,182.266 C374.981,178.602 378.095,176.893 380.232,179.457 C383.59,183.365 384.812,184.403 386.155,184.403 C388.537,184.403 389.391,182.938 388.109,180.984 C387.315,179.762 387.132,178.602 387.376,176.404 C387.804,173.168 387.071,172.435 384.384,173.412 C383.529,173.778 382.247,174.023 381.453,174.023 C380.72,174.023 379.194,174.694 378.034,175.549 C376.568,176.648 375.164,177.076 373.332,177.076 C371.134,177.076 370.584,177.32 370.034,178.48 C369.546,179.579 369.729,180.495 371.011,183.06 C372.721,186.479 373.393,186.907 374.37,185.075 z M348.357,38.951 C349.7,36.997 349.761,27.349 348.418,26.25 C346.708,24.845 346.098,26.494 345.914,33.089 C345.853,36.569 345.914,39.561 346.098,39.806 C346.586,40.661 347.38,40.355 348.357,38.951 z M346.769,21.609 C347.014,20.021 340.968,12.633 338.465,11.35 C334.374,9.335 334.129,12.816 338.037,16.113 C339.564,17.395 341.579,19.533 342.434,20.815 C344.205,23.502 346.464,23.929 346.769,21.609 z" fill="#000000"/>
  </g>
</svg>
