<?xml version="1.0" encoding="UTF-8"?>
<!DOCTYPE svg PUBLIC "-//W3C//DTD SVG 1.1//EN" "http://www.w3.org/Graphics/SVG/1.1/DTD/svg11.dtd">
<svg version="1.1" xmlns="http://www.w3.org/2000/svg" xmlns:xlink="http://www.w3.org/1999/xlink" x="0" y="0" width="500" height="500" viewBox="0, 0, 500, 500">
  <g id="layer101">
    <path d="M321.426,461.769 C317.313,461.591 313.737,461.233 313.498,460.994 C313.26,460.816 313.081,457.597 313.021,453.841 L312.902,447.106 L309.683,446.927 C304.617,446.629 303.186,447.523 302.053,451.636 C301.517,453.603 300.742,455.153 300.325,455.153 C299.311,455.153 277.375,452.232 275.766,451.815 C274.514,451.576 274.395,451.338 274.753,448.715 C275.587,442.456 274.991,443.172 285.065,437.211 C297.94,429.581 296.689,430.058 301.875,430.773 L306.345,431.369 L310.935,426.958 C313.439,424.514 315.346,422.309 315.167,422.13 C314.929,421.951 313.021,421.772 310.875,421.772 C308.73,421.772 305.868,421.474 304.617,421.116 C302.828,420.64 301.696,420.64 299.967,421.236 C298.715,421.653 297.702,422.189 297.702,422.487 C297.702,422.726 296.51,422.964 295.079,422.964 L292.397,422.964 L292.635,419.567 C292.754,417.659 292.516,415.096 292.158,413.844 C291.622,411.818 291.682,411.221 292.993,408.897 C294.185,406.691 294.304,406.095 293.649,405.082 C293.291,404.426 292.933,402.221 292.933,400.194 C292.933,398.108 292.516,391.849 292.099,386.246 C291.264,376.589 291.145,375.933 289.416,373.191 C287.628,370.39 287.569,370.092 287.926,365.502 C288.165,362.164 287.986,359.66 287.39,357.455 C286.317,353.64 286.794,351.732 289.059,350.719 C290.728,349.944 290.966,348.931 289.714,347.917 C289.238,347.56 288.582,346.368 288.165,345.295 C287.747,344.222 286.376,341.778 285.125,339.811 C282.144,335.042 281.131,330.154 282.025,324.789 C283.098,318.769 281.846,317.398 276.601,318.948 C267.838,321.57 259.433,318.53 253.353,310.543 C251.744,308.397 250.134,306.549 249.836,306.311 C249.538,306.132 247.75,307.562 245.902,309.47 C239.524,316.265 240.12,315.967 232.252,316.086 C228.437,316.146 223.907,316.206 222.178,316.206 C219.734,316.206 218.006,316.742 214.131,318.65 C207.276,321.988 203.402,322.643 197.023,321.451 C192.91,320.617 191.301,319.961 187.844,317.636 C185.519,316.086 183.135,313.881 182.479,312.808 C180.87,310.066 179.499,310.483 179.022,313.881 C178.604,317.159 179.201,320.14 180.691,321.809 C181.346,322.524 182.3,324.67 182.896,326.518 L183.91,329.975 L181.764,334.863 C180.572,337.605 179.32,340.049 179.022,340.407 C178.724,340.705 178.485,341.48 178.485,342.076 C178.485,342.91 178.724,343.089 179.558,342.791 C183.671,341.062 183.91,341.003 185.459,341.897 C187.486,343.029 188.023,345.056 187.307,349.408 C187.009,351.315 186.89,354.534 187.069,356.561 C187.426,359.958 187.307,360.316 185.519,362.819 C183.433,365.621 183.194,367.409 184.148,373.251 C184.506,375.635 184.327,376.947 183.552,379.033 C182.479,381.835 182.539,383.206 183.85,388.391 C184.208,389.882 184.684,392.385 184.863,393.935 C185.161,396.498 185.042,397.035 183.254,399.181 C182.181,400.492 180.989,402.936 180.512,404.605 C180.095,406.393 178.962,408.42 177.949,409.493 C176.935,410.566 176.101,411.519 176.101,411.698 C176.101,411.818 177.353,411.937 178.962,411.996 C180.572,411.996 183.135,412.592 185.042,413.427 C188.082,414.798 200.719,423.024 201.434,424.097 C201.673,424.514 197.918,436.495 197.381,437.032 C197.143,437.33 167.636,433.753 167.279,433.455 C167.16,433.277 167.458,431.906 167.994,430.356 C168.531,428.806 168.948,427.435 168.948,427.316 C168.948,426.6 161.199,427.375 159.649,428.21 C155.357,430.535 153.867,432.442 153.39,435.899 C152.615,441.622 153.092,441.443 136.163,441.443 C124.54,441.443 121.261,441.264 120.725,440.668 C119.89,439.595 119.711,436.674 120.307,431.846 L120.725,427.971 L116.969,428.21 C113.512,428.389 113.035,428.627 111.009,430.773 L108.803,433.098 L99.385,433.038 C94.199,432.978 88.357,432.8 86.39,432.561 C82.933,432.204 82.814,432.144 82.098,430.117 C81.026,426.898 81.145,422.726 82.396,421.653 C83.767,420.401 93.007,415.811 94.02,415.811 C94.497,415.811 95.51,415.275 96.345,414.679 C97.12,414.023 99.266,413.01 101.054,412.354 C102.842,411.698 105.644,410.625 107.253,409.97 C108.922,409.314 111.366,408.42 112.797,408.003 C114.227,407.585 115.479,407.049 115.598,406.81 C115.777,406.632 114.466,404.963 112.737,403.174 C108.267,398.525 106.776,395.127 106.478,389.166 C106.299,386.007 106.478,383.921 106.896,383.384 C107.79,382.311 109.876,375.933 109.936,374.145 C109.936,373.251 111.068,371.641 113.214,369.615 C115.002,367.886 116.492,366.336 116.492,366.158 C116.492,365.979 117.446,363.237 118.638,360.018 C119.831,356.739 121.023,352.924 121.261,351.434 C122.394,344.46 123.944,339.095 125.255,337.545 C126.03,336.592 126.626,335.459 126.626,334.982 C126.626,334.505 127.103,332.479 127.639,330.512 C128.474,327.472 129.01,326.637 130.799,325.505 C132.468,324.432 133.123,323.478 134.017,320.676 C135.21,316.861 138.25,312.212 140.574,310.662 C141.826,309.887 142.005,309.291 142.064,306.072 C142.064,301.125 143.853,290.097 144.926,288.428 C145.522,287.415 146.297,287.057 148.025,287.057 C150.231,287.057 153.45,284.971 153.45,283.54 C153.45,282.408 151.721,281.216 149.456,280.798 C148.204,280.56 146.714,279.964 146.058,279.427 C144.747,278.176 142.422,273.884 142.601,272.93 C142.72,272.572 141.886,272.692 140.515,273.407 C133.362,277.043 127.401,274.539 125.136,266.969 C124.301,264.168 123.824,263.393 123.109,263.631 C122.573,263.81 118.936,267.148 115.002,271.023 C110.651,275.255 107.194,278.176 106.121,278.474 C105.227,278.712 101.471,278.533 97.775,278.176 C94.139,277.758 89.49,277.281 87.404,277.103 C83.052,276.685 82.039,275.791 80.37,270.784 C78.939,266.433 77.926,264.525 75.184,261.247 L72.8,258.326 L69.163,258.743 C67.137,258.982 64.872,259.518 64.037,259.935 C63.203,260.353 61.355,260.889 59.865,261.128 C55.513,261.843 52.95,263.154 50.446,265.896 C49.135,267.327 47.406,268.638 46.631,268.817 C45.916,268.936 43.413,269.353 41.088,269.771 C35.425,270.724 27.557,272.572 23.086,274.063 C19.867,275.076 18.914,275.135 16.112,274.539 C14.383,274.182 10.568,273.765 7.707,273.645 C4.071,273.526 2.223,273.168 1.568,272.572 C0.435,271.38 -0.459,265.777 0.256,264.346 C0.614,263.75 0.852,262.499 0.852,261.604 C0.852,260.651 1.389,258.266 2.104,256.359 C3.177,253.259 3.356,251.471 3.356,242.351 C3.296,234.781 3.058,231.145 2.402,228.999 C1.925,227.389 1.627,225.839 1.746,225.601 C1.925,225.422 1.746,224.349 1.389,223.276 C0.495,220.832 1.568,217.017 3.415,216.064 C4.131,215.646 5.979,215.408 7.528,215.468 C9.078,215.527 12.834,215.05 15.874,214.395 C29.285,211.593 32.981,211.176 36.677,211.951 C38.942,212.428 41.863,212.547 45.082,212.308 C50.744,211.772 59.03,210.341 60.52,209.566 C61.295,209.149 61.534,207.48 61.891,200.804 C63.083,177.557 63.083,177.914 64.335,177.02 C64.991,176.543 65.825,176.305 66.243,176.424 C66.66,176.603 69.879,176.901 73.396,177.139 C82.277,177.616 83.112,177.974 86.033,182.146 C87.404,184.114 88.894,185.723 89.311,185.723 C89.788,185.723 90.444,184.948 90.861,183.994 C91.219,183.041 92.232,181.61 93.066,180.835 C93.901,180.12 95.451,177.676 96.583,175.411 C97.716,173.205 99.981,169.927 101.65,168.079 C103.796,165.695 104.511,164.443 104.213,163.787 C103.319,161.641 103.319,159.614 104.213,157.469 C105.525,154.369 105.405,151.806 103.975,149.66 C103.259,148.706 102.365,146.977 101.888,145.905 C101.412,144.832 100.339,143.699 99.385,143.341 C96.881,142.328 89.43,143.103 83.887,144.891 L78.939,146.441 L73.455,144.593 C70.415,143.58 67.435,142.328 66.898,141.792 C65.289,140.361 65.587,137.798 67.494,135.533 C68.448,134.46 69.819,131.897 70.534,129.87 L71.905,126.234 L70.356,123.551 C67.792,119.2 68.448,115.743 72.263,113.597 C75.363,111.868 79.118,107.338 79.178,105.311 C79.178,104.477 78.999,102.45 78.76,100.781 C78.343,98.099 78.462,97.503 79.953,95.237 C81.383,93.032 82.158,92.555 85.496,91.482 C87.642,90.826 91.159,89.217 93.364,87.965 C95.51,86.654 97.537,85.581 97.775,85.581 C98.014,85.581 99.981,84.806 102.127,83.852 C108.684,80.931 120.069,77.832 127.341,76.938 C130.441,76.52 131.097,75.984 131.693,73.182 C131.931,72.109 133.362,69.606 134.852,67.698 C136.402,65.731 138.071,63.585 138.548,62.93 C139.263,61.916 140.217,61.678 143.197,61.559 C146.893,61.439 147.012,61.499 149.039,63.705 C150.171,64.897 151.363,65.91 151.661,65.91 C151.959,65.91 153.509,65.135 155.059,64.122 C159.232,61.499 161.854,61.797 168.352,65.612 C169.186,66.149 170.498,66.447 171.332,66.387 L172.822,66.208 L172.822,59.532 C172.822,53.571 172.942,52.737 174.015,51.962 C174.67,51.425 175.386,51.008 175.624,51.008 C175.862,51.008 176.28,49.935 176.459,48.564 C176.935,45.703 177.71,45.107 184.029,42.961 L188.619,41.411 L190.645,42.603 C191.718,43.319 193.566,43.855 194.758,43.855 C195.95,43.855 197.56,44.153 198.394,44.511 C199.706,45.107 200.54,44.928 204.355,43.02 C206.799,41.828 209.184,40.875 209.601,40.875 C210.018,40.875 211.389,40.219 212.581,39.384 C214.489,38.073 215.383,37.894 219.138,38.013 C221.522,38.073 225.635,37.954 228.258,37.775 C233.086,37.417 239.524,38.252 245.604,39.98 C247.273,40.457 249.896,40.875 251.386,40.875 C254.605,40.875 261.579,44.153 264.679,47.133 C268.911,51.246 274.634,55.538 276.422,55.956 C277.495,56.254 278.866,56.969 279.521,57.565 C281.19,58.996 283.158,60.009 283.634,59.532 C283.813,59.353 283.992,57.565 283.992,55.598 C283.992,52.498 284.23,51.783 285.78,49.995 C286.853,48.803 287.569,47.312 287.569,46.299 C287.569,44.272 288.224,43.676 291.443,42.663 C292.754,42.305 294.602,41.59 295.496,41.113 C297.762,40.04 299.431,40.04 300.742,41.232 C301.338,41.769 303.126,42.365 304.676,42.484 C308.014,42.901 309.028,43.497 309.028,45.345 C309.028,46.061 309.624,47.432 310.399,48.385 C311.471,49.816 311.77,51.068 312.008,55.777 C312.306,61.976 312.068,61.738 316.479,60.605 C320.89,59.472 322.261,60.426 325.062,66.566 C326.374,69.487 327.506,72.169 327.506,72.527 C327.506,73.957 331.44,75.447 335.315,75.447 C337.461,75.447 340.56,75.865 342.17,76.342 C343.779,76.818 345.746,77.236 346.581,77.236 C347.415,77.236 349.263,77.593 350.753,78.07 C352.244,78.547 354.628,79.322 356.118,79.799 C361.721,81.587 366.073,83.316 369.828,85.223 C371.974,86.356 375.252,87.667 377.1,88.263 C378.948,88.8 381.094,89.932 381.809,90.707 C383.121,92.078 383.121,92.317 382.405,94.999 C381.929,96.549 381.452,98.337 381.333,98.993 C381.154,99.887 382.346,101.496 386.042,105.252 C388.784,108.053 391.704,110.795 392.658,111.391 C394.804,112.822 394.864,115.802 392.777,117.769 C391.287,119.2 390.81,121.584 391.883,122.24 C392.181,122.419 392.897,124.028 393.433,125.817 C394.029,127.605 395.519,130.406 396.771,132.075 C399.394,135.533 399.573,137.023 397.725,138.275 C396.95,138.752 392.479,140.123 387.77,141.255 C381.333,142.865 377.935,143.401 374.18,143.401 C370.007,143.401 368.874,143.639 367.623,144.593 C366.788,145.249 365.477,145.785 364.702,145.785 C363.986,145.785 363.152,146.024 362.973,146.381 C362.556,147.037 363.986,150.018 365.238,151.09 C365.775,151.448 366.311,153.117 366.55,154.727 C366.788,156.634 367.563,158.422 368.696,159.853 C370.543,162.178 370.841,164.264 369.828,167.006 C369.292,168.317 369.411,168.854 370.305,169.867 C372.153,171.953 372.332,173.205 370.961,175.411 C369.232,178.153 369.649,181.55 372.272,186.796 L374.299,190.79 L377.577,191.088 C379.365,191.267 381.154,191.624 381.571,191.863 C381.929,192.101 382.704,193.651 383.24,195.26 C383.776,196.87 384.492,198.36 384.79,198.598 C385.088,198.777 385.982,200.208 386.816,201.817 C389.558,207.242 390.572,206.467 392.181,197.645 C393.075,192.876 393.552,191.386 394.506,190.79 C396.473,189.538 401.897,188.644 404.937,189.061 C406.606,189.299 409.05,189.061 411.256,188.525 C414.058,187.809 416.144,187.69 420.793,188.107 C429.079,188.763 434.384,191.028 441.895,197.049 C444.16,198.896 446.484,200.267 447.677,200.446 C449.226,200.685 450.299,201.46 451.849,203.546 C456.558,209.626 464.844,224.588 465.5,228.105 C465.798,229.714 465.619,230.548 464.546,231.86 C463.294,233.469 463.056,233.529 459.718,233.171 C455.485,232.754 451.73,230.906 447.2,227.032 C445.292,225.482 442.133,222.859 440.226,221.19 C437.901,219.282 436.47,217.673 436.232,216.54 C435.934,215.229 435.218,214.514 432.834,213.381 C431.105,212.606 428.781,211.951 427.648,211.951 C424.668,211.951 421.091,213.798 418.826,216.421 C417.098,218.329 416.859,218.925 417.217,220.832 C417.515,222.799 417.396,223.157 416.084,223.753 C414.654,224.409 414.534,224.707 414.534,228.462 C414.534,230.608 414.177,233.35 413.819,234.423 C413.163,236.211 413.223,236.748 414.236,238.655 C415.25,240.503 415.846,240.92 417.872,241.159 C421.151,241.636 424.131,243.483 425.562,246.047 C428.364,250.994 429.436,251.829 436.291,254.392 C442.968,256.836 445.65,257.909 451.492,260.293 C453.28,261.008 455.843,261.783 457.154,261.962 C459.062,262.26 459.777,262.797 461.148,264.764 C462.579,266.969 463.413,267.446 470.685,270.248 C475.335,272.036 480.044,273.407 482.071,273.645 C483.978,273.824 486.541,274.48 487.733,275.135 C488.985,275.791 491.429,276.924 493.277,277.699 C496.138,278.95 496.854,279.606 498.463,282.467 C501.265,287.474 500.43,289.263 494.35,291.17 C491.25,292.124 488.866,292.005 485.349,290.634 C483.62,289.978 481.773,289.442 481.296,289.442 C480.819,289.442 479.031,288.547 477.421,287.474 C475.752,286.342 473.368,285.09 472.056,284.673 C470.745,284.256 466.871,282.885 463.473,281.573 C457.452,279.189 457.274,279.189 455.247,280.143 C452.684,281.394 451.909,281.335 450.657,279.964 C450.121,279.368 448.69,278.474 447.438,277.937 C446.246,277.46 442.133,275.791 438.378,274.241 C434.622,272.692 429.913,270.724 427.946,269.89 C424.191,268.221 420.138,267.923 414.475,268.877 C411.316,269.353 408.514,268.281 406.428,265.777 C404.58,263.631 402.374,264.227 401.421,267.148 C401.003,268.34 399.513,270.546 398.023,272.036 C394.446,275.791 394.268,276.208 394.268,281.216 C394.268,288.786 395.996,291.885 401.719,294.568 C405.235,296.237 406.606,296.356 408.454,295.045 C409.646,294.27 411.077,294.21 420.376,294.687 C431.582,295.343 434.026,295.82 437.245,297.966 C439.51,299.456 441.358,302.794 440.881,304.463 C440.345,306.549 433.848,309.47 421.985,312.987 C410.123,316.444 408.574,316.623 406.547,314.775 C405.057,313.404 404.52,313.285 399.215,313.285 C392.837,313.285 387.174,312.152 382.823,309.947 C376.504,306.788 372.51,303.748 370.126,300.35 C368.576,298.144 366.788,296.475 364.881,295.462 C359.754,292.66 358.145,288.369 360.35,283.063 C361.125,281.156 361.066,281.096 358.145,278.295 C354.27,274.48 351.409,268.638 349.859,261.247 C349.68,260.353 348.727,258.743 347.773,257.73 C346.462,256.418 345.985,255.286 345.985,253.736 C345.985,252.544 345.627,250.935 345.21,250.16 C344.435,248.61 339.607,246.523 336.805,246.523 C333.705,246.523 331.142,244.258 330.129,240.563 C329.652,238.774 329.116,236.986 328.996,236.569 C328.877,236.152 327.983,235.675 327.089,235.496 C326.195,235.317 324.347,234.602 322.976,233.946 C318.744,231.86 317.313,226.316 319.817,221.428 C320.592,219.879 320.89,218.448 320.711,217.435 C320.472,216.54 320.234,212.368 320.115,208.195 C319.817,199.135 319.936,198.956 326.85,196.87 C330.606,195.737 331.44,195.26 332.632,193.412 C335.017,189.657 338.176,189.776 340.56,193.77 C341.335,195.141 342.229,195.856 343.064,195.856 C344.018,195.856 344.197,195.618 343.898,194.843 C341.514,189.24 341.454,188.882 343.004,187.273 L344.375,185.723 L343.004,184.233 C342.051,183.219 341.574,181.968 341.574,180.477 C341.514,178.63 341.037,177.795 339.011,175.828 C336.567,173.503 336.447,173.265 336.447,169.748 C336.447,167.781 336.149,165.933 335.851,165.754 C335.494,165.575 334.957,164.204 334.6,162.774 C334.242,161.284 333.586,159.853 333.169,159.495 C332.156,158.661 327.447,159.793 324.168,161.701 C322.201,162.774 321.188,163.012 319.399,162.774 C316.181,162.237 313.915,163.251 313.498,165.277 C313.319,166.171 312.723,168.258 312.246,169.867 C311.829,171.417 311.412,174.695 311.412,177.08 L311.412,181.491 L307.18,183.577 C304.259,185.067 302.113,185.723 300.325,185.723 C298.358,185.723 297.464,186.081 296.093,187.452 C294.185,189.359 292.337,194.128 292.337,197.227 C292.337,199.254 292.516,199.433 295.496,200.506 C297.165,201.162 299.55,201.936 300.682,202.354 C302.232,202.831 303.126,203.665 304.14,205.573 C305.511,208.195 305.868,210.997 305.57,218.806 L305.451,222.919 L301.755,226.435 C297.106,230.787 294.9,232.217 292.754,232.217 C291.801,232.217 290.609,232.456 290.072,232.754 C289.536,233.052 287.628,233.41 285.84,233.529 C282.919,233.827 282.442,233.708 281.19,232.337 C280.416,231.502 278.329,230.31 276.481,229.714 C273.441,228.701 273.024,228.641 271.713,229.535 C270.938,230.012 269.567,230.429 268.613,230.429 C266.646,230.429 265.871,231.145 265.275,233.588 C264.798,235.615 266.944,237.999 269.686,238.536 C273.263,239.251 273.501,241.755 270.163,243.841 C267.898,245.212 265.931,248.371 266.467,249.683 C266.884,250.815 269.805,252.067 271.295,251.769 C271.892,251.65 272.845,250.696 273.382,249.564 C275.051,246.285 277.435,244.199 282.74,241.576 C287.509,239.192 287.986,239.072 293.172,239.072 C296.152,239.072 299.788,239.43 301.278,239.907 C305.213,241.04 308.431,244.854 310.756,250.994 C311.829,253.796 312.902,256.18 313.2,256.359 C313.558,256.597 313.796,257.193 313.796,257.789 C313.796,258.386 314.512,259.935 315.346,261.187 C316.777,263.273 316.955,264.108 317.134,270.248 C317.313,276.208 317.194,277.281 316.121,279.427 C315.108,281.454 314.929,282.527 315.227,285.329 C315.525,287.951 315.406,289.263 314.69,290.693 C313.319,293.256 313.975,296.595 316.24,298.74 C317.552,299.992 317.969,300.946 317.969,302.675 C317.969,305.476 319.936,307.622 323.393,308.516 C329.294,310.126 333.944,320.855 331.977,328.485 L331.202,331.465 L333.348,333.552 C334.6,334.684 335.851,336.174 336.209,336.83 C336.805,337.844 337.043,337.903 339.249,337.247 C342.826,336.174 346.819,336.353 348.369,337.605 C349.204,338.261 350.098,340.049 350.575,341.957 C351.051,343.685 352.363,347.142 353.615,349.646 C355.522,353.521 355.82,354.713 355.82,358.587 C355.88,363.177 356.297,364.369 360.648,372.297 C361.483,373.907 362.079,375.933 362.079,377.423 C362.079,380.94 363.152,383.623 365.417,386.007 C366.55,387.199 367.444,388.391 367.444,388.749 C367.444,389.047 368.397,390.18 369.53,391.312 C371.974,393.577 372.451,396.856 370.484,397.869 C369.888,398.227 369.172,399.181 368.994,400.015 C368.576,401.565 365.536,403.89 363.808,403.89 C362.019,403.89 361.483,405.261 362.198,407.705 C362.675,409.195 363.986,410.864 366.311,412.89 C368.219,414.56 369.947,416.407 370.126,417.063 C370.782,418.971 369.411,421.355 367.026,422.666 C363.033,424.812 362.914,429.521 366.907,429.521 C367.801,429.521 368.755,429.819 368.934,430.177 C369.172,430.535 370.186,430.713 371.259,430.594 C373.941,430.356 378.591,431.25 378.948,432.084 C379.067,432.502 383.836,434.826 389.439,437.27 L399.632,441.741 L401.122,446.39 C401.957,448.954 402.613,451.338 402.613,451.755 C402.613,452.172 401.361,453.484 399.871,454.736 L397.069,456.941 L388.068,456.941 C383.121,456.941 376.504,456.762 373.345,456.583 L367.682,456.166 L367.682,450.444 L367.742,444.721 L364.404,444.841 C362.198,444.96 358.979,445.854 354.568,447.583 L348.071,450.146 L348.071,453.245 C348.071,456.107 347.892,456.464 345.091,459.325 L342.17,462.306 L335.553,462.187 C331.977,462.127 325.599,461.948 321.426,461.769 z M322.916,410.625 C323.751,410.148 323.334,407.466 322.141,406.274 C321.068,405.201 320.83,405.201 318.207,405.976 C314.333,407.108 313.379,408.181 314.273,410.148 C314.988,411.639 315.108,411.698 318.744,411.281 C320.77,411.043 322.618,410.745 322.916,410.625 z M354.33,410.745 C355.284,409.612 353.376,405.499 351.767,405.201 C349.502,404.784 346.581,405.678 346.581,406.81 C346.581,408.181 348.965,410.387 351.111,411.043 C353.495,411.758 353.495,411.758 354.33,410.745 z M174.611,351.852 C175.088,351.077 175.684,349.169 175.862,347.56 L176.28,344.698 L174.551,345.116 C172.167,345.712 171.63,346.308 170.796,349.109 C170.259,350.957 170.2,351.732 170.796,352.388 C171.809,353.64 173.597,353.401 174.611,351.852 z M202.329,313.523 C205.011,311.079 205.786,308.516 204.713,305.297 C203.7,302.198 202.627,301.84 198.812,303.271 C196.249,304.284 194.699,304.463 191.241,304.165 C184.386,303.628 184.029,305.178 189.751,310.483 C192.791,313.344 196.904,315.61 198.871,315.669 C199.467,315.669 201.017,314.715 202.329,313.523 z M211.687,312.927 C213.833,311.675 214.31,311.139 214.131,309.887 C214.012,309.053 213.177,307.801 212.283,307.086 C210.137,305.476 208.885,306.251 207.872,309.708 C207.455,311.079 206.978,312.748 206.799,313.344 C206.263,315.014 208.528,314.835 211.687,312.927 z M275.051,308.993 C278.448,307.205 280.117,304.999 279.581,302.853 L279.164,301.184 L274.753,301.602 C270.997,301.959 269.865,301.84 267.361,300.767 C263.785,299.217 262.473,299.396 261.46,301.542 C260.029,304.522 262.175,307.861 266.527,309.47 C269.805,310.603 272.07,310.483 275.051,308.993 z M281.965,309.172 C282.263,308.874 283.456,308.516 284.588,308.397 C286.198,308.278 286.734,307.92 286.853,306.966 C287.211,304.284 283.754,304.88 281.667,307.861 C280.416,309.589 280.654,310.424 281.965,309.172 z M258.36,300.409 C258.957,298.621 258.897,298.144 258.003,297.131 C256.87,295.879 255.559,295.7 254.247,296.535 C253.294,297.131 253.771,298.8 255.738,301.84 C256.811,303.509 257.466,303.151 258.36,300.409 z M186.83,297.071 C187.844,295.7 188.559,294.329 188.44,293.972 C188.321,293.614 186.711,292.899 184.804,292.422 C181.525,291.587 181.287,291.587 180.512,292.72 C179.379,294.27 179.439,295.343 180.87,297.667 C182.598,300.469 184.565,300.29 186.83,297.071 z M388.187,298.204 C388.366,297.31 388.068,297.131 386.697,297.31 C385.684,297.429 384.969,297.906 384.849,298.562 C384.671,299.456 384.969,299.635 386.34,299.456 C387.353,299.337 388.068,298.86 388.187,298.204 z M269.924,283.719 C268.613,282.646 267.004,281.752 266.348,281.692 C264.858,281.692 263.308,283.302 264.083,284.077 C264.798,284.732 271.057,286.282 271.713,285.984 C272.011,285.805 271.176,284.792 269.924,283.719 z M367.503,269.652 C369.411,266.015 370.186,260.949 369.053,259.876 C368.815,259.637 367.623,260.412 366.371,261.604 C365.179,262.797 363.212,264.108 362.079,264.466 C360.946,264.883 359.695,265.419 359.277,265.717 C357.608,267.029 361.9,273.347 364.404,273.347 C365.298,273.347 366.132,272.394 367.503,269.652 z M136.104,259.876 C135.627,259.28 135.21,259.16 134.792,259.578 C134.375,259.995 134.554,260.591 135.329,261.485 C136.282,262.558 136.461,262.618 136.64,261.783 C136.759,261.247 136.521,260.353 136.104,259.876 z M362.794,259.22 C365.357,256.299 364.106,253.796 359.933,253.498 L357.608,253.378 L357.43,255.942 C357.31,257.372 357.549,258.922 357.966,259.399 C358.92,260.531 361.721,260.472 362.794,259.22 z M200.421,250.875 C202.329,249.683 201.315,248.55 198.037,248.133 C194.222,247.596 192.97,249.087 195.235,251.352 C196.487,252.604 197.858,252.544 200.421,250.875 z M143.972,249.921 C143.197,249.146 142.422,249.742 143.018,250.636 C143.197,250.994 143.674,251.113 144.032,250.935 C144.389,250.696 144.389,250.338 143.972,249.921 z M194.818,244.556 C197.143,243.185 197.739,242.47 198.394,240.384 C198.573,239.847 199.408,239.072 200.242,238.774 C201.077,238.476 202.209,237.403 202.746,236.509 C203.282,235.556 204.474,234.363 205.428,233.827 C207.574,232.575 207.097,231.621 204.355,231.621 C202.269,231.621 197.739,229.416 196.368,227.747 C195.354,226.495 191.063,226.614 188.44,227.985 C187.248,228.581 185.459,229.952 184.506,230.966 C183.194,232.396 182.241,232.814 180.572,232.814 C179.379,232.814 177.889,233.112 177.174,233.469 C176.459,233.887 174.67,233.946 172.465,233.708 C169.306,233.35 168.471,232.933 165.133,230.072 L161.378,226.853 L160.96,218.806 C160.424,208.136 160.782,207.361 166.564,205.036 C168.888,204.142 171.034,202.95 171.332,202.354 C172.524,200.148 168.888,192.339 164.775,188.405 C163.166,186.855 162.51,186.677 157.92,186.438 C152.436,186.14 151.065,185.306 151.065,182.325 C151.065,181.133 150.767,180.954 148.443,180.954 C146.058,180.954 145.701,181.193 142.839,184.412 C138.786,189.121 138.548,190.73 141.826,191.267 C145.224,191.803 148.085,193.949 149.396,196.87 C150.052,198.42 151.185,199.791 152.258,200.327 C153.211,200.804 154.821,202.413 155.834,203.844 C157.563,206.467 157.622,206.645 157.622,213.679 C157.622,220.236 157.443,221.309 155.476,227.27 C154.344,230.787 152.854,234.781 152.198,236.152 C151.602,237.463 151.065,239.132 151.065,239.788 C151.065,241.457 154.761,244.199 157.563,244.556 C159.411,244.795 160.126,244.556 162.272,242.768 C168.292,237.761 180.81,238.357 189.334,244.139 C190.705,245.093 192.016,245.927 192.195,245.868 C192.374,245.868 193.566,245.272 194.818,244.556 z M423.476,200.327 C423.476,199.254 423.178,198.837 422.283,198.837 C420.972,198.837 420.734,200.029 421.807,201.102 C422.939,202.234 423.476,201.936 423.476,200.327 z" fill="#000000"/>
  </g>
</svg>
