<?xml version="1.0" encoding="UTF-8"?>
<!DOCTYPE svg PUBLIC "-//W3C//DTD SVG 1.1//EN" "http://www.w3.org/Graphics/SVG/1.1/DTD/svg11.dtd">
<svg version="1.1" xmlns="http://www.w3.org/2000/svg" xmlns:xlink="http://www.w3.org/1999/xlink" x="0" y="0" width="500" height="500" viewBox="0, 0, 500, 500">
  <g id="layer101">
    <path d="M380.109,495.821 L374.245,491.642 L374.245,487.126 L374.245,482.61 L365.348,480.925 L356.384,479.24 L354.227,481.262 C352.609,482.812 351.935,484.228 351.396,487.396 C350.992,489.62 350.587,491.507 350.52,491.642 C350.385,491.71 344.117,492.047 336.5,492.316 L322.683,492.721 L318.908,490.968 C316.819,489.957 314.46,488.474 313.651,487.598 L312.236,486.048 L313.584,480.049 C314.325,476.746 315.201,473.713 315.471,473.309 C315.74,472.904 320.863,470.006 326.862,466.906 L337.714,461.244 L339.87,462.794 C342.836,465.018 346.611,464.344 349.037,461.244 C349.981,459.963 350.587,458.615 350.318,458.211 C350.115,457.874 348.565,457.537 346.948,457.537 L343.982,457.537 L343.577,453.695 C342.903,447.629 342.027,445.607 338.994,443.113 L336.163,440.754 L336.096,435.833 C336.096,432.261 335.691,430.172 334.68,428.217 C332.995,424.914 330.434,413.051 330.434,408.333 C330.434,406.311 329.827,403.413 328.816,401.054 C326.66,395.797 325.312,387.439 326.323,385.551 C326.727,384.743 326.929,382.99 326.66,381.575 C326.457,380.159 326.592,377.194 326.997,375.037 C327.671,371.532 327.536,370.79 326.12,367.353 C325.244,365.263 324.368,361.961 324.098,360.006 C323.694,356.906 323.896,356.029 325.716,352.659 C328.277,347.874 328.412,342.819 326.188,338.235 C324.031,333.854 322.076,333.787 318.437,338.101 C315.336,341.808 311.562,343.29 306.978,342.549 C305.293,342.279 301.653,342.751 296.396,343.964 C290.33,345.313 287.229,345.717 283.927,345.447 C281.5,345.245 279.074,345.38 278.4,345.717 C277.793,346.054 276.31,348.009 275.164,350.098 C272.671,354.344 273.075,355.692 276.31,354.614 C278.535,353.805 284.196,354.412 286.623,355.692 C291.543,358.321 292.015,360.748 287.836,361.893 C286.218,362.298 283.927,363.241 282.646,364.05 C281.365,364.792 279.478,365.398 278.467,365.331 C277.119,365.196 276.31,365.6 275.771,366.612 C275.232,367.623 274.895,379.822 274.693,408.266 L274.356,448.438 L264.515,456.728 C259.123,461.244 254.405,464.951 254.068,464.951 C253.731,464.951 240.775,452.013 236.206,446.887 C236.476,402.874 236.948,393.707 237.15,385.282 C237.689,368.499 237.622,368.364 233.847,367.488 C232.701,367.286 231.016,366.544 230.14,366.005 C229.264,365.466 227.444,364.792 226.096,364.589 C222.793,364.05 222.524,362.365 225.287,359.804 C227.579,357.647 231.825,356.164 235.06,356.366 C236.206,356.434 238.43,356.569 240.115,356.636 L243.081,356.771 L243.149,347.672 C243.149,342.684 243.351,338.235 243.62,337.831 C243.89,337.426 243.823,336.011 243.486,334.73 C242.946,332.978 243.081,331.63 243.823,329.473 C245.036,325.968 245.103,324.688 243.957,323.137 C242.475,321.115 240.587,322.396 237.824,327.249 C228.051,344.301 215.177,352.592 203.112,349.694 C200.079,348.952 199.405,349.02 197.922,350.031 C196.237,351.109 196.169,351.379 196.574,355.086 C197.18,360.208 195.563,364.859 190.777,372.138 C188.823,375.104 186.127,379.688 184.846,382.316 C182.959,386.091 182.015,387.304 180.06,388.248 C177.229,389.528 175.747,392.494 176.353,395.392 C176.69,396.74 176.353,398.29 175.14,400.65 C173.388,404.087 167.861,425.386 165.232,438.597 L163.749,446.348 L165.299,447.561 C166.108,448.235 167.389,448.775 168.198,448.775 C168.939,448.775 170.085,449.179 170.624,449.651 C171.231,450.19 175.41,452.01 179.926,453.762 C184.509,455.515 188.351,457.2 188.486,457.469 C188.688,457.739 189.025,461.042 189.294,464.816 L189.766,471.691 L185.79,471.691 C183.633,471.691 177.566,471.893 172.377,472.096 L162.94,472.567 L161.323,469.13 C159.975,466.232 159.368,465.692 157.346,465.288 C153.706,464.614 153.504,465.625 156.133,470.478 C158.29,474.32 158.559,475.398 158.559,479.577 L158.559,484.363 L155.391,484.767 C153.571,484.969 148.044,485.306 143.057,485.509 C138.069,485.711 132.879,486.048 131.464,486.25 C129.104,486.587 128.902,486.452 124.926,481.667 C120.949,476.881 120.814,476.612 120.814,472.904 C120.814,470.748 120.747,468.995 120.612,468.995 C120.544,468.995 116.837,467.917 112.456,466.636 C108.008,465.355 103.694,464.277 102.818,464.277 C100.863,464.277 100.122,465.895 99.582,471.759 L99.178,476.275 L95.336,476.679 C93.247,476.881 85.967,477.218 79.294,477.488 L67.095,477.96 L64.196,474.32 C59.209,468.051 59.343,468.321 60.624,464.547 C62.309,459.491 63.927,457.806 68.847,455.852 C71.274,454.841 75.992,452.482 79.227,450.662 L85.158,447.224 L88.057,448.64 C89.674,449.449 91.427,450.123 91.899,450.123 C93.651,450.123 95.875,448.1 97.291,445.202 C98.1,443.652 99.313,441.697 100.054,440.888 C101.807,439.001 101.335,438.327 97.56,437.384 C93.584,436.373 92.505,434.688 92.775,429.902 C92.977,427.273 93.786,424.847 95.538,421.477 C97.897,417.096 98.032,416.489 97.628,412.58 C97.156,407.929 97.897,405.57 100.391,403.952 C102.346,402.604 104.638,399.032 104.638,397.145 C104.638,394.988 111.782,384.069 115.422,380.699 C117.646,378.609 118.859,376.789 119.399,374.767 C119.87,373.217 121.421,369.914 122.971,367.488 C126.004,362.702 125.869,362.702 131.666,364.185 C133.149,364.589 133.553,364.32 134.362,362.365 C134.834,361.152 135.305,358.186 135.373,355.76 C135.44,348.009 136.047,346.526 141.506,340.527 C146.022,335.539 147.033,334.798 151.819,332.911 C154.717,331.765 157.548,330.821 158.087,330.821 C158.627,330.821 159.772,330.282 160.649,329.608 C161.525,328.866 163.142,328.125 164.153,327.855 C165.771,327.451 166.58,326.305 169.546,320.172 C173.253,312.353 173.32,312.151 172.377,300.49 C172.107,297.322 171.568,294.357 171.231,293.952 C170.826,293.48 168.4,292.469 165.704,291.728 C163.075,290.919 159.368,289.571 157.481,288.627 C153.639,286.74 152.56,286.942 148.516,289.976 C147.033,291.054 145.281,291.728 143.865,291.728 C142.383,291.728 140.765,292.402 139.147,293.75 C136.249,296.042 131.733,297.794 128.633,297.794 C126.206,297.794 119.736,294.761 115.422,291.526 C112.861,289.571 112.321,288.83 111.984,286.268 C111.176,280.404 109.356,278.18 107.334,280.607 C106.862,281.213 104.975,281.618 102.413,281.752 L98.234,281.955 L95.673,285.864 C92.842,290.178 86.911,294.963 81.047,297.659 C75.924,300.018 67.229,300.221 63.118,297.996 C57.861,295.165 54.153,289.639 52.738,282.494 C51.997,278.922 52.064,277.102 53.142,270.564 C54.288,263.15 54.288,262.678 53.142,260.116 C52.131,257.96 52.064,257.083 52.671,255.196 C53.277,253.309 53.21,252.23 52.131,249.063 C50.783,245.288 50.783,245.153 52.064,241.581 C53.075,238.615 53.142,237.537 52.536,235.178 C51.794,232.482 51.929,232.145 56.917,221.832 C59.748,215.968 62.309,210.374 62.714,209.363 C63.118,208.419 63.994,207.408 64.736,207.206 C65.477,206.936 70.869,208.15 76.733,209.902 C90.82,214.014 90.416,214.014 93.516,211.924 C94.932,210.98 96.347,210.172 96.684,210.172 C97.965,210.172 101.267,214.148 101.267,215.699 C101.267,216.71 102.346,218.327 103.964,219.945 L106.727,222.641 L110.232,220.821 C112.187,219.81 114.883,218.799 116.298,218.597 C117.714,218.395 119.736,217.384 120.814,216.373 L122.769,214.553 L121.084,210.576 C120.14,208.419 119.466,205.858 119.601,204.847 C119.803,203.297 120.14,203.094 122.634,202.892 C126.678,202.623 127.217,201.612 127.352,193.726 C127.487,186.851 128.43,176.942 129.239,173.64 C129.778,171.618 128.835,170.876 124.521,170.135 C118.927,169.124 97.83,164.136 88.461,161.507 C74.104,157.598 72.689,156.25 79.901,152.88 C83.743,151.06 85.832,149.712 93.449,144.32 C94.864,143.241 97.021,141.152 98.302,139.534 C100.796,136.299 116.433,121.875 122.566,117.157 C131.194,110.484 139.147,106.44 145.483,105.429 C147.033,105.159 150.201,103.744 152.56,102.328 C154.919,100.846 158.559,98.824 160.581,97.678 C162.603,96.599 165.165,94.577 166.243,93.229 C168.063,90.87 168.13,90.533 167.591,86.893 C167.254,84.804 167.052,77.525 167.052,70.65 L167.187,58.18 L169.343,54.136 C172.377,48.34 172.444,48.34 176.084,48.811 C178.106,49.081 179.454,48.946 179.723,48.474 C180.465,47.328 183.902,47.598 186.666,49.081 C188.081,49.822 190.238,50.631 191.586,50.833 C194.754,51.44 195.63,52.249 195.63,54.675 C195.63,56.158 196.304,57.371 198.326,59.191 C200.955,61.618 201.022,61.82 201.022,66.066 L201.022,70.447 L205.403,72.267 L209.717,74.154 L212.952,72.941 C214.705,72.335 216.929,71.121 217.873,70.245 C220.839,67.549 226.837,65.864 237.824,64.583 C243.553,63.977 248.541,63.168 248.945,62.764 C250.091,61.618 248.81,59.933 246.249,59.191 C244.901,58.854 243.216,58.113 242.475,57.574 C241.733,56.967 240.25,56.495 239.104,56.495 C238.026,56.495 234.993,55.754 232.364,54.81 C228.32,53.395 227.04,52.518 223.265,48.609 C220.502,45.711 217.94,42.139 216.255,38.768 L213.559,33.578 L214.301,26.501 C214.84,21.514 215.446,18.683 216.457,16.998 C217.266,15.717 217.873,14.234 217.873,13.762 C217.873,12.482 219.76,8.909 220.973,7.898 C222.726,6.415 225.894,4.73 229.668,3.18 C233.51,1.63 272.805,-0.594 283.185,0.147 C286.758,0.417 291.543,1.091 293.902,1.63 C296.261,2.169 299.227,2.574 300.575,2.574 C303.271,2.574 305.967,5 308.865,9.988 C309.809,11.605 312.64,14.976 315.201,17.537 C319.178,21.514 319.717,22.39 319.38,24.007 C319.178,25.018 318.841,29.602 318.571,34.253 C318.167,43.554 317.426,46.385 315.538,46.385 C314.864,46.385 313.853,47.059 313.314,47.868 C311.562,50.362 311.966,53.597 314.595,57.574 C316.684,60.741 316.954,61.55 316.954,65.729 C316.954,68.29 317.291,70.717 317.695,71.121 C318.1,71.526 319.65,71.661 321.2,71.526 C326.457,70.919 329.086,72.2 333.939,77.525 C336.298,80.221 338.657,83.119 339.062,83.86 C340.275,86.152 345.195,88.646 349.644,89.185 C354.901,89.792 358.069,91.477 361.237,95.319 C363.798,98.554 371.549,103.002 374.582,103.002 C375.324,103.07 376.672,103.474 377.615,104.014 C378.559,104.553 380.177,104.957 381.255,105.025 C383.008,105.025 385.232,105.901 390.085,108.597 C391.231,109.203 393.455,110.349 395.14,111.158 C397.903,112.506 404.441,118.64 414.754,129.694 C416.776,131.851 419.472,134.412 420.685,135.288 C421.899,136.164 423.247,137.715 423.584,138.658 C424.932,141.893 435.581,151.532 440.164,153.621 C444.006,155.441 444.411,155.778 444.209,157.396 C443.939,159.957 439.558,163.058 433.155,165.349 C425.808,167.911 419.405,170.876 419.405,171.685 C419.405,172.022 420.348,173.033 421.494,173.842 C422.64,174.651 424.392,176.875 425.269,178.762 C426.212,180.65 427.695,183.75 428.639,185.57 C429.65,187.525 430.593,190.827 430.863,193.389 C431.402,198.511 432.144,200.061 435.716,203.971 C438.951,207.476 441.984,213.744 441.31,215.429 C441.041,216.036 440.636,218.395 440.367,220.551 C439.962,224.393 439.827,224.596 436.794,226.618 C433.357,228.909 432.952,230.055 434.772,232.482 C436.255,234.436 437.603,238.076 437.603,240.233 C437.603,241.109 438.682,242.996 439.962,244.479 C442.052,246.771 442.321,247.445 442.321,250.882 C442.321,254.522 442.389,254.657 444.883,255.938 C448.59,257.825 449.264,258.903 448.725,261.869 C448.455,263.284 448.32,266.317 448.32,268.609 C448.455,274.271 447.174,277.169 443.737,278.922 C439.895,280.876 435.783,281.281 430.391,280.202 C424.932,279.191 423.651,279.259 421.022,280.607 C419.944,281.146 418.798,281.618 418.394,281.618 C418.057,281.618 416.439,283.101 414.889,284.92 C412.664,287.482 411.99,288.83 411.99,290.582 C411.99,291.863 411.519,293.278 410.912,293.817 C408.823,295.57 407.812,298.401 408.553,300.558 C409.429,303.051 408.755,304.939 405.789,308.241 C403.43,310.938 399.858,312.825 398.308,312.218 C396.825,311.679 395.679,308.646 395.342,304.13 C395.005,300.018 395.005,300.018 397.836,297.188 C399.858,295.233 400.532,294.087 400.195,293.211 C398.78,289.571 398.982,288.29 401.206,286.268 C403.228,284.381 403.363,284.112 402.891,280.741 C402.285,276.36 402.082,276.091 400.33,276.63 C397.634,277.439 396.353,279.056 396.758,281.146 C397.095,282.696 396.758,283.64 395.073,285.527 C393.253,287.549 393.051,288.223 393.455,290.313 C394.196,294.087 393.994,295.031 392.039,297.592 C389.95,300.355 386.647,302.512 384.49,302.512 C382.131,302.512 380.312,298.94 380.312,294.289 C380.312,290.784 380.514,290.178 382.334,288.56 C384.423,286.74 384.827,284.718 383.749,281.955 C383.142,280.472 383.749,278.854 385.771,276.832 C386.715,275.889 386.984,275.012 386.647,274.001 C385.636,270.429 382.334,269.822 382.334,273.192 C382.334,274.338 381.39,275.889 379.57,277.641 C376.941,280.202 376.807,280.472 377.278,283.37 C377.615,285.999 377.481,286.673 375.998,288.425 C374.111,290.65 373.841,292.132 374.987,294.626 C375.593,295.907 375.459,296.783 374.582,298.738 C373.1,301.838 368.584,306.961 366.899,307.433 C363.663,308.241 361.439,304.063 361.439,297.255 C361.439,294.087 361.709,293.48 363.798,291.324 C366.494,288.627 366.494,288.627 365.146,285.46 C364.202,283.101 364.202,283.033 366.562,280.202 C368.786,277.506 368.921,277.102 368.516,274.069 C368.179,271.575 368.314,270.362 369.19,269.081 C369.999,267.8 370.134,266.924 369.595,265.239 C369.258,264.026 368.718,262.206 368.381,261.06 C367.64,258.297 364.809,256.814 362.517,257.892 C361.102,258.499 360.765,259.173 360.765,261.06 C360.765,263.284 358.945,266.115 357.462,266.115 C357.125,266.115 356.653,266.654 356.384,267.396 C355.979,268.609 349.307,273.395 344.251,276.023 C342.701,276.832 341.218,277.978 340.949,278.585 C340.477,279.865 342.701,288.223 344.251,290.852 C344.858,291.93 346.543,293.615 348.026,294.626 C351.261,296.985 351.935,298.266 355.036,307.635 C358.339,317.745 358.541,319.295 356.721,321.587 C355.912,322.598 354.699,323.407 354.025,323.407 C353.283,323.407 352.34,324.081 351.935,324.957 C351.531,325.766 350.318,327.114 349.239,327.99 C347.15,329.675 346.745,331.293 348.228,331.9 C349.374,332.304 352.003,331.091 353.149,329.54 C353.823,328.529 354.092,328.597 355.912,329.675 C358.339,331.091 358.743,331.091 358.743,329.877 C358.743,327.316 362.315,327.788 365.82,330.888 C367.37,332.237 368.516,334.124 369.19,336.348 C369.729,338.168 370.875,340.527 371.819,341.605 C374.313,344.571 376.402,350.772 376.537,355.76 C376.672,358.321 377.211,361.017 377.818,362.163 C378.424,363.309 378.964,365.129 378.964,366.275 C378.964,367.825 379.907,369.577 382.334,372.61 C384.221,374.902 385.704,377.261 385.704,377.868 C385.704,378.407 388.063,383.058 390.894,388.045 C393.725,393.1 397.499,399.773 399.251,402.941 C401.004,406.109 403.296,410.018 404.374,411.569 C412.732,424.51 414.619,427.745 414.687,429.228 C414.687,430.913 412.462,432.665 406.801,435.564 C403.093,437.451 403.7,438.934 410.845,445.337 C411.856,446.213 412.664,447.494 412.664,448.235 C412.664,450.19 409.834,452.616 406.531,453.56 C404.913,453.964 403.902,454.504 404.374,454.638 C404.846,454.773 405.52,455.919 405.924,457.2 C406.329,458.413 407.07,459.626 407.609,459.828 C408.553,460.165 410.305,458.952 410.777,457.604 C411.114,456.593 429.919,464.816 436.457,468.86 L442.119,472.298 L442.591,478.431 C442.861,481.801 442.861,484.835 442.658,485.172 C442.389,485.576 436.862,485.846 429.245,485.846 L416.237,485.846 L414.956,483.015 C414.013,480.925 413.136,480.049 411.653,479.645 C410.575,479.375 409.429,479.375 409.092,479.712 C408.755,480.049 409.429,483.284 410.575,486.924 C411.721,490.631 412.799,494.81 413.069,496.36 L413.473,499.124 L406.194,499.528 C402.217,499.798 396.016,500 392.444,500 L385.973,500 L380.109,495.821 z M264.987,355.827 C266.335,354.951 265.459,353.131 261.347,348.278 C259.325,345.919 256.831,342.347 255.82,340.46 L253.933,336.887 L255.753,333.652 C257.303,330.821 257.438,330.147 256.696,329.136 C255.955,328.125 251.641,326.17 250.091,326.103 C249.821,326.103 249.619,327.721 249.619,329.675 C249.687,331.563 249.552,338.303 249.417,344.504 C249.282,350.705 249.282,355.962 249.484,356.164 C250.024,356.703 264.043,356.434 264.987,355.827 z M214.031,343.223 C215.716,342.684 218.547,340.931 220.232,339.449 C222.995,337.022 223.332,336.415 223.13,334.259 C222.861,331.428 223.265,331.428 211.335,333.248 C208.774,333.652 204.392,338.775 204.392,341.336 C204.392,344.301 208.504,345.11 214.031,343.223 z M294.374,338.64 C297.138,337.494 297.003,337.763 295.722,334.663 C295.183,333.315 294.711,331.158 294.711,329.81 C294.711,326.103 292.15,324.081 287.499,324.081 C284.399,324.081 283.59,324.351 282.174,325.901 C281.298,326.844 280.354,328.462 280.085,329.338 C279.68,331.158 280.961,337.359 282.107,338.775 C282.983,339.92 291.476,339.853 294.374,338.64 z M307.517,334.191 C310.214,333.045 312.842,331.832 313.381,331.428 C315.201,329.877 314.258,329.338 310.416,329.608 C308.259,329.81 304.754,329.675 302.597,329.271 C299.362,328.664 298.553,328.732 298.014,329.54 C296.868,331.36 299.294,336.213 301.384,336.213 C302.058,336.213 304.821,335.27 307.517,334.191 z M229.196,329.406 C229.668,328.597 229.938,327.788 229.668,327.586 C229.062,326.979 226.972,328.462 226.77,329.743 C226.433,331.293 228.185,331.091 229.196,329.406 z M317.291,322.733 C317.965,321.587 314.999,316.734 312.91,315.656 C308.528,313.364 308.394,315.251 312.64,319.969 C315.808,323.474 316.549,323.946 317.291,322.733 z M212.144,318.689 C212.346,318.352 212.076,318.015 211.537,318.015 C210.998,318.015 210.324,318.352 210.122,318.689 C209.919,319.093 210.189,319.363 210.728,319.363 C211.267,319.363 211.941,319.093 212.144,318.689 z M225.826,314.51 C226.837,313.499 226.905,310.601 225.826,310.601 C224.815,310.601 220.569,313.903 220.569,314.712 C220.569,315.588 224.883,315.453 225.826,314.51 z M77.07,292.672 C85.698,290.11 93.044,282.966 89.674,280.472 C89.203,280.135 85.158,278.719 80.71,277.304 C70.802,274.136 67.971,273.125 64.736,271.44 C59.343,268.676 57.726,270.564 58.4,278.787 C59.074,286.875 61.433,290.919 66.69,292.806 C70.128,294.02 72.622,293.952 77.07,292.672 z M124.858,288.964 C124.858,287.616 123.241,287.212 122.499,288.358 C121.96,289.234 123.443,291.189 124.252,290.65 C124.589,290.447 124.858,289.706 124.858,288.964 z M297.272,275.012 C297.407,274.54 296.868,274.203 296.127,274.203 C294.711,274.203 294.307,274.945 295.183,275.821 C295.789,276.428 296.935,275.956 297.272,275.012 z M439.288,274.203 C441.176,273.462 442.187,271.777 441.243,270.833 C440.434,270.159 432.278,271.305 431.065,272.249 C428.639,274.338 434.975,275.821 439.288,274.203 z M340.544,271.575 C340.881,270.833 341.218,269.351 341.218,268.272 C341.218,267.194 341.69,265.913 342.229,265.441 C342.769,264.969 343.24,263.487 343.24,262.071 C343.24,260.453 343.712,259.173 344.589,258.364 C345.263,257.757 346.206,256.275 346.611,255.061 C347.15,253.444 348.565,252.23 352.812,249.602 C355.912,247.782 358.676,245.827 358.945,245.355 C359.35,244.749 360.158,244.614 361.506,244.884 C363.057,245.221 363.731,244.951 365.079,243.536 C365.955,242.592 366.899,240.772 367.101,239.559 C367.37,238.278 367.977,236.93 368.516,236.458 C369.055,235.987 369.527,234.908 369.527,234.032 C369.527,231.942 373.774,229.044 377.615,228.572 C379.57,228.303 380.716,227.696 381.457,226.55 C382.536,225 382.468,224.663 380.177,220.417 C378.087,216.507 377.346,214.148 375.863,207.004 C375.526,205.386 370.74,202.757 368.044,202.757 C367.101,202.757 365.146,203.229 363.731,203.836 C361.169,204.914 357.193,204.847 349.913,203.701 C347.554,203.297 347.419,203.431 346.341,206.06 C345.734,207.61 345.263,210.239 345.263,211.924 C345.263,214.755 345.128,215.025 342.836,215.968 C340.881,216.777 339.533,216.844 336.568,216.373 C331.445,215.496 331.108,215.901 331.108,222.439 L331.108,227.831 L333.804,228.842 C335.691,229.583 336.635,230.46 336.972,231.605 C337.579,234.099 336.77,248.928 335.894,250.478 C335.489,251.287 333.467,253.309 331.378,254.994 C326.997,258.566 324.57,258.903 318.841,256.612 C316.145,255.601 314.595,255.331 312.101,255.668 C309,256.14 308.798,256.072 307.72,254.05 C306.169,251.422 305.63,251.219 301.384,251.893 C299.025,252.298 297.542,252.972 296.801,253.915 C296.194,254.724 294.441,255.803 293.026,256.275 C291.543,256.814 290.263,257.69 290.128,258.297 C289.993,258.903 291.476,260.993 293.498,263.015 C295.452,264.969 297.475,267.126 297.946,267.733 C299.227,269.351 301.249,269.081 304.754,266.857 C309.877,263.621 314.258,262.543 320.93,262.88 C328.277,263.217 331.243,264.632 334.748,269.351 C337.511,273.058 339.331,273.732 340.544,271.575 z M444.209,260.925 C444.074,260.116 443.265,259.645 441.984,259.51 L439.962,259.375 L441.58,260.723 C443.535,262.408 444.546,262.476 444.209,260.925 z M229.87,257.488 C231.96,256.14 228.455,253.309 224.68,253.309 C223.13,253.309 219.895,255.398 219.895,256.409 C219.895,257.69 228.118,258.566 229.87,257.488 z M182.959,240.502 C183.161,238.817 183.43,235.582 183.43,233.223 C183.498,227.629 184.778,225.337 188.755,223.45 C191.923,221.967 191.923,221.967 192.058,218.26 C192.125,216.238 192.327,213.474 192.395,212.194 C192.597,210.172 192.327,209.767 190.575,208.958 C189.497,208.419 187.475,207.273 186.194,206.397 C184.913,205.521 182.756,204.442 181.476,204.038 C177.364,202.623 176.758,201.679 176.758,196.759 C176.758,193.523 176.353,191.569 175.342,189.614 C174.533,188.131 173.455,185.57 172.983,183.817 C172.04,180.65 171.028,179.841 166.647,178.897 C163.075,178.156 161.66,181.256 162.266,188.603 C162.603,192.512 162.468,194.13 161.66,195.68 C161.053,196.826 160.581,198.848 160.581,200.264 C160.581,202.488 160.109,203.364 157.615,205.79 C155.256,208.082 154.515,209.295 154.178,211.722 C153.639,215.362 154.111,217.249 156.402,219.945 C159.098,223.18 159.907,225.809 159.435,229.651 C158.694,235.852 162.603,237.739 167.389,233.425 C168.872,232.145 170.489,231.066 171.096,231.066 C171.635,231.066 173.051,232.01 174.196,233.088 C175.747,234.639 176.151,235.515 175.814,236.795 C175.477,238.076 175.949,239.087 177.836,241.176 C181.004,244.681 182.352,244.479 182.959,240.502 z M122.836,230.055 C123.78,228.977 123.443,224.865 122.432,224.528 C121.623,224.259 115.287,230.325 115.691,230.999 C116.163,231.74 122.095,230.999 122.836,230.055 z M389.006,217.181 C390.961,214.688 390.826,213.744 387.726,210.441 C385.434,207.947 385.03,207.071 385.03,204.51 C385.03,201.207 384.153,200.129 382.536,201.477 C380.986,202.825 381.592,212.261 383.547,216.103 C385.299,219.406 386.984,219.743 389.006,217.181 z M437.603,213.879 C437.603,212.396 435.244,207.947 433.896,206.801 C431.874,205.116 431.402,207.071 433.222,209.565 C434.098,210.846 435.177,212.531 435.514,213.407 C436.323,215.092 437.603,215.429 437.603,213.879 z" fill="#000000"/>
  </g>
</svg>
