<?xml version="1.0" encoding="UTF-8"?>
<!DOCTYPE svg PUBLIC "-//W3C//DTD SVG 1.1//EN" "http://www.w3.org/Graphics/SVG/1.1/DTD/svg11.dtd">
<svg version="1.1" xmlns="http://www.w3.org/2000/svg" xmlns:xlink="http://www.w3.org/1999/xlink" x="0" y="0" width="500" height="500" viewBox="0, 0, 500, 500">
  <g id="layer101">
    <path d="M155.397,496.82 C153.608,492.051 157.384,479.133 166.128,461.248 C172.09,448.728 173.878,442.567 174.475,432.432 L175.071,419.514 L157.98,420.111 C140.889,420.707 140.69,420.707 134.331,414.546 C127.972,408.385 127.376,408.187 115.651,409.578 C104.919,410.571 102.932,410.373 99.752,406.796 C96.572,403.417 96.374,401.629 98.361,393.282 C103.329,372.018 106.708,362.081 110.285,358.107 C112.67,355.523 114.657,349.561 115.452,342.805 L116.843,331.676 L106.708,327.502 C92.002,321.342 92.598,317.168 109.689,304.648 C122.606,295.507 127.177,284.577 126.581,265.3 C126.382,253.575 126.779,251.587 132.344,244.632 C139.299,235.888 139.101,236.881 135.722,230.125 C133.536,225.951 133.337,219.791 134.729,202.104 L136.318,179.448 L144.268,170.903 C153.409,160.967 153.807,159.178 147.845,152.819 C144.069,148.844 143.87,147.453 145.857,140.497 C147.249,136.324 148.242,129.369 148.242,125.195 C148.242,115.259 152.018,109.893 164.936,101.348 C170.5,97.572 178.25,92.206 182.026,89.424 C187.392,85.449 190.373,84.654 195.341,85.648 C206.669,87.635 225.946,75.711 220.381,69.948 C217.599,67.365 217.003,61.403 217.599,39.94 C218.195,15.496 218.791,14.304 232.702,6.553 C238.466,3.175 245.819,1.386 256.749,0.591 C270.66,-0.601 273.243,-0.203 280.398,3.771 C292.918,10.727 296.892,21.061 297.488,47.889 C297.886,60.012 297.687,71.141 297.091,72.73 C296.495,74.916 298.085,75.91 302.258,76.308 C309.412,77.103 314.778,81.673 317.958,89.424 C319.746,93.995 322.528,95.783 331.074,98.367 C341.805,101.546 342.203,101.944 349.357,116.451 C355.915,129.369 356.71,132.349 355.716,141.094 C354.723,149.639 355.319,152.421 359.294,157.986 C361.678,161.762 366.647,166.332 369.826,168.121 C379.961,173.685 381.551,179.647 378.769,201.11 C376.782,215.617 374.993,221.977 370.621,228.734 C367.044,234.497 364.858,240.459 364.858,245.029 C364.858,250.793 363.467,253.376 357.704,258.344 C340.215,273.249 335.048,279.608 335.048,285.57 C335.048,294.712 347.966,350.555 352.934,362.876 C356.511,371.422 357.505,378.377 357.902,395.667 C358.697,431.239 360.883,440.977 370.025,450.516 C374.198,455.087 381.353,460.254 385.725,462.241 C396.257,466.812 400.033,471.383 402.617,482.909 C404.207,490.66 404.207,493.243 402.219,495.23 C400.431,497.019 388.904,497.814 362.473,498.41 C315.772,499.205 318.156,500.596 315.374,468.203 C314.381,455.683 312.592,441.772 311.598,437.4 C308.617,426.669 295.899,399.244 292.719,397.257 C288.744,394.673 239.062,390.897 235.286,392.884 C233.497,393.878 230.119,401.032 227.734,409.18 C225.349,416.931 221.772,428.855 219.586,435.611 C217.4,442.17 215.81,452.504 216.009,458.465 C216.407,475.159 214.419,491.057 211.438,495.827 C209.054,499.801 207.265,500 182.821,500 C160.563,500 156.39,499.603 155.397,496.82 z M201.899,240.061 C207.265,222.573 207.066,212.239 200.508,198.924 C197.527,192.962 194.149,188.193 193.155,188.59 C191.963,188.988 190.373,192.962 189.578,197.334 C188.982,201.706 185.007,211.841 181.231,219.592 C172.289,237.279 172.09,240.856 180.834,244.433 C185.405,246.222 188.187,249.203 189.777,253.773 C192.162,260.332 192.36,260.332 195.143,256.556 C196.732,254.37 199.912,247.017 201.899,240.061 z" fill="#000000"/>
  </g>
</svg>
