<?xml version="1.0" encoding="UTF-8"?>
<!DOCTYPE svg PUBLIC "-//W3C//DTD SVG 1.1//EN" "http://www.w3.org/Graphics/SVG/1.1/DTD/svg11.dtd">
<svg version="1.1" xmlns="http://www.w3.org/2000/svg" xmlns:xlink="http://www.w3.org/1999/xlink" x="0" y="0" width="500" height="500" viewBox="0, 0, 500, 500">
  <g id="layer101">
    <path d="M359.013,496.62 C357.993,494.835 356.972,492.603 356.781,491.774 C356.526,490.434 355.633,489.924 351.552,488.585 L346.578,486.991 L344.027,489.478 C341.731,491.71 341.476,492.284 341.476,495.026 C341.476,497.067 341.221,498.087 340.711,498.087 C339.308,498.087 309.974,494.835 308.507,494.516 C307.168,494.261 307.04,493.878 307.04,489.478 C307.04,485.269 307.168,484.631 308.507,483.802 C310.739,482.336 324.641,476.405 325.789,476.405 C326.362,476.405 328.339,475.64 330.125,474.747 C333.25,473.153 333.505,473.153 335.163,474.109 C337.459,475.448 341.03,475.448 342.241,474.045 C342.815,473.408 343.708,471.813 344.218,470.538 C345.047,468.561 345.876,467.86 348.746,466.584 C350.723,465.692 352.317,464.671 352.317,464.352 C352.317,463.906 350.404,463.651 347.279,463.651 C342.815,463.651 341.986,463.842 340.328,465.245 C339.244,466.138 337.65,466.839 336.757,466.839 C335.227,466.839 335.099,466.648 335.099,463.97 C335.099,460.845 332.931,453.129 331.592,451.535 C331.145,451.024 330.635,449.43 330.38,448.027 C329.041,439.291 327.574,432.34 326.809,431.511 C326.362,430.937 326.171,429.916 326.362,429.151 C326.745,427.684 324.577,414.356 323.557,412.061 C323.046,410.849 323.174,410.02 324.067,408.426 C325.151,406.321 325.151,406.258 323.748,404.344 C321.006,400.71 323.11,395.48 326.107,398.286 C327.51,399.498 328.85,399.115 327.574,397.84 C327.128,397.393 326.809,395.353 326.809,393.312 C326.809,389.55 325.406,386.361 323.046,384.958 C322.536,384.639 320.942,383.109 319.412,381.451 C314.501,376.158 312.971,367.039 316.223,362.128 C317.307,360.47 317.307,360.215 316.351,358.749 C315.777,357.856 314.82,357.154 314.246,357.154 C313.672,357.154 310.739,358.302 307.678,359.705 C301.301,362.639 293.457,364.807 289.248,364.807 C284.912,364.807 282.042,363.786 277.259,360.598 C274.9,359.067 272.604,357.92 272.158,358.047 C270.819,358.557 270.181,361.108 270.882,363.085 C271.201,364.105 271.265,366.337 271.074,368.123 L270.627,371.375 L275.219,370.993 C280.894,370.482 285.549,371.375 288.738,373.48 C292.054,375.648 291.863,377.688 288.164,378.262 C286.761,378.517 284.402,379.346 282.871,380.112 C280.639,381.323 279.938,381.451 278.598,380.813 C277.706,380.431 276.685,380.239 276.367,380.431 C276.048,380.686 275.793,395.225 275.793,416.27 C275.793,439.609 275.538,453.193 275.091,455.935 C274.39,459.952 274.135,460.335 270.117,464.289 C265.143,469.135 257.618,475.831 256.279,476.596 C255.832,476.851 255.003,476.851 254.557,476.596 C253.345,475.831 240.209,461.929 239.061,460.144 C237.722,458.103 236.765,431.319 237.02,402.431 L237.212,380.431 L234.916,380.622 C233.513,380.686 231.345,380.175 229.176,379.155 C227.263,378.326 224.968,377.561 224.011,377.561 C222.672,377.561 222.225,377.242 222.225,376.349 C222.225,374.819 225.605,371.949 227.837,371.503 C228.794,371.311 230.707,370.929 232.11,370.61 C233.64,370.227 235.043,370.227 235.809,370.61 C236.446,370.993 238.296,371.184 239.954,371.056 C242.568,370.865 242.951,370.674 242.76,369.59 C242.504,368.25 242.504,365.189 242.76,361.618 C243.015,358.302 241.357,358.43 237.339,361.937 C235.553,363.531 232.174,365.763 229.878,366.911 C226.115,368.761 225.159,368.952 219.994,368.952 C214.764,368.952 213.872,368.761 210.045,366.847 C207.75,365.7 204.561,363.468 203.031,361.873 C201.5,360.343 199.906,359.067 199.459,359.067 C199.013,359.067 197.929,359.833 197.036,360.789 C194.804,363.276 194.996,365.7 197.674,369.717 C200.288,373.671 200.544,376.413 198.694,382.471 C197.1,387.637 194.804,390.634 191.233,391.973 C187.598,393.376 186.068,396.118 186.131,401.156 C186.195,404.344 186.323,404.663 187.662,404.855 C189.766,405.173 190.787,404.089 192.317,399.753 C193.593,396.373 193.911,395.991 195.378,396.182 C196.972,396.373 197.036,396.501 197.036,401.283 C197.1,405.429 196.909,406.321 196.016,406.576 C194.422,407.087 194.039,408.681 195.059,410.275 C195.761,411.359 195.825,412.443 195.314,415.504 C194.996,417.609 194.868,420.542 195.059,422.073 C195.314,423.794 195.123,425.452 194.549,426.537 C193.338,428.896 192.062,438.398 192.572,441.267 C192.891,443.372 192.764,443.818 191.488,444.647 C189.766,445.795 188.172,450.387 186.96,457.656 C186.387,460.973 185.685,462.822 184.41,464.352 C182.688,466.457 182.688,466.521 183.963,467.094 C184.792,467.477 185.813,467.413 186.897,466.967 C187.789,466.521 189.001,466.202 189.639,466.202 C190.723,466.202 196.845,468.753 201.181,470.921 C202.074,471.367 204.625,472.324 206.857,472.961 C210.747,474.109 210.938,474.237 212.341,477.489 C213.17,479.275 214.063,482.399 214.254,484.312 L214.701,487.884 L207.495,487.884 C203.477,487.884 196.271,488.075 191.424,488.33 L182.624,488.713 L182.815,484.631 L183.007,480.55 L180.711,480.359 C178.67,480.167 178.288,480.359 177.586,482.081 C176.757,484.185 176.12,484.376 169.105,485.078 C164.322,485.524 163.557,486.289 163.557,490.498 C163.557,491.519 163.174,492.539 162.664,492.73 C162.154,492.921 156.414,492.603 149.846,492.092 C143.278,491.519 137.538,491.072 137.028,491.072 C136.327,491.072 136.135,490.052 136.135,486.672 L136.135,482.208 L132.819,481.251 C125.741,479.211 123.381,478.701 122.999,479.083 C122.807,479.338 122.297,480.996 121.851,482.91 L121.086,486.289 L107.758,486.034 C100.36,485.907 94.238,485.715 94.111,485.588 C93.983,485.46 93.728,484.121 93.601,482.591 C93.09,478.254 96.47,472.579 99.595,472.579 C101.572,472.579 108.013,469.9 111.967,467.477 C115.41,465.373 116.622,465.181 120.257,466.329 C123.509,467.286 125.55,466.329 127.016,463.396 C127.718,461.865 128.802,460.845 130.396,460.207 C131.672,459.697 133.075,458.868 133.521,458.358 C134.159,457.529 133.712,457.146 130.779,455.743 C128.866,454.851 126.634,454.085 125.805,454.085 C123.445,454.085 121.532,452.364 121.149,449.749 C120.894,448.474 120.257,446.433 119.746,445.221 C118.917,443.308 118.917,442.862 119.81,440.438 C120.384,438.972 120.831,437.441 120.831,436.995 C120.831,436.548 121.978,433.487 123.381,430.171 C124.784,426.855 125.932,423.348 125.932,422.328 C125.932,421.307 126.379,420.096 126.953,419.586 C128.292,418.501 134.222,406.64 134.222,405.046 C134.222,404.408 134.669,403.515 135.243,403.005 C135.817,402.559 137.028,400.582 138.049,398.669 C139.005,396.692 140.599,394.396 141.492,393.567 C142.576,392.547 143.15,391.335 143.15,390.06 C143.15,388.976 144.107,386.297 145.255,384.129 C147.104,380.367 147.423,380.112 149.208,380.239 C151.058,380.431 151.122,380.558 150.93,383.173 C150.803,385.915 151.249,386.425 152.588,385.086 C153.672,384.002 153.545,382.344 152.078,379.984 C150.611,377.561 150.292,370.865 151.504,367.294 C153.098,362.639 156.032,359.004 159.858,357.091 L163.429,355.305 L163.365,350.969 C163.238,346.951 164.832,337.386 166.235,333.496 C166.681,332.284 167.702,331.455 169.615,330.753 C171.082,330.179 172.867,329.095 173.505,328.394 C174.525,327.246 174.589,326.863 173.824,325.078 C172.612,322.208 172.23,317.936 172.995,315.704 C173.569,314.237 173.441,313.28 172.74,311.495 C171.464,308.434 171.974,306.712 174.908,303.779 C176.566,302.184 177.969,299.761 179.117,296.573 C182.178,288.346 182.879,286.752 183.836,285.604 C184.282,285.03 186.705,284.074 189.192,283.5 C195.761,281.842 200.544,282.415 206.729,285.476 C210.938,287.581 212.086,288.537 213.999,291.407 C216.996,295.935 217.634,296.19 221.396,294.787 C223.692,293.958 224.521,293.32 224.649,292.172 C224.904,290.387 223.118,288.282 221.269,288.282 C219.547,288.282 218.272,286.879 218.782,285.54 C218.973,285.03 220.249,283.818 221.524,282.862 C222.863,281.969 224.904,280.056 225.988,278.717 C227.136,277.314 228.539,276.166 229.176,276.166 C230.579,276.166 232.046,274.572 231.472,273.615 C231.281,273.296 230.324,272.977 229.368,272.977 C228.411,272.914 226.944,272.531 226.052,272.021 C225.159,271.511 223.692,271.128 222.799,271.064 C221.907,271.064 220.631,270.618 219.93,270.108 C219.228,269.598 217.315,269.151 215.466,269.151 C211.576,269.151 210.045,267.94 211.257,265.899 C212.15,264.432 211.512,264.305 209.726,265.644 C208.961,266.154 208.196,267.429 208.005,268.514 C207.75,269.725 206.857,270.873 205.581,271.638 C204.434,272.34 203.158,273.806 202.712,274.827 C201.947,276.676 201.691,276.804 198.503,276.804 C196.207,276.804 194.485,276.421 193.21,275.528 C187.853,272.085 186.195,270.554 185.685,268.832 C185.366,267.748 184.665,265.644 184.091,264.05 C182.56,259.777 182.815,254.93 184.856,249.893 C186.45,246.066 186.897,245.556 189.256,244.6 C196.909,241.539 197.546,240.773 195.442,236.628 L194.103,233.95 L190.659,234.396 C186.45,234.907 183.708,233.822 176.502,228.848 C167.255,222.471 160.815,214.564 160.049,208.697 C159.348,203.787 159.22,203.595 155.522,202.511 C151.058,201.236 149.974,201.81 148.571,206.274 L147.487,209.717 L149.655,211.949 C150.93,213.161 152.78,214.372 153.927,214.628 C156.096,215.074 157.817,217.051 157.817,219.155 C157.817,220.813 155.522,226.106 153.8,228.466 C152.397,230.379 152.716,232.164 154.501,232.164 C155.139,232.164 156.223,232.611 156.925,233.121 C157.562,233.631 158.965,234.078 159.922,234.078 C163.939,234.078 169.296,238.286 169.296,241.284 C169.296,241.985 170.125,243.516 171.209,244.6 C173.696,247.214 174.844,252.443 173.441,255.122 C172.931,256.142 172.485,257.736 172.485,258.629 C172.485,261.307 170.954,263.476 165.661,268.258 C160.56,272.85 152.142,277.441 148.762,277.441 C145.956,277.441 143.724,280.757 142.576,286.688 C142.13,288.793 141.684,291.152 141.556,291.917 C141.365,292.682 140.472,294.149 139.579,295.233 C138.304,296.764 137.985,297.72 138.176,299.187 C138.367,300.271 137.857,303.46 137.028,306.266 C135.944,310.156 135.051,311.941 133.33,313.727 C130.906,316.214 130.396,318.318 129.121,329.669 C128.674,333.623 128.228,335.409 127.271,336.301 C126.06,337.577 125.996,337.513 120.703,336.11 C117.833,335.345 112.668,333.687 109.352,332.539 C103.995,330.626 102.847,330.371 99.149,330.753 C95.769,331.072 94.366,330.881 91.624,329.797 C89.774,329.032 88.116,328.458 87.861,328.458 C87.67,328.458 86.522,329.542 85.374,330.817 L83.206,333.177 L79.507,332.156 C72.174,330.116 60.504,325.716 59.228,324.504 C57.507,322.973 55.083,315.895 55.53,313.982 C55.849,312.961 55.657,312.515 54.956,312.515 C53.999,312.515 36.08,321.507 29.129,325.46 C23.517,328.713 20.966,329.414 17.714,328.521 C12.038,326.991 8.914,322.4 9.36,316.278 C9.679,312.196 10.572,310.793 14.462,308.306 C17.331,306.457 26.45,302.631 32.572,300.718 C37.291,299.187 52.214,291.981 52.915,290.833 C53.106,290.514 52.851,289.749 52.341,289.175 C51.066,287.964 51.066,285.987 52.341,280.311 C52.851,277.888 53.999,272.276 54.828,267.876 C56.678,258.502 57.698,256.971 61.078,258.183 C62.226,258.629 63.501,258.948 63.884,258.948 C64.585,258.948 69.177,253.336 69.177,252.443 C69.177,252.125 67.965,250.594 66.562,249.064 L63.947,246.194 L64.904,241.794 C67.391,230.889 68.029,230.57 79.38,234.396 C83.971,235.991 87.989,237.266 88.371,237.266 C89.456,237.266 96.662,230.761 97.618,228.848 C98.128,227.892 98.511,226.106 98.511,224.767 C98.511,222.918 98.957,222.025 100.679,220.431 C101.891,219.347 103.74,216.541 104.888,214.181 C107.694,208.123 112.477,203.021 115.92,202.384 L118.535,201.874 L118.344,198.685 C118.28,196.899 117.961,195.241 117.642,194.986 C117.387,194.667 111.584,193.009 104.697,191.351 C97.873,189.63 91.05,187.716 89.519,187.143 C87.989,186.569 84.481,185.931 81.803,185.676 C76.383,185.229 75.426,184.656 75.299,181.85 C75.235,180.766 75.043,179.873 74.788,179.873 C74.47,179.873 74.278,179.618 74.278,179.235 C74.278,178.597 78.168,177.386 82.505,176.748 C84.992,176.429 85.566,175.983 86.969,173.751 C90.986,167.246 98.702,158.573 113.242,144.161 C118.28,139.123 127.271,134.149 133.393,133.001 C136.135,132.491 140.344,131.471 142.831,130.77 C145.446,130.004 149.208,129.494 151.887,129.494 C156.287,129.494 156.542,129.43 156.351,128.091 C156.223,127.007 156.797,126.433 159.22,125.413 C162.855,123.882 164.194,124.584 164.194,128.155 C164.194,131.343 164.705,131.79 168.34,131.79 L171.528,131.726 L171.911,124.265 C172.166,120.12 172.548,116.039 172.74,115.146 C172.995,114.062 174.589,112.595 177.586,110.682 C180.073,109.088 182.05,107.557 182.05,107.238 C182.05,106.919 183.007,105.453 184.218,104.05 C185.43,102.583 186.642,100.861 186.833,100.16 C187.088,99.458 187.917,98.693 188.746,98.502 C189.575,98.31 190.595,97.736 190.978,97.29 C191.424,96.78 192.7,96.078 193.911,95.696 C195.888,94.994 196.335,95.122 199.204,97.035 C201.117,98.247 202.648,99.777 203.031,100.861 C203.605,102.583 203.923,102.711 206.921,102.711 C209.726,102.711 211.129,102.2 216.359,99.267 C226.626,93.528 226.371,93.719 226.562,90.977 C226.944,86.577 226.371,85.493 223.565,85.493 C221.524,85.493 220.886,85.11 219.165,83.006 C217.953,81.539 216.359,80.327 215.275,80.072 C211.895,79.371 211.831,78.86 212.277,66.17 C212.66,56.605 212.979,54.118 213.999,52.141 C214.637,50.801 215.211,48.633 215.211,47.23 C215.211,44.68 215.211,44.68 205.518,37.473 C193.21,28.354 182.815,21.34 180.775,20.766 C179.882,20.511 177.14,18.98 174.653,17.322 C172.166,15.728 169.232,13.878 168.084,13.305 C166.171,12.284 166.108,12.029 166.49,9.797 C167.192,5.843 167.829,5.142 170.444,5.142 C171.719,5.206 173.377,5.525 174.079,5.971 C177.14,7.756 182.752,12.412 184.218,14.389 C185.111,15.536 187.662,17.513 189.83,18.789 C192.062,20.064 199.523,24.847 206.474,29.375 C213.425,33.966 219.611,37.665 220.249,37.665 C221.715,37.665 224.266,34.923 223.82,33.775 C223.628,33.265 218.463,29.183 212.341,24.592 C204.752,18.916 200.033,15.855 197.483,14.963 C194.23,13.751 191.169,12.029 185.43,8.012 C184.282,7.246 184.155,6.672 184.41,4.377 C185.111,-1.108 188.682,-1.426 195.761,3.356 C198.503,5.206 201.309,7.501 202.074,8.522 C203.286,10.244 232.62,30.267 236.319,31.925 C237.722,32.563 238.423,32.436 240.591,31.352 C243.652,29.821 246.586,29.63 247.734,30.905 C248.244,31.543 248.308,33.01 248.052,35.305 C247.606,38.685 247.67,38.813 249.455,39.45 C250.858,39.897 251.751,39.833 252.835,39.259 C254.621,38.302 256.661,39.004 256.661,40.598 C256.661,42.384 265.27,49.781 267.375,49.781 C267.758,49.781 268.714,49.207 269.479,48.442 C271.966,45.955 275.346,44.042 277.259,44.042 C281.787,44.042 287.909,49.909 287.909,54.181 C287.909,55.393 287.016,57.944 285.868,60.048 L283.828,63.747 L286.889,66.617 C289.886,69.422 290.013,69.55 289.695,72.42 C289.439,74.205 288.802,75.927 287.909,76.884 C286.123,78.797 285.358,82.304 285.805,86.322 C286.123,89 286.506,89.638 288.483,90.849 C299.133,97.545 301.109,98.119 304.425,95.632 C306.02,94.42 306.53,94.357 308.443,94.994 C309.655,95.377 311.95,96.525 313.481,97.545 C315.075,98.502 317.052,99.522 317.881,99.713 C318.774,99.968 320.241,101.308 321.197,102.711 C322.919,105.134 327.574,108.896 333.186,112.276 C337.076,114.636 339.499,117.25 339.946,119.673 C340.392,122.097 341.667,123.372 343.644,123.436 C344.665,123.436 345.239,124.137 345.94,126.306 L346.897,129.175 L347.088,126.369 L347.279,123.627 L349.575,123.946 C352.253,124.392 353.592,125.413 353.592,127.007 C353.592,128.027 354.103,128.219 357.1,128.219 C360.99,128.219 369.599,130.451 378.144,133.703 C381.333,134.851 384.776,136.062 385.796,136.254 C391.663,137.529 403.78,148.306 411.687,159.211 C415.96,165.142 420.743,170.307 423.23,171.646 C423.804,171.965 425.525,172.22 427.056,172.22 C430.308,172.22 433.943,173.942 434.581,175.728 C435.219,177.513 434.262,179.809 432.54,180.447 C431.711,180.766 428.841,181.339 426.099,181.786 C423.357,182.168 419.595,183.061 417.682,183.699 C415.832,184.337 408.626,186.186 401.612,187.78 C385.796,191.479 385.86,191.415 386.37,194.094 C386.625,195.241 387.072,198.813 387.391,202.065 L387.965,208.059 L391.982,212.077 C395.171,215.265 401.229,221.77 402.632,223.555 C402.759,223.683 403.078,224.958 403.27,226.234 C403.652,228.466 403.907,228.657 406.203,229.103 C410.476,229.869 415.386,229.677 417.809,228.657 C420.87,227.382 422.975,227.445 425.844,228.976 C428.778,230.57 428.841,230.57 432.349,228.912 C437.132,226.68 437.387,226.935 437.897,235.353 C438.088,239.498 438.024,243.133 437.706,243.771 C437.004,245.046 438.598,246.194 441.085,246.194 C441.914,246.194 444.083,246.895 445.932,247.788 C448.929,249.191 449.822,249.319 454.541,248.936 C457.411,248.745 460.344,248.298 460.982,247.916 C462.512,247.15 469.208,246.066 472.333,246.13 C474.884,246.194 481.388,249.127 483.174,251.04 C483.748,251.742 484.704,253.719 485.278,255.441 C485.916,257.29 487.255,259.458 488.531,260.67 C491.145,263.157 491.4,265.708 489.168,268.322 C486.809,271.128 486.235,272.659 486.617,274.954 C487.128,277.888 485.47,279.865 480.113,282.862 C476.733,284.775 475.458,285.158 473.672,284.903 C472.269,284.647 470.739,284.839 469.591,285.413 C468.188,286.178 467.423,286.242 466.02,285.668 C463.596,284.647 445.996,284.903 445.039,285.923 C444.657,286.369 443.828,289.558 443.254,293.065 C441.468,303.141 439.81,308.561 435.984,317.107 C434.198,320.933 433.816,321.443 431.584,322.017 C427.12,323.165 421.189,324.185 420.806,323.802 C420.615,323.611 419.659,323.739 418.702,324.121 C417.235,324.695 414.302,325.078 407.67,325.397 C406.777,325.397 405.183,324.823 404.226,324.058 L402.377,322.591 L401.101,324.249 C399.89,325.716 399.38,325.843 393.449,326.034 L387.136,326.226 L385.031,323.101 C383.883,321.315 382.48,319.657 381.906,319.339 C381.269,319.02 378.59,318.892 375.848,319.083 C369.344,319.594 365.645,318.382 360.225,313.854 C355.952,310.283 354.868,308.179 354.868,303.523 C354.868,300.526 353.911,299.761 350.276,299.761 C348.427,299.761 346.131,299.251 344.601,298.422 C341.795,297.019 336.374,296.891 335.928,298.294 C335.801,298.677 337.012,300.271 338.606,301.865 C341.285,304.544 341.476,304.926 341.412,307.86 C341.349,309.582 341.604,311.559 341.922,312.196 C343.198,314.556 346.641,328.011 346.259,329.095 C345.685,330.881 340.966,333.623 339.18,333.177 C337.267,332.667 335.801,334.325 335.737,336.875 C335.737,339.49 337.012,339.745 338.861,337.449 C339.754,336.365 340.711,335.472 340.966,335.472 C341.157,335.472 341.922,336.493 342.688,337.704 C344.154,340.191 344.983,340.447 346.641,338.916 C349.256,336.557 352.763,339.49 353.21,344.209 C353.465,347.461 353.848,348.035 356.079,348.545 C361.691,349.757 366.857,362.702 364.37,369.079 C362.712,373.224 364.178,384.512 366.538,385.979 C367.686,386.68 369.535,385.277 369.535,383.555 C369.535,382.535 370.045,381.77 371.129,381.26 C372.532,380.622 372.979,380.686 374.063,381.833 C374.764,382.535 375.529,384.321 375.721,385.787 C376.04,387.892 376.486,388.657 377.889,389.422 C378.909,389.932 379.738,390.698 379.738,391.08 C379.738,392.164 387.263,405.62 388.73,407.278 C389.431,407.979 389.942,408.936 389.942,409.382 C389.942,410.403 395.171,420.159 397.722,423.922 C398.678,425.389 399.507,426.855 399.507,427.238 C399.507,428.195 403.907,438.844 404.673,439.801 C405.055,440.247 405.246,441.267 405.119,442.096 C404.928,443.436 404.545,443.563 401.229,443.755 C398.678,443.882 397.403,444.265 397.148,444.902 C396.51,446.624 398.487,449.94 402.504,453.766 C405.693,456.891 406.394,457.912 406.075,459.059 C405.438,461.546 403.461,462.375 398.104,462.375 C391.281,462.375 390.579,464.034 396.51,466.202 C398.359,466.903 399.443,467.796 400.081,469.071 C401.42,472.005 402.696,473.153 404.991,473.599 C406.458,473.854 407.67,473.663 408.754,472.961 C410.922,471.558 412.516,471.686 416.342,473.599 C422.337,476.724 423.421,477.17 426.291,478.063 C427.885,478.573 429.926,478.956 430.882,478.956 C432.285,478.956 432.859,479.53 434.198,482.399 C435.091,484.312 436.175,486.098 436.494,486.289 C436.877,486.481 437.132,488.649 437.132,491.008 L437.132,495.345 L426.801,495.791 C421.061,495.982 414.429,496.238 411.942,496.301 L407.478,496.429 L407.287,492.348 C407.16,490.052 406.777,488.011 406.331,487.756 C405.884,487.501 404.099,487.246 402.249,487.246 C399.443,487.246 398.551,487.565 396.765,489.095 C395.362,490.371 394.342,490.817 393.768,490.434 C391.918,489.287 391.217,490.498 391.217,494.835 L391.217,499.171 L380.248,499.554 C374.19,499.809 367.367,500 365.071,500 L360.926,500 L359.013,496.62 z M390.834,451.853 C390.962,451.407 390.579,449.94 389.942,448.474 C389.113,446.624 388.22,445.731 387.008,445.413 C386.052,445.157 384.266,444.265 383.054,443.436 C381.843,442.67 380.121,441.969 379.292,441.969 C376.486,441.969 376.869,443.691 380.44,447.262 C382.353,449.175 384.521,451.598 385.35,452.682 C386.881,454.723 386.881,454.723 388.73,453.639 C389.686,453.065 390.643,452.236 390.834,451.853 z M358.758,452.108 C359.204,451.152 359.268,450.578 358.758,450.068 C357.865,449.175 356.143,450.642 356.143,452.236 C356.143,453.894 357.865,453.766 358.758,452.108 z M150.803,392.866 C150.803,391.654 150.101,391.208 149.336,391.973 C148.826,392.483 149.527,394.141 150.229,394.141 C150.548,394.141 150.803,393.567 150.803,392.866 z M265.079,368.442 C264.952,366.72 265.207,364.36 265.589,363.213 C266.355,360.981 265.653,358.43 264.25,358.43 C263.931,358.43 262.21,359.705 260.551,361.299 C258.893,362.894 257.044,364.169 256.534,364.169 C256.088,364.169 254.493,363.021 253.154,361.618 C249.966,358.302 247.989,358.302 248.18,361.618 C248.371,365.126 248.371,368.187 248.18,369.59 C247.989,371.248 250.476,371.694 258.893,371.566 L265.27,371.503 L265.079,368.442 z M231.791,359.195 C236.51,355.879 240.719,350.522 242.887,345.038 L244.609,340.51 L242.696,337.258 L240.846,333.942 L240.4,336.301 C239.826,339.362 237.467,341.212 234.278,341.212 C232.493,341.212 231.281,341.722 229.75,343.061 L227.71,344.847 L228.539,348.418 C229.432,352.563 228.858,355.496 226.498,358.621 C223.756,362.384 223.692,362.511 226.115,362.065 C227.327,361.81 229.878,360.534 231.791,359.195 z M221.141,359.896 C225.478,357.346 227.582,350.969 224.968,348.099 C223.692,346.696 222.481,346.632 219.356,347.908 C217.762,348.609 215.466,348.864 212.022,348.737 C207.877,348.609 206.793,348.737 205.709,349.757 C203.031,352.18 204.88,357.091 209.663,360.024 C211.895,361.427 212.851,361.618 215.721,361.363 C217.57,361.236 219.994,360.534 221.141,359.896 z M296.454,357.665 C300.089,356.453 299.962,355.496 296.199,354.667 C289.184,353.137 286.634,350.714 286.06,344.783 C285.805,342.423 285.231,340.191 284.784,339.745 C284.338,339.299 282.361,338.98 280.129,338.98 C276.877,338.916 276.111,338.725 275.091,337.449 C274.39,336.62 273.879,335.217 273.879,334.261 C273.879,333.368 273.624,332.22 273.306,331.774 C272.604,330.69 272.221,332.284 271.584,338.087 C271.201,342.041 271.329,342.615 273.242,346.505 C276.558,353.328 280.065,356.772 285.358,358.494 C287.463,359.195 293.329,358.749 296.454,357.665 z M303.533,350.841 C306.594,349.502 307.55,348.418 308.06,345.867 C308.634,342.87 307.295,342.232 302.194,343.061 C298.622,343.699 297.475,343.635 294.86,342.806 C291.225,341.594 289.312,341.977 288.802,344.081 C288.228,346.441 289.886,349.056 293.011,350.65 C296.39,352.372 300.089,352.435 303.533,350.841 z M314.055,349.566 C316.478,347.844 316.478,346.313 314.119,346.313 C312.843,346.313 311.823,346.824 310.93,347.971 C308.252,351.415 310.101,352.308 314.055,349.566 z M209.599,339.299 C212.469,335.983 216.805,333.623 222.544,332.22 C226.944,331.2 227.646,330.817 227.837,328.968 C228.092,327.118 226.689,325.46 224.457,324.887 C222.927,324.504 222.608,324.695 217.124,329.032 C214.828,330.817 210.747,331.838 207.941,331.327 C206.219,330.945 205.518,331.327 202.903,333.559 C201.245,335.026 199.906,336.748 199.906,337.513 C199.906,339.362 201.054,341.212 202.648,341.849 C205.518,342.997 206.793,342.551 209.599,339.299 z M293.648,326.545 C293.648,325.652 291.225,323.356 290.268,323.356 C288.738,323.356 287.016,325.014 287.463,326.162 C287.781,326.863 288.674,327.182 290.779,327.182 C292.373,327.182 293.648,326.927 293.648,326.545 z M361.628,306.457 C362.457,305.118 362.52,304.671 361.883,303.842 C360.671,302.439 358.439,302.95 358.184,304.735 C357.674,308.179 359.842,309.199 361.628,306.457 z M298.559,291.407 C299.324,290.195 300.408,288.601 300.982,287.836 C301.492,287.071 304.298,285.285 307.104,283.882 C311.887,281.459 312.652,281.268 317.562,281.268 C323.557,281.268 324.704,280.63 323.62,277.824 C323.302,276.867 322.983,275.082 322.983,273.87 C322.983,271.192 321.643,271.001 318.519,273.296 C315.203,275.72 308.315,275.528 308.315,272.977 C308.315,272.276 307.359,271.319 305.956,270.618 C303.788,269.598 303.533,269.215 303.341,266.6 C303.086,263.157 302.257,262.009 300.089,262.264 C298.686,262.455 298.367,262.838 298.112,265.006 C297.793,267.302 297.602,267.557 295.561,267.94 C294.35,268.131 292.628,268.641 291.863,269.087 C291.034,269.534 289.184,269.789 287.718,269.725 C284.529,269.47 280.065,271.83 280.384,273.551 C280.512,274.125 281.787,275.146 283.318,275.911 C284.848,276.612 286.634,278.143 287.271,279.227 C287.973,280.375 288.929,281.268 289.439,281.268 C289.95,281.268 291.097,282.16 291.99,283.245 C293.329,284.775 293.521,285.413 292.947,286.114 C292.564,286.624 291.863,287.007 291.353,287.007 C290.205,287.007 287.909,289.558 287.909,290.897 C287.909,292.236 289.184,293.32 292.182,294.341 C295.051,295.361 296.39,294.787 298.559,291.407 z M328.913,263.157 C329.487,262.392 331.592,261.052 333.632,260.223 C335.673,259.394 339.053,257.609 341.157,256.206 C343.262,254.867 345.94,253.591 347.088,253.4 C349.639,252.954 352.317,249.765 352.317,247.15 C352.317,245.237 353.911,243.005 355.187,243.005 C356.653,243.005 359.332,240.391 359.332,238.86 C359.332,236.565 353.784,227.19 351.807,226.17 C349.702,225.086 347.279,222.471 345.43,219.347 C343.198,215.648 343.644,212.97 346.705,211.375 C347.726,210.865 348.81,210.61 349.192,210.801 C349.83,211.248 354.485,209.08 356.271,207.485 C357.227,206.656 357.227,206.337 356.398,204.297 C355.824,203.085 355.569,201.874 355.761,201.746 C355.952,201.555 355.761,200.789 355.442,200.088 C354.804,199.004 354.294,198.876 351.552,199.195 C349.83,199.45 347.47,200.152 346.323,200.917 C345.111,201.618 343.198,202.192 342.05,202.192 C339.18,202.192 338.734,202.575 336.693,206.337 C335.227,208.952 334.844,210.61 334.589,215.265 C334.334,220.112 334.079,221.196 332.867,222.344 C332.102,223.045 331.337,224.066 331.145,224.512 C330.954,225.15 329.296,225.532 325.98,225.787 C322.6,226.106 320.687,226.553 319.794,227.382 C317.562,229.359 315.266,233.95 314.948,237.139 L314.565,240.136 L319.858,241.73 C322.791,242.559 325.661,243.771 326.171,244.281 C327.702,245.811 328.467,258.693 327.191,261.754 C325.916,264.879 327.128,265.899 328.913,263.157 z M208.068,242.942 C207.941,242.559 207.558,242.304 207.239,242.304 C206.921,242.304 206.538,242.559 206.41,242.942 C206.283,243.324 206.666,243.643 207.239,243.643 C207.813,243.643 208.196,243.324 208.068,242.942 z M108.906,239.307 C110.053,237.202 111.393,235.863 113.561,234.715 C117.132,232.866 117.323,232.228 118.025,222.535 C118.344,217.816 118.28,216.286 117.642,215.903 C116.494,215.202 112.987,219.347 110.564,224.321 C108.969,227.701 108.204,228.53 105.398,230.06 C100.169,232.866 98.128,238.478 101.955,239.434 C102.784,239.626 103.931,240.518 104.505,241.411 C105.845,243.452 106.929,242.942 108.906,239.307 z M391.408,228.976 C392.365,228.083 391.344,226.17 388.602,223.492 C386.115,221.068 385.988,221.068 385.095,222.216 C384.011,223.747 383.947,228.402 385.031,229.55 C385.86,230.379 390.452,229.996 391.408,228.976 z M142.385,226.298 C143.405,225.277 143.342,223.874 142.257,223.874 C141.428,223.874 140.599,225.15 140.599,226.489 C140.599,227.318 141.492,227.19 142.385,226.298 z M316.478,222.216 C317.243,221.706 317.881,220.558 317.881,219.665 C317.881,218.454 317.562,218.135 316.159,218.135 C314.182,218.135 312.142,219.793 312.142,221.323 C312.142,223.492 314.119,223.874 316.478,222.216 z M156.542,194.221 C157.243,193.392 157.18,192.882 156.096,191.479 C155.394,190.522 154.31,189.757 153.672,189.757 C152.142,189.757 150.994,192.946 152.078,194.221 C153.098,195.496 155.522,195.433 156.542,194.221 z M161.58,188.035 C160.751,186.505 159.093,186.569 159.093,188.163 C159.093,189.63 161.07,190.969 161.771,189.885 C161.962,189.502 161.899,188.673 161.58,188.035 z M348.172,188.801 C348.363,188.418 347.853,188.163 346.96,188.163 C346.068,188.163 345.175,188.482 344.983,188.801 C344.792,189.183 345.302,189.438 346.195,189.438 C347.088,189.438 347.981,189.183 348.172,188.801 z M283.7,92.762 C284.657,90.212 284.147,88.745 282.042,88.171 C280.894,87.852 279.683,87.725 279.364,87.916 C278.726,88.298 279.364,91.742 280.32,92.954 C281.277,94.102 283.254,94.038 283.7,92.762 z M273.879,73.376 C273.879,72.675 273.433,72.101 272.923,72.101 C271.966,72.101 271.584,73.44 272.413,74.205 C273.178,75.034 273.879,74.652 273.879,73.376 z M222.863,63.045 C223.82,61.515 224.139,59.793 224.139,56.605 C224.139,52.842 223.947,52.077 222.544,50.674 C221.652,49.781 220.44,49.143 219.802,49.271 C218.909,49.462 218.718,50.419 218.527,55.839 C218.399,59.347 218.527,62.854 218.718,63.683 C219.228,65.788 221.396,65.469 222.863,63.045 z M231.472,41.81 C231.472,39.705 229.687,38.813 228.985,40.598 C228.347,42.192 229.176,44.169 230.388,43.914 C231.09,43.787 231.472,43.085 231.472,41.81 z M226.689,40.279 C227.646,38.366 227.455,37.027 226.179,37.027 C223.947,37.027 222.417,40.279 224.33,41.045 C225.669,41.619 225.988,41.491 226.689,40.279 z M245.183,35.752 C247.67,33.265 246.076,31.033 242.887,32.499 C240.783,33.456 240.209,35.114 241.675,36.134 C243.27,37.282 243.652,37.282 245.183,35.752 z" fill="#000000"/>
  </g>
</svg>
