<?xml version="1.0" encoding="UTF-8"?>
<!DOCTYPE svg PUBLIC "-//W3C//DTD SVG 1.1//EN" "http://www.w3.org/Graphics/SVG/1.1/DTD/svg11.dtd">
<svg version="1.1" xmlns="http://www.w3.org/2000/svg" xmlns:xlink="http://www.w3.org/1999/xlink" x="0" y="0" width="500" height="500" viewBox="0, 0, 500, 500">
  <g id="layer101">
    <path d="M108.173,499.543 C96.181,498.669 93.308,497.169 93.308,491.548 C93.308,488.676 94.807,486.427 100.303,481.181 C104.05,477.434 109.547,472.935 112.295,471.062 C115.043,469.063 119.04,465.192 121.164,462.193 C124.536,457.572 125.036,455.698 125.161,448.828 C125.286,444.08 126.035,440.084 127.035,438.835 C128.034,437.711 129.158,434.087 129.658,430.964 C130.157,427.718 131.407,421.472 132.406,417.1 C133.655,411.354 133.78,407.98 133.031,405.108 C132.031,402.234 132.281,399.111 133.78,393.366 C134.904,389.118 135.779,383.873 135.779,381.999 C135.779,378.5 137.278,374.128 141.65,364.885 C142.899,362.386 143.273,359.39 142.774,357.016 C142.274,354.142 143.398,349.146 146.646,339.277 C150.518,327.91 151.893,325.288 154.766,323.789 C156.764,322.79 158.263,321.04 158.263,319.791 C158.263,318.667 158.638,316.418 159.013,314.795 C159.637,312.547 159.013,311.673 155.265,310.172 C152.267,308.923 149.519,306.175 146.521,301.553 C144.148,297.932 141.025,293.934 139.526,292.935 C136.153,290.561 132.031,278.57 132.031,271.076 C132.031,267.826 131.032,263.954 129.658,261.581 C126.035,255.711 125.161,248.964 127.409,245.342 C129.158,242.844 129.408,237.722 129.283,212.99 L129.158,183.509 L133.655,178.513 C138.277,173.391 141.275,165.647 143.273,153.53 C144.273,147.659 144.148,146.16 142.024,142.789 C139.651,139.041 139.651,138.417 141.4,133.42 C142.399,130.546 143.273,126.923 143.273,125.424 C143.273,120.178 149.394,110.06 158.763,99.942 C166.632,91.448 168.256,88.95 168.256,85.452 C168.256,82.704 169.63,79.456 172.628,75.584 C178,68.589 181.622,67.09 184.62,70.837 C185.744,72.211 188.118,73.96 189.741,74.584 C192.365,75.584 193.614,75.084 197.986,70.962 C203.732,65.84 204.107,64.341 201.483,55.223 C199.11,46.604 199.735,23.62 202.733,8.88 C203.107,7.006 205.481,4.882 209.728,2.759 C215.599,-0.239 216.848,-0.364 226.216,0.385 L236.334,1.26 L244.579,9.629 C250.824,16.25 253.198,19.622 254.947,24.994 C256.321,29.615 258.569,33.113 261.317,35.736 C264.19,38.234 265.689,40.733 265.814,43.106 C266.314,52.1 266.564,53.474 268.687,55.847 C270.311,57.721 270.811,59.345 270.186,61.843 C268.687,68.089 268.812,69.963 270.936,71.337 C273.559,73.085 276.931,70.462 276.931,66.59 C276.931,59.47 285.925,59.345 288.923,66.59 C291.297,72.336 292.796,72.961 297.043,69.838 C301.415,66.59 301.789,66.59 301.04,69.713 C299.791,74.21 302.539,72.336 304.912,66.84 C308.785,58.096 308.909,57.846 312.657,57.471 C317.653,56.972 321.526,61.344 323.025,68.963 C324.274,75.584 327.896,79.456 338.889,85.827 C349.881,92.199 356.627,103.689 358.375,119.055 C359.75,132.045 360.124,133.169 364.371,135.294 C366.995,136.667 368.868,136.792 371.242,135.918 C377.362,133.544 382.734,134.418 385.482,138.041 C386.981,139.79 388.48,142.789 388.854,144.536 C389.729,148.534 392.227,155.029 396.849,165.897 C404.219,182.76 406.093,188.506 404.968,190.131 C398.848,198.374 398.973,197.125 403.095,208.742 C407.716,221.984 407.841,227.98 403.719,235.224 C401.97,238.223 399.722,241.346 398.723,242.094 C397.598,243.093 396.849,245.967 396.849,249.714 C396.849,254.96 396.224,256.459 391.728,261.707 C377.862,277.82 372.241,282.942 367.494,283.817 C364.621,284.441 359.999,287.063 356.002,290.311 C351.63,293.81 346.634,296.557 342.137,297.806 C330.769,300.929 323.899,304.052 321.401,307.55 C318.903,310.797 319.028,311.673 323.025,318.292 C325.273,322.165 327.022,333.283 326.273,338.779 C325.648,342.9 325.898,345.15 327.022,346.524 C328.146,348.021 328.771,353.269 329.021,363.762 C329.146,372.006 329.645,381.25 330.02,384.121 C330.52,387.62 330.145,390.868 328.646,394.115 C327.522,396.738 326.148,402.485 325.523,406.982 C325.023,411.479 323.899,418.974 323.275,423.594 C322.025,431.589 322.15,432.589 325.023,438.335 C328.521,445.081 328.771,447.704 326.772,454.449 C325.523,458.57 325.648,459.819 328.146,464.191 C331.269,469.688 344.385,481.93 347.258,481.93 C350.006,481.93 353.129,486.177 353.129,489.799 C353.129,493.048 350.381,496.795 347.758,497.045 C337.39,498.294 309.034,498.169 298.791,497.045 C293.295,496.42 288.424,496.171 287.924,496.42 C286.8,497.169 281.678,494.547 280.304,492.673 C279.805,491.924 279.43,487.427 279.555,482.555 C279.68,477.807 279.055,468.438 278.306,461.944 C277.556,455.447 277.056,446.954 277.181,443.207 C277.431,435.837 275.308,416.099 273.309,406.857 C272.684,403.734 270.936,399.236 269.686,396.864 C268.312,394.491 266.564,388.745 265.689,383.873 C264.94,379.125 263.566,372.879 262.691,370.132 C261.692,366.758 261.567,362.513 262.067,357.265 C262.691,352.769 262.566,348.021 261.817,346.274 C261.192,344.525 260.693,336.03 260.693,327.41 C260.693,314.544 261.067,311.172 262.691,309.298 C264.69,307.174 264.565,306.8 261.442,302.304 C259.693,299.68 258.194,296.058 258.194,294.185 C258.194,292.311 257.445,290.811 256.695,290.811 C254.447,290.811 243.829,294.185 240.706,295.807 C237.584,297.431 231.338,309.799 230.339,316.294 C229.964,318.918 228.465,322.289 227.216,323.789 C224.218,327.162 218.722,338.904 217.597,344.525 C216.223,351.52 214.1,357.39 211.726,360.639 C210.477,362.262 209.478,364.26 209.478,365.011 C209.478,365.76 207.729,369.756 205.73,373.88 C203.607,378.001 201.983,382.124 201.983,382.997 C201.983,385.622 194.488,402.359 191.99,405.108 C188.742,408.856 180.123,427.593 176.875,438.21 C174.377,446.455 174.002,450.326 174.002,469.063 C173.877,489.925 173.752,490.549 170.879,493.672 C169.256,495.42 166.133,497.42 164.009,498.044 C159.013,499.543 122.163,500.668 108.173,499.543 z M163.759,295.059 C165.133,291.56 164.509,286.189 162.76,284.69 C160.012,282.318 155.765,285.066 155.765,289.188 C155.765,294.933 162.011,299.555 163.759,295.059 z" fill="#000000"/>
  </g>
</svg>
