<?xml version="1.0" encoding="UTF-8"?>
<!DOCTYPE svg PUBLIC "-//W3C//DTD SVG 1.1//EN" "http://www.w3.org/Graphics/SVG/1.1/DTD/svg11.dtd">
<svg version="1.1" xmlns="http://www.w3.org/2000/svg" xmlns:xlink="http://www.w3.org/1999/xlink" x="0" y="0" width="500" height="500" viewBox="0, 0, 500, 500">
  <g id="layer101">
    <path d="M349.66,498.864 C345.133,496.471 343.71,494.79 340.347,487.483 C334.915,475.648 331.165,457.282 330.777,440.986 C330.583,432.062 330.324,429.669 329.354,427.729 C328.707,426.436 327.931,424.237 327.672,422.814 C327.414,421.392 327.09,419.581 326.961,418.805 C326.638,417.253 325.797,415.054 324.827,413.437 C324.504,412.92 322.434,408.717 320.236,404.06 C317.972,399.469 315.515,394.425 314.803,392.873 C314.027,391.321 312.54,389.381 311.376,388.54 C310.147,387.57 308.919,385.695 308.272,383.884 C305.556,376.318 304.392,373.925 302.969,373.02 C302.128,372.438 301.482,371.403 301.482,370.692 C301.482,368.881 299.348,364.936 297.408,363.061 C296.438,362.22 295.597,360.474 295.338,359.051 C295.08,357.693 294.045,355.3 293.01,353.813 C291.976,352.261 291.135,350.192 291.135,349.092 C291.135,348.058 290.553,346.312 289.842,345.212 C289.001,343.919 288.548,342.173 288.548,339.909 C288.548,337.258 288.289,336.353 287.19,335.641 C286.349,334.995 285.767,333.766 285.638,332.085 C285.509,330.597 284.345,327.364 283.051,324.906 C281.693,322.126 280.788,319.41 280.788,317.987 C280.788,316.693 280.206,313.654 279.559,311.326 C278.848,308.998 278.137,306.023 277.943,304.73 C277.49,302.143 271.928,294.254 269.988,293.478 C267.854,292.637 258.348,292.508 257.637,293.348 C256.279,295.094 255.373,302.466 255.244,311.908 C255.179,321.479 255.244,322.061 256.731,324.324 C258.089,326.394 258.219,327.04 257.572,328.528 C256.925,330.145 256.925,332.02 257.637,342.949 C257.637,343.854 257.249,345.6 256.667,346.829 C255.632,349.157 254.921,354.072 254.662,360.409 C254.533,362.802 253.886,365.13 252.657,367.523 C250.459,371.791 249.165,381.944 250.394,385.048 C250.847,386.083 251.041,387.247 250.911,387.699 C250.394,389.122 251.687,397.917 252.657,399.922 C254.209,402.896 253.886,408.846 252.011,412.403 C250.2,415.765 249.876,419.969 251.105,424.754 C251.881,427.794 252.075,427.276 247.484,434.713 C247.096,435.295 245.996,437.235 244.962,438.981 C243.927,440.792 241.47,443.896 239.594,445.901 C237.654,447.97 235.455,451.139 234.615,453.014 C233.58,455.407 231.575,457.929 228.019,461.292 C221.552,467.435 216.378,470.087 208.941,471.057 C206.031,471.38 203.38,471.833 203.121,472.027 C202.863,472.156 200.923,471.768 198.789,471.057 C193.162,469.311 188.054,465.172 185.661,460.322 C183.591,456.054 183.333,454.243 184.367,449.199 C185.467,443.508 187.213,440.404 191.287,436.977 C197.56,431.674 200.47,428.505 202.216,425.013 C203.186,423.202 204.997,420.486 206.419,419.063 C210.429,414.666 211.076,412.338 210.882,403.414 C210.752,398.37 210.946,395.201 211.464,394.295 C212.046,393.131 211.981,392.679 210.623,391.45 C208.812,389.704 208.553,388.087 209.976,386.923 C211.981,385.307 210.688,382.397 207.971,382.397 C206.872,382.397 206.419,381.879 206.096,380.327 C204.997,374.96 203.703,371.403 202.798,371.403 C202.281,371.403 201.893,371.726 201.893,372.179 C201.893,374.184 201.052,371.726 200.858,369.075 C200.664,366.294 199.953,363.513 198.595,359.892 C198.271,359.051 198.012,357.37 198.012,356.077 C198.012,354.783 197.301,351.938 196.46,349.804 C194.714,345.406 193.486,336.935 193.486,329.045 C193.486,325.359 193.098,323.096 192.192,321.091 C190.899,318.181 191.028,317.082 192.968,314.559 C194.391,312.684 194.456,310.679 193.162,310.227 C192.645,309.968 190.058,310.291 187.472,310.938 C183.074,311.973 182.039,311.973 173.697,311.067 C164.191,310.033 160.505,308.933 156.366,305.959 C155.008,304.989 153.327,304.148 152.745,304.148 C151.257,304.148 147.248,300.138 144.467,295.806 C143.885,294.965 142.462,293.866 141.298,293.348 C140.07,292.896 138.906,291.99 138.712,291.344 C138.518,290.762 137.095,288.951 135.543,287.334 C132.633,284.295 128.817,277.698 128.817,275.694 C128.817,275.047 128.365,274.206 127.847,273.754 C127.33,273.301 126.877,272.331 126.877,271.62 C126.877,270.908 126.101,269.292 125.196,268.128 C123.709,266.188 123.579,265.67 124.226,264.312 C125.261,261.919 125.067,260.109 123.709,259.721 C121.769,259.203 120.928,255.259 122.027,251.572 L122.933,248.533 L120.217,245.364 C116.724,241.29 112.262,233.401 111.486,230.038 C111.098,228.227 111.163,226.546 111.745,224.541 C112.198,222.989 112.715,220.984 112.909,220.079 C113.103,219.174 114.138,217.945 115.237,217.363 C116.336,216.781 117.5,215.423 117.888,214.453 C118.212,213.483 118.988,211.801 119.505,210.767 C121.057,207.598 120.605,204.882 117.824,200.226 C116.401,197.833 115.237,195.376 115.237,194.794 C115.237,192.918 118.988,183.412 122.739,175.781 C124.614,171.901 126.554,167.245 126.942,165.434 C127.395,163.688 128.688,160.196 129.852,157.739 C131.081,155.346 132.051,152.695 132.051,151.854 C132.051,150.043 134.314,147.068 136.319,146.357 C137.16,146.034 140.199,145.452 143.109,145.064 C148.218,144.482 148.477,144.482 151.516,146.098 C156.625,148.944 158.177,146.81 154.943,141.313 C152.874,137.821 153.133,135.946 156.237,130.837 C157.465,128.897 158.63,126.245 158.888,125.017 C159.794,120.748 163.738,113.182 167.295,109.044 C169.235,106.715 170.852,104.581 170.852,104.258 C170.852,103.935 171.693,103.676 172.663,103.676 C173.697,103.676 175.055,103.094 175.637,102.447 C176.284,101.736 178.806,99.796 181.328,98.179 C183.785,96.498 186.049,94.428 186.372,93.588 C186.696,92.747 188.054,91.518 189.412,90.936 C192.128,89.643 192.968,87.38 192.063,83.952 C191.804,82.918 191.546,80.331 191.546,78.261 C191.546,74.899 191.804,74.252 193.486,72.571 C194.973,71.019 195.878,70.631 197.495,70.825 C199.371,71.019 199.759,71.342 200.47,73.605 C201.828,77.809 203.509,78.132 208.165,75.287 C210.623,73.799 212.175,73.347 215.796,73.153 L220.258,72.959 L223.75,77.485 C227.049,81.883 227.178,82.142 226.855,85.31 C226.661,87.121 226.661,88.802 226.855,88.996 C227.566,89.708 230.735,87.638 231.446,86.022 C231.899,85.116 233.321,83.888 234.744,83.306 C237.072,82.271 237.331,81.883 237.654,79.102 C238.042,75.869 240.306,72.635 242.116,72.635 C244.186,72.635 244.768,70.889 244.444,65.263 C244.25,61.642 243.798,59.249 243.086,58.15 C241.728,56.08 241.664,53.946 243.022,52.006 C243.798,50.971 243.992,49.743 243.733,47.738 C243.41,45.604 243.539,44.893 244.25,44.569 C244.768,44.375 245.22,43.729 245.22,43.211 C245.22,41.594 248.324,37.908 250.07,37.456 C251.364,37.132 251.687,36.615 251.687,35.128 C251.687,33.64 251.364,33.188 250.459,33.188 C249.747,33.188 248.454,32.282 247.484,31.118 C245.867,29.178 245.738,28.725 245.996,24.457 C246.19,21.935 246.061,19.155 245.738,18.379 C244.703,15.533 248.13,12.494 252.334,12.494 C254.08,12.494 254.274,12.3 254.274,10.554 C254.274,6.803 257.119,3.699 260.159,4.087 C261.969,4.346 262.681,4.022 265.009,2.017 C267.531,-0.246 268.307,-0.311 276.326,0.401 C280.723,0.789 284.862,2.664 285.573,4.475 C285.897,5.316 286.608,5.38 289.518,5.057 C292.881,4.604 293.075,4.669 293.657,6.221 C294.239,7.773 294.498,7.838 297.796,7.514 C300.706,7.191 301.676,7.385 303.163,8.484 C304.198,9.196 306.397,9.972 308.013,10.166 C310.794,10.554 311.053,10.812 312.475,13.722 C313.381,15.662 313.769,17.344 313.51,18.185 C313.187,19.09 313.575,20.513 314.674,22.388 C316.679,25.751 316.744,26.721 315.127,29.372 C314.092,31.054 313.898,32.218 314.221,35.774 C314.48,39.202 314.286,40.948 313.187,44.052 C312.475,46.251 311.829,48.643 311.829,49.419 C311.829,50.131 311.505,51.359 311.053,52.135 C310.665,52.911 310.277,56.662 310.212,60.478 C310.083,67.979 310.147,67.72 304.586,77.615 C303.357,79.878 303.228,80.46 303.939,81.171 C304.651,81.883 305.168,81.624 306.655,79.878 C309.953,75.869 315.903,75.481 321.788,78.779 C326.379,81.301 327.22,81.495 330.065,80.007 C331.1,79.49 333.234,78.973 334.786,78.908 C338.989,78.714 340.024,80.395 340.477,87.832 C340.8,94.04 342.288,98.761 344.163,99.796 C344.81,100.119 345.974,101.736 346.75,103.353 C347.526,105.034 349.078,106.974 350.112,107.75 C351.147,108.526 352.828,110.466 353.798,112.083 C354.833,113.7 357.679,117.062 360.136,119.584 C365.891,125.405 367.249,128.315 367.831,135.364 C368.09,139.179 368.672,141.83 369.772,144.029 C371.712,148.103 371.712,149.785 369.707,153.277 C368.349,155.475 367.896,157.415 367.443,162.977 L366.797,169.832 L369.384,174.488 C370.806,177.075 372.682,181.019 373.522,183.283 C376.497,191.431 377.338,212.772 374.945,219.238 C373.458,223.183 373.328,225.317 373.91,233.271 C374.428,240.579 374.557,241.032 376.885,244.394 L379.278,247.886 L378.114,251.831 C377.402,254.03 375.915,256.94 374.816,258.298 C372.682,260.82 371.518,264.118 372.294,265.347 C372.488,265.735 373.005,265.864 373.328,265.67 C373.652,265.412 373.91,265.929 373.91,266.64 C373.91,267.675 373.587,267.934 372.94,267.675 C371.841,267.287 370.677,269.098 370.677,271.296 C370.677,272.137 369.513,274.659 368.09,276.987 C366.667,279.315 365.503,281.385 365.503,281.579 C365.503,281.967 360.007,290.956 356.967,295.547 C355.997,297.034 354.38,298.78 353.41,299.427 C351.212,300.914 344.228,303.501 342.288,303.501 C341.576,303.501 340.929,303.76 340.929,304.083 C340.929,304.471 340.024,304.795 338.925,304.924 C336.079,305.183 335.239,306.735 336.338,309.451 C336.791,310.615 337.502,312.749 337.955,314.171 C338.343,315.594 339.183,317.47 339.83,318.375 C340.412,319.216 340.929,320.768 340.929,321.738 C340.929,322.837 341.641,324.26 342.87,325.488 C343.969,326.588 344.81,327.752 344.81,328.075 C344.81,328.334 345.78,328.916 347.008,329.368 C348.819,329.951 349.401,330.662 350.565,333.637 C351.276,335.641 351.923,338.034 351.923,339.069 C351.923,340.039 352.505,341.591 353.216,342.496 C354.639,344.242 354.833,346.506 353.863,349.028 C353.41,350.321 353.669,351.42 355.48,354.912 C356.709,357.305 357.743,359.633 357.743,360.151 C357.743,360.668 358.519,362.608 359.425,364.419 C360.783,367.135 361.041,368.234 360.653,370.562 C360.201,373.602 361.106,379.098 362.723,383.496 C363.563,385.824 363.628,386.729 362.917,389.187 C362.205,391.644 362.27,392.42 363.175,394.684 C363.757,396.106 364.21,397.917 364.21,398.758 C364.21,399.534 364.857,401.797 365.568,403.737 C366.797,406.906 366.926,408.134 366.538,415.054 C366.215,421.586 366.344,423.461 367.379,426.694 C369.578,433.808 375.01,446.289 377.855,450.88 C379.407,453.338 382.447,458.382 384.581,462.068 L388.461,468.729 L388.655,475.39 C388.913,481.921 388.849,482.115 386.521,486.771 C382.123,495.631 375.01,499.188 360.783,499.834 C353.022,500.158 351.988,500.093 349.66,498.864 z M338.537,301.108 C338.731,300.074 340.994,296.905 343.452,293.93 C347.202,289.533 348.043,288.11 348.043,286.299 C348.043,284.489 347.655,283.842 345.974,282.807 C342.094,280.479 341.317,280.997 336.597,288.886 C335.756,290.309 335.433,299.944 336.144,301.82 C336.791,303.436 338.149,303.048 338.537,301.108 z" fill="#000000"/>
  </g>
</svg>
