<?xml version="1.0" encoding="UTF-8"?>
<!DOCTYPE svg PUBLIC "-//W3C//DTD SVG 1.1//EN" "http://www.w3.org/Graphics/SVG/1.1/DTD/svg11.dtd">
<svg version="1.1" xmlns="http://www.w3.org/2000/svg" xmlns:xlink="http://www.w3.org/1999/xlink" x="0" y="0" width="500" height="500" viewBox="0, 0, 500, 500">
  <g id="layer101">
    <path d="M313.844,499.513 L308.306,499.331 L309.767,495.618 C311.288,491.723 311.592,489.35 310.679,488.802 C310.436,488.62 306.785,488.133 302.646,487.768 C298.508,487.403 295.039,486.977 294.918,486.916 C294.796,486.794 295.648,484.908 296.743,482.717 L298.752,478.639 L307.211,473.771 C311.836,471.154 315.731,468.963 315.913,468.963 C317.009,468.963 319.565,466.042 320.051,464.216 C320.538,462.634 321.451,461.478 323.277,460.261 C327.415,457.522 326.441,455.575 320.903,455.575 C315.305,455.575 313.844,452.775 317.313,448.88 C318.347,447.785 319.139,446.629 319.139,446.324 C319.139,444.255 313.053,446.02 309.645,449.002 C307.515,450.889 305.02,451.01 304.35,449.306 C304.168,448.88 304.289,443.16 304.594,436.648 C304.898,430.137 305.141,422.225 305.141,419.061 C305.081,412.245 305.933,403.664 306.845,401.108 C307.454,399.343 308.549,375.305 308.367,367.333 C308.306,365.142 308.123,360.091 308.063,356.074 C307.819,348.163 308.184,346.763 310.923,344.207 C312.809,342.442 313.175,341.834 314.818,337.695 L316.035,334.653 L313.661,332.097 C310.314,328.506 309.158,325.098 309.584,320.047 C309.767,317.734 310.132,315.3 310.314,314.57 C310.619,313.596 310.314,312.927 309.097,311.831 C308.184,311.04 306.906,309.336 306.298,307.997 C305.689,306.658 304.776,304.894 304.35,304.042 C303.863,303.19 302.403,300.208 301.125,297.408 C299.056,292.722 298.812,291.688 298.569,285.663 L298.265,279.03 L296.135,277.386 C293.579,275.439 292.605,273.248 291.996,268.136 C291.631,264.667 291.327,263.998 289.44,262.355 C288.284,261.381 286.702,259.495 285.911,258.277 C284.572,256.208 284.146,255.965 281.894,255.965 C280.495,255.965 278.182,255.356 276.721,254.687 C275.261,253.957 273.861,253.592 273.618,253.835 C273.374,254.078 273.131,255.539 273.131,257.06 C273.07,258.643 272.705,262.355 272.401,265.398 C271.67,271.544 271.67,271.544 275.93,272.092 C277.452,272.275 279.643,272.701 280.86,273.005 C286.154,274.465 285.059,277.569 279.277,277.569 C277.147,277.569 275.626,277.934 275.078,278.482 C274.105,279.516 272.279,284.628 272.279,286.272 C272.279,286.88 271.305,291.14 270.149,295.826 C268.384,302.703 267.045,306.293 262.907,314.996 C260.047,320.838 257.491,326.741 257.126,328.08 C256.821,329.419 256.213,335.2 255.848,340.86 C255.117,352.24 253.961,362.829 252.135,374.94 C251.466,379.321 250.675,384.312 250.431,386.076 C249.945,389.484 248.423,391.797 247.328,390.701 C246.963,390.336 246.476,388.45 246.171,386.442 C245.867,384.494 245.624,383.642 245.563,384.555 C245.38,388.632 242.581,392.101 241.607,389.484 C241.425,388.937 241.242,383.399 241.242,377.191 C241.242,370.923 240.938,361.977 240.633,357.291 C239.903,345.181 239.173,343.903 236.982,350.78 C236.252,353.031 234.73,356.743 233.574,358.995 C230.714,364.716 230.775,365.507 234.365,371.045 C236.191,373.723 236.13,375.792 234.244,378.53 C233.209,380.112 232.296,382.912 231.444,387.294 C230.775,390.884 229.801,395.327 229.314,397.152 C228.827,398.978 228.462,401.351 228.462,402.386 C228.462,403.603 227.854,405.064 226.941,406.22 C225.845,407.437 225.237,409.08 224.993,411.271 C224.811,413.036 224.385,414.983 224.08,415.592 C223.776,416.261 223.228,419.487 222.924,422.773 C222.376,428.676 222.376,428.919 223.898,431.475 C225.48,434.214 225.784,436.283 224.872,438.717 C224.446,439.813 224.567,440.665 225.419,442.004 C226.028,442.977 226.697,444.62 226.88,445.594 C227.123,446.568 229.253,449.55 231.566,452.167 L235.887,456.974 L235.461,460.991 C235.217,463.182 234.913,465.129 234.852,465.251 C234.426,465.616 220.307,469.572 219.212,469.572 C217.934,469.572 209.779,465.616 208.258,464.277 C207.649,463.729 205.58,463.243 203.389,463.06 C199.738,462.817 199.494,462.877 198.034,464.703 C196.512,466.529 196.208,466.59 179.473,469.572 L162.433,472.615 L152.756,470.485 C147.401,469.328 142.898,468.233 142.715,468.05 C142.228,467.503 143.628,457.4 144.297,456.731 C144.663,456.366 146.549,455.879 148.497,455.575 C150.444,455.27 154.947,453.871 158.477,452.471 C162.007,451.132 166.267,449.428 167.91,448.759 C169.614,448.089 171.683,447.298 172.535,446.994 C173.63,446.568 174.361,445.655 174.847,443.89 C175.273,442.551 176.308,440.786 177.16,439.995 C178.621,438.656 178.681,438.413 178.134,434.153 L177.647,429.771 L174.117,428.25 L170.587,426.789 L168.579,428.98 C165.962,431.841 164.928,431.841 163.406,428.98 C162.372,426.972 162.615,424.173 163.954,421.495 C164.624,420.156 165.719,416.14 166.328,412.549 C167.91,403.664 169.309,396.97 170.405,392.588 C170.892,390.58 171.683,386.624 172.17,383.764 C173.63,374.757 173.813,373.905 175.273,365.507 C176.125,361.003 177.16,355.587 177.647,353.457 C178.134,351.327 178.56,347.919 178.56,345.85 C178.56,341.164 180.02,337.939 182.211,337.635 C185.619,337.148 186.045,335.505 183.489,332.766 C182.455,331.731 181.359,329.723 180.933,328.323 C180.385,326.498 179.594,325.463 178.316,324.794 C177.282,324.246 173.752,321.142 170.466,317.917 C160.668,308.18 159.512,303.616 163.711,291.323 C164.928,287.793 166.328,284.081 166.814,283.107 C167.362,282.133 167.727,280.247 167.727,278.847 C167.666,276.048 168.458,274.222 169.735,274.222 C170.222,274.222 171.196,273.37 171.987,272.396 C172.717,271.362 174.178,270.023 175.273,269.414 C176.369,268.745 177.343,267.589 177.586,266.554 C177.829,265.58 179.838,259.86 181.968,253.835 C185.741,243.428 185.923,242.698 185.376,239.655 C184.95,237.221 185.01,236.065 185.68,234.787 C186.167,233.874 187.506,230.709 188.662,227.727 C190.731,222.372 190.731,222.311 190.062,217.382 C189.453,213.183 189.514,211.844 190.366,208.497 C192.252,201.437 192.252,200.951 190.974,201.437 C190.305,201.681 188.844,202.046 187.688,202.229 C186.41,202.472 184.524,203.507 183.002,204.906 C181.542,206.245 180.142,207.28 179.838,207.28 C179.533,207.28 178.134,206.306 176.734,205.15 C174.117,202.959 172.839,202.533 172.17,203.628 C171.805,204.237 173.143,205.697 177.282,209.166 C179.473,211.053 179.655,212.757 177.89,215.252 C176.369,217.382 174.726,217.504 172.17,215.556 C171.135,214.765 169.249,213.791 167.971,213.487 C166.754,213.122 164.441,211.722 162.98,210.322 C161.459,208.923 159.207,207.401 157.99,206.854 C156.773,206.367 154.46,204.724 152.878,203.202 C149.896,200.281 148.375,200.038 148.01,202.533 C147.888,203.263 147.097,204.298 146.184,204.845 C144.541,205.758 144.48,205.697 140.768,202.107 C138.759,200.099 136.569,197.482 135.96,196.265 C134.5,193.526 133.891,193.283 128.353,193.283 C123.91,193.283 123.85,193.283 120.502,196.204 C118.616,197.786 116.243,200.099 115.208,201.377 C114.173,202.655 110.157,206.549 106.323,210.079 C102.428,213.609 98.107,218.112 96.647,220.06 C95.186,222.068 93.239,224.076 92.265,224.563 C91.291,225.05 90.135,225.902 89.648,226.51 C89.222,227.058 87.822,228.153 86.666,229.005 C85.51,229.797 83.623,231.135 82.467,231.927 C81.311,232.779 79.85,233.448 79.12,233.448 C78.39,233.448 74.556,235.517 70.539,238.012 C57.82,245.984 45.831,251.157 35.851,252.922 C33.417,253.348 28.366,253.592 24.106,253.47 L16.559,253.226 L14.795,251.218 C13.76,250.062 13.03,248.54 13.03,247.567 C13.03,246.471 15.16,242.698 19.115,236.613 C22.462,231.501 27.818,223.163 31.043,218.051 C45.649,194.987 51.917,185.25 55.568,179.894 C58.429,175.634 59.524,173.443 59.768,171.496 C59.95,169.549 60.985,167.54 63.297,164.193 C65.123,161.637 67.253,158.533 68.105,157.255 C68.957,155.917 70.417,154.76 71.635,154.395 C73.704,153.726 74.312,152.935 82.893,140.702 C88.188,133.278 88.37,133.095 94.273,130.357 C103.158,126.219 109.974,121.411 116.79,114.534 C123.18,108.205 132.978,95.608 134.56,91.774 C135.352,89.826 135.352,89.522 134.5,88.853 C133.161,87.94 127.197,86.784 123.789,86.844 C118.616,86.966 107.418,83.132 106.14,80.759 C104.741,78.142 106.566,76.742 114.052,74.916 C116.486,74.247 118.738,73.212 119.955,72.117 C121.111,71.143 122.511,70.352 123.18,70.352 C124.762,70.352 132.37,66.336 133.648,64.875 C134.317,64.023 134.56,62.989 134.317,61.589 C133.891,59.033 135.412,57.511 139.368,56.477 C140.95,56.051 143.141,54.895 144.297,53.921 C145.636,52.704 146.975,52.095 148.314,52.095 C150.383,52.095 153.73,50.939 160.424,47.896 C163.589,46.496 165.415,46.07 168.214,46.07 C170.831,46.131 172.717,45.705 175.03,44.61 C176.795,43.758 179.107,42.906 180.203,42.662 C182.029,42.297 185.741,38.829 187.445,35.907 C188.053,34.995 188.418,34.873 189.27,35.421 C190.488,36.151 191.096,37.611 191.644,41.324 C192.131,44.549 193.165,43.94 194.869,39.376 C197.486,32.682 204.424,26.718 211.727,24.953 C212.761,24.771 214.039,24.101 214.709,23.553 C217.325,21.302 227.975,8.035 229.132,5.54 C230.775,2.01 232.235,1.584 242.763,1.219 C247.449,1.097 256.395,0.671 262.724,0.367 C276.052,-0.424 276.417,-0.302 279.277,4.505 C280.251,6.209 282.503,8.826 284.207,10.287 C285.911,11.686 288.893,14.547 290.779,16.616 C293.883,20.024 294.613,20.45 297.717,21.058 C302.22,21.971 305.263,23.371 309.645,26.414 C311.714,27.874 313.966,28.97 314.879,28.97 C316.157,28.97 317.252,29.761 319.443,32.317 C321.208,34.386 322.729,35.664 323.581,35.664 C324.25,35.664 328.206,36.638 332.344,37.855 C341.108,40.35 347.741,41.202 353.766,40.715 L358.087,40.35 L361.008,43.514 C363.32,46.01 364.233,46.618 365.816,46.618 C368.128,46.618 370.015,48.87 369.467,51 C369.284,51.73 369.345,52.826 369.71,53.434 C370.441,54.773 378.169,58.789 380.056,58.789 C380.786,58.789 382.247,59.337 383.281,59.946 C384.316,60.615 387.055,61.467 389.367,61.832 C394.175,62.563 395.514,63.171 396.487,64.936 C396.974,65.91 396.913,66.457 396.061,67.37 C393.749,69.926 381.76,74.369 374.883,75.221 C372.631,75.464 370.319,76.073 369.832,76.56 C369.345,77.107 368.858,79.237 368.676,81.672 C368.311,85.506 368.432,86.053 369.893,88.183 C370.745,89.461 371.901,91.287 372.388,92.321 C372.936,93.295 374.031,94.391 374.822,94.695 C375.613,94.999 377.196,96.703 378.413,98.529 C380.299,101.389 380.543,102.059 379.995,103.458 C379.082,105.953 379.204,106.623 381.212,108.874 C383.403,111.37 383.403,111.856 381.76,114.108 C380.665,115.63 380.543,116.116 381.151,117.881 C381.517,119.038 382.49,120.742 383.281,121.776 C384.559,123.358 385.107,123.602 388.576,123.723 C390.706,123.784 393.749,123.541 395.331,123.176 C397.765,122.567 398.556,122.628 400.686,123.602 C405.372,125.732 407.867,130.235 407.137,135.347 C406.772,138.025 406.894,138.268 409.024,140.398 C411.823,143.076 414.683,147.64 414.683,149.466 C414.683,150.196 415.231,151.535 415.901,152.509 C416.813,153.787 417.726,154.274 419.856,154.517 C423.386,154.882 425.272,156.647 426.246,160.298 C426.611,161.881 427.281,163.341 427.646,163.585 C428.802,164.315 431.662,164.132 433.488,163.219 C434.705,162.55 437.687,162.307 444.26,162.246 C457.04,162.063 462.334,162.611 466.716,164.558 C468.724,165.41 471.767,166.323 473.41,166.567 C480.043,167.54 481.687,168.149 484.121,170.522 C486.92,173.261 487.711,176.121 486.251,178.373 C485.034,180.259 480.591,182.572 475.783,183.789 C473.775,184.337 470.002,185.676 467.507,186.893 C463.247,188.84 462.334,189.023 457.344,189.023 L451.867,189.023 L449.067,186.588 C446.39,184.276 446.025,184.154 442.312,184.154 C439.574,184.154 437.626,183.789 435.983,182.937 C434.097,181.963 432.393,181.72 428.072,181.72 C422.351,181.72 421.134,182.085 418.152,184.519 C416.631,185.797 415.779,185.98 410.91,185.98 C405.555,185.98 405.372,185.919 403.06,183.911 C401.234,182.389 399.895,181.781 397.522,181.537 C394.053,181.111 393.444,181.416 391.497,184.519 L390.219,186.649 L391.254,198.029 C391.801,204.298 392.532,209.714 392.897,210.14 C393.262,210.566 395.331,210.87 398.374,210.87 C401.782,210.87 403.668,211.174 404.703,211.844 C407.563,213.67 405.981,215.86 401.356,216.408 L398.556,216.712 L398.374,220.364 C398.13,224.137 399.043,234.665 400.139,240.933 C400.504,242.881 402.147,248.662 403.79,253.713 C409.815,272.031 409.937,272.761 410.423,293.696 C410.728,303.92 411.215,315.361 411.641,319.195 C412.188,324.368 412.188,326.254 411.641,326.802 C411.093,327.289 410.606,327.106 409.693,325.95 C407.502,323.211 399.53,309.945 396.122,303.311 C394.236,299.721 392.532,296.678 392.227,296.495 C391.314,295.887 390.341,297.652 389.124,302.277 C387.724,307.754 384.864,322.968 384.864,325.22 C384.864,327.167 383.647,329.723 382.612,330.027 C381.517,330.393 380.786,328.506 380.117,323.82 C379.752,321.447 378.595,313.657 377.561,306.476 C375.187,289.984 373.727,282.559 371.049,273.674 C364.416,251.401 364.72,253.044 363.564,231.44 C363.199,225.111 362.651,219.877 362.225,218.964 C361.556,217.625 360.886,217.26 358.452,216.895 C354.922,216.408 352.975,214.948 353.827,213.365 C354.679,211.783 357.722,210.931 362.347,210.931 C365.329,210.931 366.668,210.688 367.215,210.018 C367.824,209.288 367.946,206.793 367.641,199.612 C367.215,189.144 366.972,188.232 363.32,186.041 C361.434,184.824 360.947,184.763 358.391,185.432 C354.131,186.528 351.149,185.858 348.228,183.241 L345.733,180.929 L321.634,181.355 C291.144,181.842 285.059,182.207 284.572,183.424 C284.389,184.032 284.815,184.702 285.728,185.31 C286.519,185.858 288.467,187.44 289.988,188.84 C291.51,190.301 293.214,191.457 293.761,191.457 C294.309,191.457 295.465,192.431 296.378,193.587 C297.23,194.743 298.204,195.717 298.508,195.717 C298.812,195.717 300.334,194.5 301.916,192.917 C307.819,187.258 317.556,184.154 325.468,185.371 C327.841,185.736 331.31,186.771 333.136,187.684 C336.787,189.509 337.943,191.213 340.499,198.699 C341.229,200.829 342.507,203.567 343.299,204.785 C344.516,206.488 344.698,207.462 344.455,209.227 C344.211,210.505 344.394,214.096 344.698,217.138 C345.672,225.78 345.063,227.667 339.16,233.509 C336.483,236.065 334.353,238.56 334.353,239.047 C334.414,239.473 334.779,240.933 335.266,242.272 C336.483,245.619 336.422,246.958 334.84,250.184 L333.501,252.922 L334.718,254.565 C335.387,255.539 336.848,259.069 337.943,262.416 C339.647,267.71 339.891,269.293 339.769,273.674 C339.647,276.474 339.891,281.646 340.317,285.176 C340.682,288.706 341.108,293.087 341.229,294.974 C341.473,298.686 342.568,300.451 348.411,306.476 C351.879,310.066 353.218,312.866 353.218,316.396 C353.218,318.83 353.462,319.378 355.105,320.534 L356.991,321.873 L356.809,328.932 L356.565,335.991 L358.208,336.783 C359.121,337.209 360.704,339.034 361.738,340.86 C362.834,342.746 365.146,346.033 366.972,348.224 C368.798,350.475 370.258,352.788 370.258,353.396 C370.258,354.553 373.301,364.594 374.822,368.55 C375.309,369.706 375.979,372.079 376.283,373.723 C377.135,377.739 379.691,386.563 380.665,389.119 C381.395,390.884 381.334,391.31 380.056,393.744 C378.23,397.031 378.169,396.605 384.499,418.452 C387.359,428.189 389.063,435.127 388.819,435.979 C388.332,437.865 386.507,438.413 381.882,438.048 C377.987,437.744 377.987,437.744 378.413,439.204 C378.717,439.995 379.021,441.517 379.143,442.49 C379.752,446.264 379.995,446.811 382.429,449.367 C386.324,453.566 385.472,457.4 380.604,457.4 C376.526,457.4 375.979,457.948 378.109,459.895 C379.265,460.93 379.995,462.208 379.995,463.121 C379.995,465.555 380.543,466.346 383.707,468.415 C386.203,469.998 387.055,470.241 388.88,469.876 C390.706,469.572 391.68,469.876 395.148,471.945 C398.496,473.892 399.53,474.927 400.93,477.605 C401.904,479.37 403.182,481.439 403.851,482.108 C405.007,483.386 405.007,483.447 403.242,486.368 L401.538,489.35 L391.801,490.08 C386.507,490.445 380.299,490.811 378.109,490.811 L374.031,490.871 L373.666,488.802 C373.179,486.125 372.449,485.638 368.554,485.151 C365.694,484.786 365.207,484.908 363.99,486.186 C363.26,487.038 358.695,490.445 353.827,493.853 L345.003,500 L332.223,499.878 C325.224,499.757 316.948,499.635 313.844,499.513 z M334.109,445.533 C334.961,445.29 336.848,440.178 337.213,436.953 C337.456,434.762 337.274,434.275 335.752,433.058 C332.466,430.502 326.015,432.814 326.259,436.466 C326.685,442.125 327.293,446.203 327.78,446.507 C328.267,446.811 330.032,446.507 334.109,445.533 z M371.171,446.446 C371.84,445.412 371.901,438.9 371.293,438.109 C370.562,437.135 364.051,437.074 363.138,437.987 C362.712,438.413 362.773,439.569 363.503,441.943 C364.72,445.716 365.085,446.264 367.215,446.629 C369.954,447.116 370.806,447.055 371.171,446.446 z M233.209,338.73 C233.513,335.018 232.966,333.253 231.505,333.253 C229.01,333.253 228.523,338.243 230.775,340.738 C232.174,342.32 233.026,341.712 233.209,338.73 z M239.416,321.69 C239.781,319.499 241.181,314.387 242.459,310.371 C245.319,301.425 246.476,295.035 247.023,285.967 L247.389,279.151 L245.685,278.117 C240.512,274.891 237.591,272.701 237.225,271.666 C237.043,271.057 235.521,269.84 233.818,268.988 C232.053,268.075 230.349,266.676 229.801,265.641 C227.549,261.625 227.975,261.746 222.011,262.598 C219.029,263.024 216.108,263.511 215.561,263.633 C214.465,263.937 213.37,266.554 209.84,276.96 C207.527,283.776 207.527,283.533 208.014,290.592 C208.258,294.67 208.136,296.069 207.345,297.408 C206.371,299.051 206.371,299.112 208.562,301.547 C210.327,303.494 210.814,304.529 210.814,306.354 C210.814,309.093 211.422,309.945 214.952,312.136 C216.352,313.048 217.995,314.752 218.543,315.909 C219.699,318.404 220.125,318.465 222.194,316.822 C223.959,315.422 226.636,315.3 230.653,316.274 C234.122,317.187 235.765,319.195 235.765,322.664 C235.765,324.55 236.069,325.463 236.86,325.889 C238.26,326.68 238.503,326.254 239.416,321.69 z M298.082,271.666 C298.265,270.875 298.447,269.901 298.447,269.536 C298.447,268.441 296.074,266.189 295.404,266.615 C294.005,267.467 295.404,273.005 296.926,273.005 C297.352,273.005 297.839,272.396 298.082,271.666 z M266.011,270.449 C266.984,269.232 267.532,265.215 266.802,264.789 C265.22,263.815 261.386,268.258 262.116,270.205 C262.603,271.362 265.159,271.483 266.011,270.449 z M250.614,268.988 C251.77,267.832 251.892,264.85 250.857,263.998 C250.431,263.694 248.667,263.207 247.023,262.963 C243.007,262.477 242.703,262.233 241.911,259.19 C241.12,256.269 239.355,254.87 238.199,256.208 C237.286,257.365 238.625,259.921 242.946,265.215 C246.902,270.023 248.727,270.936 250.614,268.988 z M234.548,262.355 C232.661,259.008 231.383,258.338 231.018,260.468 C230.592,262.537 231.566,264.546 233.513,265.702 C236.434,267.467 236.799,266.311 234.548,262.355 z M261.69,256.269 C262.846,254.261 263.759,252.253 263.759,251.888 C263.759,249.575 259.56,252.922 258.343,256.147 C256.334,261.381 258.83,261.503 261.69,256.269 z M301.734,256.756 C303.072,255.174 304.229,253.531 304.229,253.044 C304.229,252.557 302.89,251.705 301.247,251.036 C298.265,249.94 298.204,249.94 296.196,251.157 C294.918,251.948 294.187,252.861 294.187,253.713 C294.187,255.113 297.595,259.616 298.63,259.616 C298.934,259.616 300.334,258.338 301.734,256.756 z M41.937,240.69 C50.213,238.56 61.776,233.387 69.931,228.093 C72.243,226.571 76.807,222.92 79.972,220.06 C83.137,217.138 86.484,214.4 87.396,213.913 C88.309,213.426 89.648,212.209 90.439,211.114 C91.23,210.018 93.969,206.61 96.525,203.507 C104.558,193.83 107.357,190.057 107.357,188.901 C107.357,188.292 106.019,186.345 104.375,184.519 C102.732,182.754 101.089,180.259 100.724,179.103 C100.055,177.156 100.176,176.608 101.515,173.991 C103.341,170.644 103.402,169.975 102.185,168.94 C101.454,168.331 100.359,168.453 96.586,169.488 C90.804,171.009 79.607,173.2 77.477,173.2 C73.399,173.2 72.243,174.234 66.766,182.572 C63.845,186.954 60.802,191.639 59.889,192.978 C58.976,194.317 54.473,201.437 49.848,208.801 C45.223,216.165 39.137,225.658 36.399,229.857 C29.887,239.899 29.339,240.994 30.252,241.907 C31.165,242.82 34.999,242.394 41.937,240.69 z M295.161,240.812 C298.63,238.256 301.49,235.456 301.49,234.604 C301.49,233.813 293.214,234.361 290.658,235.335 C289.319,235.882 289.197,236.126 289.562,238.438 C290.292,243.002 291.51,243.55 295.161,240.812 z M381.091,218.721 C380.725,217.625 379.387,217.443 379.387,218.477 C379.387,219.025 379.813,219.451 380.36,219.451 C380.908,219.451 381.212,219.147 381.091,218.721 z M390.341,218.538 C390.341,218.051 389.915,217.625 389.428,217.625 C388.454,217.625 388.211,218.356 388.941,219.025 C389.61,219.755 390.341,219.512 390.341,218.538 z M386.142,209.896 C387.176,208.862 385.655,190.483 384.438,189.266 C383.525,188.353 376.77,188.049 374.031,188.779 L372.631,189.205 L373.057,199.307 C373.24,204.845 373.727,209.714 374.031,210.14 C374.761,211.053 385.168,210.87 386.142,209.896 z M206.249,161.941 C207.284,160.785 208.379,159.811 208.805,159.811 C210.205,159.811 210.327,158.473 208.927,157.012 C208.197,156.221 207.223,155.551 206.858,155.551 C205.337,155.551 202.172,151.231 200.225,146.423 C195.356,134.373 193.774,128.835 193.774,124.21 C193.774,121.411 193.47,119.585 193.044,119.22 C192.618,118.855 190.67,118.429 188.662,118.246 C185.254,117.881 185.071,118.003 183.307,119.829 C182.333,120.924 180.811,123.115 179.959,124.758 C178.499,127.618 178.499,127.862 179.168,132.913 C179.533,135.773 180.081,138.573 180.385,139.181 C181.055,140.398 188.905,147.64 189.514,147.64 C189.818,147.64 190.853,149.101 191.887,150.926 C192.861,152.752 194.504,154.76 195.478,155.491 C196.756,156.403 197.364,157.438 197.669,159.203 C198.216,162.55 200.529,164.923 202.781,164.437 C203.693,164.193 205.276,163.098 206.249,161.941 z M342.69,161.029 C343.785,160.42 345.063,159.081 345.489,158.168 C345.976,157.255 346.95,155.917 347.68,155.308 C348.411,154.639 348.958,153.665 348.958,152.996 C348.958,151.109 351.149,149.466 353.766,149.466 C356.078,149.466 358.087,148.31 358.087,146.971 C358.087,146.606 359.182,145.206 360.582,143.867 C362.651,141.798 362.955,141.189 362.651,139.729 C362.347,138.329 362.651,137.66 364.112,136.138 C366.363,133.826 366.363,133.582 364.538,129.627 C362.834,126.036 362.225,125.488 359.365,125.427 C358.148,125.427 357.113,125.062 356.87,124.515 C354.435,119.342 354.07,118.794 352.245,118.307 C350.723,117.942 349.993,117.151 348.776,114.656 C347.863,112.891 347.072,110.639 347.011,109.605 C346.828,107.901 346.707,107.779 344.577,107.962 C343.359,108.022 341.351,107.718 340.073,107.17 C336.909,105.832 333.927,106.014 331.918,107.657 C331.006,108.388 329.362,109.483 328.267,110.092 C326.38,111.126 326.32,111.187 326.746,114.352 C326.989,116.056 327.415,118.125 327.719,118.855 C328.267,120.376 326.746,127.679 323.946,136.686 C322.972,139.85 322.181,142.954 322.181,143.502 C322.181,144.11 320.051,147.032 317.495,150.135 C310.923,157.803 309.341,159.933 309.584,160.724 C309.706,161.089 314.453,161.455 322.546,161.637 C329.545,161.82 336.483,162.063 338.004,162.124 C339.83,162.185 341.412,161.82 342.69,161.029 z M90.318,160.116 C101.028,157.621 105.775,156.221 107.297,155.065 C108.818,153.969 112.652,148.37 114.295,144.902 C114.782,143.928 115.999,142.041 117.034,140.702 C118.068,139.424 118.92,138.147 118.92,137.842 C118.92,136.929 129.814,125.914 135.169,121.411 L140.342,116.968 L139.916,113.865 C139.672,111.613 139.916,109.483 140.768,106.379 C141.437,103.945 141.741,101.998 141.498,101.998 C141.194,101.998 139.003,104.675 136.508,107.962 C125.31,122.871 114.721,132.183 101.028,139.12 L95.49,141.92 L88.979,150.379 C82.893,158.351 81.798,160.237 82.832,161.211 C83.38,161.759 83.137,161.82 90.318,160.116 z M191.583,113.439 C192.557,111.856 190.609,109.97 189.27,111.126 C188.723,111.552 188.297,112.526 188.297,113.378 C188.297,114.534 188.54,114.838 189.575,114.656 C190.305,114.534 191.218,113.986 191.583,113.439 z M145.149,98.529 C146.184,95.669 145.454,94.756 143.993,97.129 C142.411,99.624 142.35,100.172 143.567,100.172 C144.115,100.172 144.784,99.442 145.149,98.529 z" fill="#000000"/>
  </g>
</svg>
