<?xml version="1.0" encoding="UTF-8"?>
<!DOCTYPE svg PUBLIC "-//W3C//DTD SVG 1.1//EN" "http://www.w3.org/Graphics/SVG/1.1/DTD/svg11.dtd">
<svg version="1.1" xmlns="http://www.w3.org/2000/svg" xmlns:xlink="http://www.w3.org/1999/xlink" x="0" y="0" width="500" height="500" viewBox="0, 0, 500, 500">
  <g id="layer101">
    <path d="M109.118,496.881 C101.217,493.335 100.657,492.9 100.657,491.033 C100.657,490.286 100.221,489.291 99.723,488.855 C98.292,487.673 93.128,489.353 92.257,491.22 C91.946,491.966 91.386,492.589 91.013,492.589 C90.702,492.651 84.916,493.024 78.259,493.46 L66.126,494.331 L62.207,492.775 C60.091,491.904 58.162,490.971 58.038,490.66 C57.167,489.291 64.571,477.967 67.246,476.599 C68.366,476.039 69.984,474.981 70.917,474.234 C71.912,473.363 73.903,472.617 75.708,472.368 C79.876,471.808 82.738,469.817 83.547,466.955 C83.858,465.711 84.667,464.155 85.289,463.533 C86.907,461.667 86.596,461.044 83.671,460.36 C80.187,459.489 78.881,457.374 80.187,454.823 C80.623,453.827 81.121,452.894 81.245,452.645 C81.369,452.396 80.063,451.214 78.321,449.97 C76.641,448.725 75.023,447.17 74.837,446.486 C74.277,444.806 75.21,442.068 83.858,419.483 L87.653,409.529 L87.529,402.996 L87.404,396.463 L90.329,389.619 C91.946,385.886 93.502,381.718 93.751,380.473 C94.062,379.229 94.684,377.487 95.244,376.616 C96.613,374.563 101.279,362.928 101.279,361.622 C101.279,359.817 102.523,358.2 104.95,356.955 C106.318,356.271 108.434,354.467 109.678,352.911 C110.985,351.356 112.727,349.925 113.66,349.676 C117.02,348.929 117.206,348.12 117.704,336.361 C118.14,325.971 118.637,323.607 120.317,322.736 C121.126,322.3 122.495,320.869 123.366,319.563 C124.237,318.256 125.73,316.763 126.788,316.203 C127.783,315.705 129.09,314.337 129.588,313.217 C130.085,312.159 131.019,310.541 131.703,309.67 C132.761,308.364 133.072,306.746 133.445,298.782 C133.694,293.681 133.818,286.09 133.756,281.922 C133.694,276.509 133.881,273.647 134.565,271.718 C135.249,269.665 135.312,268.545 134.814,266.554 C134.254,264.314 134.378,263.381 135.747,259.772 C136.929,256.724 137.178,255.168 136.805,254.173 C136.245,252.742 133.321,249.817 129.277,246.582 C128.094,245.587 126.788,244.218 126.352,243.471 C125.419,241.916 125.357,233.268 126.166,229.721 C126.539,228.042 126.477,226.486 126.041,224.931 C125.419,222.878 125.544,222.318 126.85,220.264 C127.721,218.958 129.028,215.971 129.774,213.545 C133.072,203.155 136.556,200.417 147.631,199.733 C154.599,199.297 158.705,200.293 164.74,203.901 C169.033,206.452 169.718,206.701 169.282,205.581 C169.033,204.835 168.909,201.413 169.033,197.928 L169.22,191.707 L166.793,190.089 C165.487,189.156 163.247,188.098 161.754,187.725 C158.27,186.792 156.963,185.485 155.781,181.316 C154.91,178.268 154.163,177.272 149.497,172.979 C146.573,170.304 144.209,167.815 144.209,167.38 C144.209,166.073 137.614,152.012 136.867,151.763 C136.494,151.639 135.436,153.132 134.565,154.999 C133.321,157.674 132.512,158.545 131.268,158.856 C130.334,159.043 129.214,159.292 128.841,159.478 C128.281,159.603 128.032,161.096 128.032,163.896 C128.032,169.184 125.481,177.335 123.117,179.512 C121.811,180.757 121.064,180.943 118.886,180.694 C115.029,180.259 114.096,181.192 114.469,184.925 C114.967,188.783 113.66,194.818 111.358,199.297 C110.3,201.35 109.243,204.897 108.869,207.323 C108.496,209.75 107.998,212.549 107.812,213.545 C107.625,214.603 107.314,216.034 107.127,216.78 C107.003,217.527 106.007,219.082 104.95,220.202 C101.777,223.624 100.532,226.797 99.972,232.397 C99.661,236.13 99.039,238.556 97.795,240.983 C95.182,246.209 93.751,247.453 90.515,247.453 C87.218,247.453 87.093,247.578 81.681,256.724 C79.378,260.581 76.579,264.812 75.521,266.056 C74.401,267.3 72.224,270.287 70.668,272.651 C69.05,275.078 65.877,279.308 63.513,282.108 C61.211,284.908 58.722,288.081 58.038,289.076 C53.31,296.294 46.279,306.062 41.488,312.159 C38.377,316.079 34.893,320.683 33.649,322.3 C31.16,325.598 29.418,326.718 25.561,327.402 C23.01,327.775 22.948,327.775 21.828,325.411 C20.397,322.363 18.157,321.989 14.859,324.229 C11.251,326.78 10.442,326.407 8.016,321.429 C6.149,317.572 5.962,316.639 6.273,313.466 C6.585,309.484 8.14,305.937 11.624,301.271 C12.868,299.591 14.611,297.04 15.419,295.671 C18.655,290.259 38.813,258.279 40.928,255.23 C44.101,250.751 49.141,241.916 51.879,236.13 L53.558,232.583 L52.19,230.904 C51.505,229.97 50.883,228.788 50.883,228.228 C50.883,227.668 50.323,226.859 49.639,226.424 C48.954,225.988 48.394,224.993 48.394,224.06 C48.394,223.126 47.648,221.82 46.59,220.824 C43.168,217.713 42.608,213.856 44.724,208.879 C45.906,206.079 45.968,205.768 45.035,204.026 C43.666,201.35 43.728,200.977 46.528,196.746 C48.643,193.573 49.017,192.516 49.017,189.778 C49.017,188.036 49.203,186.169 49.39,185.609 C49.95,184.054 57.291,179.139 59.282,178.89 C60.713,178.766 61.709,177.895 63.762,174.97 C66.624,170.802 66.873,169.557 65.442,166.633 C63.389,162.527 66.811,153.132 71.601,149.835 C75.023,147.47 75.459,146.288 74.463,142.306 C73.717,139.382 73.779,139.071 75.023,137.453 C77.699,134.156 77.947,133.16 76.828,130.112 C75.832,127.437 75.894,127.188 77.014,124.263 C80.498,115.366 84.169,110.14 87.529,109.02 C88.276,108.834 89.147,107.278 90.018,104.789 C91.573,100.061 91.573,100.31 90.329,99.128 C89.707,98.443 88.213,98.132 85.849,98.132 C83.92,98.132 79.067,97.51 75.148,96.826 C71.228,96.079 65.877,95.146 63.326,94.71 C55.612,93.342 44.039,90.853 39.124,89.484 C34.147,88.115 31.596,86.747 31.596,85.44 C31.596,84.507 37.755,81.956 40.182,81.956 C42.608,81.894 46.466,79.965 49.639,77.165 C53.31,73.93 61.522,68.081 65.504,66.028 C67.246,65.095 69.486,63.726 70.481,62.917 C71.539,62.171 74.526,60.491 77.139,59.247 C79.814,58.002 82.116,56.696 82.303,56.385 C82.552,56.074 83.112,55.825 83.671,55.825 C84.169,55.825 88.027,54.269 92.257,52.403 C96.426,50.536 100.159,48.981 100.47,48.981 C100.843,48.981 102.71,48.296 104.701,47.425 C112.478,44.003 121.375,35.417 128.406,24.716 C129.401,23.161 130.645,21.916 131.143,21.916 C131.703,21.916 132.325,22.974 132.699,24.716 C133.072,26.272 133.694,28.138 134.067,28.822 C134.503,29.569 135.001,31.747 135.249,33.613 C135.747,37.906 136.307,38.964 137.8,38.031 C140.538,36.351 141.098,34.609 140.6,29.569 C140.102,24.778 140.476,22.352 141.907,21.481 C142.902,20.859 149.31,20.859 150.306,21.543 C150.804,21.854 151.364,23.036 151.613,24.156 C151.924,25.649 152.421,26.334 153.355,26.458 C155.594,26.769 157.025,25.587 162.003,19.303 C167.976,11.837 172.642,7.358 174.882,6.86 C175.877,6.673 176.935,5.802 177.433,4.869 C179.299,1.385 180.232,0.949 186.578,1.323 C189.814,1.447 195.911,1.323 200.204,1.011 C217.189,-0.233 219.74,-0.295 220.985,0.638 C221.669,1.136 223.349,3.749 224.78,6.424 C227.268,11.215 227.393,11.339 229.508,11.153 C236.477,10.531 240.956,11.402 242.823,13.766 C243.818,15.01 244.689,15.384 246.68,15.384 C250.164,15.384 251.346,16.628 251.222,20.299 C251.16,21.854 251.16,23.534 251.16,23.97 C251.222,24.405 252.529,25.338 254.208,26.085 C255.826,26.769 258.066,28.2 259.186,29.258 C261.737,31.747 262.421,31.124 263.043,25.525 C263.728,19.49 264.848,15.632 266.279,14.326 C267.523,13.206 267.585,13.268 269.825,15.944 C272.376,19.117 283.45,30.316 284.01,30.316 C284.135,30.316 286.686,31.871 289.486,33.738 C292.348,35.604 295.147,37.16 295.707,37.16 C296.827,37.16 312.257,41.701 317.172,43.443 C327.998,47.425 330.175,48.296 332.415,49.479 C333.784,50.287 336.148,51.407 337.704,52.092 C341.001,53.585 348.716,58.251 353.631,61.673 C356.742,63.851 357.489,64.1 362.715,64.597 C369.497,65.219 370.492,65.531 371.301,66.962 C371.674,67.77 371.55,68.517 370.865,69.512 C369.683,71.192 361.844,74.925 354.191,77.476 C333.286,84.382 332.415,84.631 326.194,85.067 C315.928,85.876 314.559,87.369 318.728,93.404 C320.656,96.266 320.843,97.012 320.967,101.243 C321.03,107.278 320.532,113.313 319.661,115.926 C319.101,117.606 319.163,118.477 320.345,121.09 C321.216,123.206 321.527,124.823 321.278,125.943 C320.034,130.858 320.096,131.045 322.149,132.974 C324.14,134.778 324.14,134.965 323.767,138.511 L323.332,142.182 L326.878,144.173 L330.424,146.164 L332.851,143.551 C335.153,141.062 335.402,141 337.89,141.435 C339.321,141.622 343.054,141.871 346.103,141.871 C351.392,141.871 352.076,141.684 357.613,139.196 C360.849,137.702 364.084,136.147 364.768,135.711 C365.453,135.214 367.132,134.84 368.501,134.84 C370.803,134.84 371.301,135.214 376.092,140.315 C378.954,143.302 381.256,146.164 381.256,146.724 C381.256,147.346 380.447,149.71 379.389,152.074 C377.336,156.927 375.967,164.207 376.776,165.7 C377.087,166.26 378.954,167.318 380.945,168.126 C382.873,168.935 385.113,170.18 385.86,170.864 C388.1,172.917 402.098,177.272 406.578,177.21 C409.689,177.148 410.747,177.459 412.178,178.579 C413.92,180.072 421.448,182.934 425.43,183.681 C427.421,184.054 434.265,186.169 441.917,188.783 C443.97,189.467 447.206,189.902 451.25,189.965 C456.103,190.027 458.218,190.338 460.894,191.458 C466.555,193.76 471.844,194.693 474.706,193.947 C477.381,193.2 480.741,193.947 482.047,195.564 C482.545,196.062 483.976,196.435 485.718,196.435 C489.451,196.435 491.442,197.493 492.749,200.168 C494.117,202.844 494.242,209.75 492.935,211.99 C492.438,212.861 492.064,214.914 492.002,216.531 C492.002,219.144 491.753,219.767 489.7,221.633 C488.393,222.815 487.149,223.811 486.9,223.811 C486.714,223.811 485.096,225.615 483.292,227.793 C479.372,232.646 477.879,233.454 474.519,232.397 C472.155,231.712 471.968,231.775 470.039,233.641 C466.182,237.374 462.573,235.819 460.458,229.659 C459.898,227.979 459.151,226.424 458.778,226.175 C458.405,225.864 456.912,225.864 455.481,226.051 C451.872,226.548 450.317,226.051 447.206,223.5 C444.406,221.135 440.735,219.891 437.064,220.016 C435.073,220.078 434.265,219.642 431.776,217.278 C429.287,215.038 427.607,214.167 422.319,212.425 C418.71,211.243 412.551,209.065 408.631,207.697 C402.472,205.457 401.041,205.146 398.49,205.457 C395.939,205.83 395.255,205.706 394.072,204.586 C392.579,203.217 384.429,199.857 380.882,199.173 C379.7,198.986 378.767,199.111 378.269,199.671 C377.896,200.168 376.465,203.715 375.096,207.572 C373.727,211.43 372.172,215.1 371.612,215.723 C370.243,217.278 364.83,219.02 363.213,218.522 C361.16,217.9 360.786,216.345 361.346,211.367 C361.657,208.816 361.906,203.839 361.968,200.417 C361.968,195.378 361.782,193.947 360.973,193.262 C358.671,191.396 346.974,192.08 345.17,194.258 C344.734,194.755 344.237,200.106 343.863,208.07 C343.552,215.163 343.117,221.633 342.992,222.38 C342.557,224.371 340.379,225.553 336.335,226.051 C333.286,226.424 332.726,226.299 331.793,225.242 C330.611,223.811 326.442,212.114 324.887,205.643 C324.327,203.341 323.394,201.039 322.834,200.542 C321.341,199.235 313.501,195.191 312.381,195.191 C311.821,195.191 310.453,194.631 309.333,193.884 C307.964,193.076 306.471,192.702 304.915,192.827 L302.551,193.013 L302.551,234.699 C302.551,257.657 302.364,276.695 302.053,277.131 C301.805,277.504 301.493,279.557 301.307,281.673 C300.933,286.214 302.489,290.321 305.04,291.503 C306.782,292.312 306.782,292.312 306.906,297.849 C306.906,300.089 307.715,305.066 308.648,308.986 C311.324,320.123 310.826,324.602 306.409,329.455 C304.791,331.135 302.302,332.939 300,333.997 C297.885,334.93 296.018,336.175 295.832,336.673 C295.645,337.17 294.276,338.352 292.907,339.223 C291.476,340.157 289.859,341.712 289.299,342.77 C288.677,343.827 287.619,345.445 286.872,346.378 C284.819,348.867 284.944,350.36 287.184,349.8 C288.117,349.614 289.423,348.867 290.17,348.183 C291.788,346.689 293.903,346.689 294.774,348.183 C295.769,350.111 295.458,353.907 294.152,356.893 C293.156,359.008 293.032,360.066 293.467,361.87 C293.779,363.115 294.338,369.15 294.774,375.309 C295.21,381.469 295.894,388.624 296.329,391.175 C296.827,393.788 297.2,399.947 297.263,404.862 C297.325,413.137 297.823,420.728 298.88,427.883 C299.378,431.429 298.32,435.349 296.267,437.837 C294.401,440.015 292.348,440.264 290.73,438.46 C289.299,436.904 287.868,436.904 284.881,438.46 C280.713,440.575 280.9,441.882 286.064,446.859 C289.423,450.032 292.907,456.254 292.907,458.867 C292.907,459.676 292.348,460.796 291.725,461.356 C290.668,462.289 290.605,462.849 291.103,466.768 C291.539,470.004 291.476,471.248 290.854,471.808 C290.045,472.617 276.918,478.279 275.984,478.279 C275.611,478.279 270.758,476.225 265.159,473.799 C256.573,470.004 254.955,469.07 254.955,467.951 C254.955,465.462 253.586,462.724 252.217,462.351 C251.409,462.164 249.604,462.102 248.111,462.227 C245.56,462.413 245.311,462.538 244.814,464.591 C243.756,469.195 243.383,469.382 230.379,471.435 L218.558,473.301 L214.141,468.884 C209.35,464.155 209.226,463.782 211.279,458.991 C211.652,458.12 212.087,456.627 212.336,455.694 C212.523,454.698 213.954,452.521 215.572,450.841 C217.998,448.29 218.745,447.792 220.673,447.792 C222.602,447.792 223.411,447.294 225.837,444.868 C229.322,441.197 229.757,440.015 228.513,436.593 C227.393,433.358 227.704,431.865 230.13,429.625 C231.313,428.567 231.935,427.323 231.935,426.203 C231.935,425.27 232.37,423.341 232.868,421.972 C234.05,418.675 234.05,415.19 232.806,412.826 C231.997,411.271 231.935,410.338 232.557,406.978 C232.93,404.738 233.055,402.685 232.868,402.312 C232.619,402 232.806,398.641 233.179,394.908 C233.739,389.122 233.677,387.753 232.868,385.824 C231.748,383.086 231.686,379.913 232.744,378.669 C233.117,378.109 234.237,377.238 235.232,376.678 C237.285,375.372 237.41,373.194 235.668,369.088 C233.988,365.168 234.112,362.804 235.979,360.564 C237.908,358.262 238.032,355.089 236.228,350.609 C234.423,346.192 234.486,337.481 236.228,330.575 C236.974,327.838 237.534,324.976 237.534,324.105 C237.534,321.865 241.703,313.59 243.32,312.532 C245.498,311.101 247.738,310.79 250.475,311.475 C253.897,312.408 255.577,313.963 256.137,316.514 C256.946,320.621 261.612,319.438 262.359,314.897 C262.67,312.968 263.23,312.159 265.096,310.977 C267.772,309.235 267.834,308.924 266.216,305.564 C264.785,302.64 262.67,300.338 261.488,300.338 C261.052,300.338 260.057,299.529 259.31,298.533 C258.626,297.476 257.506,296.48 256.822,296.294 C256.137,296.045 255.391,295.236 255.204,294.365 C255.017,293.556 254.022,292.312 253.026,291.565 C252.031,290.881 251.222,289.823 251.222,289.201 C251.222,288.579 250.538,287.459 249.667,286.65 C248.796,285.841 248.111,284.721 248.111,284.161 C248.111,283.539 247.427,282.357 246.556,281.424 C245.685,280.491 245,279.122 245,278.313 C245,276.571 243.196,274.829 241.454,274.829 C240.645,274.829 239.899,275.513 239.401,276.695 C238.965,277.753 237.534,279.557 236.228,280.677 C234.548,282.108 233.801,283.228 233.801,284.348 C233.801,286.463 231.561,287.957 228.264,288.143 C224.842,288.33 222.727,289.885 222.291,292.685 C220.86,301.147 218.558,311.91 216.38,320.123 C213.021,332.939 213.021,335.864 216.692,353.596 C220.113,370.27 220.238,373.629 217.563,384.206 C215.758,391.61 215.696,392.17 216.38,397.085 C216.94,400.943 216.94,402.56 216.443,403.556 C215.696,404.925 213.643,405.298 212.959,404.24 C212.025,402.747 208.79,390.366 207.359,382.838 C205.741,374.5 203.564,367.719 198.711,355.835 C193.298,342.708 193.173,341.899 193.049,319.314 C192.925,299.84 192.614,294.054 191.494,292.25 C191.12,291.627 189.627,291.378 186.641,291.316 C182.534,291.254 180.295,290.445 180.295,289.076 C180.295,288.019 184.028,286.65 186.952,286.65 C188.569,286.588 191.369,286.214 193.049,285.779 L196.16,284.97 L196.595,280.179 C197.28,273.087 196.907,272.527 191.245,272.029 C186.765,271.593 186.578,271.656 183.779,273.522 C180.606,275.7 180.419,276.384 181.912,280.242 C182.845,282.668 182.845,282.979 181.912,284.472 C181.352,285.343 179.797,286.712 178.49,287.521 L176.126,289.076 L175.815,294.303 C175.628,298.596 175.193,300.338 173.637,303.573 C172.58,305.688 170.589,309.919 169.22,312.906 C167.54,316.39 166.171,318.443 165.362,318.692 C162.998,319.438 162.625,321.305 164.118,324.727 C166.98,331.384 165.362,339.286 160.261,343.952 C158.021,346.005 157.648,346.627 157.772,348.68 C157.834,349.987 157.896,352.725 157.959,354.778 C158.021,358.822 158.456,359.444 161.381,359.444 C162.438,359.444 163.683,359.817 164.056,360.315 C165.3,361.808 164.865,385.637 163.496,396.276 C163.123,398.89 162.874,403.369 162.936,406.231 C162.936,409.093 162.687,413.324 162.252,415.688 C161.878,418.052 161.629,421.723 161.629,423.776 C161.692,425.892 161.443,430.123 161.069,433.171 C160.758,436.282 160.385,443.375 160.323,449.037 C160.261,459.925 159.763,462.973 157.896,463.969 C155.968,465.026 147.382,466.457 145.453,466.084 C144.084,465.773 143.524,466.022 143.027,467.017 C142.218,468.51 143.089,470.813 144.458,470.813 C146.511,470.813 154.288,473.861 158.643,476.35 C163.683,479.274 163.869,479.523 165.736,486.056 C166.296,488.109 166.918,490.162 167.105,490.66 C167.353,491.406 166.109,491.469 159.265,491.22 C149.684,490.784 149.248,491.033 150.306,495.202 C150.679,496.695 150.804,498.064 150.555,498.25 C150.057,498.686 125.357,500.117 119.633,499.992 C116.584,499.992 114.718,499.432 109.118,496.881 z M266.403,286.339 C266.901,284.97 265.159,277.94 264.101,276.82 C263.541,276.26 262.67,276.135 261.799,276.384 C260.617,276.757 260.492,277.069 260.866,279.371 C261.115,280.802 261.674,282.17 262.11,282.481 C262.608,282.73 263.292,283.912 263.665,285.095 C264.412,287.334 265.781,287.957 266.403,286.339 z M213.456,283.726 C215.261,282.668 212.087,277.317 209.661,277.317 C209.101,277.317 207.483,276.757 205.99,276.011 C202.008,274.082 201.386,274.58 201.822,279.308 C202.382,285.281 202.008,284.97 207.857,284.472 C210.656,284.224 213.145,283.912 213.456,283.726 z M179.361,282.979 C179.859,281.362 178.428,278.5 177.246,278.686 C176.25,278.873 175.566,281.673 176.188,283.29 C176.686,284.535 178.926,284.348 179.361,282.979 z M228.513,282.046 C231.001,280.988 231.375,279.806 229.259,279.806 C226.771,279.806 221.731,281.735 222.664,282.357 C223.971,283.166 226.086,283.041 228.513,282.046 z M234.734,277.94 C235.357,277.255 235.668,276.695 235.419,276.695 C234.548,276.695 232.557,278.002 232.557,278.562 C232.557,279.557 233.552,279.246 234.734,277.94 z M210.159,273.398 C210.159,272.216 206.488,267.985 205.43,267.985 C204.559,267.985 204.31,268.669 204.497,270.474 C204.746,272.776 210.159,275.575 210.159,273.398 z M177.059,267.238 C178.864,265.434 176.748,262.385 173.637,262.385 C171.771,262.385 171.709,264.563 173.575,266.554 C175.068,268.172 175.939,268.358 177.059,267.238 z M259.186,264.376 C259.31,262.945 258.937,261.017 258.439,259.959 C257.879,258.963 257.257,256.537 257.07,254.608 C256.573,250.377 255.391,249.569 253.275,252.12 C251.906,253.613 251.844,254.173 252.217,257.346 C252.529,260.083 253.151,261.514 255.142,264.127 C256.51,265.932 257.941,267.3 258.315,267.176 C258.688,267.052 259.061,265.807 259.186,264.376 z M183.53,255.168 C184.525,252.991 183.53,251.622 180.73,251.124 C177.121,250.564 176.748,251.373 179.361,254.235 C180.668,255.604 181.912,256.786 182.223,256.786 C182.534,256.786 183.157,256.039 183.53,255.168 z M467.986,227.979 C468.484,227.233 468.422,226.735 467.862,226.175 C466.866,225.18 464.938,226.984 465.498,228.477 C465.933,229.659 467.053,229.473 467.986,227.979 z M247.24,201.35 C251.658,197.742 255.328,196.435 260.866,196.435 C263.603,196.435 266.839,196.124 268.021,195.751 C272.438,194.382 275.113,195.066 280.9,198.986 C283.575,200.853 285.69,201.288 286.375,200.106 C286.624,199.733 286.872,196.249 286.997,192.391 C287.121,185.858 287.059,185.174 285.815,184.054 C285.068,183.432 283.575,182.685 282.517,182.436 C281.397,182.25 279.904,181.316 279.22,180.383 C277.104,177.77 271.443,175.53 264.848,174.846 L261.986,174.535 L258.439,179.574 C254.582,185.112 253.213,186.107 250.662,185.547 C247.8,184.925 246.618,186.605 247.178,190.462 C247.551,193.262 247.365,194.071 245.56,197.431 C244.378,199.671 243.694,201.599 243.943,202.221 C244.44,203.59 244.44,203.59 247.24,201.35 z M123.428,154.75 C122.246,149.088 122.246,149.275 125.108,145.231 C126.041,143.986 126.166,142.991 125.792,139.569 C125.419,136.022 125.232,135.463 124.113,135.463 C123.428,135.463 122.308,135.898 121.686,136.52 C121.064,137.08 119.695,137.516 118.637,137.453 C116.087,137.391 115.713,138.822 117.766,140.627 C119.197,141.809 119.508,142.617 119.633,145.542 C119.695,147.408 120.193,149.648 120.753,150.457 C121.251,151.266 121.873,153.008 122.059,154.314 C122.308,155.559 122.806,156.616 123.179,156.616 C123.553,156.616 123.677,155.87 123.428,154.75 z M82.489,154.376 C84.356,153.07 84.294,150.581 82.365,149.648 C80.063,148.653 78.881,149.399 78.881,151.826 C78.881,153.692 79.752,155.372 80.747,155.372 C80.934,155.372 81.743,154.936 82.489,154.376 z M280.962,148.777 C286.437,148.404 286.686,148.03 288.241,138.573 C288.801,135.338 289.797,131.729 290.481,130.547 C291.165,129.365 291.974,127.188 292.223,125.757 C292.721,123.268 292.534,122.708 290.668,119.784 C289.486,117.98 288.552,116.175 288.552,115.677 C288.552,114.62 285.504,109.331 284.881,109.331 C283.824,109.331 279.78,114.246 278.598,116.984 C277.54,119.348 277.353,120.655 277.664,123.206 C277.851,125.01 277.789,127.748 277.478,129.303 C277.042,131.481 277.167,132.787 277.789,134.28 C278.535,136.147 278.473,136.769 276.731,141.933 C274.305,149.212 274.305,150.084 276.607,149.461 C277.54,149.212 279.469,148.901 280.962,148.777 z M91.697,140.751 C92.942,138.387 92.506,136.582 90.515,136.209 C89.52,136.022 89.147,136.769 88.462,140.627 C88.151,142.617 88.213,142.929 89.271,142.929 C90.018,142.929 90.951,142.12 91.697,140.751 z M135.374,117.917 C136.68,116.611 136.245,113.811 134.627,112.753 C132.636,111.385 128.094,111.758 127.161,113.251 C126.601,114.184 126.85,114.744 128.779,116.549 C131.205,118.726 133.943,119.348 135.374,117.917 z" fill="#000000"/>
  </g>
</svg>
