<?xml version="1.0" encoding="UTF-8"?>
<!DOCTYPE svg PUBLIC "-//W3C//DTD SVG 1.1//EN" "http://www.w3.org/Graphics/SVG/1.1/DTD/svg11.dtd">
<svg version="1.1" xmlns="http://www.w3.org/2000/svg" xmlns:xlink="http://www.w3.org/1999/xlink" x="0" y="0" width="500" height="500" viewBox="0, 0, 500, 500">
  <g id="layer101">
    <path d="M126.605,499.277 C126.179,498.211 120.139,497.074 109.124,496.008 C105.074,495.653 101.521,495.084 101.166,494.729 C100.882,494.445 101.308,492.384 102.09,490.252 C104.435,483.857 104.506,482.862 102.8,483.288 C101.734,483.573 101.45,483.431 101.734,482.72 C101.947,482.08 102.658,481.867 103.44,482.08 C104.435,482.436 104.861,481.938 105.571,479.593 C106.282,477.177 106.851,476.609 109.124,475.898 C111.256,475.33 111.896,474.69 112.251,473.056 C112.535,471.919 113.885,470.071 115.52,468.792 C117.865,466.945 118.291,466.163 118.291,463.889 C118.291,461.828 118.646,461.118 119.712,460.763 C121.844,460.052 124.687,456.286 124.687,453.941 C124.687,451.17 129.874,439.374 132.148,436.958 C134.919,434.115 136.909,428.217 135.985,425.801 C135.416,424.238 135.559,423.527 136.624,422.035 C137.406,421.04 138.188,419.548 138.472,418.624 C138.756,417.772 139.609,416.777 140.32,416.35 C142.38,415.213 148.847,414.787 153.892,415.498 C159.861,416.208 161.282,415.711 162.348,412.3 C162.845,410.808 164.196,407.539 165.333,404.981 C167.251,400.788 167.464,399.58 167.606,391.835 C167.749,385.511 168.104,382.739 169.028,381.034 C170.236,378.76 170.662,370.659 170.022,361.279 C169.738,357.158 169.667,356.945 167.109,355.737 C165.262,354.884 163.627,353.107 161.566,349.91 C160.003,347.352 157.516,344.367 156.166,343.23 C153.537,341.098 153.395,340.246 154.887,335.556 C155.313,334.277 154.958,333.85 153.039,332.998 C149.842,331.647 147.141,328.663 145.294,324.541 C144.512,322.694 142.878,320.562 141.741,319.709 C138.685,317.507 137.975,314.451 138.33,304.147 C138.614,296.331 138.898,294.625 140.604,290.575 C141.67,288.017 143.304,282.758 144.299,278.85 C146.431,269.826 146.644,269.186 151.263,254.69 C153.892,246.447 155.029,241.899 154.745,240.407 C154.318,237.92 155.953,234.225 159.435,229.89 C162.703,225.769 162.206,224.916 156.379,224.419 C151.973,224.063 151.263,223.779 149.628,221.718 C148.065,219.871 147.283,219.515 144.654,219.515 C141.741,219.515 141.172,219.8 137.548,223.708 C132.929,228.611 130.158,230.174 126.179,230.174 C120.707,230.174 116.159,224.205 116.159,217.099 C116.159,213.333 114.454,209.709 112.464,209.212 C111.469,208.928 109.48,209.354 107.632,210.207 C103.795,211.983 99.176,212.054 93.633,210.633 C90.649,209.851 86.456,209.567 78.143,209.638 C68.763,209.78 66.347,209.567 64.499,208.643 C56.398,204.38 55.901,192.371 63.646,186.615 C66.276,184.696 70.965,183.986 78.64,184.341 C85.533,184.696 87.522,184.199 86.812,182.28 C86.385,181.285 85.106,181.143 77.645,181.214 C68.478,181.285 65.778,180.717 63.007,178.088 C57.038,172.545 57.322,162.739 63.504,157.48 C66.133,155.278 71.676,154.354 75.229,155.562 C76.579,155.988 79.422,156.272 81.482,156.13 C83.543,155.988 93.776,156.201 104.221,156.557 C122.839,157.125 123.336,157.125 125.823,155.633 C127.458,154.638 129.519,154.141 131.792,154.141 C134.635,154.141 135.701,153.785 137.406,152.222 C138.543,151.085 140.249,149.735 141.101,149.167 L142.594,148.03 L140.675,145.756 C138.756,143.482 138.756,143.482 139.964,140.497 C140.604,138.863 141.314,134.884 141.528,131.686 C141.954,126.001 141.883,125.646 139.822,122.377 C138.614,120.53 137.264,117.829 136.838,116.408 C136.056,113.992 135.63,113.637 130.513,111.86 C116.23,106.886 111.043,104.754 108.982,102.978 C106.993,101.343 106.851,100.917 107.561,99.567 C107.988,98.714 109.622,97.364 111.185,96.582 C112.677,95.801 114.099,94.593 114.312,93.882 C114.596,93.172 116.088,91.182 117.794,89.405 C119.428,87.629 121.915,84.929 123.336,83.365 C124.687,81.873 127.245,79.67 128.879,78.462 C130.584,77.325 132.503,75.194 133.214,73.843 C134.564,71.356 138.401,67.803 141.599,66.098 C142.665,65.529 144.512,65.387 146.999,65.672 C149.842,66.027 151.334,65.885 153.11,64.961 C154.887,64.037 156.379,63.895 159.079,64.179 C163.698,64.819 167.749,63.398 172.652,59.632 C174.641,58.068 177.768,56.15 179.616,55.368 C181.747,54.444 182.742,53.591 182.529,52.952 C182.316,52.454 183.169,51.175 184.377,50.11 C188.072,47.054 193.97,47.907 195.746,51.744 C197.594,55.723 197.594,55.723 201.218,55.652 C208.039,55.439 210.74,52.526 210.526,45.42 C210.384,38.882 211.521,30.852 213.014,28.436 C213.795,27.157 214.648,25.097 214.861,23.889 C215.43,21.046 217.135,20.051 219.693,20.975 C220.972,21.401 222.607,21.401 224.312,20.975 C226.799,20.336 227.296,20.478 231.063,23.036 C234.687,25.594 235.184,26.234 235.682,29.005 C236.392,33.411 239.306,37.532 241.722,37.603 C242.219,37.603 243.782,36.75 245.275,35.756 C247.691,34.121 248.33,34.05 252.452,34.476 C255.933,34.832 257.639,34.69 259.913,33.695 C264.603,31.776 265.029,31.421 264.816,30.071 C264.318,27.513 262.471,26.234 259.344,26.234 C256.218,26.234 251.883,25.026 251.883,24.173 C251.883,22.965 247.904,21.899 239.234,20.762 C231.134,19.696 229.997,19.341 228.22,17.635 C226.657,16.072 226.302,15.006 226.302,12.377 C226.302,9.535 226.657,8.682 228.718,6.621 C231.418,3.921 234.189,3.494 237.529,5.2 C238.595,5.697 241.224,6.337 243.427,6.621 C247.691,7.047 248.614,6.621 249.112,3.921 C249.254,3.139 250.462,1.86 251.741,1.15 C253.944,-0.201 254.583,-0.201 260.268,0.581 C263.679,1.078 268.085,1.931 270.074,2.5 C274.693,3.779 276.754,3.779 280.378,2.358 C282.936,1.292 284.002,1.292 289.402,2.002 C298.569,3.281 298.782,3.423 300.985,5.626 C304.822,9.392 303.33,16.143 298.001,19.27 C296.295,20.336 293.311,22.894 291.463,25.097 C288.55,28.507 287.697,29.076 285.565,29.076 C282.723,29.076 281.87,30.426 283.007,33.055 C283.576,34.263 284.428,34.761 285.707,34.761 C286.773,34.761 290.682,35.258 294.448,35.898 C302.762,37.319 307.096,39.735 311.928,45.562 C315.481,49.896 320.74,53.52 322.516,52.81 C323.085,52.597 324.435,51.318 325.43,49.967 C327.206,47.622 327.277,47.054 327.348,38.811 C327.348,30.923 327.561,29.929 329.054,27.513 C329.978,26.02 330.759,24.031 330.759,23.107 C330.759,20.904 332.678,18.914 334.241,19.554 C334.881,19.767 337.652,20.122 340.352,20.265 C349.377,20.762 349.732,20.975 352.503,28.721 C353.569,31.705 353.782,34.903 353.854,48.262 C353.854,59.063 354.209,64.748 354.706,65.743 C355.559,67.235 358.615,68.159 363.02,68.159 C364.086,68.159 366.005,68.94 367.142,69.935 C368.705,71.285 369.7,71.641 370.837,71.214 C371.618,70.93 373.679,70.646 375.314,70.646 C378.014,70.646 378.795,71.143 381.922,74.199 C384.693,76.899 385.475,78.178 385.475,79.883 C385.475,82.513 386.115,83.365 390.662,86.989 C392.51,88.411 394.002,90.045 394.002,90.542 C394.002,91.04 395.637,93.385 397.555,95.73 C399.545,98.075 401.606,101.201 402.245,102.623 C402.814,104.044 404.235,105.749 405.372,106.389 C407.646,107.668 408.783,109.8 407.717,110.865 C407.361,111.221 405.087,111.718 402.742,111.931 C399.047,112.358 398.337,112.642 398.124,113.85 C397.981,114.916 396.489,115.769 392.226,117.261 C389.099,118.398 386.47,119.322 386.399,119.322 C386.257,119.322 386.186,120.885 386.186,122.803 C386.186,125.575 385.83,126.57 384.338,128.133 C383.272,129.128 382.206,129.98 381.851,129.98 C381.567,129.98 380.856,130.407 380.288,130.975 C379.435,131.899 379.435,132.894 380.572,138.863 C381.78,145.045 382.206,146.111 385.191,149.664 C388.317,153.572 388.388,153.785 387.962,157.196 C387.678,159.115 386.612,162.526 385.617,164.729 C382.633,171.124 383.272,181.641 386.825,183.844 C391.018,186.473 396.916,192.086 397.342,193.863 C397.555,194.858 398.621,196.705 399.758,197.984 C402.387,201.04 402.742,203.314 401.534,210.207 C400.682,215.252 400.184,216.46 398.337,218.165 C397.129,219.231 396.134,220.51 396.134,220.866 C396.134,222.287 398.976,224.49 400.682,224.49 C401.677,224.49 403.24,225.2 404.164,226.124 C406.438,228.185 408.569,236.214 408.001,240.478 C407.717,242.326 407.859,243.818 408.285,244.102 C409.919,245.097 413.188,250.426 413.188,252.061 C413.188,253.837 417.096,261.583 419.726,264.922 C420.436,265.846 421.005,267.125 421.005,267.765 C421.005,268.404 422.639,271.531 424.558,274.729 C426.547,277.926 428.111,280.911 428.111,281.408 C428.111,281.835 429.532,284.606 431.237,287.519 C433.014,290.362 434.648,293.488 434.932,294.341 C435.146,295.194 435.927,296.899 436.638,298.036 C437.348,299.244 438.414,302.087 439.125,304.432 C439.764,306.777 441.115,310.969 442.038,313.669 C444.099,319.709 444.099,319.923 442.252,325.892 C439.693,334.063 438.699,336.693 437.348,338.327 C436.069,339.89 435.998,339.89 433.511,338.753 L430.953,337.474 L429.887,339.606 C428.324,342.662 425.837,342.733 423.35,339.819 C421.786,337.901 417.168,335.911 415.675,336.479 C414.68,336.906 411.767,330.084 411.767,327.313 C411.767,325.465 408.711,318.643 407.575,318.004 C407.148,317.72 406.793,316.938 406.793,316.299 C406.793,314.522 402.316,305.355 400.895,304.147 C400.184,303.65 399.687,302.584 399.687,301.802 C399.687,299.955 395.921,292.636 394.073,291.001 C393.22,290.22 392.581,288.798 392.581,287.59 C392.581,285.956 391.941,285.174 388.673,283.114 C383.699,279.916 382.491,276.789 384.409,271.886 C385.333,269.399 385.546,267.623 385.12,264.638 C384.693,261.085 384.551,260.801 383.272,261.441 C382.491,261.867 381.496,261.938 380.927,261.654 C377.943,259.948 371.689,250.142 371.05,246.234 C370.837,244.813 370.126,242.61 369.558,241.402 C368.918,240.194 368.421,238.204 368.421,236.996 C368.421,234.083 362.31,225.84 358.401,223.353 C355.204,221.363 354.351,220.155 348.737,209.212 C344.971,201.964 344.616,201.04 344.616,196.421 C344.545,191.305 342.626,178.017 341.205,173.043 C340.565,170.769 340.636,169.987 341.631,168.21 C343.124,165.581 343.195,161.744 341.773,160.536 C339.997,159.044 340.423,155.846 342.626,154.283 L344.616,152.862 L343.337,149.38 C342.555,147.248 342.271,145.116 342.555,143.695 C343.266,140.213 342.342,138.01 339.499,136.021 C334.241,132.468 329.693,134.244 328.556,140.284 C328.201,142.274 327.49,144.974 326.922,146.324 C325.927,148.882 323.653,160.394 323.653,163.023 C323.653,165.368 322.232,166.221 318.537,166.221 C314.131,166.221 313.492,167.145 311.076,178.088 C310.294,181.428 310.72,182.707 313.776,185.549 C315.695,187.325 315.837,187.823 315.837,192.726 C315.837,198.695 315.481,199.192 311.076,199.974 C308.66,200.329 308.02,200.827 307.381,202.603 C306.812,204.167 306.315,204.593 305.32,204.309 C304.538,204.024 302.193,204.664 299.919,205.73 C296.935,207.08 295.229,207.435 293.595,207.08 C287.697,205.872 285.281,205.872 285.281,207.009 C285.281,208.359 286.915,209.212 290.611,209.922 C292.174,210.136 297.006,212.125 301.412,214.257 C305.817,216.389 310.01,218.094 310.72,218.094 C311.431,218.094 312.994,218.379 314.131,218.805 C315.268,219.16 318.111,219.8 320.456,220.155 C328.414,221.363 330.12,222.145 333.033,225.342 C338.86,231.88 340.779,236.57 341.631,246.66 C342.271,253.411 339.215,264.922 336.018,268.191 C335.378,268.831 334.596,270.678 334.241,272.313 C333.815,274.729 333.957,275.724 335.094,277.429 C337.865,281.835 339.926,286.809 340.707,291.286 C341.134,293.844 341.631,296.615 341.844,297.539 L342.2,299.173 L344.047,297.681 C346.25,295.976 349.377,295.833 350.94,297.326 C351.58,297.965 352.361,299.813 352.788,301.447 C354.209,306.99 354.777,307.842 356.767,307.345 C359.396,306.634 361.457,308.269 364.583,313.314 C366.36,316.156 367.639,317.578 368.563,317.578 C370.624,317.578 374.816,322.054 374.816,324.257 C374.816,326.389 376.735,331.647 378.156,333.353 C379.577,334.987 380.501,345.291 379.293,345.788 C378.795,346.001 378.369,346.925 378.369,347.849 C378.369,348.773 378.014,350.336 377.516,351.331 C376.806,352.894 376.948,353.392 378.582,355.097 C381.567,358.224 382.846,362.558 382.917,370.162 C382.917,375.775 382.704,377.481 381.354,380.465 C380.43,382.384 379.293,384.445 378.795,385.084 C378.227,385.653 377.587,387.287 377.303,388.637 C377.09,389.987 376.522,391.977 376.095,393.043 C375.598,394.322 375.669,398.088 376.166,405.123 C376.806,413.366 377.232,415.64 378.369,417.203 C381.851,422.035 381.638,426.086 377.587,429.07 C375.811,430.42 375.456,431.06 375.882,432.552 C376.593,435.394 378.795,438.095 381.211,439.089 C382.562,439.658 383.983,441.079 384.835,442.785 L386.257,445.556 L390.023,445.129 C393.505,444.703 394.002,444.774 396.205,446.764 C397.555,447.901 400.398,449.393 402.6,450.033 C410.133,452.378 411.838,453.799 415.036,460.407 C416.67,463.747 418.376,466.874 418.802,467.371 C419.299,467.797 421.076,468.224 422.781,468.224 C425.339,468.224 425.979,468.437 425.979,469.503 C425.979,470.142 426.192,471.919 426.405,473.34 C426.832,475.827 426.761,475.969 423.847,477.462 C421.147,478.812 419.37,479.025 404.661,479.38 L388.388,479.807 L388.175,475.969 L387.962,472.132 L384.054,471.706 C381.922,471.493 376.664,470.924 372.471,470.427 C368.279,469.929 364.299,469.716 363.66,469.929 C362.665,470.356 362.665,470.498 363.731,471.635 C364.441,472.487 364.868,474.193 364.868,476.538 L364.868,480.02 L357.122,483.431 L349.377,486.841 L339.357,485.776 C332.18,485.065 328.912,484.425 327.988,483.573 C326.496,482.151 325.288,482.151 322.161,483.431 C320.029,484.212 318.75,484.141 311.999,482.933 L304.325,481.441 L304.68,479.309 C304.893,478.101 305.32,476.111 305.533,474.903 C306.03,472.772 305.888,472.558 303.472,471.777 C300.63,470.853 300.417,470.142 302.051,466.092 C302.833,464.102 303.97,462.894 305.604,462.113 C306.954,461.473 309.583,459.199 311.431,457.067 C316.903,450.743 318.963,448.825 322.516,446.693 C325.856,444.774 325.927,444.703 325.43,441.932 C325.145,440.084 325.43,437.455 326.425,433.831 C327.277,430.846 327.917,427.791 327.917,427.08 C327.917,426.37 328.841,423.883 330.049,421.68 C331.754,418.482 332.109,417.061 331.754,415 C331.328,412.3 332.394,405.478 333.53,403.702 C333.815,403.204 335.378,402.494 336.87,402.138 C339.357,401.57 339.855,401.712 341.347,403.275 C342.768,404.839 343.124,404.981 344.047,404.128 C345.397,402.707 344.189,383.023 342.484,380.678 C341.915,379.755 341.418,378.476 341.418,377.694 C341.418,376.912 340.494,374.638 339.286,372.507 C338.149,370.446 337.155,368.172 337.155,367.532 C337.155,366.822 336.515,365.33 335.733,364.122 C334.81,362.771 334.454,361.35 334.667,360.142 C335.236,357.584 333.53,356.234 330.972,357.229 C328.059,358.295 321.521,358.792 318.679,358.082 C309.086,355.737 308.091,355.666 305.604,357.016 C303.543,358.153 302.904,358.224 300.985,357.442 C298.356,356.305 294.377,352.113 292.458,348.275 C289.26,341.951 285.352,323.973 286.276,319.425 C286.844,316.654 285.352,309.05 284.144,308.553 C283.647,308.411 282.225,308.979 281.017,309.903 C279.241,311.182 277.82,311.538 274.622,311.538 C270.572,311.538 270.288,311.466 266.806,307.985 C262.684,304.005 263.253,303.863 259.486,309.69 C255.152,316.37 248.756,312.746 246.198,302.158 C245.275,298.463 244.067,298.249 240.016,301.163 C232.342,306.777 229.712,306.848 224.88,301.945 C222.962,299.955 220.404,296.402 219.196,293.915 C217.277,290.007 217.135,289.225 217.846,287.164 C219.48,282.474 217.135,281.693 212.232,285.459 C210.171,287.022 209.532,287.164 205.694,286.738 C201.715,286.24 201.431,286.382 200.294,288.088 C199.228,289.722 199.228,290.362 200.01,294.128 C200.649,297.041 200.72,300.737 200.436,305.995 C200.152,310.258 199.939,314.806 200.01,316.156 C200.01,317.507 200.01,320.988 200.01,323.902 C199.939,329.587 200.507,330.653 203.349,329.942 C204.486,329.587 205.552,330.155 207.187,331.79 C209.389,333.992 209.461,334.134 209.034,338.967 L208.608,343.87 L211.379,345.717 C215.074,348.204 217.206,353.534 217.419,360.924 C217.49,363.837 217.917,367.106 218.343,368.243 C218.911,369.522 218.911,370.73 218.485,372.009 C218.059,373.004 217.774,376.415 217.774,379.613 C217.774,384.729 217.49,385.937 215.643,389.348 C214.506,391.48 213.582,393.682 213.511,394.18 C213.511,394.677 211.877,396.738 209.887,398.799 C206.476,402.352 206.334,402.636 206.618,405.691 C206.831,407.468 207.329,410.523 207.755,412.442 C209.247,418.695 207.329,427.578 203.563,432.126 C200.862,435.394 197.949,436.105 194.183,434.399 C190.772,432.907 190.274,433.263 187.716,439.374 C186.295,442.785 186.082,444.064 186.65,445.982 C187.148,447.83 187.006,449.038 185.798,451.667 C184.448,454.723 184.448,455.007 185.513,456.215 C187.219,458.133 191.127,459.27 192.833,458.347 C195.107,457.067 197.523,457.423 199.299,459.341 C200.294,460.407 201.786,461.118 202.923,461.118 C203.989,461.118 208.039,462.752 211.948,464.671 C215.856,466.661 219.409,468.224 219.835,468.224 C220.546,468.224 222.038,472.487 222.038,474.761 C222.038,475.401 223.388,476.964 225.094,478.243 C228.931,481.299 228.931,481.228 229.428,485.42 C229.926,488.902 229.855,489.044 227.225,491.389 L224.525,493.876 L213.866,493.45 C208.039,493.237 200.223,492.881 196.67,492.668 L190.061,492.171 L190.061,489.115 L190.061,485.989 L183.879,485.989 C178.194,485.989 177.555,485.847 175.778,484.141 C174.002,482.436 173.647,482.365 168.388,482.862 C162.988,483.359 162.917,483.359 163.343,485.207 C163.485,486.202 163.343,489.115 162.917,491.602 C162.277,495.013 161.709,496.221 160.643,496.719 C159.79,497.003 153.537,497.785 146.715,498.424 C139.893,498.993 132.645,499.703 130.656,499.916 C127.955,500.201 126.889,500.059 126.605,499.277 z M279.809,301.518 C281.089,299.742 282.012,297.255 282.225,295.336 C282.581,292.565 282.368,291.854 280.804,290.291 C279.738,289.225 277.749,288.301 275.972,288.017 C274.196,287.733 272.064,286.667 270.501,285.317 L268.085,283.185 L266.735,284.819 C265.171,286.738 265.313,288.941 267.658,296.118 C269.648,302.3 271.922,304.929 275.191,304.645 C277.251,304.503 278.175,303.863 279.809,301.518 z M256.005,300.737 C256.431,299.6 257.141,296.047 257.568,292.778 C258.278,287.519 258.207,286.738 257.141,285.53 C254.086,282.19 252.309,285.103 252.309,293.417 C252.38,301.447 254.299,305.213 256.005,300.737 z M129.945,221.576 C132.574,219.515 132.503,216.176 129.874,215.181 C124.118,212.978 122.199,213.689 122.981,217.739 C123.976,222.855 126.534,224.276 129.945,221.576 z M204.344,218.379 C205.197,217.384 205.055,217.028 203.278,215.678 C202.141,214.897 199.939,212.836 198.375,211.201 C196.812,209.496 194.964,208.146 194.325,208.146 C193.33,208.146 187.219,214.47 187.219,215.536 C187.219,215.678 187.716,216.389 188.356,216.957 C189.137,217.739 190.914,218.094 194.183,218.165 C196.812,218.165 199.583,218.45 200.365,218.805 C202.497,219.729 203.278,219.658 204.344,218.379 z M181.392,156.841 C181.747,156.344 182.316,152.791 182.6,149.024 C183.169,141.563 183.169,141.563 179.402,141.208 C177.91,140.995 177.626,141.35 177.199,143.837 C176.915,145.542 176.134,147.035 175.21,147.603 C173.22,148.953 173.291,149.948 175.849,152.364 C177.057,153.501 177.981,154.78 177.981,155.207 C177.981,156.059 179.402,157.694 180.184,157.694 C180.468,157.694 180.966,157.267 181.392,156.841 z" fill="#000000"/>
  </g>
</svg>
