<?xml version="1.0" encoding="UTF-8"?>
<!DOCTYPE svg PUBLIC "-//W3C//DTD SVG 1.1//EN" "http://www.w3.org/Graphics/SVG/1.1/DTD/svg11.dtd">
<svg version="1.1" xmlns="http://www.w3.org/2000/svg" xmlns:xlink="http://www.w3.org/1999/xlink" x="0" y="0" width="500" height="500" viewBox="0, 0, 500, 500">
  <g id="layer101">
    <path d="M201.314,484.951 C198.843,483.283 195.259,480.873 193.467,479.514 L190.193,477.104 L191.243,475.25 C192.232,473.52 192.232,473.396 191.181,472.346 C190.44,471.543 188.895,471.234 185.62,471.11 C180.059,470.863 178.514,471.666 179.441,474.385 C179.936,475.868 180.492,476.239 182.778,476.671 C184.261,476.918 186.176,476.98 187.041,476.795 C188.339,476.548 188.401,476.548 187.536,477.104 C186.918,477.475 186.423,478.401 186.362,479.143 L186.362,480.502 L185.806,479.143 C185.188,477.722 183.334,477.166 183.334,478.401 C183.334,478.896 183.025,478.834 182.407,478.34 C181.666,477.722 178.514,477.598 168.196,477.907 L154.911,478.34 L153.923,476.424 C152.996,474.57 153.058,474.385 155.22,469.875 C158.248,463.819 162.573,460.174 166.033,460.73 C167.887,461.039 168.628,460.792 170.667,459.185 C172.027,458.073 173.324,456.899 173.571,456.528 C174.622,454.922 174.004,452.821 171.965,450.905 C170.791,449.855 169.432,447.878 168.875,446.518 C168.196,444.85 167.022,443.491 165.353,442.502 C161.275,439.969 161.214,440.339 168.566,421.247 L172.83,410.187 L171.471,405.985 L170.111,401.783 L171.779,397.582 C172.706,395.296 174.375,390.723 175.549,387.51 C176.723,384.297 179.194,377.624 181.11,372.743 C183.025,367.861 184.57,363.104 184.57,362.115 C184.57,358.284 192.849,352.352 196.928,353.217 C199.461,353.773 200.511,352.847 201.006,349.325 C201.253,347.718 201.747,345.432 202.18,344.258 C202.674,343.084 203.168,339.377 203.292,336.04 C203.662,329.923 204.28,328.193 206.134,328.193 C207.246,328.193 210.706,324.856 212.931,321.582 C213.796,320.284 215.093,319.357 216.638,318.925 C219.357,318.183 219.542,317.874 220.716,311.634 C221.21,309.038 222.446,305.578 223.682,303.292 C226.277,298.596 226.957,294.209 225.659,290.564 C224.856,288.154 224.856,287.042 225.968,278.577 C226.771,271.903 227.08,265.725 227.08,257.321 C227.019,248.053 227.204,245.272 227.822,244.407 C228.44,243.728 228.81,240.638 229.119,234.645 C229.49,227.107 229.861,225.129 231.653,219.754 C232.765,216.355 234.495,212.339 235.545,210.794 C240.921,202.762 258.407,201.588 267.614,208.632 C269.22,209.806 270.765,210.794 271.136,210.794 C271.445,210.794 273.237,209.682 275.028,208.385 C276.82,207.025 279.415,205.48 280.713,204.924 C282.011,204.368 283.679,203.441 284.359,202.824 C285.038,202.206 286.459,201.279 287.448,200.846 C289.796,199.734 289.672,198.993 286.83,198.004 C285.656,197.572 283.679,196.274 282.505,195.038 C280.528,192.876 280.281,192.814 277.438,193.246 C275.832,193.493 273.854,193.926 273.051,194.173 C268.911,195.718 266.563,194.482 254.082,184.163 C246.297,177.737 247.285,179.9 242.095,157.841 C241.045,153.393 240.365,149.315 240.55,148.758 C240.736,148.264 241.415,147.646 242.095,147.461 C243.702,146.905 244.134,144.742 243.64,139.614 C243.393,136.771 243.516,134.547 244.011,133.188 C244.937,130.654 243.949,129.233 241.292,129.233 C238.388,129.233 235.607,127.688 233.445,124.97 C231.097,122.004 229.676,121.819 226.833,123.981 C225.597,124.908 223.991,125.526 222.755,125.526 C220.963,125.526 220.222,126.082 217.318,129.48 C215.464,131.705 213.054,133.867 211.942,134.423 C210.83,134.918 209.532,136.277 208.976,137.513 C207.926,139.737 205.084,141.406 203.354,140.726 C202.118,140.232 200.264,141.282 199.399,142.889 C198.843,143.815 198.967,144.742 199.708,146.781 C200.511,148.882 200.573,149.809 200.079,150.736 C199.708,151.415 199.399,152.404 199.399,152.898 C199.399,153.887 203.168,155.679 210.212,158.15 C214.228,159.51 215.341,160.189 216.391,161.858 C217.071,162.97 218.306,164.02 219.233,164.206 C220.16,164.391 221.89,165.38 223.064,166.368 C224.794,167.789 225.35,168.84 225.659,170.941 C226.03,173.35 225.845,174.03 224.176,176.502 C221.952,179.776 221.952,179.715 223.126,182.124 C223.62,183.113 224.115,185.214 224.3,186.882 C224.547,189.354 224.362,190.157 222.941,191.949 C222.076,193.123 220.902,194.667 220.407,195.347 C219.728,196.336 218.43,196.768 215.155,197.201 C212.807,197.448 208.049,198.189 204.651,198.807 C198.781,199.796 197.051,199.92 189.698,199.672 C185.373,199.549 184.261,200.29 182.036,204.739 C176.166,216.355 167.763,222.596 158.001,222.596 C153.737,222.596 152.069,222.102 146.261,218.95 C145.087,218.271 143.295,217.344 142.244,216.911 C141.256,216.417 139.835,214.996 139.155,213.698 C138.475,212.463 137.487,211.412 136.931,211.412 C136.436,211.412 133.532,212.957 130.505,214.872 C127.477,216.726 123.646,219.012 122.04,219.815 L119.012,221.36 L89.848,221.298 C61.919,221.175 57.161,221.422 52.774,223.09 C50.365,224.017 5.506,224.017 3.096,223.09 C0.934,222.287 0.625,221.731 0.13,218.085 C-0.426,214.254 0.81,212.03 3.591,212.03 C6.062,212.03 6.495,210.609 4.517,208.323 C0.81,203.874 0.995,198.684 5.073,194.42 C6.804,192.567 7.545,192.196 9.213,192.381 C10.758,192.505 11.252,192.319 11.438,191.393 C11.747,189.848 10.017,188.55 7.483,188.55 C4.703,188.55 3.591,187.067 4.826,184.967 C6.247,182.372 9.152,180.827 14.095,179.962 C16.628,179.467 27.935,177.243 39.181,174.895 C54.504,171.744 60.127,170.817 61.239,171.25 C63.155,171.929 69.21,171.435 72.3,170.261 C73.597,169.767 74.895,169.519 75.204,169.705 C75.574,169.89 77.119,169.643 78.726,169.149 C82.495,167.913 115.243,160.684 128.342,158.15 L131.74,157.471 L141.132,162.228 C151.884,167.542 153.923,167.975 158.001,165.38 C159.36,164.515 160.472,163.464 160.472,162.97 C160.472,161.981 157.197,159.077 154.355,157.532 C153.058,156.791 151.945,155.432 151.08,153.516 C149.844,150.736 149.844,150.489 150.833,147.399 C152.563,141.962 157.63,138.687 161.893,140.293 C165.971,141.838 168.69,140.355 175.054,133.311 C176.166,132.014 177.032,131.705 179.256,131.705 C181.542,131.705 182.222,131.396 183.025,130.222 C183.952,128.862 183.952,128.492 183.087,126.453 C181.727,123.301 181.851,122.807 183.89,120.459 C185.744,118.358 187.103,112.427 185.929,111.685 C185.62,111.5 182.654,111.191 179.38,110.944 C175.858,110.697 173.201,110.202 172.83,109.77 C171.965,108.719 174.127,106.186 177.34,104.332 C179.256,103.22 180.059,102.232 181.295,99.08 C182.716,95.497 182.778,95.064 181.851,94.075 C180.368,92.407 180.677,90.924 182.901,88.762 C183.952,87.711 186.176,85.116 187.845,83.015 C190.007,80.173 190.749,78.69 190.749,77.083 C190.749,75.168 191.058,74.736 193.097,73.685 C194.456,73.005 196.742,71.523 198.225,70.41 C201.067,68.248 205.269,65.591 209.903,62.996 C212.498,61.513 223.002,57.805 228.996,56.322 C232.765,55.334 234.619,53.295 234.619,50.144 C234.619,47.054 236.102,43.347 237.276,43.347 C237.77,43.347 239.006,44.274 240.056,45.448 C241.477,47.116 241.971,48.352 242.28,51.503 C242.528,53.727 242.528,56.199 242.342,57.064 C241.91,58.732 242.837,61.266 243.887,61.266 C244.196,61.266 244.876,59.968 245.37,58.3 C247.594,50.947 251.24,45.757 255.998,43.285 C257.048,42.729 258.654,40.937 259.643,39.331 C261.064,36.797 261.373,35.747 261.25,32.472 C261.126,27.9 262.176,24.934 264.648,23.018 C266.131,21.844 266.872,21.659 269.529,22.03 C276.573,22.895 277.933,22.709 282.505,19.991 C284.915,18.57 287.263,16.654 287.757,15.789 C289.302,13.07 290.537,12.638 292.638,13.874 C294.183,14.8 294.924,14.862 297.458,14.306 C299.064,13.935 302.895,13.626 305.923,13.626 C309.63,13.626 311.978,13.318 313.214,12.7 C315.438,11.526 317.168,12.02 318.342,14.244 C318.898,15.418 320.196,16.345 322.173,17.087 C325.942,18.446 332.307,21.906 336.261,24.687 C340.957,28.085 348.372,34.758 349.113,36.365 C349.421,37.106 351.152,38.589 352.882,39.578 C356.96,41.864 360.173,45.448 362.706,50.514 C365.116,55.396 366.661,55.705 366.352,51.194 C366.229,49.279 366.476,47.796 367.094,46.931 C367.649,46.189 368.082,44.953 368.082,44.212 C368.082,42.296 371.234,38.466 372.84,38.404 C374.57,38.404 376.733,42.296 376.733,45.509 C376.733,48.166 378.895,50.514 381.861,51.07 C386.804,51.997 396.814,55.272 401.139,57.435 C402.869,58.3 406.267,60.401 408.801,62.131 C411.273,63.861 414.733,66.147 416.525,67.136 C419.305,68.804 419.738,69.298 419.985,71.523 C420.294,74.056 423.136,78.381 427.584,83.015 C430.118,85.672 430.365,86.661 428.882,87.897 C426.905,89.503 429.933,97.227 433.084,98.524 C435.803,99.698 438.769,102.911 438.336,104.147 C438.088,104.827 437.039,105.136 435.308,105.197 C433.826,105.259 429.315,105.445 425.237,105.692 L417.822,106.062 L418.007,108.534 C418.069,109.893 418.255,112.55 418.44,114.404 C418.564,116.258 418.934,118.544 419.305,119.471 C419.676,120.397 419.799,122.498 419.614,124.105 C419.243,127.009 419.305,127.071 422.209,129.542 C424.928,131.767 425.546,132.014 428.326,131.952 C429.995,131.89 432.343,131.643 433.393,131.396 C435.061,131.025 435.988,131.272 438.583,133.002 C442.538,135.536 443.465,137.575 442.847,142.147 C442.414,145.669 441.426,146.967 437.409,149.129 C436.359,149.685 435.061,150.859 434.505,151.724 C433.454,153.269 433.454,153.516 434.443,156.111 C435.061,157.656 435.988,159.448 436.606,160.189 C437.595,161.425 437.842,161.487 439.881,160.745 C445.627,158.645 448.592,163.402 444.391,167.913 C441.92,170.57 442.291,171.126 445.689,169.89 C448.283,168.963 451.373,170.137 451.868,172.3 C452.362,174.092 451.25,176.749 449.582,177.923 C448.964,178.355 448.408,179.158 448.408,179.653 C448.408,180.641 450.632,180.827 451.188,179.9 C451.868,178.85 455.143,179.22 456.44,180.518 C458.108,182.186 457.614,185.893 455.389,187.685 C453.535,189.168 453.721,191.516 455.698,190.713 C462.063,187.871 466.388,192.443 462.001,197.386 C459.777,199.981 459.591,201.217 461.568,200.599 C466.82,198.931 469.416,200.043 469.416,203.998 C469.416,205.728 469.045,206.654 467.995,207.52 C465.152,209.806 465.275,210.918 469.23,215.305 L471.269,217.653 L470.899,222.411 C470.343,228.713 471.084,229.64 476.151,229.084 C480.6,228.589 484.554,229.763 488.076,232.606 C489.559,233.78 492.71,236.066 495.182,237.611 C500.248,240.885 500.619,241.256 499.445,242.245 C498.765,242.801 498.023,242.801 496.356,242.059 C494.131,241.133 494.07,241.194 491.969,242.986 C490.795,244.037 489.806,245.211 489.806,245.581 C489.806,245.952 491.351,248.671 493.204,251.637 C495.058,254.603 496.603,257.383 496.603,257.939 C496.603,258.433 495.058,260.04 493.143,261.461 C488.446,265.168 487.952,265.972 487.952,270.729 C487.952,274.19 487.705,275.055 486.531,276.167 C484.616,277.959 479.487,280.121 478.128,279.689 C477.51,279.503 474.853,277.279 472.196,274.746 C467.315,270.112 467.315,270.112 467.253,266.898 C467.191,262.882 466.759,262.079 464.473,262.079 C461.136,262.079 460.518,263.438 461.013,270.173 C461.259,274.622 461.198,276.29 460.58,276.785 C459.53,277.65 451.435,278.947 450.879,278.329 C450.632,278.082 449.519,274.066 448.469,269.432 C446.616,261.399 446.554,260.781 447.172,255.22 C447.543,252.007 448.283,248.115 448.778,246.508 C449.334,244.902 449.582,243.048 449.334,242.368 C448.84,240.824 444.267,237.363 442.661,237.363 C440.56,237.363 439.201,236.128 438.769,233.78 C438.088,230.011 435.123,224.82 432.96,223.523 C431.539,222.72 430.304,221.051 428.82,217.962 C427.647,215.552 425.237,210.918 423.383,207.705 C421.591,204.492 419.182,200.167 418.131,198.128 C417.019,196.089 415.226,192.876 414.115,191.022 C413.003,189.168 411.891,186.758 411.705,185.708 C411.458,184.658 410.592,183.113 409.79,182.372 C408.925,181.568 407.998,180.024 407.627,178.911 C407.194,177.737 406.638,176.811 406.33,176.811 C405.958,176.811 404.229,175.451 402.499,173.783 C398.852,170.384 397.185,169.396 395.208,169.396 C393.539,169.396 388.039,165.997 387.237,164.391 C386.434,162.908 386.434,157.409 387.299,154.567 C387.916,152.466 387.855,151.971 386.372,149.438 C385.136,147.399 384.765,145.916 384.889,144.248 C385.074,142.209 385.383,141.715 387.484,140.664 C388.843,139.984 390.017,139.058 390.202,138.625 C390.697,137.08 389.029,134.485 386.804,133.249 C385.568,132.57 383.282,130.345 381.738,128.368 C377.844,123.363 377.535,123.24 373.396,124.537 C369.318,125.835 368.947,126.267 370.554,127.688 C371.604,128.615 371.665,129.357 371.356,133.806 C371.048,138.501 371.11,138.934 372.716,141.22 L374.323,143.63 L373.334,150.18 C371.79,160.251 369.318,171.435 368.329,172.918 C366.908,175.142 360.112,182.495 355.477,186.758 L351.214,190.713 L343.738,190.713 C335.458,190.775 334.283,191.146 332.43,194.297 C331.565,195.718 330.453,196.583 328.599,197.139 C325.386,198.066 325.386,199.672 328.538,200.661 C329.711,201.032 331.442,202.082 332.368,203.009 C334.222,204.801 337.682,206.469 339.535,206.469 C340.153,206.469 341.451,205.604 342.44,204.615 C348.433,198.313 359.741,196.089 369.009,199.363 C371.356,200.228 373.828,200.723 374.446,200.537 C376.733,199.796 381.058,200.97 383.221,202.824 C386.495,205.728 390.944,213.019 392.612,218.147 C394.466,223.955 397.803,231.061 400.706,235.51 C404.229,240.824 409.295,247.003 411.828,248.856 C414.609,250.957 415.598,252.193 415.66,253.49 C415.66,253.985 416.648,255.406 417.884,256.58 C419.12,257.692 420.603,259.669 421.221,260.843 C421.839,262.079 423.568,264.674 425.113,266.713 C428.697,271.471 432.095,277.773 433.269,281.604 C434.381,285.497 434.69,300.697 433.702,302.86 C433.269,303.725 432.652,304.899 432.218,305.455 C431.6,306.258 431.663,307.185 432.466,309.78 C434.196,315.156 434.443,318.863 433.331,322.138 C432.404,324.795 432.404,325.227 433.269,326.957 C435.308,330.912 435.556,342.837 433.64,345.123 C433.084,345.803 432.96,348.027 433.208,353.032 C433.393,356.863 433.887,366.996 434.258,375.461 C434.69,385.965 435.185,391.835 435.803,393.874 C437.286,398.385 437.161,406.974 435.556,410.496 C434.69,412.535 433.826,413.523 432.775,413.77 C430.612,414.326 428.635,413.152 428.635,411.299 C428.635,409.63 427.152,408.518 425.484,408.951 C423.692,409.445 424.063,410.743 426.72,413.4 C428.202,414.883 429.5,416.922 429.933,418.528 C430.365,420.011 430.983,421.494 431.354,421.865 C432.034,422.544 437.533,424.46 442.661,425.819 C444.7,426.313 445.627,427.055 447.11,429.279 C448.16,430.824 449.026,432.431 449.026,432.863 C449.026,434.099 447.419,435.273 438.769,440.154 L430.612,444.727 L416.834,443.058 C409.234,442.07 402.499,441.328 401.942,441.328 C401.015,441.266 400.892,440.834 401.201,438.115 C401.572,434.717 400.892,433.543 398.852,434.222 C398.297,434.408 396.752,434.037 395.454,433.481 C393.045,432.431 385.198,431.936 384.395,432.801 C384.147,433.048 384.518,434.531 385.321,436.076 C386.557,438.733 386.619,439.042 385.692,440.031 C384.58,441.266 373.025,447.136 370.492,447.754 C369.318,448.063 368.082,447.569 365.549,445.962 C357.702,440.957 357.454,440.71 357.763,438.918 C358.938,433.11 359.679,431.195 362.151,426.746 C364.437,422.791 364.993,421.247 364.993,418.899 C364.993,415.006 366.538,411.422 368.947,409.569 C370.06,408.704 371.356,406.974 371.913,405.614 C373.581,401.536 375.188,395.913 375.003,394.863 C374.941,394.307 375.126,393.133 375.435,392.268 C375.991,390.847 375.806,390.291 374.323,388.622 C373.396,387.51 372.408,386.027 372.16,385.409 C371.913,384.73 372.592,380.343 373.705,375.276 C375.373,367.738 375.559,366.008 374.941,364.339 C374.014,361.621 374.076,360.323 375.435,357.79 C377.103,354.7 376.609,348.583 374.446,345.37 C372.469,342.404 372.901,340.18 376.177,337.276 C377.474,336.04 378.586,334.681 378.586,334.186 C378.586,333.692 377.969,331.344 377.226,329.058 C375.497,323.682 375.312,314.599 376.856,309.965 C377.412,308.297 378.092,305.702 378.277,304.281 C378.648,301.871 382.664,294.827 384.271,293.838 C384.703,293.591 386.866,293.22 389.09,293.035 L393.107,292.664 L392.921,290.193 C392.427,284.199 391.006,281.357 384.889,273.881 C378.401,265.91 378.216,265.786 376.238,265.786 C375.497,265.786 374.385,265.168 373.767,264.427 C368.7,258.125 367.835,257.63 364.993,259.298 C364.128,259.793 362.336,260.72 360.977,261.338 C359.617,262.017 356.899,264.365 354.921,266.59 C350.72,271.347 348.433,272.892 344.541,273.448 C342.687,273.695 341.08,274.499 339.721,275.672 C338.671,276.661 336.817,278.206 335.643,279.133 C333.047,281.11 332.986,281.604 335.21,282.346 C336.385,282.716 337.435,282.655 338.733,282.037 C340.895,280.986 343.985,281.79 343.985,283.334 C343.985,284.755 341.451,286.177 339.042,286.177 C335.705,286.177 334.098,287.598 334.098,290.564 C334.098,293.097 337.806,327.637 342.255,365.884 C343.614,377.933 344.787,389.734 344.85,392.082 C344.912,396.284 344.912,396.346 343.12,396.84 C340.71,397.52 339.289,396.655 338.794,394.245 C338.424,392.206 337.435,390.6 336.508,390.6 C335.087,390.6 334.222,392.515 334.531,394.987 C334.964,398.014 333.851,399.25 330.638,399.25 C328.722,399.25 328.538,399.065 327.795,396.346 C326.931,393.256 325.572,392.33 323.903,393.689 C323.285,394.245 323.1,395.172 323.347,397.087 C323.718,399.374 323.533,399.806 322.297,400.733 C319.578,402.587 316.798,401.66 316.798,398.879 C316.798,396.902 314.882,394.739 313.523,395.234 C312.287,395.728 311.546,398.014 312.102,400.053 C312.287,400.856 312.102,401.969 311.669,402.463 C310.557,403.884 307.776,404.378 306.788,403.328 C305.861,402.463 304.563,393.133 300.115,354.762 C298.755,343.393 297.396,331.591 297.025,328.502 C296.655,325.474 295.666,317.071 294.863,309.842 C293.998,302.612 293.133,296.31 292.947,295.816 C292.391,294.333 289.055,293.282 287.695,294.086 C286.089,295.074 283.926,295.012 282.443,293.9 C281.269,292.973 281.331,292.912 283.061,291.367 C284.544,290.069 285.224,289.884 286.954,290.193 C288.128,290.378 289.425,290.316 289.858,289.946 C290.29,289.575 292.391,288.957 294.615,288.525 L298.57,287.721 L298.385,283.087 C298.076,276.661 297.396,274.437 294.863,271.965 L292.7,269.864 L291.341,271.224 C289.363,273.016 284.729,275.055 282.443,275.055 C281.393,275.055 280.095,275.487 279.663,276.043 C279.168,276.599 277.685,277.588 276.326,278.206 C274.967,278.824 272.928,279.936 271.754,280.554 C270.58,281.233 268.85,282.099 267.923,282.407 C265.575,283.211 264.215,286.98 263.289,295.63 C262.918,298.967 262.671,299.338 260.508,300.759 C257.789,302.489 257.542,303.416 259.334,305.825 C260.385,307.185 260.508,307.864 260.014,309.347 C259.705,310.398 258.84,314.538 258.098,318.616 C256.121,329.552 254.885,332.518 249.695,338.635 C247.285,341.601 244.134,345.061 242.651,346.421 C239.253,349.634 237.461,353.094 238.326,354.7 C238.635,355.38 238.944,356.801 238.944,357.852 C238.944,359.891 240.55,360.941 243.578,360.941 C244.381,360.941 245.493,361.373 246.05,361.93 C247.471,363.413 247.038,371.26 245.246,375.77 C244.258,378.18 243.949,379.91 244.196,381.64 C244.381,383 244.258,386.089 243.887,388.437 C243.516,390.847 243.084,394.307 242.96,396.161 C242.775,398.014 242.528,401.227 242.28,403.266 C242.095,405.305 241.91,407.839 241.91,408.827 C241.848,414.017 240.674,432.183 239.747,440.648 C238.697,451.153 238.264,452.265 234.557,454.366 C231.9,455.848 231.591,456.652 233.259,458.073 C234.619,459.309 239.253,461.657 240.365,461.657 C240.798,461.657 243.578,463.201 246.544,465.055 C249.448,466.909 252.29,468.453 252.846,468.453 C253.588,468.453 253.773,469.318 253.773,473.026 L253.773,477.66 L244.876,477.289 L236.04,476.918 L235.36,479.019 C234.989,480.193 234.495,482.294 234.248,483.653 C234.063,485.075 233.692,486.496 233.445,486.866 C233.197,487.237 227.822,487.546 219.48,487.731 L205.887,487.917 L201.314,484.951 z M385.692,316.391 C386.31,314.414 385.445,308.606 384.395,307.741 C382.85,306.443 382.17,308.235 382.603,312.684 C382.787,314.847 383.096,316.886 383.282,317.195 C383.9,318.121 385.321,317.689 385.692,316.391 z M309.754,285.868 C311.422,285.373 314.141,284.941 315.747,284.941 C318.96,284.941 321.37,284.014 320.814,283.025 C320.567,282.716 319.331,281.913 317.972,281.172 C315.933,280.183 314.573,279.998 309.816,280.121 L304.131,280.307 L303.946,282.716 C303.575,287.103 304.316,287.536 309.754,285.868 z M333.481,276.229 C333.481,275.858 332.924,275.734 332.121,276.043 C330.206,276.599 329.094,277.526 329.526,278.206 C329.897,278.886 333.481,277.094 333.481,276.229 z M275.77,263.5 C279.354,259.793 282.814,254.541 282.814,252.625 C282.814,251.328 281.146,250.648 277.068,250.216 C273.484,249.783 272.866,250.586 274.534,253.367 C275.585,255.159 275.585,255.344 274.596,257.445 C274.04,258.681 273.546,260.164 273.546,260.843 C273.546,261.461 273.237,262.079 272.866,262.203 C272.124,262.45 271.012,267.022 271.754,267.022 C272.001,267.022 273.854,265.416 275.77,263.5 z M358.011,251.328 C359.494,250.092 359.555,249.721 358.876,248.856 C358.443,248.3 357.207,247.868 356.218,247.868 C355.23,247.868 352.573,247.126 350.348,246.261 C345.777,244.407 345.035,244.716 344.355,248.609 C343.861,251.328 344.603,251.946 347.074,250.957 C348.681,250.277 349.175,250.401 350.905,251.513 C353.562,253.181 355.909,253.12 358.011,251.328 z M84.163,208.076 L87.253,207.211 L83.113,207.149 C78.849,207.087 77.057,207.458 77.057,208.385 C77.057,209.188 80.641,209.064 84.163,208.076 z M90.589,180.765 C92.628,180.518 94.358,180.085 94.358,179.776 C94.358,179.22 88.056,179.653 83.545,180.518 L81.074,181.012 L83.916,181.074 C85.461,181.136 88.488,180.95 90.589,180.765 z M258.098,128.924 C258.963,127.874 258.531,126.144 257.357,126.144 C255.998,126.206 253.588,128.368 254.02,129.171 C254.638,130.16 257.172,130.036 258.098,128.924 z M244.381,123.24 C244.628,120.645 243.145,119.347 239.871,119.347 C236.472,119.347 235.237,119.841 235.237,121.139 C235.237,122.56 237.708,124.846 239.932,125.464 C242.589,126.206 244.134,125.402 244.381,123.24 z M372.655,120.953 C374.879,120.027 376.733,117.864 376.733,116.134 C376.733,114.713 374.57,114.651 371.172,116.01 C368.206,117.184 367.155,119.594 369.009,121.015 C370.43,122.004 370.183,122.004 372.655,120.953 z" fill="#000000"/>
  </g>
</svg>
