<?xml version="1.0" encoding="UTF-8"?>
<!DOCTYPE svg PUBLIC "-//W3C//DTD SVG 1.1//EN" "http://www.w3.org/Graphics/SVG/1.1/DTD/svg11.dtd">
<svg version="1.1" xmlns="http://www.w3.org/2000/svg" xmlns:xlink="http://www.w3.org/1999/xlink" x="0" y="0" width="500" height="500" viewBox="0, 0, 500, 500">
  <g id="layer101">
    <path d="M134.557,495.491 C129.435,492.835 124.628,490.179 123.933,489.547 C123.174,488.851 121.087,488.282 118.557,488.029 L114.446,487.586 L111.916,490.495 L109.387,493.404 L96.738,494.29 C89.781,494.796 83.584,495.238 82.951,495.238 C81.939,495.238 81.876,494.669 82.002,489.104 L82.192,482.906 L91.362,477.72 C96.422,474.874 100.912,472.534 101.355,472.534 C103.315,472.408 105.845,470.447 106.478,468.55 C106.857,467.411 107.806,465.894 108.501,465.135 C110.082,463.49 109.64,462.352 107.426,462.352 C105.908,462.352 102.746,459.886 102.746,458.621 C102.746,458.304 103.505,457.166 104.39,456.091 C106.351,453.688 106.161,452.929 103.379,451.98 C101.228,451.284 101.165,451.158 101.292,448.249 C101.481,444.96 105.466,429.149 108.122,420.928 C110.082,415.109 109.956,411.631 107.806,407.394 C107.047,405.939 106.541,404.295 106.73,403.662 C106.92,403.093 108.501,397.338 110.209,390.887 C115.837,370.27 117.166,365.906 118.304,365.274 C120.707,363.883 124.059,360.467 125.008,358.507 C125.577,357.368 126.779,354.08 127.727,351.234 C129.308,346.364 129.372,345.858 128.676,341.242 C127.79,335.297 128.107,333.716 130.573,332.704 C131.964,332.135 133.229,330.49 135.696,325.937 C138.036,321.573 139.49,319.612 141.071,318.664 C142.273,317.968 143.222,317.272 143.222,317.083 C143.222,316.197 141.261,313.541 136.961,308.671 C134.304,305.636 128.613,298.932 124.249,293.746 C119.948,288.56 114.509,282.173 112.233,279.58 C109.956,276.987 107.426,273.318 106.604,271.484 C105.719,269.714 104.707,268.196 104.327,268.196 C103.948,268.196 101.671,270.03 99.268,272.307 C95.916,275.532 93.892,276.86 90.161,278.378 C84.406,280.718 81.054,280.591 76.058,277.872 C73.212,276.354 72.453,275.469 70.366,271.484 C68.215,267.374 67.962,266.362 67.962,262.251 C67.962,258.33 67.646,256.939 65.939,253.27 C63.915,248.97 63.852,248.717 63.788,239.42 C63.725,233.475 63.346,228.922 62.84,227.214 C62.018,224.495 62.018,224.432 64.8,219.119 L67.646,213.807 L66.255,211.277 C65.306,209.633 64.8,207.735 64.8,205.775 C64.8,203.055 64.421,202.17 61.828,198.628 C59.172,195.087 58.792,194.138 58.855,191.545 C58.919,186.233 62.207,183.134 67.773,183.197 C70.302,183.26 71.757,183.64 73.148,184.715 C74.603,185.79 75.362,185.98 76.121,185.537 C77.069,184.905 77.196,183.513 76.817,178.391 C76.753,177.505 77.069,175.545 77.449,173.964 C77.892,172.383 78.461,169.979 78.84,168.588 C79.473,166.058 83.267,161.884 88.137,158.216 C89.275,157.394 90.92,155.623 91.805,154.295 C92.754,152.84 94.208,151.639 95.536,151.196 C97.623,150.5 97.876,150.121 98.635,146.326 C98.825,145.251 99.837,143.164 100.849,141.773 C101.861,140.382 103.126,138.168 103.695,136.84 C104.264,135.512 105.339,133.804 106.098,132.982 C107.3,131.717 107.869,131.591 110.399,131.907 C113.877,132.413 114.573,131.717 113.497,129.061 C113.055,128.049 112.928,126.468 113.118,125.646 C113.497,124.128 113.877,123.875 117.419,123.116 C118.494,122.863 119.632,121.788 120.707,119.954 C122.668,116.602 122.731,115.97 121.087,113.883 C119.506,111.859 119.506,109.709 121.023,108.887 C122.921,107.875 123.869,104.776 123.047,102.436 C122.415,100.665 122.604,100.032 124.312,97.06 C125.577,94.847 126.779,93.518 127.79,93.265 C128.613,93.076 129.877,92.19 130.573,91.305 C132.154,89.281 134.431,83.147 133.988,82.071 C133.546,80.87 131.712,80.048 122.984,77.202 C119,75.874 113.75,74.04 111.284,73.091 C108.881,72.142 105.655,71.13 104.138,70.814 C102.683,70.561 100.975,70.055 100.343,69.739 C99.774,69.423 98.129,68.98 96.675,68.854 C93.133,68.348 85.544,64.553 85.797,63.352 C85.924,62.656 87.441,62.15 90.73,61.644 C96.738,60.695 102.809,59.241 104.39,58.355 C105.086,58.039 106.161,57.09 106.857,56.332 C107.553,55.573 109.45,54.244 111.031,53.422 C112.612,52.663 114.826,51.272 115.901,50.387 C116.913,49.438 118.051,48.742 118.367,48.742 C118.683,48.742 120.644,47.73 122.731,46.466 C124.755,45.201 127.79,43.809 129.372,43.303 C132.66,42.292 134.304,40.837 133.293,39.825 C132.913,39.446 131.712,38.687 130.51,38.118 C128.676,37.232 128.233,36.536 127.537,33.627 C127.095,31.793 126.842,29.896 127.032,29.39 C127.284,28.758 128.992,28.568 134.178,28.631 C139.996,28.694 141.767,28.441 146.068,27.05 C148.85,26.101 152.013,25.342 153.151,25.342 C155.997,25.342 161.499,23.825 164.408,22.244 C165.926,21.485 168.076,20.915 169.784,20.915 C173.515,20.915 176.108,19.271 178.322,15.476 C179.27,13.769 180.219,12.251 180.345,12.061 C180.535,11.872 182.812,11.745 185.468,11.682 C189.769,11.682 191.16,11.302 196.852,8.899 C201.911,6.749 203.556,5.737 204.315,4.346 C204.82,3.397 206.402,2.006 207.919,1.247 C210.386,-0.018 211.398,-0.081 222.845,0.045 C234.039,0.172 235.557,0.298 239.604,1.69 C242.071,2.575 245.233,3.397 246.561,3.587 C247.952,3.777 249.533,4.156 250.166,4.535 C250.798,4.852 254.403,5.105 258.198,5.105 C266.166,5.105 269.834,6.053 279.005,10.607 C285.898,14.085 290.388,17.374 291.843,19.967 C292.475,21.168 294.562,22.813 297.472,24.394 C303.796,27.935 308.033,31.856 312.65,38.56 C316.95,44.885 318.215,45.643 322.2,44.315 C327.639,42.545 336.24,45.58 341.552,51.146 C345.22,54.94 349.015,62.719 350.722,69.802 C351.861,74.419 352.43,75.621 354.264,77.202 C355.465,78.277 357.11,79.099 358.122,79.099 L359.829,79.162 L358.311,80.364 C357.489,81.06 356.351,81.629 355.718,81.629 C354.011,81.629 352.556,83.336 352.556,85.36 C352.556,86.372 352.177,87.447 351.734,87.827 C351.038,88.459 350.343,88.649 345.979,89.534 C343.829,89.977 343.007,92.633 342.754,99.4 C342.501,106.989 342.311,107.116 334.659,105.029 C330.295,103.827 327.891,102.183 327.891,100.285 C327.891,99.843 327.449,99.147 326.943,98.704 C326.184,98.072 325.804,98.388 324.729,100.855 C322.895,105.155 322.073,111.163 321.947,120.839 L321.883,129.377 L319.986,129.567 C317.077,129.946 316.508,130.769 316.508,134.563 C316.508,137.852 316.697,138.231 319.037,140.382 C320.429,141.646 321.567,142.975 321.567,143.354 C321.567,143.733 320.872,144.619 319.986,145.378 C318.658,146.516 318.532,146.959 319.101,148.54 C319.48,149.615 320.555,150.753 321.883,151.386 C323.275,152.082 324.16,153.03 324.413,154.042 C324.603,154.927 324.856,156.319 325.046,157.141 C325.235,157.963 325.868,158.849 326.437,159.102 C328.271,159.86 341.173,159.987 344.651,159.291 C348.509,158.532 353.568,155.56 360.968,149.805 C369.316,143.227 370.011,143.101 372.921,147.338 C375.197,150.69 375.514,150.69 378.549,146.579 C381.016,143.291 382.407,144.05 390.692,152.587 L398.091,160.303 L398.091,163.529 L398.091,166.691 L412.194,167.829 C419.91,168.461 427.31,168.967 428.638,168.904 C433.318,168.904 435.341,170.485 437.998,176.24 C439.326,179.023 440.907,181.743 441.413,182.185 C442.741,183.324 442.614,186.17 441.033,188.13 C440.021,189.395 439.768,190.344 440.085,191.735 C440.591,194.328 439.073,197.047 436.67,197.87 C435.594,198.249 434.583,199.008 434.393,199.514 C434.077,200.336 435.721,203.561 439.705,210.139 C440.717,211.846 440.717,212.036 439.326,214.692 C438.251,216.716 437.934,218.044 438.251,219.372 C438.567,220.827 438.314,221.649 437.176,222.914 C435.784,224.558 435.405,224.621 430.029,224.621 C426.298,224.621 423.325,225.001 421.365,225.696 C418.582,226.645 418.139,226.645 413.965,225.57 C410.171,224.621 409.159,224.558 407.578,225.191 C406.06,225.823 404.226,225.823 398.85,225.254 C395.119,224.811 391.577,224.685 390.945,224.938 C390.312,225.127 389.111,226.708 388.289,228.289 C384.051,236.701 371.023,250.614 365.458,252.764 C362.865,253.776 362.485,253.776 359.892,252.764 C358.375,252.195 355.655,250.614 353.821,249.223 C351.924,247.832 349.9,246.693 349.268,246.693 C347.054,246.693 342.437,253.017 342.437,256.053 C342.437,257.002 341.868,258.709 341.173,259.848 C340.477,260.986 339.908,262.63 339.908,263.579 C339.908,264.464 339.275,266.172 338.58,267.374 C337.821,268.638 337.125,270.536 336.998,271.737 C336.935,272.939 336.24,274.647 335.544,275.532 C334.785,276.481 334.216,278.125 334.216,279.39 C334.216,280.844 333.647,282.299 332.571,283.564 C330.548,285.967 330.674,287.928 333.583,295.39 C337.504,305.636 338.137,311.707 335.734,316.324 C335.228,317.399 333.204,319.929 331.307,322.016 C329.409,324.039 327.891,326.253 327.891,326.822 C327.891,328.53 325.804,331.312 323.338,333.02 C321.441,334.348 321.061,334.98 320.745,337.826 C320.492,339.597 319.733,342.317 319.037,343.835 C317.52,346.87 317.773,347.882 319.923,347.882 C322.579,347.882 325.046,352.562 325.551,358.633 C325.741,360.531 326.31,363.25 326.816,364.641 C327.322,366.033 328.524,369.195 329.409,371.598 C330.358,374.065 332.192,379.314 333.583,383.298 C334.911,387.282 336.746,392.595 337.631,394.998 C341.299,405.243 348.382,425.861 350.406,432.059 C351.544,435.727 353.125,439.521 353.884,440.407 C355.655,442.747 355.276,445.34 352.999,446.099 C350.027,447.047 348.319,446.162 346.738,442.873 L345.283,439.901 L341.678,439.711 C337.378,439.458 333.014,440.533 332.508,441.924 C331.813,443.759 334.153,449.64 336.176,451.158 C339.149,453.308 339.781,454.953 339.022,458.557 C338.453,461.277 338.58,461.846 339.655,463.048 C340.287,463.743 341.426,465.577 342.121,466.969 C343.133,469.056 343.829,469.688 345.41,470.004 C346.548,470.257 348.635,471.459 350.027,472.724 C351.861,474.368 353.125,475.001 354.643,475.001 C355.845,475.001 360.272,476.392 364.572,478.036 L372.415,481.135 L374.375,486.511 C375.45,489.42 376.589,492.139 376.778,492.519 C377.348,493.468 376.083,493.657 363.624,494.985 C353.695,495.997 353.252,495.997 341.489,494.669 C323.97,492.645 322.706,492.392 319.227,490.242 C316.634,488.661 315.369,488.282 312.46,488.282 C310.436,488.282 308.033,488.724 306.958,489.23 C305.946,489.799 300.318,491.76 294.499,493.657 C283.242,497.325 280.775,497.642 270.846,496.693 C266.672,496.314 266.546,496.25 266.546,494.543 C266.546,492.772 266.482,492.772 263.384,493.025 C261.233,493.151 259.968,492.962 259.399,492.392 C258.198,491.254 257.565,485.942 258.324,484.424 C258.957,483.285 268.253,478.226 271.605,477.214 C275.147,476.139 280.016,473.483 280.269,472.471 C280.396,471.902 281.724,471.016 283.179,470.447 C286.594,469.245 289.566,464.629 288.934,461.403 C288.681,459.949 288.934,458.557 289.882,456.787 C291.021,454.636 291.147,453.435 290.894,449.387 C290.452,442.747 289.566,439.205 287.795,436.802 C286.91,435.727 286.088,433.703 285.835,432.312 C285.582,430.92 284.696,427.821 283.811,425.355 C282.926,422.952 281.534,418.841 280.649,416.311 C279.511,413.086 278.499,411.315 277.234,410.366 C276.222,409.607 275.084,408.026 274.704,406.825 C274.072,404.927 274.198,404.105 275.716,400.311 C277.297,396.2 277.36,395.757 276.601,392.595 C276.159,390.824 275.02,388.484 274.072,387.409 C271.479,384.563 269.961,381.021 268.886,375.393 C267.431,368.057 266.862,355.029 267.874,351.803 C268.443,349.716 268.443,348.641 267.811,346.301 C267.052,343.645 267.115,343.202 268.253,341.684 C269.961,339.407 272.744,337.826 276.159,337.257 C278.499,336.815 278.878,336.562 278.878,335.233 C278.878,333.716 278.752,333.652 274.767,333.842 C272.048,333.905 269.961,333.652 268.569,332.957 C267.178,332.324 265.66,332.071 264.395,332.324 C262.878,332.64 261.866,332.388 260.791,331.565 C258.514,329.731 255.352,328.277 253.897,328.277 C253.138,328.277 251.557,327.202 250.355,325.81 C249.154,324.482 247.067,322.901 245.676,322.269 C244.158,321.573 242.956,320.498 242.45,319.296 C241.628,317.272 239.541,315.818 238.656,316.703 C238.086,317.272 236.821,321.826 235.81,326.696 C235.557,328.087 235.304,337.32 235.24,347.25 C235.114,367.234 234.987,368.31 230.687,377.859 C228.663,382.35 228.347,383.741 228.094,389.18 C227.778,395.82 227.209,396.959 224.742,395.441 C223.73,394.808 223.414,394.935 222.592,396.579 C221.517,398.729 220.884,398.919 219.746,397.528 C219.113,396.769 219.05,394.049 219.366,385.638 C220.125,366.918 219.936,363.06 217.785,352.309 C215.319,339.913 214.939,330.364 216.078,312.782 C217.216,296.908 216.71,285.271 214.939,283.311 C214.054,282.299 213.295,282.109 211.461,282.425 C208.805,282.868 205.2,281.414 205.2,279.833 C205.2,278.631 207.793,277.682 211.208,277.682 C214.686,277.682 215.951,276.481 215.951,273.255 C215.951,271.358 215.445,270.22 213.991,268.512 C212.157,266.488 211.84,266.362 209.437,266.741 C207.793,266.931 205.832,267.943 204.251,269.208 C200.583,272.307 200.204,272.686 198.686,275.089 C196.662,278.188 194.638,279.516 190.338,280.275 C184.836,281.287 184.709,281.414 184.077,286.03 C183.571,289.762 183.634,290.457 184.899,292.418 C185.595,293.62 186.227,295.264 186.227,296.086 C186.227,296.845 186.923,298.299 187.808,299.185 L189.452,300.892 L188.504,307.154 C187.998,310.569 187.429,315.691 187.176,318.474 C186.796,324.103 187.049,324.925 192.172,332.514 C196.156,338.459 203.05,354.523 204.757,361.985 C205.769,366.349 205.137,366.728 199.382,364.958 C190.085,362.175 181.231,357.305 173.705,350.791 C171.871,349.21 169.974,348.072 169.531,348.262 C169.088,348.451 168.14,349.59 167.507,350.791 C166.305,353.005 166.305,353.068 167.76,354.206 C168.519,354.839 169.468,356.293 169.847,357.368 C170.29,358.507 171.365,359.708 172.567,360.341 C173.642,360.91 174.717,361.669 174.97,362.048 C175.602,362.997 175.539,373.243 174.843,377.606 C174.527,379.567 174.59,383.045 174.907,385.638 C175.286,388.105 175.602,394.113 175.729,398.919 C175.792,403.726 176.235,411.505 176.614,416.185 C176.994,420.865 177.499,431.553 177.689,439.901 C177.942,448.186 178.258,455.269 178.385,455.522 C179.017,456.534 177.942,458.368 176.361,459.063 C175.476,459.506 172.946,459.822 170.669,459.822 C168.392,459.822 165.926,460.138 165.23,460.518 C164.535,460.897 162.637,461.403 160.993,461.656 C157.388,462.162 156.882,463.617 159.602,465.894 C160.677,466.779 161.562,468.044 161.562,468.676 C161.562,470.321 163.965,471.838 166.432,471.838 C168.582,471.838 169.025,472.091 180.029,479.428 L187.176,484.171 L187.492,487.839 L187.808,491.444 L179.207,491.444 C169.594,491.444 168.709,491.823 169.341,495.238 C169.784,497.452 170.416,497.262 156.503,498.717 C151.443,499.223 146.574,499.792 145.625,499.982 C144.423,500.171 141.324,498.906 134.557,495.491 z M153.657,453.751 C155.87,451.348 154.858,449.703 151.19,449.703 C147.586,449.703 147.016,451.031 149.483,453.561 C150.495,454.573 151.507,455.395 151.76,455.395 C151.949,455.395 152.835,454.636 153.657,453.751 z M186.859,353.511 C186.859,353.068 184.709,350.412 182.053,347.503 C178.511,343.582 176.867,342.19 175.729,342.19 C173.958,342.19 173.072,343.771 174.021,345.289 C174.401,345.858 176.867,348.072 179.523,350.285 C184.014,353.953 186.859,355.155 186.859,353.511 z M190.97,339.534 C190.338,337.447 187.745,333.083 186.543,332.071 C185.848,331.502 185.342,331.439 184.899,331.882 C184.014,332.767 185.595,336.119 188.188,338.902 C190.401,341.305 191.539,341.558 190.97,339.534 z M146.384,310.252 C146.384,308.735 143.285,305.825 142.463,306.648 C142.02,307.09 142.21,307.912 143.158,309.241 C144.676,311.328 146.384,311.833 146.384,310.252 z M283.495,305.319 C286.72,303.865 290.452,301.145 290.894,299.881 C291.463,298.047 291.337,293.43 290.705,291.28 C289.693,288.117 284.254,273.635 283.558,272.307 C283.242,271.611 282.104,270.536 281.092,269.967 C279.827,269.271 279.194,268.386 279.194,267.437 C279.194,266.615 278.435,264.844 277.55,263.516 C276.159,261.429 275.653,261.176 274.198,261.555 C272.174,262.061 271.226,262.061 268.633,261.492 C266.672,261.113 266.546,261.239 263.067,266.488 C259.715,271.611 255.858,275.785 254.53,275.785 C253.581,275.785 253.771,277.113 254.909,278.441 C256.364,279.959 255.288,281.161 251.62,282.046 C248.711,282.805 248.711,282.805 249.723,284.323 C250.292,285.145 250.735,286.41 250.735,287.169 C250.735,287.864 251.62,289.319 252.632,290.457 C253.707,291.532 254.53,292.671 254.53,292.924 C254.53,294.442 262.814,302.537 266.229,304.308 C270.846,306.774 279.131,307.217 283.495,305.319 z M136.265,298.552 C136.265,297.035 130.004,289.445 128.486,289.192 C126.273,288.75 127.474,291.469 131.269,295.643 C135.316,300.07 136.265,300.576 136.265,298.552 z M156.756,286.6 C157.451,285.524 158.78,267.121 158.59,260.923 C158.463,257.444 158.4,252.764 158.4,250.488 C158.337,244.986 156.945,241.254 154.036,238.472 C149.673,234.487 148.534,227.214 150.495,216.02 C151.064,212.921 152.202,208.621 153.088,206.407 C153.973,204.194 154.605,201.98 154.416,201.538 C154.226,201.095 152.961,200.526 151.57,200.399 C148.534,199.957 144.297,197.237 143.285,195.087 C142.336,192.937 142.4,189.521 143.538,186.802 C144.676,184.146 144.803,174.153 143.791,171.877 C143.222,170.675 143.348,169.916 144.107,168.398 C144.74,167.133 145.119,164.793 145.119,161.821 C145.182,152.461 146.004,149.046 149.42,143.733 C151.127,141.077 153.847,136.65 155.491,133.931 C157.198,131.211 159.222,128.555 160.044,127.986 C161.309,127.164 163.46,126.974 170.29,126.911 C178.638,126.848 178.954,126.784 179.144,125.456 C179.397,123.559 177.057,122.104 173.578,122.104 C170.606,122.104 167.887,120.776 167.887,119.258 C167.887,118.816 166.875,117.235 165.61,115.717 C164.408,114.199 162.637,111.606 161.815,109.962 C160.93,108.254 159.791,106.673 159.285,106.483 C158.084,106.041 157.009,107.495 157.515,108.95 C157.704,109.519 157.135,111.606 156.25,113.503 C154.985,116.223 154.1,117.298 152.265,118.12 C150.431,119.005 149.673,119.891 149.04,121.725 C147.965,125.14 147.206,125.899 144.993,125.899 C142.4,125.899 140.882,126.848 139.68,129.188 C138.668,131.085 138.668,134.879 139.68,137.346 C140.249,138.674 138.542,140.382 136.202,140.887 C133.988,141.33 133.862,142.658 135.759,144.682 C137.783,146.896 137.467,149.489 134.304,155.939 C132.154,160.366 130.889,162.074 128.676,163.781 C126.462,165.426 125.767,166.438 125.45,168.208 C125.261,169.473 124.881,171.307 124.565,172.256 C124.122,174.027 124.122,174.027 126.273,173.647 C127.917,173.331 128.676,173.521 129.561,174.533 C130.636,175.734 130.636,175.987 129.372,181.49 C128.676,184.652 127.095,189.901 125.893,193.063 C124.692,196.288 123.553,199.64 123.3,200.462 C123.047,201.221 122.162,202.929 121.34,204.131 C120.517,205.332 119.253,207.925 118.557,209.886 C117.798,211.846 116.407,214.376 115.458,215.388 C111.41,219.752 110.652,221.459 110.588,226.329 C110.525,229.934 110.715,231.072 111.474,231.325 C112.675,231.831 115.395,237.649 115.395,239.863 C115.395,240.748 115.079,243.025 114.636,244.796 C113.75,248.717 114.193,249.223 118.81,249.223 C122.415,249.223 122.288,249.096 134.051,262.82 C138.226,267.69 143.095,273.255 144.803,275.216 C146.574,277.113 149.609,280.591 151.633,282.931 C155.301,287.105 156.123,287.675 156.756,286.6 z M145.751,283.564 C145.751,281.667 138.731,273.255 137.087,273.255 C135.696,273.255 136.139,275.532 137.973,277.809 C142.842,283.88 145.751,286.03 145.751,283.564 z M121.087,281.097 C121.087,279.2 113.371,271.295 112.422,272.243 C111.727,272.939 119.063,281.477 120.391,281.477 C120.77,281.477 121.087,281.287 121.087,281.097 z M192.172,277.429 C194.385,276.544 196.536,274.077 195.966,273.129 C195.397,272.243 192.931,272.56 190.97,273.888 C189.958,274.583 188.63,275.153 188.061,275.153 C186.48,275.153 185.468,276.67 186.354,277.556 C187.365,278.568 189.579,278.504 192.172,277.429 z M90.098,274.267 C91.995,273.066 94.461,271.548 95.473,270.915 C96.548,270.283 98.066,268.449 98.952,266.804 L100.533,263.832 L99.015,262.251 C98.129,261.366 96.991,260.607 96.422,260.607 C95.853,260.607 94.145,261.871 92.627,263.453 C91.109,265.034 88.58,266.741 87.125,267.31 C83.457,268.702 80.042,267.753 76.627,264.338 C73.401,260.986 72.01,261.239 72.263,265.034 C72.579,269.208 74.224,272.054 77.702,274.394 C81.939,277.24 85.418,277.176 90.098,274.267 z M257.059,270.599 C258.261,269.271 258.704,268.196 257.945,268.196 C257.059,268.196 255.099,269.587 254.53,270.726 C253.581,272.496 255.352,272.433 257.059,270.599 z M131.206,267.057 C131.206,266.235 128.676,263.136 124.755,259.089 C122.731,257.065 121.087,255.8 121.087,256.306 C121.087,256.812 121.656,257.761 122.415,258.456 C123.11,259.089 124.944,261.429 126.526,263.579 C128.992,267.057 131.206,268.702 131.206,267.057 z M253.518,264.464 C255.225,262.63 255.415,260.607 253.897,260.607 C252.822,260.607 250.103,263.832 250.103,265.097 C250.103,266.868 251.494,266.551 253.518,264.464 z M89.212,261.808 C91.236,260.101 90.667,256.812 88.39,256.812 C86.999,256.812 81.244,261.176 81.244,262.251 C81.244,264.528 86.303,264.211 89.212,261.808 z M197.674,260.354 C200.267,257.887 200.71,257.002 201.658,253.017 C202.986,247.136 203.05,240.622 201.785,240.179 C201.279,239.989 199.192,239.61 197.105,239.357 C193.753,238.977 193.247,239.104 192.045,240.432 C190.464,242.076 190.211,243.405 189.769,252.512 C189.452,259.089 189.516,259.405 191.033,261.239 C191.919,262.251 193.121,263.136 193.753,263.136 C194.322,263.136 196.093,261.871 197.674,260.354 z M82.129,254.219 C83.836,252.195 84.089,251.31 83.267,249.982 C82.635,249.096 79.409,248.021 78.271,248.401 C77.259,248.78 75.994,253.334 76.5,254.915 C77.133,256.939 80.168,256.559 82.129,254.219 z M315.116,252.322 C315.18,251.5 315.875,249.666 316.634,248.211 C318.342,244.922 317.899,242.456 314.863,237.839 C312.46,234.234 311.006,230.819 310.183,226.898 C309.235,222.092 307.654,222.661 306.705,228.163 C306.389,230.187 306.642,231.705 308.033,235.12 C308.919,237.46 310.247,240.369 310.942,241.507 C312.017,243.215 312.144,244.1 311.701,246.567 C311.132,250.298 311.322,251.753 312.587,253.207 C313.852,254.599 314.863,254.282 315.116,252.322 z M267.241,247.958 C268.822,247.073 268.759,244.986 267.178,244.48 C265.471,243.91 264.016,245.175 264.016,247.073 C264.016,248.717 265.154,249.033 267.241,247.958 z M71.441,243.91 C72.073,242.013 71.251,240.053 69.797,240.053 C68.848,240.053 68.215,243.531 68.848,245.239 C69.417,246.567 70.682,245.934 71.441,243.91 z M322.326,231.705 C322.959,231.135 323.464,229.934 323.464,228.985 C323.464,228.036 324.287,226.013 325.299,224.495 C326.69,222.408 327.006,221.522 326.563,220.637 C325.678,218.929 322.453,219.182 320.619,221.08 C319.227,222.408 319.037,223.167 319.037,226.961 C319.037,229.428 319.354,231.578 319.796,232.021 C320.745,232.969 320.935,232.969 322.326,231.705 z M308.286,217.918 C308.286,217.032 308.033,216.336 307.717,216.336 C307.464,216.336 307.337,217.032 307.527,217.918 C307.654,218.803 307.907,219.499 308.033,219.499 C308.16,219.499 308.286,218.803 308.286,217.918 z M292.412,168.651 C293.234,167.639 292.665,159.607 291.716,159.038 C290.199,158.09 287.036,163.592 287.669,166.058 C288.428,169.031 290.958,170.422 292.412,168.651 z M298.041,150.058 C298.23,148.793 298.041,148.603 296.776,148.793 C295.827,148.919 295.258,149.489 295.132,150.437 C294.942,151.702 295.132,151.892 296.396,151.702 C297.345,151.576 297.914,151.006 298.041,150.058 z" fill="#000000"/>
  </g>
</svg>
