<?xml version="1.0" encoding="UTF-8"?>
<!DOCTYPE svg PUBLIC "-//W3C//DTD SVG 1.1//EN" "http://www.w3.org/Graphics/SVG/1.1/DTD/svg11.dtd">
<svg version="1.1" xmlns="http://www.w3.org/2000/svg" xmlns:xlink="http://www.w3.org/1999/xlink" x="0" y="0" width="500" height="500" viewBox="0, 0, 500, 500">
  <g id="layer101">
    <path d="M217.812,497.296 C210.429,495.524 199.503,493.162 193.892,491.981 C187.1,490.799 179.422,486.074 171.448,477.511 C156.388,462.155 153.73,457.134 151.368,438.825 C149.596,423.765 139.26,398.959 130.696,388.328 C123.018,378.878 112.682,363.227 98.508,340.488 C84.038,317.159 77.541,296.192 77.246,271.977 C77.246,259.279 76.064,255.44 71.34,252.782 C68.091,251.011 63.957,247.467 61.89,245.104 C56.279,238.312 57.165,220.299 63.662,212.325 C66.615,208.486 74.588,194.902 81.38,182.499 C88.467,169.801 94.964,158.875 96.441,157.989 C97.622,157.103 98.803,142.338 99.098,124.915 C99.394,107.196 100.28,88.297 101.166,82.686 C105.3,56.108 126.857,21.557 143.099,15.061 C172.039,3.839 198.321,0 250,0 C301.679,0 327.961,3.839 356.901,15.061 C373.143,21.557 394.7,56.108 398.834,82.686 C399.72,88.297 400.606,107.196 400.902,124.915 C401.197,142.338 402.378,157.103 403.559,157.989 C405.036,158.875 411.533,169.801 418.62,182.499 C425.412,194.902 433.385,208.486 436.338,212.325 C442.835,220.299 443.721,238.312 438.11,245.104 C436.043,247.467 431.909,251.011 428.66,252.782 C423.936,255.44 422.754,259.279 422.754,271.977 C422.459,296.192 415.962,317.159 401.492,340.488 C387.318,363.227 376.982,378.878 369.304,388.328 C360.74,398.959 350.404,423.765 348.632,438.825 C346.27,457.134 343.612,462.155 328.552,477.511 C320.578,486.074 313.196,490.799 306.108,491.981 C300.497,492.867 291.638,494.934 286.323,496.706 C272.443,500.84 233.463,501.135 217.812,497.296 z M221.651,461.859 C225.785,458.02 226.375,446.208 226.375,379.764 C226.375,291.467 226.966,293.83 200.979,289.105 C185.033,286.152 180.898,288.219 174.697,303.28 C168.791,317.454 161.408,315.092 157.274,297.669 C154.616,285.857 145.757,279.065 128.629,275.226 C120.36,273.159 112.387,271.682 110.911,271.682 C107.072,271.682 107.662,299.441 111.797,309.186 C118.589,324.837 141.918,364.704 151.368,376.516 C163.18,391.576 173.22,411.362 173.22,419.631 C173.22,428.194 183.556,449.456 190.939,456.249 C193.892,458.906 200.979,462.45 206.295,463.631 C211.61,464.812 216.335,465.994 216.63,466.289 C216.926,466.584 219.288,464.517 221.651,461.859 z M309.061,456.249 C316.444,449.456 326.78,428.194 326.78,419.631 C326.78,411.362 336.82,391.576 348.632,376.516 C358.082,364.704 381.411,324.837 388.203,309.186 C392.338,299.441 392.928,271.682 389.089,271.682 C387.613,271.682 379.64,273.159 371.371,275.226 C354.243,279.065 345.384,285.857 342.726,297.669 C338.592,315.092 331.209,317.454 325.303,303.28 C319.102,288.219 314.967,286.152 299.021,289.105 C273.034,293.83 273.625,291.467 273.625,379.764 C273.625,467.175 273.92,468.061 292.819,463.631 C298.726,462.155 306.108,458.906 309.061,456.249 z M316.444,252.782 C329.437,250.42 347.156,245.695 356.015,242.742 C379.935,234.473 386.432,220.594 363.102,227.386 C309.357,243.037 190.643,243.037 136.898,227.386 C113.568,220.594 120.065,234.473 143.985,242.742 C152.844,245.695 172.039,250.42 186.509,252.782 C201.274,255.44 213.677,258.098 214.563,258.984 C217.516,261.937 293.41,257.507 316.444,252.782 z M220.469,200.808 C224.899,196.379 226.375,191.063 226.375,180.137 C226.375,165.962 226.08,165.372 220.469,168.325 C206.295,176.003 177.65,156.217 179.717,139.975 C181.194,127.277 197.731,117.237 213.973,119.304 L226.375,121.076 L226.375,74.417 C226.375,42.819 225.194,26.578 222.832,24.215 C220.765,22.148 214.563,21.557 205.999,22.739 C190.053,24.806 182.08,28.349 176.764,36.027 C172.334,41.934 164.066,42.819 155.502,38.39 C147.233,33.96 142.804,36.913 131.582,55.222 L121.542,72.055 L120.36,121.666 C120.065,149.13 120.36,174.821 121.246,178.956 C122.723,183.976 127.153,188.11 135.421,191.949 C150.186,198.446 154.616,197.265 159.932,184.271 C162.294,178.66 165.542,174.231 167.314,174.231 C169.086,174.231 172.925,180.137 176.173,187.224 C179.126,194.312 184.147,201.694 187.1,203.466 C196.254,208.782 213.973,207.305 220.469,200.808 z M312.31,203.466 C315.558,201.694 320.874,194.607 323.827,187.224 C327.075,180.137 330.914,174.231 332.686,174.231 C334.458,174.231 337.706,178.66 340.068,184.271 C345.384,197.265 349.814,198.446 364.579,191.949 C372.848,188.11 377.277,183.976 378.754,178.956 C379.64,174.821 379.935,149.13 379.64,121.666 L378.458,72.055 L368.418,55.222 C357.196,36.913 352.767,33.96 344.498,38.39 C335.934,42.819 327.666,41.934 323.236,36.027 C317.921,28.349 309.947,24.806 294.001,22.739 C285.437,21.557 279.235,22.148 277.168,24.215 C274.806,26.578 273.625,42.819 273.625,74.417 L273.625,121.076 L286.323,119.304 C302.269,117.237 318.806,127.277 320.283,139.975 C322.35,156.217 293.705,176.003 279.531,168.325 C273.92,165.372 273.625,165.962 273.625,180.137 C273.625,191.063 275.101,196.379 279.531,200.808 C286.027,207.305 302.565,208.782 312.31,203.466 z" fill="#000000"/>
  </g>
</svg>
