<?xml version="1.0" encoding="UTF-8"?>
<!DOCTYPE svg PUBLIC "-//W3C//DTD SVG 1.1//EN" "http://www.w3.org/Graphics/SVG/1.1/DTD/svg11.dtd">
<svg version="1.1" xmlns="http://www.w3.org/2000/svg" xmlns:xlink="http://www.w3.org/1999/xlink" x="0" y="0" width="500" height="500" viewBox="0, 0, 500, 500">
  <g id="layer101">
    <path d="M310.305,465.862 L307.309,465.612 L307.684,462.055 C307.933,460.12 308.246,457.373 308.433,456 C308.745,453.815 308.558,453.254 306.935,451.756 C304.625,449.571 301.629,449.072 298.571,450.32 C296.261,451.319 296.199,451.444 296.199,454.627 C296.199,460.993 296.573,460.681 287.148,460.681 C282.654,460.681 275.039,460.494 270.358,460.244 L261.744,459.87 L262.119,457.311 C262.368,455.875 262.93,452.317 263.492,449.384 L264.491,443.953 L277.037,438.086 C288.272,432.781 289.645,432.032 289.832,430.596 C289.957,429.285 289.645,428.786 288.272,428.099 C286.587,427.288 286.524,427.038 286.212,421.982 C286.025,418.362 285.588,416.177 284.839,415.116 C284.09,414.118 283.715,412.432 283.715,410.185 C283.715,407.439 283.466,406.565 282.217,405.442 C281.343,404.63 280.345,402.82 279.97,401.384 C279.346,399.137 279.408,398.576 280.407,397.14 C281.281,395.829 281.531,394.019 281.656,388.589 C281.78,381.66 280.969,372.423 279.97,369.551 C279.658,368.677 279.284,365.494 279.096,362.498 L278.784,357.005 L280.969,355.695 C283.715,354.072 283.528,352.823 280.282,351.201 C277.848,349.89 275.102,345.77 275.039,343.211 C274.977,342.649 273.978,340.964 272.73,339.466 C268.86,334.909 267.861,331.976 267.861,325.11 C267.799,319.804 267.612,318.868 266.488,317.745 L265.177,316.434 L261.245,317.682 C254.816,319.804 248.2,319.055 243.456,315.622 C242.457,314.873 240.273,313.5 238.712,312.564 C236.964,311.565 235.529,310.192 235.029,309.068 C234.28,307.196 232.845,306.135 232.221,307.071 C232.096,307.383 232.221,308.507 232.658,309.63 C233.157,311.191 233.157,312.439 232.595,314.686 C232.033,316.871 231.971,318.244 232.47,320.054 C232.845,321.365 233.157,323.3 233.157,324.361 C233.157,325.921 233.469,326.421 234.655,326.733 C235.529,326.92 236.964,326.795 237.901,326.483 C239.087,326.046 240.709,326.046 243.393,326.545 C248.512,327.607 251.071,328.668 252.257,330.54 C253.692,332.787 253.193,334.16 250.571,334.722 C249.323,334.972 247.201,335.783 245.89,336.595 C244.579,337.344 242.207,338.155 240.647,338.342 L237.838,338.655 L237.776,373.921 C237.651,408.5 237.214,418.487 235.841,419.361 C234.156,420.484 225.043,427.662 220.923,431.22 C218.426,433.342 216.117,435.09 215.867,435.09 C214.993,435.09 209.75,429.348 208.19,426.664 C207.378,425.29 205.319,422.544 203.696,420.609 L200.637,417.051 L200.949,404.88 C201.074,398.201 201.012,390.961 200.7,388.776 C200.138,384.844 199.514,367.554 199.202,348.891 C199.077,338.155 198.765,337.156 195.769,337.593 C194.583,337.781 193.022,337.281 191.212,336.22 C189.652,335.346 187.592,334.597 186.531,334.597 C184.284,334.597 182.973,333.287 183.472,331.601 C184.096,329.666 188.278,327.17 192.148,326.358 C195.269,325.672 195.956,325.734 197.516,326.67 C199.576,327.856 202.635,328.044 203.633,327.045 C204.133,326.545 204.133,325.672 203.446,323.862 C202.947,322.488 202.572,320.803 202.572,320.116 C202.572,318.931 202.447,318.931 199.888,320.429 C192.835,324.611 185.969,325.609 179.165,323.674 C175.296,322.488 169.491,318.868 166.432,315.622 C165.246,314.374 163.998,313.375 163.748,313.375 C162.75,313.375 163.249,316.371 164.56,317.994 C165.683,319.43 165.746,319.867 165.121,321.864 C164.435,323.862 164.497,324.298 166.183,326.608 C168.492,329.978 168.554,330.041 169.678,333.599 C170.552,336.283 170.552,336.969 169.803,338.779 C169.303,339.903 168.492,341.026 167.993,341.214 C167.431,341.401 164.934,343.898 162.375,346.769 C158.318,351.325 157.694,352.324 157.319,355.07 C156.82,358.878 157.631,360.813 159.878,360.813 C161.439,360.813 162.063,359.814 163.998,354.259 C164.872,351.637 166.932,350.139 168.867,350.639 C170.552,351.076 170.802,352.324 170.677,358.628 C170.427,367.741 170.552,370.862 171.363,376.105 C171.8,379.101 171.925,383.907 171.738,388.152 C171.426,393.769 171.551,395.58 172.3,397.015 C173.548,399.387 173.485,403.507 172.237,404.568 C169.865,406.503 168.867,409.936 168.867,415.928 L168.867,421.795 L171.613,422.107 C173.111,422.294 177.355,423.855 181.038,425.665 C184.721,427.413 188.528,428.848 189.527,428.848 C190.588,428.848 192.148,429.597 193.459,430.721 C195.269,432.344 195.706,433.28 196.393,436.9 C196.767,439.272 196.955,441.582 196.83,442.081 C196.642,442.518 194.895,443.829 193.022,444.952 L189.589,447.012 L177.543,446.388 C170.864,446.013 164.248,445.701 162.812,445.701 C160.19,445.701 160.128,445.639 160.128,443.579 C160.128,439.709 155.884,438.336 150.141,440.396 C148.706,440.895 146.833,441.332 146.022,441.332 C144.336,441.332 143.088,443.142 143.899,444.453 C144.212,444.952 144.212,445.639 143.899,446.013 C143.65,446.325 143.026,447.823 142.589,449.321 L141.84,451.943 L125.424,451.943 L109.07,451.943 L109.008,446.263 C109.008,443.142 108.821,440.333 108.633,440.083 C107.884,438.898 106.449,440.333 106.074,442.643 C105.825,443.953 105.325,445.077 104.888,445.077 C104.451,445.077 103.765,445.451 103.39,445.951 C102.204,447.386 100.207,447.449 87.599,446.575 C80.982,446.138 75.177,445.763 74.678,445.701 C73.242,445.701 74.99,435.09 76.488,435.09 C76.738,435.09 77.986,434.403 79.235,433.53 C80.483,432.656 82.293,431.782 83.229,431.595 C85.539,431.033 89.221,429.098 92.904,426.601 C97.398,423.48 100.145,422.856 102.704,424.167 C104.639,425.166 104.763,425.166 105.949,423.98 C107.822,422.17 106.948,420.672 102.329,417.613 C98.085,414.804 94.839,410.872 94.215,407.751 C93.965,406.628 94.34,404.755 95.089,402.882 C97.523,396.89 98.334,394.456 99.333,390.024 C99.895,387.528 100.894,384.532 101.58,383.408 C103.203,380.787 106.449,371.174 106.449,369.114 C106.449,368.178 106.823,366.992 107.323,366.493 C108.384,365.245 110.568,358.566 111.692,353.011 C112.878,347.455 114.75,342.025 116.311,339.778 C117.434,338.218 117.497,337.593 116.935,333.349 C116.498,330.041 116.498,327.919 116.997,326.109 C117.934,322.551 121.242,317.869 123.988,316.122 L126.422,314.624 L125.112,311.44 C123.988,308.444 123.926,307.633 124.487,298.957 C124.862,293.839 125.299,289.344 125.486,289.032 C125.673,288.658 126.298,288.408 126.797,288.408 C127.234,288.408 128.794,287.41 130.168,286.161 C132.914,283.664 133.288,281.792 131.728,279.046 C130.168,276.362 130.542,268.122 132.415,262.068 C137.72,245.34 140.279,241.283 146.646,239.41 C150.828,238.162 159.816,237.975 163.187,239.036 C166.307,240.034 172.487,244.216 173.361,245.964 C175.358,250.084 177.605,250.77 180.539,248.211 C182.224,246.713 182.224,246.588 181.35,244.903 C180.539,243.53 179.852,243.093 177.667,242.843 C174.484,242.469 173.111,241.033 174.422,239.473 C174.921,238.911 175.733,238.474 176.294,238.474 C177.418,238.474 181.163,235.54 184.096,232.419 C185.095,231.296 186.406,230.36 186.968,230.36 C188.278,230.36 190.089,228.425 190.089,227.051 C190.089,225.678 188.466,225.304 183.347,225.678 C179.103,225.928 178.791,225.866 177.792,224.368 C174.547,219.749 174.984,219.936 172.175,222.495 C170.739,223.743 168.118,225.304 166.245,225.928 C163.811,226.739 162.687,227.488 162.063,228.862 C160.877,231.296 160.315,231.608 156.633,231.608 C152.201,231.608 147.457,229.361 143.587,225.429 L140.466,222.183 L140.154,216.753 L139.842,211.322 L137.158,211.322 C133.788,211.322 132.539,209.949 133.288,207.14 C133.6,206.142 134.162,204.893 134.537,204.456 C134.911,203.957 135.161,202.833 135.036,201.835 C134.849,200.149 134.662,200.087 131.104,199.775 C128.108,199.525 127.296,199.213 127.171,198.339 C126.797,196.342 127.608,194.407 129.855,191.661 C132.227,188.852 132.539,186.979 131.166,184.295 C130.729,183.359 130.105,180.238 129.918,177.429 C129.668,174.558 129.044,171.063 128.545,169.69 C128.045,168.316 127.671,165.632 127.671,163.822 C127.671,159.64 126.859,159.079 121.866,160.015 C118.807,160.577 117.871,160.514 116.248,159.64 C114.189,158.642 108.134,158.454 106.636,159.391 C106.199,159.703 105.825,161.013 105.825,162.324 C105.825,163.697 105.325,165.757 104.763,166.943 L103.765,169.128 L106.511,171.624 C108.009,172.998 109.882,174.121 110.631,174.184 C112.94,174.184 115.062,175.307 116.186,176.992 C117.06,178.366 117.122,178.927 116.436,181.362 C115.624,184.233 110.631,191.661 109.57,191.661 C109.195,191.661 108.384,192.847 107.76,194.345 C106.449,197.278 105.076,198.776 102.516,199.712 C100.082,200.649 99.832,201.96 101.643,204.331 C102.454,205.455 103.39,207.265 103.578,208.326 C104.264,211.385 107.011,213.32 111.255,213.819 C122.365,215.005 127.421,217.002 128.108,220.56 C128.357,221.684 129.169,222.807 130.23,223.431 C132.727,224.804 134.225,228.113 134.1,231.92 C133.788,240.471 133.476,243.343 132.539,245.028 C131.291,247.275 129.044,249.397 127.296,249.959 C126.61,250.146 125.611,251.02 125.237,251.831 C124.8,252.643 123.738,253.641 122.927,254.016 C121.055,254.827 111.629,257.199 110.131,257.199 C108.696,257.199 107.073,258.822 107.073,260.32 C107.073,260.944 106.137,262.38 105.013,263.566 C103.328,265.189 102.766,266.5 102.142,269.683 C100.894,276.486 99.083,280.668 96.337,283.165 C94.152,285.1 93.528,285.35 91.656,285.1 C88.909,284.601 87.474,283.352 85.788,279.919 C85.102,278.421 84.166,277.173 83.729,277.173 C83.292,277.173 82.605,278.234 82.231,279.545 C81.294,282.541 76.426,288.096 73.305,289.657 C70.559,291.092 69.06,291.217 66.813,290.156 C64.566,289.157 64.005,289.969 63.38,294.962 C62.631,300.829 62.07,301.266 56.39,300.33 C38.226,297.209 35.105,295.773 26.429,286.598 C22.06,281.979 20.749,280.918 19.251,280.918 C18.252,280.918 16.817,280.481 16.068,279.919 C15.069,279.233 13.946,279.108 11.948,279.358 C9.514,279.732 9.139,279.607 7.891,278.047 C6.892,276.798 6.58,275.8 6.83,274.676 C8.203,269.059 8.141,268.497 5.706,266 C3.022,263.254 2.211,260.82 2.211,255.452 C2.211,252.58 1.961,251.457 1.275,251.207 C-0.348,250.583 -0.411,248.523 1.025,239.535 C1.961,233.481 2.835,230.172 3.647,229.049 C4.708,227.613 4.77,227.114 4.084,225.241 C3.397,223.431 3.459,222.807 4.583,220.685 C7.517,214.942 11.636,212.883 20.624,212.446 C24.057,212.321 27.49,212.071 28.239,211.884 C30.424,211.447 31.485,208.576 31.859,201.897 C32.109,198.464 32.359,195.031 32.546,194.22 C32.921,192.597 31.61,192.597 47.901,193.908 C52.457,194.282 52.769,194.22 54.267,192.722 C55.578,191.411 55.89,190.475 55.89,187.978 C55.89,185.356 56.14,184.67 57.825,183.109 C58.824,182.173 60.447,179.864 61.321,177.991 C62.881,174.683 68.249,168.878 70.309,168.254 C71.932,167.755 72.868,164.946 72.369,161.95 C72.057,159.828 72.244,158.766 73.305,157.019 C74.99,154.085 75.053,150.153 73.43,149.216 C72.743,148.904 67.75,148.343 62.319,147.968 C50.085,147.219 38.289,145.846 29.425,144.161 C21.685,142.725 20.312,142.163 20.312,140.54 C20.312,139.167 21.498,138.605 24.494,138.605 C29.238,138.605 37.477,131.927 47.277,120.13 C53.706,112.452 63.817,100.905 65.628,99.157 C66.626,98.284 68.998,96.661 70.871,95.662 C72.743,94.663 76.426,92.666 78.985,91.293 C81.544,89.92 84.665,88.609 85.851,88.359 C87.037,88.109 89.034,87.423 90.22,86.799 C91.406,86.237 93.341,85.55 94.465,85.363 C97.96,84.676 110.256,77.374 111.38,75.314 C113.19,72.006 114.438,71.132 116.623,71.506 C118.495,71.881 118.932,71.631 121.367,69.01 L124.113,66.076 L123.676,58.773 C123.239,51.907 123.302,51.408 124.55,50.284 C125.299,49.598 125.798,48.349 125.798,47.163 C125.798,46.04 126.173,44.791 126.61,44.417 C128.982,42.482 136.035,39.424 139.031,39.049 C142.089,38.675 142.526,38.799 145.023,40.61 C146.833,41.983 147.645,43.044 147.645,44.105 C147.645,44.979 148.394,46.29 149.517,47.288 C150.578,48.224 151.39,49.535 151.39,50.409 C151.39,53.592 154.074,56.838 156.695,56.838 C157.257,56.838 160.44,54.966 163.748,52.719 C170.614,47.975 173.485,46.602 177.855,45.977 C182.037,45.353 182.349,45.166 183.722,42.919 C184.409,41.795 186.219,40.235 187.779,39.424 C190.276,38.05 190.838,37.988 192.148,38.675 C193.397,39.299 195.457,39.361 202.947,38.737 C208.065,38.362 215.43,38.05 219.363,38.113 C225.48,38.175 226.853,38.362 229.349,39.673 C230.972,40.485 232.658,41.608 233.094,42.108 C234.592,43.918 236.215,43.293 237.464,40.422 C238.462,38.113 239.087,37.551 241.646,36.552 C243.331,35.928 245.141,35.054 245.703,34.617 C247.201,33.307 255.565,33.431 257.5,34.805 C259.497,36.178 259.997,36.864 259.997,38.612 C259.997,39.548 260.621,40.422 261.869,41.109 C262.93,41.733 264.054,43.044 264.428,44.167 C264.928,45.79 265.489,46.29 267.362,46.602 C270.608,47.163 272.979,48.786 277.037,53.031 C278.972,55.09 281.343,57.025 282.28,57.213 C283.216,57.462 286.212,58.773 288.834,60.084 C291.767,61.519 294.514,62.456 295.949,62.456 C297.697,62.456 298.571,62.893 299.882,64.391 C304.313,69.759 305.998,71.069 309.182,72.068 C310.992,72.567 313.177,73.566 314.113,74.315 C314.987,75.002 316.422,75.563 317.296,75.563 C318.108,75.563 320.105,75.938 321.728,76.437 C323.288,76.937 327.096,78.123 330.092,79.059 C334.399,80.432 336.895,81.68 341.327,84.864 C346.57,88.609 355.184,96.848 359.678,102.403 C360.614,103.589 364.546,107.709 368.354,111.516 C375.906,119.069 383.147,124.249 386.83,124.749 C389.389,125.061 390.325,125.872 389.389,126.808 C388.64,127.558 379.776,129.056 362.362,131.427 C355.683,132.364 350.003,133.238 349.753,133.362 C349.004,133.862 349.192,135.235 350.065,136.046 C350.565,136.421 351.251,137.856 351.688,139.23 C352.063,140.603 352.999,142.101 353.686,142.538 C355.558,143.661 357.368,147.531 357.368,150.527 C357.368,152.15 357.805,153.648 358.617,154.647 C360.115,156.582 360.177,158.642 358.929,161.138 C357.68,163.448 358.429,166.506 361.176,170.626 C363.61,174.308 364.983,175.057 368.291,174.621 C371.537,174.121 372.973,175.057 374.533,178.553 L375.719,181.174 L378.528,180.8 C382.023,180.363 382.897,180.862 384.52,184.295 C385.706,186.792 386.018,186.979 388.577,187.291 C390.138,187.479 392.073,188.103 392.946,188.727 C394.944,190.1 398.876,190.1 411.422,188.602 C416.853,187.916 424.155,187.167 427.588,186.979 C431.021,186.73 434.829,186.293 436.015,186.043 C437.201,185.731 441.008,185.169 444.441,184.795 C447.874,184.483 456.613,183.484 463.791,182.61 C484.888,180.051 483.889,180.113 485.387,181.424 C486.136,182.048 487.073,183.359 487.572,184.295 C488.196,185.481 489.007,186.043 490.443,186.168 C492.191,186.293 492.565,186.667 492.815,188.165 C493.065,189.538 493.876,190.475 495.936,191.661 C498.682,193.283 498.745,193.346 498.807,196.716 C498.807,198.589 499.182,200.836 499.556,201.772 C500.43,203.894 500.055,205.018 498.058,206.329 C496.935,207.015 496.56,207.889 496.56,209.45 C496.56,210.885 496.123,211.884 495.124,212.695 C494.313,213.32 493.314,214.506 492.877,215.255 C492.44,216.066 490.88,217.938 489.382,219.561 C487.447,221.559 486.324,222.308 485.575,221.996 C484.888,221.746 484.014,222.058 483.14,222.87 C482.079,223.868 480.768,224.18 476.836,224.368 C474.152,224.43 471.406,224.742 470.844,224.992 C470.22,225.304 469.283,225.366 468.784,225.117 C468.285,224.929 467.161,225.054 466.35,225.429 C465.351,225.928 464.54,225.928 463.728,225.491 C462.854,225.054 462.105,225.054 461.294,225.553 C460.607,225.928 459.109,226.302 457.861,226.365 C450.87,226.989 448.686,226.989 447.812,226.552 C447.188,226.24 446.314,226.427 445.565,226.927 C444.878,227.426 443.505,227.801 442.506,227.863 C441.508,227.863 439.448,227.988 437.887,228.113 C432.644,228.674 426.34,229.174 423.094,229.299 C421.347,229.361 419.661,229.673 419.412,229.923 C419.162,230.172 417.851,230.36 416.54,230.36 C414.044,230.36 411.672,232.045 411.672,233.793 C411.672,235.54 408.925,236.477 402.621,236.851 C397.441,237.226 396.005,237.538 394.07,238.786 C392.759,239.66 391.448,240.346 391.136,240.346 C389.826,240.346 388.577,243.218 388.577,246.276 C388.577,253.641 383.147,258.198 375.157,257.574 C370.164,257.199 366.169,255.389 362.362,251.831 C360.676,250.271 358.991,249.147 358.679,249.397 C358.242,249.647 357.993,253.017 357.993,258.323 C357.993,269.683 357.368,271.368 352.063,274.364 C348.942,276.049 347.444,276.549 344.885,276.549 C341.327,276.549 340.141,276.049 336.458,273.116 C333.525,270.307 333.4,269.496 330.841,265.314 C329.655,263.316 327.907,260.133 327.033,258.198 L325.473,254.703 L320.167,254.703 C313.863,254.703 313.613,254.39 312.115,246.9 C311.554,244.154 310.555,240.534 309.931,238.786 C309.307,237.101 308.62,234.666 308.37,233.356 C308.058,231.109 307.122,230.36 304.937,230.36 C304.376,230.36 303.502,229.985 303.065,229.486 C302.441,228.674 298.82,212.383 297.884,205.892 C297.322,202.022 298.321,201.46 311.054,199.088 C318.357,197.715 319.918,196.904 319.918,194.594 C319.918,192.222 321.665,190.412 323.912,190.412 C326.097,190.412 327.283,191.411 328.531,194.407 C329.28,196.092 329.53,196.155 331.964,195.843 C334.024,195.531 335.148,194.906 337.332,192.597 L340.079,189.663 L336.334,186.293 C334.211,184.42 332.214,182.048 331.839,180.987 C331.278,179.302 331.34,178.927 332.713,177.554 C334.586,175.682 334.648,174.745 333.025,173.247 C332.401,172.686 331.527,171.125 331.09,169.877 C330.716,168.628 329.031,166.381 327.408,164.821 C325.098,162.699 324.287,161.45 323.975,159.515 C323.351,155.583 322.914,155.146 319.481,155.084 C317.795,155.021 314.612,154.834 312.428,154.584 C309.119,154.21 308.37,154.272 307.184,155.333 C305.374,156.956 297.759,161.076 296.636,161.076 C294.514,161.076 293.702,162.886 293.702,167.567 C293.702,171 293.452,172.373 292.703,172.998 C292.204,173.435 289.271,173.934 286.212,174.184 C282.966,174.433 280.22,174.933 279.658,175.432 C277.91,176.93 274.54,184.295 274.103,187.791 C273.604,191.598 273.604,191.598 281.281,193.221 C284.589,193.908 286.462,194.657 287.398,195.655 C289.271,197.653 290.456,203.333 290.269,209.949 L290.207,215.442 L286.462,219.187 C284.464,221.247 282.03,223.369 281.094,223.868 C278.909,224.992 273.791,224.992 272.23,223.806 C271.544,223.306 270.483,222.87 269.921,222.87 C269.297,222.87 268.236,222.058 267.487,220.997 C266.426,219.561 265.677,219.124 263.991,219.124 C261.557,219.124 257.812,217.751 256.127,216.191 C254.753,214.942 253.131,215.567 253.131,217.377 C253.131,218.188 252.694,219.437 252.194,220.186 C251.32,221.434 250.384,221.746 243.269,222.745 C241.396,223.057 239.711,223.619 239.399,224.118 C238.587,225.429 239.836,227.176 241.771,227.551 C243.768,227.988 243.768,227.988 248.824,231.795 C250.946,233.418 253.255,234.729 253.88,234.729 C255.315,234.729 256.002,236.352 255.066,237.475 C254.691,237.912 253.505,238.474 252.506,238.661 C249.947,239.223 248.324,241.782 249.261,243.842 C250.072,245.59 252.694,246.776 254.441,246.276 C255.128,246.027 256.189,244.841 256.813,243.592 C258.374,240.596 260.621,238.536 265.302,235.915 C268.797,233.98 269.484,233.793 275.851,233.605 C287.648,233.168 289.583,234.417 294.326,245.465 C296.136,249.709 298.508,254.328 299.694,255.701 L301.816,258.323 L301.442,273.366 C301.255,281.667 300.88,289.095 300.631,289.844 C299.819,291.966 301.13,295.399 303.439,297.521 C304.625,298.645 305.562,300.08 305.562,300.767 C305.562,302.577 307.933,305.261 309.556,305.261 C313.426,305.261 314.862,306.447 317.359,311.752 C320.292,317.807 321.041,322.488 319.668,326.358 C318.732,328.917 318.732,328.98 320.292,330.041 C321.166,330.603 322.914,332.6 324.162,334.535 C325.972,337.344 326.409,338.655 326.472,341.151 C326.472,343.523 326.721,344.272 327.408,344.272 C328.032,344.272 328.469,343.461 328.656,341.775 C328.906,339.84 329.28,339.216 330.591,338.717 C333.899,337.593 335.148,338.53 337.956,344.397 C339.454,347.455 340.765,350.764 340.952,351.762 C341.389,354.072 342.201,355.757 343.699,357.38 C345.134,359.003 352.999,374.794 352.999,376.105 C352.999,377.541 355.121,381.536 356.619,382.846 C357.306,383.471 358.242,384.844 358.679,385.842 C359.303,387.528 359.241,387.965 358.055,389.525 C356.307,391.959 356.37,393.083 358.617,397.202 C359.678,399.137 360.489,401.26 360.489,401.946 C360.489,403.507 358.242,405.129 355.995,405.129 C355.059,405.129 354.185,405.317 353.998,405.629 C353.436,406.565 355.433,410.061 357.368,411.496 C361.925,414.804 363.236,419.111 360.24,421.046 C359.491,421.545 356.245,422.045 352.749,422.232 C349.316,422.482 346.383,422.794 346.196,422.981 C345.384,423.792 347.506,425.54 350.565,426.539 C354.497,427.912 355.496,428.599 355.496,430.097 C355.496,430.721 356.245,432.094 357.119,433.155 C359.054,435.465 362.237,435.777 364.671,433.842 C365.545,433.155 366.793,432.593 367.418,432.593 C368.104,432.593 374.096,435.34 380.837,438.71 L393.009,444.765 L392.822,452.068 C392.697,456.062 392.447,459.495 392.197,459.745 C392.01,459.932 384.395,459.932 375.345,459.62 L358.929,459.121 L358.742,454.939 C358.554,450.944 358.429,450.632 356.744,449.758 C354.185,448.447 353.186,448.572 348.318,451.194 L343.949,453.503 L343.949,457.373 L343.949,461.243 L340.578,463.74 L337.145,466.299 L325.286,466.174 C318.732,466.112 311.991,465.987 310.305,465.862 z M307.247,425.977 C307.933,424.042 306.061,423.355 299.632,423.106 C294.202,422.919 293.39,423.043 293.203,423.98 C292.828,425.79 296.012,426.913 301.692,426.976 C305.811,426.976 306.935,426.788 307.247,425.977 z M312.365,411.434 C313.426,410.747 312.802,408.875 311.554,408.875 C310.243,408.875 306.186,410.872 306.186,411.496 C306.186,412.183 311.242,412.12 312.365,411.434 z M345.447,410.81 C346.445,410.123 345.946,407.564 344.51,406.128 C342.825,404.443 338.019,405.254 338.019,407.189 C338.019,409.187 340.141,410.56 344.261,411.309 C344.448,411.309 344.947,411.122 345.447,410.81 z M119.869,354.571 C120.118,353.822 119.931,352.823 119.494,352.324 C118.807,351.513 118.62,351.513 117.809,352.262 C116.748,353.323 117.309,355.819 118.62,355.819 C119.12,355.819 119.681,355.258 119.869,354.571 z M226.915,326.171 C226.603,324.86 226.603,320.179 226.915,318.057 C226.978,317.37 226.728,315.435 226.229,313.812 C225.542,311.378 225.542,310.629 226.229,309.505 C226.728,308.632 226.79,308.007 226.416,307.633 C225.979,307.196 224.98,308.195 223.42,310.629 C220.049,315.997 215.181,320.865 213.121,320.865 C211.061,320.865 210.312,321.739 209.75,324.735 L209.313,327.045 L212.06,327.294 C213.495,327.419 217.552,327.482 220.985,327.482 C226.915,327.419 227.227,327.357 226.915,326.171 z M192.46,316.996 C196.58,315.435 200.824,312.252 201.573,310.13 C202.01,308.881 201.886,307.82 201.074,306.01 C200.2,304.075 200.075,302.764 200.388,299.956 L200.887,296.335 L197.828,296.772 C196.143,297.022 194.021,297.334 193.085,297.459 C192.086,297.521 191.025,297.646 190.713,297.708 C190.338,297.708 189.527,298.645 188.903,299.768 C187.966,301.266 187.779,302.39 188.029,304.637 C188.466,308.382 186.718,312.564 183.597,314.998 C180.976,317.12 180.851,317.557 182.786,318.369 C184.533,319.118 188.216,318.556 192.46,316.996 z M180.289,312.689 C182.099,311.877 184.471,307.883 184.471,305.76 C184.471,304.949 184.096,303.701 183.597,303.014 C182.723,301.828 182.598,301.828 179.478,302.952 C176.981,303.825 175.358,304.013 171.987,303.638 C168.18,303.264 167.618,303.388 167.244,304.325 C166.62,305.823 168.554,309.256 171.551,311.94 C173.735,313.875 174.297,314.062 176.419,313.75 C177.73,313.563 179.478,313.063 180.289,312.689 z M259.684,310.754 C261.807,309.63 265.302,305.074 265.926,302.639 C266.613,299.956 264.99,299.269 260.683,300.455 C257.313,301.391 256.751,301.391 253.505,300.455 C250.259,299.519 249.885,299.519 248.949,300.455 C248.387,301.017 247.825,302.889 247.638,304.762 C247.388,307.695 247.575,308.382 249.011,310.067 C251.32,312.814 255.19,313.063 259.684,310.754 z M244.392,305.636 C244.392,304.137 244.579,302.078 244.767,301.017 C245.328,298.395 243.331,296.523 240.023,296.523 C236.652,296.523 236.403,297.521 238.462,301.953 C241.458,308.569 244.392,310.379 244.392,305.636 z M270.857,306.135 C271.419,305.948 271.856,305.323 271.856,304.824 C271.856,303.576 269.734,304.075 269.484,305.448 C269.234,306.634 269.422,306.697 270.857,306.135 z M167.993,295.461 C168.804,294.463 170.302,292.84 171.238,291.841 C172.362,290.53 174.172,289.532 176.669,288.845 C184.783,286.473 187.155,285.537 187.467,284.788 C187.779,283.852 184.658,280.294 183.535,280.294 C183.098,280.294 182.162,280.856 181.35,281.542 C180.601,282.229 179.478,282.915 178.853,283.103 C178.229,283.29 177.293,284.164 176.731,284.975 C176.169,285.849 175.171,286.536 174.484,286.536 C173.798,286.536 172.05,286.785 170.614,287.16 C169.116,287.472 167.181,287.909 166.307,288.096 C165.246,288.283 164.435,289.032 163.998,290.093 C162.562,293.839 162.562,294.588 163.811,295.836 C165.496,297.521 166.12,297.459 167.993,295.461 z M258.124,284.788 C258.124,284.164 257.687,283.103 257.188,282.354 C256.127,280.793 250.946,277.797 249.448,277.797 C248.075,277.797 245.016,280.98 245.016,282.291 C245.016,283.477 245.765,283.789 251.196,284.601 C253.38,284.975 255.315,285.412 255.502,285.599 C256.314,286.348 258.124,285.849 258.124,284.788 z M96.15,273.303 C98.147,266.375 97.024,265.189 92.592,269.62 C89.596,272.616 89.471,272.929 89.908,275.113 C90.158,276.424 90.782,277.984 91.344,278.609 C92.342,279.732 92.405,279.732 93.778,278.172 C94.527,277.235 95.588,275.051 96.15,273.303 z M349.129,269.496 C352.625,266.624 354.435,255.576 351.751,253.142 C350.627,252.143 349.691,252.081 341.951,252.456 C337.27,252.705 333.15,253.08 332.901,253.205 C331.964,253.829 332.401,256.138 334.336,260.133 C338.518,268.934 344.947,272.991 349.129,269.496 z M381.087,251.27 C382.086,250.084 381.649,247.15 380.338,246.339 C379.527,245.839 378.965,246.027 377.779,247.088 C375.407,249.335 373.16,248.898 370.226,245.652 C367.542,242.718 365.857,242.157 365.233,243.842 C364.234,246.401 365.607,248.461 370.039,251.207 C373.659,253.454 379.277,253.454 381.087,251.27 z M75.302,195.156 C76.114,192.16 75.24,181.611 74.116,181.174 C72.868,180.737 69.872,184.42 68.873,187.541 C68.436,188.914 67.063,191.161 65.752,192.534 C64.442,193.908 63.568,195.218 63.817,195.468 C64.442,196.03 71.245,197.216 73.305,197.029 C74.428,196.966 74.99,196.467 75.302,195.156 z" fill="#000000"/>
  </g>
</svg>
