<?xml version="1.0" encoding="UTF-8"?>
<!DOCTYPE svg PUBLIC "-//W3C//DTD SVG 1.1//EN" "http://www.w3.org/Graphics/SVG/1.1/DTD/svg11.dtd">
<svg version="1.1" xmlns="http://www.w3.org/2000/svg" xmlns:xlink="http://www.w3.org/1999/xlink" x="0" y="0" width="500" height="500" viewBox="0, 0, 500, 500">
  <g id="layer101">
    <path d="M345.054,499.531 L337.957,499.264 L337.489,495.447 C337.221,493.104 336.484,490.962 335.614,489.958 C334.342,488.418 333.739,488.284 327.781,488.083 C321.354,487.815 321.22,487.815 320.082,485.874 C318.743,483.664 317.337,483.396 315.462,485.137 C314.391,486.141 312.249,486.342 300.666,486.61 C293.302,486.878 288.548,487.079 290.222,487.213 L284.464,486.677 L282.657,485.003 C280.38,482.861 280.113,478.777 282.188,476.902 C284.063,475.229 296.582,470.475 300.599,469.939 C302.474,469.672 305.286,468.734 306.96,467.931 C309.504,466.592 310.24,466.458 311.981,467.128 C313.119,467.529 314.726,467.864 315.462,467.864 C316.801,467.864 319.01,465.989 319.01,464.784 C319.01,464.45 319.948,463.044 321.086,461.638 C322.894,459.495 323.496,459.161 326.04,459.161 C329.99,459.161 332.4,458.156 332.4,456.55 C332.4,454.474 330.325,453.805 324.433,453.805 C321.488,453.805 317.672,453.47 315.998,453.001 C313.521,452.332 312.449,452.399 309.704,453.269 C306.893,454.139 306.156,454.206 305.085,453.403 C302.876,451.863 302.139,441.62 303.947,438.808 C304.951,437.268 304.683,429.97 303.009,416.982 C302.608,413.836 302.139,408.948 301.871,406.069 C301.537,401.45 301.269,400.646 299.193,398.102 C297.854,396.562 296.984,394.956 297.252,394.353 C298.926,389.867 299.059,387.591 297.653,382.101 C296.85,379.022 296.248,375.674 296.248,374.67 C296.248,371.791 298.725,369.716 302.809,369.113 C305.152,368.845 306.29,368.31 306.29,367.707 C306.29,367.171 306.022,366.77 305.754,366.77 C304.549,366.77 297.787,361.146 295.377,358.2 C291.963,353.915 290.289,349.162 290.088,343.136 C289.954,338.785 290.088,337.78 291.427,336.04 C293.302,333.429 293.369,331.286 291.561,331.286 C290.758,331.286 288.615,332.09 286.674,333.027 C277.836,337.58 265.518,340.124 260.028,338.651 C255.81,337.513 253.467,336.174 250.521,333.228 C247.575,330.215 246.303,329.947 245.232,332.291 C244.696,333.563 244.696,334.634 245.299,336.642 C245.901,338.651 245.901,339.99 245.366,341.998 C244.964,343.471 244.763,344.944 244.964,345.279 C245.433,345.948 250.989,345.614 252.596,344.743 C253.333,344.342 255.341,344.542 258.555,345.413 C264.246,346.819 266.053,347.689 267.593,349.631 C268.798,351.037 269.2,353.982 268.329,354.116 C267.995,354.183 266.589,354.25 265.049,354.317 C263.509,354.384 260.965,355.254 259.224,356.259 C256.747,357.732 255.542,357.999 253.801,357.732 C252.328,357.397 251.391,357.531 251.056,358.066 C250.789,358.535 250.521,378.687 250.454,402.923 L250.387,446.909 L248.713,449.252 C247.776,450.524 244.629,453.671 241.683,456.215 C238.738,458.759 235.926,461.303 235.524,461.972 C234.587,463.178 226.352,468.534 225.348,468.534 C224.611,468.534 220.795,463.914 218.72,460.5 C217.983,459.228 215.305,456.215 212.895,453.805 C210.418,451.394 208.142,448.984 207.874,448.382 C207.07,446.976 206.2,411.024 206.2,380.695 C206.2,367.573 205.999,356.66 205.798,356.459 C205.597,356.259 204.459,356.459 203.321,356.861 C201.447,357.598 200.777,357.464 197.63,355.857 C195.622,354.853 193.212,354.049 192.207,354.049 C189.73,354.049 187.789,352.911 187.789,351.438 C187.789,349.095 192.542,346.283 198.835,344.944 C202.116,344.275 203.12,344.275 204.66,345.078 C207.07,346.35 211.154,346.283 211.623,345.011 C211.824,344.475 211.69,343.003 211.221,341.664 C210.619,339.923 210.619,338.718 211.154,337.178 C211.556,336.04 211.757,334.969 211.556,334.768 C211.422,334.567 209.347,335.705 207.07,337.178 C197.831,343.203 191.002,344.944 183.035,343.404 C177.545,342.266 172.725,339.454 167.704,334.433 L163.62,330.282 L161.946,332.157 C161.076,333.161 160.339,334.902 160.339,335.906 C160.339,338.517 161.946,342.869 163.821,345.346 C165.227,347.287 165.361,348.024 165.16,353.581 C164.892,359.606 164.825,359.807 161.812,364.56 C159.469,368.176 158.063,369.649 156.255,370.385 C153.042,371.657 152.64,372.327 151.167,378.285 C149.828,383.641 150.029,384.846 152.305,384.846 C153.979,384.846 155.519,382.838 156.724,379.089 C158.666,373.398 162.08,370.921 166.566,372.193 C170.583,373.264 170.783,374.067 169.378,381.164 C168.306,386.855 168.239,390.202 169.311,392.88 C169.578,393.483 168.641,395.357 167.034,397.433 C164.022,401.517 163.151,404.73 164.222,408.613 C164.825,410.89 164.691,412.296 163.687,416.38 C161.344,425.886 161.344,426.757 164.691,438.071 C164.959,439.009 164.356,440.548 162.816,442.758 C161.544,444.632 160.138,447.243 159.67,448.582 C158.866,450.725 158.933,451.26 159.871,452.666 C160.875,454.273 167.101,457.152 169.444,457.152 C169.98,457.152 173.729,458.692 177.746,460.567 C185.78,464.383 185.312,463.713 186.115,471.613 L186.584,475.697 L164.557,476.099 L142.598,476.568 L140.589,474.224 C138.915,472.216 137.844,471.747 133.693,470.877 C126.061,469.337 124.99,469.471 123.785,472.216 C123.316,473.488 122.847,475.563 122.847,476.902 C122.847,479.513 121.174,481.656 118.496,482.325 C113.274,483.329 106.913,482.593 103.365,482.995 C99.214,483.463 95.8,482.593 95.13,480.852 C93.992,479.179 94.059,478.911 93.59,477.036 C93.322,475.831 93.122,473.823 93.256,472.417 C93.389,469.672 92.854,469.337 88.904,469.739 C86.561,469.939 86.025,470.341 85.288,471.948 C84.887,473.086 83.95,474.224 83.28,474.626 C82.611,474.961 75.313,475.362 67.145,475.496 C50.675,475.764 48.265,475.429 47.462,472.283 C47.261,471.345 46.792,470.542 46.458,470.542 C45.186,470.542 45.922,468.667 48.265,465.989 C51.01,462.776 53.019,461.571 56.902,460.834 C59.446,460.366 67.212,456.817 71.965,453.938 C74.71,452.265 78.125,452.064 79.33,453.47 C81.539,456.148 86.025,453.47 86.025,449.453 C86.025,447.444 85.556,446.842 82.544,444.499 C80.602,443.093 77.924,440.816 76.652,439.477 C74.376,437.067 74.309,436.866 74.108,430.64 C73.974,427.025 74.108,424.347 74.443,424.347 C75.313,424.347 76.652,421.334 76.652,419.392 C76.652,418.522 77.054,417.652 77.589,417.451 C78.058,417.25 78.727,416.246 78.928,415.174 C79.196,414.17 80.535,412.162 81.807,410.823 C83.213,409.35 85.155,406.069 86.427,403.124 C87.565,400.245 89.439,395.96 90.444,393.55 C91.783,390.537 92.452,387.524 92.72,383.842 C93.256,376.812 94.528,372.527 97.206,368.577 C98.545,366.502 99.549,364.092 99.817,362.016 C100.352,358.066 102.562,354.451 104.57,354.183 C106.779,353.848 107.382,352.643 108.118,347.22 C108.855,341.061 109.591,339.052 112.403,335.638 C113.608,334.165 115.081,332.023 115.684,330.885 C116.286,329.746 117.491,328.274 118.429,327.671 C120.035,326.667 120.169,326.198 120.169,321.244 C120.169,318.365 120.437,314.482 120.772,312.741 C121.107,311.001 121.776,307.251 122.245,304.506 C123.115,299.016 123.986,297.811 127.199,297.811 C129.609,297.811 132.22,295.468 132.22,293.259 C132.22,292.522 131.752,289.844 131.149,287.367 C130.413,283.953 130.279,282.413 130.814,281.275 C131.35,280.137 131.283,278.865 130.747,276.789 C130.078,274.379 130.145,273.442 131.149,271.031 C131.752,269.425 132.02,267.885 131.752,267.617 C130.881,266.747 126.931,268.086 125.124,269.759 C123.718,271.031 123.115,271.165 119.567,270.764 C115.952,270.362 115.148,270.496 112.604,272.036 C110.997,272.973 109.123,273.709 108.386,273.709 C107.717,273.709 105.173,274.714 102.762,275.919 C97.674,278.396 94.193,282.547 91.917,288.639 C90.444,292.589 88.837,294.129 86.828,293.527 C86.226,293.326 83.012,292.857 79.799,292.522 C73.371,291.786 60.45,289.041 55.831,287.434 C48.935,284.957 38.557,276.856 32.264,269.023 C29.988,266.144 26.172,257.575 25.101,252.754 C23.962,248.001 23.494,247.264 20.146,244.988 C16.397,242.377 14.456,239.23 13.92,234.945 C13.183,228.451 15.928,223.229 22.289,219.212 C24.498,217.806 25.101,217.003 25.435,214.994 C25.636,213.588 26.373,210.643 27.109,208.433 C27.779,206.224 28.716,201.872 29.051,198.726 C29.452,195.579 30.122,191.093 30.457,188.683 C30.791,186.273 31.26,182.524 31.528,180.314 C32.063,175.092 33.536,168.598 34.34,167.795 C34.741,167.393 37.821,167.393 42.574,167.795 C46.725,168.196 50.408,168.33 50.675,168.196 C51.01,167.996 52.751,168.33 54.625,168.933 C56.433,169.535 58.375,169.937 58.843,169.736 C59.312,169.535 60.316,167.661 61.12,165.451 C63.931,157.886 66.743,155.208 71.899,155.208 C74.71,155.208 76.049,153.133 75.514,149.384 C75.313,147.643 75.514,145.367 75.982,143.76 C76.853,141.216 76.786,140.814 74.777,136.797 C72.434,131.977 71.698,131.575 62.927,130.771 C58.843,130.37 57.504,130.571 53.22,132.044 C50.542,132.981 47.663,133.784 46.792,133.784 C44.315,133.784 34.607,128.495 32.867,126.219 C29.452,121.733 29.452,120.729 32.8,115.775 C36.348,110.553 37.018,108.008 35.545,105.13 C33.871,101.916 33.536,98.234 34.674,95.422 C35.277,94.083 37.821,91.003 40.432,88.526 C42.976,86.116 45.386,83.304 45.788,82.3 C46.123,81.362 46.591,78.149 46.725,75.27 C47.06,69.178 47.395,68.776 54.893,64.357 C68.417,56.457 89.506,49.494 103.164,48.289 C108.185,47.888 108.319,47.821 111.533,44.607 C113.34,42.799 114.813,40.724 114.813,39.92 C114.813,37.443 117.424,34.096 120.504,32.757 C123.048,31.619 123.517,31.083 124.32,28.271 C125.124,25.526 125.525,24.991 127.467,24.522 C128.672,24.187 130.814,23.183 132.22,22.246 C135.166,20.304 141.192,18.697 145.744,18.63 C149.36,18.63 151.167,20.304 151.904,24.321 C152.506,27.334 154.247,28.271 158.398,27.736 C161.076,27.401 162.214,27.602 164.959,28.941 L168.239,30.614 L170.516,28.07 C171.721,26.664 174.265,23.585 176.206,21.175 C178.483,18.43 181.763,15.484 185.579,12.94 C188.793,10.797 192.408,8.186 193.546,7.249 C194.618,6.312 196.626,5.107 197.898,4.571 C199.103,4.102 200.978,3.098 201.982,2.429 C204.258,0.889 215.439,-0.45 219.925,0.286 C221.598,0.554 225.415,0.688 228.427,0.621 C231.44,0.487 235.457,0.822 237.265,1.29 C240.144,2.027 240.813,1.96 242.286,1.023 C244.562,-0.45 245.165,-0.383 247.508,1.558 C248.579,2.496 249.918,3.232 250.387,3.232 C253.266,3.232 264.781,7.249 271.007,10.396 C277.368,13.676 279.175,15.015 286.473,21.978 C296.381,31.485 298.256,32.355 303.545,30.079 C307.227,28.539 313.454,28.204 315.864,29.476 C316.667,29.878 318.676,31.351 320.283,32.824 C323.563,35.703 324.099,35.837 325.772,34.297 C327.58,32.69 331.932,34.096 333.673,36.975 C334.61,38.381 335.815,39.385 337.02,39.586 C339.564,40.121 343.648,45.41 344.184,48.825 C344.451,50.231 344.987,51.637 345.389,51.971 C345.79,52.239 348.87,53.043 352.151,53.712 C361.189,55.52 367.147,57.662 378.931,63.487 C384.822,66.366 390.513,68.91 391.584,69.178 C392.722,69.378 395.199,71.387 397.81,74.065 L402.095,78.551 L401.761,83.973 C401.359,90.401 401.894,91.74 406.715,96.359 C408.991,98.502 410.196,100.376 410.732,102.385 C411.468,105.063 411.401,105.598 409.728,108.879 L407.92,112.427 L409.058,115.574 C409.728,117.315 410.933,119.926 411.803,121.465 C414.414,125.884 413.878,127.558 408.924,130.035 C406.045,131.508 404.305,131.374 399.283,129.499 C396.94,128.629 392.923,127.759 390.379,127.491 C385.023,126.955 383.148,127.826 382.01,131.307 C380.738,135.123 371.767,141.149 367.281,141.149 C364.871,141.149 364.001,143.224 363.599,150.187 C363.331,153.869 363.197,158.556 363.197,160.631 C363.264,164.782 362.394,167.594 360.386,169.736 C359.448,170.741 359.113,171.678 359.448,172.883 C360.051,175.427 358.846,177.77 355.9,179.578 C352.887,181.519 351.816,184.131 351.816,189.754 C351.816,193.035 351.95,193.303 354.896,195.713 L357.975,198.257 L357.507,201.671 C356.77,207.094 356.77,212.986 357.574,213.254 C357.975,213.388 359.247,212.584 360.386,211.446 C364.603,207.429 369.223,209.304 369.223,215.128 C369.223,218.476 369.692,219.212 372.637,220.417 C373.976,220.953 375.583,222.225 376.186,223.162 C376.788,224.1 377.659,224.836 378.194,224.836 C379.801,224.836 385.09,220.283 385.96,218.208 C386.429,217.07 388.304,214.927 390.178,213.455 C393.057,211.111 393.927,210.777 396.94,210.777 C402.832,210.777 405.041,211.446 408.121,214.191 C410.397,216.199 412.606,217.204 418.699,219.145 C431.352,223.095 432.223,223.497 436.508,227.514 C440.725,231.464 445.01,233.205 451.638,233.807 C453.58,234.008 456.994,235.414 461.614,237.824 C465.497,239.9 469.38,241.774 470.317,242.042 C473.598,242.846 475.673,244.318 478.351,247.867 C482.77,253.691 481.766,256.302 475.138,256.302 C473.263,256.302 469.782,256.905 467.238,257.708 C461.346,259.516 459.137,259.516 447.554,257.374 C431.754,254.495 426.934,253.691 418.163,252.285 C413.611,251.616 409.192,250.545 408.322,249.942 C406.045,248.469 406.246,246.059 408.79,244.051 C410.665,242.578 410.866,242.109 410.464,240.101 C409.995,237.356 406.38,232.87 404.706,232.87 C402.698,232.87 397.543,235.347 397.074,236.552 C396.873,237.155 396.672,238.829 396.672,240.301 C396.672,242.31 396.137,243.448 394.329,245.524 C391.116,249.072 391.116,251.951 394.329,255.432 C395.601,256.838 396.672,258.177 396.672,258.378 C396.672,258.646 397.677,259.181 398.882,259.717 C402.162,260.989 412.071,270.898 412.071,272.839 C412.071,273.776 412.406,275.048 412.807,275.785 C413.41,276.923 413.945,277.057 416.356,276.722 C418.23,276.387 419.435,276.521 419.77,276.99 C420.44,278.195 445.345,290.447 446.952,290.447 C447.755,290.447 449.429,291.317 450.701,292.455 C452.375,293.928 453.647,294.464 455.588,294.464 C457.53,294.464 459.672,295.334 463.89,297.811 C467.037,299.686 471.321,301.828 473.33,302.632 C477.548,304.239 482.904,309.461 485.247,314.281 C487.657,319.235 485.783,320.507 476.075,320.775 C470.049,320.909 469.915,320.909 463.957,317.829 C460.676,316.089 456.124,314.147 453.914,313.478 C451.705,312.808 448.96,311.469 447.889,310.465 C446.751,309.394 444.608,308.122 443.002,307.586 C438.181,305.845 425.059,299.217 423.854,297.878 C423.184,297.142 421.712,296.338 420.507,296.071 C419.368,295.87 416.69,294.732 414.548,293.727 C409.393,291.049 405.911,290.715 401.694,292.322 C399.417,293.259 398.279,294.062 398.145,294.999 C398.011,295.937 400.89,299.284 408.522,306.984 C414.347,312.875 420.239,318.499 421.645,319.503 C424.055,321.311 424.122,321.512 424.122,325.529 C424.122,328.809 424.457,330.148 425.796,332.09 C426.666,333.429 427.938,335.772 428.54,337.312 C429.545,339.789 429.545,340.191 428.607,341.128 C427.201,342.601 422.515,343.27 419.234,342.534 C416.289,341.864 404.037,336.04 399.083,332.893 C397.476,331.889 395.735,330.148 395.199,329.01 C393.927,326.131 386.429,320.574 383.751,320.574 C379.399,320.507 375.048,318.03 367.147,311.402 C363.599,308.323 359.247,305.845 357.507,305.845 C356.904,305.845 354.963,305.243 353.155,304.439 C349.874,303.033 349.406,302.431 347.129,296.606 C345.991,293.594 346.594,286.296 348.201,284.02 C350.745,280.404 351.146,279.333 351.146,275.316 C351.146,270.964 350.544,270.094 348,270.764 C347.196,270.964 345.924,270.496 344.719,269.492 C341.974,267.148 324.3,259.248 320.216,258.512 C318.81,258.244 318.341,258.445 318.341,259.181 C318.341,260.386 322.626,266.144 324.835,267.885 C326.509,269.224 326.978,273.308 325.705,275.718 C325.237,276.588 325.371,277.793 326.107,279.869 C326.643,281.409 327.714,286.028 328.45,290.045 C329.923,298.012 329.856,298.28 326.241,299.418 C323.898,300.222 323.228,301.828 323.965,304.908 C324.3,306.247 324.835,306.515 327.044,306.515 C329.99,306.515 333.137,307.519 333.873,308.724 C334.141,309.193 334.409,311.201 334.409,313.277 C334.409,317.093 335.614,319.235 337.823,319.235 C339.698,319.235 342.845,321.779 345.322,325.328 C347.598,328.608 347.866,329.546 348.535,336.04 C349.339,342.869 349.272,343.27 347.933,345.547 C345.924,348.693 346.058,351.17 348.468,355.79 C350.879,360.476 352.619,362.083 355.23,362.083 C357.038,362.083 358.98,360.142 358.109,359.204 C357.306,358.468 358.578,356.259 360.252,355.522 C363.264,354.116 366.076,354.518 368.486,356.727 C369.825,357.999 370.562,359.137 370.294,359.807 C369.825,361.079 371.098,367.171 372.37,369.783 C372.972,370.921 374.311,372.728 375.382,373.866 C377.391,376.009 377.391,376.009 376.587,379.691 L375.717,383.306 L380.805,394.286 C383.55,400.312 386.161,406.873 386.563,408.814 C387.567,413.635 388.571,415.375 392.923,419.66 C396.538,423.142 396.672,423.476 396.672,426.757 C396.672,430.975 395.802,431.912 389.977,433.452 C387.567,434.121 385.425,434.791 385.157,434.992 C384.153,435.862 387.165,440.883 389.576,442.356 C394.329,445.302 396.07,449.788 393.526,452.599 C392.588,453.604 391.316,453.805 384.554,453.805 C380.002,453.805 376.52,454.072 376.253,454.474 C375.382,455.88 376.721,457.755 379.131,458.491 C380.47,458.893 382.68,459.629 383.952,460.165 C385.224,460.633 387.032,461.236 387.969,461.437 C388.906,461.638 390.379,462.91 391.249,464.249 C392.856,466.525 393.057,466.592 396.271,466.391 C398.815,466.257 400.288,466.525 402.028,467.596 C403.3,468.4 409.995,472.149 416.958,475.898 L429.478,482.794 L429.478,486.342 C429.478,488.284 429.679,490.359 429.879,490.895 C430.281,491.899 428.474,491.966 411.134,491.966 C394.865,491.899 391.852,491.765 391.116,490.895 C390.714,490.292 389.777,489.355 389.174,488.752 C388.504,488.15 387.969,487.079 387.969,486.409 C387.969,484.535 385.96,484.267 383.215,485.807 C381.542,486.811 379.533,487.28 377.324,487.28 C373.508,487.28 372.169,488.618 372.905,491.899 C373.24,493.372 372.972,493.974 371.7,494.845 C370.83,495.38 369.692,496.786 369.223,497.925 L368.419,500 L360.252,499.866 C355.833,499.799 348.937,499.598 345.054,499.531 z M338.694,441.352 C340.301,439.745 340.033,436.598 338.091,434.657 C336.752,433.318 336.15,433.117 335.145,433.653 C333.94,434.322 332.4,437.603 332.4,439.477 C332.4,440.816 334.342,442.423 336.083,442.423 C336.953,442.423 338.158,441.954 338.694,441.352 z M376.119,440.95 C376.855,439.812 375.181,435.059 373.575,433.72 C372.57,432.916 365.875,433.653 365.875,434.657 C365.875,435.594 369.692,441.218 370.763,441.888 C372.035,442.758 375.382,442.155 376.119,440.95 z M363.934,430.841 C363.13,428.765 361.189,428.431 361.189,430.305 C361.189,431.644 364.068,434.188 364.402,433.184 C364.469,432.849 364.269,431.778 363.934,430.841 z M238.135,344.342 C237.332,339.99 237.332,337.312 238.001,336.04 C238.537,335.036 238.537,333.897 238.135,332.424 C237.733,331.219 237.265,329.412 237.064,328.407 L236.595,326.533 L228.494,326.734 L220.326,326.935 L219.121,330.282 C218.05,333.094 217.983,334.031 218.653,336.107 C219.121,337.58 219.255,339.923 218.987,342.266 L218.452,346.082 L228.427,345.881 C237.934,345.681 238.336,345.614 238.135,344.342 z M199.706,333.763 C202.719,332.291 204.861,330.617 207.271,327.738 C209.079,325.596 210.552,323.587 210.552,323.319 C210.552,321.98 206.133,316.357 204.593,315.754 C203.656,315.419 201.982,314.683 200.911,314.147 C199.036,313.21 198.835,313.21 197.229,314.884 C195.622,316.49 195.488,317.026 195.488,323.185 C195.488,329.278 195.354,329.88 193.613,332.491 C190.333,337.245 192.007,337.58 199.706,333.763 z M187.789,333.697 C192.207,330.818 193.948,323.922 191.203,320.507 C189.931,318.901 189.931,318.901 186.718,320.106 C184.107,321.043 182.232,321.177 177.412,320.842 C172.189,320.44 171.185,320.574 170.181,321.512 C168.172,323.587 168.775,325.729 172.524,329.746 C178.684,336.241 182.5,337.245 187.789,333.697 z M273.752,330.282 C275.761,329.412 276.163,329.01 275.426,328.541 C274.891,328.207 273.618,327.939 272.48,327.939 C269.401,327.872 265.25,325.729 262.906,322.851 C260.965,320.507 260.764,319.838 260.764,315.754 C260.764,310.599 259.894,309.661 255.542,309.996 C253.6,310.13 252.864,310.599 252.195,312.072 C251.659,313.076 250.521,314.214 249.65,314.549 C248.78,314.884 248.044,315.553 248.044,315.955 C248.044,317.495 252.864,325.796 254.939,327.805 C258.689,331.42 260.563,332.09 266.12,331.688 C268.865,331.554 272.346,330.885 273.752,330.282 z M286.741,324.993 C288.615,324.056 292.03,318.834 291.293,318.03 C291.025,317.829 289.486,318.968 287.812,320.641 C282.925,325.395 282.456,327.202 286.741,324.993 z M277.635,323.922 C282.322,322.583 286.875,317.093 285.736,314.147 C285.402,313.21 284.799,313.143 281.92,313.612 C277.635,314.281 274.221,314.281 269.334,313.612 C265.651,313.076 265.451,313.076 264.714,314.75 C262.103,320.574 269.869,326.064 277.635,323.922 z M172.122,312.406 C173.261,311.201 174.867,309.193 175.738,307.921 C177.345,305.645 184.374,301.828 187.052,301.828 C187.789,301.828 189.061,301.561 189.931,301.226 C190.801,300.891 192.274,300.422 193.279,300.222 C194.551,299.954 195.287,299.217 195.555,298.012 C195.957,296.539 195.622,295.87 193.613,293.995 C190.601,291.25 189.262,291.25 186.584,293.794 C185.379,294.933 184.173,295.803 183.839,295.803 C183.437,295.803 182.366,296.539 181.362,297.477 C179.621,299.15 177.679,299.485 171.989,299.15 C170.382,299.083 169.378,299.686 167.168,302.029 C165.494,303.904 164.289,305.979 163.955,307.519 C163.553,309.862 163.687,310.197 166.097,312.273 C167.57,313.478 169.043,314.482 169.444,314.549 C169.779,314.549 171.051,313.545 172.122,312.406 z M281.519,299.552 C281.519,298.615 280.113,295.803 279.711,295.803 C279.376,295.803 278.707,296.071 278.171,296.472 C277.368,296.941 277.368,297.276 278.439,298.414 C279.577,299.619 281.519,300.355 281.519,299.552 z M274.154,295.401 C274.154,294.866 273.217,294.062 272.146,293.66 C271.007,293.326 269.802,292.388 269.401,291.719 C268.53,289.978 265.451,290.045 263.174,291.853 C260.095,294.263 261.099,295.401 266.79,295.87 C269.535,296.071 272.346,296.272 273.016,296.338 C273.618,296.405 274.154,296.004 274.154,295.401 z M382.479,291.317 C382.881,290.715 383.282,289.51 383.282,288.639 C383.282,286.966 385.291,285.56 386.898,286.162 C388.304,286.698 389.04,284.689 387.902,283.35 C387.232,282.48 386.295,282.346 383.751,282.614 C382.01,282.882 379.801,282.748 378.864,282.346 C377.324,281.81 376.788,282.078 373.441,285.426 C369.357,289.51 369.223,290.581 372.704,292.188 C375.516,293.46 381.274,292.924 382.479,291.317 z M188.994,256.503 C192.877,254.629 191.404,250.478 186.316,249.273 C182.433,248.268 182.031,246.26 185.379,244.519 C188.659,242.779 197.162,235.481 197.162,234.41 C197.162,233.941 196.559,232.937 195.823,232.201 C194.752,231.129 193.613,230.862 189.663,230.862 C185.713,230.862 184.575,230.594 183.37,229.456 C182.098,228.25 181.495,228.184 179.018,228.652 C176.541,229.121 175.872,229.589 174.934,231.531 C174.332,232.803 173.461,234.276 173.06,234.745 C172.122,235.749 168.172,235.816 161.611,234.812 C155.318,233.807 153.243,234.276 152.64,236.686 C152.439,237.757 151.77,239.096 151.167,239.699 C150.632,240.301 150.297,241.373 150.431,242.042 C150.632,243.046 151.368,243.247 155.988,243.314 C165.093,243.448 173.528,246.929 177.88,252.352 C182.299,257.909 183.035,258.445 184.977,257.976 C185.981,257.708 187.789,257.106 188.994,256.503 z M275.091,254.897 C276.096,253.758 277.301,251.951 277.836,250.946 C278.372,249.875 280.313,248.068 282.188,246.863 C286.205,244.251 286.339,242.846 282.523,242.042 C278.774,241.239 277.97,240.703 277.435,238.695 C277.167,237.69 276.296,236.151 275.56,235.146 C274.757,234.142 274.154,232.87 274.154,232.267 C274.154,229.924 272.748,229.523 264.379,229.523 C257.952,229.523 256.078,229.723 255.408,230.527 C254.136,232.067 256.212,234.678 259.358,235.548 C261.233,236.017 262.371,236.887 263.375,238.561 C264.112,239.9 265.451,241.172 266.321,241.507 C267.928,242.109 272.146,246.528 272.146,247.599 C272.146,248.402 269.869,249.607 268.396,249.607 C266.79,249.607 264.781,251.549 264.781,253.022 C264.781,254.495 268.999,256.905 271.61,256.972 C272.748,256.972 273.953,256.302 275.091,254.897 z M124.856,252.888 C127.132,251.08 127.735,250.478 131.752,246.327 C132.756,245.256 133.559,243.85 133.559,243.113 C133.559,242.444 134.162,240.904 134.898,239.699 C135.635,238.494 136.237,236.686 136.237,235.682 C136.237,234.678 136.84,233.004 137.576,231.866 C138.514,230.46 138.781,229.255 138.514,227.715 C138.246,226.175 138.514,224.903 139.518,223.296 C140.321,221.957 140.924,219.882 140.924,218.409 C140.924,216.936 141.526,214.927 142.263,213.789 C143.2,212.383 143.602,210.643 143.602,207.965 C143.602,204.416 143.736,204.015 145.476,203.144 C146.481,202.609 148.556,201.939 149.962,201.738 C153.377,201.069 156.055,199.73 156.59,198.391 C157.059,197.119 155.921,191.897 154.582,189.219 C152.64,185.403 147.485,178.641 146.414,178.507 C145.811,178.507 142.932,178.373 139.987,178.373 C133.626,178.239 132.89,177.569 132.89,171.745 C132.89,168.531 132.555,167.393 131.082,165.451 C129.475,163.376 129.208,162.372 129.208,158.623 C129.141,153.735 128.739,152.53 126.931,152.53 C126.262,152.53 124.923,151.928 123.919,151.124 C122.178,149.785 116.42,147.844 113.943,147.844 C112.939,147.844 112.805,148.245 113.207,150.187 C113.474,151.861 113.274,153.066 112.537,154.204 C111.131,156.346 111.198,157.351 113.006,160.162 C114.144,162.037 114.813,162.439 115.818,162.171 C119.768,160.966 121.308,161.1 123.249,162.773 C124.99,164.246 125.191,164.849 125.124,168.063 C125.057,170.004 124.521,173.084 123.919,174.824 C122.446,179.109 122.58,179.913 124.521,180.649 C125.927,181.185 126.195,181.72 126.195,183.863 C126.195,186.273 122.379,209.906 121.843,210.777 C121.709,210.977 121.308,214.124 120.839,217.806 L120.102,224.501 L122.446,226.51 C123.852,227.715 124.99,229.389 125.258,230.594 C125.592,232.468 125.325,232.937 122.513,235.28 C120.571,236.82 118.83,239.029 118.027,240.837 C116.822,243.783 115.684,252.687 116.286,254.428 C116.956,256.035 122.178,255.097 124.856,252.888 z M316.065,202.676 C316.466,201.069 317.002,198.257 317.203,196.516 C317.805,192.031 316.6,192.633 313.721,198.257 C311.512,202.542 311.445,202.743 312.583,204.416 C314.123,206.76 315.194,206.224 316.065,202.676 z M115.081,201.604 C115.215,200.935 115.751,198.659 116.152,196.449 C117.023,192.298 116.487,190.825 114.479,191.562 C113.675,191.897 113.474,192.901 113.541,195.914 C113.608,198.123 113.474,200.198 113.207,200.667 C112.671,201.471 113.207,202.743 114.144,202.743 C114.479,202.743 114.88,202.207 115.081,201.604 z M107.114,194.709 C107.65,192.231 107.717,190.491 107.315,190.29 C106.378,189.687 106.311,189.955 105.775,195.043 C105.24,200.6 105.909,200.466 107.114,194.709 z M52.885,187.009 C53.822,182.658 53.889,181.051 53.353,180.515 C52.081,179.243 51.278,180.649 50.542,184.934 C49.939,188.75 50.274,192.7 51.211,192.7 C51.479,192.7 52.282,190.156 52.885,187.009 z M44.449,191.16 C45.252,190.089 46.859,180.114 46.324,179.511 C44.65,177.904 42.508,183.461 42.508,189.353 C42.508,192.098 43.11,192.7 44.449,191.16 z M309.838,190.089 C312.115,189.219 317.002,181.854 317.002,179.31 C317.002,177.101 315.73,176.431 312.382,177.034 C307.629,177.77 305.687,178.708 303.88,181.118 C301.804,183.863 300.934,188.75 302.34,190.424 C303.277,191.562 306.357,191.428 309.838,190.089 z M77.991,182.992 C79.062,181.72 78.527,172.347 77.321,170.874 C75.782,169.067 73.572,169.736 72.367,172.481 C71.095,175.293 69.89,181.386 70.426,182.189 C71.497,183.997 76.719,184.532 77.991,182.992 z M107.717,177.569 C108.319,177.369 108.788,176.565 108.788,175.829 C108.788,173.954 106.512,174.557 106.244,176.498 C105.976,178.105 106.11,178.172 107.717,177.569 z M325.438,165.518 C325.705,164.38 325.572,163.577 324.969,163.242 C322.894,161.903 320.082,165.652 321.688,167.594 C322.827,168.933 324.902,167.728 325.438,165.518 z M121.508,138.672 C121.508,138.538 121.04,137.533 120.504,136.462 C118.897,133.316 114.813,131.843 114.813,134.387 C114.813,136.061 119.165,139.877 120.504,139.408 C121.04,139.14 121.508,138.872 121.508,138.672 z" fill="#000000"/>
  </g>
</svg>
