<?xml version="1.0" encoding="UTF-8"?>
<!DOCTYPE svg PUBLIC "-//W3C//DTD SVG 1.1//EN" "http://www.w3.org/Graphics/SVG/1.1/DTD/svg11.dtd">
<svg version="1.1" xmlns="http://www.w3.org/2000/svg" xmlns:xlink="http://www.w3.org/1999/xlink" x="0" y="0" width="500" height="500" viewBox="0, 0, 500, 500">
  <g id="layer102">
    <path d="M205.867,479.903 C212.813,476.815 213.806,473.617 209.946,466.119 C208.734,463.694 207.741,460.716 207.741,459.503 C207.741,455.203 202.669,451.454 194.399,449.689 C192.304,449.249 191.202,447.925 190.098,444.618 C188.776,440.428 188.776,439.987 191.202,437.45 C194.069,434.363 196.935,427.637 196.825,424.218 C196.384,412.09 197.046,397.534 198.038,396.432 C198.92,395.329 198.92,393.785 198.038,390.808 C197.376,388.603 196.604,385.295 196.274,383.421 C195.943,381.657 195.171,377.686 194.509,374.6 C193.848,371.623 193.296,361.698 193.296,352.657 C193.296,336.006 192.524,332.147 189.327,332.147 C188.114,332.147 187.783,331.486 188.334,329.722 C188.666,328.288 188.996,326.083 188.996,324.759 C188.996,323.326 189.547,322.224 190.319,322.224 C191.091,322.224 193.517,320.9 195.833,319.247 C199.251,316.931 201.566,316.27 207.961,316.049 C216.231,315.608 218.768,316.6 218.768,320.128 C218.768,321.341 219.208,323.105 219.761,324.208 C220.753,325.972 221.414,328.398 224.391,340.087 C225.824,346.041 227.699,348.025 231.889,348.246 C233.433,348.357 237.954,349.238 241.923,350.231 C249.201,352.105 254.163,351.664 263.205,348.357 C264.859,347.805 266.512,347.584 266.953,347.915 C267.285,348.357 268.938,347.805 270.703,346.812 C273.128,345.379 273.79,344.056 274.231,339.976 C275.114,332.147 276.657,326.083 278.642,323.216 C279.744,321.782 280.516,319.688 280.516,318.585 C280.516,316.159 284.816,314.395 287.573,315.828 C288.676,316.379 291.211,316.6 293.086,316.27 C295.843,315.718 297.497,316.159 300.474,318.364 C302.569,319.798 305.326,321.562 306.649,322.113 C308.303,322.886 309.074,324.098 309.074,325.752 C308.965,327.185 309.185,329.06 309.626,329.942 C310.067,331.045 309.516,332.037 307.861,332.699 C305.436,333.801 305.326,334.242 305.215,351.444 C305.105,364.345 304.554,370.85 303.12,375.702 C300.253,386.067 299.261,393.785 300.585,397.094 C301.136,398.637 301.577,405.915 301.356,413.192 C301.025,428.408 301.687,431.607 306.097,436.678 C307.752,438.663 309.185,440.868 309.074,441.64 C308.965,444.728 304.995,449.58 302.459,449.91 C301.025,450.021 298.048,451.013 295.843,451.895 C292.424,453.439 291.543,454.541 290.44,458.842 C289.668,461.598 288.345,465.568 287.353,467.443 C286.36,469.648 286.029,472.515 286.47,474.72 C287.022,477.807 287.904,478.579 292.535,480.233 C297.387,481.887 303.672,482.108 355.827,482.108 C411.291,482.108 413.826,481.997 418.678,479.903 C425.625,476.815 426.617,473.617 422.757,466.119 C421.544,463.694 420.552,460.495 420.552,458.842 C420.552,455.644 418.347,453.439 413.165,451.123 C409.416,449.58 408.975,448.476 407.872,439.104 C407.431,435.797 406.659,431.496 406.107,429.511 C405.336,426.976 405.336,425.431 406.439,423.778 C407.541,421.903 407.431,421.241 405.447,419.036 C404.234,417.602 402.91,414.516 402.579,412.09 C401.917,407.348 400.815,402.607 397.948,392.242 C396.956,388.603 396.405,384.302 396.735,382.649 C397.066,380.664 396.515,378.79 394.971,376.805 C393.758,375.151 391.773,370.519 390.67,366.55 C386.15,349.68 384.607,345.931 381.849,345.599 C378.762,345.048 376.336,342.181 376.888,339.755 C377.108,338.874 376.557,337.11 375.785,336.006 C374.903,334.904 374.241,332.92 374.241,331.707 C374.241,330.383 373.359,327.847 372.146,325.972 C369.169,321.12 366.744,309.433 367.184,302.045 C367.515,296.862 368.177,294.988 371.154,291.239 C374.572,286.939 374.682,286.718 373.359,281.866 C372.588,279.22 372.036,275.692 372.036,274.148 C372.036,272.604 371.043,266.98 369.83,261.798 C368.508,256.506 367.295,251.103 366.964,249.779 C366.744,248.457 365.531,246.472 364.427,245.369 C361.341,242.502 352.96,240.296 348.109,241.069 C334.766,243.054 328.371,243.935 317.565,245.038 C300.033,246.912 300.364,246.692 300.364,256.065 C300.364,262.46 300.033,264.003 298.489,264.555 C297.387,264.996 295.843,266.209 295.071,267.312 C294.299,268.414 292.204,269.297 290.551,269.297 C286.912,269.297 285.588,266.98 283.824,257.167 C282.611,250.772 282.722,250.221 284.816,248.677 C287.683,246.692 287.683,245.038 284.816,239.966 C281.729,234.453 283.052,233.571 294.409,233.02 C302.9,232.688 304.333,232.358 309.406,228.939 L314.919,225.191 L333.553,225.3 C343.808,225.3 352.409,225.852 352.74,226.404 C353.18,226.955 354.173,226.955 355.496,226.293 C356.599,225.742 359.466,225.191 361.892,225.191 C364.869,225.191 366.523,224.639 366.964,223.426 C367.295,222.433 367.625,213.393 367.625,203.248 L367.625,184.723 L372.807,180.644 C375.565,178.438 378.542,176.674 379.313,176.674 C380.636,176.674 380.857,177.556 382.952,188.693 C383.614,191.891 384.827,195.749 385.819,197.183 C388.025,200.491 388.025,200.601 384.386,201.263 C382.511,201.593 380.747,203.027 380.085,204.571 C378.431,208.099 378.211,237.981 379.865,246.472 C381.409,255.293 383.503,259.704 388.135,264.665 C390.23,266.871 391.883,269.627 391.883,270.951 C391.883,272.163 392.876,275.912 394.089,279.22 C395.522,283.19 396.294,288.041 396.294,293.224 C396.294,299.62 396.956,302.486 399.492,308.109 C402.579,315.167 405.115,323.767 405.115,327.736 C405.115,328.949 406.218,330.494 407.431,331.265 C408.754,332.037 411.952,337.33 414.598,342.843 C419.671,353.649 421.104,354.752 427.83,353.98 L431.028,353.649 L431.579,332.147 C432.131,311.086 432.241,310.535 435.438,303.81 C438.305,297.745 439.187,296.862 442.605,296.201 C447.898,295.209 456.61,290.798 462.122,286.277 C464.658,284.183 466.974,282.528 467.305,282.528 C468.849,282.528 467.636,285.615 464.658,289.585 L461.351,293.885 L464.989,298.516 C475.244,311.859 479.544,316.71 480.868,316.71 C482.632,316.71 493.879,310.535 495.313,308.661 C496.856,306.676 497.848,301.714 498.951,290.798 C500.274,277.456 500.384,277.015 499.061,272.383 C496.305,262.019 487.814,247.574 478.331,237.319 C474.582,233.24 473.479,230.814 471.826,224.088 C469.51,214.053 461.241,196.632 456.389,191.449 C453.742,188.693 451.868,187.701 449.332,187.701 C445.914,187.701 445.803,187.59 446.575,183.841 C446.906,181.636 446.685,177.556 445.914,174.689 C445.252,171.822 444.15,167.301 443.488,164.545 C442.054,158.591 440.841,156.827 438.085,156.827 C434.997,156.827 435.328,151.754 438.636,149.659 C442.275,147.233 443.157,141.941 440.62,138.191 C439.518,136.647 437.534,131.796 436.1,127.496 C433.674,119.556 428.271,110.625 424.081,107.648 C420.773,105.332 417.686,98.606 419.229,97.063 C420.112,96.18 420.001,94.967 418.788,92.652 C417.465,90.116 416.694,89.674 414.488,90.226 C412.393,90.778 411.07,89.895 407.431,86.036 C404.894,83.5 402.138,79.861 401.366,77.987 C398.059,71.151 388.025,64.203 381.409,64.203 C377.108,64.203 376.998,63.873 374.352,42.261 C373.69,36.638 373.469,36.196 369.83,34.873 C367.736,34.101 364.869,33.44 363.435,33.44 C359.025,33.219 354.393,30.242 354.393,27.375 C354.393,26.052 353.622,23.295 352.629,21.421 C350.975,17.892 350.865,17.892 342.265,17.892 C333.884,17.892 333.553,18.003 332.12,20.869 C330.025,25.39 325.945,25.611 324.291,21.31 L323.078,17.892 L314.147,17.892 C309.185,17.892 304.775,18.333 304.113,18.884 C303.562,19.436 301.356,20.097 299.261,20.318 L295.401,20.649 L295.622,32.227 C295.733,38.622 296.063,46.121 296.505,49.098 C296.946,51.964 296.946,55.603 296.614,57.036 C295.733,60.345 292.645,60.675 290.66,57.587 C289.889,56.374 288.786,55.382 288.014,55.382 C287.353,55.382 282.942,53.839 278.2,51.964 C272.688,49.758 268.828,48.766 267.615,49.318 C264.969,50.42 232.992,50.641 232.33,49.649 C231.669,48.326 227.589,48.545 227.589,49.869 C227.589,50.531 226.156,50.971 224.502,50.971 C222.847,50.971 219.54,51.964 217.114,53.177 C214.688,54.39 212.151,55.382 211.27,55.382 C210.498,55.382 208.734,56.595 207.41,58.139 C205.756,60.013 204.543,60.565 203.551,60.013 C202.007,59.021 201.898,56.265 202.449,32.778 L202.779,20.649 L198.92,20.318 C196.825,20.097 194.62,19.436 194.069,18.884 C193.407,18.333 189.106,17.892 184.365,17.892 C176.095,17.892 175.654,18.003 174.661,20.649 C174.11,22.193 172.787,23.736 171.905,24.067 C169.92,24.839 165.84,21.642 165.84,19.326 C165.84,18.223 163.635,17.892 156.688,17.892 L147.537,17.892 L146.213,21.531 C145.441,23.516 144.89,26.272 144.89,27.596 C144.89,29.36 143.787,30.463 140.921,31.676 C138.716,32.557 136.069,33.329 135.077,33.329 C134.084,33.329 131.548,33.881 129.342,34.432 C124.271,35.866 123.168,38.511 122.396,51.303 C121.734,61.777 120.742,64.203 116.883,64.203 C111.26,64.203 103.982,67.732 100.453,72.143 C98.468,74.569 95.271,78.317 93.397,80.413 C91.411,82.398 89.758,84.603 89.758,85.264 C89.758,85.816 88.104,87.029 86.119,87.91 C81.267,89.895 76.526,96.842 76.526,101.804 C76.526,104.891 75.423,106.766 71.233,111.287 C66.161,116.911 61.089,127.275 61.089,132.237 C61.089,133.45 59.986,135.766 58.773,137.419 C56.788,139.956 56.568,140.837 57.671,143.154 C58.332,144.697 58.663,146.461 58.222,147.012 C57.892,147.564 58.884,149.108 60.427,150.32 C63.404,152.636 64.507,157.487 61.861,156.495 C60.978,156.165 59.656,156.385 58.884,156.827 C56.788,158.039 53.26,171.381 52.598,180.202 C52.047,187.48 51.937,187.701 49.07,187.701 C45.211,187.701 43.447,189.244 39.257,196.19 C34.956,203.358 31.317,211.959 27.568,223.757 C25.804,229.49 23.599,233.901 21.724,235.886 C15.77,241.841 11.47,248.236 6.176,259.042 C-1.211,274.038 -1.211,273.707 2.207,301.714 L2.979,308.109 L10.587,312.961 C14.667,315.608 18.527,317.813 19.078,317.813 C19.849,317.813 34.735,299.178 37.271,294.878 C37.712,294.106 36.61,291.57 34.515,288.593 C32.53,285.836 31.207,283.3 31.648,282.97 C31.979,282.638 34.956,284.513 38.264,287.16 C41.572,289.806 46.644,292.893 49.621,293.996 C59.104,297.414 59.765,297.745 61.53,301.163 C62.523,303.038 64.176,306.125 65.168,308.109 C66.713,311.086 66.933,314.836 66.933,330.273 C66.823,340.528 67.153,350.121 67.705,351.554 C68.587,353.76 69.579,354.2 72.997,354.2 C78.29,354.2 79.724,352.767 84.355,342.071 C86.34,337.55 89.096,332.809 90.419,331.596 C92.624,329.611 96.374,318.475 96.374,313.733 C96.374,312.851 97.366,310.646 98.689,308.881 C100.343,306.456 101.226,302.706 102.107,294.327 C102.658,288.152 103.651,282.087 104.092,280.874 C104.533,279.661 105.636,276.243 106.408,273.156 C107.18,269.848 109.385,265.768 111.811,263.011 C117.876,256.065 118.647,252.536 119.088,228.939 C119.64,206.115 119.088,202.476 114.567,201.373 C111.921,200.712 111.039,198.837 112.583,197.183 C113.905,195.97 116.222,188.362 116.222,185.385 C116.222,183.73 116.883,180.864 117.655,178.989 L119.088,175.461 L124.711,179.982 C127.799,182.408 130.666,185.164 130.997,186.156 C131.327,187.149 131.659,196.301 131.659,206.556 L131.659,225.191 L136.51,225.191 C139.267,225.191 141.803,225.742 142.134,226.293 C142.574,227.065 143.457,227.065 144.89,226.293 C145.992,225.742 154.814,225.191 164.517,225.191 C182.711,225.191 182.822,225.191 191.202,230.483 C194.179,232.358 196.714,232.909 202.449,232.909 C209.836,232.909 215.46,234.232 215.46,235.997 C215.46,236.548 214.137,238.864 212.593,241.179 L209.836,245.369 L212.041,247.685 C214.688,250.551 214.909,252.867 213.034,261.688 C211.821,267.753 211.6,267.973 208.072,268.414 C204.875,268.746 203.771,268.304 201.015,265.216 C198.368,262.129 197.817,260.585 197.817,255.513 C197.817,249.338 196.053,246.14 192.524,246.14 C189.437,246.031 171.243,244.046 163.084,242.722 C147.316,240.407 145.111,240.407 140.038,242.281 C137.282,243.384 134.415,245.038 133.533,246.031 C131.327,248.677 125.043,277.786 125.043,285.175 C125.152,287.269 126.365,290.026 128.35,292.452 C131.217,295.76 131.659,297.083 131.659,303.148 C131.659,310.977 129.122,321.673 126.697,324.429 C125.814,325.421 125.043,326.855 125.043,327.516 C125.043,328.288 124.601,329.722 124.05,330.824 C121.734,335.345 120.742,338.432 120.411,341.52 C120.191,344.056 119.529,344.938 117.324,345.269 C115.78,345.379 114.237,346.151 113.796,346.923 C112.913,348.246 108.613,362.249 106.297,371.071 C105.525,373.938 104.092,376.915 103.1,377.686 C101.777,378.569 101.226,380.774 101.115,385.075 C101.115,388.382 100.013,394.889 98.689,399.409 C97.366,403.93 96.374,408.781 96.374,410.215 C96.374,411.539 95.491,414.516 94.389,416.831 C93.065,419.367 92.184,423.557 92.184,428.298 C92.073,432.379 91.522,436.899 90.86,438.553 C90.309,440.097 89.758,443.184 89.758,445.169 C89.758,448.587 89.206,449.249 84.465,451.674 C79.613,454.1 79.062,454.872 77.739,460.276 C76.857,463.473 75.644,467.332 74.872,468.876 C72.556,473.838 74.321,477.697 79.834,480.013 C84.355,481.777 89.317,481.997 142.795,481.997 C198.479,482.108 201.015,481.997 205.867,479.903 z" fill="#000000"/>
  </g>
</svg>
