<?xml version="1.0" encoding="UTF-8"?>
<!DOCTYPE svg PUBLIC "-//W3C//DTD SVG 1.1//EN" "http://www.w3.org/Graphics/SVG/1.1/DTD/svg11.dtd">
<svg version="1.1" xmlns="http://www.w3.org/2000/svg" xmlns:xlink="http://www.w3.org/1999/xlink" x="0" y="0" width="500" height="500" viewBox="0, 0, 500, 500">
  <g id="layer101">
    <path d="M375.962,497.667 C373.635,496.504 370.144,493.711 368.282,491.5 C363.86,486.031 359.438,472.416 360.02,465.434 C360.369,460.198 360.253,459.965 357.46,460.314 C355.831,460.43 353.387,460.314 351.991,459.965 C349.78,459.499 349.547,458.918 350.478,456.358 C351.875,452.867 351.991,447.281 350.827,441.812 C349.896,436.692 330.929,417.375 324.296,414.699 C321.736,413.651 315.336,410.277 310.099,407.251 C301.488,402.364 300.325,401.317 298.579,396.546 C297.532,393.636 295.205,388.167 293.459,384.327 C288.921,374.32 288.688,373.389 290.201,370.945 C292.295,367.687 289.968,363.73 283.219,359.309 C280.077,357.33 276.353,354.072 274.957,352.21 C273.444,350.116 271.35,348.836 269.604,348.836 C268.091,348.836 265.299,347.556 263.437,345.926 C257.502,341.039 256.92,341.737 257.851,353.49 C258.317,359.192 259.364,365.825 260.178,368.269 C260.993,370.712 262.389,378.742 263.088,386.073 C265.182,405.389 267.277,413.535 273.095,424.939 C276.004,430.524 278.332,435.761 278.332,436.575 C278.332,437.506 279.146,438.786 280.077,439.601 C281.008,440.415 281.823,441.928 281.823,442.976 C281.823,445.536 270.535,462.758 268.324,463.689 C267.16,464.038 264.833,462.758 262.04,459.965 L257.502,455.543 L251.684,457.987 C248.426,459.267 245.749,459.965 245.749,459.267 C245.749,458.685 244.236,458.219 242.374,458.219 C240.047,458.219 238.302,457.289 236.789,455.194 L234.462,452.052 L229.574,455.659 L224.571,459.267 L219.567,455.892 C213.399,451.703 211.538,451.587 207.116,455.31 C205.254,456.939 202.926,458.219 202.112,458.219 C200.134,458.219 190.126,447.048 187.915,442.394 C186.286,439.135 186.403,435.412 188.032,408.764 C189.661,384.909 189.661,378.509 188.614,377.811 C186.403,376.414 183.377,378.625 178.257,385.142 C173.835,390.727 173.602,391.425 174.301,396.429 C174.65,399.338 175.464,402.247 176.046,402.946 C177.21,404.226 177.326,410.393 176.395,416.56 C175.348,422.961 159.173,439.95 150.678,443.674 C147.304,445.186 144.511,446.932 144.511,447.514 C144.511,450.423 122.634,452.983 109.601,451.703 C99.71,450.772 99.477,449.957 105.528,438.554 C110.765,428.779 111.114,428.313 119.492,421.913 C127.405,415.979 139.856,398.757 139.856,393.986 C139.856,390.495 132.991,382.349 124.729,376.065 C117.863,370.829 117.63,369.2 122.285,359.076 C126.125,350.581 127.987,345.461 129.5,338.944 C131.594,329.984 137.762,317.3 140.554,316.137 C142.184,315.555 143.58,313.809 144.045,311.948 C144.511,310.202 146.838,306.246 149.282,303.337 C151.726,300.311 154.984,295.773 156.613,292.98 C158.126,290.304 160.918,287.162 162.78,285.998 C164.642,284.834 167.9,281.343 169.995,278.318 L173.719,272.616 L168.249,272.267 C164.875,272.034 161.268,270.87 158.591,269.009 C153.704,265.75 151.842,265.518 148.118,268.078 C145.907,269.707 144.744,269.823 141.02,268.66 C135.318,266.914 131.711,262.492 131.711,257.023 C131.711,250.856 137.762,239.103 144.744,231.772 L150.795,225.371 L150.911,213.153 L150.911,200.818 L141.602,195.931 C134.271,192.091 132.409,190.578 132.642,188.833 C134.736,175.567 135.783,173.472 140.438,171.96 C143.114,171.029 144.86,169.516 145.907,167.072 C149.747,157.879 152.656,153.69 157.078,150.665 C160.337,148.454 161.966,146.475 161.966,144.73 C161.966,143.334 163.013,140.192 164.293,137.632 C165.573,135.072 166.62,131.581 166.62,129.719 C166.62,125.413 168.249,122.271 173.486,117.035 C175.813,114.708 178.606,111.682 179.77,110.402 C182.097,107.609 186.868,107.26 191.057,109.704 C194.083,111.449 203.857,112.148 203.857,110.518 C203.857,110.053 202.81,107.609 201.53,105.166 C197.923,98.067 195.945,85.616 194.665,63.623 C193.385,40.35 193.85,36.975 200.832,24.175 C203.043,19.986 206.068,14.4 207.465,11.724 C209.676,7.767 211.421,6.255 218.17,3.229 C227.363,-1.076 232.367,-1.076 241.327,3.229 C248.193,6.487 252.731,13.469 252.731,20.917 C252.615,23.71 251.102,31.39 249.24,38.139 C247.378,44.888 245.284,52.685 244.469,55.594 C243.771,58.503 242.374,62.227 241.56,63.972 C240.629,65.601 239.931,68.278 239.931,69.79 C240.047,74.096 245.284,88.06 247.844,90.853 C250.869,94.227 254.593,101.675 255.64,106.795 C256.92,112.962 263.204,125.413 265.066,125.413 C265.88,125.413 268.44,127.042 270.535,128.904 C272.746,130.882 274.957,132.395 275.539,132.395 C276.004,132.395 277.866,130.999 279.728,129.253 L282.986,126.111 L285.779,128.788 C287.408,130.301 291.132,131.93 294.157,132.512 C297.765,133.21 301.372,134.955 304.747,137.864 C307.656,140.308 312.078,143.45 314.754,144.73 C323.598,149.268 325.227,152.061 325.692,162.999 C325.925,168.236 326.274,173.938 326.623,175.683 C326.972,178.011 326.507,179.174 324.878,180.105 C323.249,181.036 322.551,182.549 322.551,185.458 C322.551,188.018 321.852,189.764 320.805,190.113 C319.874,190.578 319.06,191.625 319.06,192.556 C319.06,195.465 328.718,194.069 329.998,191.044 C331.627,187.32 336.747,184.76 342.216,184.76 C346.638,184.76 347.104,185.109 348.849,189.182 C349.896,191.509 350.944,195.815 351.293,198.724 C351.642,201.633 352.457,204.542 352.922,205.24 C353.504,205.938 356.995,206.637 360.602,206.637 C366.42,206.637 367.7,207.102 370.028,209.895 C372.471,212.804 372.821,213.968 372.355,221.531 C371.89,231.655 369.679,235.263 361.882,239.103 C358.391,240.732 356.18,242.71 355.133,245.154 C354.086,247.83 352.689,248.877 349.78,249.459 C347.569,249.808 345.125,249.692 344.311,248.994 C343.264,248.063 340.238,248.179 334.187,248.994 C325.809,250.274 321.387,252.368 321.387,255.045 C321.387,257.721 313.707,261.561 308.47,261.561 C305.561,261.561 302.187,262.259 301.023,263.19 C299.394,264.354 297.997,264.47 296.019,263.772 C291.83,262.143 291.132,262.492 291.132,265.75 C291.132,269.707 298.463,278.318 303.932,280.762 C308.703,282.856 310.565,285.882 311.961,293.795 C312.659,297.518 312.543,299.147 311.379,300.078 C309.634,301.591 309.052,312.18 310.798,313.228 C311.263,313.577 312.892,316.951 314.289,320.791 C316.383,326.61 317.896,328.704 323.831,333.359 C327.671,336.384 333.373,341.039 336.282,343.715 C339.307,346.276 344.195,350.116 347.22,352.21 C358.158,359.541 361.999,367.803 361.999,383.862 C361.999,391.425 362.697,396.778 364.21,401.2 C365.49,404.691 366.77,409.695 367.235,412.255 C368.748,420.051 376.195,429.128 386.203,435.179 C391.788,438.554 392.37,439.252 392.37,443.092 C392.37,445.419 391.788,447.863 391.09,448.561 C389.694,449.957 392.137,459.267 396.094,468.227 C398.77,474.394 399.352,484.169 397.257,489.056 C395.745,492.664 384.923,500.227 381.664,499.995 C380.85,499.878 378.29,498.947 375.962,497.667 z M195.712,229.677 C195.712,225.255 193.268,219.67 190.824,218.39 C188.264,216.993 188.381,216.993 186.519,220.484 C184.89,223.742 184.89,229.328 186.635,231.073 C187.45,231.888 189.777,232.47 191.872,232.47 C195.13,232.47 195.712,232.004 195.712,229.677 z" fill="#000000"/>
  </g>
</svg>
