<?xml version="1.0" encoding="UTF-8"?>
<!DOCTYPE svg PUBLIC "-//W3C//DTD SVG 1.1//EN" "http://www.w3.org/Graphics/SVG/1.1/DTD/svg11.dtd">
<svg version="1.1" xmlns="http://www.w3.org/2000/svg" xmlns:xlink="http://www.w3.org/1999/xlink" x="0" y="0" width="500" height="500" viewBox="0, 0, 500, 500">
  <g id="layer102">
    <path d="M116.344,140.682 C117.92,140.531 119.441,140.806 120.971,141.117 C124.1,141.757 129.434,141.899 140.67,141.615 C149.203,141.33 158.874,141.402 162.217,141.686 L168.261,142.183 L168.475,144.459 C168.759,147.091 166.128,150.362 163.781,150.362 C161.932,150.362 157.239,152.779 154.963,154.913 C153.114,156.548 152.972,157.117 152.972,161.739 C152.972,166.291 153.114,166.789 154.608,167.357 C158.021,168.709 166.697,169.704 178.928,170.273 C185.968,170.557 193.008,171.127 194.573,171.553 C196.137,171.98 202.395,172.477 208.44,172.762 C214.484,172.975 222.093,173.686 225.365,174.255 C228.564,174.824 231.48,175.18 231.836,174.966 C232.618,174.469 249.97,175.962 255.018,176.957 L259.285,177.882 L259.641,181.722 C259.996,185.349 260.067,185.562 261.774,185.349 C262.77,185.207 264.121,184.566 264.832,183.927 C265.899,183.002 268.103,182.789 277.419,182.718 L288.726,182.718 L291.428,185.278 C292.921,186.629 294.983,188.335 296.121,188.976 C297.188,189.687 298.041,190.682 298.041,191.251 C298.041,191.891 298.895,192.673 299.89,193.029 C302.806,194.167 307.357,192.318 308.921,189.402 C310.984,185.633 317.313,179.517 318.948,179.66 C319.801,179.731 322.219,179.517 324.424,179.233 C328.477,178.736 328.477,178.736 329.189,180.869 C329.828,182.646 330.397,183.073 332.104,183.073 C333.242,183.073 334.451,182.718 334.664,182.362 C334.877,181.935 336.371,181.011 337.864,180.3 C340.566,179.02 340.78,179.02 343.126,180.228 C346.042,181.651 348.958,181.367 350.024,179.447 C350.593,178.309 351.589,178.095 355.856,178.095 C361.189,178.095 362.754,178.736 362.754,181.011 C362.754,181.722 363.322,182.718 364.033,183.215 C364.674,183.713 366.025,185.704 367.02,187.553 L368.798,190.966 L382.025,190.753 C393.972,190.54 395.465,190.682 396.745,191.82 C397.669,192.673 399.092,193.029 401.083,192.958 C403.145,192.816 404.567,193.171 406.132,194.309 C407.27,195.162 408.977,196.229 409.83,196.585 C410.754,197.011 413.385,198.575 415.732,200.14 C425.546,206.54 425.972,206.754 427.679,205.616 C429.03,204.762 429.599,204.762 431.732,205.758 C435.786,207.607 440.977,211.874 446.595,218.131 C449.51,221.332 452.782,224.318 453.777,224.745 C455.84,225.67 456.622,227.021 456.621,229.723 C456.622,231.714 459.822,234.914 461.742,234.985 C462.382,234.985 463.235,235.412 463.52,235.909 C463.804,236.408 467.644,239.11 471.911,241.883 C476.249,244.657 480.515,247.786 481.511,248.71 C484,251.128 491.111,253.475 495.947,253.475 L500,253.475 L500,256.674 C500,259.377 499.645,260.23 497.582,262.221 C496.231,263.43 495.022,265.279 494.88,266.275 C494.738,267.626 494.169,268.123 492.534,268.408 C490.4,268.764 490.4,268.764 490.4,273.742 C490.4,278.364 490.542,278.648 492.106,279.075 C493.031,279.288 494.169,279.999 494.596,280.71 C495.663,282.417 494.524,284.052 490.898,285.831 C489.191,286.684 487.698,288.035 487.342,289.102 C486.915,290.169 484.995,293.44 483.004,296.426 C481.013,299.413 477.813,304.249 475.822,307.164 C473.902,310.08 472.266,312.711 472.266,313.066 C472.266,313.422 471.484,314.346 470.488,315.2 C469.493,316.053 468.711,317.12 468.711,317.547 C468.711,318.045 467.644,319.751 466.293,321.387 C464.444,323.591 463.733,325.156 463.591,327.431 L463.377,330.56 L458.399,331.485 C455.697,332.054 451.36,332.835 448.799,333.263 C446.239,333.689 444.035,334.187 443.821,334.329 C443.679,334.472 443.323,336.107 443.11,337.885 L442.755,341.156 L438.843,342.009 C434.221,342.934 433.155,343.503 433.155,345.067 C433.226,347.84 434.15,348.196 438.204,346.916 C440.337,346.276 442.542,345.28 443.181,344.782 C444.532,343.573 446.808,343.503 447.946,344.64 C448.444,345.138 448.799,346.987 448.799,348.836 C448.799,351.752 448.444,352.534 446.595,354.312 C444.675,356.16 443.608,356.445 438.559,356.871 C431.946,357.441 421.99,357.441 408.194,356.943 C399.59,356.587 397.954,356.658 394.327,358.01 C392.052,358.792 389.989,359.361 389.776,359.361 C386.15,358.578 384.585,356.232 385.509,353.032 C386.576,349.405 387.429,348.765 391.625,348.765 C394.612,348.765 395.536,348.481 396.176,347.414 C397.883,344.071 396.39,339.449 394.043,340.942 C393.474,341.369 391.696,341.653 390.132,341.653 C387.785,341.653 386.861,341.227 385.296,339.449 C383.874,337.814 383.021,337.387 382.096,337.814 C381.456,338.098 378.967,338.454 376.621,338.596 L372.353,338.809 L363.109,329.849 C358.06,324.942 352.087,319.182 349.882,317.049 L345.9,313.209 L275.072,312.782 L204.315,312.284 L201.542,315.2 L198.839,318.115 L189.737,318.329 C179.781,318.542 179.283,318.756 179.283,322.951 C179.283,324.302 178.572,326.009 177.506,327.36 L175.657,329.493 L177.435,330.631 C179.07,331.698 179.213,332.338 179.426,337.6 C179.639,342.792 179.781,343.431 181.061,343.645 C181.844,343.787 183.835,344.996 185.47,346.347 C187.106,347.698 188.812,348.765 189.382,348.765 C189.879,348.765 191.586,347.556 193.222,346.063 C198.2,341.44 202.751,340.444 202.751,343.929 C202.751,345.067 201.187,346.916 198.128,349.76 C190.093,357.014 191.017,356.729 169.399,356.658 C151.763,356.516 150.412,356.445 148.208,355.094 C146.927,354.312 145.861,353.458 145.861,353.245 C145.861,353.032 146.501,351.965 147.354,350.827 C148.563,349.049 149.275,348.765 151.976,348.765 C154.821,348.765 155.105,348.623 155.105,346.987 C155.105,345.991 155.745,344.569 156.528,343.787 C157.737,342.578 157.95,341.583 157.808,337.956 L157.595,333.547 L149.772,333.76 C142.021,333.902 141.95,333.902 139.674,331.84 C138.394,330.702 137.328,329.564 137.328,329.28 C137.328,329.067 136.474,327.502 135.478,325.938 L133.701,323.022 L132.065,324.729 C131.141,325.654 130.216,327.218 129.932,328.285 C128.794,332.978 115.638,335.894 111.229,332.409 C110.234,331.627 108.954,330.987 108.456,330.987 C107.887,330.987 106.678,329.707 105.683,328.214 C104.758,326.649 103.051,324.515 101.985,323.52 C100.207,321.813 99.567,321.671 96.154,322.027 C93.309,322.311 91.887,322.098 90.465,321.173 C87.904,319.467 85.487,316.622 85.416,315.2 C85.416,314.56 84.42,312.924 83.282,311.644 C82.073,310.364 80.936,308.658 80.722,307.875 C80.438,307.093 79.584,305.742 78.802,304.817 C77.735,303.68 77.309,302.329 77.38,300.409 C77.451,298.773 77.095,297.351 76.455,296.853 C75.886,296.355 75.46,295.573 75.46,295.075 C75.46,294.577 74.322,292.728 72.971,290.95 C71.62,289.173 70.482,287.395 70.482,287.039 C70.482,286.755 69.202,284.693 67.637,282.63 C66.073,280.568 64.793,278.364 64.793,277.866 C64.793,277.297 64.366,276.728 63.798,276.515 C63.3,276.301 61.948,274.381 60.882,272.248 C59.815,270.186 58.677,268.408 58.322,268.408 C58.037,268.408 57.539,267.697 57.255,266.844 C56.757,265.279 54.552,261.866 52.846,260.017 C52.419,259.519 51.993,258.452 51.993,257.741 C51.993,256.959 51.566,256.106 51.139,255.821 C50.144,255.181 47.015,250.915 47.015,250.203 C47.015,249.99 45.735,248.212 44.099,246.292 L41.184,242.807 L35.21,242.807 C30.019,242.808 29.166,242.95 28.526,244.23 C27.815,245.51 27.032,245.652 19.708,245.652 C12.667,245.652 11.388,245.439 9.752,244.159 C8.685,243.306 7.903,242.025 7.903,241.03 C7.903,237.83 7.192,237.119 3.992,237.118 C2.072,237.119 0.792,236.763 0.578,236.194 C0.01,234.558 -0.275,197.722 0.365,196.727 C0.65,196.3 1.929,195.874 3.138,195.874 C4.419,195.874 6.836,195.233 8.543,194.451 C12.17,192.745 14.161,192.673 16.01,194.096 C17.148,194.949 19.921,195.162 28.881,195.162 C39.334,195.162 40.543,195.02 41.61,193.811 C43.957,191.251 41.184,190.753 27.246,191.18 C10.677,191.749 7.974,191.678 6.41,190.824 C5.272,190.255 5.13,189.26 5.201,183.357 C5.272,175.891 5.841,174.753 10.392,172.833 C11.601,172.335 13.521,170.984 14.659,169.775 C18.286,166.219 23.619,162.451 25.112,162.451 C25.895,162.451 27.885,161.384 29.521,160.033 C31.157,158.682 33.29,157.188 34.215,156.762 C37.344,155.411 43.388,151.499 45.735,149.224 C47.015,148.015 48.793,146.806 49.646,146.521 C50.499,146.237 51.495,145.597 51.993,145.028 C52.704,144.175 55.548,144.104 68.917,144.459 C77.807,144.673 85.416,145.099 85.771,145.384 C86.198,145.739 90.962,146.095 96.509,146.166 L106.464,146.45 L109.309,144.246 C110.713,143.213 112.092,142.028 113.737,141.381 C114.574,141.051 115.475,140.915 116.344,140.682 z M407.457,339.644 L406.985,339.663 C404.496,339.947 404.283,341.583 406.274,344.64 C408.052,347.414 409.403,347.414 410.47,344.64 C411.125,342.03 410.224,340.06 407.457,339.644 z M421.405,340.59 C420.748,341.077 421.018,340.808 420.568,341.369 C419.43,342.934 419.359,344.64 420.496,345.778 C421.634,346.916 423.554,346.845 424.55,345.636 C425.19,344.854 424.976,344.143 423.412,342.365 C422.841,341.688 422.326,340.795 421.405,340.59 z" fill="#000000"/>
  </g>
</svg>
