<?xml version="1.0" encoding="UTF-8"?>
<!DOCTYPE svg PUBLIC "-//W3C//DTD SVG 1.1//EN" "http://www.w3.org/Graphics/SVG/1.1/DTD/svg11.dtd">
<svg version="1.1" xmlns="http://www.w3.org/2000/svg" xmlns:xlink="http://www.w3.org/1999/xlink" x="0" y="0" width="500" height="500" viewBox="0, 0, 500, 500">
  <g id="layer102">
    <path d="M74.571,150.203 L74.937,150.237 C76.097,150.361 76.304,150.568 76.552,151.728 C76.718,152.515 77.008,153.302 77.174,153.468 C77.381,153.675 83.055,153.965 89.765,154.089 L101.984,154.338 L103.144,155.663 C105.96,158.811 111.304,166.059 111.304,166.722 C111.304,167.799 110.475,167.965 105.215,167.965 C101.114,167.965 100.493,168.047 100.7,168.586 C100.907,169.166 102.688,171.402 114.037,185.527 C115.818,187.763 117.889,190.331 118.552,191.201 C123.025,196.875 123.522,197.373 124.599,197.373 C125.386,197.373 125.966,196.958 126.753,195.757 C127.457,194.68 128.203,194.1 129.072,193.935 C130.108,193.728 130.357,193.438 130.357,192.609 C130.357,191.905 131.02,190.87 132.221,189.586 C133.256,188.509 134.084,187.515 134.084,187.349 C134.084,187.225 134.913,186.107 135.948,184.905 C136.984,183.704 137.812,182.503 137.812,182.213 C137.812,181.964 138.268,181.426 138.848,181.053 C139.386,180.68 140.297,179.645 140.795,178.734 C141.333,177.822 141.996,177.077 142.327,177.077 C142.617,177.077 143.611,176.29 144.481,175.296 L146.096,173.556 L148.954,173.639 C151.522,173.722 151.812,173.639 152.185,172.852 C152.516,172.065 152.931,171.941 155.25,171.858 C156.699,171.817 158.108,171.941 158.315,172.106 C158.729,172.438 163.327,172.852 169.25,173.018 L172.688,173.142 L174.096,171.485 C175.214,170.16 175.504,169.456 175.504,168.089 L175.504,166.308 L173.06,166.308 C170.244,166.308 169.581,165.769 169.788,163.74 L169.913,162.373 L179.439,162.249 C188.593,162.166 189.255,162.207 191.658,163.409 C191.989,163.574 192.279,164.03 192.279,164.444 C192.279,165.272 190.995,165.811 187.93,166.267 C186.191,166.515 186.066,166.598 185.942,167.84 C185.859,168.834 186.149,169.622 186.977,170.74 C188.427,172.728 188.717,172.935 190.042,172.935 C190.912,172.935 191.202,172.687 191.409,171.858 L191.699,170.74 L192.9,172.148 L194.06,173.556 L195.468,172.852 C196.214,172.48 197.208,172.106 197.664,172.024 C198.906,171.817 198.699,170.698 197.415,170.533 C196.049,170.367 195.717,169.042 196.049,165.562 L196.297,163.201 L203.794,163.284 C211.912,163.367 211.953,163.367 211.953,165.769 C211.953,167.675 209.427,170.45 207.729,170.45 C206.776,170.45 206.528,170.615 206.652,171.154 C206.735,171.568 207.232,171.941 207.812,172.024 C208.391,172.106 209.095,172.48 209.344,172.811 C209.8,173.391 210.587,173.432 214.811,173.225 C217.545,173.101 220.279,173.142 220.942,173.349 C221.563,173.556 223.054,173.971 224.172,174.302 C225.332,174.675 227.652,175.42 229.35,176 C231.048,176.58 234.32,177.243 236.598,177.533 C241.03,178.071 242.19,178.527 242.19,179.645 C242.19,180.722 243.516,181.219 246.456,181.219 C248.569,181.219 249.231,181.053 249.853,180.391 C250.805,179.314 251.302,179.935 251.302,182.213 L251.302,183.829 L268.284,183.621 C282.036,183.455 285.391,183.538 285.764,183.994 C286.095,184.45 291.107,184.533 312.024,184.491 C334.722,184.491 337.994,184.574 339.071,185.154 C339.899,185.568 340.769,185.692 341.473,185.527 C342.509,185.237 342.592,185.278 342.053,185.941 C341.556,186.521 341.597,186.811 342.177,187.97 C342.674,188.882 342.84,190 342.757,191.574 C342.633,193.852 342.633,193.852 341.1,194.1 C340.272,194.225 339.319,194.515 339.029,194.763 C338.615,195.095 328.674,195.799 326.065,195.674 C325.858,195.674 317.16,195.592 306.722,195.467 C288.953,195.26 287.71,195.26 286.219,196.006 C284.811,196.669 283.485,196.751 274.083,196.751 L263.521,196.751 L263.397,197.745 C263.314,198.284 263.438,198.905 263.687,199.154 C264.349,199.816 267.787,200.645 270.024,200.686 C271.888,200.686 272.219,200.852 274.953,203.378 C278.598,206.733 279.219,207.065 279.882,206.278 C280.627,205.408 282.284,205.532 282.864,206.485 C283.278,207.106 283.858,207.314 285.101,207.314 C286.675,207.314 287.089,207.562 289.864,210.296 C291.562,211.952 294.71,214.893 296.864,216.84 C299.018,218.787 301.545,221.106 302.456,222.018 C303.408,222.929 304.858,224.213 305.728,224.876 C306.598,225.497 307.84,226.573 308.503,227.236 C309.621,228.313 309.953,228.396 312.272,228.313 C314.674,228.23 314.84,228.147 315.13,227.071 C315.586,225.455 316.083,224.917 317.864,224.337 C319.231,223.881 319.645,223.923 321.095,224.668 C322.544,225.455 323.456,225.538 330.456,225.538 C336.627,225.538 338.408,225.414 339.444,224.876 C340.189,224.544 340.769,223.964 340.769,223.633 C340.769,223.177 341.39,223.053 343.461,223.053 C346.029,223.053 346.154,223.094 346.775,224.296 C347.272,225.248 347.686,225.538 348.639,225.538 C350.254,225.538 351.869,224.751 352.159,223.798 C352.367,223.219 352.822,223.053 354.272,223.053 C355.556,223.053 356.094,223.219 356.094,223.633 C356.094,224.544 357.296,225.331 357.834,224.793 C358.083,224.544 358.497,224.461 358.787,224.544 C359.076,224.668 359.988,224.337 360.816,223.84 C362.224,223.011 362.929,222.929 368.189,222.97 C373.573,222.97 374.029,223.053 374.567,223.84 C374.94,224.337 375.437,224.71 375.769,224.71 C376.68,224.71 377.633,223.011 377.633,221.355 C377.633,220.195 377.84,219.781 378.461,219.615 C378.916,219.491 379.289,219.118 379.289,218.745 C379.289,218 380.739,217.834 381.153,218.497 C381.65,219.284 384.384,218.952 385.378,218 L386.372,217.089 L386.62,218 C386.828,218.787 387.118,218.911 388.857,218.911 C390.763,218.911 390.928,218.828 391.632,217.378 C392.047,216.509 392.668,214.893 392.958,213.733 C393.248,212.615 393.662,211.414 393.91,211.165 C394.407,210.461 396.893,210.461 397.431,211.165 C397.68,211.456 397.928,213.361 398.011,215.432 L398.135,219.118 L408.697,219.201 C419.549,219.325 424.023,219.325 433.3,219.284 C439.472,219.242 441.585,219.864 441.957,221.769 C442.165,222.805 447.218,229.307 448.087,229.597 C448.294,229.68 448.46,229.929 448.46,230.136 C448.46,231.047 453.928,237.922 457.614,241.65 C457.987,242.023 458.484,242.727 458.732,243.224 C459.23,244.136 464.697,247.076 465.898,247.076 C466.271,247.076 466.809,247.325 467.058,247.656 C467.306,247.988 468.135,248.485 468.88,248.775 C469.626,249.065 470.661,249.603 471.241,249.976 C472.732,250.928 478.283,253.372 479.732,253.662 C480.519,253.828 481.016,254.242 481.141,254.739 C481.223,255.195 481.472,255.816 481.72,256.147 C482.383,256.934 492.075,261.573 493.069,261.573 C494.229,261.573 499.738,264.141 499.986,264.804 C500.111,265.094 499.365,266.544 498.371,268.076 C497.336,269.609 496.507,270.976 496.507,271.182 C496.507,271.348 496.259,271.514 495.927,271.514 C495.389,271.514 494.85,272.343 494.85,273.212 C494.85,273.419 495.223,273.958 495.72,274.455 C496.466,275.2 496.507,275.49 496.135,276.319 C495.762,277.189 495.555,277.272 494.892,276.898 C493.069,275.946 491.868,276.609 490.377,279.301 C489.963,280.005 488.679,281.91 487.519,283.609 C486.318,285.265 484.247,288.206 482.88,290.153 C481.513,292.1 480.105,294.046 479.774,294.502 C479.028,295.496 475.797,299.97 472.815,304.194 C471.614,305.851 470.04,308.005 469.377,308.958 C466.809,312.395 463.785,316.952 463.785,317.283 C463.785,317.449 463.371,318.194 462.833,318.898 C462.294,319.602 461.176,321.342 460.348,322.709 C459.478,324.117 458.525,325.401 458.152,325.525 C457.076,325.94 444.153,325.774 443.49,325.36 C442.993,325.028 442.827,325.277 442.661,326.519 C442.496,327.803 442.289,328.052 441.378,328.176 C440.756,328.259 439.928,328.673 439.555,329.087 C439.058,329.667 438.602,329.75 437.981,329.543 C436.159,328.839 433.094,328.259 431.354,328.259 C429.946,328.259 429.366,328.011 428.662,327.224 C428.165,326.644 427.75,325.981 427.75,325.774 C427.75,324.738 425.804,324.448 421.62,324.863 C419.342,325.111 417.064,325.194 416.609,325.07 C416.07,324.945 415.656,325.153 415.366,325.732 C414.952,326.436 414.496,326.602 412.798,326.602 C411.058,326.602 410.644,326.727 410.479,327.431 C410.354,327.886 410.064,328.259 409.774,328.301 C409.526,328.301 402.029,328.301 393.082,328.259 L376.845,328.218 L374.733,329.294 C372.248,330.537 372.165,331.283 374.319,332.732 C375.106,333.271 375.852,334.099 375.976,334.596 C376.1,335.093 376.804,335.756 377.508,336.087 C378.627,336.585 378.834,336.916 378.958,338.365 C379.082,340.022 379.124,340.064 380.656,340.188 C382.644,340.354 383.431,339.732 383.431,337.91 L383.431,336.502 L388.733,336.626 L393.993,336.75 L394.118,337.951 C394.201,338.697 393.952,339.443 393.372,340.064 C392.254,341.223 392.627,342.01 394.076,341.679 C395.236,341.389 395.857,341.969 395.857,343.501 C395.857,344.206 396.106,344.413 396.893,344.413 C397.763,344.413 397.928,344.62 397.928,345.572 C397.928,346.981 397.265,347.726 396.023,347.726 C395.526,347.726 395.029,348.016 394.863,348.348 C394.697,348.803 393.993,348.969 392.212,348.969 C390.514,348.969 389.561,348.762 389.23,348.348 C388.485,347.436 386.206,347.56 385.585,348.555 C385.088,349.383 384.632,349.383 366.076,349.383 C347.645,349.383 347.106,349.342 346.36,348.555 C345.947,348.099 345.159,347.726 344.621,347.726 C343.71,347.726 343.627,347.56 343.751,346.194 C343.876,344.785 344,344.62 345.159,344.496 C346.029,344.413 346.609,344.04 346.982,343.336 C347.479,342.466 347.81,342.342 349.84,342.342 C351.124,342.3 352.615,342.052 353.195,341.721 C353.775,341.389 355.017,341.141 355.97,341.099 C357.337,341.099 357.751,340.934 357.958,340.271 C358.165,339.567 358.579,339.443 360.609,339.443 C363.177,339.443 363.964,338.987 363.964,337.496 C363.964,336.833 364.254,336.502 365.041,336.294 C365.869,336.087 366.035,335.797 365.952,334.928 C365.869,334.099 365.579,333.809 364.709,333.727 C363.799,333.602 363.508,333.271 363.136,332.07 C362.929,331.241 362.721,330.247 362.721,329.874 C362.721,328.59 361.769,328.259 358.248,328.259 C355.142,328.259 354.769,328.176 354.562,327.431 C354.355,326.727 353.982,326.602 351.704,326.602 C350.171,326.602 348.97,326.395 348.804,326.105 C348.597,325.774 348.1,326.105 347.313,327.016 C346.154,328.425 346.112,328.425 344.994,327.762 C344.372,327.389 343.627,326.602 343.296,325.981 C342.798,324.987 342.592,324.904 341.018,325.028 C339.526,325.194 339.071,325.028 337.29,323.537 C335.923,322.419 334.722,321.798 333.562,321.673 C332.071,321.466 331.822,321.259 331.408,319.975 C331.118,319.023 330.331,318.111 329.254,317.366 C328.302,316.744 326.893,315.419 326.106,314.466 C325.319,313.514 323.166,311.525 321.302,310.034 C319.438,308.543 316.124,305.727 313.929,303.78 C311.692,301.833 309,299.638 307.882,298.892 C305.935,297.608 305.479,297.526 303.781,298.23 C303.077,298.52 303.036,298.396 303.284,296.697 C303.574,294.916 303.491,294.792 302.042,293.591 C300.841,292.555 299.971,292.265 297.775,292.017 C295,291.727 277.687,291.561 275.74,291.81 C275.16,291.893 274.249,291.81 273.669,291.644 C272.84,291.396 272.219,291.685 270.604,292.928 L268.574,294.502 L264.101,294.419 C260.249,294.378 259.586,294.46 259.379,295.041 C259.213,295.662 257.929,295.745 246.456,295.745 L233.699,295.745 L233.492,301.212 C233.368,304.194 233.202,306.762 233.077,306.887 C232.953,307.011 231.462,306.887 229.764,306.679 C226.906,306.265 224.628,306.307 219.533,306.887 L217.338,307.094 L217.338,305.685 C217.338,304.484 217.173,304.194 216.22,303.946 C214.232,303.366 199.652,303.78 196.338,304.484 C195.469,304.65 195.427,304.94 195.303,308.295 L195.179,311.898 L192.693,311.733 C186.895,311.401 181.344,311.608 180.599,312.188 C180.309,312.437 179.397,312.603 178.569,312.603 C177.078,312.603 176.208,313.058 170.989,316.496 C169.995,317.158 168.587,318.028 167.883,318.484 C167.179,318.898 165.771,319.934 164.735,320.762 C160.842,323.993 160.137,324.241 156.244,323.91 C153.055,323.661 152.765,323.703 152.35,324.49 C152.102,324.945 151.895,325.898 151.895,326.602 C151.895,327.514 151.688,327.969 151.149,328.135 C150.487,328.301 148.581,332.277 148.581,333.519 C148.581,333.768 149.161,334.182 149.824,334.472 C151.025,334.969 151.066,335.093 151.066,337.62 L151.066,340.271 L152.433,340.271 C153.137,340.271 155.084,340.561 156.658,340.975 C160.883,341.969 166.102,342.176 166.765,341.348 C167.634,340.312 166.93,339.111 165.439,338.945 C164.114,338.821 164.114,338.78 163.989,336.46 C163.865,334.141 163.907,334.058 165.025,333.851 C165.646,333.685 166.64,333.436 167.22,333.23 C167.8,333.022 169.581,332.774 171.238,332.608 C173.972,332.36 174.22,332.443 174.842,333.312 C175.629,334.431 175.711,337.703 174.966,338.697 C174.676,339.069 173.93,339.525 173.309,339.65 C172.108,339.981 171.901,340.643 172.688,341.431 C173.309,342.052 174.469,342.052 175.546,341.431 C176.25,340.975 176.457,341.016 176.995,341.679 C177.327,342.135 177.575,342.839 177.575,343.253 C177.575,343.626 177.948,344.164 178.404,344.413 C178.984,344.703 179.232,345.283 179.232,346.194 C179.232,347.809 178.611,348.555 177.327,348.555 C176.788,348.555 176.25,348.762 176.126,348.969 C176.001,349.217 174.676,349.383 173.185,349.383 C171.693,349.383 170.534,349.217 170.534,348.969 C170.534,348.306 167.634,348.472 166.972,349.176 C166.433,349.714 163.658,349.797 147.339,349.797 C129.114,349.797 128.286,349.756 127.581,349.01 C127.167,348.555 126.297,348.058 125.676,347.934 C124.641,347.643 124.517,347.478 124.641,346.111 C124.765,344.703 124.848,344.62 126.256,344.496 C127.333,344.413 127.83,344.123 127.996,343.626 C128.12,343.129 128.99,342.59 130.398,342.135 C133.049,341.306 135.41,340.23 135.824,339.65 C135.99,339.443 136.155,337.827 136.155,336.087 C136.155,333.105 136.197,332.939 137.522,331.656 C138.765,330.454 139.055,330.33 140.049,330.744 C140.67,330.951 141.416,331.158 141.747,331.158 C142.493,331.158 143.777,326.934 143.445,325.567 C143.279,324.863 143.487,323.952 144.149,322.75 C146.096,319.188 147.09,315.792 147.132,312.188 C147.215,308.336 147.09,308.17 143.818,308.461 C142.203,308.585 142.203,308.626 141.747,310.863 C141.416,312.809 141.167,313.182 140.339,313.265 C139.386,313.431 139.345,313.39 139.635,310.904 L139.925,308.378 L135.368,308.378 L135.244,310.159 L135.12,311.898 L129.487,311.733 C126.091,311.65 123.522,311.774 123.025,312.023 C122.57,312.271 121.99,312.312 121.659,312.105 C121.327,311.898 120.789,311.898 120.416,312.105 C119.463,312.603 118.759,311.815 118.759,310.324 L118.759,309.165 L112.877,309.33 C109.605,309.413 106.416,309.62 105.795,309.827 C105.09,309.993 103.972,309.952 103.102,309.662 C102.232,309.413 97.842,309.082 93.286,308.999 C88.73,308.875 82.683,308.667 79.866,308.543 C74.606,308.336 73.736,308.543 74.233,309.952 C74.316,310.241 74.233,310.904 73.943,311.443 C73.57,312.354 73.322,312.437 71.582,312.229 C69.635,311.981 64.458,311.981 60.357,312.188 L58.079,312.312 L57.665,299.472 L56.132,299.348 C53.896,299.141 51.908,299.804 51.742,300.756 C51.452,302.289 50.624,302.454 44.908,302.33 L39.357,302.165 L38.902,303.2 C38.612,303.78 38.405,304.816 38.405,305.437 C38.405,306.431 37.783,307.135 36.914,307.135 C36.831,307.135 36.748,306.431 36.748,305.603 C36.748,303.614 35.92,301.999 34.884,301.833 C34.428,301.75 33.476,301.419 32.73,301.088 C32.026,300.756 30.162,300.508 28.588,300.508 C25.358,300.508 24.861,300.301 24.695,298.851 C24.529,297.898 24.322,297.774 21.837,297.567 C20.346,297.401 17.322,297.07 15.127,296.821 C12.89,296.573 9.245,296.2 7.05,295.952 C1.748,295.413 0.837,295.206 0.547,294.46 C0.423,294.088 0.506,293.467 0.713,293.052 C1.334,291.893 1.21,289.614 0.464,288.579 C-0.074,287.792 -0.074,287.502 0.34,287.005 C1.003,286.177 1.003,281.538 0.34,279.467 C-0.157,278.058 -0.116,277.685 0.506,276.774 C1.085,275.863 1.127,275.49 0.672,274.248 C-0.074,272.218 0.547,271.68 3.943,271.39 C5.476,271.224 8.293,270.934 10.239,270.686 C12.186,270.437 15.168,270.064 16.867,269.816 C18.565,269.609 21.133,269.319 22.583,269.153 C25.026,268.946 25.192,268.863 25.067,267.952 C24.902,266.627 26.228,265.674 27.511,266.254 C28.506,266.668 32.772,265.964 33.641,265.218 C33.849,265.053 34.346,264.887 34.76,264.887 C35.588,264.887 36.748,262.526 36.748,260.745 C36.748,259.668 37.618,258.84 38.156,259.378 C38.281,259.544 38.405,260.207 38.405,260.869 C38.405,261.573 38.612,262.774 38.902,263.52 C39.357,264.804 39.482,264.887 41.511,264.887 C42.671,264.887 43.831,264.68 44.079,264.431 C44.411,264.1 44.784,264.1 45.363,264.431 C46.689,265.135 48.635,265.011 48.926,264.183 C49.091,263.769 49.008,261.325 48.76,258.674 C47.476,245.171 47.103,241.195 46.854,238.171 C46.689,236.349 46.44,234.65 46.233,234.443 C46.068,234.195 45.902,232 45.902,229.556 C45.902,227.071 45.777,224.917 45.612,224.668 C45.363,224.213 42.547,195.509 41.843,185.982 C41.718,184.16 41.387,182.42 41.139,182.089 C40.89,181.758 40.683,179.852 40.641,177.74 C40.641,172.645 40.144,168.503 39.357,166.639 C38.985,165.811 38.819,164.693 38.943,164.237 C39.316,162.829 38.86,162.166 37.535,162.166 C36.458,162.166 36.334,162.042 36.375,160.84 C36.375,160.095 36.292,158.977 36.127,158.314 C35.837,157.32 35.92,157.195 36.914,157.195 C37.659,157.195 38.405,156.781 39.068,155.953 L40.103,154.752 L51.576,154.545 C57.872,154.42 65.204,154.213 67.854,154.089 C72.493,153.84 72.7,153.799 73.156,152.805 C73.404,152.225 73.612,151.397 73.612,150.941 C73.619,150.203 73.934,150.223 74.571,150.203 z M162.167,308.378 C159.351,308.378 158.895,308.502 158.356,309.289 C157.528,310.449 157.528,311.443 158.315,312.105 C159.143,312.768 159.102,314.963 158.273,315.874 C157.901,316.289 157.735,316.827 157.901,317.034 C158.025,317.283 158.398,317.49 158.729,317.49 C159.475,317.49 163.617,315.253 166.475,313.307 C167.8,312.437 169.001,311.691 169.167,311.691 C169.913,311.65 171.445,309.993 171.238,309.496 C170.989,308.833 167.179,308.378 162.167,308.378 z" fill="#000000"/>
  </g>
</svg>
