<?xml version="1.0" encoding="UTF-8"?>
<!DOCTYPE svg PUBLIC "-//W3C//DTD SVG 1.1//EN" "http://www.w3.org/Graphics/SVG/1.1/DTD/svg11.dtd">
<svg version="1.1" xmlns="http://www.w3.org/2000/svg" xmlns:xlink="http://www.w3.org/1999/xlink" x="0" y="0" width="500" height="500" viewBox="0, 0, 500, 500">
  <g id="layer102">
    <path d="M235.444,0 C274.839,0 280.901,0.756 291.506,8.333 C298.324,12.88 305.521,19.698 308.173,23.105 C310.824,26.895 321.052,30.302 334.308,31.818 C363.475,35.228 370.673,39.395 366.126,50.756 C362.339,60.985 367.262,68.182 378.25,68.182 C382.416,68.182 390.37,70.833 396.429,73.864 C407.037,79.167 407.793,81.438 407.793,100 C407.793,111.364 411.204,167.802 414.991,226.136 C427.87,407.954 427.491,404.167 418.778,412.5 C414.611,416.287 405.142,422.728 397.944,426.515 C386.583,432.577 385.068,435.228 386.96,443.182 C388.095,448.485 389.611,460.228 390.37,469.698 C391.126,479.167 392.262,489.395 393.021,492.423 C394.157,497.349 386.96,498.105 346.429,499.244 C302.111,500 297.944,499.62 297.944,493.562 C297.944,489.772 294.157,482.198 289.234,476.515 C281.657,466.667 279.762,466.287 265.75,469.698 C257.416,471.59 245.293,473.485 238.855,473.485 L227.111,473.485 L224.46,434.849 C221.052,387.5 217.262,370.833 206.657,361.364 C200.595,355.682 198.324,355.302 195.673,359.469 C191.506,366.667 187.719,399.244 186.204,439.772 C185.444,464.772 183.552,475.38 179.006,480.682 C175.595,484.09 172.944,490.151 172.944,493.562 C172.944,499.244 167.262,500 125.975,500 L78.626,500 L80.901,478.41 C82.037,466.287 85.444,449.62 88.095,441.287 C91.126,432.954 100.595,405.682 109.308,380.682 C117.642,355.682 127.491,331.438 130.142,326.895 C133.173,322.349 134.688,317.046 133.552,315.151 C132.416,313.256 135.068,304.167 139.611,295.077 C145.673,282.198 147.188,272.349 146.808,250 C146.429,234.469 144.537,220.077 142.642,218.182 C138.475,214.015 135.068,234.469 136.204,258.713 C137.339,284.469 125.219,291.667 106.657,275.756 C97.568,267.423 97.188,265.151 96.808,221.59 C96.429,196.59 97.568,172.349 99.083,167.802 C101.355,160.228 100.595,159.09 93.021,159.09 C88.095,159.09 81.657,157.577 78.626,155.682 C74.083,152.651 73.704,151.136 77.87,146.213 C88.095,134.09 105.521,77.651 106.278,56.818 C106.657,37.12 107.037,35.985 118.021,33.713 C124.46,32.198 135.824,31.062 143.401,30.682 C152.111,30.302 159.308,27.651 162.339,23.485 C164.991,19.698 172.568,12.88 179.386,8.333 C189.991,0.756 196.052,0 235.444,0 z M167.709,164.826 C163.459,164.491 159.614,166.36 155.901,168.182 C145.673,173.485 145.673,173.485 153.626,177.651 C158.173,180.302 161.583,184.09 161.583,186.744 C161.583,189.395 163.475,193.562 166.126,196.213 C172.568,202.651 175.975,201.895 179.006,192.423 C180.521,187.5 179.762,183.333 177.111,182.577 C174.839,181.818 172.944,178.031 172.944,174.244 C172.848,171.251 172.69,167.359 169.804,165.572 C169.174,165.182 168.407,165.075 167.709,164.826 z" fill="#000000"/>
  </g>
</svg>
