<?xml version="1.0" encoding="UTF-8"?>
<!DOCTYPE svg PUBLIC "-//W3C//DTD SVG 1.1//EN" "http://www.w3.org/Graphics/SVG/1.1/DTD/svg11.dtd">
<svg version="1.1" xmlns="http://www.w3.org/2000/svg" xmlns:xlink="http://www.w3.org/1999/xlink" x="0" y="0" width="500" height="500" viewBox="0, 0, 500, 500">
  <g id="layer101">
    <path d="M152.905,499.148 C146.416,497.378 144.515,494.953 143.597,487.022 C142.941,481.712 142.81,481.384 141.237,481.188 C140.32,481.122 137.304,480.401 134.486,479.615 C130.159,478.435 129.242,477.91 128.652,476.534 C127.865,474.371 128.586,468.275 129.766,467.292 C130.749,466.505 133.044,459.95 133.765,455.952 C134.158,453.789 133.896,453.264 131.798,450.904 L129.373,448.217 L129.766,437.926 C129.963,432.289 130.422,426.193 130.749,424.357 C131.143,422.587 131.733,418.851 132.06,416.164 C132.454,413.476 133.371,409.215 134.027,406.659 C139.009,388.83 140.188,384.962 141.893,381.161 C143.007,378.735 144.777,375.392 145.826,373.688 C146.874,371.918 148.972,367.789 150.48,364.38 L153.167,358.284 L152.053,354.482 C149.955,347.6 151.004,341.831 155.92,332.917 C156.51,331.868 157.1,327.214 157.559,320.135 C158.214,308.598 158.477,307.549 163.524,293.457 C166.605,284.739 169.095,282.903 171.062,287.819 C171.98,290.245 172.242,290.441 172.832,289.458 C173.159,288.803 173.29,287.819 173.094,287.295 C172.766,286.377 174.667,272.088 175.912,266.057 C177.027,260.617 177.486,248.228 176.699,243.246 C175.978,238.658 175.323,236.691 172.963,232.496 C171.652,230.137 172.373,227.58 174.733,226.4 C177.289,225.024 178.665,225.155 182.992,227.056 C186.728,228.76 192.627,234.397 198.068,241.542 C200.034,244.098 200.493,244.295 204.098,244.754 C209.015,245.344 211.505,244.295 212.03,241.476 C212.292,240.428 212.947,238.527 213.603,237.347 C214.521,235.577 214.586,234.725 214.062,233.086 C213.668,231.906 213.144,229.35 212.882,227.383 C212.226,222.926 211.44,222.664 205.934,225.351 C201.214,227.646 197.019,227.973 193.152,226.335 C186.204,223.451 182.73,214.864 185.548,207.391 C186.072,205.949 186.728,204.31 186.925,203.72 C187.121,203.065 186.335,201.623 184.958,200.115 C183.713,198.673 182.533,196.772 182.336,195.855 C182.074,194.871 180.239,191.463 178.272,188.185 C174.405,181.958 173.356,178.288 173.356,170.946 C173.356,167.472 172.438,163.474 171.39,162.228 C171.062,161.966 170.013,162.294 168.964,163.015 C167.981,163.736 166.015,164.522 164.704,164.719 C162.672,165.112 161.885,165.768 159.984,168.586 C158.804,170.487 157.559,172.65 157.297,173.437 C157.1,174.289 155.461,176.649 153.626,178.681 C151.856,180.778 150.414,182.745 150.414,183.073 C150.414,183.4 151.07,185.039 151.922,186.678 C154.216,191.463 153.823,198.935 150.742,208.505 C149.431,212.569 147.464,218.862 146.35,222.402 C145.301,226.007 143.925,229.678 143.269,230.595 C142.614,231.513 140.975,234.725 139.598,237.675 C138.222,240.69 136.583,243.574 135.928,244.164 C135.272,244.754 134.355,246.327 133.961,247.638 C133.568,248.949 132.65,250.784 131.929,251.768 C130.291,254.127 128.193,260.223 127.406,264.812 C126.62,269.597 124.326,276.414 122.818,278.577 C121.31,280.74 116.46,295.882 115.608,301.126 C114.624,307.287 112.461,313.318 110.364,315.678 C109.315,316.857 108.332,318.693 108.07,319.676 C107.414,322.757 106.3,325.182 104.727,327.083 C103.809,328.132 101.908,332.72 100.335,337.309 C97.91,344.65 97.254,345.895 95.353,347.206 C91.027,350.156 83.948,348.648 81.195,344.257 C80.539,343.273 79.294,341.635 78.376,340.652 C77,339.078 76.41,338.882 74.378,339.209 C72.411,339.537 71.625,339.341 70.117,337.898 C67.888,335.866 67.298,335.801 63.169,337.571 C60.809,338.62 59.105,338.882 56.679,338.685 C52.55,338.292 50.387,336.85 48.683,333.245 L47.306,330.36 L50.321,321.642 C52.222,316.333 53.402,311.745 53.402,309.975 C53.402,308.336 53.992,305.714 54.713,304.141 C55.434,302.568 56.024,299.88 56.024,298.176 C56.024,294.899 58.515,287.361 60.547,284.476 C62.186,282.182 67.692,266.254 69.134,259.83 C70.314,254.324 72.673,248.228 74.05,247.048 C75.492,245.868 79.425,232.169 80.277,225.089 C81.195,218.272 82.964,208.833 84.013,205.228 L85.128,201.82 L83.292,199.919 C81.653,198.214 81.391,197.297 80.736,190.873 C80.08,183.794 80.08,183.728 81.85,179.861 C82.833,177.698 84.734,174.748 86.111,173.306 C89.388,169.897 89.782,169.111 91.682,161.573 C93.452,154.821 94.435,152.658 98.565,146.103 C103.94,137.582 105.185,135.222 106.169,131.945 C106.693,130.109 107.807,127.75 108.594,126.766 C109.577,125.521 110.233,123.489 110.495,120.932 C110.757,118.704 111.216,115.557 111.413,113.853 C112.003,110.248 112.592,110.707 102.432,107.429 C98.893,106.315 94.894,105.463 93.583,105.529 C90.699,105.66 85.849,104.349 84.8,103.103 C82.964,100.875 89.388,90.583 101.187,76.949 C111.937,64.626 115.214,59.513 116.591,52.893 C117.05,50.795 121.769,47.715 134.945,40.898 C146.547,34.867 158.608,29.754 170.406,25.821 C185.81,20.709 184.958,21.167 186.138,18.021 C187.58,14.35 192.955,8.975 195.446,8.779 C198.592,8.517 205.737,6.419 207.9,5.042 C209.146,4.321 210.588,3.928 211.309,4.19 C212.882,4.649 220.879,3.338 223.173,2.224 C224.353,1.634 226.516,1.568 231.039,1.962 C236.676,2.486 237.397,2.421 239.036,1.241 C241.199,-0.333 241.789,-0.398 242.903,0.978 C243.559,1.831 244.739,1.896 249.327,1.634 C257.586,1.11 258.045,1.11 268.074,1.831 C277.513,2.552 283.871,3.404 288.394,4.649 C293.376,5.96 301.11,16.776 300.193,21.036 C299.275,25.035 302.159,35.129 303.994,34.474 C305.437,34.015 306.485,28.968 306.42,22.544 C306.354,18.939 306.354,15.465 306.354,14.875 C306.42,13.236 309.763,13.367 319.988,15.399 C336.048,18.545 353.549,23.527 358.072,26.215 C359.252,26.87 360.694,27.46 361.284,27.46 C362.595,27.46 375.901,33.359 377.409,34.605 C377.999,35.129 378.523,36.178 378.523,36.899 C378.589,41.225 384.423,48.829 392.878,55.58 C396.156,58.202 400.679,62.463 402.973,65.019 C408.151,70.919 413.92,78.588 413.92,79.702 C413.92,80.62 408.741,83.832 407.234,83.832 C406.644,83.832 403.891,85.405 401.072,87.306 C398.188,89.207 394.517,91.567 392.878,92.55 C391.174,93.468 389.601,94.779 389.404,95.369 C388.749,97.138 390.322,104.283 391.961,106.774 C392.813,108.019 394.517,111.952 395.828,115.426 C398.253,121.981 398.843,126.701 397.532,129.978 C397.008,131.355 397.27,132.272 398.581,134.763 C400.089,137.516 400.22,138.5 399.958,142.695 C399.695,147.611 400.351,149.381 402.449,149.381 C403.563,149.381 404.743,147.349 404.743,145.579 C404.743,144.923 405.529,142.891 406.447,141.121 C408.413,137.451 408.348,135.943 405.792,129.585 C403.825,124.734 403.694,123.423 405.07,122.899 C406.25,122.44 409.79,125.324 410.38,127.291 C410.577,128.077 411.756,130.83 412.936,133.321 C417.131,142.17 423.096,160.786 423.096,164.981 C423.096,166.292 422.506,168.324 421.785,169.373 C421.064,170.487 420.474,172.257 420.474,173.306 C420.409,174.42 420.016,175.993 419.491,176.911 C417.787,179.926 418.311,181.172 424.276,187.727 C427.423,191.201 430.372,194.871 430.831,195.789 C431.29,196.772 432.011,198.28 432.47,199.132 C432.929,200.05 434.371,201.098 435.878,201.623 C439.025,202.672 441.057,204.573 442.171,207.26 C442.564,208.44 443.81,211.324 444.793,213.749 C446.104,216.699 446.694,219.124 446.628,221.287 C446.563,223.451 447.48,227.121 449.512,233.021 C452.724,242.263 452.79,242.656 452.659,248.883 C452.593,252.685 452.462,253.079 450.627,254.193 C449.512,254.848 447.022,255.766 445.055,256.225 C441.843,257.011 441.122,256.946 439.221,256.028 C436.927,254.979 431.683,255.176 430.897,256.422 C430.241,257.339 430.962,262.124 432.011,264.222 C432.798,265.795 432.798,266.319 431.814,268.286 C430.962,270.121 430.045,270.842 427.554,271.694 C425.849,272.219 424.407,272.743 424.342,272.809 C424.342,272.874 423.949,275.431 423.555,278.511 C422.572,285.263 421.785,285.984 415.362,285.394 C412.74,285.132 410.38,285.328 408.938,285.853 C406.775,286.639 406.644,286.574 403.825,283.821 C402.186,282.248 400.548,280.15 400.154,279.167 C399.368,277.332 399.827,275.758 402.449,271.301 C402.973,270.383 403.432,268.024 403.432,265.992 C403.432,262.845 403.17,262.059 401.531,260.354 C400.482,259.24 398.122,255.569 396.287,252.161 C392.944,245.999 390.715,243.115 389.863,244.033 C389.208,244.688 387.569,249.211 387.635,250.326 C387.635,250.85 387.831,252.423 388.093,253.8 C388.421,255.832 388.224,256.749 387.11,258.257 C385.996,259.765 385.734,261.01 385.734,265.074 C385.734,273.53 384.292,275.365 375.901,277.463 C368.822,279.298 367.511,278.118 366.331,268.679 C366.004,265.992 365.414,264.681 364.103,263.435 C361.546,261.01 360.694,259.175 361.415,257.405 C361.743,256.553 362.071,251.768 362.202,246.72 C362.464,238.002 362.398,237.544 361.153,237.347 C357.351,236.757 356.958,236.495 355.975,233.807 C354.205,228.957 352.304,220.698 352.304,217.813 C352.304,212.307 354.336,197.69 355.647,193.954 L356.958,190.086 L354.991,186.153 C353.811,183.925 352.959,181.172 352.959,179.795 C352.959,178.55 352.369,175.076 351.648,172.192 C350.534,167.865 350.403,166.554 351.058,164.653 C351.714,162.556 351.648,162.228 349.944,160.458 C348.961,159.41 347.388,157.181 346.47,155.411 C344.962,152.724 344.504,152.33 342.406,152.134 C340.898,152.003 339.456,151.347 338.539,150.298 C336.703,148.397 335.851,148.332 334.344,149.905 C333.295,151.15 333.098,154.952 333.426,168.39 C333.491,172.913 333.295,173.83 330.804,179.271 C329.296,182.614 328.051,186.153 328.051,187.202 C328.051,188.448 327.461,189.693 326.412,190.676 C324.708,192.249 324.249,194.871 325.494,195.658 C326.871,196.445 328.706,201.951 328.706,205.162 C328.706,206.932 328.247,209.423 327.723,210.734 C326.543,213.618 326.805,214.274 329.821,215.912 C331.197,216.634 332.967,218.272 333.819,219.518 C335.261,221.615 335.327,222.271 334.999,226.859 C334.737,230.268 334.016,233.086 332.77,235.708 C331.132,239.248 331.001,240.1 331.066,247.704 C331.132,252.226 331.656,259.437 332.246,263.763 C333.295,270.908 333.754,272.415 337.555,280.609 C341.161,288.278 341.685,289.917 341.161,291.359 C340.767,292.277 340.505,293.85 340.505,294.899 C340.505,297.586 343.258,303.42 345.88,306.435 C347.125,307.877 349.223,310.499 350.534,312.4 C352.238,314.694 353.615,315.94 354.926,316.202 C357.089,316.661 360.825,320.921 360.825,322.953 C360.825,323.609 359.907,325.969 358.728,328.066 C356.958,331.409 356.696,332.589 356.63,336.85 C356.63,342.356 356.892,343.077 361.612,349.173 C365.02,353.565 366.725,356.842 366.725,359.136 C366.725,359.923 367.314,361.889 368.036,363.594 C368.757,365.298 369.478,368.444 369.609,370.607 C369.74,372.77 370.199,376.31 370.592,378.539 C370.985,380.702 371.313,385.421 371.313,389.026 C371.313,392.566 371.379,396.565 371.444,397.81 C371.575,400.76 370.199,410.789 369.281,413.476 C368.494,415.77 366.593,416.164 364.627,414.394 C363.906,413.738 363.185,413.542 362.792,413.935 C361.874,414.853 363.971,418.654 366.528,420.621 C368.757,422.456 369.281,424.357 367.97,426.717 C367.446,427.7 367.577,428.487 368.56,430.125 C369.281,431.305 370.33,433.796 370.92,435.763 C371.51,437.729 372.493,439.696 373.148,440.154 C374.918,441.4 375.508,448.479 374.197,452.805 C372.821,457.394 371.116,458.442 362.398,459.753 C353.68,461.064 347.125,460.671 334.606,458.115 C323.462,455.821 321.889,455.165 316.973,450.642 C314.81,448.61 312.516,446.971 311.991,446.971 C310.025,446.971 306.551,448.807 303.863,451.298 C300.848,453.985 296.85,455.034 292.982,454.182 C290.819,453.723 282.167,447.693 278.103,443.825 C275.153,441.007 274.956,439.106 277.251,436.09 C278.168,434.91 278.889,433.075 278.889,431.961 C278.889,430.912 279.545,428.618 280.266,426.848 C281.97,422.915 283.216,417.802 283.806,412.231 C284.199,408.167 284.068,407.708 281.577,402.529 C280.135,399.58 278.431,395.254 277.841,393.025 C275.94,385.618 273.187,380.898 267.549,375.392 L262.371,370.345 L261.781,365.56 C261.191,360.12 261.912,354.351 263.879,348.452 C265.911,342.487 270.827,333.048 272.4,332.261 C274.235,331.213 277.382,332.524 278.562,334.883 C280.397,338.423 281.184,338.554 284.33,335.408 C285.903,333.835 288.394,331.802 289.902,330.819 C291.802,329.574 292.655,328.525 292.655,327.542 C292.655,326.69 293.048,324.723 293.572,323.085 C294.949,318.693 295.866,314.432 295.539,313.646 C295.408,313.252 294.424,312.4 293.31,311.81 C290.885,310.434 288.722,306.239 288.263,301.912 C288.066,300.011 287.411,297.914 286.755,297.193 C286.1,296.472 285.248,295.226 284.854,294.44 C284.461,293.588 283.871,292.932 283.609,292.932 C283.347,292.932 281.511,294.112 279.545,295.62 C275.677,298.504 265.059,303.879 261.912,304.469 C259.487,304.993 252.67,301.912 248.475,298.504 C244.804,295.489 243.296,292.473 243.624,288.475 L243.821,285.394 L240.216,285.001 C238.249,284.804 236.152,284.411 235.562,284.149 C234.185,283.559 229.728,287.295 229.728,288.999 C229.728,289.589 229.138,290.9 228.417,291.818 C227.696,292.736 227.106,294.374 227.106,295.423 C227.106,297.914 225.402,302.699 224.025,304.272 C223.304,304.993 222.714,307.222 222.452,310.237 C221.928,315.612 220.682,318.627 217.864,320.921 C216.88,321.774 215.111,324.133 214.062,326.165 L212.03,329.836 L213.472,332.13 C215.569,335.539 215.438,337.702 212.292,356.58 C210.588,366.609 211.964,374.475 215.111,372.508 C215.635,372.18 217.077,369.427 218.257,366.412 C221.665,357.825 224.681,355.793 226.713,360.578 C227.499,362.414 229.728,374.606 229.859,377.49 C229.859,378.014 230.121,381.161 230.449,384.504 C231.039,390.862 230.252,404.824 229.072,409.15 C228.548,410.789 227.827,411.837 226.713,412.231 L225.139,412.886 L225.139,423.308 C225.139,434.452 225.074,434.845 219.961,447.824 C219.371,449.331 219.502,449.856 220.682,451.035 C222.845,453.199 226.844,460.933 227.761,464.538 C228.876,469.389 228.81,474.633 227.499,476.599 C226.909,477.517 224.55,479.549 222.321,481.122 L218.257,484.006 L210.391,484.006 L202.525,484.006 L200.886,487.415 C199.51,490.365 198.986,490.889 197.412,490.889 C196.429,490.889 195.053,490.561 194.332,490.102 C193.283,489.447 192.758,489.513 191.054,490.824 C185.81,494.625 183.188,496.067 178.928,497.313 C169.685,500 158.935,500.787 152.905,499.148 z M291.475,60.628 C300.717,59.448 302.88,58.53 303.732,55.122 C304.781,51.385 304.912,37.555 303.994,36.571 C303.339,35.916 303.077,36.113 302.552,37.424 C302.225,38.341 301.045,39.456 299.93,39.849 C298.62,40.439 297.702,41.422 297.243,42.864 C296.325,45.683 294.031,47.715 290.623,48.698 C288.722,49.288 287.476,50.074 287.017,51.123 C286.624,51.975 285.51,54.335 284.527,56.302 C282.757,60.038 282.429,61.545 283.347,61.545 C283.609,61.545 287.28,61.087 291.475,60.628 z" fill="#000000"/>
  </g>
</svg>
