<?xml version="1.0" encoding="UTF-8"?>
<!DOCTYPE svg PUBLIC "-//W3C//DTD SVG 1.1//EN" "http://www.w3.org/Graphics/SVG/1.1/DTD/svg11.dtd">
<svg version="1.1" xmlns="http://www.w3.org/2000/svg" xmlns:xlink="http://www.w3.org/1999/xlink" x="0" y="0" width="500" height="500" viewBox="0, 0, 500, 500">
  <g id="Layer_1">
    <path d="M123.471,366.562 C123.082,366.173 122.804,365.673 122.804,365.395 C122.804,365.117 122.193,364.173 121.415,363.284 C120.693,362.395 119.915,360.728 119.692,359.561 C119.137,356.449 118.637,356.116 114.525,356.116 C111.802,356.116 110.413,356.393 109.19,357.227 C107.079,358.616 106.356,358.616 103.633,357.171 C101.633,356.06 100.799,356.004 95.465,356.282 C91.52,356.505 88.964,356.893 87.741,357.56 C86.018,358.394 85.685,358.449 83.073,357.616 C81.462,357.116 77.35,356.616 73.182,356.449 C64.458,356.116 63.347,355.615 63.347,351.948 C63.347,349.114 62.569,346.669 61.291,345.724 C60.624,345.224 57.512,345.113 48.844,345.391 L37.23,345.724 L30.507,339.112 C19.282,328.11 12.781,320.775 12.781,319.163 C12.781,318.163 12.225,317.441 10.669,316.44 C5.835,313.384 5.168,311.439 4.723,299.159 C4.445,291.602 3.834,289.268 2,288.434 C0.833,287.934 0.722,287.379 0.389,282.377 C0.167,279.377 -0,274.042 -0,270.542 C-0,264.151 -0,264.096 1.611,262.707 C3.223,261.317 3.278,261.151 3.278,255.538 C3.334,251.482 3.556,249.537 4.056,248.981 C4.501,248.592 6.779,248.092 9.502,247.87 L14.17,247.481 L14.448,242.925 C14.725,238.59 14.781,238.312 17.115,235.701 C18.393,234.256 20.282,231.978 21.282,230.7 C23.338,227.921 24.728,227.421 27.45,228.31 C28.84,228.755 29.729,228.755 30.507,228.366 C31.118,228.032 32.285,227.755 33.174,227.755 C34.23,227.755 35.174,227.255 36.119,226.088 L37.508,224.421 L40.509,226.365 C42.62,227.755 44.009,228.31 45.287,228.199 C46.288,228.144 47.566,228.421 48.066,228.866 C48.899,229.588 49.177,229.477 50.4,228.032 C53.734,224.032 53.9,223.476 53.9,216.53 L53.9,210.029 L55.512,208.917 C57.012,207.806 57.068,207.639 57.457,201.027 C57.679,197.359 58.012,193.97 58.179,193.525 C58.401,192.969 59.402,192.747 61.68,192.747 C64.903,192.747 64.903,192.747 65.625,194.803 C66.014,196.137 66.181,198.526 65.959,201.693 C65.681,205.805 65.792,206.806 66.737,208.528 C67.57,210.14 67.792,211.862 67.903,218.141 C68.07,226.699 67.737,226.088 72.127,225.199 C73.682,224.865 74.127,225.087 75.794,226.921 C77.406,228.644 77.961,228.922 79.128,228.644 C79.906,228.477 80.573,228.088 80.573,227.81 C80.573,227.532 81.518,226.532 82.74,225.587 L84.852,223.865 L87.297,226.365 C90.353,229.477 91.797,229.588 94.298,226.866 C95.965,225.032 96.354,224.865 98.354,225.143 C99.91,225.31 100.966,225.921 101.744,226.921 C102.689,228.088 103.3,228.31 104.911,228.199 C106.134,228.088 107.079,227.643 107.468,226.921 C108.357,225.254 108.968,224.976 111.691,224.976 C115.914,224.921 115.858,225.087 115.692,214.974 L115.469,206.028 L117.914,203.861 C119.97,201.971 120.637,201.638 122.804,201.638 C124.249,201.638 125.638,201.36 126.027,200.971 C126.416,200.582 126.694,198.582 126.694,195.914 L126.694,191.469 L129.139,189.08 C131.195,187.024 131.862,186.635 133.751,186.635 C136.307,186.635 138.474,188.079 139.808,190.636 C140.53,191.969 140.641,194.525 140.641,204.583 C140.641,211.362 140.808,217.475 140.975,218.197 C141.364,219.753 143.086,219.808 143.92,218.308 C144.42,217.419 145.031,217.197 146.643,217.252 C149.032,217.419 151.977,216.419 153.755,214.807 C155.478,213.252 160.646,212.863 162.535,214.085 C163.313,214.585 163.924,215.363 163.924,215.808 C163.924,217.864 166.258,217.086 169.648,213.974 L171.148,212.529 L171.148,202.972 C171.148,194.97 171.315,193.247 172.037,192.525 C173.093,191.469 172.037,191.58 181.428,191.302 C191.152,191.025 191.152,191.025 191.152,183.912 C191.208,179.466 191.319,178.966 192.819,176.966 C194.153,175.243 194.486,174.188 194.486,172.132 C194.486,168.853 195.32,166.964 197.042,166.13 C198.098,165.686 198.376,165.13 198.376,163.63 C198.376,160.296 199.265,158.907 202.099,157.628 C204.488,156.573 205.1,156.517 207.767,157.073 C209.767,157.517 210.99,157.517 211.434,157.184 C211.934,156.795 212.046,154.406 211.823,148.682 C211.657,143.459 211.768,140.347 212.157,139.569 C212.546,138.902 213.768,138.18 215.324,137.791 C217.436,137.291 217.991,136.846 218.491,135.457 C219.492,132.512 223.326,131.734 225.493,134.012 C226.604,135.179 226.715,135.902 226.715,140.847 L226.715,146.348 L228.938,148.293 C231.05,150.127 231.161,150.46 231.494,154.239 C231.883,158.518 231.383,159.962 229.494,159.962 C227.215,159.962 227.16,160.796 227.215,180.745 C227.327,201.416 227.604,205.139 229.271,206.361 C230.216,207.028 230.327,208.195 230.605,220.086 C230.883,232.589 230.938,233.034 231.994,233.034 C232.994,233.034 233.161,232.589 233.383,228.699 C233.606,224.865 233.828,224.198 235.05,223.309 C237.495,221.42 239.44,220.864 241.552,221.42 C244.108,222.087 245.775,224.309 246.164,227.643 C246.442,230.144 246.497,230.255 248.109,230.088 C254.277,229.477 255.055,229.644 256.777,231.533 C257.666,232.533 258.389,233.756 258.389,234.312 C258.389,236.034 259.611,236.645 263.112,236.645 C265.001,236.645 266.78,236.923 267.168,237.312 C267.613,237.757 267.835,240.091 267.835,244.147 C267.835,248.203 268.058,250.537 268.502,250.982 C268.891,251.371 270.725,251.649 272.836,251.649 C276.726,251.649 277.837,252.204 277.837,254.205 C277.837,254.872 278.226,255.705 278.671,256.094 C279.338,256.65 279.782,256.594 281.005,255.761 C282.061,255.038 283.95,254.594 286.673,254.427 C290.562,254.149 290.84,254.038 291.729,252.482 C292.341,251.371 293.063,250.815 293.952,250.815 C294.841,250.815 295.563,251.371 296.175,252.482 C297.064,254.094 297.175,254.149 301.454,254.149 C305.01,254.149 305.843,253.982 306.232,253.205 C306.51,252.649 306.955,251.76 307.233,251.26 C307.51,250.648 308.288,250.259 309.233,250.259 C310.178,250.259 310.956,250.648 311.234,251.26 C311.511,251.76 311.956,252.649 312.234,253.205 C312.623,254.038 313.512,254.149 318.68,254.149 C323.792,254.149 324.736,253.982 325.181,253.149 C325.403,252.649 325.848,251.76 326.126,251.204 C326.403,250.648 327.181,250.259 328.126,250.259 C329.626,250.259 330.182,250.815 330.849,252.927 C331.127,253.705 331.849,253.871 335.517,253.871 L339.851,253.871 L340.684,252.093 C341.74,249.648 343.574,249.37 344.907,251.482 C346.241,253.594 346.797,253.871 347.964,253.26 C348.575,252.927 348.964,252.093 348.964,251.093 C348.964,250.204 349.353,249.093 349.853,248.648 C351.131,247.314 351.742,244.703 351.353,241.702 C350.686,235.979 352.965,233.311 358.577,233.311 C360.633,233.311 361.855,233.034 362.3,232.478 C362.689,231.978 363.8,231.644 364.745,231.644 C365.69,231.644 366.968,231.589 367.579,231.589 C368.19,231.589 369.802,231.867 371.191,232.256 C372.58,232.589 375.581,233.034 377.859,233.145 C380.137,233.311 382.471,233.756 383.082,234.2 C383.749,234.645 385.583,234.978 387.583,234.978 C389.639,235.034 391.306,235.312 391.973,235.812 C392.695,236.312 394.362,236.645 396.474,236.645 C400.753,236.645 402.309,237.646 402.309,240.257 C402.309,242.035 402.086,242.313 398.975,243.869 C395.363,245.703 394.64,247.203 396.919,248.37 C397.585,248.759 398.808,249.759 399.641,250.648 C400.808,251.871 401.586,252.204 403.531,252.204 C404.865,252.204 406.421,251.871 407.032,251.426 C409.199,249.982 410.588,249.87 412.089,251.037 C412.922,251.704 414.256,252.204 415.145,252.204 C416.201,252.204 417.034,252.649 417.645,253.594 C418.479,254.872 418.923,254.983 422.313,254.983 C425.814,254.983 426.203,254.872 427.425,253.371 C428.148,252.482 429.259,251.482 429.981,251.149 C431.759,250.204 434.093,251.76 436.538,255.372 C437.594,256.983 439.594,259.206 440.928,260.317 C443.373,262.318 443.429,262.373 443.429,265.763 C443.429,267.708 443.706,269.486 444.095,269.875 C444.484,270.264 446.485,270.542 449.041,270.542 C453.764,270.542 454.82,271.097 455.431,273.765 C455.987,276.432 456.154,276.71 457.821,277.265 C458.765,277.599 459.654,278.321 459.821,278.877 C459.988,279.432 460.988,280.766 462.044,281.933 C463.099,283.044 463.989,284.322 463.989,284.711 C463.989,285.1 464.378,285.878 464.878,286.323 C465.6,287.045 467.378,287.212 475.435,287.212 L485.215,287.212 L487.327,289.379 C488.883,290.935 490.161,291.657 491.883,291.935 C493.217,292.157 494.995,292.88 495.829,293.547 C501.163,297.492 501.274,298.77 496.773,301.437 C493.773,303.271 493.55,303.271 487.049,303.326 C482.604,303.326 480.103,303.549 479.659,303.993 C479.27,304.382 478.992,306.049 478.992,307.772 C478.992,309.494 478.714,311.161 478.325,311.55 C477.936,311.939 476.269,312.217 474.546,312.217 C472.879,312.217 469.267,312.606 466.545,313.051 C463.822,313.495 461.377,313.718 461.099,313.551 C460.599,313.217 452.153,314.162 447.596,315.051 C446.096,315.385 442.928,315.607 440.595,315.551 C435.816,315.496 435.427,315.718 434.816,319.274 C434.649,320.552 434.149,321.83 433.815,322.108 C433.426,322.386 425.536,322.664 416.201,322.664 C406.865,322.719 398.141,322.942 396.752,323.108 C395.029,323.331 393.529,323.164 392.084,322.553 C390.917,322.053 389.084,321.664 388.028,321.664 C387.028,321.664 385.194,321.164 383.971,320.552 C382.749,319.941 381.137,319.441 380.304,319.441 C378.692,319.441 376.136,319.052 367.801,317.552 C365.134,317.052 362.244,316.663 361.355,316.663 C358.966,316.663 358.41,315.774 358.41,311.662 C358.41,307.605 358.077,306.938 354.798,304.771 C352.242,303.104 350.297,302.937 348.464,304.271 C347.241,305.049 345.019,305.216 329.571,305.216 C309.233,305.271 309.066,305.327 308.122,309.439 C307.344,312.884 306.955,313.329 304.565,313.329 C301.731,313.329 301.176,314.107 301.176,317.941 C301.176,321.33 301.12,321.386 297.397,324.275 C296.73,324.831 295.786,326.276 295.397,327.498 C294.841,329.165 294.23,329.832 293.063,330.221 C289.396,331.332 289.562,330.832 289.118,340.001 C288.951,343.668 288.562,346.225 288.062,346.891 C287.617,347.503 287.284,349.336 287.284,350.948 C287.284,354.893 286.117,356.116 282.227,356.116 C280.282,356.116 279.004,355.782 278.06,355.06 C277.004,354.226 275.837,354.004 273.225,354.004 C268.391,354.004 264.279,352.226 262.834,349.503 C262.223,348.392 260.111,345.28 258.111,342.501 C256.111,339.779 253.721,336.167 252.777,334.555 C251.109,331.721 249.609,330.777 247.498,331.221 C245.997,331.499 245.275,333.055 245.886,334.833 C246.275,335.889 247.275,336.834 249.109,337.723 L251.721,339.001 L251.721,342.779 C251.721,346.391 250.943,348.336 249.554,348.336 C249.331,348.336 247.664,349.614 245.942,351.114 C243.219,353.504 242.441,353.893 240.441,353.893 C239.162,353.893 230.494,354.171 221.214,354.449 C205.6,354.949 204.211,355.115 202.488,356.171 C200.932,357.116 200.599,357.671 200.599,359.172 C200.599,360.172 200.265,361.283 199.821,361.617 C198.765,362.506 196.098,362.172 195.598,361.117 C193.542,356.671 194.042,356.949 189.041,356.782 L184.484,356.616 L183.484,358.394 C182.372,360.505 180.817,362.228 180.039,362.228 C179.761,362.228 178.538,361.339 177.316,360.283 L175.204,358.338 L165.98,358.338 C160.423,358.338 156.645,358.561 156.422,358.894 C156.256,359.227 154.255,359.45 152.033,359.45 C148.754,359.45 147.754,359.227 146.698,358.338 C145.365,357.171 143.531,356.949 136.974,357.171 C131.917,357.338 131.417,357.505 130.639,359.283 C129.194,362.506 125.805,367.229 125.027,367.229 C124.527,367.229 123.86,366.951 123.471,366.562 z" fill="#000000"/>
  </g>
</svg>
