<?xml version="1.0" encoding="UTF-8"?>
<!DOCTYPE svg PUBLIC "-//W3C//DTD SVG 1.1//EN" "http://www.w3.org/Graphics/SVG/1.1/DTD/svg11.dtd">
<svg version="1.1" xmlns="http://www.w3.org/2000/svg" xmlns:xlink="http://www.w3.org/1999/xlink" x="0" y="0" width="500" height="500" viewBox="0, 0, 500, 500">
  <g id="layer102">
    <path d="M291.53,498.962 C292.51,497.982 292.626,496.252 293.029,478.489 C293.26,467.763 293.318,458.881 293.203,458.593 C293.029,458.362 292.741,445.271 292.51,429.412 C292.337,413.61 291.934,400.115 291.645,399.423 C291.415,398.731 291.011,393.887 290.78,388.639 C290.434,380.219 290.492,378.604 291.588,373.991 C293.029,367.647 293.894,362.861 294.471,357.209 C295.278,350.404 296.951,349.538 301.103,353.806 C302.545,355.248 303.871,356.402 304.159,356.402 C306.063,356.344 307.101,353.748 307.62,347.982 C308.024,343.195 308.658,342.272 311.253,342.849 C312.926,343.195 313.445,343.945 316.559,350.288 L320.019,357.382 L319.442,364.821 C319.154,369.031 319.154,372.722 319.442,373.299 C319.788,373.933 320.596,374.279 321.807,374.279 C322.845,374.279 324.229,374.683 324.863,375.144 C327.285,376.932 331.553,375.778 335.705,372.145 C350.065,359.631 354.852,354.959 355.544,352.884 C356.005,351.615 357.274,349.942 358.485,348.962 C359.811,347.866 360.907,346.424 361.311,345.041 C362.003,342.734 362.176,327.566 361.599,318.743 C361.138,311.303 361.484,310.323 366.097,305.017 C368.981,301.615 370.077,299.942 370.077,298.731 C370.077,296.136 370.999,294.291 372.787,293.426 C373.998,292.849 374.459,292.099 374.806,290.254 C375.036,288.927 375.498,287.255 375.901,286.563 C376.247,285.813 376.709,283.968 376.824,282.353 C377.055,279.988 377.458,279.008 379.073,277.393 L381.034,275.317 L381.034,268.282 C381.034,263.322 380.803,260.611 380.169,259.112 C379.073,256.517 379.073,253.172 380.111,251.73 C381.149,250.288 382.303,250.807 388.127,255.133 C398.681,262.918 409.061,277.913 420.538,301.903 C430.111,321.857 441.184,352.884 444.471,368.858 C447.066,381.373 449.719,398.155 450.123,404.614 L450.526,411.476 L454.16,411.649 C456.87,411.765 458.254,411.592 459.293,410.842 L460.792,409.919 L460.388,401.73 C460.042,393.311 459.293,383.448 458.254,373.414 C456.005,351.038 455.775,349.654 451.103,328.72 C442.856,291.638 436.57,270.127 426.536,244.752 C422.037,233.276 421.403,231.084 422.614,230.392 C423.248,229.931 422.96,228.085 421.345,223.068 C420.019,218.801 419.558,217.993 415.694,212.803 C413.906,210.438 412.234,207.728 411.887,206.747 C411.195,204.671 409.523,204.267 406.294,205.363 C404.217,205.998 403.987,205.998 402.603,204.671 C401.737,203.922 399.719,201.615 397.989,199.538 C392.164,192.387 380.457,178.489 377.92,175.606 C369.327,165.859 367.539,164.072 365.405,162.803 C363.329,161.649 362.695,161.534 361.253,162.053 C359.869,162.514 359.235,162.457 358.197,161.765 C356.409,160.611 355.486,160.669 352.718,162.111 C349.085,163.956 349.373,164.417 343.548,145.329 C342.337,141.349 340.953,137.197 340.492,136.102 C340.03,135.006 339.281,132.468 338.935,130.45 C338.243,126.989 338.243,126.759 339.512,125.433 C341.126,123.703 340.78,121.684 338.07,118.282 C336.224,116.032 336.051,115.398 336.051,112.111 C336.051,107.497 335.763,106.805 333.398,105.825 C331.38,104.959 330.803,103.576 332.303,102.999 C333.514,102.537 333.398,100.577 331.784,95.675 C325.151,75.144 321.865,64.764 320.769,60.842 C320.077,58.305 317.597,50.404 315.29,43.253 C312.983,36.102 309.293,24.452 307.101,17.301 C304.909,10.15 302.718,3.345 302.199,2.192 L301.276,-0 L294.298,0.058 C290.434,0.058 285.878,0.346 284.148,0.634 C282.418,0.923 277.632,1.499 273.479,1.903 L265.982,2.595 L265.809,9.169 L265.636,15.802 L268.404,19.781 L271.173,23.76 L271.691,41.58 C272.21,60.15 272.037,63.437 270.538,63.437 C268.808,63.437 265.694,60.323 265.348,58.247 C265.117,57.151 264.252,55.421 263.329,54.498 C261.426,52.48 260.504,48.616 260.504,42.734 C260.504,38.697 259.811,36.909 256.87,33.276 C255.544,31.603 255.198,30.45 254.909,27.163 C254.448,21.857 253.929,21.107 251.391,22.03 C250.007,22.549 249.258,22.607 248.508,22.088 C247.931,21.742 245.105,21.281 242.279,21.049 C239.454,20.819 236.801,20.357 236.455,20.069 C235.532,19.319 235.417,8.766 236.339,5.594 C236.743,3.979 236.743,3.056 236.167,1.845 C235.475,0.462 235.071,0.288 231.899,0.115 C229.016,-0 227.977,0.173 226.305,1.269 C223.825,2.826 223.71,3.633 225.555,5.825 C226.939,7.439 226.997,7.728 226.651,13.553 C226.363,18.051 226.478,19.781 227.055,20.473 C228.381,22.088 226.939,22.837 224.171,21.972 C222.903,21.626 221.576,21.453 221.288,21.626 C220.999,21.799 220.596,23.414 220.423,25.259 C219.846,30.392 219.096,32.526 217.712,33.391 C214.367,35.467 214.079,28.489 217.193,21.511 C218.981,17.474 219.038,17.071 218.866,10.554 L218.693,3.748 L207.447,3.287 C201.276,3.056 190.088,2.768 182.649,2.711 L169.154,2.595 L168.404,4.037 C168,4.844 166.097,10.554 164.194,16.724 C162.234,22.895 158.6,34.314 156.12,42.099 C153.64,49.885 149.085,64.129 146.028,73.818 C142.971,83.506 139.338,94.983 137.839,99.366 L135.244,107.324 L136.513,108.708 C137.608,109.862 137.724,110.265 137.089,111.015 C136.686,111.476 136.051,111.88 135.647,111.88 C134.033,111.88 132.879,114.187 132.476,118.512 C132.13,121.915 131.726,123.241 130.515,124.856 C128.035,128.085 127.747,129.931 129.304,132.065 C130.918,134.198 130.746,135.064 126.997,146.482 C125.555,150.749 123.421,157.555 122.21,161.592 C120.134,168.454 119.788,169.204 116.847,172.434 C112.695,177.047 111.368,178.72 107.216,184.833 C105.255,187.716 102.257,191.868 100.469,194.06 C98.739,196.309 96.836,199.019 96.201,200.115 C95.567,201.211 93.894,203.576 92.395,205.306 C90.896,206.978 89.05,209.804 88.3,211.534 C87.55,213.264 85.994,215.917 84.84,217.474 C82.937,220.069 82.591,220.3 80.284,220.3 C77.228,220.3 73.248,221.684 71.46,223.356 C69.442,225.259 66.328,231.834 65.001,237.139 L63.79,241.811 L65.924,244.002 C67.943,246.078 68.058,246.367 67.481,248.097 C67.135,249.135 65.52,253.922 63.848,258.651 C62.234,263.437 58.6,276.297 55.775,287.255 C48.623,315.052 46.836,323.299 43.087,346.021 C38.358,375.029 37.147,390.196 37.089,420.761 C37.031,447.174 36.57,445.559 43.894,445.041 C46.374,444.867 48.681,444.464 49.085,444.06 C49.488,443.656 49.719,440.946 49.777,436.967 C49.835,424.683 54.448,395.041 59.696,373.126 C61.484,365.744 68,343.656 70.249,337.601 C77.516,317.589 86.109,297.405 88.531,294.579 C89.857,293.022 90.204,293.311 90.665,296.309 C90.896,297.982 91.588,299.596 92.453,300.462 C93.203,301.269 94.01,302.941 94.298,304.21 C94.644,306.055 95.163,306.69 96.72,307.439 C98.796,308.42 99.488,309.573 99.546,312.053 C99.604,312.861 100.18,314.014 100.815,314.648 C102.948,316.552 103.64,319.031 103.352,323.645 C103.237,325.952 102.948,332.987 102.776,339.216 C102.545,348.501 102.66,350.692 103.295,351.384 C104.448,352.537 112.06,354.902 113.156,354.441 C113.964,354.152 114.021,353.518 113.733,351.038 C113.329,348.039 114.252,336.736 115.117,333.506 C115.809,330.854 117.308,331.199 121.173,334.948 C123.421,337.197 125.382,338.639 126.709,338.927 C128.496,339.331 128.958,339.908 130.746,343.483 C133.398,348.789 134.667,350.634 135.59,350.634 C136.859,350.634 137.031,349.423 136.167,344.983 C135.475,341.349 135.475,340.484 136.224,338.754 C136.916,337.082 136.974,335.698 136.455,330.507 C135.936,325.259 135.994,323.991 136.743,322.203 C137.897,319.435 139.223,319.435 139.742,322.261 C139.915,323.414 140.607,324.914 141.184,325.548 C142.51,327.047 143.433,329.527 143.433,331.718 C143.433,334.544 145.682,344.809 147.528,350.346 C149.604,356.517 153.814,365.686 155.89,368.339 C157.158,370.012 157.62,370.242 159.061,369.954 C160.907,369.55 160.504,369.146 168.923,378.432 C173.537,383.506 174.229,384.025 176.881,384.602 C181.034,385.525 182.476,385.409 183.629,384.141 C184.206,383.506 185.417,382.699 186.282,382.411 L187.954,381.776 L187.724,372.895 L187.55,364.014 L189.685,362.053 C190.896,361.015 192.453,359.227 193.203,358.132 L194.529,356.113 L200.642,356.113 C208.081,356.113 209.408,355.421 211.195,350.577 C211.83,348.847 212.579,347.116 212.81,346.713 C213.79,345.213 215.463,346.021 217.481,349.077 L219.5,352.076 L220.134,364.187 C220.538,370.877 220.999,378.258 221.173,380.623 C221.576,384.775 221.634,384.948 223.133,385.121 C225.094,385.352 225.555,384.429 226.42,378.893 C227.574,371.799 227.689,371.338 229.131,370.069 C229.88,369.435 230.803,367.935 231.091,366.839 C232.072,363.149 232.995,356.171 232.879,353.114 C232.821,351.442 233.053,349.538 233.398,348.904 C234.379,347.059 237.493,346.021 241.703,346.021 C245.97,346.021 246.201,346.252 247.297,351.211 C247.7,353.229 248.45,354.671 249.719,355.825 C251.334,357.324 252.026,357.555 254.909,357.555 C257.908,357.555 258.427,357.382 259.869,355.825 C260.965,354.614 261.657,352.941 262.118,350.519 C262.868,346.482 263.502,345.502 264.771,346.54 C265.924,347.463 265.982,347.924 268,365.628 C268.923,374.048 269.961,382.872 270.307,385.236 C270.596,387.601 271.115,392.676 271.46,396.482 C271.807,400.288 272.499,406.921 272.96,411.188 C274.633,426.701 277.17,454.383 277.805,463.956 C278.843,480.392 279.477,491.523 279.535,494.291 C279.535,496.078 279.938,497.463 280.746,498.501 C281.841,499.885 282.245,500 286.224,500 C289.627,500 290.723,499.769 291.53,498.962 z" fill="#000000"/>
  </g>
</svg>
