<?xml version="1.0" encoding="UTF-8"?>
<!DOCTYPE svg PUBLIC "-//W3C//DTD SVG 1.1//EN" "http://www.w3.org/Graphics/SVG/1.1/DTD/svg11.dtd">
<svg version="1.1" xmlns="http://www.w3.org/2000/svg" xmlns:xlink="http://www.w3.org/1999/xlink" x="0" y="0" width="500" height="500" viewBox="0, 0, 500, 500">
  <g id="layer102">
    <path d="M365.792,494.958 C370.807,486.424 372.299,480.558 370.913,475.118 C369.739,470.744 369.846,469.89 371.979,465.837 C375.073,460.183 381.26,456.77 383.927,459.223 C384.887,460.076 386.38,460.823 387.127,460.823 C387.98,460.823 396.194,453.356 405.367,444.076 L422.222,427.435 L422.542,422.102 C422.862,417.195 423.182,416.554 426.809,414.741 L430.649,412.714 L430.116,400.767 C429.796,394.153 429.476,387.646 429.369,386.153 C429.369,384.66 428.622,382.953 427.662,382.206 C426.382,381.246 425.955,377.406 425.529,363.325 C425.209,351.377 424.569,345.298 423.609,344.337 C422.969,343.697 422.329,341.67 422.329,340.07 C422.329,338.471 421.475,336.23 420.409,335.163 C418.702,333.457 418.275,329.723 417.101,306.789 C416.035,286.201 415.289,279.161 413.688,274.894 C412.622,271.907 411.661,268.601 411.661,267.747 C411.661,266.467 407.608,255.266 404.195,246.945 C403.661,245.773 402.701,242.893 401.954,240.546 C401.208,238.199 399.821,234.359 398.755,231.905 C397.687,229.558 395.127,222.305 392.994,215.904 C390.86,209.504 388.514,202.89 387.66,201.077 C386.913,199.37 385.527,195.743 384.46,193.076 C383.5,190.41 381.473,186.462 379.873,184.116 C377.953,181.236 377.1,178.782 377.206,175.902 C377.313,173.662 376.993,171.529 376.353,171.209 C374.753,170.142 375.286,167.582 377.526,165.661 C380.407,163.208 380.3,162.462 375.927,155.741 C373.58,152.221 372.193,148.807 372.406,147.207 C372.726,143.474 370.272,137.82 367.819,137.074 C365.579,136.327 365.152,133.874 366.966,132.807 C367.606,132.38 367.712,131.314 367.286,130.246 C365.366,125.553 362.166,117.019 359.393,109.339 C357.792,104.645 354.699,96.539 352.565,91.418 C350.432,86.298 348.725,81.391 348.725,80.538 C348.725,79.79 347.338,75.951 345.632,72.11 C343.818,68.27 340.938,60.696 339.018,55.256 C337.204,49.815 334.324,42.455 332.724,38.935 C331.23,35.415 329.524,31.041 329.098,29.335 C328.67,27.521 326.644,22.082 324.511,17.067 C322.484,12.054 320.244,6.614 319.496,5.013 C318.857,3.414 317.364,1.814 316.19,1.6 C315.017,1.387 304.669,0.96 293.255,0.853 L272.454,0.533 L272.134,10.561 C271.921,19.094 272.134,20.908 273.841,22.828 C274.908,24.108 276.828,26.775 278.002,28.801 C280.028,32.322 280.242,34.988 280.882,67.737 L281.628,102.938 L277.361,108.912 C273.415,114.459 273.094,115.526 272.774,122.78 L272.454,130.673 L266.375,130.993 L260.187,131.314 L260.187,127.58 C260.187,125.553 260.614,122.673 261.254,121.073 C262.108,118.939 261.894,117.446 260.294,114.352 C258.48,110.726 258.267,106.672 257.947,59.737 C257.841,31.895 258.054,8.108 258.48,6.934 C259.761,3.2 255.707,-0 249.626,-0 C242.693,-0 240.026,2.773 241.84,7.893 C243.76,13.014 243.653,109.979 241.84,111.899 C240.987,112.753 240.452,116.379 240.452,121.927 L240.452,130.673 L234.799,130.673 L229.146,130.673 L228.719,122.886 C228.399,115.633 227.972,114.672 224.025,109.445 L219.651,103.792 L219.651,68.163 C219.651,33.815 219.758,32.428 221.892,28.801 C223.172,26.775 225.092,24.108 226.159,22.828 C227.972,20.908 228.185,19.201 227.972,10.561 L227.652,0.533 L205.571,0.213 C185.09,-0 183.277,0.107 181.676,1.92 C179.436,4.587 175.276,14.507 172.183,24.535 C170.796,28.908 168.022,36.269 165.889,40.856 C163.755,45.443 162.049,49.923 162.049,50.883 C162.049,51.842 159.596,58.883 156.608,66.564 C153.622,74.244 149.355,85.338 147.008,91.204 C144.768,97.178 141.995,104.965 140.821,108.592 C139.648,112.325 137.941,116.806 137.194,118.726 C133.567,126.94 133.247,128.433 133.887,131.847 C134.421,134.833 134.208,135.473 132.821,135.473 C130.687,135.473 127.594,142.087 128.554,144.54 C129.301,146.354 126.42,153.074 124.393,154.354 C123.647,154.781 122.474,156.594 121.727,158.301 C120.447,161.181 120.554,161.609 122.474,163.101 C124.287,164.488 124.607,165.768 124.287,170.676 C123.86,177.395 122.474,181.342 120.021,183.369 C119.06,184.116 118.314,185.183 118.314,185.716 C118.314,186.249 117.353,188.809 116.18,191.476 C115.006,194.143 113.087,198.41 111.913,201.077 C110.74,203.744 109.779,206.517 109.779,207.264 C109.779,208.544 106.686,216.864 102.633,226.144 C100.392,231.372 99.646,233.506 98.152,238.412 C96.659,243.213 96.445,243.746 91.752,254.946 C89.939,259.32 88.445,263.8 88.445,264.867 C88.445,265.826 88.019,267.533 87.378,268.601 C84.711,273.401 83.112,281.294 83.112,290.041 C83.112,295.161 82.791,306.682 82.365,315.536 C81.831,329.937 81.512,331.644 79.698,332.07 C78.205,332.497 77.778,333.67 77.778,336.87 C77.778,339.644 77.245,341.351 76.178,341.777 C74.898,342.204 74.578,344.337 74.578,351.271 C74.578,356.178 74.258,364.605 73.938,369.938 C73.297,377.726 72.871,379.646 71.378,380.073 C69.884,380.499 69.564,382.526 69.351,395.113 C69.245,405.248 69.564,409.62 70.311,409.62 C71.057,409.62 72.977,411.007 74.684,412.714 C76.925,415.061 77.778,416.875 77.778,419.755 C77.778,423.381 78.738,424.662 90.259,435.542 C97.193,442.155 105.406,450.05 108.5,453.143 C114.473,458.904 115.967,459.437 119.486,457.516 C122.794,455.809 130.047,459.437 130.794,463.17 C131.114,464.877 131.861,466.477 132.288,466.797 C133.567,467.543 133.461,471.277 131.968,475.331 C130.9,478.424 131.114,479.491 135.381,487.598 C137.834,492.505 140.501,497.092 141.142,497.838 C141.995,498.799 150.209,498.905 173.783,498.372 L205.251,497.625 L205.784,494.532 C206.211,491.972 207.064,491.119 209.838,490.478 C214.105,489.305 216.132,490.691 216.665,494.745 C216.985,497.518 217.198,497.625 225.306,497.945 C233.199,498.266 233.519,498.159 233.519,495.812 C233.519,491.758 235.013,490.478 239.493,490.904 C243.013,491.225 243.76,491.652 243.973,493.892 C244.72,498.692 246.107,499.439 253.147,498.692 C259.974,497.838 261.254,496.985 261.254,493.038 C261.254,490.798 261.681,490.585 265.841,490.904 C270.001,491.225 270.321,491.438 270.641,494.532 C270.961,497.625 271.388,497.945 275.548,498.372 C282.481,499.225 286.855,498.266 286.855,496.025 C286.855,491.758 288.029,490.691 292.722,490.691 C297.416,490.691 298.589,491.758 298.589,496.025 C298.589,497.092 299.229,498.159 300.082,498.479 C300.829,498.799 310.003,499.119 320.457,499.119 C330.91,499.119 339.658,499.439 339.871,499.652 C340.191,499.865 345.419,500.078 351.712,499.972 L363.019,499.758 L365.792,494.958 z" fill="#000000"/>
  </g>
</svg>
