<?xml version="1.0" encoding="UTF-8"?>
<!DOCTYPE svg PUBLIC "-//W3C//DTD SVG 1.1//EN" "http://www.w3.org/Graphics/SVG/1.1/DTD/svg11.dtd">
<svg version="1.1" xmlns="http://www.w3.org/2000/svg" xmlns:xlink="http://www.w3.org/1999/xlink" x="0" y="0" width="500" height="500" viewBox="0, 0, 500, 500">
  <g id="Background">
    <rect x="0" y="0" width="500" height="500" fill="#FFFFFF" fill-opacity="0"/>
  </g>
  <g id="svgg">
    <path d="M228.274,1.482 C227.489,2.48 227.246,3.355 227.398,4.635 C227.557,5.969 226.945,7.951 224.916,12.663 C223.435,16.102 222.216,19.622 222.207,20.482 C222.199,21.343 221.858,22.487 221.451,23.026 C220.293,24.556 220.564,26.038 222.224,27.264 C224.752,29.135 224.258,30.076 219.575,32.304 C217.285,33.395 214.631,34.882 213.674,35.608 C212.605,36.421 211.292,36.931 210.259,36.931 C209,36.931 208.03,37.437 206.39,38.949 C205.186,40.059 203.97,40.967 203.688,40.967 C203.406,40.967 202.893,41.307 202.547,41.723 C202.202,42.138 201.415,42.481 200.797,42.481 C199.503,42.481 198.006,43.931 198.006,45.188 C198.006,45.663 197.514,46.72 196.91,47.535 C195.827,49 195.826,49.031 196.782,50.088 C198.087,51.528 195.658,53.789 193.34,53.291 C192.109,53.028 191.953,53.141 191.953,54.29 C191.953,55.139 191.079,56.551 189.431,58.373 C185.601,62.599 186.007,65.688 190.241,64.557 C193.33,63.733 194.018,64.2 193.927,67.066 C193.886,68.389 194.001,70.379 194.184,71.489 C194.637,74.257 193.643,76.066 191.745,75.928 C188.733,75.71 187.346,74.003 185.09,67.742 C183.34,62.89 180.788,61.255 179.066,63.884 C177.992,65.524 177.424,69.953 177.121,79.083 C176.983,83.26 176.631,87.305 176.338,88.071 C176.047,88.839 175.808,90.999 175.808,92.872 C175.808,101.088 174.789,103.459 169.835,106.751 C165.348,109.736 164.708,109.748 164.708,106.854 C164.708,101.201 161.655,95.355 157.627,93.296 C156.119,92.526 153.822,90.78 152.522,89.417 C148.227,84.914 143.014,83.785 143.014,87.359 C143.014,88.902 141.632,89.995 140.541,89.314 C139.424,88.616 136.871,90.286 131.914,94.948 C127.271,99.316 115.81,103.878 105.933,105.287 C104.823,105.446 102.779,105.788 101.392,106.05 C100.003,106.31 98,106.657 96.94,106.821 C94.715,107.163 87.277,114.083 86.497,116.534 C85.036,121.126 84.573,121.922 83.15,122.291 C81.243,122.785 72.592,129.909 72.233,131.282 C72.079,131.874 72.077,133.129 72.231,134.073 C72.46,135.488 72.239,136.097 70.977,137.533 C68.335,140.544 67.839,156.087 70.302,158.707 C71.162,159.62 71.427,160.363 71.242,161.331 C71.042,162.374 71.384,163.125 72.747,164.633 C74.302,166.354 74.475,166.809 74.201,168.48 C74.032,169.523 73.591,172.711 73.221,175.566 C72.588,180.449 72.439,180.868 70.729,182.629 C67.418,186.038 67.088,188.537 69.354,193.079 C70.185,194.744 70.873,196.56 70.881,197.116 C70.892,197.67 71.234,198.566 71.642,199.107 C72.051,199.647 72.258,200.49 72.103,200.981 C71.947,201.472 72.048,202.698 72.327,203.707 C72.737,205.194 72.638,206.066 71.807,208.288 C70.84,210.87 70.828,211.106 71.617,212.31 C72.347,213.425 72.375,213.906 71.82,216.066 C71.23,218.368 71.261,218.627 72.25,219.687 C72.836,220.315 73.471,221.454 73.661,222.22 C74.14,224.146 74.43,224.238 78.763,223.831 C83.839,223.356 89.231,217.753 90.733,211.392 C91.386,208.631 93.133,207.301 96.396,207.077 C102.729,206.644 102.632,210.942 96.295,211.507 C90.964,211.98 90.063,213.453 89.666,222.341 C89.317,230.152 89.64,240.71 90.258,241.711 C90.878,242.713 92.057,247.846 92.057,249.542 C92.057,250.468 92.522,251.805 93.1,252.539 C93.673,253.267 95.37,256.449 96.871,259.608 C100.304,266.83 100.405,266.89 110.061,267.313 C124.414,267.94 132.556,263.676 138.381,252.477 C141.099,247.256 141.094,247.228 137.136,243.602 C131.074,238.047 130.597,234.9 135.898,235.449 C140.654,235.942 143.512,238.336 143.517,241.836 C143.517,242.568 143.948,243.698 144.473,244.346 L145.429,245.527 L149.264,244.57 C154.107,243.365 154.858,242.602 154.425,239.332 C153.781,234.468 157.116,232.434 160.201,235.81 C161.894,237.662 162.266,237.844 163.778,237.555 C170.928,236.19 171.52,235.773 171.077,232.402 C170.764,230.012 172.04,227.436 173.819,226.872 C175.35,226.386 175.791,227.3 175.799,230.982 C175.806,233.108 176.044,234.271 176.564,234.702 C177.963,235.861 177.34,236.508 174.168,237.192 C169.107,238.287 168.325,239.05 169.189,242.061 C169.808,244.218 168.847,246.245 166.733,247.247 C165.053,248.042 161.865,252.862 159.346,258.414 C156.214,265.313 153.832,269.948 152.862,271.027 C151.248,272.823 142.51,290.956 142.51,292.509 C142.51,292.884 141.867,293.937 141.08,294.849 C140.295,295.76 138.446,298.776 136.973,301.552 C135.501,304.326 133.676,307.503 132.916,308.613 C132.159,309.723 129.229,315.248 126.405,320.89 L121.273,331.149 L122.586,333.391 C123.665,335.233 123.843,336.014 123.578,337.774 C122.713,343.547 128.393,343.261 136.024,337.148 C145.137,329.847 147.252,331.364 142.462,341.765 C141.052,344.823 140.491,346.636 140.697,347.457 C141.047,348.852 140.252,349.571 139.265,348.751 C138.86,348.416 137.793,348.315 136.623,348.503 C133.908,348.938 129.484,347.563 124.741,344.811 C119.053,341.51 118.367,341.864 115.451,349.612 L114.218,352.885 L116.299,354.713 C120.016,357.98 122.032,360.161 124.536,363.621 L126.994,367.018 L126.19,368.704 C124.763,371.695 122.336,371.381 112.372,366.913 C106.735,364.385 106.54,364.447 104.007,369.573 C101.022,375.61 101.64,377.298 107.792,379.936 C109.114,380.503 110.542,381.574 111.033,382.368 C111.515,383.149 113.104,385.036 114.565,386.563 C116.025,388.089 117.556,390.245 117.967,391.355 C118.375,392.465 119.297,394.916 120.016,396.801 C120.732,398.688 121.32,401.038 121.32,402.023 C121.32,406.649 113.756,424.399 109.637,429.436 C107.717,431.784 107.744,432.978 109.716,432.978 C111.688,432.978 111.625,433.395 109.316,435.651 C107.499,437.425 105.68,438.107 105.68,437.014 C105.68,436.301 103.586,436.388 101.578,437.185 C100.643,437.556 98.794,438.258 97.47,438.745 C95.748,439.378 94.829,440.081 94.241,441.222 C93.788,442.099 92.224,444.223 90.766,445.942 C84.412,453.438 82.631,467.48 86.998,475.662 C88.809,479.056 89.006,481.382 87.518,481.77 C86.314,482.085 86.319,482.014 87.287,485.196 C87.726,486.641 88.01,489.227 87.95,491.25 C87.839,495.025 88.741,497.648 90.362,498.271 C94.901,500.012 114.626,499.92 132.961,498.069 C149.238,496.427 150.579,496.121 154.448,493.176 C155.609,492.292 157.27,491.201 158.14,490.751 C161.255,489.14 162.437,484.234 160.731,479.991 C160.208,478.691 159.509,475.25 159.177,472.343 C158.469,466.129 158.792,465.551 163.311,464.952 C167.997,464.33 168.908,461.046 166.69,452.771 C163.661,441.476 168.402,426.355 178.38,415.495 C183.323,410.114 185.899,405.727 185.899,402.688 C185.899,402.252 186.807,400.018 187.917,397.723 C189.304,394.855 189.935,392.878 189.935,391.398 C189.935,388.523 191.078,384.882 192.726,382.503 C194.685,379.677 195.988,374.129 195.988,368.629 C195.988,361.916 196.561,361.283 202.273,361.686 C206.404,361.977 206.568,361.946 208.903,360.4 C210.22,359.528 211.627,358.813 212.033,358.813 C213.32,358.813 217.872,355.916 219.714,353.925 C225.436,347.735 226.375,344.59 226.386,331.569 C226.396,319.12 226.765,318.225 230.536,321.537 C235.9,326.247 240.102,334.364 240.629,341.036 C241.072,346.629 241.766,347.47 246.34,347.949 C247.922,348.115 249.988,348.461 250.932,348.715 C253.07,349.295 254.074,348.794 255.447,346.466 C257.772,342.526 260.845,347.291 259.041,352.039 C258.28,354.038 259.475,355.493 262.942,356.792 C266.623,358.168 267.002,358.498 267.645,360.889 C268.049,362.388 268.815,363.32 270.919,364.874 C272.446,366.003 274.459,368.145 275.455,369.701 C276.438,371.24 277.957,372.882 278.827,373.351 C279.698,373.818 281.224,374.906 282.219,375.766 C283.213,376.628 284.641,377.48 285.392,377.663 C286.972,378.046 287.256,378.834 288.858,387.319 C290.487,395.929 294.213,403.191 300.665,410.319 C306.735,417.027 309.146,424.141 308.519,433.482 C308.363,435.796 308.378,439.787 308.553,442.311 C308.63,443.421 308.327,446.713 307.879,449.628 C307.433,452.54 306.918,456.854 306.736,459.212 C306.555,461.571 306.133,465.855 305.794,468.73 C305.081,474.824 305.26,475.428 308.428,477.554 C310.332,478.833 310.578,479.203 310.333,480.424 C310.147,481.363 310.285,481.915 310.757,482.095 C311.144,482.244 311.975,483.258 312.603,484.347 C314.147,487.031 312.697,486.954 361.374,486.959 L402.396,486.962 L404.356,485.385 C406.812,483.412 407.382,481.79 407.382,476.774 L407.382,472.792 L405.176,470.417 C403.963,469.11 402.184,466.334 401.227,464.248 C400.267,462.161 398.795,459.664 397.953,458.698 C396.222,456.712 394.77,454.088 394.77,452.946 C394.77,449.836 389.701,442.491 383.85,437.118 C381.946,435.372 379.117,432.718 377.561,431.218 C376.003,429.718 374.074,428.329 373.271,428.129 C372.469,427.929 370.906,427.354 369.796,426.851 C367.181,425.666 364.614,425.678 362.787,426.884 C361.402,427.797 359.958,427.807 359.958,426.904 C359.958,426.675 360.418,426.342 360.979,426.162 C363.81,425.264 363.837,423.525 361.067,420.713 C357.817,417.416 355.662,411.854 354.873,404.725 C354.581,402.089 354.109,399.25 353.823,398.419 C353.214,396.642 353.216,396.637 353.914,393.374 C354.21,391.986 354.578,390.254 354.732,389.524 C354.884,388.793 354.761,388.041 354.456,387.854 C353.558,387.298 353.818,386.053 355.164,384.453 C356.76,382.556 356.76,381.275 355.164,379.795 C353.75,378.483 353.644,377.709 354.494,374.873 C354.991,373.209 354.945,372.617 354.191,371.037 C351.983,366.405 352.305,362.345 354.879,362.345 C355.898,362.345 356.78,361.823 357.887,360.563 C359.746,358.445 359.698,359.003 358.404,354.58 C356.91,349.473 355.872,348.835 352.638,351.029 C350.803,352.275 349.905,352.133 349.874,350.593 C349.871,350.374 348.834,349.09 347.572,347.74 C344.427,344.378 343.438,338.197 346.507,341.08 C349.298,343.701 351.844,341.274 351.029,336.772 C350.139,331.862 351.672,332.269 359.382,338.994 L363.145,342.276 L365.915,342.047 C369.413,341.756 370.14,340.932 369.416,338.077 C368.975,336.339 369.043,335.845 369.887,334.689 C371.665,332.248 371.689,331.59 370.049,330.152 C369.216,329.421 368.534,328.516 368.534,328.142 C368.534,327.343 366.23,323.189 364.978,321.732 C364.501,321.176 363.733,319.972 363.269,319.055 C362.804,318.138 361.699,316.618 360.813,315.677 C359.926,314.736 358.79,312.809 358.289,311.394 C357.572,309.373 356.847,308.442 354.884,307.031 C353.512,306.046 352.388,304.864 352.388,304.404 C352.383,302.114 345.191,294.236 343.105,294.235 C341.618,294.233 338.605,287.607 339.06,285.336 C339.299,284.137 338.954,282.971 337.556,280.272 C334.654,274.664 335.602,272.177 338.819,276.955 C341.073,280.302 342.34,281.623 343.301,281.623 C345.01,281.623 348.354,276.863 348.354,274.433 C348.354,273.054 349.216,272.036 350.384,272.036 C351.456,272.036 353.018,270.299 354.372,267.598 C358.78,258.821 364.114,260.333 365.065,270.629 C365.857,279.213 369.05,281.005 374.313,275.818 C377.039,273.129 377.092,273.121 379.307,275.065 C385.262,280.294 392.658,278.729 396.352,271.457 C397.007,270.167 399.239,267.251 401.31,264.976 C405.328,260.565 405.307,260.574 409.227,261.72 C410.887,262.206 412.427,260.384 412.427,257.937 C412.427,256.262 412.646,255.843 413.815,255.289 C414.784,254.829 415.905,253.278 417.526,250.151 C420.186,245.024 420.753,244.564 423.856,245.029 C427.005,245.503 429.298,243.346 426.442,242.598 L425.322,242.306 L426.596,240.9 C427.779,239.593 430.843,232.639 431.193,230.464 C431.409,229.125 436.456,226.444 438.532,226.564 C442.796,226.814 445.281,222.807 448.974,209.728 C452.105,198.64 451.525,197.533 441.185,194.815 C440.213,194.559 437.376,193.76 434.879,193.04 C429.767,191.564 427.533,190.94 425.202,190.336 C422.243,189.572 417.355,184.767 417.726,182.989 C419.383,175.01 416.621,172.771 409.21,176.086 C402.272,179.19 395.779,176.269 395.779,170.045 C395.779,168.264 395.47,167.312 394.531,166.197 C393.056,164.444 392.247,162.487 392.247,160.676 C392.247,159.954 391.579,158.322 390.763,157.05 C389.947,155.777 389.058,153.749 388.787,152.543 C388.517,151.337 387.821,149.844 387.24,149.227 C386.66,148.608 385.841,146.757 385.422,145.112 C384.274,140.607 383.769,139.623 382.098,138.637 C379.866,137.318 373.403,124.236 374.092,122.426 C374.98,120.092 372.828,116.65 369.847,115.636 C368.329,115.12 366.989,113.628 364.958,110.182 C363.524,107.755 361.186,106.955 356.083,107.15 C352.019,107.303 351.826,107.262 351.55,106.156 C350.943,103.725 346.182,101.367 342.063,101.454 C341.239,101.471 339.082,101.068 337.269,100.556 C335.458,100.045 332.386,99.356 330.443,99.025 C328.5,98.694 326.458,98.331 325.902,98.217 C325.348,98.102 323.831,96.566 322.531,94.801 C316.292,86.33 311.597,82.336 307.877,82.336 C306.677,82.336 305.172,81.972 304.534,81.525 C303.767,80.987 302.856,80.816 301.842,81.019 C300.998,81.189 298.766,80.954 296.88,80.499 C292.909,79.54 291.993,79.745 291.568,81.685 C291.174,83.484 289.356,87.994 288.78,88.606 C288.116,89.311 286.803,85.733 286.803,83.222 C286.803,80.646 285.823,79.049 283.957,78.58 C283.209,78.392 282.012,77.787 281.295,77.233 C278.614,75.16 275.422,73.273 274.586,73.265 C273.129,73.249 272.52,71.349 272.846,67.839 C273.17,64.376 272.586,61.942 270.354,57.448 C269.008,54.738 268.856,53.565 269.734,52.686 C270.185,52.236 270.17,51.627 269.67,50.115 C269.034,48.188 269.178,46.312 270.426,40.199 C270.862,38.065 269.694,37.209 265.082,36.286 C262.887,35.846 260.472,34.979 259.386,34.242 C256.655,32.39 254.019,31.599 247.197,30.594 C239.192,29.412 238.565,28.878 241.395,25.656 C243.239,23.556 243.306,21.981 241.65,19.725 C239.449,16.728 234.332,5.597 234.332,3.805 C234.332,0.639 230.188,-0.951 228.274,1.482" fill="#000000" id="path0"/>
  </g>
</svg>
