<?xml version="1.0" encoding="UTF-8"?>
<!DOCTYPE svg PUBLIC "-//W3C//DTD SVG 1.1//EN" "http://www.w3.org/Graphics/SVG/1.1/DTD/svg11.dtd">
<svg version="1.1" xmlns="http://www.w3.org/2000/svg" xmlns:xlink="http://www.w3.org/1999/xlink" x="0" y="0" width="500" height="500" viewBox="0, 0, 500, 500">
  <g id="layer102">
    <path d="M242.796,138.066 C241.042,137.946 239.87,139.143 238.749,140.327 C236.196,142.991 235.529,143.102 221.762,143.435 L207.439,143.768 L206.329,161.533 L202.443,161.866 C200.222,162.088 197.002,161.422 194.893,160.311 C191.451,158.424 191.007,158.424 188.009,160.201 C184.012,162.643 176.462,162.643 172.354,160.201 C169.356,158.424 168.912,158.424 165.248,160.201 C160.251,162.532 154.7,162.643 149.926,160.311 C146.484,158.647 145.929,158.647 142.71,160.311 C138.268,162.643 130.94,162.532 126.832,160.201 C123.834,158.424 123.39,158.424 120.393,160.201 C116.285,162.643 107.735,162.643 104.072,160.201 C101.406,158.535 101.073,158.535 98.075,160.201 C94.079,162.532 86.751,162.643 82.31,160.311 C79.09,158.647 78.534,158.647 75.537,160.423 C72.872,162.088 70.652,162.31 63.657,161.755 C54.108,160.978 52.554,161.755 52.554,166.752 C52.554,168.528 51.777,171.193 50.778,172.636 C48.89,175.523 45.004,176.411 44.338,173.968 C44.116,173.302 43.227,170.416 42.339,167.639 L40.674,162.643 L34.901,162.421 C30.237,162.199 29.016,162.532 28.571,164.086 C28.239,165.086 27.461,166.862 26.906,167.862 C26.351,168.972 25.907,171.081 25.907,172.524 C25.907,174.079 25.463,175.634 24.797,175.967 C24.13,176.411 23.686,182.85 23.686,191.511 L23.686,206.5 L20.8,207.166 C18.246,207.832 18.024,208.276 18.579,211.495 C19.135,214.161 18.801,215.493 17.025,217.047 C15.804,218.157 14.804,220.045 14.804,221.156 C14.804,224.375 8.476,232.925 4.7,234.923 C1.592,236.477 1.369,237.033 1.925,240.697 C4.035,253.909 4.035,254.02 1.592,258.017 C-1.073,262.347 -0.407,265.345 3.702,267.566 C6.81,269.23 12.584,278.113 12.584,281.222 C12.584,283.776 15.581,287.55 17.691,287.55 C19.8,287.55 27.906,296.988 28.35,299.763 C28.571,301.651 29.904,303.206 32.791,304.538 C38.009,307.091 43.671,313.531 43.671,316.862 C43.671,318.75 44.671,319.86 47.224,320.97 C51.777,322.747 57.773,329.298 58.66,333.406 C59.216,335.515 60.548,336.958 63.324,338.069 C67.876,339.956 73.427,345.729 74.316,349.726 C75.537,354.167 76.98,355.278 81.977,355.278 C87.195,355.278 93.634,357.61 95.855,360.163 C97.41,362.162 103.072,362.606 104.182,360.829 C104.516,360.274 107.846,359.719 111.399,359.719 C114.952,359.719 118.283,360.274 118.616,360.829 C119.504,362.273 125.5,362.273 126.388,360.829 C127.387,359.275 139.823,359.497 142.487,361.052 C144.153,362.162 145.374,362.162 148.372,361.052 C152.813,359.386 163.138,359.275 164.138,360.829 C164.471,361.495 166.248,361.939 168.024,361.939 C169.8,361.939 171.577,361.495 171.91,360.829 C172.243,360.274 175.796,359.719 179.682,359.719 C183.568,359.719 187.121,360.274 187.453,360.829 C187.787,361.495 189.341,361.939 190.784,361.939 C192.228,361.939 193.783,361.495 194.115,360.829 C194.448,360.274 198.001,359.719 201.888,359.719 C205.773,359.719 209.327,360.274 209.66,360.829 C209.993,361.495 211.547,361.939 212.991,361.939 C214.434,361.939 215.988,361.495 216.321,360.829 C216.655,360.274 220.207,359.719 224.093,359.719 C227.979,359.719 231.532,360.274 231.865,360.829 C232.754,362.384 237.195,362.273 238.749,360.718 C240.414,359.053 250.851,359.275 254.848,360.941 C257.291,361.939 258.734,361.829 261.399,360.718 C265.618,359.053 275.5,359.053 277.165,360.718 C278.719,362.273 282.716,362.273 284.271,360.718 C285.936,359.053 297.705,359.053 299.371,360.718 C300.925,362.273 304.922,362.273 306.366,360.829 C308.364,358.831 316.913,358.498 320.466,360.274 C324.241,362.162 327.461,362.384 328.349,360.941 C329.571,358.942 335.344,358.72 340.451,360.608 C344.671,362.051 346.225,362.162 347.891,361.052 C350.555,359.497 362.991,359.275 363.989,360.829 C364.989,362.384 368.875,362.051 373.427,360.052 C376.203,358.831 379.311,358.498 384.53,359.053 C392.191,359.719 393.523,359.275 395.411,355.833 C396.965,352.724 405.07,348.616 409.511,348.616 C412.398,348.616 413.731,347.95 415.063,345.619 C417.283,341.955 425.388,337.513 429.941,337.513 C432.161,337.513 433.716,336.625 434.937,334.738 C437.157,331.407 444.374,327.521 448.593,327.521 C452.813,327.521 454.145,326.411 455.144,322.524 C456.143,318.527 460.362,311.422 464.248,307.314 C466.913,304.427 467.024,303.983 465.581,299.542 C464.803,296.877 464.138,290.881 464.026,286.218 C463.915,277.669 463.915,277.558 459.918,274.894 C457.809,273.45 454.589,270.341 452.923,268.12 C450.481,264.901 450.148,263.79 451.147,262.569 C451.924,261.681 453.367,260.904 454.367,260.904 C455.477,260.904 458.364,259.904 460.918,258.683 C464.359,257.018 467.69,256.463 474.796,256.463 C480.681,256.463 485.677,255.797 488.12,254.797 C490.34,253.909 493.893,253.132 496.114,253.132 L500,253.132 L500,204.279 L495.225,204.279 C492.561,204.279 490.007,203.835 489.341,203.28 C488.786,202.725 483.345,202.059 477.239,201.836 C468.246,201.392 464.915,200.837 459.474,198.395 C453.257,195.619 452.813,195.285 453.146,192.066 C453.367,190.178 452.923,186.847 452.257,184.738 L450.925,180.741 L445.151,181.518 C442.043,181.851 433.272,182.518 425.611,182.739 C411.843,183.295 411.621,183.295 408.956,180.519 C407.513,178.854 405.181,177.632 403.738,177.632 C402.294,177.632 400.185,177.077 399.075,176.3 C397.52,175.301 396.521,175.411 394.411,176.855 C391.414,178.965 384.863,179.298 378.423,177.521 C375.204,176.633 371.54,173.857 365.099,167.529 C360.325,162.643 355.551,158.868 354.552,158.979 C351.554,159.645 352.22,162.643 356.217,166.973 C360.548,171.747 360.104,173.635 355.107,172.969 C352.553,172.747 351.776,171.859 350.666,168.195 C349.556,163.975 349.222,163.754 345.115,163.754 C342.672,163.754 337.232,162.532 333.123,160.978 C326.906,158.757 325.13,158.535 323.464,159.645 C320.799,161.2 308.364,161.422 307.365,159.868 C307.032,159.312 305.477,158.757 303.923,158.757 C302.479,158.757 300.259,157.758 298.927,156.426 C297.15,154.649 295.818,154.316 292.043,154.871 C289.489,155.316 286.047,155.093 284.382,154.427 C282.161,153.539 279.941,153.761 276.055,154.871 C273.168,155.76 270.614,156.537 270.392,156.537 C270.17,156.537 269.504,155.093 268.949,153.317 C268.283,151.54 266.173,149.319 263.952,148.098 C261.843,146.877 259.844,144.878 259.4,143.435 C258.845,140.881 257.513,140.437 249.63,139.55 C247.188,139.216 244.301,138.661 243.301,138.217 L242.796,138.066 z M347.4,345.437 C349.021,345.466 350.894,345.233 351.887,346.84 C352.22,347.728 351.999,349.505 351.332,350.726 C350.333,352.391 349.334,352.836 346.447,352.391 C344.227,351.947 342.117,352.391 340.674,353.501 C338.12,355.5 337.12,355.611 336.232,354.279 C335.899,353.724 337.232,352.058 339.23,350.726 C341.228,349.283 343.56,347.506 344.338,346.729 C345.828,345.671 344.865,346.219 347.4,345.437 z M139.994,348.964 C141.732,349.202 141.759,349.465 142.265,351.17 C142.487,352.28 141.932,353.057 140.933,353.057 C139.823,353.057 139.156,352.058 139.156,350.726 C139.317,349.483 139.086,350.091 139.994,348.964 z M216.765,350.837 C217.432,350.837 217.986,351.392 217.986,351.947 C217.986,352.613 217.765,353.057 217.542,353.057 C217.209,353.057 216.655,352.613 216.321,351.947 C215.988,351.392 216.21,350.837 216.765,350.837 z M106.104,349.868 C106.318,350.026 106.638,350.1 106.745,350.343 C106.997,350.918 106.64,351.387 106.403,351.836 C105.515,353.39 103.96,353.39 103.072,351.947 C102.739,351.281 103.183,350.504 104.182,350.17 C105.301,349.794 104.666,349.93 106.104,349.868 z M285.246,351.042 C285.773,351.569 285.633,351.259 285.714,351.947 C285.714,352.724 285.381,353.057 284.937,352.724 C284.604,352.28 284.604,351.614 284.937,351.17 L285.246,351.042 z M255.293,346.396 C259.178,346.396 263.508,349.393 263.508,352.28 C263.508,352.836 262.398,352.947 260.955,352.503 C258.29,351.725 257.402,351.614 254.071,352.169 C252.406,352.391 251.739,351.836 251.517,349.505 C251.185,346.618 251.406,346.396 255.293,346.396 z M301.48,345.285 C309.252,345.285 311.028,346.396 309.252,350.17 C308.142,352.613 307.587,352.836 305.366,352.058 C303.812,351.392 302.036,351.503 300.814,352.169 C298.261,353.613 295.707,351.392 295.707,347.95 C295.707,345.508 296.151,345.285 301.48,345.285 z M234.205,345.465 L235.419,345.508 C240.526,345.729 241.858,346.285 242.191,347.839 C242.413,348.949 242.08,350.393 241.414,351.17 C239.637,353.39 230.2,352.724 228.868,350.393 C226.443,345.531 230.37,345.523 234.205,345.465 z M188.564,346.396 C193.117,346.396 197.891,349.505 196.558,351.614 C196.225,352.058 193.45,352.503 190.34,352.503 C185.677,352.503 184.567,352.058 183.679,350.06 C182.235,346.951 183.012,346.396 188.564,346.396 z M363.01,346.352 C365.395,346.778 367.79,347.335 369.541,349.172 C371.096,350.615 372.317,352.058 372.317,352.169 C372.317,352.391 369.985,352.503 367.209,352.503 C362.324,352.391 360.214,350.948 360.104,347.839 C360.345,346.414 361.81,346.338 363.01,346.352 z M122.391,346.396 C129.608,346.396 130.496,346.951 129.164,350.282 C128.497,352.058 127.277,352.503 122.946,352.503 C117.395,352.613 115.841,351.725 115.841,348.394 C115.841,346.729 116.839,346.396 122.391,346.396 z M170.91,346.396 C175.684,346.396 175.684,346.396 174.574,349.505 C173.576,352.503 173.131,352.724 167.691,352.391 C164.471,352.28 161.695,352.058 161.473,352.058 C161.14,351.947 162.139,350.726 163.583,349.172 C165.581,347.062 167.358,346.396 170.91,346.396 z M411.369,332.026 L411.621,332.073 C413.508,333.96 412.509,337.07 409.511,338.513 C407.624,339.401 405.736,340.734 405.293,341.621 C404.848,342.398 404.071,343.065 403.738,343.065 C402.739,343.065 398.963,339.512 398.963,338.624 C399.526,337.598 402.297,336.21 402.792,335.936 C405.497,334.443 408.359,332.849 411.369,332.026 z M68.32,319.749 C70.096,319.749 78.091,328.076 78.091,329.852 C78.091,330.408 76.758,331.518 74.982,332.406 C71.318,334.405 70.096,334.183 68.653,331.074 C68.098,329.742 66.655,328.298 65.655,327.965 C62.102,326.855 64.434,319.749 68.32,319.749 z M423.612,326.411 C427.054,326.411 427.276,326.744 425.611,329.852 C424.167,332.517 421.613,332.517 420.17,329.852 C418.726,327.299 419.615,326.411 423.612,326.411 z M37.257,286.696 L37.922,286.714 C39.595,287.483 40.946,288.676 42.228,289.993 C46.225,293.879 47.002,297.876 43.894,299.652 C40.896,301.429 39.453,301.096 38.009,298.431 C37.343,296.988 35.789,295.101 34.568,294.101 C32.347,292.436 32.347,292.214 34.234,289.438 C35.021,288.271 35.751,286.976 37.257,286.696 z M24.242,280.889 C25.907,280.889 26.462,282.221 25.241,283.442 C24.353,284.33 22.576,283.332 22.576,281.888 C22.576,281.333 23.353,280.889 24.242,280.889 z M96.61,168.086 C98.576,168.366 97.733,168.092 99.186,168.75 C100.741,169.638 102.073,169.638 103.739,168.639 C105.182,167.973 106.514,167.862 107.069,168.416 C108.513,169.86 107.18,172.969 104.96,173.524 C99.186,175.078 94.745,173.968 94.745,170.97 C94.863,169.592 95.101,168.505 96.61,168.086 z M151.568,168.07 C152.429,168.182 152.106,168.05 152.591,168.306 C154.256,169.305 153.701,172.969 151.813,173.413 C147.705,174.19 139.156,172.969 139.156,171.526 C139.156,169.305 141.71,167.862 144.153,168.75 C145.374,169.194 147.595,169.083 148.927,168.639 C150.524,168.134 149.649,168.345 151.568,168.07 z M191.34,168.306 C196.781,168.306 197.446,168.528 197.779,170.748 C198.112,173.08 197.779,173.191 191.34,173.191 C184.9,173.191 184.567,173.08 184.9,170.748 C185.233,168.528 185.899,168.306 191.34,168.306 z M84.058,167.994 C85.712,168.962 85.736,169.054 85.862,171.081 C85.862,173.524 83.42,173.857 81.532,171.636 C80.534,170.526 80.644,169.86 81.865,168.75 C83.047,167.995 82.34,168.309 84.058,167.994 z" fill="#000000"/>
  </g>
</svg>
