<?xml version="1.0" encoding="UTF-8"?>
<!DOCTYPE svg PUBLIC "-//W3C//DTD SVG 1.1//EN" "http://www.w3.org/Graphics/SVG/1.1/DTD/svg11.dtd">
<svg version="1.1" xmlns="http://www.w3.org/2000/svg" xmlns:xlink="http://www.w3.org/1999/xlink" x="0" y="0" width="500" height="500" viewBox="0, 0, 500, 500">
  <g id="layer102">
    <path d="M204.867,156.008 C205.259,156.522 205.132,156.213 205.154,156.969 C205.154,157.572 205.313,158.589 205.504,159.256 C205.822,160.464 205.853,160.495 206.997,160.273 C208.236,160.051 209.38,159.256 209.126,158.843 C208.904,158.494 209.634,158.271 210.397,158.494 C210.969,158.621 210.969,158.653 210.238,158.875 C209.444,159.097 209.444,159.097 210.46,159.32 C211,159.447 211.541,159.733 211.636,159.987 C211.763,160.337 212.653,160.432 215.607,160.432 C218.721,160.432 219.388,160.337 219.261,159.987 C218.88,158.97 222.915,159.097 224.694,160.178 C225.234,160.495 225.87,160.75 226.124,160.749 C226.378,160.75 227.077,161.226 227.649,161.83 C228.221,162.433 229.079,163.069 229.587,163.291 C230.35,163.609 230.509,163.863 230.667,165.229 C230.795,166.119 230.795,167.231 230.699,167.708 L230.509,168.597 L232.701,168.82 C234.035,168.979 235.465,169.36 236.45,169.868 C239.024,171.203 241.343,171.87 243.344,171.87 L245.187,171.87 L245.187,170.789 C245.187,169.932 245.505,169.328 246.712,168.025 L248.237,166.373 L249.222,167.104 C249.985,167.644 250.716,167.835 252.304,167.898 C253.448,167.962 254.814,168.184 255.354,168.407 C256.149,168.788 256.308,169.01 256.307,169.963 C256.308,170.821 256.117,171.203 255.481,171.584 L254.624,172.092 L255.799,172.315 C256.721,172.505 257.07,172.759 257.292,173.427 C257.61,174.348 258.69,174.825 259.993,174.57 C260.311,174.507 260.883,174.443 261.232,174.443 C261.804,174.412 261.868,174.253 261.772,173.236 L261.613,172.092 L262.853,172.315 C263.552,172.473 264.727,172.664 265.521,172.791 C267.301,173.045 267.841,173.395 267.618,173.998 C267.491,174.284 267.65,174.539 268.063,174.634 C268.413,174.729 268.699,174.983 268.699,175.238 C268.699,175.46 268.889,175.778 269.112,175.905 C269.302,176.032 269.652,176.445 269.842,176.794 C270.16,177.366 270.573,177.43 274.608,177.525 L279.025,177.62 L280.073,176.508 C281.281,175.206 282.551,174.888 285.125,175.142 C286.523,175.301 287.095,175.524 287.921,176.318 C289.033,177.398 290.081,177.652 295.546,178.256 C297.294,178.447 299.295,178.701 299.962,178.86 C300.884,179.05 301.456,179.019 302.091,178.669 C302.6,178.415 303.871,178.224 305.046,178.224 C307.048,178.224 307.111,178.256 308.541,179.686 L310.003,181.147 L310.003,185.786 L312.385,187.946 C313.815,189.249 315.213,190.234 315.817,190.393 C316.357,190.52 318.486,190.615 320.487,190.615 C322.489,190.615 324.777,190.647 325.571,190.742 C326.365,190.806 327.255,190.87 327.541,190.901 C327.827,190.933 328.272,191.124 328.494,191.378 C328.939,191.791 330.75,192.077 335.579,192.426 C338.248,192.617 339.296,193.094 340.027,194.523 C340.408,195.254 341.743,195.349 342.156,194.65 C343.109,192.998 343.236,192.967 344.475,193.602 C345.111,193.951 345.778,194.492 345.937,194.809 C346.223,195.318 346.763,195.381 351.719,195.381 C355.659,195.413 357.407,195.508 357.947,195.826 C358.36,196.048 358.932,196.207 359.218,196.144 C360.425,195.826 360.584,196.398 360.552,201.227 C360.52,205.262 360.425,206.025 359.885,206.914 C359.535,207.486 359.249,208.027 359.249,208.154 C359.249,208.281 373.769,208.376 391.498,208.376 C409.227,208.408 423.747,208.281 423.747,208.122 C423.747,207.899 424.795,207.359 427.178,206.501 C427.718,206.279 428.195,205.993 428.195,205.834 C428.195,205.675 428.481,205.548 428.83,205.548 C429.18,205.548 429.466,205.707 429.466,205.866 C429.466,206.343 435.598,206.279 436.074,205.802 C436.36,205.517 436.583,205.548 437.028,205.961 C437.345,206.247 437.854,206.501 438.108,206.501 C438.394,206.501 439.855,207.01 441.349,207.613 L444.113,208.725 L450.626,208.725 C454.407,208.725 457.394,208.598 457.743,208.408 C458.22,208.154 458.982,208.376 461.301,209.488 L464.256,210.918 L468.387,210.981 C470.674,211.045 472.962,210.981 473.534,210.854 C474.296,210.664 474.868,210.759 476.076,211.362 C476.902,211.776 477.95,212.22 478.395,212.316 C478.84,212.443 479.507,212.824 479.92,213.174 C480.524,213.745 481.159,213.841 484.177,214 C487.45,214.159 487.99,214.254 490.309,215.334 C491.707,215.97 493.169,216.859 493.518,217.272 C494.09,217.876 494.599,218.035 496.378,218.162 C497.585,218.225 498.888,218.352 499.301,218.448 L500,218.575 L500,235.636 L497.236,236.018 C494.98,236.335 493.741,236.78 490.913,238.146 L487.355,239.862 L481.572,239.862 C476.393,239.862 475.726,239.926 475.345,240.434 C474.773,241.228 469.594,241.228 469.149,240.402 C468.863,239.926 468.291,239.862 465.051,239.862 C462.731,239.862 460.952,240.021 460.38,240.243 C459.745,240.529 457.076,240.657 450.912,240.656 C441.094,240.657 438.171,241.006 437.854,242.277 C437.758,242.69 437.758,243.167 437.885,243.325 C438.14,243.77 444.875,243.802 445.67,243.357 C446.146,243.103 446.75,243.262 448.307,243.992 C449.419,244.501 450.467,244.946 450.658,244.946 C450.849,244.946 451.357,245.295 451.833,245.74 C452.628,246.471 452.914,246.534 455.964,246.534 L459.268,246.534 L462.477,248.155 C464.256,249.044 465.781,249.934 465.94,250.156 C466.067,250.379 467.402,250.728 468.895,250.982 L471.596,251.395 L471.5,259.656 C471.437,264.2 471.342,267.981 471.246,268.076 C470.992,268.33 468.45,268.743 467.052,268.775 C466.322,268.775 465.686,268.902 465.622,269.029 C465.591,269.188 464.161,269.982 462.541,270.776 L459.522,272.27 L453.549,272.27 C447.925,272.27 447.576,272.302 447.258,272.905 C446.972,273.477 446.591,273.541 444.24,273.541 C441.857,273.541 441.539,273.477 441.19,272.873 C440.872,272.238 440.65,272.206 436.392,272.333 C432.58,272.429 431.912,272.492 431.658,273 C431.404,273.445 430.864,273.541 428.354,273.541 C426.257,273.541 425.335,273.414 425.272,273.159 C425.177,272.842 423.874,272.715 420.665,272.651 C416.948,272.556 416.153,272.651 415.804,273.032 C415.55,273.382 414.851,273.541 413.77,273.541 C412.881,273.541 411.61,273.7 410.974,273.858 C409.894,274.176 409.799,274.303 409.703,275.542 L409.608,276.877 L407.638,277.322 C406.526,277.576 405.637,277.893 405.637,278.052 C405.637,278.497 411.133,283.835 412.309,284.502 C413.993,285.487 414.851,286.98 414.851,289.014 C414.851,290.094 414.66,291.015 414.31,291.555 C413.834,292.286 413.802,292.763 414.183,296.861 C414.882,304.677 415.041,305.758 415.74,306.901 C417.488,309.856 416.471,313.637 413.675,314.813 C413.167,315.003 412.404,315.829 411.896,316.687 C411.419,317.513 409.799,320.15 408.337,322.565 C405.827,326.696 405.637,327.077 405.637,328.697 C405.637,330.349 405.573,330.508 404.048,332.001 C402.523,333.558 402.428,333.59 400.648,333.59 C399.536,333.59 398.52,333.399 398.138,333.113 C397.503,332.7 397.058,332.859 392.292,335.274 L387.113,337.879 L386.701,339.277 C386.256,340.771 385.303,341.978 383.968,342.677 C382.951,343.185 380.124,343.281 379.234,342.772 C378.694,342.518 377.773,342.868 373.801,344.964 C369.131,347.411 368.972,347.506 368.622,348.777 C368.4,349.476 367.923,350.493 367.542,351.001 C366.652,352.304 364.206,353.416 362.84,353.162 C362.268,353.066 361.315,352.876 360.743,352.78 C359.821,352.622 359.027,352.939 355.723,354.687 C353.562,355.862 351.433,357.006 350.989,357.228 C350.48,357.546 350.067,358.15 349.877,358.976 C349.464,360.565 348.637,361.613 347.017,362.471 C345.524,363.265 344.189,363.329 342.918,362.662 C342.22,362.28 340.663,362.185 335.357,362.185 L328.716,362.185 L327.858,363.17 C327.414,363.742 326.556,364.377 325.984,364.6 C323.823,365.521 321.409,364.981 319.725,363.17 L318.772,362.185 L308.033,362.185 L306.603,363.456 C305.205,364.663 305.046,364.727 302.949,364.727 C300.852,364.727 300.725,364.695 299.391,363.456 L298.024,362.185 L286.745,362.185 L285.315,363.456 C283.981,364.631 283.695,364.727 282.043,364.727 C280.55,364.727 280.01,364.568 278.929,363.805 C278.23,363.297 277.563,362.725 277.436,362.534 C277.309,362.312 275.276,362.185 271.685,362.185 L266.125,362.185 L264.536,363.456 C263.17,364.536 262.694,364.727 261.391,364.727 C259.453,364.727 258.627,364.409 257.324,363.202 L256.276,362.217 L250.652,362.121 C245.219,362.026 244.997,362.058 244.329,362.725 C243.313,363.742 241.248,364.727 240.135,364.727 C238.738,364.727 237.753,364.25 236.259,362.916 L234.925,361.708 L224.059,361.708 L223.169,362.598 C222.216,363.583 219.96,364.695 218.975,364.727 C218.054,364.727 215.957,363.551 214.908,362.471 C214.082,361.613 213.86,361.55 211.572,361.549 C209.92,361.581 208.935,361.708 208.522,362.026 C207.569,362.757 205.567,362.662 205.313,361.867 C205.027,360.914 203.82,361.073 202.74,362.217 C201.532,363.488 200.357,364.091 199.022,364.091 C197.402,364.091 195.909,363.456 194.701,362.28 L193.621,361.232 L183.041,361.232 L182.088,362.217 C179.705,364.727 176.178,364.695 173.795,362.153 L172.906,361.232 L161.69,361.232 L161.182,362.026 C160.515,363.075 158.449,364.091 157.051,364.091 C155.495,364.091 153.588,363.265 152.603,362.153 L151.777,361.232 L141.102,361.232 L139.831,362.376 C139.164,363.011 138.274,363.647 137.861,363.805 C135.891,364.568 133.063,363.742 131.729,362.058 L131.093,361.232 L120.132,361.232 L119.179,362.217 C117.336,364.155 114.54,364.631 112.348,363.392 C111.649,363.011 110.886,362.376 110.632,361.963 C110.156,361.232 110.06,361.232 104.468,361.232 L98.781,361.232 L98.273,362.026 C96.303,365.013 90.806,364.536 89.281,361.232 C88.741,360.056 88.582,359.961 85.532,358.976 C83.785,358.436 81.37,357.642 80.194,357.228 C78.225,356.53 77.875,356.498 75.905,356.847 C73.078,357.324 71.394,356.816 69.996,355.1 C69.138,354.02 69.011,353.607 68.979,351.764 L68.947,349.698 L65.357,345.6 L61.798,341.533 L59.892,341.533 C57.732,341.533 56.27,340.834 55.19,339.309 C54.713,338.642 54.554,337.911 54.554,336.386 L54.554,334.321 L52.616,332.287 C51.568,331.175 49.82,329.301 48.772,328.125 C46.929,326.028 46.802,325.965 45.372,325.965 C43.625,325.965 42.29,325.234 41.019,323.55 C40.225,322.533 40.098,322.057 40.098,320.405 L40.098,318.466 L36.635,314.431 C33.331,310.619 33.076,310.396 31.964,310.396 C29.74,310.396 28.724,310.015 27.326,308.617 C25.991,307.251 25.959,307.187 25.959,305.09 C25.959,303.057 25.864,302.835 24.816,301.659 C24.18,300.96 22.814,299.403 21.765,298.164 C18.398,294.288 17.889,293.875 16.428,293.875 C13.124,293.875 11.058,291.142 11.503,287.266 C11.694,285.582 11.63,285.36 10.613,283.867 C4.863,275.32 5.053,275.574 3.751,275.129 C2.099,274.589 1.05,273.572 0.383,271.825 C-0.348,269.887 -0.062,268.552 1.495,266.773 L2.766,265.343 L2.766,259.243 C2.766,253.302 2.766,253.143 1.971,251.999 C1.336,251.078 1.177,250.442 1.177,248.949 C1.177,247.106 1.209,247.011 2.766,245.549 C4.037,244.279 4.609,243.993 5.848,243.802 C7.277,243.611 7.468,243.484 8.707,241.673 C9.438,240.593 10.836,238.591 11.821,237.225 C13.505,234.81 13.568,234.652 13.568,232.682 C13.568,230.998 13.727,230.394 14.426,229.346 C15.284,228.043 16.205,227.408 17.794,227.026 C19.001,226.74 18.906,225.628 17.603,225.152 C17.19,224.993 17.063,224.58 17.063,223.531 C17.063,222.737 16.904,222.006 16.745,221.911 C16.269,221.593 16.396,220.386 17,219.623 C17.445,219.02 17.889,218.893 19.923,218.829 L22.306,218.734 L22.337,204.913 L22.401,191.124 L23.227,190.456 C23.99,189.853 24.053,189.63 24.053,187.12 C24.053,183.753 24.244,183.022 25.197,182.799 C25.896,182.609 25.959,182.45 25.959,180.416 C25.959,178.351 26.023,178.192 26.785,177.906 C27.23,177.716 28.66,177.589 29.963,177.589 C31.869,177.589 32.505,177.716 33.235,178.256 L34.125,178.923 L35.618,178.224 C36.667,177.748 37.588,177.589 38.764,177.652 L40.416,177.748 L40.511,180.067 C40.606,182.196 40.67,182.418 41.369,182.672 C41.814,182.831 42.576,182.895 43.116,182.799 C44.07,182.609 44.07,182.577 44.069,180.448 C44.07,177.716 44.292,177.525 47.183,177.779 C49.344,177.97 49.503,177.938 50.932,176.985 C52.934,175.682 54.936,175.619 56.874,176.858 L58.208,177.716 L63.927,177.303 C68.82,176.953 69.678,176.826 70.027,176.318 C70.885,175.111 72.506,174.412 74.475,174.411 C76.255,174.412 76.477,174.507 77.843,175.682 L79.273,176.953 L84.992,176.953 C89.694,176.953 90.743,176.858 90.87,176.477 C90.997,176.223 91.632,175.651 92.331,175.174 C94.556,173.713 97.733,174.157 99.289,176.159 L99.925,176.953 L111.331,176.953 L112.094,176.127 C113.238,174.888 114.508,174.348 116.256,174.348 C117.876,174.38 119.37,175.079 120.386,176.286 C120.926,176.922 121.276,176.953 126.677,176.953 C131.538,176.953 132.46,176.89 132.587,176.477 C132.968,175.492 135.573,174.284 137.225,174.316 C138.782,174.348 139.545,174.698 141.07,176.127 C141.928,176.922 142.087,176.953 145.867,176.953 C150.729,176.953 151.015,176.763 151.428,173.013 C151.65,170.98 151.873,170.376 152.571,169.646 C153.652,168.534 154.541,168.28 154.986,168.947 C155.24,169.392 155.272,169.392 155.113,168.82 C154.954,168.184 155.081,168.121 156.702,167.993 C158.354,167.867 158.608,167.708 160.292,166.055 C161.309,165.039 162.389,164.244 162.738,164.244 C163.088,164.213 163.724,164.022 164.168,163.768 C164.613,163.514 165.312,163.323 165.725,163.291 C166.361,163.291 166.424,163.164 166.265,162.497 C166.075,161.734 166.138,161.703 167.345,161.703 C168.394,161.703 168.68,161.83 168.902,162.465 C169.061,162.878 169.443,163.291 169.728,163.418 C170.014,163.514 175.543,163.609 181.992,163.609 L193.716,163.609 L193.716,160.463 C193.716,156.238 193.621,156.301 198.736,156.301 C200.96,156.301 203.312,156.206 203.979,156.111 C204.531,156.011 204.236,156.049 204.867,156.008 z M322.33,349.794 L319.661,349.794 C317.691,349.794 316.992,349.889 316.992,350.207 C316.992,350.62 317.977,353.829 318.645,355.576 L318.962,356.466 L319.82,355.799 C322.298,353.829 325.73,353.734 327.668,355.545 C328.272,356.117 328.367,356.117 328.557,355.672 C328.685,355.29 328.557,355.068 328.113,354.973 C327.763,354.877 327.477,354.687 327.477,354.528 C327.477,354.369 327.318,354.242 327.128,354.242 C326.969,354.242 325.793,353.257 324.586,352.018 L322.33,349.794 z M303.594,349.635 C301.07,349.686 299.671,349.626 297.993,351.7 L296.658,353.193 L297.325,354.846 C297.993,356.434 298.056,356.466 298.692,355.989 C300.693,354.528 301.329,354.242 302.79,354.242 C304.284,354.242 305.809,354.814 306.889,355.767 C307.397,356.212 307.493,356.148 307.937,355.068 C308.191,354.433 308.605,353.003 308.859,351.891 L309.272,349.889 L305.205,349.698 L303.594,349.635 z M264.478,349.155 C261.827,349.156 263.015,349.155 260.914,349.158 C257.165,349.158 254.084,349.254 254.083,349.413 C254.084,349.762 255.926,355.449 256.149,355.831 C256.276,356.021 256.879,355.735 257.674,355.132 C258.849,354.178 259.199,354.083 261.073,354.083 C262.916,354.083 263.297,354.21 264.219,354.973 C265.839,356.307 265.776,356.371 267.078,352.304 C267.262,351.74 268.088,350.174 267.544,349.599 C266.866,348.883 265.245,349.329 264.478,349.155 z M219.42,348.841 L212.716,348.841 L212.938,350.366 C213.129,351.827 213.987,355.1 214.273,355.608 C214.4,355.831 215.194,355.386 215.639,354.846 C216.116,354.274 217.418,353.924 219.134,353.924 C221.168,353.924 221.994,354.21 223.169,355.259 C223.836,355.894 223.836,355.894 224.186,355.259 C224.377,354.877 224.535,354.433 224.535,354.242 C224.535,354.051 223.392,352.749 221.994,351.382 L219.42,348.841 z M179.768,348.523 L175.479,348.523 C170.682,348.523 170.809,348.428 171.635,350.747 C171.889,351.478 172.111,352.336 172.111,352.653 C172.111,352.971 172.334,353.734 172.588,354.369 L173.096,355.545 L174.113,354.814 C177.004,352.749 179.419,352.749 181.706,354.814 L182.533,355.576 L183.232,354.242 C183.994,352.717 184.185,353.13 181.262,350.08 L179.768,348.523 z M159.943,348.523 L156.384,348.555 L153.747,351.096 L151.142,353.638 L151.65,354.591 L152.158,355.576 L152.921,354.846 C155.081,352.812 158.576,352.876 160.864,354.941 C161.531,355.513 161.531,355.513 162.039,354.337 C162.834,352.431 163.819,349.031 163.66,348.777 C163.565,348.65 161.881,348.523 159.943,348.523 z M114.731,348.523 L108.186,348.523 L108.345,349.254 C108.631,350.62 109.87,355.005 110.06,355.259 C110.156,355.418 110.442,355.354 110.727,355.1 C113.269,352.844 116.478,352.717 118.766,354.782 L119.592,355.545 L119.91,354.655 C121.181,351.033 121.625,349.413 121.466,348.999 C121.339,348.587 120.227,348.523 114.731,348.523 z M129.537,350.366 L129.981,351.732 C130.204,352.495 130.585,353.67 130.807,354.305 L131.252,355.513 L133.317,353.448 L132.618,352.971 C132.237,352.717 131.379,352.018 130.744,351.414 L129.537,350.366 z M99.346,351.809 C98.334,352.196 96.931,352.65 96.335,353.607 C96.43,353.797 96.716,353.924 96.938,353.924 C97.161,353.924 97.606,354.21 97.923,354.56 C98.241,354.909 98.591,355.132 98.718,355.036 C99.035,354.846 99.798,352.05 99.575,351.827 L99.346,351.809 z M364.905,336.577 C364.778,336.481 363.157,337.212 361.251,338.229 C359.376,339.214 356.898,340.516 355.754,341.12 C352.514,342.836 352.545,342.709 355.119,345.123 C357.343,347.189 357.978,347.475 357.978,346.362 C357.978,345.505 359.504,343.503 360.552,342.931 C361.187,342.613 362.299,342.423 363.57,342.454 L365.604,342.454 L365.572,341.279 C365.54,339.69 365.127,336.831 364.905,336.577 z M63.895,323.423 C63.419,323.423 59.257,329.555 59.193,330.349 C59.161,330.699 59.574,330.921 60.559,331.112 C63.196,331.557 65.039,333.527 65.293,336.132 C65.357,337.021 65.548,337.72 65.675,337.72 C65.802,337.72 67.073,337.085 68.47,336.291 C69.869,335.496 71.171,334.861 71.362,334.861 C71.584,334.861 72.124,334.607 72.601,334.321 C73.808,333.558 73.777,333.59 73.459,333.336 C73.173,333.145 69.964,329.65 65.675,324.948 C64.912,324.09 64.118,323.423 63.895,323.423 z M374.786,332.001 C373.61,332.001 371.641,332.796 371.64,333.272 C371.641,333.431 372.594,334.353 373.769,335.337 L375.866,337.148 L376.374,336.227 C377.137,334.797 378.027,333.812 379.202,333.082 L380.251,332.414 L378.09,332.224 C376.915,332.097 375.421,332.001 374.786,332.001 z M35.141,292.604 C35.014,292.604 34.347,293.398 33.68,294.383 C33.013,295.368 32.314,296.321 32.155,296.512 C31.678,297.052 30.408,299.149 30.407,299.403 C30.408,299.499 30.852,299.594 31.392,299.594 C33.807,299.594 36.444,302.39 36.444,304.963 C36.444,306.107 36.54,306.266 37.175,306.266 C37.556,306.266 38.859,305.917 40.066,305.503 C42.195,304.741 42.29,304.677 42.703,303.343 C43.275,301.373 43.243,301.055 42.1,299.816 C36.984,294.32 35.332,292.604 35.141,292.604 z M141.928,182.577 L141.038,183.371 C139.736,184.61 138.941,184.896 137.003,184.896 C135.192,184.896 133.794,184.388 133.063,183.498 C132.809,183.212 132.523,182.99 132.396,182.99 C132.174,182.99 130.172,187.406 130.172,187.883 C130.172,187.978 133.318,188.074 137.194,188.073 L144.184,188.073 L143.993,187.375 C143.866,186.962 143.358,185.722 142.849,184.61 L141.928,182.577 z M79.146,183.022 C79.082,182.926 78.606,183.276 78.097,183.752 C77.621,184.229 76.827,184.706 76.35,184.833 C75.524,185.055 75.524,185.055 77.303,186.58 C78.669,187.724 79.337,188.074 80.163,188.073 C80.766,188.074 81.243,188.042 81.243,188.01 C81.211,187.629 79.368,183.276 79.146,183.022 z M99.821,182.855 L99.702,182.958 C99.576,183.149 99.004,183.657 98.4,184.102 C97.51,184.769 96.97,184.896 95.223,184.896 C93.38,184.896 92.967,184.769 91.855,183.943 C90.425,182.863 90.139,182.799 90.139,183.498 C90.139,183.784 89.853,184.483 89.535,185.023 C89.218,185.564 88.837,186.485 88.709,187.057 L88.487,188.073 L98.559,188.073 L99.83,186.93 C101.196,185.722 101.291,185.214 100.401,183.498 C100.096,183.009 100.287,183.225 99.821,182.855 z M120.863,182.672 L120.068,183.53 C119.624,184.007 119.433,184.452 119.624,184.515 C119.814,184.579 120.45,184.96 121.022,185.341 C121.594,185.754 122.102,186.04 122.165,186.008 C122.197,185.977 121.943,185.214 121.562,184.324 L120.863,182.672 z" fill="#000000"/>
  </g>
</svg>
