<?xml version="1.0" encoding="UTF-8"?>
<!DOCTYPE svg PUBLIC "-//W3C//DTD SVG 1.1//EN" "http://www.w3.org/Graphics/SVG/1.1/DTD/svg11.dtd">
<svg version="1.1" xmlns="http://www.w3.org/2000/svg" xmlns:xlink="http://www.w3.org/1999/xlink" x="0" y="0" width="500" height="500" viewBox="0, 0, 500, 500">
  <g id="layer102">
    <path d="M255.293,0.048 C255.883,0.505 256.129,1.127 256.376,1.797 C256.791,2.922 257.56,4.048 258.093,4.403 C258.686,4.699 265.733,5.173 273.788,5.41 L288.417,5.825 L293.155,8.075 C297.834,10.207 304.111,15.478 305.355,18.202 C305.651,18.854 306.54,20.453 307.369,21.756 C308.139,23.059 309.086,24.599 309.442,25.132 C310.389,26.672 308.613,27.975 305.592,27.975 C303.401,27.975 302.986,28.153 302.69,29.396 C302.275,31.114 302.69,32.476 303.874,32.95 C305.118,33.423 304.881,35.852 303.46,37.036 C302.749,37.688 302.335,38.635 302.453,39.405 C302.572,40.471 303.045,40.708 305.296,40.886 C309.382,41.123 309.738,42.189 307.487,46.453 C305.237,50.599 301.032,55.515 297.715,57.824 C294.28,60.193 287.173,62.918 284.508,62.918 C283.205,62.918 281.665,63.214 281.073,63.628 C280.184,64.161 279.592,64.161 278.348,63.628 C277.519,63.214 275.742,62.918 274.499,62.918 C271.834,62.918 271.301,63.865 271.656,68.011 C271.834,70.262 271.834,70.262 275.21,70.972 C279.829,71.861 282.79,74.17 282.79,76.776 C282.79,79.501 284.034,80.33 288.417,80.448 C290.43,80.508 292.326,80.685 292.622,80.863 C292.918,81.041 295.524,81.337 298.426,81.514 C301.328,81.692 304.23,82.166 304.822,82.581 C305.414,82.995 307.191,85.245 308.79,87.496 L311.574,91.642 L316.016,91.938 C322.353,92.352 322.886,92.827 325.195,99.223 C326.38,102.48 328.512,103.961 331.533,103.665 C334.198,103.428 334.257,101.888 331.651,95.966 C327.328,86.253 324.129,76.895 323.833,73.282 C323.537,70.202 323.656,69.61 324.781,68.544 C325.906,67.537 326.321,67.478 327.979,68.129 C329.045,68.544 332.658,69.373 336.093,70.025 C339.528,70.676 344.325,71.564 346.754,72.097 C349.182,72.572 352.439,72.986 353.92,72.986 C355.4,72.986 357.414,73.401 358.362,73.874 C359.309,74.348 362.389,75.118 365.113,75.651 C367.897,76.184 371.154,76.836 372.339,77.191 C373.523,77.487 376.84,78.138 379.742,78.612 C382.585,79.086 387.619,79.975 390.876,80.685 C396.562,81.87 399.878,82.521 406.275,83.647 C407.933,83.883 411.072,84.535 413.382,85.068 C415.632,85.601 418.535,86.016 419.719,86.016 C423.154,86.016 423.747,86.43 423.747,89.095 C423.747,91.464 423.747,91.464 421.792,91.109 L419.779,90.754 L418.831,94.307 C418.238,96.262 417.646,97.861 417.35,97.861 C417.113,97.861 411.368,98.394 404.498,99.045 C397.687,99.697 390.462,100.23 388.507,100.23 C384.598,100.23 382.762,100.94 383.829,102.006 C384.302,102.48 385.901,102.48 389.455,102.065 C398.28,101 401.774,100.94 402.129,101.888 C402.366,102.598 403.846,102.717 410.48,102.48 C414.981,102.302 418.594,102.421 418.831,102.776 C419.6,104.02 417.409,104.671 411.131,105.027 C388.567,106.33 389.632,106.212 389.929,108.403 C389.988,108.818 389.514,109.883 388.803,110.831 C387.323,112.963 387.145,118.945 388.567,121.61 C389.396,123.268 389.396,123.624 388.567,125.756 C388.034,127.059 387.619,128.895 387.619,129.842 C387.619,131.323 387.204,131.797 385.428,132.626 C383.414,133.574 383.177,133.929 383,136.238 C382.881,137.66 382.467,138.904 382.111,139.022 C381.696,139.141 380.69,139.377 379.801,139.555 C377.077,140.148 377.551,141.806 382.94,150.867 C383.71,152.17 385.191,154.125 386.257,155.25 C387.323,156.316 388.33,157.797 388.567,158.507 C388.745,159.159 389.632,161.35 390.521,163.304 C391.469,165.259 392.475,167.983 392.831,169.405 C393.246,170.767 393.838,172.899 394.193,174.143 C395.022,176.985 401.655,184.152 402.603,183.204 C403.669,182.138 404.794,182.434 405.387,184.034 C406.216,186.165 407.578,186.462 409.177,184.981 C411.309,182.967 413.797,183.5 414.626,186.047 C415.455,188.594 416.462,189.127 421.792,189.719 C424.22,189.956 426.708,190.37 427.359,190.548 C429.017,191.081 428.899,194.161 427.182,195.049 C425.997,195.701 425.997,195.76 426.944,196.471 C427.478,196.885 428.958,197.418 430.143,197.655 C431.327,197.892 432.985,198.544 433.815,199.136 C434.644,199.669 436.657,200.32 438.257,200.498 C455.254,202.571 455.61,202.689 459.992,207.842 C464.138,212.639 463.605,215.067 457.741,218.799 C455.077,220.457 453.596,220.99 451.464,220.99 C449.983,221.049 448.266,221.227 447.733,221.404 C446.844,221.76 445.068,225.195 445.068,226.616 C445.068,227.031 446.37,228.689 447.91,230.347 C451.642,234.256 452.648,236.566 451.523,238.58 C450.398,240.712 443.409,244.739 440.863,244.739 C439.737,244.739 438.434,245.094 438.079,245.45 C437.546,245.983 437.191,246.042 436.895,245.569 C436.184,244.502 431.979,243.495 422.562,242.074 C420.489,241.778 419.008,242.785 419.008,244.325 C419.008,245.094 418.712,245.983 418.298,246.398 C417.469,247.227 412.849,247.345 411.428,246.575 C409.829,245.746 405.979,247.108 405.979,248.529 C405.979,249.477 405.801,249.359 404.676,247.996 C400.767,243.022 400.53,242.844 397.391,243.555 C394.252,244.265 387.027,243.081 383.888,241.363 C382.644,240.712 381.46,240.593 379.505,240.889 C375.064,241.541 371.391,240.297 368.963,237.336 C367.009,234.967 366.594,234.79 362.567,234.138 C353.446,232.657 352.202,232.361 350.011,230.88 C348.767,230.051 347.05,229.341 346.161,229.341 C344.444,229.341 342.608,227.741 342.608,226.32 C342.608,225.787 341.838,224.662 340.831,223.714 L339.054,221.997 L339.054,202.156 L335.086,199.787 C331.769,197.892 323.537,190.489 321.998,188.06 C321.523,187.35 318.088,185.514 317.2,185.514 C316.904,185.514 315.897,187.113 315.009,189.008 C313.41,192.68 309.738,196.53 300.499,204.347 C293.392,210.27 293.806,210.092 289.66,209.263 C286.285,208.671 285.988,208.671 285.041,209.856 C284.448,210.566 283.975,211.454 283.975,211.869 C283.975,212.284 283.56,212.817 283.027,212.994 C282.317,213.291 282.139,213.824 282.376,215.008 C282.613,216.074 282.317,217.14 281.606,218.088 C280.066,220.101 280.066,223.181 281.606,224.129 C282.257,224.543 282.79,225.195 282.79,225.61 C282.79,226.439 286.462,228.156 288.18,228.156 C288.831,228.156 289.838,228.689 290.549,229.4 C291.911,230.762 293.451,230.525 293.451,228.867 C293.451,228.274 293.155,225.55 292.799,222.885 C291.97,216.607 292.148,216.311 298.129,216.252 C300.617,216.252 305,216.015 307.902,215.778 C311.87,215.482 313.41,215.6 314.298,216.193 C314.949,216.666 316.075,216.844 316.845,216.666 C317.911,216.37 319.332,217.081 322.708,219.272 C327.387,222.352 331.059,226.676 333.191,231.473 C334.908,235.323 336.685,242.726 336.685,246.042 C336.685,247.641 337.337,250.899 338.107,253.208 C340.12,259.25 342.608,268.192 342.608,269.259 C342.608,269.792 343.082,270.68 343.733,271.331 C344.384,271.983 344.858,273.345 344.917,274.707 C344.977,277.55 346.517,282.525 349.478,289.158 C351.61,294.015 352.499,295.377 356.289,299.76 C357.355,301.003 358.006,302.424 358.006,303.55 C358.006,305.86 361.086,308.821 366.653,311.841 C370.148,313.737 370.977,314.507 371.569,316.284 C371.983,317.468 372.516,319.008 372.812,319.659 C373.05,320.31 373.82,322.383 374.53,324.279 C375.241,326.115 376.366,329.135 377.077,330.971 C378.261,334.169 378.321,334.347 377.255,336.064 C376.07,338.137 376.722,339.44 378.498,338.434 C380.69,337.19 385.25,342.461 385.25,346.251 C385.25,347.376 385.487,348.443 385.783,348.62 C386.079,348.798 386.435,349.686 386.612,350.575 C386.731,351.522 387.737,354.484 388.803,357.267 C389.81,360.051 391.173,363.841 391.765,365.736 C392.416,367.631 393.304,370.001 393.719,371.066 C394.193,372.133 395.022,374.324 395.496,375.923 C398.22,384.451 401.478,393.335 402.84,395.704 C403.669,397.185 404.854,400.146 405.387,402.278 C406.808,407.609 410.302,417.322 410.954,417.795 C411.309,418.033 412.02,417.914 412.553,417.618 C414.507,416.611 415.396,417.085 416.876,420.224 C418.475,423.481 423.332,431.299 425.701,434.438 C426.471,435.504 427.833,437.636 428.721,439.235 C429.669,440.834 431.327,443.085 432.393,444.328 C433.518,445.572 434.407,447.112 434.407,447.763 C434.407,448.474 433.46,450.725 432.393,452.738 L430.321,456.47 L432.097,460.201 C433.341,462.807 434.229,463.873 434.999,463.873 C435.651,463.873 436.421,464.406 436.776,464.998 C437.131,465.708 438.138,466.241 439.263,466.36 C440.922,466.538 441.632,467.13 444.06,470.684 C445.6,472.993 448.384,476.547 450.22,478.56 C454.781,483.713 466.152,493.485 467.573,493.485 C468.462,493.485 468.758,493.9 468.758,495.203 C468.758,496.802 468.521,496.98 466.27,497.335 C463.309,497.75 418.653,497.276 409.651,496.742 C405.15,496.446 402.544,496.624 399.878,497.276 C394.667,498.519 360.908,498.815 354.097,497.69 C350.189,496.98 347.879,496.98 340.772,497.631 C336.093,497.986 322.531,498.401 310.626,498.46 L289.009,498.519 L288.831,496.684 C288.654,495.084 289.187,494.492 293.332,490.939 C299.906,485.371 307.487,477.317 311.219,471.809 C313.943,467.841 314.416,466.656 314.535,464.169 C314.594,462.57 315.187,454.693 315.838,446.697 C316.489,438.702 316.904,431.95 316.726,431.714 C316.075,430.647 317.2,428.337 318.384,428.337 C319.036,428.337 319.688,427.982 319.865,427.567 C320.161,426.798 319.451,422.355 318.266,417.085 C317.911,415.604 317.437,412.051 317.141,409.089 C316.608,403.641 316.312,401.331 314.18,387.472 C313.469,383.089 312.699,377.877 312.403,375.923 C312.107,373.969 311.515,371.066 311.159,369.408 C310.804,367.809 310.33,364.374 310.212,361.828 L309.915,357.267 L312.758,355.964 L315.601,354.721 L313.41,352.884 C311.633,351.404 311.1,350.456 310.626,347.85 C310.33,346.133 310.034,343.646 310.034,342.402 C310.034,341.158 309.797,339.559 309.501,338.789 C309.205,338.019 308.613,335.887 308.198,333.933 C307.428,330.497 307.428,330.438 309.442,326.766 C311.219,323.449 311.396,322.858 310.745,321.436 C310.33,320.607 310.034,319.304 310.034,318.534 C310.034,317.764 309.501,316.461 308.85,315.632 C307.428,313.855 307.369,313.203 308.613,312.197 C309.679,311.368 309.619,311.072 306.954,302.484 C304.585,294.666 304.407,294.488 300.38,296.443 C296.708,298.22 290.312,299.819 286.64,299.819 C282.968,299.819 276.275,298.338 273.137,296.798 C269.524,295.021 268.576,295.495 268.517,299.049 C268.458,301.951 268.339,301.773 267.688,297.983 L267.392,295.85 L250.039,295.969 C235.173,296.087 232.39,296.265 230.376,297.154 C225.342,299.286 221.966,299.996 216.754,300.056 C211.187,300.115 208.877,299.582 203.31,297.035 C199.342,295.199 198.75,295.436 197.565,299.641 C197.151,301.181 196.262,303.965 195.67,305.8 C194.367,309.591 194.249,312.315 195.255,313.322 C195.847,313.914 195.729,314.566 194.722,316.58 C193.419,319.185 192.176,322.798 192.176,323.983 C192.176,324.338 193.005,326.055 194.012,327.655 C195.551,330.142 195.789,331.09 195.493,332.866 C195.315,334.051 195.018,336.005 194.841,337.13 C194.663,338.256 194.249,340.565 193.952,342.165 C191.998,352.766 192.057,352.529 190.281,353.595 C188.089,354.839 188.386,356.023 190.991,356.912 C192.887,357.504 193.064,357.8 193.538,360.762 C193.952,363.19 193.834,364.492 193.123,366.388 C192.59,367.75 192.176,370.179 192.176,371.777 C192.176,373.436 191.939,375.686 191.583,376.811 C191.287,377.937 190.636,381.964 190.162,385.695 C189.629,389.427 188.681,396.237 188.03,400.798 C187.378,405.358 186.845,410.451 186.905,412.051 C186.964,413.709 186.431,417.144 185.72,419.75 C185.069,422.355 184.476,425.494 184.476,426.679 C184.476,428.575 184.713,428.989 185.957,429.285 C187.319,429.641 187.438,429.937 187.438,432.72 C187.497,434.378 187.911,439.472 188.386,444.032 C188.918,448.592 189.57,454.752 189.866,457.654 C190.221,460.615 190.458,463.991 190.458,465.235 C190.399,469.795 199.519,480.989 211.542,491.235 C216.932,495.795 217.82,497.75 214.918,498.815 C212.964,499.585 176.896,499.526 170.262,498.697 C160.253,497.572 153.087,497.453 149.77,498.519 C147.046,499.348 144.144,499.408 125.784,499.112 C95.994,498.579 83.498,498.638 82.076,499.348 C81.306,499.763 73.785,500 60.518,500 C41.151,500 40.085,499.941 39.138,498.875 C37.598,497.157 38.308,495.795 42.809,492.005 C51.397,484.72 61.88,473.29 61.88,471.157 C61.88,470.091 64.605,468.018 66.085,468.018 C66.855,468.018 67.862,467.485 68.276,466.834 C68.691,466.183 69.461,465.65 70.053,465.649 C70.823,465.65 71.771,464.465 73.014,462.037 L74.91,458.424 L72.541,454.16 C71.238,451.791 70.172,449.718 70.172,449.54 C70.172,449.363 71.179,447.941 72.481,446.401 C73.725,444.92 75.087,442.907 75.561,442.078 C75.976,441.189 76.982,439.531 77.811,438.406 C79.352,436.333 82.313,431.595 84.504,427.745 C85.156,426.62 86.162,425.021 86.695,424.192 C87.288,423.363 88.058,421.823 88.472,420.816 C89.242,418.921 90.486,418.269 91.197,419.454 C91.374,419.809 92.026,420.046 92.618,420.046 C93.447,420.046 94.217,418.625 95.875,414.005 C97.001,410.629 98.422,406.306 98.896,404.351 C99.37,402.397 100.436,399.495 101.206,397.836 C102.864,394.52 106.832,383.978 107.543,381.254 C108.076,379.181 112.044,367.573 112.814,365.855 C114.235,362.775 118.144,350.101 118.144,348.561 C118.144,346.666 119.566,344.119 121.994,341.691 C123.356,340.329 124.007,340.151 125.666,340.447 C127.857,340.862 128.035,340.447 126.732,337.96 C125.903,336.301 126.021,334.525 127.146,331.8 C128.153,329.49 128.568,328.247 129.989,323.805 C132.299,316.342 132.773,315.809 137.926,313.145 C143.196,310.42 145.388,308.11 145.388,305.386 C145.388,303.846 145.921,303.076 148.586,300.944 C152.14,298.101 151.784,298.753 157.588,281.459 C159.424,275.951 160.135,272.99 159.839,271.805 C159.602,270.739 159.839,269.614 160.431,268.725 C160.964,267.955 161.378,266.949 161.378,266.593 C161.378,266.179 162.8,261.322 164.577,255.755 C166.354,250.188 167.952,243.969 168.13,241.955 C169.018,232.242 175.296,221.227 181.811,217.97 C183.114,217.318 184.772,216.252 185.483,215.6 C186.49,214.653 186.964,214.535 188.03,215.126 C189.096,215.66 189.511,215.6 190.458,214.771 C191.406,213.942 192.235,213.824 195.847,214.179 C198.217,214.475 202.6,214.831 205.62,215.008 C208.64,215.245 211.365,215.719 211.779,216.133 C212.312,216.666 212.312,217.792 211.838,220.99 C210.772,227.208 210.891,229.341 212.194,229.341 C212.845,229.341 213.793,228.808 214.385,228.156 C215.096,227.386 216.221,226.972 217.702,226.972 C219.478,226.972 220.189,226.616 220.959,225.491 C221.492,224.721 222.38,223.892 223.032,223.714 C224.631,223.181 224.631,218.68 222.973,217.199 C222.144,216.489 221.907,215.719 222.144,214.712 C222.38,213.824 222.203,212.935 221.611,212.284 C221.137,211.751 220.545,210.685 220.367,209.974 C219.834,208.257 217.702,207.723 214.977,208.612 C212.253,209.5 212.253,209.5 201.829,200.024 C195.255,194.042 193.301,191.91 191.761,188.89 C190.695,186.876 189.807,184.507 189.807,183.619 C189.807,180.184 186.845,180.776 182.166,185.159 C178.909,188.238 173.164,192.325 170.262,193.628 C169.433,193.983 167.242,194.753 165.406,195.286 C163.511,195.819 161.971,196.589 161.971,197.004 C161.971,198.248 163.392,199.61 164.932,199.846 L166.413,200.024 L166.59,222.53 L166.709,245.036 L159.72,252.024 L149.593,252.498 C140.709,252.912 139.228,253.149 137.866,254.215 C137.037,254.867 135.675,255.4 134.905,255.4 L133.424,255.4 L133.661,274.648 C133.72,285.249 133.661,293.955 133.424,294.074 C133.187,294.133 130.996,294.133 128.568,294.015 L124.126,293.778 L123.711,291.349 C123.534,289.987 123.415,281.4 123.534,272.279 L123.77,255.696 L90.841,255.104 L87.643,251.55 C85.333,248.944 84.445,247.523 84.386,246.22 C84.327,243.022 83.853,242.785 78.996,243.555 C76.568,243.91 72.245,244.443 69.283,244.68 C66.381,244.976 62.946,245.628 61.643,246.161 C58.978,247.286 54.773,247.404 52.108,246.457 C49.62,245.509 47.429,242.311 47.844,240.179 C48.554,236.448 48.554,236.152 47.666,236.388 C47.192,236.507 44.172,236.744 41.033,236.921 L35.288,237.218 L33.511,235.441 C31.201,233.072 30.668,230.94 31.853,228.393 C33.156,225.787 34.696,224.839 39.671,223.833 L43.817,223.004 L43.817,217.792 L39.671,217.436 C37.42,217.259 35.051,216.903 34.518,216.666 C32.919,215.956 31.498,212.284 31.912,209.915 C32.564,205.71 36.177,203.874 43.817,203.874 C46.423,203.874 47.785,203.637 47.903,203.163 C48.081,202.749 48.318,201.623 48.554,200.676 C48.732,199.728 49.68,198.248 50.627,197.359 C52.522,195.582 55.069,195.049 63.953,194.634 C66.914,194.516 70.231,194.161 71.356,193.805 C72.481,193.509 74.436,193.213 75.62,193.213 C78.286,193.213 79.055,192.088 79.055,188.357 C79.055,186.935 79.411,185.336 79.825,184.803 C80.714,183.619 84.445,182.553 87.524,182.553 C90.723,182.553 92.085,181.664 92.085,179.591 C92.085,177.637 93.447,176.63 96.053,176.63 C98.126,176.63 99.192,177.578 99.192,179.414 C99.192,181.25 100.318,181.605 104.404,181.013 C107.365,180.539 107.898,180.243 108.668,178.644 C109.142,177.637 110.386,175.979 111.451,174.972 C112.636,173.728 113.761,171.655 114.532,169.109 C115.953,164.726 116.071,164.311 118.381,159.396 C119.21,157.559 119.921,155.842 119.921,155.487 C119.921,155.191 120.987,153.947 122.231,152.822 C123.534,151.696 125.014,149.801 125.547,148.735 C126.85,145.951 129.101,141.924 130.285,140.148 C131.648,138.015 131.174,137.364 127.857,136.653 L124.955,136.061 L124.422,132.981 C123.948,130.257 123.652,129.902 122.349,129.724 C120.987,129.546 120.691,129.072 119.921,125.992 C119.447,124.038 118.796,122.084 118.559,121.669 C118.263,121.195 118.559,120.129 119.269,118.826 C120.987,115.924 121.046,109.647 119.329,107.514 C118.677,106.626 118.263,105.501 118.44,104.908 C118.914,103.487 116.367,102.776 108.964,102.302 C99.251,101.71 93.092,101 91.374,100.348 C88.117,98.986 83.083,85.66 84.978,83.35 C85.452,82.758 86.814,82.462 89.183,82.462 C91.078,82.462 93.329,82.166 94.158,81.87 C95.046,81.514 98.541,81.041 101.916,80.744 C105.352,80.448 108.431,79.915 108.846,79.619 C109.26,79.323 111.57,78.731 113.999,78.375 C116.427,77.961 119.625,77.428 121.106,77.132 C122.586,76.895 125.784,76.303 128.213,75.947 C130.641,75.533 134.135,74.881 135.912,74.407 C137.688,73.993 141.538,73.341 144.44,72.986 C147.342,72.63 150.422,71.979 151.31,71.505 C152.14,71.091 154.449,70.676 156.344,70.676 C158.299,70.676 162.504,70.143 165.761,69.433 C168.96,68.781 173.52,68.07 175.83,67.893 C178.139,67.656 180.745,67.123 181.633,66.708 C184.003,65.523 184.417,65.642 185.424,68.011 C186.253,69.906 186.194,70.439 185.009,74.348 C183.529,79.323 180.686,86.371 176.955,94.426 C175.474,97.564 174.408,100.585 174.586,101.059 C175.059,102.243 178.791,102.302 180.864,101.236 C181.752,100.822 182.818,99.163 183.707,96.795 C185.661,91.938 187.201,90.872 192.531,90.635 L196.618,90.457 L199.461,86.311 C201,84.061 202.54,81.929 202.896,81.574 C203.488,80.981 213.438,79.975 218.531,80.034 C220.13,80.093 222.321,79.679 223.388,79.204 C225.046,78.435 225.342,77.961 225.342,76.243 C225.342,74.585 225.697,74.052 227,73.341 C227.948,72.868 229.014,72.039 229.428,71.564 C229.902,70.972 231.205,70.617 232.686,70.617 C236.417,70.617 237.305,69.669 237.069,66.175 L236.891,63.214 L231.857,63.095 C229.073,63.095 226.408,62.918 225.934,62.74 C225.46,62.622 224.276,62.326 223.269,62.088 C213.675,59.72 206.331,54.271 202.6,46.749 C201.415,44.38 200.467,41.952 200.467,41.419 C200.467,40.116 202.303,39.228 204.909,39.228 C207.574,39.228 208.226,37.925 206.449,36.029 C204.85,34.312 204.791,31.765 206.449,30.936 C208.226,29.929 207.811,27.146 205.797,26.909 C201.356,26.435 200.467,26.139 200.467,25.014 C200.467,23.118 205.264,15.656 208.463,12.635 C211.898,9.319 216.517,6.831 221.196,5.706 C223.388,5.173 228.895,4.936 237.779,4.877 C245.123,4.877 251.46,4.64 251.934,4.344 C252.408,4.048 253.059,2.922 253.414,1.797 C253.656,1.236 253.868,0.33 254.497,0.048 C254.739,-0.06 255.028,0.048 255.293,0.048 z M104.228,459.971 C103.891,460.013 103.519,459.945 103.215,460.099 C101.964,460.732 101.704,462.407 101.265,463.577 C99.962,468.196 100.08,472.579 101.561,473.467 C102.213,473.882 102.746,474.829 102.746,475.54 C102.746,476.251 103.16,477.258 103.693,477.731 C104.759,478.857 109.26,479.035 110.326,477.968 C111.451,476.843 111.156,474.296 109.853,473.467 C109.142,473.053 108.668,472.105 108.668,471.217 C108.668,470.328 107.898,468.789 106.832,467.545 C105.233,465.708 105.055,465.235 105.411,462.984 C105.648,461.03 105.529,460.378 104.819,460.142 L104.228,459.971 z M399.958,458.585 L399.681,458.644 C399.178,458.97 399.668,460.419 399.701,460.911 C400.116,463.458 399.168,465.886 397.272,467.012 C396.858,467.249 396.503,468.255 396.503,469.144 C396.503,470.032 395.97,471.276 395.318,471.868 C394.371,472.757 394.193,473.408 394.489,474.77 C394.667,475.777 394.963,476.784 395.141,477.08 C395.496,477.731 399.345,477.613 400.708,476.902 C401.3,476.547 401.833,475.658 401.833,474.948 C401.892,473.408 403.136,471.572 404.202,471.572 C404.735,471.572 404.854,470.565 404.676,467.604 C404.321,462.57 402.662,458.898 400.708,458.661 L400.256,458.592 L399.958,458.585 z M80.697,468.776 C79.853,468.793 79.923,468.792 79.411,469.499 C78.996,470.091 78.286,471.513 77.871,472.638 C77.22,474.474 77.279,474.77 78.522,476.073 C80.062,477.672 80.95,477.672 81.188,476.014 C81.306,475.362 82.017,474.355 82.846,473.763 C85.037,472.223 84.8,470.624 82.313,469.44 C81.335,468.988 81.871,469.216 80.697,468.776 z M424.329,467.346 C423.298,467.727 423.765,467.514 422.917,467.959 C419.837,469.558 419.423,470.743 421.674,471.572 C422.562,471.928 423.272,472.757 423.509,473.763 C423.747,474.652 424.043,475.658 424.161,475.896 C424.694,476.784 427.3,473.763 427.3,472.342 C427.3,471.572 426.708,470.091 425.997,468.966 C425.553,468.307 425.2,467.476 424.329,467.346 z M213.497,271.213 L213.497,273.464 C213.497,274.648 213.023,276.366 212.371,277.195 C211.779,278.083 211.069,280.156 210.832,281.873 C210.476,284.775 210.536,285.012 212.431,287.026 C213.852,288.566 215.155,289.336 217.05,289.691 C218.531,289.987 219.893,290.224 220.13,290.284 C221.374,290.461 229.902,288.921 230.613,288.388 C231.205,287.855 231.324,286.73 231.027,283.532 C230.317,276.247 230.139,275.537 228.362,275.181 C226.052,274.648 221.018,273.108 219.834,272.516 C219.301,272.22 217.583,271.805 216.162,271.568 L213.497,271.213 z M289.99,272.18 C288.305,272.308 286.656,272.666 285.041,273.167 C282.672,273.878 279.889,274.707 278.881,275.003 C277.875,275.299 276.512,275.537 275.802,275.537 C273.788,275.537 272.544,278.083 272.248,282.821 C271.952,287.855 272.485,288.625 276.808,289.218 C284.686,290.343 288.18,289.691 291.2,286.671 C293.51,284.361 293.984,282.525 292.859,280.274 C292.562,279.623 292.03,278.557 291.674,277.905 C291.378,277.254 291.082,275.773 291.082,274.648 C291.082,273.345 290.726,272.398 290.253,272.22 L289.99,272.18 z M336.745,132.211 C335.323,132.211 334.968,132.507 334.672,133.87 C333.724,138.311 333.132,144.649 332.836,153.533 C332.362,166.503 332.48,165.97 329.341,165.97 L326.676,165.97 L326.321,169.109 C325.61,174.913 330.23,183.915 334.612,185.277 C338.403,186.402 342.904,186.284 345.569,184.921 C346.99,184.211 349.064,183.737 350.899,183.737 C352.795,183.737 353.979,183.441 354.097,183.026 C355.105,179.177 355.46,178.703 357.296,178.111 C359.546,177.459 359.606,177.045 357.769,174.794 C355.874,172.544 354.512,167.806 354.334,162.416 C354.157,158.448 353.801,157.264 351.077,151.756 C346.872,143.109 346.931,143.168 342.786,143.168 L339.351,143.168 L339.173,139.022 C338.995,132.863 338.758,132.211 336.745,132.211 z M170.61,130.535 C170.435,130.577 170.246,130.582 170.083,130.661 C168.717,131.329 168.651,134.852 168.427,136.12 C168.071,138.608 167.716,140.917 167.538,141.214 C167.36,141.51 166.057,141.569 164.695,141.391 L162.149,140.977 L160.727,143.878 C159.898,145.418 158.358,148.439 157.233,150.571 C154.271,156.197 153.679,158.152 153.679,162.416 C153.62,166.976 152.317,170.293 148.882,174.379 C147.639,175.919 146.572,177.281 146.572,177.518 C146.572,177.696 147.461,178.229 148.468,178.703 C150.54,179.532 151.192,179.414 152.376,177.696 C153.502,176.156 158.832,176.216 161.615,177.874 C163.629,179.058 164.044,179.058 169.196,178.407 C175.652,177.518 176.777,176.927 178.85,173.432 C180.094,171.3 180.331,170.174 180.212,167.628 C180.035,164.489 180.035,164.489 177.962,164.311 C176.836,164.193 175.652,163.897 175.415,163.66 C175.178,163.423 174.704,157.619 174.408,150.808 C173.638,132.863 173.401,131.086 171.624,130.671 C171.044,130.541 171.38,130.598 170.61,130.535 z" fill="#000000"/>
    <path d="M268.431,303.127 C269.114,303.484 268.812,303.297 269.346,303.668 C270.057,304.201 271.952,304.557 273.729,304.557 C276.868,304.557 277.934,305.327 275.683,305.919 C274.716,306.234 274.791,308.464 274.747,309.256 C274.682,310.432 274.645,311.827 274.621,312.985 C274.553,316.242 274.539,319.5 274.525,322.758 C274.492,330.577 274.5,338.396 274.499,346.215 L274.499,394.046 L273.196,393.868 C272.307,393.75 271.419,394.224 270.709,395.112 C269.642,396.415 269.524,396.415 268.813,395.468 C268.103,394.46 267.984,394.52 267.451,395.882 C266.859,397.54 265.378,398.31 263.898,397.836 C263.246,397.659 262.417,398.132 261.647,399.199 C260.936,400.146 259.337,401.212 257.857,401.686 C256.435,402.1 255.014,402.693 254.658,402.93 C254.362,403.167 252.822,403.344 251.283,403.344 C248.262,403.404 247.255,402.575 247.255,399.791 L247.196,398.429 L246.13,399.791 C245.478,400.502 244.768,401.094 244.531,401.094 C243.168,401.094 232.982,395.586 232.449,394.52 C231.975,393.691 231.56,393.513 231.027,393.928 C230.613,394.283 230.02,394.283 229.487,393.987 C228.718,393.513 228.54,387.176 228.303,349.153 C228.125,324.812 228.007,304.794 228.066,304.675 C228.125,304.557 236.832,304.497 247.374,304.557 C263.779,304.557 266.74,304.438 267.392,303.668 C267.811,303.187 267.802,303.127 268.431,303.127 z" fill="#000000"/>
    <path d="M430.656,256.491 L430.735,256.584 C430.912,256.999 430.735,257.473 430.439,257.71 C429.61,258.242 429.077,260.019 429.432,261.026 C429.669,261.5 430.498,261.914 431.387,261.914 C433.518,261.914 435.591,262.566 435.591,263.158 C435.591,263.454 434.94,263.691 434.17,263.691 C432.275,263.691 431.505,264.816 430.854,268.488 C430.321,271.923 429.965,273.049 428.721,275.951 C428.248,276.958 427.655,279.09 427.3,280.689 C427.004,282.229 426.234,285.427 425.582,287.678 C424.872,289.987 423.805,293.541 423.213,295.673 C422.562,297.805 421.259,302.188 420.311,305.445 C419.364,308.702 418.298,312.315 418.002,313.441 L417.409,315.513 L416.995,313.145 C416.758,311.841 416.343,309.828 416.047,308.702 C415.455,306.215 414.448,301.003 413.974,297.746 C413.737,296.443 412.849,293.126 411.961,290.343 C411.013,287.559 409.888,283.058 409.355,280.274 C408.822,277.491 407.815,272.516 407.163,269.199 C406.512,265.882 405.979,262.625 405.979,261.974 C405.979,261.322 405.387,260.434 404.676,260.079 C403.491,259.427 403.491,259.309 404.439,258.657 C405.209,258.065 405.86,258.065 407.223,258.598 C408.762,259.131 409.118,259.072 409.651,258.124 C410.243,257.058 410.302,257.058 411.25,258.302 C412.197,259.546 414.744,260.079 424.339,261.145 C426.944,261.441 427.004,261.381 428.781,258.657 C429.316,257.879 429.769,256.909 430.656,256.491 z" fill="#000000"/>
    <path d="M409.224,254.453 L409.355,254.689 C409.533,255.103 409.473,255.636 409.295,255.814 C409.118,256.051 408.94,255.696 408.999,255.044 C409.037,254.556 408.936,254.741 409.224,254.453 z" fill="#000000"/>
    <path d="M431.801,254.215 C431.919,254.215 432.038,254.511 432.038,254.807 C432.038,255.163 431.742,255.4 431.387,255.4 C431.09,255.4 430.972,255.163 431.15,254.807 C431.327,254.511 431.623,254.215 431.801,254.215 z" fill="#000000"/>
    <path d="M406.692,249.753 C407.331,250.141 407.519,250.955 407.756,251.61 C408.17,252.735 408.289,253.86 408.111,254.038 C407.933,254.274 407.756,253.978 407.756,253.445 C407.756,252.912 407.519,252.439 407.223,252.439 C406.512,252.439 405.979,250.129 406.571,249.773 L406.692,249.753 z" fill="#000000"/>
    <path d="M435.404,249.168 C435.703,249.77 435.095,250.353 434.762,250.839 C434.347,251.372 433.815,251.846 433.578,251.846 C432.867,251.846 433.222,250.839 434.407,249.773 C435.002,249.284 434.672,249.489 435.404,249.168 z" fill="#000000"/>
    <path d="M436.184,247.108 C436.539,247.108 436.776,247.404 436.776,247.7 C436.776,248.056 436.539,248.293 436.184,248.293 C435.888,248.293 435.591,248.056 435.591,247.7 C435.591,247.404 435.888,247.108 436.184,247.108 z" fill="#000000"/>
  </g>
</svg>
