<?xml version="1.0" encoding="UTF-8"?>
<!DOCTYPE svg PUBLIC "-//W3C//DTD SVG 1.1//EN" "http://www.w3.org/Graphics/SVG/1.1/DTD/svg11.dtd">
<svg version="1.1" xmlns="http://www.w3.org/2000/svg" xmlns:xlink="http://www.w3.org/1999/xlink" x="0" y="0" width="500" height="500" viewBox="0, 0, 500, 500">
  <g id="layer102">
    <path d="M108.208,116.493 C104.686,116.525 106.262,116.362 103.465,116.826 C99.167,117.56 91.2,124.269 91.2,126.994 C91.2,128.043 90.362,128.357 88.37,127.938 C86.169,127.518 84.386,128.462 79.355,132.655 C69.292,140.936 63.42,142.09 57.341,136.639 C53.777,133.598 53.462,133.493 42.246,133.493 C31.344,133.493 30.505,133.598 26.94,136.429 C19.917,141.775 18.974,148.484 24.215,155.088 C25.997,157.395 28.513,159.806 29.876,160.644 C32.706,162.427 34.593,165.99 34.593,169.555 C34.593,172.28 37.843,176.892 41.826,180.142 C43.294,181.296 46.543,184.23 48.955,186.747 C51.365,189.158 54.301,191.149 55.349,191.149 C56.502,191.149 57.969,191.883 58.703,192.722 C59.437,193.561 61.534,194.294 63.525,194.294 C65.412,194.294 67.195,194.714 67.509,195.238 C68.348,196.495 73.275,197.334 74.009,196.286 C74.847,194.819 76.524,195.238 76.524,196.915 C76.524,197.753 75.686,198.487 74.533,198.487 C73.484,198.487 71.912,199.536 70.968,200.794 C69.606,202.995 69.292,203.1 67.509,201.528 C60.59,195.761 44.866,195.761 39.729,201.633 C37.424,204.253 36.27,203.1 33.964,195.657 L31.973,189.053 L27.255,189.053 C22.643,189.053 22.328,189.263 21.07,192.827 C20.022,195.866 19.497,196.286 18.24,195.238 C17.087,194.294 16.353,194.294 15.2,195.343 C13.942,196.391 13.208,196.391 12.37,195.553 C11.636,194.819 10.587,194.294 9.958,194.294 C8.595,194.294 4.193,203.414 4.193,206.14 C4.193,207.084 3.249,208.341 2.096,208.97 C0.105,210.018 -0,211.172 -0,230.46 L-0,250.797 L2.83,251.111 C5.136,251.321 6.08,252.265 7.442,256.038 C9.434,261.594 14.675,268.093 18.555,269.981 C20.126,270.715 22.223,273.02 23.376,275.012 C24.425,277.004 26.311,279.729 27.569,281.092 C29.037,282.56 29.666,284.656 29.561,286.648 C29.352,289.059 30.505,291.155 34.069,295.559 C36.585,298.703 39.205,303.315 39.834,305.727 C40.463,308.138 41.197,310.654 41.407,311.387 C41.617,312.017 44.447,314.323 47.592,316.419 C50.842,318.516 54.406,321.556 55.559,323.128 C56.712,324.596 57.969,326.378 58.389,326.902 C58.913,327.531 59.857,329.208 60.695,330.781 C61.534,332.353 63.107,333.926 64.154,334.345 C66.461,335.078 77.992,346.191 78.935,348.601 C79.564,350.384 88.161,356.778 89.942,356.778 C90.571,356.778 93.612,359.608 96.756,363.068 C100.006,366.527 103.255,369.358 104.094,369.358 C104.933,369.358 106.401,370.301 107.449,371.455 C108.497,372.607 109.965,373.551 110.594,373.551 C111.327,373.551 114.891,375.857 118.456,378.792 C124.641,383.719 125.27,383.929 129.358,383.195 C133.656,382.461 139.421,382.357 149.38,382.881 C152.21,382.986 158.185,383.09 162.484,382.881 C171.499,382.671 182.611,382.671 193.932,382.881 C202.004,382.986 202.633,382.986 215.946,382.776 C220.244,382.671 225.905,382.671 228.525,382.671 C231.146,382.776 237.96,382.881 243.726,382.881 C249.491,382.881 255.152,382.986 256.305,382.986 C257.458,382.986 263.329,382.986 269.409,382.881 C275.489,382.881 281.569,382.776 283.037,382.776 C294.672,382.881 308.091,382.881 310.291,382.881 C311.759,382.776 317.525,382.776 323.081,382.776 C328.741,382.881 334.192,382.881 335.136,382.881 C341.006,382.776 402.331,382.776 409.355,382.776 C413.967,382.776 419.628,382.671 421.934,382.671 C424.24,382.566 428.434,382.776 431.368,383.195 C436.819,383.824 442.061,382.042 444.787,378.373 C445.52,377.43 449.084,375.543 452.859,373.97 C456.632,372.502 461.454,369.777 463.551,368.1 C467.849,364.746 479.275,358.875 481.581,358.875 C482.315,358.875 483.573,357.512 484.307,355.73 C485.041,354.052 485.984,352.585 486.508,352.585 C487.032,352.585 487.452,351.852 487.452,351.013 C487.452,350.069 490.282,346.61 493.741,343.255 C500.031,337.175 501.079,334.554 499.087,330.781 C496.677,326.273 493.951,318.097 493.322,313.589 C492.483,307.824 490.492,305.412 486.823,305.412 C483.259,305.412 478.227,303.211 472.147,298.913 C468.897,296.606 465.019,294.93 461.873,294.51 C459.148,294.091 453.383,291.889 449.189,289.688 C444.891,287.592 439.231,285.39 436.4,284.971 C427.385,283.608 425.603,281.092 429.796,275.746 C433.151,271.448 431.893,267.674 426.966,267.674 C425.708,267.674 423.296,267.15 421.725,266.521 C420.152,265.892 417.845,264.949 416.692,264.425 C415.54,264.005 412.709,263.062 410.402,262.328 C408.097,261.699 405.371,260.755 404.427,260.231 C400.13,258.03 394.888,260.546 395.832,264.11 C396.88,267.884 394.05,269.037 388.284,267.045 C385.453,266.101 382.728,264.949 382.204,264.425 C381.575,263.901 380.527,263.481 379.688,263.481 C378.849,263.481 376.858,262.538 375.18,261.28 C373.503,260.126 371.722,259.392 371.197,259.707 C369.73,260.65 356.311,256.982 351.489,254.361 C349.078,252.998 345.934,251.95 344.571,251.95 C342.579,251.95 341.111,250.692 338.805,247.023 C337.023,244.193 335.345,240.628 335.031,239.056 C334.716,237.379 333.04,234.338 331.257,232.242 C329.475,230.146 326.435,226.058 324.653,223.122 C322.242,219.348 320.251,217.566 317.734,216.727 C315.742,216.098 313.122,214.317 311.864,212.744 C308.51,208.551 300.857,206.245 289.326,205.93 C283.875,205.825 278.948,205.196 278.319,204.672 C276.957,203.309 243.516,203.414 242.677,204.882 C242.153,205.616 241.105,205.406 239.428,204.358 C237.541,202.995 233.662,202.68 220.664,202.68 C210.495,202.68 203.471,202.261 202.108,201.528 C199.908,200.374 199.908,200.27 202.423,198.907 C203.786,198.173 207.351,197.544 210.285,197.439 C215.736,197.439 217.938,196.076 219.511,191.778 C220.14,189.786 221.502,189.786 260.079,190.415 C283.037,190.73 300.438,191.464 301.172,191.988 C304.002,194.294 350.336,192.722 357.045,190.101 C359.456,189.158 363.754,181.82 363.754,178.779 C363.754,177.731 363.23,176.369 362.601,175.74 C361.762,174.901 361.762,173.958 362.706,172.28 C363.65,170.394 363.65,169.345 362.601,167.458 C361.553,165.466 361.553,164.627 362.496,163.685 C366.06,160.12 362.077,151.838 355.892,150.162 C353.585,149.533 350.546,148.484 349.078,147.96 C346.772,147.016 234.396,145.235 163.952,145.13 L143.824,145.025 L142.461,141.775 C140.994,138.107 141.413,137.582 149.275,131.817 C151.686,130.139 152.21,129.091 151.687,127.099 C150.743,123.535 144.244,116.721 141.728,116.721 C140.574,116.721 136.381,119.342 132.608,122.487 C128.729,125.632 124.955,128.252 124.326,128.252 C123.592,128.252 120.762,130.664 117.932,133.493 C113.634,137.792 112.166,138.736 109.65,138.526 C106.61,138.211 104.409,135.59 107.239,135.59 C107.973,135.59 110.384,134.332 112.481,132.655 C117.093,129.196 117.408,125.946 113.739,120.809 C111.679,118.046 111.305,117.713 108.208,116.493 z M151.354,368.396 C153.497,368.475 157.989,368.228 159.129,370.721 C159.339,371.769 158.919,373.341 158.185,374.18 C157.452,375.123 156.194,375.438 155.251,375.018 C153.049,374.075 150.848,374.075 148.646,375.018 C145.92,376.172 144.139,372.083 146.34,369.882 C147.833,368.756 149.488,368.548 151.354,368.396 z M408.306,369.358 C414.282,369.358 416.063,370.616 414.806,373.97 C414.387,374.914 412.604,375.333 408.621,375.123 C403.484,374.809 403.065,374.599 402.751,372.083 C402.436,369.463 402.541,369.358 408.306,369.358 z M236.19,369.059 L236.912,369.358 C238.065,370.092 238.17,370.826 237.122,372.922 C235.759,375.962 232.719,375.647 232.719,372.502 C232.95,370.469 233.977,368.964 236.19,369.059 z M178.732,368.834 C184.812,368.834 185.022,368.938 184.707,371.455 C184.602,372.817 183.868,374.284 183.24,374.704 C182.506,375.123 181.248,375.123 180.409,374.599 C179.466,374.18 177.159,374.075 175.273,374.284 C171.918,374.809 171.813,374.704 172.128,371.874 C172.442,368.938 172.547,368.834 178.732,368.834 z M330.922,368.349 C332.046,368.677 333.073,369.083 333.878,369.987 C335.136,371.245 335.241,371.979 334.298,373.131 C332.62,375.228 330.419,374.914 329.161,372.502 C328.219,370.486 328.151,368.359 330.922,368.349 z M383.959,368.542 C384.288,368.75 384.704,368.861 384.946,369.165 C385.829,370.281 385.724,371.865 385.349,373.131 C384.406,375.543 382.099,374.284 382.099,371.454 C382.099,370.092 382.728,368.834 383.357,368.624 L383.959,368.542 z M313.227,368.309 C317.105,368.309 317.734,369.043 316.371,371.979 C315.533,373.97 314.485,374.284 309.662,374.284 C304.631,374.284 304.211,374.18 305.155,372.397 C306.518,369.777 309.453,368.309 313.227,368.309 z M254.837,368.309 C259.45,368.309 263.329,370.616 262.49,372.922 C261.861,374.599 252.112,374.494 250.435,372.817 C248.128,370.511 250.225,368.309 254.837,368.309 z M456.734,355.007 C458.196,355.041 457.95,355.214 458.834,356.359 C461.035,359.295 460.51,360.657 456.213,362.858 C451.915,365.165 450.342,365.479 449.399,364.536 C448.35,363.383 451.496,358.246 454.535,356.254 C455.853,355.409 455.126,355.835 456.734,355.007 z M107.335,350.768 C109.431,351.378 108.591,350.908 109.965,351.956 C111.852,353.633 113.634,361.6 112.586,363.278 C111.747,364.536 110.489,364.326 108.916,362.439 C108.182,361.6 106.296,360.132 104.618,359.295 C101.683,357.827 101.683,357.722 103.255,354.577 C104.259,352.871 105.214,351.173 107.335,350.768 z M474.033,349.44 C476.13,349.44 476.235,349.545 475.292,351.956 C474.453,354.052 472.147,354.157 471.413,352.166 C470.679,350.279 471.518,349.44 474.033,349.44 z M88.266,333.716 C90.257,333.821 97.49,340.634 97.49,342.417 C97.49,343.36 96.232,345.038 94.555,346.191 C92.983,347.343 91.515,348.287 91.2,348.392 C90.886,348.392 88.894,346.61 86.798,344.409 L82.919,340.425 L84.911,337.07 C86.064,335.183 87.532,333.716 88.266,333.716 z M69.02,316.406 C72.251,316.428 74.384,319.645 76.524,321.66 L80.194,325.435 L77.258,328.055 C75.686,329.418 73.799,330.571 73.275,330.571 C71.807,330.571 64.993,323.233 64.993,321.66 C64.993,320.927 65.832,319.25 66.88,317.992 C68.065,316.742 67.366,317.29 69.02,316.406 z M53.009,307.15 L53.705,307.204 C54.905,307.503 56.32,308.313 56.607,309.605 C56.607,310.968 52.728,310.968 51.889,309.605 C51.575,309.082 51.575,308.033 51.889,307.509 L52.303,307.173 L53.009,307.15 z M459.517,301.487 C460.657,302.207 460.159,301.831 461.035,302.582 C462.083,303.63 463.761,304.364 464.704,304.364 C466.695,304.364 467.953,306.041 467.01,307.509 C466.695,308.138 463.761,308.558 460.615,308.557 C455.793,308.558 454.955,308.243 454.955,306.67 C454.955,305.517 455.898,303.84 457.051,302.791 C457.78,302.155 458.451,301.35 459.517,301.487 z M366.261,266.998 C367.679,267.714 367.056,267.335 368.157,268.093 C369.415,269.037 371.826,269.771 373.398,269.771 C377.172,269.771 376.334,271.972 371.826,274.173 C367.633,276.165 366.27,276.375 363.65,275.012 C361.133,273.544 361.133,270.61 363.65,268.303 C364.424,267.601 365.113,266.83 366.261,266.998 z M36.69,260.336 C39.1,260.336 39.52,264.215 37.633,269.666 C36.375,273.335 35.432,273.649 33.44,271.238 C32.391,269.981 32.391,269.142 33.335,267.569 C34.069,266.521 34.593,264.425 34.593,262.957 C34.593,261.07 35.117,260.336 36.69,260.336 z" fill="#000000"/>
  </g>
</svg>
