<?xml version="1.0" encoding="UTF-8"?>
<!DOCTYPE svg PUBLIC "-//W3C//DTD SVG 1.1//EN" "http://www.w3.org/Graphics/SVG/1.1/DTD/svg11.dtd">
<svg version="1.1" xmlns="http://www.w3.org/2000/svg" xmlns:xlink="http://www.w3.org/1999/xlink" x="0" y="0" width="500" height="500" viewBox="0, 0, 500, 500">
  <g id="layer101">
    <path d="M346.192,497.593 C335.5,493.471 331.378,489.865 323.907,477.885 C317.467,467.451 313.731,456.76 314.504,450.964 C315.148,445.811 314.375,444.523 311.155,445.296 C308.321,446.069 307.935,445.682 307.935,442.848 C307.935,441.045 306.775,436.279 305.358,432.157 C303.04,425.716 302.782,423.011 303.555,408.713 C304.328,394.93 304.07,392.354 302.396,390.937 C300.85,389.52 299.819,389.52 297.501,390.808 C295.053,391.968 293.765,391.839 290.03,389.907 C287.453,388.619 284.362,386.815 283.203,385.785 C281.27,384.11 280.111,384.497 273.542,388.876 C269.549,391.581 264.138,394.415 261.562,395.317 C257.698,396.605 256.925,397.507 256.41,401.886 C255.379,408.584 254.993,409.1 243.915,417.344 C229.617,427.906 221.631,430.74 203.468,431.513 C183.889,432.415 182.472,432.028 178.479,424.171 C174.614,416.442 174.485,412.191 177.834,405.493 C179.251,402.659 180.411,399.696 180.411,398.924 C180.411,398.022 182.858,394.415 185.95,390.808 C189.041,387.202 193.421,380.503 195.868,375.737 C199.99,367.493 199.99,367.107 198.702,358.734 C197.285,350.104 197.8,342.633 201.021,326.918 C202.824,318.03 203.983,315.325 208.363,310.559 L211.583,307.209 L208.749,303.216 C206.173,299.867 205.915,298.45 206.688,291.237 C207.075,286.728 208.363,279.901 209.522,276.037 C210.553,272.173 212.356,265.861 213.387,262.125 C214.417,258.39 215.705,251.305 216.092,246.41 C216.736,239.326 217.509,236.878 219.827,234.688 C221.502,233.014 222.919,230.566 222.919,229.021 C222.919,223.739 221.244,217.814 219.57,217.17 C218.668,216.912 214.031,219.231 209.265,222.451 C201.021,228.248 183.502,234.817 176.675,234.817 C173.197,234.817 169.333,232.885 164.953,229.021 C162.892,227.346 158.255,225.543 152.716,224.512 C139.964,222.194 138.418,221.421 134.682,215.495 C130.947,209.699 129.401,209.312 123.476,212.919 C114.845,218.2 94.493,214.98 95.008,208.411 C95.137,206.994 95.524,204.675 95.91,203.258 C97.198,199.007 94.88,196.946 89.083,197.204 C81.612,197.719 74.141,195.401 67.314,190.506 C60.487,185.74 58.297,180.716 58.168,169.638 C58.039,163.198 58.039,163.069 48.894,155.469 C30.989,140.527 29.701,139.368 28.413,134.215 C27.253,130.093 27.511,127.646 29.83,120.175 C31.375,115.151 33.952,109.354 35.626,107.293 C37.301,105.361 38.718,102.27 38.718,100.466 C38.718,96.988 40.779,95.7 46.189,95.7 C50.182,95.7 61.002,98.792 65.51,101.11 C67.829,102.27 69.761,102.27 74.399,101.11 C80.195,99.565 80.581,99.565 85.734,103.3 C88.954,105.619 95.395,108.195 101.964,109.87 C108.534,111.544 114.073,113.863 116.005,115.666 C117.808,117.212 121.286,119.659 123.733,120.819 C126.181,122.107 130.561,125.713 133.523,128.676 C136.357,131.768 139.577,134.344 140.737,134.344 C143.313,134.344 144.601,131.124 143.571,127.002 C142.025,120.947 147.564,101.754 152.33,96.216 C155.679,92.48 155.292,90.805 150.526,88.744 C145.245,86.297 141.767,83.592 141.767,81.789 C141.767,81.016 143.442,78.311 145.632,75.992 C149.238,71.87 150.011,71.612 158.126,71.484 C164.18,71.355 168.174,71.87 171.136,73.545 C175.387,75.734 175.516,75.734 177.834,72.772 L180.282,69.938 L198.058,72.643 C207.719,74.06 216.22,75.606 216.864,75.992 C218.41,76.894 221.631,73.802 221.631,71.355 C221.631,68.521 232.451,56.284 235.671,55.382 C236.959,55.125 240.695,56.284 243.786,57.958 C256.023,65.043 265.684,69.938 267.488,69.938 C268.518,69.938 271.738,68.65 274.572,67.104 L279.596,64.141 L287.453,68.392 C293.636,71.612 295.697,72.257 297.114,71.097 C299.433,69.165 299.433,60.792 297.114,51.904 C294.152,40.054 293.765,27.559 296.341,19.315 C299.562,9.139 301.88,6.047 308.965,2.569 C314.246,-0.136 316.05,-0.393 324.165,0.38 C330.09,0.895 334.985,2.312 337.948,4.115 C342.456,6.949 354.951,20.345 360.619,28.332 C362.422,31.166 365.642,33.355 369.893,34.772 C377.235,37.477 378.008,39.925 372.34,43.274 C367.188,46.365 367.446,49.457 373.242,54.481 C387.669,67.233 409.438,67.619 413.56,55.253 C415.235,49.972 419.099,48.942 421.289,53.192 C423.35,56.928 421.804,60.792 415.879,66.975 C413.045,69.809 411.113,72.901 411.499,73.673 C413.174,76.379 422.706,75.219 430.177,71.355 C434.17,69.294 438.936,66.975 440.868,66.202 C443.187,65.301 444.733,63.497 445.506,60.663 C446.021,58.345 447.438,56.413 448.468,56.413 C449.885,56.413 450.272,58.216 450.143,64.141 C449.885,81.789 434.814,97.246 412.272,103.429 C403.642,105.748 370.795,105.361 365.9,102.785 C360.876,100.209 358.171,100.338 358.171,103.3 C358.171,106.521 362.808,109.87 367.317,109.87 C371.696,109.87 375.818,114.764 376.849,121.334 C378.266,129.707 379.554,130.995 392.177,137.564 C399.777,141.557 404.801,145.035 405.316,146.581 C405.832,147.998 410.984,154.052 416.781,160.106 C427.858,171.571 432.109,177.882 436.746,189.604 C439.323,196.045 439.323,196.689 437.262,198.879 C436.102,200.296 434.041,201.326 432.882,201.326 C427.73,201.326 425.797,204.675 425.025,215.109 C424.638,220.648 423.865,226.058 423.35,227.346 C422.577,228.892 423.221,229.665 426.184,230.18 C432.624,231.726 458,258.132 464.312,270.24 C466.116,273.847 468.821,278.742 470.237,281.189 C471.654,283.637 472.556,286.471 472.17,287.63 C471.783,288.661 471.268,293.427 470.882,297.935 C469.98,311.074 469.078,315.711 464.827,330.138 C458.644,351.006 453.106,359.121 446.923,355.772 C444.604,354.612 443.445,354.87 440.224,357.188 C437.39,359.378 435.845,359.765 434.299,358.863 C432.238,357.446 432.109,355.643 433.655,344.05 C434.557,336.707 430.95,324.986 427.858,324.986 C423.479,324.986 422.191,327.175 422.964,332.328 C423.994,338.124 421.418,343.019 417.296,343.019 C409.181,343.019 397.845,330.653 395.527,319.06 C394.625,315.067 394.367,310.043 394.754,307.725 C395.784,302.572 393.594,299.352 387.411,297.291 C381.357,295.23 381.228,296.26 386.381,307.982 C390.503,317.514 392.95,336.707 390.503,340.443 C389.601,341.731 386.252,342.633 381.228,343.019 C376.849,343.406 372.985,344.307 372.727,345.08 C372.469,345.853 374.401,349.589 376.849,353.324 C379.94,357.833 382.388,363.758 383.934,370.585 C385.35,376.124 387.025,381.147 387.798,381.663 C388.442,382.049 389.859,389.778 391.018,398.795 C392.049,407.812 393.594,418.889 394.367,423.527 C396.171,433.832 395.527,435.764 390.374,435.764 C388.313,435.764 386.51,435.893 386.51,436.15 C386.51,436.408 387.798,439.113 389.472,442.333 C391.92,447.228 392.306,449.933 392.306,463.458 C392.306,476.984 391.92,479.817 389.215,485.743 C385.608,493.6 381.228,496.563 369.12,498.753 C358.944,500.685 353.534,500.427 346.192,497.593 z M313.087,353.453 C313.087,350.104 311.799,346.884 310.382,346.884 C309.738,346.884 309.223,348.945 309.223,351.392 C309.223,354.483 309.867,355.9 311.155,355.9 C312.185,355.9 313.087,354.741 313.087,353.453 z M379.425,286.213 C378.91,284.023 379.167,280.674 380.069,278.613 C382.001,274.105 380.069,267.535 375.432,261.868 C372.727,258.776 372.469,257.617 373.629,255.427 C377.107,248.986 369.249,242.546 361.391,245.122 C355.595,247.054 354.951,249.502 359.33,254.525 C363.066,258.776 376.462,282.22 378.008,287.372 C379.425,291.623 380.456,290.85 379.425,286.213 z M347.222,85.782 C346.707,84.494 345.676,81.402 345.032,78.955 C344.259,76.507 342.714,73.029 341.426,71.226 C340.266,69.423 338.721,66.589 338.205,64.785 C336.917,60.277 333.826,57.057 331.636,57.958 C329.06,58.86 324.294,68.392 325.195,70.711 C325.582,71.741 328.158,73.416 331.121,74.575 C333.954,75.734 336.273,77.151 336.273,77.667 C336.273,78.311 338.205,80.887 340.653,83.334 C345.29,88.358 348.768,89.517 347.222,85.782 z" fill="#000000"/>
  </g>
</svg>
