<?xml version="1.0" encoding="UTF-8"?>
<!DOCTYPE svg PUBLIC "-//W3C//DTD SVG 1.1//EN" "http://www.w3.org/Graphics/SVG/1.1/DTD/svg11.dtd">
<svg version="1.1" xmlns="http://www.w3.org/2000/svg" xmlns:xlink="http://www.w3.org/1999/xlink" x="0" y="0" width="500" height="500" viewBox="0, 0, 500, 500">
  <g id="layer101">
    <path d="M431.653,499.694 C421.562,498.879 410.554,498.216 405.764,498.165 C401.279,498.165 398.578,497.707 386.347,494.955 C371.211,491.591 370.701,491.387 369.937,488.279 C369.631,487.106 370.854,480.379 371.823,477.984 C372.077,477.322 372.281,476.048 372.281,475.079 C372.281,473.448 372.128,473.296 370.141,472.786 C364.076,471.308 363.872,470.544 366.166,460.147 C366.93,456.937 366.777,447.254 365.962,444.145 C363.465,434.717 360.662,429.672 354.241,423.148 C348.431,417.288 345.067,412.14 343.284,406.534 C342.621,404.445 341.5,401.132 340.837,399.145 C340.175,397.208 338.646,392.826 337.525,389.462 L335.435,383.346 L336.811,380.187 C338.085,377.435 338.238,376.517 338.034,373.205 C337.831,369.077 336.76,367.14 334.875,367.395 C333.957,367.548 333.754,368.007 333.55,371.013 C333.244,375.498 332.53,376.11 327.995,375.855 C323.867,375.651 323.357,376.263 324.376,380.136 C325.192,383.245 325.243,388.596 324.478,390.583 C324.224,391.399 323.663,393.029 323.306,394.303 C321.675,400.011 317.547,409.083 312.298,418.511 C309.954,422.741 308.374,423.658 306.132,422.027 C304.297,420.6 302.717,418.256 301.392,414.79 C297.162,403.63 295.735,399.4 293.901,392.01 C293.595,390.889 293.136,389.003 292.831,387.882 C292.015,384.875 292.117,383.041 293.238,380.493 C294.003,378.709 294.257,376.721 294.41,370.708 L294.563,363.216 L292.932,362.197 C290.945,360.974 290.537,360.26 289.773,356.081 C288.346,348.335 288.04,347.01 286.664,343.596 C285.9,341.659 284.931,339.009 284.575,337.735 C283.148,332.69 281.211,330.09 278.867,330.09 C277.083,330.09 266.279,336.104 260.928,340.028 C258.991,341.506 255.985,344.156 254.303,345.991 C249.614,351.036 240.798,362.095 240.798,363.012 C240.798,363.42 241.154,364.49 241.613,365.357 C242.989,368.007 244.314,372.542 244.365,374.53 C244.365,377.282 243.091,377.995 237.893,377.995 C233.102,377.995 231.421,378.556 230.605,380.544 C230.146,381.665 230.197,382.276 230.86,383.703 L231.726,385.487 L224.744,399.145 C220.922,406.687 217.304,413.567 216.743,414.434 C216.183,415.249 213.023,418.613 209.761,421.823 C203.187,428.296 200.129,432.933 198.397,439.049 C197.428,442.514 197.377,446.948 198.295,457.905 C198.652,462.39 197.938,463.817 195.033,464.632 C191.415,465.6 191.16,466.263 191.619,473.397 C191.823,476.863 191.975,480.379 191.975,481.297 C191.924,483.335 190.141,486.852 188.816,487.565 C187.134,488.482 178.317,490.572 170.673,491.897 C166.698,492.559 161.194,493.681 158.442,494.394 C155.639,495.057 151.358,495.77 148.81,495.974 C146.313,496.127 142.185,496.535 139.739,496.789 C134.642,497.401 129.801,496.84 126.692,495.26 C125.673,494.751 123.584,494.037 122.055,493.681 C116.856,492.509 114.461,491.183 113.289,488.941 C112.015,486.342 112.321,483.845 114.104,482.418 C114.869,481.857 115.429,481.042 115.429,480.634 C115.429,480.227 115.888,479.258 116.449,478.494 C117.009,477.729 118.283,475.079 119.252,472.531 C120.271,470.034 121.902,466.365 122.921,464.377 C124.501,461.166 124.654,460.504 124.399,458.007 C124.246,456.478 123.533,453.267 122.819,450.872 C122.055,448.477 121.392,445.164 121.29,443.482 C121.035,440.17 120.475,437.367 118.131,428.448 C117.264,425.238 116.194,420.651 115.684,418.256 C115.226,415.861 114.359,412.191 113.799,410.102 C111.098,399.604 108.346,383.856 107.275,372.644 C106.052,359.649 104.625,343.494 104.218,338.499 C103.708,332.078 102.944,323.567 102.179,315.821 C101.924,312.865 101.415,306.801 101.16,302.316 C100.854,297.831 100.395,290.594 100.09,286.263 C99.478,276.784 98.408,257.673 97.134,233.414 C96.879,228.318 96.522,223.884 96.318,223.629 C95.656,222.508 96.675,221.081 99.02,219.705 C102.23,217.871 104.116,216.087 105.339,213.743 C106.715,210.991 106.052,210.328 101.721,210.328 C98.714,210.328 98.102,210.124 95.86,208.545 C93.414,206.812 93.363,206.812 89.439,207.118 C87.196,207.27 85.158,207.219 84.597,206.914 C84.138,206.608 83.119,205.283 82.355,203.958 C80.826,201.155 77.666,199.167 74.659,199.116 C73.691,199.116 71.856,198.658 70.633,198.097 C68.136,196.925 66.047,196.874 63.499,197.791 C62.123,198.301 61.715,198.709 61.664,199.83 C61.613,201.766 60.696,202.174 56.568,202.174 C53.918,202.174 52.593,201.919 51.369,201.155 C48.566,199.473 48.057,197.791 47.853,189.23 C47.598,178.782 47.14,171.036 46.783,170.373 C46.579,170.119 46.273,167.774 46.069,165.277 C45.814,162.729 45.509,159.366 45.305,157.837 C44.999,155.238 45.101,154.83 46.324,153.403 C48.617,150.702 55.294,149.224 55.294,151.415 C55.294,151.874 56.364,152.18 58.81,152.435 C61.868,152.74 62.632,152.638 65.027,151.517 C66.556,150.855 68.391,150.039 69.155,149.734 C70.99,149.02 74.557,144.484 74.965,142.293 C75.169,141.223 74.965,139.643 74.455,138.165 C73.334,134.751 73.385,127.718 74.608,124.048 C75.526,121.245 78.074,117.423 81.896,113.142 C83.578,111.257 83.833,110.645 83.833,108.454 C83.833,105.141 86.075,101.829 90.305,98.72 C92.038,97.446 93.617,95.917 93.77,95.356 C94.127,94.235 92.904,91.279 91.681,90.311 C91.018,89.751 91.579,84.247 93.21,74.869 C94.025,70.487 94.178,70.028 96.064,68.346 C98.459,66.155 98.867,65.085 98.102,62.842 C97.593,61.313 97.694,60.753 98.816,58.51 C100.497,55.249 100.497,54.23 98.612,50.815 C96.777,47.401 96.726,46.076 98.306,42.61 C99.427,40.164 99.529,39.501 99.172,36.24 C98.714,32.265 98.153,30.889 96.471,29.717 C93.77,27.831 86.534,29.615 83.017,33.029 C80.877,35.068 79.45,34.864 77.564,32.163 C75.577,29.309 75.271,26.251 76.545,22.735 C77.106,21.206 77.717,19.116 77.921,18.046 C78.38,15.549 80.418,13.307 84.954,10.3 C86.992,8.975 89.235,7.446 89.948,6.936 C92.802,4.796 97.644,2.35 99.07,2.299 C100.956,2.248 102.689,3.318 104.778,5.917 C107.072,8.822 109.671,9.739 113.34,9.026 C115.939,8.465 116.5,8.108 120.016,4.439 C122.106,2.299 124.399,0.362 125.061,0.107 C126.539,-0.351 128.986,0.566 137.445,4.745 C145.65,8.822 147.587,10.555 150.441,16.415 C152.428,20.492 152.632,21.257 152.377,23.295 C152.174,24.518 151.46,26.659 150.798,27.984 C149.269,31.042 148.148,31.143 144.478,28.646 C142.032,27.015 141.522,26.863 138.057,26.863 C131.33,26.863 128.68,29.309 128.68,35.526 C128.68,38.686 128.527,38.941 125.622,41.285 C124.705,42.049 124.552,42.508 124.858,43.833 C125.061,44.75 125.367,46.381 125.571,47.502 C126.132,50.713 126.896,51.681 129.699,52.599 C131.228,53.108 133.215,54.331 134.49,55.555 C135.713,56.727 137.7,58.408 138.923,59.224 C140.248,60.192 141.828,61.925 142.898,63.811 C146.415,69.926 148.708,73.239 149.422,73.239 C149.778,73.239 150.95,72.372 152.021,71.251 C153.753,69.467 154.212,69.264 157.423,69.009 C159.563,68.805 161.5,68.295 162.519,67.684 C165.577,65.747 168.685,64.167 170.877,63.505 C172.151,63.148 173.476,62.333 173.935,61.619 C175.922,58.765 176.483,58.459 179.541,58.459 C181.171,58.459 183.872,58.867 185.554,59.428 C187.185,59.937 189.58,60.651 190.854,61.008 C192.128,61.364 195.441,62.384 198.244,63.301 C202.932,64.881 203.595,64.983 206.907,64.575 C208.895,64.32 211.29,63.861 212.259,63.556 C215.061,62.587 218.374,61.925 221.687,61.67 C224.235,61.466 225.458,61.721 229.076,63.046 C235.141,65.288 236.415,66.206 238.351,69.722 C240.288,73.188 241.256,73.493 242.887,71.098 C244.875,68.142 247.066,66.104 248.238,66.104 C249.818,66.104 252.162,68.958 251.704,70.385 C251.143,72.016 251.347,73.952 252.264,76.093 C253.895,80.068 255.679,80.679 260.316,78.946 C263.782,77.621 264.648,76.704 265.056,73.952 C265.565,70.487 265.056,69.977 261.081,69.773 C258.533,69.671 257.513,69.365 256.851,68.652 C255.628,67.276 256.29,65.849 259.399,63.25 C260.724,62.18 262.763,60.447 263.884,59.428 C265.056,58.408 266.483,57.338 267.043,57.083 C268.114,56.574 272.751,55.504 274.943,55.3 C276.166,55.147 276.217,54.994 276.37,51.579 C276.421,49.643 276.573,47.553 276.726,46.942 C277.032,45.566 279.02,44.7 281.924,44.7 C283.199,44.7 285.798,44.343 287.734,43.833 C290.996,43.069 291.505,43.069 294.818,43.884 C297.162,44.445 299.252,44.598 301.035,44.394 C303.278,44.139 303.94,44.241 305.011,45.107 C306.234,46.076 306.285,46.432 306.285,51.019 C306.285,56.319 306.692,57.185 308.935,56.625 C310.82,56.115 315.254,57.95 317.7,60.243 C319.025,61.415 320.758,62.842 321.624,63.454 C323.561,64.779 325.09,67.735 324.58,69.315 C324.427,69.926 322.898,71.71 321.268,73.239 C317.802,76.5 317.547,77.672 319.841,79.558 C321.064,80.577 321.93,80.883 323.867,80.883 C328.25,80.883 328.606,80.475 329.982,73.799 C330.645,70.64 331.205,69.213 332.021,68.55 C333.55,67.276 334.416,67.378 336.047,69.06 C337.831,70.843 344.558,83.125 345.016,85.47 C345.22,86.438 345.934,87.916 346.596,88.68 C347.412,89.649 347.819,90.77 347.819,92.146 C347.819,93.216 348.023,95.102 348.329,96.274 C348.584,97.497 349.042,101.115 349.399,104.326 C349.705,107.537 350.062,110.543 350.164,111.002 C350.316,111.461 351.336,112.225 352.457,112.786 C353.629,113.295 355.362,114.366 356.33,115.13 C357.706,116.2 358.318,116.404 359.031,116.047 C360.407,115.334 360.713,113.703 359.795,112.327 C359.133,111.308 359.082,110.543 359.541,107.587 C359.795,105.651 360.05,102.338 360.05,100.249 C360.05,98.159 360.305,95.407 360.611,94.133 C360.917,92.859 361.171,90.872 361.12,89.649 C360.968,85.775 362.089,81.24 363.465,80.068 C364.637,79.099 364.688,78.845 364.178,77.01 C363.872,75.94 363.618,74.869 363.618,74.666 C363.618,73.748 365.401,72.729 367.032,72.729 C368.459,72.729 369.224,73.137 370.6,74.615 C371.976,76.042 372.944,76.551 374.829,76.857 C376.205,77.061 378.193,77.825 379.263,78.539 C380.333,79.252 381.557,79.864 382.066,79.864 C382.525,79.864 383.595,80.475 384.461,81.189 C386.245,82.667 386.449,84.043 385.277,86.846 C384.461,88.731 384.767,91.534 386.092,95 C386.602,96.376 392.31,99.586 399.19,102.338 C403.776,104.122 404.643,104.326 406.019,103.867 C406.885,103.561 408.006,103.307 408.516,103.307 C409.892,103.307 411.624,105.192 411.523,106.517 C411.319,108.505 411.472,108.709 414.224,110.594 C416.007,111.817 417.536,112.48 418.606,112.48 C422.632,112.48 424.569,114.875 429.767,126.24 C433.284,133.935 435.373,139.898 436.698,145.708 C436.851,146.472 437.666,147.542 438.482,148.103 C439.96,149.173 441.591,152.384 441.591,154.269 C441.591,154.779 441.081,155.594 440.469,156.002 L439.399,156.766 L440.775,157.378 C442.406,158.142 442.865,159.62 442.355,163.086 C441.641,168.386 442.253,172.871 444.088,175.877 C444.648,176.744 445.362,178.833 445.668,180.515 C446.024,182.197 446.483,184.49 446.738,185.611 C447.808,190.096 447.859,192.542 446.942,195.6 C445.922,198.913 446.075,200.543 448.012,207.933 C448.878,211.347 448.878,211.398 447.808,213.692 C446.534,216.291 446.636,216.597 449.592,220.47 C451.579,223.069 451.579,223.273 450.254,224.598 C448.827,226.025 446.942,225.872 442.814,223.884 C439.756,222.406 438.889,221.744 437.208,219.196 C433.589,213.794 430.888,210.328 430.226,210.328 C429.563,210.328 425.792,215.119 425.792,215.934 C425.792,216.444 426.608,218.584 430.786,229.439 C433.589,236.676 434.099,238.205 435.016,242.486 C435.526,245.034 435.475,245.645 434.507,248.397 C433.131,252.22 433.182,253.646 434.507,255.43 L435.628,256.806 L433.895,260.119 C431.857,264.043 429.41,266.693 425.537,269.292 C423.244,270.77 422.072,271.229 419.677,271.382 C415.294,271.687 413.255,271.178 410.911,269.037 C407.955,266.387 404.897,261.495 404.897,259.507 C404.897,258.59 405.356,256.551 405.917,254.921 C406.477,253.29 406.936,251.302 406.936,250.487 C406.936,249.671 407.191,248.55 407.497,247.939 C408.363,246.359 407.649,244.371 406.273,244.575 C405.101,244.728 405.101,244.932 405.713,248.397 C406.019,249.824 405.866,250.13 404.337,251.098 C402.859,252.016 401.942,252.118 397.508,252.016 L392.412,251.863 L391.239,249.722 C389.965,247.378 388.844,247.021 386.908,248.244 C386.296,248.652 383.646,249.111 380.894,249.315 L376.002,249.671 L374.167,248.041 L372.281,246.41 L369.631,247.735 C367.644,248.754 366.217,249.06 363.822,249.06 C359.337,249.06 358.929,250.181 362.547,252.729 C364.535,254.105 366.166,256.653 372.485,268.579 C375.084,273.42 375.39,274.286 375.084,276.07 C374.778,277.956 374.829,278.058 376.715,279.077 C378.091,279.739 379.008,280.708 379.671,282.186 C380.792,284.683 382.168,285.753 384.258,285.753 C386.653,285.804 389.965,287.537 391.137,289.422 C392.31,291.257 392.259,293.448 391.087,297.271 C390.22,300.124 390.781,301.755 393.686,304.813 C395.062,306.24 397.763,309.603 399.75,312.254 C402.961,316.636 405.05,320.051 411.523,331.619 C412.695,333.709 414.02,336.053 414.478,336.818 C415.294,338.194 415.294,338.346 414.173,340.385 C413.561,341.608 413.051,343.443 413.051,344.462 C413.051,347.01 412.644,347.826 410.962,348.743 C409.127,349.66 409.127,350.119 410.809,354.247 C412.491,358.273 412.236,359.7 409.484,361.483 C408.312,362.299 407.293,363.42 407.089,364.185 C406.936,364.898 406.121,367.089 405.356,368.975 C404.541,370.861 404.031,372.746 404.235,373.154 C404.745,374.581 407.191,373.918 411.472,371.115 C417.842,366.936 418.504,367.191 422.174,374.632 C424.824,380.034 424.722,380.544 420.186,383.601 C417.587,385.334 416.874,386.2 415.651,388.901 C414.886,390.634 413.561,392.571 412.746,393.233 C411.421,394.252 411.217,394.813 410.809,398.533 C410.299,403.732 410.249,408.879 410.707,410.866 C411.472,414.026 419.167,428.805 421.46,431.404 C422.683,432.882 424.008,435.023 424.314,436.093 C424.824,437.826 425.282,438.233 427.219,438.998 C428.952,439.66 430.277,440.781 432.672,443.737 C434.456,445.827 436.443,447.916 437.157,448.273 C437.819,448.63 438.889,449.802 439.45,450.821 C440.367,452.401 440.469,453.063 440.062,454.49 C439.246,457.293 439.45,459.23 440.826,461.065 C441.54,462.033 442.1,463.103 442.1,463.46 C442.1,464.785 444.75,470.544 446.228,472.429 C447.094,473.448 448.165,475.538 448.674,477.016 C449.948,480.736 451.579,483.182 452.904,483.488 C454.28,483.845 454.688,485.323 454.79,489.909 L454.841,492.967 L452.446,494.139 C445.464,497.605 439.603,499.898 437.768,500 C436.647,500 433.895,499.898 431.653,499.694 z M170.214,337.531 C170.673,336.868 172.457,332.995 174.24,329.02 C177.859,320.662 179.642,317.554 181.171,317.095 C182.242,316.738 182.343,316.432 182.191,314.19 C182.089,312.61 184.433,308.38 185.809,307.667 C186.319,307.361 187.134,306.495 187.593,305.628 C188.102,304.813 189.376,303.794 190.396,303.386 C192.23,302.673 192.281,302.571 192.485,299.564 C192.638,297.271 193.097,295.895 194.371,293.805 C195.288,292.327 196.052,290.645 196.052,290.085 C196.052,287.741 195.186,284.887 193.759,282.593 C192.485,280.504 192.281,279.841 192.485,277.599 C192.893,273.726 196.001,270.974 199.977,270.974 C202.321,270.974 204.054,269.139 204.869,265.725 C205.837,261.597 208.793,256.5 210.73,255.685 C211.698,255.277 212.411,254.513 212.615,253.697 C213.074,251.914 213.074,248.601 212.564,246.97 C212.106,245.391 213.125,244.116 215.214,243.658 C217.559,243.148 222.91,240.804 223.623,239.988 C223.98,239.479 224.235,237.593 224.235,234.943 L224.235,230.611 L226.171,229.949 C228.414,229.184 233.306,224.394 233.051,223.12 C232.949,222.661 232.338,222.05 231.624,221.693 C230.911,221.387 229.688,220.419 228.872,219.552 L227.445,218.075 L228.312,215.73 L229.229,213.386 L227.394,210.685 C226.375,209.258 225.05,207.423 224.439,206.659 C223.776,205.894 223.317,204.62 223.368,203.754 C223.368,202.633 223.063,202.021 222.349,201.614 C221.534,201.155 221.381,200.696 221.585,199.422 C221.738,198.505 221.585,195.753 221.228,193.256 L220.667,188.72 L218.884,188.261 C217.915,188.058 215.214,187.752 212.921,187.599 C210.628,187.497 208.182,187.191 207.417,186.885 C205.124,186.019 202.83,186.325 199.671,187.956 C196.919,189.383 196.256,189.484 193.963,189.179 C192.077,188.924 190.752,188.363 189.274,187.089 C188.102,186.121 186.93,185.357 186.624,185.357 C185.299,185.357 182.191,186.478 181.477,187.14 C181.069,187.599 179.693,188.363 178.368,188.924 C175.464,190.198 172.508,192.491 172.508,193.561 C172.508,194.02 172.966,194.785 173.527,195.294 C175.056,196.67 174.75,197.537 171.845,200.696 C167.615,205.283 161.143,209.36 156.913,210.022 C154.518,210.43 151.613,212.061 151.613,212.978 C151.613,213.641 155.639,216.444 156.556,216.444 C158.085,216.444 158.646,218.38 158.952,225.107 C159.155,228.879 159.512,234.383 159.767,237.338 C160.073,240.294 160.48,245.696 160.735,249.315 C160.99,252.984 161.449,258.794 161.755,262.31 C162.111,265.827 162.57,271.891 162.825,275.815 C163.131,279.739 163.589,285.498 163.844,288.556 C164.15,291.665 164.608,297.627 164.863,301.806 C165.169,306.036 165.628,312.101 165.883,315.311 C166.137,318.522 166.596,324.281 166.851,328.052 C167.615,338.601 168.278,340.487 170.214,337.531 z" fill="#000000"/>
  </g>
</svg>
