<?xml version="1.0" encoding="UTF-8"?>
<!DOCTYPE svg PUBLIC "-//W3C//DTD SVG 1.1//EN" "http://www.w3.org/Graphics/SVG/1.1/DTD/svg11.dtd">
<svg version="1.1" xmlns="http://www.w3.org/2000/svg" xmlns:xlink="http://www.w3.org/1999/xlink" x="0" y="0" width="500" height="500" viewBox="0, 0, 500, 500">
  <g id="layer102">
    <path d="M346.382,-0 L348.655,4.011 C349.857,6.15 351.595,8.021 352.398,8.021 C353.066,8.021 354.537,10.161 355.606,12.701 C356.676,15.374 358.547,18.449 359.885,19.653 C361.221,20.855 362.291,23.128 362.291,24.866 C362.291,26.604 362.959,28.342 363.628,28.743 C364.43,29.145 364.965,32.754 364.965,36.765 C364.965,40.775 365.499,44.386 366.301,44.786 C366.97,45.187 367.639,48.262 367.639,51.604 C367.639,54.813 368.307,57.487 368.975,57.487 C369.777,57.487 370.312,60.561 370.312,64.171 C370.312,67.915 370.847,70.855 371.65,70.855 C372.317,70.855 373.119,78.075 373.253,87.968 L373.655,104.947 L376.997,105.347 C378.868,105.615 381.007,106.417 381.943,107.219 C383.28,108.289 383.682,105.214 383.949,93.984 L384.349,79.545 L398.922,79.145 C411.087,78.877 413.896,79.145 415.901,81.016 C417.371,82.219 418.441,84.492 418.441,85.829 C418.441,87.166 422.585,92.513 427.799,97.593 C432.88,102.674 437.158,107.754 437.158,108.957 C437.158,110.027 438.093,110.963 439.163,110.963 C442.639,110.963 453.2,122.46 453.2,126.337 C453.2,128.209 453.868,129.679 454.537,129.679 C455.339,129.679 455.874,130.883 455.874,132.219 C455.874,133.69 455.339,135.294 454.537,135.695 C453.735,136.23 453.2,143.048 453.2,151.871 C453.2,161.096 453.735,167.112 454.537,167.112 C455.339,167.112 455.874,168.315 455.874,169.786 C455.874,171.257 456.542,172.46 457.211,172.46 C458.013,172.46 458.547,174.331 458.547,176.471 C458.547,178.743 459.216,180.481 459.885,180.481 C460.687,180.481 461.221,181.685 461.221,183.155 C461.221,184.625 461.89,185.829 462.558,185.829 C463.36,185.829 463.896,187.032 463.896,188.503 C463.896,190.241 464.831,191.177 466.569,191.177 C470.847,191.177 469.912,195.989 465.232,198.129 C461.355,199.866 461.221,200 461.221,209.492 L461.221,219.251 L467.237,221.925 C470.713,223.529 473.788,225.802 474.189,227.005 C474.59,228.209 475.928,230.347 476.997,231.551 C479.804,234.893 485.285,246.123 485.285,248.663 C485.285,251.203 487.825,253.609 492.505,256.016 C493.975,256.818 495.579,258.957 495.713,260.695 C495.981,262.567 496.783,264.572 497.451,265.241 C499.055,266.979 499.055,272.326 497.317,273.396 C496.65,273.797 495.981,275.802 495.981,277.674 C495.981,279.679 495.045,281.283 493.574,281.551 C491.436,282.219 487.959,287.701 487.959,290.775 C487.959,292.781 479.404,309.626 476.997,312.567 C475.928,313.77 474.055,316.979 472.852,319.653 C471.65,322.326 469.777,325.267 468.708,326.069 C467.103,327.407 466.97,328.342 468.307,330.347 C469.51,332.219 469.51,333.155 468.174,334.492 C467.371,335.294 466.569,337.299 466.569,338.904 C466.569,340.508 465.901,342.38 464.965,343.315 C463.761,344.519 463.896,345.588 465.232,348.262 C466.569,350.936 466.703,352.005 465.499,353.209 C464.563,354.145 463.896,356.685 463.896,358.957 C463.896,361.497 462.825,364.171 461.221,365.642 C458.949,367.647 458.547,369.786 458.547,378.609 C458.547,388.77 458.414,389.305 453.868,393.717 C451.328,396.257 448.119,398.396 446.65,398.396 C445.179,398.396 443.574,399.064 443.174,399.733 C442.772,400.535 441.168,401.069 439.697,401.069 C438.36,401.069 437.158,400.535 437.158,399.733 C437.158,399.064 435.687,398.396 433.815,398.396 C431.943,398.396 428.601,396.658 426.061,394.251 C422.05,390.375 421.783,389.572 421.248,378.609 C420.847,369.386 420.312,366.577 418.307,364.839 C416.836,363.637 415.767,361.23 415.767,359.626 C415.767,358.021 414.43,355.481 412.825,354.011 C410.285,351.871 410.152,351.069 411.489,348.931 C413.36,345.722 413.628,336.899 411.756,336.899 C411.087,336.899 410.42,334.759 410.42,332.219 C410.42,328.476 409.751,327.14 407.478,326.337 C402.666,324.465 390.634,311.23 386.89,304.145 C384.617,299.465 383.682,295.455 383.682,289.973 C383.682,285.695 383.147,281.818 382.344,281.417 C381.676,281.016 381.007,278.609 381.007,276.069 C381.007,273.529 381.676,271.124 382.344,270.722 C383.147,270.321 383.682,266.577 383.682,262.567 C383.682,258.556 384.349,255.347 385.018,255.347 C385.82,255.347 386.355,253.609 386.355,251.337 C386.355,249.198 387.023,247.326 387.692,247.326 C388.494,247.326 389.029,246.123 389.029,244.653 C389.029,243.182 389.697,241.979 390.365,241.979 C391.168,241.979 391.703,240.775 391.703,239.305 C391.703,237.834 392.371,236.632 393.039,236.631 C393.841,236.632 394.377,235.428 394.377,234.091 C394.377,232.219 393.307,231.283 390.767,231.016 C387.158,230.615 387.023,230.347 386.622,221.658 C386.221,212.701 384.885,210.695 381.676,213.77 C380.874,214.439 378.868,215.241 376.997,215.508 C373.788,215.909 373.655,216.31 373.253,226.337 C372.986,234.225 372.451,236.632 370.981,236.631 C369.912,236.632 368.975,237.299 368.975,237.968 C368.975,238.77 369.912,239.305 370.981,239.305 C372.451,239.305 372.986,240.909 372.986,245.855 C372.986,249.599 372.317,252.674 371.382,252.941 C370.579,253.209 369.777,254.679 369.777,256.15 C369.644,257.62 369.109,259.492 368.441,260.428 C367.906,261.363 367.906,263.235 368.307,264.839 C369.377,268.315 366.836,271.391 362.825,271.391 C361.221,271.391 359.349,272.059 358.949,272.727 C358.547,273.529 355.205,274.064 351.595,274.064 C347.986,274.064 344.644,273.529 344.243,272.727 C343.841,272.059 341.97,271.391 340.232,271.391 C338.494,271.391 336.622,272.059 336.221,272.727 C335.82,273.529 332.077,274.064 328.066,274.064 C324.055,274.064 320.847,273.529 320.847,272.727 C320.847,272.059 319.109,271.391 316.97,271.391 C314.296,271.391 312.959,272.193 312.425,274.064 C311.89,276.337 310.42,276.738 298.655,277.005 C286.756,277.407 285.42,277.674 284.082,280.214 C283.28,281.818 281.809,284.091 280.874,285.294 C278.601,287.968 272.719,299.465 272.719,301.069 C272.719,302.674 285.82,302.407 286.756,300.802 C287.158,300.134 289.563,299.465 291.97,299.465 C294.644,299.465 297.317,298.396 298.788,296.791 C300.126,295.321 301.997,294.117 302.799,294.117 C303.735,294.117 304.804,292.915 305.205,291.444 C305.606,289.973 306.809,288.77 308.013,288.77 C309.216,288.77 310.152,287.968 310.152,286.899 C310.152,284.225 311.89,283.289 319.912,282.085 C323.788,281.417 329.537,280.214 332.88,279.412 C349.457,275.267 361.087,275.535 366.034,280.347 C366.97,281.283 368.975,282.085 370.446,282.085 C372.184,282.085 372.986,283.021 372.986,285.294 C372.986,287.166 373.655,289.037 374.323,289.439 C374.991,289.839 375.66,291.31 375.66,292.647 C375.66,296.124 378.735,302.139 380.606,302.139 C383.013,302.139 386.355,310.027 386.355,315.775 C386.355,318.583 387.023,320.855 387.692,320.855 C388.494,320.855 389.029,322.593 389.029,324.733 C389.029,327.005 388.494,329.145 387.692,329.545 C387.023,329.947 386.355,331.551 386.355,333.021 C386.355,334.358 385.553,336.899 384.751,338.369 C383.414,340.642 383.414,341.444 384.751,341.845 C385.553,342.246 386.355,344.251 386.355,346.391 C386.355,349.331 387.023,350.267 388.896,350.267 C390.365,350.267 391.97,349.599 392.371,348.931 C393.441,347.193 397.05,350.669 397.05,353.476 C397.05,354.679 397.719,355.615 398.388,355.615 C399.189,355.615 399.724,356.818 399.724,358.289 C399.724,359.759 400.393,360.963 401.061,360.963 C401.863,360.963 402.398,362.166 402.398,363.637 C402.398,365.642 403.333,366.31 405.74,366.31 C410.152,366.31 415.767,371.925 415.767,376.337 C415.767,378.209 416.436,379.679 417.103,379.679 C417.906,379.679 418.441,381.685 418.441,384.091 C418.441,388.637 421.114,395.722 422.852,395.722 C423.388,395.722 423.788,397.593 423.788,399.733 C423.788,402.005 424.457,403.743 425.126,403.743 C425.928,403.743 426.462,405.214 426.462,406.952 C426.462,408.823 426.997,410.695 427.799,411.096 C430.874,412.968 429.002,418.717 423.388,424.198 C420.312,427.407 416.703,430.347 415.365,430.883 C412.825,431.818 412.425,433.957 414.43,435.161 C415.232,435.561 415.767,437.433 415.767,439.171 C415.767,440.909 416.436,442.781 417.103,443.182 C419.243,444.519 418.574,448.529 415.901,450.535 C412.291,452.941 413.628,454.545 419.243,454.545 C422.852,454.545 423.788,454.011 423.788,451.871 C423.788,448.262 426.195,448.529 435.152,453.209 C439.296,455.481 443.574,457.219 444.377,457.219 C446.917,457.219 454.002,460.963 455.874,463.235 C456.809,464.305 458.682,465.241 460.018,465.241 C461.355,465.241 464.563,466.444 467.237,467.915 C469.912,469.386 473.12,470.588 474.59,470.588 C476.863,470.588 477.264,471.524 477.264,477.674 C477.264,481.551 477.933,485.428 478.735,486.23 C479.671,487.166 479.938,488.77 479.537,489.839 C478.868,491.577 476.195,491.979 464.697,491.979 C456.809,491.979 450.259,492.513 449.857,493.315 C449.323,494.117 440.767,494.653 428.467,494.653 C416.168,494.653 407.611,495.187 407.077,495.989 C406.676,496.791 402.933,497.326 398.922,497.326 C394.912,497.326 391.703,497.995 391.703,498.663 C391.703,499.465 385.687,500 376.462,500 C367.639,500 360.82,499.465 360.285,498.663 C359.885,497.995 358.013,497.326 356.275,497.326 C354.537,497.326 352.666,496.791 352.264,495.989 C351.863,495.187 345.847,494.653 338.896,494.653 C331.944,494.653 325.928,494.117 325.526,493.315 C324.991,492.513 315.098,491.979 299.991,491.979 L275.393,491.979 L275.393,481.685 C275.393,471.658 275.526,471.124 279.002,469.653 C281.007,468.717 283.682,467.915 284.885,467.915 C286.221,467.915 287.692,467.38 288.093,466.577 C288.494,465.909 290.365,465.241 291.97,465.241 C293.708,465.241 295.847,464.305 296.783,463.235 C298.788,460.829 311.355,454.545 314.296,454.545 C315.634,454.545 317.103,454.011 317.505,453.209 C317.906,452.54 319.777,451.871 321.65,451.871 C323.388,451.871 324.857,451.337 324.857,450.535 C324.857,449.866 322.852,449.198 320.446,449.198 C313.896,449.198 312.825,447.326 312.825,435.161 C312.825,429.145 312.291,423.797 311.489,422.995 C310.82,422.326 310.018,414.171 309.885,405.08 L309.483,388.368 L297.451,387.968 C288.36,387.701 283.949,386.899 279.404,384.759 C272.184,381.283 266.168,376.069 264.697,372.059 C263.896,370.321 262.158,368.984 259.751,368.717 C257.611,368.449 255.473,367.112 254.671,365.508 C251.595,359.225 249.857,358.289 241.97,358.289 C234.082,358.289 232.344,359.225 229.269,365.508 C228.467,367.112 226.328,368.449 224.189,368.717 C221.783,368.984 220.045,370.321 219.243,372.059 C217.772,376.069 211.756,381.283 204.537,384.759 C199.857,387.032 195.713,387.701 185.152,387.968 L171.783,388.368 L171.382,405.08 C171.248,414.171 170.446,422.326 169.777,422.995 C168.975,423.797 168.441,429.011 168.441,434.893 C168.441,446.658 167.103,449.198 160.553,449.198 C158.28,449.198 156.409,449.866 156.409,450.535 C156.409,451.337 157.88,451.871 159.617,451.871 C161.489,451.871 163.36,452.54 163.761,453.209 C164.163,454.011 165.634,454.545 166.97,454.545 C169.912,454.545 182.478,460.829 184.483,463.235 C185.42,464.305 187.558,465.241 189.296,465.241 C190.901,465.241 192.772,465.909 193.174,466.577 C193.574,467.38 195.045,467.915 196.382,467.915 C197.585,467.915 200.259,468.717 202.264,469.653 C205.873,471.257 205.873,471.524 205.606,481.283 L205.205,491.31 L183.147,491.711 C171.114,491.845 160.553,492.647 159.885,493.315 C159.082,494.117 151.729,494.653 143.441,494.653 C134.216,494.653 128.333,495.187 128.333,495.989 C128.333,496.791 126.863,497.326 125.125,497.326 C123.253,497.326 121.382,497.995 120.981,498.663 C120.446,499.465 113.628,500 104.938,500 C96.248,500 89.43,499.465 88.896,498.663 C88.494,497.995 84.751,497.326 80.74,497.326 C76.729,497.326 73.521,496.791 73.521,495.989 C73.521,495.187 64.831,494.653 50.259,494.653 C36.087,494.653 26.595,494.117 26.061,493.315 C25.66,492.647 20.179,491.979 14.029,491.979 C3.735,491.979 -0.677,490.642 2.666,488.637 C3.333,488.235 4.002,483.957 4.002,479.145 C4.002,470.989 4.136,470.588 7.211,470.588 C9.082,470.588 10.954,470.053 11.355,469.251 C11.756,468.583 13.227,467.915 14.563,467.915 C17.237,467.915 24.991,464.305 26.061,462.567 C26.997,460.963 34.751,457.219 36.89,457.219 C37.825,457.219 40.767,456.016 43.441,454.545 C48.521,451.738 55.473,450.936 56.809,453.209 C57.88,454.813 66.836,454.947 66.836,453.342 C66.836,452.674 65.901,451.471 64.831,450.535 C62.558,448.663 62.158,444.385 64.163,443.182 C64.965,442.781 65.499,440.909 65.499,439.171 C65.499,437.433 66.168,435.561 66.836,435.161 C68.841,433.823 68.441,431.818 65.901,430.883 C60.954,429.278 52.131,419.385 52.131,415.642 C52.131,413.503 52.799,411.497 53.467,411.096 C54.269,410.695 54.804,408.823 54.804,407.085 C54.804,405.347 55.473,403.476 56.142,403.075 C56.944,402.674 57.478,400.802 57.478,399.064 C57.478,397.326 58.147,395.455 58.815,395.053 C59.617,394.653 60.152,392.781 60.152,391.043 C60.152,389.305 60.82,387.433 61.489,387.032 C62.291,386.632 62.825,384.759 62.825,383.021 C62.825,381.283 63.494,379.412 64.163,379.011 C64.965,378.609 65.499,376.871 65.499,375.134 C65.499,371.391 70.713,366.31 74.457,366.31 C76.595,366.31 78.2,364.439 81.007,358.69 C85.954,348.129 86.756,347.193 89.029,349.064 C91.703,351.203 94.912,349.465 94.912,345.855 C94.912,344.117 95.579,342.112 96.515,341.177 C97.719,339.973 97.719,339.171 96.515,337.968 C95.579,337.032 94.912,335.027 94.912,333.423 C94.912,331.685 94.376,329.947 93.574,329.545 C92.906,329.145 92.237,327.005 92.237,324.866 C92.237,322.727 92.906,320.588 93.574,320.187 C94.376,319.786 94.912,317.112 94.912,314.305 C94.912,308.556 97.585,302.139 99.991,302.139 C100.793,302.139 101.595,301.337 101.595,300.401 C101.595,299.331 102.799,297.46 104.269,296.124 C106.142,294.385 106.944,291.979 106.943,287.834 C106.944,282.62 107.211,282.085 110.285,282.085 C112.158,282.085 114.296,280.883 115.232,279.545 C116.436,277.54 117.371,277.273 119.109,278.209 C120.847,279.145 121.917,278.743 123.388,276.738 C124.323,275.267 125.66,274.465 126.195,275 C126.595,275.535 130.071,276.337 133.682,277.005 C137.425,277.54 143.174,278.609 146.783,279.412 C150.259,280.08 156.542,281.15 160.687,281.952 C169.376,283.423 171.114,284.225 171.114,286.899 C171.114,287.968 172.05,288.77 173.253,288.77 C174.457,288.77 175.66,289.973 176.061,291.444 C176.462,292.915 177.531,294.117 178.467,294.117 C179.269,294.117 181.142,295.321 182.478,296.791 C183.949,298.396 186.622,299.465 189.296,299.465 C191.703,299.465 194.109,300.134 194.51,300.802 C194.912,301.604 197.719,302.139 200.66,302.139 C206.275,302.139 207.611,299.866 203.868,296.791 C202.666,295.855 200.526,292.513 199.19,289.439 C197.852,286.363 195.713,283.021 194.51,282.085 C193.441,281.15 192.505,279.679 192.505,278.609 C192.505,277.273 189.296,276.738 179.537,276.471 L166.436,276.069 L166.034,269.786 L165.634,263.368 L151.863,263.368 C139.831,263.369 137.825,263.101 135.687,260.695 C134.349,259.225 132.611,258.021 131.676,258.021 C130.873,258.021 127.933,255.749 125.259,252.941 C120.179,247.727 118.841,242.647 121.917,239.572 C124.055,237.433 120.713,233.289 118.174,235.294 C117.237,236.096 113.896,236.632 110.687,236.363 L104.938,235.963 L104.537,227.273 C104.136,218.984 104.002,218.449 100.125,216.711 C95.312,214.572 94.109,215.374 96.382,218.984 C97.719,221.123 97.719,222.46 96.515,224.866 C95.579,226.738 94.777,235.695 94.644,247.995 L94.243,268.048 L12.692,268.048 L12.291,239.037 L12.023,209.893 L8.013,209.893 C4.404,209.893 4.002,209.492 4.002,205.883 C4.002,203.743 3.467,201.871 2.666,201.871 C0.928,201.871 0.928,196.925 2.666,195.855 C3.467,195.455 4.002,193.717 4.002,191.979 C4.002,190.374 5.74,187.299 8.013,185.161 L12.023,181.283 L12.023,106.818 L18.039,100.936 C21.248,97.593 24.59,94.92 25.393,94.92 C26.195,94.92 29.804,91.979 33.414,88.235 C37.023,84.625 40.767,81.551 41.703,81.551 C42.772,81.551 44.376,80.347 45.446,78.876 C47.451,76.069 52.666,75.267 54.136,77.54 C55.339,79.545 66.703,79.145 68.841,77.005 C71.382,74.465 70.045,73.529 63.494,73.529 C56.275,73.529 54.804,71.791 54.804,63.503 C54.804,53.209 56.542,52.139 73.253,52.139 C80.74,52.139 87.158,51.604 87.558,50.802 C88.896,48.663 92.906,49.198 95.312,51.871 C97.05,53.743 97.585,56.952 97.585,64.572 C97.585,70.187 97.05,75.134 96.248,75.535 C95.446,76.069 94.912,83.155 94.912,92.38 C94.912,108.155 94.912,108.289 97.986,108.289 C103.735,108.289 104.269,106.283 104.269,84.759 C104.269,72.593 104.804,64.037 105.606,63.503 C106.409,63.101 106.944,60.027 106.943,56.818 C106.944,53.609 107.611,50.535 108.28,50.134 C109.082,49.733 109.617,46.123 109.617,42.112 C109.617,38.101 110.285,34.492 110.954,34.091 C111.622,33.69 112.291,30.883 112.291,28.075 C112.291,24.198 112.959,22.46 114.965,21.391 C116.436,20.588 117.639,19.117 117.639,18.048 C117.639,16.979 118.307,16.043 118.975,16.043 C119.777,16.043 120.312,14.839 120.312,13.369 C120.312,11.632 121.248,10.695 122.986,10.695 C124.724,10.695 125.66,9.759 125.66,8.021 C125.66,6.551 126.328,5.347 126.997,5.347 C127.799,5.347 128.333,4.145 128.333,2.674 C128.333,0.134 129.269,-0 145.713,-0 C162.959,-0 163.093,-0 163.093,3.075 C163.093,6.818 165.365,9.358 168.708,9.358 C170.045,9.358 171.114,10.161 171.114,11.096 C171.114,13.77 174.857,20.855 177.131,22.727 C178.333,23.663 179.136,26.738 179.136,29.947 C179.136,33.021 179.671,36.096 180.339,36.765 C181.007,37.567 181.809,40.241 182.077,42.781 C182.344,45.989 183.414,47.861 185.553,48.931 C187.158,49.733 190.098,51.871 191.836,53.476 C195.045,56.417 195.179,57.353 195.179,71.791 C195.179,85.561 195.446,86.899 197.585,86.899 C199.055,86.899 201.195,85.695 202.531,84.225 C205.071,81.417 209.216,80.749 210.553,82.888 C210.954,83.69 212.558,84.225 214.029,84.225 C216.168,84.225 216.569,83.289 216.569,78.476 C216.569,73.129 215.901,72.193 204.537,60.829 C191.168,47.46 190.232,44.92 196.65,39.572 C203.467,33.823 208.013,34.759 217.237,44.117 C221.65,48.529 225.66,52.139 226.195,52.139 C226.729,52.139 227.264,47.995 227.264,43.048 C227.264,32.62 229.002,27.941 233.815,25.669 C238.896,23.262 242.505,23.663 245.713,27.139 C248.253,29.813 248.655,31.818 248.655,41.177 C248.655,54.947 249.857,55.214 261.489,44.117 C268.307,37.433 270.579,36.096 274.457,36.096 C279.404,36.096 281.943,38.235 284.885,45.187 C286.355,48.529 287.558,49.465 290.365,49.465 C293.708,49.465 294.109,48.931 294.109,44.92 C294.109,42.38 294.777,39.839 295.446,39.439 C296.248,39.037 296.783,36.632 296.783,34.091 C296.783,31.551 297.451,29.145 298.119,28.743 C298.922,28.342 299.457,26.604 299.457,24.866 C299.457,23.128 300.66,20.722 301.997,19.519 C303.467,18.182 304.804,15.508 305.071,13.637 C305.339,11.23 306.809,9.492 309.216,8.289 C311.622,7.085 312.825,5.481 312.825,3.209 L312.825,-0 L346.382,-0 z M81.542,433.155 L81.542,441.177 L90.232,441.177 C95.179,441.177 98.922,440.642 98.922,439.839 C98.922,439.171 97.184,438.503 94.912,438.503 C92.772,438.503 88.896,437.299 86.221,435.829 L81.542,433.155 z M397.172,435.791 C395.368,436.542 396.015,436 395.045,437.166 C394.644,437.968 391.569,438.503 388.227,438.503 C385.018,438.503 382.344,439.171 382.344,439.839 C382.344,440.642 386.087,441.177 391.034,441.177 C398.788,441.177 399.724,440.909 399.724,438.503 C399.495,436.939 398.884,435.966 397.172,435.791 z M204.938,351.604 C203.333,351.604 197.852,357.353 197.852,359.225 C197.852,360.161 197.05,360.963 196.114,360.963 C195.045,360.963 193.174,362.166 191.836,363.637 C190.499,365.107 188.093,366.31 186.355,366.31 C184.617,366.31 182.88,366.979 182.478,367.647 C182.077,368.449 180.339,368.984 178.601,368.984 C176.997,368.984 175.259,369.386 174.724,369.786 C173.253,371.257 177.531,374.331 181.007,374.331 C182.88,374.331 184.483,375 184.483,375.669 C184.483,376.471 185.687,377.005 187.023,377.005 C188.494,377.005 190.098,376.471 190.499,375.669 C190.901,375 192.505,374.331 193.975,374.331 C196.917,374.331 201.195,372.193 205.606,368.449 C208.682,365.775 209.617,360.428 207.211,358.957 C206.542,358.556 205.873,356.685 205.873,354.813 C205.873,353.075 205.473,351.604 204.938,351.604 z M274.305,350.132 C272.901,350.937 272.787,351.108 272.719,352.807 C272.719,354.278 273.388,355.883 274.055,356.283 C274.857,356.685 275.393,359.091 275.393,361.497 C275.393,367.781 283.547,374.331 291.301,374.331 C293.574,374.331 295.713,375 296.248,375.802 C296.783,376.871 297.452,376.871 298.521,375.802 C299.323,375 301.195,374.331 302.799,374.331 C305.606,374.331 308.815,372.059 308.815,370.053 C308.815,369.519 307.344,368.984 305.606,368.984 C303.735,368.984 301.863,368.449 301.462,367.647 C301.061,366.979 299.323,366.31 297.719,366.31 C295.847,366.31 291.703,363.368 286.756,358.289 C283.349,354.923 279.354,350.51 274.305,350.132 z M180.199,347.839 C176.19,348.505 171.679,348.887 171.114,353.877 C171.114,358.021 188.494,353.877 189.029,349.599 C189.029,348.797 186.221,348.129 182.611,347.861 L180.199,347.839 z M297.53,347.771 C297.049,347.806 294.634,347.754 294.109,348.396 C294.109,348.931 295.446,350.802 297.05,352.54 C298.788,354.412 300.393,355.08 301.328,354.412 C302.131,353.743 304.269,352.941 306.142,352.674 C308.013,352.54 309.483,351.337 309.483,350.267 C309.483,348.797 307.611,348.129 301.863,347.86 C299.379,347.74 300.822,347.788 297.53,347.771 z M350.495,226.24 C349.906,227.195 350.159,226.715 349.724,227.674 C349.055,228.878 349.055,231.551 349.724,233.69 C350.66,237.032 350.793,237.166 351.195,234.358 C351.595,232.62 351.595,229.947 351.195,228.342 C351.126,227.908 350.967,226.756 350.799,226.392 C350.752,226.288 350.596,226.291 350.495,226.24 z M285.285,50.802 C284.751,50.802 279.404,55.749 273.253,61.765 C262.558,72.059 262.023,72.995 262.023,78.476 C262.023,83.289 262.425,84.225 264.563,84.225 C266.034,84.225 267.639,83.69 268.039,82.888 C269.51,80.481 274.323,81.417 274.991,84.225 C275.393,85.695 276.863,86.899 278.2,86.899 C280.473,86.899 280.74,85.695 280.74,73.529 C280.74,62.701 281.275,59.358 283.414,55.481 C284.885,52.941 285.687,50.802 285.285,50.802 z" fill="#000000"/>
  </g>
</svg>
