<?xml version="1.0" encoding="UTF-8"?>
<!DOCTYPE svg PUBLIC "-//W3C//DTD SVG 1.1//EN" "http://www.w3.org/Graphics/SVG/1.1/DTD/svg11.dtd">
<svg version="1.1" xmlns="http://www.w3.org/2000/svg" xmlns:xlink="http://www.w3.org/1999/xlink" x="0" y="0" width="500" height="500" viewBox="0, 0, 500, 500">
  <g id="layer101">
    <path d="M361.224,435.992 C355.814,433.849 344.689,426.806 334.584,418.844 C325.602,411.802 316.314,405.677 313.047,404.453 C309.679,403.228 308.25,395.368 308.25,376.588 C308.25,374.24 306.719,368.932 304.576,363.829 C302.636,359.134 300.289,353.418 299.37,351.172 C298.451,348.927 296.92,346.171 295.798,344.946 C293.246,342.088 293.45,339.945 296.512,338.005 C299.88,335.76 299.778,333.923 296.104,331.269 C293.45,329.432 293.042,328.411 292.735,323.818 C292.429,318.918 292.123,318.408 288.959,316.775 C285.182,314.938 283.243,312.488 284.264,310.855 C285.284,309.12 282.018,303.098 278.752,300.75 C276.813,299.321 275.588,297.586 275.588,296.055 C275.588,294.83 274.669,292.686 273.648,291.36 C271.709,289.012 271.607,289.012 270.995,290.951 C269.464,295.647 268.749,296.565 263.339,300.546 C256.705,305.547 253.643,306.262 241.19,305.445 C230.473,304.731 229.554,305.241 231.494,310.855 C232.412,313.202 232.208,314.734 231.085,317.591 C229.554,321.266 229.554,321.368 232.719,324.022 L235.883,326.676 L234.148,331.065 C232.719,334.739 232.616,336.27 233.535,340.761 C234.148,343.619 235.168,349.948 235.781,354.745 C236.393,359.542 237.312,364.85 237.924,366.585 C239.353,371.28 239.047,372.505 236.291,375.159 C233.535,377.71 232.923,381.997 234.76,385.468 C235.576,386.897 235.474,388.122 234.352,390.265 C233.535,391.796 232.412,393.939 231.902,395.062 C230.575,397.818 229.35,398.737 222.001,402.615 C216.898,405.167 213.529,405.984 202.608,407.311 C195.259,408.127 186.175,408.842 182.194,408.842 C178.315,408.842 173.314,409.352 171.171,409.964 C166.577,411.189 163.311,410.373 163.311,408.025 C163.311,407.106 162.086,404.044 160.657,401.186 C157.595,395.164 157.902,392.306 162.291,386.284 C163.924,383.937 165.353,381.487 165.353,380.875 C165.353,380.16 167.7,377.404 170.456,374.648 C173.314,371.892 175.56,369.137 175.56,368.524 C175.56,368.014 174.641,366.891 173.416,366.177 C171.783,365.156 171.477,364.237 171.987,362.604 C175.355,352.091 175.56,335.25 172.395,327.9 C168.823,319.327 171.069,306.568 177.703,298.402 C179.847,295.749 179.847,295.544 178.213,292.993 C175.662,289.114 176.784,286.358 182.194,282.48 C184.746,280.744 186.787,278.601 186.787,277.886 C186.787,277.172 189.747,270.537 193.422,263.29 C197.402,255.431 200.056,248.797 200.056,246.857 C200.056,242.672 201.179,242.06 205.772,243.999 C211.488,246.347 212.407,245.02 212.1,234.405 C211.896,227.362 212.203,225.116 213.632,223.075 C214.55,221.748 215.367,219.911 215.367,219.094 C215.367,217.053 210.467,210.827 208.834,210.827 C207.507,210.827 198.934,224.606 197.607,228.995 C197.198,230.22 195.769,231.955 194.442,232.874 C192.299,234.303 191.687,234.099 185.358,230.628 C179.54,227.464 178.009,227.056 174.743,227.668 C172.702,228.076 167.7,228.383 163.617,228.281 C157.902,228.179 156.064,228.485 155.35,229.71 C154.635,231.139 152.084,231.445 140.958,231.649 C128.914,231.955 127.077,232.261 124.423,234.201 C122.586,235.63 120.646,236.242 119.421,235.834 C118.094,235.425 116.257,236.344 113.501,238.794 C109.827,242.162 103.601,245.53 101.151,245.53 C99.007,245.53 92.577,238.794 89.617,233.588 C87.984,230.628 86.045,228.179 85.432,228.179 C84.003,228.179 78.594,233.384 78.594,234.711 C78.594,236.65 72.061,256.248 71.142,256.86 C69.611,257.983 48.177,251.042 44.4,248.184 C42.461,246.653 40.828,245.122 40.828,244.816 C40.828,244.408 41.848,243.081 42.971,241.754 C44.4,240.325 45.421,237.671 45.727,234.405 C46.135,230.22 45.829,229.199 44.196,228.383 C42.155,227.26 41.032,227.464 29.294,230.73 C22.149,232.67 19.904,231.853 18.27,226.137 L17.046,222.054 L12.248,222.667 C9.39,223.075 6.532,222.871 5.308,222.156 C2.858,220.83 -0,216.032 -0,213.072 C-0,210.316 3.981,206.948 9.799,205.111 C16.841,202.661 17.352,202.151 17.352,195.823 C17.352,191.74 18.066,189.086 19.904,185.82 C23.068,180.512 24.497,179.798 29.702,181.329 C32.764,182.349 35.01,182.247 39.501,181.227 C47.666,179.389 49.606,178.369 51.647,174.49 C53.382,171.224 58.996,167.958 62.773,167.958 C63.691,167.958 67.672,169.591 71.755,171.632 L79.104,175.409 L86.453,173.163 C90.536,172.04 94.721,171.02 95.741,171.02 C96.762,171.02 100.538,172.551 104.111,174.388 C109.214,176.94 110.95,178.369 111.664,180.716 C112.072,182.451 112.889,184.493 113.297,185.309 C114.42,187.657 124.627,187.861 130.445,185.718 C136.875,183.37 143.918,178.981 143.918,177.348 C143.918,176.531 146.98,172.857 150.757,168.978 C156.064,163.671 159.126,161.425 163.617,159.792 C167.7,158.261 169.844,156.73 170.864,154.791 C172.498,151.626 175.049,149.279 177.193,148.973 C178.724,148.768 189.849,140.195 189.849,139.276 C189.849,138.868 189.135,136.826 188.216,134.785 C185.767,128.763 184.542,119.474 185.767,115.085 C186.481,112.33 187.91,110.594 191.074,108.553 C195.871,105.593 198.219,105.083 211.59,103.756 C217.408,103.143 221.185,102.327 222.41,101.204 C223.43,100.285 224.961,99.571 225.88,99.571 C227.105,99.571 227.615,98.652 227.615,96.509 C227.615,92.324 230.167,88.752 233.841,87.425 C236.393,86.506 236.903,85.894 236.699,83.546 C236.291,78.851 237.618,76.095 240.476,76.095 C242.211,76.095 243.64,74.972 245.375,72.114 C248.743,66.807 251.908,64.663 254.255,65.888 C257.011,67.419 259.155,67.113 262.013,64.867 C265.483,62.111 266.81,62.316 270.484,65.888 C274.261,69.562 275.588,69.665 278.65,66.398 C281.61,63.234 285.795,63.132 288.449,65.99 C290.082,67.725 291.204,68.031 294.981,67.623 C300.391,67.011 302.636,68.031 304.678,72.012 C305.494,73.645 307.127,75.278 308.25,75.585 C309.679,75.993 310.189,76.809 309.781,78.034 C309.475,79.157 310.393,80.892 312.435,82.832 C315.905,86.098 318.457,90.385 318.457,93.038 C318.457,93.957 319.886,96.305 321.519,98.244 C323.254,100.081 324.581,102.021 324.581,102.531 C324.581,103.96 329.685,105.695 334.074,105.695 C342.75,105.797 353.875,108.349 358.468,111.513 C362.449,114.269 362.857,114.881 362.755,118.658 C362.653,123.659 356.733,139.582 354.079,141.93 C352.548,143.461 351.63,143.461 346.526,142.338 C343.26,141.624 338.054,139.48 334.89,137.541 C325.908,132.131 319.478,129.069 318.457,129.681 C316.722,130.702 321.417,138.357 324.377,139.48 C329.685,141.419 332.032,142.95 334.176,146.115 C335.401,147.952 338.565,152.341 341.321,155.913 C346.016,161.833 355.202,178.267 355.202,180.716 C355.202,182.145 363.674,191.025 369.186,195.618 C373.166,198.783 373.575,199.497 373.779,204.192 C373.881,207.05 373.677,210.01 373.166,210.929 C372.656,212.052 373.064,213.276 374.391,214.501 C375.514,215.624 377.147,218.074 378.066,220.013 C379.699,223.687 389.906,238.59 393.478,242.468 C395.213,244.306 396.132,244.51 400.623,243.897 C403.379,243.591 406.645,242.774 407.666,242.264 C410.524,240.733 421.445,240.427 425.834,241.652 C428.692,242.468 431.142,242.366 436.96,240.937 C443.084,239.406 444.921,239.304 447.779,240.427 C451.964,241.856 457.067,241.141 462.885,238.181 C470.643,234.201 472.888,234.099 480.748,237.977 C488.403,241.754 490.342,243.999 489.321,248.082 C488.811,250.328 489.117,250.838 491.771,251.757 C493.812,252.471 495.241,253.9 496.058,256.044 C496.67,257.881 497.895,260.841 498.712,262.678 C500.651,267.271 500.549,268.088 497.385,271.864 C495.037,274.62 493.302,275.539 487.382,276.662 C483.503,277.478 478.094,278.193 475.542,278.193 C472.888,278.193 468.907,278.805 466.662,279.622 C461.763,281.357 449.718,283.296 439.409,283.909 C429.304,284.623 426.242,285.848 421.649,291.258 C418.179,295.442 416.648,296.361 410.115,298.3 C399.602,301.464 396.846,301.873 394.397,300.342 C393.172,299.729 389.804,297.688 386.741,295.851 C383.679,294.013 380.311,291.053 379.188,289.216 C378.168,287.379 375.514,284.011 373.37,281.663 C370.717,278.805 369.696,276.866 370.104,275.743 C370.615,274.518 369.696,272.987 367.246,270.742 C365.307,268.904 363.47,266.965 363.266,266.353 C362.653,264.719 344.791,250.634 343.26,250.634 C341.423,250.634 338.565,245.837 339.279,243.897 C340.912,239.508 333.869,238.079 325.602,240.937 C323.254,241.754 319.784,242.468 317.947,242.468 C316.007,242.468 313.966,243.285 312.843,244.51 C311.108,246.449 311.21,246.755 315.701,255.941 C322.438,269.823 327.949,278.397 331.216,280.234 C335.196,282.377 337.85,286.154 338.973,291.36 C339.483,293.707 341.321,297.484 342.954,299.831 C344.689,302.077 346.424,305.649 347.036,307.691 C347.547,309.732 349.588,313.202 351.63,315.448 C354.692,319.02 355.202,320.245 355.202,325.145 C355.202,329.942 356.121,332.596 362.347,345.048 C366.736,354.03 370.819,360.665 373.166,362.91 C377.351,366.993 379.699,370.974 379.699,374.138 C379.699,375.771 378.576,376.792 375.616,377.915 C371.941,379.446 371.533,379.854 371.533,383.222 C371.533,386.386 372.554,387.917 378.984,394.552 C388.681,404.453 392.151,411.7 391.233,420.375 C390.926,423.642 390.212,426.5 389.804,426.806 C389.293,427.112 388.885,428.235 388.885,429.256 C388.885,434.461 369.492,439.156 361.224,435.992 z" fill="#000000"/>
  </g>
</svg>
