<?xml version="1.0" encoding="UTF-8"?>
<!DOCTYPE svg PUBLIC "-//W3C//DTD SVG 1.1//EN" "http://www.w3.org/Graphics/SVG/1.1/DTD/svg11.dtd">
<svg version="1.1" xmlns="http://www.w3.org/2000/svg" xmlns:xlink="http://www.w3.org/1999/xlink" x="0" y="0" width="500" height="500" viewBox="0, 0, 500, 500">
  <g id="layer102">
    <path d="M85.034,123.023 C82.422,122.998 79.811,123.078 77.2,123.157 C59.307,123.72 56.043,126.083 57.394,137.337 C57.844,141.388 57.619,143.189 56.493,143.864 C55.593,144.427 48.616,145.102 40.963,145.439 L27.009,146.002 L27.234,165.134 C27.459,182.802 27.571,184.377 29.71,185.953 C31.961,187.754 31.961,187.754 29.372,188.991 C27.909,189.666 22.17,191.579 16.656,193.268 C11.028,194.955 6.077,196.756 5.627,197.206 C5.064,197.657 4.726,204.296 4.726,211.836 C4.839,223.203 4.614,226.016 3.039,227.704 C0.563,230.404 1.801,233.668 4.839,232.655 C6.415,232.093 7.315,232.543 7.765,234.006 C8.215,235.131 9.453,238.282 10.804,240.983 C12.491,244.697 12.717,246.047 11.592,246.722 C9.678,247.848 11.141,252.012 13.73,252.912 C17.668,254.15 17.443,258.201 13.279,262.478 L9.341,266.529 L9.341,281.271 C9.341,294.325 9.115,296.238 7.315,297.589 C2.926,300.74 1.576,304.454 0.788,316.72 L-0,328.761 L3.376,330.787 C7.878,333.6 13.842,338.665 13.842,339.79 C13.842,341.365 21.495,346.88 23.858,346.88 C24.983,346.88 29.147,349.918 32.861,353.632 C36.799,357.571 40.738,360.385 42.089,360.385 C43.439,360.385 46.928,362.973 50.304,366.574 C53.567,369.95 57.731,373.326 59.532,374.001 C62.007,375.014 100.721,375.464 216.97,375.689 C301.71,375.802 373.396,376.365 376.21,376.702 C380.936,377.377 381.724,377.152 388.026,372.314 C391.74,369.5 395.678,367.137 396.804,367.137 C399.843,367.137 403.331,364.998 407.832,360.497 C410.646,357.683 413.797,355.883 417.736,354.87 C421.675,353.857 424.601,352.169 427.189,349.468 C431.127,345.192 435.742,342.379 438.78,342.379 C441.481,342.379 447.896,337.202 449.921,333.488 C450.821,331.575 451.609,326.173 451.834,320.096 C452.172,309.968 452.172,309.968 448.796,307.379 C439.68,300.29 439.23,299.39 439.23,289.711 C439.23,282.621 438.78,280.484 437.205,279.133 C434.504,276.77 418.298,267.204 415.597,266.416 C413.572,265.741 413.346,264.616 413.347,257.413 C413.346,248.073 413.122,247.848 403.894,247.848 C397.592,247.848 395.341,246.498 395.341,242.671 C395.341,241.321 394.553,239.52 393.541,238.733 C392.528,237.945 391.29,236.257 390.727,234.906 C390.164,233.668 387.013,228.379 383.749,223.202 L377.785,213.637 L370.47,212.286 C366.532,211.611 358.879,210.373 353.477,209.698 C344.924,208.572 342.786,207.785 336.597,203.621 C329.62,199.007 329.282,198.895 317.128,198.107 C293.721,196.756 288.656,196.982 286.518,199.457 C284.605,201.595 283.142,201.708 256.696,201.708 L228.787,201.708 L228.787,198.669 C228.786,196.306 229.124,195.968 230.138,196.982 C230.925,197.769 233.063,198.332 235.089,198.332 C237.677,198.332 238.802,197.769 239.253,196.081 C239.815,194.056 240.828,193.83 249.831,193.83 C257.821,193.83 260.41,193.38 263.111,191.579 C265.361,190.116 268.399,189.329 272.226,189.329 C275.377,189.329 279.766,188.429 282.354,187.19 C287.081,184.94 295.859,183.252 301.373,183.477 C303.173,183.59 307,183.59 309.813,183.59 L319.942,183.59 C326.919,183.814 467.139,184.715 483.682,184.715 C499.212,184.715 500,184.377 500,175.712 C500,172.673 499.437,169.973 498.537,169.41 C497.636,168.735 329.282,167.609 308.35,168.059 C295.634,168.397 285.168,167.047 280.441,164.57 C278.866,163.671 270.988,162.996 258.721,162.658 C248.143,162.432 236.102,161.757 231.938,161.195 C227.774,160.519 222.71,160.069 220.684,160.069 C218.208,160.069 215.057,158.719 211.569,156.243 C206.055,152.304 192.775,145.439 190.637,145.439 C190.074,145.439 188.836,147.015 187.823,148.816 L186.136,152.192 L194.351,156.13 C202.903,160.182 207.067,163.445 203.691,163.445 C202.678,163.445 198.514,161.87 194.238,159.844 C190.074,157.931 185.01,155.906 183.21,155.455 C170.606,152.192 165.541,151.067 159.802,150.503 C156.201,150.054 153.05,149.153 152.825,148.478 C152.599,147.69 152.037,146.115 151.587,144.877 C151.136,143.639 149.899,140.15 148.998,137.224 C146.072,128.334 138.195,125.858 112.311,125.971 C99.257,126.083 94.981,125.745 92.955,124.395 C90.577,123.003 87.698,123.097 85.034,123.023 z M346.286,345.751 C349.735,346.075 351.525,346.085 354.265,348.568 C355.841,350.144 357.078,352.507 357.078,353.745 C357.078,354.983 357.866,357.233 358.879,358.696 C360.792,361.622 360.567,361.847 355.728,361.51 C353.253,361.397 352.352,361.96 351.452,364.548 C350.776,366.236 349.426,368.374 348.413,369.162 C346.387,370.625 341.436,370.963 339.636,369.612 C338.96,369.162 337.722,367.362 336.822,365.448 C334.233,360.497 330.632,360.385 328.382,365.336 C326.919,368.374 325.569,369.5 322.755,370.063 C316.565,371.188 311.951,367.137 315.778,363.873 C317.24,362.748 321.405,354.983 322.642,351.157 C323.092,349.468 324.668,349.13 332.096,349.13 C338.735,349.13 341.436,348.681 342.449,347.443 C343.552,346.335 344.685,345.938 346.286,345.751 z M266.921,345.912 C269.159,345.929 270.968,345.706 272.676,347.443 C273.464,348.343 275.714,349.13 277.627,349.13 C280.891,349.13 281.341,349.581 282.692,354.307 C283.93,358.358 283.93,360.047 283.03,361.622 C282.242,362.748 281.679,364.773 281.679,365.899 C281.679,367.137 280.779,368.712 279.654,369.275 C275.152,371.976 268.737,369.95 267.949,365.561 C267.049,360.159 260.41,360.497 259.172,366.123 C258.384,369.5 253.545,371.413 249.493,369.837 C247.581,369.162 245.892,367.249 244.88,364.548 C243.304,360.722 243.304,359.709 244.767,354.983 L246.455,349.693 L253.545,349.356 C257.484,349.13 261.647,348.231 262.998,347.33 C265.034,346.216 263.768,346.789 266.921,345.912 z M187.455,345.935 C189.613,346.136 191.615,346.166 193.45,347.443 C194.576,348.343 197.726,349.13 200.315,349.13 C204.929,349.13 205.154,349.243 206.392,353.857 C207.067,356.446 208.868,360.047 210.331,361.847 C213.482,365.674 213.594,366.349 211.231,368.712 C209.093,370.85 204.029,371.075 201.666,369.162 C200.653,368.374 199.078,366.349 198.064,364.66 C195.364,360.272 192.1,360.609 190.074,365.336 C187.261,371.976 178.933,372.201 175.894,365.674 C173.419,360.497 169.818,360.272 167.454,365.223 C165.541,369.387 161.715,371.188 157.776,369.95 C154.85,368.937 155.076,367.812 158.677,365.899 C162.278,363.985 168.017,355.32 168.017,351.719 C168.017,349.356 168.467,349.13 174.094,349.13 C178.033,349.13 180.621,348.568 181.521,347.443 C182.598,346.428 183.844,346.165 185.316,345.94 L187.455,345.935 z M106.794,345.808 C109.033,345.979 111.113,345.871 112.875,347.443 C113.774,348.568 116.363,349.13 120.64,349.13 L127.054,349.13 L129.642,355.32 C132.005,360.947 133.131,362.298 141.009,368.037 C141.233,368.262 140.783,368.825 139.883,369.387 C135.944,371.976 129.755,369.05 129.755,364.773 C129.755,363.423 128.629,362.41 126.829,361.96 C123.79,361.172 122.327,362.072 120.302,366.123 C117.263,372.201 108.26,371.413 105.897,364.886 C104.209,359.934 100.045,360.272 97.569,365.448 C95.769,369.387 95.544,369.5 89.917,369.162 C83.165,368.712 82.152,366.799 85.866,361.735 C87.216,359.934 88.904,356.558 89.804,354.082 C91.155,350.144 91.717,349.694 95.656,349.356 C98.019,349.13 100.383,348.231 100.833,347.33 C101.811,346.178 103.287,346.077 104.712,345.832 L106.794,345.808 z M48.616,350.256 C49.741,350.256 53.23,358.922 52.329,359.709 C50.191,361.96 46.028,356.895 46.928,353.07 C47.378,351.494 48.053,350.256 48.616,350.256 z M410.758,342.379 C412.221,342.379 413.346,344.967 413.347,348.455 C413.346,350.144 411.996,351.719 409.071,353.407 C406.82,354.757 404.794,355.883 404.569,355.883 C403.444,355.996 398.717,352.056 398.717,350.931 C398.83,349.581 408.845,342.379 410.758,342.379 z M30.616,338.578 C33.004,338.848 34.955,340.229 36.799,341.703 C40.063,344.179 40.626,345.192 39.613,346.43 C37.813,348.681 34.887,348.343 31.398,345.642 C29.484,344.067 28.472,342.379 28.697,340.803 C28.924,339.649 29.336,338.743 30.616,338.578 z M425.163,340.128 C427.864,340.128 428.764,341.253 427.189,342.716 C425.838,344.179 422.35,343.504 422.35,341.816 C422.35,340.803 423.362,340.128 425.163,340.128 z M445.42,327.636 C445.982,327.636 446.657,328.086 446.883,328.761 C447.108,329.437 446.433,329.999 445.42,329.999 C444.407,329.999 443.732,329.437 443.957,328.761 C444.182,328.086 444.857,327.636 445.42,327.636 z M42.314,185.953 C49.966,185.953 51.204,186.403 50.191,188.879 C49.403,190.904 38.488,191.017 36.574,189.104 C34.099,186.628 35.224,185.953 42.314,185.953 z M57.281,185.953 C60.095,185.953 61.67,187.528 60.544,189.329 C59.532,191.017 54.693,190.679 54.018,188.879 C53.23,186.853 54.13,185.953 57.281,185.953 z" fill="#000000"/>
  </g>
</svg>
