<?xml version="1.0" encoding="UTF-8"?>
<!DOCTYPE svg PUBLIC "-//W3C//DTD SVG 1.1//EN" "http://www.w3.org/Graphics/SVG/1.1/DTD/svg11.dtd">
<svg version="1.1" xmlns="http://www.w3.org/2000/svg" xmlns:xlink="http://www.w3.org/1999/xlink" x="0" y="0" width="500" height="500" viewBox="0, 0, 500, 500">
  <g id="layer102">
    <path d="M164.537,495.652 C164.766,493.593 164.423,489.474 163.735,486.499 C162.592,480.893 163.621,477.117 166.481,477.117 C168.426,477.117 168.999,475.172 169.914,465.561 C171.058,454.234 170.944,454.348 183.072,457.551 L193.369,460.184 L197.717,457.323 L201.951,454.348 L209.388,456.636 C220.029,460.069 236.848,460.069 247.832,456.751 C258.587,453.433 260.647,453.547 261.562,457.208 C262.706,461.556 266.71,462.701 284.903,463.387 L301.493,463.959 L302.638,470.138 C303.553,474.829 304.354,476.545 306.413,477.46 C308.816,478.49 309.045,479.291 308.587,483.296 C308.244,485.927 307.672,489.359 307.214,491.076 C306.757,492.792 306.757,495.538 307.1,497.14 L307.786,500 L355.041,499.772 L402.18,499.428 L402.523,494.05 C402.752,489.702 402.408,488.444 400.349,487.071 C398.405,485.584 398.06,484.668 398.748,482.037 C399.205,480.32 399.663,475.286 399.777,470.938 L399.891,463.044 L418.77,463.273 C429.182,463.387 440.166,464.073 443.141,464.76 C452.294,466.705 452.409,466.133 447.832,453.433 C445.544,447.254 441.768,436.613 439.365,429.634 C436.848,422.769 432.844,411.098 430.212,403.89 C427.694,396.682 424.034,386.384 422.203,381.007 C420.372,375.63 416.94,365.904 414.652,359.268 C405.956,334.097 383.301,266.133 383.301,265.103 C383.301,264.073 387.878,264.302 405.613,266.59 C425.063,268.993 424.034,268.535 427.237,275.057 C428.839,278.261 431.471,282.952 433.073,285.469 C434.674,287.987 436.962,292.105 438.221,294.622 C439.479,297.14 440.967,300 441.539,300.915 C442.112,301.831 443.942,305.606 445.544,309.268 C448.061,314.76 448.977,315.904 451.036,315.561 C454.011,315.103 455.727,309.382 457.901,292.448 L459.388,281.007 L463.05,280.091 C465.91,279.405 467.283,278.032 468.541,274.943 C470.715,269.794 470.83,262.014 468.77,262.014 C467.855,262.014 466.253,260.984 465.224,259.84 C463.393,257.78 463.393,256.979 465.681,244.852 C470.258,220.595 467.512,215.332 456.299,227.117 C452.981,230.664 447.718,235.126 444.514,237.071 C441.424,239.016 436.848,242.449 434.559,244.623 L430.327,248.627 L424.834,247.14 C421.86,246.338 417.855,244.852 415.91,243.936 C414.079,242.906 410.647,241.762 408.473,241.304 C406.299,240.847 400.579,239.359 395.887,237.986 C391.195,236.613 384.445,234.782 381.013,233.867 C377.581,232.952 373.805,231.236 372.774,229.862 C370.143,226.774 368.542,217.849 368.198,203.547 L367.855,191.304 L371.516,187.986 C375.293,184.439 378.153,176.43 377.008,172.768 C376.093,169.908 368.885,163.615 364.766,162.243 C361.677,161.098 360.532,158.695 362.592,157.437 C363.164,157.094 370.372,155.721 378.61,154.462 C386.849,153.318 394.171,151.945 394.743,151.602 C396.002,150.801 396.231,146.11 395.2,140.846 C394.628,138.1 393.828,137.3 391.768,137.3 C388.907,137.3 389.137,137.757 385.59,122.998 C377.122,87.414 366.711,66.476 353.438,58.581 L347.031,54.805 L348.061,48.855 C349.091,42.105 348.29,34.096 346.002,29.634 C345.2,27.917 341.882,24.485 338.679,21.968 C334.102,18.306 331.356,17.162 325.407,16.132 C318.999,14.989 317.397,14.989 315.109,16.476 C312.134,18.535 307.443,17.391 306.298,14.416 C305.727,13.044 303.324,12.586 296.116,12.356 L286.619,12.013 L286.276,6.865 C286.047,4.119 285.246,1.373 284.56,0.915 C283.759,0.457 278.61,0 273.118,0 C263.85,0 262.82,0.228 260.417,2.86 C257.1,6.522 251.264,6.75 249.434,3.433 C248.289,1.373 247.031,1.144 236.276,1.144 C225.52,1.144 224.262,1.373 223.118,3.433 C221.516,6.522 213.164,6.75 212.019,3.776 C210.761,0.457 209.273,0 199.319,0 C187.649,0 185.246,1.029 185.589,6.064 C185.933,12.013 185.018,12.586 174.948,12.586 C166.825,12.586 165.909,12.815 165.909,14.759 C165.909,17.963 160.075,18.993 156.299,16.59 C150.693,12.815 134.903,18.535 127.924,26.888 C124.834,30.549 123.233,39.245 124.148,47.826 L124.948,55.72 L121.287,57.208 C115.795,59.496 111.677,63.273 106.413,71.167 C98.29,82.952 91.539,100.801 86.391,123.57 C83.872,135.126 82.843,137.3 80.097,137.3 C77.58,137.3 76.436,140.503 76.207,147.482 C76.093,151.602 76.207,151.602 81.814,152.518 C95.085,154.691 97.718,157.323 87.42,158.124 C81.814,158.581 80.326,159.267 77.58,162.357 C73.69,166.705 73.347,172.197 76.664,179.062 L78.838,183.638 L76.207,185.012 C74.49,185.927 72.889,188.558 71.745,192.449 C70.715,195.766 68.427,203.661 66.482,209.955 C55.955,245.195 46.687,289.588 49.319,292.334 C50.006,293.021 52.409,293.478 54.697,293.478 L58.931,293.478 L58.931,299.199 C58.931,304.005 59.388,305.149 61.448,306.064 C63.049,306.751 64.079,308.352 64.308,310.64 C64.651,313.73 65.108,314.073 68.999,314.416 C73.461,314.76 74.033,315.904 72.202,320.595 C71.516,322.082 69.685,327.918 68.084,333.524 C66.367,339.245 64.079,346.911 62.82,350.687 C56.871,369.565 49.548,392.677 40.165,421.739 C34.445,439.474 29.754,454.462 29.754,455.149 C29.754,455.836 30.669,456.636 31.814,456.979 C36.276,458.467 52.637,460.069 61.791,459.955 C67.168,459.84 72.088,459.84 72.775,459.84 C73.575,459.955 73.575,462.701 72.889,468.764 C72.202,474.943 72.316,478.261 73.118,479.634 C75.063,482.723 74.605,484.439 71.516,487.414 C68.427,490.389 67.625,496.224 70.028,498.627 C71.058,499.657 82.729,500 117.854,499.772 L164.193,499.428 L164.537,495.652 z" fill="#000000"/>
  </g>
</svg>
