<?xml version="1.0" encoding="UTF-8"?>
<!DOCTYPE svg PUBLIC "-//W3C//DTD SVG 1.1//EN" "http://www.w3.org/Graphics/SVG/1.1/DTD/svg11.dtd">
<svg version="1.1" xmlns="http://www.w3.org/2000/svg" xmlns:xlink="http://www.w3.org/1999/xlink" x="0" y="0" width="500" height="500" viewBox="0, 0, 500, 500">
  <g id="Layer_1">
    <path d="M101.591,498.598 C99.423,497.979 94.158,497.36 89.668,497.205 C82.545,497.05 81.306,496.431 77.125,491.476 C73.564,487.14 72.325,483.733 71.396,475.681 C70.002,462.674 68.919,450.906 68.764,445.951 C68.609,439.293 70.932,420.556 72.325,417.769 C73.099,416.376 76.196,406.93 79.293,396.865 C82.235,386.8 86.416,374.258 88.584,368.993 C93.384,356.76 94.003,334.927 89.668,333.533 C79.913,330.591 79.138,329.508 79.603,318.514 C80.067,310.152 79.603,307.21 76.971,302.874 C72.635,295.906 72.79,292.809 79.138,273.144 C82.08,263.853 85.332,253.633 86.261,250.382 C87.035,247.13 90.132,241.865 93.074,238.768 C98.959,232.11 103.604,221.735 102.83,216.625 C102.52,214.303 99.268,211.361 93.074,207.644 C87.965,204.393 81.926,199.128 79.138,195.412 C76.661,191.695 70.622,184.263 65.822,178.998 C54.208,165.991 52.35,156.236 59.628,146.79 C64.273,141.061 75.112,119.383 76.971,112.569 C78.054,108.389 81.151,103.743 85.797,99.098 C99.888,85.472 103.294,78.968 96.326,78.968 C94.003,78.968 91.216,77.265 89.358,74.787 C86.571,71.381 86.261,69.523 87.035,62.864 C88.584,51.561 94.778,36.85 100.507,31.276 C109.643,22.604 126.831,19.043 135.657,24.153 C141.541,27.714 146.961,26.011 149.748,19.817 C151.451,15.636 152.845,14.707 157.335,14.243 C167.09,13.469 169.258,12.54 171.271,7.739 C174.833,-0.777 182.575,-2.171 195.892,3.094 C201.931,5.417 209.053,6.346 228.874,6.965 C257.055,8.049 262.165,9.288 263.714,15.327 C265.107,21.211 266.965,23.069 273.314,24.153 C280.747,25.547 282.76,27.405 282.76,32.669 C282.76,38.554 284.773,39.483 297.625,39.483 C306.916,39.483 309.393,40.102 314.967,43.818 C321.161,47.844 329.678,60.077 331.846,67.974 C332.31,69.987 331.536,74.942 330.142,79.123 C326.891,88.104 327.355,90.117 336.181,102.04 C344.388,113.189 352.44,128.673 352.44,133.319 C352.44,138.893 360.182,162.12 363.279,166.146 C365.137,168.469 366.376,172.34 366.376,175.746 C366.376,180.237 365.602,181.785 361.886,183.953 C354.143,188.289 354.453,194.792 363.124,205.786 C372.105,217.245 371.331,223.593 360.027,230.561 C355.847,233.349 351.046,237.684 349.653,240.472 C348.259,243.104 344.543,247.594 341.601,250.536 C334.943,256.73 335.407,257.195 355.227,261.995 C371.951,266.021 376.751,269.428 378.144,278.409 C378.609,281.815 379.538,285.377 380.157,286.306 C380.932,287.39 390.687,290.332 402.145,292.809 C413.604,295.442 425.837,298.229 429.398,299.158 C438.689,301.326 443.799,307.674 443.799,317.12 C443.799,325.482 440.857,337.559 436.985,344.992 C432.03,354.592 423.049,355.057 391.461,346.85 C369.473,341.121 367.46,341.121 363.434,346.695 C361.731,349.173 357.705,352.425 354.453,353.818 C348.879,356.451 348.104,356.451 336.956,353.818 C330.607,352.425 321.161,349.792 316.051,348.244 C310.942,346.85 303.199,344.992 298.864,344.527 C289.418,343.289 288.024,344.527 285.857,355.831 C285.082,360.322 283.379,365.741 282.295,368.064 C281.056,370.541 279.663,375.187 279.043,378.593 C275.327,400.117 273.004,407.859 267.895,413.434 C261.856,420.092 261.546,422.415 265.727,427.834 C267.43,430.002 268.824,432.944 268.824,434.647 C268.824,436.196 271.301,441.461 274.243,446.416 C278.269,452.919 279.663,457.1 279.663,461.9 C279.508,468.094 279.198,468.558 272.23,471.965 C261.081,477.23 256.591,478.159 244.513,476.765 C232.745,475.526 215.247,467.784 213.389,463.139 C212.925,461.745 211.066,458.803 209.518,456.481 C207.815,454.158 205.802,448.429 205.182,443.783 C204.408,437.589 202.55,433.409 198.524,427.989 C192.485,420.092 187.685,406.62 187.84,397.949 C187.84,395.007 189.853,387.729 192.175,381.845 C195.427,374.103 196.201,370.541 194.963,368.683 C194.188,367.29 188.614,364.967 182.885,363.573 C171.736,360.941 167.865,361.56 166.006,366.516 C164.768,369.458 163.219,407.859 162.91,436.66 C162.755,450.442 162.135,455.706 159.968,460.042 C156.406,467.01 151.761,472.275 148.819,472.275 C143.864,472.275 140.302,478.159 140.302,486.211 C140.302,498.134 137.05,500.147 119.553,499.992 C111.811,499.837 103.759,499.218 101.591,498.598 z" fill="#000000"/>
  </g>
</svg>
