<?xml version="1.0" encoding="UTF-8"?>
<!DOCTYPE svg PUBLIC "-//W3C//DTD SVG 1.1//EN" "http://www.w3.org/Graphics/SVG/1.1/DTD/svg11.dtd">
<svg version="1.1" xmlns="http://www.w3.org/2000/svg" xmlns:xlink="http://www.w3.org/1999/xlink" x="0" y="0" width="500" height="500" viewBox="0, 0, 500, 500">
  <g id="layer102">
    <path d="M75.322,121.775 C73.886,122.029 71.616,121.875 70.376,123.024 C69.966,123.843 64.366,124.39 58.081,124.39 C47.699,124.39 46.334,124.663 44.421,127.532 C43.192,129.171 36.498,139.28 29.395,149.935 L16.554,169.333 L15.734,189.278 L8.63,189.687 C3.986,189.96 1.39,190.78 0.844,192.146 C0.434,193.239 0.024,211.545 0.024,232.854 C-0.112,264.411 0.297,272.607 1.936,276.569 L3.986,281.486 L33.766,281.759 L63.546,282.169 L64.638,291.049 C67.097,312.769 68.464,318.369 71.195,318.369 C73.382,318.369 73.791,317.413 73.791,311.403 C73.791,305.529 74.201,304.572 76.113,304.983 C78.026,305.255 78.709,307.031 78.982,313.315 C79.255,319.189 79.939,321.375 81.988,322.468 C83.353,323.15 84.72,325.2 84.993,326.839 C85.54,330.937 87.998,330.937 88.545,326.839 C88.818,325.063 89.774,323.97 90.593,324.244 C91.686,324.517 92.369,328.752 92.643,335.172 C92.916,343.505 92.643,345.691 91.14,345.691 C90.047,345.691 88.408,346.647 87.451,347.74 C86.496,348.833 84.31,349.789 82.67,349.789 C77.48,349.789 76.796,352.248 78.435,363.45 C79.802,372.329 80.485,373.695 82.944,374.105 C84.583,374.378 86.632,375.334 87.451,376.427 C89.501,378.886 114.5,377.656 117.641,374.924 C118.735,373.831 122.696,373.012 126.248,373.012 C133.488,373.012 135.4,370.826 132.532,365.361 C131.029,362.767 131.029,361.674 132.258,360.444 C134.444,358.258 134.308,354.98 131.985,351.838 C130.756,350.062 128.707,349.379 124.745,349.516 C121.193,349.652 118.598,348.97 117.505,347.74 C116.549,346.647 115.046,345.691 114.09,345.691 C111.358,345.691 110.538,325.2 113.134,322.195 C114.636,320.419 114.91,317.96 114.363,312.905 L113.543,305.939 L118.188,306.894 C122.013,307.578 122.969,307.305 122.969,305.529 C122.969,301.977 127.887,302.933 140.455,308.944 C153.569,315.228 158.487,315.364 163.951,309.49 C167.912,305.255 170.508,305.119 171.055,309.217 C171.464,312.086 171.874,312.223 182.529,311.676 C192.229,311.266 193.868,311.54 195.234,313.725 C196.599,316.184 196.873,316.184 198.649,313.999 C200.834,310.993 203.567,310.856 203.567,313.588 C203.567,314.818 204.522,316.047 205.615,316.457 C206.709,316.867 208.211,319.463 209.167,322.195 C209.987,325.063 211.216,327.796 211.899,328.479 C213.675,330.39 216.271,327.385 217.91,321.375 C219.276,316.73 219.823,316.321 224.876,315.91 C229.931,315.501 230.478,315.91 232.663,320.419 C233.893,323.15 234.986,326.429 234.986,327.932 C234.986,332.167 236.488,334.762 239.084,334.762 C240.997,334.762 241.543,333.26 242.226,327.113 C243.182,317.96 244.821,315.638 250.559,315.638 C256.16,315.638 257.662,316.867 260.258,322.878 C262.853,329.161 265.312,329.298 268.181,323.15 C270.366,318.643 270.913,318.369 277.06,318.369 C284.437,318.369 288.261,321.102 288.262,326.429 C288.261,331.21 292.496,329.435 294.272,323.834 C296.322,317.55 300.966,317.14 301.649,323.15 C302.332,329.025 303.562,329.708 313.397,329.435 C321.184,329.298 322.277,329.571 323.096,332.03 C325.145,338.587 331.976,332.167 331.976,323.561 C331.976,318.506 332.112,318.369 336.757,318.369 C343.451,318.369 345.773,323.15 342.358,329.571 C340.581,332.849 340.035,336.538 340.445,342.959 C340.855,350.609 341.264,351.975 343.997,353.204 C346.045,354.16 347.275,356.073 347.821,359.625 C348.915,366.318 352.876,372.466 358.204,375.744 C362.575,378.34 368.586,379.023 372.957,377.52 C378.558,375.471 385.115,372.192 390.306,368.64 L396.043,364.815 L431.697,364.815 C460.931,364.815 468.034,364.406 471.313,362.767 C473.636,361.537 475.411,360.034 475.411,359.215 C475.411,358.532 476.914,357.302 478.826,356.619 C484.154,354.57 484.564,351.428 480.193,347.876 C477.597,345.827 476.914,344.461 477.87,343.778 C479.783,342.685 480.056,337.495 478.28,337.495 C477.734,337.495 475.548,335.855 473.499,333.806 L469.81,330.118 L449.046,330.527 C437.572,330.664 426.779,330.255 425.003,329.571 C421.862,328.479 421.862,328.479 426.779,324.107 C429.512,321.785 431.697,318.916 431.697,317.686 C431.697,316.593 432.243,314.545 432.927,313.179 C433.61,311.949 434.839,308.398 435.796,305.392 C440.577,290.503 432.927,276.295 427.326,289.683 C425.823,293.508 424.184,295.147 422.272,295.147 C418.583,295.147 417.627,293.097 420.222,290.912 C422.545,288.999 429.649,277.524 428.829,276.978 C420.222,271.377 413.119,267.825 410.523,267.825 C407.518,267.825 396.863,262.772 392.491,259.356 C391.672,258.673 390.989,255.121 391.126,251.297 C391.536,241.187 391.808,241.051 441.259,239.958 C489.208,238.865 500,238.182 500,235.723 C500,234.494 487.296,233.674 447.681,232.445 C418.993,231.489 390.443,230.806 384.295,230.942 C373.094,230.942 372.957,230.942 372.137,227.254 C370.771,220.833 370.362,220.014 367.903,219.057 C364.488,217.828 363.395,215.915 363.395,210.861 C363.395,205.26 366.4,202.255 372.684,201.982 C375.416,201.846 378.694,201.709 379.787,201.435 C380.881,201.299 385.662,201.162 390.306,201.026 L398.912,200.889 L398.912,191.326 C398.912,181.764 398.912,181.764 395.087,181.764 C390.169,181.764 387.71,179.988 388.803,177.256 C389.35,175.617 388.667,174.524 386.071,173.568 C384.159,172.885 382.52,171.382 382.52,170.152 C382.52,169.06 381.29,168.104 379.787,168.104 C378.285,168.104 377.055,168.513 377.055,169.197 C377.055,169.743 374.733,171.245 371.865,172.611 C367.356,174.798 363.941,174.934 343.587,174.387 C330.746,173.978 316.539,173.295 311.894,172.885 C305.064,172.202 301.649,172.611 294.409,175.07 L285.256,178.076 L278.29,170.426 L271.187,162.64 L259.984,162.64 C253.837,162.64 248.373,162.093 247.963,161.273 C246.87,159.634 227.882,159.498 225.97,161.137 C225.287,161.82 214.495,162.64 201.927,163.049 C176.519,164.005 176.519,164.005 175.016,154.716 L174.196,149.662 L141.137,148.843 L136.22,153.76 C132.258,157.722 130.482,158.541 125.428,158.541 C120.237,158.541 118.735,159.224 114.09,164.005 C108.625,169.606 108.625,169.606 99.063,169.197 L89.638,168.787 L88.681,164.005 C84.993,145.973 83.217,128.215 84.72,126.439 C85.54,125.347 85.949,123.843 85.403,123.024 C83.256,121.218 77.643,121.775 75.322,121.775 z M384.49,353.809 C386.292,354.026 387.721,354.159 389.077,355.527 C392.902,359.351 390.306,362.903 378.694,369.87 C369.406,375.334 358.614,373.148 355.335,364.952 C353.013,359.625 355.472,353.477 359.707,354.16 C362.166,354.434 362.848,355.663 363.395,360.717 L364.078,366.865 L371.182,367.274 C377.875,367.684 378.422,367.411 379.241,364.269 C379.651,362.356 379.651,360.308 379.241,359.488 C377.534,355.888 381.417,353.992 384.49,353.809 z M156.678,273.791 C157.139,273.884 157.652,273.844 158.065,274.073 C161.375,275.909 162.499,280.49 164.498,283.398 C167.776,289.956 167.912,290.366 165.59,292.824 C164.361,294.327 161.356,296.376 159.169,297.332 C156.847,298.289 152.476,299.108 149.198,299.245 C144.143,299.245 143.187,298.698 142.094,295.693 C140.045,290.503 140.318,289.683 144.826,288.043 C147.831,287.087 149.744,284.901 151.657,280.803 C152.87,278.206 153.938,275.093 156.678,273.791 z M220.272,173.49 C222.78,173.907 224.023,173.91 225.423,176.3 C226.243,177.803 228.292,179.032 229.931,179.032 C231.707,179.032 233.756,179.715 234.712,180.672 C235.942,181.901 237.445,181.901 241.406,180.535 C245.778,178.896 246.597,178.896 248.1,181.081 C250.696,184.633 254.11,182.584 254.11,177.666 C254.11,174.251 254.657,173.568 257.525,173.568 C261.897,173.568 272.279,178.349 275.421,181.901 C277.333,184.086 277.47,185.043 276.24,188.048 C274.192,192.419 274.055,204.577 276.103,205.67 C277.06,206.353 276.377,207.856 274.328,210.041 C271.596,213.047 270.366,213.32 264.902,212.637 C259.712,211.954 258.072,212.227 255.066,214.959 C251.515,217.965 251.378,218.648 251.378,231.215 C251.378,245.969 250.013,248.701 243.045,248.701 C240.86,248.701 239.084,249.384 239.084,250.203 C239.084,251.297 236.762,251.569 232.117,251.16 C226.106,250.477 224.33,249.657 220.778,245.559 C218.456,242.963 213.675,238.865 210.26,236.543 C206.709,234.358 203.567,231.352 203.02,230.259 C202.61,229.03 202.2,219.604 202.2,209.221 C202.2,192.556 202.474,189.96 205.206,184.496 C208.484,178.81 213.52,174.179 220.272,173.49 z M266.728,222.884 C268.22,223.118 268.612,223.135 269.41,224.522 C270.093,225.751 271.733,226.844 272.962,226.844 C274.328,226.844 276.103,227.527 276.924,228.347 C278.973,230.395 276.65,237.636 272.962,240.914 C269.137,244.192 262.717,244.057 261.624,240.505 C261.214,239.002 260.121,237.772 259.438,237.772 C258.618,237.772 258.208,234.904 258.482,231.352 C258.892,225.342 259.165,224.795 263.536,223.566 C265.43,223.041 264.371,223.289 266.728,222.884 z M337.87,201.074 C340.959,201.516 341.48,201.612 343.451,204.304 C345.91,208.129 346.456,223.155 344.27,228.756 C343.314,231.352 341.947,232.308 339.216,232.308 C333.478,232.308 323.779,220.56 323.779,213.867 C323.779,209.632 324.325,208.675 328.287,207.036 C330.883,205.943 333.615,204.168 334.707,203.075 C336.24,201.494 335.258,202.262 337.87,201.074 z M284.891,221.406 C287.839,221.736 289.503,222.939 291.677,224.931 C294.818,227.801 295.092,228.756 293.589,229.712 C290.72,231.489 289.765,231.215 286.213,227.39 C285.318,226.355 282.558,223.321 283.922,221.839 C284.161,221.579 284.568,221.55 284.891,221.406 z M390.579,187.228 C394.131,187.228 395.497,189.551 393.448,192.01 C391.536,194.332 390.716,194.469 388.121,192.83 C385.525,191.19 387.301,187.228 390.579,187.228 z" fill="#000000"/>
  </g>
</svg>
