<?xml version="1.0" encoding="UTF-8"?>
<!DOCTYPE svg PUBLIC "-//W3C//DTD SVG 1.1//EN" "http://www.w3.org/Graphics/SVG/1.1/DTD/svg11.dtd">
<svg version="1.1" xmlns="http://www.w3.org/2000/svg" xmlns:xlink="http://www.w3.org/1999/xlink" x="0" y="0" width="500" height="500" viewBox="0, 0, 500, 500">
  <g id="layer101">
    <path d="M186.788,457.885 C188.153,457.339 187.744,456.247 185.287,453.518 C183.376,451.607 181.602,448.468 181.329,446.694 C181.056,444.101 180.101,443.282 177.098,443.145 C175.051,443.145 172.185,441.781 170.821,440.416 C168.5,438.096 168.364,436.731 169.319,430.18 C171.776,414.485 173.55,373.816 172.731,354.845 C172.049,341.198 172.185,334.101 173.414,331.235 C175.051,326.868 180.237,283.741 180.237,273.915 C180.237,268.319 177.235,263.679 173.823,263.679 C171.912,263.679 170.684,258.903 170.684,250.578 C170.684,242.662 172.458,239.523 178.19,237.885 C181.875,236.93 182.285,236.248 181.875,232.153 C181.739,229.56 180.374,226.012 179.009,224.101 C177.644,222.191 176.143,219.325 175.597,217.823 C175.051,216.186 173.414,213.729 171.912,212.364 C169.319,210.044 168.91,210.044 157.992,215.367 C146.937,220.689 136.565,228.468 136.565,231.471 C136.565,232.29 138.339,235.156 140.659,237.749 C143.662,241.434 144.617,243.89 144.754,248.53 C144.754,255.9 148.848,269.138 151.168,270.094 C152.123,270.503 152.942,272.96 152.942,275.689 C152.942,282.922 157.036,296.434 159.766,297.798 C161.404,298.617 162.359,301.483 163.041,306.669 C163.451,310.9 165.498,317.451 167.409,321.136 C169.865,326.049 170.684,329.734 170.411,333.692 C170.002,338.741 169.456,339.697 164.816,341.88 C157.855,345.428 152.806,343.654 151.304,337.24 C148.848,327.277 144.481,318.543 140.523,315.677 C137.247,313.22 136.429,311.719 136.702,308.171 C137.111,303.803 134.381,295.069 132.471,295.069 C131.925,295.069 129.878,293.568 127.831,291.657 C124.692,288.791 124.282,287.29 124.419,281.148 C124.692,271.595 122.508,266.545 117.458,264.908 C114.456,263.816 113.091,262.178 111.999,258.493 C111.317,255.627 110.635,252.488 110.635,251.396 C110.635,247.985 107.769,245.937 102.992,245.937 C100.535,245.937 98.079,245.255 97.669,244.573 C97.26,243.89 95.076,243.208 93.029,243.208 C87.707,243.208 82.384,238.568 80.746,232.836 C79.518,228.605 79.927,226.967 84.704,218.369 C89.89,208.816 89.89,208.543 87.707,204.449 C86.478,202.129 85.114,195.987 84.568,190.938 C83.612,180.019 80.2,174.97 75.56,177.426 C71.875,179.474 65.87,193.394 63.55,205.131 C62.595,210.454 60.684,215.913 59.456,217.141 C57.409,219.188 57,219.052 53.588,214.957 C51.54,212.501 43.898,199.536 36.392,186.161 C18.786,154.362 19.605,155.317 11.144,155.044 C-3.05,154.771 -3.732,148.493 9.369,138.531 C14.419,134.573 21.243,129.114 24.518,126.248 C31.751,119.834 31.615,119.288 18.377,105.776 C12.645,99.772 9.642,95.814 9.915,94.04 C10.188,92.538 12.918,89.536 15.92,87.352 L21.652,83.258 L28.067,86.124 C31.615,87.625 35.027,88.58 35.846,88.171 C36.528,87.762 36.665,84.35 36.255,80.119 C35.573,75.479 35.846,72.613 36.801,72.067 C38.985,70.702 54.543,87.625 54.679,91.31 C54.679,93.494 56.044,94.995 59.183,96.36 C61.64,97.315 65.325,100.181 67.372,102.501 L70.92,106.868 L71.875,103.32 C72.285,101.409 72.421,97.315 71.875,94.312 C71.057,89.263 71.466,88.58 76.106,84.077 C85.523,75.479 100.672,64.424 103.128,64.424 C104.63,64.424 107.086,65.789 108.724,67.29 C111.59,70.02 111.726,70.566 109.952,75.206 C108.997,77.935 107.769,82.985 107.223,86.533 C106.404,93.221 106.404,93.357 118.96,122.836 C120.324,125.975 122.372,128.568 123.463,128.568 C124.692,128.568 127.967,126.521 130.697,123.928 C137.793,117.65 140.25,116.558 150.213,115.466 C159.084,114.511 159.084,114.511 169.319,103.866 C177.508,95.404 180.783,93.084 185.696,91.719 C196.069,89.126 195.932,89.263 193.339,86.397 C185.833,78.072 207.396,48.32 224.729,43.134 C233.19,40.541 249.021,40.677 256.664,43.407 C264.716,46.136 273.451,53.506 277.954,61.149 C281.366,67.017 281.912,67.29 286.143,66.608 C289.691,65.925 290.919,66.335 292.694,68.791 C293.922,70.566 298.153,73.159 301.974,74.796 L309.207,77.526 L308.798,86.533 C308.252,96.906 309.617,98.134 317.942,95.677 C328.041,92.675 340.733,99.226 345.51,110.144 C346.738,113.146 348.239,120.925 348.785,127.476 L349.741,139.486 L357.793,142.352 C362.706,144.126 366.118,146.31 366.527,147.811 C367.756,151.632 374.033,158.729 375.535,157.774 C376.899,156.955 375.944,147.538 373.76,141.806 C372.532,138.531 372.805,137.575 375.398,134.709 C377.172,132.799 381.267,130.069 384.406,128.432 C389.728,125.838 391.093,125.838 398.872,127.203 C403.649,128.022 415.795,129.387 425.894,130.206 C442.135,131.434 445.137,131.298 451.415,129.25 C455.783,127.749 459.877,127.203 462.333,127.886 C464.381,128.295 471.75,129.66 478.574,130.615 C493.586,132.935 497.817,134.709 499.318,139.213 C501.912,147.129 496.725,161.868 490.175,165.417 C488.81,166.099 481.031,168.01 472.979,169.647 C461.515,171.967 457.693,172.24 455.1,171.012 C450.051,168.692 447.731,169.101 444.865,172.786 C443.09,175.106 439.815,176.608 434.902,177.699 C426.713,179.337 425.621,180.292 423.301,187.389 C422.482,190.119 420.572,194.622 419.071,197.488 C417.569,200.491 416.341,203.63 416.341,204.585 C416.341,206.359 410.336,208.543 406.788,207.997 C405.696,207.861 401.192,206.086 396.961,204.039 L389.182,200.491 L381.949,203.22 C376.49,205.268 374.17,207.042 372.396,210.454 C369.666,215.776 367.756,217.277 363.252,217.277 C361.478,217.277 357.247,219.87 353.016,223.555 C346.602,229.424 331.862,237.749 328.041,237.749 C327.086,237.749 320.671,233.109 313.711,227.513 C306.751,221.918 300.336,217.277 299.517,217.277 C298.699,217.277 297.061,218.369 295.696,219.87 C293.785,222.054 293.649,223.146 295.014,228.468 C296.515,233.928 296.379,235.292 293.922,240.615 C292.421,243.89 289.828,250.305 288.053,254.808 C286.416,259.312 284.505,264.089 283.823,265.317 C282.049,268.865 282.322,275.416 284.369,277.054 C285.324,277.873 287.508,278.282 289.145,277.736 C292.148,277.054 292.148,277.054 292.148,296.979 L292.148,316.905 L295.969,318.543 C302.929,321.545 307.297,325.23 305.932,326.868 C305.249,327.823 303.885,332.327 303.066,336.967 C301.974,342.153 299.517,348.158 296.788,352.389 C294.195,356.347 292.148,359.895 292.148,360.441 C292.148,363.17 284.778,378.865 278.5,389.647 C270.858,403.021 270.721,403.704 272.222,411.892 C273.178,416.805 273.996,417.897 278.5,419.671 C283.413,421.582 285.733,424.858 288.463,433.046 C289.418,435.912 284.096,441.098 280.001,441.508 C278.5,441.644 277.135,442.054 277.135,442.463 C277.135,443.555 257.21,441.781 248.066,439.87 C239.059,437.959 236.193,439.188 236.193,444.647 C236.193,446.557 234.418,449.423 232.098,451.607 C229.915,453.518 228.004,455.974 228.004,457.066 C228.004,458.431 223.637,458.84 206.577,458.704 C194.704,458.704 185.833,458.294 186.788,457.885 z" fill="#000000"/>
  </g>
</svg>
