<?xml version="1.0" encoding="UTF-8"?>
<!DOCTYPE svg PUBLIC "-//W3C//DTD SVG 1.1//EN" "http://www.w3.org/Graphics/SVG/1.1/DTD/svg11.dtd">
<svg version="1.1" xmlns="http://www.w3.org/2000/svg" xmlns:xlink="http://www.w3.org/1999/xlink" x="0" y="0" width="500" height="500" viewBox="0, 0, 500, 500">
  <g id="layer102">
    <path d="M398.728,440.881 C401.258,438.447 408.849,431.281 415.776,424.925 C422.569,418.57 430.027,411.673 432.424,409.374 C437.353,404.777 449.342,393.822 458.801,385.435 C476.386,369.609 478.247,367.315 478.197,360.743 C478.171,357.256 477.2,352.971 475.843,350.969 C473.535,347.232 461.502,334.58 448.802,322.337 C441.235,315.017 440.549,313.01 443.603,308.829 C446.657,304.782 445.968,302.373 440.836,297.583 C436.65,293.859 435.036,293.335 428.732,293.382 L421.49,293.437 L407.707,279.86 L393.922,266.149 L381.447,266.109 C367.765,265.944 365.615,265.29 366.525,261.527 C367.047,259.645 366.505,258.978 364.762,258.991 C363.287,259.003 361.669,257.942 360.856,256.741 C359.767,254.604 357.351,254.353 342.329,254.466 C326.369,254.721 324.895,254.867 322.099,257.704 C320.502,259.326 319.177,261.482 319.184,262.421 C319.202,264.835 316.405,267.405 313.857,267.424 C312.65,267.433 311.159,265.299 310.06,261.819 C309.096,258.608 307.455,254.328 306.365,252.056 C305.275,249.917 303.357,244.567 302.119,240.418 C300.192,233.995 300.043,231.984 301.493,228.62 C302.943,225.256 302.8,224.184 301.176,222.185 C300.094,220.986 297.789,217.649 296.159,214.98 L293.17,209.905 L296.08,204.518 C297.668,201.555 300.195,198.854 301.532,198.307 C302.871,197.894 303.935,196.813 303.928,195.875 C303.922,195.07 309.391,191.005 315.932,186.931 C322.609,182.992 328.614,178.923 329.41,177.843 C330.208,176.898 331.544,176.083 332.214,176.078 C333.422,176.069 339.829,171.997 353.441,162.908 C355.977,161.28 358.648,159.783 359.184,159.779 C359.721,159.775 362.658,158.01 365.728,155.975 C377.203,147.975 382.142,144.852 383.349,144.843 C383.886,144.839 386.289,143.345 388.555,141.585 C390.823,139.958 394.827,137.379 397.366,136.019 C399.904,134.659 404.703,130.733 408.03,127.355 C413.62,121.544 415.888,119.918 427.907,112.987 C430.578,111.491 436.452,107.691 441.122,104.438 C445.792,101.317 450.065,98.736 450.601,98.732 C451.272,98.727 453.14,97.372 454.871,95.749 C456.736,93.992 460.74,91.413 463.814,89.915 C466.886,88.416 469.422,86.653 469.418,86.117 C469.414,85.58 472.083,83.816 475.292,82.451 C478.5,80.951 481.836,78.78 482.767,77.7 C483.698,76.62 485.166,75.67 485.97,75.664 C486.91,75.656 490.112,73.487 493.178,70.915 L498.64,66.045 L495.104,59.499 C493.199,55.892 490.491,52.56 489.012,52.035 C485.92,51.119 478.036,55.068 458.546,67.287 C454.54,69.732 448.531,73.264 445.191,74.899 C441.85,76.667 439.047,78.432 438.783,78.97 C438.519,79.509 436.116,81.003 433.443,82.365 C430.771,83.592 426.096,86.175 423.159,88.075 C415.819,92.959 413.281,94.454 407.27,97.718 C404.465,99.215 401.262,101.385 400.197,102.467 C399.133,103.547 397.128,104.501 395.653,104.512 C392.434,104.536 386.02,107.804 380.285,112.14 C378.018,113.9 375.213,115.396 374.006,115.406 C372.665,115.416 371.73,115.959 371.735,116.63 C371.741,117.301 368.404,119.606 364.396,121.648 C360.389,123.824 357.05,125.862 357.054,126.398 C357.059,126.934 355.056,128.022 352.783,128.979 C350.376,129.936 347.171,131.838 345.705,133.19 C344.239,134.408 339.834,137.258 335.96,139.3 C332.221,141.473 327.413,144.193 325.275,145.282 C323.271,146.37 319.802,148.676 317.401,150.437 C315.133,152.065 312.729,153.423 311.924,153.43 C311.253,153.435 310.052,154.249 309.121,155.195 C308.324,156.274 304.319,158.719 300.311,160.895 C294.032,164.161 292.29,164.442 289.464,163.123 C287.58,162.332 284.088,161.688 281.539,161.707 L276.845,161.742 L276.781,153.158 L276.716,144.575 L270.102,139.126 C266.458,136.068 262.953,133.68 262.148,133.687 C259.868,133.704 249.188,140.357 246.261,143.464 C244.664,145.219 243.21,148.047 242.956,149.927 C242.709,152.746 241.774,153.289 237.886,153.452 C235.204,153.607 230.924,155.115 228.122,157.147 C225.32,159.046 221.714,161.086 220.109,161.634 C218.503,162.183 215.431,163.815 213.296,165.307 C211.295,166.797 204.884,170.467 199.274,173.46 C193.663,176.454 188.187,179.58 187.122,180.527 C186.056,181.474 182.717,183.511 179.778,185.008 C171.627,189.094 160.542,195.347 151.73,200.779 C147.324,203.36 142.249,206.35 140.379,207.303 C138.509,208.256 136.641,209.611 135.977,210.42 C134.383,212.445 136.04,218.87 139.155,222.737 C140.644,224.603 141.871,227.276 141.881,228.618 C141.899,231.032 140.559,231.176 124.465,231.298 L107.029,231.429 L94.255,244.938 L81.347,258.449 L46.475,258.712 C24.211,258.88 9.865,259.524 6.519,260.488 C1.836,261.999 1.304,262.674 0.672,267.642 C0.158,270.73 0.19,292.727 0.639,316.733 L1.372,360.453 L10.156,369.239 L18.941,378.159 L42.419,378.786 C55.299,379.226 67.108,380.076 68.589,380.735 C70.069,381.395 72.893,382.446 74.776,383.103 C77.6,384.02 78.55,385.489 79.254,389.909 C80.378,396.741 85.287,407.3 87.842,408.22 C88.784,408.615 96.482,415.666 104.995,424.052 C113.509,432.438 121.072,439.22 121.876,439.214 C122.547,439.209 123.762,440.274 124.577,441.608 C126.48,444.948 138.42,445.26 235.391,444.93 C280.993,444.72 318.684,444.839 318.954,445.104 C319.225,445.371 336.259,445.51 356.781,445.489 L394.066,445.208 L398.728,440.881 z" fill="#000000"/>
  </g>
</svg>
