<?xml version="1.0" encoding="UTF-8"?>
<!DOCTYPE svg PUBLIC "-//W3C//DTD SVG 1.1//EN" "http://www.w3.org/Graphics/SVG/1.1/DTD/svg11.dtd">
<svg version="1.1" xmlns="http://www.w3.org/2000/svg" xmlns:xlink="http://www.w3.org/1999/xlink" x="0" y="0" width="500" height="500" viewBox="0, 0, 500, 500">
  <g id="layer101">
    <path d="M258.896,401.701 C252.954,399.596 252.52,399.534 250.044,400.339 C247.754,401.082 247.382,401.02 246.268,400.029 C245.587,399.41 245.03,398.544 245.03,398.11 C245.03,397.677 244.225,396.315 243.173,395.201 C241.687,393.468 240.883,393.096 239.026,393.096 C237.602,393.096 233.702,391.982 229.369,390.249 C222.065,387.339 219.465,386.782 218.722,387.958 C218.536,388.33 217.67,388.577 216.865,388.577 C215.255,388.577 214.079,387.03 214.079,384.987 C214.079,383.254 212.098,381.768 209.808,381.768 C208.756,381.768 204.484,380.53 200.399,378.983 C193.156,376.259 192.971,376.259 190.928,377.188 C188.08,378.549 185.542,377.373 184.923,374.464 C184.676,373.288 183.438,371.183 182.138,369.821 C180.838,368.397 178.3,365.674 176.567,363.817 C173.472,360.536 173.348,360.288 173.038,356.079 C172.729,351.56 170.686,346.051 169.138,345.432 C168.643,345.246 167.838,345.432 167.343,345.865 C166.539,346.546 166.043,346.36 164.496,344.751 C162.639,342.894 162.639,342.832 163.815,341.656 C164.496,340.975 165.424,340.294 165.858,340.17 C166.477,339.984 166.043,338.808 164.31,335.899 C162.824,333.547 161.896,331.132 161.834,329.956 C161.834,328.471 161.524,327.914 160.782,327.914 C160.225,327.914 159.358,327.295 158.863,326.552 C157.625,324.695 156.325,325.623 156.882,328.037 C157.191,329.647 157.129,329.894 156.201,329.585 C155.644,329.337 154.715,329.152 154.158,329.09 C153.415,329.09 153.539,328.904 154.53,328.533 C155.272,328.223 155.891,327.666 155.891,327.356 C155.891,326.304 152.734,320.795 152.115,320.795 C151.806,320.795 150.506,322.219 149.206,323.89 C147.039,326.676 146.606,326.985 144.687,326.799 C143.511,326.676 141.902,326.242 141.035,325.809 C140.168,325.376 137.816,324.138 135.773,323.085 C133.731,322.033 130.945,320.981 129.583,320.733 C128.221,320.547 126.055,319.804 124.817,319.185 C122.155,317.824 116.522,315.719 93.804,307.486 C91.823,306.805 89.161,305.691 87.923,305.01 C86.685,304.329 85.323,303.772 84.952,303.772 C84.519,303.772 82.166,303.091 79.628,302.224 C77.152,301.358 74.738,300.677 74.305,300.677 C73.19,300.677 67.991,305.629 67.991,306.619 C67.991,307.115 68.3,308.043 68.734,308.662 C69.662,310.21 68.981,311.695 66.938,312.5 C64.586,313.429 62.234,312.933 56.477,310.395 C53.815,309.157 48.987,307.053 45.83,305.691 C35.864,301.358 30.292,298.51 29.921,297.644 C29.55,296.777 31.035,294.425 37.844,284.954 C41.62,279.754 41.868,279.011 40.444,276.287 C39.144,273.811 39.268,273.007 41.435,269.664 C42.487,267.993 43.168,266.445 42.982,266.074 C42.673,265.578 30.292,261.431 16.798,257.345 C13.022,256.169 12.093,255.612 10.917,253.755 C10.112,252.579 8.998,250.784 8.317,249.793 C7.265,248.06 7.203,247.936 8.255,246.822 C9.246,245.708 9.308,245.213 8.627,241.746 C8.193,239.58 7.76,237.042 7.574,235.989 C7.327,234.565 7.698,233.451 9.122,231.347 C10.174,229.799 11.041,228.066 11.041,227.509 C11.041,226.89 9.122,225.404 5.594,223.485 L0.208,220.514 L0.022,215.562 C-0.163,211.476 0.827,202.5 2.189,195.443 C2.56,193.525 10.36,186.034 14.384,183.744 C16.117,182.754 18.717,181.639 20.141,181.268 C22.059,180.711 23.05,180.03 23.731,178.792 C26.207,173.964 31.716,170.064 36.111,170.064 C39.021,170.064 38.402,169.135 34.316,167.278 C32.583,166.473 30.169,164.74 28.931,163.44 C27.321,161.707 25.093,160.407 20.636,158.612 C15.126,156.383 14.384,155.826 12.155,152.855 C8.874,148.46 8.503,145.922 10.731,143.817 C11.722,142.889 13.517,141.898 14.879,141.465 C17.85,140.598 18.036,140.289 19.088,135.77 C19.583,133.727 20.574,131.375 21.317,130.508 C22.059,129.58 23.05,127.723 23.483,126.237 C24.164,123.823 24.164,123.452 22.864,121.718 C22.121,120.666 21.317,118.933 21.131,117.757 C20.821,115.9 21.193,115.219 24.04,111.938 C27.445,108.038 27.569,107.976 36.235,105.686 C38.463,105.129 39.206,105.252 42.116,106.49 C45.892,108.162 46.944,109.833 46.944,114.042 C46.944,116.457 47.13,116.828 48.244,116.828 C49.915,116.828 57.963,119.552 63.224,121.966 L67.434,123.885 L79.319,119.985 L91.204,116.085 L98.323,116.828 C109.155,117.942 114.541,118.561 116.646,118.995 C118.441,119.366 118.565,119.242 119.617,116.58 C120.669,113.857 120.669,113.671 119.493,111.752 C117.079,107.728 117.203,106.676 120.422,103.086 C124.074,98.876 124.569,98.567 128.655,97.638 C130.512,97.205 132.802,96.586 133.731,96.277 C135.216,95.719 135.897,95.967 138.559,97.638 C142.335,100.053 142.892,100.981 142.892,105.067 L142.892,108.224 L145.925,107.79 C148.154,107.481 149.887,107.728 152.611,108.657 C154.591,109.338 162.082,111.628 169.2,113.671 C176.381,115.714 183.314,117.818 184.676,118.314 C186.904,119.118 187.338,119.057 189.566,117.942 C192.228,116.58 193.404,116.642 198.728,118.685 C201.761,119.799 202.318,120.295 203.246,122.523 C203.803,123.947 204.98,125.928 205.784,126.918 C206.651,127.97 208.199,130.446 209.251,132.551 C211.356,136.699 211.851,137.256 213.894,137.256 C216.246,137.256 218.412,138.618 218.784,140.289 C219.465,143.446 220.269,144.684 222.25,145.489 C223.365,145.984 225.16,147.036 226.15,147.903 C228.936,150.255 230.483,150.874 233.207,150.874 C238.469,150.874 244.225,152.793 247.63,155.641 C249.859,157.498 250.539,157.745 253.325,157.621 C256.173,157.498 258.401,157.745 262.796,158.674 C263.539,158.798 265.458,160.036 267.005,161.397 C268.553,162.759 270.348,163.935 270.905,163.935 C271.462,163.997 273.381,164.121 275.053,164.183 C276.786,164.245 279.386,164.554 280.933,164.802 C284.028,165.359 290.961,168.764 293.314,170.93 C294.49,172.045 295.852,172.478 299.071,172.725 C301.423,172.973 305.261,173.716 307.551,174.459 C311.327,175.697 312.07,175.759 314.237,175.078 C316.527,174.335 317.208,174.459 326.493,177.43 L336.336,180.649 L339.121,184.115 C340.669,186.034 342.278,188.139 342.711,188.882 C343.764,190.677 343.145,193.525 341.164,195.629 C339.059,197.734 339.74,199.281 342.897,199.839 C344.073,200.086 350.573,201.696 357.382,203.429 C366.42,205.781 370.691,207.205 373.167,208.752 C375.024,209.867 380.348,212.033 384.928,213.581 C403.004,219.709 418.479,227.694 437.978,240.941 C443.983,245.027 459.149,257.469 465.711,263.659 C469.115,266.94 478.091,275.978 485.705,283.839 C501.614,300.305 501.428,299.934 498.395,306.372 C495.547,312.376 483.105,327.295 480.938,327.295 C480.629,327.295 477.905,330.266 474.872,333.918 C467.691,342.708 466.763,343.575 459.52,348.651 C456.116,351.003 451.906,354.469 450.173,356.265 C447.14,359.484 446.892,359.607 439.774,361.402 C435.812,362.393 431.85,363.198 431.107,363.198 C430.303,363.198 426.65,362.207 422.998,361.031 C417.737,359.298 415.756,358.926 413.651,359.236 C411.113,359.607 410.989,359.545 409.504,357.255 C406.408,352.365 405.604,351.932 401.642,352.365 C398.671,352.736 397.185,352.489 392.914,351.065 C389.447,349.951 386.29,349.394 383.381,349.332 L379.11,349.27 L377.315,346.608 C374.653,342.708 373.229,341.903 370.196,342.832 C367.967,343.451 367.039,343.327 361.344,341.594 C357.877,340.542 353.854,339.675 352.368,339.675 C350.202,339.675 349.459,339.365 348.592,338.127 C347.973,337.261 345.559,333.98 343.145,330.947 C339.059,325.623 338.812,325.128 338.44,321.352 C338.007,316.152 337.016,315.038 333.736,316.028 C332.436,316.462 329.279,316.895 326.741,317.019 C324.203,317.205 321.912,317.328 321.665,317.328 C320.427,317.452 321.417,320.609 323.708,323.828 C325.379,326.18 327.174,327.79 329.217,328.842 C332.745,330.637 334.54,333.237 335.531,338.065 C336.459,342.275 335.902,343.637 328.969,354.098 C322.841,363.26 321.912,364.436 319.87,365.179 C318.755,365.55 317.084,367.407 314.979,370.626 C309.037,379.664 306.251,382.759 299.504,387.649 C292.261,392.911 288.981,395.82 288.981,397.058 C288.981,397.491 288.362,398.234 287.557,398.729 C285.947,399.782 269.048,404.053 266.758,403.991 C265.829,403.991 262.301,402.939 258.896,401.701 z M281.181,187.644 C282.667,187.087 282.357,185.601 280.562,184.92 C278.457,184.115 277.652,184.115 276.229,185.168 C275.115,186.034 275.176,186.096 277.219,187.025 C279.757,188.139 279.881,188.139 281.181,187.644 z M260.01,180.525 C261.31,179.844 261.31,179.782 260.196,178.978 C259.577,178.482 257.472,178.111 255.615,178.111 C249.24,178.049 243.73,176.13 240.759,172.911 C238.84,170.868 235.126,170.621 235.126,172.478 C235.126,174.025 238.283,176.687 241.192,177.492 C253.82,181.082 257.782,181.701 260.01,180.525 z M222.312,169.445 C223.117,168.702 220.888,165.731 219.588,165.731 C218.227,165.731 216.803,168.269 217.422,169.754 C217.731,170.559 218.227,170.683 219.774,170.373 C220.888,170.126 222.065,169.692 222.312,169.445 z" fill="#000000"/>
  </g>
</svg>
