<?xml version="1.0" encoding="UTF-8"?>
<!DOCTYPE svg PUBLIC "-//W3C//DTD SVG 1.1//EN" "http://www.w3.org/Graphics/SVG/1.1/DTD/svg11.dtd">
<svg version="1.1" xmlns="http://www.w3.org/2000/svg" xmlns:xlink="http://www.w3.org/1999/xlink" x="0" y="0" width="500" height="500" viewBox="0, 0, 500, 500">
  <g id="layer101">
    <path d="M39.334,342.545 C39.19,342.432 38.171,342.156 36.967,341.949 C35.801,341.707 33.941,341.377 32.847,341.173 C31.754,340.932 29.858,340.601 28.654,340.394 C24.35,339.651 24.278,339.613 24.22,336.977 C24.163,334.304 23.81,333.675 22.42,333.647 C21.871,333.637 21.253,333.441 21.002,333.181 C20.679,332.845 20.633,329.587 20.808,320.734 C21.035,309.211 21.082,308.699 21.791,308.018 C22.201,307.624 22.83,307.307 23.196,307.314 C24.293,307.335 24.748,306.54 24.787,304.564 C24.819,302.918 24.973,302.518 25.827,301.913 C26.348,301.484 27.235,301.063 27.749,300.963 C30.283,300.501 35.062,299.424 36.092,299.152 C36.718,298.944 37.636,298.816 38.185,298.827 C38.733,298.838 39.907,298.678 40.827,298.44 C42.409,298.032 42.518,298.071 43.487,299.041 C44.815,300.348 45.438,300.324 47.15,298.857 C48.341,297.819 48.894,297.611 50.543,297.534 C54.022,297.419 53.379,296.602 47.901,294.188 C46.485,293.574 44.852,292.884 44.235,292.652 C43.653,292.457 42.02,291.766 40.605,291.153 C39.225,290.577 36.175,289.382 33.886,288.532 C26.256,285.746 21.124,284.327 9.172,281.713 C5.747,280.95 5.5,280.506 5.611,274.872 C5.688,270.995 5.595,270.151 5.025,269.335 C4.671,268.742 4.33,267.455 4.244,266.282 C4.163,264.816 3.851,263.895 3.175,262.93 C2.284,261.742 2.219,261.338 2.278,258.302 C2.331,255.631 2.497,254.646 3.181,253.342 C3.943,251.857 3.949,251.528 3.585,249.581 C3.352,248.405 3.051,246.972 2.88,246.347 C2.709,245.758 2.409,244.252 2.214,243.04 C1.787,240.579 1.553,239.44 0.531,235.578 C0.121,234.106 -0.105,232.601 0.048,232.238 C0.438,231.038 17.39,219.479 24.198,215.734 C25.197,215.205 27.01,214.179 28.232,213.472 C31.378,211.667 43.827,205.801 48.179,204.058 C55.299,201.197 58.911,199.914 64.398,198.156 C69.627,196.503 69.923,196.363 69.83,195.519 C69.329,191.227 69.42,190.314 70.353,189.381 C71.213,188.483 71.29,188.265 70.998,186.393 C70.646,183.824 71.199,181.749 72.417,181.224 C73.857,180.594 74.542,181.12 74.256,182.615 C73.934,184.109 74.675,185.514 76.232,186.35 C77.209,186.882 77.393,186.848 78.541,186.176 C80.874,184.795 85.447,179.286 85.476,177.823 C85.483,177.457 85.09,177.01 84.618,176.781 C83.529,176.357 82.245,174.648 82.265,173.66 C82.284,172.709 83.263,171.265 83.885,171.277 C84.141,171.282 84.72,171.623 85.224,172.035 C86.413,173.011 86.779,172.981 88.118,171.91 C89.346,170.873 90.555,168.957 91.897,165.873 C92.625,164.204 93.375,163.267 95.647,161.299 C100.002,157.542 101.514,156.986 107.774,156.854 C111.399,156.779 111.654,156.821 113.974,157.965 C117.127,159.527 119.244,161.655 120.718,164.868 C121.876,167.343 121.909,167.563 121.725,171.292 L121.575,175.205 L123.107,177.285 C123.926,178.435 124.598,179.62 124.593,179.912 C124.58,180.534 128.313,186.097 129.036,186.551 C129.289,186.702 129.897,187.446 130.32,188.223 C131.417,190.147 132.815,191.639 133.51,191.653 C134.205,191.666 135.317,192.786 135.303,193.481 C135.299,193.7 135.653,194.293 136.12,194.741 C136.55,195.226 137.119,196.042 137.328,196.595 C137.608,197.259 138.04,197.597 138.589,197.608 C139.686,197.63 141.601,198.875 142.347,200.024 C143.163,201.358 142.737,202.521 141.07,203.549 C139.477,204.505 139.047,205.924 139.898,207.295 C140.182,207.74 141.368,208.861 142.521,209.762 C144.393,211.3 144.756,211.453 146.622,211.49 C148.634,211.53 148.67,211.567 148.577,212.554 C148.53,213.101 147.492,215.606 146.309,218.071 C144.706,221.406 144.205,222.714 144.527,223.05 C145.066,223.609 148.377,224.553 151.333,224.977 C154.617,225.445 156.913,225.929 158.219,226.504 C158.8,226.771 159.493,226.895 159.787,226.791 C160.046,226.686 160.703,226.772 161.247,227.003 C162.046,227.311 162.596,227.249 163.963,226.617 L165.698,225.846 L166.962,226.676 C168.553,227.696 169.284,227.71 173.66,226.626 C178.698,225.408 179.248,225.345 179.896,225.907 C180.328,226.281 181.68,226.381 184.974,226.373 C189.036,226.38 189.619,226.465 190.521,227.141 C192.144,228.345 193.169,228.328 193.926,227.062 C194.495,226.049 194.716,225.98 196.361,226.086 C197.348,226.142 198.481,226.2 198.883,226.208 C199.287,226.18 200.897,226.175 202.434,226.169 C204.117,226.202 205.438,226.009 205.699,225.758 C206.445,225.04 208.491,225.227 209.316,226.085 C209.71,226.495 210.023,227.307 210.013,227.855 C209.97,230.014 211.792,230.416 213.765,228.735 C214.471,228.163 215.396,227.669 215.798,227.677 C217.371,227.708 220.36,222.753 220.414,220.046 C220.45,218.217 221.561,217.544 224.414,217.6 C226.646,217.644 227.154,217.837 230.304,219.583 C236.348,222.996 239.102,224.367 241.902,225.264 C248.375,227.368 249.175,227.604 249.907,227.618 C250.346,227.627 252.601,228.33 254.963,229.182 C259.177,230.729 259.287,230.731 264.628,230.837 L270.006,230.943 L271.424,229.544 C272.73,228.252 272.988,228.147 274.338,228.357 C275.36,228.523 276.131,228.392 276.909,227.932 C277.907,227.402 278.237,227.372 279.473,227.799 C280.745,228.264 281.038,228.233 282.405,227.564 C283.255,227.142 284.249,226.832 284.652,226.84 C286.225,226.871 289.422,228.032 290.829,229.085 L292.271,230.174 L298.383,230.149 C303.69,230.144 304.679,230.054 305.679,229.451 C306.383,229.026 307.559,228.756 308.474,228.774 C310.67,228.781 313.171,228.135 314.618,227.102 C315.583,226.463 316.098,226.326 317.082,226.529 C317.81,226.69 318.69,226.634 319.134,226.386 C319.762,226.069 320.274,226.116 321.328,226.466 C322.527,226.892 322.784,226.861 323.786,226.185 C325.64,224.941 327.207,225.265 327.866,227.108 C328.213,228.066 328.322,228.141 329.608,227.874 C331.041,227.573 332.468,227.564 335.171,227.837 C336.084,227.929 337.331,227.807 337.92,227.599 C338.547,227.392 339.43,227.116 339.944,227.053 C340.642,226.921 340.979,226.525 341.369,225.325 C342.38,222.307 342.64,222.13 345.822,222.192 C347.578,222.227 348.855,222.435 349.106,222.696 C349.643,223.256 356.23,223.312 388.145,223.138 C398.1,223.078 399.639,222.999 400.748,222.435 C401.746,221.906 402.443,221.846 404.415,222.032 C405.73,222.167 408.506,222.442 410.552,222.592 C414.024,222.843 414.391,222.814 415.467,222.067 C416.468,221.391 416.835,221.325 418,221.641 C418.728,221.875 419.641,221.929 420.047,221.791 C420.415,221.652 421.442,221.526 422.284,221.542 C423.638,221.532 423.971,221.356 425.02,220.096 L426.22,218.656 L429.659,218.724 C434.487,218.819 434.523,218.856 434.194,222.583 C433.905,226.09 434.223,226.645 436.923,227.065 C439.294,227.441 439.477,227.444 441.499,226.972 C442.528,226.773 445.386,226.573 447.911,226.586 C452.851,226.647 453.759,226.958 453.727,228.567 C453.714,229.263 454.53,230.559 454.969,230.568 C455.005,230.569 456.109,230.261 457.397,229.884 C460.194,229.098 463.524,227.26 465.723,225.291 C466.616,224.503 467.58,223.864 467.873,223.869 C468.202,223.876 468.888,224.365 469.462,224.926 C470.144,225.634 471.195,226.131 472.652,226.489 C473.818,226.732 475.892,227.322 477.202,227.75 C478.511,228.141 479.895,228.498 480.334,228.507 C481.358,228.527 484.81,229.766 491.634,232.609 C495.518,234.259 497.99,235.077 498.759,235.019 C499.675,234.964 499.929,235.078 499.99,235.702 C500.056,236.106 499.788,236.686 499.416,237.008 C497.814,238.404 489.728,242.013 483.06,244.297 C479.743,245.439 469.116,248.047 467.909,248.023 C467.543,248.016 465.88,246.959 464.295,245.683 C460.584,242.755 456.193,240.875 454.387,241.499 C453.761,241.706 452.44,241.863 451.489,241.844 C449.953,241.814 449.583,241.99 448.019,243.386 C447.013,244.281 445.788,245.171 445.235,245.344 C443.908,245.83 443.218,247.426 443.013,250.423 L442.82,252.761 L444.517,253.93 C445.456,254.57 447.659,256.041 449.393,257.173 C453.187,259.663 457.035,263.07 462.162,268.477 C465.353,271.797 466.181,272.509 467.096,272.527 C468.486,272.554 469.305,273.705 469.267,275.607 C469.252,276.375 469.479,277.844 469.789,278.838 C470.271,280.384 470.297,280.934 469.869,282.206 C469.32,284.025 468.261,285.797 466.689,287.559 C466.053,288.279 464.853,289.719 464.027,290.764 C463.202,291.809 461.591,293.68 460.469,294.902 C459.347,296.125 456.729,298.964 454.672,301.229 C450.67,305.578 446.783,309.673 443.984,312.436 C442.38,313.978 442.121,314.119 440.475,314.087 C438.829,314.054 438.497,314.194 436.338,316.018 C435.036,317.09 433.553,318.085 433.002,318.184 C429.841,318.89 427.021,320.848 420.796,326.58 C416.621,330.413 416.621,330.45 414.828,330.414 C412.889,330.376 412.408,330.696 411.973,332.298 C411.816,332.88 411.252,333.601 410.697,333.919 C410.179,334.238 408.915,335.202 407.947,336.061 C406.234,337.527 406.049,337.633 404.443,337.419 C399.369,336.77 397.918,336.119 393.414,332.59 C389.989,329.961 389.844,329.885 388.188,330.328 C386.275,330.839 385.828,331.233 385.807,332.294 C385.791,333.135 382.909,336.372 382.214,336.358 C382.068,336.355 381.401,336.744 380.733,337.244 C379.395,338.242 377.893,338.322 376.555,337.527 C376.048,337.224 375.285,336.99 374.81,336.944 C373.676,336.921 371.504,335.707 369.018,333.755 C365.522,331.015 365.087,330.787 363.074,330.82 C360.915,330.814 360.396,331.133 360.074,332.627 C359.915,333.246 359.389,333.968 358.796,334.322 C358.24,334.677 357.645,335.141 357.457,335.393 C357.307,335.61 356.415,336.325 355.488,336.892 C353.523,338.207 351.581,338.315 350.213,337.19 C349.708,336.778 348.727,336.429 348.032,336.415 C347.008,336.395 346.067,335.864 343.509,333.837 C340.842,331.735 340.197,331.027 339.819,329.776 C339.441,328.561 339.155,328.225 338.244,328.025 C336.203,327.582 331.097,322.98 331.124,321.626 C331.16,319.834 328.537,319.196 326.935,320.628 C326.078,321.38 325.895,321.413 324.659,320.986 C323.242,320.482 316.326,320.456 314.121,320.924 C313.239,321.09 312.839,320.972 312.338,320.377 C311.479,319.409 310.492,319.353 309.303,320.28 C307.78,321.421 303.759,321.196 301.881,319.914 C301.123,319.387 300.107,318.928 299.632,318.919 C297.546,318.914 293.911,319.537 292.839,320.065 C292.174,320.381 291.29,320.657 290.815,320.647 C290.302,320.637 289.153,321.383 287.925,322.42 C283.605,326.214 281.646,327.2 279.719,326.577 C278.628,326.226 278.187,326.327 276.192,327.276 C273.31,328.646 270.088,328.728 268.466,327.489 C267.528,326.775 266.908,326.69 262.372,326.6 C257.398,326.465 257.25,326.499 254.887,327.587 C251.969,328.92 250.285,328.96 248.553,327.718 C247.362,326.853 247.034,326.81 243.738,326.928 C241.394,327.028 239.786,326.923 238.841,326.575 C237.569,326.147 237.312,326.179 235.464,327.094 C232.508,328.536 227.851,329.029 226.7,328.019 C226.412,327.757 224.918,327.398 223.385,327.221 C220.938,326.953 220.498,327.018 219.68,327.66 C218.454,328.588 217.54,328.57 217.558,327.618 C217.574,326.814 216.563,326.135 215.752,326.412 C215.458,326.516 214.755,326.868 214.199,327.223 C213.679,327.615 212.686,327.888 211.991,327.875 C210.966,327.854 210.263,328.28 208.065,330.213 C206.166,331.895 205.267,332.938 204.992,333.885 C203.893,337.669 200.566,339.36 194.53,339.24 C190.982,339.134 190.727,339.092 189.393,338.041 C187.988,336.952 187.878,336.914 183.598,336.829 L179.245,336.743 L177.99,335.437 C177.129,334.542 176.406,334.125 175.711,334.112 C174.175,334.081 173.533,333.19 173.573,331.178 C173.61,329.276 173.042,328.387 172.01,328.769 C171.163,329.082 170.661,330.389 170.622,332.328 C170.584,334.267 170.099,334.733 165.402,337.238 L161.888,339.145 L151.716,339.054 C141.947,338.971 141.508,338.926 140.608,338.176 C139.347,337.163 136.567,337.108 135.267,338.071 C134.376,338.749 133.79,338.774 118.462,338.471 C100.902,338.124 102.773,337.942 96.17,340.593 C89.603,343.244 90.521,343.116 78.267,342.801 C70.549,342.612 66.816,342.648 65.895,342.923 C64.827,343.268 64.388,343.259 63.701,342.843 C62.977,342.463 62.538,342.454 61.58,342.764 C60.843,343.043 58.023,343.133 53.999,343.054 C48.256,342.941 47.526,342.853 46.551,342.175 C45.179,341.233 43.752,341.205 42.893,342.103 C42.257,342.786 39.835,343.104 39.334,342.545 z M151.531,296.526 C151.905,296.094 151.8,295.873 151.042,295.346 C150.247,294.817 149.882,294.774 148.704,295.116 C147.932,295.321 146.611,295.478 145.806,295.462 C144.306,295.432 143.64,295.822 144.065,296.525 C144.419,297.118 151.006,297.138 151.531,296.526 z M109.315,288.3 C110.503,287.446 110.796,287.415 114.233,287.592 L117.889,287.774 L118.017,286.862 C118.105,286.095 117.747,285.722 115.578,284.325 C113.158,282.74 110.792,280.206 109.666,277.951 C108.577,275.66 107.05,265.859 107.201,261.946 C107.266,260.484 107.23,260.446 105.593,259.938 C104.32,259.547 103.736,259.499 103.034,259.815 C102.518,260.024 101.782,260.193 101.417,260.185 C100.209,260.161 100.519,261.156 103.309,266.261 L105.922,271.107 L106.792,277.089 C107.626,283.034 107.624,283.107 106.961,285.217 C106.378,286.925 106.329,287.546 106.644,288.284 C107.169,289.466 107.682,289.439 109.315,288.3 z M170.592,276.409 C170.816,276.157 170.978,275.392 170.954,274.733 C170.896,273.963 171.053,273.453 171.422,273.314 C171.717,273.174 172.678,272.717 173.528,272.295 C174.378,271.872 175.702,271.533 176.47,271.548 C178.372,271.585 179.339,270.836 180.075,268.764 C180.656,267.129 180.662,266.836 180.055,264.189 C179.72,262.646 178.991,260.619 178.496,259.73 C178.002,258.806 177.581,257.919 177.585,257.7 C177.589,257.517 178.266,256.579 179.089,255.68 C179.912,254.781 180.587,253.916 180.59,253.77 C180.593,253.624 180.275,253.032 179.885,252.402 C179.495,251.809 179.182,250.925 179.19,250.522 C179.199,250.083 178.991,249.53 178.702,249.305 C178.307,248.931 177.938,249.107 176.931,250.038 C175.028,251.904 173.592,252.315 171.519,251.688 C170.61,251.378 168.786,251.085 167.47,251.023 C164.508,250.891 162.543,250.34 161.466,249.294 C160.676,248.51 160.493,248.506 152.66,248.571 C148.012,248.626 144.458,248.812 144.161,249.026 C143.566,249.526 143.844,255.826 144.523,256.645 C145.131,257.388 146.415,260.927 146.397,261.805 C146.389,262.207 146.956,263.17 147.637,263.915 C148.747,265.145 149.073,265.298 150.865,265.37 C152.876,265.446 152.913,265.447 155.711,268.32 C158.438,271.046 160.352,272.327 161.816,272.356 C162.181,272.363 163.054,272.673 163.742,273.053 C164.429,273.469 165.481,273.892 166.027,274.049 C166.755,274.247 167.222,274.695 167.571,275.581 C167.99,276.614 168.277,276.875 169.118,276.892 C169.704,276.903 170.367,276.697 170.592,276.409 z M89.413,228.659 C90.163,227.759 91.317,226.757 91.945,226.476 C92.61,226.16 93.201,225.843 93.276,225.771 C93.388,225.663 93.536,223.727 93.655,221.387 C93.855,216.816 94.166,215.908 96.104,214.152 C97.556,212.864 98.353,211.452 98.377,210.209 C98.387,209.696 99.08,207.99 99.915,206.47 C100.751,204.912 101.445,203.133 101.458,202.474 C101.507,199.95 102.747,198.364 104.685,198.403 C105.71,198.423 106.071,198.649 106.566,199.538 C107.237,200.758 107.746,200.915 108.457,200.124 C108.757,199.764 108.854,198.558 108.761,195.848 C108.517,189.659 108.858,183.554 109.636,181.227 C109.988,180.063 109.96,179.623 109.436,178.369 C108.771,176.818 108.156,176.44 106.181,176.402 C103.291,176.345 98.967,180.321 98.912,183.101 C98.887,184.382 96.964,187.271 96.122,187.255 C95.391,187.24 94.637,188.323 93.826,190.503 C92.624,193.92 90.953,196.997 89.761,198.035 C89.165,198.572 88.085,199.502 87.377,200.147 L86.111,201.256 L86.026,205.573 C85.957,209.048 86.049,210.002 86.55,210.561 C86.872,210.933 87.342,211.235 87.598,211.24 C87.854,211.245 88.54,211.698 89.152,212.222 C90.051,213.008 90.262,213.452 90.239,214.622 C90.216,215.793 89.948,216.373 88.679,217.629 C87.371,219.03 87.217,219.393 87.379,220.458 C87.544,221.376 87.384,222.068 86.779,223.044 C86.062,224.165 86.015,224.676 86.188,227.021 C86.269,228.487 86.463,229.808 86.532,229.992 C86.921,230.696 88.14,230.134 89.413,228.659 z M78.71,194.303 C79.704,193.994 80.591,193.535 80.668,193.354 C80.785,192.991 77.621,192.013 76.231,191.986 C75.865,191.979 74.925,191.374 74.208,190.628 C73.347,189.733 72.66,189.317 72.255,189.455 C71.738,189.665 71.735,189.811 72.223,191.065 C73.094,193.278 74.747,194.811 76.357,194.879 C76.648,194.922 77.715,194.65 78.71,194.303 z" fill="#000000"/>
  </g>
</svg>
