<?xml version="1.0" encoding="UTF-8"?>
<!DOCTYPE svg PUBLIC "-//W3C//DTD SVG 1.1//EN" "http://www.w3.org/Graphics/SVG/1.1/DTD/svg11.dtd">
<svg version="1.1" xmlns="http://www.w3.org/2000/svg" xmlns:xlink="http://www.w3.org/1999/xlink" x="0" y="0" width="500" height="500" viewBox="0, 0, 500, 500">
  <g id="layer101">
    <path d="M176.517,498.892 C174.232,498.299 172.032,497.368 171.609,496.945 C169.071,494.407 168.055,474.099 170.34,472.238 C170.932,471.73 171.694,470.207 171.948,468.938 C172.201,467.669 174.148,464.622 176.178,462.169 C180.663,456.669 182.778,451.169 182.948,443.807 L183.117,438.138 L178.886,434.415 C176.517,432.384 174.401,430.692 174.063,430.692 C173.724,430.692 172.878,429.846 172.201,428.746 C171.101,427.138 171.101,426.207 172.032,422.653 C173.301,417.492 175.417,416.815 179.732,420.03 C182.863,422.399 183.963,422.738 184.809,421.299 C185.655,420.03 182.863,417.322 178.801,415.546 C174.317,413.515 173.64,411.484 175.924,407.084 C176.855,405.138 177.786,403.615 177.955,403.615 C178.209,403.615 180.071,404.376 182.271,405.307 C187.009,407.338 189.463,407.507 189.463,405.73 C189.463,404.969 187.517,403.615 184.894,402.43 C179.986,400.23 178.717,399.046 179.901,397.438 C180.663,396.507 184.809,384.83 188.448,373.153 C189.378,370.107 191.24,363.253 192.509,357.923 C193.778,352.592 196.063,345.569 197.671,342.269 C199.194,339.053 200.463,335.923 200.463,335.246 C200.463,334.653 201.224,332.623 202.24,330.676 C203.34,328.561 203.763,326.53 203.509,325.261 C203.086,323.653 203.594,322.638 205.709,320.692 C207.486,319.084 208.924,318.323 209.771,318.661 C210.447,319 212.309,319.423 213.747,319.676 C217.386,320.184 218.317,318.069 215.863,314.853 C214.001,312.23 211.717,307.323 209.009,299.961 C207.909,297.169 206.724,294.461 206.301,293.869 C204.609,291.838 203.086,293.7 202.578,298.523 C200.886,314.938 198.855,319.423 188.448,329.153 L180.832,336.43 L183.032,339.053 C186.671,343.369 185.401,349.461 180.155,353.015 C177.955,354.453 177.109,355.723 176.94,357.753 C176.686,359.784 175.078,361.984 169.494,367.484 L162.301,374.507 L162.809,379.161 C163.571,385.761 161.794,391.007 158.578,391.938 C157.14,392.361 155.278,393.122 154.263,393.63 C151.555,394.899 145.124,391.515 145.886,389.146 C146.563,387.199 144.278,384.153 142.248,384.153 C141.571,384.153 139.455,385.507 137.509,387.199 C131.332,392.53 116.694,403.953 113.055,406.407 C108.486,409.369 99.601,411.146 97.74,409.538 C95.709,407.93 96.048,405.73 99.094,399.892 C102.648,393.292 111.617,383.899 121.348,376.538 C125.494,373.407 130.825,369.176 133.109,367.146 C137.171,363.507 137.171,363.507 136.748,359.192 C136.494,356.738 136.748,354.199 137.255,353.269 C137.763,352.338 138.44,349.884 138.694,347.769 C139.117,343.961 139.117,343.961 142.332,343.961 C145.886,343.961 148.848,341.423 148.848,338.376 C148.848,333.469 150.878,328.223 154.855,323.146 C161.624,314.346 165.771,308.169 165.771,306.815 C165.771,305.8 164.84,305.461 162.217,305.292 C160.186,305.292 157.986,305.292 157.309,305.376 C146.309,306.73 142.84,306.73 141.74,305.461 C141.063,304.784 140.301,300.807 139.963,296.576 C139.117,287.015 139.286,285.323 140.809,282.953 C141.486,281.853 142.417,279.23 142.924,276.946 C143.432,274.746 145.124,270.769 146.648,268.23 C148.848,264.592 149.609,262.307 149.863,257.992 C150.455,250.461 152.909,245.215 157.224,242.423 C159.424,240.9 160.948,239.123 161.624,237.177 C162.809,233.623 165.263,232.438 174.401,231 C183.54,229.646 190.563,226.684 195.386,222.2 C199.871,217.969 205.54,215.684 207.486,217.377 C208.332,217.969 209.094,222.284 209.855,230.407 C210.532,237.007 211.124,241.069 211.294,239.461 C211.378,237.854 212.055,233.623 212.817,230.154 C214.763,220.169 217.724,217.461 220.771,222.877 C222.717,226.515 224.663,227.446 226.355,225.754 C227.709,224.4 227.624,224.23 225.171,222.792 C221.447,220.677 221.617,218.223 225.678,215.515 C230.078,212.469 234.224,211.877 237.778,213.654 L240.571,215.177 L243.617,211.623 C245.309,209.677 247.34,208.154 248.355,208.154 C249.37,208.154 250.809,207.392 251.655,206.461 C252.501,205.53 253.855,204.769 254.701,204.769 C257.07,204.769 260.54,206.63 260.54,207.9 C260.54,209.423 268.07,217.461 269.509,217.461 C270.101,217.461 272.217,216.615 274.078,215.684 C277.124,214.077 278.563,213.907 284.994,214.246 C292.694,214.669 297.855,216.446 303.693,220.423 C306.317,222.284 310.632,223.469 322.986,226.007 C324.932,226.43 327.217,227.107 328.063,227.53 C329.417,228.292 335.424,234.723 341.601,242 C343.801,244.538 344.309,244.792 345.493,243.777 C346.424,243.015 346.847,241.238 346.847,238.446 C346.847,234.638 347.186,233.877 349.978,231.338 C353.109,228.461 353.109,228.123 349.64,228.461 C348.54,228.546 347.27,227.784 346.424,226.43 C345.663,225.246 344.14,224.061 343.209,223.723 C338.301,222.284 335.678,220.423 334.07,217.292 C332.632,214.5 332.547,213.484 333.224,211.284 C333.817,209.761 333.986,206.123 333.647,202.315 C333.055,195.292 333.393,194.446 337.54,193.515 C340.332,192.838 341.855,190.215 342.363,184.884 C342.87,180.315 341.77,178.2 339.824,180.146 C338.386,181.584 335.255,181.246 330.94,179.046 C325.609,176.338 319.77,175.238 306.74,174.307 C300.732,173.884 295.401,173.123 294.893,172.615 C293.37,171.092 295.486,170.161 302.424,169.146 C306.147,168.638 311.901,167.284 315.117,166.1 C318.417,165 323.155,163.392 325.693,162.546 C328.232,161.7 331.87,160.007 333.647,158.823 C337.624,156.031 338.132,156.031 340.67,158.315 C342.109,159.754 342.617,159.923 342.87,158.992 C343.124,158.315 343.717,156.115 344.309,154 C344.986,151.884 345.578,144.523 345.747,137.5 C346.086,124.977 346.001,124.723 343.886,121.931 C342.024,119.308 341.94,118.8 342.955,117.277 C343.547,116.346 345.578,115.161 347.355,114.654 C352.432,113.384 352.77,112.877 352.77,107.631 C352.77,100.861 354.209,99 359.455,99 C361.74,99 363.94,98.492 364.447,97.984 C364.87,97.392 365.97,85.461 366.732,71.5 C367.493,57.538 368.593,45.354 369.101,44.423 C369.609,43.492 370.286,38.754 370.624,33.846 C370.878,28.938 371.809,23.269 372.57,21.154 C373.247,19.038 373.924,14.723 373.924,11.592 C373.924,4.823 375.616,-0 378.07,-0 C380.947,-0 388.816,9.731 393.724,19.377 C400.493,32.746 402.27,41.292 402.27,60.077 C402.27,89.861 400.832,128.615 399.647,129.546 C397.87,130.984 395.078,129.546 394.486,126.923 C394.063,124.554 391.44,121 390.086,121 C389.324,121 388.309,134.2 388.309,145.369 L388.309,153.238 L392.032,152.731 C396.516,152.054 401.509,153.492 402.693,155.692 C403.878,157.892 403.793,181.584 402.609,183.869 C401.001,186.83 400.155,187.084 391.947,186.492 C382.724,185.9 381.878,186.577 385.263,191.654 C387.293,194.615 387.463,195.546 387.463,204.684 C387.463,214.077 387.378,214.754 384.755,219.746 L382.132,224.992 L384.416,230.238 C386.616,235.061 386.786,235.738 385.855,240.223 C384.586,246.653 382.893,247.923 375.532,247.923 C368.678,247.923 368.593,248.092 371.809,255.961 C374.686,262.984 374.516,264.507 370.54,268.146 C367.324,271.107 367.155,271.446 368.086,273.815 C368.678,275.423 368.932,281.092 368.678,290.23 L368.424,304.192 L371.64,305.63 C374.432,306.984 374.77,307.492 374.77,310.284 C374.77,312.23 375.532,314.6 376.886,316.461 L379.086,319.592 L378.832,352.253 L378.578,384.915 L375.87,387.707 C372.486,391.176 372.486,391.769 375.193,394.307 C376.886,395.915 377.224,396.846 376.801,398.792 C375.87,403.276 379.255,407.846 383.655,407.846 C384.332,407.846 385.263,408.607 385.686,409.453 C387.124,411.992 383.909,415.461 380.101,415.461 C375.701,415.461 372.147,411.23 368.932,402.007 C367.493,398.03 366.14,393.207 365.801,391.346 C365.124,387.115 363.855,384.576 362.924,385.507 C362.501,385.93 362.078,395.153 361.909,405.984 L361.655,425.784 L364.024,427.476 C367.409,429.93 370.032,435.346 368.847,437.546 C366.901,441.015 370.54,445.246 373.84,443.384 C378.747,440.761 381.455,444.315 379.255,450.576 C378.324,453.453 376.801,455.399 373.755,457.853 C370.116,460.645 368.932,461.153 365.378,461.153 C361.655,461.153 361.232,461.322 360.724,463.353 C359.963,466.484 360.978,476.469 362.501,480.022 C363.178,481.715 363.77,484.084 363.77,485.269 C363.77,486.453 364.363,488.399 365.124,489.499 C366.393,491.53 366.393,491.699 364.532,493.307 C362.67,494.915 361.655,495.084 353.786,494.745 C348.963,494.492 344.816,494.153 344.563,493.899 C343.632,492.884 344.309,481.715 345.493,478.753 C346.255,476.892 346.847,473.169 346.847,469.784 C346.847,465.045 346.509,463.692 345.155,462.422 C343.293,460.73 342.955,457.261 344.309,452.692 C346.17,446.43 347.44,387.876 345.917,375.099 C344.986,366.892 345.07,365.623 346.34,363.253 C347.44,360.969 347.693,357.669 347.693,343.623 C347.693,333.469 347.355,326.53 346.847,326.192 C346.424,325.938 343.209,327.038 339.74,328.73 C336.186,330.423 331.193,332.2 328.486,332.707 C324.001,333.553 323.155,333.384 319.347,331.607 C317.063,330.592 312.917,328.223 310.209,326.446 C305.047,322.976 301.832,318.069 300.732,311.976 C300.393,310.2 299.801,308.592 299.378,308.423 C299.04,308.169 298.87,307.407 299.209,306.73 C299.463,305.884 299.124,305.461 298.194,305.461 C297.432,305.461 296.924,305.969 297.178,306.561 C297.347,307.069 297.094,308.169 296.501,308.846 C295.147,310.538 291.847,318.576 291.847,320.184 C291.847,320.946 292.947,321.707 294.724,321.961 C297.517,322.553 297.686,322.807 299.04,328.138 C299.801,331.269 300.986,334.738 301.578,335.923 C302.17,337.107 303.355,340.492 304.117,343.538 C304.793,346.584 306.317,351.746 307.417,354.961 C310.632,364.523 311.055,366.215 313.763,377.807 C316.47,389.992 318.501,403.869 317.74,405.73 C317.486,406.407 316.386,406.999 315.286,406.999 C312.07,406.999 310.97,409.115 310.801,415.63 C310.632,420.284 310.886,421.807 312.07,422.992 C313.424,424.346 313.424,424.684 312.324,426.376 C310.293,429.422 310.801,437.122 313.34,442.538 C314.778,445.499 315.54,448.63 315.54,451.338 C315.54,454.384 316.301,456.922 318.501,461.069 C324.424,472.492 325.101,475.538 321.886,475.538 C321.04,475.538 320.617,476.299 320.617,477.907 C320.701,480.869 322.14,483.407 325.101,485.692 C327.724,487.722 328.147,491.022 326.117,493.899 C324.932,495.592 324.255,495.676 310.209,495.507 C295.317,495.422 292.694,494.915 292.694,492.038 C292.694,489.33 290.324,488.822 282.709,489.838 C274.755,490.938 267.14,489.922 261.724,487.13 C255.294,483.83 248.863,473.93 246.494,463.945 C244.04,453.03 243.701,449.646 243.109,428.999 C242.771,417.492 242.178,407.761 241.671,407.253 C240.147,405.223 238.117,406.153 235.494,410.215 C232.617,414.446 231.347,419.269 230.586,428.238 C229.909,435.599 228.132,441.438 225.34,445.076 C224.155,446.684 221.786,450.746 220.178,453.961 C217.555,459.461 217.301,460.392 217.471,467.076 C217.724,476.807 216.032,494.83 214.763,496.353 C212.14,499.569 209.347,500.076 194.794,499.992 C185.994,499.992 179.055,499.569 176.517,498.892 z" fill="#000000"/>
  </g>
</svg>
