<?xml version="1.0" encoding="UTF-8"?>
<!DOCTYPE svg PUBLIC "-//W3C//DTD SVG 1.1//EN" "http://www.w3.org/Graphics/SVG/1.1/DTD/svg11.dtd">
<svg version="1.1" xmlns="http://www.w3.org/2000/svg" xmlns:xlink="http://www.w3.org/1999/xlink" x="0" y="0" width="500" height="500" viewBox="0, 0, 500, 500">
  <g id="layer102">
    <path d="M429.63,337.082 C430.342,336.441 430.911,335.728 430.911,335.443 C430.911,335.159 429.345,333.235 427.493,331.241 C423.219,326.754 420.299,326.327 417.023,329.746 L414.957,331.882 L413.319,330.315 C412.393,329.46 411.681,328.25 411.681,327.608 C411.681,327.039 410.114,324.902 408.12,322.979 C406.197,321.056 404.558,318.991 404.558,318.421 C404.558,317.851 404.06,316.853 403.419,316.142 C402.706,315.358 402.493,314.361 402.778,313.435 C403.205,312.01 403.704,311.939 417.094,311.939 C424.929,311.939 430.911,312.224 430.911,312.58 C430.911,313.649 436.895,316.213 439.316,316.213 C441.026,316.213 442.308,315.5 444.587,313.15 C449.786,307.95 450.499,307.666 457.265,307.666 C463.177,307.666 463.461,307.594 465.456,305.529 C467.094,303.819 468.091,303.392 470.513,303.392 C475.356,303.392 475.783,303.036 475.783,298.834 L475.783,295.201 L484.687,286.298 C492.236,278.819 493.59,277.11 493.59,275.258 C493.59,273.62 494.373,272.267 496.795,269.916 L500,266.782 L498.433,265.144 C497.578,264.218 496.368,263.506 495.726,263.506 C495.085,263.506 493.661,262.509 492.521,261.369 C491.382,260.159 490.1,259.232 489.601,259.232 C489.174,259.232 487.963,258.592 486.966,257.808 C485.968,257.025 484.687,256.383 484.117,256.383 C483.547,256.383 482.692,255.885 482.194,255.315 C481.695,254.746 480.627,254.247 479.772,254.247 C478.989,254.176 477.493,253.25 476.496,252.11 C475.57,250.899 474.074,249.973 473.148,249.973 C472.293,249.973 471.296,249.546 471.011,248.976 C470.726,248.407 469.658,247.837 468.661,247.694 C467.165,247.552 466.809,247.053 466.667,244.774 C466.311,240.572 464.53,239.289 459.188,239.289 L454.701,239.289 L448.504,232.95 C445.085,229.461 442.308,226.184 442.308,225.614 C442.308,225.116 441.026,223.264 439.459,221.483 C437.82,219.774 436.396,217.637 436.182,216.711 C435.541,214.432 433.262,213.933 431.339,215.714 C429.416,217.495 428.917,217.566 427.208,216.07 C426.211,215.073 425.784,215.073 424.858,215.785 C423.148,217.21 409.687,217.495 407.621,216.142 C406.125,215.144 405.841,215.144 404.202,216.213 C400.57,218.634 393.519,215.643 394.017,212.01 C394.16,210.871 394.8,210.372 396.225,210.23 C398.576,209.945 398.576,209.589 396.581,207.452 C394.8,205.529 393.02,205.315 391.738,206.882 C390.527,208.307 385.612,208.307 385.043,206.811 C384.758,206.028 383.832,205.814 381.624,205.956 C378.561,206.17 378.561,206.17 378.347,209.233 L378.134,212.224 L372.436,212.224 C367.165,212.224 366.524,212.367 364.102,214.29 C360.47,217.21 357.977,217.709 356.41,215.928 C355.413,214.717 354.843,214.646 352.849,215.216 C351.282,215.643 350,215.572 349.074,215.073 C346.937,213.933 342.521,214.218 341.026,215.572 C339.387,217.067 335.826,217.067 334.188,215.572 C332.265,213.862 318.305,213.791 316.596,215.5 C315.527,216.569 315.384,216.569 314.174,215.5 C313.461,214.859 312.251,214.361 311.467,214.361 C310.612,214.361 309.829,213.862 309.544,213.293 C309.259,212.509 308.048,212.224 305.271,212.224 C303.134,212.224 301.14,211.939 300.926,211.512 C300.214,210.301 299.573,210.657 296.154,213.933 L292.949,217.139 L266.524,216.996 L240.1,216.854 L236.681,213.506 L233.191,210.087 L202.707,210.087 L172.222,210.087 L169.516,207.951 C168.02,206.811 166.31,205.814 165.741,205.814 C165.171,205.814 164.316,205.315 163.818,204.745 C163.106,203.891 160.826,203.677 151.709,203.677 C142.593,203.677 140.314,203.463 139.601,202.609 C138.889,201.825 137.037,201.54 131.624,201.54 C126.069,201.54 124.501,201.326 124.217,200.472 C123.86,199.546 121.51,199.403 108.974,199.403 C96.724,199.403 94.017,199.19 93.305,198.335 C92.593,197.48 90.527,197.267 83.476,197.267 C75.285,197.267 74.359,197.124 72.863,195.7 C71.937,194.845 71.225,193.563 71.225,192.851 C71.225,192.138 69.16,189.574 66.667,187.082 C61.61,182.096 59.473,179.176 60.185,178.036 C60.755,177.11 65.741,177.11 66.738,178.107 C67.949,179.318 69.089,178.25 69.089,175.97 C69.089,174.688 68.234,173.264 66.596,171.626 C65.171,170.272 64.103,168.492 64.103,167.566 C64.103,165.999 63.889,165.928 57.764,165.928 C52.778,165.928 51.353,165.714 50.997,164.859 C50.712,164.005 49.288,163.791 44.658,163.791 C40.171,163.791 38.391,163.506 37.749,162.723 C36.61,161.369 34.616,161.369 33.476,162.723 C32.977,163.292 31.553,163.791 30.271,163.791 C28.989,163.791 27.564,164.289 27.066,164.859 C25.712,166.426 8.832,166.426 7.051,164.788 C5.912,163.791 5.627,163.862 2.92,166.64 C1.282,168.278 0,170.059 0,170.486 C0,170.985 1.139,172.409 2.493,173.763 L4.986,176.184 L4.986,184.161 C4.986,190.358 5.2,192.281 6.054,192.993 C6.909,193.706 7.123,195.629 7.123,201.683 C7.123,207.665 7.336,209.731 8.191,210.515 C9.046,211.369 9.259,213.649 9.259,221.412 C9.259,229.318 9.473,231.455 10.328,232.167 C11.183,232.879 11.396,234.802 11.396,240.928 C11.396,246.982 11.681,249.047 12.464,249.973 C13.462,251.041 13.462,251.256 12.464,252.11 C11.111,253.25 11.111,256.099 12.464,256.669 C13.248,256.953 13.533,258.235 13.533,261.939 C13.533,265.5 13.818,267.138 14.601,267.78 C15.171,268.278 15.67,269.204 15.67,269.916 C15.67,270.629 16.168,271.554 16.738,272.053 C17.308,272.552 17.806,273.477 17.806,274.19 C17.806,274.902 18.305,275.828 18.875,276.326 C19.445,276.825 19.943,277.751 19.943,278.392 C19.943,279.104 21.083,280.742 22.507,282.096 C24.359,283.877 25,285.087 24.929,286.654 C24.858,287.794 24.787,289.503 24.858,290.429 L24.929,291.996 L55.057,291.996 L85.257,291.996 L86.894,293.777 C88.248,295.201 88.39,295.7 87.607,296.626 C87.108,297.196 86.823,297.836 87.037,298.05 C87.18,298.193 90.456,298.406 94.231,298.478 C99.787,298.549 101.496,298.335 102.493,297.409 C104.06,295.985 113.177,295.771 114.53,297.124 C115.812,298.406 115.669,304.745 114.316,305.244 C113.746,305.529 113.248,306.455 113.248,307.381 C113.248,308.378 112.749,309.304 112.179,309.517 C111.467,309.802 111.111,310.871 111.111,312.58 C111.111,314.788 110.542,315.785 107.55,318.705 C104.843,321.341 103.989,322.765 103.989,324.332 C103.989,327.181 101.496,329.746 98.718,329.746 C96.154,329.746 93.305,332.238 93.305,334.517 L93.305,336.156 L116.952,336.156 C140.242,336.156 140.598,336.156 142.237,334.589 L143.875,333.022 L142.308,331.383 C140.812,329.817 140.385,329.746 129.701,329.746 C119.373,329.746 118.59,329.674 117.023,328.178 C116.097,327.324 115.385,326.113 115.385,325.401 C115.385,324.76 114.886,323.834 114.316,323.335 C113.746,322.837 113.248,321.697 113.248,320.842 C113.248,319.988 113.746,318.848 114.316,318.349 C114.886,317.851 115.385,316.996 115.385,316.355 C115.385,315.714 116.097,314.503 116.952,313.577 C118.162,312.295 119.231,311.939 122.222,311.939 C124.857,311.939 126.069,311.654 126.353,310.871 C126.567,310.301 127.493,309.802 128.419,309.802 C129.345,309.802 130.769,308.948 131.766,307.666 C132.763,306.526 134.188,305.6 134.972,305.529 C135.826,305.529 137.251,304.603 138.177,303.392 C139.53,301.825 140.598,301.327 142.521,301.255 C144.444,301.255 145.584,300.685 147.436,298.762 C150.142,295.985 152.422,295.629 154.915,297.552 C156.339,298.691 157.692,298.905 162.892,298.762 C166.31,298.691 169.373,298.549 169.729,298.478 C170.014,298.478 170.228,296.839 170.228,294.987 C170.228,292.423 170.655,290.999 171.866,289.646 L173.504,287.723 L190.171,287.723 C206.268,287.723 206.838,287.794 208.476,289.29 C210.328,291.07 210.612,293.777 209.046,294.703 C208.12,295.13 207.977,296.341 208.12,300.258 L208.333,305.173 L211.752,305.387 C213.675,305.529 215.67,305.244 216.24,304.745 C217.735,303.535 217.521,298.62 215.883,296.555 C214.744,295.059 214.53,293.848 214.744,287.295 C214.886,281.668 215.242,279.461 216.097,278.535 C216.809,277.751 217.237,275.97 217.237,273.691 C217.237,271.127 217.521,269.916 218.305,269.631 C219.017,269.418 219.373,268.278 219.373,266.355 L219.373,263.506 L268.875,263.506 C296.795,263.506 318.376,263.791 318.376,264.147 C318.376,264.503 317.877,265.144 317.307,265.643 C315.883,266.854 315.883,274.546 317.307,277.324 C318.875,280.244 318.803,295.7 317.307,296.982 C316.453,297.694 316.239,298.976 316.382,301.54 L316.596,305.173 L320.37,305.387 C323.647,305.6 324.43,305.387 325.926,303.891 C327.422,302.395 327.493,302.039 326.567,301.255 C325.997,300.757 325.499,299.19 325.499,297.694 C325.499,295.985 325.142,294.845 324.43,294.56 C323.647,294.275 323.362,292.922 323.362,288.862 C323.362,284.874 323.647,283.52 324.43,283.164 C325.214,282.879 325.499,281.597 325.499,277.893 C325.499,274.332 325.783,272.694 326.567,272.053 C327.137,271.554 327.635,270.629 327.635,269.916 C327.635,269.204 327.137,268.278 326.567,267.78 C325.997,267.281 325.499,266.141 325.499,265.144 L325.499,263.435 L335.327,263.648 C344.872,263.862 345.085,263.934 345.299,265.5 C345.442,266.426 345.085,267.281 344.445,267.495 C343.661,267.78 343.305,268.848 343.305,271.056 L343.305,274.19 L348.219,274.19 C351.71,274.19 353.347,273.905 353.988,273.121 C354.487,272.552 355.912,272.053 357.123,272.053 C358.903,272.053 360.185,272.908 363.462,276.184 C365.669,278.463 367.521,280.814 367.521,281.384 C367.521,282.808 370.299,285.372 372.151,285.728 C372.934,285.871 373.718,286.725 373.931,287.723 C374.145,288.72 374.929,289.574 375.712,289.717 C377.635,290.073 380.342,292.709 380.342,294.204 C380.342,294.845 380.84,295.771 381.41,296.27 C382.692,297.338 382.835,299.902 381.624,301.113 C380.983,301.754 380.983,302.181 381.624,302.822 C382.122,303.321 382.479,304.674 382.479,305.885 C382.479,307.238 383.119,308.948 384.117,310.016 C385.47,311.654 386.325,311.868 390.67,312.082 C395.37,312.295 395.655,312.366 395.869,314.076 C396.012,315.073 396.581,316.142 397.151,316.426 C397.721,316.711 398.148,317.779 398.148,318.634 C398.148,319.56 398.647,320.486 399.216,320.771 C400,321.056 400.285,322.267 400.285,325.472 L400.285,329.746 L397.293,329.746 C395.584,329.746 393.59,330.244 392.877,330.814 C391.951,331.526 389.744,331.882 386.538,331.882 C382.408,331.882 381.339,332.167 379.915,333.449 L378.276,335.087 L379.772,336.654 C381.268,338.292 381.339,338.292 404.772,338.292 C425.641,338.292 428.419,338.15 429.63,337.082 z" fill="#000000"/>
  </g>
</svg>
