<?xml version="1.0" encoding="UTF-8"?>
<!DOCTYPE svg PUBLIC "-//W3C//DTD SVG 1.1//EN" "http://www.w3.org/Graphics/SVG/1.1/DTD/svg11.dtd">
<svg version="1.1" xmlns="http://www.w3.org/2000/svg" xmlns:xlink="http://www.w3.org/1999/xlink" x="0" y="0" width="500" height="500" viewBox="0, 0, 500, 500">
  <g id="layer102">
    <path d="M180.025,494.318 C180.025,491.145 179.64,488.259 179.064,487.97 C178.583,487.681 178.102,485.662 178.102,483.546 C178.102,480.276 178.391,479.795 180.411,479.795 C183.296,479.795 183.584,478.929 185.027,467.579 L186.085,458.443 L189.933,459.019 C191.952,459.404 196.088,460.462 199.069,461.52 C206.091,464.021 206.475,463.925 210.131,460.559 C211.862,458.923 213.882,457.769 214.651,458.057 C215.42,458.25 219.171,459.404 222.826,460.559 C232.83,463.732 244.371,463.636 255.144,460.27 C265.82,456.999 266.878,456.999 268.225,460.559 C269.956,465.175 274.092,466.33 288.519,466.33 L300.83,466.33 L300.061,472.87 C299.58,476.428 298.81,480.083 298.33,480.949 C297.849,481.814 297.176,485.374 296.79,488.74 C296.214,494.607 296.31,495.184 298.619,497.492 L301.119,499.993 L348.633,499.993 C401.341,499.993 397.398,500.474 397.398,493.645 C397.398,491.337 396.628,489.605 394.993,488.067 C392.492,485.662 391.915,483.257 393.647,482.199 C394.32,481.719 394.416,478.929 394.031,473.639 L393.358,465.656 L398.456,465.945 C401.341,466.137 409.901,466.425 417.596,466.714 C425.291,466.906 433.658,467.579 436.159,468.253 C438.66,468.926 440.968,469.214 441.257,468.926 C441.545,468.734 438.66,459.692 434.813,448.921 C415.576,394.481 412.018,384.478 405.38,365.338 C394.897,334.944 381.047,292.912 369.505,256.844 L365.369,243.956 L365.85,230.971 C366.331,219.43 366.619,217.89 368.254,216.736 C372.678,213.562 374.891,203.463 371.909,199.519 C370.947,198.269 370.851,197.115 371.525,195.384 C372.005,194.133 372.39,191.825 372.39,190.286 C372.39,186.823 373.64,186.15 382.778,184.515 C386.625,183.842 389.991,182.88 390.28,182.399 C390.569,181.918 390.569,178.937 390.184,175.762 C389.607,170.665 389.318,170.088 387.202,170.088 C385.952,170.088 384.605,169.318 384.125,168.453 C382.297,164.99 379.892,151.524 380.373,147.581 C381.143,140.752 383.067,129.306 383.74,127.768 C384.509,125.748 386.336,115.456 388.741,99.393 C389.896,91.988 391.242,85.062 391.819,84.1 C392.3,83.042 393.838,75.54 395.089,67.461 C396.243,59.285 397.686,52.072 398.167,51.495 C398.648,50.822 399.321,48.225 399.706,45.627 C400.187,41.685 400.956,40.434 404.611,37.164 C407.016,35.047 408.94,32.739 408.94,31.97 C408.94,30.334 415.191,30.047 416.249,31.681 C416.538,32.258 417.692,32.451 418.75,32.258 C419.808,31.97 421.924,32.162 423.463,32.739 C425.771,33.509 426.637,33.412 428.08,32.162 C429.042,31.296 430.292,30.623 430.965,30.623 C431.542,30.623 432.311,29.95 432.6,29.181 C432.985,28.411 433.658,27.738 434.331,27.738 C434.909,27.738 436.062,26.969 436.929,26.103 C437.698,25.141 439.333,23.698 440.68,22.832 C444.142,20.62 442.603,18.408 437.121,17.543 C434.62,17.254 432.023,16.581 431.446,16.1 C430.869,15.619 427.311,14.945 423.559,14.657 C417.596,14.08 416.634,14.176 416.057,15.619 C415.672,16.581 415.865,18.312 416.442,19.563 C417.692,22.352 416.634,23.41 413.267,22.544 C411.536,22.063 410.767,21.101 410.286,18.408 C409.901,16.292 408.17,13.31 405.862,10.81 C403.745,8.501 401.726,5.52 401.341,4.077 C400.956,2.634 399.898,0.999 399.033,0.422 C397.782,-0.444 396.916,-0.059 394.8,2.345 C393.262,4.077 390.376,5.808 388.164,6.481 C385.567,7.154 382.874,8.886 380.662,11.387 C377.199,15.33 374.794,16.196 374.025,14.08 C373.833,13.407 374.121,12.06 374.698,11.098 C376.814,7.828 374.314,6.193 364.118,4.462 C352.48,2.442 347.96,2.538 347.575,4.943 C347.383,6.097 347.863,6.866 349.114,7.154 C350.461,7.54 350.845,8.309 350.461,10.04 C350.172,11.676 350.556,12.541 351.807,13.022 C352.865,13.407 354.212,14.465 354.885,15.427 C355.558,16.388 356.52,16.965 357.001,16.677 C357.482,16.388 358.347,17.061 358.925,18.12 C359.502,19.178 360.752,20.043 361.81,20.043 C362.772,20.043 363.926,20.525 364.311,21.101 C364.599,21.678 365.754,21.871 366.716,21.678 C367.774,21.39 370.082,21.582 371.813,22.063 C374.507,22.832 375.083,23.505 375.564,26.295 C375.853,28.123 377.007,30.912 378.065,32.451 C379.989,35.047 379.989,35.817 379.027,42.838 C378.449,46.974 377.68,51.207 377.199,52.265 C376.238,54.38 376.43,53.611 372.871,76.791 C371.428,86.024 369.697,94.969 369.024,96.508 C368.35,98.143 367.485,102.375 367.1,105.934 C366.716,109.493 366.042,112.378 365.658,112.186 C365.273,111.993 363.06,109.589 360.752,106.704 C358.347,103.722 354.116,100.067 351.038,98.24 L345.652,95.065 L346.517,91.507 C349.787,77.271 343.92,65.441 331.801,61.978 C323.53,59.574 318.912,59.285 317.085,61.017 C316.027,62.171 314.681,62.363 312.276,61.978 C309.487,61.402 308.91,60.92 308.91,58.997 C308.91,56.593 308.814,56.593 299.772,56.593 L290.635,56.593 L290.635,51.88 C290.635,46.205 290.346,46.012 279.286,46.012 C269.09,46.012 266.59,46.589 266.59,48.994 C266.59,50.437 265.917,50.822 263.031,50.822 C257.933,50.822 257.164,50.052 256.395,44.378 L255.817,39.376 L260.434,39.087 C263.031,38.895 265.147,38.318 265.435,37.645 C265.724,36.683 264.089,36.394 259.568,36.394 C254.375,36.394 253.124,36.105 252.739,34.663 C252.451,33.701 250.815,32.162 249.181,31.2 C246.295,29.469 246.103,29.469 242.448,31.2 C240.428,32.258 238.408,33.798 238.12,34.759 C237.735,36.009 236.484,36.394 232.349,36.394 C228.405,36.394 227.155,36.779 227.155,37.837 C227.155,38.895 228.309,39.28 231.483,39.28 C235.715,39.28 235.811,39.376 235.811,42.261 C235.811,43.896 234.946,46.494 233.791,48.032 C232.157,50.437 231.195,50.822 227.54,50.822 C224.077,50.822 223.308,50.533 223.308,48.994 C223.308,46.589 220.807,46.012 210.611,46.012 C199.551,46.012 199.262,46.205 199.262,51.88 L199.262,56.593 L190.221,56.593 L181.084,56.593 L180.795,59.189 C180.411,62.844 175.601,64.095 173.004,61.305 C171.08,59.189 169.542,59.189 160.404,61.305 C154.152,62.844 151.074,64.48 147.516,68.519 C143.476,73.136 141.938,80.542 143.187,88.91 L144.053,95.258 L138.86,98.143 C132.127,101.991 126.26,109.397 120.681,121.035 C115.583,131.519 112.025,143.253 106.446,167.875 C106.158,169.318 105.099,170.088 103.368,170.28 C100.963,170.568 100.579,171.05 99.905,175.666 C99.425,178.455 99.232,181.341 99.521,182.014 C99.81,182.591 102.983,183.746 106.543,184.419 C116.065,186.15 116.545,186.343 115.872,187.977 C115.487,188.939 114.525,189.228 112.217,188.747 C108.274,188.074 102.983,190.382 99.617,194.422 C97.501,196.923 97.212,197.981 97.694,201.25 C98.078,203.463 99.232,206.83 100.194,208.85 C102.503,213.274 102.503,213.37 100.29,213.37 C99.329,213.37 98.078,213.947 97.501,214.62 C96.251,216.063 89.999,237.608 82.304,266.27 C79.707,276.273 74.225,305.127 74.225,309.456 L74.225,312.63 L79.419,312.053 L84.612,311.38 L83.554,315.227 C82.112,320.42 83.554,324.556 86.44,324.171 C88.268,323.883 88.556,324.46 88.845,327.538 C89.133,331.097 89.23,331.193 92.788,330.904 C97.309,330.52 97.309,330.712 93.077,345.14 C84.805,373.129 83.747,376.495 82.978,377.842 C82.592,378.611 81.054,383.42 79.612,388.422 C78.168,393.423 76.437,399.098 75.764,400.926 C74.994,402.753 71.917,412.082 68.935,421.604 C65.857,431.126 61.914,443.438 60.086,448.921 C58.259,454.403 57.105,459.212 57.585,459.692 C59.317,461.424 76.63,463.636 86.921,463.252 L97.405,462.963 L96.924,465.368 C96.636,466.714 96.154,470.754 95.77,474.312 C95.289,479.891 95.385,481.141 96.924,482.776 C98.752,484.796 98.655,484.796 96.058,486.912 C93.75,488.74 93.461,489.701 93.461,494.51 L93.461,499.993 L136.743,499.993 L180.025,499.993 L180.025,494.318 z" fill="#000000"/>
  </g>
</svg>
