<?xml version="1.0" encoding="UTF-8"?>
<!DOCTYPE svg PUBLIC "-//W3C//DTD SVG 1.1//EN" "http://www.w3.org/Graphics/SVG/1.1/DTD/svg11.dtd">
<svg version="1.1" xmlns="http://www.w3.org/2000/svg" xmlns:xlink="http://www.w3.org/1999/xlink" x="0" y="0" width="500" height="500" viewBox="0, 0, 500, 500">
  <g id="layer102">
    <path d="M250.494,139.886 C250.937,139.886 251.766,140.55 252.374,141.379 C253.481,142.873 253.702,142.928 260.063,143.204 L266.59,143.481 L267.143,149.565 L269.632,149.842 C273.172,150.229 275.55,151.833 275.992,154.101 C276.158,155.096 276.214,156.148 276.048,156.424 C275.494,157.309 277.32,158.249 278.813,157.917 C281.413,157.254 286.17,158.139 287.718,159.577 C288.991,160.738 289.709,160.904 293.415,160.904 C297.232,160.904 297.84,160.738 299.831,159.245 C302.708,157.088 304.81,157.088 307.298,159.3 L309.179,160.959 L315.152,160.794 C319.854,160.683 321.292,160.462 321.79,159.743 C323.671,157.254 326.713,156.977 329.699,159.079 C333.073,161.402 342.145,162.73 345.961,161.457 C347.122,161.07 348.726,160.904 349.556,161.125 C351.603,161.623 353.704,163.891 353.704,165.495 C353.704,167.099 354.811,167.541 359.125,167.541 C361.171,167.541 362.001,167.763 362.001,168.316 C362.001,168.703 361.503,169.201 360.895,169.367 C359.512,169.754 359.457,170.86 360.84,170.86 C362.333,170.86 362.72,172.409 361.448,173.46 C359.733,174.953 360.895,176.225 364.214,176.502 C367.753,176.834 369.191,178.161 369.578,181.425 C370.021,184.799 370.353,185.296 374.667,189.002 C377.986,191.878 378.76,192.321 380.862,192.321 C383.904,192.376 385.84,194.202 386.283,197.52 C386.67,200.12 386.283,199.954 393.528,201.171 C395.796,201.558 396.017,201.724 396.294,203.383 C396.46,204.379 396.736,205.208 397.013,205.153 L397.898,205.153 C398.174,205.153 398.506,204.655 398.672,204.047 C398.894,203.273 399.225,203.051 399.889,203.273 C400.442,203.494 400.719,204.047 400.553,204.6 C400.166,206.148 400.774,206.647 403.65,207.034 C406.25,207.421 406.25,207.421 406.25,205.817 C406.25,203.936 406.748,203.328 407.577,203.992 C408.518,204.766 416.04,206.647 419.635,206.978 C421.958,207.2 422.954,207.089 423.452,206.481 C423.784,206.038 424.724,205.706 425.553,205.706 C427.655,205.761 431.803,206.978 433.352,207.974 C434.127,208.472 435.73,209.191 436.948,209.523 C438.164,209.91 439.934,210.574 440.819,210.961 C441.759,211.348 443.198,211.901 444.083,212.122 C445.023,212.343 445.853,213.063 446.295,214.003 C447.235,216.271 453.707,221.525 456.14,221.968 C457.357,222.189 458.464,222.797 458.795,223.406 C459.514,224.733 460.51,224.788 462.778,223.627 C464.437,222.797 464.548,222.797 465.377,223.848 C466.041,224.622 466.926,224.954 468.751,225.01 C470.134,225.01 473.01,225.286 475.112,225.508 C477.269,225.784 479.758,225.895 480.699,225.784 C481.694,225.618 482.634,225.784 482.855,226.171 C483.298,226.89 485.345,225.342 485.345,224.291 C485.345,223.959 486.119,221.857 487.115,219.7 C488.94,215.496 489.659,214.998 492.037,216.215 C492.978,216.713 493.088,217.432 493.088,221.968 C493.088,226.005 492.867,227.277 492.203,227.83 C491.097,228.826 489.659,232.366 490.157,232.864 C490.433,233.085 492.59,234.081 495.024,235.021 C497.458,235.961 499.67,236.957 499.892,237.178 C500.389,237.676 499.062,241.327 498.177,241.824 C497.9,242.046 495.743,241.437 493.365,240.497 C488.11,238.506 486.783,238.561 486.561,240.773 C486.395,241.99 486.728,242.654 487.612,243.373 C489.106,244.479 488.995,245.088 486.008,252.167 C485.732,252.942 484.626,255.652 483.63,258.252 C482.634,260.851 481.141,264.502 480.256,266.438 C479.426,268.318 478.707,270.144 478.707,270.42 C478.707,270.752 478.486,271.416 478.21,271.969 C477.103,274.015 475.389,278.938 475.389,279.878 C475.389,280.487 474.946,281.98 474.338,283.308 C471.462,289.724 468.751,297.467 468.751,299.126 C468.751,300.177 466.871,305.708 464.548,311.571 C460.51,321.859 459.183,324.017 457.081,324.072 C456.638,324.072 455.145,324.625 453.817,325.233 C451.715,326.229 451.107,326.34 449.614,325.786 C448.065,325.233 447.512,325.344 444.083,327.169 C438.164,330.267 437.224,330.875 437.224,331.649 C437.224,332.036 436.339,333.253 435.177,334.36 C433.242,336.296 433.076,336.351 430.144,336.019 C427.379,335.687 426.826,335.853 423.452,337.678 C419.193,340.001 417.312,341.605 417.312,342.878 C417.312,343.431 416.703,344.481 415.929,345.311 C414.657,346.694 414.215,346.805 411.062,346.639 C407.909,346.528 407.19,346.749 402.765,348.962 C398.783,351.064 397.842,351.727 397.345,353.221 C396.239,356.65 391.648,359.028 389.767,357.148 C389.325,356.705 386.946,356.539 382.079,356.65 C375.054,356.76 374.999,356.76 373.34,358.42 C370.961,360.688 367.919,360.688 365.32,358.365 C363.549,356.76 363.273,356.705 358.074,356.705 C353.428,356.705 352.543,356.871 351.934,357.701 C349.943,360.522 346.016,360.799 343.195,358.365 C341.314,356.816 341.038,356.76 335.839,356.705 C330.529,356.705 330.363,356.76 328.704,358.365 C327.432,359.637 326.547,360.024 324.943,360.024 C323.339,360.024 322.288,359.581 320.905,358.365 C319.024,356.76 318.803,356.705 313.438,356.705 C308.018,356.705 307.796,356.76 305.971,358.365 C304.588,359.526 303.482,360.024 302.099,360.024 C300.661,360.024 299.721,359.581 298.504,358.365 C296.844,356.705 296.734,356.705 291.092,356.705 C285.617,356.76 285.34,356.816 283.459,358.365 C280.86,360.633 278.149,360.633 275.992,358.365 C274.444,356.76 274.333,356.705 268.802,356.705 C263.326,356.705 263.049,356.76 261.058,358.365 C258.348,360.522 256.08,360.522 253.591,358.365 C251.711,356.816 251.434,356.76 246.069,356.705 C241.257,356.705 240.372,356.871 239.542,357.756 C238.16,359.25 235.615,360.19 234.011,359.803 C233.292,359.637 231.91,358.862 231.024,358.088 C229.476,356.816 228.923,356.705 223.834,356.705 C219.52,356.705 218.192,356.871 217.584,357.59 C216.588,358.807 214.044,360.024 212.55,360.024 C211.831,360.024 210.394,359.305 209.342,358.365 C207.462,356.816 207.241,356.76 201.433,356.705 C195.57,356.705 195.404,356.76 193.302,358.42 C190.813,360.411 189.431,360.356 186.775,358.088 C185.227,356.816 184.729,356.705 179.198,356.705 C173.667,356.705 173.169,356.816 171.62,358.088 C170.735,358.862 169.353,359.637 168.633,359.803 C166.974,360.245 164.153,359.084 163.379,357.756 C162.881,356.816 162.107,356.705 156.852,356.705 C151.764,356.705 150.768,356.871 149.938,357.701 C149.44,358.309 148.058,359.084 146.896,359.471 C145.126,360.024 144.573,360.024 143.135,359.305 C142.25,358.807 141.199,358.033 140.812,357.59 C140.204,356.871 138.821,356.705 134.119,356.705 C129.418,356.705 128.035,356.871 127.427,357.59 C126.487,358.752 123.942,360.024 122.56,360.024 C121.951,360.024 120.513,359.25 119.462,358.254 C117.526,356.539 117.25,356.484 112.106,356.484 C107.46,356.429 106.63,356.539 105.413,357.59 C104.583,358.199 103.145,359.028 102.094,359.36 C101.043,359.747 100.048,360.024 99.882,360.024 C98.942,360.024 96.121,357.812 95.457,356.539 C94.406,354.604 83.344,350.898 81.298,351.838 C78.09,353.276 73.83,349.957 73.83,345.975 C73.83,343.873 73.498,343.265 69.903,339.393 C66.308,335.466 65.81,335.134 63.764,335.134 C60.722,335.134 58.343,332.811 58.343,329.714 C58.343,327.833 57.845,327.003 54.361,323.076 C51.485,319.813 49.992,318.541 49.051,318.541 C45.843,318.541 43.465,315.996 43.41,312.622 C43.41,310.521 43.022,309.857 39.537,305.93 C35.942,301.892 35.445,301.505 33.121,301.228 C29.692,300.841 27.922,299.126 27.922,296.14 C27.922,294.37 27.591,293.54 26.484,292.489 C25.71,291.77 23.829,289.613 22.336,287.788 C20.068,284.967 19.294,284.358 17.524,284.026 C16.252,283.861 14.758,283.086 13.873,282.257 C12.656,281.04 12.435,280.265 12.435,277.776 C12.435,275.066 12.159,274.402 9.117,269.867 C6.793,266.438 5.411,264.889 4.691,264.889 C4.083,264.889 2.811,264.17 1.871,263.34 C-0.507,261.238 -0.618,258.086 1.539,255.541 C2.977,253.827 3.032,253.495 3.032,247.411 C3.032,242.709 2.811,240.607 2.147,239.391 C1.705,238.45 1.373,236.791 1.483,235.685 C1.594,234.136 2.037,233.417 3.53,232.421 C4.581,231.703 5.964,231.149 6.683,231.149 C7.457,231.149 8.508,230.485 9.338,229.379 C14.537,222.576 14.869,222.023 14.758,219.866 C14.648,217.045 15.92,214.722 18.298,213.339 C19.349,212.731 20.179,212.122 20.179,212.011 C20.179,211.79 19.073,209.08 18.354,207.476 C17.468,205.595 18.464,204.379 21.064,204.157 C22.225,204.047 23.387,203.66 23.608,203.328 C23.829,202.94 24.051,196.358 24.051,188.615 L24.051,174.566 L25.433,173.294 C26.595,172.243 26.816,171.524 26.816,169.035 C26.816,167.431 27.037,165.882 27.314,165.606 C27.591,165.274 27.922,164.057 28.033,162.84 L28.199,160.628 L31.13,160.462 C33.343,160.351 34.117,160.517 34.338,161.125 C34.781,162.232 35.887,162.232 36.772,161.181 C37.27,160.572 38.265,160.351 39.759,160.462 C41.916,160.628 42.026,160.738 42.192,162.619 C42.303,163.78 42.856,165.108 43.465,165.606 C44.239,166.38 44.516,167.32 44.516,169.533 C44.516,172.188 44.626,172.52 45.843,172.851 C47.945,173.349 49.272,172.686 51.153,170.141 C52.647,168.094 52.757,167.597 52.48,165.163 C52.148,162.674 52.204,162.398 53.974,160.572 C56.131,158.304 58.897,158.028 61.773,159.798 C63.266,160.683 64.593,160.904 68.908,160.904 C74.051,160.904 74.217,160.849 75.324,159.3 C77.315,156.645 80.744,156.59 83.731,159.19 C84.893,160.185 85.778,160.351 90.7,160.351 C95.291,160.351 96.508,160.185 97.117,159.411 C98.278,158.028 101.431,156.922 103.145,157.309 C103.975,157.475 105.358,158.36 106.188,159.245 L107.736,160.849 L113.323,160.517 C118.3,160.24 119.075,160.075 120.402,158.802 C122.56,156.811 126.376,156.811 128.478,158.857 C129.971,160.296 130.303,160.351 135.502,160.351 C140.646,160.351 141.034,160.296 142.527,158.857 C144.739,156.756 148.39,156.756 150.547,158.857 C152.095,160.296 152.427,160.351 157.571,160.351 C162.549,160.351 163.103,160.24 164.872,158.913 C167.417,156.922 170.459,156.922 173.003,158.857 C174.662,160.13 175.437,160.296 180.415,160.406 C185.725,160.572 186.001,160.572 187.716,159.079 C190.149,157.032 192.86,157.088 195.736,159.245 C197.783,160.794 198.28,160.904 202.539,160.904 C207.241,160.904 208.623,160.517 210.67,158.636 C211.278,158.028 212.163,157.585 212.661,157.585 C214.929,157.585 215.427,156.424 215.592,150.672 L215.703,145.14 L218.69,145.306 C220.349,145.417 222.064,145.694 222.507,145.915 C222.949,146.191 223.945,146.191 224.774,145.915 C225.549,145.694 227.097,145.251 228.148,144.919 C229.199,144.587 233.513,144.311 237.717,144.256 C241.866,144.256 245.405,143.979 245.627,143.703 C245.793,143.426 247.12,143.204 248.669,143.204 C250.715,143.204 251.379,142.983 251.379,142.375 C251.379,141.877 250.992,141.379 250.549,141.214 C249.498,140.771 249.443,139.886 250.494,139.886 z M301.221,342.875 C299.545,342.905 296.859,342.803 295.241,343.32 C294.688,343.652 294.798,344.592 295.738,347.468 C296.347,349.515 297.121,351.174 297.397,351.174 C297.73,351.174 298.559,350.676 299.333,350.068 C301.048,348.741 303.482,348.63 305.307,349.847 C306.413,350.566 306.856,350.621 307.464,350.123 C308.405,349.349 309.732,344.26 309.179,343.431 C308.892,343.186 308.065,343.14 307.839,343.117 C305.641,342.895 303.428,342.884 301.221,342.875 z M365.632,343.501 L364.822,343.541 L362.278,343.707 L362.388,345.92 C362.499,347.136 362.831,348.796 363.162,349.681 C363.937,351.451 364.435,351.506 366.26,350.068 C368.085,348.685 370.076,348.685 372.399,350.068 C374.612,351.451 374.723,351.451 374.723,350.068 C374.723,349.46 374.557,348.962 374.335,348.962 C374.059,348.962 372.455,347.69 370.63,346.141 C369.145,344.882 367.713,343.462 365.632,343.501 z M348.561,342.878 C344.301,342.878 344.246,342.878 342.366,344.98 C340.374,347.081 339.877,349.294 341.093,350.51 C341.923,351.34 341.757,351.396 343.859,350.068 C346.016,348.796 347.897,348.685 349.832,349.791 C351.824,350.953 352.377,350.787 353.04,349.128 C354.202,346.141 354.423,343.873 353.649,343.375 C353.206,343.099 350.939,342.878 348.561,342.878 z M236.368,342.799 C234.317,342.815 233.294,342.782 231.266,342.953 C230.769,342.994 228.29,343.108 227.761,343.762 C227.484,344.592 228.314,348.077 229.365,350.234 C229.974,351.451 230.527,351.451 231.743,350.068 C233.016,348.685 236.777,348.575 238.602,349.902 C239.874,350.732 239.985,350.732 240.704,349.736 C241.7,348.409 242.695,344.647 242.308,343.652 C242.024,343.257 241.204,343.16 240.844,343.106 C239.122,342.849 238.157,342.867 236.368,342.799 z M254.31,342.878 C249.664,342.878 249.388,343.154 250.605,347.026 C251.766,350.566 252.43,351.119 254.255,349.847 C255.914,348.63 259.067,348.741 260.782,350.068 C261.777,350.787 262.33,350.953 262.828,350.51 C264.045,349.515 263.658,348.63 260.561,345.698 C257.629,342.988 257.408,342.878 254.31,342.878 z M123.113,342.878 C117.913,342.878 115.922,343.043 115.756,343.596 C115.59,343.928 115.922,345.533 116.42,347.026 C117.25,349.404 117.526,349.791 118.688,349.625 C124.274,348.907 125.27,348.907 126.487,349.736 C127.15,350.234 127.925,350.621 128.146,350.621 C128.588,350.621 130.248,345.367 130.248,343.873 C130.248,342.988 129.639,342.878 123.113,342.878 z M170.901,342.878 L167.306,342.878 L164.54,345.698 C161.885,348.409 161.332,349.46 162.162,350.234 C162.715,350.787 163.103,350.732 164.319,349.791 C165.702,348.741 169.574,348.741 170.957,349.791 C172.727,351.119 173.224,350.787 174.22,347.579 C175.603,343.32 175.271,342.878 170.901,342.878 z M187.937,342.877 C182.351,342.878 182.295,342.988 184.563,349.128 C185.227,350.842 185.504,350.953 186.997,349.791 C188.435,348.741 191.422,348.741 193.302,349.902 C194.63,350.676 195.017,350.676 195.736,350.123 C197.174,348.907 196.731,347.579 194.132,345.145 C191.754,342.933 191.532,342.878 187.937,342.877 z M404.369,336.24 C402.71,336.24 401.216,336.462 400.995,336.793 C400.497,337.623 401.991,339.614 403.761,340.444 C405.254,341.107 405.531,341.052 406.416,340.001 C406.913,339.393 407.356,338.287 407.356,337.568 C407.356,336.351 407.135,336.24 404.369,336.24 z M68.245,315.923 L68.133,315.941 C67.248,316.273 63.321,322.689 63.321,323.795 C63.321,324.238 64.151,324.735 65.257,324.957 C67.414,325.344 69.406,327.446 69.406,329.271 C69.406,329.935 69.682,330.764 70.014,331.096 C70.678,331.76 71.729,331.428 75.766,329.271 C79.251,327.335 78.974,326.284 73.554,320.532 C71.966,318.88 70.364,316.884 68.245,315.923 z M37.823,282.589 C37.657,282.589 36.44,284.082 35.168,285.907 C32.734,289.392 32.568,290.885 34.56,290.885 C36.163,290.885 38.984,293.816 38.984,295.476 C38.984,296.195 39.15,296.969 39.371,297.135 C39.98,297.799 42.856,297.522 44.516,296.693 C45.677,296.084 46.23,295.31 46.507,293.872 C46.839,292.157 46.618,291.66 45.013,289.889 C40.589,285.022 38.155,282.589 37.823,282.589 z M23.769,277.273 C23.536,277.286 23.645,277.264 23.442,277.334 C22.889,277.721 22.778,279.989 23.331,280.542 C24.327,281.537 26.816,280.431 26.816,278.993 C26.414,277.915 25.027,277.532 24.02,277.277 L23.769,277.273 z M357.642,181.256 C357.039,181.361 356.453,181.499 355.917,181.812 C354.313,182.586 353.925,183.139 353.594,185.241 C353.041,188.449 353.262,188.947 356.249,191.491 C358.185,193.095 359.235,193.538 360.895,193.538 C362.886,193.538 363.162,193.316 364.214,191.325 C365.707,188.449 365.651,187.454 363.992,187.454 C362.167,187.454 359.235,184.909 359.235,183.305 C359.149,182.191 358.95,181.257 357.642,181.256 z M195.563,166.535 C194.761,166.835 195.073,166.636 194.575,167.044 C193.966,167.652 190.703,167.486 187.661,166.712 C186.333,166.38 186.057,166.546 185.006,168.592 C184.397,169.865 184.01,171.137 184.176,171.413 C184.397,171.745 187.661,171.967 191.698,171.967 C198.502,171.967 198.833,171.911 198.833,170.86 C198.73,168.915 197.784,166.628 195.563,166.535 z M152.228,166.572 C151.314,166.621 151.726,166.562 150.989,166.712 C148.777,167.21 144.186,167.265 142.361,166.767 C141.089,166.38 140.812,166.601 139.982,168.371 C139.429,169.477 139.153,170.749 139.319,171.192 C139.595,171.856 140.923,171.967 146.952,171.856 L154.308,171.69 L154.142,170.307 C154.087,169.533 153.755,168.371 153.368,167.652 C153.093,167.146 152.847,166.692 152.228,166.572 z M83.742,166.418 C82.222,166.85 82.851,166.544 81.795,167.21 C80.8,167.984 80.8,168.039 82.348,169.699 C83.952,171.358 86.165,171.967 86.828,170.915 C86.994,170.639 86.718,169.477 86.165,168.426 C85.6,167.388 85.034,166.532 83.742,166.418 z M98.14,166.537 C97.904,166.548 97.663,166.517 97.433,166.568 C95.786,166.937 94.906,168.769 94.849,170.307 C94.849,171.358 95.18,171.413 100.269,171.413 C105.302,171.413 105.8,171.302 106.962,170.086 C108.621,168.371 108.289,166.657 106.464,166.878 C101.154,167.541 99.661,167.597 99.107,167.044 C98.621,166.644 98.926,166.842 98.14,166.537 z" fill="#000000"/>
  </g>
</svg>
