<?xml version="1.0" encoding="UTF-8"?>
<!DOCTYPE svg PUBLIC "-//W3C//DTD SVG 1.1//EN" "http://www.w3.org/Graphics/SVG/1.1/DTD/svg11.dtd">
<svg version="1.1" xmlns="http://www.w3.org/2000/svg" xmlns:xlink="http://www.w3.org/1999/xlink" x="0" y="0" width="500" height="500" viewBox="0, 0, 500, 500">
  <g id="layer102">
    <path d="M172.944,493.562 C172.944,490.151 175.595,484.09 179.006,480.682 C183.552,475.38 185.444,464.772 186.204,439.772 C187.719,399.244 191.506,366.667 195.673,359.469 C198.324,355.302 200.595,355.682 206.657,361.364 C217.262,370.833 221.052,387.5 224.46,434.849 L227.111,473.485 L238.855,473.485 C245.293,473.485 257.416,471.59 265.75,469.698 C279.762,466.287 281.657,466.667 289.234,476.515 C294.157,482.198 297.944,489.772 297.944,493.562 C297.944,499.62 302.111,500 346.429,499.244 C386.96,498.105 394.157,497.349 393.021,492.423 C392.262,489.395 391.126,479.167 390.37,469.698 C389.611,460.228 388.095,448.485 386.96,443.182 C385.068,435.228 386.583,432.577 397.944,426.515 C405.142,422.728 414.611,416.287 418.778,412.5 C427.491,404.167 427.87,407.954 414.991,226.136 C411.204,167.802 407.793,111.364 407.793,100 C407.793,81.438 407.037,79.167 396.429,73.864 C390.37,70.833 382.416,68.182 378.25,68.182 C367.262,68.182 362.339,60.985 366.126,50.756 C370.673,39.395 363.475,35.228 334.308,31.818 C321.052,30.302 310.824,26.895 308.173,23.105 C305.521,19.698 298.324,12.88 291.506,8.333 C280.901,0.756 274.839,0 235.444,0 C196.052,0 189.991,0.756 179.386,8.333 C172.568,12.88 164.991,19.698 162.339,23.485 C159.308,27.651 152.111,30.302 143.401,30.682 C135.824,31.062 124.46,32.198 118.021,33.713 C107.037,35.985 106.657,37.12 106.278,56.818 C105.521,77.651 88.095,134.09 77.87,146.213 C73.704,151.136 74.083,152.651 78.626,155.682 C81.657,157.577 88.095,159.09 93.021,159.09 C100.595,159.09 101.355,160.228 99.083,167.802 C97.568,172.349 96.429,196.59 96.808,221.59 C97.188,265.151 97.568,267.423 106.657,275.756 C125.219,291.667 137.339,284.469 136.204,258.713 C135.068,234.469 138.475,214.015 142.642,218.182 C144.537,220.077 146.429,234.469 146.808,250 C147.188,272.349 145.673,282.198 139.611,295.077 C135.068,304.167 132.416,313.256 133.552,315.151 C134.688,317.046 133.173,322.349 130.142,326.895 C127.491,331.438 117.642,355.682 109.308,380.682 C100.595,405.682 91.126,432.954 88.095,441.287 C85.444,449.62 82.037,466.287 80.901,478.41 L78.626,500 L125.975,500 C167.262,500 172.944,499.244 172.944,493.562 z" fill="#000000"/>
    <path d="M166.126,196.213 C163.475,193.562 161.583,189.395 161.583,186.744 C161.583,184.09 158.173,180.302 153.626,177.651 C145.673,173.485 145.673,173.485 155.901,168.182 C167.642,162.12 172.944,164.015 172.944,174.244 C172.944,178.031 174.839,181.818 177.111,182.577 C179.762,183.333 180.521,187.5 179.006,192.423 C175.975,201.895 172.568,202.651 166.126,196.213 z" fill="#FAFAFA"/>
  </g>
</svg>
