<?xml version="1.0" encoding="UTF-8"?>
<!DOCTYPE svg PUBLIC "-//W3C//DTD SVG 1.1//EN" "http://www.w3.org/Graphics/SVG/1.1/DTD/svg11.dtd">
<svg version="1.1" xmlns="http://www.w3.org/2000/svg" xmlns:xlink="http://www.w3.org/1999/xlink" x="0" y="0" width="500" height="500" viewBox="0, 0, 500, 500">
  <g id="layer102">
    <path d="M234.991,0 C235.689,0.044 236.197,0.307 236.673,0.792 C237.768,2.141 240.465,2.393 241.139,1.214 C241.814,0.202 246.701,-0.472 247.206,0.455 C247.797,1.382 252.347,1.298 252.936,0.371 C253.526,-0.556 262.544,1.298 264.987,2.899 C266.673,3.91 267.178,3.91 268.779,2.899 C270.465,1.888 270.802,1.972 272.403,3.994 C274.088,6.101 277.038,7.028 277.038,5.427 C277.038,3.994 279.397,3.826 281.672,5.006 C282.936,5.68 284.369,6.185 284.959,6.185 C285.464,6.185 286.729,7.112 287.824,8.208 C288.835,9.388 290.858,10.483 292.206,10.82 C293.976,11.241 294.734,12 295.155,13.77 C295.492,15.118 296.756,17.14 298.02,18.151 C299.284,19.247 300.548,20.764 300.886,21.606 C301.138,22.365 301.981,23.039 302.739,23.039 C304.678,23.039 313.189,32.056 313.694,34.668 C314.031,35.933 314.875,38.207 315.632,39.808 C316.391,41.409 317.066,43.095 317.149,43.6 C317.149,44.107 317.571,46.635 318.076,49.162 C318.582,51.691 319.004,54.724 319.003,55.904 C319.004,58.516 319.931,64.667 321.195,71.157 L321.868,74.19 L329.537,74.78 C333.835,75.033 342.345,75.539 348.498,75.876 C359.284,76.381 360.042,76.55 365.773,79.499 C371.587,82.449 371.84,82.701 371.756,85.482 C371.671,88.347 367.964,103.347 366.362,107.308 C365.604,109.246 365.941,110.258 369.312,115.313 C373.441,121.633 379.255,135.707 380.267,141.858 C380.604,143.965 381.362,146.83 381.953,148.178 C382.458,149.611 383.637,153.656 384.396,157.279 C386.418,166.296 390.295,174.723 392.486,174.723 C394.256,174.723 396.362,177.756 396.025,179.947 C395.857,180.706 396.615,181.885 397.626,182.56 C398.638,183.319 399.227,184.414 398.975,185.003 C398.553,186.183 389.873,188.206 385.576,188.206 C384.396,188.206 383.217,188.458 382.879,188.795 C382.542,189.217 380.688,189.891 378.834,190.312 C375.8,191.071 375.379,191.493 375.211,193.599 C375.211,195.031 376.053,197.307 377.402,199.16 L379.762,202.363 L377.991,207.082 C376.98,209.694 375.885,211.801 375.463,211.801 C374.452,211.801 374.621,265.564 375.716,275.002 C377.402,290.592 377.823,288.486 372.598,292.699 C364.509,299.188 362.992,300.199 358.357,301.547 C350.689,303.738 348.498,303.317 344.537,299.019 C342.345,296.66 341.082,294.469 341.082,293.12 C341.082,291.941 340.324,289.413 339.312,287.559 C337.29,283.514 337.626,281.323 341.251,273.317 C344.031,267.25 344.116,264.132 341.588,253.851 C340.324,248.542 334.341,218.458 334.341,217.363 C334.341,217.11 333.835,216.857 333.245,216.857 C332.57,216.857 330.633,214.751 328.947,212.223 C326.082,208.093 325.829,207.334 326.335,204.132 L326.924,200.677 L324.396,201.268 C321.953,201.773 321.785,201.688 320.521,197.222 C319.762,194.695 319.172,191.83 319.172,190.902 C319.172,189.975 318.667,188.795 317.992,188.29 C317.066,187.531 316.307,188.795 313.779,195.031 C312.093,199.245 310.745,203.122 310.745,203.796 C310.745,204.386 310.156,205.397 309.397,205.987 C308.638,206.577 306.616,210.116 304.846,213.907 C301.728,220.565 301.644,220.649 303.245,222.419 C304.088,223.346 304.846,225.284 304.846,226.801 C304.846,228.233 305.268,230.424 305.857,231.604 C306.616,233.205 306.616,233.964 305.857,234.722 C305.268,235.312 304.846,236.745 304.846,237.924 C304.846,239.188 304.088,240.537 303.077,241.126 C300.548,242.728 302.15,243.992 305.52,243.065 C307.88,242.391 308.554,242.559 310.829,244.497 C315.38,248.205 317.066,254.609 318.667,272.643 C318.919,275.845 319.594,277.362 321.953,280.058 C325.66,284.104 326.924,288.486 328.695,303.822 C329.874,313.345 330.464,315.873 332.15,318.401 C333.329,320.086 334.509,322.867 334.846,324.637 C335.942,331.462 337.037,333.738 341.082,338.12 C345.885,343.26 347.318,347.221 346.475,353.204 C346.054,356.828 346.307,358.007 349.762,365.002 C351.868,369.215 354.565,374.018 355.745,375.535 C357.177,377.389 358.02,379.749 358.273,382.782 C358.525,385.226 359.621,389.102 360.801,391.378 C361.98,393.653 362.992,396.349 362.992,397.445 C362.992,398.54 363.919,400.731 365.098,402.332 C366.278,403.934 367.879,406.294 368.638,407.641 C369.48,409.074 370.997,411.013 372.093,412.108 C374.031,414.214 374.452,417.333 373.104,419.945 C371.84,422.22 377.907,440.169 379.93,440.169 C380.351,440.169 381.531,441.855 382.458,444.046 C383.553,446.321 384.986,448.175 386.25,448.596 C388.525,449.523 388.863,451.63 387.009,454.242 C385.828,455.928 385.997,456.517 388.693,462.163 C392.148,469.41 392.655,474.719 389.957,474.719 C388.104,474.719 388.104,474.298 389.957,482.303 C390.295,483.905 390.884,486.265 391.137,487.612 C391.474,488.876 392.233,489.888 392.907,489.888 C393.919,489.888 394.171,491.067 394.171,494.944 L394.171,500 L306.532,500 L306.532,494.607 C306.532,491.573 306.953,488.876 307.374,488.624 C308.892,487.697 308.301,485.675 306.279,484.916 C304.172,484.074 298.863,478.596 297.262,475.478 C296.588,474.214 296.419,471.854 296.756,468.483 C297.178,463.933 297.093,463.259 295.24,461.321 C290.689,456.349 290.942,449.86 295.914,445.563 C299.79,442.192 299.79,439.832 295.829,435.787 C292.964,432.838 292.88,432.585 294.06,430.731 C295.071,429.215 295.492,425.675 295.661,416.996 L295.998,405.198 L292.206,404.608 C290.099,404.355 274.425,404.018 257.235,403.934 C240.128,403.849 224.201,403.766 221.842,403.681 C219.566,403.681 215.521,403.849 212.993,404.018 C210.465,404.186 206.926,404.018 205.241,403.681 L202.039,403.007 L202.039,415.478 C202.039,422.305 201.786,428.877 201.449,429.972 C201.112,431.321 201.196,431.827 201.87,431.405 C203.808,430.226 203.724,432.838 201.701,435.535 C198.668,439.411 198.921,442.108 202.46,445.731 C204.988,448.259 205.409,449.186 205.409,452.81 C205.409,456.012 204.904,457.444 203.218,459.551 C201.196,461.911 200.943,462.837 201.112,468.062 C201.28,472.95 200.943,474.382 199.426,476.657 C196.814,480.281 193.78,483.147 191.421,484.073 C189.398,484.747 188.724,487.107 190.072,488.708 C190.494,489.13 190.662,491.489 190.41,493.932 L190.072,498.314 L102.602,498.314 L102.602,493.343 C102.602,489.298 102.854,488.371 104.118,488.034 C105.298,487.697 106.057,485.927 107.236,481.376 C107.995,477.921 108.922,474.635 109.175,474.045 C109.343,473.372 108.837,472.697 107.741,472.444 C105.13,471.77 105.467,468.146 108.837,460.899 C111.365,455.422 111.534,454.495 110.523,452.725 C108.922,449.86 109.09,444.888 110.859,442.697 C111.703,441.686 114.062,440.001 116.084,438.99 C119.624,437.304 119.961,436.799 122.994,429.215 C124.68,424.833 125.944,420.619 125.607,419.945 C125.354,419.27 125.017,416.827 124.848,414.636 C124.68,411.35 124.933,410.422 126.365,409.58 C127.292,408.99 129.567,405.366 131.421,401.406 C133.275,397.445 135.888,392.052 137.236,389.355 C138.753,386.322 139.68,383.204 139.68,381.013 C139.68,379.074 140.185,376.883 140.775,376.209 C141.449,375.451 144.23,370.816 147.095,365.929 C152.151,357.165 152.236,356.911 152.151,350.676 C152.151,343.26 153.331,340.48 158.64,334.833 C161.506,331.715 162.432,330.03 163.275,325.732 C163.949,322.53 165.381,319.075 166.814,317.053 C169.005,314.019 169.342,312.586 170.353,302.137 C171.701,289.413 173.809,282.166 177.6,278.289 C179.623,276.098 179.96,274.919 180.887,266.154 C181.898,255.621 184.089,248.626 187.544,244.581 C189.483,242.222 190.072,241.969 193.275,242.391 C197.572,242.812 198.415,242.306 196.14,240.705 C195.213,240.031 194.454,238.598 194.454,237.334 C194.454,236.07 193.612,234.216 192.6,233.037 C190.747,231.183 190.747,231.014 192.179,229.919 C193.022,229.329 193.949,227.475 194.202,225.79 C194.454,224.189 195.381,222.166 196.224,221.408 C197.657,220.144 197.572,219.807 194.791,213.739 C193.275,210.284 190.831,206.07 189.398,204.554 C188.05,202.953 186.87,200.762 186.87,199.667 C186.87,197.139 183.5,188.206 182.573,188.206 C182.151,188.206 181.477,189.807 180.887,191.829 C180.382,193.767 179.623,196.295 179.37,197.476 C178.865,199.077 178.106,199.667 176.083,199.835 C173.977,200.087 173.387,200.594 172.965,202.7 C172.545,204.301 172.713,205.481 173.303,205.818 C174.314,206.492 170.269,212.812 167.404,215.171 C166.393,216.015 165.044,219.554 163.697,225.031 C160.662,237.756 155.691,262.363 155.691,264.974 C155.691,266.155 156.786,269.61 158.134,272.559 C161.506,280.143 161.842,282.84 159.988,286.126 C159.146,287.643 158.134,290.255 157.882,291.941 C157.544,293.879 156.112,296.154 153.837,298.429 C150.634,301.716 150.129,301.884 146.927,301.463 C139.764,300.452 132.601,297.165 128.725,293.12 C127.124,291.435 124.933,289.665 123.837,289.244 C121.646,288.401 121.478,285.536 122.91,276.688 C123.921,270.705 124.006,269.441 124.933,234.975 C125.523,213.571 125.438,211.296 124.174,210.2 C123.416,209.61 122.826,208.598 122.826,208.009 C122.826,207.419 122.068,205.143 121.056,202.953 L119.287,198.908 L121.898,195.2 C123.332,193.177 124.596,191.071 124.764,190.565 C124.933,189.554 120.298,188.121 110.186,186.015 C106.731,185.34 103.191,184.583 102.433,184.329 C100.411,183.739 100.494,181.717 102.602,181.043 C103.866,180.621 104.286,179.864 104.118,178.093 C103.949,175.313 105.55,173.037 107.741,173.037 C108.922,173.037 110.186,170.088 114.399,157.195 C120.634,138.066 127.292,119.274 129.23,115.566 C129.989,114.05 131.59,111.942 132.77,111.015 L134.961,109.246 L133.022,100.903 C131.927,96.269 130.494,90.96 129.904,88.937 C127.629,81.774 127.966,80.932 134.876,77.73 C139.764,75.454 142.123,74.864 147.264,74.696 C150.719,74.612 159.398,74.275 166.477,73.937 L179.286,73.432 L179.37,70.313 C179.455,68.629 179.538,65.931 179.707,64.33 C179.875,62.73 179.623,60.707 179.201,59.948 C178.696,59.022 178.781,58.347 179.37,57.927 C179.875,57.589 180.128,56.325 179.792,54.892 C179.455,53.123 180.045,50.847 181.814,46.887 C183.247,43.938 184.342,40.904 184.342,40.314 C184.342,39.64 184.679,38.966 185.101,38.713 C185.521,38.461 186.112,36.859 186.365,35.258 C186.702,33.657 187.376,32.309 187.966,32.309 C189.314,32.309 191.084,28.348 190.494,26.747 C190.24,26.073 190.41,25.567 190.831,25.567 C191.758,25.567 195.213,22.196 197.235,19.415 C198.162,18.236 199.932,16.972 201.28,16.719 C202.628,16.382 203.724,15.623 203.724,14.949 C203.724,14.275 204.145,13.77 204.567,13.77 C205.072,13.77 205.915,12.843 206.42,11.663 C207.6,9.05 211.729,6.86 214.257,7.534 C215.606,7.871 216.785,7.281 218.892,5.006 C221.083,2.73 222.01,2.225 222.853,2.983 C223.695,3.657 224.538,3.657 226.055,2.983 C228.92,1.714 231.803,0.145 234.991,0 z M288.886,352.482 C288.343,352.482 288.188,353.724 288.498,356.209 C288.731,358.228 289.119,361.333 289.352,363.196 C289.973,367.933 291.216,366.457 291.216,361.023 C291.216,356.131 290.206,352.482 288.886,352.482 z M209.149,352.482 C208.217,352.482 207.363,356.83 207.363,361.411 C207.363,366.302 208.916,363.585 209.46,357.684 C209.77,354.345 209.615,352.482 209.149,352.482 z M257.251,45.274 C256.315,45.371 256.679,45.25 256.122,45.489 C255.19,46.111 255.346,48.44 256.432,49.527 C257.209,50.303 257.209,50.847 256.432,52.011 C255.19,54.03 255.268,57.213 256.51,57.679 C258.141,58.378 260.703,58.3 262.877,57.446 C264.197,56.903 266.06,56.98 268.544,57.524 C273.125,58.533 275.688,57.912 275.687,55.893 C275.419,54.099 272.946,52.55 271.713,51.691 C267.436,48.715 262.442,46.072 257.251,45.274 z M241.991,45.023 C238.265,45.024 227.162,50.614 224.677,53.719 C224.212,54.263 223.59,55.505 223.357,56.437 C222.814,57.99 222.969,58.067 227.705,57.679 C230.423,57.446 233.063,56.903 233.606,56.437 C234.305,55.893 234.848,55.893 235.159,56.437 C235.469,56.825 237.488,57.213 239.584,57.135 C243.234,57.058 243.467,56.98 243.699,54.806 C243.855,53.564 243.544,52.322 242.923,51.934 C242.147,51.39 242.069,51.002 242.923,49.682 C244.476,47.12 244.088,45.024 241.991,45.023 z" fill="#000000"/>
  </g>
</svg>
