<?xml version="1.0" encoding="UTF-8"?>
<!DOCTYPE svg PUBLIC "-//W3C//DTD SVG 1.1//EN" "http://www.w3.org/Graphics/SVG/1.1/DTD/svg11.dtd">
<svg version="1.1" xmlns="http://www.w3.org/2000/svg" xmlns:xlink="http://www.w3.org/1999/xlink" x="0" y="0" width="500" height="500" viewBox="0, 0, 500, 500">
  <g id="Background">
    <rect x="0" y="0" width="500" height="500" fill="#000000" fill-opacity="0"/>
  </g>
  <g id="svgg">
    <path d="M202.444,125.467 C200.862,126.337 200.14,128.301 201.186,128.887 C201.493,129.059 201.654,129.484 201.588,129.949 C201.448,130.941 199.648,131.221 198.734,130.393 C198.281,129.984 197.83,129.909 196.832,130.078 C195.854,130.243 195.002,130.111 193.45,129.555 L191.378,128.811 L190.6,129.541 C190.029,130.078 189.774,130.739 189.641,132.032 C189.541,133.001 189.147,134.296 188.767,134.912 C187.105,137.603 186.358,150.702 187.719,153.313 C188.455,154.726 189.414,158.165 189.414,159.394 C189.414,160.373 190.672,162.759 192.182,164.643 L193.325,166.069 L193.223,171.14 C193.126,175.99 193.153,176.251 193.844,177.114 C195.434,179.105 195.668,179.642 195.911,181.842 C196.228,184.71 195.774,185.257 193.075,185.257 C191.626,185.257 191.225,185.389 190.641,186.061 C189.755,187.078 188.864,187.078 187.484,186.061 C186.884,185.618 185.989,185.257 185.496,185.257 C185.001,185.257 183.947,185.082 183.151,184.87 C181.829,184.515 181.622,184.544 180.746,185.191 C179.858,185.848 179.433,185.9 174.912,185.9 L170.034,185.9 L168.935,184.935 C167.565,183.732 167.237,183.732 165.979,184.935 C165.423,185.465 164.761,185.9 164.506,185.9 C163.765,185.9 163.032,186.839 163.032,187.788 C163.032,189.219 162.527,189.438 159.235,189.438 C156.54,189.438 156.111,189.358 155.322,188.693 C153.406,187.081 149.868,187.742 147.75,190.109 C146.406,191.611 145.426,192.347 143.189,193.532 C141.779,194.28 140.36,195.187 140.035,195.545 C138.99,196.7 137.435,196.817 122.157,196.895 C107.215,196.97 107.178,196.969 106.033,196.262 C105.19,195.74 104.382,195.552 102.991,195.552 C100.794,195.552 99.219,195.163 98.503,194.448 C98.225,194.17 97.658,193.943 97.244,193.943 C96.21,193.943 95.437,193.614 95.652,193.265 C95.751,193.107 96.31,192.978 96.898,192.978 C98.443,192.978 98.721,192.438 98.016,190.806 C97.271,189.077 96.083,188.989 92.745,190.412 C91.512,190.938 90.3,191.369 90.054,191.369 C89.807,191.369 89.055,191.678 88.382,192.057 C86.81,192.941 86.336,192.73 85.698,190.858 C84.675,187.855 84.104,187.675 80.139,189.095 C77.002,190.218 75.917,190.758 74.641,191.831 C74.114,192.275 73.296,192.784 72.824,192.964 C72.024,193.268 71.971,193.408 72.055,194.985 C72.212,197.932 70.691,196.503 68.291,191.449 C67.563,189.918 66.434,189.941 63.405,191.547 C61.152,192.742 60.264,192.742 60.718,191.547 C61.425,189.688 60.309,187.187 58.772,187.187 C57.775,187.187 57.175,186.056 56.963,183.774 C56.847,182.53 56.498,181.134 56.167,180.591 C55.798,179.985 55.578,179.005 55.578,177.96 C55.576,175.464 55.148,175.18 51.743,175.408 C45.011,175.862 43.854,175.821 43.723,175.122 C43.437,173.592 43.452,173.594 34.212,173.816 C24.236,174.056 24.533,173.967 24.827,176.576 C24.989,178.003 24.895,178.684 24.38,179.85 C23.903,180.928 23.779,181.699 23.915,182.726 C24.193,184.796 23.669,185.819 21.938,186.584 C20.073,187.409 20.017,187.589 20.457,191.322 C20.816,194.362 21.246,205.558 21.291,212.956 C21.316,217.12 21.075,217.751 19.461,217.751 C18.929,217.751 17.993,218.06 17.381,218.438 C16.432,219.025 15.964,219.097 14.182,218.931 C11.95,218.722 11.447,218.994 9.977,221.209 C9.462,221.986 9.406,221.834 11.029,224.065 C11.466,224.666 12.22,254.304 12.297,273.905 C12.304,275.721 12.199,275.999 10.696,278.153 C9.811,279.421 8.624,281.223 8.059,282.16 C6.718,284.379 6.169,284.91 4.948,285.173 C0.352,286.162 -0.172,291.029 4.083,293.186 C5.065,293.683 5.735,294.262 5.858,294.716 C5.966,295.118 6.21,296.027 6.402,296.734 C6.592,297.441 7.109,299.034 7.549,300.272 C9.308,305.218 9.57,306.021 9.57,306.448 C9.57,307.137 10.711,309.212 11.466,309.894 C12.304,310.652 12.307,310.916 11.5,312.498 C9.57,316.286 12.008,319.3 16.738,318.967 C19.224,318.791 19.249,318.798 20.438,319.865 C22.114,321.371 31.085,327.122 32.077,327.327 C33.472,327.616 33.853,327.971 34.047,329.155 C34.426,331.488 37.093,333.56 39.729,333.568 C40.545,333.57 41.242,333.991 42.945,335.505 C47.515,339.568 52.552,343.575 53.325,343.762 C54.629,344.075 54.933,344.506 54.933,346.035 C54.933,348.014 56.565,349.687 59.26,350.471 C60.353,350.788 61.482,351.376 61.944,351.866 C63.358,353.366 65.228,355.817 65.228,356.172 C65.228,356.361 66.097,357.35 67.158,358.369 L71.743,361.09 C73.564,362.667 73.915,363.134 73.915,363.98 C73.915,365.125 75.551,367.816 76.581,368.367 C77.03,368.607 78.463,368.652 80.97,368.506 C84.638,368.291 84.721,368.302 86.623,369.231 C87.684,369.75 90.508,370.709 92.896,371.363 C98.605,372.925 98.879,373.041 99.961,374.354 L100.886,375.476 L114.023,375.249 C141.231,374.779 170.413,374.594 204.375,374.674 C278.376,374.849 286.202,374.811 313.76,374.139 C321.369,373.954 330.852,373.729 334.833,373.639 C338.814,373.548 343.665,373.399 345.612,373.309 C347.557,373.218 356.461,373.072 365.396,372.983 C385.512,372.786 404.79,372.327 405.265,372.032 C405.462,371.911 405.82,371.338 406.063,370.756 C406.526,369.649 407.799,368.572 409.135,368.156 C411.792,367.33 420.689,362.566 421.764,361.393 L422.938,360.113 L425.616,360.109 C428.785,360.105 429.093,359.957 431.415,357.316 C433,355.515 433.536,355.148 436.217,354.038 C440.132,352.417 441.94,351.624 442.932,351.095 C443.375,350.859 444.377,350.365 445.159,349.995 C445.941,349.626 446.78,349.038 447.025,348.689 C447.814,347.562 448.543,347.37 450.039,347.898 C452.301,348.696 454.673,347.303 456.252,344.25 C456.759,343.269 457.081,343.087 463.362,340.247 C467.842,338.219 470.847,336.655 471.933,335.787 C472.696,335.175 472.903,335.147 473.982,335.502 C477.382,336.625 480.896,334.151 480.896,330.636 C480.896,329.734 481.606,328.882 486.606,323.786 C489.748,320.586 492.563,317.5 492.863,316.926 C493.339,316.017 493.529,315.91 494.363,316.076 C496.537,316.512 499.298,314.521 499.732,312.205 C500.172,309.864 498.915,307.995 495.927,306.547 C494.037,305.63 490.117,300.501 487.331,295.299 C486.632,293.994 485.806,292.953 485.155,292.552 C484.298,292.026 484.138,291.761 484.286,291.104 C485.38,286.253 483.22,283.469 478.928,284.193 C477.878,284.37 477.35,284.227 475.666,283.309 C474.561,282.707 473.005,281.959 472.21,281.647 C470.079,280.812 463.749,277.303 463.279,276.697 C463.056,276.409 462.407,276.022 461.836,275.837 C461.179,275.625 460.631,275.144 460.348,274.535 C459.301,272.278 456.786,270.943 454.319,271.333 C452.542,271.613 441.951,266.734 438.875,264.218 L437.946,263.459 L439.115,263.447 C440.007,263.438 440.323,263.283 440.453,262.793 C440.545,262.438 440.891,262.148 441.222,262.148 C441.97,262.148 443.036,263.344 442.811,263.932 C442.703,264.214 442.808,264.305 443.109,264.189 C443.366,264.091 443.575,264.17 443.575,264.366 C443.575,264.587 444.312,264.722 445.517,264.722 C447.427,264.722 449.367,263.581 449.367,262.459 C449.367,261.916 450.317,262.125 450.889,262.793 C451.564,263.58 452.809,263.624 453.624,262.887 C454.114,262.441 454.334,262.411 454.775,262.727 C455.074,262.942 455.5,263.205 455.722,263.312 C456.36,263.618 457.732,263.15 457.732,262.625 C457.732,262.363 457.938,262.148 458.188,262.148 C458.439,262.148 458.691,262.006 458.751,261.832 C458.916,261.343 472.617,261.279 472.779,261.765 C472.849,261.976 473.031,262.148 473.185,262.148 C473.339,262.148 474.108,262.583 474.894,263.114 C476.894,264.463 478.36,264.309 480.195,262.555 C480.428,262.332 480.9,262.148 481.24,262.148 C481.582,262.148 481.862,262.023 481.862,261.867 C481.862,261.713 482.572,261.519 483.438,261.435 C484.647,261.32 485.216,261.068 485.869,260.363 C486.704,259.461 486.809,259.439 490.722,259.309 C493.371,259.22 494.65,259.063 494.514,258.841 C494.386,258.634 494.562,258.574 494.977,258.683 C495.432,258.802 495.597,258.728 495.492,258.454 C495.406,258.231 495.547,257.968 495.804,257.87 C496.198,257.719 496.282,255.894 496.346,246.166 C496.541,216.36 496.513,212.358 496.1,212.516 C495.88,212.601 495.612,212.437 495.503,212.154 C495.359,211.779 494.88,211.637 493.758,211.637 C492.906,211.637 492.159,211.488 492.098,211.304 C492.037,211.12 490.926,210.881 489.629,210.772 C488.099,210.644 487.214,210.422 487.106,210.141 C487.015,209.903 486.73,209.708 486.472,209.708 C486.216,209.708 486.085,209.579 486.182,209.422 C486.427,209.025 485.227,208.752 483.209,208.746 C482.27,208.745 481.581,208.614 481.678,208.457 C481.775,208.301 481.547,208.092 481.172,207.994 C480.781,207.892 480.559,207.636 480.652,207.395 C480.758,207.119 480.522,206.954 479.98,206.922 C479.521,206.895 479.093,206.713 479.029,206.52 C478.965,206.326 478.481,206.168 477.954,206.168 C477.398,206.168 477.081,206.303 477.197,206.49 C477.305,206.667 477.191,206.811 476.943,206.811 C476.694,206.811 476.157,207.102 475.748,207.456 C475.319,207.828 474.545,208.099 473.91,208.099 C473.308,208.099 472.896,208.23 472.996,208.391 C473.094,208.551 472.415,208.733 471.486,208.792 C469.715,208.908 465.702,208.614 466.257,208.41 C466.434,208.344 464.841,208.212 462.719,208.114 C459.374,207.961 458.863,207.866 458.898,207.4 C458.923,207.069 458.77,206.927 458.499,207.032 C458.256,207.125 457.97,206.968 457.861,206.685 C457.752,206.401 457.452,206.168 457.196,206.168 C456.939,206.168 456.809,206.298 456.906,206.457 C457.119,206.801 456.189,207.212 455.777,206.957 C455.617,206.859 455.574,207.004 455.678,207.277 C455.822,207.651 455.658,207.777 455.031,207.777 C454.571,207.777 454.193,207.622 454.193,207.433 C454.193,206.396 452.482,205.775 452.133,206.685 C452.024,206.969 451.727,207.121 451.472,207.023 C451.163,206.904 451.068,207.001 451.188,207.311 C451.298,207.599 451.169,207.777 450.85,207.777 C450.565,207.777 450.332,207.622 450.332,207.433 C450.332,206.103 448.092,205.749 447.437,206.972 C447.2,207.415 446.805,207.777 446.559,207.777 C446.313,207.777 446.194,207.643 446.296,207.479 C446.397,207.314 446.189,207.088 445.833,206.975 C445.476,206.86 445.185,206.633 445.185,206.468 C445.185,205.963 443.979,206.136 443.773,206.671 C443.506,207.369 441.47,207.181 441.521,206.464 C441.568,205.769 439.74,205.884 439.338,206.602 C438.969,207.261 437.463,207.318 437.463,206.672 C437.463,206.102 436.395,205.734 435.533,206.008 C435.178,206.119 434.889,206.419 434.889,206.672 C434.889,206.971 434.547,207.134 433.925,207.134 C433.28,207.134 432.959,206.972 432.959,206.651 C432.959,205.845 431.4,206.081 430.531,207.02 L429.742,207.871 L428.953,207.02 C427.956,205.944 427.028,205.939 426.041,207.005 L425.266,207.84 L424.491,207.005 C423.525,205.963 423.096,205.956 422.153,206.972 C421.433,207.749 420.489,208.111 420.894,207.456 C421.004,207.279 420.868,207.134 420.591,207.134 C420.316,207.134 420.09,206.916 420.09,206.651 C420.09,205.845 418.531,206.081 417.662,207.02 L416.873,207.871 L416.084,207.02 C415.215,206.081 413.656,205.845 413.656,206.651 C413.656,206.916 413.502,207.134 413.314,207.134 C413.128,207.134 413.064,207.279 413.173,207.456 C413.613,208.167 412.095,207.72 411.533,206.972 C410.765,205.95 410.224,205.958 409.255,207.005 L408.48,207.84 L407.705,207.005 C406.973,206.215 405.003,205.765 405.451,206.49 C405.562,206.667 405.507,206.811 405.333,206.811 C405.158,206.811 404.79,207.038 404.515,207.311 C403.955,207.871 402.437,206.881 402.843,206.223 C403.123,205.773 401.688,206.189 401.166,206.709 C400.59,207.284 399.201,207.247 398.973,206.651 C398.869,206.382 398.391,206.168 397.891,206.168 C397.391,206.168 396.912,206.382 396.81,206.651 C396.708,206.916 396.395,207.134 396.113,207.134 C395.832,207.134 395.683,207.268 395.786,207.431 C395.893,207.607 394.033,207.772 391.246,207.833 C387.793,207.91 386.487,208.047 386.387,208.346 C386.312,208.57 386.048,208.957 385.797,209.208 C385.548,209.457 385.343,209.82 385.343,210.015 C385.343,210.47 383.956,210.994 382.749,210.994 C382.23,210.994 381.805,211.156 381.805,211.354 C381.805,211.562 381.471,211.65 381.011,211.561 C380.573,211.478 380.291,211.532 380.385,211.682 C380.689,212.176 378.852,213.568 377.897,213.568 C377.392,213.568 376.979,213.712 376.979,213.89 C376.979,214.067 376.681,214.211 376.317,214.211 C375.952,214.211 375.743,214.067 375.854,213.89 C375.98,213.684 375.008,213.568 373.164,213.568 L370.277,213.568 L368.936,212.319 C368.027,211.471 367.18,211.001 366.304,210.861 C364.379,210.554 364.11,210.12 364.11,207.317 C364.11,205.367 364.013,204.882 363.628,204.882 C363.362,204.882 363.146,204.736 363.146,204.559 C363.146,203.953 351.346,204.144 351.112,204.754 C350.995,205.058 350.71,205.191 350.417,205.08 C350.105,204.96 350.003,205.021 350.139,205.243 C350.26,205.438 350.192,205.7 349.989,205.825 C349.785,205.952 349.529,207.021 349.418,208.203 C349.308,209.384 349.11,210.351 348.98,210.351 C348.849,210.351 348.666,210.64 348.574,210.994 C348.396,211.676 346.737,211.949 346.737,211.297 C346.737,211.11 346.593,211.046 346.415,211.155 C346.218,211.278 346.094,210.744 346.094,209.767 C346.094,207.265 345.785,206.168 345.077,206.168 C344.741,206.168 344.381,205.952 344.279,205.686 C344.178,205.42 343.892,205.204 343.647,205.204 C343.4,205.204 343.199,205.043 343.199,204.847 C343.199,204.652 342.981,204.574 342.715,204.676 C342.451,204.779 342.233,204.721 342.233,204.55 C342.233,204.378 341.38,204.238 340.337,204.238 C337.965,204.238 337.862,204.01 338.836,200.959 C340.149,196.85 340.152,196.47 338.877,194.866 C336.746,192.189 336.822,192.239 335.248,192.455 C333.934,192.635 333.236,192.399 327.185,189.73 C323.543,188.123 319.9,186.701 319.092,186.569 C318.282,186.438 317.058,185.943 316.37,185.472 C315.681,184.999 314.839,184.614 314.499,184.614 C313.646,184.614 312.695,184.075 311.23,182.765 C310.05,181.709 309.9,181.664 308.299,181.863 C306.772,182.055 306.513,181.991 305.568,181.195 C304.596,180.378 304.452,180.345 303.512,180.741 C301.874,181.429 299.958,181.512 298.856,180.943 C297.477,180.229 297.049,180.292 295.792,181.397 C293.733,183.203 291.062,183.074 290.644,181.147 C290.312,179.623 289.914,179.323 287.99,179.149 C286.821,179.042 286.067,178.808 285.908,178.5 C282.417,171.786 281.968,169.17 284.307,169.17 C284.821,169.17 285.299,168.96 285.404,168.687 C285.683,167.958 286.437,168.108 287.028,169.009 C287.794,170.179 290.125,170.174 290.895,168.999 C291.418,168.201 291.447,168.195 292.358,168.735 C293.139,169.195 293.372,169.216 293.804,168.858 C294.23,168.502 294.454,168.502 295.112,168.855 C295.818,169.232 295.991,169.202 296.646,168.586 C297.906,167.402 305.679,167.435 307.407,168.633 C308.87,169.646 309.695,169.71 310.741,168.89 C311.163,168.559 312.003,168.18 312.606,168.048 C313.211,167.917 314.354,167.464 315.147,167.041 C316.221,166.472 317.101,166.274 318.584,166.274 C321.641,166.274 321.573,166.461 321.653,157.91 C321.81,141.256 321.747,136.297 321.377,136.068 C321.175,135.942 319.886,135.644 318.511,135.404 C317.137,135.163 315.666,134.7 315.245,134.374 C314.823,134.047 314.034,133.78 313.493,133.78 C312.948,133.78 311.951,133.394 311.26,132.916 L310.012,132.051 L308.669,132.765 C306.985,133.661 304.813,134.042 303.144,133.734 C302.435,133.603 300.971,133.487 299.889,133.477 C298.434,133.464 297.71,133.292 297.109,132.819 C296.398,132.261 296.248,132.24 295.901,132.659 C295.388,133.277 294.969,133.262 294.241,132.604 C293.692,132.108 293.609,132.112 293.009,132.655 C292.41,133.197 292.325,133.201 291.778,132.705 C291.042,132.039 290.794,132.039 290.058,132.705 C289.511,133.201 289.426,133.197 288.818,132.648 C288.32,132.195 288.08,132.146 287.79,132.437 C287.271,132.956 286.57,132.911 285.915,132.318 C285.418,131.868 285.315,131.868 284.866,132.318 C284.238,132.946 284.029,132.942 283.302,132.283 C282.754,131.787 282.669,131.791 282.067,132.336 C281.504,132.845 281.318,132.866 280.623,132.494 C279.928,132.122 279.741,132.142 279.179,132.652 C278.575,133.197 278.492,133.201 277.943,132.705 C277.202,132.033 276.962,132.037 276.195,132.731 C275.609,133.261 275.557,133.261 275.169,132.731 C274.661,132.036 274.395,132.031 273.651,132.705 C273.103,133.2 273.022,133.2 272.474,132.705 C271.738,132.039 271.491,132.039 270.754,132.705 C270.208,133.2 270.126,133.2 269.578,132.705 C268.843,132.039 268.595,132.039 267.859,132.705 C267.311,133.201 267.227,133.197 266.627,132.655 C266.007,132.093 265.961,132.093 265.341,132.655 C264.742,133.197 264.657,133.201 264.109,132.705 C263.374,132.039 263.126,132.039 262.39,132.705 C261.842,133.201 261.759,133.198 261.19,132.682 C260.675,132.217 260.472,132.194 259.922,132.536 C259.391,132.868 259.119,132.866 258.473,132.52 C257.794,132.157 257.569,132.171 256.933,132.616 C256.396,132.992 255.466,133.137 253.585,133.137 C251.014,133.137 250.969,133.15 249.984,134.264 C249.358,134.971 248.695,135.389 248.201,135.389 C247.768,135.389 246.855,135.768 246.172,136.232 C244.63,137.279 240.684,137.391 239.328,136.426 C238.467,135.816 238.276,135.707 236.868,135.028 C236.015,134.618 235.891,134.379 235.802,132.972 C235.746,132.096 235.53,131.27 235.32,131.138 C234.828,130.825 227.973,130.819 227.506,131.131 C226.92,131.522 226.412,132.714 226.412,133.698 C226.412,135.734 224.413,136.546 224.233,134.582 C224.184,134.052 224.08,133.324 224.001,132.961 C223.827,132.153 221.659,130.885 220.455,130.885 C219.342,130.885 217.404,129.712 217.404,129.037 C217.404,125.38 213.363,124.524 211.883,127.869 L211.248,129.304 L208.959,129.21 L206.669,129.116 L205.665,127.405 C204.315,125.101 203.74,124.755 202.444,125.467" fill="#000000" id="path0"/>
  </g>
</svg>
