<?xml version="1.0" encoding="UTF-8"?>
<!DOCTYPE svg PUBLIC "-//W3C//DTD SVG 1.1//EN" "http://www.w3.org/Graphics/SVG/1.1/DTD/svg11.dtd">
<svg version="1.1" xmlns="http://www.w3.org/2000/svg" xmlns:xlink="http://www.w3.org/1999/xlink" x="0" y="0" width="500" height="500" viewBox="0, 0, 500, 500">
  <g id="Background">
    <rect x="0" y="0" width="500" height="500" fill="#000000" fill-opacity="0"/>
  </g>
  <g id="Layer_1">
    <path d="M201.954,101.43 C199.791,102.38 189.323,103.254 183.208,102.997 C178.876,102.814 178.637,102.877 176.005,104.886 C171.619,108.233 170.97,108.467 168.06,107.733 C164.819,106.917 162.811,107.618 161.582,109.993 C160.355,112.368 149.817,121.936 148.429,121.936 C147.701,121.936 139.869,130.316 139.869,131.094 C139.869,131.497 139.175,132.476 138.326,133.267 C136.047,135.397 135.115,137.573 135.118,140.766 C135.124,151.353 131.933,154.73 121.779,154.894 C118.496,154.946 115.275,155.269 114.621,155.609 C113.306,156.295 107.769,157.102 103.631,157.211 L100.957,157.281 L100.661,153.581 C100.248,148.444 98.747,146.982 93.16,146.28 C90.895,145.995 88.248,145.349 87.278,144.842 C86.306,144.337 84.685,143.921 83.674,143.919 C82.564,143.917 81.388,143.421 80.707,142.668 C79.726,141.585 79.054,141.451 75.585,141.648 C66.936,142.136 63.652,148.921 69.234,154.762 C71.62,157.258 73.067,160.731 73.568,165.155 C74.021,169.154 73.706,169.889 69.437,174.833 C68.435,175.991 67.261,178.208 66.827,179.758 C65.798,183.435 65.413,183.59 56.054,184.084 C48.293,184.493 48.058,184.546 46.357,186.247 C45.398,187.206 43.554,188.659 42.262,189.474 C40.969,190.291 38.466,192.136 36.7,193.575 C34.933,195.015 33.214,196.191 32.881,196.191 C31.842,196.191 27.597,199.905 26.373,201.886 C25.203,203.78 24.074,204.394 19.48,205.638 C16.794,206.363 14.494,208.615 11.241,213.7 C10.173,215.371 8.912,217.059 8.439,217.451 C6.344,219.189 5.386,222.774 6.057,226.354 C6.649,229.507 6.593,229.908 5.296,231.834 C4.304,233.31 3.722,235.381 3.291,238.964 C2.957,241.74 2.536,245.216 2.357,246.686 C1.846,250.856 2.061,255.705 2.816,257.048 C3.194,257.72 3.953,260.008 4.505,262.131 C6.206,268.691 7.148,270.703 8.675,271.06 C10.264,271.431 10.839,273.798 9.809,275.723 C9.315,276.647 9.563,277.856 10.961,281.347 C11.941,283.792 12.741,286.155 12.741,286.595 C12.741,287.035 13.731,288.861 14.94,290.654 C16.87,293.516 18.122,297.315 18.854,302.527 L20.167,303.671 L21.469,305.171 C22.185,305.995 23.655,307.163 24.736,307.764 C202.065,399.588 210.353,399.088 219.174,398.734 C227.049,398.045 224.646,396.407 232.698,395.142 C238.05,394.3 238.417,394.125 239.309,391.988 C240.499,389.142 242.923,387.475 245.873,387.475 C246.954,385.688 246.977,385.224 249.245,381.203 C250.788,378.47 251.035,377.52 250.721,375.551 C250.318,373.031 250.711,372.443 254.944,369.266 C256.907,367.793 261.649,356.837 261.649,353.774 C261.649,352.667 262.246,351.215 263.134,350.158 C263.951,349.188 264.619,347.837 264.619,347.157 C264.619,345.331 266.775,344.294 271.45,343.873 C281.691,342.95 288.93,341.563 290.12,340.295 C292.165,338.118 296.063,329.844 296.464,326.834 C296.835,324.029 298.751,323.138 300.262,325.069 C300.996,326.006 309.489,329.605 343.924,343.569 C382.16,359.072 384.182,359.858 392.043,362.267 C394.657,363.067 398.399,364.305 400.36,365.019 C408.388,367.937 431.904,366.915 434.602,363.531 C439.509,361.135 442.181,360.567 444.626,360.189 C450.046,359.347 451.517,358.451 452.311,355.501 C452.748,353.876 453.561,352.815 455.156,351.787 C458.492,349.637 462.39,341.989 462.418,337.541 C462.44,333.966 462.893,333.118 465.876,331.077 C469.779,328.405 473.161,320.187 472.84,314.155 C472.598,309.598 472.687,309.023 473.717,308.472 C476.215,303.835 475.478,302.563 475.444,301.813 C475.135,295.041 475.172,292.582 475.599,291.728 C476.334,290.256 475.635,289.024 473.677,288.342 C471.684,287.647 471.386,286.151 473.131,285.596 C473.784,285.388 474.318,284.946 474.318,284.611 C474.318,284.276 473.784,283.322 473.131,282.492 C472.476,281.661 471.942,280.61 471.942,280.158 C471.942,279.706 471.103,277.804 470.077,275.932 C469.051,274.059 467.439,271.057 466.493,269.26 C465.549,267.464 463.211,264.389 461.299,262.429 C457.995,259.043 457.8,258.677 457.427,255.152 C456.944,250.603 456.962,250.599 464.061,253.747 C475.974,259.031 478.304,260.18 480.793,262.001 C482.232,263.053 483.769,263.914 484.212,263.914 C484.654,263.914 486.013,264.448 487.23,265.1 C490.286,266.738 493.026,267.153 495.1,266.294 C497.011,265.502 497.218,265.067 497.777,260.639 L498.154,257.662 L491.043,254.253 C487.133,252.378 483.574,250.842 483.135,250.84 C479.349,250.82 455.567,239.99 453.602,237.39 C453.071,236.686 452.189,235.299 451.646,234.306 C451.1,233.314 449.529,231.928 448.155,231.228 C442.782,228.487 441.689,225.77 444.559,222.292 C447.125,219.178 447.76,213.681 445.648,212.879 C442.974,211.861 441.412,207.551 442.292,203.617 C443.073,200.125 442.051,196.728 439.255,193.519 C438.685,192.865 438.023,191.662 437.784,190.845 C437.545,190.029 436.01,186.963 434.37,184.032 L431.389,178.705 L432.122,175.845 C432.916,172.744 432.531,169.825 431.376,170.209 C430.98,170.34 430.52,171.228 430.353,172.182 C429.91,174.719 428.604,174.299 427.44,171.242 C424.655,163.932 421.777,161.76 414.853,161.744 C413.09,161.739 411.13,161.211 409.327,160.251 C407.564,159.314 405.568,158.766 403.915,158.766 C402.475,158.766 399.059,158.244 396.324,157.606 C393.08,156.851 388.128,156.336 382.085,156.125 C373.051,155.811 368.813,155.107 364.271,153.167 C360.582,151.592 361.115,150.175 367.983,143.293 C371.25,140.018 373.924,136.987 373.924,136.558 C373.924,132.171 365.482,126.434 362.431,128.746 C361.211,129.669 360.161,129.425 357.725,127.647 C356.311,126.617 355.756,126.535 353.76,127.068 C351.332,127.715 349.609,127.248 346.79,125.175 C345.595,124.297 345.415,124.306 344.404,125.308 C343.802,125.904 342.581,126.864 341.687,127.444 C340.794,128.023 340.063,128.802 340.063,129.172 C340.063,130.423 335.278,136.198 333.058,137.627 C331.146,138.855 329.845,139.095 323.22,139.448 C316.74,139.794 315.173,140.075 312.847,141.31 C310.848,142.375 309.629,142.662 308.326,142.375 C305.734,141.805 297.93,142.015 295.51,142.719 C290.18,144.268 281.865,139.616 281.837,135.068 C281.824,132.67 277.495,129.149 275.5,129.914 C274.194,130.417 273.842,128.511 275.074,127.609 C276.797,126.349 276.615,114.919 274.817,111.419 C272.375,106.669 264.508,105.602 261.726,109.645 C259.171,113.358 257.988,113.612 255.16,111.057 C253.701,109.739 251.99,108.844 250.423,108.58 C248.946,108.33 247.006,107.36 245.545,106.14 C241.879,103.077 235.511,104.457 235.511,108.314 C235.511,110.712 230.46,109.825 227.332,106.879 C224.19,103.917 221.188,104.364 217.706,108.314 L215.004,111.378 L212.931,110.488 C210.282,109.348 205.895,104.823 205.306,102.62 C204.761,100.584 204.276,100.412 201.954,101.43" fill="#000000" id="legion-arquitor-bombard"/>
  </g>
</svg>
