<?xml version="1.0" encoding="UTF-8"?>
<!DOCTYPE svg PUBLIC "-//W3C//DTD SVG 1.1//EN" "http://www.w3.org/Graphics/SVG/1.1/DTD/svg11.dtd">
<svg version="1.1" xmlns="http://www.w3.org/2000/svg" xmlns:xlink="http://www.w3.org/1999/xlink" x="0" y="0" width="500" height="500" viewBox="0, 0, 500, 500">
  <g id="layer102">
    <path d="M413.966,401.66 C415.28,400.444 419.942,396.424 424.247,392.89 C428.551,389.356 432.971,385.219 434.161,383.642 C435.473,382.184 438.343,379.868 440.741,378.641 C443.259,377.292 446.49,374.852 448.16,373.03 C449.83,371.207 452.579,368.772 454.255,367.672 C457.01,365.96 464.062,359.75 477.324,347.699 C479.354,345.752 483.781,342.338 487.013,340.139 C498.027,332.447 500.769,329.289 500.718,323.747 C500.651,316.519 498.576,313.646 483.751,300.048 C470.385,287.882 468.43,284.888 472.016,281.842 C474.885,279.406 474.131,276.04 469.379,270.3 C465.48,265.637 464.391,265.045 459.932,264.965 C448.004,264.956 442.805,263.076 436.361,256.75 C435.267,255.675 430.038,250.423 424.685,244.93 C419.334,239.557 413.383,234.431 411.567,233.485 C409.145,232.181 404.683,231.74 397.094,231.931 C390.952,232.109 385.41,232.16 384.566,232.168 C383.842,232.054 382.985,230.616 382.727,228.811 C382.463,226.283 381.611,225.327 379.32,225.107 C377.631,224.882 375.575,224.057 374.605,223.344 C372.298,221.437 345.917,222.043 338.948,224.155 C334.503,225.522 332.947,226.62 331.771,229.764 C330.709,232.183 329.278,233.763 327.952,233.775 C325.181,233.801 321.513,227.931 320.006,221.318 C317.246,209.537 317.251,210.139 321.088,208.055 C323.366,206.829 325.272,204.522 326.092,201.984 C327.027,198.843 328.699,197.261 332.657,195.297 C335.656,193.823 338.417,192.714 338.778,192.71 C339.139,192.707 341.654,190.997 344.165,188.925 C348.709,185.269 348.828,185.027 348.759,177.557 C348.691,170.208 348.809,169.966 353.24,167.033 C355.635,165.445 361.509,162.258 366.069,160.167 C370.747,157.955 375.424,155.623 376.503,155.011 C377.701,154.277 379.142,153.782 379.865,153.775 C380.588,153.768 383.225,152.298 385.86,150.587 C390.289,147.534 390.645,146.928 390.596,141.627 C390.564,138.133 389.815,135.369 388.844,134.534 C387.873,133.7 386.769,131.662 386.271,129.86 C385.772,128.056 383.69,124.461 381.497,121.831 C379.304,119.201 375.391,112.971 372.815,108.055 C365.333,93.666 360.847,90.575 355.837,96.163 C354.645,97.5 353.089,98.599 352.486,98.605 C351.763,98.611 346.364,101.071 340.368,104.018 C315.182,116.661 313.741,117.156 300.614,117.76 L288.449,118.233 L281.889,112.391 C278.245,109.171 274.605,106.554 273.762,106.562 C269.305,106.603 253.393,118.799 252.349,123.146 C251.768,125.44 251.049,125.929 248.754,125.347 C246.339,124.767 233.501,130.549 221.877,137.404 C220.918,137.894 218.52,139.242 216.481,140.225 C214.562,141.207 210.727,143.411 208.092,145.002 C201.263,149.282 179.197,160.45 177.511,160.466 C176.668,160.473 174.628,161.456 172.954,162.797 C171.158,164.019 163.966,168.061 156.893,171.861 C149.818,175.542 143.105,179.218 142.149,180.07 C139.399,182.385 140.032,185.753 144.185,191.739 C147.236,196.048 147.73,197.368 146.413,198.224 C145.455,198.836 137.749,199.389 129.315,199.467 C120.159,199.551 112.816,200.222 111.256,200.959 C109.818,201.816 103.249,208.021 96.686,214.95 L84.755,227.591 L44.998,227.958 C10.904,228.274 4.762,228.571 2.488,230.279 L-0.146,232.111 L0.277,277.771 L0.698,323.311 L7.624,329.632 C11.392,333.212 15.647,337.269 17.106,338.702 C19.417,341.09 21.467,341.312 41.235,342.214 C53.168,342.706 64.618,343.081 66.545,343.064 C68.594,343.165 72.939,343.968 76.201,344.902 L82.241,346.534 L84.129,355.311 C86.013,363.608 86.501,364.326 93.306,370.528 C97.315,374.106 104.115,379.826 108.486,383.4 C112.855,386.854 118.807,391.98 121.722,394.604 C132.902,404.862 122.652,403.993 230.369,404.202 C283.022,404.317 345.314,404.343 368.807,404.247 C409.53,404.111 411.457,403.973 413.966,401.66 z" fill="#000000"/>
  </g>
</svg>
