<?xml version="1.0" encoding="UTF-8"?>
<!DOCTYPE svg PUBLIC "-//W3C//DTD SVG 1.1//EN" "http://www.w3.org/Graphics/SVG/1.1/DTD/svg11.dtd">
<svg version="1.1" xmlns="http://www.w3.org/2000/svg" xmlns:xlink="http://www.w3.org/1999/xlink" x="0" y="0" width="500" height="500" viewBox="0, 0, 500, 500">
  <g id="layer102">
    <path d="M25.998,61.279 C19.919,61.659 22.592,61.439 17.97,61.874 C10.008,62.799 2.786,64.096 1.86,64.651 C-1.844,66.873 0.193,73.354 6.118,79.466 C11.673,85.206 12.599,87.428 14.637,102.985 C17.044,121.872 16.118,131.317 11.118,136.872 C6.489,142.058 3.896,171.687 7.785,176.316 C9.267,177.983 11.304,183.167 12.415,187.798 C13.711,192.427 15.563,198.724 16.859,201.686 C18.156,204.834 20.563,212.242 22.044,218.353 L25.007,229.464 L35.378,229.464 C44.821,229.464 46.117,229.834 50.378,235.39 C54.452,240.575 55.007,242.797 54.081,250.019 L53.155,258.538 L58.71,257.426 C63.895,256.315 64.265,256.686 66.674,264.093 C67.969,268.538 69.822,274.834 70.932,277.981 C72.599,283.167 72.413,284.648 69.081,288.167 C62.414,295.389 55.007,312.24 52.784,324.833 L50.933,336.869 L40.933,338.165 C30.007,339.462 27.785,341.314 27.785,350.203 C27.785,355.387 28.711,356.684 34.452,359.091 C38.155,360.573 45.007,361.868 49.821,362.054 C66.674,362.239 75.748,364.647 82.044,370.758 C86.487,375.202 89.821,376.684 94.635,376.684 C100.932,376.684 101.487,377.239 103.525,384.647 C108.154,400.943 112.783,409.646 120.747,417.239 C133.895,430.017 137.969,432.979 144.45,435.201 C154.82,438.72 161.672,439.646 165.93,437.794 C172.597,435.017 220.375,433.72 314.818,433.349 C398.52,433.165 407.038,432.794 412.409,429.831 C415.742,428.165 419.26,425.017 420.372,422.979 C421.483,420.943 424.446,417.239 426.853,414.646 C429.446,412.239 432.038,407.609 432.593,404.461 C434.631,394.647 437.038,394.092 457.037,398.164 C462.223,399.091 464.816,398.35 473.333,392.424 C480.371,387.609 483.333,384.276 483.333,381.313 C483.333,378.721 486.111,375.387 491.667,371.313 C496.297,367.98 500,364.647 500,363.906 C500,363.165 498.704,359.832 497.038,356.684 C492.223,346.869 485.742,343.536 468.334,342.426 C447.408,340.943 445.741,340.388 443.334,335.573 C442.224,333.166 439.631,327.981 437.408,323.907 C430.186,310.204 425.927,300.018 425.927,296.87 C425.927,295.018 425.002,292.982 423.89,292.425 C422.964,291.685 419.816,286.499 417.224,280.76 C414.631,274.834 410.187,265.019 407.224,258.538 C404.261,252.055 401.854,246.316 401.854,245.759 C401.854,245.204 399.632,240.204 397.039,234.833 C390.742,222.056 391.854,219.279 402.78,219.279 C408.89,219.279 411.112,218.537 411.112,216.501 C411.112,212.612 422.224,202.241 431.667,197.612 C436.112,195.39 443.705,193.167 448.705,192.427 C458.334,191.131 463.149,187.241 467.963,176.872 C470.926,170.945 470.926,170.205 466.668,162.057 C464.259,157.428 459.816,150.02 457.037,145.761 C454.26,141.503 451.853,137.429 451.853,136.503 C451.853,135.575 449.63,132.243 446.668,129.094 C441.853,123.539 441.298,123.355 430.001,124.281 C423.705,124.836 418.519,126.132 418.519,127.058 C418.519,127.984 415.928,132.058 412.593,136.132 C404.445,146.132 387.594,156.316 378.891,156.316 C373.15,156.316 371.484,157.242 368.336,162.613 C365.927,166.873 359.632,172.057 350.188,177.428 C336.114,185.76 329.076,187.798 326.854,184.093 C326.299,182.983 322.225,182.242 317.966,182.242 C312.225,182.242 309.077,183.353 306.67,186.131 C304.263,189.095 302.041,189.834 297.967,188.909 C295.003,188.353 290.374,187.241 287.41,186.686 C283.522,185.946 277.967,188.353 260.559,198.724 C248.152,206.131 236.67,211.872 233.708,211.872 C230.93,211.872 227.041,213.168 225.189,214.649 C223.153,216.13 219.079,217.427 216.301,217.427 C207.783,217.427 198.893,222.242 188.152,232.242 C177.783,242.056 172.968,244.093 175.006,237.982 C176.301,233.352 171.301,230.39 162.413,230.39 C154.265,230.39 153.339,229.094 156.301,223.168 C158.709,218.723 162.413,215.205 175.745,204.834 C179.819,201.686 180.005,200.76 178.152,195.946 C175.19,189.095 171.671,186.872 159.079,184.279 C149.265,182.242 142.969,183.353 120.191,190.76 C115.747,192.241 114.08,184.093 118.154,179.835 C121.117,176.502 121.117,176.131 117.598,173.354 C114.45,170.761 113.709,167.613 113.34,155.39 C112.783,140.391 111.117,137.058 105.192,138.91 C102.599,139.65 91.487,134.836 85.747,130.206 C80.191,125.576 57.414,137.243 57.414,144.649 C57.414,148.909 52.969,146.316 50.378,140.391 C45.747,130.206 45.007,129.465 36.118,126.502 C31.304,124.836 26.673,122.243 25.933,120.946 C23.711,117.058 20.563,87.614 21.673,81.132 C22.415,75.947 23.525,75.022 30.192,73.725 C36.118,72.429 38.155,71.132 38.526,67.984 C39.453,60.78 30.894,61.286 25.998,61.279 z M205.586,399.07 C210.147,399.202 208.119,399.127 211.671,399.276 C224.449,399.831 225.005,400.017 229.079,406.128 C231.486,409.646 233.153,413.35 232.782,414.46 C232.411,415.572 227.967,416.683 222.782,417.053 C214.634,417.609 213.153,417.053 212.041,413.72 C210.56,408.721 202.597,408.721 200.931,413.534 C200.19,416.127 197.783,417.424 192.967,417.979 C177.597,419.646 176.857,417.424 189.635,406.498 C194.752,402.034 198.227,398.724 205.586,399.07 z M283.722,401.028 C288.331,401.128 292.886,400.83 296.299,404.461 C300.374,408.535 301.299,414.831 297.596,416.127 C296.484,416.498 292.041,416.683 288.151,416.312 C281.67,415.943 278.893,414.091 277.226,409.276 C276.3,406.498 268.893,410.017 267.967,413.72 C266.855,417.795 261.114,418.905 261.3,415.202 C261.3,413.905 262.781,410.386 264.633,407.238 C267.597,402.054 268.707,401.683 280.189,401.128 L283.722,401.028 z M349.447,402.609 C360.372,402.609 362.039,403.165 365.927,407.609 C368.15,410.386 369.817,413.165 369.262,414.091 C368.706,414.831 364.262,415.572 359.262,415.572 C351.854,415.572 350.002,414.831 349.076,411.869 C348.521,409.831 346.298,408.165 344.262,408.165 C342.41,408.165 339.817,409.831 338.521,411.869 C336.114,415.757 331.485,416.869 331.485,413.72 C331.485,412.609 332.78,409.646 334.447,407.238 C337.224,403.165 338.706,402.609 349.447,402.609 z M144.147,207.071 C147.595,208.161 151.122,209.727 151.856,213.723 C151.856,214.463 148.894,216.872 145.375,219.094 C139.634,222.427 138.895,223.723 138.895,230.204 C138.895,234.278 137.969,238.168 137.043,238.723 C134.45,240.39 134.82,250.759 137.413,250.945 C138.709,251.13 141.301,251.13 142.969,250.945 C145.005,250.759 147.227,252.612 148.524,255.204 C149.636,257.797 151.301,260.019 152.227,260.019 C156.856,260.019 151.672,267.055 135.191,283.351 C108.709,309.463 105.747,312.795 102.969,319.647 C101.487,322.981 99.635,326.314 98.895,327.24 C97.044,329.092 94.821,328.907 93.525,326.685 C92.413,324.647 99.635,300.389 105.561,286.87 C112.599,270.76 112.783,269.834 110.192,267.241 C106.857,263.907 104.264,234.094 107.228,234.094 C108.339,234.094 109.266,232.427 109.266,230.389 C109.266,224.834 114.45,215.575 117.414,215.575 C118.709,215.575 120.931,214.463 122.043,212.982 C123.154,211.686 127.598,210.02 132.043,209.463 C136.488,208.908 141.301,207.798 142.969,207.241 L144.147,207.071 z M378.366,230.539 C379.018,230.706 379.747,230.688 380.321,231.038 C385.332,234.089 389.714,248.39 392.594,253.537 C396.854,262.796 401.854,273.352 403.706,277.241 C407.964,285.574 408.335,290.759 405.002,292.055 C400.557,294.092 397.223,292.241 396.668,287.796 C396.297,285.203 394.076,279.093 391.668,273.907 C389.261,268.907 386.113,261.686 384.632,257.797 C383.149,254.093 378.706,248.167 374.632,244.463 L367.594,237.797 L372.224,234.094 C374.104,232.619 375.929,230.976 378.366,230.539 z" fill="#000000"/>
  </g>
</svg>
