<?xml version="1.0" encoding="UTF-8"?>
<!DOCTYPE svg PUBLIC "-//W3C//DTD SVG 1.1//EN" "http://www.w3.org/Graphics/SVG/1.1/DTD/svg11.dtd">
<svg version="1.1" xmlns="http://www.w3.org/2000/svg" xmlns:xlink="http://www.w3.org/1999/xlink" x="0" y="0" width="500" height="500" viewBox="0, 0, 500, 500">
  <g id="layer102">
    <path d="M413.645,400.292 C415.08,399.639 417.559,399.183 419.124,399.118 C421.798,399.118 428.972,396.313 431.581,394.226 C432.103,393.834 433.603,393.052 434.842,392.595 C436.082,392.139 437.712,391.226 438.43,390.574 C439.147,389.986 441.234,388.943 442.995,388.356 C444.821,387.769 446.713,386.921 447.235,386.464 C447.756,386.073 449.387,385.29 450.822,384.833 C452.257,384.377 454.018,383.464 454.735,382.877 C455.453,382.29 456.757,381.442 457.605,380.985 C458.453,380.464 460.149,379.55 461.388,378.833 C462.562,378.181 463.997,377.594 464.454,377.594 C464.91,377.594 465.693,377.137 466.215,376.55 C466.671,376.029 468.237,374.92 469.672,374.202 C471.172,373.485 474.042,371.593 476.128,370.028 C478.15,368.463 480.173,367.158 480.498,367.158 C480.89,367.158 481.151,366.898 481.151,366.571 C481.151,366.115 482.977,364.81 489.89,360.31 C494.26,357.44 497.783,354.636 498.761,353.07 C499.674,351.766 499.87,349.287 499.935,338.395 L500,325.35 L497.913,323.198 C496.739,322.024 494.456,320.002 492.76,318.698 C491.065,317.458 488.847,315.436 487.804,314.262 C485.847,312.045 485.847,311.98 485.586,302.261 C485.325,292.608 484.673,289.543 482.911,289.543 C482.455,289.543 481.086,288.695 479.846,287.716 C478.607,286.673 476.585,285.499 475.411,284.977 C474.237,284.521 472.346,283.281 471.302,282.303 C470.193,281.26 468.889,280.412 468.367,280.412 C467.845,280.412 467.454,280.151 467.454,279.825 C467.454,279.498 466.345,278.585 465.041,277.802 C462.628,276.368 462.497,276.368 459.562,277.412 C456.562,278.52 454.866,278.325 453.105,276.694 C452.583,276.172 450.691,274.868 448.866,273.759 C445.017,271.346 432.625,263.127 425.58,258.366 C423.95,257.192 422.254,256.279 421.928,256.279 C421.08,256.279 417.884,252.04 417.884,250.931 C417.884,250.474 418.471,249.365 419.189,248.452 C421.276,245.778 420.885,243.3 417.884,240.104 L415.276,237.364 L415.276,229.799 C415.276,225.689 414.949,221.711 414.623,220.993 C414.036,220.015 413.188,219.754 410.514,219.754 C407.383,219.754 406.862,219.558 403.601,216.493 C399.491,212.71 397.796,212.449 392.382,214.536 C390.491,215.319 388.469,215.71 387.686,215.45 C386.969,215.254 384.882,213.558 383.055,211.797 C378.359,207.166 377.055,206.449 372.88,206.057 C369.815,205.796 369.293,205.536 369.293,204.427 C369.293,203.318 369.815,203.057 372.228,202.926 C376.663,202.601 377.055,202.013 376.533,196.209 L376.142,191.187 L379.077,187.73 C380.707,185.838 382.012,183.881 382.012,183.425 C382.012,182.968 382.273,182.577 382.599,182.577 C383.447,182.577 387.882,175.011 387.882,173.446 C387.882,172.663 388.469,171.163 389.252,170.119 C390.556,168.228 390.687,168.228 397.013,168.228 C403.927,168.228 405.492,167.576 405.492,164.706 C405.492,162.423 406.797,161.706 411.101,161.706 C415.601,161.706 419.124,160.727 420.363,159.162 C421.08,158.314 423.232,158.053 433.734,157.792 C444.43,157.531 446.191,157.336 445.996,156.488 C445.865,155.966 445.539,152.574 445.343,148.987 C444.821,140.508 444.235,139.53 440.06,139.53 C436.342,139.53 435.756,138.421 438.43,136.66 C440.647,135.225 440.452,133.79 437.973,132.681 C433.929,131.051 432.429,127.855 432.755,122.115 C432.886,119.506 431.321,120.485 429.755,123.942 C427.798,128.181 426.168,128.964 421.602,127.855 C414.493,126.159 409.927,126.42 401.187,129.16 C400.079,129.485 396.556,129.747 393.36,129.747 C389.512,129.747 387.229,130.007 386.708,130.529 C386.121,131.116 382.925,131.508 377.577,131.703 L369.293,132.029 L368.967,133.986 C368.641,135.812 368.38,135.943 365.38,136.334 C363.553,136.53 361.14,137.247 360.032,137.834 C358.205,138.812 357.879,139.334 357.879,141.226 C357.879,143.182 358.14,143.509 359.836,143.9 C362.118,144.291 362.641,144.878 362.053,146.313 C361.728,147.096 360.423,147.357 356.053,147.487 L350.379,147.683 L350.574,149.64 C350.705,150.748 351.422,152.248 352.139,153.031 C353.118,154.075 353.379,154.923 353.053,156.096 C352.857,157.075 352.401,157.792 352.074,157.792 C350.966,157.792 346.661,165.554 346.922,167.054 C347.052,168.163 348.291,169.141 351.357,170.641 C358.14,174.033 361.401,173.316 358.27,169.206 C357.357,168.033 356.575,166.598 356.575,166.076 C356.575,164.575 358.727,158.771 359.445,158.314 C359.836,158.053 362.966,157.792 366.424,157.792 C372.424,157.792 372.75,157.727 374.837,155.836 C376.794,154.075 377.511,153.879 381.099,153.879 C385.273,153.879 386.382,154.466 385.469,156.096 C384.686,157.401 378.229,164.771 374.837,168.228 C373.207,169.859 371.119,172.206 370.141,173.446 C369.163,174.685 366.424,177.75 364.076,180.295 L359.836,184.795 L357.749,183.947 C354.422,182.643 349.27,181.273 347.443,181.273 C346.531,181.273 344.835,180.685 343.66,179.968 C341.704,178.794 340.4,178.664 326.181,178.664 C313.397,178.664 310.658,178.86 309.875,179.642 C309.288,180.164 307.918,180.62 306.81,180.62 C305.635,180.62 302.374,181.077 299.504,181.599 C296.635,182.186 292.526,182.773 290.373,182.968 C288.156,183.229 285.482,184.012 284.177,184.795 C282.546,185.773 280.394,186.23 276.677,186.491 L271.459,186.816 L271.263,193.73 C271.132,199.47 271.263,200.774 272.176,201.557 C272.894,202.144 275.829,202.47 281.307,202.666 C288.743,202.926 289.395,203.057 289.787,204.296 C290.047,205.209 289.787,205.927 289.004,206.579 C287.764,207.427 285.221,207.427 278.177,206.319 C275.959,205.927 275.633,206.123 275.046,207.623 C274.394,209.384 274.198,209.449 268.524,209.384 C266.436,209.319 264.154,209.71 263.045,210.297 C260.306,211.732 258.805,211.536 256.653,209.188 C254.697,207.101 254.435,207.036 249.022,206.905 C245.956,206.84 243.087,206.775 242.63,206.775 C242.174,206.709 240.935,205.862 239.825,204.753 L237.804,202.796 L220.846,202.796 L203.888,202.796 L202.387,201.166 C201.214,199.926 200.235,199.535 198.213,199.535 C196.061,199.535 195.278,199.861 194.43,201.166 C193.452,202.666 192.93,202.796 188.952,202.796 C182.103,202.796 182.429,203.383 182.886,193.404 C183.081,188.643 183.081,184.012 182.886,183.099 C182.625,182.251 180.994,179.968 179.168,178.077 C175.777,174.554 175.255,172.924 176.625,169.924 C177.342,168.423 177.668,168.293 184.973,168.033 C199.583,167.38 204.997,165.945 207.214,162.097 C208.453,160.01 209.758,158.184 214.584,151.988 C217.063,148.726 217.324,148.074 217.519,143.835 C217.715,140.182 218.237,138.226 220.063,134.508 C221.302,131.899 222.607,129.616 222.933,129.355 C224.172,128.572 223.52,125.377 221.694,123.681 C219.932,121.985 219.607,121.92 212.628,121.92 C205.845,121.92 205.257,122.05 204.344,123.354 C202.909,125.377 203.04,127.725 204.67,130.073 C207.018,133.529 209.171,138.943 209.171,141.421 C209.171,142.987 208.453,144.878 207.018,146.965 C205.91,148.726 204.67,150.618 204.279,151.205 C202.453,154.205 199.648,157.271 197.822,158.379 C195.865,159.619 194.43,159.684 172.972,159.749 C138.143,159.879 140.882,160.075 140.491,158.053 C139.839,154.531 140.491,153.879 144.73,153.879 C152.492,153.879 157.905,151.335 162.276,145.595 L164.101,143.117 L164.167,126.485 C164.167,117.354 163.906,109.462 163.58,108.94 C162.993,108.027 158.753,106.266 156.992,106.266 C155.362,106.266 146.296,102.092 145.448,100.983 C143.948,98.961 141.143,98.374 133.512,98.57 L126.077,98.765 L125.62,100.657 C125.033,102.809 124.055,103.657 122.033,103.657 C120.989,103.657 120.076,104.831 118.25,108.484 C115.445,113.963 113.489,115.658 109.249,116.31 C105.988,116.833 103.118,119.05 102.466,121.659 C101.683,124.789 103.314,142.726 104.749,146.248 C105.14,147.292 105.466,150.096 105.466,152.574 C105.466,156.814 105.401,157.075 103.183,159.032 C101.879,160.14 100.053,161.249 99.074,161.445 C96.204,162.162 95.683,162.945 95.683,166.663 C95.683,170.185 95.683,170.185 93.074,171.228 C91.508,171.881 89.943,173.12 89.16,174.424 C87.921,176.446 87.856,177.49 87.987,187.926 L88.182,199.209 L93.4,199.535 C98.487,199.861 98.748,199.992 98.422,202.144 C98.357,202.536 89.226,202.861 73.703,202.926 L49.048,203.122 L48.722,206.84 C48.526,208.862 48.07,210.884 47.679,211.275 C47.287,211.667 45.657,211.927 44.091,211.797 L41.222,211.602 L40.895,206.579 C40.7,203.775 40.178,201.166 39.722,200.709 C39.2,200.188 36.525,199.731 32.873,199.535 L26.873,199.209 L26.546,196.274 C26.285,193.861 25.959,193.339 24.916,193.339 C23.742,193.339 23.611,193.861 23.415,199.535 C23.285,204.818 23.025,205.927 21.785,207.231 C19.372,209.84 14.154,211.927 10.11,211.927 C5.61,211.927 5.675,211.732 5.675,224.124 L5.675,233.32 L3.588,235.668 C2.479,236.973 1.109,238.016 0.588,238.016 C0.131,238.016 -0.13,238.408 0.066,238.864 C0.261,239.256 0.653,240.169 0.849,240.821 C1.24,241.865 1.892,241.995 4.957,241.799 C8.415,241.604 8.61,241.669 8.805,243.234 C8.936,244.082 9.458,245.387 9.98,246.105 C10.501,246.822 10.893,247.93 10.893,248.583 C10.893,249.235 12.132,252.17 13.697,255.105 C15.263,258.105 16.763,261.367 17.024,262.475 C17.284,263.519 18.067,265.606 18.785,267.171 C20.742,271.411 20.415,273.629 17.415,277.216 C15.98,278.912 14.545,281.064 14.154,282.042 C13.763,283.02 13.502,289.869 13.502,297.435 C13.502,312.827 14.024,311.262 7.567,315.958 C1.24,320.524 1.436,319.806 1.24,335.981 L1.044,350.2 L5.479,354.701 C7.893,357.114 10.828,359.592 11.871,360.179 C12.98,360.701 15.589,362.984 17.741,365.267 C22.372,370.224 26.025,373.094 29.155,374.333 C30.394,374.789 32.221,375.768 33.199,376.42 C34.112,377.072 35.221,377.594 35.547,377.594 C35.939,377.594 38.091,379.42 40.374,381.703 C42.722,384.051 46.048,386.595 48.266,387.638 C50.287,388.616 52.309,389.986 52.636,390.639 C53.027,391.356 54.462,392.269 55.897,392.66 C57.397,393.117 59.484,394.487 60.788,395.987 C63.723,399.118 65.746,400.487 68.484,401.074 C69.594,401.335 147.209,401.466 240.804,401.466 C397.926,401.335 411.232,401.27 413.645,400.292 z" fill="#000000"/>
    <path d="M272.494,393.443 C271.581,393.312 270.471,392.791 270.08,392.334 C268.645,390.639 266.102,385.29 266.102,384.116 C266.102,381.573 270.08,373.811 271.515,373.419 C273.863,372.767 307.649,372.963 309.344,373.615 C310.584,374.072 311.367,375.442 312.736,379.159 C314.04,382.681 315.345,384.833 317.367,386.986 C321.606,391.226 320.954,394.16 316.65,390.051 C313.91,387.377 311.562,386.921 309.866,388.616 C309.084,389.399 308.497,390.573 308.497,391.226 C308.497,392.922 306.54,393.443 301.126,393.378 C296.17,393.312 295.06,392.726 294.474,389.921 C294.017,387.964 294.017,387.964 290.039,388.16 C286.125,388.356 285.929,388.421 284.951,390.573 C284.364,391.812 283.32,393.052 282.668,393.312 C281.364,393.834 275.494,393.9 272.494,393.443 z" fill="#FDFDFD"/>
    <path d="M89.674,392.595 C89.086,391.682 90.13,390.117 92.087,388.812 C95.282,386.66 97.109,383.725 98.087,379.225 C98.609,376.811 99.392,374.594 99.913,374.267 C101.348,373.354 141.134,373.55 142.047,374.463 C142.504,374.92 142.83,376.42 142.895,377.92 C142.895,379.355 143.417,381.246 144.004,382.16 C144.591,383.073 145.83,384.964 146.678,386.268 C147.526,387.638 148.765,389.008 149.418,389.399 C150.918,390.182 151.048,392.334 149.613,392.856 C146.743,393.965 142.83,392.465 142.83,390.182 C142.83,388.682 140.352,387.377 137.416,387.377 C133.568,387.377 131.285,388.225 130.764,389.921 C129.916,392.66 128.612,393.247 123.524,393.247 L118.632,393.247 L117.328,390.964 C115.567,387.964 114.588,387.573 110.349,387.899 C107.153,388.16 106.762,388.356 105.261,390.704 L103.696,393.247 L96.848,393.247 C93.065,393.247 89.869,392.987 89.674,392.595 z" fill="#FDFDFD"/>
    <path d="M171.267,392.726 C171.071,392.399 172.898,390.378 175.311,388.225 C179.225,384.703 183.333,378.768 183.268,376.55 C183.268,376.159 183.79,375.376 184.443,374.789 C185.486,373.811 187.964,373.681 205.901,373.681 C228.402,373.681 227.62,373.55 228.533,378.246 C229.25,382.225 232.12,387.312 234.208,388.421 C235.643,389.139 236.099,389.791 235.968,390.834 C235.773,392.204 235.381,392.269 229.25,392.465 C225.663,392.595 222.141,392.53 221.424,392.334 C220.641,392.139 219.598,390.899 218.946,389.399 C217.836,386.921 216.532,386.073 213.467,386.073 C211.967,386.073 211.184,386.725 209.032,389.726 C206.553,393.117 206.227,393.247 200.878,393.247 L195.791,393.247 L193.835,390.834 C192.791,389.464 191.617,387.703 191.16,386.921 C190.574,385.747 189.856,385.421 187.899,385.421 C185.095,385.421 184.051,386.334 182.16,390.312 L180.985,392.922 L176.289,393.117 C173.746,393.247 171.463,393.052 171.267,392.726 z" fill="#FDFDFD"/>
    <path d="M351.283,392.791 C350.5,392.008 348.935,388.03 348.935,386.856 C348.935,386.334 349.326,385.356 349.848,384.833 C350.37,384.247 351.283,382.747 352,381.507 C355.261,375.572 355.783,374.985 358.196,374.333 C359.566,373.941 367.263,373.746 376.459,373.811 L392.308,374.007 L394.982,379.159 C396.547,382.225 398.7,385.356 400.33,386.791 C404.57,390.508 403.918,391.943 397.787,391.943 C394.917,391.943 394.526,391.747 393.612,390.051 C391.852,386.529 388.264,386.595 386.699,390.182 L385.786,392.269 L379.655,392.269 C374.828,392.269 373.459,392.074 373.067,391.291 C370.85,386.595 370.654,386.399 367.067,386.073 C363.74,385.747 363.545,385.812 362.175,387.834 C361.327,389.008 360.675,390.182 360.675,390.574 C360.675,392.204 358.522,393.247 355.196,393.247 C353.305,393.247 351.543,393.052 351.283,392.791 z" fill="#FDFDFD"/>
    <path d="M433.464,385.486 C433.268,385.225 434.116,382.486 435.29,379.485 C437.377,374.398 437.899,373.681 442.66,369.571 C445.465,367.158 448.335,365.006 449.052,364.81 C449.77,364.55 451.27,363.767 452.313,362.984 C455.77,360.505 460.14,358.679 461.64,359.136 C463.662,359.657 463.466,360.049 460.075,362.201 L457.14,364.028 L457.336,367.745 C457.531,372.181 457.27,372.637 453.748,374.202 C452.248,374.854 450.618,375.898 450.096,376.485 C448.922,377.985 446.574,377.855 445.139,376.289 C443.443,374.398 441.225,374.659 439.66,376.877 C438.877,377.92 438.29,379.225 438.29,379.746 C438.29,381.507 436.399,385.225 435.355,385.681 C433.986,386.203 433.855,386.203 433.464,385.486 z" fill="#FDFDFD"/>
    <path d="M35.538,369.441 C34.495,368.919 32.147,367.354 30.32,365.984 C27.124,363.506 27.059,363.44 27.059,359.984 C27.059,356.984 26.864,356.331 25.624,355.744 C24.777,355.288 23.602,354.505 22.95,353.918 C21.385,352.483 19.689,352.548 17.145,354.048 L15.058,355.353 L12.775,352.744 C10.427,350.2 10.036,348.7 10.884,345.7 C11.21,344.33 11.536,344.265 13.754,344.591 C16.232,344.982 20.863,347.33 20.863,348.178 C20.863,348.439 22.102,349.222 23.668,350.005 C26.472,351.374 33.125,356.788 34.103,358.419 C34.364,358.94 35.016,359.332 35.408,359.332 C35.864,359.332 37.364,360.505 38.734,361.94 C40.104,363.375 41.474,364.55 41.734,364.55 C42.713,364.55 45.648,367.81 45.648,368.789 C45.648,369.963 44.278,370.093 43.234,369.05 C42.647,368.463 41.865,368.528 40.234,369.376 C37.495,370.615 37.951,370.615 35.538,369.441 z" fill="#FDFDFD"/>
  </g>
</svg>
