<?xml version="1.0" encoding="UTF-8"?>
<!DOCTYPE svg PUBLIC "-//W3C//DTD SVG 1.1//EN" "http://www.w3.org/Graphics/SVG/1.1/DTD/svg11.dtd">
<svg version="1.1" xmlns="http://www.w3.org/2000/svg" xmlns:xlink="http://www.w3.org/1999/xlink" x="0" y="0" width="500" height="500" viewBox="0, 0, 500, 500">
  <g id="layer101">
    <path d="M418.695,356.503 C418.302,356.149 418.066,356.07 418.066,356.346 C418.066,357.172 404.102,356.11 403.551,355.205 C403.315,354.851 403.118,354.812 402.961,355.127 C402.804,355.362 402.371,355.559 401.978,355.559 C401.113,355.559 399.185,354.104 399.303,353.513 C397.218,352.412 397.611,352.255 397.611,352.019 C397.611,351.822 397.179,351.625 396.628,351.625 C395.92,351.625 395.527,351.901 395.251,352.609 C394.937,353.435 394.701,353.553 393.875,353.357 C393.166,353.199 392.891,353.278 392.891,353.71 C392.891,354.025 392.498,354.379 392.026,354.497 C391.514,354.615 390.728,354.851 390.256,354.969 C389.509,355.205 389.351,355.087 389.312,354.34 C389.272,353.671 389.194,353.592 389.076,354.104 C388.879,354.93 388.84,354.93 380.933,354.182 C376.882,353.789 374.522,353.435 374.325,353.12 C374.089,352.688 373.932,352.727 373.696,353.12 C373.46,353.475 372.87,353.553 371.729,353.357 C370.431,353.16 370.077,352.923 370.077,352.333 C370.077,351.704 369.88,351.586 369.133,351.704 C368.267,351.901 368.149,351.743 368.031,350.485 C367.874,348.597 366.655,348.243 366.301,350.013 C366.065,351.075 365.907,351.193 365.081,350.996 C364.334,350.8 364.098,350.918 363.901,351.586 C363.744,352.255 363.39,352.412 362.013,352.412 C360.715,352.412 360.243,352.255 360.125,351.743 C359.968,351.075 359.928,351.075 359.889,351.743 C359.85,352.294 359.614,352.412 358.591,352.255 C357.883,352.137 355.365,351.861 352.966,351.625 C345.414,350.918 344.902,350.839 344.902,350.131 C344.863,349.541 344.824,349.541 344.352,350.17 C339.12,348.085 339.081,347.928 338.255,347.26 C337.743,346.827 336.799,346.512 336.091,346.512 C335.423,346.473 334.4,346.276 333.81,346.001 C331.922,345.174 322.875,337.425 322.953,336.718 C323.032,336.324 322.796,336.088 322.285,336.088 C321.852,336.088 320.633,335.498 319.571,334.79 C318.469,334.121 317.446,333.531 317.25,333.531 C316.227,333.531 314.221,332.155 313.828,331.211 C313.592,330.581 312.726,329.441 311.9,328.654 C310.878,327.631 310.445,326.923 310.563,326.412 C310.799,325.625 310.13,325.389 309.658,326.097 C309.501,326.372 309.029,326.137 308.321,325.468 C307.731,324.917 306.59,324.367 305.725,324.209 C302.814,323.777 300.847,322.203 300.847,320.315 C300.847,319.804 300.296,319.056 299.47,318.427 C298.684,317.837 298.094,317.011 298.094,316.578 C298.094,315.988 297.897,315.83 297.386,316.027 C296.953,316.145 296.245,315.91 295.616,315.437 C295.065,315.004 294.357,314.65 294.042,314.65 C293.727,314.65 292.823,314.375 291.997,314.021 C288.417,312.527 285.742,316.185 287.866,319.685 L288.653,320.944 L286.726,323.619 L284.838,326.254 L281.927,326.176 C277.954,326.018 269.576,325.271 268.317,324.917 C267.373,324.681 267.098,324.131 265.957,320.708 C265.209,318.427 264.659,315.988 264.659,314.808 C264.659,312.566 264.187,311.897 262.653,311.897 C261.276,311.897 261.079,312.487 261.158,316.893 C261.237,320.275 261.158,320.551 259.899,322.635 C258.68,324.721 258.483,324.878 257.382,324.681 C256.752,324.563 253.37,324.327 249.908,324.091 C246.447,323.855 243.143,323.58 242.552,323.461 C241.372,323.225 241.136,322.635 239.052,314.729 C238.029,310.993 237.321,310.245 235.669,311.307 C234.685,311.976 234.646,312.094 234.882,315.28 C235.079,318.427 235,318.663 233.899,320.394 L232.758,322.242 L227.566,321.967 C215.057,321.337 215.175,321.377 214.389,320 C213.484,318.427 212.461,315.674 212.028,313.707 C211.674,311.818 210.809,311.189 209.314,311.74 C208.213,312.094 208.213,312.094 208.095,316.224 C208.056,318.505 207.859,320.472 207.702,320.63 C207.466,320.865 193.659,319.725 189.607,319.135 C188.191,318.938 187.798,318.663 187.208,317.444 C186.815,316.657 186.343,315.398 186.185,314.65 C185.753,312.29 185.595,311.976 184.887,311.818 C183.511,311.425 182.488,312.173 182.252,313.746 C182.134,314.572 181.74,315.83 181.465,316.539 L180.875,317.797 L172.851,317.797 C164.512,317.797 162.388,317.601 162.388,316.854 C162.388,316.617 161.64,313.982 160.736,310.993 C158.69,304.187 157.825,303.243 153.734,303.243 C153.183,303.243 151.846,302.693 150.784,301.985 C148.384,300.372 146.457,300.333 145.277,301.827 C144.057,303.44 128.009,321.455 127.025,322.281 C126.435,322.832 126.199,323.501 126.199,324.721 C126.199,326.097 126.396,326.569 127.379,327.356 C128.048,327.907 128.559,328.497 128.559,328.654 C128.559,329.126 125.295,333.217 124.429,333.768 C123.839,334.121 123.249,334.161 122.069,333.885 C121.204,333.689 108.892,332.784 94.731,331.879 C80.571,331.014 68.377,330.267 67.708,330.188 C67,330.148 66.292,329.991 66.174,329.874 C65.781,329.48 68.849,314.139 69.635,312.448 C70.344,310.914 69.635,309.93 67,308.75 C65.623,308.121 64.325,307.295 64.089,306.901 C63.893,306.469 63.578,305.053 63.421,303.716 C63.303,302.378 63.027,301.277 62.87,301.277 C62.712,301.277 61.532,301.906 60.274,302.653 C57.756,304.187 57.127,304.266 55.278,303.48 C53.665,302.811 52.682,301.71 52.053,299.821 C51.384,297.776 50.125,297.264 45.169,296.91 C41.354,296.635 39.583,296.36 35.06,295.455 C32.346,294.865 31.834,294.236 30.064,289.004 C29.081,286.212 29.002,285.542 29.16,281.334 C29.278,278.777 29.474,276.181 29.592,275.512 C29.789,274.607 29.671,274.057 28.963,273.113 C28.452,272.444 26.996,270.438 25.698,268.707 C24.4,266.937 22.866,264.813 22.276,263.908 C21.568,262.885 20.899,262.335 20.349,262.335 C18.461,262.335 14.134,260.722 13.347,259.739 C12.914,259.188 12.01,256.985 11.38,254.861 C10.082,250.81 9.767,246.837 10.554,244.791 C10.869,243.965 10.83,243.533 10.279,242.667 C8.115,239.324 7.25,238.104 6.778,237.829 C5.913,237.318 5.283,235.823 3.277,229.333 C1.625,223.944 1.468,223.157 1.861,221.859 C2.136,220.836 2.136,219.971 1.861,218.87 C0.17,212.458 -0.145,210.373 0.052,205.692 C0.209,201.444 0.799,197.943 1.861,195.347 C2.097,194.718 2.294,193.538 2.294,192.712 C2.294,191.846 2.648,189.801 3.041,188.109 C3.435,186.418 3.985,184.176 4.182,183.075 C4.418,182.013 4.693,180.636 4.811,180.085 C5.087,178.748 7.486,176.624 9.059,176.309 C9.807,176.152 10.515,175.64 10.948,174.932 C11.734,173.634 13.072,172.651 17.949,169.819 C22.827,166.987 27.075,164.941 28.648,164.587 C29.396,164.43 30.694,163.918 31.559,163.486 C33.369,162.542 33.723,162.542 41.983,163.21 C46.585,163.604 48.198,163.643 48.749,163.289 C49.614,162.738 51.305,162.66 51.62,163.171 C51.738,163.368 52.485,163.643 53.233,163.761 C54.334,163.997 55.121,163.8 57.088,162.778 C58.425,162.07 60.077,161.086 60.746,160.614 C61.414,160.103 62.909,159.356 64.05,158.923 C65.23,158.49 66.725,157.546 67.472,156.838 C68.731,155.619 68.927,155.579 71.642,155.619 C73.608,155.658 75.378,155.383 77.424,154.753 C91.27,150.426 104.526,147.87 119.119,146.69 C121.833,146.493 125.727,146.139 127.773,145.903 C133.28,145.313 155.543,144.33 163.332,144.33 C169.389,144.33 170.215,144.251 171.592,143.504 C173.047,142.717 173.283,142.717 182.409,143.189 C193.974,143.74 193.462,143.464 193.462,149.718 C193.462,155.658 194.996,160.221 198.301,164.154 C199.953,166.082 200.543,165.807 200.543,163.014 C200.543,161.204 200.739,160.693 201.919,159.198 C204.358,156.169 204.358,156.13 205.656,156.366 C207.544,156.759 208.056,156.051 207.741,153.455 C207.466,150.859 208.016,150.19 210.298,150.505 C211.438,150.623 212.068,150.466 213.09,149.679 C214.664,148.499 215.529,148.42 217.889,149.286 C219.345,149.797 220.171,149.836 223.357,149.482 C225.402,149.246 228.235,148.971 229.651,148.814 C231.067,148.696 233.82,148.46 235.748,148.263 C245.66,147.28 245.149,147.24 246.643,148.656 C247.745,149.718 248.138,149.876 249.397,149.718 C250.223,149.6 251.442,149.05 252.111,148.499 C253.606,147.201 256.28,147.122 258.955,148.263 C260.489,148.932 261.158,148.971 263.597,148.696 C265.17,148.499 266.98,148.342 267.609,148.342 C272.801,148.184 277.993,147.555 278.859,146.965 C279.37,146.611 280.078,146.296 280.432,146.296 C281.494,146.296 282.792,148.184 282.517,149.286 C282.32,150.033 282.478,150.23 283.304,150.466 C283.894,150.584 284.838,150.584 285.428,150.466 C286.018,150.308 288.339,150.033 290.62,149.836 C298.684,149.089 300.257,148.814 301.319,148.145 C302.066,147.634 302.735,147.516 303.719,147.673 C304.702,147.87 305.41,147.752 306.197,147.201 C307.101,146.65 308.124,146.493 311.664,146.454 C314.024,146.414 317.092,146.257 318.43,146.1 C321.577,145.706 322.678,146.021 323.229,147.437 C323.937,149.089 323.386,151.292 321.852,152.983 C321.105,153.809 296.17,158.457 296.17,158.693 C296.17,159.362 321.97,155.422 323.74,154.517 C325.156,153.809 325.589,153.731 326.848,154.124 C327.87,154.439 328.618,154.439 329.365,154.163 C329.916,153.967 331.489,153.77 332.787,153.77 C334.085,153.77 335.855,153.573 336.642,153.337 C338.766,152.708 340.064,153.141 340.851,154.714 C341.677,156.445 341.284,158.53 339.828,160.142 C338.648,161.44 337.075,161.873 332.158,162.266 C330.388,162.384 328.657,162.817 327.202,163.486 C325.235,164.43 324.92,164.744 324.527,166.161 C323.661,169.189 323.622,169.819 324.055,171.431 C324.566,173.32 324.605,173.32 330.152,173.595 C343.84,174.303 343.447,174.264 344.627,175.247 C346.043,176.427 346.397,176.506 352.573,176.781 C364.452,177.292 377.747,179.062 389.548,181.698 C396.589,183.271 398.595,183.783 406.658,186.064 C438.205,194.954 469.437,210.53 493.747,229.49 C496.932,231.968 499.686,234.486 499.922,235.115 C500.276,236.02 499.489,237.436 496.264,241.881 C492.212,247.505 487.531,253.248 481.317,260.25 C480.254,261.391 479.428,262.649 479.428,263.043 C479.468,263.397 480.018,264.066 480.727,264.498 C482.418,265.56 482.575,267.409 481.238,270.32 C480.687,271.5 480.215,272.641 480.215,272.837 C480.215,273.073 481.159,274.017 482.34,274.962 C483.52,275.905 485.997,277.912 487.885,279.446 C489.734,280.94 491.347,282.553 491.465,283.025 C491.583,283.536 491.268,284.677 490.717,285.779 C489.301,288.572 479.625,301.277 474.118,307.57 C473.056,308.829 470.736,311.464 469.005,313.47 C456.929,327.474 439.189,344.978 430.063,351.861 C427.978,353.435 427.506,353.632 425.933,353.553 C424.438,353.435 424.163,353.553 424.281,354.104 C424.359,354.576 424.045,354.851 423.179,355.008 C422.55,355.166 421.999,355.52 421.999,355.795 C421.999,356.385 420.819,357.132 419.875,357.132 C419.561,357.132 419.01,356.857 418.695,356.503 z" fill="#000000"/>
  </g>
</svg>
