<?xml version="1.0" encoding="UTF-8"?>
<!DOCTYPE svg PUBLIC "-//W3C//DTD SVG 1.1//EN" "http://www.w3.org/Graphics/SVG/1.1/DTD/svg11.dtd">
<svg version="1.1" xmlns="http://www.w3.org/2000/svg" xmlns:xlink="http://www.w3.org/1999/xlink" x="0" y="0" width="500" height="500" viewBox="0, 0, 500, 500">
  <g id="layer102">
    <path d="M164.01,498.026 C167.487,497.357 172.167,496.823 174.308,496.823 C179.389,496.823 185.005,489.735 185.005,483.449 C185.005,480.909 186.076,477.699 187.547,476.227 C190.355,473.151 190.89,465.528 192.495,403.877 C193.029,387.027 193.966,372.45 194.635,371.648 C195.303,370.711 195.17,368.705 194.234,366.699 C193.029,363.89 193.029,361.617 194.635,355.465 C195.838,351.186 196.64,342.894 196.507,337.01 C196.373,327.248 196.105,326.177 193.432,324.974 C185.942,321.764 193.432,311.334 206.403,306.786 C212.957,304.513 215.765,304.914 221.515,308.792 C224.859,311.065 225.126,311.868 225.126,320.293 C225.126,328.585 225.393,329.387 228.47,330.725 C233.952,333.265 273.672,332.864 278.62,330.324 C282.498,328.317 282.632,327.916 282.632,318.287 C282.632,310.798 283.033,308.258 284.371,308.258 C285.44,308.258 288.115,307.322 290.522,306.117 C294.4,304.246 295.203,304.246 301.087,306.385 C308.977,309.461 315.932,314.676 316.867,318.689 C317.536,320.828 316.734,322.567 314.327,324.84 C311.117,327.783 310.85,328.718 311.251,338.615 C311.518,344.499 312.454,352.389 313.39,356.134 C314.728,361.216 314.862,363.756 313.792,366.164 C312.989,367.903 312.855,370.176 313.39,371.246 C314.327,372.985 317.135,425.275 318.072,458.441 C318.339,469.406 319.008,473.419 320.612,475.291 C321.816,476.628 322.752,479.838 322.752,482.513 C322.752,485.322 323.822,488.531 325.16,490.002 C326.363,491.473 328.101,493.479 328.903,494.415 C331.043,497.09 367.286,500.166 383.2,498.962 C390.021,498.561 401.522,497.759 408.743,497.357 C419.576,496.555 422.116,496.021 423.187,494.014 C423.855,492.543 425.326,491.473 426.396,491.473 C429.204,491.473 429.071,482.914 426.262,480.64 C423.989,478.768 419.04,469.675 419.04,467.401 C419.04,466.732 420.245,466.064 421.715,466.064 C423.187,466.064 425.326,464.592 426.529,462.721 C428.536,459.644 428.536,458.976 426.262,454.428 C424.123,449.748 423.187,446.538 421.047,435.974 C420.512,433.834 419.71,430.757 419.04,429.287 C418.505,427.815 415.162,417.786 411.685,406.953 C408.209,396.121 404.598,385.823 403.795,384.218 C402.992,382.479 401.388,378.467 400.451,375.124 C395.904,360.414 394.701,357.204 392.427,354.262 C391.09,352.523 389.486,347.575 388.95,343.429 C388.148,335.673 386.276,327.381 384.27,322.299 C383.735,320.828 382.531,317.886 381.729,315.88 C380.926,313.874 380.258,309.728 380.258,306.786 C380.258,300.768 375.711,294.884 371.03,294.884 C368.088,294.884 368.088,294.75 365.547,280.841 C364.745,276.428 362.604,268.404 360.733,263.055 C356.988,251.822 356.721,249.013 359.529,246.739 C362.604,244.199 361.936,239.384 358.058,234.837 C354.848,230.959 354.046,230.691 345.754,230.691 C330.375,230.691 306.035,236.442 299.483,241.524 C296.808,243.664 296.005,245.402 296.005,249.414 C296.005,254.898 293.732,261.45 291.726,261.45 C291.191,261.45 290.655,258.776 290.655,255.433 C290.655,249.147 287.714,241.39 285.307,241.39 C282.097,241.39 284.504,237.646 289.452,234.837 C295.604,231.36 298.679,225.61 297.877,219.324 C297.476,217.185 297.877,214.376 298.546,213.306 C299.616,211.701 300.418,211.835 303.227,214.51 C305.099,216.248 307.373,220.126 308.442,223.202 C309.779,227.08 311.117,228.82 313.257,229.087 C317.268,229.755 323.688,226.679 325.16,223.336 C325.962,221.865 330.509,215.847 335.323,210.097 C341.876,202.206 345.086,199.398 347.626,199.264 C352.04,199.13 352.174,199.264 357.389,209.696 C361.535,217.987 362.337,218.789 367.553,220.126 C371.431,221.063 377.583,225.075 386.41,232.297 C403.126,245.803 403.393,245.937 408.877,243.931 C413.023,242.46 413.825,242.593 419.576,246.739 C424.39,249.949 427.867,251.153 433.885,251.688 C441.641,252.49 441.775,252.356 447.125,247.141 C451.404,242.727 452.474,240.722 452.474,236.843 C452.474,234.168 453.142,232.029 453.812,232.029 C454.614,232.029 458.359,234.168 462.237,236.71 C474.808,245.135 486.71,244.199 492.595,234.302 C497.409,226.546 496.339,224.004 483.635,211.434 C476.146,204.078 470.796,199.933 468.924,199.933 C467.185,199.933 465.313,198.596 464.376,196.99 C463.574,195.252 459.829,191.106 456.352,187.763 C451.939,183.751 449.8,180.675 449.8,178.401 C449.8,175.995 447.927,173.721 442.846,169.842 C438.967,166.9 434.688,163.556 433.35,162.22 C432.013,160.883 430.006,159.812 428.67,159.812 C426.128,159.812 423.052,154.196 423.052,149.783 C423.052,145.771 420.512,143.764 415.429,143.764 C410.615,143.764 409.813,142.427 413.023,139.752 C414.092,138.816 415.028,137.211 415.028,136.275 C415.028,135.339 416.901,133.6 419.04,132.397 C423.052,130.391 424.39,126.111 421.715,124.373 C421.047,123.972 420.378,121.831 420.378,119.692 C420.378,117.151 419.442,115.279 417.703,114.342 C416.099,113.54 415.028,111.535 415.028,109.528 C415.028,106.987 411.15,102.039 401.121,91.206 C384.403,73.286 372.234,58.308 372.234,55.366 C372.234,51.889 365.279,46.539 358.592,44.935 C355.115,44.133 348.429,43.464 343.614,43.464 C333.451,43.464 333.585,43.464 336.661,55.5 C338.399,62.052 338.399,63.123 336.527,65.262 C333.718,68.204 331.177,68.204 330.108,64.995 C329.573,63.257 327.834,62.186 325.025,61.918 L320.746,61.517 L320.478,51.488 C320.211,43.865 319.542,41.19 317.938,40.121 C309.646,35.038 309.378,34.503 309.378,23.27 C309.378,14.577 308.977,12.303 306.838,10.164 C305.366,8.692 304.029,6.018 303.762,4.012 C303.361,0.535 303.227,0.535 291.993,0.267 L280.626,-0 L280.225,3.745 C279.958,5.751 278.62,8.024 277.283,8.692 C275.677,9.496 274.608,11.768 274.34,14.845 L273.939,19.659 L251.204,19.792 L228.47,19.926 L228.068,16.048 C227.801,13.775 226.864,11.1 225.928,10.03 C224.859,8.96 223.789,6.286 223.253,4.279 L222.317,0.535 L210.683,0.936 C199.182,1.337 199.048,1.337 198.647,4.948 C198.379,6.821 197.31,9.227 196.239,10.03 C194.902,11.234 194.367,14.711 194.367,21.933 C194.367,31.427 194.1,32.364 190.222,36.51 C188.082,38.783 185.675,40.789 184.872,40.789 C184.203,40.789 183.669,42.527 183.669,44.534 C183.669,46.539 183,48.947 182.064,49.883 C180.86,51.087 180.86,52.157 182.332,54.698 C184.604,58.977 183.267,62.186 179.122,62.186 C177.249,62.186 174.709,63.524 173.237,65.529 C170.295,69.274 168.557,69.675 166.416,67.135 C165.079,65.396 166.149,54.162 168.155,48.813 C168.557,47.743 168.423,46.004 167.754,45.068 C166.819,43.464 164.411,43.598 153.445,45.47 C137.53,48.145 128.837,52.558 129.774,57.372 C130.309,59.646 128.57,62.722 123.354,69.007 C113.324,81.042 97.009,99.631 92.195,104.313 C89.921,106.452 87.915,109.662 87.782,111.401 C87.648,113.139 86.577,116.081 85.508,117.82 C84.304,119.559 83.367,122.366 83.367,124.239 C83.367,126.111 82.833,127.984 82.03,128.385 C79.623,129.855 80.694,133.065 84.037,134.671 C87.379,136.141 91.392,142.427 91.392,146.038 C91.392,148.98 85.641,156.871 82.432,158.341 C80.827,159.01 78.553,161.952 77.35,164.761 C76.146,167.568 74.274,171.849 73.204,174.255 C72.134,176.663 71.332,180.006 71.332,181.745 C71.332,184.821 68.389,188.164 64.377,189.635 C61.971,190.437 44.184,211.3 39.637,218.789 C36.828,223.202 31.881,226.679 28.27,226.679 C24.258,226.679 18.507,237.244 19.845,242.326 C20.246,244.199 19.041,248.612 16.769,253.693 C14.628,258.375 13.158,262.922 13.559,263.858 C13.826,264.793 12.89,265.462 11.285,265.462 C8.477,265.462 6.07,269.206 5.802,274.423 C4.197,302.373 4.331,306.251 7.006,310.664 C8.611,312.938 10.616,314.944 11.686,314.944 C12.757,314.944 14.094,316.281 14.495,318.019 C15.832,322.433 21.048,332.329 22.117,332.329 C22.652,332.329 23.456,329.387 23.99,325.776 C24.926,318.689 26.932,314.409 28.002,317.217 C30.008,321.898 39.37,335.004 40.84,335.004 C42.044,335.004 42.446,333.131 42.177,328.451 C41.509,318.689 43.916,304.78 47.126,300.768 C48.731,298.762 49.935,296.088 49.935,294.75 C49.935,291.139 56.086,291.406 67.988,295.686 L77.751,299.163 L78.42,305.315 C78.954,310.129 78.42,313.205 76.012,318.689 C74.274,322.567 73.071,326.579 73.605,327.649 C74.007,328.718 73.338,331.26 72,333.131 C69.059,337.679 70.128,338.481 76.949,336.341 C83.77,334.202 89.252,330.591 94.601,324.974 C100.753,318.554 101.689,316.281 104.23,303.041 C105.835,295.017 107.708,289.134 109.446,286.993 C112.789,282.848 115.464,274.423 115.464,267.736 C115.464,265.061 116.133,262.521 116.801,262.12 C117.603,261.717 118.139,259.578 118.139,257.438 C118.139,255.299 118.674,253.292 119.209,252.891 C119.877,252.49 121.08,247.81 122.017,242.46 C122.953,237.111 124.29,229.221 124.959,224.808 C126.297,217.586 126.163,216.783 123.488,213.975 C120.546,210.765 120.813,207.956 124.023,207.956 C125.495,207.956 129.507,201.002 132.984,192.577 C134.989,187.496 135.658,179.739 134.321,178 C132.448,175.861 133.385,164.493 135.524,161.818 C136.46,160.749 138.199,159.812 139.536,159.812 C140.874,159.812 142.211,158.876 142.746,157.806 C144.351,153.393 145.822,156.201 146.624,165.028 C147.025,170.11 147.962,175.325 148.63,176.797 C149.433,178.134 151.974,183.35 154.514,188.298 C156.922,193.246 162.805,202.741 167.621,209.16 C172.435,215.713 176.982,221.999 177.784,223.336 C178.587,224.808 181.395,227.08 184.203,228.418 C190.222,231.627 195.704,230.023 195.704,225.075 C195.704,218.121 205.334,208.09 207.874,212.102 C209.078,214.109 209.613,216.783 209.078,219.859 C208.276,226.278 210.683,230.825 217.236,234.837 C220.847,237.111 223.789,239.25 223.789,239.786 C223.789,241.256 215.229,249.414 213.625,249.414 C212.823,249.414 211.618,247.943 211.217,246.204 C209.747,240.187 194.635,234.837 171.633,232.029 C155.049,230.023 154.38,230.156 149.433,235.505 C144.217,240.989 143.815,244.333 147.694,248.211 C150.77,251.287 150.636,255.566 146.758,263.59 C145.287,266.533 144.886,269.876 145.287,273.085 C145.822,276.428 145.287,279.237 143.548,282.714 C142.077,285.389 140.607,289.134 140.339,291.005 C139.803,293.547 138.333,294.884 134.321,296.222 C128.436,298.093 126.163,301.838 126.163,309.594 C126.163,312.403 125.628,315.078 124.959,315.479 C124.29,315.88 123.488,318.554 123.087,321.229 C122.686,324.038 121.483,330.458 120.278,335.673 C119.075,340.754 118.139,346.773 118.139,348.913 C118.139,351.052 117.069,353.994 115.865,355.331 C113.324,358.14 111.853,362.018 100.486,395.853 C92.863,418.588 90.723,425.676 84.705,448.01 C83.367,453.225 81.763,458.709 81.228,460.447 C80.159,464.191 82.699,467.401 86.845,467.401 C88.584,467.401 90.054,467.668 90.054,468.069 C90.054,469.942 83.367,481.844 81.496,483.315 C80.292,484.385 79.355,486.659 79.355,488.665 C79.355,491.473 80.56,492.811 85.107,495.217 C89.787,497.892 93.799,498.427 110.114,499.363 C131.646,500.567 154.247,500.032 164.01,498.026 z" fill="#000000"/>
  </g>
</svg>
