<?xml version="1.0" encoding="UTF-8"?>
<!DOCTYPE svg PUBLIC "-//W3C//DTD SVG 1.1//EN" "http://www.w3.org/Graphics/SVG/1.1/DTD/svg11.dtd">
<svg version="1.1" xmlns="http://www.w3.org/2000/svg" xmlns:xlink="http://www.w3.org/1999/xlink" x="0" y="0" width="500" height="500" viewBox="0, 0, 500, 500">
  <g id="layer102">
    <path d="M180.515,74.721 C182.53,75.306 183.542,76.86 184.485,78.59 C185.556,80.849 186.746,81.564 189.839,81.564 C193.169,81.564 193.763,81.92 193.763,84.419 C193.763,86.084 193.288,87.749 192.574,88.106 C189.362,90.128 192.812,96.67 197.451,97.385 C199.95,97.86 200.306,98.454 200.306,103.094 C200.306,109.518 201.377,111.302 204.945,111.302 C209.228,111.302 211.012,114.157 208.752,117.487 C207.086,120.104 207.086,120.581 208.752,122.959 C209.941,124.624 211.845,125.576 213.986,125.576 C218.387,125.576 218.862,126.528 217.078,130.929 C214.938,135.925 216.84,139.851 221.242,139.851 C225.524,139.851 226.476,141.516 224.453,145.561 C223.026,148.296 223.026,149.485 224.215,152.34 C226.357,157.337 226.238,158.05 223.145,159.597 C221.717,160.311 216.959,162.808 212.677,165.188 C208.157,167.686 203.993,169.232 202.566,168.876 C201.257,168.518 197.927,169.589 194.953,171.254 C191.979,172.8 185.794,176.251 181.155,178.748 C168.545,185.529 166.999,187.075 165.453,194.926 C164.739,198.732 162.479,204.086 160.576,206.941 C155.579,214.077 156.888,214.91 171.638,214.316 C178.062,213.958 184.01,214.077 185.08,214.435 C187.578,215.386 189.362,220.501 189.481,227.281 L189.6,233.229 L222.431,233.586 C249.791,233.824 255.62,234.18 256.808,235.608 C258.712,237.987 261.448,237.868 264.183,235.37 C266.087,233.705 266.801,233.586 268.942,234.895 C270.964,236.203 271.678,236.083 273.938,233.943 C275.365,232.515 277.268,231.444 277.983,231.444 C280.361,231.444 279.529,228.827 277.031,228.233 C275.009,227.638 274.652,226.567 274.652,220.025 L274.652,212.531 L278.577,212.174 L282.384,211.817 L282.74,201.706 C282.859,196.115 283.335,190.405 283.574,188.859 C284.643,184.101 286.547,187.313 286.547,193.975 C286.547,197.543 287.023,200.754 287.737,201.112 C288.331,201.469 288.926,203.728 288.926,205.989 L288.926,210.152 L294.636,209.319 C297.728,208.844 301.416,208.01 302.963,207.535 C304.509,206.941 308.673,206.464 312.122,206.464 C315.691,206.464 319.973,205.87 321.639,205.037 C323.898,203.966 324.969,203.966 326.04,205.037 C326.872,205.87 330.56,206.464 334.366,206.464 C340.552,206.464 345.191,207.297 360.892,210.984 C365.532,212.174 371.955,223.594 369.934,226.924 C367.911,230.136 368.387,231.444 371.361,231.444 C372.907,231.444 375.405,232.753 376.951,234.418 C383.375,241.318 387.658,243.102 398.72,243.697 C404.429,244.054 409.902,245.006 410.854,245.719 C412.042,246.671 412.638,249.407 412.638,253.927 C412.638,259.279 413.232,261.302 415.611,264.038 C418.704,267.606 419.417,271.174 417.395,272.483 C416.801,272.841 416.206,274.387 416.206,275.814 C416.206,278.193 419.656,281.048 433.811,290.326 C455.223,304.363 454.747,304.125 458.791,303.411 C463.073,302.579 467.951,305.077 479.251,313.879 L485.198,318.518 L485.198,338.145 L489.719,342.19 C492.217,344.45 495.31,346.829 496.618,347.543 C499.235,349.09 501.019,358.13 499.354,361.341 C498.76,362.412 498.283,366.337 498.283,370.025 C498.283,376.329 498.046,376.925 492.812,381.92 C489.362,385.251 486.269,387.273 484.485,387.273 C481.511,387.273 472.114,392.745 472.114,394.53 C472.114,395.957 463.073,401.547 460.814,401.547 C458.197,401.547 454.271,403.926 448.919,408.923 C446.301,411.302 442.019,413.8 439.402,414.513 C436.785,415.227 432.502,417.487 429.886,419.391 C423.343,424.268 419.656,425.695 416.206,424.624 C413.47,423.911 407.76,423.792 393.01,424.149 C389.798,424.268 384.446,423.911 381.233,423.553 C377.546,422.959 374.573,423.197 372.788,424.149 C371.003,425.101 368.387,425.338 365.413,424.743 C362.915,424.268 358.276,423.911 354.945,424.03 C351.733,424.03 346.023,424.03 342.455,424.149 C338.886,424.149 332.938,424.149 329.37,424.03 L316.88,424.03 C313.668,424.149 307.839,424.149 304.152,424.149 C278.898,424.419 253.644,424.095 228.389,424.155 C224.103,424.165 219.818,424.185 215.532,424.268 C212.32,424.268 207.444,423.911 204.589,423.553 C201.257,422.959 198.522,423.197 196.737,424.149 C194.834,425.101 191.979,425.338 188.173,424.862 C175.326,422.959 171.4,422.84 170.567,424.03 C169.616,425.695 160.1,425.695 158.434,424.03 C157.602,423.197 154.985,422.959 151.297,423.553 C148.204,423.911 142.732,424.268 139.402,424.268 C135.953,424.149 130.48,424.149 127.15,424.149 L101.337,424.149 C98.125,424.03 93.01,424.386 89.679,424.743 C86.349,425.101 82.9,424.862 81.948,424.149 C80.996,423.553 77.071,422.959 73.383,422.959 C65.651,422.959 59.346,419.985 57.205,415.346 C56.492,413.681 53.28,411.183 49.474,409.399 C45.905,407.733 40.671,403.926 37.935,401.072 C35.08,398.098 29.965,394.292 26.515,392.626 C22.947,390.842 18.546,387.392 16.404,384.775 C14.382,382.158 10.694,379.065 8.197,377.757 C1.773,374.545 1.179,371.334 3.319,353.966 C4.509,343.617 6.055,340.525 11.052,337.551 L15.333,335.053 L15.333,307.099 L19.021,303.292 L22.828,299.367 L18.903,289.494 C16.761,284.022 13.787,276.884 12.122,273.435 C9.386,267.606 9.029,267.369 6.412,268.558 C0.227,271.293 -2.747,266.179 3.319,263.086 C7.245,260.944 8.077,258.209 7.007,248.93 C6.055,240.366 7.126,238.582 12.836,238.582 C16.761,238.582 17.832,237.987 20.568,234.061 C22.471,231.206 23.66,227.995 23.66,225.259 C23.66,220.382 25.563,218.24 26.872,221.572 C27.943,224.546 29.608,225.497 33.89,225.497 C39.006,225.497 41.384,227.757 41.741,233.229 C42.099,237.392 42.455,237.987 45.31,238.344 C47.57,238.582 48.878,237.987 49.83,236.322 C50.782,234.537 52.329,233.824 55.302,233.824 C60.417,233.824 61.607,231.444 58.989,226.211 C57.8,223.713 57.562,221.691 58.276,220.62 C60.893,216.456 58.038,208.487 54.707,210.509 C54.113,210.984 51.971,208.248 50.068,204.442 C44.596,193.26 34.247,173.871 32.82,172.206 C30.798,169.589 31.869,159.121 34.724,154.006 C37.697,148.772 49.711,141.635 53.518,142.825 C54.945,143.3 61.131,140.683 71.003,135.568 C79.331,131.048 89.917,125.457 94.437,123.078 C99.077,120.699 105.976,117.011 109.902,114.871 C113.827,112.61 122.153,108.209 128.34,104.997 C134.525,101.786 140.948,98.098 142.613,97.027 C144.279,95.838 148.323,93.697 151.773,92.269 C155.223,90.842 158.315,88.582 158.672,87.392 C159.149,86.203 163.192,83.229 167.951,80.849 C172.709,78.471 177.229,76.092 177.943,75.378 C179.274,74.596 178.452,74.922 180.515,74.721 z M295.469,389.652 C289.759,389.652 289.164,389.89 288.45,392.626 C287.737,395.599 285.595,396.195 277.626,395.719 C274.295,395.481 272.986,396.789 270.845,402.142 C269.18,406.306 269.18,407.376 270.608,409.874 C271.44,411.539 272.154,413.8 272.273,414.871 C272.273,415.941 272.986,417.13 273.819,417.368 C276.08,418.32 282.265,418.32 283.692,417.249 C284.406,416.774 285.714,414.871 286.666,412.848 C289.164,407.615 294.041,407.257 296.063,412.253 C298.68,418.558 307.721,420.461 310.1,415.227 C310.932,413.562 312.122,410.945 312.955,409.28 C314.025,406.781 314.025,405.235 312.598,401.19 C310.932,396.908 310.1,396.076 306.65,395.599 C303.557,395.124 302.487,394.411 302.248,392.388 C301.892,389.89 301.179,389.652 295.469,389.652 z M213.177,389.779 L212.091,389.788 L210.18,389.89 C204.708,390.247 203.874,390.604 203.518,392.983 C203.161,395.362 202.447,395.599 196.143,395.599 C188.649,395.599 188.292,395.838 185.318,403.332 C184.129,406.306 181.393,409.636 177.943,412.253 C174.969,414.394 172.828,416.774 173.065,417.249 C173.899,418.558 180.441,418.439 183.058,417.011 C184.248,416.417 185.437,414.632 185.913,412.967 C187.34,407.257 192.931,407.852 195.548,414.156 C197.095,417.844 197.689,418.201 202.328,418.201 C208.395,418.201 209.465,417.487 211.012,412.848 C212.439,408.803 217.197,407.852 218.862,411.42 C219.458,412.491 220.409,414.394 221.004,415.584 C222.075,417.725 227.904,418.795 232.543,417.725 C235.754,416.893 236.348,413.324 233.732,411.064 C232.78,410.35 230.996,407.138 229.925,404.164 C227.189,396.67 226.118,395.599 222.194,395.599 C219.576,395.599 218.387,394.886 217.555,392.507 C216.496,390.325 215.678,389.703 213.177,389.779 z M121.797,389.652 C115.849,389.652 115.136,389.89 114.065,392.626 C113.113,395.124 112.162,395.599 108.236,395.599 C103.36,395.599 99.79,398.573 99.79,402.856 C99.79,403.926 98.482,406.781 96.817,409.28 C94.914,412.016 94.081,414.513 94.437,415.94 C95.033,417.725 96.341,418.201 100.861,418.201 C106.69,418.201 109.307,416.774 109.307,413.324 C109.307,412.254 110.139,410.707 111.091,409.874 C113.827,407.615 118.823,410.231 118.823,413.919 C118.823,417.13 120.726,418.201 126.912,418.201 C132.502,418.201 134.168,417.011 135.357,412.729 C136.904,406.663 143.922,408.447 145.231,415.227 C145.468,417.13 146.658,417.725 151.297,417.963 C156.888,418.32 159.03,416.536 154.866,414.989 C151.178,413.562 145.231,406.306 143.446,401.19 C141.9,396.314 141.662,396.195 136.309,396.076 C128.577,395.838 126.793,394.886 127.744,392.031 C128.459,389.89 127.982,389.652 121.797,389.652 z M384.088,389.057 C379.687,389.058 378.617,389.533 377.309,392.031 C376,394.767 375.048,395.005 366.008,395.599 C357.324,396.076 356.134,396.433 355.778,398.573 C354.945,402.618 351.614,409.161 349.355,410.826 C346.619,412.848 346.619,416.655 349.355,417.368 C356.372,419.272 360.773,417.725 362.559,412.729 C363.747,409.517 364.699,408.684 367.316,408.684 C369.934,408.684 370.885,409.517 372.193,412.848 C373.739,416.774 374.096,417.011 379.568,417.011 C385.04,417.011 385.397,416.774 387.301,412.729 C389.323,408.684 389.679,408.565 393.843,409.161 L398.125,409.874 L395.746,403.094 C394.437,399.406 392.653,395.719 391.821,395.124 C390.988,394.411 390.036,392.745 389.798,391.437 C389.442,389.533 388.49,389.058 384.088,389.057 z M56.253,395.005 L54.35,398.693 C52.21,402.499 52.685,403.926 56.372,406.068 C59.466,407.733 59.704,406.781 57.8,400.358 L56.253,395.005 z M452.464,386.287 C449.69,387.169 447.242,388.681 444.874,390.366 L438.57,394.648 L441.424,397.622 C443.684,400.001 444.874,400.477 448.204,399.882 C454.39,398.931 456.769,395.957 455.817,390.485 C455.46,388.415 455.053,386.058 452.464,386.287 z M35.951,381.156 L35.675,381.207 C34.961,381.682 34.128,383.704 33.653,385.727 C33.058,388.701 33.534,389.771 36.151,391.912 C40.314,395.005 44.12,395.124 46.856,392.031 C48.046,390.723 48.759,389.414 48.522,389.176 C44.836,385.953 40.69,382.629 35.951,381.156 z" fill="#000000"/>
  </g>
</svg>
