<?xml version="1.0" encoding="UTF-8"?>
<!DOCTYPE svg PUBLIC "-//W3C//DTD SVG 1.1//EN" "http://www.w3.org/Graphics/SVG/1.1/DTD/svg11.dtd">
<svg version="1.1" xmlns="http://www.w3.org/2000/svg" xmlns:xlink="http://www.w3.org/1999/xlink" x="0" y="0" width="500" height="500" viewBox="0, 0, 500, 500">
  <g id="layer102">
    <path d="M255.57,378.933 C257.217,378.039 268.276,378.18 270.206,379.122 C271.194,379.592 271.712,379.639 272.7,379.169 C273.406,378.886 274.347,378.745 274.865,378.933 C275.335,379.075 276.041,378.933 276.417,378.651 C276.841,378.274 278.159,378.18 280.276,378.368 C282.017,378.51 284.088,378.651 284.841,378.651 C285.594,378.651 286.488,378.886 286.864,379.169 C287.194,379.498 288.088,379.545 288.982,379.404 C289.829,379.216 291.1,379.027 291.806,378.98 C292.464,378.933 293.217,378.745 293.406,378.557 C293.923,377.992 299.476,378.133 300.041,378.698 C300.417,379.075 300.794,379.027 301.5,378.604 C302.347,378.086 302.629,378.133 303.429,378.839 C304.135,379.451 304.747,379.639 305.688,379.357 C307.382,378.933 309.547,378.651 313.547,378.368 C315.947,378.18 316.888,378.274 317.17,378.745 C317.5,379.263 317.735,379.263 318.535,378.745 C319.335,378.274 319.711,378.274 320.7,378.933 C321.688,379.592 322.158,379.639 323.617,379.216 C324.606,378.933 325.829,378.792 326.347,378.933 C326.912,379.075 327.523,378.98 327.664,378.698 C328.135,377.992 333.265,378.039 333.97,378.745 C334.441,379.216 334.771,379.216 335.476,378.745 C336.276,378.274 336.652,378.321 337.594,378.933 C338.723,379.639 338.959,379.639 340.794,378.933 C343.006,378.086 350.3,377.898 351.476,378.651 C351.9,378.886 352.37,378.886 352.794,378.557 C353.217,378.18 353.688,378.18 354.488,378.651 C355.241,379.027 356.229,379.122 357.453,378.886 C359.712,378.415 370.723,378.415 373.735,378.886 C375.57,379.169 375.947,379.075 375.947,378.462 C375.947,378.086 376.512,377.38 377.264,376.91 C377.97,376.439 379.429,375.404 380.559,374.557 C381.688,373.71 383.382,372.816 384.37,372.533 C385.406,372.251 386.347,371.733 386.488,371.31 C386.676,370.792 387.1,370.651 387.805,370.792 C389.123,371.169 390.488,370.416 391.006,369.051 C391.335,368.204 391.9,367.874 393.735,367.639 C398.064,367.074 414.911,366.839 415.241,367.357 C415.617,367.968 421.452,367.968 421.829,367.357 C421.97,367.122 422.958,366.886 423.994,366.886 C425.029,366.886 426.347,366.651 426.911,366.322 C427.476,366.039 429.123,365.71 430.535,365.616 C431.947,365.521 434.723,365.239 436.653,365.004 C438.582,364.769 441.782,364.345 443.711,364.11 C447.147,363.686 453.123,362.604 457.264,361.663 C458.347,361.427 459.853,361.239 460.652,361.239 C462.205,361.239 462.488,360.91 463.523,357.945 C464.229,355.875 464.323,355.827 467.147,355.121 C469.547,354.557 470.111,354.228 470.488,353.192 C470.77,352.392 471.429,351.828 472.417,351.545 C473.688,351.216 474.111,350.698 474.723,349.098 C475.429,347.216 475.523,347.121 477.406,347.121 C479.099,347.121 479.476,346.933 479.711,346.086 C479.853,345.474 480.229,344.204 480.511,343.168 C481.123,341.239 480.888,340.863 478.3,339.357 C477.547,338.886 477.547,338.557 478.723,333.992 C479.382,331.31 479.947,329.004 479.947,328.957 C479.947,328.863 480.888,328.768 482.017,328.768 C484.088,328.768 484.088,328.721 484.841,326.557 C485.97,323.263 485.829,322.463 483.947,321.569 C483.052,321.145 482.3,320.58 482.3,320.298 C482.3,318.981 484.747,310.651 485.264,310.321 C485.547,310.086 486.441,309.992 487.147,310.086 C488.794,310.321 489.641,309.192 490.064,306.086 C490.394,304.016 490.3,303.827 489.264,303.404 C487.052,302.557 486.958,302.039 488.182,297.098 C488.841,294.557 489.452,292.251 489.641,292.016 C489.782,291.78 490.582,291.686 491.429,291.827 C493.405,292.204 494.394,291.122 494.77,288.016 C495.099,285.663 495.052,285.568 493.782,284.91 C492.511,284.298 492.417,284.11 492.511,281.663 C492.605,280.251 493.029,277.945 493.499,276.533 C494.206,274.463 494.582,273.898 495.523,273.804 C498.394,273.475 498.676,273.287 499.147,271.263 C499.429,270.133 499.758,268.816 499.947,268.298 C500.182,267.498 499.711,267.074 497.029,265.663 C493.452,263.828 493.405,263.639 494.535,258.887 C495.57,254.745 495.476,254.369 493.311,253.616 C492.041,253.192 491.194,252.533 490.817,251.78 C490.394,250.839 490.017,250.604 489.311,250.792 C488.747,250.934 487.853,250.886 487.288,250.651 C486.158,250.227 483.241,249.428 481.217,249.004 C479.57,248.675 476.37,245.804 476.841,245.098 C477.076,244.722 479.523,244.534 484.841,244.534 C492.323,244.534 492.511,244.487 493.029,243.498 C494.347,240.769 494.629,238.698 494.3,234.369 C493.829,227.827 494.159,227.969 481.406,228.11 L471.241,228.204 L471.006,227.075 C470.723,225.945 470.629,225.945 464.182,225.71 C460.558,225.569 455.711,225.663 453.358,225.851 C445.641,226.557 439.711,226.51 438.77,225.71 C438.206,225.239 436.37,224.91 433.17,224.722 C430.159,224.581 433.17,224.439 441.5,224.392 C452.653,224.298 454.582,224.204 454.817,223.592 C455.006,223.216 454.864,222.604 454.582,222.228 C454.064,221.616 451.758,221.427 437.829,220.722 C433.829,220.533 431.523,220.204 429.97,219.545 C427.947,218.698 426.441,218.651 409.217,218.651 C394.394,218.651 390.535,218.51 390.111,218.039 C389.782,217.616 388.747,217.427 387.147,217.521 C384.747,217.616 382.77,216.957 381.123,215.592 C380.747,215.263 379.711,214.886 378.864,214.792 C377.594,214.698 377.217,214.886 376.747,215.828 C376.323,216.628 375.617,217.098 374.394,217.286 C373.405,217.427 372.37,217.804 372.041,218.134 C371.758,218.416 371.147,218.651 370.676,218.651 C370.206,218.651 369.735,219.122 369.594,219.734 C369.264,221.004 367.382,221.145 366.206,219.922 C365.547,219.263 365.358,219.263 364.135,220.157 L362.817,221.145 L361.358,219.875 C359.57,218.416 358.864,218.322 357.641,219.64 L356.747,220.628 L355.947,219.404 C355.523,218.745 354.77,218.086 354.3,217.945 C352.982,217.521 351.052,218.181 350.77,219.122 C350.535,219.922 350.347,219.922 348.888,219.31 C346.582,218.369 345.641,218.463 343.9,219.922 C342.488,221.145 342.017,221.239 337.876,221.286 C333.312,221.38 332.182,221.051 332.182,219.64 C332.182,218.557 329.876,217.663 327.9,217.992 C326.723,218.181 326.064,218.086 325.641,217.521 C325.312,217.098 324.417,216.769 323.664,216.769 C322.959,216.769 322.205,216.58 322.064,216.298 C321.547,215.451 320.135,215.781 319.1,217.004 C318.488,217.663 317.829,218.086 317.594,217.945 C317.311,217.804 317.123,216.11 317.123,214.228 C317.123,211.969 316.935,210.604 316.512,210.275 C316.135,209.945 312.747,209.663 308.323,209.522 L300.747,209.334 L299.759,210.698 C299.194,211.451 298.441,212.063 298.065,212.063 C297.123,212.063 295.006,214.275 295.006,215.263 C295.006,216.345 294.535,217.004 293.311,217.616 C292.417,218.086 292.229,217.992 291.994,217.098 C291.853,216.533 291.712,214.557 291.712,212.722 C291.712,209.145 291.006,206.416 290.112,206.416 C289.829,206.416 287.571,204.345 285.124,201.804 C279.006,195.545 277.312,194.18 275.665,194.18 C274.253,194.18 274.112,194.039 273.641,191.781 C273.5,191.028 272.935,190.416 272.37,190.275 C271.1,189.945 271.429,188.863 272.935,188.533 C273.876,188.298 274.112,187.922 274.206,186.275 C274.347,184.486 274.253,184.298 273.029,184.016 C272.323,183.828 271.476,183.357 271.147,182.934 C270.818,182.463 269.923,182.18 268.794,182.18 C267.194,182.18 267.006,182.039 267.006,180.957 C266.959,180.298 266.253,178.887 265.359,177.804 C264.088,176.298 263.1,175.639 261.123,175.075 C255.9,173.475 234.488,172.345 233.076,173.522 C232.747,173.757 232.418,175.78 232.276,178.086 C232.135,180.345 231.853,183.122 231.618,184.298 L231.241,186.416 L221.124,186.651 L211.006,186.887 L210.771,188.769 L210.535,190.651 L206.818,190.651 C204.229,190.651 203.006,190.463 202.865,190.086 C202.771,189.757 202.959,189.475 203.335,189.475 C203.665,189.428 204.511,188.957 205.218,188.392 L206.441,187.357 L204.464,184.769 C201.641,181.098 199.947,180.063 196.7,180.063 C195.241,180.063 192.418,179.969 190.441,179.875 C187.053,179.686 186.629,179.78 184.7,181.051 C183.57,181.804 182.159,183.169 181.547,184.063 C180.324,185.804 179.759,186.039 178.865,185.145 C178.488,184.769 175.806,184.628 169.782,184.722 L161.218,184.816 L159.477,183.122 C157.265,181.004 154.394,180.345 153.971,181.898 C153.688,182.934 153.218,183.075 150.394,182.887 C149.312,182.839 148.182,182.416 147.618,181.851 C146.865,181.098 146.347,181.004 145.03,181.239 C143.241,181.569 142.065,180.91 142.065,179.639 C142.065,178.698 140.464,177.192 138.677,176.44 C137.97,176.11 136.37,176.016 134.818,176.157 C131.476,176.487 130.771,175.969 130.771,173.098 C130.771,170.886 129.829,169.239 128.559,169.239 C126.112,169.239 129.076,164.392 132.747,162.416 L135.1,161.145 L136.794,162.792 C139.618,165.428 140.982,163.874 138.253,161.145 L136.794,159.686 L138.535,158.087 C140.276,156.486 140.417,155.828 139.523,153.663 C139.241,153.051 140.323,152.157 144.512,149.569 C147.429,147.781 150.912,145.71 152.182,144.957 C156.37,142.604 157.594,141.475 157.594,140.016 C157.594,139.31 157.406,138.557 157.124,138.416 C156.323,137.898 156.606,136.298 157.5,136.251 C157.924,136.251 158.865,135.875 159.571,135.451 C160.229,135.028 161.924,133.945 163.335,133.145 C164.7,132.298 166.676,130.887 167.665,129.945 L169.5,128.298 L168.135,126.369 C166.535,124.063 166.394,123.781 165.594,122.086 C164.888,120.628 163.477,119.969 162.629,120.722 C162.3,120.957 161.5,121.287 160.841,121.381 C159.382,121.663 152.323,125.804 151.806,126.698 C151.241,127.687 150.253,127.498 149.406,126.228 C148.276,124.486 147.006,124.298 144.747,125.616 C141.5,127.451 137.359,130.039 136.606,130.698 C136.229,131.028 135.006,131.734 133.923,132.298 C132.841,132.863 130.912,133.898 129.641,134.557 C128.371,135.263 126.912,135.828 126.394,135.828 C125.171,135.828 119.9,138.228 118.912,139.216 C118.441,139.687 117.83,140.063 117.547,140.063 C117.265,140.063 116.088,140.722 114.912,141.475 C113.783,142.275 112.606,142.886 112.277,142.886 C111.947,142.933 110.959,143.545 110.065,144.298 C109.123,145.145 107.9,145.71 107.147,145.71 C106.394,145.71 105.265,146.039 104.653,146.463 C103.524,147.216 103.43,147.169 101.924,145.522 C100.841,144.392 99.947,143.828 99.1,143.828 C98.159,143.828 97.83,143.592 97.83,142.886 C97.83,142.369 98.159,141.945 98.535,141.945 C99.477,141.945 99.43,141.051 98.441,139.969 C97.641,139.122 95.947,138.792 95.947,139.545 C95.947,139.781 95.571,140.063 95.147,140.204 C94.676,140.392 93.359,141.051 92.182,141.757 C91.006,142.463 89.265,143.451 88.323,144.016 C78.441,149.663 77.594,150.604 79.382,153.757 C79.947,154.745 80.418,155.969 80.418,156.534 C80.418,157.522 82.347,160.91 83.241,161.475 C83.477,161.616 83.712,162.369 83.712,163.075 C83.712,164.157 83.288,164.675 81.359,165.851 C78.677,167.498 78.488,168.251 79.947,171.122 C80.465,172.157 80.888,173.522 80.888,174.18 C80.888,175.028 81.218,175.498 82.018,175.827 C82.629,176.063 83.288,176.675 83.477,177.192 C83.9,178.557 86.441,180.534 87.759,180.534 C88.371,180.534 88.888,180.769 88.888,181.051 C88.888,181.333 87.712,181.475 85.829,181.428 C83.147,181.333 82.582,181.475 81.547,182.416 C80.653,183.263 80.465,183.875 80.653,184.816 C81.124,186.84 79.335,187.639 74.771,187.498 L71.006,187.357 L71.006,185.898 C71.006,184.769 70.583,184.016 69.359,182.934 C67.429,181.239 65.876,181.098 64.653,182.416 C63.429,183.78 59.241,183.78 58.394,182.416 C57.547,181.051 55.759,181.239 53.877,182.934 C52.559,184.063 52.183,184.769 52.088,186.322 C51.947,188.204 51.9,188.298 50.394,188.298 C48.794,188.298 48.135,188.91 47.618,190.887 C47.476,191.545 47.1,192.204 46.818,192.439 C46.535,192.627 41.971,192.769 36.7,192.674 L27.1,192.58 L25.594,194.322 C24.088,196.016 24.041,196.063 20.559,196.063 C15.759,196.063 15.618,196.251 15.241,203.404 C14.959,208.392 15.006,209.145 15.665,209.381 C16.606,209.757 16.653,210.933 15.712,211.31 C14.677,211.687 14.677,219.357 15.712,219.781 C16.747,220.157 16.747,240.534 15.712,240.957 C14.724,241.333 14.724,247.122 15.712,247.545 C16.276,247.733 16.418,248.863 16.418,253.663 L16.418,259.545 L13.735,259.686 C10.441,259.875 9.971,260.816 11.994,262.933 C13.312,264.298 13.312,264.298 18.912,264.298 C23.947,264.298 24.465,264.392 24.324,265.145 C24.229,265.71 23.571,266.039 22.112,266.227 C20.841,266.369 19.759,266.886 19.288,267.498 C18.865,268.016 17.594,268.91 16.512,269.522 C12.747,271.404 13.265,273.334 17.641,273.71 C20.041,273.898 20.418,274.086 20.418,274.886 C20.418,275.404 20.606,276.11 20.794,276.439 C21.359,277.286 20.889,277.804 19.241,278.086 C17.971,278.369 17.877,278.51 18.112,279.734 C18.3,280.533 18.159,281.239 17.877,281.427 C17.124,281.898 17.218,283.639 18.253,287.498 C18.771,289.333 19.241,291.969 19.335,293.239 C19.477,295.357 19.383,295.592 18.488,295.733 C16.888,295.969 15.759,297.521 15.524,299.733 C15.477,299.921 15.288,300.063 15.006,300.063 C14.771,300.063 13.312,301.286 11.806,302.792 C8.888,305.663 7.712,306.604 5.171,308.11 C3.806,308.957 3.665,309.192 3.9,310.557 C4.277,312.486 4.277,312.486 3.712,315.922 C3.477,317.569 2.912,319.639 2.536,320.58 C2.159,321.522 1.829,322.745 1.829,323.357 C1.829,323.922 1.406,324.768 0.888,325.239 C-0.429,326.416 -0.288,327.592 1.359,328.768 C2.253,329.38 2.771,330.18 2.771,330.839 C2.771,331.451 3.053,332.204 3.429,332.486 C4.182,333.098 5.594,337.145 5.594,338.604 C5.594,339.121 5.829,339.686 6.065,339.828 C6.347,339.969 6.536,340.91 6.536,341.898 C6.536,343.875 7.43,344.91 9.453,345.427 C10.159,345.569 10.865,346.133 11.006,346.651 C11.147,347.168 11.665,347.592 12.088,347.592 C12.983,347.592 16.888,351.027 16.888,351.828 C16.888,352.11 17.406,352.533 18.065,352.863 C18.677,353.145 19.524,354.086 19.947,354.933 C20.418,355.922 21.03,356.533 21.594,356.533 C22.112,356.533 22.723,356.957 22.959,357.427 C23.241,357.898 24.041,358.51 24.747,358.792 C26.3,359.357 29.594,362.51 29.594,363.404 C29.594,363.78 29.877,364.062 30.253,364.062 C30.629,364.062 31.336,364.816 31.9,365.757 C32.465,366.698 33.5,367.639 34.3,367.921 C35.1,368.157 35.947,368.816 36.23,369.286 C36.465,369.757 36.982,370.18 37.312,370.18 C37.688,370.18 39.335,371.451 40.982,373.004 C42.582,374.557 44.088,375.827 44.324,375.827 C44.512,375.827 44.653,376.204 44.653,376.675 C44.7,378.086 45.877,379.122 47.382,379.122 C48.183,379.122 48.935,378.933 49.124,378.698 C49.265,378.462 51.994,378.274 55.194,378.274 C58.394,378.274 61.218,378.18 61.5,377.992 C61.735,377.851 62.206,378.039 62.535,378.415 C63.194,379.216 65.594,379.357 66.065,378.698 C66.206,378.462 68.935,378.274 72.135,378.274 C75.335,378.274 78.159,378.18 78.394,378.039 C78.677,377.851 79.288,378.039 79.759,378.415 C80.794,379.169 83.053,379.357 83.477,378.698 C83.618,378.462 86.253,378.274 89.312,378.274 C92.371,378.274 95.1,378.18 95.43,377.992 C95.712,377.804 96.418,377.992 96.982,378.368 C98.112,379.169 100.418,379.357 100.841,378.698 C101.17,378.18 114.253,378.18 114.582,378.698 C114.912,379.263 117.453,379.263 117.782,378.698 C118.159,378.086 130.771,378.18 131.759,378.792 C132.418,379.169 133.029,379.169 134.159,378.792 C136.041,378.133 147.712,378.086 148.512,378.698 C148.841,379.027 149.688,379.027 150.865,378.745 C152.512,378.321 157.5,377.992 160.418,378.039 C161.735,378.086 164.465,378.462 167.147,378.933 C168.276,379.122 168.888,379.027 168.888,378.698 C168.888,378.415 169.688,378.227 170.676,378.227 C171.618,378.274 173.17,378.18 174.065,378.039 C174.959,377.945 176.653,377.992 177.83,378.18 C178.959,378.415 180.277,378.368 180.7,378.18 C181.217,377.898 181.782,377.992 182.347,378.415 C184.418,379.968 186.771,378.886 186.771,376.392 C186.771,375.921 187.194,375.122 187.712,374.651 C188.229,374.18 188.653,373.521 188.653,373.145 C188.653,372.345 189.97,370.133 190.959,369.38 C191.476,368.91 197.688,368.769 218.253,368.769 C244.041,368.769 244.935,368.816 246.441,369.71 C247.288,370.227 248.135,371.122 248.371,371.733 C248.606,372.298 249.453,373.521 250.253,374.368 C251.053,375.216 251.711,376.345 251.711,376.816 C251.711,377.71 253.265,379.592 253.97,379.592 C254.159,379.592 254.865,379.31 255.57,378.933 z" fill="#000000"/>
  </g>
</svg>
