<?xml version="1.0" encoding="UTF-8"?>
<!DOCTYPE svg PUBLIC "-//W3C//DTD SVG 1.1//EN" "http://www.w3.org/Graphics/SVG/1.1/DTD/svg11.dtd">
<svg version="1.1" xmlns="http://www.w3.org/2000/svg" xmlns:xlink="http://www.w3.org/1999/xlink" x="0" y="0" width="500" height="500" viewBox="0, 0, 500, 500">
  <g id="Layer_1">
    <path d="M396.138,66.837 L376.138,119.371 L276.735,119.371 L280.106,170.949 L348.311,170.949 L348.311,206.289 L282.416,206.289 L295.37,404.484 L250,500 L204.63,404.484 L217.584,206.289 L151.688,206.289 L151.688,170.949 L219.894,170.949 L223.265,119.371 L123.861,119.371 L103.861,66.837 L396.138,66.837 z" fill="#000000"/>
    <path d="M431.892,90.609 L456.845,133.829 L427.328,150.87 C432.715,163.553 436.558,176.895 438.987,190.453 C439.524,193.451 439.907,196.474 440.367,199.484 L474.437,199.484 L474.437,249.391 L440.367,249.391 C438.176,266.08 433.888,282.494 427.328,298.005 L456.845,315.046 L431.892,358.267 L402.351,341.211 C392.127,354.515 380.231,366.725 366.774,376.789 L383.829,406.329 L340.608,431.283 L323.567,401.766 C317.285,404.323 320.403,403.137 314.215,405.341 L314.08,403.261 L310.801,353.095 C337.144,340.884 358.488,320.435 373.251,295.596 C401.856,245.749 397.751,183.915 363.148,138.12 L389.063,138.12 L402.351,107.664 L431.892,90.609 z" fill="#000000"/>
    <path d="M68.108,90.609 L97.648,107.664 L110.936,138.12 L137.126,138.12 C133.216,142.85 129.959,148.064 126.749,153.279 C87.449,221.348 110.771,308.388 178.841,347.689 C182.227,349.613 185.643,351.506 189.198,353.104 L185.92,403.261 L185.78,405.399 C182.608,404.34 179.522,403.04 176.433,401.766 L159.391,431.283 L116.17,406.329 L133.226,376.789 C119.922,366.565 107.712,354.669 97.648,341.212 L68.108,358.267 L43.154,315.046 L72.671,298.004 C67.284,285.323 63.441,271.981 61.012,258.423 C60.475,255.424 60.092,252.402 59.633,249.391 L25.562,249.391 L25.562,199.484 L59.632,199.484 C61.823,182.795 66.111,166.382 72.671,150.87 L43.154,133.829 L68.108,90.609 z" fill="#000000"/>
    <path d="M274.953,0 L274.953,34.071 C291.642,36.261 308.056,40.549 323.567,47.109 L340.608,17.592 L383.829,42.546 L380.63,48.087 L119.37,48.087 L116.171,42.546 L159.391,17.592 L176.433,47.109 C189.114,41.722 202.456,37.879 216.015,35.45 C219.013,34.913 222.036,34.53 225.046,34.07 L225.046,0 L274.953,0 z" fill="#000000"/>
  </g>
</svg>
