<?xml version="1.0" encoding="UTF-8"?>
<!DOCTYPE svg PUBLIC "-//W3C//DTD SVG 1.1//EN" "http://www.w3.org/Graphics/SVG/1.1/DTD/svg11.dtd">
<svg version="1.1" xmlns="http://www.w3.org/2000/svg" xmlns:xlink="http://www.w3.org/1999/xlink" x="0" y="0" width="500" height="500" viewBox="0, 0, 500, 500">
  <g id="layer102">
    <path d="M398.685,440.879 C401.215,438.445 408.806,431.28 415.732,424.925 C422.525,418.57 429.984,411.675 432.381,409.376 C437.309,404.78 449.298,393.826 458.757,385.44 C476.342,369.616 478.203,367.323 478.154,360.751 C478.128,357.264 477.157,352.98 475.801,350.978 C473.493,347.24 461.462,334.589 448.763,322.345 C441.197,315.025 440.511,313.018 443.565,308.837 C446.619,304.791 445.931,302.382 440.799,297.592 C436.613,293.868 434.999,293.344 428.696,293.391 L421.454,293.445 L407.672,279.868 L393.89,266.157 L381.416,266.116 C367.734,265.951 365.584,265.296 366.494,261.534 C367.016,259.652 366.475,258.985 364.732,258.998 C363.257,259.009 361.639,257.949 360.826,256.748 C359.737,254.61 357.321,254.36 342.301,254.472 C326.342,254.726 324.868,254.871 322.072,257.708 C320.475,259.33 319.15,261.486 319.157,262.424 C319.175,264.838 316.378,267.408 313.829,267.427 C312.622,267.436 311.132,265.302 310.033,261.822 C309.069,258.611 307.428,254.331 306.338,252.06 C305.249,249.921 303.332,244.571 302.094,240.422 C300.168,233.999 300.018,231.988 301.469,228.625 C302.919,225.261 302.776,224.189 301.152,222.19 C300.07,220.991 297.766,217.654 296.135,214.985 L293.147,209.91 L296.057,204.524 C297.645,201.561 300.172,198.86 301.51,198.314 C302.848,197.901 303.913,196.82 303.906,195.882 C303.9,195.077 309.368,191.013 315.91,186.939 C322.586,183 328.591,178.932 329.387,177.852 C330.185,176.908 331.521,176.093 332.191,176.088 C333.398,176.079 339.805,172.008 353.417,162.92 C355.954,161.292 358.624,159.796 359.161,159.792 C359.697,159.788 362.635,158.022 365.704,155.988 C377.179,147.989 382.118,144.867 383.325,144.858 C383.862,144.854 386.265,143.36 388.531,141.6 C390.799,139.974 394.803,137.395 397.341,136.035 C399.88,134.676 404.679,130.75 408.006,127.372 C413.596,121.563 415.863,119.937 427.883,113.007 C430.553,111.511 436.427,107.712 441.097,104.459 C445.767,101.339 450.04,98.758 450.576,98.754 C451.247,98.749 453.115,97.394 454.846,95.772 C456.711,94.014 460.715,91.436 463.788,89.938 C466.861,88.439 469.396,86.677 469.392,86.14 C469.388,85.604 472.058,83.841 475.266,82.475 C478.474,80.975 481.81,78.805 482.742,77.725 C483.672,76.646 485.141,75.695 485.945,75.689 C486.884,75.682 490.086,73.513 493.152,70.941 L498.614,66.072 L495.078,59.527 C493.173,55.919 490.467,52.587 488.987,52.062 C485.895,51.146 478.012,55.095 458.522,67.311 C454.517,69.756 448.508,73.287 445.167,74.922 C441.827,76.69 439.024,78.454 438.759,78.993 C438.496,79.531 436.093,81.025 433.42,82.386 C430.747,83.613 426.073,86.196 423.136,88.096 C415.796,92.979 413.259,94.474 407.248,97.737 C404.443,99.234 401.24,101.403 400.175,102.485 C399.11,103.566 397.105,104.519 395.631,104.53 C392.412,104.554 385.999,107.822 380.263,112.156 C377.997,113.917 375.192,115.413 373.985,115.422 C372.643,115.432 371.709,115.975 371.714,116.646 C371.719,117.316 368.383,119.621 364.375,121.663 C360.368,123.839 357.029,125.876 357.033,126.412 C357.037,126.949 355.034,128.036 352.762,128.993 C350.355,129.949 347.15,131.851 345.684,133.203 C344.218,134.422 339.813,137.271 335.94,139.312 C332.2,141.485 327.392,144.204 325.255,145.293 C323.251,146.381 319.781,148.686 317.38,150.448 C315.112,152.075 312.708,153.433 311.903,153.439 C311.233,153.444 310.032,154.259 309.1,155.205 C308.303,156.284 304.298,158.728 300.291,160.903 C294.012,164.17 292.27,164.45 289.444,163.131 C287.561,162.34 284.069,161.695 281.52,161.714 L276.827,161.75 L276.762,153.166 L276.698,144.584 L270.086,139.134 C266.441,136.076 262.937,133.688 262.132,133.694 C259.852,133.712 249.172,140.363 246.245,143.47 C244.648,145.226 243.194,148.053 242.94,149.932 C242.693,152.751 241.758,153.295 237.87,153.457 C235.188,153.612 230.909,155.119 228.107,157.152 C225.305,159.05 221.699,161.089 220.094,161.638 C218.488,162.186 215.416,163.818 213.281,165.31 C211.28,166.8 204.869,170.469 199.26,173.462 C193.648,176.455 188.173,179.58 187.107,180.527 C186.041,181.474 182.703,183.511 179.764,185.008 C171.613,189.093 160.529,195.345 151.717,200.776 C147.311,203.357 142.236,206.346 140.365,207.299 C138.496,208.251 136.628,209.607 135.963,210.416 C134.369,212.44 136.027,218.865 139.14,222.732 C140.629,224.598 141.856,227.271 141.866,228.612 C141.884,231.026 140.544,231.171 124.451,231.291 L107.016,231.422 L94.242,244.929 L81.334,258.438 L46.465,258.699 C24.202,258.865 9.856,259.509 6.511,260.472 C1.828,261.983 1.295,262.658 0.663,267.625 C0.149,270.713 0.18,292.709 0.627,316.713 L1.358,360.431 L10.141,369.217 L18.925,378.137 L42.401,378.765 C55.28,379.206 67.088,380.056 68.569,380.716 C70.049,381.376 72.873,382.427 74.756,383.084 C77.58,384.001 78.529,385.47 79.233,389.89 C80.357,396.722 85.264,407.28 87.82,408.201 C88.761,408.596 96.458,415.646 104.971,424.032 C113.483,432.418 121.045,439.201 121.849,439.195 C122.52,439.19 123.735,440.255 124.55,441.589 C126.453,444.928 138.392,445.241 235.357,444.917 C280.957,444.71 318.645,444.831 318.915,445.097 C319.185,445.364 336.219,445.504 356.74,445.484 L394.023,445.205 L398.685,440.879 z" fill="#000000"/>
  </g>
</svg>
