<?xml version="1.0" encoding="UTF-8"?>
<!DOCTYPE svg PUBLIC "-//W3C//DTD SVG 1.1//EN" "http://www.w3.org/Graphics/SVG/1.1/DTD/svg11.dtd">
<svg version="1.1" xmlns="http://www.w3.org/2000/svg" xmlns:xlink="http://www.w3.org/1999/xlink" x="0" y="0" width="500" height="500" viewBox="0, 0, 500, 500">
  <g id="layer101">
    <path d="M310.694,494.073 C311.089,490.912 313.263,484.392 315.633,479.848 L319.782,471.55 L312.67,442.309 C308.521,426.306 304.174,406.351 302.594,398.251 C300.223,385.408 299.235,383.235 294.098,380.469 C287.381,376.518 283.429,369.998 283.429,361.502 C283.429,352.414 280.466,350.833 263.277,350.833 C246.088,350.833 243.915,352.414 243.915,365.256 C243.915,369.207 242.137,374.344 239.766,377.308 C234.629,384.025 230.282,419.391 229.295,463.252 C228.504,494.27 228.109,495.061 216.848,495.061 C212.303,495.061 210.328,494.073 210.328,492.097 C210.328,488.146 206.574,488.343 202.03,492.295 C199.264,494.863 192.941,495.851 174.765,496.641 C148.29,497.629 147.895,497.432 150.463,484.194 C151.846,477.279 153.229,475.699 162.318,471.352 C175.555,464.832 179.902,460.683 183.458,450.805 C187.212,440.531 191.361,392.521 189.583,380.667 C188.792,375.727 187.804,366.244 187.409,359.724 C187.014,353.204 186.619,345.301 186.421,341.943 C186.224,338.781 187.409,321.988 189.385,304.602 C191.163,287.413 192.349,272.793 191.756,272.397 C189.187,269.631 181.877,275.163 175.95,284.449 C164.096,302.823 152.439,308.355 145.919,298.477 C141.178,291.167 142.165,288.993 162.12,269.829 L167.059,265.087 L165.874,223.4 C164.689,188.627 165.084,180.329 167.652,172.031 C169.43,166.696 170.813,157.015 170.813,150.693 C170.813,142.198 172.196,136.468 176.543,127.972 C179.704,121.848 182.865,113.747 183.655,110.191 C184.446,106.24 186.817,102.881 189.187,101.695 C191.558,100.51 195.51,96.559 198.078,92.805 C200.647,88.853 205.783,84.507 209.537,82.926 C213.291,81.346 216.65,78.975 217.045,77.592 C222.38,59.81 224.948,53.29 227.319,51.512 C229.887,49.734 229.887,48.944 227.516,45.783 C225.146,42.621 225.343,40.646 228.504,32.15 C230.678,26.618 233.444,19.901 235.024,16.937 C238.383,10.417 258.535,-1.437 263.474,0.144 C270.587,2.317 279.873,14.369 281.651,23.852 C282.639,28.791 285.207,35.311 287.381,38.275 C290.344,41.831 291.134,44.992 290.344,48.944 C289.159,53.685 289.554,54.476 293.703,54.476 C300.223,54.476 303.186,56.847 304.965,63.564 C306.15,68.108 307.928,69.491 313.263,70.677 C338.354,75.616 341.515,78.382 336.774,91.027 C335.391,94.78 335.588,97.744 337.366,101.498 C338.749,104.461 341.91,115.723 344.479,126.589 C347.047,137.456 350.604,151.681 352.777,158.201 C359.297,178.353 356.926,199.889 347.245,211.348 C344.084,215.299 342.701,218.855 343.293,222.017 C343.886,225.178 342.503,228.734 338.749,233.081 C333.612,239.008 333.415,239.798 333.81,261.926 C334.205,280.695 335.193,287.215 339.54,299.267 C342.306,307.368 344.676,317.246 344.676,321 C344.676,324.951 345.467,331.076 346.455,334.435 C347.838,339.572 347.64,341.745 344.874,345.301 C340.725,350.636 337.761,371.776 340.725,373.554 C341.713,374.147 342.701,379.876 342.701,386.001 C342.701,392.126 344.084,407.141 345.862,418.996 C347.64,431.047 349.616,449.619 350.604,460.486 C351.591,471.352 352.777,483.009 353.567,486.17 C355.543,496.444 352.974,497.827 330.254,499.012 L309.904,500 L310.694,494.073 z" fill="#000000"/>
  </g>
</svg>
