<?xml version="1.0" encoding="UTF-8"?>
<!DOCTYPE svg PUBLIC "-//W3C//DTD SVG 1.1//EN" "http://www.w3.org/Graphics/SVG/1.1/DTD/svg11.dtd">
<svg version="1.1" xmlns="http://www.w3.org/2000/svg" xmlns:xlink="http://www.w3.org/1999/xlink" x="0" y="0" width="500" height="500" viewBox="0, 0, 500, 500">
  <g id="Layer_1">
    <path d="M492.702,71.079 C482.801,74.642 451.94,86.255 451.523,86.579 C451.292,86.764 450.459,87.042 449.719,87.227 C448.978,87.412 447.081,88.152 445.554,88.893 C443.981,89.587 438.66,91.9 433.71,93.982 C428.759,96.064 423.762,98.193 422.605,98.702 C421.448,99.21 418.534,100.46 416.128,101.431 C413.722,102.403 408.725,104.439 405.023,106.012 C395.584,110.037 394.057,110.5 392.993,109.806 C391.744,109.019 386.377,109.112 384.434,109.899 C381.056,111.333 373.931,110.315 368.471,107.631 C367.314,107.076 365.047,106.336 363.381,106.058 C361.762,105.734 359.634,105.087 358.662,104.578 C357.737,104.115 356.487,103.699 355.932,103.699 C355.331,103.699 354.266,103.513 353.48,103.236 C351.722,102.681 345.753,101.015 343.254,100.413 C340.525,99.719 335.204,98.146 333.075,97.406 C332.011,97.036 330.762,96.758 330.253,96.758 C328.68,96.758 323.914,94.907 322.526,93.705 C321.786,93.103 320.814,92.594 320.351,92.594 C319.889,92.594 318.917,92.085 318.177,91.484 C316.28,89.91 314.938,89.633 312.995,90.419 C312.069,90.79 310.681,91.345 309.895,91.669 C308.414,92.178 307.35,93.982 306.702,96.897 C306.471,98.054 306.286,98.193 305.129,97.915 C304.296,97.73 303.186,97.915 302.122,98.424 C300.502,99.21 300.41,99.21 299.068,98.239 C297.448,97.036 296.662,96.99 295.181,97.961 C294.025,98.702 291.156,98.47 286.113,97.221 C282.18,96.249 271.538,95.278 265.523,95.324 C260.711,95.324 258.999,95.555 256.963,96.296 C253.169,97.684 252.799,97.591 252.799,95.231 C252.799,93.334 252.66,93.149 250.856,92.131 C247.478,90.281 245.998,88.939 245.72,87.505 C245.257,85.33 243.129,83.34 240.908,83.016 C239.335,82.831 238.549,83.016 236.466,84.219 C233.644,85.839 232.534,86.024 232.117,84.96 C231.793,84.034 227.907,81.536 224.205,79.87 C220.735,78.297 219.578,78.482 215.183,81.073 C213.054,82.322 211.574,82.924 210.556,82.878 C207.687,82.693 206.993,82.878 205.605,84.127 C204.819,84.867 203.893,86.255 203.569,87.273 C203.199,88.291 202.551,89.309 202.043,89.587 C200.284,90.512 197.046,92.779 196.49,93.427 C196.166,93.797 196.074,94.676 196.213,95.509 C196.444,96.758 196.398,96.897 195.611,96.573 C195.149,96.388 193.899,96.064 192.881,95.833 C191.863,95.602 190.059,95.231 188.81,94.954 C185.895,94.26 177.243,94.306 173.263,95 L170.025,95.555 L165.953,93.612 C159.984,90.79 159.475,90.882 155.219,95.416 C153.322,97.452 151.378,99.349 150.869,99.581 C150.268,99.951 148.972,99.719 146.057,98.794 C142.356,97.591 142.078,97.545 141.523,98.285 C140.737,99.396 139.626,98.84 138.747,96.851 C136.896,92.548 136.804,92.502 132.177,90.975 C129.817,90.234 129.771,90.234 127.272,91.391 C125.931,92.039 124.357,92.594 123.802,92.594 C123.293,92.594 122.229,93.149 121.443,93.797 C119.962,95 112.929,97.452 112.143,96.99 C111.911,96.851 110.431,97.221 108.811,97.869 C104.647,99.442 102.75,99.997 101.454,99.997 C100.205,99.997 97.059,100.922 94.468,102.033 C93.496,102.449 91.877,102.773 90.859,102.773 C89.795,102.773 87.343,103.328 85.399,103.976 C83.456,104.624 80.819,105.364 79.523,105.549 C78.274,105.781 76.377,106.197 75.359,106.475 C74.341,106.752 71.843,107.4 69.807,107.863 C67.771,108.325 64.902,109.158 63.375,109.713 C61.293,110.5 60.183,110.685 58.332,110.454 C56.204,110.13 55.834,110.269 53.659,111.703 C52.132,112.721 50.05,113.554 47.829,114.063 C45.932,114.479 41.352,115.636 37.65,116.561 C31.404,118.134 30.478,118.273 24.093,118.273 C16.089,118.273 16.089,118.227 17.801,123.085 C18.634,125.584 18.68,126.093 18.125,126.648 C17.431,127.342 13.683,128.406 10.12,128.915 C3.272,129.84 -0.707,131.506 0.404,133.033 C0.681,133.357 1.653,134.652 2.625,135.902 C3.55,137.151 4.984,139.464 5.725,141.037 C6.974,143.628 7.344,143.952 9.611,144.878 C11.647,145.757 12.249,146.266 13.081,147.978 C13.637,149.088 15.025,151.031 16.181,152.281 C18.634,154.918 20.623,155.519 26.731,155.519 C30.987,155.519 31.311,155.658 33.44,158.897 C35.846,162.46 36.262,162.599 42.832,162.136 C49.356,161.627 49.911,161.719 49.402,163.107 C48.801,164.958 49.078,166.531 50.42,168.475 C52.641,171.76 53.798,172.361 58.378,172.639 L62.357,172.87 L64.578,176.109 C67.308,180.134 68.326,180.967 70.316,180.967 C72.259,180.967 77.765,179.116 82.901,176.757 C85.075,175.785 87.296,174.952 87.805,174.952 C88.36,174.952 89.61,175.785 90.628,176.803 C91.599,177.775 92.987,178.746 93.681,178.885 C95.44,179.301 99.881,176.942 105.896,172.407 C108.441,170.51 110.754,168.937 111.078,168.937 C111.356,168.937 111.865,169.678 112.143,170.557 C112.744,172.361 115.844,175.184 117.741,175.646 C118.481,175.831 119.684,175.646 120.702,175.23 C123.247,174.166 124.126,174.258 124.45,175.739 C124.589,176.479 124.913,177.636 125.144,178.422 C125.375,179.163 125.468,181.245 125.283,183.049 C125.005,186.196 124.913,186.334 122.692,188.463 C119.453,191.47 119.222,193.321 121.628,198.272 C123.154,201.325 123.293,201.973 122.831,202.991 C122.553,203.639 122.322,204.842 122.322,205.675 C122.322,206.554 121.998,207.988 121.628,208.913 C120.98,210.44 120.98,210.81 121.813,213.216 C122.599,215.484 122.923,215.946 124.034,216.131 C124.959,216.316 125.329,216.64 125.329,217.288 C125.329,218.213 124.774,218.491 112.605,223.349 C110.94,224.043 107.516,225.616 105.017,226.866 C101.177,228.763 100.159,229.133 98.817,228.855 C97.568,228.624 97.013,228.763 96.18,229.549 C94.792,230.845 86.926,234.222 84.798,234.407 C83.178,234.546 81.605,235.287 77.672,237.646 C76.655,238.294 75.266,238.803 74.619,238.803 C73.925,238.803 71.935,239.636 70.223,240.654 C68.372,241.718 66.429,242.504 65.596,242.504 C63.931,242.504 60.044,244.91 59.628,246.252 C59.304,247.27 58.563,247.455 54.075,247.733 C52.317,247.872 49.634,248.288 48.199,248.704 C44.914,249.676 44.452,250.694 45.377,254.719 C46.534,259.67 49.819,264.713 51.901,264.713 C53.057,264.713 58.563,261.243 60.322,259.393 C61.941,257.727 61.987,257.727 64.717,258.004 C67.355,258.328 67.863,258.19 73.601,255.784 C76.978,254.396 80.68,252.591 81.883,251.804 C83.132,251.018 84.89,250.231 85.816,250.093 C86.741,249.907 88.314,249.306 89.286,248.704 C92.941,246.53 94.514,245.743 97.383,244.772 C99.002,244.216 100.853,243.522 101.501,243.152 C103.86,241.949 106.914,240.654 107.377,240.654 C107.886,240.654 109.274,240.052 119.083,235.796 C127.041,232.325 130.835,230.937 131.575,231.169 C131.992,231.307 132.778,232.048 133.334,232.788 C135.138,235.24 139.904,236.906 145.04,236.952 C147.816,236.952 149.389,236.443 154.34,233.899 C156.051,233.019 158.643,232.001 160.123,231.631 C163.547,230.752 164.657,229.919 167.156,226.357 C168.683,224.182 169.701,223.21 171.181,222.563 C172.292,222.1 173.217,221.545 173.217,221.313 C173.217,221.082 174.05,219.925 175.114,218.769 C176.225,217.473 177.057,215.993 177.243,214.975 C177.52,213.355 178.816,211.967 180.019,211.967 C180.99,211.967 183.396,216.178 183.396,217.89 C183.396,219.74 184.923,222.887 186.172,223.534 C187.144,224.043 188.116,226.866 187.699,227.976 C187.375,228.809 186.265,228.763 184.784,227.93 C184.137,227.56 183.257,227.282 182.795,227.236 C181.499,227.236 180.157,228.948 180.157,230.567 C180.157,232.557 178.584,235.101 177.381,235.101 C176.04,235.101 174.513,236.813 174.837,237.924 C175.068,238.572 174.652,239.266 173.217,240.515 C171.274,242.273 167.249,248.658 162.113,258.19 C158.272,265.361 156.19,268.415 154.525,269.294 C153.738,269.71 152.535,270.636 151.795,271.33 C150.453,272.579 150.453,272.718 150.638,276.096 C150.777,278.27 150.684,279.658 150.36,279.936 C149.898,280.306 147.954,280.769 142.541,281.833 C141.246,282.11 139.302,282.527 138.284,282.804 C135.971,283.406 130.049,286.321 128.753,287.524 C127.689,288.496 127.689,288.496 129.077,295.019 C130.511,301.913 130.881,302.237 134.444,300.479 C139.163,298.166 142.032,297.518 142.495,298.675 C142.819,299.554 142.125,300.803 139.441,304.134 C135.508,308.993 131.899,314.591 132.177,315.331 C132.316,315.701 133.472,316.534 134.722,317.182 C135.971,317.83 137.544,318.987 138.192,319.727 C139.811,321.67 141.708,325.742 142.078,327.916 C142.217,328.888 143.004,331.201 143.837,333.052 C144.993,335.551 145.734,336.569 146.844,337.124 C148.325,337.864 148.371,337.864 149.666,336.615 C150.499,335.828 151.61,333.654 152.674,330.924 C154.941,324.863 157.671,319.357 159.152,317.784 C160.956,315.84 161.419,316.812 160.216,320.051 C158.411,324.955 158.457,325.418 161.141,328.101 C162.437,329.397 163.501,330.646 163.501,330.878 C163.501,331.757 165.352,333.191 166.462,333.191 C169.099,333.191 169.146,335.782 166.554,338.651 C164.01,341.473 163.362,343.093 163.686,346.1 C163.871,347.534 164.056,349.894 164.195,351.421 C164.287,352.901 164.843,354.984 165.352,356.094 C166.231,357.898 166.554,358.13 169.469,359.101 C172.014,359.888 172.847,360.027 173.634,359.564 C174.374,359.194 175.022,359.194 176.225,359.61 C177.474,360.073 178.168,360.073 179.649,359.564 C180.805,359.194 182.425,359.055 183.951,359.24 C185.849,359.472 186.866,359.333 188.44,358.639 C189.55,358.13 190.938,357.713 191.54,357.713 C193.205,357.713 195.472,356.649 197.092,355.076 C198.387,353.873 198.619,353.318 198.85,350.496 C199.081,348.043 199.59,346.424 201.071,343.463 C202.135,341.334 203.523,339.067 204.078,338.419 C205.05,337.401 205.42,337.309 207.41,337.587 C209.816,337.91 210.371,337.587 210.834,335.458 C211.019,334.81 211.666,334.024 212.36,333.746 C213.517,333.191 213.563,333.052 213.332,330.045 C213.101,326.806 212.037,323.336 210.972,322.087 C209.723,320.698 206.993,314.684 206.993,313.388 C206.993,312.694 206.438,310.982 205.79,309.687 C205.143,308.345 204.726,306.957 204.865,306.54 C205.004,306.17 206.484,305.245 208.104,304.504 C209.769,303.764 212.314,302.422 213.795,301.451 C215.275,300.525 217.311,299.369 218.329,298.906 C219.347,298.443 220.55,297.796 220.966,297.472 C221.568,297.055 221.892,297.009 222.308,297.425 C223.002,298.119 223.604,301.358 223.65,304.551 C223.65,307.928 224.39,312.093 225.454,314.684 C226.148,316.396 226.241,317.321 225.917,320.004 C224.853,329.351 224.807,328.703 226.148,330.276 C226.796,331.063 227.351,331.942 227.351,332.266 C227.351,332.59 226.519,333.654 225.501,334.625 C223.974,336.106 223.65,336.754 223.65,338.234 C223.65,339.252 223.465,340.594 223.187,341.242 C222.817,342.26 222.956,342.676 224.066,343.925 C224.992,344.99 225.501,346.193 225.732,347.858 C226.01,350.079 225.917,350.449 224.853,351.745 C223.835,352.901 223.65,353.642 223.65,355.863 C223.65,358.084 223.835,358.778 224.668,359.564 C225.223,360.073 225.917,360.49 226.241,360.49 C227.351,360.49 228.277,361.97 228.277,363.682 C228.277,365.07 227.86,365.995 226.426,367.754 C225.408,369.049 224.066,370.437 223.419,370.854 C221.938,371.825 221.568,372.566 220.411,377.054 C219.81,379.367 218.792,381.773 217.82,383.207 C216.941,384.503 216.247,385.845 216.247,386.215 C216.247,386.585 215.044,388.204 213.517,389.824 C211.481,392.045 210.602,393.34 210.047,395.33 C209.631,396.718 209.307,398.06 209.307,398.291 C209.307,398.522 210.186,399.587 211.296,400.651 C212.916,402.27 213.749,402.687 216.478,403.242 C218.653,403.704 219.949,404.26 220.504,404.907 C221.568,406.249 222.401,409.303 222.077,410.83 C221.892,411.524 221.753,413.051 221.707,414.254 C221.66,416.012 221.892,416.706 223.141,418.279 C223.974,419.343 225.223,420.5 225.917,420.87 C226.611,421.194 228.046,422.212 229.063,423.045 C230.266,424.063 231.886,424.849 233.644,425.266 C235.263,425.636 236.975,426.422 237.901,427.209 C239.057,428.181 239.705,428.412 240.723,428.227 C241.695,428.042 242.666,428.273 244.101,429.152 C245.535,429.985 246.831,430.355 248.404,430.355 C250.393,430.355 250.81,430.17 252.614,428.319 C254.419,426.561 254.65,426.052 254.65,424.248 C254.65,422.721 254.974,421.749 256.038,420.315 C259.231,415.966 259.323,413.004 256.316,408.146 C254.419,405.092 254.28,404.028 255.575,402.825 C257.01,401.53 257.565,398.8 256.778,396.903 C256.454,396.024 256.316,395.052 256.501,394.682 C256.686,394.312 256.963,392.878 257.148,391.397 C257.38,389.361 257.195,388.251 256.408,386.169 C255.39,383.439 255.39,382.884 256.963,376.684 C257.241,375.527 257.565,372.149 257.657,369.188 C257.796,365.348 258.074,363.312 258.583,362.294 C260.063,359.425 260.757,355.909 260.11,354.197 C259.554,352.67 259.601,352.531 261.035,351.282 L262.469,349.94 L262.284,344.018 C262.146,339.622 262.284,337.679 262.793,336.522 C263.117,335.643 263.349,334.81 263.21,334.625 C263.117,334.44 263.21,333.561 263.441,332.682 C263.672,331.803 264.181,329.721 264.598,328.009 L265.384,324.909 L263.904,322.133 C262.608,319.727 262.469,319.079 262.793,317.598 C262.978,316.627 263.117,313.943 263.071,311.676 C262.886,304.69 262.932,296.916 263.21,295.806 C263.811,293.354 265.384,295.112 272.834,306.448 C274.777,309.409 276.813,312.093 277.275,312.37 C278.802,313.157 281.254,312.925 282.18,311.907 C282.966,311.028 283.013,310.658 282.504,308.391 C282.134,306.633 282.134,305.476 282.457,304.597 C282.781,303.764 282.781,302.746 282.457,301.497 C282.226,300.479 281.856,298.675 281.717,297.518 C281.578,296.361 280.977,294.696 280.375,293.909 C279.774,293.076 278.987,291.781 278.663,291.04 C278.154,289.745 278.201,289.513 279.496,288.172 C280.237,287.339 281.347,285.627 281.902,284.331 C283.383,281.046 282.92,279.89 279.126,277.113 C274.731,273.875 274.869,274.013 275.24,272.394 C275.749,270.358 275.656,266.009 275.101,264.204 C274.869,263.325 274.407,261.382 274.083,259.855 C273.343,256.2 270.52,248.89 269.178,247.039 C268.253,245.836 268.068,245.003 268.068,242.319 C268.068,239.497 268.253,238.757 269.363,237.137 C271.631,233.667 277.044,228.254 278.525,227.93 C280.19,227.606 281.116,227.097 284.632,224.46 C287.963,222.007 288.195,221.082 286.205,217.936 C283.614,213.957 277.507,209.237 275.749,209.931 C275.332,210.07 274.592,210.949 274.037,211.875 C273.481,212.846 272.417,214.234 271.677,215.021 C270.937,215.807 270.104,217.381 269.78,218.537 C269.317,220.296 268.484,221.313 264.737,224.876 C261.081,228.3 259.971,229.087 258.814,229.087 C258.028,229.087 257.287,228.809 257.148,228.439 C256.778,227.467 259.601,222.84 260.896,222.239 C261.868,221.776 262.053,221.406 262.053,219.648 C262.053,218.167 262.562,216.687 263.904,214.096 C265.986,210.163 266.217,208.775 264.829,208.404 C264.089,208.219 263.904,207.757 263.904,206.23 C263.904,205.212 264.089,204.102 264.274,203.87 C264.459,203.593 266.171,203.361 268.068,203.315 L271.538,203.222 L274.083,205.721 C276.905,208.497 278.34,209.191 281.162,209.191 C282.226,209.191 284.216,209.607 285.557,210.116 C289.629,211.69 292.266,211.412 298.837,208.682 C300.641,207.942 302.307,207.34 302.584,207.34 C302.862,207.34 304.065,208.312 305.222,209.469 C307.396,211.597 307.396,211.597 309.802,211.273 C313.226,210.81 316.604,209.191 318.408,207.155 C319.195,206.23 319.889,205.258 319.889,205.027 C319.889,204.796 320.537,204.564 321.369,204.472 C323.59,204.24 324.562,202.575 324.516,198.966 C324.423,189.342 324.099,182.91 323.637,181.754 C322.85,179.764 323.035,178.469 324.284,176.063 C324.932,174.86 325.441,173.425 325.441,172.87 C325.441,171.528 323.868,169.585 322.063,168.613 C320.305,167.734 319.889,167.225 319.889,165.884 C319.889,163.802 321.369,164.31 326.644,168.104 C330.16,170.649 335.065,173.749 336.453,174.351 C337.332,174.721 338.443,174.86 338.998,174.675 C340.756,174.119 343.486,171.667 344.457,169.816 C344.966,168.752 345.707,168.012 346.169,168.012 C346.632,168.012 348.251,168.891 349.732,170.002 C355.701,174.304 359.448,176.155 361.253,175.693 C361.854,175.554 363.243,174.675 364.307,173.796 C366.435,171.991 366.759,171.991 370.09,173.703 C372.82,175.091 380.454,177.728 381.657,177.728 C383.046,177.728 385.128,175.97 387.256,172.963 C389.569,169.77 390.078,169.4 392.253,169.4 C393.965,169.4 394.381,169.122 396.787,166.578 C398.222,165.004 399.563,163.154 399.702,162.413 C400.119,160.609 400.628,160.378 403.681,160.563 C406.134,160.702 406.319,160.609 407.614,158.99 C410.714,155.149 410.853,155.057 413.351,155.057 C418.025,155.057 420.338,153.113 423.577,146.266 C424.641,144.091 426.307,140.713 427.278,138.724 C429.823,133.727 429.638,132.385 426.538,131.691 C425.751,131.552 424.41,131.228 423.531,130.997 C422.651,130.766 420.662,130.349 419.135,130.025 C414.184,129.054 411.593,128.175 411.316,127.481 C411.177,127.11 411.269,125.815 411.501,124.658 C412.334,121.003 411.362,119.939 408.169,120.91 C406.55,121.373 406.272,121.327 405.44,120.494 C404.607,119.707 404.56,119.476 405.162,118.921 C405.81,118.273 415.989,113.831 433.247,106.706 C437.966,104.763 442.316,102.819 442.963,102.403 C443.611,101.987 456.428,95.787 471.419,88.615 C497.19,76.354 498.763,75.521 499.642,73.948 C500.707,71.958 500.337,70.987 498.208,70.107 C497.051,69.645 496.311,69.737 492.702,71.079 z" fill="#000000"/>
  </g>
</svg>
