<?xml version="1.0" encoding="UTF-8"?>
<!DOCTYPE svg PUBLIC "-//W3C//DTD SVG 1.1//EN" "http://www.w3.org/Graphics/SVG/1.1/DTD/svg11.dtd">
<svg version="1.1" xmlns="http://www.w3.org/2000/svg" xmlns:xlink="http://www.w3.org/1999/xlink" x="0" y="0" width="500" height="500" viewBox="0, 0, 500, 500">
  <g id="layer101">
    <path d="M324.374,391.075 C323.4,390.158 321.108,387.35 319.275,384.886 C317.441,382.423 314.175,378.297 311.941,375.719 C309.706,373.14 307.357,370.218 306.726,369.244 C305.981,368.04 304.778,367.124 303.288,366.608 C301.913,366.15 299.85,364.66 298.074,362.826 C295.668,360.305 294.865,358.93 293.547,354.919 C292.115,350.564 288.677,344.491 284.666,339.334 C283.119,337.328 276.071,331.827 268.909,327.072 C262.148,322.602 259.225,319.909 257.621,316.815 C255.845,313.377 254.355,312.002 251.203,311.085 C245.531,309.366 243.812,310.226 246.218,313.549 C246.791,314.408 247.708,316.07 248.167,317.216 C248.682,318.419 250.344,321.227 251.834,323.519 C256.246,330.108 256.246,330.108 255.444,332.63 C254.756,334.692 254.813,335.093 256.188,337.672 C257.048,339.219 257.736,340.823 257.736,341.282 C257.736,342.772 255.787,343.975 253.152,344.147 C251.089,344.319 250.573,344.147 250.344,343.173 C249.599,340.594 248.74,339.849 245.703,339.391 C243.812,339.104 242.093,338.417 241.176,337.557 C240.374,336.812 238.999,335.781 238.139,335.265 C237.222,334.692 236.191,333.374 235.733,332.343 C234.472,329.364 227.195,319.05 223.127,314.523 C219.23,310.168 216.48,306.673 215.563,304.954 C212.641,299.281 206.739,293.666 202.957,292.979 C201.525,292.692 199.691,292.004 198.947,291.374 C197.399,290.171 197.342,290.171 186.914,291.088 C183.59,291.374 181.929,291.26 180.955,290.744 C179.751,290.114 179.465,290.171 178.777,291.26 C177.918,292.52 175.855,292.864 174.193,291.947 C173.62,291.661 171.099,291.661 168.062,291.89 C165.255,292.176 159.811,292.692 155.972,293.093 C148.237,293.838 147.377,293.609 144.799,290.572 C143.252,288.738 141.991,288.853 141.991,290.801 C141.991,291.431 144.054,297.677 146.518,304.668 C148.982,311.658 152.018,320.482 153.164,324.207 C154.769,329.306 155.8,331.541 157.233,333.145 C159.525,335.666 160.327,337.615 160.327,340.594 C160.327,342.313 159.983,343.115 158.436,344.433 C154.54,347.814 143.653,352.226 134.485,354.117 C128.812,355.263 113.399,355.034 110.878,353.773 C109.159,352.913 107.039,349.476 107.039,347.527 C107.039,346.897 106.351,345.579 105.492,344.548 C104.575,343.516 103.257,341.511 102.455,340.078 C101.309,337.958 100.736,337.443 99.59,337.5 C98.788,337.557 94.032,339.047 89.047,340.823 C81.082,343.688 79.707,343.975 78.332,343.402 C76.212,342.542 76.326,342.886 68.534,320.425 C67.846,318.477 67.617,316.815 67.903,316.299 C68.132,315.841 71.57,312.632 75.524,309.08 C85.551,300.198 85.379,300.37 84.921,297.161 C84.405,293.838 79.65,283.581 77.014,280.086 C74.263,276.476 73.06,273.038 69.508,258.37 C67.789,251.437 65.783,244.331 64.981,242.555 C63.262,238.831 62.517,235.622 61.772,228.861 C61.486,226.168 60.626,222.042 59.881,219.693 L58.506,215.395 L53.407,212.129 C50.599,210.296 47.046,208.118 45.442,207.202 C43.895,206.285 40.915,204.623 38.967,203.477 C36.962,202.274 34.956,201.357 34.555,201.357 C34.154,201.357 33.237,200.899 32.492,200.326 C31.747,199.695 30.372,199.065 29.398,198.836 C28.481,198.607 27.221,197.976 26.705,197.518 C26.018,196.888 25.215,196.773 24.127,197.06 C20.345,198.091 13.641,196.716 11.693,194.538 C10.375,193.106 -0.226,165.889 0.004,164.514 C0.118,163.883 0.634,163.081 1.15,162.737 C2.353,161.993 3.957,162.394 28.768,169.9 L46.531,175.286 L48.88,178.724 C52.031,183.136 53.12,183.251 54.438,179.068 C55.584,175.572 56.902,173.853 58.392,173.853 C59.079,173.853 59.767,173.109 60.34,171.848 C61.314,169.384 63.95,168.124 67.789,168.124 C72.43,168.124 83.89,175.343 85.208,179.125 C85.551,180.042 86.64,181.13 87.958,181.818 C92.828,184.339 95.579,188.236 101.595,201.071 C110.419,220.037 120.561,239.748 121.593,240.091 C122.166,240.321 123.598,240.435 124.744,240.435 C128.812,240.321 153.68,231.668 154.31,230.121 C154.482,229.663 153.451,227.314 152.018,224.85 C150.586,222.443 149.44,219.979 149.44,219.464 C149.44,218.948 148.81,217.114 148.065,215.51 C146.919,212.932 146.632,211.327 146.346,204.165 C146.059,196.773 146.174,195.57 147.091,193.851 C147.893,192.418 148.065,191.101 147.836,188.694 C147.606,185.6 147.778,185.027 153.451,172.879 C160.728,157.008 162.447,155.174 170.469,154.085 C172.13,153.856 173.735,153.34 174.079,152.939 C174.422,152.538 174.824,150.074 175.053,147.439 C175.454,141.995 175.855,141.193 178.09,141.193 C179.35,141.193 180.267,141.881 182.043,144.115 C183.361,145.777 184.393,147.381 184.393,147.782 C184.393,148.871 190.982,157.638 192.3,158.325 C193.159,158.784 196.024,158.555 203.072,157.466 C208.401,156.664 219.059,155.174 226.737,154.143 C241.921,152.08 240.718,152.538 243.583,148.069 C245.531,145.032 249.427,142.969 254.355,142.224 C256.704,141.881 258.939,141.365 259.283,140.964 C259.684,140.62 260.314,138.271 260.658,135.75 C261.689,128.243 263.637,127.327 268.279,132.254 C273.378,137.698 275.67,140.62 279.624,146.579 C282.775,151.278 284.036,152.653 286.5,154.085 C288.964,155.575 289.651,156.32 290.453,158.555 C291.599,161.763 296.069,166.92 305.294,175.515 C311.769,181.589 312.399,182.047 316.582,183.422 C322.484,185.313 323.859,186.058 327.812,189.496 C331.078,192.304 331.136,192.418 331.021,195.169 C330.907,196.659 331.136,198.148 331.422,198.435 C332.626,199.638 355.488,201.3 357.207,200.326 C358.181,199.753 358.124,199.638 356.29,198.836 C352.795,197.289 349.815,194.825 349.242,193.049 C348.956,192.132 348.211,190.814 347.638,190.184 C346.435,188.866 343.684,180.615 343.684,178.266 C343.684,174.369 346.607,170.702 349.242,171.332 C350.503,171.676 350.56,171.504 350.56,168.811 C350.56,166.175 350.388,165.774 348.44,164.17 C347.237,163.196 345.919,162.394 345.518,162.394 C343.856,162.394 339.158,158.784 338.527,157.065 C338.184,156.091 337.381,154.716 336.751,154.028 C336.121,153.34 335.261,151.564 334.803,150.017 C334.345,148.47 333.657,146.121 333.313,144.803 C331.938,140.219 334.459,135.463 338.241,135.463 C340.074,135.463 340.246,135.348 340.246,133.801 C340.246,132.655 340.705,131.796 341.507,131.223 C343.111,130.077 348.612,130.077 350.56,131.166 C351.362,131.624 352.623,131.968 353.368,132.025 C354.17,132.025 355.545,132.885 356.691,134.088 C358.811,136.38 363.453,138.328 366.661,138.328 C367.807,138.328 369.985,138.729 371.532,139.187 C374.511,140.104 378.751,140.333 379.439,139.589 C379.668,139.359 381.043,138.786 382.533,138.271 C386.544,136.895 386.773,136.036 383.851,132.885 C381.387,130.249 381.158,129.332 382.705,128.473 C383.163,128.243 392.904,124.118 404.421,119.419 C415.939,114.663 427.055,110.022 429.232,109.105 C431.352,108.131 433.701,107.386 434.446,107.386 C435.191,107.386 437.712,108.762 440.004,110.423 C442.354,112.142 449.573,117.299 456.105,121.94 C462.637,126.524 468.425,130.936 468.94,131.739 C470.258,133.687 469.17,135.234 465.273,137.067 C462.408,138.443 461.262,138.614 455.876,138.614 C449.974,138.614 449.745,138.672 448.313,140.219 C447.51,141.078 446.364,141.766 445.734,141.766 C445.104,141.766 444.474,142.282 444.244,142.912 C444.015,143.542 443.213,144.459 442.354,144.86 C440.692,145.72 432.326,154.2 428.774,158.555 C427.57,160.044 424.476,162.795 421.898,164.686 C416.741,168.41 415.881,169.728 415.881,173.796 C415.881,175.859 416.168,176.833 417.085,177.635 C417.772,178.208 418.918,179.641 419.606,180.787 C420.351,181.933 425.164,186.402 430.321,190.757 C435.42,195.169 441.666,200.498 444.13,202.732 C454.444,211.957 470.029,231.898 486.589,257.052 C490.714,263.24 492.891,265.991 494.84,267.423 C498.22,269.83 500.398,273.898 499.939,276.877 C499.71,278.023 498.851,279.685 497.762,280.774 C495.871,282.779 488.651,286.504 483.781,288.051 C471.347,292.062 457.079,291.947 453.355,287.822 C452.782,287.191 450.375,285.759 448.026,284.67 C442.296,282.034 435.42,278.023 430.493,274.471 C424.132,269.887 410.896,259.172 404.994,253.843 C402.015,251.15 399.207,248.915 398.806,248.915 C398.405,248.915 397.488,249.259 396.801,249.718 C396.113,250.176 391.3,251.609 386.086,252.926 C380.184,254.416 375.886,255.849 374.569,256.708 C373.48,257.453 371.99,258.083 371.36,258.083 C369.125,258.083 368.323,258.714 368.323,260.49 C368.323,262.495 366.833,263.985 362.192,266.621 C358.181,268.798 355.144,271.377 355.144,272.58 C355.144,273.038 355.832,274.414 356.691,275.617 C357.493,276.82 358.697,279.169 359.327,280.716 C360.702,284.269 363.682,296.187 364.312,300.657 C364.713,303.292 365.229,304.438 366.833,306.272 C368.495,308.048 368.896,308.965 368.896,310.856 C368.896,313.377 369.87,314.523 377.147,320.769 C380.871,323.863 382.934,328.275 382.476,332.057 C382.075,335.093 383.049,337.844 385.57,341.11 C386.2,341.855 386.659,343.115 386.659,343.918 C386.659,344.662 386.945,346.324 387.289,347.47 C387.862,349.361 387.805,349.819 386.659,351.366 L385.341,353.143 L386.544,356.351 C388.378,361.165 388.206,363.8 385.799,367.525 C384.711,369.244 383.908,371.02 384.08,371.421 C384.195,371.822 383.966,373.14 383.45,374.343 C382.762,376.062 381.559,377.266 377.892,379.73 C375.313,381.506 372.678,382.996 372.047,383.053 C368.151,383.339 367.062,382.996 364.541,380.417 C363.166,378.985 361.734,377.839 361.332,377.839 C360.931,377.839 359.613,378.354 358.41,378.985 C357.264,379.615 355.259,380.131 353.941,380.131 C350.732,380.131 348.784,381.678 347.466,385.23 C346.091,389.184 343.455,390.903 340.304,389.929 C339.1,389.585 337.668,388.783 337.095,388.152 C336.522,387.522 335.605,387.007 335.032,387.007 C334.115,387.007 331.766,389.356 330.62,391.361 C330.391,391.82 329.245,392.335 328.156,392.507 C326.437,392.794 325.864,392.565 324.374,391.075 z" fill="#000000"/>
  </g>
</svg>
