<?xml version="1.0" encoding="UTF-8"?>
<!DOCTYPE svg PUBLIC "-//W3C//DTD SVG 1.1//EN" "http://www.w3.org/Graphics/SVG/1.1/DTD/svg11.dtd">
<svg version="1.1" xmlns="http://www.w3.org/2000/svg" xmlns:xlink="http://www.w3.org/1999/xlink" x="0" y="0" width="500" height="500" viewBox="0, 0, 500, 500">
  <g id="layer102">
    <path d="M132.11,141.816 C134.425,141.85 136.475,142.707 138.316,144.06 C138.992,144.687 140.925,144.881 147.399,145.074 L155.612,145.316 L156.772,146.669 C158.173,148.311 158.27,149.712 156.965,150.389 C156.047,150.872 155.999,151.403 155.999,158.361 L155.999,165.801 L143.437,178.653 L143.437,182.615 C143.437,186.963 143.679,188.074 144.693,188.074 C145.466,188.074 150.008,189.524 153.1,190.78 C154.356,191.311 155.033,191.891 155.129,192.568 C155.274,193.582 155.516,193.63 160.879,193.679 C163.971,193.727 166.773,193.92 167.063,194.114 C167.401,194.307 168.368,194.307 169.189,194.162 C172.185,193.63 183.49,193.727 184.215,194.307 C184.698,194.693 186.003,194.79 188.466,194.548 C191.8,194.259 192.138,194.307 193.298,195.37 C194.844,196.819 196.583,201.506 196.583,204.308 C196.583,205.661 196.97,207.159 197.646,208.318 L198.661,210.106 L197.55,212.376 C196.583,214.309 196.487,215.034 196.728,218.609 C196.873,220.783 196.777,222.958 196.535,223.441 C195.472,225.47 190.979,226.291 187.307,225.18 C185.519,224.649 185.326,224.697 184.553,225.712 C183.876,226.581 183.538,226.678 182.524,226.291 C181.413,225.905 176.823,225.905 168.657,226.388 C166.966,226.484 165.517,226.388 165.372,226.146 C164.792,225.18 163.729,225.808 163.729,227.161 C163.729,228.32 163.971,228.61 165.179,228.852 C166,228.997 167.305,229.287 168.078,229.432 C168.947,229.625 169.817,229.48 170.204,229.142 C170.735,228.755 171.17,228.755 171.894,229.093 C172.426,229.383 173.972,229.625 175.325,229.625 C177.499,229.625 177.837,229.77 178.224,230.833 C178.466,231.509 179.045,232.089 179.528,232.137 C180.011,232.137 181.074,232.234 181.847,232.331 C189.723,233.152 192.042,233.249 192.477,232.91 C193.056,232.379 199.386,232.427 203.154,232.958 C205.038,233.249 206.874,233.876 208.13,234.698 C210.112,236.051 210.884,236.244 214.943,236.679 C220.596,237.259 220.837,237.21 222.335,235.858 C223.108,235.133 224.702,234.07 225.862,233.49 C227.65,232.524 228.423,232.427 230.983,232.717 C232.626,232.862 235.235,233.345 236.733,233.78 C239.294,234.505 239.583,234.505 240.743,233.732 C242.337,232.669 242.386,231.558 240.84,231.558 C240.163,231.558 239.487,231.364 239.342,231.074 C239.197,230.833 238.376,230.591 237.603,230.591 C235.284,230.591 235.235,229.287 237.554,227.113 C239.197,225.566 239.874,225.277 241.565,225.277 C242.917,225.277 243.98,224.938 244.608,224.359 C246.348,222.813 247.555,222.716 249.15,224.069 C250.165,224.89 251.179,225.277 252.483,225.277 C253.933,225.277 254.803,225.663 256.155,226.871 C257.943,228.466 258.475,230.011 257.364,230.301 C253.546,231.364 252.29,231.799 251.904,232.137 C250.986,232.959 252.87,233.49 256.784,233.49 C260.117,233.49 260.842,233.345 261.76,232.427 C262.533,231.751 263.741,231.316 265.384,231.171 C266.785,231.026 268.041,230.64 268.234,230.253 C269.345,228.369 272.003,228.562 274.08,230.688 C274.757,231.413 275.337,231.558 276.834,231.316 C279.202,230.929 281.231,232.041 282.149,234.263 C282.487,235.181 283.115,235.954 283.502,236.051 C283.936,236.147 289.734,236.292 296.45,236.341 C308.287,236.437 308.674,236.389 309.253,235.471 C309.833,234.505 310.316,234.456 317.998,234.456 C323.555,234.456 326.405,234.65 327.178,235.085 C328.772,235.954 330.415,237.452 330.415,238.032 C330.464,238.66 333.701,240.254 334.909,240.254 C335.344,240.254 335.923,240.689 336.213,241.22 C336.648,242.042 336.889,242.138 337.807,241.607 C338.532,241.22 341.093,241.075 345.779,241.172 C349.596,241.22 352.978,241.075 353.268,240.834 C353.606,240.593 357.858,240.109 362.786,239.771 C371.628,239.143 371.725,239.095 372.932,237.742 C373.899,236.63 374.527,236.389 376.266,236.389 C379.648,236.389 381.967,235.471 382.643,233.925 C383.078,232.765 383.513,232.524 384.818,232.524 C386.219,232.524 386.412,232.669 386.557,234.022 C386.654,234.891 387.04,235.712 387.427,235.954 C388.441,236.437 392.645,237.21 398.056,237.887 C404.723,238.66 411.053,239.675 411.584,240.013 C411.874,240.157 412.067,241.027 412.067,241.897 C412.067,243.491 412.115,243.54 414.386,243.733 C415.981,243.926 419.314,245.279 425.451,248.371 C432.988,252.091 434.582,252.719 436.466,252.671 C438.399,252.575 438.834,252.768 440.283,254.362 C441.201,255.329 442.989,256.633 444.293,257.213 C445.549,257.841 447.917,259.097 449.511,260.112 C451.154,261.078 453.328,262.141 454.343,262.431 C455.406,262.769 457.145,263.493 458.208,264.025 C463.474,266.682 469.272,269.774 469.755,270.161 C470.045,270.403 471.833,271.369 473.765,272.335 C475.65,273.302 478.259,274.848 479.515,275.814 C481.109,277.07 482.269,277.553 483.525,277.553 C484.588,277.553 485.941,278.036 487.197,278.858 C488.26,279.583 489.951,280.549 490.965,281.032 C491.98,281.515 494.202,282.819 495.845,284.027 C497.536,285.187 499.179,286.153 499.469,286.153 C499.759,286.153 500,286.395 500,286.636 C500,286.926 499.759,287.12 499.469,287.12 C499.13,287.12 497.439,288.569 495.7,290.405 C493.961,292.192 491.883,293.98 491.158,294.367 C490.386,294.753 489.226,295.72 488.55,296.541 C487.873,297.314 485.168,300.309 482.51,303.208 L477.679,308.378 L477.582,312.823 C477.437,316.93 477.341,317.316 476.133,318.379 C475.408,319.007 474.441,319.491 473.958,319.491 C473.475,319.491 472.799,319.78 472.509,320.167 C472.171,320.553 470.528,321.036 468.692,321.23 L465.455,321.568 L460.237,326.786 L455.019,332.052 L450.236,332.052 C444.631,332.052 443.955,332.439 443.955,335.724 L443.955,337.85 L440.814,337.85 C437.964,337.85 437.578,337.947 437.143,338.961 L436.66,340.073 L426.32,339.879 C417.672,339.734 415.739,339.831 414.628,340.459 C412.985,341.329 408.25,342.682 406.656,342.682 C406.028,342.682 404.675,343.116 403.612,343.648 C402.549,344.179 401.1,344.614 400.375,344.614 C399.65,344.614 398.926,344.856 398.781,345.097 C398.249,345.967 401.535,349.784 403.564,350.653 C405.69,351.62 406.27,351.233 406.269,348.817 L406.269,347.465 L411.246,347.61 L416.174,347.754 L416.174,349.929 C416.174,352.103 416.174,352.103 417.768,351.958 C418.831,351.91 419.411,352.103 419.653,352.634 C419.798,353.021 420.426,353.6 421.054,353.842 C422.793,354.47 422.6,356.403 420.667,357.369 C418.831,358.287 418.155,358.336 416.899,357.563 C416.126,357.079 415.739,357.079 414.966,357.563 C413.807,358.287 379.696,358.432 378.972,357.707 C378.682,357.466 377.957,357.176 377.281,357.079 C376.459,356.983 376.024,356.596 375.928,355.823 C375.686,354.277 376.701,353.166 378.054,353.504 C378.778,353.697 379.455,353.504 380.035,352.876 C380.566,352.344 381.967,351.861 383.513,351.668 C384.963,351.475 386.557,350.992 387.137,350.605 C387.668,350.219 388.538,349.929 389.021,349.929 C389.553,349.929 390.809,349.011 391.823,347.899 C393.321,346.208 393.563,345.725 393.128,344.952 C392.886,344.421 392.79,343.165 392.935,342.15 C393.176,340.652 393.08,340.314 392.403,340.121 C391.92,339.976 387.717,339.879 382.982,339.831 L374.478,339.734 L372.787,341.184 C371.869,342.053 370.565,342.682 369.889,342.682 C367.908,342.682 366.168,343.696 366.168,344.807 C366.12,346.305 365.009,347.513 363.608,347.513 C362.931,347.513 362.303,347.754 362.207,348.093 C362.11,348.383 361.192,348.624 360.177,348.576 C358.969,348.528 357.906,348.866 357.085,349.446 C356.022,350.315 355.152,350.412 349.21,350.412 C345.296,350.412 342.446,350.219 342.252,349.929 C341.673,349.011 340.078,349.446 339.595,350.653 C339.064,352.006 340.706,351.861 324.279,351.91 L315.244,351.91 L313.891,350.315 L312.587,348.721 L312.297,354.035 L300.219,353.987 C293.6,353.987 286.401,353.697 284.275,353.359 C282.149,353.069 277.414,352.683 273.742,352.538 C267.751,352.296 267.026,352.151 266.398,351.233 C265.77,350.364 265.094,350.219 260.504,350.025 C255.431,349.832 255.237,349.832 253.933,351.088 C253.208,351.765 252.339,352.344 252.049,352.344 C251.614,352.344 249.923,351.571 246.589,349.784 C243.062,347.899 241.806,347.513 239.342,347.513 C237.458,347.513 236.202,347.223 235.332,346.643 C234.607,346.16 233.641,345.629 233.206,345.436 C232.675,345.242 232.336,344.469 232.24,343.068 L232.095,340.991 L225.331,340.846 C220.451,340.749 218.422,340.556 217.842,340.073 C216.924,339.203 207.889,339.01 206.923,339.831 C206.536,340.169 205.183,340.266 203.251,340.024 C195.085,339.251 190.737,339.203 189.819,340.024 C189.143,340.652 187.887,340.749 182.282,340.652 L175.566,340.507 L175.083,333.26 L167.353,333.018 C159.526,332.777 156.965,332.245 156.965,330.844 C156.965,330.458 156.675,330.071 156.386,330.023 C156.047,330.023 155.516,329.926 155.226,329.926 C154.936,329.878 154.163,329.491 153.438,329.008 C152.037,328.09 146.143,327.801 145.611,328.67 C145.466,328.912 145.611,329.54 145.95,330.071 C146.433,330.844 146.384,331.569 145.804,333.84 C145.128,336.546 145.032,336.642 143.341,336.787 C142.374,336.884 141.311,337.222 141.021,337.608 C140.538,338.188 140.2,338.188 138.751,337.608 C137.784,337.222 136.528,336.884 135.852,336.884 C135.224,336.884 134.161,336.497 133.436,336.063 C132.228,335.241 128.894,334.613 123.677,334.227 C122.227,334.13 120.826,333.792 120.536,333.502 C120.294,333.26 119.57,333.018 118.941,333.018 C117.347,333.018 115.511,332.052 115.269,331.038 C114.98,329.878 113.24,329.83 112.419,330.989 C112.081,331.424 110.825,332.584 109.665,333.453 C107.878,334.854 107.008,335.193 104.592,335.338 C101.162,335.579 100.485,336.014 100.485,337.753 C100.534,338.478 100.389,339.928 100.195,341.039 C99.906,342.778 100.002,343.165 101.065,344.179 C101.935,345.049 102.321,346.063 102.563,348.189 C102.756,349.784 102.949,351.185 103.046,351.282 C103.143,351.378 104.834,351.426 106.718,351.426 C108.941,351.426 110.776,351.716 111.646,352.151 C112.467,352.586 113.434,352.779 113.869,352.586 C114.642,352.296 114.642,352.248 113.869,351.668 C113.289,351.282 112.999,350.364 112.999,349.252 C112.999,347.803 113.192,347.513 114.013,347.513 C114.545,347.513 115.366,347.32 115.801,347.078 C116.236,346.885 117.637,346.547 118.893,346.402 C120.584,346.16 121.357,346.257 121.937,346.837 C122.807,347.706 122.903,350.943 122.082,351.765 C121.647,352.2 121.841,352.586 122.903,353.407 C123.677,354.036 124.739,354.615 125.271,354.76 C126.865,355.195 126.769,356.5 125.029,357.369 C123.29,358.239 121.695,358.384 121.695,357.659 C121.695,357.418 121.164,357.176 120.536,357.176 C119.859,357.176 119.183,357.418 119.038,357.659 C118.652,358.287 83.913,358.336 83.285,357.707 C82.995,357.466 82.271,357.176 81.594,357.079 C79.662,356.838 80,355.147 82.029,354.712 C82.947,354.518 83.865,354.036 84.107,353.6 C84.348,353.166 84.976,352.828 85.459,352.828 C85.991,352.828 86.619,352.393 86.909,351.91 C87.247,351.185 88.02,350.895 89.663,350.798 C91.885,350.653 91.934,350.605 92.465,348.624 C92.707,347.513 93.48,346.063 94.108,345.387 C95.074,344.372 95.171,343.841 94.978,341.618 C94.881,340.217 94.639,336.207 94.494,332.68 C94.349,329.202 94.108,326.11 93.914,325.819 C93.721,325.433 86.716,325.288 71.786,325.288 C50.818,325.288 49.9,325.337 48.499,326.254 C47.194,327.124 46.228,327.221 39.512,327.221 C31.637,327.221 30.622,326.979 30.284,325.047 C30.139,324.129 29.704,324.08 24.244,323.935 C17.481,323.79 17.819,323.984 16.852,319.249 C16.514,317.655 15.838,315.674 15.355,314.852 C14.388,313.258 7.045,285.429 5.885,278.906 C5.692,277.988 5.209,276.829 4.774,276.345 C3.856,275.427 3.228,271.466 3.131,266.344 C3.035,263.011 2.6,261.03 1.826,261.03 C1.585,261.03 1.392,259.194 1.392,256.971 C1.392,253.347 1.488,252.864 2.455,252.236 C3.373,251.608 3.518,251.028 3.711,246.004 C3.953,240.302 4.146,239.771 6.127,239.771 C7.721,239.771 6.996,238.95 5.16,238.66 C3.904,238.515 1.102,237.597 0.039,237.065 C-0.058,237.017 0.039,236.437 0.184,235.761 C0.57,234.408 2.213,233.49 4.436,233.49 C5.933,233.49 7.19,232.814 7.189,231.944 C7.19,231.751 6.416,231.461 5.45,231.268 C3.953,230.978 3.759,230.784 3.904,229.673 C4.049,228.466 4.194,228.417 6.948,228.32 C13.76,228.079 19.558,227.548 20.09,227.113 C20.428,226.823 21.104,226.774 21.539,226.968 C22.022,227.161 24.824,227.499 27.723,227.741 C30.67,227.934 33.859,228.272 34.874,228.466 C36.855,228.804 39.077,227.741 39.077,226.484 C39.077,226.098 39.512,225.76 39.995,225.76 C40.527,225.76 41.01,225.518 41.107,225.228 C41.203,224.938 42.508,224.697 44.247,224.697 C46.324,224.697 47.291,224.503 47.484,224.02 C47.774,223.296 47.533,223.103 45.841,222.716 C44.247,222.329 35.309,221.073 31.443,220.687 C25.839,220.155 26.274,221.073 26.419,210.009 C26.515,204.743 26.66,200.249 26.805,200.105 C26.95,199.815 28.931,199.525 36.903,198.51 C39.464,198.172 45.31,197.302 46.711,196.964 C47.387,196.819 47.774,196.384 47.774,195.804 C47.774,194.742 47.822,194.742 51.736,194.838 C54.876,194.935 56.954,193.775 57.968,191.408 C58.693,189.62 59.369,189.62 60.577,191.456 L61.544,192.857 L66.472,192.761 C69.177,192.712 71.641,192.423 71.883,192.181 C72.125,191.891 72.414,191.166 72.511,190.49 C72.608,189.62 73.236,188.992 74.734,188.267 C77.971,186.722 79.324,184.644 81.304,178.17 C82.319,174.981 83.527,171.309 84.01,169.956 C84.493,168.652 85.17,166.671 85.508,165.608 C85.798,164.545 86.232,163.192 86.474,162.564 C86.716,161.936 86.909,160.68 86.909,159.762 C86.909,158.119 87.73,155.848 88.938,154.109 C89.47,153.384 89.421,153.143 88.745,152.756 C88.02,152.37 87.875,151.597 87.875,148.311 C87.875,145.847 88.117,144.06 88.455,143.721 C88.841,143.335 91.644,143.142 97.828,143.142 C103.384,143.142 106.766,142.948 106.96,142.658 C107.153,142.32 111.163,142.175 118.217,142.175 C124.256,142.224 130.102,142.079 131.262,141.885 L132.11,141.816 z M403.969,339.958 C402.411,340.029 403.093,339.985 401.921,340.073 C397.525,340.459 396.703,341.377 400.133,342.102 C401.245,342.391 402.501,342.44 402.887,342.343 C403.274,342.198 404.144,341.957 404.82,341.812 C405.496,341.715 406.318,341.377 406.656,341.087 C408.099,339.766 404.405,339.985 403.969,339.958 z M108.711,322.263 L107.587,322.293 C104.254,322.438 103.674,322.631 102.37,323.839 C101.21,324.901 100.92,325.578 100.92,327.124 C100.92,328.235 101.162,329.202 101.548,329.298 C103.046,329.926 104.592,329.491 108.167,327.366 C109.551,326.511 115.579,322.942 110.523,322.347 C109.922,322.276 109.315,322.29 108.711,322.263 z" fill="#000000"/>
  </g>
</svg>
