<?xml version="1.0" encoding="UTF-8"?>
<!DOCTYPE svg PUBLIC "-//W3C//DTD SVG 1.1//EN" "http://www.w3.org/Graphics/SVG/1.1/DTD/svg11.dtd">
<svg version="1.1" xmlns="http://www.w3.org/2000/svg" xmlns:xlink="http://www.w3.org/1999/xlink" x="0" y="0" width="500" height="500" viewBox="0, 0, 500, 500">
  <g id="layer102">
    <path d="M80.419,124.163 C76.26,124.163 75.166,124.601 73.634,126.899 C71.992,129.307 71.117,129.635 64.77,129.635 C57.875,129.635 57.766,129.635 56.233,133.356 C55.358,135.435 54.045,137.296 53.279,137.515 C52.185,137.953 51.856,142.22 51.856,155.243 C51.856,170.565 52.075,172.644 53.717,173.519 C54.811,174.176 55.686,175.49 55.686,176.474 C55.686,180.305 57.984,181.071 69.476,181.07 C75.713,181.071 80.966,181.399 81.294,181.946 C81.514,182.383 81.185,184.572 80.529,186.871 C79.325,190.592 78.887,190.92 75.166,190.92 C71.774,190.92 71.007,191.358 71.007,193.108 C71.007,195.954 69.256,195.954 67.506,193.108 C66.74,191.905 64.988,190.92 63.675,190.92 C62.362,190.92 61.049,190.482 60.72,189.935 C59.626,188.184 51.965,187.855 48.135,189.387 C46.166,190.263 43.648,190.92 42.554,190.92 C41.459,190.92 39.927,192.014 39.052,193.328 C37.411,195.735 37.411,195.735 35.003,190.482 C33.799,187.528 32.705,184.572 32.705,183.697 C32.705,181.727 30.844,180.852 26.466,180.523 C23.183,180.305 22.527,180.742 21.542,183.368 C20.447,186.652 18.697,187.199 11.692,186.761 C9.176,186.542 8.3,187.308 6.44,191.139 C5.235,193.656 4.251,196.611 4.251,197.705 C4.251,198.69 3.266,200.113 2.062,200.769 C-0.127,201.863 -0.127,202.848 0.093,221.89 C0.421,241.699 0.421,241.808 2.938,242.136 C4.579,242.356 6.002,243.888 7.206,246.514 C8.191,248.702 9.504,251.767 10.16,253.19 C10.818,254.722 13.553,257.458 16.289,259.427 C21.87,263.367 30.187,275.405 29.64,278.579 C29.422,279.783 31.172,283.066 33.799,286.349 C36.206,289.413 38.505,293.243 38.942,294.775 C39.271,296.308 39.927,298.168 40.365,298.715 C40.803,299.372 41.459,301.014 41.788,302.546 C42.335,304.406 44.414,306.266 48.026,308.345 C51.309,310.096 54.483,312.942 55.795,315.131 C57.109,317.21 58.531,318.961 58.969,318.961 C59.407,318.961 60.173,320.165 60.501,321.697 C60.939,323.229 62.362,324.98 63.894,325.527 C67.068,326.731 79.762,339.316 79.762,341.396 C79.762,342.162 81.185,343.366 83.046,344.131 C84.797,344.898 86.329,345.882 86.329,346.429 C86.329,346.977 87.095,347.415 87.971,347.414 C88.845,347.415 92.457,350.26 95.85,353.653 C101.65,359.562 104.167,361.423 112.046,365.471 C113.797,366.457 117.518,369.192 120.254,371.491 C123.537,374.446 125.726,375.649 126.82,375.102 C129.775,373.679 147.285,373.461 149.802,374.774 C151.553,375.759 152.538,375.759 153.413,374.884 C154.946,373.351 173.331,373.351 176.176,374.884 C177.818,375.649 178.803,375.649 179.897,374.774 C180.883,373.899 184.931,373.679 192.154,374.008 C198.064,374.337 203.645,374.555 204.52,374.555 C209.336,374.446 265.805,373.57 268.541,373.57 C270.292,373.461 276.202,373.461 281.673,373.57 C287.036,373.57 293.274,373.461 295.353,373.461 L334.204,373.461 C339.019,373.461 345.147,373.461 347.883,373.351 C350.619,373.351 355.215,373.351 358.279,373.461 C361.234,373.679 371.631,373.789 381.261,373.789 C400.522,373.899 403.258,374.117 406.213,375.321 C407.307,375.759 409.277,375.649 410.7,374.993 C413.655,373.679 430.837,373.57 431.711,374.884 C432.915,376.853 436.089,375.759 441.451,371.71 C444.407,369.412 448.674,366.895 450.753,366.129 C452.833,365.253 455.022,364.159 455.569,363.611 C456.225,363.174 457.319,362.736 458.195,362.735 C459.071,362.736 461.588,361.204 463.886,359.452 C466.185,357.593 471.656,354.309 475.924,352.011 C482.053,348.838 484.351,346.977 486.211,343.693 C487.415,341.286 491.136,336.909 494.309,333.844 C497.374,330.89 500,327.497 500,326.293 C500,325.199 498.797,321.697 497.264,318.742 C495.732,315.788 494.309,311.738 493.981,309.878 C492.34,299.372 491.246,297.074 487.634,297.074 C483.256,297.074 477.128,294.557 471.875,290.507 C468.264,287.771 464.762,286.13 461.369,285.692 C458.524,285.255 452.942,283.175 448.784,281.205 C444.734,279.126 440.248,277.375 438.606,277.375 C437.074,277.375 435.432,276.937 434.776,276.39 C434.229,275.843 432.587,275.186 431.055,274.968 C427.553,274.53 427.006,271.356 429.523,266.65 C431.931,262.163 430.727,259.427 426.021,258.989 C424.27,258.88 421.862,258.224 420.659,257.676 C412.669,254.065 401.288,251.001 398.334,251.657 C395.598,252.205 395.16,252.752 395.378,255.816 C395.488,259.099 395.269,259.318 391.658,259.209 C389.579,259.099 384.654,257.458 380.714,255.488 C376.774,253.627 372.287,251.986 370.646,251.986 C369.004,252.095 367.363,251.548 367.034,251.001 C366.596,250.454 364.955,250.016 363.095,250.016 C361.344,250.016 356.747,248.484 353.026,246.733 C349.196,244.872 345.038,243.45 343.834,243.45 C341.535,243.45 336.283,236.446 335.079,231.63 C334.751,229.989 332.78,226.706 330.701,224.408 C328.732,222 327.09,219.593 327.09,219.154 C327.09,218.607 325.558,215.981 323.807,213.354 C321.18,209.634 319.757,208.539 317.022,208.211 C314.395,207.992 313.082,207.117 312.097,205.037 C311.331,203.396 309.033,201.536 307.172,200.769 C305.202,200.113 302.686,199.018 301.701,198.471 C300.606,197.924 295.134,197.486 289.553,197.486 C283.862,197.486 278.828,196.939 278.172,196.282 C277.078,195.188 245.122,195.297 241.729,196.391 C240.854,196.72 239.759,195.954 238.993,194.422 C238.118,192.343 237.352,192.014 234.506,192.561 C232.317,192.89 230.676,192.671 229.801,191.686 C229.144,190.811 227.393,190.373 225.86,190.701 C223.344,191.139 219.841,189.497 219.841,187.746 C219.841,186.214 231.88,184.354 241.51,184.354 L251.579,184.354 L251.579,181.18 C251.579,177.24 253.658,175.708 255.409,178.116 C256.831,180.195 260.881,180.633 261.975,178.882 C262.303,178.335 265.258,177.788 268.322,177.787 C272.262,177.788 274.889,177.131 276.749,175.599 C279.376,173.519 281.564,173.41 330.045,173.41 C363.095,173.41 380.714,173.081 380.714,172.316 C380.714,171.769 379.839,171.221 378.854,171.221 C377.321,171.221 377.431,170.893 379.401,169.033 C382.137,166.515 382.465,162.794 380.386,159.949 C379.182,158.198 377.759,158.198 363.204,159.183 C354.449,159.84 332.343,160.168 313.958,159.949 C285.176,159.731 280.032,159.402 276.858,157.76 C274.779,156.775 270.73,155.9 267.885,155.9 C265.039,155.9 262.303,155.463 261.975,154.806 C260.99,153.164 256.284,153.492 255.518,155.353 C255.08,156.557 253.986,156.775 251.359,156.338 C249.39,155.9 247.311,155.243 246.763,154.696 C246.216,154.149 241.401,154.039 236.148,154.477 C227.94,155.025 226.08,154.806 223.562,153.164 C221.264,151.632 218.638,151.304 212.619,151.413 C208.023,151.523 204.411,151.194 203.973,150.538 C203.098,149.006 199.049,149.006 199.049,150.428 C199.049,152.179 193.905,152.836 191.279,151.413 C188.433,149.881 182.414,148.24 178.146,147.692 C176.505,147.583 174.206,147.035 172.893,146.598 C171.58,146.16 168.187,146.488 165.342,147.145 C156.915,149.224 153.413,146.926 151.553,138.28 C151.006,135.983 150.13,135.217 146.847,134.779 C144.549,134.341 139.952,133.247 136.669,132.261 C133.386,131.276 126.711,130.402 121.786,130.401 C116.971,130.292 112.265,129.635 111.39,128.978 C110.514,128.322 105.371,127.446 99.789,127.118 C94.317,126.79 88.736,126.024 87.533,125.367 C86.329,124.71 83.155,124.163 80.419,124.163 z M313.52,359.452 C315.709,359.453 316.146,360 316.146,362.517 C316.146,364.268 315.818,366.019 315.38,366.347 C314.286,367.442 312.316,367.223 311.003,365.909 C310.127,365.034 309.143,365.034 307.391,366.018 C304.436,367.551 303.671,366.895 304.655,363.83 C305.422,361.314 309.252,359.453 313.52,359.452 z M255.299,360.547 C260.334,360.547 261.428,360.876 261.975,362.736 C262.303,363.94 262.303,365.362 261.975,366.019 C261.099,367.442 260.661,367.442 258.036,365.909 C256.394,365.034 255.409,365.144 254.095,366.129 C252.673,367.333 252.126,367.223 250.922,365.471 C248.076,361.641 248.952,360.547 255.299,360.547 z M407.417,360.547 C413.545,360.547 416.281,362.188 415.078,365.253 C414.64,366.566 412.998,367.004 408.839,366.894 C403.039,366.785 401.507,365.909 401.507,362.517 C401.507,360.876 402.492,360.547 407.417,360.547 z M236.546,360.777 C236.766,361.031 237.122,361.214 237.206,361.54 C237.422,362.375 237.092,363.55 236.914,364.377 C236.038,367.88 232.646,367.77 232.099,364.159 C231.88,362.517 232.537,361.641 234.069,361.094 C235.57,360.681 234.748,360.817 236.546,360.777 z M145.315,360.547 L152.428,360.547 C159.761,360.547 160.636,361.094 158.557,364.815 C157.791,366.347 156.259,366.785 151.772,366.676 C146.3,366.566 145.971,366.347 145.644,363.502 L145.315,360.547 z M178.365,360.547 C185.041,360.547 185.15,360.656 184.166,364.487 C183.618,366.457 182.852,366.785 177.927,366.566 C173.55,366.457 172.237,365.909 171.58,364.268 C170.486,360.985 171.361,360.547 178.365,360.547 z M330.871,360.073 C332.813,360.705 331.974,360.293 333.437,361.204 C336.501,363.283 336.501,364.268 333.328,365.691 C330.264,367.113 329.279,366.566 329.279,363.283 C329.359,361.765 329.136,360.614 330.871,360.073 z M383.376,359.773 C384.862,361.048 384.987,361.336 385.091,363.393 C385.091,364.924 384.435,366.019 383.56,366.019 C381.808,366.019 380.604,362.408 381.808,360.547 C382.533,359.7 382.05,360.024 383.376,359.773 z M456.516,346.535 L456.992,346.539 C460.056,347.086 459.728,353.324 456.554,353.762 C455.241,353.981 453.599,354.857 452.833,355.732 C451.301,357.593 449.221,357.155 448.784,354.857 C448.749,351.69 453.697,347.468 456.516,346.535 z M107.158,342.114 C109.501,343.204 108.52,342.559 110.186,343.913 C112.265,345.773 113.906,352.011 112.922,354.856 C112.156,356.826 110.405,356.498 107.778,353.762 C106.465,352.339 104.495,350.807 103.401,350.15 C101.65,349.165 101.65,348.838 103.292,345.554 C104.222,343.91 105.015,342.207 107.158,342.114 z M474.192,340.488 C474.642,340.583 475.163,340.514 475.543,340.774 C476.775,341.617 475.192,343.28 474.611,343.913 C472.969,345.555 471.109,345.007 470.671,342.819 C470.452,341.724 471.328,340.958 473.189,340.63 L474.192,340.488 z M87.66,325.021 C91.041,326.17 96.136,330.469 97.273,333.954 C97.273,335.705 95.302,338.003 92.895,338.988 C90.269,339.973 89.94,339.863 88.08,337.018 C87.095,335.486 85.562,334.282 84.687,334.282 C83.812,334.282 83.046,334.064 83.046,333.735 C83.046,332.203 86.219,325.746 87.313,325.09 L87.66,325.021 z M69.147,306.923 C70.898,306.923 79.762,315.788 79.762,317.538 C79.762,318.195 78.121,319.509 76.151,320.493 C71.664,322.682 71.117,322.682 70.241,320.383 C69.913,319.289 68.381,317.429 66.849,316.116 C64.222,313.927 64.222,313.817 65.973,310.425 C66.958,308.455 68.381,306.923 69.147,306.923 z M52.732,298.168 C54.701,298.168 57,300.794 56.015,301.889 C55.577,302.327 54.483,302.436 53.607,302.327 C51.418,301.889 50.652,298.168 52.732,298.168 z M458.258,293.469 C459.757,293.714 461.204,293.965 462.573,294.666 C467.388,296.636 468.483,298.715 465.2,299.591 C459.29,301.123 454.036,299.81 454.803,296.964 C455.418,295.08 456.032,293.674 458.258,293.469 z M364.1,259.053 C365.701,259.135 364.982,259.023 366.269,259.318 C367.91,259.647 370.864,260.303 372.725,260.631 C377.759,261.398 377.212,263.695 371.631,265.666 C364.298,268.292 359.702,266.322 362,261.397 C362.494,260.387 362.91,259.379 364.1,259.053 z" fill="#000000"/>
    <path d="M37.629,261.616 C39.927,256.144 39.489,251.658 36.535,251.658 C33.58,251.658 31.719,261.507 34.237,264.133 C35.769,265.556 36.097,265.337 37.629,261.616 z" fill="#FCFCFC"/>
  </g>
</svg>
