<?xml version="1.0" encoding="UTF-8"?>
<!DOCTYPE svg PUBLIC "-//W3C//DTD SVG 1.1//EN" "http://www.w3.org/Graphics/SVG/1.1/DTD/svg11.dtd">
<svg version="1.1" xmlns="http://www.w3.org/2000/svg" xmlns:xlink="http://www.w3.org/1999/xlink" x="0" y="0" width="500" height="500" viewBox="0, 0, 500, 500">
  <g id="Layer_1">
    <g>
      <path d="M64.309,196.405 C92.943,200.622 113.455,198.643 137.039,195.728 C155.677,193.437 177.283,192.968 181.656,200.778 C184.363,205.619 187.279,207.65 186.706,213.637 C186.238,218.687 187.227,220.561 185.821,224.205 C184.676,227.277 184.259,224.986 183.374,228.214 C182.385,231.911 182.073,232.952 185.613,239.512 C189.778,247.165 196.962,255.911 200.659,259.243 C201.492,259.972 202.741,259.139 202.377,258.098 C199.878,250.861 193.318,231.078 197.587,213.273 C199.93,203.641 208.885,202.496 210.446,190.522 C212.008,178.652 177.127,178.183 170.723,178.183 C164.32,178.183 127.668,183.545 96.952,184.222 C66.235,184.899 49.055,182.504 2.043,172.092 C-5.037,170.53 7.822,189.428 17.141,190.99 C28.543,192.916 45.411,193.593 64.309,196.405 z" fill="#000000"/>
      <path d="M127.148,214.47 C133.031,213.585 139.018,212.544 145.109,211.346 C155.209,209.42 164.892,207.285 174.055,204.995 C174.68,204.839 175.096,204.162 174.94,203.537 C174.68,202.6 174.159,201.455 173.274,200.413 C171.036,197.81 167.235,196.769 163.383,197.654 C157.604,198.279 151.617,198.851 145.525,199.32 C131.833,200.309 118.818,200.726 106.479,200.622 C106.792,202.548 107.625,205.776 110.071,208.691 C116.111,215.876 126.315,214.574 127.148,214.47 z" fill="#000000"/>
      <path d="M130.584,232.848 C136.623,231.13 142.818,229.308 149.118,227.277 C160.884,223.477 172.025,219.468 182.489,215.355 C182.697,214.886 183.478,212.908 182.645,210.617 C181.969,208.639 180.511,207.65 180.042,207.337 C171.973,209.576 163.174,211.659 153.647,213.429 C140.58,215.824 127.096,217.125 116.163,217.75 C115.746,219.156 116.631,221.967 117.724,224.986 C119.547,229.62 124.649,232.744 130.584,232.848 z" fill="#000000"/>
      <path d="M140.736,247.685 C144.328,246.956 146.254,246.384 150.315,245.082 C162.445,241.126 170.879,235.191 177.804,230.088 C178.324,228.579 179.99,226.184 179.366,223.268 C179.209,222.592 179.053,221.967 178.845,221.394 C169.161,225.663 158.437,229.828 146.567,233.525 C140.58,235.399 134.801,237.013 129.23,238.366 C129.178,238.939 128.866,242.323 131.313,245.134 C134.176,248.466 140.319,247.737 140.736,247.685 z" fill="#000000"/>
      <path d="M145.109,264.241 C147.191,265.23 150.263,264.605 151.408,264.449 C154.74,262.679 157.135,261.221 160.623,259.087 C168.693,254.141 175.773,248.987 181.969,243.989 C182.125,243.52 182.75,241.438 181.604,239.147 C180.563,237.065 178.793,236.232 178.324,236.023 C172.598,239.616 165.934,243.312 158.385,246.8 C151.773,249.82 144.484,251.694 138.757,253.568 C138.549,258.046 141.673,262.575 145.109,264.241 z" fill="#000000"/>
      <path d="M160.519,278.922 C163.122,279.495 165.361,279.131 166.767,278.766 C171.296,275.018 176.138,270.749 181.084,265.334 C184.572,261.534 186.602,257.785 189.257,254.245 C189.049,253.256 189.361,249.82 186.29,247.841 C185.509,247.321 184.728,247.008 184.051,246.8 C180.459,250.445 176.138,254.349 171.036,258.254 C164.32,263.356 157.864,267.156 152.189,270.02 C151.356,270.436 151.096,271.477 151.565,272.258 C152.866,274.289 155.73,277.829 160.519,278.922 z" fill="#000000"/>
      <path d="M170.515,283.296 C172.025,284.024 174.42,284.909 176.086,285.274 C178.376,285.742 180.875,286.471 181.448,286.211 C182.697,285.378 184.155,282.306 185.457,281.265 C192.797,275.226 195.765,268.458 197.795,262.991 C197.483,262.315 196.91,261.378 196.077,260.44 C194.463,258.774 192.693,258.15 191.756,257.889 C188.424,263.304 184.884,267.313 179.574,273.3 C177.491,275.642 173.014,279.131 170.307,281.473 C169.682,281.994 169.786,282.931 170.515,283.296 z" fill="#000000"/>
      <path d="M191.86,291.313 C194.463,291.469 196.234,289.855 196.546,289.595 C196.962,286.263 197.9,281.942 200.034,277.256 C201.127,274.809 202.325,272.727 203.522,271.009 C203.522,270.853 203.73,269.135 202.481,268.041 C201.856,267.521 201.127,267.365 200.815,267.365 C199.722,269.083 199.149,271.321 198.004,273.091 C194.463,278.454 190.351,282.983 186.706,287.669 C187.643,289.751 189.622,291.157 191.86,291.313 z" fill="#000000"/>
      <path d="M36.612,213.741 C54.73,213.22 62.539,212.075 84.613,208.431 C88.414,207.806 94.245,207.65 101.377,207.39 C102.158,207.337 102.731,206.713 102.679,205.932 C102.575,205.151 102.314,204.214 101.533,203.381 C100.284,201.975 98.618,201.819 98.306,201.819 C73.628,199.789 48.899,197.758 24.222,195.728 C21.983,195.676 17.61,195.988 13.237,198.695 C12.039,199.476 10.998,200.257 10.165,201.09 C9.697,201.507 9.644,202.235 9.957,202.756 C10.894,204.318 12.195,206.14 13.914,207.962 C16.673,210.826 19.484,212.596 21.567,213.637 C24.846,213.741 30.105,213.949 36.612,213.741 z" fill="#000000"/>
      <path d="M88.31,220.249 C95.13,218.114 101.637,215.928 107.989,213.585 C107.989,213.22 107.937,212.492 107.468,211.763 C106.739,210.565 105.542,210.253 105.23,210.201 C85.186,214.21 62.904,216.865 38.747,217.073 C34.218,217.125 29.74,217.073 25.315,216.969 C24.274,217.594 21.098,219.676 20.786,222.8 C20.317,227.069 25.055,232.431 33.02,233.472 C50.2,230.609 68.734,226.34 88.31,220.249 z" fill="#000000"/>
      <path d="M112.102,225.871 C112.414,225.507 113.768,223.789 113.56,221.29 C113.507,220.613 113.351,220.041 113.143,219.572 C112.727,218.583 111.633,218.166 110.644,218.479 C99.399,221.915 92.631,225.195 77.377,228.839 C62.591,232.379 48.951,235.138 36.664,236.752 C36.248,237.065 30.261,239.98 30.677,244.666 C31.146,249.664 38.643,255.443 46.973,254.141 C64.83,246.54 82.739,238.783 100.7,230.817 C104.501,229.255 108.301,227.537 112.102,225.871 z" fill="#000000"/>
      <path d="M113.403,241.23 C115.382,239.98 117.048,238.835 118.505,237.846 C119.807,236.961 120.171,235.138 119.286,233.837 C118.87,233.212 118.349,232.587 117.724,231.963 C116.631,230.921 115.486,230.245 114.549,229.828 C113.612,229.412 112.518,229.516 111.685,230.141 C106.063,234.149 101.169,235.347 97.681,237.065 C83.624,244.041 75.919,244.874 59.467,253.308 C55.25,255.442 51.814,257.421 49.367,258.879 C48.639,259.347 48.118,260.076 47.962,260.961 C47.702,262.627 48.118,263.668 48.274,264.085 C49.576,267.104 54.157,268.822 59.363,267.521 C59.572,267.469 59.728,267.365 59.936,267.313 C73.056,262.523 78.886,258.827 85.707,255.859 C92.995,252.631 103.408,247.581 113.403,241.23 z" fill="#000000"/>
      <path d="M120.171,257.213 C123.764,255.651 128.241,254.037 129.126,250.393 C129.647,248.154 128.97,244.926 126.783,242.635 C125.742,241.594 124.649,241.021 123.92,240.657 C122.618,241.23 120.484,242.167 117.933,243.364 C102.783,250.549 96.848,255.286 83.832,261.69 C80.709,263.2 76.023,265.438 70.036,267.833 C68.734,269.135 67.121,271.061 65.767,273.664 C64.049,276.892 63.32,279.859 63.06,281.89 C64.361,282.671 66.34,283.66 68.891,284.233 C72.743,285.066 75.971,284.545 77.741,284.128 C91.746,275.851 91.85,275.747 91.85,275.747 C116.631,260.909 111.165,261.169 120.171,257.213 z" fill="#000000"/>
      <path d="M125.378,276.111 C130.167,271.79 134.02,269.083 137.196,266.896 C137.82,266.48 138.081,265.699 137.82,265.022 C137.352,263.616 137.196,261.534 136.311,259.868 C135.425,258.254 134.488,256.848 133.603,255.755 C133.031,255.026 131.989,254.922 131.313,255.495 C129.49,257.004 126.991,258.983 123.972,261.169 C111.789,270.176 105.23,272.883 93.88,280.849 C90.6,283.139 85.967,286.575 80.5,291.157 C79.876,291.677 79.719,292.615 80.188,293.291 C81.281,294.957 83.156,297.144 86.071,298.706 C90.704,301.153 95.338,300.424 97.108,300.163 C107.729,298.289 111.425,288.71 125.378,276.111 z" fill="#000000"/>
      <path d="M146.879,274.393 C147.296,272.883 146.931,271.321 145.838,270.228 C144.328,268.666 142.246,269.031 142.089,269.083 C140.423,270.957 137.664,273.872 134.02,277.152 C126.106,284.285 121.421,286.419 113.976,292.667 C111.217,294.957 106.896,298.029 102.47,302.819 C101.794,303.6 101.794,304.745 102.522,305.526 C103.512,306.567 104.969,307.817 106.687,308.545 C109.759,309.899 112.57,309.535 113.612,309.326 C117.204,306.931 121.056,304.12 124.909,300.736 C135.165,291.729 142.194,282.202 146.879,274.393 z" fill="#000000"/>
      <path d="M155.313,289.907 C156.51,288.398 157.864,286.784 158.853,285.69 C159.322,285.17 159.166,284.389 158.593,284.024 C157.812,283.608 156.875,283.191 155.834,282.827 C153.543,282.046 151.513,281.89 150.107,281.89 C144.64,286.055 138.809,290.897 132.927,296.571 C129.386,300.007 126.106,303.443 123.139,306.723 C124.076,307.921 126.315,310.368 130.011,311.825 C132.77,312.867 135.217,312.919 136.675,312.867 C140.007,310.524 142.35,308.181 143.755,306.567 C148.701,301.205 147.035,300.528 155.313,289.907 z" fill="#000000"/>
      <path d="M170.307,288.137 C167.652,286.68 165.153,286.784 164.007,286.888 C160.936,290.844 157.864,295.061 154.74,299.643 C150.419,306.046 146.671,312.242 143.391,318.125 C144.692,318.593 146.306,319.062 148.233,319.218 C152.189,319.635 155.417,318.802 157.343,318.125 C158.645,316.407 159.947,314.585 161.248,312.658 C166.402,305.005 170.307,297.456 173.222,290.532 C172.702,289.855 171.712,288.918 170.307,288.137 z" fill="#000000"/>
      <path d="M175.253,323.591 C177.023,320.884 178.793,319.218 180.563,316.042 C183.999,309.951 186.914,304.016 189.361,298.445 C189.622,297.821 189.518,297.092 189.049,296.571 C188.164,295.53 186.758,294.228 184.832,293.187 C183.166,292.302 181.604,291.834 180.355,291.573 C179.522,291.417 178.637,291.886 178.324,292.719 C176.971,296.311 175.669,299.174 174.628,301.101 C170.827,308.545 167.756,311.669 164.32,319.582 C163.591,321.301 163.018,322.81 162.602,324.008 C162.289,324.893 162.706,325.83 163.539,326.194 C163.539,326.194 163.539,326.194 163.539,326.194 C167.808,328.069 172.285,325.309 174.472,324.164 C174.836,324.06 175.096,323.852 175.253,323.591 z" fill="#000000"/>
      <path d="M196.858,297.456 C196.077,298.445 194.932,299.903 193.63,301.725 C191.912,304.172 186.758,311.669 180.615,328.277 C179.157,332.181 176.398,338.273 174.68,344.364 C174.368,345.509 175.357,346.602 176.502,346.342 C177.856,346.03 179.313,346.03 180.251,345.197 C200.294,326.819 203.887,312.346 204.615,308.129 C204.563,306.984 204.199,303.964 201.908,301.101 C200.034,298.914 197.9,297.873 196.858,297.456 z" fill="#000000"/>
      <path d="M497.931,175.111 C450.919,185.524 433.739,187.918 403.023,187.242 C372.306,186.565 335.707,181.203 329.251,181.203 C322.848,181.203 287.966,181.671 289.528,193.541 C291.09,205.515 300.045,206.661 302.387,216.292 C306.656,234.097 300.097,253.881 297.598,261.117 C297.233,262.158 298.483,262.991 299.316,262.263 C303.012,258.879 310.197,250.184 314.362,242.531 C317.902,235.971 316.965,235.086 316.6,231.234 C316.236,227.433 315.142,228.735 314.153,227.225 C312.019,223.945 313.789,221.707 313.268,216.657 C312.696,210.721 315.611,208.639 318.318,203.797 C322.639,195.988 344.297,196.457 362.935,198.747 C386.519,201.663 407.031,203.693 435.665,199.424 C454.564,196.613 471.432,195.936 482.885,194.062 C492.204,192.448 505.063,173.549 497.931,175.111 z" fill="#000000"/>
      <path d="M354.865,214.366 C361.009,215.511 366.996,216.552 372.827,217.49 C373.66,217.594 383.864,218.895 389.903,211.659 C392.35,208.691 393.183,205.515 393.495,203.589 C381.157,203.693 368.141,203.277 354.449,202.288 C348.358,201.819 342.371,201.298 336.592,200.622 C332.739,199.789 328.939,200.778 326.7,203.381 C325.815,204.422 325.294,205.567 325.034,206.505 C324.878,207.129 325.242,207.806 325.919,207.962 C335.082,210.305 344.766,212.44 354.865,214.366 z" fill="#000000"/>
      <path d="M317.277,213.637 C316.496,215.928 317.277,217.906 317.433,218.375 C327.898,222.487 339.039,226.548 350.805,230.297 C357.104,232.327 363.299,234.149 369.339,235.867 C375.326,235.763 380.376,232.639 382.146,228.006 C383.291,224.986 384.124,222.175 383.708,220.769 C372.775,220.145 359.291,218.843 346.223,216.448 C336.696,214.73 327.898,212.596 319.828,210.357 C319.411,210.669 318.006,211.659 317.277,213.637 z" fill="#000000"/>
      <path d="M368.662,248.154 C371.109,245.343 370.796,241.959 370.744,241.386 C365.174,239.98 359.343,238.418 353.408,236.544 C341.538,232.848 330.813,228.683 321.13,224.414 C320.921,224.986 320.713,225.611 320.609,226.288 C320.036,229.203 321.65,231.546 322.171,233.108 C329.095,238.262 337.581,244.145 349.659,248.102 C353.72,249.455 355.594,249.976 359.239,250.705 C359.655,250.757 365.798,251.486 368.662,248.154 z" fill="#000000"/>
      <path d="M321.65,238.991 C321.182,239.199 319.359,240.032 318.37,242.115 C317.277,244.405 317.902,246.54 318.006,246.956 C324.201,251.954 331.282,257.108 339.351,262.054 C342.839,264.189 345.234,265.647 348.566,267.417 C349.711,267.573 352.783,268.25 354.865,267.208 C358.302,265.542 361.425,261.013 361.217,256.484 C355.49,254.609 348.202,252.735 341.59,249.716 C333.989,246.228 327.377,242.531 321.65,238.991 z" fill="#000000"/>
      <path d="M313.633,250.757 C310.613,252.735 310.873,256.171 310.665,257.161 C313.32,260.701 315.299,264.449 318.839,268.25 C323.785,273.664 328.626,277.933 333.156,281.682 C334.561,282.046 336.8,282.462 339.403,281.838 C344.193,280.744 347.056,277.256 348.358,275.122 C348.826,274.341 348.566,273.3 347.733,272.883 C342.058,270.02 335.603,266.219 328.887,261.117 C323.785,257.213 319.464,253.308 315.871,249.664 C315.247,249.924 314.466,250.236 313.633,250.757 z" fill="#000000"/>
      <path d="M303.949,263.46 C303.064,264.345 302.543,265.282 302.231,266.011 C304.262,271.477 307.229,278.246 314.57,284.285 C315.871,285.326 317.277,288.45 318.578,289.231 C319.203,289.491 321.702,288.762 323.941,288.293 C325.607,287.929 328.002,287.044 329.511,286.315 C330.24,285.951 330.344,285.014 329.772,284.493 C327.065,282.15 322.587,278.662 320.505,276.319 C315.247,270.332 311.706,266.323 308.322,260.909 C307.333,261.117 305.511,261.794 303.949,263.46 z" fill="#000000"/>
      <path d="M299.212,270.384 C298.899,270.436 298.17,270.54 297.546,271.061 C296.296,272.154 296.504,273.872 296.504,274.029 C297.65,275.747 298.899,277.829 299.992,280.276 C302.127,284.961 303.064,289.283 303.481,292.615 C303.793,292.875 305.563,294.541 308.166,294.333 C310.405,294.176 312.383,292.771 313.372,290.688 C309.78,286.003 305.667,281.473 302.075,276.111 C300.878,274.341 300.253,272.102 299.212,270.384 z" fill="#000000"/>
      <path d="M486.686,201.663 C482.365,198.956 477.939,198.695 475.701,198.695 C451.023,200.726 426.294,202.756 401.617,204.786 C401.305,204.786 399.639,204.943 398.389,206.348 C397.608,207.181 397.348,208.17 397.244,208.899 C397.14,209.68 397.764,210.305 398.545,210.357 C405.678,210.617 411.457,210.774 415.309,211.398 C437.435,215.043 445.193,216.188 463.31,216.709 C469.818,216.917 475.128,216.709 478.304,216.552 C480.334,215.511 483.198,213.741 485.957,210.878 C487.727,209.056 488.976,207.233 489.914,205.672 C490.226,205.151 490.174,204.422 489.705,204.006 C488.924,203.277 487.935,202.444 486.686,201.663 z" fill="#000000"/>
      <path d="M474.659,220.041 C470.286,220.145 465.809,220.197 461.228,220.145 C437.019,219.936 414.736,217.229 394.745,213.273 C394.484,213.325 393.287,213.637 392.506,214.834 C392.038,215.563 391.985,216.292 391.985,216.657 C398.285,218.947 404.845,221.186 411.665,223.32 C431.24,229.412 449.774,233.629 466.954,236.596 C474.92,235.555 479.657,230.193 479.189,225.924 C478.876,222.696 475.701,220.665 474.659,220.041 z" fill="#000000"/>
      <path d="M463.31,239.824 C450.971,238.158 437.331,235.399 422.598,231.911 C407.396,228.266 400.628,224.934 389.33,221.55 C388.289,221.238 387.248,221.654 386.831,222.644 C386.623,223.112 386.467,223.737 386.415,224.362 C386.207,226.809 387.56,228.579 387.873,228.943 C391.673,230.661 395.526,232.327 399.326,234.045 C417.34,242.011 435.249,249.768 453.054,257.369 C461.384,258.618 468.881,252.891 469.297,247.894 C469.766,243 463.726,240.084 463.31,239.824 z" fill="#000000"/>
      <path d="M450.607,261.846 C448.212,260.388 444.724,258.462 440.507,256.275 C424.003,247.841 416.35,247.008 402.294,240.032 C398.806,238.314 393.912,237.117 388.289,233.108 C387.456,232.535 386.363,232.379 385.426,232.796 C384.489,233.212 383.343,233.889 382.25,234.93 C381.625,235.555 381.105,236.18 380.688,236.804 C379.803,238.106 380.167,239.928 381.469,240.813 C382.875,241.802 384.593,242.948 386.571,244.197 C396.619,250.549 407.031,255.599 414.268,258.774 C421.036,261.742 426.867,265.438 440.038,270.228 C440.247,270.28 440.403,270.384 440.611,270.436 C445.817,271.79 450.347,270.02 451.7,267 C451.856,266.584 452.273,265.49 452.013,263.876 C451.856,263.043 451.336,262.315 450.607,261.846 z" fill="#000000"/>
      <path d="M429.886,270.905 C423.899,268.51 419.214,266.323 416.09,264.762 C403.075,258.358 397.14,253.568 381.99,246.436 C379.439,245.238 377.304,244.301 376.003,243.729 C375.274,244.041 374.18,244.614 373.139,245.707 C370.953,247.946 370.276,251.225 370.796,253.464 C371.681,257.108 376.211,258.774 379.751,260.284 C388.81,264.189 383.343,263.929 408.073,278.87 C408.073,278.87 408.229,278.974 422.181,287.252 C423.951,287.669 427.179,288.241 431.032,287.356 C433.583,286.784 435.561,285.794 436.863,285.014 C436.55,282.983 435.874,280.016 434.155,276.788 C432.802,274.133 431.188,272.206 429.886,270.905 z" fill="#000000"/>
      <path d="M406.042,283.816 C394.745,275.903 388.133,273.143 375.951,264.137 C372.931,261.898 370.432,259.92 368.61,258.462 C367.881,257.889 366.84,257.993 366.319,258.722 C365.434,259.868 364.497,261.221 363.612,262.835 C362.675,264.501 362.571,266.636 362.102,267.989 C361.842,268.666 362.102,269.447 362.727,269.864 C365.903,272.05 369.755,274.757 374.545,279.078 C388.497,291.729 392.194,301.257 402.762,303.027 C404.584,303.339 409.166,304.016 413.799,301.569 C416.715,300.059 418.589,297.821 419.682,296.155 C420.151,295.478 419.995,294.541 419.37,294.02 C414.008,289.491 409.322,286.055 406.042,283.816 z" fill="#000000"/>
      <path d="M385.998,295.634 C378.554,289.387 373.868,287.252 365.955,280.12 C362.31,276.84 359.551,273.924 357.885,272.05 C357.729,271.998 355.646,271.686 354.137,273.196 C353.043,274.289 352.679,275.851 353.095,277.36 C357.781,285.17 364.809,294.697 375.065,303.652 C378.918,307.036 382.771,309.847 386.363,312.242 C387.404,312.45 390.215,312.814 393.287,311.461 C395.005,310.732 396.463,309.483 397.452,308.441 C398.181,307.712 398.181,306.515 397.504,305.734 C393.079,300.996 388.758,297.925 385.998,295.634 z" fill="#000000"/>
      <path d="M366.996,299.695 C361.113,294.02 355.282,289.126 349.816,285.014 C348.41,285.014 346.379,285.17 344.089,285.951 C343.048,286.315 342.11,286.732 341.329,287.148 C340.705,287.46 340.601,288.293 341.069,288.814 C342.058,289.855 343.412,291.469 344.609,293.031 C352.887,303.652 351.273,304.328 356.115,309.743 C357.573,311.357 359.863,313.7 363.195,316.042 C364.653,316.094 367.1,316.042 369.859,315.001 C373.556,313.595 375.794,311.148 376.731,309.899 C373.816,306.515 370.588,303.131 366.996,299.695 z" fill="#000000"/>
      <path d="M335.915,289.907 C334.822,289.803 332.271,289.751 329.616,291.157 C328.21,291.938 327.273,292.823 326.648,293.552 C329.564,300.476 333.468,308.025 338.622,315.678 C339.924,317.604 341.225,319.426 342.527,321.144 C344.453,321.821 347.681,322.654 351.638,322.238 C353.564,322.029 355.178,321.613 356.479,321.144 C353.252,315.261 349.503,309.066 345.13,302.662 C342.058,298.081 338.987,293.864 335.915,289.907 z" fill="#000000"/>
      <path d="M335.499,322.602 C332.115,314.689 328.991,311.565 325.19,304.12 C324.201,302.142 322.848,299.33 321.494,295.738 C321.182,294.905 320.349,294.437 319.464,294.593 C318.214,294.853 316.652,295.27 314.986,296.207 C313.06,297.248 311.654,298.602 310.769,299.591 C310.301,300.111 310.197,300.84 310.457,301.465 C312.956,307.088 315.819,312.971 319.255,319.062 C321.025,322.186 322.796,323.904 324.566,326.611 C324.722,326.871 324.982,327.079 325.242,327.236 C327.377,328.329 331.906,331.14 336.175,329.266 C336.175,329.266 336.175,329.266 336.175,329.266 C337.008,328.902 337.425,327.912 337.112,327.079 C336.8,325.778 336.227,324.268 335.499,322.602 z" fill="#000000"/>
      <path d="M319.359,331.296 C313.216,314.689 308.062,307.192 306.344,304.745 C305.042,302.923 303.897,301.413 303.116,300.476 C302.023,300.892 299.94,301.934 298.17,304.12 C295.88,306.984 295.515,310.003 295.463,311.148 C296.192,315.366 299.732,329.891 319.828,348.216 C320.713,349.049 322.223,349.049 323.576,349.362 C324.722,349.622 325.711,348.529 325.399,347.383 C323.628,341.292 320.817,335.201 319.359,331.296 z" fill="#000000"/>
      <path d="M216.433,156.369 C216.433,157.15 217.058,157.775 217.839,157.827 L231.531,159.285 L232.416,167.666 C232.573,169.28 233.197,171.623 234.239,174.07 C235.02,175.892 236.998,179.537 236.998,179.537 L236.946,184.17 C240.955,183.285 244.547,182.921 247.254,182.764 C247.254,182.764 248.139,182.712 249.753,182.712 C249.753,182.712 249.753,182.712 249.805,182.712 C249.805,182.712 249.805,182.712 249.857,182.712 C251.419,182.712 252.356,182.764 252.356,182.764 C254.959,182.921 258.447,183.233 262.3,184.066 L262.248,179.641 C262.248,179.641 264.226,175.996 265.007,174.174 C266.048,171.675 266.673,169.385 266.829,167.771 L267.714,159.389 L281.406,157.931 C282.187,157.879 282.812,157.254 282.812,156.473 L282.812,150.903 C282.812,150.382 282.396,149.966 281.875,149.966 C274.274,149.757 265.84,148.924 258.083,148.664 C255.584,143.198 255.636,131.119 255.792,136.117 C255.271,121.175 255.844,113.002 257.51,100.819 L260.634,100.871 C261.259,100.871 261.831,100.351 261.831,99.726 L261.831,87.7 C261.831,87.075 261.363,86.606 260.79,86.554 C259.488,86.45 258.187,86.346 256.885,86.242 C256.833,85.617 256.417,82.962 254.022,80.984 C252.46,79.682 250.794,79.37 249.857,79.266 L249.857,79.058 C249.128,79.11 247.15,79.318 245.328,80.828 C242.933,82.754 242.516,85.461 242.464,86.086 C241.163,86.19 239.861,86.294 238.56,86.398 C237.987,86.45 237.518,86.971 237.518,87.544 L237.518,99.57 C237.518,100.195 238.039,100.715 238.716,100.715 L241.84,100.663 C243.506,112.898 244.078,121.071 243.558,135.961 C243.714,130.963 243.766,143.093 241.267,148.508 C233.51,148.768 225.128,149.549 217.475,149.809 C216.954,149.809 216.538,150.226 216.538,150.746 L216.538,156.369 z" fill="#000000"/>
      <path d="M262.925,333.483 L236.217,333.483 L236.009,373.466 C235.852,379.766 238.247,394.603 241.111,404.807 C243.662,413.762 246.369,415.532 249.336,420.114 L249.336,420.842 C249.441,420.738 249.493,420.582 249.597,420.478 C249.649,420.582 249.701,420.634 249.753,420.738 L249.753,420.27 C252.773,415.636 255.48,413.918 257.979,404.964 C260.842,394.76 263.237,379.922 263.081,373.623 L262.925,333.483 z" fill="#000000"/>
      <path d="M292.652,269.603 C289.893,266.115 303.533,240.084 296.348,217.125 C287.914,190.157 262.977,185.94 252.148,185.42 C252.148,185.42 251.211,185.367 249.649,185.367 C249.649,185.367 249.649,185.367 249.597,185.367 C249.597,185.367 249.597,185.367 249.545,185.367 C247.983,185.367 247.046,185.42 247.046,185.42 C236.269,185.992 211.279,190.157 202.897,217.125 C195.713,240.136 209.353,266.115 206.594,269.603 C195.505,283.66 210.603,305.942 212.633,307.764 C216.329,311.096 228.147,304.38 226.273,307.817 C224.867,310.472 223.566,330.359 223.566,330.359 L227.21,330.359 L228.98,323.435 L232.104,323.383 L232.729,330.359 L239.132,330.359 L239.757,323.695 L241.892,323.383 L242.204,330.359 L247.358,330.359 L247.618,323.227 L251.835,323.227 L252.096,330.359 L257.25,330.359 L257.562,323.383 L259.697,323.695 L260.321,330.359 L266.517,330.359 L267.142,323.383 L270.265,323.435 L272.035,330.359 L275.68,330.359 C275.68,330.359 274.378,310.472 272.972,307.817 C271.098,304.328 282.916,311.044 286.613,307.764 C288.643,305.942 303.741,283.66 292.652,269.603 z M242.725,284.181 C241.267,285.951 239.184,288.085 236.373,289.803 C229.553,294.02 222.837,293.395 220.078,292.979 C219.922,292.979 219.713,292.875 219.557,292.771 C213.622,288.658 211.331,282.202 213.102,278.193 C213.362,277.569 214.351,275.538 217.475,274.289 C217.631,274.237 217.839,274.185 217.995,274.185 C221.744,274.549 226.429,275.382 231.635,277.152 C235.852,278.558 239.393,280.328 242.308,281.994 C243.089,282.41 243.297,283.452 242.725,284.181 z M256.99,308.493 C256.99,308.962 256.469,309.118 256.209,308.754 C255.584,307.869 254.699,306.827 253.501,305.89 C252.252,304.901 251.054,304.224 250.065,303.86 C249.128,304.224 247.931,304.849 246.629,305.89 C245.432,306.827 244.547,307.869 243.922,308.754 C243.662,309.118 243.141,308.91 243.141,308.493 C242.933,305.109 243.089,298.133 247.775,293.083 C248.399,292.406 249.18,291.834 250.065,291.313 C250.95,291.886 251.783,292.458 252.356,293.083 C257.042,298.133 257.198,305.109 256.99,308.493 z M279.793,292.771 C279.636,292.875 279.48,292.927 279.272,292.979 C276.565,293.395 269.797,293.968 262.977,289.803 C260.165,288.085 258.083,285.951 256.625,284.181 C256.104,283.504 256.261,282.462 256.99,282.046 C259.905,280.38 263.497,278.662 267.662,277.204 C272.868,275.434 277.554,274.601 281.302,274.237 C281.459,274.237 281.667,274.237 281.823,274.341 C284.947,275.59 285.936,277.621 286.196,278.246 C288.018,282.202 285.728,288.658 279.793,292.771 z" fill="#000000"/>
    </g>
  </g>
</svg>
