<?xml version="1.0" encoding="UTF-8"?>
<!DOCTYPE svg PUBLIC "-//W3C//DTD SVG 1.1//EN" "http://www.w3.org/Graphics/SVG/1.1/DTD/svg11.dtd">
<svg version="1.1" xmlns="http://www.w3.org/2000/svg" xmlns:xlink="http://www.w3.org/1999/xlink" x="0" y="0" width="500" height="500" viewBox="0, 0, 500, 500">
  <g id="layer101">
    <path d="M145.335,499.096 C137.981,497.592 134.471,494.751 134.471,490.405 C134.471,486.895 134.136,486.56 132.799,488.566 C131.963,489.903 131.128,490.405 131.128,489.569 C131.128,488.399 132.966,485.892 141.658,476.699 C143.496,474.693 146.672,473.523 150.851,473.523 C154.361,473.523 158.54,472.52 160.211,471.35 C164.055,468.509 169.404,444.105 167.565,437.587 C166.897,434.912 166.73,430.901 167.398,428.895 C167.9,426.722 167.064,421.708 165.56,417.696 C162.384,409.506 163.387,396.469 169.404,368.221 C171.243,359.53 173.416,346.493 174.251,339.472 C175.756,325.265 176.257,326.268 165.058,323.928 C158.038,322.591 155.698,319.415 157.035,313.231 C157.537,310.389 158.372,301.865 158.707,294.343 C159.041,286.654 160.88,274.62 162.718,267.6 C164.724,260.58 166.563,248.88 166.897,241.692 C167.231,234.505 168.067,227.318 168.735,225.813 C169.571,223.641 168.234,222.136 163.053,219.629 C151.352,213.612 148.845,204.753 151.519,177.843 C153.024,162.633 153.024,157.785 151.185,152.771 C149.848,149.428 149.012,144.748 149.179,142.241 C149.681,136.892 160.88,108.31 165.058,102.46 C166.563,100.287 167.9,96.443 167.9,93.936 C167.9,91.429 168.903,88.754 170.073,87.751 C171.076,86.916 178.931,85.578 187.121,84.91 C204.839,83.573 215.035,78.725 217.876,70.535 C218.879,67.861 221.052,63.682 222.891,61.342 C225.732,57.665 226.233,54.489 226.233,37.775 C226.401,22.397 226.902,17.383 229.242,13.372 C234.424,4.513 239.939,1.839 253.812,0.836 L266.348,-0 L275.207,8.357 C280.054,13.037 285.737,17.383 287.91,17.885 C289.916,18.553 292.256,20.559 293.259,22.23 C295.599,26.743 299.945,54.991 299.945,66.691 C299.945,80.397 301.95,82.068 321.841,84.241 C330.532,85.077 338.555,86.247 339.725,86.581 C340.895,87.083 341.731,90.091 341.731,93.769 C341.731,98.114 342.901,101.29 345.074,103.296 C347.581,105.469 348.417,108.477 348.417,114.16 C348.417,118.506 349.921,125.693 351.927,129.872 C353.765,134.218 355.27,140.235 355.103,143.076 C354.601,158.955 355.27,176.673 357.108,188.039 L358.947,200.909 L353.598,211.439 C350.59,217.289 346.411,223.808 344.238,226.148 C338.89,231.998 336.717,236.845 336.717,242.528 C336.717,245.202 335.547,248.378 334.209,249.548 C332.371,251.052 331.869,253.225 332.705,256.735 C333.541,261.081 333.039,262.418 328.694,266.096 L323.512,270.441 L325.852,288.827 C327.189,299.023 331.702,324.095 336.048,344.821 C344.238,383.432 344.405,384.769 342.901,407.501 C339.725,453.8 339.725,452.964 344.405,462.826 C348.25,470.849 349.253,471.852 353.933,471.852 C359.616,472.019 365.131,475.529 368.14,481.379 C369.811,484.388 368.474,492.41 365.633,496.756 C364.296,498.762 344.907,499.765 332.037,498.595 C299.945,495.586 297.437,493.246 299.945,467.673 C300.948,455.304 300.78,448.117 298.942,437.754 C297.605,430.4 296.602,423.881 296.602,423.379 C296.602,422.878 294.596,420.371 292.256,417.529 C289.749,414.855 287.074,410.509 286.239,408.002 C285.403,405.662 283.732,403.322 282.729,402.988 C281.559,402.653 268.02,402.653 252.642,402.988 L224.562,403.656 L222.055,409.841 C220.718,413.184 217.709,417.696 215.536,420.036 C212.528,423.212 211.023,427.391 209.686,436.25 C208.85,442.768 207.346,450.123 206.343,452.63 C205.173,455.806 205.173,460.486 206.51,468.007 C209.018,482.047 206.677,491.24 199.992,493.748 C187.957,498.595 156.534,501.603 145.335,499.096 z M286.981,56.32 C287.482,54.481 286.981,43.241 286.145,42.739 C285.309,42.238 282.908,47.085 282.908,49.425 C282.908,54.606 285.811,61 286.981,56.32 z" fill="#000000"/>
  </g>
</svg>
