<?xml version="1.0" encoding="UTF-8"?>
<!DOCTYPE svg PUBLIC "-//W3C//DTD SVG 1.1//EN" "http://www.w3.org/Graphics/SVG/1.1/DTD/svg11.dtd">
<svg version="1.1" xmlns="http://www.w3.org/2000/svg" xmlns:xlink="http://www.w3.org/1999/xlink" x="0" y="0" width="500" height="500" viewBox="0, 0, 500, 500">
  <g id="layer102">
    <path d="M256.644,0 C258.099,0 260.745,0.066 262.465,0.066 C264.185,0.066 266.302,0.529 267.096,1.124 C268.948,2.381 273.116,2.381 274.174,1.124 C275.233,-0.132 276.423,-0.132 277.482,1.124 C278.077,1.852 279.4,2.117 281.385,2.117 C283.038,2.051 286.346,2.514 288.728,3.109 C291.109,3.638 294.549,4.432 296.335,4.829 C300.502,5.623 303.215,6.682 311.881,10.849 C325.111,17.265 323.986,16.869 328.352,16.34 C334.306,15.678 338.407,16.869 341.318,20.044 C344.03,23.087 344.162,23.682 342.177,25.27 C341.318,25.932 340.855,26.659 341.053,26.857 C341.252,27.122 345.75,27.585 350.976,27.916 C363.214,28.776 366.323,29.57 369.895,32.745 C371.748,34.399 372.74,33.737 372.74,30.628 C372.74,27.982 373.666,26.791 376.709,25.468 C387.558,20.838 411.967,22.293 416.201,27.85 C417.326,29.371 417.26,33.539 416.069,34.531 C414.415,35.92 414.944,37.772 417.392,39.294 L419.773,40.617 L419.508,50.341 C419.178,62.182 418.185,64.828 413.753,66.284 C409.784,67.607 408.593,69.459 408.991,73.494 C409.255,76.67 409.189,76.868 407.469,77.53 C406.543,77.86 405.816,78.389 405.947,78.72 C406.08,78.985 406.808,80.572 407.601,82.226 C409.189,85.732 409.52,85.865 415.209,86.526 C418.715,86.923 419.707,87.32 421.559,89.172 C422.75,90.363 424.734,91.554 425.859,91.818 C429.696,92.546 433.401,100.285 432.673,106.107 C431.416,116.294 431.416,116.36 432.871,118.411 C433.599,119.535 434.26,120.594 434.26,120.925 C434.26,121.189 433.136,122.446 431.68,123.769 C429.431,125.886 429.1,126.614 428.637,130.45 C428.373,132.832 428.108,135.676 428.175,136.867 C428.175,138.124 427.712,139.381 426.984,140.042 C425.859,141.101 425.462,141.101 421.096,140.042 C418.583,139.381 416.069,139.05 415.539,139.249 C415.01,139.447 414.415,140.902 414.217,142.49 C414.018,144.078 413.29,145.732 412.629,146.327 C411.901,146.856 411.173,147.848 410.909,148.51 C410.446,149.767 407.866,149.899 398.539,149.039 C395.165,148.708 392.386,148.708 391.593,149.105 C390.6,149.568 388.484,149.304 384.515,148.377 C377.767,146.724 373.6,146.591 371.549,148.047 C366.058,151.884 347.47,151.817 344.294,147.981 C343.832,147.451 343.17,146.989 342.773,146.989 C342.046,146.989 338.076,142.953 336.555,140.572 C335.563,139.05 335.364,139.05 324.25,139.05 C313.269,139.05 312.873,139.116 310.558,140.704 C309.234,141.63 307.25,143.482 306.257,144.739 C304.471,146.989 304.207,147.054 301.561,146.658 C298.981,146.261 298.65,146.393 297.063,148.51 C296.004,149.899 295.342,151.619 295.342,153.008 C295.342,154.463 294.879,155.72 294.019,156.448 C293.027,157.308 292.829,157.904 293.292,158.763 C293.623,159.425 293.689,160.351 293.358,160.88 C293.027,161.409 292.696,166.37 292.63,171.795 L292.432,181.718 L295.409,182.181 C296.996,182.38 299.576,182.644 301.098,182.644 C303.744,182.71 303.942,182.578 305.133,179.865 L306.456,176.955 L318.165,176.492 C326.434,176.161 330.138,176.227 330.733,176.756 C331.395,177.285 331.99,177.285 332.983,176.822 C333.711,176.426 336.092,176.095 338.275,176.095 L342.31,176.095 L342.31,173.449 C342.31,171.663 342.641,170.671 343.5,170.207 C344.162,169.877 349.124,169.48 354.548,169.414 C375.452,169.083 372.74,168.554 374.79,173.118 C375.32,174.176 377.304,176.756 379.289,178.873 C384.845,184.827 385.772,187.142 385.904,195.676 C385.97,199.645 386.301,204.408 386.631,206.194 C386.962,208.046 387.69,212.611 388.285,216.447 C388.881,220.284 389.807,224.253 390.336,225.312 C390.865,226.37 391.262,227.825 391.262,228.487 C391.262,229.215 391.593,230.339 391.923,231.067 C392.453,231.993 392.386,232.72 391.593,233.911 C390.667,235.3 390.667,235.764 391.659,238.344 C393.445,243.172 393.974,249.259 393.246,256.469 C392.85,260.041 392.254,263.349 391.923,263.679 C391.527,264.076 391.262,269.963 391.262,278.298 C391.262,291.066 391.129,292.389 389.939,294.373 C387.756,297.88 387.491,303.502 389.277,308.133 C390.931,312.433 392.188,320.834 391.659,324.075 C391.196,327.052 392.651,327.251 394.834,324.473 C396.62,322.289 396.753,322.223 397.943,323.348 C398.605,323.943 399.2,325.266 399.2,326.259 C399.2,327.251 399.663,328.971 400.258,330.161 C400.854,331.286 401.515,333.8 401.78,335.718 C402.044,337.703 403.103,340.547 404.294,342.466 C405.484,344.318 406.741,347.294 407.204,349.08 C407.998,352.388 411.571,361.914 416.399,373.888 C417.789,377.328 419.773,382.553 420.765,385.464 C421.758,388.374 423.345,391.881 424.205,393.204 C425.066,394.527 425.925,396.908 426.124,398.43 C426.322,399.951 427.513,402.729 428.77,404.582 C429.96,406.434 430.953,408.352 430.953,408.947 C430.953,409.477 431.548,410.998 432.276,412.255 C434.459,416.092 435.319,418.209 438.494,426.809 L441.537,435.078 L440.479,439.245 C439.156,444.471 439.751,445.331 444.911,445.794 C448.814,446.125 450.137,446.852 450.137,448.705 C450.137,450.16 451.989,451.285 454.37,451.285 C455.495,451.285 456.884,452.211 458.538,453.996 C461.448,457.106 464.558,458.032 469.982,457.503 C473.224,457.172 473.819,457.304 475.605,458.826 C476.729,459.752 478.052,460.546 478.648,460.546 C479.244,460.546 480.103,461.009 480.566,461.538 C480.963,462.067 481.955,462.663 482.683,462.927 C487.049,464.316 497.435,473.048 500.412,477.811 C501.404,479.531 503.19,481.516 504.249,482.309 C506.431,483.831 507.556,486.08 506.564,487.072 C506.233,487.403 503.785,488.197 501.073,488.925 C498.361,489.652 494.326,490.843 492.209,491.571 C487.248,493.29 483.808,493.29 479.243,491.571 C473.356,489.322 471.305,488.858 469.387,489.321 C468.13,489.586 467.071,489.322 465.881,488.329 C463.632,486.609 462.309,486.676 460.986,488.594 C460.125,489.983 460.059,490.777 460.721,494.018 C461.382,497.061 461.316,497.921 460.588,498.649 C459.927,499.31 456.024,499.641 444.183,499.84 C431.085,500.171 427.645,500.038 422.353,498.979 C414.282,497.458 413.489,497.193 409.652,494.481 C407.866,493.224 405.749,491.967 404.955,491.571 C404.161,491.174 402.309,490.181 400.854,489.321 C399.399,488.395 397.48,487.271 396.554,486.874 C395.628,486.411 394.173,485.551 393.246,484.955 C392.321,484.36 389.608,483.368 387.227,482.707 C383.456,481.714 382.596,481.714 380.942,482.442 C378.495,483.632 377.37,485.948 377.37,489.851 C377.37,495.474 377.105,495.672 368.903,495.275 C365,495.077 357.393,494.812 351.968,494.613 C346.544,494.481 341.847,494.084 341.648,493.82 C340.855,492.894 339.664,482.244 339.664,475.826 C339.664,469.675 339.068,466.632 337.282,463.059 C335.959,460.546 336.158,458.826 337.878,457.437 C338.672,456.775 340.391,454.195 341.582,451.748 C343.5,447.646 343.699,446.72 343.567,442.156 C343.435,438.187 343.633,436.665 344.559,435.276 C345.617,433.688 345.617,433.357 344.692,431.505 C343.435,429.124 343.369,426.61 344.427,424.824 C346.08,422.178 344.03,422.641 341.582,425.486 C338.672,428.859 336.357,434.217 336.29,437.922 C336.224,441.627 335.761,442.288 330.733,445.794 C326.897,448.44 325.574,448.969 323.126,448.969 C318.694,448.969 317.834,448.44 317.834,445.595 C317.834,444.207 317.305,438.649 316.709,433.159 C315.32,421.054 315.254,415.166 316.643,409.94 C320.414,395.122 321.34,379.643 319.488,362.311 C318.959,357.217 318.694,352.19 318.893,351.131 C319.885,346.501 330.866,326.192 334.173,322.885 L335.496,321.495 L337.084,323.745 C338.937,326.391 339.664,326.986 340.987,326.721 C341.781,326.589 341.979,325.068 342.046,318.585 C342.112,310.514 342.508,308.794 345.088,306.016 C346.08,304.892 346.345,303.304 346.61,296.755 C347.801,267.384 347.867,268.905 344.89,262.356 C343.964,260.305 343.633,258.123 343.633,253.227 C343.633,247.009 341.45,232.72 340.259,231.397 C339.532,230.538 333.711,229.744 333.313,230.471 C333.115,230.736 332.123,231.001 331.131,231.001 C329.08,231.001 326.5,233.845 327.757,234.639 C328.551,235.102 328.617,240.262 327.889,241.32 C327.624,241.717 326.235,242.643 324.78,243.437 C322.332,244.628 321.935,244.694 320.216,243.768 C318.032,242.643 313.534,243.04 311.881,244.562 C311.285,245.091 309.301,245.686 307.514,245.885 C304.207,246.215 298.915,246.943 288.463,248.597 C285.221,249.126 281.517,249.523 280.326,249.523 C277.548,249.523 276.82,251.111 276.82,257.13 C276.82,259.446 276.49,262.092 276.092,263.018 L275.298,264.672 L262.002,264.936 C254.66,265.135 247.582,265.465 246.258,265.73 C242.62,266.458 240.437,265.73 240.437,263.812 C240.437,262.951 240.172,261.43 239.842,260.372 C239.511,259.313 238.585,256.337 237.857,253.757 L236.402,249.06 L232.631,248.597 C230.514,248.332 227.934,247.671 226.876,247.142 C225.09,246.149 221.187,245.223 211.661,243.569 C209.544,243.172 208.023,242.445 207.427,241.585 C206.7,240.526 205.84,240.262 202.532,240.262 C199.291,240.262 198.034,239.931 196.05,238.608 C193.866,237.021 193.602,236.557 193.205,232.919 C192.742,227.892 192.543,227.693 189.897,227.693 C188.64,227.693 187.317,227.23 186.854,226.701 C186.391,226.172 185.068,225.708 183.943,225.708 C182.157,225.708 181.43,226.237 179.644,228.817 C177.924,231.265 177.527,232.324 177.792,234.11 C177.99,235.3 177.858,236.425 177.527,236.689 C176.072,237.55 173.028,247.869 172.897,252.169 C172.83,254.087 171.97,256.8 170.515,259.776 L168.266,264.407 L168.994,278.96 C169.39,286.965 170.052,294.175 170.449,294.903 C170.846,295.696 170.912,296.954 170.647,297.747 C170.317,298.938 170.581,299.335 172.235,299.93 C174.881,300.989 176.072,304.032 176.601,310.978 C177.064,317.262 177.527,318.254 179.909,317.791 C181.165,317.592 182.025,318.056 183.547,319.643 C184.605,320.834 185.531,322.157 185.531,322.62 C185.531,323.083 185.928,323.811 186.458,324.208 C187.45,325.002 192.808,335.652 192.808,336.842 C192.808,337.173 193.072,338.034 193.403,338.695 C196.05,343.723 196.711,348.353 195.52,354.373 C195.057,356.556 194.462,359.996 194.065,361.98 C192.147,372.697 191.618,392.542 192.874,403.523 C193.866,411.527 193.866,413.711 192.874,417.878 C192.411,419.731 191.816,422.508 191.485,424.163 C189.963,432.498 187.251,441.758 185.994,442.883 C184.341,444.338 180.173,444.338 177.395,442.95 C176.204,442.354 173.889,440.634 172.169,439.245 C168.994,436.599 168.994,436.599 168.994,432.564 C168.927,429.587 168.465,427.272 167.141,424.229 C166.149,421.913 165.091,419.995 164.76,419.929 C164.429,419.929 163.834,420.855 163.37,422.112 C162.577,424.493 161.254,425.353 158.277,425.419 C157.152,425.486 156.425,425.882 156.425,426.411 C156.425,427.139 157.351,427.47 159.534,427.602 C162.114,427.735 162.709,428.066 162.907,429.124 C163.239,431.175 164.363,433.292 168.001,438.716 C169.787,441.494 171.904,444.736 172.566,445.993 C174.418,449.433 175.543,450.491 177.659,450.954 C179.313,451.351 179.578,451.681 179.578,453.666 C179.578,454.923 180.173,457.238 180.901,458.693 C181.628,460.215 182.224,462.133 182.224,462.927 C182.224,463.721 182.951,465.97 183.878,467.955 C186.127,472.85 186.193,479.729 184.01,483.897 C183.15,485.484 182.224,487.535 182.025,488.329 C181.628,489.851 181.562,489.851 174.153,489.387 C170.052,489.123 165.024,488.528 163.04,487.999 C161.055,487.535 157.946,486.94 156.16,486.676 C154.374,486.411 152.191,485.749 151.331,485.22 C150.471,484.625 147.825,483.765 145.443,483.302 C140.548,482.244 137.241,480.259 137.241,478.341 C137.241,476.422 134.86,474.438 132.544,474.438 C130.295,474.438 128.509,475.231 125.863,477.481 C124.87,478.274 122.952,479.333 121.563,479.729 C120.174,480.193 118.652,480.854 118.189,481.251 C117.66,481.648 115.874,482.442 114.154,483.103 C112.434,483.699 109.391,485.353 107.406,486.741 L103.834,489.321 L68.774,489.321 L68.642,483.434 C68.377,475.761 67.253,474.438 62.688,476.687 C60.969,477.547 58.389,478.076 47.606,479.796 C45.423,480.127 42.314,480.722 40.66,481.119 C28.554,483.831 24.122,483.765 18.168,480.921 C14.199,479.002 6.923,474.438 6.923,473.842 C6.923,473.578 7.584,472.784 8.378,471.99 C9.238,471.262 11.553,468.683 13.538,466.168 C17.705,461.009 18.962,459.752 22.138,457.37 C23.394,456.378 24.717,455.188 24.982,454.79 C25.247,454.328 25.908,453.93 26.371,453.93 C26.901,453.93 27.628,453.534 28.025,453.004 C28.488,452.475 30.406,451.219 32.259,450.292 C34.177,449.3 36.294,447.911 37.088,447.249 C38.278,446.191 39.337,445.993 43.901,446.059 C48.929,446.191 49.458,446.125 50.847,444.537 C51.707,443.677 53.427,442.552 54.618,442.09 C58.322,440.7 58.852,440.304 59.05,438.583 C59.314,436.599 61.498,435.408 65.003,435.408 C67.583,435.408 72.28,434.482 72.876,433.821 C73.074,433.622 72.413,431.836 71.42,429.852 L69.634,426.279 L71.288,422.112 C73.008,417.878 73.669,415.894 76.316,407.294 C77.241,404.251 78.829,401.208 80.946,398.43 C82.93,395.85 89.678,383.281 98.807,365.023 C106.877,349.015 114.485,333.932 115.808,331.617 C117.064,329.235 117.925,326.854 117.726,326.259 C117.329,325.068 119.38,318.982 120.637,317.394 C121.761,316.071 122.357,316.071 124.011,317.526 C125.532,318.784 126.193,318.585 126.392,316.667 C126.458,315.939 126.723,313.028 126.987,310.25 C127.252,307.405 127.979,304.098 128.707,302.643 C130.229,299.665 130.295,297.747 128.906,293.844 C127.649,290.338 126.921,289.28 124.87,288.486 C123.217,287.891 123.349,289.148 123.018,271.684 C122.886,264.936 121.563,252.764 120.703,250.582 C120.174,249.126 120.24,248.266 121.034,246.679 C121.563,245.62 122.026,243.9 122.026,242.974 C122.026,242.048 122.489,239.6 123.018,237.616 C123.547,235.631 123.812,233.382 123.614,232.588 C123.217,231.133 124.738,225.775 126.26,223.393 C127.252,221.739 128.31,218.035 129.302,212.809 C129.7,210.626 130.295,207.649 130.626,206.194 C132.346,198.652 133.933,188.73 133.536,187.737 C132.743,185.753 135.322,180.527 138.564,177.418 C142.004,174.176 145.841,168.554 145.841,166.768 C145.841,166.172 146.37,165.511 147.031,165.378 C148.883,164.849 172.83,166.172 174.683,166.834 C175.608,167.231 176.601,168.355 176.998,169.48 C177.395,170.538 178.254,171.596 178.982,171.795 C179.71,172.06 183.613,172.192 187.715,172.06 C194.727,171.927 213.183,172.92 215.3,173.515 C216.094,173.713 216.225,173.118 216.093,170.472 C215.895,166.37 216.358,164.188 217.548,164.188 C218.938,164.188 223.899,160.285 224.693,158.565 C225.288,157.308 225.156,156.647 224.296,155.324 C223.701,154.397 223.237,153.207 223.237,152.678 C223.237,151.751 213.645,141.696 212.852,141.696 C212.653,141.696 211.661,142.424 210.536,143.35 C208.023,145.467 205.972,145.004 202.466,141.63 L199.82,139.05 L180.702,139.05 C164.892,139.05 161.055,139.249 158.343,140.108 C156.028,140.902 153.647,141.101 150.537,140.902 L146.105,140.572 L143.922,145.07 C142.732,147.584 141.54,149.634 141.276,149.634 C141.011,149.634 139.755,150.56 138.564,151.619 C137.373,152.744 135.852,153.603 135.322,153.603 C134.727,153.603 133.272,154.199 132.081,154.926 C129.832,156.316 125.069,156.712 124.341,155.588 C124.143,155.257 122.357,154.199 120.438,153.273 C118.454,152.346 115.741,150.428 114.353,148.973 C112.566,147.12 111.177,146.327 109.92,146.327 C108.928,146.327 107.936,145.864 107.737,145.334 C107.076,143.615 105.62,144.276 104.43,146.79 C103.768,148.179 102.842,149.568 102.313,149.899 C101.784,150.164 100.858,150.957 100.262,151.553 C98.542,153.273 90.34,156.911 88.223,156.911 C86.304,156.911 79.821,153.736 77.572,151.685 C74.397,148.841 73.669,147.914 72.015,144.541 L70.229,140.836 L71.42,134.486 C72.082,130.848 72.413,126.878 72.214,125.158 C71.42,118.94 70.957,116.823 70.031,114.773 C68.973,112.457 69.37,111.002 71.354,109.282 C72.214,108.62 72.413,107.033 72.413,102.204 C72.413,95.986 72.876,94.266 75.059,91.752 C75.72,91.025 76.448,89.701 76.712,88.775 C76.977,87.849 77.903,86.195 78.763,85.005 C79.623,83.88 80.35,82.557 80.35,82.16 C80.35,81.697 80.88,81.564 81.74,81.829 C83.989,82.557 89.678,81.498 90.802,80.11 C91.663,79.117 92.787,78.852 96.293,78.852 C101.255,78.852 103.305,77.728 105.091,74.09 C106.414,71.51 106.414,70.65 105.157,69.591 C104.43,68.996 104.231,68.07 104.562,66.614 C104.959,64.432 104.165,63.307 101.85,62.91 C101.188,62.712 99.667,61.322 98.608,59.735 L96.624,56.758 L96.822,46.835 C96.889,41.345 97.285,36.383 97.616,35.788 C97.947,35.192 99.071,34.333 100.196,34.002 C102.578,33.142 102.578,33.01 100.725,30.562 C99.469,28.776 99.402,28.379 100.13,25.932 C100.792,23.748 101.453,22.954 104.364,21.433 C107.737,19.647 108.002,19.647 120.042,19.647 C131.221,19.647 132.676,19.779 136.645,21.168 C139.093,22.029 142.004,23.616 143.195,24.741 C145.179,26.461 145.312,26.924 144.981,29.636 C144.848,31.289 144.848,32.546 145.113,32.414 C150.603,29.768 152.522,29.107 156.028,28.776 C159.269,28.511 160.526,28.644 161.915,29.503 C163.569,30.628 163.635,30.628 164.495,28.776 C165.487,26.659 168.001,25.27 171.64,24.807 C173.69,24.542 174.55,23.881 176.204,21.499 C178.519,18.258 181.496,16.67 185.465,16.67 C186.921,16.67 188.31,16.34 188.508,16.009 C189.169,14.95 208.618,5.623 213.249,4.102 C215.564,3.374 218.541,2.779 219.93,2.779 C221.319,2.779 223.568,2.315 224.958,1.72 C226.942,0.926 230.713,0.595 240.768,0.331 C248.044,0.132 255.189,0 256.644,0 z M360.344,413.963 L359.641,413.975 C357.26,414.107 351.637,416.82 350.645,418.341 C350.248,419.003 350.381,420.789 350.976,423.435 L351.836,427.536 L356.797,427.338 L361.825,427.139 L362.288,424.295 C362.552,422.707 362.552,419.731 362.288,417.68 C362.174,416.783 362.125,414.657 361.287,414.141 C361.015,413.974 360.659,414.023 360.344,413.963 z M400.737,407.588 C399.111,407.903 399.78,407.637 398.671,408.22 C397.083,409.212 399.068,416.622 402.111,421.384 C404.823,425.618 406.609,426.478 407.006,423.699 C407.204,422.442 404.889,413.578 403.236,409.477 C402.688,408.39 402.022,407.715 400.737,407.588 z M149.538,408.016 C149.247,408.077 148.927,408.058 148.665,408.198 C147.712,408.709 147.641,410.044 147.296,410.932 C146.833,412.586 146.171,414.769 145.841,415.761 C145.51,416.82 145.443,418.076 145.642,418.606 C146.039,419.664 146.899,419.797 147.494,418.87 C147.693,418.539 149.677,418.209 151.794,418.209 C155.499,418.209 155.763,418.076 156.756,416.224 C157.285,415.166 157.748,413.777 157.748,413.049 C157.748,411.461 152.72,408.154 150.14,408.022 L149.538,408.016 z M305.62,221.308 C304.487,221.585 303.488,222.17 302.553,222.864 C299.113,225.245 298.915,225.378 294.879,227.164 C292.167,228.354 291.374,229.016 291.373,230.14 C291.374,230.934 290.778,231.993 290.051,232.522 C289.257,233.051 288.595,234.308 288.529,235.366 C288.397,237.087 288.661,237.285 290.712,237.616 C294.35,238.145 304.008,237.55 306.919,236.557 C309.168,235.829 309.697,235.829 310.689,236.756 C312.012,237.946 315.32,237.682 319.488,236.094 C322.465,234.97 322.862,234.308 321.803,232.257 C321.009,230.802 319.488,230.736 312.079,232.059 C310.227,232.39 309.83,232.191 308.639,230.339 C307.911,229.148 307.117,226.701 306.919,224.981 C306.655,223.195 306.191,221.541 305.794,221.342 L305.62,221.308 z M217.183,221.916 C216.662,222.268 216.856,222.068 216.556,222.467 C216.225,222.996 215.3,224.385 214.572,225.576 C212.455,228.817 210.338,229.677 206.237,228.884 C200.084,227.693 198.761,229.744 203.723,232.654 C206.038,233.977 207.229,234.308 208.75,233.977 C209.809,233.713 212.124,233.845 213.844,234.242 C215.564,234.639 218.144,235.234 219.599,235.565 C225.354,236.888 228.992,236.094 227.207,233.977 C226.082,232.654 224.891,230.67 223.833,228.354 C223.436,227.429 222.774,226.039 222.378,225.179 C221.981,224.319 220.657,223.195 219.401,222.599 C218.698,222.271 217.988,221.846 217.183,221.916 z M353.19,138.189 L352.542,138.201 L351.439,138.256 C348.793,138.455 347.602,138.785 347.602,139.381 C347.602,140.572 348.396,141.035 352.167,142.027 C356.532,143.284 359.51,143.284 359.51,142.027 C359.51,141.498 359.179,141.035 358.782,141.035 C358.318,141.035 357.393,140.373 356.599,139.513 C355.546,138.565 354.639,138.142 353.19,138.189 z M137.83,74.34 C136.959,74.591 136.298,75.187 135.653,75.809 C133.735,77.53 133.47,78.588 134.793,79.117 C136.976,80.043 138.233,79.183 138.431,76.736 C138.473,76.172 138.657,74.861 138.159,74.445 C138.071,74.371 137.94,74.374 137.83,74.34 z" fill="#000000"/>
  </g>
</svg>
