<?xml version="1.0" encoding="UTF-8"?>
<!DOCTYPE svg PUBLIC "-//W3C//DTD SVG 1.1//EN" "http://www.w3.org/Graphics/SVG/1.1/DTD/svg11.dtd">
<svg version="1.1" xmlns="http://www.w3.org/2000/svg" xmlns:xlink="http://www.w3.org/1999/xlink" x="0" y="0" width="500" height="500" viewBox="0, 0, 500, 500">
  <g id="layer102">
    <path d="M133.126,121.718 C130.584,121.718 128.255,122.248 127.937,122.778 C127.619,123.413 126.56,123.837 125.713,123.836 C122.218,123.837 116.816,128.603 115.546,132.839 C113.957,138.24 112.58,139.828 109.721,139.087 C108.238,138.664 106.861,136.757 105.59,133.58 C102.518,125.32 101.142,123.837 96.8,123.836 C94.682,123.837 92.352,124.366 91.716,125.002 C90.551,126.167 81.337,125.849 73.077,124.366 C66.193,123.095 63.333,127.755 62.274,142.053 C61.427,151.902 60.58,154.232 57.085,155.609 C54.225,156.668 52.848,163.129 54.331,168.318 C54.966,170.436 54.755,172.025 53.589,173.507 C51.577,176.578 52.53,181.662 55.813,185.157 C60.05,189.605 58.991,194.159 54.331,191.617 C51.683,190.241 42.363,192.995 39.504,196.172 C37.491,198.289 35.267,197.866 35.267,195.218 C35.267,194.371 34.843,192.889 34.314,191.829 C33.679,190.876 33.044,188.758 32.62,187.17 C32.09,184.416 31.666,184.204 26.795,184.204 C22.029,184.204 21.499,184.416 20.864,186.852 C20.335,188.97 19.699,189.393 18.111,188.864 C17.051,188.546 15.357,188.864 14.51,189.605 C13.344,190.559 12.603,190.559 11.756,189.711 C11.015,188.97 10.061,188.44 9.638,188.44 C8.473,188.44 3.495,198.925 3.495,201.361 C3.495,202.42 2.754,203.267 1.907,203.267 C1.059,203.267 0.318,203.585 0.318,204.114 C0.212,204.538 0.212,213.964 0.106,224.978 L0,245.101 L2.648,245.419 C5.19,245.737 7.731,249.231 7.731,252.409 C7.731,254.421 14.933,262.47 18.428,264.165 C20.017,265.011 22.135,267.342 23.088,269.354 C24.041,271.26 25.735,273.908 26.795,275.072 C28.066,276.344 28.913,278.78 28.913,280.897 C28.913,283.439 29.972,285.558 32.62,288.629 C37.068,293.5 38.657,296.36 40.669,303.35 C41.728,306.951 42.893,308.751 44.799,309.599 C46.282,310.234 47.659,310.975 47.977,311.399 C48.294,311.717 49.565,312.564 50.942,313.306 C53.166,314.47 57.085,319.66 60.474,325.697 C61.215,327.073 62.274,328.239 62.803,328.239 C65.239,328.239 76.783,339.676 79.219,344.654 C79.855,345.819 81.443,346.878 82.714,347.09 C83.985,347.302 85.044,347.937 85.044,348.467 C85.044,348.996 86.632,350.056 88.433,350.797 C90.339,351.644 94.258,354.927 97.224,358.21 C100.083,361.494 103.366,364.247 104.319,364.247 C105.378,364.247 106.226,364.671 106.226,365.095 C106.226,365.624 107.814,366.683 109.615,367.636 C111.521,368.589 115.863,371.449 119.358,374.097 C124.442,378.121 125.924,378.862 127.619,377.909 C128.784,377.274 133.868,377.062 139.904,377.274 C145.517,377.592 150.918,377.803 151.766,377.803 C152.613,377.803 160.98,377.486 170.3,377.274 C179.62,377.062 188.833,376.85 190.634,376.744 L307.979,376.744 C312.64,376.744 318.571,376.744 321.218,376.638 C323.866,376.638 328.632,376.638 331.809,376.85 C334.986,376.956 351.19,377.062 367.818,376.956 C384.445,376.956 399.907,377.168 402.237,377.592 C404.568,377.909 407.215,378.121 408.062,378.015 C408.909,377.909 414.311,377.592 419.924,377.38 C425.537,377.062 431.044,377.274 432.104,377.803 C434.221,378.862 442.8,374.944 444.389,372.19 C444.812,371.343 445.659,370.602 446.295,370.602 C446.825,370.602 449.366,369.648 451.696,368.484 C454.132,367.318 456.674,366.365 457.309,366.365 C458.051,366.365 459.428,365.412 460.487,364.247 C461.545,363.082 462.817,362.129 463.346,362.129 C463.876,362.129 465.253,361.282 466.418,360.222 C468.43,358.316 471.607,356.516 476.902,354.503 C481.668,352.598 482.727,351.856 483.787,349.844 C486.964,344.019 490.882,338.935 495.33,335.123 C501.367,329.933 501.367,330.144 496.39,320.825 C495.33,318.813 494.165,315.212 493.742,312.882 C491.412,300.914 490.776,299.643 486.434,299.643 C481.88,299.643 476.902,297.526 471.077,293.077 C468.218,290.853 464.829,289.053 463.664,289.053 C460.063,289.053 451.908,286.193 445.977,282.91 C442.906,281.109 437.929,279.415 435.069,278.992 C426.702,277.72 425.007,275.072 429.35,269.566 C431.362,267.024 431.468,266.389 430.303,264.059 C429.244,262.258 427.973,261.517 425.749,261.517 C424.054,261.517 418.229,259.822 412.722,257.81 C399.272,252.726 394.294,253.044 395.142,258.657 C395.354,259.716 394.93,261.199 394.294,262.046 C393.235,263.317 392.176,263.211 387.093,261.305 C383.704,260.14 380.632,258.763 380.103,258.234 C379.468,257.704 378.196,257.281 377.243,257.281 C376.29,257.281 374.913,256.645 374.278,255.798 C373.643,255.056 370.042,253.997 366.334,253.679 C362.734,253.256 357.12,251.667 353.943,250.184 C350.766,248.702 346.636,247.113 344.623,246.795 C342.612,246.478 340.493,245.207 339.858,244.042 C339.222,242.877 337.846,240.653 336.787,239.065 C335.833,237.581 334.986,235.251 334.986,233.981 C334.986,232.71 333.504,230.274 331.809,228.473 C330.008,226.673 327.573,223.284 326.301,220.848 C323.23,214.6 320.37,211.846 316.24,211.105 C313.91,210.681 312.322,209.622 311.686,208.139 C309.886,203.162 303.32,201.149 289.022,201.149 C281.185,201.149 278.643,200.831 278.22,199.667 C277.796,198.501 275.784,198.289 270.065,198.501 C262.651,198.819 242.423,199.243 240.093,199.137 C239.352,199.031 238.61,197.972 238.293,196.807 C237.763,194.9 237.127,194.583 234.056,195.218 C231.196,195.748 230.243,195.536 229.714,194.159 C229.291,192.995 228.231,192.677 226.643,192.995 C222.406,193.948 220.394,192.253 218.382,186.216 C216.051,178.909 215.84,175.096 218.064,174.249 C219.017,173.931 231.302,173.613 245.494,173.613 L271.229,173.613 L274.725,170.753 C278.114,167.894 278.326,167.788 299.401,166.941 C311.051,166.517 321.112,165.67 321.642,165.141 C322.701,164.081 323.442,148.937 322.595,145.336 C322.171,143.324 321.218,143.006 314.016,142.582 C309.463,142.265 299.507,142.053 291.67,141.947 L277.372,141.947 L272.713,136.016 L233.421,135.486 C204.084,135.063 193.917,134.64 192.858,133.686 C191.905,132.627 185.444,132.309 167.97,132.309 L144.352,132.309 L143.082,129.344 C140.646,123.837 137.998,121.718 133.126,121.718 z M407.849,363.276 C410.467,363.446 414.156,363.313 414.417,366.789 C414.417,368.06 414.099,369.542 413.676,369.86 C412.722,370.92 411.451,370.814 410.71,369.542 C410.287,368.907 408.274,368.589 406.156,368.695 C402.555,369.013 402.237,368.801 402.237,366.365 C402.237,364.141 402.767,363.611 405.838,363.4 L407.849,363.276 z M150.445,363.311 C152.485,363.358 157.742,363.076 158.968,365.412 C159.18,366.365 158.544,367.954 157.485,368.907 C156.214,370.284 155.473,370.39 154.308,369.436 C153.46,368.801 151.448,368.484 149.754,368.801 C145.835,369.648 143.399,367.212 145.411,364.777 C146.839,363.572 148.635,363.501 150.445,363.311 z M235.539,363.188 C236.598,363.188 236.81,367.742 235.751,368.801 C234.903,369.648 234.903,369.648 232.891,368.907 C231.938,368.589 231.196,367.848 231.196,367.424 C231.196,366.153 234.268,363.188 235.539,363.188 z M177.713,363.188 C183.856,363.188 184.809,363.823 183.962,367 C183.538,368.801 182.479,369.119 177.713,369.119 C172.947,369.119 171.888,368.801 171.465,367 C170.618,363.823 171.571,363.188 177.713,363.188 z M312.61,362.303 C313.131,362.442 313.689,362.482 314.173,362.719 C316.205,363.71 316.291,365.973 315.605,367.848 C315.076,369.119 311.474,369.225 303.32,368.484 C303.002,368.484 304.167,367 305.862,365.306 C307.774,363.521 309.897,362.195 312.61,362.303 z M254.285,362.129 C258.626,362.129 262.651,365.095 261.592,367.636 C260.851,369.648 251.107,369.225 249.836,367.212 C248.036,364.247 249.942,362.129 254.285,362.129 z M330.104,362.45 C332.016,362.704 335.104,365.162 334.562,367.318 C334.139,367.954 332.656,368.484 331.174,368.483 C329.161,368.484 328.632,367.954 328.632,365.941 C328.632,364.459 329.161,362.976 329.796,362.553 L330.104,362.45 z M382.937,362.308 L383.598,362.553 C384.233,362.976 384.762,364.459 384.762,365.942 C384.762,369.119 382.009,369.331 381.056,366.259 C380.777,365.049 380.609,363.487 381.779,362.617 C382.1,362.379 382.551,362.411 382.937,362.308 z M456.214,349.627 L456.674,349.632 C457.627,349.844 458.474,351.22 458.686,352.915 C459.004,355.139 458.58,355.775 456.992,355.775 C455.933,355.775 454.132,356.728 453.073,357.892 C450.637,360.54 448.307,360.646 448.307,357.998 C448.746,354.625 453.128,350.686 456.214,349.627 z M105.802,343.913 L109.191,346.772 C111.944,348.996 112.58,350.373 112.581,353.55 C112.58,355.775 112.262,357.892 111.838,358.21 C110.674,359.481 109.721,359.058 107.92,356.304 C106.967,354.821 105.484,353.656 104.637,353.656 C102.095,353.656 101.883,351.75 103.896,347.725 L105.802,343.913 z M473.43,343.629 C475.353,343.636 475.716,343.746 475.102,345.819 C474.361,347.725 470.548,347.725 470.548,345.819 C470.548,345.078 471.501,344.125 472.56,343.807 L473.43,343.629 z M87.692,328.239 C88.645,328.239 91.399,330.145 93.835,332.475 L98.283,336.711 L90.869,343.066 L88.01,339.994 C86.421,338.3 84.515,336.711 83.773,336.499 C81.867,335.758 85.468,328.239 87.692,328.239 z M68.628,310.234 C70.535,310.234 78.69,318.177 78.69,320.084 C78.69,320.931 77.63,322.414 76.254,323.261 C72.971,325.591 72.865,325.591 68.205,320.931 C64.18,316.906 64.18,316.8 65.663,313.517 C66.616,311.717 67.887,310.234 68.628,310.234 z M53.166,301.761 C55.178,301.761 56.873,304.198 55.708,305.362 C54.755,306.316 53.801,306.104 52.425,304.727 C50.624,302.926 50.836,301.761 53.166,301.761 z M457.309,295.725 C457.415,295.619 459.428,296.466 461.863,297.631 C466.523,299.961 467.582,302.291 464.405,303.138 C460.487,304.198 456.886,303.774 455.191,302.185 C453.603,300.597 453.603,300.279 455.403,298.161 C456.462,296.996 457.309,295.831 457.309,295.725 z M365.309,261.535 C366.908,262.025 366.283,261.649 367.288,262.47 C367.924,262.999 369.724,263.635 371.418,263.847 C375.76,264.27 375.972,266.495 371.842,268.295 C364.217,271.684 358.498,269.354 361.887,264.165 C362.787,262.929 363.674,261.75 365.309,261.535 z M36.962,254.103 C38.869,254.103 40.139,259.186 38.551,260.776 C37.915,261.411 37.385,262.999 37.385,264.165 C37.385,265.435 37.068,266.812 36.644,267.236 C34.949,268.824 33.679,266.812 33.361,262.152 C33.044,257.069 34.314,254.103 36.962,254.103 z" fill="#000000"/>
  </g>
</svg>
