<?xml version="1.0" encoding="UTF-8"?>
<!DOCTYPE svg PUBLIC "-//W3C//DTD SVG 1.1//EN" "http://www.w3.org/Graphics/SVG/1.1/DTD/svg11.dtd">
<svg version="1.1" xmlns="http://www.w3.org/2000/svg" xmlns:xlink="http://www.w3.org/1999/xlink" x="0" y="0" width="500" height="500" viewBox="0, 0, 500, 500">
  <g id="layer102">
    <path d="M280.768,494.451 C280.982,492.955 280.875,488.681 280.447,484.942 C279.913,479.6 279.273,477.998 277.776,477.57 C273.823,476.501 274.144,466.673 278.311,464.001 C279.7,463.147 283.76,462.292 287.499,462.078 L294.337,461.758 L294.016,454.814 C293.696,448.723 291.559,436.971 288.567,424.899 C288.033,422.869 286.858,417.313 285.897,412.613 C283.119,397.869 279.059,379.813 276.601,370.945 C271.046,350.432 270.619,346.8 273.504,342.954 C276.281,339.108 276.708,328.211 274.251,322.334 C271.367,315.39 275.32,295.625 279.486,295.625 C280.341,295.625 281.196,294.45 281.623,292.953 C282.264,290.497 282.05,288.787 280.341,280.56 C279.7,277.89 280.02,277.569 285.255,276.5 C293.054,274.791 294.764,273.616 297.114,268.381 C298.61,264.962 299.892,263.68 302.136,263.253 C303.952,262.932 306.623,261.009 308.332,258.766 C310.042,256.629 313.14,252.889 315.17,250.432 C320.832,243.701 323.717,239.214 323.717,237.612 C323.717,236.757 324.572,234.941 325.64,233.659 C327.563,231.308 327.884,231.308 334.508,232.483 C338.354,233.124 343.482,233.659 345.939,233.659 C348.29,233.659 350.534,234.086 350.854,234.62 C351.282,235.154 353.952,235.902 356.944,236.329 C360.255,236.757 363.034,237.932 364.315,239.321 C365.491,240.496 368.482,241.778 370.939,242.205 C380.235,243.808 394.978,246.586 404.38,248.615 C409.722,249.791 417.093,251.18 420.94,251.821 C431.623,253.637 439.316,255.133 442.841,256.095 C444.658,256.629 449.466,257.483 453.525,258.231 C457.692,258.873 466.132,260.368 472.329,261.436 C486.325,264.107 488.355,264.107 491.56,261.65 C492.948,260.582 494.871,259.406 495.833,259.086 C497.649,258.338 500,251.607 500,246.692 C500,243.595 496.688,239 494.445,239 C494.017,239 493.59,238.359 493.59,237.505 C493.59,235.689 488.248,233.659 483.547,233.659 C481.731,233.552 477.351,232.804 473.824,231.949 C470.299,230.988 464.53,229.812 461.005,229.385 C457.478,228.851 451.175,227.675 447.115,226.821 C439.744,225.112 436.217,224.577 425.64,223.082 C419.978,222.334 416.667,220.518 416.667,218.167 C416.667,216.458 409.829,214.428 396.367,212.291 C393.162,211.757 387.606,210.902 384.081,210.261 C378.205,209.192 377.457,209.299 373.931,211.65 C371.901,213.038 369.23,214.535 367.948,214.855 C365.491,215.603 357.692,214.321 348.824,211.757 L342.948,210.047 L342.948,200.966 L342.948,191.884 L348.29,186.65 C354.166,180.881 354.914,178.103 352.029,171.265 C350.534,167.846 349.999,167.419 346.367,167.419 C342.093,167.419 334.935,163.145 334.935,160.688 C334.935,158.872 338.568,158.444 341.559,160.047 C345.405,162.077 346.153,160.367 344.978,152.996 C344.337,149.47 343.482,143.273 343.055,139.106 C342.521,135.047 340.918,127.889 339.315,123.402 C337.82,118.914 336.538,114.427 336.538,113.573 C336.538,112.611 336.004,110.795 335.255,109.406 C332.584,104.064 332.264,103.209 332.264,99.149 C332.264,96.799 331.837,94.556 331.196,94.235 C330.661,93.914 330.128,91.136 330.128,88.145 C330.128,83.124 329.807,82.482 325.32,78.529 C320.832,74.576 317.307,68.807 317.307,65.281 C317.307,64.427 315.598,61.114 313.461,58.017 C309.507,52.034 300.427,45.089 295.832,44.341 C293.268,44.021 293.268,43.914 293.696,34.405 C293.909,29.064 294.764,23.508 295.512,21.905 C297.435,18.166 297.435,13.144 295.405,11.435 C294.551,10.687 293.802,9.512 293.802,8.871 C293.696,6.734 288.567,3.85 283.332,3.102 C275.106,1.927 272.542,2.567 270.084,6.734 C268.909,8.764 267.306,10.367 266.452,10.367 C264.315,10.367 264.422,19.768 266.666,22.226 C267.627,23.294 268.482,25.751 268.482,27.674 L268.696,31.201 L261.858,31.201 C255.234,31.201 255.02,31.094 253.097,27.567 C252.029,25.537 249.678,22.44 247.862,20.517 C244.657,17.311 244.443,17.204 238.033,17.952 C234.507,18.38 227.456,18.807 222.542,18.807 C217.52,18.913 213.139,19.127 212.712,19.341 C211.003,20.41 177.242,21.264 175.96,20.303 C175.319,19.662 171.045,19.341 166.665,19.341 C158.759,19.448 158.545,19.448 154.699,23.721 C152.456,26.072 150.639,28.85 150.639,29.811 C150.639,32.589 146.687,35.688 142.199,36.435 C138.994,36.97 138.033,37.611 136.964,40.602 C136.216,42.525 135.682,45.196 135.682,46.478 C135.682,49.47 133.652,49.47 128.097,46.585 L123.716,44.448 L113.139,47.867 C107.369,49.683 102.562,51.606 102.562,52.141 C102.562,52.567 100.852,55.132 98.822,57.803 C96.792,60.581 95.083,63.465 95.083,64.32 C95.083,65.495 93.908,65.922 90.81,65.922 C85.575,65.922 74.891,69.768 72.434,72.44 C71.472,73.508 70.297,74.47 69.656,74.47 C68.374,74.47 59.186,85.047 53.31,93.487 C48.395,100.645 46.472,103.957 42.733,112.076 C41.558,114.855 40.061,117.419 39.421,117.739 C38.887,118.166 38.459,119.342 38.459,120.517 C38.459,123.188 30.767,139.534 29.591,139.534 C28.417,139.641 26.6,141.778 24.784,144.876 C19.549,153.957 19.228,154.919 19.228,160.795 C19.228,164.214 18.588,169.449 17.733,172.334 C15.382,180.774 12.925,193.06 12.071,201.073 C10.574,216.565 11.964,273.616 13.994,275.86 C14.527,276.394 14.955,277.569 14.955,278.53 C14.955,279.599 15.81,281.95 16.771,283.98 C18.694,287.719 19.976,300.112 18.907,304.385 C18.267,306.629 12.39,309.514 8.437,309.514 C7.049,309.514 3.417,313.253 1.28,316.779 C-0.11,319.343 -0.536,339.428 0.852,339.428 C1.28,339.428 2.241,342.099 2.989,345.305 C5.019,353.852 12.177,366.992 17.626,372.014 C26.066,379.813 28.844,381.629 37.711,384.621 C46.899,387.826 51.066,387.932 61.964,385.262 C66.237,384.193 67.733,384.407 76.707,387.399 C82.156,389.215 89.314,392.206 92.733,393.915 C96.045,395.625 101.814,398.509 105.446,400.326 C113.139,404.066 112.819,403.424 114.421,420.625 C114.956,427.356 115.703,435.476 116.023,438.574 C116.772,445.625 114.849,448.19 105.874,451.715 C98.61,454.6 96.259,456.416 94.443,460.904 C93.588,462.827 91.879,464.963 90.596,465.604 C87.284,467.314 86.536,468.596 86.536,473.083 C86.536,478.638 91.879,482.591 100.852,483.66 C104.379,484.194 110.468,485.369 114.314,486.331 C119.443,487.613 125.853,488.04 138.674,488.04 C148.182,488.04 156.515,487.72 157.05,487.399 C157.584,487.078 161.858,486.331 166.558,485.797 C172.114,485.155 176.281,484.087 178.097,482.698 C179.806,481.63 182.798,480.347 185.042,480.028 C187.178,479.6 190.49,477.891 192.627,475.861 C196.152,472.655 196.366,472.121 195.618,468.168 C195.084,465.817 194.122,462.613 193.375,461.01 C191.772,457.484 193.375,452.463 197.007,449.899 C199.037,448.51 199.251,447.442 198.93,439.536 C198.716,433.446 197.648,427.783 195.512,420.732 C193.695,415.176 192.306,409.942 192.306,408.98 C192.306,406.95 186.11,389.855 180.234,375.539 C177.776,369.557 176.174,363.894 175.853,359.514 C175.105,350.432 173.716,344.343 171.473,340.924 C170.298,339.108 169.87,337.184 170.404,335.261 C171.793,329.385 173.182,321.48 174.465,311.757 L175.746,301.714 L181.408,300.326 C184.614,299.471 188.139,298.082 189.421,297.227 C190.704,296.266 194.015,295.625 197.221,295.625 C202.562,295.625 202.776,295.731 203.524,299.15 C205.447,308.338 205.341,312.932 203.204,317.42 C199.144,325.86 198.396,328.637 199.144,334.407 C199.465,337.398 200.105,342.74 200.426,346.159 L201.174,352.249 L205.341,352.249 L209.507,352.249 L208.866,365.39 C207.691,391.459 206.729,463.894 207.691,465.284 C208.225,465.924 210.682,466.566 213.246,466.566 C219.229,466.566 220.619,469.558 216.559,473.831 C212.819,477.784 210.789,486.117 212.605,489.643 C213.888,491.886 214.849,492.207 220.512,492.314 C232.37,492.635 237.606,492.955 253.524,494.664 C262.285,495.519 269.764,496.587 270.084,497.015 C270.405,497.335 272.969,497.548 275.64,497.335 C279.807,497.015 280.447,496.694 280.768,494.451 z" fill="#000000"/>
  </g>
</svg>
