<?xml version="1.0" encoding="UTF-8"?>
<!DOCTYPE svg PUBLIC "-//W3C//DTD SVG 1.1//EN" "http://www.w3.org/Graphics/SVG/1.1/DTD/svg11.dtd">
<svg version="1.1" xmlns="http://www.w3.org/2000/svg" xmlns:xlink="http://www.w3.org/1999/xlink" x="0" y="0" width="500" height="500" viewBox="0, 0, 500, 500">
  <g id="layer102">
    <path d="M253.64,0 C255.625,0 256.122,0.331 257.611,2.813 C258.273,3.861 259.265,5.239 259.927,5.791 C260.81,6.618 261.03,7.445 261.03,10.369 C261.03,13.733 260.699,15.332 259.155,19.579 C257.887,23.109 259.321,25.756 262.63,26.032 C264.505,26.197 264.615,26.362 265.001,28.403 C265.884,33.643 266.49,35.573 267.428,36.124 C269.358,37.227 271.013,39.378 270.737,40.426 C270.627,40.978 270.847,41.584 271.289,41.75 C272.778,42.301 273.715,45.059 273.715,48.975 C273.715,51.015 273.439,53.001 273.109,53.332 C272.281,54.159 271.73,75.613 272.447,78.315 C272.778,79.694 273.329,80.301 274.156,80.411 C274.929,80.521 275.48,81.128 275.701,82.066 C276.418,85.43 276.914,86.312 277.907,86.478 C278.679,86.588 279.175,86.147 279.672,84.768 C280.058,83.775 280.333,82.397 280.333,81.735 C280.333,81.128 280.609,80.411 280.885,80.246 C281.216,80.08 281.436,78.922 281.436,77.764 C281.436,76.606 281.712,75.447 282.043,75.227 C282.374,75.006 282.539,74.124 282.374,73.076 C282.209,72.083 282.319,71.035 282.65,70.704 C283.256,70.098 283.367,69.546 283.973,65.355 C284.194,64.141 284.525,62.928 284.746,62.597 C284.966,62.321 285.462,59.564 285.793,56.53 C286.124,53.497 286.566,50.188 286.676,49.195 C286.786,48.203 287.393,46.713 287.999,45.831 C288.661,44.949 289.158,43.846 289.158,43.294 C289.158,42.798 289.489,41.75 289.93,40.923 C290.371,40.095 290.978,37.944 291.309,36.124 C292.191,31.381 293.57,27.576 294.342,27.576 C295.224,27.576 296.603,29.12 297.044,30.609 C297.21,31.216 297.872,33.201 298.478,34.966 C299.14,36.786 299.636,39.544 299.636,41.088 C299.636,42.963 299.912,44.232 300.409,44.673 C301.401,45.445 301.843,46.879 303.497,54.324 C304.159,57.358 305.152,61.66 305.758,63.866 C306.365,66.127 307.082,69.436 307.303,71.311 C307.578,73.186 308.295,76.606 308.902,78.922 C309.619,81.569 310.115,85.375 310.226,89.07 C310.336,92.324 310.556,95.081 310.777,95.192 C310.998,95.357 311.66,95.137 312.266,94.751 C313.314,94.089 313.7,92.544 314.252,87.14 C314.803,81.569 315.244,79.087 315.741,78.481 C316.017,78.15 316.072,76.992 315.906,75.999 C315.63,74.62 315.796,73.903 316.403,73.407 C317.395,72.58 317.561,70.318 316.733,69.767 C316.347,69.546 316.347,69.105 316.733,68.388 C317.009,67.837 317.285,66.789 317.285,66.072 C317.285,65.355 317.561,64.472 317.947,64.086 C318.443,63.59 318.443,63.093 317.947,62.046 C317.12,60.281 317.064,58.461 317.836,58.461 C318.167,58.461 318.388,58.02 318.388,57.468 C318.388,56.916 318.664,56.2 318.995,55.869 C319.436,55.427 319.381,54.71 318.884,53.276 C318.223,51.401 318.223,51.236 319.381,50.409 C320.76,49.471 320.925,48.478 319.932,46.879 C319.326,45.941 319.436,45.666 320.484,44.949 C321.918,43.901 322.028,42.577 320.87,41.033 C319.767,39.599 319.822,39.158 321.146,39.158 C322.083,39.158 322.414,38.661 322.359,36.952 C322.359,36.786 322.193,36.124 321.973,35.463 C321.697,34.525 321.863,34.194 322.524,34.194 C323.683,34.194 324.124,32.87 323.407,31.492 C322.966,30.775 322.966,29.616 323.241,28.238 C323.572,26.969 323.572,25.701 323.241,25.204 C322.91,24.542 323.076,24.156 323.903,23.715 C324.565,23.329 325.006,22.557 325.006,21.619 C325.061,19.469 326.385,14.339 327.488,12.189 L328.481,10.313 L329.308,12.464 C329.749,13.678 330.19,15.608 330.356,16.821 C330.521,18.035 330.852,19.248 331.128,19.524 C331.404,19.855 331.624,21.233 331.624,22.612 C331.624,23.991 331.845,25.37 332.121,25.701 C332.397,25.976 332.727,28.072 332.838,30.333 C333.058,34.084 333.665,36.621 334.989,39.268 C335.264,39.819 335.485,41.088 335.485,42.136 C335.485,43.184 335.761,44.232 336.037,44.397 C336.367,44.563 336.588,45.666 336.588,46.769 C336.643,47.872 336.974,49.416 337.415,50.188 C337.857,50.96 338.187,52.339 338.243,53.332 C338.243,54.269 338.463,55.262 338.794,55.427 C339.07,55.593 339.346,56.586 339.346,57.633 C339.346,58.681 339.566,59.674 339.897,59.84 C340.173,60.005 340.449,60.998 340.449,61.935 C340.504,62.928 340.835,64.307 341.276,65.079 C341.717,65.851 342.048,67.12 342.103,67.947 C342.103,68.774 342.379,69.601 342.655,69.767 C342.986,69.932 343.206,70.98 343.206,72.028 C343.206,73.076 343.427,74.344 343.703,74.896 C344.53,76.495 345.964,81.294 345.964,82.397 C345.964,82.948 346.46,85.044 347.122,87.084 C347.729,89.07 348.611,91.827 349.052,93.206 C349.494,94.585 349.824,96.24 349.824,96.901 C349.824,97.563 350.1,98.28 350.376,98.446 C350.707,98.611 350.927,99.494 350.927,100.376 C350.927,101.258 351.148,102.141 351.479,102.306 C351.755,102.472 352.031,103.299 352.031,104.126 C352.031,104.954 352.637,107.38 353.354,109.476 C354.402,112.675 354.898,113.392 355.946,113.502 C356.663,113.612 357.491,113.943 357.821,114.219 C358.538,114.936 360.524,114.826 361.296,114.054 C362.178,113.171 362.62,114.495 362.399,117.528 C362.234,119.679 362.068,119.955 360.855,120.12 C360.083,120.175 358.428,120.506 357.16,120.892 L354.788,121.499 L354.788,124.974 C354.788,126.849 355.009,128.558 355.284,128.724 C355.505,128.889 355.726,135.066 355.726,142.512 C355.781,153.983 355.891,156.189 356.663,157.237 C357.215,158.065 357.546,159.664 357.546,161.484 L357.546,164.462 L359.145,164.076 C360.469,163.8 360.8,163.966 361.131,164.848 C361.406,165.841 361.903,165.951 364.495,165.841 C367.142,165.731 367.473,165.62 367.473,164.517 C367.473,163.194 368.3,162.366 368.852,163.249 C369.293,163.966 371.168,163.966 371.444,163.304 C371.554,162.973 372.657,162.532 373.926,162.256 C375.801,161.815 376.297,161.87 376.518,162.532 C377.4,164.738 375.856,167.33 373.319,167.992 C371.499,168.433 370.948,169.646 371.775,171.025 C372.161,171.577 372.437,172.349 372.437,172.735 C372.437,173.121 372.823,174.169 373.264,175.051 C373.76,175.989 374.036,177.478 373.981,178.36 C373.815,179.905 373.981,180.07 375.58,180.236 C379.275,180.622 379.441,184.206 375.856,186.137 C374.036,187.13 373.815,187.46 373.981,189.225 C374.091,190.328 373.76,192.645 373.264,194.299 C372.216,197.884 369.128,204.171 368.245,204.447 C367.969,204.557 367.307,203.84 366.866,202.848 C365.708,200.145 364.495,200.256 362.289,203.344 C360.083,206.377 359.862,207.37 361.351,207.37 C361.958,207.37 362.62,207.646 362.785,207.922 C362.951,208.197 364.605,208.473 366.425,208.473 C368.245,208.473 370.286,208.749 370.892,209.08 C371.554,209.466 374.477,209.687 377.621,209.631 C387.383,209.521 388.872,210.128 391.96,214.981 C393.284,217.077 393.449,217.959 393.449,221.985 C393.505,225.515 393.229,227.004 392.346,228.824 C391.685,230.037 391.188,231.747 391.188,232.574 C391.243,235.939 390.526,243.55 390.03,244.432 C389.754,244.928 389.534,246.197 389.534,247.3 C389.534,248.348 389.313,249.341 389.037,249.506 C388.817,249.671 388.155,250.995 387.658,252.429 C387.107,253.863 386.335,255.848 385.894,256.786 C384.901,259.102 380.654,263.735 378.724,264.728 C377.841,265.169 376.518,265.941 375.746,266.382 C374.974,266.879 372.437,267.761 370.12,268.258 C365.598,269.305 364.605,270.243 365.763,272.394 C366.094,273.001 366.37,274.048 366.37,274.71 C366.37,275.427 367.142,276.751 368.024,277.688 C369.569,279.288 369.679,279.619 369.072,280.887 C368.576,281.99 368.576,282.928 369.072,284.913 C369.955,288.498 369.348,291.918 367.252,294.675 C364.384,298.536 363.612,299.915 363.612,301.349 C363.612,302.121 363.392,302.893 363.061,303.058 C362.785,303.224 362.509,304.216 362.509,305.264 C362.509,306.312 362.785,307.305 363.061,307.47 C363.392,307.636 363.612,309.015 363.612,310.449 C363.612,313.041 361.682,317.949 359.862,320.045 C359.366,320.596 358.869,322.086 358.704,323.354 C358.263,326.332 357.38,326.277 356.774,323.244 C356.332,321.203 356.443,320.486 357.766,317.894 C359.697,314.089 360.138,311.496 358.98,310.559 C357.766,309.566 357.215,310.118 355.34,313.978 C353.575,317.673 353.299,320.045 353.575,329.862 C353.685,334.219 353.851,335.322 354.788,336.315 C355.45,337.032 355.891,338.245 355.891,339.403 C355.891,340.451 356.167,341.94 356.498,342.712 C356.994,343.76 356.994,344.918 356.387,347.51 C355.726,350.489 355.395,351.095 353.52,352.253 C349.604,354.735 349.163,353.963 350.1,346.463 C350.541,343.098 349.88,339.238 348.611,337.859 C348.391,337.528 348.17,336.535 348.17,335.598 C348.17,334.66 347.949,333.667 347.674,333.336 C347.453,333.061 346.736,331.627 346.24,330.083 C345.688,328.593 344.75,326.663 344.199,325.836 C343.372,324.678 343.206,323.299 343.206,317.949 C343.206,311.662 343.261,311.441 345.137,307.912 C346.901,304.602 347.067,303.83 347.067,299.804 C347.067,296.881 346.791,294.785 346.24,293.738 C345.523,292.414 345.467,291.587 345.964,289.436 C346.736,285.685 346.791,285.961 343.923,282.873 C341.497,280.225 341.331,280.17 340.338,281.108 C339.732,281.659 338.904,282.873 338.518,283.865 C337.415,286.402 333.941,288.443 330.577,288.443 C329.087,288.443 327.654,288.719 327.488,288.995 C327.323,289.325 326.771,289.546 326.33,289.546 C325.833,289.546 324.675,290.153 323.683,290.925 C322.69,291.697 321.477,292.304 320.98,292.304 C320.484,292.304 319.932,292.579 319.767,292.855 C319.601,293.186 317.064,293.407 314.197,293.407 C309.178,293.407 308.847,293.352 306.806,291.697 C304.324,289.712 304.324,289.601 303.552,274.931 C303.111,267.155 303.166,265.335 303.828,264.342 C304.435,263.404 304.435,262.798 303.938,261.75 C303.276,260.261 304.049,258.661 305.427,258.661 C305.813,258.661 306.31,258.275 306.475,257.779 C306.861,256.841 305.924,254.801 305.152,254.801 C304.821,254.801 303.663,253.973 302.56,252.981 C301.401,251.933 299.636,250.94 298.644,250.774 C297.596,250.554 295.941,250.002 294.949,249.506 C292.743,248.458 291.915,248.844 291.915,250.774 C291.915,251.602 291.695,252.981 291.364,253.918 C291.088,254.856 290.702,256.51 290.536,257.558 C290.316,258.937 289.323,260.426 287.117,262.742 L283.973,265.941 L284.084,269.747 C284.139,271.842 283.973,273.993 283.698,274.545 C282.374,277.082 281.326,281.053 281.326,283.535 C281.381,285.079 281.492,286.458 281.657,286.623 C282.153,287.119 286.179,287.892 288.606,287.892 C289.985,287.892 291.86,288.278 292.743,288.774 C293.68,289.27 295.059,290.042 295.886,290.484 C298.975,292.083 300.795,296.992 298.975,298.812 C298.478,299.308 298.478,299.473 299.03,299.473 C299.416,299.473 300.464,299.97 301.291,300.576 C303.001,301.79 304.159,301.624 306.144,299.804 C307.082,298.977 308.626,298.536 311.384,298.205 C318.829,297.378 324.069,297.157 325.227,297.709 C325.889,298.039 327.157,298.536 328.15,298.922 C332.838,300.687 335.099,306.753 335.099,317.673 C335.099,324.236 334.603,327.27 333.5,328.207 C332.507,329.035 332.507,330.799 333.555,332.785 C333.996,333.612 334.382,334.936 334.382,335.653 C334.382,336.315 334.658,337.087 334.934,337.252 C335.264,337.418 335.485,338.41 335.485,339.458 C335.485,340.506 335.761,341.499 336.037,341.664 C336.367,341.83 336.588,342.823 336.588,343.76 C336.643,344.753 336.974,346.132 337.415,346.904 C337.857,347.676 338.187,349 338.243,349.882 C338.243,351.481 338.629,352.915 340.338,357.824 C341.055,359.864 341.331,360.195 342.324,359.864 C342.986,359.699 345.909,359.423 348.832,359.258 C354.181,359.037 354.181,359.037 356.112,360.747 C357.987,362.346 362.509,370.398 362.509,372.053 C362.509,372.494 362.785,372.825 363.061,372.825 C363.392,372.825 363.612,373.266 363.612,373.818 C363.612,374.369 363.833,375.031 364.054,375.362 C364.329,375.638 365.212,377.734 366.039,379.995 C366.866,382.256 367.914,384.903 368.355,385.896 C368.797,386.834 369.128,387.992 369.128,388.433 C369.128,388.929 369.403,389.481 369.679,389.646 C370.01,389.812 370.231,390.584 370.231,391.301 C370.231,392.018 370.451,392.79 370.782,392.955 C371.058,393.121 371.334,394.003 371.334,394.886 C371.334,395.768 371.609,396.651 371.885,396.816 C372.216,396.981 372.437,399.077 372.437,401.394 C372.437,404.096 372.768,406.247 373.264,407.24 C373.705,408.067 374.091,409.611 374.091,410.659 C374.091,411.652 374.367,412.645 374.643,412.81 C374.974,412.975 375.194,413.858 375.194,414.74 C375.194,415.623 375.47,416.505 375.746,416.671 C376.077,416.836 376.297,417.774 376.297,418.656 C376.297,419.594 376.904,421.138 377.676,422.131 C378.448,423.123 379.055,424.116 379.055,424.392 C379.055,424.612 379.661,425.385 380.434,426.102 C381.206,426.818 381.812,427.977 381.812,428.749 C381.812,429.521 382.088,430.293 382.364,430.458 C382.695,430.624 382.915,431.506 382.915,432.389 C382.915,433.271 383.191,434.154 383.467,434.319 C383.798,434.485 384.018,435.202 384.018,435.919 C384.018,436.58 384.405,437.628 384.846,438.235 C385.287,438.786 385.673,440.22 385.673,441.323 C385.673,442.426 385.949,443.529 386.225,443.695 C386.555,443.86 386.776,445.019 386.776,446.177 C386.776,447.335 387.052,448.493 387.328,448.659 C387.658,448.824 387.879,449.762 387.879,450.644 C387.879,451.526 388.265,453.181 388.706,454.284 C389.148,455.332 389.534,457.042 389.534,458.089 C389.534,459.082 389.809,460.075 390.085,460.24 C391.188,460.902 390.692,463.715 389.203,464.873 C387.162,466.473 387.493,469.009 389.809,469.23 C391.85,469.451 393.394,470.774 393.394,472.319 C393.394,472.98 393.725,473.863 394.111,474.304 C394.883,475.297 399.847,477.062 401.832,477.062 C402.605,477.062 403.432,477.337 403.597,477.613 C403.763,477.944 404.314,478.165 404.811,478.165 C406.355,478.165 408.837,481.584 408.837,483.735 C408.837,485.169 409.278,486.107 410.491,487.265 C411.429,488.147 412.146,489.03 412.146,489.305 C412.146,489.526 405.638,489.802 397.696,489.857 L383.191,490.022 L383.026,493.056 C382.915,494.71 382.64,496.31 382.419,496.53 C381.868,497.082 341.827,498.957 321.973,499.288 C316.899,499.398 316.458,499.343 316.237,498.295 C316.127,497.688 315.52,496.475 314.858,495.537 C314.252,494.655 313.48,493.442 313.149,492.835 C312.432,491.401 309.674,489.857 307.799,489.802 C306.972,489.746 306.144,489.526 305.979,489.195 C305.813,488.919 305.041,488.643 304.269,488.643 C303.497,488.643 302.339,488.257 301.677,487.816 C300.574,487.099 300.078,487.099 297.43,487.816 C293.79,488.809 287.558,488.809 280.058,487.926 L274.542,487.265 L274.598,485.334 C274.653,481.253 275.48,478.165 276.418,478.165 C277.355,478.165 278.238,477.227 279.396,474.856 C280.002,473.587 280.499,473.422 284.47,473.146 C288.827,472.815 293.018,471.657 293.018,470.885 C293.018,470.609 293.459,470.443 294.011,470.443 C295.059,470.443 296.052,469.506 297.32,467.245 C297.982,466.086 297.927,465.811 297.044,465.149 C296.493,464.763 295.776,464.377 295.445,464.377 C294.673,464.377 294.121,463.108 294.121,461.399 C294.121,460.737 293.901,459.965 293.625,459.689 C292.798,458.862 292.687,442.978 293.459,442.206 C294.287,441.379 294.342,436.47 293.57,435.974 C292.908,435.588 292.853,431.727 293.459,431.01 C294.342,429.962 295.335,420.421 294.728,419.208 C294.287,418.435 294.287,417.332 294.618,415.788 C294.949,414.244 294.949,413.086 294.507,412.148 C294.011,411.045 294.066,410.659 294.728,410.273 C295.445,409.887 295.61,408.398 295.666,402 C295.721,397.698 295.996,393.893 296.272,393.562 C296.548,393.231 296.934,390.97 297.044,388.543 C297.43,382.587 298.313,377.237 299.03,376.52 C299.361,376.189 299.636,374.81 299.636,373.432 C299.692,370.233 300.353,369.406 303.773,368.358 C306.199,367.641 306.53,367.365 306.641,365.931 C306.806,363.008 307.468,360.471 308.571,358.596 C309.564,356.776 309.564,356.666 308.681,355.618 C306.255,352.97 305.096,346.959 306.475,344.036 C306.916,343.043 307.413,341.113 307.468,339.734 L307.633,337.252 L305.041,337.087 C303.663,336.976 302.173,336.535 301.843,336.094 C301.456,335.708 300.85,335.322 300.519,335.322 C299.692,335.322 297.982,338.19 297.982,339.569 C297.982,340.175 297.486,341.113 296.879,341.664 C296.272,342.216 295.776,342.933 295.776,343.319 C295.776,343.65 294.893,344.753 293.846,345.801 C292.136,347.455 291.915,348.007 291.915,350.489 C291.915,353.357 289.268,361.243 287.724,362.953 C287.283,363.449 286.952,364.938 286.952,366.538 C286.952,371.226 283.973,374.204 280.499,373.101 C279.506,372.825 278.679,372.384 278.679,372.108 C278.679,371.887 278.182,371.943 277.576,372.274 C276.969,372.604 276.473,373.211 276.473,373.652 C276.473,374.094 275.921,375.362 275.259,376.52 C274.156,378.34 273.991,379.554 273.826,385.51 C273.715,389.315 273.439,392.9 273.219,393.507 C272.943,394.114 272.502,395.217 272.171,395.989 C271.84,396.761 271.454,397.919 271.233,398.581 C271.068,399.188 269.91,401.283 268.696,403.214 C267.428,405.089 265.994,407.515 265.387,408.563 L264.395,410.494 L254.578,410.383 C249.228,410.328 244.375,409.997 243.878,409.721 C243.327,409.446 240.9,409.225 238.473,409.225 L234.006,409.225 L233.951,407.185 C233.896,406.026 233.675,400.015 233.51,393.783 C233.179,383.028 233.124,382.477 232.076,382.477 C231.304,382.477 230.918,382.973 230.642,384.241 C230.476,385.234 230.035,386.392 229.704,386.723 C229.153,387.44 228.987,388.764 227.939,399.794 C227.498,405.144 227.498,406.302 228.215,407.35 C228.656,408.067 229.042,409.115 229.042,409.666 C229.042,410.218 229.263,410.88 229.484,411.211 C231.083,413.086 233.289,424.061 232.407,425.605 C232.021,426.377 231.8,426.267 231.028,424.778 C230.531,423.84 230.145,422.296 230.145,421.358 C230.145,420.476 229.925,419.263 229.649,418.711 C227.608,414.52 227.057,412.755 226.45,408.563 C226.285,407.405 225.954,406.468 225.678,406.468 C225.402,406.468 225.182,405.309 225.182,403.931 C225.182,402.552 224.796,400.677 224.244,399.849 C223.307,398.195 223.307,398.029 225.237,388.267 C225.458,386.889 225.844,384.903 226.009,383.855 C226.23,382.807 226.616,381.429 226.891,380.822 C227.222,380.16 227.333,376.575 227.222,372.274 C226.891,363.504 226.891,363.394 226.009,362.346 C225.623,361.905 225.127,359.534 224.961,357.107 C224.796,354.68 224.63,352.64 224.63,352.64 C224.63,352.584 224.079,352.419 223.472,352.253 C222.424,351.978 222.314,351.647 222.59,349.551 C222.921,346.849 221.542,344.422 219.998,345.029 C218.729,345.525 218.564,346.628 218.674,354.129 L218.839,360.967 L217.074,363.449 C216.082,364.828 215.144,366.703 214.924,367.641 C214.648,369.24 214.372,369.406 212.442,369.406 C211.284,369.461 210.181,369.24 210.015,368.964 C209.85,368.689 208.857,368.027 207.809,367.53 C205.437,366.427 205.327,365.214 207.368,361.795 C208.581,359.754 208.802,358.651 208.802,355.452 C208.802,349.386 208.14,345.249 207.092,344.808 C205.437,344.201 203.397,341.664 201.301,337.583 C200.198,335.377 199.26,333.226 199.26,332.785 C199.26,331.903 196.503,331.682 195.676,332.509 C195.345,332.785 194.131,333.116 192.918,333.226 C190.712,333.392 190.712,333.392 190.547,335.818 C190.436,337.197 190.657,338.852 191.043,339.513 C191.539,340.451 191.539,341.389 190.988,343.705 C190.602,345.304 190.105,346.904 189.885,347.18 C189.388,347.841 188.782,359.534 189.168,360.581 C189.278,360.912 189.83,361.243 190.381,361.243 C191.65,361.243 192.642,362.346 192.642,363.78 C192.642,365.269 193.966,366.427 195.179,365.986 C195.62,365.821 196.503,365.931 197.11,366.207 C197.992,366.703 198.157,367.42 198.157,370.343 C198.157,372.274 198.433,374.038 198.709,374.204 C199.04,374.369 199.26,376.134 199.26,378.12 C199.26,380.105 199.536,382.752 199.812,384.021 C200.639,387.275 201.467,396.981 201.797,407.295 C201.963,412.148 202.349,416.505 202.625,417.057 C203.342,418.38 203.231,422.131 202.459,422.903 C201.963,423.399 202.128,423.895 203.287,425.109 C204.996,426.874 205.107,427.866 203.948,429.411 C202.901,430.789 202.901,435.698 203.948,437.683 C204.996,439.669 204.996,440.717 203.948,442.095 C203.342,442.923 203.176,445.349 203.121,454.339 C203.121,463.494 203.011,465.48 202.349,465.48 C201.908,465.48 201.411,465.866 201.246,466.362 C200.75,467.576 200.805,467.686 201.742,467.686 C202.239,467.686 202.845,468.293 203.121,469.065 C203.397,469.837 203.948,470.443 204.334,470.443 C205.879,470.443 209.629,472.263 209.905,473.146 C210.015,473.642 211.228,474.359 212.607,474.745 C214.041,475.186 215.696,476.124 216.413,476.841 C217.185,477.668 218.288,478.165 219.225,478.165 C220.604,478.165 220.99,478.551 221.873,480.536 C222.479,481.86 223.693,483.735 224.63,484.673 C225.513,485.665 226.285,486.603 226.285,486.768 C226.285,487.099 211.559,486.713 199.867,486.107 C196.172,485.941 193.966,485.996 193.58,486.382 C193.249,486.713 192.311,486.989 191.484,486.989 C190.712,486.989 188.947,487.375 187.679,487.816 C186.41,488.257 184.59,488.643 183.653,488.643 L181.998,488.643 L182.329,492.173 C182.715,496.144 182.494,496.365 178.193,496.365 C176.317,496.365 176.152,496.475 175.987,498.185 C175.821,500.17 175.876,500.115 170.03,499.894 C148.686,499.012 133.465,498.46 126.185,498.405 L117.36,498.295 L117.195,496.861 C117.085,495.979 116.533,495.151 115.651,494.82 C114.934,494.434 114.327,493.828 114.327,493.331 C114.327,492.67 113.665,492.504 111.294,492.504 C109.639,492.504 108.26,492.78 108.26,493.056 C108.26,493.387 106.606,493.607 104.4,493.607 C102.194,493.607 100.539,493.387 100.539,493.056 C100.539,492.78 99.877,492.504 99.05,492.504 C98.168,492.504 97.009,492.118 96.458,491.677 C95.851,491.236 94.803,490.85 94.086,490.85 C93.314,490.85 92.818,490.519 92.818,489.967 C92.818,488.809 90.612,487.044 89.123,486.989 C88.02,486.989 87.854,486.713 87.854,484.948 C87.909,482.632 88.902,480.922 90.226,480.922 C90.722,480.922 91.88,480.15 92.818,479.268 C93.811,478.33 95.245,477.448 96.127,477.227 C97.23,477.062 97.782,476.565 97.892,475.738 C98.002,474.911 98.498,474.525 99.712,474.414 C101.532,474.194 103.297,472.87 103.297,471.767 C103.297,471.05 104.124,470.719 106.882,470.333 C107.874,470.168 107.985,469.782 107.874,466.859 C107.819,465.039 107.764,462.943 107.764,462.226 C107.709,461.454 108.15,460.406 108.646,459.854 C109.419,458.972 109.474,458.531 108.977,457.207 C108.646,456.38 108.591,455.442 108.812,455.166 C109.088,454.946 109.363,453.622 109.529,452.243 C109.749,450.037 110.135,448.548 111.625,444.798 C111.845,444.191 112.176,442.978 112.286,442.04 C112.452,441.158 112.838,439.393 113.224,438.18 C113.555,436.966 114.051,434.981 114.382,433.768 C115.871,427.26 116.974,424.282 118.574,422.131 C119.291,421.193 119.842,419.925 119.842,419.263 C119.842,418.601 120.449,417.553 121.166,416.836 C121.993,416.009 122.71,414.409 123.151,412.424 C123.482,410.659 124.034,409.115 124.309,408.949 C124.585,408.729 124.806,408.122 124.806,407.515 C124.806,406.964 125.026,406.468 125.357,406.468 C125.633,406.468 126.019,405.585 126.24,404.537 C126.405,403.489 126.791,402.441 127.067,402.276 C127.343,402.111 127.563,401.614 127.563,401.173 C127.563,400.732 128.06,399.849 128.666,399.188 C129.273,398.526 129.825,397.147 129.88,396.044 C130.1,390.804 130.321,388.929 130.928,386.889 C131.314,385.675 131.81,384.462 132.086,384.186 C132.306,383.855 132.527,383.138 132.527,382.477 C132.527,381.815 132.748,381.098 133.023,380.767 C133.244,380.491 133.906,378.892 134.402,377.237 C135.56,373.487 135.395,373.763 140.303,363.725 C144.109,355.893 146.37,352.419 147.639,352.419 C147.969,352.419 149.514,353.026 151.003,353.798 C154.202,355.342 157.952,355.618 159.22,354.294 C160.103,353.412 160.323,352.75 160.93,348.834 C161.316,346.352 162.199,343.264 162.916,341.83 C163.191,341.278 163.412,340.065 163.412,339.072 C163.412,337.363 163.522,336.811 165.397,330.799 L166.335,327.601 L164.901,324.898 C163.743,322.803 163.412,321.479 163.412,318.666 C163.412,316.736 163.136,314.861 162.805,314.53 C162.143,313.868 162.364,311 163.412,306.367 C164.68,300.632 164.68,300.576 163.688,299.473 C163.136,298.867 162.143,298.37 161.537,298.37 C160.875,298.37 159.772,297.874 159,297.267 C158.228,296.661 157.07,296.164 156.463,296.164 C155.801,296.164 154.974,295.833 154.643,295.392 C154.312,294.951 153.319,294.51 152.492,294.344 C146.536,293.186 144.164,291.366 144.109,287.836 C144.109,285.685 143.833,285.355 138.373,280.225 C135.781,277.744 133.961,274.876 134.457,274.048 C134.623,273.828 134.512,273.497 134.182,273.276 C133.906,273.111 133.63,272.228 133.63,271.346 C133.63,269.25 131.92,266.217 128.887,263.128 C127.563,261.75 126.46,260.316 126.46,259.985 C126.46,259.654 125.854,258.827 125.082,258.11 C124.089,257.172 123.703,256.234 123.703,254.745 C123.703,253.091 123.482,252.594 122.489,252.264 C119.456,251.326 113.169,243.219 115.43,243.219 C116.754,243.219 115.816,241.178 114.106,240.241 C112.838,239.579 112.066,238.696 111.845,237.704 C111.459,235.939 112.011,232.299 112.728,231.857 C113.003,231.692 113.224,230.258 113.224,228.659 C113.224,226.453 112.948,225.515 112.121,224.743 C110.577,223.364 110.577,219.504 112.121,218.125 C112.728,217.573 113.224,216.856 113.224,216.47 C113.224,216.084 113.72,215.367 114.327,214.816 C115.209,214.043 115.595,213.933 116.092,214.43 C116.478,214.816 117.912,215.091 119.291,215.091 C121.993,215.091 123.703,213.933 123.703,212.168 C123.703,211.672 123.979,211.231 124.254,211.231 C124.585,211.231 124.806,210.128 124.806,208.859 C124.806,206.322 125.964,204.613 127.674,204.613 C128.17,204.613 128.832,204.227 129.218,203.785 C130.1,202.737 128.942,196.34 127.453,193.858 C126.902,192.92 126.46,191.1 126.46,189.722 C126.46,185.861 125.964,184.813 124.034,184.317 C122.655,183.931 122.269,183.545 122.159,182.111 C121.993,180.566 122.159,180.346 123.372,180.346 C125.578,180.346 126.46,178.967 126.46,175.493 C126.46,173.286 126.791,171.797 127.619,170.474 C128.28,169.371 128.666,167.937 128.556,166.889 C128.391,165.455 128.115,165.124 126.736,165.014 C124.696,164.738 123.703,163.966 123.703,162.587 C123.703,161.319 125.192,160.657 126.074,161.539 C126.902,162.366 129.935,162.311 130.762,161.484 C131.259,160.988 131.589,160.988 132.086,161.484 C133.079,162.477 134.788,162.311 136.829,161.043 C138.208,160.16 139.586,159.94 143.006,159.94 L147.418,159.94 L148.521,157.513 C149.459,155.417 149.624,153.708 149.734,146.042 C149.845,141.078 149.679,135.011 149.403,132.474 C148.962,128.338 149.017,127.786 150.01,126.408 C151.609,124.257 151.996,121.003 150.837,119.624 C150.341,119.072 149.514,118.576 148.962,118.576 C148.411,118.576 147.969,118.355 147.969,118.025 C147.969,117.749 147.694,117.473 147.308,117.473 C146.977,117.473 145.874,116.866 144.826,116.039 C143.557,115.046 143.006,114.219 143.006,113.116 C143.006,111.186 144.936,109.255 145.874,110.193 C146.26,110.579 147.087,110.855 147.749,110.855 C148.411,110.855 149.128,111.241 149.293,111.737 C149.9,113.392 154.588,111.296 154.588,109.366 C154.588,108.98 155.084,108.649 155.691,108.649 C156.518,108.649 156.794,108.263 156.794,107.325 C156.794,106.553 156.518,105.781 156.242,105.615 C155.856,105.395 155.856,104.954 156.242,104.237 C156.518,103.685 156.794,102.417 156.794,101.479 C156.794,100.541 157.07,99.218 157.456,98.556 C158.062,97.398 158.669,94.364 159.331,88.794 C159.496,87.415 159.882,86.092 160.158,85.816 C160.434,85.485 160.654,83.941 160.654,82.286 C160.654,80.687 160.93,78.812 161.261,78.205 C161.813,77.157 162.419,74.344 163.191,68.94 C163.357,67.892 163.688,66.513 163.963,65.906 C164.625,64.307 165.673,60.17 166.004,57.909 C166.114,56.861 166.445,55.483 166.666,54.876 C167.603,52.67 170.03,42.136 170.03,40.426 C170.03,39.764 170.306,39.047 170.582,38.882 C170.913,38.716 171.133,37.613 171.133,36.455 C171.133,35.352 171.464,34.084 171.795,33.753 C172.236,33.312 172.457,31.712 172.402,29.616 C172.347,27.741 172.622,24.708 173.063,22.888 C173.45,21.068 174.111,17.979 174.497,15.994 C175.6,10.424 178.854,5.184 178.854,9.045 C178.854,9.817 179.075,10.975 179.406,11.692 C179.682,12.409 180.178,14.395 180.399,16.159 C180.84,18.917 180.73,19.524 179.902,20.682 C178.579,22.281 178.579,22.171 180.178,23.881 C181.391,25.204 181.502,25.811 181.557,30.609 C181.557,33.532 181.777,36.179 181.998,36.566 C182.384,37.227 182.66,38.827 183.708,48.313 C183.984,50.74 184.37,53.056 184.645,53.442 C185.031,54.159 185.528,56.916 186.576,64.527 C187.568,71.642 188.12,74.73 188.727,76.275 C189.057,77.157 189.333,78.922 189.333,80.246 C189.333,81.569 189.554,82.838 189.885,83.003 C190.16,83.169 190.436,84.327 190.436,85.54 C190.436,87.967 190.436,88.022 192.753,86.809 C193.966,86.147 194.242,85.761 193.8,85.32 C192.918,84.437 193.028,82.727 193.966,82.727 C195.234,82.727 195.565,81.624 194.793,80.135 C194.131,78.922 194.187,78.701 195.29,77.819 C196.448,76.992 196.448,76.826 195.731,75.834 C194.628,74.344 194.628,74.069 195.951,73.738 C196.834,73.517 197.054,73.076 196.944,71.807 C196.889,70.87 197.11,69.767 197.496,69.326 C198.047,68.664 198.047,68.223 197.551,67.064 C196.999,65.961 196.999,65.465 197.496,64.969 C197.882,64.583 198.157,63.755 198.157,63.038 C198.157,62.321 198.378,61.329 198.654,60.777 C200.088,57.964 200.474,56.861 200.198,56.144 C200.088,55.758 200.308,54.986 200.75,54.49 C201.356,53.828 201.411,53.332 201.025,52.56 C200.584,51.843 200.639,51.346 201.246,50.684 C201.742,50.133 202.128,48.478 202.184,46.383 C202.239,44.563 202.459,43.018 202.68,43.018 C202.901,43.018 203.121,41.695 203.121,40.095 C203.121,38.496 203.397,36.896 203.728,36.566 C204.114,36.179 204.445,35.242 204.555,34.359 C204.61,33.532 204.996,32.76 205.272,32.65 C205.603,32.539 205.879,31.878 205.879,31.161 C205.879,28.679 209.629,22.778 210.567,23.826 C211.173,24.487 213.269,32.87 213.434,35.297 C213.6,36.952 213.876,38.606 214.151,38.882 C214.372,39.213 214.593,40.647 214.648,42.136 C214.703,43.68 215.089,45.28 215.53,45.776 C216.027,46.327 216.413,48.092 216.523,50.243 C216.633,52.173 216.909,54.159 217.13,54.655 C217.35,55.152 217.571,56.365 217.681,57.413 C217.791,58.461 217.957,59.674 218.122,60.115 C219.391,63.866 219.501,64.472 219.005,64.969 C218.674,65.3 218.784,66.182 219.281,67.34 C220.714,70.704 221.321,73.131 221.321,75.447 C221.321,76.716 221.542,77.764 221.818,77.764 C222.314,77.764 222.976,80.963 222.976,83.279 C222.976,84.051 223.527,85.706 224.189,87.029 C225.182,89.015 225.292,89.621 224.741,90.504 C223.748,92.103 223.913,92.544 225.954,93.482 C228.105,94.475 229.042,94.254 229.042,92.655 C229.042,92.103 229.318,91.441 229.594,91.276 C229.925,91.111 230.145,90.118 230.145,89.07 C230.145,88.022 230.421,87.029 230.697,86.864 C231.028,86.698 231.248,85.595 231.248,84.437 C231.248,83.224 231.579,82.01 232.076,81.624 C232.793,81.073 232.903,78.812 232.903,68.002 C232.903,60.115 232.682,54.655 232.351,53.993 C231.965,53.332 231.965,52.615 232.241,52.008 C232.572,51.456 232.572,50.519 232.241,49.581 C231.524,47.541 232.682,41.915 233.73,41.915 C236.543,41.915 238.97,39.047 238.97,35.683 C238.97,34.69 239.356,33.367 239.797,32.76 C240.238,32.209 240.624,30.885 240.624,29.892 C240.624,27.576 241.672,26.473 244.319,26.087 C245.478,25.921 246.856,25.37 247.408,24.929 C248.566,23.936 248.676,20.572 247.573,19.027 C247.187,18.421 246.691,16.821 246.47,15.442 C246.305,14.064 245.974,12.078 245.808,10.975 C245.202,7.28 250.386,0 253.64,0 z M265.387,370.619 C265.112,370.619 264.284,377.403 264.229,380.822 C264.119,383.359 265.056,390.253 265.608,390.915 C266.821,392.459 269.469,391.246 270.351,388.764 C271.233,386.117 271.068,383.469 269.965,382.366 C268.807,381.208 267.097,377.734 267.097,376.465 C267.097,375.086 265.829,370.619 265.387,370.619 z M270.798,344.35 C269.776,344.409 270.214,344.321 269.469,344.532 C267.979,345.029 267.924,345.194 267.759,349.275 L267.593,353.522 L271.178,353.522 C274.708,353.522 274.708,353.522 275.756,351.481 C276.362,350.323 276.749,349 276.638,348.558 C276.528,348.117 275.204,346.904 273.715,345.856 C272.802,345.247 271.9,344.568 270.798,344.35 z M227.708,342.147 L227.093,342.15 C225.926,342.554 226.449,342.339 225.513,342.767 C223.141,343.926 222.204,345.36 222.865,346.738 C223.141,347.29 223.803,348.669 224.354,349.827 C224.906,350.985 226.009,352.253 226.781,352.64 C227.553,353.081 229.042,353.412 230.09,353.357 L231.965,353.246 L232.186,349.882 C232.351,347.786 232.186,346.297 231.855,346.077 C231.524,345.911 231.248,345.304 231.248,344.808 C231.248,344.257 230.421,343.374 229.373,342.823 C228.479,342.358 229.023,342.609 227.708,342.147 z M241.169,334.868 L240.79,334.881 C239.962,335.046 239.742,335.763 239.632,338.631 C239.466,342.547 238.915,343.595 236.984,343.595 C235.881,343.595 235.55,344.091 234.778,346.683 C234.227,348.558 234.116,349.992 234.392,350.268 C234.668,350.544 236.212,350.93 237.811,351.15 C239.356,351.316 240.79,351.702 240.955,351.978 C241.396,352.64 264.45,352.474 265.332,351.757 C265.663,351.426 265.994,350.213 265.994,349 C265.994,346.352 264.45,344.146 261.968,343.319 C260.203,342.767 260.203,342.712 260.038,338.741 C259.927,335.929 259.652,334.77 259.21,334.936 C258.879,335.046 258.438,335.873 258.218,336.756 C257.445,340.616 257.115,340.837 251.324,340.837 C247.849,340.837 245.588,340.561 244.54,340.065 C243.051,339.293 241.727,337.142 241.727,335.543 C241.618,335.019 241.75,335.279 241.169,334.868 z M292.325,334.633 C292.078,334.649 291.821,334.608 291.585,334.681 C290.559,334.993 290.324,335.224 289.544,335.763 C287.834,337.142 284.58,338.796 280.499,340.286 C279.506,340.672 278.679,341.168 278.679,341.389 C278.679,341.995 279.892,342.878 281.161,343.209 C283.367,343.76 285.959,343.595 287.393,342.823 C289.268,341.83 291.695,339.238 292.081,337.804 C292.191,337.197 292.522,336.315 292.687,335.818 C292.858,335.316 292.931,334.822 292.325,334.633 z M206.754,333.283 C206.617,333.323 206.463,333.328 206.341,333.403 C205.946,333.645 205.892,334.136 205.879,334.55 C205.879,335.598 208.802,339.127 210.511,340.12 C213.434,341.83 215.916,340.286 213.379,338.41 C212.497,337.749 210.897,336.26 209.739,335.101 C208.886,334.302 207.986,333.372 206.754,333.283 z M280.354,321.701 C278.451,321.827 278.174,323.135 277.3,324.678 C276.693,325.836 275.535,327.601 274.708,328.593 C273.66,329.807 273.164,331.02 273.164,332.289 L273.164,334.219 L276.362,334.219 C280.333,334.219 285.683,331.792 287.779,328.979 C288.992,327.435 289.103,326.994 288.551,325.781 C287.889,324.292 287.007,323.795 282.705,322.306 C281.936,322.051 281.166,321.777 280.354,321.701 z M222.356,323.853 L222.093,323.906 C221.652,324.181 218.95,324.347 216.082,324.347 C211.835,324.292 210.787,324.457 210.401,325.229 C209.353,327.104 214.593,333.116 217.295,333.116 C217.957,333.116 218.674,333.392 218.839,333.667 C219.005,333.998 220.328,334.219 221.762,334.219 C223.858,334.219 224.796,333.888 226.45,332.509 C227.553,331.572 228.491,330.358 228.491,329.696 C228.116,327.511 224.424,324.469 222.356,323.853 z M207.816,243.397 C206.92,243.653 206.216,244.231 205.603,244.928 C203.562,247.134 200.915,248.734 199.426,248.734 C198.819,248.734 197.882,249.23 197.385,249.782 C196.834,250.388 195.345,251.381 194.021,251.988 C190.988,253.422 190.767,253.808 192.091,255.518 C192.697,256.29 193.194,257.393 193.194,258.055 C193.194,259.268 194.848,262.467 196.558,264.673 C197.165,265.39 197.606,266.824 197.606,267.871 C197.606,268.864 197.992,270.629 198.433,271.732 C199.26,273.662 199.205,273.938 198.213,276.365 C197.385,278.24 196.999,280.722 196.779,285.189 C196.613,288.664 196.282,293.186 196.007,295.227 C195.786,297.267 195.731,299.087 195.896,299.198 C196.393,299.694 197.937,299.473 198.599,298.812 C198.985,298.425 199.26,297.212 199.26,296.054 C199.26,294.344 199.702,293.462 201.356,291.697 C203.066,289.822 203.893,289.381 206.044,289.16 C207.919,288.939 208.802,288.498 209.464,287.561 C210.181,286.458 210.787,286.237 214.262,286.127 C217.902,285.961 218.343,285.851 219.06,284.527 C219.832,283.204 219.722,282.597 217.847,276.806 C216.744,273.332 215.806,269.416 215.751,268.037 C215.751,265.555 215.144,264.287 212.442,260.812 C211.339,259.378 210.842,257.779 210.291,254.249 C209.188,246.583 208.581,243.825 207.974,243.439 L207.816,243.397 z M350.171,274.566 L349.958,274.593 C349.067,274.904 347.097,276.23 347.343,277.358 C347.563,277.744 348.391,277.964 349.163,277.854 C350.266,277.744 350.707,277.302 350.817,276.365 C350.927,275.648 350.817,274.876 350.541,274.655 L350.391,274.568 L350.171,274.566 z M165.342,210.128 C164.35,210.128 164.019,210.459 163.853,211.672 C163.688,213.106 163.577,213.161 160.654,213.051 C157.952,212.94 157.511,213.106 156.573,214.374 C155.525,215.753 155.58,215.808 156.739,218.07 C159.11,222.702 165.673,233.071 166.831,234.008 C167.99,235.001 168.1,235.001 168.762,234.064 C169.148,233.567 170.03,232.464 170.692,231.692 C171.409,230.865 173.45,228.383 175.214,226.122 C178.91,221.489 179.13,221.213 181.888,218.125 C182.936,216.967 183.818,215.643 183.818,215.202 C183.818,214.099 182.274,211.341 181.502,211.065 C180.509,210.734 177.09,211.286 176.262,211.893 C175.821,212.279 175.159,212.113 174.332,211.562 C172.953,210.569 170.251,210.403 169.754,211.231 C169.258,212.058 167.273,211.893 166.942,210.955 C166.721,210.514 166.004,210.128 165.342,210.128 z M336.588,216.084 L334.878,216.415 C333.941,216.58 332.562,216.746 331.79,216.746 C330.907,216.746 330.19,217.297 329.529,218.4 C328.922,219.504 327.378,220.717 325.172,221.82 L321.752,223.474 L325.117,227.556 C328.922,232.188 330.466,232.795 331.735,229.982 C332.286,228.659 332.893,228.217 334.547,227.942 L336.588,227.611 L336.588,216.084 z" fill="#000000"/>
  </g>
</svg>
