<?xml version="1.0" encoding="UTF-8"?>
<!DOCTYPE svg PUBLIC "-//W3C//DTD SVG 1.1//EN" "http://www.w3.org/Graphics/SVG/1.1/DTD/svg11.dtd">
<svg version="1.1" xmlns="http://www.w3.org/2000/svg" xmlns:xlink="http://www.w3.org/1999/xlink" x="0" y="0" width="500" height="500" viewBox="0, 0, 500, 500">
  <g id="layer101">
    <path d="M0,446.979 C0,441.146 3.333,434.479 11.111,425.312 C20.278,414.479 22.222,410.035 22.222,400.312 C22.222,391.424 24.167,386.146 29.444,379.757 C35.278,372.812 36.111,369.479 34.722,361.146 C33.333,352.257 33.889,350.312 40.278,346.146 C47.222,341.701 47.5,340.035 45.833,328.924 C44.167,317.535 44.444,316.701 51.389,315.035 C61.111,312.535 64.167,305.59 62.222,290.59 L60.278,278.09 L71.111,277.257 C81.389,276.424 81.944,275.868 86.389,261.146 C90.556,247.257 91.667,245.868 98.889,245.868 C106.111,245.868 106.667,245.035 107.5,231.979 C108.611,214.201 109.722,211.146 115.833,211.146 C119.444,211.146 122.5,206.979 125.833,197.257 C131.111,182.257 136.111,180.035 145.278,188.09 C150.278,192.812 150.833,192.812 156.667,185.312 C164.167,176.146 164.444,173.368 165,133.368 C165.278,102.812 165.556,100.868 173.611,89.201 C178.333,82.257 189.722,70.59 199.444,63.368 C231.944,38.09 268.056,38.09 300.556,63.368 C310.278,70.59 321.944,82.257 326.389,89.201 C334.444,100.868 334.722,102.812 335,133.368 C335.556,173.368 335.833,176.146 343.333,185.312 C349.167,192.812 349.722,192.812 354.722,188.09 C363.889,180.035 368.889,182.257 374.167,197.257 C377.5,206.979 380.556,211.146 384.167,211.146 C390.278,211.146 391.389,214.201 392.5,231.979 C393.333,245.035 393.889,245.868 401.111,245.868 C408.333,245.868 409.444,247.257 413.611,261.146 C418.056,275.868 418.611,276.424 428.889,277.257 L439.722,278.09 L437.778,290.59 C435.833,305.59 438.889,312.535 448.611,315.035 C455.556,316.701 455.833,317.535 454.167,328.924 C452.5,340.035 452.778,341.701 459.722,346.146 C466.111,350.312 466.667,352.257 465.278,361.146 C463.889,369.479 464.722,372.812 470.556,379.757 C475.833,386.146 477.778,391.424 477.778,400.312 C477.778,410.035 479.722,414.479 488.889,425.312 C496.667,434.479 500,441.146 500,446.979 L500,455.59 L444.444,455.59 C381.111,455.59 381.667,455.868 389.722,434.201 C392.222,427.535 393.611,420.59 393.056,418.646 C392.5,416.979 387.5,400.312 381.667,381.979 C370.833,346.424 358.333,319.757 343.611,300.868 C315.556,264.757 310.278,258.368 308.333,258.368 C307.222,258.368 301.667,254.757 295.833,250.035 C283.056,240.035 278.056,239.757 268.333,248.646 C260.556,255.868 258.889,266.979 265,271.979 C267.222,273.924 269.722,279.479 270.556,284.757 C271.667,290.312 274.167,294.479 276.389,294.479 C282.222,294.479 284.722,305.868 279.444,308.924 C272.778,312.812 274.167,316.146 282.5,317.257 C287.222,317.812 290.556,320.035 291.111,322.812 C292.222,328.924 282.222,338.924 274.722,338.924 C271.389,338.924 264.444,340.868 259.167,343.646 C250,347.812 248.889,347.812 241.667,343.646 C237.5,340.868 230.556,338.924 226.667,338.924 C218.056,338.924 207.5,329.479 208.889,322.812 C209.444,320.035 212.778,317.812 217.5,317.257 C225.833,316.146 227.222,312.812 220.556,308.924 C215.278,305.868 217.778,294.479 223.611,294.479 C225.833,294.479 228.333,290.312 229.444,285.035 C230.278,279.757 233.611,273.368 236.389,270.59 C243.889,263.924 243.056,258.646 232.778,249.479 C221.667,239.757 217.222,239.757 204.167,250.035 C198.333,254.757 192.778,258.368 191.667,258.368 C189.722,258.368 184.444,264.757 156.389,300.868 C141.667,319.757 129.167,346.424 118.333,381.979 C112.5,400.312 107.5,416.979 106.944,418.646 C106.389,420.59 107.778,427.535 110.278,434.201 C118.333,455.868 118.889,455.59 55.556,455.59 L0,455.59 L0,446.979 z M254.722,116.146 C256.389,114.201 256.944,107.257 256.111,100.868 C255.278,91.701 253.889,88.924 250,88.924 C246.111,88.924 244.722,91.701 243.889,100.868 C242.5,111.701 245.278,119.479 250,119.479 C251.111,119.479 253.333,117.812 254.722,116.146 z M207.5,98.646 C208.056,90.312 207.5,83.368 206.667,83.368 C204.444,83.368 197.222,101.979 197.222,108.368 C197.222,111.701 199.167,113.924 202.222,113.924 C206.111,113.924 206.944,111.146 207.5,98.646 z M302.778,108.368 C302.778,101.979 295.556,83.368 293.333,83.368 C292.5,83.368 291.944,90.312 292.5,98.646 C293.056,111.146 293.889,113.924 298.056,113.924 C300.833,113.924 302.778,111.701 302.778,108.368 z" fill="#000000"/>
  </g>
</svg>
