<?xml version="1.0" encoding="UTF-8"?>
<!DOCTYPE svg PUBLIC "-//W3C//DTD SVG 1.1//EN" "http://www.w3.org/Graphics/SVG/1.1/DTD/svg11.dtd">
<svg version="1.1" xmlns="http://www.w3.org/2000/svg" xmlns:xlink="http://www.w3.org/1999/xlink" x="0" y="0" width="500" height="500" viewBox="0, 0, 500, 500">
  <g id="Background">
    <rect x="0" y="0" width="500" height="500" fill="#000000" fill-opacity="0"/>
  </g>
  <g id="svgg">
    <path d="M411.905,101.205 C411.346,101.546 409.693,102.738 408.231,103.854 C406.769,104.968 404.652,106.507 403.526,107.271 C402.401,108.035 397.975,111.306 393.691,114.538 C389.408,117.771 384.187,121.712 382.089,123.294 C377.902,126.453 375.254,128.851 375.254,129.482 C375.254,129.911 375.949,130.633 379.492,133.874 C382.405,136.54 381.651,137.742 378.55,135.374 C377.057,134.234 376.725,134.187 374.556,134.794 C373.62,135.057 373.576,136.079 374.441,137.555 C374.888,138.318 375.254,139.179 375.254,139.469 C375.254,139.758 375.54,140.173 375.891,140.391 C376.526,140.788 376.762,142.041 376.259,142.351 C375.696,142.7 374.563,141.538 374.748,140.801 C374.901,140.192 374.539,139.802 372.347,138.214 C368.078,135.12 368.335,135.392 368.986,134.672 C369.798,133.775 368.892,132.942 367.991,133.756 C367.074,134.588 364.447,132.869 364.447,131.439 C364.447,130.397 363.254,129.296 361.677,128.879 C360.84,128.659 359.583,128.086 358.883,127.605 C354.63,124.681 351.086,123.725 349.616,125.106 L348.89,125.787 L348.58,124.974 C348.326,124.304 347.945,124.093 346.425,123.786 C345.41,123.583 344.109,123.213 343.536,122.965 C341.47,122.076 338.784,123.259 337.669,125.551 C337.103,126.719 336.757,127.037 335.759,127.305 C333.908,127.804 332.735,129.066 331.85,131.511 C330.603,134.96 330.779,136.388 333.134,141.907 C333.544,142.868 333.96,144.025 334.057,144.479 C334.155,144.932 334.936,146.219 335.791,147.339 C336.706,148.536 337.435,149.868 337.56,150.567 C337.854,152.213 338.977,153.393 340.798,153.972 C342.277,154.443 342.349,154.52 342.57,155.893 C342.773,157.161 343.118,157.631 345.612,160.025 C349.875,164.123 350.371,165.259 348.405,166.419 C346.586,167.492 345.056,170.939 345.056,173.963 C345.056,175.617 348.298,183.609 350.094,186.379 C350.82,187.499 351.417,188.716 351.42,189.081 C351.424,189.447 351.7,190.346 352.033,191.079 C353.035,193.288 352.954,193.309 342.392,193.558 C337.903,193.663 334.215,193.886 333.865,194.073 C333.017,194.528 322.343,193.865 319.626,193.189 C317.986,192.781 317.202,192.356 315.827,191.131 C314.874,190.283 313.831,189.589 313.507,189.589 C312.74,189.589 311.043,190.469 311.043,190.867 C311.043,191.996 308.386,190.057 307.189,188.057 C306.805,187.413 306.217,186.581 305.885,186.208 C305.552,185.835 304.849,184.619 304.324,183.506 C303.798,182.393 303.188,181.268 302.968,181.005 C302.749,180.743 302.389,179.885 302.168,179.099 C301.946,178.311 300.98,175.991 300.023,173.942 C298.031,169.681 298.031,169.17 300.026,168.308 C301.587,167.633 302.217,166.979 302.905,165.312 C303.941,162.804 303.606,161.978 300.843,160.237 C299.867,159.622 298.807,158.715 298.489,158.221 C297.833,157.204 296.744,156.013 294.129,153.462 C293.131,152.489 292.157,151.213 291.964,150.63 C291.556,149.391 290.185,148.107 288.092,147.004 C285.983,145.891 285.156,146.248 283.686,148.906 C279.296,156.843 276.329,162.086 275.811,162.822 C275.478,163.295 274.393,165.397 273.4,167.496 C272.408,169.593 271.494,171.502 271.369,171.738 C271.243,171.975 270.587,172.357 269.911,172.59 C267.402,173.452 265.153,176.384 264.183,180.052 C263.883,181.188 263.505,182.557 263.341,183.094 C263.177,183.631 263.043,184.88 263.043,185.871 C263.043,187.263 262.823,188.092 262.072,189.524 C260.956,191.655 260.763,193.985 261.574,195.552 C261.848,196.082 262.223,197.188 262.407,198.008 C262.591,198.828 263.202,200.089 263.767,200.809 C264.33,201.531 265.41,202.895 266.165,203.841 C266.921,204.789 267.421,205.668 267.278,205.797 C266.948,206.091 264.663,206.711 262.452,207.105 C260.013,207.54 259.079,208.126 257.426,210.255 C256.271,211.741 255.525,212.344 253.888,213.109 L251.815,214.079 L250.554,213.207 C249.862,212.726 248.576,211.508 247.697,210.497 C245.778,208.291 245.251,208.305 239.457,210.716 C237.842,211.389 236.082,215.865 236.651,217.85 C237.206,219.785 235.961,220.204 232.856,219.13 C226.852,217.051 221.711,222.747 224.559,228.326 C225.489,230.151 224.878,230.32 222.293,228.953 C220.416,227.96 220.277,227.81 220.115,226.591 C219.736,223.757 214.227,218.824 212.909,220.141 C212.716,220.336 212.413,220.406 212.238,220.298 C211.886,220.079 205.105,211.196 203.147,208.386 C202.46,207.401 200.952,205.665 199.795,204.528 C198.639,203.391 197.189,201.819 196.575,201.032 C195.531,199.695 195.012,198.952 192.419,195.072 C191.863,194.242 191.157,193.315 190.85,193.012 C190.541,192.709 190.198,191.78 190.084,190.946 C189.742,188.414 189.266,187.305 187.871,185.791 C184.25,181.862 182.62,179.637 182.62,178.621 C182.62,177.319 179.439,173.414 178.01,172.964 C177.486,172.799 176.468,172.098 175.748,171.406 C173.463,169.209 170.913,170.525 171.802,173.445 C172.03,174.194 172.194,175.378 172.168,176.078 C172.117,177.355 172.95,179.734 173.446,179.734 C173.96,179.734 175.375,182.386 176.897,186.203 C179.052,191.609 179.079,191.146 176.548,192.224 C175.917,192.492 175.06,193.165 174.64,193.717 C174.221,194.271 173.3,195.391 172.594,196.208 C171.887,197.026 170.763,198.767 170.094,200.079 C169.427,201.39 168.16,203.679 167.278,205.165 C166.398,206.651 165.198,208.675 164.612,209.662 C164.027,210.65 163.548,211.596 163.548,211.765 C163.548,211.934 163.276,212.418 162.943,212.84 C162.61,213.263 161.456,215.25 160.378,217.254 C157.747,222.15 156.397,223.427 154.137,223.162 C151.967,222.907 150.833,224.324 150.833,227.29 C150.833,228.492 150.949,228.392 145.793,231.578 C141.64,234.144 133.827,238.171 130.806,239.304 C129.669,239.73 126.737,240.965 124.289,242.049 C114.981,246.169 107.799,248.567 106.104,248.122 C105.368,247.928 104.559,247.85 104.306,247.946 C104.053,248.043 103.243,247.719 102.506,247.226 C101.768,246.734 100.857,246.132 100.48,245.89 C99.837,245.479 98.335,241.4 96.605,235.363 C95.586,231.805 93.409,228.304 91.231,226.713 C90.195,225.956 89.809,225.36 89.156,223.501 C88.714,222.245 87.32,219.106 86.056,216.525 C84.322,212.983 83.76,211.507 83.76,210.506 C83.76,206.016 75.665,199.458 69.084,198.62 C66.63,198.307 66.276,198.049 66.276,196.577 C66.276,195.503 66.391,195.293 67.071,195.122 C68.03,194.882 68.086,194.337 67.23,193.562 C66.83,193.2 66.595,192.583 66.595,191.899 C66.595,190.64 65.155,188.952 64.081,188.952 C63.714,188.952 62.472,188.051 61.237,186.886 C59.542,185.287 58.831,184.82 58.091,184.82 C57.565,184.82 56.951,184.598 56.726,184.326 C55.828,183.244 55.203,183.168 54.724,184.084 L54.272,184.945 L53.21,183.881 C52.503,183.174 51.823,182.807 51.184,182.786 C50.438,182.761 50.2,182.592 50.122,182.03 C49.937,180.732 48.857,180.314 47.033,180.836 C46.166,181.085 44.618,181.453 43.596,181.653 C41.367,182.092 39.479,183.616 38.589,185.692 C38.144,186.728 37.836,187.045 37.272,187.045 C35.621,187.045 33.79,189.527 33.026,192.799 C32.486,195.111 32.585,195.355 34.439,196.365 C36.899,197.704 38.147,200.498 36.476,200.926 C34.672,201.388 33.57,201.189 32.503,200.206 C30.859,198.693 29.292,198.122 27.452,198.366 C26.041,198.552 25.78,198.488 25.015,197.763 C23.942,196.747 20.722,195.31 19.517,195.31 C18.91,195.31 18.444,195.058 18.11,194.547 C17.836,194.128 17.185,193.608 16.665,193.394 C16.144,193.178 15.615,192.829 15.488,192.618 C15.262,192.244 11.896,190.542 11.38,190.542 C11.236,190.542 10.932,190.242 10.702,189.875 C10.077,188.874 9.983,189.289 10.497,190.781 C11.504,193.702 8.094,194.256 5.972,191.515 C4.884,190.11 3.603,187.248 3.74,186.53 C4.015,185.088 0.911,184.251 0.017,185.526 C-0.826,186.729 -0.639,187.202 5.347,199.124 C10.518,209.424 14.104,216.922 16.005,221.408 C17.345,224.572 24.942,227.156 27.664,225.372 C28.736,224.67 29.524,224.749 30.618,225.67 C31.139,226.107 32.043,226.561 32.629,226.679 C33.215,226.795 34.386,227.439 35.233,228.107 C36.17,228.848 37.112,229.323 37.644,229.323 C39.595,229.323 42.753,232.255 42.753,234.065 C42.753,235.211 43.188,237.148 44.199,240.514 C44.785,242.465 44.873,243.191 44.628,244.08 C44.3,245.266 44.797,246.575 46.285,248.436 C46.736,249 47.031,249.992 47.197,251.51 C47.35,252.907 47.681,254.088 48.078,254.649 C48.487,255.229 48.762,256.241 48.85,257.505 C48.951,258.935 49.217,259.81 49.838,260.748 C50.789,262.183 53.51,268.064 53.905,269.535 C54.045,270.059 54.463,271.562 54.832,272.872 C55.202,274.183 55.861,276.544 56.297,278.117 C57.481,282.397 57.543,282.605 58.723,286.382 C61.507,295.28 63.868,300.068 67.451,304.092 C69.742,306.664 76.905,320.364 77.441,323.193 C77.612,324.103 77.836,325.264 77.94,325.775 C78.115,326.65 77.605,327.216 69.33,335.312 C63.054,341.452 60.536,344.117 60.543,344.61 C60.553,345.212 62.119,348.815 70.514,367.564 C73.197,373.559 74.253,374.116 79.342,372.228 C81.081,371.583 84.824,370.273 87.662,369.317 C90.499,368.361 93.781,367.205 94.954,366.748 C97.655,365.698 97.894,365.834 100.111,369.677 C101.24,371.634 102.19,372.848 103.166,373.577 C105.747,375.507 105.693,375.431 105.693,377.144 C105.693,382.19 108.849,384.273 116.502,384.278 C120.768,384.281 124.778,383.831 131.462,382.6 C140.232,380.986 155.734,373.446 158.32,369.538 C160.117,366.823 158.968,362.187 155.85,359.572 C154.244,358.227 153.066,356.185 152.132,353.136 C151.918,352.437 151.44,351.296 151.068,350.601 C149.375,347.654 148.949,346.994 147.171,342.533 C145.342,337.938 141.006,327.661 139.374,324.051 C138.703,322.565 138.017,320.991 137.852,320.555 C137.508,319.652 130.763,304.375 129.23,301.033 C127.587,297.45 126.881,297.67 143.362,296.635 C147.115,296.4 156.622,296.237 166.567,296.238 C185.792,296.24 185.419,296.191 186.616,298.903 C187.397,300.674 191.897,301.8 198.187,301.8 C199.153,301.8 201.089,302.011 202.488,302.271 C203.886,302.531 206.461,302.955 208.209,303.214 C209.957,303.472 212.144,303.897 213.069,304.157 C213.993,304.418 215.925,304.85 217.36,305.118 C220.83,305.765 226.267,307.263 228.763,308.258 C229.872,308.701 232.639,309.44 234.911,309.902 C240.293,310.996 240.519,311.22 244.714,319.669 C248.868,328.032 250.866,330.397 254.62,331.394 C256.459,331.883 257.939,332.822 262.431,336.349 C264.629,338.076 267.133,339.941 267.993,340.495 C269.734,341.613 275.673,347.807 276.742,349.619 C278.031,351.803 277.147,354.458 274.711,355.726 C272.619,356.814 272.015,359.383 273.454,361.074 C273.934,361.64 276.187,364.508 278.461,367.449 C283.559,374.048 283.137,373.634 284.581,373.432 C288.04,372.947 290.563,371.803 289.824,371.055 C289.107,370.326 289.366,369.6 290.42,369.388 C291.703,369.132 294.313,369.133 294.982,369.389 C296.086,369.813 300.425,376.372 302.937,381.416 C304.047,383.645 304.416,384.091 305.839,384.923 C308.336,386.385 309.991,387.539 311.348,388.766 L312.583,389.882 L322.384,387.112 C334.037,383.816 334.061,383.812 334.577,384.814 C334.788,385.225 335.28,385.919 335.67,386.355 C336.06,386.792 337.127,388.404 338.041,389.938 C339.304,392.056 339.954,392.83 340.75,393.163 C341.327,393.403 342.208,394.138 342.712,394.792 C346.127,399.247 346.962,399.707 351.639,399.704 C357.951,399.702 359.403,398.839 362.099,393.503 C364.515,388.722 364.648,386.311 362.696,382.76 C362.054,381.591 361.398,380.555 361.24,380.457 C361.08,380.359 360.95,379.853 360.95,379.333 C360.95,378.813 360.592,377.681 360.155,376.819 C359.137,374.809 359.14,374.773 360.553,372.621 C362.785,369.221 363.421,368.077 363.634,367.076 C363.751,366.527 364.088,365.862 364.386,365.602 C365.115,364.957 371.043,364.039 371.814,364.451 C372.431,364.782 372.607,366.158 372.076,366.488 C371.901,366.596 371.758,366.844 371.758,367.039 C371.758,367.233 372.08,367.093 372.473,366.726 C372.867,366.359 373.688,366.012 374.301,365.955 L375.414,365.851 L375.33,362.764 C375.24,359.408 374.587,357.192 372.24,352.284 C370.711,349.087 370.793,348.719 373.348,347.336 C375.802,346.005 377.846,345.85 379.887,346.837 L381.18,347.462 L383.065,346.759 L384.949,346.057 L385.046,344.235 L385.143,342.412 L379.162,336.41 L373.184,330.408 L369.53,330.378 C364.765,330.335 362.516,330.054 362.178,329.455 C362.029,329.193 360.78,326.88 359.401,324.315 C357.323,320.452 352.949,312.941 350.345,308.767 C349.756,307.822 349.757,307.811 350.563,306.636 C353.663,302.116 348.085,285.357 340.999,277.904 C339.377,276.196 339.64,275.638 344.258,271.022 L348.176,267.103 L349.715,267.33 C350.636,266.029 352.555,264.227 355.171,262.455 C357.231,261.059 357.772,260.089 357.772,257.789 C357.772,255.6 357.915,255.448 362.223,253.064 C364.058,252.049 366.059,250.939 366.672,250.596 C375.619,245.576 389.041,239.61 389.987,240.229 C390.651,240.664 401.407,251.478 410.386,260.737 C412.306,262.718 415.558,265.86 417.612,267.722 C419.667,269.584 421.425,271.349 421.521,271.646 C421.614,271.942 422.078,272.324 422.552,272.497 C423.026,272.669 424.763,274.004 426.412,275.463 C429.728,278.399 431.555,279.903 435.812,283.207 C439.579,286.13 443.81,288.9 448.415,291.457 C450.711,292.732 451.24,293.175 451.624,294.152 C451.927,294.926 452.74,295.822 454.025,296.798 L455.967,298.275 L459.557,298.469 C468.714,298.964 478.648,296.527 489.373,291.157 C498.581,286.546 500.826,283.353 498.339,278.406 C497.095,275.933 496.708,275.5 492.841,272.249 C492.12,271.644 491.401,270.805 491.241,270.384 C490.774,269.158 487.372,263.369 484.728,259.303 C479.82,251.757 472.435,240.857 470.445,238.223 C469.322,236.737 467.877,234.741 467.233,233.788 C464.324,229.471 456.78,220.235 453.302,216.731 C451.199,214.613 448.192,211.469 446.618,209.742 C445.045,208.015 442.83,205.742 441.697,204.691 C440.565,203.64 438.903,202.029 438.003,201.111 C437.105,200.194 436.209,199.442 436.014,199.442 C435.573,199.442 433.503,197.249 433.258,196.518 C433.157,196.221 432.546,195.659 431.9,195.271 C430.742,194.575 427.704,191.657 426.105,189.702 C424.519,184.502 422.09,180.187 418.975,176.927 L416.443,174.279 L416.969,172.819 C417.525,171.27 417.457,170.937 416.098,168.609 C415.369,167.36 415.522,166.576 417.099,163.436 C417.911,161.823 418.693,160.087 418.839,159.58 C418.986,159.074 420.276,156.512 421.706,153.891 C423.137,151.27 424.396,148.694 424.502,148.169 C424.61,147.643 424.91,147.114 425.168,146.995 C427.627,145.857 427.546,145.954 427.546,144.186 C427.546,142.326 427.893,141.919 429.493,141.911 C430.91,141.904 431.305,141.276 431.052,139.438 C430.774,137.415 431.656,136.788 433.923,137.394 C438.369,138.583 444.521,136.409 448.185,132.353 C450.24,130.079 449.916,129.118 446.089,126.109 C444.474,124.839 440.422,121.573 435.999,117.974 C434.879,117.063 433.447,115.874 432.819,115.333 C431.654,114.33 418.83,103.933 416.094,101.775 C414.385,100.426 413.402,100.293 411.905,101.205" fill="#000000" id="path0"/>
  </g>
</svg>
