<?xml version="1.0" encoding="UTF-8"?>
<!DOCTYPE svg PUBLIC "-//W3C//DTD SVG 1.1//EN" "http://www.w3.org/Graphics/SVG/1.1/DTD/svg11.dtd">
<svg version="1.1" xmlns="http://www.w3.org/2000/svg" xmlns:xlink="http://www.w3.org/1999/xlink" x="0" y="0" width="500" height="500" viewBox="0, 0, 500, 500">
  <g id="layer102">
    <path d="M156.019,106.692 C176.977,106.813 193.451,110.931 211.744,120.865 C219.254,124.863 228.824,132.01 230.52,134.917 C232.216,137.703 230.035,139.521 222.525,141.701 C215.742,143.76 211.864,145.457 208.352,148.122 C206.777,149.333 204.475,150.302 203.263,150.302 C202.052,150.302 195.995,152.725 189.817,155.632 C183.639,158.539 177.582,161.205 176.25,161.689 C173.1,162.78 174.553,169.442 178.794,172.834 C181.216,174.773 182.186,176.832 182.67,181.314 C183.397,187.25 183.397,187.25 188.484,187.977 C191.392,188.34 194.057,189.066 194.541,189.552 C195.027,190.036 195.753,193.307 196.116,196.699 C196.601,202.029 197.206,203.24 199.993,204.451 C201.689,205.299 203.749,207.722 204.475,209.781 C205.687,213.295 205.929,213.416 212.107,213.052 L218.527,212.689 L218.891,204.815 C219.133,200.454 219.618,196.577 220.102,196.093 C220.586,195.608 228.824,195.124 238.395,194.882 C256.202,194.518 260.199,193.549 258.746,189.915 C257.897,187.734 250.75,184.1 245.178,183.009 C241.907,182.525 241.544,181.919 241.18,177.316 C240.938,173.44 241.301,171.986 242.998,171.138 C244.209,170.532 254.506,170.169 265.772,170.411 C296.662,170.896 299.449,170.896 301.751,170.169 C303.325,169.684 304.294,170.411 305.143,172.592 C305.869,174.53 307.565,175.984 309.624,176.468 C315.682,177.679 316.045,178.043 316.045,181.435 C316.045,187.128 314.833,187.613 301.751,188.582 C285.275,189.672 285.155,191.49 301.387,195.85 C302.962,196.214 306.838,199.242 309.987,202.513 C313.138,205.784 316.771,208.449 317.983,208.449 C320.89,208.449 329.128,212.689 337.971,218.625 C343.665,222.38 346.33,223.349 354.325,224.198 C374.07,226.62 372.375,225.53 381.703,241.157 C386.306,248.789 390.425,256.784 390.909,258.722 C391.879,262.356 391.879,262.356 401.812,262.72 L411.745,263.083 L411.745,281.133 L416.348,283.435 C418.771,284.646 423.859,288.038 427.493,290.703 L434.156,295.67 L434.761,306.33 L435.367,316.869 L448.693,316.869 L449.056,310.448 L449.419,304.15 L454.508,304.877 C457.294,305.239 462.382,306.936 465.652,308.389 C469.044,309.964 476.07,313.235 481.4,315.658 C497.876,323.047 499.571,324.138 499.935,326.924 C500.298,328.983 499.208,329.952 495.089,331.89 C486.004,336.009 468.681,337.705 457.536,335.646 C447.845,333.828 446.875,334.314 446.875,341.823 C446.875,351.151 441.303,358.178 432.096,360.479 C430.279,360.964 426.645,363.265 424.222,365.567 C419.135,370.171 415.259,372.472 410.17,373.684 C408.353,374.168 405.567,375.864 404.113,377.56 C401.448,380.71 393.695,385.313 391.152,385.313 C390.425,385.313 387.275,387.009 384.125,389.189 C380.249,391.854 377.099,393.066 374.192,392.945 C371.891,392.945 366.681,392.824 362.683,392.824 C358.686,392.945 353.841,392.945 351.781,392.945 C349.843,392.945 344.633,392.824 340.273,392.824 C335.912,392.824 330.218,392.824 327.553,392.702 C324.888,392.46 320.527,392.339 317.862,392.218 C315.197,392.097 311.32,392.46 309.382,392.945 C307.322,393.429 305.263,393.429 304.779,392.945 C304.052,392.218 193.209,390.886 179.157,391.37 C176.855,391.491 172.374,391.613 169.223,391.491 C158.927,391.491 152.627,391.491 147.418,391.612 C144.511,391.734 140.15,391.37 137.606,390.764 C134.456,390.159 132.034,390.28 130.095,391.37 C128.279,392.339 125.614,392.581 122.585,391.975 C116.891,390.886 108.654,390.886 102.112,391.975 C98.963,392.46 96.782,392.339 96.298,391.491 C95.207,389.795 83.82,389.795 82.73,391.491 C82.246,392.339 80.307,392.46 77.521,392.097 C75.098,391.613 69.526,390.886 65.043,390.401 C57.412,389.553 56.685,389.31 49.779,382.526 C45.782,378.771 41.543,375.622 40.573,375.622 C39.483,375.622 36.333,373.078 33.547,370.049 C30.64,367.021 26.399,363.75 24.098,362.781 C21.796,361.812 16.83,357.694 12.953,353.816 C9.077,349.819 5.443,346.548 4.716,346.548 C3.989,346.548 2.535,344.61 1.445,342.309 C-0.251,338.674 -0.372,337.342 0.84,334.071 C1.687,331.769 2.293,327.53 2.293,324.501 C2.293,319.897 3.019,317.959 6.533,313.84 L10.773,308.753 L10.773,294.579 C10.773,281.012 10.894,280.164 13.801,277.499 C17.799,273.743 17.677,269.382 13.317,258.117 C11.379,253.149 9.441,248.062 9.077,246.851 C8.592,245.154 7.381,244.791 4.595,245.033 C0.113,245.397 -1.825,242.61 2.172,241.521 C5.685,240.672 6.291,237.765 5.806,222.138 L5.322,208.207 L10.773,206.389 C13.801,205.421 16.709,204.088 17.314,203.483 C18.041,202.877 19.253,202.392 20.101,202.392 C21.069,202.392 24.098,201.302 26.763,199.969 C29.55,198.637 32.215,197.547 32.578,197.547 C33.062,197.547 34.637,198.637 36.212,199.969 C39.846,203.119 42.027,202.997 45.661,199.606 L48.568,196.941 L50.385,199.606 C51.96,201.907 53.414,202.392 58.744,202.392 C62.378,202.392 65.286,202.029 65.286,201.545 C65.286,201.059 64.196,199.606 62.863,198.153 C60.561,195.729 60.561,194.882 61.772,189.188 C62.863,183.858 62.742,182.404 61.167,179.981 C60.077,178.285 58.623,176.952 57.896,176.952 C57.29,176.952 56.079,175.378 55.474,173.319 C54.747,171.381 53.171,169.442 51.839,169.078 C50.385,168.594 49.174,166.777 48.69,164.718 C48.326,162.78 47.478,160.842 46.994,160.478 C46.387,160.115 45.903,154.905 45.903,148.969 C45.903,140.732 46.387,137.34 47.963,134.917 C50.265,131.405 63.469,124.984 68.678,124.863 C79.943,124.742 86.243,123.894 90.968,121.592 C93.753,120.259 98.357,118.079 101.022,116.988 C103.687,115.898 107.079,113.596 108.411,111.901 C110.107,109.841 112.288,108.751 114.468,108.751 C120.283,108.751 127.552,110.568 129.732,112.506 C131.549,113.96 132.518,114.082 135.426,112.749 C137.364,112.022 139.907,110.326 141.119,108.993 C142.936,107.055 144.875,106.692 156.019,106.692 z M344.633,362.297 C342.332,362.297 339.909,363.144 339.061,364.113 C337.971,365.446 335.185,365.93 329.37,365.93 C320.769,365.93 319.436,366.657 317.862,371.987 C317.377,373.684 315.682,376.712 314.106,378.893 C310.836,383.253 310.593,384.223 312.652,386.282 C314.349,387.978 319.558,388.221 321.86,386.645 C322.828,386.161 324.161,384.344 325.009,382.769 C325.736,381.194 327.674,379.741 329.128,379.498 C331.308,379.134 332.278,379.983 333.61,383.375 C335.306,387.372 335.912,387.736 340.273,387.736 C344.633,387.736 345.36,387.251 347.178,383.496 C348.874,379.983 349.843,379.256 352.387,379.498 C354.446,379.741 355.536,380.71 355.779,382.648 C356.263,385.918 360.139,388.221 362.804,386.767 C364.38,385.918 364.016,385.191 360.624,382.163 C358.444,380.225 355.9,376.469 354.93,373.804 C352.144,365.567 349.116,362.297 344.633,362.297 z M264.681,362.297 C262.38,362.297 259.957,363.144 259.11,364.113 C258.14,365.325 255.354,365.93 250.629,365.93 L243.725,365.93 L242.392,370.655 C240.454,377.076 240.574,379.256 243.361,383.859 C245.178,386.767 246.631,387.736 249.297,387.736 C252.689,387.736 256.686,385.071 256.686,382.89 C256.686,380.952 260.442,378.166 262.138,378.771 C262.986,379.134 264.318,381.073 265.045,382.89 C266.499,387.372 271.223,388.826 275.463,386.04 C277.159,384.95 278.492,383.375 278.492,382.648 C278.492,381.921 279.339,380.347 280.309,379.256 C281.883,377.439 281.883,376.591 280.187,371.624 C278.612,366.9 277.765,365.93 275.22,365.93 C273.646,365.93 271.465,365.083 270.496,364.113 C269.406,363.144 266.862,362.297 264.681,362.297 z M184.198,362.345 C182.562,362.542 180.912,362.619 179.883,364.113 C179.399,365.446 177.461,365.93 173.221,365.93 C167.528,365.93 167.043,366.173 166.316,369.322 C165.105,374.168 160.865,379.983 157.109,382.285 C152.385,385.071 152.87,386.524 158.442,386.524 C163.287,386.524 165.226,385.071 166.074,381.073 C166.316,379.498 167.528,378.529 169.466,378.287 C172.01,378.045 172.858,378.65 174.069,382.285 C175.523,386.04 176.129,386.524 180.126,386.524 C185.456,386.524 186.667,385.797 188.484,381.436 C190.665,376.591 194.421,376.955 196.238,382.285 C197.086,384.586 198.66,386.645 199.63,386.888 C203.022,387.857 204.354,387.736 207.504,386.524 C211.38,385.071 211.501,382.648 207.746,377.681 C206.171,375.501 204.596,372.23 204.354,370.171 C203.99,366.779 203.627,366.536 198.297,366.173 C195.268,365.93 191.998,364.962 191.271,363.992 C190.048,362.909 188.641,362.62 187.019,362.38 C185.506,362.357 186.446,362.37 184.198,362.345 z M106.715,361.085 C103.687,361.085 101.507,361.933 100.053,363.508 C98.72,365.083 96.539,365.93 93.753,365.93 C90.241,365.93 89.514,366.415 89.514,368.474 C89.514,371.503 87.576,375.258 84.305,378.893 C80.67,382.89 83.335,385.555 90.604,385.071 C95.328,384.707 96.177,384.344 96.782,381.679 C97.266,379.498 98.357,378.529 100.78,378.287 C102.597,378.045 104.05,378.529 104.05,379.256 C104.05,379.983 104.899,381.921 105.989,383.617 C107.685,386.161 108.775,386.645 113.015,386.282 C117.254,385.918 118.224,385.434 119.678,382.042 C120.889,379.256 122.222,378.045 124.038,378.044 C125.855,378.045 127.188,379.256 128.399,382.042 C129.853,385.313 130.822,386.04 134.699,386.282 C138.091,386.524 139.181,386.282 139.181,384.828 C139.181,383.738 138.454,382.89 137.485,382.89 C134.941,382.89 129.732,376.106 128.157,370.776 L126.703,365.93 L120.283,365.93 C115.074,365.93 113.621,365.446 112.53,363.508 C111.561,361.691 109.986,361.085 106.715,361.085 z M49.195,366.088 L48.69,366.173 C45.298,366.779 45.176,372.593 48.568,374.895 C50.022,375.985 51.718,376.833 52.203,376.833 C53.656,376.833 53.414,373.441 51.96,372.593 C51.355,372.23 50.749,370.534 50.749,368.838 C50.719,368.015 50.804,366.762 49.98,366.25 C49.753,366.108 49.457,366.143 49.195,366.088 z M406.536,358.662 C404.598,358.662 394.907,366.415 394.785,367.99 C394.785,368.717 395.997,370.292 397.45,371.261 C400.964,373.804 400.842,373.804 405.446,369.928 C408.959,367.021 409.322,366.052 408.596,362.66 C408.232,360.479 407.263,358.662 406.536,358.662 z M30.851,352.85 C29.255,354.235 29.852,353.476 28.944,355.028 C27.853,357.087 28.217,358.057 31.367,361.206 C35.243,365.083 37.06,365.325 39.119,361.811 C40.21,360.116 39.725,359.026 36.454,356.118 C34.799,354.659 33.199,352.913 30.851,352.85 z M420.952,356.24 C418.771,356.24 417.438,358.178 418.408,359.873 C419.74,362.054 422.648,361.206 422.648,358.662 C422.648,357.33 421.921,356.24 420.952,356.24 z" fill="#000000"/>
  </g>
</svg>
