<?xml version="1.0" encoding="UTF-8"?>
<!DOCTYPE svg PUBLIC "-//W3C//DTD SVG 1.1//EN" "http://www.w3.org/Graphics/SVG/1.1/DTD/svg11.dtd">
<svg version="1.1" xmlns="http://www.w3.org/2000/svg" xmlns:xlink="http://www.w3.org/1999/xlink" x="0" y="0" width="500" height="500" viewBox="0, 0, 500, 500">
  <g id="layer102">
    <path d="M234.514,0.005 C236.362,0.379 235.711,-0.026 236.673,0.801 C237.769,2.149 240.465,2.401 241.139,1.222 C241.814,0.21 246.701,-0.463 247.206,0.464 C247.797,1.391 252.347,1.306 252.936,0.379 C253.526,-0.548 262.543,1.306 264.987,2.907 C266.672,3.919 267.178,3.919 268.779,2.907 C270.464,1.896 270.801,1.98 272.402,4.002 C274.088,6.11 277.037,7.037 277.037,5.435 C277.037,4.002 279.397,3.834 281.672,5.014 C282.936,5.688 284.369,6.193 284.958,6.193 C285.464,6.193 286.728,7.12 287.823,8.216 C288.835,9.396 290.857,10.492 292.205,10.828 C293.975,11.249 294.733,12.008 295.154,13.778 C295.491,15.126 296.755,17.148 298.019,18.159 C299.283,19.255 300.547,20.772 300.885,21.614 C301.137,22.373 301.981,23.047 302.738,23.047 C304.677,23.047 313.188,32.064 313.693,34.676 C314.03,35.94 314.873,38.215 315.631,39.816 C316.39,41.417 317.064,43.103 317.148,43.608 C317.148,44.114 317.57,46.642 318.075,49.17 C318.581,51.698 319.002,54.731 319.002,55.912 C319.002,58.523 319.929,64.675 321.193,71.164 L321.867,74.197 L329.536,74.787 C333.833,75.04 342.344,75.546 348.496,75.883 C359.282,76.388 360.04,76.557 365.771,79.506 C371.585,82.456 371.838,82.708 371.754,85.489 C371.669,88.354 367.962,103.354 366.36,107.314 C365.602,109.252 365.939,110.264 369.31,115.32 C373.439,121.64 379.253,135.713 380.265,141.864 C380.602,143.971 381.36,146.835 381.95,148.184 C382.456,149.617 383.635,153.662 384.394,157.285 C386.416,166.301 390.293,174.728 392.484,174.728 C394.253,174.728 396.359,177.762 396.022,179.953 C395.854,180.711 396.613,181.891 397.623,182.565 C398.635,183.324 399.224,184.419 398.972,185.008 C398.55,186.189 389.871,188.211 385.574,188.211 C384.394,188.211 383.214,188.464 382.876,188.801 C382.54,189.222 380.686,189.896 378.832,190.318 C375.798,191.076 375.377,191.498 375.209,193.604 C375.209,195.037 376.051,197.312 377.4,199.165 L379.759,202.368 L377.989,207.087 C376.978,209.699 375.883,211.806 375.461,211.806 C374.45,211.806 374.619,265.568 375.714,275.006 C377.4,290.596 377.821,288.489 372.596,292.703 C364.507,299.191 362.99,300.202 358.355,301.55 C350.687,303.741 348.496,303.32 344.535,299.022 C342.344,296.663 341.08,294.472 341.08,293.123 C341.08,291.944 340.322,289.416 339.311,287.562 C337.288,283.517 337.625,281.326 341.249,273.321 C344.029,267.254 344.114,264.136 341.586,253.855 C340.322,248.547 334.339,218.463 334.339,217.367 C334.339,217.115 333.833,216.862 333.244,216.862 C332.569,216.862 330.631,214.755 328.946,212.228 C326.081,208.098 325.828,207.339 326.334,204.137 L326.923,200.682 L324.395,201.273 C321.952,201.778 321.783,201.693 320.519,197.228 C319.761,194.7 319.171,191.835 319.171,190.908 C319.171,189.981 318.665,188.801 317.991,188.295 C317.064,187.537 316.306,188.801 313.778,195.036 C312.092,199.25 310.744,203.127 310.744,203.8 C310.744,204.391 310.155,205.401 309.396,205.991 C308.637,206.582 306.615,210.12 304.845,213.912 C301.727,220.57 301.643,220.654 303.245,222.423 C304.087,223.35 304.845,225.289 304.845,226.805 C304.845,228.238 305.267,230.429 305.856,231.609 C306.615,233.21 306.615,233.968 305.856,234.727 C305.267,235.316 304.845,236.749 304.845,237.929 C304.845,239.193 304.087,240.541 303.076,241.13 C300.547,242.732 302.149,243.996 305.519,243.069 C307.879,242.395 308.553,242.564 310.828,244.502 C315.379,248.21 317.064,254.613 318.665,272.647 C318.918,275.849 319.592,277.366 321.952,280.062 C325.659,284.107 326.923,288.489 328.693,303.825 C329.873,313.348 330.463,315.876 332.148,318.404 C333.328,320.089 334.508,322.87 334.845,324.64 C335.94,331.465 337.036,333.741 341.08,338.123 C345.884,343.262 347.316,347.224 346.474,353.207 C346.052,356.83 346.305,358.009 349.76,365.004 C351.866,369.217 354.563,374.02 355.743,375.537 C357.175,377.391 358.018,379.751 358.271,382.784 C358.523,385.228 359.619,389.104 360.799,391.38 C361.978,393.655 362.99,396.351 362.99,397.446 C362.99,398.542 363.917,400.733 365.096,402.334 C366.276,403.936 367.877,406.295 368.636,407.643 C369.478,409.075 370.995,411.014 372.091,412.109 C374.029,414.216 374.45,417.334 373.102,419.946 C371.838,422.221 377.905,440.17 379.928,440.17 C380.349,440.17 381.529,441.856 382.456,444.047 C383.551,446.321 384.984,448.175 386.248,448.597 C388.522,449.524 388.86,451.63 387.006,454.243 C385.826,455.929 385.995,456.518 388.691,462.164 C392.146,469.411 392.652,474.72 389.955,474.72 C388.102,474.72 388.102,474.298 389.955,482.303 C390.293,483.905 390.882,486.265 391.135,487.613 C391.472,488.877 392.231,489.888 392.904,489.888 C393.916,489.888 394.168,491.068 394.168,494.944 L394.168,500 L306.531,500 L306.531,494.607 C306.531,491.573 306.952,488.877 307.373,488.624 C308.891,487.697 308.3,485.675 306.278,484.916 C304.172,484.074 298.863,478.596 297.262,475.478 C296.587,474.214 296.418,471.855 296.755,468.484 C297.177,463.933 297.092,463.259 295.239,461.321 C290.689,456.349 290.941,449.861 295.913,445.564 C299.79,442.193 299.79,439.833 295.828,435.788 C292.964,432.839 292.88,432.586 294.059,430.732 C295.071,429.216 295.491,425.676 295.66,416.997 L295.998,405.199 L292.205,404.609 C290.099,404.356 274.425,404.019 257.234,403.936 C240.128,403.851 224.202,403.767 221.842,403.682 C219.567,403.682 215.522,403.851 212.994,404.019 C210.466,404.188 206.927,404.019 205.241,403.682 L202.04,403.009 L202.04,415.48 C202.04,422.306 201.786,428.878 201.45,429.974 C201.113,431.322 201.196,431.828 201.87,431.406 C203.809,430.227 203.724,432.839 201.702,435.536 C198.668,439.411 198.922,442.109 202.46,445.732 C204.988,448.26 205.41,449.187 205.41,452.811 C205.41,456.012 204.905,457.445 203.219,459.552 C201.196,461.911 200.944,462.838 201.113,468.063 C201.281,472.95 200.944,474.383 199.427,476.658 C196.814,480.281 193.781,483.147 191.422,484.074 C189.399,484.748 188.725,487.107 190.073,488.708 C190.495,489.13 190.663,491.489 190.411,493.932 L190.073,498.314 L102.604,498.314 L102.604,493.343 C102.604,489.298 102.856,488.371 104.12,488.034 C105.3,487.697 106.059,485.927 107.238,481.376 C107.997,477.922 108.924,474.636 109.177,474.046 C109.346,473.372 108.839,472.697 107.744,472.445 C105.132,471.77 105.469,468.147 108.839,460.9 C111.367,455.422 111.537,454.495 110.525,452.726 C108.924,449.861 109.092,444.889 110.862,442.698 C111.705,441.687 114.064,440.002 116.086,438.991 C119.626,437.305 119.963,436.8 122.996,429.216 C124.682,424.834 125.946,420.62 125.609,419.946 C125.356,419.272 125.019,416.828 124.85,414.637 C124.682,411.351 124.935,410.424 126.367,409.582 C127.294,408.991 129.569,405.368 131.423,401.408 C133.277,397.446 135.89,392.054 137.238,389.357 C138.755,386.324 139.682,383.206 139.682,381.015 C139.682,379.076 140.187,376.885 140.777,376.211 C141.451,375.453 144.232,370.818 147.097,365.931 C152.153,357.167 152.238,356.914 152.153,350.678 C152.153,343.262 153.333,340.482 158.641,334.836 C161.507,331.718 162.433,330.033 163.276,325.735 C163.95,322.533 165.383,319.078 166.815,317.056 C169.006,314.022 169.343,312.589 170.355,302.141 C171.703,289.416 173.81,282.169 177.602,278.293 C179.624,276.102 179.961,274.922 180.888,266.158 C181.899,255.625 184.09,248.63 187.545,244.585 C189.484,242.226 190.073,241.974 193.276,242.395 C197.573,242.816 198.415,242.311 196.141,240.71 C195.214,240.035 194.455,238.603 194.455,237.339 C194.455,236.075 193.613,234.221 192.601,233.041 C190.748,231.187 190.748,231.019 192.18,229.923 C193.023,229.333 193.95,227.48 194.203,225.794 C194.455,224.193 195.382,222.171 196.225,221.412 C197.658,220.148 197.573,219.811 194.792,213.744 C193.276,210.289 190.832,206.075 189.399,204.559 C188.051,202.958 186.871,200.767 186.871,199.672 C186.871,197.144 183.501,188.211 182.574,188.211 C182.152,188.211 181.478,189.812 180.888,191.835 C180.383,193.773 179.624,196.301 179.371,197.481 C178.866,199.082 178.107,199.672 176.085,199.84 C173.978,200.092 173.388,200.599 172.967,202.705 C172.546,204.306 172.714,205.486 173.304,205.823 C174.315,206.497 170.27,212.817 167.405,215.176 C166.394,216.019 165.046,219.558 163.698,225.036 C160.664,237.76 155.693,262.366 155.693,264.978 C155.693,266.158 156.788,269.613 158.136,272.563 C161.507,280.147 161.844,282.843 159.99,286.13 C159.148,287.647 158.136,290.259 157.883,291.944 C157.546,293.882 156.113,296.158 153.839,298.432 C150.636,301.719 150.13,301.887 146.928,301.466 C139.766,300.455 132.603,297.169 128.727,293.123 C127.126,291.439 124.935,289.669 123.839,289.248 C121.648,288.405 121.48,285.54 122.912,276.692 C123.923,270.709 124.008,269.445 124.935,234.979 C125.525,213.575 125.44,211.301 124.176,210.205 C123.418,209.615 122.828,208.603 122.828,208.014 C122.828,207.424 122.07,205.148 121.058,202.958 L119.289,198.913 L121.901,195.205 C123.334,193.182 124.598,191.076 124.766,190.571 C124.935,189.559 120.3,188.127 110.188,186.02 C106.733,185.346 103.193,184.588 102.436,184.335 C100.413,183.745 100.497,181.722 102.604,181.048 C103.868,180.627 104.289,179.869 104.12,178.099 C103.952,175.318 105.553,173.043 107.744,173.043 C108.924,173.043 110.188,170.093 114.401,157.2 C120.637,138.072 127.294,119.28 129.232,115.572 C129.991,114.056 131.592,111.949 132.772,111.022 L134.963,109.252 L133.024,100.91 C131.929,96.276 130.496,90.967 129.906,88.944 C127.631,81.781 127.968,80.939 134.878,77.737 C139.766,75.461 142.125,74.871 147.266,74.703 C150.721,74.619 159.4,74.282 166.478,73.944 L179.287,73.439 L179.371,70.321 C179.456,68.636 179.54,65.939 179.708,64.338 C179.877,62.737 179.624,60.714 179.203,59.956 C178.697,59.03 178.782,58.355 179.371,57.934 C179.877,57.596 180.13,56.332 179.793,54.9 C179.456,53.13 180.046,50.855 181.815,46.894 C183.248,43.946 184.343,40.912 184.343,40.321 C184.343,39.648 184.68,38.974 185.102,38.721 C185.523,38.468 186.113,36.867 186.366,35.266 C186.703,33.665 187.377,32.317 187.967,32.317 C189.315,32.317 191.085,28.356 190.495,26.755 C190.241,26.081 190.411,25.575 190.831,25.575 C191.759,25.575 195.214,22.204 197.236,19.423 C198.163,18.244 199.932,16.98 201.281,16.727 C202.629,16.39 203.724,15.631 203.724,14.957 C203.724,14.283 204.146,13.778 204.568,13.778 C205.073,13.778 205.915,12.851 206.421,11.671 C207.601,9.058 211.73,6.868 214.258,7.542 C215.606,7.879 216.786,7.289 218.893,5.014 C221.084,2.738 222.011,2.233 222.853,2.992 C223.696,3.665 224.539,3.665 226.055,2.992 C228.765,1.645 231.532,0.524 234.514,0.005 z M288.886,352.484 C288.342,352.484 288.187,353.727 288.498,356.211 C288.731,358.23 289.119,361.335 289.352,363.199 C289.973,367.935 291.215,366.46 291.215,361.025 C291.215,356.134 290.206,352.484 288.886,352.484 z M209.15,352.484 C208.218,352.484 207.364,356.832 207.364,361.413 C207.364,366.304 208.917,363.587 209.46,357.686 C209.771,354.348 209.616,352.484 209.15,352.484 z M257.251,45.282 C256.315,45.378 256.679,45.258 256.122,45.497 C255.19,46.118 255.346,48.447 256.432,49.534 C257.209,50.311 257.209,50.854 256.432,52.019 C255.19,54.037 255.268,57.221 256.51,57.686 C258.141,58.385 260.703,58.308 262.876,57.453 C264.196,56.91 266.06,56.988 268.544,57.531 C273.125,58.54 275.687,57.919 275.687,55.901 C275.418,54.106 272.946,52.557 271.712,51.699 C267.415,48.708 262.441,46.145 257.251,45.282 z M241.991,45.031 C238.265,45.031 227.162,50.621 224.678,53.727 C224.212,54.27 223.591,55.512 223.358,56.444 C222.814,57.997 222.97,58.075 227.706,57.686 C230.423,57.453 233.063,56.91 233.606,56.444 C234.305,55.901 234.849,55.901 235.159,56.444 C235.47,56.832 237.488,57.221 239.585,57.143 C243.234,57.065 243.467,56.988 243.7,54.814 C243.855,53.571 243.544,52.329 242.923,51.941 C242.147,51.398 242.069,51.009 242.923,49.69 C244.476,47.127 244.088,45.031 241.991,45.031 z" fill="#000000"/>
  </g>
</svg>
