<?xml version="1.0" encoding="UTF-8"?>
<!DOCTYPE svg PUBLIC "-//W3C//DTD SVG 1.1//EN" "http://www.w3.org/Graphics/SVG/1.1/DTD/svg11.dtd">
<svg version="1.1" xmlns="http://www.w3.org/2000/svg" xmlns:xlink="http://www.w3.org/1999/xlink" x="0" y="0" width="500" height="500" viewBox="0, 0, 500, 500">
  <g id="layer102">
    <path d="M204.292,147.741 C201.862,147.897 199.066,147.504 196.867,148.831 C196.638,148.97 196.484,149.206 196.292,149.393 C195.215,150.709 194.497,155.733 194.138,163.508 C193.9,170.207 193.421,175.948 193.182,176.307 C192.823,176.546 191.866,176.068 190.789,175.23 C189.473,174.154 188.995,171.403 188.996,165.422 C188.995,158.245 188.637,156.81 186.005,154.298 C182.536,150.709 177.034,150.35 174.282,153.46 C172.847,155.015 172.249,157.766 172.249,162.312 C172.249,169.369 170.574,172.121 166.627,171.403 C164.952,171.164 164.354,169.728 164.115,165.063 C163.636,155.015 163.038,153.939 158.014,152.384 C154.665,151.426 152.871,151.426 150.957,152.384 C148.086,153.939 147.608,155.494 146.531,166.14 C145.575,176.666 142.584,180.374 138.756,175.829 C137.68,174.513 134.569,174.035 126.316,174.035 C119.498,174.035 114.833,173.556 113.876,172.599 C113.158,171.881 111.005,171.044 109.211,170.924 C105.024,170.446 101.675,173.915 101.675,178.58 C101.675,183.245 100.24,184.082 89.713,185.757 C79.665,187.432 76.794,189.346 76.316,194.848 L75.957,198.556 L55.622,198.556 L55.024,194.968 C54.546,192.216 53.708,191.26 51.435,191.02 C49.761,190.781 47.727,189.704 46.89,188.628 C45.694,186.953 44.976,186.953 43.302,188.149 C39.354,190.9 38.039,191.139 34.689,189.226 C31.579,187.312 30.981,187.432 23.804,190.303 C19.617,192.097 14.235,194.13 11.962,194.968 L7.775,196.522 L8.134,206.929 C8.493,215.422 8.254,217.694 6.459,219.608 C5.383,220.805 3.469,221.881 2.153,221.881 C0.957,221.881 -0,222.48 -0,223.078 C-0,223.795 2.392,224.273 5.263,224.273 L10.527,224.273 L15.311,238.628 C20.096,252.863 20.096,252.863 17.823,255.853 C15.909,258.245 15.55,260.757 15.55,269.489 C15.55,279.895 15.431,280.494 11.962,284.322 C9.928,286.594 8.373,289.585 8.373,291.379 C8.373,293.053 8.014,297.718 7.656,301.666 L6.938,308.723 L14.713,316.618 C19.019,321.044 24.641,325.709 27.273,327.025 C29.904,328.341 33.253,331.092 34.569,333.006 C36.005,334.919 39.234,337.551 41.866,338.628 C44.497,339.824 48.206,342.814 50.24,345.326 C53.708,349.633 54.306,349.872 60.406,349.872 C63.995,349.872 67.225,350.47 67.703,351.188 C68.182,352.025 70.335,352.144 73.445,351.666 C76.077,351.307 80.144,350.948 82.177,351.068 C91.507,351.188 96.531,351.307 100.478,351.188 C102.751,351.188 107.536,351.068 110.885,351.068 L169.498,351.068 C172.728,351.068 177.393,351.068 180.024,351.188 L189.234,351.188 C191.746,351.068 195.933,351.068 198.565,351.068 L247.249,351.068 C250.478,351.068 255.144,351.068 257.775,351.188 C262.56,351.188 267.584,351.188 275.957,350.948 C278.469,350.948 282.297,351.188 284.45,351.666 C286.962,352.264 289.473,352.025 291.268,351.068 C293.062,350.111 295.335,349.872 297.488,350.47 C301.435,351.547 307.297,351.547 314.115,350.47 C317.225,349.991 319.378,350.111 319.856,350.948 C321.291,353.101 328.35,352.503 330.742,349.872 C331.818,348.675 335.287,346.642 338.397,345.566 C341.387,344.369 345.813,341.738 348.086,339.585 C350.478,337.312 355.622,334.202 359.689,332.527 C366.985,329.656 367.942,329.537 395.215,329.537 C412.799,329.537 423.564,329.059 424.043,328.341 C424.402,327.623 424.521,326.187 424.163,324.991 C423.325,322.599 406.459,317.456 399.402,317.575 C392.703,317.575 391.627,315.183 389.115,296.403 C388.637,292.336 388.038,291.259 386.244,291.259 C384.091,291.259 383.971,290.182 383.971,274.991 C383.971,263.15 384.45,258.364 385.526,257.169 C386.722,255.972 392.703,255.613 409.809,255.494 C422.607,255.374 432.894,254.776 433.493,254.178 C435.167,252.503 445.454,252.742 449.163,254.417 C451.435,255.374 452.99,255.494 454.306,254.656 C455.503,253.939 461.722,253.58 468.899,253.699 C476.196,253.939 482.894,253.58 484.808,252.862 C487.56,251.666 488.038,250.829 488.038,246.522 C488.038,239.346 486.005,238.508 468.78,238.389 C456.22,238.269 454.546,238.03 454.546,236.235 C454.546,234.56 456.339,234.082 466.387,233.484 C472.966,233.125 480.263,233.125 482.656,233.484 C486.842,234.202 492.344,232.408 494.259,229.657 C496.052,227.264 495.095,223.078 492.105,220.326 C489.114,217.575 488.516,217.456 472.607,217.815 C455.622,218.054 452.512,217.456 453.708,214.345 C454.306,212.791 457.536,212.432 474.761,212.432 C497.966,212.432 500,211.834 500,205.135 C500,198.676 495.215,196.283 483.971,197.001 C479.306,197.36 472.727,197.241 469.498,196.882 C465.79,196.403 462.44,196.642 460.646,197.599 C458.612,198.556 457.057,198.676 455.024,197.719 C452.99,196.761 450.957,196.761 448.206,197.599 C445.574,198.436 442.105,198.436 437.679,197.599 C434.21,197.001 418.062,196.163 401.914,195.925 C385.885,195.685 372.368,195.087 372.009,194.489 C370.455,192.216 360.646,189.585 353.349,189.585 C348.206,189.585 344.617,188.987 342.703,187.671 C339.952,185.876 339.473,185.876 336.723,187.671 C331.818,190.9 325.598,190.182 321.89,185.876 C318.78,182.168 314.474,177.862 311.004,174.632 C309.928,173.675 306.818,172.599 304.067,172.121 C297.488,171.044 297.129,168.054 303.708,168.054 C306.339,168.054 308.971,167.336 309.809,166.259 C310.646,165.302 312.56,164.465 314.115,164.465 C316.388,164.465 316.985,163.867 316.985,161.594 C316.985,159.202 316.268,158.723 311.962,158.125 C309.211,157.766 306.579,156.57 305.981,155.494 C305.144,154.058 303.828,153.819 300.837,154.417 C298.565,154.776 296.651,154.537 296.172,153.819 C294.856,151.666 284.45,147.599 282.058,148.436 C280.861,148.795 279.545,150.35 279.186,152.025 C278.35,155.255 275.837,155.613 266.747,153.58 C263.756,152.982 255.741,152.144 248.924,151.785 C242.105,151.547 235.407,150.59 233.972,149.872 C232.536,149.034 224.402,148.197 214.713,147.958 C211.24,147.822 207.766,147.769 204.292,147.741 z M297.847,323.556 C300.478,323.556 302.632,324.154 302.632,324.752 C302.632,325.47 303.708,327.503 304.905,329.297 C306.1,331.092 307.536,333.963 307.895,335.876 C308.493,338.508 308.254,339.106 306.22,339.106 C304.785,339.106 303.11,340.541 302.033,342.694 C299.522,347.479 292.943,347.838 289.953,343.293 C287.44,339.345 283.732,339.465 282.297,343.412 C281.22,346.044 280.502,346.403 276.077,346.044 C269.976,345.566 268.899,343.173 272.608,338.03 C274.043,336.116 275.12,333.843 275.12,332.886 C275.12,329.776 277.991,328.341 284.331,328.341 C289.354,328.341 290.789,327.862 291.866,325.948 C292.823,324.154 294.378,323.556 297.847,323.556 z M229.424,323.735 L230.622,323.795 C234.45,324.154 235.048,324.632 235.407,327.384 C235.646,329.656 236.723,330.972 238.397,331.331 C240.909,332.049 244.019,336.714 244.019,340.063 C244.019,340.9 243.421,342.695 242.823,344.01 C241.866,345.566 240.311,346.283 237.321,346.283 C233.972,346.283 233.015,345.685 232.058,343.293 C230.622,339.465 225.957,339.226 224.282,343.053 C222.728,346.642 214.474,347.599 213.277,344.25 C212.919,343.053 211.484,341.259 210.048,340.063 C208.014,338.388 207.895,337.671 208.971,335.279 C209.689,333.843 210.646,331.57 211.005,330.494 C211.484,328.819 213.038,328.341 217.584,328.341 C222.488,328.341 223.804,327.862 224.88,325.829 C226.068,323.972 227.244,323.701 229.424,323.735 z M96.029,323.558 C98.174,323.602 100.399,323.62 101.316,325.948 C101.794,327.743 102.99,328.341 105.981,328.341 C108.852,328.341 110.287,328.938 110.766,330.494 C111.125,331.57 111.962,333.723 112.679,335.159 C113.995,337.91 113.158,340.303 110.766,340.303 C109.928,340.303 108.613,341.618 107.895,343.293 C106.698,345.804 105.622,346.283 101.675,346.283 C97.727,346.283 96.651,345.804 95.454,343.293 C94.737,341.618 93.182,340.303 92.105,340.303 C90.909,340.303 89.115,341.618 88.039,343.293 C86.603,345.566 85.048,346.283 81.818,346.283 C76.555,346.283 75.598,344.01 78.35,337.551 C81.699,329.297 82.058,328.938 86.005,328.579 C88.158,328.341 90.431,327.144 91.268,325.829 C92.288,324.508 93.447,323.949 95.12,323.564 L96.029,323.558 z M163.158,323.556 C166.149,323.556 167.703,324.273 168.66,325.948 C169.378,327.264 170.933,328.341 172.009,328.341 C174.761,328.341 177.034,330.613 177.034,333.365 C177.034,334.441 178.588,337.312 180.622,339.465 C182.536,341.738 184.21,344.25 184.21,344.968 C184.21,345.685 182.177,346.283 179.426,346.283 C175.479,346.283 174.402,345.804 173.206,343.293 C172.488,341.618 170.814,340.303 169.617,340.303 C168.421,340.303 166.747,341.618 166.028,343.293 C164.952,345.685 163.876,346.283 160.048,346.283 C156.34,346.283 155.144,345.685 154.067,343.293 C153.349,341.618 151.794,340.303 150.718,340.303 C149.522,340.303 147.727,341.618 146.651,343.293 C145.335,345.326 143.541,346.283 141.148,346.283 C136.603,346.283 136.603,344.728 141.148,339.465 C143.062,337.312 144.737,334.441 144.737,333.365 C144.737,329.895 147.249,328.341 152.632,328.341 C156.579,328.341 157.775,327.862 158.254,325.948 C158.732,324.154 159.928,323.556 163.158,323.556 z M309.091,340.859 C310.881,341.355 310.047,341.051 311.603,341.738 C313.277,342.455 314.593,343.771 314.593,344.728 C314.593,347.12 311.244,346.642 309.809,344.01 C309.617,343.625 309.399,343.251 309.233,342.853 C308.566,341.248 308.408,341.739 309.091,340.859 z M46.146,333.346 C46.714,333.914 46.563,333.58 46.651,334.322 C46.651,335.159 46.292,335.517 45.813,335.159 C45.454,334.681 45.454,333.963 45.813,333.484 L46.146,333.346 z M347.729,330.384 L348.467,330.384 L349.282,330.733 C350.837,331.809 350.837,332.049 349.282,333.125 C348.206,333.843 347.129,333.843 346.411,333.125 C345.441,331.459 345.758,330.698 347.729,330.384 z M32.536,318.771 C35.167,318.771 40.67,324.632 39.953,326.546 C38.875,329.058 36.483,328.819 32.775,325.589 C29.426,322.719 29.306,318.771 32.536,318.771 z M407.177,233.843 C408.971,233.843 410.526,236.714 409.45,237.91 C407.775,239.465 405.503,238.508 405.503,236.235 C405.503,234.919 406.22,233.843 407.177,233.843 z M380.861,233.843 C383.015,233.843 384.33,235.757 383.373,237.431 C382.057,239.585 379.186,238.747 379.186,236.235 C379.186,234.919 379.904,233.843 380.861,233.843 z M416.646,233.993 C418.41,234.169 418.586,234.413 418.66,236.235 C418.66,238.149 418.062,238.747 415.909,238.389 C414.474,238.149 413.277,237.192 413.277,236.235 C413.277,235.278 414.474,234.322 415.909,234.082 L416.646,233.993 z M445.91,233.951 C448.335,234.342 447.432,233.9 448.803,234.8 C449.522,235.517 449.641,236.594 449.163,237.431 C447.966,239.346 441.986,238.389 441.986,236.235 C442.615,234.135 444.043,234.353 445.91,233.951 z M424.223,234.033 C425.737,234.313 425.751,234.671 425.837,236.235 C425.837,238.03 425.239,238.628 423.684,238.389 C422.607,238.149 421.65,237.192 421.65,236.235 C421.65,235.278 422.607,234.322 423.684,234.082 L424.223,234.033 z M389.655,234.4 L390.191,234.8 C390.909,235.517 391.029,236.714 390.55,237.431 C389.952,238.389 389.234,238.389 388.516,237.671 C387.799,236.953 387.68,235.757 388.158,235.039 C388.852,234.236 388.389,234.519 389.655,234.4 z M444.845,212.54 L445.692,212.56 L446.89,212.791 C449.881,213.628 450.837,216.499 448.206,217.456 C444.976,218.772 441.387,217.575 441.388,215.302 C441.824,213.167 442.681,212.614 444.845,212.54 z M380.861,213.508 C382.894,213.508 384.21,215.183 383.134,216.379 C381.699,217.815 379.186,217.097 379.186,215.302 C379.186,214.345 379.904,213.508 380.861,213.508 z M389.195,213.989 C390.008,214.698 389.802,214.274 389.952,215.183 C389.952,216.259 389.354,217.097 388.756,217.097 C388.038,217.097 387.56,216.618 387.56,216.02 C387.56,215.302 388.038,214.465 388.756,214.106 L389.195,213.989 z M414.565,212.63 C414.96,212.777 415.409,212.823 415.749,213.072 C416.711,213.777 417.242,215.027 416.747,216.14 C416.387,216.618 415.311,217.097 414.354,217.097 C412.32,217.097 412.081,213.986 413.995,212.791 L414.565,212.63 z M407.296,212.312 C408.254,212.312 409.091,213.388 409.091,214.704 C409.091,216.02 408.254,217.097 407.296,217.097 C406.339,217.097 405.503,216.02 405.503,214.704 C405.503,213.388 406.339,212.312 407.296,212.312 z M364.833,214.704 C365.431,214.704 366.028,215.302 366.028,215.9 C366.028,216.618 365.431,217.097 364.833,217.097 C364.115,217.097 363.636,216.618 363.636,215.9 C363.636,215.302 364.115,214.704 364.833,214.704 z M372.607,214.584 C373.206,214.585 373.923,215.063 374.163,215.781 C374.402,216.499 373.684,217.097 372.607,217.097 C371.531,217.097 370.813,216.499 371.053,215.781 C371.291,215.063 372.009,214.585 372.607,214.584 z M424.223,212.502 C425.737,212.782 425.751,213.14 425.837,214.704 C425.837,216.499 425.239,217.097 423.684,216.857 C422.607,216.618 421.65,215.661 421.65,214.704 C421.65,213.747 422.607,212.791 423.684,212.551 L424.223,212.502 z" fill="#000000"/>
  </g>
</svg>
