<?xml version="1.0" encoding="UTF-8"?>
<!DOCTYPE svg PUBLIC "-//W3C//DTD SVG 1.1//EN" "http://www.w3.org/Graphics/SVG/1.1/DTD/svg11.dtd">
<svg version="1.1" xmlns="http://www.w3.org/2000/svg" xmlns:xlink="http://www.w3.org/1999/xlink" x="0" y="0" width="500" height="500" viewBox="0, 0, 500, 500">
  <g id="layer101">
    <path d="M222.504,414.088 C212.08,413.14 210.659,412.666 205.131,407.296 C200.077,402.4 196.918,400.979 185.704,398.294 C178.281,396.556 170.227,394.345 167.7,393.398 C165.173,392.45 154.591,390.081 144.009,387.87 C133.585,385.817 113.685,381.552 99.786,378.394 C76.57,373.024 74.043,372.866 63.935,374.445 C54.143,375.867 52.405,375.709 46.877,372.866 C31.873,365.285 30.61,356.124 41.665,337.33 C48.773,325.485 49.562,324.695 55.09,324.221 C59.986,323.747 61.724,322.642 65.04,317.43 C72.463,305.585 72.937,303.689 69.147,299.741 C64.408,294.687 64.724,292.634 72.147,279.683 C77.517,270.522 80.044,267.837 86.046,264.679 C95.206,260.099 94.259,261.204 108.631,236.25 C130.9,197.713 131.216,196.45 120.318,187.605 C111,179.866 103.261,178.761 92.205,183.183 L83.835,186.658 L52.879,180.498 C35.822,177.023 19.238,172.917 15.922,171.338 C8.972,168.021 5.024,160.756 2.655,146.226 C1.865,141.014 0.76,135.644 0.128,134.222 C-0.504,132.643 1.233,129.326 4.708,125.22 C7.709,121.587 11.657,116.217 13.395,113.217 C17.975,105.952 26.188,102.161 35.506,103.267 C39.454,103.74 55.248,106.583 70.41,109.742 C97.259,115.428 98.207,115.744 104.367,121.745 C112.106,129.168 122.845,132.485 130.584,129.8 C133.427,128.852 138.007,128.379 140.692,129.01 C144.325,129.642 146.22,129.01 148.431,126.641 C151.116,123.641 151.274,123.009 148.747,117.007 C145.588,109.268 146.694,106.583 155.538,100.424 C160.75,96.791 163.119,96.159 168.331,96.949 C171.648,97.423 176.386,99.16 178.755,101.055 C186.652,107.215 191.232,106.899 209.395,98.213 C230.085,88.42 242.878,85.104 259.935,84.788 C278.73,84.63 313.002,90.632 317.582,94.896 C319.32,96.633 322.952,98.055 325.321,98.055 C328.006,98.055 331.323,99.792 333.85,102.477 C336.219,104.846 342.22,109.584 347.274,112.901 C356.909,119.376 370.649,133.275 375.703,141.961 C378.862,147.331 379.652,147.489 388.812,144.646 C393.55,143.225 394.182,145.436 396.709,176.865 C397.972,192.027 399.868,205.452 400.815,206.558 C403.184,209.401 408.712,209.085 415.663,205.926 L421.347,203.083 L426.243,208.769 C431.297,214.613 442.195,231.196 457.041,256.15 C463.516,266.89 467.149,271.154 474.572,276.366 C481.837,281.42 485.786,285.842 491.945,295.792 C496.367,303.057 500,310.481 500,312.376 C500,316.798 494.314,320.746 487.997,320.746 C480.417,320.746 475.362,325.8 471.571,337.488 L468.097,347.912 L472.993,358.494 C475.679,364.337 477.889,370.655 477.889,372.55 C477.889,377.762 471.571,383.29 460.832,387.08 C452.619,390.081 449.62,390.397 442.669,389.291 C424.98,386.448 408.08,387.712 333.376,398.136 C327.374,398.926 311.896,400.821 299.104,402.242 C281.099,404.295 274.623,405.717 270.675,408.244 C267.99,410.139 264.199,412.508 262.462,413.456 C258.987,415.509 243.194,415.825 222.504,414.088 z" fill="#000000"/>
  </g>
</svg>
