<?xml version="1.0" encoding="UTF-8"?>
<!DOCTYPE svg PUBLIC "-//W3C//DTD SVG 1.1//EN" "http://www.w3.org/Graphics/SVG/1.1/DTD/svg11.dtd">
<svg version="1.1" xmlns="http://www.w3.org/2000/svg" xmlns:xlink="http://www.w3.org/1999/xlink" x="0" y="0" width="500" height="500" viewBox="0, 0, 500, 500">
  <g id="a">
    <path d="M170.261,338.352 C171.249,336.914 172.057,334.938 172.057,333.77 L172.057,331.703 L170.261,333.68 C167.655,336.465 163.432,336.285 160.917,333.23 C156.963,328.379 154.987,323.707 155.525,320.652 C155.975,318.136 155.795,317.687 153.729,317.148 C150.674,316.429 150.674,314.093 153.639,314.093 C155.795,314.093 155.885,313.823 155.885,308.792 C155.885,305.109 155.435,303.221 154.538,302.413 C152.65,300.796 153.01,292.979 154.987,292.979 C155.885,292.979 156.424,294.147 156.604,296.842 L156.873,300.616 L164.511,300.616 L172.057,300.616 L172.057,297.381 C172.057,290.643 171.699,290.733 192.722,290.733 C204.223,290.733 211.681,291.092 212.039,291.631 C212.309,292.171 214.376,292.529 216.532,292.529 C218.688,292.529 220.755,292.171 221.025,291.631 C221.384,291.092 231.985,290.733 249.955,290.733 C277.808,290.733 278.437,290.733 286.074,293.069 C290.297,294.327 295.238,295.944 296.945,296.663 C298.652,297.292 302.426,298.46 305.301,299.178 C308.266,299.897 311.321,301.155 312.219,301.964 C313.567,303.221 316.172,303.581 325.426,303.761 C333.423,303.85 337.916,304.39 340.072,305.378 C343.396,306.815 347.889,306.725 351.931,305.019 C355.525,303.581 360.737,306.815 360.737,310.589 C360.737,313.015 361.007,313.194 363.971,313.194 C366.846,313.194 367.116,313.374 366.487,315.261 C366.127,316.339 365.588,318.586 365.14,320.203 C364.78,321.82 363.882,324.066 363.073,325.324 C360.917,328.559 361.276,329.636 364.96,331.613 C369.092,333.77 368.643,335.207 364.061,335.118 C361.276,335.028 360.647,335.387 360.198,337.094 C359.928,338.262 359.838,339.43 360.108,339.879 C360.377,340.238 369.991,340.598 381.582,340.508 C404.223,340.508 405.57,340.238 407.008,335.747 C407.547,333.859 407.458,333.68 406.02,334.309 C405.032,334.668 401.976,335.207 399.191,335.387 C394.879,335.747 393.98,335.567 393.98,334.399 C393.98,333.59 395.418,332.243 397.125,331.434 C400.719,329.726 400.719,329.636 398.922,326.132 C398.203,324.695 397.574,322.898 397.574,322.09 C397.574,321.281 396.945,318.945 396.226,316.878 L394.969,313.194 L399.371,313.194 C403.234,313.194 404.313,312.745 407.368,310.05 L410.782,306.905 L420.755,306.905 C430.099,306.905 430.638,306.815 431.087,305.019 C431.537,303.491 431.985,303.221 433.693,303.761 C434.861,304.12 440.252,304.659 445.822,304.839 C456.154,305.288 456.873,305.198 466.038,300.526 C468.194,299.448 471.249,299.538 471.249,300.616 C471.249,301.784 474.574,301.784 475.292,300.616 C476.011,299.448 479.964,299.448 480.683,300.616 C481.492,301.964 484.457,301.694 485.086,300.167 C485.444,299.268 486.882,298.819 489.757,298.819 C492.453,298.819 495.059,298.1 496.945,296.932 C499.73,295.225 500,294.686 500,290.643 C500,286.6 499.73,286.06 497.125,284.444 C494.969,283.185 493.261,282.826 490.926,283.185 C488.32,283.635 487.242,283.365 485.714,281.838 C483.738,279.861 481.132,279.322 481.132,280.85 C481.132,282.108 476.999,281.928 474.843,280.67 C473.495,279.771 472.866,279.771 471.967,280.67 C470.171,282.466 466.127,282.018 465.588,279.951 C464.96,277.435 460.827,276.087 455.525,276.806 C453.1,277.076 446.451,277.615 440.881,277.795 L430.728,278.244 L431.806,276.267 C432.704,274.471 432.525,273.931 429.65,271.506 C427.943,269.978 425.606,268.091 424.529,267.283 C422.911,266.204 422.641,265.576 423.36,264.138 C423.9,263.239 424.529,260.904 424.798,259.107 C425.158,256.501 424.978,255.693 423.989,255.693 C423.181,255.693 422.731,254.794 422.731,253.266 C422.731,251.829 422.102,249.942 421.384,249.044 C420.126,247.337 420.036,247.337 418.868,248.864 C417.7,250.481 417.52,250.481 415.005,248.864 C411.051,246.348 408.446,243.563 406.289,239.609 C403.324,234.129 390.297,214.992 388.769,213.823 C388.051,213.284 384.367,211.308 380.593,209.331 C376.819,207.444 371.788,204.659 369.272,203.221 C361.994,198.999 358.311,197.292 355.885,197.292 C354.627,197.292 353.369,196.932 353.1,196.393 C352.83,195.944 350.764,195.495 348.518,195.495 C346.361,195.495 344.565,195.136 344.565,194.596 C344.565,194.147 343.935,193.698 343.217,193.698 C342.498,193.698 341.868,194.327 341.868,195.046 C341.868,196.483 340.431,196.842 339.712,195.585 C339.083,194.596 332.884,193.788 332.884,194.776 C332.884,195.854 325.157,195.585 321.204,194.417 C318.15,193.428 317.52,192.799 317.071,190.373 C316.712,188.217 315.993,187.408 314.825,187.408 C313.477,187.408 313.118,186.779 313.118,184.264 C313.118,181.389 312.938,181.119 310.422,181.119 C308.984,181.119 307.727,181.389 307.727,181.838 C307.727,182.736 274.484,182.108 272.686,181.119 C270.89,180.131 268.194,182.108 268.194,184.354 C268.194,185.252 267.386,187.049 266.397,188.307 C265.409,189.564 264.6,191.272 264.6,192.171 C264.6,193.338 263.792,193.698 261.186,193.698 C258.491,193.698 257.143,193.069 254.717,190.553 L251.663,187.408 L238.185,187.408 L224.798,187.408 L221.833,183.994 L218.868,180.49 L203.774,179.053 C195.507,178.154 184.816,176.896 180.144,176.177 C175.471,175.459 165.319,174.201 157.682,173.392 C150.045,172.583 141.779,171.596 139.263,171.326 L134.771,170.787 L134.502,167.103 C134.232,163.509 134.322,163.419 141.06,158.658 C146.631,154.704 147.799,153.446 147.799,151.47 C147.799,149.672 147.26,148.774 145.822,148.325 C142.228,147.157 136.298,146.887 135.669,147.876 C134.951,149.044 120.216,149.044 119.497,147.876 C119.137,147.247 118.329,147.247 117.251,147.876 C116.262,148.415 112.309,148.774 108.536,148.685 C102.246,148.595 100.809,148.864 95.238,151.56 L88.949,154.614 L70.98,154.614 L53.01,154.614 L39.982,162.162 C15.185,176.537 14.376,177.076 14.106,179.232 C13.837,180.67 12.668,181.748 10.243,182.736 C6.469,184.174 5.48,186.06 6.02,190.643 C6.289,193.248 6.289,193.248 12.489,193.248 C20.575,193.248 21.474,195.046 13.837,195.854 C9.703,196.213 7.907,196.842 7.008,198.19 C6.289,199.178 4.493,200.256 2.875,200.706 L0,201.425 L0,217.597 L0,233.68 L2.965,233.949 C5.122,234.129 6.199,234.848 6.739,236.285 C7.547,238.532 9.074,238.981 18.868,239.969 C21.833,240.238 27.134,240.957 30.728,241.497 L37.107,242.395 L52.291,265.486 C60.647,278.154 70.351,292.799 73.765,298.1 L79.964,307.714 L84.007,307.984 C87.961,308.253 88.051,308.343 88.32,311.667 C88.679,315.89 90.297,316.069 90.297,311.847 C90.297,310.14 90.746,308.703 91.195,308.703 C91.734,308.703 92.093,309.511 92.093,310.589 C92.093,313.823 93.711,315.711 97.934,317.238 C105.301,320.113 114.376,317.777 116.801,312.475 C117.97,309.87 118.868,309.96 119.946,312.745 C121.294,316.429 125.516,317.867 133.423,317.507 C138.455,317.328 140.881,316.788 142.138,315.621 C143.127,314.812 144.385,314.093 144.924,314.093 C146.81,314.093 146.092,316.339 144.025,317.238 C142.677,317.867 141.958,318.945 141.958,320.382 C141.958,321.64 140.971,325.594 139.802,329.187 L137.556,335.657 L133.693,335.657 C130.548,335.657 129.829,335.926 129.829,337.274 C129.829,340.778 131.357,341.047 150.225,340.957 L168.464,340.868 L170.261,338.352 z" fill="#000000"/>
    <path d="M366.667,331.074 C365.408,330.086 364.331,328.559 364.331,327.75 C364.331,325.773 370.71,313.194 371.698,313.194 C372.866,313.194 372.507,314.812 371.339,315.261 C370.44,315.531 370.44,316.159 371.429,318.046 C372.507,319.933 372.956,326.492 372.507,332.063 C372.327,333.59 369.182,333.051 366.667,331.074 z" fill="#FDFDFD"/>
    <path d="M390.117,332.332 C389.937,331.883 389.847,329.008 389.937,325.774 C390.117,319.933 390.836,316.788 392.183,316.788 C393.172,316.788 397.574,325.684 397.574,327.57 C397.574,330.355 391.195,334.399 390.117,332.332 z" fill="#FDFDFD"/>
    <path d="M377.808,326.312 L377.808,320.382 L381.222,320.382 L384.636,320.382 L384.547,326.042 L384.457,331.613 L381.132,331.883 L377.808,332.153 L377.808,326.312 z" fill="#FDFDFD"/>
  </g>
</svg>
