<?xml version="1.0" encoding="UTF-8"?>
<!DOCTYPE svg PUBLIC "-//W3C//DTD SVG 1.1//EN" "http://www.w3.org/Graphics/SVG/1.1/DTD/svg11.dtd">
<svg version="1.1" xmlns="http://www.w3.org/2000/svg" xmlns:xlink="http://www.w3.org/1999/xlink" x="0" y="0" width="500" height="500" viewBox="0, 0, 500, 500">
  <g id="layer102">
    <path d="M104.178,141.776 C99.072,141.42 94.969,142.608 90.78,145.464 C86.814,148.549 82.628,155.49 82.628,159.015 C82.628,161.109 76.237,166.947 73.814,166.947 C73.153,166.947 72.161,168.16 71.611,169.702 C70.399,172.786 68.857,173.227 67.534,170.914 C66.433,169.151 60.153,166.287 55.305,165.405 C51.229,164.744 41.204,168.16 39,171.134 C36.797,173.998 35.805,172.236 32.5,159.567 C31.949,157.583 31.068,157.252 26.992,157.252 C22.916,157.252 22.034,157.583 22.034,159.236 C22.034,162.871 19.28,164.414 13.331,164.083 C7.822,163.863 7.601,163.973 6.941,167.058 C6.61,168.82 5.839,170.583 5.398,170.914 C4.847,171.244 4.407,172.677 4.407,174.219 C4.407,175.651 3.415,177.414 2.203,178.185 C0.11,179.507 0,180.829 0,200.219 L0,220.821 L2.865,221.152 C5.178,221.372 6.059,222.473 7.382,226.44 C9.474,232.609 12.449,236.355 18.398,240.651 C21.043,242.524 23.135,244.838 23.135,245.719 C23.135,246.6 24.678,249.025 26.441,251.117 C28.754,253.651 29.746,255.855 29.525,258.058 C29.415,260.372 30.627,262.796 33.932,266.982 C36.466,270.177 39,274.915 39.661,277.448 C40.323,279.982 41.094,282.957 41.424,284.058 C41.754,285.05 43.848,286.923 46.051,288.025 C50.898,290.449 56.186,295.516 56.186,297.61 C56.186,298.381 57.178,299.592 58.39,300.254 C59.602,300.915 60.593,302.457 60.593,303.669 C60.593,304.88 61.475,306.203 62.466,306.533 C65.992,307.855 75.026,316.118 77.56,320.305 C79.763,324.05 86.924,329.999 89.127,329.999 C89.568,329.999 93.094,333.195 96.84,337.161 C100.475,341.127 104.111,344.322 104.771,344.322 C106.315,344.322 116.34,351.042 121.077,355.228 C124.493,358.203 125.374,358.534 128.789,357.872 C130.992,357.322 136.391,357.101 140.687,357.212 C145.094,357.322 149.941,357.432 151.484,357.432 L177.925,357.432 C182.221,357.322 210.425,357.322 230.256,357.322 L255.264,357.322 C256.366,357.432 262.095,357.101 268.044,356.881 C275.315,356.441 279.391,356.661 280.383,357.542 C281.485,358.534 282.477,358.534 284.239,357.542 C285.782,356.771 290.409,356.441 297.24,356.771 C303.078,357.101 308.587,357.322 309.248,357.322 C314.866,357.101 332.604,357.212 334.367,357.322 C335.579,357.432 339.434,357.212 343.07,356.661 C346.596,356.11 352.214,356.11 355.409,356.551 C358.714,356.991 364.113,356.991 367.418,356.551 C370.833,356.11 380.639,356.22 389.232,356.771 C397.825,357.322 407.299,357.762 410.384,357.542 C413.359,357.322 418.096,357.212 420.85,357.101 C423.604,356.991 428.011,357.322 430.766,357.762 C435.283,358.424 436.164,358.203 440.681,354.788 C445.859,350.932 455.995,345.424 458.088,345.424 C458.749,345.424 460.952,343.881 462.936,342.008 C466.02,339.144 479.02,332.203 481.224,332.203 C481.995,332.203 485.52,326.805 487.063,323.389 C487.503,322.508 490.588,318.872 494.003,315.347 C500.394,308.737 500.834,308.076 499.181,304.88 C498.631,303.889 497.308,301.025 496.097,298.601 C494.774,296.177 493.453,291.551 493.122,288.245 C492.13,281.084 490.809,278.22 488.275,278.22 C484.749,278.22 474.834,274.033 470.758,270.728 C468.444,268.966 465.359,267.203 463.817,266.872 C455.774,264.999 452.8,263.897 447.291,260.923 C443.986,259.05 439.028,257.287 436.384,256.847 C427.461,255.524 425.698,252.99 429.003,246.381 C431.096,242.414 430.105,238.559 427.02,238.559 C425.808,238.559 421.181,237.236 416.995,235.694 C412.698,234.041 408.181,232.499 406.858,232.279 C404.766,231.728 401.019,228.863 402.232,228.533 C402.452,228.533 410.384,228.203 419.749,227.982 C435.062,227.431 436.935,227.211 438.367,225.228 C439.909,223.025 445.529,222.363 446.74,224.236 C447.621,225.778 451.257,225.669 453.901,224.016 C455.554,222.914 456.545,222.914 458.198,223.906 C459.85,224.897 460.732,224.787 462.605,223.465 C464.809,222.033 465.249,222.033 467.012,223.575 C468.774,225.228 469.105,225.228 470.978,223.134 C472.079,221.923 473.952,220.931 475.054,220.931 C478.139,220.931 484.198,218.177 486.842,215.532 C488.825,213.55 489.156,211.897 489.156,204.516 C489.156,199.668 488.825,194.931 488.495,193.939 C487.503,191.405 480.012,187.88 475.715,187.88 C473.622,187.88 470.978,187.109 469.656,186.227 C467.562,184.796 466.791,184.796 464.919,185.897 C463.266,186.999 462.275,186.999 460.732,186.117 C459.3,185.125 458.087,185.236 455.664,186.448 C453.461,187.659 452.249,187.77 451.367,186.888 C449.825,185.346 445.418,185.346 444.537,186.778 C444.206,187.329 441.893,187.88 439.579,187.88 C437.265,187.88 434.952,187.329 434.621,186.778 C433.74,185.236 388.57,185.346 387.138,186.778 C385.486,188.43 354.528,188.321 347.587,186.668 C344.612,185.897 338.884,184.465 334.917,183.473 C330.951,182.371 324.121,181.16 319.604,180.719 C315.087,180.389 308.917,178.956 305.833,177.745 C296.688,173.998 246.23,170.804 242.705,173.778 C241.273,174.88 240.612,174.659 238.518,172.015 C236.755,169.812 235.434,169.151 233.892,169.592 C232.569,170.033 231.137,169.702 230.256,168.6 C229.485,167.608 227.942,167.168 226.51,167.608 C224.747,168.049 223.536,167.278 221.773,164.855 C219.348,161.659 219.239,161.659 205.027,160.888 L190.704,160.117 L187.73,155.38 C184.205,149.651 181.34,148.219 173.849,148.219 C168.671,148.219 167.9,148.659 164.043,152.626 L159.747,157.033 L156.992,152.845 C153.577,147.667 148.178,144.914 141.458,144.914 C133.747,144.914 127.246,149.32 124.603,156.371 C123.501,158.905 123.06,159.236 121.738,158.134 C120.857,157.363 120.086,155.82 120.086,154.718 C120.086,151.303 110.941,142.931 106.315,142.049 L104.178,141.776 z M177.925,342.118 C184.205,342.118 185.857,343.44 184.205,346.966 C182.882,350.05 182.111,350.381 179.688,348.839 C178.696,348.177 177.043,348.177 175.501,348.839 C173.297,349.61 172.747,349.389 171.755,346.856 C170.434,343.22 171.755,342.118 177.925,342.118 z M312.332,342.118 C315.638,342.118 316.189,342.449 316.189,344.652 C316.189,346.085 315.638,347.737 314.866,348.508 C313.214,350.161 312.553,350.161 310.9,348.508 C309.909,347.516 308.917,347.516 306.934,348.508 C302.968,350.271 302.307,348.177 305.612,344.872 C307.485,342.999 309.578,342.118 312.332,342.118 z M235.172,343.199 C235.487,343.231 235.816,343.195 236.117,343.293 C237.997,343.912 237.567,346.301 236.866,347.627 C235.434,350.271 234.332,350.381 232.459,348.177 C231.358,346.856 231.358,346.195 232.459,344.872 C233.222,344.066 234.021,343.359 235.172,343.199 z M151.887,342.288 L153.027,342.338 C158.205,342.669 159.747,344.432 158.205,348.398 C157.763,349.61 156.772,349.83 155.009,349.279 C151.814,348.288 150.713,348.288 148.51,349.279 C147.297,349.72 146.306,349.279 145.535,347.737 C143.454,343.154 148.484,342.31 151.887,342.288 z M405.397,343.339 C407.582,343.38 406.617,343.335 408.291,343.44 C413.138,343.771 413.689,343.991 414.02,346.635 C414.35,349.5 414.24,349.5 408.291,349.389 C403.223,349.389 402.121,348.949 401.68,347.186 C401.042,343.803 402.496,343.511 405.397,343.339 z M255.501,342.14 C259.24,342.767 257.737,342.283 260.112,343.22 C262.095,344.322 262.976,347.627 261.544,349.059 C261.103,349.389 259.782,349.169 258.569,348.618 C257.027,347.737 255.705,347.737 253.832,348.618 C251.629,349.61 251.078,349.389 249.976,347.516 C249.315,346.305 249.095,344.542 249.426,343.661 C250.533,341.765 253.836,342.286 255.501,342.14 z M329.887,342.243 C331.317,342.517 332.105,342.788 333.154,343.881 C335.358,346.085 335.358,346.525 332.935,348.288 C331.392,349.5 330.841,349.39 329.189,347.516 C328.239,346.237 326.799,343.572 328.883,342.488 C329.189,342.328 329.552,342.325 329.887,342.243 z M382.842,342.118 C384.604,342.118 385.706,344.872 384.935,347.076 C384.054,349.279 382.621,349.169 381.41,346.856 C380.197,344.432 380.858,342.118 382.842,342.118 z M456.389,328.907 C457.602,329.218 458.248,329.401 458.749,330.661 C459.96,333.856 459.41,335.508 456.656,336.169 C455.224,336.5 453.461,337.491 452.69,338.373 C449.935,341.678 447.842,339.364 449.494,334.847 C450.8,331.955 453.012,329.197 456.389,328.907 z M105.767,323.651 C106.306,323.7 106.881,323.597 107.384,323.797 C108.751,324.34 109.647,325.785 110.611,326.804 C113.365,329.999 114.467,336.279 112.704,338.042 C111.493,339.364 110.611,338.923 106.424,335.068 C102.018,330.881 101.908,330.33 103.78,326.144 C104.702,324.401 104.086,325.267 105.767,323.651 z M474.33,322.419 C474.736,322.502 475.201,322.442 475.547,322.669 C476.637,323.382 475.075,324.857 474.613,325.373 C472.961,327.025 470.978,326.474 470.978,324.381 C470.978,323.5 472.079,322.729 473.402,322.508 L474.33,322.419 z M87.666,307.127 C90.572,307.418 92.218,309.409 94.196,311.381 L98.602,315.788 L94.857,319.203 L91.221,322.508 L86.924,318.101 C82.628,313.805 82.628,313.805 84.39,310.389 C85.19,309.009 85.944,307.471 87.666,307.127 z M69.255,288.513 C71.556,289.276 72.992,291.345 74.695,292.982 L79.873,298.16 L76.789,300.915 C73.043,304.109 70.839,304.33 69.958,301.355 C69.628,300.144 68.305,298.601 67.094,298.05 C64.339,296.508 64.45,292.322 67.204,289.788 C68.336,288.804 67.671,289.258 69.255,288.513 z M52.049,279.376 C53.382,279.439 54.816,279.376 55.746,280.533 C56.076,281.194 55.856,282.185 54.975,282.737 C53.432,283.618 50.679,282.076 50.679,280.313 C51.017,279.455 50.706,279.914 52.049,279.376 z M458.426,273.98 C460.159,274.377 459.447,274.085 460.622,274.694 C461.723,275.465 463.376,276.016 464.257,276.016 C466.901,276.016 467.562,278.44 465.469,280.093 C462.715,281.966 456.766,281.966 455.003,279.872 C452.868,276.808 455.079,274.158 458.426,273.98 z M365.766,237.55 C367.546,238.498 366.849,237.929 367.968,239.109 C368.739,239.99 370.723,240.762 372.486,240.762 C376.892,240.762 376.451,242.524 371.494,245.058 C366.426,247.702 366.426,247.592 363.011,246.05 C359.816,244.618 359.596,243.847 362.019,240.211 C362.999,238.865 363.916,237.535 365.766,237.55 z M36.466,229.965 C37.458,229.745 38.56,230.516 39,231.507 C39.661,233.16 39.221,235.033 36.907,242.745 C36.246,244.508 34.263,244.397 33.492,242.634 C32.39,239.77 34.703,230.295 36.466,229.965 z M386.287,225.754 C388.202,225.995 389.124,226.08 390.553,227.541 C391.876,228.753 393.749,229.745 394.74,229.745 C396.723,229.745 397.274,231.397 395.511,232.499 C394.96,232.829 394.74,233.821 395.181,234.702 C395.511,235.694 395.181,237.126 394.41,238.007 C392.757,239.99 388.901,239.109 380.969,235.143 C379.867,234.592 378.545,234.152 377.884,234.152 C377.333,234.152 375.901,233.381 374.689,232.389 C373.587,231.397 370.833,230.406 368.629,230.295 C363.782,230.075 360.367,227.541 364.664,227.541 C366.206,227.541 372.045,226.99 377.774,226.44 C380.602,226.123 383.436,225.751 386.287,225.754 z" fill="#000000"/>
  </g>
</svg>
