<?xml version="1.0" encoding="UTF-8"?>
<!DOCTYPE svg PUBLIC "-//W3C//DTD SVG 1.1//EN" "http://www.w3.org/Graphics/SVG/1.1/DTD/svg11.dtd">
<svg version="1.1" xmlns="http://www.w3.org/2000/svg" xmlns:xlink="http://www.w3.org/1999/xlink" x="0" y="0" width="500" height="500" viewBox="0, 0, 500, 500">
  <g id="layer102">
    <path d="M105.452,105.535 C87.032,105.535 70.658,105.876 69.066,106.332 C65.086,107.468 61.902,114.177 62.925,119.18 C63.266,121.227 63.266,124.524 62.812,126.457 L62.016,129.982 L33.817,129.982 L33.817,148.63 C33.817,170.69 31.656,168.643 54.397,168.643 C73.045,168.643 73.842,169.098 68.952,176.943 C65.427,182.628 62.13,183.879 60.083,180.354 C58.946,178.421 58.718,178.421 55.421,180.241 C50.645,182.969 44.619,182.856 39.843,179.9 L35.977,177.512 L31.202,179.786 C25.743,182.287 17.443,185.244 9.938,187.29 C5.39,188.541 4.821,189.11 4.139,192.748 C3.798,194.909 3.911,197.638 4.367,198.889 C4.821,200.026 5.277,205.825 5.277,211.738 C5.39,220.152 4.935,222.881 3.57,224.473 C1.524,226.747 2.206,230.271 4.48,229.476 C7.892,228.225 10.393,233.001 16.988,253.809 L19.376,261.2 L15.282,264.611 L11.075,268.136 L11.075,302.362 L7.095,306.228 C2.206,311.003 1.183,314.188 0.273,327.946 C-0.523,338.976 0.387,343.751 3.457,343.751 C5.277,343.866 15.623,353.076 15.623,354.668 C15.623,356.6 22.446,361.489 26.426,362.399 C28.359,362.854 32.225,365.811 35.522,369.335 C38.592,372.633 43.141,376.158 45.415,377.181 C47.802,378.091 52.692,381.957 56.445,385.709 L63.153,392.419 L72.022,393.101 C77.025,393.555 83.734,393.783 86.917,393.783 C98.402,393.783 105.452,393.783 112.502,394.01 C116.482,394.124 120.688,394.124 121.939,394.01 C123.19,393.896 191.528,394.01 273.739,394.124 L423.264,394.465 L429.518,390.144 C432.928,387.756 436.681,385.823 437.818,385.823 C441.002,385.823 444.299,383.776 450.212,378.319 C453.055,375.589 456.92,373.088 458.74,372.633 C463.971,371.382 468.519,368.653 472.726,364.332 C475,362.058 478.866,359.556 481.595,358.761 C493.535,355.122 497.742,350.005 497.742,339.089 C497.742,335.451 498.196,332.153 498.878,331.812 C500.584,330.789 500.243,321.465 498.537,319.646 C497.628,318.849 494.444,315.893 491.374,313.051 L485.802,307.934 L485.461,296.677 C485.007,285.534 485.007,285.534 481.595,283.601 C479.663,282.577 476.82,280.644 475.114,279.393 C473.522,278.029 471.02,276.665 469.77,276.209 C468.405,275.755 465.79,274.049 463.856,272.344 C461.924,270.637 459.536,268.591 458.626,267.795 C457.262,266.658 456.807,264.157 456.807,256.765 L456.807,247.101 L447.142,247.101 C438.159,247.101 437.477,246.986 437.477,244.712 C437.477,243.462 433.838,236.412 429.403,229.135 C424.969,221.858 420.08,213.784 418.715,211.283 C416.328,207.076 415.759,206.735 410.642,206.394 C407.572,206.279 399.726,205.37 393.131,204.346 C382.101,202.755 380.509,202.186 372.322,197.069 L363.568,191.498 L347.535,191.156 C338.779,190.929 331.274,190.474 331.047,190.133 C330.82,189.679 327.977,189.451 324.794,189.679 C320.813,189.905 318.312,190.702 316.492,192.407 C313.991,194.682 312.967,194.795 284.2,194.795 C258.502,194.795 254.408,194.568 254.408,193.09 C254.408,191.839 255.773,191.384 259.526,191.384 C263.732,191.384 264.642,191.043 264.642,189.223 C264.642,187.972 265.779,186.722 267.144,186.267 C268.621,185.926 293.069,185.13 321.496,184.562 C371.072,183.538 381.875,182.856 388.924,180.127 C392.108,178.877 392.108,178.762 391.767,170.121 C391.426,161.479 391.426,161.365 387.446,159.091 C383.693,156.817 381.647,156.703 355.608,156.703 C340.258,156.703 327.181,156.362 326.499,155.908 C324.679,154.657 298.413,155.111 296.821,156.362 C293.638,158.864 291.931,156.362 291.931,149.313 C291.931,142.035 292.046,142.149 284.995,142.49 C282.494,142.604 280.334,141.921 279.538,140.898 C278.173,139.306 273.966,139.078 249.178,139.078 L220.41,139.078 L218.591,135.781 C217.568,133.621 215.748,132.142 213.474,131.688 C209.381,130.778 207.106,132.257 206.424,136.236 C205.855,138.737 206.765,139.534 215.293,143.627 C222.229,146.924 224.845,148.857 224.845,150.336 C224.845,152.269 223.707,151.928 215.407,147.834 C210.29,145.332 205.06,142.831 203.809,142.376 C200.17,140.785 183.797,137.032 177.087,136.35 C173.676,135.895 170.265,135.213 169.469,134.758 C167.764,133.734 164.58,124.638 164.58,120.545 C164.58,116.678 160.372,112.13 155.824,111.107 C154.118,110.766 149.57,109.288 145.818,107.923 C139.451,105.649 136.836,105.535 105.452,105.535 z M297.139,360.701 C298.844,360.96 301.068,361.11 301.825,362.968 C302.279,364.56 303.53,365.356 306.487,365.583 C310.353,365.925 310.694,366.266 312.172,371.382 C313.536,376.386 313.536,377.181 311.148,382.525 L308.533,388.211 L302.848,387.87 C297.39,387.529 296.935,387.301 295.798,383.549 C294.661,380.252 293.979,379.569 291.249,379.569 C288.634,379.569 287.611,380.365 285.905,383.89 C284.086,387.87 283.631,388.097 278.514,388.097 C272.601,388.097 270.328,386.733 270.328,382.981 C270.328,381.616 269.759,380.024 269.077,379.342 C268.167,378.432 268.167,376.954 269.19,373.656 C271.692,366.038 271.692,365.925 279.538,365.583 C284.882,365.356 287.27,364.674 288.862,362.968 C291.132,360.944 294.205,360.628 297.139,360.701 z M208.308,360.869 C209.956,361.212 211.511,361.34 212.792,362.513 C213.701,363.423 216.317,364.219 218.591,364.219 C224.048,364.219 227.119,366.038 227.119,369.109 C227.119,370.586 228.597,374.111 230.53,377.068 C232.349,380.024 233.942,383.776 233.942,385.255 C233.942,387.87 233.6,388.097 227.801,388.097 C221.32,388.097 219.842,387.188 218.591,382.071 C217.909,379.569 217.112,379.001 214.497,379.001 C211.768,379.001 210.858,379.797 209.266,383.322 C207.448,387.074 206.765,387.529 202.33,387.87 C196.645,388.325 194.599,386.96 193.576,382.298 C193.007,379.569 192.21,379.001 189.482,379.001 C186.753,379.001 185.843,379.797 184.251,383.322 C182.318,387.188 181.863,387.529 176.633,387.87 C170.379,388.325 170.151,387.188 175.951,383.322 C179.361,381.047 181.522,377.75 186.184,367.63 C186.753,366.493 189.027,365.811 193.12,365.583 C197.555,365.356 199.602,364.674 200.738,362.968 C202.62,360.822 205.689,360.858 208.308,360.869 z M383.305,360.975 C389.093,362.065 392.988,364.627 394.609,370.586 C396.201,378.546 396.201,378.432 391.994,379.001 C388.811,379.455 387.901,380.138 387.673,382.412 C387.446,384.004 386.65,385.937 385.968,386.732 C385.285,387.642 382.783,388.097 379.145,387.87 C373.46,387.529 373.232,387.301 370.39,381.275 C369.139,378.66 363.681,378.432 362.885,380.934 C360.724,387.529 360.042,388.097 353.675,388.097 C346.056,388.097 345.033,386.278 349.695,380.479 C351.514,378.091 353.788,373.884 354.698,371.041 L356.404,365.925 L365.842,365.583 C373.573,365.356 375.847,364.787 377.553,363.082 C379.329,361.52 380.88,360.912 383.305,360.975 z M117.96,360.807 C120.347,360.807 122.849,361.604 123.645,362.513 C124.555,363.65 127.17,364.219 131.264,364.219 C138.541,364.219 141.839,365.697 141.839,368.994 C141.839,372.86 147.182,380.82 151.503,383.549 C153.664,384.914 155.483,386.506 155.483,387.073 C155.483,387.642 153.095,388.097 150.253,388.097 C145.249,388.097 145.023,387.87 143.203,383.549 C141.611,379.796 140.701,379.001 138.2,379.001 C135.698,379.001 134.675,379.91 132.969,383.322 C131.036,387.415 130.923,387.529 124.782,387.529 C118.642,387.529 118.529,387.415 117.278,383.549 C116.141,380.138 115.458,379.569 112.275,379.569 C109.091,379.569 108.409,380.138 107.271,383.549 C106.134,387.301 105.793,387.529 100.108,387.87 C95.219,388.211 94.081,387.87 93.058,385.937 C92.035,384.117 92.376,382.639 95.219,378.319 C97.037,375.248 98.63,372.065 98.63,371.041 C98.63,367.175 102.041,364.219 106.475,364.219 C108.977,364.219 111.478,363.537 112.275,362.513 C113.07,361.604 115.572,360.807 117.96,360.807 z M54.285,365.653 C55.161,366.655 55.565,367.187 55.762,368.54 C56.104,370.245 56.786,373.088 57.24,374.907 C57.922,377.863 57.809,377.978 55.762,376.954 C51.896,374.794 50.645,372.519 51.441,368.767 C51.927,367.137 52.143,365.433 54.285,365.653 z M453.169,357.396 C454.646,357.396 456.92,363.764 456.125,365.811 C455.784,366.607 453.623,368.312 451.349,369.676 C446.005,372.747 445.209,372.747 442.253,369.563 L439.751,366.948 L442.253,364.56 C446.005,361.263 451.918,357.396 453.169,357.396 z M32.741,350.793 C35.429,351.051 37.305,353.508 39.274,355.122 C44.619,360.125 44.96,361.263 42.004,362.968 C39.274,364.674 38.933,364.56 35.067,361.263 C32.338,359.102 31.543,357.396 31.543,354.44 C31.566,353.41 31.463,352.085 32.122,351.209 C32.271,351.01 32.535,350.932 32.741,350.793 z M468.786,354.386 L469.997,354.553 C471.248,354.781 472.612,355.009 473.294,355.122 C473.863,355.122 473.409,355.918 472.271,356.828 C469.428,358.989 467.723,358.989 466.017,356.941 C464.613,354.61 467.015,354.417 468.786,354.386 z M492.883,338.141 L493.024,338.194 C493.142,338.442 493.177,339.584 493.193,339.885 C493.193,341.136 492.852,342.615 492.397,342.956 C491.374,344.092 489.782,343.979 489.782,342.842 C489.782,342.274 490.578,340.909 491.488,339.658 C492.222,338.669 491.822,339.173 492.697,338.151 L492.883,338.141 z M7.664,317.599 C8.233,317.599 8.801,318.395 8.801,319.418 C8.801,320.328 8.233,320.782 7.664,320.441 C6.982,320.1 6.527,319.305 6.527,318.622 C6.527,318.054 6.982,317.599 7.664,317.599 z" fill="#000000"/>
  </g>
</svg>
