<?xml version="1.0" encoding="UTF-8"?>
<!DOCTYPE svg PUBLIC "-//W3C//DTD SVG 1.1//EN" "http://www.w3.org/Graphics/SVG/1.1/DTD/svg11.dtd">
<svg version="1.1" xmlns="http://www.w3.org/2000/svg" xmlns:xlink="http://www.w3.org/1999/xlink" x="0" y="0" width="500" height="500" viewBox="0, 0, 500, 500">
  <g id="layer101">
    <path d="M301.994,498.401 C296.68,496.963 295.679,496.275 295.679,493.962 C295.679,493.212 295.116,491.899 294.366,490.961 C293.303,489.648 293.116,488.773 293.428,486.959 C294.429,481.52 294.304,481.02 291.74,479.769 C288.426,478.206 287.801,476.518 289.052,472.266 C290.24,468.14 290.427,462.825 289.302,463.2 C288.927,463.325 287.489,465.264 286.176,467.515 C283.237,472.391 280.673,474.767 274.984,477.768 C268.857,480.957 264.167,482.458 259.978,482.458 C257.977,482.458 256.164,482.77 255.977,483.083 C255.789,483.458 254.664,483.708 253.538,483.708 C252.35,483.708 250.35,484.083 249.036,484.583 C245.098,485.959 231.592,487.147 229.654,486.334 C228.779,485.897 227.278,485.584 226.278,485.584 C224.59,485.584 224.402,485.771 224.402,487.71 C224.402,493.962 222.214,494.712 204.457,494.087 C197.392,493.9 190.764,493.524 189.702,493.212 C187.951,492.774 187.826,492.587 187.638,489.273 C187.451,486.084 187.576,485.709 189.014,484.709 C190.639,483.646 193.14,479.519 193.14,477.831 C193.14,477.331 192.39,476.393 191.452,475.705 L189.764,474.455 L190.577,470.516 C191.015,468.327 191.89,465.514 192.578,464.263 C193.953,461.45 195.266,451.446 194.703,447.382 C194.203,443.756 195.516,440.442 198.455,437.691 C200.643,435.69 200.643,435.69 200.643,430.25 C200.643,426.937 200.268,423.435 199.643,421.56 C198.705,418.621 198.705,418.183 199.643,416.183 C200.143,414.995 201.143,413.307 201.831,412.431 C202.894,411.118 203.019,410.305 202.706,406.929 C202.269,402.24 201.456,401.615 198.705,403.991 C195.641,406.492 193.766,405.991 192.578,402.302 C191.64,399.114 191.515,399.551 194.516,390.11 C195.204,387.985 195.641,385.546 195.516,384.796 C195.329,383.483 195.016,383.358 192.265,383.545 C189.076,383.733 186.888,382.545 186.888,380.544 C186.888,378.856 191.765,369.352 194.141,366.414 C195.391,364.913 198.205,362.537 200.393,361.162 C202.581,359.786 204.395,358.286 204.395,357.786 C204.395,357.348 203.957,355.722 203.457,354.284 C202.144,350.533 202.206,350.095 205.02,347.344 C207.833,344.531 209.334,341.404 209.647,337.778 C209.834,335.527 210.772,334.277 212.273,334.277 C212.648,334.277 213.461,333.714 214.086,333.026 C214.899,332.088 215.086,331.213 214.774,329.337 C214.273,326.086 215.336,325.211 219.15,325.836 C222.401,326.274 223.777,325.523 223.777,323.21 C223.777,322.147 223.152,321.334 221.589,320.459 C219.963,319.459 219.275,318.521 218.775,316.583 C218.4,315.145 217.65,313.144 217.087,312.081 C216.524,311.08 215.274,307.954 214.398,305.203 C212.398,299.201 211.022,298.388 209.959,302.577 C208.584,308.017 205.145,309.642 202.394,306.079 C200.893,304.265 197.204,302.452 194.703,302.39 C194.016,302.39 192.39,302.702 191.14,303.077 C188.951,303.64 188.764,303.89 188.764,306.016 C188.764,308.955 186.2,314.394 183.199,318.021 C179.51,322.397 178.885,326.024 180.261,335.277 C181.136,340.904 181.198,342.78 180.573,346.531 C179.823,350.72 179.885,351.283 181.198,354.972 C182.574,358.661 182.636,359.474 182.199,367.039 C181.636,376.73 181.574,382.983 182.011,436.503 C182.199,469.015 182.449,477.456 183.137,478.706 C183.637,479.582 183.949,482.145 183.949,484.646 C183.949,492.399 181.761,493.9 172.07,492.587 C169.194,492.211 166.568,491.711 166.255,491.524 C165.943,491.336 165.38,490.148 165.067,488.835 C164.38,486.584 164.63,485.084 166.443,480.269 C167.193,478.269 167.818,465.576 167.256,463.388 C167.068,462.638 166.255,461.7 165.38,461.262 C164.567,460.825 163.254,459.136 162.504,457.511 C161.378,455.01 161.191,453.947 161.566,450.821 C161.879,448.695 162.691,445.944 163.692,444.318 C165.442,441.317 165.317,442.505 165.818,423.06 L165.943,418.996 L163.629,417.933 C159.815,416.12 159.565,414.807 161.879,410.18 C163.692,406.617 163.879,405.866 163.504,402.74 C163.254,400.239 163.379,398.801 164.067,397.426 C165.442,394.737 165.255,393.362 163.067,391.048 C160.691,388.485 160.003,386.797 160.003,383.67 C160.003,382.295 159.315,379.669 158.502,377.731 C156.439,373.104 156.001,369.603 156.939,365.163 C157.689,361.85 157.877,357.911 157.564,353.659 C157.502,352.784 157.627,350.533 157.877,348.595 C158.127,346.219 157.94,343.593 157.189,340.467 C156.439,337.153 156.189,333.777 156.376,328.65 L156.564,321.459 L153.938,316.145 C150.874,309.893 149.999,306.016 149.999,299.263 C149.999,293.449 149.561,293.011 143.622,291.761 C139.182,290.885 138.495,290.073 139.057,286.634 C139.62,283.257 140.245,282.069 142.934,279.068 C144.622,277.193 144.997,276.255 144.747,275.129 C144.434,273.879 144.872,273.129 147.373,270.815 C150.437,268.002 151.375,266.314 153.375,260.124 C154.626,256.185 154.626,254.934 153.438,253.371 C152.187,251.683 152.25,250.683 153.75,248.807 C154.688,247.556 154.938,246.681 154.626,245.118 C154.376,243.617 154.626,242.492 155.564,240.929 C156.314,239.741 156.877,238.24 156.877,237.553 C156.877,236.865 157.439,235.552 158.127,234.739 C158.752,233.864 159.815,231.863 160.315,230.237 C161.253,227.424 161.253,227.049 160.065,223.297 C159.315,221.109 158.752,217.92 158.752,216.232 C158.752,213.794 158.44,212.918 157.252,211.918 C155.189,210.105 154.688,207.291 155.939,204.915 C156.439,203.852 157.189,202.977 157.502,202.977 C158.565,202.977 158.815,200.476 157.877,199.101 C156.627,197.287 156.627,193.474 157.877,191.035 C159.128,188.597 158.877,187.971 155.876,186.408 L153.438,185.158 L153.25,170.84 L153.125,156.522 L154.688,154.209 C156.376,151.77 156.314,150.832 154.376,147.956 C152.688,145.455 152.563,144.455 153.563,142.579 C154.438,140.829 154.438,140.141 153.375,133.576 C152.938,131.012 154.938,124.447 156.939,121.696 C158.065,120.196 158.19,119.383 157.877,115.382 C157.627,112.818 157.377,105.815 157.314,99.813 C157.189,93.811 156.939,87.996 156.689,86.933 C156.376,85.87 156.502,79.806 156.877,73.491 C157.252,67.176 157.815,55.922 158.127,48.544 C158.69,35.039 159.128,30.912 160.941,19.533 C163.442,4.089 165.38,-0.975 168.444,0.15 C169.694,0.651 169.882,1.839 170.194,10.404 C170.444,16.657 170.694,18.22 172.445,22.471 C174.258,27.036 174.383,27.911 174.383,34.789 C174.383,40.916 174.571,42.667 175.571,44.605 C176.634,46.668 176.884,49.232 177.447,65.488 C177.822,75.679 178.135,87.308 178.135,91.372 C178.135,97.437 178.322,99.063 179.323,100.688 C180.198,102.189 180.448,103.94 180.511,108.191 L180.573,113.756 L183.074,116.069 C185.512,118.32 185.95,119.195 186.45,123.572 C186.638,124.76 187.263,127.011 187.826,128.574 C189.326,132.513 188.889,143.142 186.951,147.831 C185.012,152.646 185.2,155.772 187.513,157.835 C189.639,159.711 190.014,162.087 188.201,162.649 C185.7,163.4 185.45,164.588 187.326,166.838 C189.514,169.402 191.015,174.591 189.952,175.842 C189.577,176.342 188.764,176.717 188.138,176.717 C186.013,176.717 185.45,178.468 185.137,186.033 C184.95,191.098 185.075,194.161 185.638,195.849 C186.826,199.476 186.7,220.734 185.387,223.61 C184.575,225.486 182.136,227.862 177.885,230.738 C176.322,231.801 176.884,233.239 179.26,234.489 C180.511,235.177 183.449,235.427 189.764,235.489 L198.455,235.614 L203.644,233.301 C206.52,232.051 209.772,230.863 210.897,230.675 C213.21,230.3 218.65,232.363 220.401,234.301 C221.464,235.489 223.152,235.927 223.152,234.989 C223.152,234.739 221.026,232.738 218.462,230.488 C215.899,228.237 213.773,225.986 213.773,225.361 C213.773,223.86 220.776,214.794 226.778,208.542 L229.529,205.603 L230.717,197.6 C231.342,193.223 232.468,187.346 233.156,184.595 C234.656,178.53 234.781,171.965 233.406,165.901 C232.03,160.023 232.53,153.521 234.594,149.082 C236.719,144.455 243.347,137.953 245.91,137.953 C248.786,137.953 254.351,141.016 257.727,144.455 C262.854,149.644 262.792,149.457 263.229,161.712 C263.479,168.339 263.417,173.716 263.042,175.279 C262.479,177.718 262.604,178.28 264.667,182.344 C265.918,184.72 268.044,189.472 269.357,192.911 C270.67,196.287 272.858,200.726 274.234,202.727 C278.485,209.104 283.8,219.733 283.8,221.984 C283.8,223.36 284.425,224.86 285.613,226.361 C288.114,229.425 290.49,235.99 291.302,241.742 C292.053,246.994 292.991,248.807 295.679,250.182 C297.93,251.308 298.43,251.12 299.806,248.432 C300.681,246.744 300.806,245.118 300.431,237.365 C300.181,231.863 300.243,227.549 300.618,226.611 C301.431,224.485 303.057,223.985 304.87,225.298 C305.745,225.923 307.371,226.986 308.559,227.736 C310.435,228.862 312.686,231.738 314.811,235.802 C315.624,237.365 318.438,238.741 325.878,241.367 C334.381,244.368 342.572,249.245 342.572,251.308 C342.572,251.62 344.01,253.434 345.698,255.247 C348.637,258.311 348.824,258.748 348.824,261.812 C348.824,265.001 350.7,271.44 352.388,273.941 C352.826,274.629 353.201,276.13 353.201,277.318 C353.201,278.506 353.889,280.944 354.764,282.757 C355.639,284.57 356.89,289.135 357.515,292.824 C360.829,311.08 360.829,311.768 359.078,313.706 C357.64,315.332 355.139,314.957 352.451,312.706 C351.388,311.831 350.387,311.268 350.2,311.393 C350.012,311.581 350.387,312.956 350.95,314.457 C351.638,316.395 352.075,319.834 352.263,326.211 C352.513,334.839 352.576,335.402 354.389,338.903 C355.514,340.967 356.327,343.468 356.327,344.718 C356.327,345.969 356.89,348.532 357.515,350.47 C362.267,364.351 362.267,365.288 357.765,369.29 C354.826,371.853 345.761,376.793 343.885,376.793 C341.822,376.793 335.382,373.667 334.444,372.291 C333.944,371.478 332.881,370.04 332.13,369.102 C330.255,366.726 330.317,366.101 332.881,363.038 C334.069,361.6 335.382,359.286 335.757,357.848 C336.445,355.41 336.319,354.972 334.444,351.471 C332.38,347.719 328.129,342.655 318.313,332.213 C315.499,329.15 312.31,325.211 311.31,323.46 C309.434,320.209 305.683,309.392 305.683,307.267 C305.683,305.578 304.37,305.328 301.681,306.454 C299.931,307.204 299.055,308.142 298.18,310.08 C297.492,311.518 296.93,313.206 296.93,313.831 C296.93,314.457 295.929,316.395 294.741,318.208 C292.24,321.897 292.178,322.335 293.553,324.961 C294.429,326.711 294.679,326.836 296.93,326.461 C299.618,326.024 300.118,326.461 300.618,329.9 C300.931,331.713 301.431,332.339 303.745,333.464 C306.933,335.09 307.684,335.965 307.183,337.59 C306.808,338.841 308.559,344.03 309.872,345.656 C310.372,346.219 311.56,346.969 312.561,347.407 C313.561,347.782 314.686,348.97 315.124,350.033 C315.749,351.658 315.687,352.346 314.624,354.91 L313.311,357.973 L315.186,361.6 C316.562,364.413 316.937,365.726 316.625,367.414 C316.124,370.165 316.937,372.416 319.688,375.73 C321.189,377.606 322.814,381.294 325.378,388.922 C328.817,398.926 328.942,399.676 328.379,402.803 C327.879,405.491 328.004,406.554 328.879,408.805 C329.504,410.243 330.005,412.244 330.005,413.119 C330.067,414.745 328.441,416.808 327.066,416.808 C325.816,416.808 322.564,420.059 322.564,421.31 C322.564,422.623 323.19,422.56 327.504,420.809 C330.38,419.621 331.693,419.684 333.068,421.185 C334.444,422.685 335.757,426.562 335.319,427.75 C335.132,428.187 334.069,428.938 333.006,429.375 C329.629,430.688 325.878,434.127 323.752,437.816 C321.877,441.067 321.814,441.567 322.064,446.069 C322.314,449.633 322.814,451.759 324.002,454.135 C326.941,459.887 329.129,462.888 332.818,466.202 C339.133,472.016 340.759,476.518 339.258,483.771 C338.758,486.022 338.508,489.273 338.633,491.023 C338.945,493.962 338.82,494.4 337.195,495.9 C336.257,496.776 334.881,497.588 334.194,497.776 C319.938,500.527 310.372,500.715 301.994,498.401 z" fill="#000000"/>
  </g>
</svg>
