<?xml version="1.0" encoding="UTF-8"?>
<!DOCTYPE svg PUBLIC "-//W3C//DTD SVG 1.1//EN" "http://www.w3.org/Graphics/SVG/1.1/DTD/svg11.dtd">
<svg version="1.1" xmlns="http://www.w3.org/2000/svg" xmlns:xlink="http://www.w3.org/1999/xlink" x="0" y="0" width="500" height="500" viewBox="0, 0, 500, 500">
  <g id="layer102">
    <path d="M333.321,127.902 C330.476,128.272 329.192,130.387 328.276,132.884 C326.917,136.737 326.69,136.964 322.723,136.284 C311.161,134.584 305.834,133.564 302.773,132.431 C292.232,128.917 234.877,126.99 231.137,130.05 C230.23,130.844 229.664,133.904 229.664,138.551 C229.664,147.166 228.076,151.02 224.109,152.039 C222.523,152.493 220.029,153.853 218.555,155.213 C216.062,157.481 214.475,157.707 196.452,158.274 C185.684,158.614 176.049,158.387 174.803,157.821 C173.669,157.367 169.022,156.8 164.601,156.574 C160.181,156.461 150.886,155.893 144.085,155.44 L131.616,154.534 L128.103,157.821 C125.609,160.201 124.249,162.695 123.682,166.208 C123.229,169.042 122.322,171.989 121.755,172.783 C121.076,173.576 119.715,175.843 118.582,177.883 C117.448,179.924 115.521,181.624 114.161,181.851 C112.801,182.077 111.101,183.551 110.194,185.251 L108.607,188.311 L64.174,188.992 L63.494,184.344 C62.814,180.15 62.474,179.81 58.96,179.81 C56.353,179.81 54.766,179.13 53.973,177.543 C52.386,174.596 48.759,174.596 46.945,177.543 C45.132,180.49 41.278,180.49 38.671,177.543 C36.404,175.05 34.59,174.71 31.53,176.296 C30.51,176.863 28.356,177.77 26.769,178.45 C16.795,182.417 8.973,185.704 7.5,186.497 C6.14,187.291 5.913,189.785 6.253,200.553 L6.594,213.588 L3.079,215.515 C-1.568,217.895 -0.888,219.935 4.666,220.389 C9.427,220.842 11.92,223.109 12.034,227.076 C12.034,228.437 12.487,229.91 13.167,230.25 C13.734,230.591 14.301,231.95 14.301,233.197 C14.301,234.331 14.755,236.258 15.321,237.391 C16.908,240.452 18.495,244.646 19.968,249.86 C21.328,254.28 21.328,254.847 19.061,257.227 C16.795,259.608 16.568,261.082 16.568,273.096 L16.568,286.358 L12.147,291.232 C8.293,295.313 7.614,296.899 7.046,302.794 C6.707,306.534 6.14,312.315 5.686,315.489 C5.006,322.063 4.213,320.93 15.548,331.357 C17.702,333.284 20.988,336.685 22.916,338.838 C24.956,340.992 28.016,343.033 29.716,343.372 C31.87,343.712 34.931,346.32 38.444,350.287 C41.731,354.141 44.792,356.634 46.152,356.634 C47.512,356.634 51.706,359.694 55.786,363.549 L63.041,370.576 L72.336,371.37 C77.55,371.823 120.735,371.936 168.455,371.823 C216.175,371.597 256.981,371.483 259.134,371.596 C261.288,371.71 266.162,371.823 269.902,371.71 C273.642,371.597 278.743,371.597 281.237,371.596 C283.73,371.597 288.605,371.597 292.005,371.483 C295.406,371.483 300.507,371.37 303.34,371.483 L359.674,371.483 C362.734,371.483 367.609,371.483 370.782,371.37 C373.843,371.256 378.717,371.483 381.551,371.823 C386.198,372.503 387.218,372.163 393.339,367.969 C396.966,365.476 400.82,363.435 402.067,363.435 C403.2,363.435 407.168,360.715 410.908,357.428 C414.535,354.141 419.522,350.74 422.016,349.833 C425.19,348.586 435.731,348.133 463.161,347.566 L500,347 L500,342.465 C500,338.159 499.887,338.045 494.333,336.458 C491.159,335.551 486.058,333.965 482.998,332.718 C479.824,331.584 474.497,330.564 470.983,330.564 C462.141,330.564 461.462,329.43 459.308,310.728 L458.061,299.393 L454.661,298.826 C451.26,298.26 451.26,298.146 450.92,289.985 C450.58,280.237 451.487,278.424 457.494,278.424 C462.595,278.424 463.955,276.95 463.615,271.509 C463.388,266.522 461.348,262.555 459.194,262.554 C458.288,262.555 457.494,261.875 457.494,261.195 C457.494,260.401 456.701,254.62 455.681,248.386 C454.321,239.091 452.507,225.943 451.601,218.802 C451.487,218.009 452.96,215.175 454.661,212.341 C457.154,208.488 459.081,206.901 462.482,205.767 C469.85,203.274 477.104,199.533 479.597,196.812 C480.844,195.452 482.998,193.866 484.358,193.299 C487.531,192.052 487.645,189.331 484.811,182.304 C483.564,179.357 480.958,172.443 479.031,166.775 C474.61,154.307 473.703,153.287 469.396,154.873 C467.696,155.554 464.635,155.78 462.709,155.44 C460.441,154.987 456.361,155.78 450.807,157.707 C437.885,162.241 427.797,159.861 431.537,153.06 C433.011,150.34 432.784,149.886 429.384,146.825 C424.85,142.745 421.336,142.632 416.802,146.372 C411.474,150.906 403.767,153.173 399.573,151.473 C396.74,150.226 395.946,150.34 394.245,151.7 C390.619,154.987 385.064,157.14 380.19,157.254 C377.47,157.367 373.73,157.707 371.916,158.16 C369.989,158.614 367.722,158.614 366.815,158.16 C365.908,157.707 362.621,156.914 359.674,156.347 C352.76,155.214 352.307,153.287 358.881,152.833 C362.055,152.607 364.662,151.587 366.022,150.226 C367.155,148.979 369.536,148.073 371.463,148.072 C374.637,148.073 374.863,147.846 374.523,144.332 C374.183,140.932 373.843,140.705 368.855,140.138 C365.908,139.798 362.508,138.551 361.261,137.418 C359.561,135.831 357.861,135.491 355.027,135.944 C352.307,136.398 350.267,135.944 348.453,134.697 C346.979,133.677 343.465,131.524 340.632,130.05 C337.903,128.619 336.37,128.041 333.321,127.902 z M137.447,361.889 C139.472,362.65 138.551,362.159 140.231,363.322 L142.952,365.589 L139.891,365.702 C136.604,365.702 134.677,363.888 136.378,362.188 C136.883,361.836 136.551,362 137.447,361.889 z M240.234,362.348 C241.386,362.79 240.899,362.869 240.998,364.002 C240.998,364.908 239.978,365.702 238.732,365.702 C236.011,365.702 235.671,364.002 238.278,362.982 C239.472,362.511 238.823,362.732 240.234,362.348 z M191.465,339.632 C194.979,339.632 196.565,340.199 197.699,341.899 C198.492,343.146 200.306,344.166 201.78,344.166 C205.18,344.166 208.127,346.886 208.127,349.947 C208.127,353.007 210.734,357.767 214.248,361.055 C215.835,362.529 216.855,364.229 216.515,364.682 C216.175,365.249 213.455,365.702 210.394,365.702 C205.067,365.702 204.84,365.589 203.593,361.735 C202.573,358.674 201.666,357.767 199.626,357.767 C197.812,357.767 196.565,358.901 195.206,361.735 C193.392,365.476 192.939,365.702 187.724,365.702 C182.397,365.702 182.057,365.589 181.15,362.075 C180.47,359.241 179.563,358.221 177.296,357.994 C175.029,357.767 174.122,358.448 172.536,361.622 C170.722,365.362 170.269,365.702 165.622,365.702 C162.788,365.702 160.521,365.362 160.521,364.795 C160.521,364.342 161.994,362.642 163.808,360.941 C166.868,357.994 169.135,354.027 171.743,347.227 C172.876,344.392 173.442,344.166 179.11,344.166 C184.324,344.166 185.457,343.826 186.025,341.899 C186.591,340.086 187.724,339.632 191.465,339.632 z M112.347,339.632 C116.201,339.632 117.335,340.086 117.788,341.899 C118.242,343.712 119.375,344.166 122.889,344.166 C128.103,344.166 130.483,346.32 131.503,352.44 C132.184,356.294 132.07,356.861 129.917,357.428 C128.669,357.767 126.856,359.808 125.949,361.848 C124.476,365.476 124.023,365.702 118.808,365.702 C113.708,365.702 113.254,365.476 111.667,362.075 C109.287,356.634 105.547,356.521 103.053,361.622 C101.239,365.476 100.786,365.702 95.685,365.702 C90.925,365.702 90.244,365.362 89.565,362.868 C89.111,360.941 89.678,359.128 91.265,357.088 C92.625,355.388 93.645,353.121 93.645,351.874 C93.645,347.113 95.685,345.299 101.013,345.299 C105.433,345.299 106.113,344.959 106.794,342.465 C107.36,339.972 108.154,339.632 112.347,339.632 z M350.947,338.498 C354.8,338.498 355.707,338.952 356.614,341.332 C357.181,342.919 358.201,344.166 358.768,344.166 C359.335,344.166 360.694,346.886 361.601,350.287 C362.961,354.934 364.549,357.428 367.949,360.375 C370.443,362.529 372.483,364.569 372.483,364.908 C372.483,365.362 371.009,365.702 369.196,365.702 C366.362,365.702 365.569,365.022 364.435,361.735 C363.302,358.561 362.395,357.767 360.015,357.767 C357.747,357.767 356.614,358.674 355.367,361.508 C354.007,364.682 353.214,365.135 348.68,365.476 C343.692,365.815 343.352,365.589 341.539,361.735 C338.932,356.294 334.851,356.181 333.377,361.508 C332.357,364.908 331.904,365.135 326.577,365.476 C322.269,365.815 320.683,365.362 319.549,363.888 C318.302,362.188 318.529,361.055 321.136,356.747 C322.723,353.914 324.423,350.06 324.877,348.133 L325.557,344.732 L334.851,344.392 C343.692,344.053 344.259,343.939 345.279,341.332 C346.186,338.952 347.093,338.498 350.947,338.498 z M272.368,338.569 L273.983,338.725 C276.25,338.952 276.816,339.859 277.27,343.599 C277.723,347.453 278.29,348.133 280.897,348.473 C283.164,348.7 284.298,349.833 285.657,353.461 C287.471,357.881 287.245,361.395 284.978,364.342 C284.298,365.022 281.804,365.702 279.31,365.702 C275.343,365.702 274.776,365.362 273.19,361.735 C271.943,358.674 270.922,357.767 268.655,357.767 C266.501,357.767 265.481,358.674 264.122,361.735 C262.648,365.476 262.195,365.702 257.434,365.702 C252.673,365.702 252.219,365.476 250.746,361.735 C249.84,359.581 248.479,357.767 247.686,357.767 C246.099,357.767 247.346,347.793 249.159,345.639 C249.953,344.732 253.24,344.166 258.114,344.166 C265.142,344.166 265.935,343.939 265.935,341.899 C266.54,338.782 269.793,338.699 272.368,338.569 z M53.833,349.202 L54.313,349.493 C54.766,349.833 55.107,351.194 55.107,352.327 C55.107,354.707 52.273,355.047 51.366,352.78 C51.085,351.041 52.03,349.464 53.833,349.202 z M409.321,347.566 C411.022,347.566 411.588,348.927 410.341,350.173 C409.434,351.08 407.621,350.06 407.621,348.586 C407.621,348.02 408.414,347.566 409.321,347.566 z M36.365,333.405 C38.443,333.661 38.575,334.23 40.258,335.324 C45.471,338.839 47.172,341.672 44.905,343.033 C42.185,344.846 39.804,344.392 36.517,341.332 C33.117,338.272 33.004,337.478 35.044,334.645 C35.735,333.772 35.313,334.203 36.365,333.405 z M442.192,219.483 C444.459,219.483 446.159,223.109 446.159,227.87 C446.159,230.137 446.953,236.938 447.973,242.946 C448.88,248.953 449.447,254.507 449.106,255.414 C448.653,256.434 447.293,256.888 445.366,256.661 C443.099,256.434 440.945,254.507 437.432,249.52 C429.497,238.525 426.663,233.991 425.757,230.817 C424.51,226.397 424.397,226.51 436.298,221.296 C438.678,220.276 441.286,219.483 442.192,219.483 z M144.019,170.978 L145.672,171.082 C147.939,171.422 152.473,172.102 155.647,172.556 C158.934,172.896 162.221,173.916 162.901,174.823 C164.941,177.316 163.695,181.283 160.521,182.19 C158.934,182.644 154.853,182.984 151.453,182.871 C145.219,182.644 145.219,182.644 142.725,177.543 C141.478,174.71 140.571,171.989 140.911,171.536 C141.687,170.826 143.152,171.058 144.019,170.978 z M422.055,158.631 C423.462,158.896 422.951,158.615 423.716,159.181 C425.417,160.881 423.716,162.808 418.729,164.622 C416.689,165.302 413.288,165.982 411.248,166.095 C405.467,166.322 407.281,163.828 415.442,160.655 C417.588,159.812 419.736,158.862 422.055,158.631 z" fill="#000000"/>
  </g>
</svg>
