<?xml version="1.0" encoding="UTF-8"?>
<!DOCTYPE svg PUBLIC "-//W3C//DTD SVG 1.1//EN" "http://www.w3.org/Graphics/SVG/1.1/DTD/svg11.dtd">
<svg version="1.1" xmlns="http://www.w3.org/2000/svg" xmlns:xlink="http://www.w3.org/1999/xlink" x="0" y="0" width="500" height="500" viewBox="0, 0, 500, 500">
  <g id="layer101">
    <path d="M404.946,441.067 C404.77,440.89 403.122,440.714 401.297,440.714 C399.06,440.714 397.177,440.302 395.588,439.477 C394.293,438.83 391.762,437.888 389.996,437.476 C384.699,436.24 378.931,433.003 374.575,428.765 C372.339,426.646 370.573,424.586 370.573,424.174 C370.573,423.703 369.926,421.702 369.16,419.701 C368.395,417.641 366.983,413.462 366.1,410.401 C365.217,407.341 364.04,403.868 363.392,402.75 C362.804,401.632 362.333,400.337 362.333,399.866 C362.333,397.865 360.861,394.392 359.743,393.803 C359.096,393.45 357.506,393.215 356.211,393.215 C352.268,393.391 351.915,393.097 350.267,387.623 C346.323,374.733 344.087,359.665 344.087,346.01 C344.087,336.24 344.146,335.592 345.323,334.415 C346.264,333.474 347.03,333.238 348.324,333.532 C349.973,333.827 354.622,337.24 356.447,339.477 C357.624,340.949 358.684,340.478 359.92,338.064 L361.097,335.769 L359.684,330.06 C357.977,323.291 357.86,320.466 359.213,316.699 C360.155,314.05 360.155,313.756 359.213,311.99 C358.684,310.931 357.683,309.4 357.035,308.576 C356.388,307.752 355.211,304.809 354.446,301.925 C353.739,299.1 352.562,296.157 351.915,295.451 C350.502,293.921 348.795,289.271 348.795,286.858 C348.795,285.916 348.03,284.268 347.03,282.973 C346.088,281.737 345.264,280.207 345.264,279.5 C345.264,277.735 343.792,275.792 341.615,274.674 C339.849,273.791 339.79,273.791 337.965,275.733 C336.965,276.793 335.199,278.147 334.14,278.735 C332.197,279.736 332.138,279.795 332.55,282.914 C332.962,286.622 332.727,286.975 327.901,290.213 C323.015,293.509 319.013,295.51 316.659,295.981 C313.951,296.51 309.007,294.45 304.063,290.742 C298.766,286.74 298.648,286.563 299.06,282.384 L299.472,278.853 L296.823,278.147 C294.999,277.617 293.763,276.852 292.88,275.616 C292.115,274.556 291.114,273.85 290.29,273.85 C288.407,273.85 284.875,277.323 284.169,279.912 C283.816,281.148 282.874,282.914 282.05,283.915 C281.167,284.915 280.52,286.446 280.52,287.446 C280.52,289.859 278.813,293.862 276.929,295.922 C275.399,297.57 273.869,302.043 272.279,309.459 C271.985,310.754 271.22,312.991 270.573,314.462 C269.866,315.993 269.336,318.406 269.336,320.054 C269.336,321.702 268.748,325.116 268.042,327.705 C266.217,334.415 266.452,340.36 268.512,340.36 C268.983,340.36 271.338,338.535 273.751,336.24 C278.518,331.767 280.343,331.119 281.932,333.415 C283.521,335.651 282.933,349.836 280.755,361.255 C278.46,373.262 274.222,389.036 272.809,390.802 C272.456,391.214 271.102,391.567 269.866,391.567 C267.218,391.567 266.217,392.803 265.511,396.57 C265.275,397.865 264.981,399.571 264.804,400.396 C264.687,401.22 264.039,403.044 263.451,404.398 C262.038,407.576 258.742,418.465 258.742,419.936 C258.742,420.525 257.506,421.879 255.917,422.997 C254.386,424.115 252.503,426.117 251.797,427.411 C250.443,429.766 247.206,432.768 245.911,432.768 C245.558,432.768 244.557,433.415 243.674,434.239 C242.791,435.063 241.379,435.887 240.555,436.064 C239.731,436.181 237.553,437.064 235.787,437.947 C234.021,438.83 231.903,439.595 231.079,439.595 C230.255,439.654 227.076,439.948 224.016,440.302 C216.894,441.008 211.95,440.419 207.653,438.3 C204.592,436.77 204.18,436.299 203.297,433.651 C201.944,429.589 202.002,426.117 203.415,423.35 C204.18,421.879 204.475,420.466 204.239,419.583 C203.827,417.876 205.593,411.225 207.064,409.224 C207.653,408.4 208.771,404.986 209.595,401.632 C210.949,396.158 211.008,395.393 210.243,394.627 C209.536,393.862 209.065,393.862 207.888,394.392 C205.946,395.275 205.122,397.041 202.885,404.692 C200.59,412.756 199.118,414.286 193.409,414.816 C191.29,414.992 188.936,415.287 188.171,415.463 C187.052,415.699 186.876,415.581 187.17,414.757 C187.406,414.168 187.818,412.52 188.171,411.049 C189.054,407.047 192.644,392.096 194.41,385.387 C195.234,382.149 196.411,377.382 197,374.792 C197.588,372.202 198.706,367.611 199.53,364.551 C200.354,361.49 200.884,358.783 200.708,358.488 C200.237,357.723 202.768,347.953 203.945,346.01 C204.592,345.01 205.416,343.009 205.769,341.537 C206.181,340.066 207.005,338.182 207.594,337.299 C208.241,336.416 209.183,334.298 209.654,332.649 C210.655,329.236 210.36,328.588 207.417,328.588 C206.476,328.588 205.769,328.353 205.769,328.117 C205.769,327.588 210.066,328.117 211.832,328.883 C212.538,329.177 213.362,328.883 214.363,328 C215.893,326.469 216.128,325.057 215.128,322.232 C214.657,320.76 214.775,319.583 215.716,316.11 C216.894,311.931 217.482,311.107 221.073,308.576 C222.544,307.576 224.016,301.572 224.192,296.098 C224.251,294.215 224.428,292.685 224.663,292.685 C224.898,292.685 225.781,290.978 226.664,288.859 C227.606,286.74 228.665,284.739 229.136,284.327 C229.607,283.974 230.49,282.679 231.079,281.56 C231.667,280.383 232.903,278.676 233.786,277.676 C235.375,275.969 235.493,275.557 236.199,266.787 C236.552,261.784 237.082,256.192 237.318,254.368 C237.671,251.248 237.612,251.013 235.787,248.894 C234.198,247.128 233.845,246.245 233.904,244.244 C233.963,242.89 234.198,241.301 234.375,240.713 C235.199,238.123 232.962,240.36 229.607,245.421 C223.78,254.25 218.954,258.547 214.951,258.547 C212.538,258.547 211.655,257.075 211.655,253.249 C211.655,249.953 211.538,249.718 209.831,248.835 C207.241,247.481 205.711,247.893 204.945,250.13 C204.063,252.837 203.062,253.544 198.412,255.251 C188.877,258.606 184.757,260.783 180.637,264.55 C178.224,266.728 178.047,266.787 174.751,266.434 C172.279,266.139 170.69,266.316 169.042,267.022 L166.805,267.964 L167.217,270.672 C167.57,273.379 167.57,273.379 164.157,276.793 L160.743,280.148 L153.797,281.266 C145.675,282.502 145.852,282.561 144.38,276.969 C143.144,272.32 143.085,272.496 144.91,270.377 C146.146,268.906 146.264,268.494 145.557,268.2 C145.028,268.023 144.145,268.141 143.556,268.494 C142.143,269.2 136.905,268.494 133.844,267.199 C131.549,266.139 130.431,266.257 103.65,270.613 C98.824,271.378 92.173,272.437 88.936,272.967 C85.698,273.438 76.575,274.909 68.629,276.263 C50.854,279.206 43.732,279.559 28.311,278.323 C16.304,277.323 11.596,276.499 5.357,274.321 C1.119,272.849 -0.47,271.554 0.118,270.083 C0.354,269.436 4.65,267.022 10.889,264.021 C16.599,261.313 23.897,257.782 27.134,256.192 C41.79,249.012 47.617,247.658 87.935,241.772 C95.587,240.654 105.887,239.123 110.831,238.358 L119.718,237.005 L122.426,234.533 C125.075,232.06 125.133,232.06 129.489,232.06 C135.139,232.06 138.906,230.766 141.908,227.882 C144.027,225.88 144.674,225.586 147.029,225.586 C148.559,225.586 150.384,225.351 151.149,225.056 C151.914,224.762 153.268,224.35 154.151,224.115 C155.74,223.82 155.799,223.644 155.445,221.466 C155.092,219.347 155.269,218.876 158.035,215.286 C159.683,213.167 161.037,211.048 161.037,210.636 C161.037,210.224 160.213,209.165 159.212,208.164 C158.212,207.222 156.976,205.692 156.505,204.75 C155.504,202.749 156.034,200.983 160.154,192.625 C161.508,189.859 162.979,186.622 163.333,185.445 C163.745,184.209 164.745,182.737 165.51,182.09 C166.923,180.971 168.041,180.736 174.398,179.971 C177.341,179.559 177.459,179.5 178.93,176.498 C179.813,174.674 180.46,172.378 180.46,170.965 C180.46,167.552 182.462,162.549 184.698,160.43 C186.699,158.605 192.409,155.486 195.41,154.603 C197.765,153.897 197.941,152.837 195.881,151.778 C192.644,150.071 192.055,146.068 194.233,140.065 C196.705,133.296 198.648,131.413 203.415,131.413 C206.005,131.413 207.535,129.882 207.535,127.234 C207.535,126.351 207.947,124.703 208.418,123.584 C209.654,120.583 209.536,119.111 207.594,116.286 C206.593,114.756 205.769,112.637 205.534,110.753 C204.945,106.221 206.652,103.161 212.067,99.335 C214.363,97.746 217.423,95.391 218.836,94.214 C222.132,91.448 227.017,89.152 231.491,88.387 C233.374,88.034 236.258,87.387 237.906,86.916 C241.555,85.915 246.499,85.856 249.148,86.798 C250.855,87.387 251.267,87.387 252.15,86.504 C252.915,85.68 253.15,84.561 253.033,81.206 C252.974,78.852 253.033,76.38 253.209,75.674 C253.562,73.849 257.447,71.966 260.743,71.966 C263.333,71.966 265.216,70.906 265.216,69.435 C265.216,69.023 265.864,67.728 266.688,66.609 C267.983,64.667 268.395,64.432 271.514,64.137 C273.398,63.961 277.459,63.255 280.52,62.607 C288.877,60.724 291.526,60.371 304.063,59.311 C315.187,58.428 323.368,58.605 334.964,59.958 C339.967,60.488 353.092,63.255 355.446,64.137 C356.859,64.726 358.507,64.903 359.978,64.667 C361.921,64.373 362.392,64.491 363.392,65.785 C364.04,66.551 364.864,68.022 365.276,69.023 C365.747,70.2 366.571,70.906 367.571,71.142 C372.044,72.024 374.693,75.733 374.693,81.089 C374.693,86.209 375.046,86.386 384.817,86.445 C395.058,86.504 400.473,87.799 408.949,92.095 C413.422,94.391 415.658,95.98 419.249,99.57 C421.78,102.101 424.605,105.221 425.488,106.515 C427.136,108.929 427.136,108.988 426.194,110.93 C425.606,111.989 424.487,113.579 423.663,114.461 L422.192,116.109 L423.487,120.347 C424.193,122.702 425.017,125.586 425.311,126.704 C425.959,129.176 427.254,130.235 429.843,130.235 C432.904,130.235 435.023,131.648 436.141,134.356 C436.671,135.65 437.083,137.063 437.083,137.534 C437.083,137.946 437.73,139.829 438.496,141.713 C440.085,145.597 439.79,147.363 437.318,149.718 C436.553,150.424 435.906,151.483 435.906,151.954 C435.906,153.367 441.615,160.842 442.674,160.842 C443.91,160.842 445.912,158.723 445.912,157.428 C445.912,155.78 447.619,153.779 449.031,153.779 C450.974,153.779 456.212,159.606 458.331,164.197 C461.627,171.377 463.275,182.207 461.686,186.504 C461.038,188.388 461.156,188.682 464.746,193.92 C466.748,196.922 469.455,200.454 470.632,201.748 C472.869,204.162 476.871,210.754 482.404,221.172 C484.111,224.409 485.994,227.587 486.583,228.235 C487.113,228.882 487.878,230.589 488.29,232.06 C489.231,235.71 491.586,242.302 492.822,244.597 C493.352,245.598 493.822,247.835 493.881,249.424 C493.94,251.072 494.705,254.544 495.588,257.193 C497.413,263.02 497.472,263.726 495.882,266.787 C494.882,268.67 494.705,269.906 494.882,272.614 C495.117,275.851 495.412,276.499 499.473,282.973 C500.238,284.209 500.179,285.563 499.237,294.804 C498.708,300.572 497.884,306.104 497.413,307.105 C496.589,309.106 492.057,312.108 482.757,316.817 C477.107,319.701 476.165,319.642 472.398,316.522 C468.69,313.403 465.629,313.991 463.628,318.288 C461.686,322.349 461.156,322.702 455.859,322.702 C453.034,322.702 450.326,323.056 449.031,323.585 C447.913,324.056 445.971,324.468 444.793,324.468 C439.967,324.409 429.902,322.644 423.546,320.701 C413.893,317.699 413.54,317.758 413.54,322.997 C413.54,325.528 414.54,327.588 417.601,331.59 C418.248,332.414 418.955,334.062 419.131,335.239 C419.367,336.475 420.132,338.3 420.838,339.359 C421.544,340.419 422.486,342.95 422.957,345.069 C423.369,347.129 424.664,350.954 425.723,353.485 C427.077,356.664 427.724,359.371 427.901,362.138 C428.078,364.433 428.666,367.199 429.314,368.435 C429.902,369.671 430.903,373.321 431.433,376.558 C432.021,379.795 432.845,383.797 433.257,385.387 C433.728,387.035 434.375,390.684 434.729,393.568 C435.611,400.454 437.495,410.166 438.554,412.815 C439.143,414.404 439.202,415.11 438.672,415.64 C437.789,416.523 430.314,416.464 429.608,415.581 C428.784,414.522 426.606,407.105 426.253,403.927 C425.782,400.337 424.899,396.805 424.311,396.334 C424.075,396.099 422.309,395.451 420.367,394.863 C416.07,393.568 415.364,394.039 416.365,397.629 C416.777,398.983 417.542,401.69 418.072,403.633 C418.778,406.281 419.484,407.576 420.956,408.812 C422.074,409.754 422.957,410.99 422.957,411.579 C422.957,412.108 423.369,413.58 423.84,414.698 C424.311,415.875 424.723,418.23 424.723,419.936 C424.782,421.761 425.135,423.527 425.606,424.174 C426.842,425.763 426.842,434.945 425.664,436.652 C425.194,437.3 423.251,438.536 421.368,439.36 C418.601,440.596 416.777,440.949 411.656,441.126 C408.125,441.302 405.182,441.243 404.946,441.067 z M237.082,233.179 C237.671,232.06 238.789,229.53 239.672,227.528 C240.555,225.468 241.614,223.526 242.085,223.114 C242.556,222.761 244.439,222.349 246.264,222.231 C248.089,222.113 250.678,221.937 251.973,221.819 C253.268,221.701 257.153,221.407 260.684,221.172 C264.746,220.877 266.982,220.465 266.982,220.053 C266.982,219.641 265.982,218.405 264.687,217.169 C263.392,215.933 261.979,213.814 261.449,212.225 C259.036,205.398 259.095,205.751 260.096,202.396 C260.625,200.689 261.096,198.864 261.096,198.393 C261.096,196.51 258.389,190.977 255.622,187.152 C254.033,184.974 252.503,182.09 252.209,180.795 C251.914,179.5 251.09,177.675 250.443,176.792 C249.501,175.498 249.383,174.909 249.854,173.614 C250.62,171.554 249.266,162.608 248.147,162.608 C247.441,162.608 245.97,167.434 244.91,172.908 C244.204,176.38 243.615,178.028 242.438,179.206 C241.143,180.559 240.849,181.56 240.496,185.386 C240.26,187.917 239.79,190.506 239.436,191.213 C239.083,191.919 236.847,193.979 234.492,195.921 C232.138,197.805 229.548,200.042 228.724,200.866 C227.9,201.69 226.723,202.631 226.076,202.984 C224.957,203.632 225.016,203.75 227.312,206.222 C230.784,210.047 231.432,212.99 230.49,220.407 C229.901,224.939 229.843,226.704 230.372,228.176 C230.784,229.235 231.079,230.53 231.079,231.119 C231.079,232.296 234.551,235.71 235.493,235.415 C235.787,235.298 236.552,234.297 237.082,233.179 z M217.6,223.173 C219.366,221.289 220.602,219.465 220.837,218.17 C221.249,215.757 220.837,214.403 219.601,214.403 C218.601,214.403 212.244,223.644 212.244,225.115 C212.244,227.116 214.657,226.233 217.6,223.173 z M382.168,221.525 C385.7,219.347 394.646,211.99 394.94,210.989 C395.411,209.282 395.529,185.974 395.058,184.326 C394.705,183.149 394.94,182.384 396.117,181.03 C397.883,178.911 399.002,176.263 398.59,175.144 C398.413,174.732 397.648,174.379 396.883,174.379 C394.881,174.379 393.822,172.849 392.998,168.847 C392.292,164.962 390.997,162.608 389.702,162.608 C389.231,162.608 387.053,160.783 384.934,158.487 C379.461,152.778 378.872,152.955 381.521,159.606 C382.874,162.902 382.992,163.902 382.639,166.728 C382.168,169.847 382.168,170.965 382.403,174.085 C382.462,174.909 382.109,176.027 381.638,176.616 C381.109,177.146 380.52,178.676 380.343,179.971 C380.049,181.383 378.283,184.856 375.87,188.505 C370.337,197.04 369.867,198.276 369.69,205.339 C369.513,211.578 369.101,212.873 366.335,216.051 C364.275,218.405 364.334,220.348 366.453,220.995 C368.16,221.466 375.282,222.408 378.225,222.525 C379.343,222.584 381.109,222.113 382.168,221.525 z" fill="#000000"/>
  </g>
</svg>
