<?xml version="1.0" encoding="UTF-8"?>
<!DOCTYPE svg PUBLIC "-//W3C//DTD SVG 1.1//EN" "http://www.w3.org/Graphics/SVG/1.1/DTD/svg11.dtd">
<svg version="1.1" xmlns="http://www.w3.org/2000/svg" xmlns:xlink="http://www.w3.org/1999/xlink" x="0" y="0" width="500" height="500" viewBox="0, 0, 500, 500">
  <g id="layer102">
    <path d="M141.973,0 C143.126,0.22 143.51,1.313 143.769,2.334 C144.018,3.577 144.366,3.826 146.205,4.124 C147.348,4.323 148.74,4.77 149.237,5.069 C149.933,5.516 150.232,5.466 150.629,4.77 C151.424,3.329 152.468,3.727 155.252,6.361 C158.583,9.493 161.018,13.917 161.018,16.8 C161.018,17.943 162.012,21.821 163.255,25.499 C165.244,31.415 165.492,32.806 165.741,38.026 C165.989,42.897 166.238,44.14 167.083,45.333 C168.027,46.675 168.127,47.52 168.177,53.635 C168.226,58.506 168.027,60.693 167.63,61.091 C166.536,62.185 166.834,65.416 168.177,66.659 C169.469,67.901 170.314,70.735 169.568,71.629 C169.32,71.977 168.972,73.071 168.823,74.115 L168.524,75.954 L171.656,75.954 C173.346,75.954 174.937,75.755 175.185,75.507 C175.484,75.258 176.229,74.96 176.925,74.861 C178.069,74.711 178.218,74.463 178.466,71.48 C178.665,69.691 179.162,67.007 179.56,65.515 C179.958,64.024 180.455,61.091 180.654,59.053 C180.803,57.015 181.25,54.331 181.648,53.088 C181.996,51.845 182.542,48.863 182.891,46.377 C183.736,39.567 185.625,36.684 189.154,36.684 C190.645,36.684 190.844,36.535 190.844,35.341 C190.844,34.546 191.043,33.701 191.242,33.453 C192.037,32.309 195.715,30.221 196.859,30.221 C197.505,30.221 198.798,29.774 199.742,29.178 L201.382,28.184 L204.564,29.426 C206.304,30.122 208.242,30.719 208.789,30.719 C210.231,30.719 213.859,34.496 213.561,35.69 C213.363,36.386 213.71,36.634 215.301,36.882 C217.588,37.231 219.526,38.971 219.924,41.008 C220.073,41.754 220.521,43.842 220.918,45.632 C221.316,47.421 221.763,50.055 221.962,51.447 C222.111,52.889 222.41,54.181 222.658,54.331 C222.857,54.48 223.205,56.418 223.404,58.655 C223.602,60.942 224.149,64.223 224.696,65.963 C225.193,67.703 225.641,69.79 225.641,70.585 L225.641,72.126 L229.021,71.729 C244.132,70.039 244.729,70.039 258.101,71.729 C260.885,72.077 260.934,72.077 260.934,70.834 C260.934,70.188 261.381,68.548 261.879,67.205 C262.376,65.863 263.072,62.881 263.37,60.544 C263.668,58.208 264.016,55.871 264.116,55.325 C264.265,54.778 264.613,52.79 264.911,50.851 C265.408,47.819 265.706,45.979 266.701,40.81 C267.098,38.821 268.987,37.131 271.274,36.833 C273.163,36.584 273.362,36.435 273.362,35.192 C273.362,33.353 276.344,30.917 279.575,30.221 C280.868,29.923 282.508,29.376 283.204,29.029 C284.347,28.432 284.795,28.482 287.181,29.525 C288.672,30.172 290.561,30.719 291.357,30.719 C292.202,30.719 292.898,31.017 293.096,31.514 C293.245,31.911 293.892,32.459 294.538,32.707 C295.333,33.005 295.78,33.701 295.979,34.894 C296.278,36.386 296.526,36.634 298.117,36.932 C301.994,37.578 302.939,39.368 304.38,48.863 C304.43,49.409 304.778,51 305.126,52.342 C305.424,53.734 306.021,57.065 306.369,59.798 C306.766,62.533 307.363,65.664 307.661,66.758 C308.009,67.852 308.407,69.989 308.606,71.48 C308.854,73.767 309.053,74.215 309.997,74.364 C310.594,74.463 311.34,74.861 311.638,75.258 C312.036,75.706 313.228,75.954 315.167,75.954 L318.1,75.954 L318.1,74.364 C318.05,73.469 317.752,72.176 317.404,71.53 C316.559,70.039 317.155,67.852 318.895,65.963 C320.287,64.471 320.387,63.328 319.244,60.743 C318.597,59.302 318.398,57.412 318.398,53.336 C318.398,48.365 318.498,47.62 319.74,45.184 C320.934,42.798 321.083,41.903 321.083,37.628 C321.083,33.204 321.281,32.26 323.568,25.3 C325.01,20.926 326.054,16.85 326.054,15.607 C326.054,12.177 330.08,6.709 334.405,4.174 C334.803,3.925 335.449,4.124 335.995,4.621 C336.592,5.168 337.189,5.317 337.586,5.019 C337.934,4.82 339.227,4.423 340.42,4.124 C342.259,3.677 342.656,3.378 343.154,1.887 C343.949,-0.598 345.142,-0.598 345.838,1.838 C346.435,3.677 346.584,3.776 348.92,4.124 C350.312,4.323 351.554,4.671 351.703,4.969 C351.853,5.218 352.399,5.069 352.897,4.621 C354.139,3.528 355.183,3.925 357.868,6.51 C360.552,9.095 363.385,14.464 362.988,16.352 C362.789,17.496 365.026,25.052 367.064,29.874 C367.611,31.166 367.81,33.403 367.81,37.578 C367.81,42.798 367.909,43.643 368.804,44.786 C370.295,46.675 371.041,53.535 370.245,57.959 C369.947,59.798 369.549,62.483 369.45,63.924 C369.251,66.261 369.301,66.609 370.196,66.858 C371.886,67.255 372.184,72.226 370.692,75.06 C370.046,76.401 368.058,76.153 366.915,74.612 L365.97,73.32 L364.876,74.413 C363.982,75.308 363.783,75.905 364.031,77.097 C364.23,77.992 364.628,80.677 364.976,83.063 L365.572,87.437 L367.263,85.697 C369.4,83.51 371.041,83.411 374.52,85.2 C375.912,85.946 377.702,86.89 378.497,87.338 C381.082,88.729 384.661,91.513 384.959,92.309 C385.108,92.756 386.053,93.601 387.097,94.197 C388.141,94.794 390.228,96.236 391.72,97.429 C393.211,98.622 395.05,100.013 395.846,100.511 C396.591,101.008 398.53,102.548 400.071,103.99 C401.612,105.382 403.899,107.42 405.141,108.514 C411.256,113.982 421.495,126.21 421.495,128.099 C421.495,128.646 422.291,129.839 423.235,130.784 C424.18,131.728 424.975,132.822 424.975,133.269 C424.975,134.661 422.34,135.605 418.314,135.605 C413.343,135.605 413.045,135.755 413.045,138.29 C413.045,140.03 413.343,140.626 414.934,142.117 C415.928,143.112 418.115,144.503 419.756,145.249 C424.08,147.238 424.776,148.778 421.645,149.275 C417.022,149.971 405.738,152.209 404.843,152.556 C404.296,152.755 402.755,153.103 401.364,153.252 C398.53,153.65 398.083,154.097 398.629,155.936 C398.828,156.632 398.878,158.521 398.729,160.062 C398.53,162.548 398.629,162.995 399.425,163.293 C400.767,163.84 400.866,167.917 399.524,167.917 C398.679,167.917 398.629,168.314 398.878,173.037 C399.176,177.709 399.624,180.096 401.364,185.563 C401.711,186.657 402.308,188.794 402.606,190.286 C403.55,194.61 405.141,198.886 406.235,200.128 C407.08,201.023 407.229,201.769 407.13,204.105 C407.03,205.646 406.981,207.485 406.931,208.181 C406.931,208.877 406.931,210.269 406.98,211.313 L407.08,213.202 L409.466,212.904 C410.758,212.754 412.846,212.357 414.089,212.059 C417.419,211.263 418.712,211.76 419.408,214.047 C419.756,215.14 420.004,216.831 420.004,217.825 C420.004,220.459 420.75,221.602 422.49,221.602 C424.18,221.602 425.125,222.895 427.908,228.811 C428.852,230.749 430.543,234.328 431.686,236.764 C434.668,243.027 435.414,244.767 435.414,245.413 C435.414,246.109 436.806,250.136 437.9,252.671 C438.347,253.765 439.292,255.902 439.938,257.394 C440.584,258.885 441.628,260.972 442.274,262.016 C443.616,264.253 443.566,265.397 441.976,266.092 C440.982,266.54 440.932,266.838 441.18,268.926 C441.479,271.113 441.429,271.312 440.186,271.859 C438.397,272.704 438.496,274.046 440.882,278.719 C442.473,282 442.721,282.745 442.175,283.242 C441.777,283.541 440.932,283.64 440.186,283.441 C438.894,283.143 438.894,283.143 438.894,286.225 C438.894,289.208 440.783,296.018 442.075,297.608 C442.374,298.006 443.119,299.348 443.666,300.591 C444.66,302.679 444.71,302.977 444.014,304.369 C443.566,305.164 443.119,307.202 442.97,308.892 C442.771,311.477 442.92,312.323 443.815,313.814 C444.71,315.355 444.859,316.399 444.859,321.519 C444.859,324.799 444.66,328.428 444.362,329.572 C443.318,334.095 442.92,335.785 442.125,338.171 C441.678,339.563 440.733,342.546 440.037,344.882 C439.341,347.218 438.596,349.555 438.347,350.102 C438.098,350.648 437.552,352.09 437.154,353.333 C434.917,359.695 434.221,361.336 431.885,365.959 C428.852,371.973 425.771,377.342 424.13,379.579 C423.186,380.871 422.739,381.07 422.241,380.673 C421.694,380.225 421.396,380.375 420.75,381.369 C419.259,383.655 418.911,382.91 419.308,378.187 C419.656,373.365 419.109,372.272 417.817,375.354 C417.419,376.199 416.525,378.287 415.829,379.927 C415.133,381.567 414.238,382.96 413.791,383.059 C413.095,383.208 413.045,382.661 413.343,378.088 C413.542,375.254 413.84,372.719 414.089,372.471 C414.735,371.576 415.679,353.382 415.332,347.318 C415.133,343.838 415.183,341.104 415.481,340.259 C415.878,339.265 415.779,338.569 415.133,337.326 C413.045,333.299 412.598,334.244 412.051,343.937 C411.405,355.42 410.609,365.511 410.062,368.742 C408.025,380.822 407.378,383.655 406.533,383.655 C405.539,383.655 405.191,381.319 404.843,371.725 C404.445,359.447 404.296,358.005 403.401,352.189 C403.004,349.654 402.507,346.075 402.308,344.136 C402.059,341.601 401.711,340.507 401.065,340.01 C400.518,339.662 400.12,339.066 400.12,338.718 C400.12,338.42 399.474,337.078 398.629,335.785 C395.597,331.013 393.062,322.165 393.957,319.431 C394.255,318.387 391.869,313.863 391.222,314.261 C390.974,314.41 390.527,316.2 390.228,318.238 C389.881,320.226 389.383,322.264 389.036,322.662 C388.439,323.457 383.468,324.501 380.237,324.501 C378.795,324.501 378.298,324.203 377.403,322.761 C376.757,321.817 376.26,320.674 376.26,320.276 C376.26,319.281 373.874,313.515 373.029,312.571 C372.084,311.428 369.698,303.275 369.251,299.646 C369.052,297.857 368.406,294.278 367.81,291.693 C367.213,289.108 366.417,285.281 366.02,283.242 C365.622,281.204 365.075,279.116 364.827,278.62 C364.33,277.824 362.839,270.815 362.839,269.423 C362.839,269.075 363.485,268.379 364.33,267.932 C365.275,267.385 365.821,266.689 365.821,265.993 C365.821,264.999 365.572,264.85 363.833,264.85 C361.496,264.85 361.447,264.751 361.149,257.89 C360.95,253.466 359.955,246.408 358.812,240.741 C358.166,237.41 356.923,218.322 357.221,216.284 C357.47,214.941 357.719,214.644 358.713,214.644 C359.657,214.644 360.104,215.091 360.9,217.03 C362.938,221.802 362.689,221.553 365.523,221.255 C368.058,220.956 369.251,220.111 369.301,218.57 C369.301,217.179 368.058,215.19 366.965,214.892 C365.275,214.494 359.955,209.126 359.558,207.436 C359.359,206.64 358.961,205.596 358.613,205.198 C358.315,204.801 357.768,203.111 357.42,201.471 C357.072,199.83 356.575,197.941 356.327,197.245 C355.979,196.201 355.084,189.093 354.686,184.172 C354.487,182.282 354.04,182.034 352.897,183.078 C352.151,183.724 351.753,183.823 351.256,183.426 C350.908,183.127 350.113,182.978 349.516,183.127 C348.721,183.376 348.075,182.978 346.931,181.786 C346.136,180.891 345.44,179.797 345.44,179.449 C345.44,178.356 340.917,173.385 339.923,173.385 C339.425,173.385 338.53,172.739 337.884,171.893 C336.542,170.054 335.797,170.054 332.913,171.844 C331.422,172.788 330.428,173.136 329.981,172.838 C328.837,172.092 328.539,172.34 328.539,173.931 C328.539,175.174 328.241,175.522 326.7,176.218 C325.209,176.815 324.512,176.864 323.27,176.417 C322.276,176.069 321.281,176.019 320.536,176.268 C319.244,176.765 315.366,176.665 314.073,176.168 C313.179,175.771 312.383,177.212 311.837,180.096 C311.688,181.09 310.296,184.321 308.854,187.303 C307.363,190.236 306.17,193.219 306.17,193.865 C306.12,194.61 305.573,195.356 304.579,196.002 C301.945,197.692 301.795,198.388 303.585,200.625 L305.176,202.564 L310.743,202.912 L316.36,203.31 L318.498,205.348 C319.641,206.491 320.585,207.684 320.585,208.032 C320.585,208.38 321.033,208.877 321.53,209.175 C323.121,210.02 323.518,212.506 323.419,221.006 L323.32,229.158 L321.977,230.252 C321.182,230.849 320.585,231.644 320.585,232.042 C320.536,232.439 319.591,233.434 318.448,234.279 C316.559,235.571 316.012,235.72 312.483,235.72 C309.5,235.72 308.506,235.521 308.009,234.875 C307.711,234.428 306.369,233.831 305.076,233.632 C301,232.837 297.023,229.854 294.886,225.878 C294.588,225.331 294.041,224.834 293.693,224.784 C293.295,224.685 292.5,224.486 291.953,224.337 C291.158,224.088 290.462,224.436 289.318,225.53 C288.473,226.375 287.429,227.071 287.081,227.071 C286.733,227.071 286.037,227.518 285.541,228.065 C285.043,228.612 284.248,229.059 283.701,229.059 C283.105,229.059 282.806,229.407 282.806,230.203 C282.806,231.793 281.315,233.036 279.426,233.036 C277.935,233.036 277.835,233.135 277.835,234.974 C277.835,237.162 277.488,237.51 274.207,238.752 C272.119,239.548 271.821,239.796 272.119,240.691 C272.318,241.287 272.417,242.381 272.417,243.177 L272.318,244.618 L278.333,244.221 C284.198,243.872 284.397,243.922 284.646,244.917 C285.093,246.706 289.617,245.911 290.512,243.823 C290.81,243.177 291.406,242.779 292.003,242.828 C293.394,242.928 300.354,241.486 301.05,240.89 C301.398,240.641 304.281,240.343 307.512,240.244 C310.743,240.194 314.322,239.946 315.465,239.746 C317.454,239.399 317.703,239.498 319.094,240.989 C319.89,241.884 320.585,243.027 320.585,243.525 C320.585,244.071 321.58,245.413 322.773,246.607 C324.562,248.297 325.01,249.142 325.308,251.08 C325.606,252.87 325.954,253.615 326.75,253.964 C327.296,254.212 328.34,254.858 329.036,255.355 C329.732,255.902 330.875,256.499 331.671,256.698 C333.013,256.996 333.013,256.946 333.013,254.659 C333.013,253.367 333.162,252.423 333.411,252.522 C333.808,252.721 338.879,255.852 343.104,258.636 C344.794,259.73 346.236,261.022 346.335,261.519 C346.484,262.265 346.086,262.364 343.452,262.364 L340.37,262.364 L340.718,263.756 C341.115,265.645 340.32,267.633 338.431,269.373 L336.94,270.765 L340.569,275.835 C347.18,285.032 346.385,281.651 346.733,302.231 C346.882,312.173 346.832,323.606 346.633,327.682 L346.285,335.039 L344.148,334.791 C341.662,334.543 340.171,335.636 340.668,337.326 C341.066,338.519 346.037,343.441 348.423,345.031 L350.162,346.174 L350.312,350.748 C350.362,353.283 350.511,355.321 350.56,355.321 C350.61,355.321 352.35,355.023 354.388,354.625 C356.426,354.228 358.215,353.979 358.414,354.128 C358.763,354.327 361.049,358.154 363.634,362.678 C364.181,363.722 365.374,366.406 366.268,368.742 C367.163,371.079 368.506,374.21 369.152,375.702 C370.742,379.132 371.09,379.977 371.786,382.263 C372.084,383.258 372.979,384.799 373.775,385.743 C374.57,386.638 375.266,387.732 375.266,388.129 C375.266,388.577 375.713,389.77 376.26,390.863 C376.807,391.907 377.503,393.548 377.801,394.542 C378.099,395.536 378.596,396.58 378.795,396.878 C379.889,398.22 381.38,403.638 381.728,407.516 C382.275,413.332 384.164,419.894 387.196,426.654 C388.638,429.786 392.565,439.579 393.957,443.555 C394.354,444.649 395.001,446.24 395.398,447.035 C396.691,449.918 396.74,451.012 395.697,452.801 C394.503,454.74 394.304,458.865 395.249,460.954 C395.697,461.898 395.647,462.445 395.199,463.34 C394.653,464.334 394.802,464.88 396.343,467.615 C397.337,469.354 398.132,470.945 398.132,471.144 C398.132,471.392 397.138,472.088 395.895,472.685 C393.012,474.127 393.012,475.22 395.796,478.252 C397.784,480.39 398.083,480.589 400.319,480.589 C402.407,480.589 407.179,481.98 412.299,484.068 C413.144,484.416 414.238,484.864 414.785,485.112 C415.332,485.311 417.917,486.206 420.501,487.101 C428.007,489.586 428.505,489.934 429.151,493.513 C429.3,494.507 429.896,495.651 430.443,496.148 C431.04,496.645 431.437,497.589 431.437,498.484 C431.437,499.925 431.338,499.975 429.25,499.975 C428.007,499.975 426.864,499.727 426.715,499.478 C426.516,499.13 426.168,499.13 425.82,499.379 C425.125,499.925 416.525,499.876 415.679,499.329 C415.382,499.13 414.984,499.18 414.785,499.478 C414.387,500.174 389.831,500.174 389.433,499.478 C389.284,499.229 388.24,498.981 387.196,498.981 C386.102,498.981 384.462,498.534 383.468,497.937 C381.778,496.893 381.679,496.893 380.336,497.788 C377.006,500.025 377.9,499.975 349.069,499.975 C319.74,499.975 320.238,500.025 317.504,497.589 C316.708,496.943 316.509,496.943 315.267,497.788 C314.471,498.285 312.781,498.882 311.389,499.18 C308.059,499.826 280.719,500.025 279.973,499.379 C279.625,499.08 279.078,499.13 278.432,499.528 C277.786,499.925 277.239,499.975 276.593,499.578 C275.947,499.229 275.399,499.279 274.753,499.627 C274.058,500.075 273.61,500.075 272.864,499.627 C272.268,499.229 271.821,499.18 271.622,499.478 C271.473,499.776 270.329,499.975 269.087,499.975 C266.899,499.975 266.899,499.975 266.899,498.285 C266.899,497.142 267.247,496.347 267.844,495.899 C268.341,495.502 269.037,494.258 269.385,493.115 C270.081,490.381 271.224,489.288 274.207,488.343 C277.139,487.399 286.187,484.168 291.506,482.13 C294.09,481.135 296.377,480.589 298.067,480.589 C301.249,480.589 302.392,479.644 301.895,477.407 C301.497,475.369 300.801,474.623 299.459,474.623 C298.067,474.623 297.322,473.778 297.322,472.138 C297.173,445.345 296.129,425.411 294.786,423.721 C294.588,423.423 294.239,422.528 294.041,421.782 C293.494,419.496 293.743,376.249 294.289,372.968 C294.588,371.327 294.935,368.942 295.084,367.649 C295.333,365.362 295.383,365.263 297.123,365.014 C298.167,364.816 299.459,364.517 300.105,364.219 C300.751,363.971 301.795,363.771 302.441,363.771 C303.137,363.771 303.685,363.672 303.685,363.573 C303.685,363.473 302.889,361.684 301.945,359.596 C301,357.459 300.205,355.569 300.205,355.321 C300.205,355.073 301,353.631 301.945,352.139 C304.132,348.71 305.772,344.335 305.573,342.546 C305.424,341.353 305.176,341.154 303.933,341.154 C302.591,341.154 302.292,340.806 300.602,337.425 C298.912,333.995 296.328,328.13 292.649,319.281 C290.263,313.664 289.517,312.123 289.268,312.074 C289.12,312.074 288.374,313.366 287.628,314.957 C286.137,318.287 284.546,320.077 281.911,321.32 C278.034,323.159 273.411,322.711 269.982,320.176 C267.893,318.586 265.607,314.559 265.16,311.626 C264.861,309.538 263.768,307.6 262.923,307.6 C262.724,307.6 262.177,309.042 261.73,310.781 C261.034,313.664 261.034,314.162 261.68,315.404 C262.078,316.15 263.619,319.381 265.11,322.562 C266.601,325.744 268.391,328.975 269.136,329.721 C270.28,331.013 270.329,331.262 269.683,331.759 C268.987,332.256 268.888,334.841 268.888,353.482 C268.888,373.365 268.838,374.807 267.943,376.795 C267.397,377.989 266.85,379.33 266.701,379.877 C266.452,380.623 266.253,380.673 265.657,380.176 C265.259,379.828 264.911,379.082 264.911,378.485 C264.911,377.293 263.619,375.205 262.873,375.204 C262.625,375.205 262.426,380.722 262.426,389.123 C262.426,404.881 262.923,403.091 257.703,407.019 C256.361,408.062 254.223,409.703 252.981,410.697 C251.738,411.692 250.545,412.487 250.346,412.487 C250.147,412.487 249.203,413.233 248.258,414.127 C247.314,415.022 246.021,416.066 245.326,416.464 C244.132,417.06 243.834,416.96 241.448,415.27 C233.843,410.001 231.755,408.46 230.761,407.267 C230.164,406.571 229.319,406.025 228.872,406.025 C228.424,406.025 227.43,405.428 226.685,404.633 L225.292,403.29 L225.491,393.597 C225.839,377.939 224.945,370.93 223.404,377.094 C222.509,380.772 221.863,380.772 220.173,377.044 L218.681,373.713 L218.681,352.835 C218.681,339.265 218.532,331.958 218.184,331.958 C217.24,331.958 217.687,330.516 220.073,325.893 C223.652,318.834 225.641,314.311 225.641,313.068 C225.641,312.024 224.696,308.147 224.298,307.65 C223.851,307.003 222.161,309.489 221.912,311.278 C221.415,314.509 219.129,318.586 216.792,320.375 C210.778,324.948 201.681,321.817 199.096,314.311 C198.698,313.217 198.201,312.273 197.952,312.223 C197.505,312.074 197.306,312.471 194.174,319.779 C189.353,331.113 187.663,334.99 186.221,337.923 C184.631,341.104 184.631,341.154 182.791,341.005 C180.952,340.855 180.902,340.905 180.902,342.645 C180.902,344.584 184.382,352.239 185.923,353.631 C187.066,354.675 187.116,355.47 186.171,357.21 C184.78,359.695 183.437,363.275 183.785,363.473 C183.984,363.573 185.376,363.921 186.867,364.269 C191.988,365.362 192.037,365.412 192.584,370.731 C192.833,373.316 193.081,385.743 193.081,398.32 C193.081,421.136 193.081,421.186 191.888,425.162 C190.695,429.04 190.645,429.637 190.496,449.272 C190.397,460.357 190.098,469.852 189.85,470.398 C189.601,470.945 189.303,472.038 189.253,472.883 C189.104,474.077 188.806,474.375 187.464,474.673 C185.426,475.071 185.525,474.972 185.127,477.159 C184.68,479.694 185.724,480.589 189.005,480.589 C190.695,480.589 192.982,481.135 195.566,482.13 C197.754,482.975 202.327,484.615 205.757,485.858 C209.187,487.101 212.915,488.442 214.108,488.841 C216.245,489.636 217.687,491.475 217.687,493.463 C217.687,494.01 218.234,495.054 218.93,495.799 C219.626,496.595 220.173,497.738 220.173,498.534 L220.173,499.975 L216.146,499.876 C213.959,499.826 212.07,499.627 211.921,499.379 C211.772,499.18 211.175,499.279 210.529,499.528 C209.733,499.925 209.038,499.925 208.441,499.578 C207.845,499.229 207.298,499.279 206.652,499.627 C206.006,500.075 205.508,500.075 204.862,499.627 C204.266,499.279 203.669,499.229 203.222,499.528 C202.227,500.124 178.069,500.124 177.671,499.478 C177.522,499.229 176.478,498.981 175.384,498.981 C174.142,498.981 172.849,498.583 172.004,497.937 L170.612,496.943 L168.226,498.434 L165.791,499.975 L138.102,499.975 C109.221,499.975 108.923,499.975 106.487,497.838 C105.393,496.893 105.393,496.893 103.604,497.937 C102.61,498.534 100.97,498.981 99.876,498.981 C98.832,498.981 97.788,499.229 97.639,499.478 C97.191,500.174 72.884,500.124 72.188,499.429 C71.79,499.031 71.393,499.08 70.647,499.528 C69.851,500.025 69.503,500.025 68.907,499.528 C68.31,499.031 67.913,499.031 67.117,499.578 C66.272,500.075 65.875,500.075 65.079,499.578 C64.284,499.13 63.886,499.08 63.141,499.578 C62.395,500.025 61.997,500.025 61.451,499.528 C60.953,499.13 60.606,499.08 60.357,499.478 C60.009,500.025 55.982,500.174 55.485,499.627 C54.79,498.981 55.187,497.539 56.33,496.148 C56.976,495.352 57.672,493.911 57.871,492.917 C58.07,491.922 58.716,490.68 59.263,490.133 C59.86,489.586 63.29,488.145 66.819,486.902 C70.398,485.659 75.767,483.77 78.75,482.627 C82.527,481.235 85.013,480.589 86.802,480.589 C88.293,480.589 89.586,480.34 89.884,479.992 C90.183,479.644 91.177,478.451 92.121,477.358 C94.11,474.972 93.911,474.176 90.878,472.635 C89.834,472.088 88.94,471.442 88.94,471.243 C88.94,471.044 89.735,469.354 90.729,467.515 C92.419,464.284 92.469,464.085 91.624,463.439 C90.829,462.892 90.829,462.693 91.375,461.997 C91.823,461.5 92.071,459.81 92.121,457.524 C92.171,454.491 91.972,453.597 91.127,452.403 C90.133,451.061 90.083,450.862 90.779,449.222 C91.177,448.277 91.923,446.438 92.419,445.046 C93.712,441.368 95.551,436.745 97.887,431.128 C103.157,418.551 104.747,413.481 105.145,407.864 C105.344,405.329 105.642,403.091 105.841,402.793 C106.04,402.545 106.487,401.401 106.835,400.308 C107.432,398.369 107.978,397.077 110.514,391.509 C111.209,389.968 111.806,388.427 111.806,388.179 C111.806,387.881 112.254,386.787 112.8,385.793 C113.347,384.699 113.645,383.506 113.496,382.81 C113.198,381.716 114.192,378.635 116.628,373.216 C118.219,369.687 118.417,369.24 120.256,364.517 C121.102,362.38 122.643,359.248 123.637,357.558 C124.631,355.918 125.824,353.929 126.272,353.084 C127.216,351.394 128.558,350.996 131.143,351.792 C132.137,352.04 133.529,352.438 134.324,352.587 L135.667,352.835 L135.567,348.013 L135.418,343.192 L136.81,342.496 C137.555,342.148 139.643,340.458 141.383,338.817 C145.807,334.692 145.807,332.753 141.383,332.703 L139.395,332.703 L138.997,327.235 C138.6,321.817 138.898,301.585 139.494,291.842 L139.792,286.722 L137.009,286.722 C134.324,286.722 134.175,286.623 132.336,284.485 C129.851,281.453 127.862,281.502 126.421,284.535 C124.929,287.667 121.35,287.567 119.064,284.286 L117.523,282.099 L114.043,282.049 C112.104,282 110.166,281.751 109.668,281.552 C108.823,281.155 108.823,282.745 108.923,315.703 C109.023,334.692 108.923,350.449 108.674,350.648 C107.978,351.394 107.034,349.952 102.709,341.601 C101.268,338.768 100.721,339.215 98.385,345.131 C98.136,345.677 97.589,347.268 97.092,348.61 C96.048,351.643 95.7,352.04 94.259,352.09 C93.464,352.09 93.016,352.537 92.668,353.631 C92.419,354.476 91.773,355.669 91.276,356.365 C90.431,357.508 90.431,357.409 90.729,352.09 C90.928,349.107 91.177,346.174 91.326,345.627 C91.773,343.987 91.823,324.551 91.375,320.773 C91.177,318.884 90.878,312.471 90.729,306.606 C90.58,300.74 90.332,293.532 90.133,290.649 L89.785,285.33 L91.127,284.485 C92.32,283.69 92.469,283.342 92.32,281.055 C92.22,278.967 91.972,278.47 91.177,278.321 C90.63,278.221 88.989,277.277 87.498,276.233 C86.007,275.14 84.217,274.295 83.472,274.295 C82.776,274.295 81.732,273.947 81.185,273.549 C80.688,273.151 79.893,272.803 79.495,272.803 C79.147,272.803 77.855,271.809 76.661,270.566 C75.518,269.324 74.325,268.329 74.027,268.329 C73.779,268.329 73.53,267.982 73.53,267.584 C73.53,267.037 72.983,266.838 71.74,266.838 C70.149,266.838 69.901,266.639 69.205,264.9 C68.459,263.061 68.36,262.961 66.521,263.21 C64.184,263.557 63.29,262.911 62.047,259.978 C61.301,258.288 61.102,256.549 61.102,252.025 C61.102,248.843 61.351,245.314 61.649,244.221 C62.743,239.946 63.041,239.548 66.819,237.709 C70,236.168 70.498,235.77 70.696,234.378 C71.044,232.439 72.039,229.158 74.027,223.591 C74.872,221.255 75.816,217.725 76.164,215.687 C76.711,212.406 76.96,211.909 78.202,211.164 C79.893,210.219 80.887,207.883 80.936,204.652 C80.986,203.409 81.136,201.023 81.285,199.432 L81.583,196.45 L85.559,194.61 C87.747,193.616 89.685,192.771 89.934,192.771 C90.481,192.771 91.923,196.847 91.923,198.488 C91.923,199.333 92.071,201.172 92.22,202.614 C92.469,204.602 92.768,205.198 93.414,205.198 C93.911,205.198 94.607,205.696 95.004,206.242 C95.7,207.287 95.75,207.336 97.54,206.441 L99.379,205.596 L99.379,200.526 C99.379,197.742 99.577,195.257 99.826,195.008 C100.075,194.71 100.373,193.119 100.522,191.429 L100.87,188.397 L97.34,187.303 C94.607,186.458 93.712,186.359 93.165,186.806 C92.768,187.154 92.419,187.751 92.419,188.148 C92.419,189.292 90.928,191.777 90.232,191.777 C89.884,191.777 88.89,191.429 88.045,190.982 C86.256,190.137 85.957,188.546 87.15,186.657 C87.548,186.061 87.995,183.724 88.194,181.487 C88.542,177.61 88.493,177.262 87.2,175.075 C85.858,172.838 85.858,172.689 86.752,172.043 C87.25,171.694 87.797,171.396 88.045,171.396 C88.244,171.396 88.443,170.65 88.443,169.706 C88.443,167.966 87.797,167.419 85.907,167.419 C85.112,167.419 84.963,167.072 84.963,165.183 C84.963,163.045 85.013,162.946 86.454,162.946 C87.647,162.946 88.095,162.647 88.443,161.653 C89.039,160.212 88.493,159.217 86.902,158.72 C85.808,158.372 85.659,157.378 86.603,156.384 C86.902,155.986 87.498,155.191 87.846,154.595 C88.343,153.7 88.343,153.451 87.846,153.302 C87.498,153.203 86.405,152.904 85.46,152.606 C84.516,152.308 82.627,151.96 81.235,151.761 C79.893,151.612 77.208,151.115 75.27,150.717 C73.381,150.319 69.901,149.624 67.565,149.126 C63.886,148.381 63.339,148.132 63.19,147.188 C63.041,146.293 63.439,145.846 65.178,145.1 C66.372,144.553 67.913,144.007 68.658,143.807 C69.404,143.658 70.845,142.763 71.79,141.769 C73.381,140.228 73.58,139.731 73.43,137.942 L73.281,135.854 L68.758,135.605 C65.626,135.456 63.886,135.108 62.942,134.462 C62.196,134.015 61.6,133.518 61.6,133.369 C61.6,133.269 62.494,132.126 63.588,130.883 C64.682,129.64 65.577,128.248 65.576,127.801 C65.577,125.863 76.115,113.634 83.223,107.321 C84.863,105.879 86.454,104.338 86.752,103.99 C87.051,103.593 90.53,100.958 94.458,98.174 C98.583,95.241 101.914,92.458 102.262,91.712 C102.61,90.966 103.157,90.37 103.455,90.37 C103.753,90.37 104.747,89.823 105.642,89.127 C106.537,88.431 107.382,87.884 107.482,87.884 C107.631,87.884 109.122,87.089 110.812,86.144 C112.452,85.2 114.739,84.156 115.833,83.858 C117.721,83.262 117.871,83.311 119.312,84.803 C120.157,85.697 121.052,86.393 121.251,86.393 C121.599,86.393 121.947,84.007 122.543,77.595 C122.842,74.811 122.742,74.513 121.748,73.966 C121.151,73.667 120.655,73.469 120.605,73.568 C119.71,75.308 119.213,75.706 118.02,75.706 C117.274,75.706 116.479,75.358 116.28,74.96 C114.54,71.43 114.689,67.553 116.578,66.062 C117.423,65.366 117.771,64.62 117.771,63.378 C117.771,62.383 117.572,61.489 117.324,61.34 C116.628,60.892 115.634,54.231 115.982,51.945 C116.131,50.801 116.379,49.012 116.529,47.968 C116.628,46.924 117.175,45.483 117.721,44.737 C118.467,43.643 118.716,42.202 118.964,37.429 C119.213,32.16 119.461,30.768 121.251,25.748 C122.345,22.616 123.388,18.59 123.587,16.8 C123.985,12.674 125.228,10.288 128.807,6.759 C131.789,3.826 132.883,3.329 133.877,4.621 C134.374,5.268 134.722,5.218 136.909,4.572 C138.301,4.124 139.643,3.727 139.991,3.627 C140.29,3.528 140.687,2.782 140.886,1.937 C141.085,1.092 141.433,0.297 141.681,0.098 L141.973,0 z M123.687,458.716 L121.549,458.716 C118.517,458.716 116.33,459.611 116.081,460.854 C115.932,461.45 115.584,463.836 115.236,466.173 C114.938,468.509 114.59,470.647 114.54,470.945 C114.44,471.243 113.397,471.591 112.204,471.74 C109.42,472.038 105.891,474.325 105.543,476.065 C105.393,476.761 105.095,477.755 104.797,478.203 C104.548,478.7 104.35,479.296 104.35,479.594 C104.35,480.29 104.946,480.191 106.238,479.296 C107.133,478.7 108.476,478.55 112.701,478.65 C120.107,478.799 124.134,478.252 124.83,476.96 C125.277,476.115 125.128,475.767 123.985,474.773 C122.742,473.679 122.692,473.381 122.991,471.193 C123.239,469.503 123.09,468.36 122.593,467.416 C122.046,466.322 121.996,465.726 122.494,464.234 C122.842,463.24 123.239,461.6 123.388,460.605 L123.687,458.716 z M364.725,458.729 C364.268,458.769 363.785,458.706 363.382,458.962 C363.351,458.983 363.351,459.031 363.335,459.064 C363.336,459.263 363.684,460.854 364.131,462.594 C364.827,465.278 364.827,466.123 364.33,467.664 C363.932,468.807 363.833,470.448 364.031,471.79 C364.33,473.778 364.23,474.127 363.385,474.623 C361.994,475.319 361.944,477.904 363.286,478.352 C363.783,478.501 364.529,478.501 364.926,478.352 C365.324,478.203 366.517,478.352 367.611,478.7 C368.804,479.147 370.196,479.246 371.239,479.048 C372.184,478.849 373.427,478.948 374.073,479.197 C374.918,479.594 375.415,479.594 375.912,479.197 C376.359,478.799 377.304,478.849 379.243,479.296 C380.734,479.694 382.126,479.992 382.374,480.042 C382.921,480.141 382.822,478.7 382.225,478.352 C381.977,478.203 381.728,477.556 381.728,476.91 C381.728,474.872 378,472.138 374.57,471.691 L372.582,471.392 L371.587,465.726 C370.593,460.258 370.494,460.009 369.052,459.413 C367.656,458.936 366.202,458.728 364.725,458.729 z M159.001,466.305 L158.831,466.322 C158.533,466.421 158.085,467.615 157.887,468.957 C157.638,470.299 157.141,471.74 156.744,472.188 C155.948,473.083 154.457,477.656 154.854,478.103 C155.004,478.252 155.998,478.6 157.091,478.849 C159.08,479.346 164.747,479.495 165.194,479.048 C165.741,478.501 164.399,471.84 163.454,470.348 C162.359,468.725 160.93,466.924 159.001,466.305 z M328.539,465.676 C327.744,465.676 324.065,469.205 323.27,470.697 C322.176,472.883 321.083,478.501 321.779,478.749 C322.524,478.998 331.522,478.65 332.068,478.352 C332.665,477.954 331.074,473.033 329.981,471.84 C329.285,471.144 329.036,470.1 329.036,468.261 C329.036,466.819 328.837,465.676 328.539,465.676 z M172.367,375.385 C171.532,375.474 171.9,375.407 171.258,375.553 C170.413,375.751 168.922,375.9 167.978,375.9 L166.238,375.95 L166.089,378.933 C165.989,381.766 166.039,382.015 167.779,383.805 L169.618,385.743 L170.861,384.5 C171.656,383.705 172.402,381.965 172.949,379.828 C173.17,378.906 173.842,376.613 173.237,375.759 C172.992,375.413 172.748,375.454 172.367,375.385 z M140.777,367.275 C140.049,367.509 140.294,367.316 139.941,367.698 C139.345,368.643 139.096,375.006 139.594,376.348 C140.19,377.889 140.637,377.989 142.924,376.895 C144.714,376.05 145.758,374.509 146.304,371.973 C146.603,370.532 146.503,370.383 144.614,369.538 C143.471,369.041 142.427,368.345 142.278,367.947 C141.893,367.373 141.444,367.3 140.777,367.275 z M258.2,314.062 C257.007,314.062 253.975,317.343 253.677,318.983 L253.378,320.524 L233.694,320.524 L233.346,318.983 C232.948,317.144 229.866,313.963 228.723,314.162 C228.226,314.261 227.48,315.106 227.032,316.05 C223.553,323.01 220.67,329.124 220.67,329.522 C220.67,329.77 229.617,329.969 243.735,329.969 L266.8,329.969 L262.823,322.016 C260.636,317.591 258.548,314.062 258.2,314.062 z M285.292,309.688 L276.841,309.787 C271.572,309.787 268.391,310.036 268.391,310.334 C268.391,311.775 269.633,315.007 270.727,316.498 C271.423,317.393 272.914,318.586 274.058,319.083 C276.543,320.226 276.891,320.226 279.227,319.232 C282.757,317.79 285.292,314.509 285.292,311.428 L285.292,309.688 z M201.78,309.688 L201.78,311.527 C201.78,312.819 202.227,314.062 203.172,315.354 C205.011,317.84 205.807,318.486 208.093,319.331 C209.137,319.679 210.429,319.829 210.976,319.679 C213.263,319.083 215.301,317.84 216.196,316.498 C217.19,315.106 218.681,311.477 218.681,310.383 C218.681,309.986 216.096,309.837 210.231,309.737 L201.78,309.688 z M197.709,293.355 C196.966,293.408 196.698,293.44 196.064,293.88 C194.672,294.775 194.075,297.31 194.523,299.895 C194.821,301.336 195.069,301.635 196.064,301.635 C196.859,301.635 197.306,301.336 197.306,300.889 C197.306,299.945 198.748,299.945 203.768,300.84 C206.155,301.287 207.795,301.386 208.392,301.088 C209.485,300.491 209.485,300.491 207.745,298.454 C206.453,297.012 205.757,296.664 203.52,296.415 C201.333,296.117 200.786,295.869 200.786,295.173 C200.786,294.576 200.19,294.079 199.046,293.681 C198.264,293.437 198.707,293.556 197.709,293.355 z M289.377,293.358 C288.404,293.555 288.835,293.437 288.076,293.681 C287.181,293.979 286.286,294.626 286.137,295.123 C285.988,295.769 285.292,296.117 283.552,296.266 C281.812,296.465 280.818,296.962 279.525,298.205 C277.736,299.945 277.438,300.889 278.482,301.287 C279.078,301.535 281.762,301.287 283.552,300.79 C284.099,300.591 285.093,300.442 285.789,300.392 C286.485,300.342 287.578,300.094 288.225,299.895 C289.12,299.646 289.418,299.796 289.617,300.641 C289.816,301.336 290.213,301.635 290.959,301.535 C291.903,301.386 292.003,301.038 292.152,298.056 C292.301,294.974 292.202,294.675 291.058,293.93 C290.533,293.601 290.026,293.308 289.377,293.358 z M149.088,170.154 L147.796,171.794 C147.1,172.639 146.106,173.385 145.658,173.385 C144.664,173.385 140.14,178.505 140.14,179.598 C140.14,179.996 139.544,180.941 138.848,181.786 C137.456,183.476 135.02,183.873 133.181,182.73 C132.684,182.382 132.137,182.233 132.038,182.332 C131.839,182.631 132.386,187.949 133.231,193.318 L133.778,197.096 L138.55,197.444 C143.62,197.792 145.807,198.637 147.249,200.924 C148.044,202.067 151.176,211.611 151.424,213.4 C151.474,213.947 151.623,215.737 151.773,217.377 C151.922,219.018 152.269,221.106 152.518,222.001 C152.866,223.144 152.866,224.038 152.468,224.883 C152.021,225.828 152.021,226.524 152.468,227.767 C153.214,229.755 153.214,231.395 152.568,231.793 C152.319,231.942 152.071,232.738 152.071,233.533 C152.071,234.328 152.319,235.124 152.568,235.273 C153.363,235.77 153.114,237.858 152.021,239.746 C150.381,242.481 149.983,244.867 151.027,245.612 C152.269,246.457 153.164,248.297 153.065,249.838 C153.015,250.583 152.965,252.025 153.015,253.069 C153.065,254.063 153.314,254.908 153.562,254.908 C154.606,254.908 157.539,253.466 157.539,252.969 C157.539,252.671 158.085,252.323 158.781,252.124 C159.477,251.975 160.024,251.478 160.024,250.981 C160.024,248.993 161.167,246.457 162.808,244.767 C163.752,243.773 164.796,243.077 165.045,243.276 C165.293,243.425 166.487,242.481 167.63,241.188 L169.767,238.802 L172.103,239.448 C174.191,240.045 175.534,240.144 179.908,239.995 C181.797,239.946 185.575,240.542 186.122,240.989 C186.718,241.486 191.788,242.431 194.572,242.63 C196.064,242.68 196.66,242.978 197.058,243.823 C197.306,244.419 198.151,245.016 198.947,245.165 C201.184,245.612 201.631,245.513 201.88,244.568 C202.078,243.823 202.675,243.723 206.304,243.823 C208.59,243.872 211.324,244.071 212.368,244.221 C214.108,244.469 214.208,244.419 214.208,243.127 C214.208,242.331 214.357,241.287 214.506,240.691 C214.754,239.846 214.456,239.597 212.617,239.051 C209.733,238.206 208.739,237.211 208.739,235.174 C208.739,233.682 208.59,233.533 207.347,233.533 C205.558,233.533 203.768,231.893 203.768,230.302 C203.768,229.407 203.47,229.059 202.874,229.059 C202.327,229.059 201.531,228.612 201.035,228.065 C200.537,227.518 199.841,227.071 199.543,227.071 C199.195,227.071 198.35,226.474 197.654,225.778 C196.56,224.685 196.064,224.536 194.473,224.834 C192.833,225.082 192.385,225.48 191.192,227.518 C189.552,230.451 186.221,232.738 182.393,233.583 C180.902,233.93 179.411,234.477 179.113,234.875 C178.814,235.223 177.969,235.521 177.274,235.521 C176.577,235.521 175.832,235.77 175.683,236.019 C175.534,236.316 174.838,236.515 174.191,236.515 C173.545,236.515 172.849,236.316 172.7,236.019 C172.551,235.77 171.905,235.521 171.258,235.521 C170.513,235.521 168.723,234.179 166.089,231.544 L162.012,227.618 L162.012,218.57 C162.012,209.921 162.062,209.424 163.106,208.33 C163.702,207.684 164.597,207.187 165.095,207.187 C165.592,207.187 166.834,206.292 167.878,205.248 C169.469,203.608 170.115,203.26 172.452,203.011 C180.703,202.166 181.996,201.918 182.691,200.973 C183.089,200.476 183.387,199.681 183.387,199.233 C183.387,198.239 181.996,196.251 181.3,196.251 C180.306,196.251 178.914,194.66 178.914,193.517 C178.914,192.92 177.621,189.54 175.981,186.011 C174.39,182.481 172.899,178.902 172.75,178.057 L172.402,176.516 L168.823,176.516 C166.834,176.466 164.697,176.466 164.001,176.466 C163.305,176.466 161.814,176.466 160.72,176.516 C158.334,176.616 157.042,175.721 157.042,174.031 C157.042,173.037 156.843,172.838 155.898,172.987 C155.252,173.037 153.463,172.44 151.922,171.645 L149.088,170.154 z" fill="#000000"/>
  </g>
</svg>
