<?xml version="1.0" encoding="UTF-8"?>
<!DOCTYPE svg PUBLIC "-//W3C//DTD SVG 1.1//EN" "http://www.w3.org/Graphics/SVG/1.1/DTD/svg11.dtd">
<svg version="1.1" xmlns="http://www.w3.org/2000/svg" xmlns:xlink="http://www.w3.org/1999/xlink" x="0" y="0" width="500" height="500" viewBox="0, 0, 500, 500">
  <g id="layer102">
    <path d="M316.455,0.035 C329.803,-0.14 343.351,0.239 356.373,3.509 C363.436,5.283 370.36,7.873 375.348,13.362 C381.53,21.398 382.766,26.219 383.754,45.132 C384.991,68.372 385.115,69.979 386.721,72.946 C388.576,76.284 387.711,91.613 385.362,97.793 L383.384,102.862 L372.629,103.603 C361.874,104.345 352.479,102.985 348.771,100.019 C347.782,99.277 342.714,98.288 337.522,97.917 C328.003,97.298 327.879,97.298 327.879,100.143 C327.879,101.749 326.396,104.716 324.665,106.817 C321.574,110.526 321.452,110.526 307.729,110.897 C294.873,111.268 293.884,111.391 293.884,113.74 C293.884,115.594 295.615,116.707 301.919,118.685 C306.37,120.044 311.685,122.146 313.91,123.382 C317.99,125.607 325.407,125.978 329.734,124.371 C331.093,123.877 334.679,124 337.769,124.866 L343.332,126.225 L344.444,133.396 L345.681,140.689 L357.424,139.823 C369.909,138.958 376.585,140.07 379.057,143.408 C380.417,145.262 380.788,145.139 382.766,142.914 C384.125,141.431 386.103,140.318 387.34,140.318 C388.576,140.318 390.43,138.711 391.42,136.733 C395.251,129.316 412.187,126.473 418.986,132.159 C420.84,133.766 423.683,135.373 425.29,135.868 C426.774,136.363 428.01,137.475 428.01,138.464 C428.01,140.689 435.056,146.499 437.776,146.499 C438.889,146.499 440.866,145.757 442.226,144.769 C446.306,142.049 455.206,141.183 457.555,143.285 C465.961,150.949 466.332,151.443 466.332,155.647 C466.332,158.49 465.219,161.21 463.118,163.682 C460.274,167.143 459.285,167.513 452.858,167.513 C448.654,167.513 443.957,166.649 441.608,165.536 C435.427,162.445 433.696,164.177 433.202,173.942 C432.708,184.573 434.438,186.18 442.226,182.472 C448.16,179.752 454.588,179.01 455.825,181.112 C456.195,181.853 457.679,182.348 458.914,182.348 C462.005,182.348 466.332,188.034 466.332,192.362 C466.332,198.665 464.107,202.127 458.42,204.599 C452.981,207.071 449.767,206.824 442.102,203.116 C437.776,201.138 433.572,202.374 433.202,205.836 C432.955,207.566 432.213,209.42 431.595,210.162 C430.976,210.78 430.483,212.51 430.483,214.118 C430.483,216.467 429.864,216.961 426.774,216.961 C424.425,216.961 423.065,216.343 423.065,215.23 C423.065,214.242 422.447,213.005 421.706,212.51 C419.727,211.398 415.772,216.838 415.648,220.669 C415.648,222.4 413.423,228.087 410.704,233.279 C405.882,242.674 405.882,242.921 407.861,246.506 C409.838,249.967 409.838,250.462 407.861,254.541 C405.882,258.868 405.882,258.991 408.478,261.34 C410.333,263.194 410.828,264.678 410.209,266.903 C409.838,268.633 409.096,271.6 408.725,273.331 C408.108,275.804 408.478,276.544 410.704,277.163 C412.681,277.657 413.176,278.523 412.558,280.501 C410.951,286.063 410.457,292.368 411.692,292.368 C414.041,292.368 414.412,296.077 412.558,301.269 C411.198,305.224 411.198,306.832 412.31,308.191 C413.917,310.17 413.671,317.092 411.939,318.822 C410.333,320.43 410.333,324.879 412.063,326.611 C413.794,328.341 412.558,332.05 408.849,336.129 C406.871,338.23 405.758,340.949 405.758,343.423 C405.635,348.244 403.286,351.705 399.948,351.705 C397.352,351.705 393.397,355.289 393.397,357.639 C393.397,359.987 387.587,363.078 384.867,362.212 C383.631,361.841 382.148,362.089 381.653,362.831 C381.282,363.448 379.552,364.066 377.944,364.066 C376.338,364.066 374.608,364.685 374.236,365.303 C373.866,366.045 372.134,366.539 370.404,366.539 C367.437,366.539 367.437,366.786 368.179,373.091 C368.674,377.294 369.786,380.137 371.27,381.249 C372.505,382.115 373.618,384.34 373.618,386.194 C373.618,387.925 375.101,393.364 376.709,398.061 C378.439,402.882 381.53,413.02 383.507,420.56 C385.486,428.224 387.958,436.136 389.07,438.114 C390.059,440.215 390.925,443.553 390.925,445.654 C390.925,449.858 393.768,461.107 396.488,467.287 C397.352,469.389 398.342,471.862 398.713,472.974 C399.084,474.21 401.432,475.323 404.894,475.817 C410.828,476.683 410.704,476.559 414.288,487.808 C415.401,491.27 415.401,493.124 414.288,495.596 L412.805,498.686 L370.404,498.81 C342.219,498.81 327.756,498.315 327.261,497.451 C326.644,496.585 325.902,496.585 324.789,497.574 C323.8,498.439 317.99,498.81 309.213,498.563 L295.121,498.192 L294.008,494.731 C293.143,492.258 293.143,490.528 294.255,488.921 C295.121,487.561 295.739,485.707 295.739,484.718 C295.739,479.649 298.582,476.683 304.021,475.817 C308.719,475.076 309.708,474.458 311.314,470.501 C312.798,466.917 312.922,464.691 311.809,458.634 C311.191,454.555 310.079,437.372 309.584,420.313 C308.595,391.016 308.719,389.284 310.943,387.554 C312.798,385.947 313.046,385.082 311.933,382.239 C310.325,377.911 310.203,365.303 311.809,362.831 C312.427,361.718 312.427,360.482 311.562,359.493 C310.696,358.38 310.696,357.392 311.438,356.402 C312.18,355.537 313.046,352.446 313.539,349.603 C314.158,345.277 313.787,343.916 311.191,340.827 C309.461,338.725 308.1,336.376 308.1,335.388 C308.1,332.543 304.145,329.701 300.065,329.454 C291.783,328.836 289.311,329.454 288.692,331.926 C288.321,333.285 287.086,334.398 285.973,334.398 C282.758,334.398 280.905,336.994 280.905,341.32 C280.905,348.367 276.948,349.726 256.181,349.974 C235.289,350.097 232.322,348.986 230.963,340.456 C230.345,336.747 229.479,335.264 227.13,334.398 C225.4,333.78 223.669,332.297 223.299,331.308 C222.681,329.948 220.702,329.454 215.51,329.454 C209.7,329.454 207.97,329.948 205.745,332.297 C204.261,333.904 203.025,335.758 203.025,336.376 C203.025,337.118 201.789,340.085 200.429,343.175 C198.205,347.625 197.957,349.357 198.946,353.188 C199.688,355.784 200.182,364.19 200.182,372.101 C200.306,381.744 200.8,386.936 201.912,388.296 C203.025,389.655 203.149,395.218 202.407,413.267 C201.789,425.999 201.294,445.036 201.294,455.544 L201.17,474.705 L207.97,475.941 C213.904,477.054 214.769,477.672 215.139,480.268 C215.263,481.998 216.376,485.336 217.365,487.684 C218.724,491.022 218.972,493 217.982,495.349 C216.5,499.305 213.656,499.799 196.844,498.686 C190.292,498.315 184.112,498.439 182.752,499.181 C181.391,499.799 163.715,500.17 139.239,499.923 L97.95,499.428 L96.714,496.214 C95.601,493.618 95.848,491.27 97.95,484.841 L100.545,476.806 L106.356,475.693 C110.683,474.952 112.289,474.087 112.537,472.233 C112.784,470.872 113.773,468.895 114.514,467.906 C115.38,466.917 117.357,460.489 118.965,453.689 C120.448,446.891 122.797,438.238 123.91,434.529 C125.146,430.82 126.876,424.64 127.618,420.931 C128.483,417.222 129.967,411.907 130.955,409.187 C134.788,399.051 137.507,389.655 137.507,386.936 C137.507,385.453 138.62,383.227 140.103,381.868 C141.711,380.384 142.452,378.53 142.082,376.799 C141.835,375.192 142.082,373.585 142.576,373.214 C143.194,372.843 143.689,371.36 143.689,369.876 C143.689,367.528 142.452,366.786 136.642,365.056 C132.687,363.943 127.742,362.707 125.64,362.212 C123.044,361.718 120.819,359.987 118.841,356.897 C117.11,354.301 114.638,352.199 113.155,351.952 C109.57,351.458 105.367,346.142 106.232,343.175 C106.479,341.939 105.367,338.848 103.512,336.252 C100.916,332.297 100.422,330.566 101.04,326.487 C101.658,323.025 101.164,320.182 99.928,317.71 C97.455,313.012 97.455,310.17 99.804,309.18 C102.153,308.315 102.153,305.966 99.804,301.516 C97.331,296.818 97.455,294.469 100.298,292.739 C102.277,291.503 102.4,290.637 101.287,284.951 C100.174,279.511 100.298,278.523 102.277,277.039 C104.254,275.68 104.378,274.814 103.141,270.117 C102.029,265.543 102.153,264.06 103.883,261.216 C105.491,258.497 105.615,257.508 104.378,256.272 C102.524,254.417 102.4,246.382 104.131,244.652 C104.996,243.786 103.883,240.572 101.04,235.009 C98.691,230.312 96.714,224.996 96.714,223.019 C96.714,221.04 95.354,218.073 93.623,216.096 L90.409,212.634 L88.432,215.354 C87.442,216.961 85.217,218.197 83.733,218.197 C81.508,218.197 80.52,217.085 79.284,213.623 C76.564,204.846 73.721,202.127 67.663,202.127 C64.696,202.127 59.752,203.24 56.538,204.599 C47.637,208.432 43.064,207.69 36.511,201.756 C34.286,199.778 33.668,197.924 33.668,193.597 C33.668,190.507 34.41,187.045 35.276,186.057 C37.872,182.719 43.311,179.876 46.896,179.876 C50.48,179.876 58.886,182.472 60.37,183.955 C60.865,184.449 63.954,184.82 67.169,184.82 C71.867,184.82 73.473,184.325 74.463,182.472 C76.44,178.639 75.946,168.008 73.721,165.783 C71.248,163.311 64.944,163.311 60.247,165.783 C57.898,167.02 53.323,167.761 48.008,167.761 C39.973,167.884 39.231,167.637 36.511,164.3 C34.534,161.703 33.668,159.107 33.668,154.905 C33.668,150.084 34.163,148.724 37.501,146.004 C42.322,141.925 51.222,141.678 58.639,145.262 C66.798,149.218 70.012,148.6 78.047,141.554 C82.003,138.216 85.465,135.373 85.959,135.373 C86.329,135.373 88.803,134.013 91.275,132.283 C96.59,128.697 103.141,128.203 109.941,131.046 C112.289,132.035 115.38,132.901 116.74,132.901 C118.223,132.901 119.707,134.384 120.819,137.104 C122.303,140.565 123.415,141.431 127.247,141.802 C129.843,142.172 133.058,141.802 134.417,141.06 C135.901,140.318 142.576,139.823 150.982,140.07 C166.929,140.318 167.176,140.194 167.176,132.035 C167.176,129.192 167.917,126.473 168.783,125.854 C169.525,125.36 176.571,124.866 184.235,124.866 C195.238,124.866 198.575,124.495 199.687,123.011 C201.294,121.033 213.904,116.584 215.51,117.448 C216.747,118.314 217.859,114.729 217.118,112.504 C216.5,111.021 213.656,110.65 202.531,110.65 C189.675,110.65 188.686,110.526 186.954,107.93 C185.966,106.323 184.853,103.479 184.482,101.378 L183.865,97.669 L173.975,98.164 C168.536,98.288 163.22,99.277 162.231,100.019 C158.77,102.985 149.251,104.592 138.249,104.221 L127.247,103.85 L125.64,99.153 C123.291,92.354 123.291,66.395 125.516,64.045 C126.011,63.674 126.382,55.886 126.382,46.863 C126.382,26.59 128.483,19.666 136.889,11.879 C147.026,2.607 155.68,0.753 189.799,0.629 L215.387,0.629 L215.387,6.934 C215.387,10.396 216.005,14.351 216.747,15.711 C217.736,17.565 217.736,19.048 216.5,21.15 C215.139,23.746 215.263,24.487 217.612,26.96 C221.32,30.916 221.568,45.627 217.859,51.56 C216.129,54.404 215.881,55.886 216.871,57.123 C219.59,60.461 228.491,58.482 229.479,54.403 C230.221,51.684 230.716,51.437 236.649,52.179 C244.561,53.167 246.291,51.189 246.291,41.67 C246.291,33.017 249.011,33.512 250.124,42.536 C250.618,45.997 251.607,49.705 252.472,50.695 C256.181,55.145 263.598,50.818 263.598,44.266 C263.598,39.94 265.699,40.929 266.565,45.626 C267.678,51.437 270.026,53.043 275.836,52.055 C279.915,51.437 280.657,51.684 281.894,54.28 C282.758,56.381 284.613,57.37 288.445,57.989 C295.492,59.101 296.727,57.494 293.389,51.931 C291.412,48.47 290.794,45.379 290.794,38.21 C290.794,30.051 291.165,28.567 293.513,26.59 C296.11,24.611 296.11,24.117 294.502,21.027 C293.143,18.431 293.019,17.318 294.255,15.464 C295.121,14.104 295.739,10.272 295.739,7.058 L295.739,1 L310.449,0.258 L316.455,0.035 z M155.264,205.474 C153.743,205.725 154.374,205.517 153.331,205.959 C151.971,206.7 147.767,207.071 143.936,206.948 C137.507,206.577 136.889,206.824 136.519,209.297 C136.272,210.78 135.035,212.634 133.676,213.252 C131.574,214.365 131.326,215.972 131.326,225.491 C131.326,234.514 130.955,236.988 128.854,239.46 C126.876,242.056 126.629,243.168 127.866,246.258 C128.978,249.101 128.73,250.709 127,254.541 C125.146,258.497 125.023,259.61 126.382,262.206 C127.618,264.554 127.742,266.161 126.629,269.746 C125.516,273.579 125.516,274.691 127.124,276.422 C128.607,278.152 128.854,280.006 128.236,284.704 C127.618,289.401 127.866,291.008 129.349,292.245 C131.697,294.222 131.945,299.909 129.967,301.886 C128.854,302.999 128.978,304.112 130.585,306.461 C131.697,308.191 132.563,311.034 132.563,312.889 C132.563,319.069 138.991,333.162 143.936,337.613 C148.633,341.815 152.713,342.928 154.196,340.579 C154.567,339.961 156.297,339.343 158.028,339.343 C161.984,339.343 161.984,335.388 158.028,332.791 C156.421,331.679 154.814,329.083 154.319,326.734 C153.948,324.508 151.847,320.677 149.87,318.081 C146.408,313.877 146.284,313.135 147.274,308.191 C148.015,305.224 149.128,299.785 149.993,296.077 C150.734,292.368 152.218,286.558 153.331,283.22 C155.061,277.781 155.803,276.915 161.737,274.196 L168.165,271.229 L168.659,252.439 C169.03,235.256 168.783,233.031 166.311,226.356 C164.703,222.277 163.467,216.838 163.467,214.242 C163.467,210.286 162.849,209.174 159.511,207.071 C158.176,206.331 156.834,205.553 155.264,205.474 z M355.067,205.34 L354.313,205.49 C351.201,206.501 349.724,209.637 348.895,212.51 C348.153,215.354 346.546,220.916 345.186,224.996 C342.961,231.425 342.714,235.133 342.961,251.574 L343.332,270.735 L348.647,273.455 C355.569,276.915 357.177,278.276 357.918,281.613 C358.165,283.097 359.897,290.761 361.751,298.549 L364.965,312.642 L361.256,317.834 C359.031,320.924 357.548,324.632 357.548,326.858 C357.548,329.824 356.682,331.06 353.839,332.543 C350.254,334.398 349.142,336.747 350.996,338.477 C351.367,338.972 354.952,339.343 358.784,339.343 C364.965,339.343 366.078,338.972 369.538,335.388 C371.641,333.162 373.989,329.083 374.854,326.363 C375.719,323.644 376.832,320.924 377.451,320.306 C378.068,319.564 378.563,316.844 378.563,314.001 C378.563,311.158 379.305,307.82 380.293,306.584 C381.282,305.1 381.653,302.381 381.282,298.919 C380.911,295.706 381.282,292.863 382.272,291.75 C383.384,290.514 383.631,287.917 383.014,284.086 C382.395,279.635 382.766,277.781 384.373,276.051 C385.979,274.196 386.103,273.208 384.991,270.612 C383.136,266.655 383.136,263.318 384.991,260.227 C386.227,258.249 386.227,257.26 384.991,255.282 C383.136,252.316 383.014,248.484 384.744,245.393 C385.609,243.786 385.238,241.685 383.507,237.728 C381.777,234.021 381.035,229.693 381.035,223.142 C381.035,217.95 380.54,213.252 379.923,212.634 C379.305,211.893 378.563,210.038 378.315,208.308 C378.068,205.836 377.327,205.341 374.854,205.588 C373.124,205.836 369.415,206.33 366.695,206.7 C363.852,206.948 360.391,206.7 359.031,205.959 L357.414,205.358 C356.111,205.348 356.893,205.354 355.067,205.34 z M292.336,283.123 C291.884,283.161 291.42,283.122 290.982,283.236 C287.876,284.044 290.284,287.576 292.03,288.412 C293.389,289.278 294.502,290.884 294.502,292.121 C294.502,293.358 294.873,294.84 295.368,295.211 C297.964,297.931 299.942,294.717 298.953,289.401 C298.459,286.682 297.098,284.828 294.997,283.839 C293.495,283.261 294.371,283.537 292.336,283.123 z M220.332,282.478 C219.59,282.478 217.612,283.344 216.005,284.457 C213.533,286.063 212.914,287.547 212.914,291.379 C212.914,296.694 215.634,297.56 216.376,292.492 C216.623,291.008 217.859,289.154 219.219,288.288 C221.691,286.805 222.433,282.478 220.332,282.478 z" fill="#000000"/>
  </g>
</svg>
