<?xml version="1.0" encoding="UTF-8"?>
<!DOCTYPE svg PUBLIC "-//W3C//DTD SVG 1.1//EN" "http://www.w3.org/Graphics/SVG/1.1/DTD/svg11.dtd">
<svg version="1.1" xmlns="http://www.w3.org/2000/svg" xmlns:xlink="http://www.w3.org/1999/xlink" x="0" y="0" width="500" height="500" viewBox="0, 0, 500, 500">
  <g id="layer102">
    <path d="M73.88,105.101 C72.309,105.15 70.725,105.136 69.164,105.363 C64.061,106.359 61.82,110.218 61.073,119.803 L60.451,127.894 L47.008,128.268 C33.937,128.641 33.564,128.641 32.444,131.753 C31.075,135.114 30.825,159.761 31.945,164.117 C32.942,168.1 41.033,170.217 48.501,168.349 C52.609,167.354 55.347,167.354 57.837,168.225 C59.705,168.972 63.19,169.594 65.555,169.594 C70.534,169.594 70.907,171.212 67.173,177.561 C64.31,182.415 61.82,183.163 58.335,179.926 C56.219,178.058 55.97,178.058 53.854,179.926 C50.742,182.789 44.643,182.54 39.29,179.428 L34.933,176.814 L29.58,179.303 C25.224,181.295 10.785,186.399 5.557,187.644 C3.44,188.266 2.569,196.482 4.063,200.838 C6.055,206.688 4.81,221.75 2.071,223.867 C-0.668,225.858 0.329,229.343 3.565,229.343 C7.175,229.343 8.17,231.086 13.025,246.024 C16.386,256.231 17.133,260.089 16.137,261.832 C15.515,263.201 14.519,264.197 13.896,264.197 C11.283,264.197 10.038,271.666 10.038,287.848 C10.038,302.163 9.665,305.275 8.295,305.275 C7.299,305.275 5.307,306.645 3.938,308.387 C1.697,311.374 1.574,311.873 3.565,315.109 C5.432,318.345 5.307,318.843 2.818,322.951 C-1.041,329.175 -0.916,342.494 3.067,342.619 C5.183,342.743 9.166,346.602 12.278,351.58 C13.896,354.07 17.008,357.307 19.249,358.801 C23.73,361.415 37.05,371.746 42.526,376.725 C51.737,384.941 61.323,390.044 73.272,393.156 C78.749,394.65 109.371,394.899 250.156,394.899 L420.441,394.899 L427.412,391.164 C431.146,389.173 437.868,385.314 442.1,382.576 C451.561,376.725 466.996,367.016 473.095,363.033 C475.461,361.539 480.564,358.801 484.423,357.058 C488.282,355.315 493.137,351.954 495.128,349.714 C498.365,345.979 498.986,344.237 499.609,334.776 C500.107,328.926 500.107,323.075 499.733,321.83 C499.36,320.586 496.123,316.976 492.514,313.739 L486.166,307.889 L485.543,296.312 L484.921,284.861 L478.074,280.38 C474.34,277.89 467.992,273.782 464.009,271.292 L456.913,266.687 L456.913,246.77 L448.2,246.77 C439.86,246.77 439.362,246.646 438.117,243.409 C436.748,239.799 430.524,228.97 423.802,218.514 C421.437,215.029 419.57,211.792 419.57,211.294 C419.57,209.054 415.711,207.311 409.612,206.564 C386.583,204.075 381.479,202.955 376.999,199.967 C374.384,198.349 371.895,196.979 371.273,196.979 C370.65,196.979 368.658,195.237 366.542,193.12 L362.932,189.262 L340.277,189.759 C320.486,190.133 317.373,190.506 316.005,192.374 C314.51,194.365 311.897,194.49 289.49,194.241 L264.595,193.867 L264.595,187.644 L285.134,186.896 C296.461,186.399 307.914,185.528 310.652,184.656 C313.888,183.785 335.299,183.286 373.513,183.286 C405.379,183.286 432.017,182.789 432.764,182.291 C434.632,181.171 439.487,169.967 439.487,166.98 C439.487,165.237 438.615,164.615 436.374,164.615 C434.756,164.615 431.396,162.872 429.031,160.881 C424.923,157.146 424.3,157.022 414.964,157.395 L405.255,157.769 L404.633,161.503 C404.01,165.113 403.761,165.237 395.297,166.234 C390.442,166.731 377.869,166.98 367.289,166.856 L347.995,166.482 L347.995,159.014 L330.195,158.391 C317,157.893 312.145,157.271 311.399,156.026 C310.527,154.781 308.287,154.533 301.814,155.155 C297.084,155.653 292.478,155.404 291.482,154.781 C290.486,154.159 289.366,151.545 288.993,148.931 C288.245,144.45 287.872,144.076 283.889,143.703 C281.524,143.454 278.91,142.707 278.163,142.084 C277.416,141.462 266.213,140.715 253.267,140.342 L229.741,139.719 L221.526,135.363 C209.452,129.015 205.468,129.636 205.468,137.852 C205.468,139.471 204.97,141.089 204.347,141.587 C203.725,141.96 198.995,141.214 194.016,139.844 C189.037,138.474 181.817,137.106 178.082,136.608 C174.349,136.109 170.241,135.487 169.121,135.238 C167.004,134.616 163.145,123.911 163.145,118.932 C163.145,114.575 160.158,112.334 150.076,109.596 C142.482,107.604 135.76,106.858 122.068,106.484 C112.11,106.359 97.048,105.861 88.458,105.363 C83.603,105.116 78.741,105.101 73.88,105.101 z M294.773,368.968 C300.264,369.11 306.966,368.847 311.274,372.867 C314.884,376.725 314.386,384.941 310.527,384.941 C309.532,384.941 308.785,385.563 308.785,386.186 C308.785,386.933 306.295,387.431 303.183,387.431 C297.831,387.431 297.457,387.181 295.59,382.451 C292.976,376.103 288.619,375.48 285.383,381.207 C281.773,387.555 273.308,388.053 270.445,381.953 C269.076,379.215 268.951,377.845 270.196,375.73 C272.561,371.124 276.544,369.63 287.623,369.132 C291.706,368.978 289.324,369.049 294.773,368.968 z M374.509,367.514 C389.57,367.514 389.82,367.514 391.189,370.626 C392.433,373.364 392.185,374.235 389.322,377.223 C387.455,379.215 385.961,381.829 385.961,383.198 C385.961,384.692 385.587,386.186 385.089,386.559 C384.716,387.057 382.227,387.431 379.612,387.431 C375.878,387.431 374.384,386.683 372.268,383.696 C368.658,378.717 364.427,378.717 362.31,383.821 C360.941,387.057 360.194,387.555 356.833,387.181 C353.597,386.933 352.849,386.186 352.601,383.323 C352.103,379.463 355.464,369.879 357.704,368.51 C358.576,368.012 366.045,367.514 374.509,367.514 z M123.235,369.72 C126.699,369.732 130.013,369.678 133.461,369.908 C137.206,370.157 141.975,370.304 141.984,375.107 C141.984,376.725 140.864,377.472 138.001,377.721 C135.512,377.97 133.52,379.09 132.648,380.584 C132.026,381.953 130.905,383.821 130.408,384.691 C129.661,385.688 127.296,386.186 123.561,385.936 C118.333,385.563 117.836,385.314 116.84,381.58 C115.968,378.095 115.221,377.472 111.985,377.472 C109.62,377.472 108.002,378.219 107.504,379.713 C106.01,383.821 103.022,386.186 99.164,386.186 C93.064,386.186 91.321,384.568 93.438,380.708 C94.309,378.966 96.549,375.854 98.292,373.862 L101.529,370.128 L119.828,369.754 L123.235,369.72 z M190.78,365.896 L208.953,366.643 C229.119,367.514 230.364,368.136 230.364,375.48 C230.364,379.962 229.492,381.58 226.007,383.447 C223.144,384.941 219.908,383.571 217.916,379.962 C216.048,376.6 209.7,376.6 207.957,379.962 C206.962,381.953 205.344,382.451 200.489,382.451 C195.634,382.451 194.016,381.953 193.02,379.962 C192.273,378.592 190.655,377.472 189.41,377.472 C188.165,377.472 186.174,378.592 184.929,379.962 C182.689,382.451 175.593,383.447 175.593,381.455 C175.593,380.833 178.954,377.099 183.187,373.115 L190.78,365.896 z M50.617,365.024 C52.111,365.024 53.854,369.381 52.609,370.501 C51.364,371.871 49.995,371.249 48.751,368.883 C47.381,366.394 48.128,365.024 50.617,365.024 z M451.659,357.966 C453.452,358.348 453.479,358.67 454.673,360.045 C455.917,361.539 456.913,363.158 456.913,363.655 C456.913,365.273 451.436,369.754 448.822,370.252 C445.337,370.999 441.976,369.132 441.976,366.394 C441.976,364.029 444.092,361.913 449.32,358.925 C450.69,358.214 449.919,358.554 451.659,357.966 z M35.118,355.678 L35.556,355.813 C36.551,356.311 37.423,357.307 37.423,358.303 C37.423,359.298 36.551,360.045 35.556,360.045 C34.56,360.045 33.688,358.925 33.688,357.556 C33.74,356.555 33.894,355.578 35.118,355.678 z" fill="#000000"/>
  </g>
</svg>
