<?xml version="1.0" encoding="UTF-8"?>
<!DOCTYPE svg PUBLIC "-//W3C//DTD SVG 1.1//EN" "http://www.w3.org/Graphics/SVG/1.1/DTD/svg11.dtd">
<svg version="1.1" xmlns="http://www.w3.org/2000/svg" xmlns:xlink="http://www.w3.org/1999/xlink" x="0" y="0" width="500" height="500" viewBox="0, 0, 500, 500">
  <g id="layer101">
    <path d="M156.045,342.861 C155.883,342.373 155.72,339.768 155.72,337.055 C155.666,332.28 154.743,326.8 153.929,326.908 C153.712,326.908 153.332,326.908 153.007,326.908 C152.736,326.908 152.301,327.56 152.139,328.373 C151.759,329.838 151.759,329.838 150.999,327.722 C149.046,322.351 148.612,319.746 149.263,317.793 C149.697,316.436 149.806,313.126 149.534,306.615 C149.154,298.53 148.992,297.174 148.069,296.197 C147.472,295.546 147.038,294.298 147.038,293.213 C147.038,290.988 146.604,290.283 144.976,289.795 C142.643,289.035 140.636,289.903 139.984,291.965 C139.496,293.43 138.791,294.135 137.054,294.895 C135.861,295.383 134.341,296.36 133.799,297.011 C132.822,298.042 132.659,298.096 131.52,297.337 C129.675,296.143 129.024,296.306 127.342,298.422 L125.823,300.321 L119.583,300.321 C113.506,300.321 113.289,300.375 111.986,301.786 L110.684,303.197 L108.459,302.003 L106.235,300.755 L104.553,302.6 L102.816,304.445 L92.778,305.204 C87.244,305.584 76.88,305.856 69.718,305.801 C57.943,305.693 56.641,305.584 55.881,304.662 C55.339,304.011 53.928,303.577 51.541,303.36 C49.587,303.143 46.44,302.708 44.487,302.437 C42.533,302.112 38.193,301.732 34.828,301.515 L28.643,301.135 L27.015,299.236 C26.147,298.205 24.302,296.143 22.946,294.678 C21.589,293.159 20.233,291.151 19.961,290.12 C19.69,289.089 18.279,287.19 16.76,285.671 C15.295,284.26 14.101,282.795 14.101,282.469 C14.101,281.33 9.815,275.47 7.915,274.005 C6.667,273.028 6.016,272.052 5.799,270.641 C5.582,269.556 4.768,267.982 3.954,267.114 C2.707,265.812 2.435,264.998 2.164,261.091 C2.001,258.649 1.567,256.045 1.133,255.394 C0.59,254.363 0.59,253.766 1.079,252.572 C1.621,251.27 1.567,250.727 0.753,249.317 C-0.224,247.689 -0.224,247.58 0.699,246.007 C1.838,243.999 1.838,243.131 0.807,242.263 C-0.386,241.286 -0.224,238.302 1.079,237.108 C2.381,235.969 2.435,234.775 1.35,233.364 C0.319,232.008 0.319,230.163 1.35,228.155 C2.11,226.69 2.11,226.365 1.296,224.791 C0.536,223.326 0.482,221.861 0.753,214.373 C1.187,202.87 1.513,200.103 2.761,198.095 C3.954,196.196 4.063,194.026 3.195,191.53 C2.544,189.739 2.924,183.445 3.737,182.088 C4.117,181.491 4.606,181.491 6.505,182.088 C10.628,183.445 11.442,186.375 9.76,193.7 C9.163,196.467 9.598,200.32 10.954,204.009 C11.334,204.932 11.659,207.699 11.822,210.249 C11.931,212.8 12.311,215.187 12.636,215.567 C13.07,216.109 15.078,216.272 20.558,216.272 C24.628,216.272 30.976,216.272 34.72,216.326 C38.464,216.326 44.487,216.272 48.122,216.164 L54.796,215.892 L55.61,218.008 C56.207,219.419 56.315,220.939 56.098,223 C55.827,225.008 55.936,225.985 56.315,225.985 C57.129,225.985 57.618,224.14 57.238,222.566 C56.804,220.884 57.455,219.582 59.191,218.768 C60.331,218.171 60.548,217.629 60.819,214.047 C61.036,211.823 61.47,209.273 61.85,208.35 C62.447,206.777 62.501,206.777 63.261,207.808 C64.454,209.435 65.106,208.025 65.106,203.684 C65.106,200.917 65.377,199.777 66.191,198.692 C66.788,197.932 67.276,196.956 67.276,196.521 C67.276,195.002 67.981,193.917 69.121,193.429 C70.315,192.995 71.617,189.902 71.617,187.623 C71.617,186.266 72.865,185.127 74.058,185.398 C74.547,185.507 75.524,186.809 76.175,188.382 C76.826,189.902 77.802,191.692 78.399,192.343 C78.996,192.995 79.484,194.405 79.539,195.925 C79.647,197.769 80.136,198.855 81.329,200.265 C82.252,201.296 83.011,202.436 83.011,202.816 C83.011,203.195 83.608,204.606 84.368,206.017 C85.128,207.428 85.724,208.947 85.724,209.381 C85.724,210.521 86.864,211.063 87.406,210.195 C87.678,209.761 87.895,208.621 87.895,207.645 C87.895,206.668 88.22,205.312 88.546,204.66 C88.926,204.009 89.36,201.513 89.523,199.18 C89.74,195.87 90.011,194.785 90.771,194.297 C91.422,193.863 91.964,193.863 92.67,194.297 C93.375,194.785 93.646,195.925 93.863,199.994 C94.08,203.847 94.297,205.095 94.894,205.095 C95.871,205.095 97.77,199.56 97.39,197.607 C97.228,196.684 97.716,194.731 98.584,192.561 C99.724,189.902 100.375,188.979 101.351,188.708 C103.088,188.274 104.39,189.088 104.607,190.716 C104.932,192.615 111.064,198.529 112.203,197.987 C113.071,197.552 114.319,197.552 118.28,197.878 L120.18,198.041 L120.342,194.785 C120.559,191.095 121.482,189.63 123.761,189.63 C125.28,189.63 125.714,189.956 127.233,192.072 C128.481,193.863 129.892,192.506 130.272,189.034 C130.489,187.406 131.032,185.018 131.574,183.662 C133.148,179.647 133.202,177.476 131.845,176.174 C130.76,175.197 130.706,174.655 130.869,169.771 C130.977,166.787 131.357,163.694 131.737,162.772 C132.062,161.904 132.497,160.221 132.659,159.136 C133.039,156.64 134.613,155.555 135.861,156.857 C136.566,157.508 136.729,158.974 136.729,163.857 C136.729,167.547 136.946,170.151 137.271,170.368 C138.194,170.911 139.442,169.554 139.442,167.981 C139.442,167.221 140.202,165.376 141.07,163.857 L142.643,161.198 L143.294,162.772 C143.62,163.694 144.054,165.485 144.162,166.841 C144.325,168.198 144.705,169.608 145.031,169.988 C145.845,170.965 147.418,170.748 148.286,169.5 L149.1,168.415 L149.968,169.663 C150.457,170.368 150.836,171.942 150.836,173.352 C150.836,175.36 150.565,176.174 149.48,177.151 C147.798,178.724 147.798,180.135 149.371,183.174 C150.945,186.104 152.519,186.538 154.58,184.53 C155.557,183.608 156.425,183.228 156.968,183.445 C157.51,183.608 157.89,183.499 157.89,183.174 C157.89,182.848 158.487,182.251 159.247,181.926 C160.386,181.437 160.766,181.491 161.688,182.305 C162.285,182.848 162.774,183.716 162.774,184.259 C162.774,184.801 164.076,186.809 165.649,188.708 C168.091,191.53 168.634,192.561 168.851,194.785 C169.068,196.684 169.502,197.715 170.316,198.258 C170.967,198.638 171.455,199.289 171.455,199.723 C171.455,200.103 172.106,200.482 172.975,200.591 C174.44,200.754 174.44,200.754 174.44,205.04 C174.44,210.466 174.874,210.792 179.594,209.381 C183.013,208.35 183.501,207.916 184.152,204.769 C184.315,204.009 185.346,202.761 186.485,201.947 C188.384,200.591 188.547,200.537 189.524,201.459 C190.935,202.707 192.074,205.04 192.074,206.614 C192.074,208.35 193.051,209.164 195.221,209.164 C196.74,209.164 197.12,209.435 197.826,211.063 C198.26,212.148 199.182,213.234 199.942,213.505 C201.461,214.102 202.384,215.567 202.384,217.466 C202.384,218.226 203.414,220.83 204.717,223.326 C206.887,227.504 207.267,227.938 209.383,228.698 C211.879,229.566 211.988,229.512 214.158,226.202 C214.809,225.225 214.863,225.225 216.111,226.582 C216.817,227.395 217.902,228.318 218.553,228.643 C220.072,229.457 239.063,229.295 239.769,228.481 C240.04,228.155 240.42,227.233 240.637,226.419 C240.854,225.605 242.102,223.977 243.404,222.729 C246.117,220.233 248.071,219.962 249.97,221.752 C251.652,223.326 254.636,224.465 258,224.737 C261.039,225.062 262.07,225.659 262.07,227.124 C262.07,227.667 262.395,228.264 262.775,228.535 C263.318,228.915 278.185,229.783 283.936,229.783 C286.27,229.783 289.471,231.248 291.099,233.039 C292.564,234.666 294.517,235.372 296.525,234.992 C297.881,234.721 298.315,234.232 299.129,232.062 C299.78,230.326 300.974,228.752 302.873,227.124 L305.695,224.737 L307.322,226.69 C309.113,228.806 312.64,230.326 315.787,230.326 C318.229,230.326 318.988,230.868 319.531,232.821 C320.019,234.721 321.105,234.938 330.763,235.372 C334.398,235.534 337.817,235.86 338.359,236.186 C341.832,237.922 346.39,238.899 346.932,237.976 C347.583,236.999 349.266,237.325 350.948,238.736 C352.25,239.821 353.172,240.092 355.505,240.092 C358.815,240.092 359.738,239.495 359.738,237.217 C359.738,235.317 361.745,231.791 362.559,232.279 C363.373,232.767 364.621,236.023 364.621,237.596 C364.621,239.767 365.978,240.635 369.287,240.635 C372.218,240.635 372.218,240.635 375.799,236.837 C379.597,232.876 381.116,232.225 382.69,234.015 C383.124,234.504 383.721,235.697 383.938,236.565 C384.155,237.488 384.535,238.465 384.806,238.844 C385.457,239.658 393.867,239.713 394.844,238.953 C395.332,238.519 395.549,236.999 395.549,234.341 C395.549,231.465 395.766,230.163 396.418,229.566 C398.045,227.938 399.565,228.806 400.379,231.791 C400.975,234.069 402.386,234.015 403.363,231.736 C404.774,228.372 407.921,228.426 411.882,231.899 C414.215,233.907 414.378,233.961 415.843,233.201 C417.145,232.496 417.47,232.496 418.61,233.256 C420.075,234.232 420.4,233.961 421.323,231.139 C422.3,228.155 425.392,228.969 425.392,232.17 C425.392,234.829 426.695,236.294 429.136,236.294 C430.222,236.294 431.632,235.914 432.229,235.48 C433.531,234.504 436.136,234.504 437.872,235.48 C438.74,235.969 440.857,236.24 443.732,236.294 C449.267,236.294 450.569,236.837 455.941,241.395 L460.173,244.976 L468.204,244.976 C474.064,244.976 476.777,245.193 478.187,245.79 C479.707,246.386 480.466,246.441 481.823,246.007 C482.854,245.627 484.427,245.573 485.784,245.79 C487.032,246.007 490.776,246.386 494.031,246.549 L500,246.875 L499.891,248.448 C499.674,251.704 499.349,251.758 485.187,251.812 C476.668,251.867 471.785,252.084 470.754,252.518 C469.831,252.898 468.204,253.006 466.793,252.789 C464.46,252.464 461.747,253.495 461.747,254.743 C461.747,255.773 463.917,257.456 465.274,257.456 C467.444,257.456 466.847,258.486 464.405,258.866 C462.723,259.138 462.072,259.572 461.692,260.603 C460.661,263.37 461.313,263.478 477.428,263.641 C486.869,263.75 492.404,264.021 492.729,264.347 C493.814,265.432 492.946,266.897 490.45,268.47 C487.954,269.99 487.954,269.99 485.947,269.013 C484.319,268.253 483.722,268.199 482.908,268.742 C482.148,269.176 478.459,269.393 470.862,269.393 C462.343,269.447 459.522,269.61 458.491,270.207 C457.731,270.641 455.995,270.966 454.584,271.021 C449.972,271.021 447.639,272.811 450.515,274.113 C451.709,274.656 451.057,274.873 444.058,276.23 C443.461,276.338 441.67,277.423 440.205,278.617 C438.686,279.811 437.113,280.787 436.678,280.787 C436.299,280.787 434.834,281.71 433.477,282.849 C432.121,283.934 429.95,285.345 428.702,285.888 C426.478,286.919 426.423,286.919 423.602,285.779 C422.028,285.128 420.455,284.586 420.129,284.586 C419.749,284.586 418.827,283.772 418.067,282.741 C415.246,279.051 412.207,279.051 406.998,282.741 L404.611,284.423 L402.332,282.904 C401.084,282.035 399.727,280.95 399.348,280.462 C398.751,279.811 397.665,279.648 394.518,279.702 C389.038,279.865 389.255,279.919 388.55,278.129 C387.899,276.664 386,275.361 384.426,275.361 C383.992,275.361 383.287,276.175 382.853,277.206 C382.418,278.237 381.605,279.322 381.062,279.594 C380.465,279.919 376.07,279.973 370.047,279.811 C360.769,279.539 355.071,279.539 348.506,279.756 C347.041,279.811 340.638,279.811 334.235,279.756 C327.833,279.702 321.376,279.756 319.857,279.811 C317.252,279.919 308.679,279.811 305.206,279.648 C304.338,279.594 301.517,279.539 298.966,279.594 C296.416,279.594 290.068,279.594 284.859,279.594 C279.65,279.539 273.41,279.539 271.023,279.594 C266.519,279.594 248.45,279.594 240.366,279.594 C237.815,279.539 234.94,279.756 234.017,279.973 C229.785,280.95 227.886,279.268 227.886,274.602 C227.886,272.703 227.614,270.966 227.235,270.586 C226.855,270.207 224.956,269.935 222.514,269.935 C218.662,269.935 218.336,270.044 216.654,271.672 L214.863,273.408 L213.453,272.052 C212.693,271.346 210.088,268.362 207.701,265.486 C202.818,259.517 201.678,258.975 199.671,261.796 C198.531,263.37 198.368,263.424 194.136,263.424 L189.741,263.424 L187.354,265.757 L185.02,268.036 L185.02,274.602 L185.02,281.167 L183.284,283.338 C182.307,284.531 180.354,286.865 178.997,288.438 C176.719,291.097 176.447,291.694 176.122,295.004 C175.85,297.717 176.013,299.127 176.664,300.809 C177.153,302.057 177.749,303.034 178.021,303.034 C179.16,303.034 180.68,305.313 180.68,307.049 C180.68,309.111 177.912,312.964 173.409,316.979 C170.75,319.366 170.587,319.855 171.455,321.537 C172.269,323.002 170.858,327.668 169.556,327.885 C168.091,328.211 167.603,326.908 167.983,323.544 C168.362,319.855 167.928,318.227 166.518,318.227 C165.487,318.227 165.432,318.335 165.215,321.211 C164.836,325.878 163.967,330.327 163.262,330.761 C162.34,331.303 161.146,329.947 161.146,328.319 C161.092,327.668 160.603,328.373 160.061,329.893 C159.301,331.792 158.975,333.908 158.975,337.109 C158.975,339.605 158.704,342.101 158.433,342.698 C157.728,343.946 156.48,344.055 156.045,342.861 z" fill="#000000"/>
  </g>
</svg>
