<?xml version="1.0" encoding="UTF-8"?>
<!DOCTYPE svg PUBLIC "-//W3C//DTD SVG 1.1//EN" "http://www.w3.org/Graphics/SVG/1.1/DTD/svg11.dtd">
<svg version="1.1" xmlns="http://www.w3.org/2000/svg" xmlns:xlink="http://www.w3.org/1999/xlink" x="0" y="0" width="500" height="500" viewBox="0, 0, 500, 500">
  <g id="layer101">
    <path d="M225.382,395.549 C224.294,395.307 222.482,394.28 221.274,393.193 C218.797,391.079 218.978,391.079 216.441,392.045 C214.689,392.649 214.266,392.528 212.273,391.018 C210.34,389.568 210.098,389.085 210.4,387.635 C210.702,386.185 210.46,385.581 208.829,384.071 C206.594,382.078 205.93,381.957 203.03,382.984 C201.278,383.648 200.916,383.588 199.587,382.319 C198.741,381.534 197.895,380.145 197.714,379.238 C197.472,378.151 196.023,376.641 193.425,374.647 C187.142,369.935 186.538,369.633 184.424,369.996 C183.276,370.177 181.766,369.935 180.618,369.331 C179.048,368.486 178.685,367.942 178.685,366.311 C178.685,363.411 175.181,361.116 170.651,361.116 C167.147,361.116 165.999,360.391 165.999,358.276 C165.999,357.189 164.972,356.223 161.65,354.108 C159.233,352.538 156.696,350.604 155.971,349.819 C155.065,348.611 154.401,348.369 153.374,348.732 C151.199,349.396 147.272,346.497 147.272,344.201 C147.272,342.993 146.85,342.208 145.943,341.724 C145.158,341.362 143.95,340.516 143.225,339.852 C142.258,338.945 141.352,338.704 139.902,338.945 C137.244,339.308 136.036,338.583 135.553,336.227 C135.251,334.536 134.345,333.69 130.237,330.971 C126.069,328.253 125.163,327.83 124.196,328.434 C123.23,329.038 122.686,328.797 120.572,326.984 C117.611,324.508 116.887,324.387 115.618,326.199 C115.074,326.924 114.651,327.226 114.651,326.803 C114.651,326.38 114.047,325.837 113.322,325.535 C112.175,325.112 112.477,324.931 115.256,324.508 C118.94,323.904 119.786,322.635 117.914,320.581 C116.645,319.192 115.678,319.131 113.685,320.46 C112.175,321.427 112.054,321.427 111.51,320.46 C111.208,319.856 109.879,318.89 108.55,318.225 C107.281,317.561 106.134,316.654 106.134,316.232 C106.073,315.869 106.013,314.661 105.952,313.634 C105.892,312.124 105.228,311.218 102.69,309.224 C99.005,306.264 96.951,306.083 96.649,308.68 C96.529,309.768 96.77,310.372 97.556,310.614 C98.16,310.855 99.549,311.761 100.576,312.667 C102.328,314.117 102.509,314.48 102.026,316.111 L101.482,317.923 L101.422,315.99 C101.361,313.453 98.462,310.976 95.441,310.916 C93.508,310.916 93.387,310.855 94.596,310.372 C96.589,309.526 96.227,307.774 93.689,306.083 C91.575,304.693 91.394,304.391 91.575,302.156 C91.756,300.042 91.515,299.438 90.125,298.35 C88.132,296.78 87.83,296.78 86.259,298.411 L85.051,299.74 L82.03,296.78 C79.614,294.363 79.131,293.578 79.372,292.249 C79.674,290.92 79.252,290.376 76.292,288.141 C74.419,286.752 72.607,285.604 72.305,285.604 C71.942,285.604 71.761,284.456 71.882,282.765 C72.063,279.986 72.002,279.865 69.405,278.113 C67.23,276.664 66.324,275.455 64.512,271.468 C63.304,268.75 62.095,265.85 61.854,264.944 C61.612,263.857 60.041,262.286 56.779,259.93 C48.805,254.191 48.262,253.648 46.329,249.781 C44.698,246.58 44.456,245.492 44.516,241.868 C44.577,238.908 44.335,237.337 43.61,236.25 C43.066,235.404 42.462,232.927 42.281,230.753 L41.858,226.766 L38.234,223.805 C30.924,217.885 26.756,215.409 23.615,215.046 C21.44,214.865 20.171,214.261 18.48,212.751 C17.211,211.603 15.037,210.153 13.647,209.489 C8.814,207.133 7.123,205.079 7.123,201.273 C7.123,199.4 6.64,198.494 4.103,195.836 C1.082,192.634 0.357,190.52 1.807,189.07 C2.774,188.104 5.009,188.164 7.183,189.251 C10.083,190.762 10.385,189.674 7.908,186.956 C6.64,185.566 5.25,183.452 4.827,182.304 C4.405,181.157 3.076,178.257 1.867,175.901 C0.357,172.941 -0.187,171.189 0.055,170.162 C0.72,167.565 6.821,159.107 9.358,157.355 L11.774,155.603 L15.641,156.63 C17.755,157.235 20.715,157.899 22.225,158.141 C23.736,158.443 25.971,159.107 27.179,159.651 C28.387,160.255 29.837,160.557 30.381,160.315 C31.287,160.013 31.226,159.711 29.837,158.08 C28.025,155.966 27.662,152.281 29.172,151.737 C29.656,151.496 32.193,152.221 34.79,153.248 C38.777,154.818 39.925,155.06 43.066,154.697 C46.449,154.395 46.933,154.516 49.47,156.268 C50.98,157.295 52.551,158.503 52.913,158.926 C53.336,159.409 54.665,160.255 55.934,160.799 C57.504,161.524 58.652,162.671 59.679,164.665 C61.008,167.081 62.397,168.289 69.647,173.062 C74.298,176.143 78.587,178.68 79.131,178.68 C80.822,178.68 81.003,176.203 80.037,168.048 C79.312,161.524 78.95,160.255 77.681,158.866 C75.808,156.872 75.325,155.06 75.325,149.925 C75.265,145.092 76.775,140.32 79.252,137.602 C80.339,136.454 82.212,133.917 83.48,132.044 C85.776,128.601 93.025,121.291 94.112,121.291 C94.414,121.291 95.139,120.445 95.622,119.479 C98.281,114.344 104.623,113.982 110.664,118.573 C113.081,120.445 118.457,122.378 123.109,123.164 C124.921,123.466 127.277,123.889 128.364,124.07 C130.599,124.493 135.493,122.378 138.755,119.6 C141.292,117.425 141.05,115.25 138.151,114.042 C134.164,112.35 133.439,108.001 136.761,106.068 C138.271,105.162 138.996,105.101 140.325,105.585 C141.231,105.947 143.889,106.491 146.306,106.793 C150.293,107.397 162.616,111.263 173.248,115.311 C175.725,116.277 178.202,117.062 178.746,117.062 C179.289,117.062 180.799,115.794 182.008,114.163 C185.27,110.055 187.203,108.605 189.257,108.605 C192.338,108.666 201.52,110.78 203.091,111.867 C206.594,114.163 207.984,112.471 204.963,109.511 C202.668,107.216 202.305,105.585 203.755,104.376 C204.54,103.712 205.507,103.833 209.192,104.92 C212.514,105.887 214.508,106.128 216.924,105.826 C220.428,105.403 223.388,106.491 227.617,109.813 C228.764,110.719 230.698,111.928 231.966,112.411 C233.174,112.894 234.322,113.921 234.564,114.586 C234.805,115.311 236.316,116.579 238.067,117.485 C246.706,121.835 260.781,130.111 262.775,131.983 C263.983,133.192 265.856,135.789 266.943,137.843 C269.903,143.461 270.145,143.642 274.555,143.642 C277.817,143.642 278.723,143.884 280.898,145.455 C282.227,146.421 283.858,147.267 284.462,147.267 C285.066,147.267 286.032,147.871 286.636,148.656 C287.724,149.985 290.865,151.073 296.785,152.221 C301.074,153.066 306.572,156.087 309.954,159.59 L312.854,162.49 L316.177,162.067 C318.472,161.826 320.405,161.101 322.157,159.832 C323.728,158.684 325.782,157.899 327.473,157.718 C333.816,156.993 346.2,162.249 350.489,167.504 C351.818,169.075 354.416,171.129 356.772,172.458 C379.425,184.962 410.838,204.475 430.894,218.55 C449.016,231.236 460.253,240.539 476.623,256.366 C482.181,261.742 484.718,263.736 488.403,265.548 C493.84,268.327 499.035,273.341 499.76,276.482 C500.848,281.436 498.129,289.349 493.78,294.001 C490.699,297.263 484.779,300.706 482.181,300.706 C481.517,300.706 475.294,304.573 468.287,309.224 C454.453,318.588 453.245,319.192 441.647,323.239 C435.002,325.595 433.189,325.957 430.773,325.655 C428.538,325.414 427.39,325.595 425.759,326.562 C424.611,327.226 422.618,328.072 421.349,328.495 C419.174,329.159 418.933,329.099 414.583,326.38 C410.657,323.964 409.811,323.662 407.938,324.024 C406.488,324.266 405.159,324.145 404.193,323.602 C402.924,322.937 402.743,322.454 402.985,320.823 C403.287,319.071 403.105,318.708 401.172,317.561 C399.723,316.654 398.212,316.232 396.702,316.352 C393.863,316.473 391.93,314.782 391.93,312.245 C391.93,310.009 391.084,309.405 387.399,309.043 C385.224,308.862 383.291,308.137 380.754,306.506 C377.673,304.512 376.888,304.271 374.834,304.573 C371.753,305.116 369.578,303.787 369.578,301.431 C369.578,298.773 366.799,296.478 363.658,296.599 C360.698,296.719 359.309,295.692 359.309,293.397 C359.309,291.222 357.859,289.833 355.563,289.833 C354.476,289.833 351.516,288.745 348.979,287.416 C345.052,285.423 343.844,285.06 341.971,285.362 C340.099,285.604 339.374,285.423 338.286,284.396 C337.38,283.55 336.957,282.584 337.139,281.919 C337.32,281.194 336.837,280.167 335.689,279.08 C334.179,277.691 325.147,271.03 322.006,271.03 L319.514,272.465 L317.928,273.296 C348.012,294.983 359.913,301.733 362.088,303.123 C365.954,305.6 366.075,305.66 365.833,307.835 C358.161,314.178 358.282,314.178 354.536,311.882 C352.543,310.674 350.67,309.828 350.308,310.009 C350.006,310.251 349.402,311.338 349.039,312.486 C348.133,314.782 346.804,315.023 344.206,316.473 C342.032,317.742 341.79,317.742 339.132,316.836 C316.237,301.794 311.223,298.169 307.538,295.39 C288.811,281.798 288.026,281.073 287.301,280.711 C284.401,280.711 284.281,280.771 284.824,281.375 C328.742,313.694 331.15,314.515 331.702,316.292 C328.138,320.46 324.755,323.058 323.063,323.058 C322.459,323.058 320.586,322.091 318.835,320.944 C317.083,319.796 315.21,318.829 314.606,318.829 C306.511,326.018 305.182,326.682 304.82,326.682 C303.249,326.743 302.041,326.26 301.678,326.501 C301.316,326.682 301.195,326.682 301.437,326.38 C293.04,319.856 290.623,318.044 287.845,316.232 C285.126,314.419 281.683,312.003 280.173,310.976 L277.454,308.982 L279.871,311.399 C281.2,312.667 283.676,315.265 285.368,317.077 C287.059,318.89 290.563,321.85 293.221,323.662 C300.712,329.582 303.43,332.3 306.753,335.563 C312.733,341.422 312.794,341.483 312.794,344.382 C312.794,346.013 312.25,348.551 311.646,350.121 C310.981,351.692 310.317,353.867 310.136,355.014 C309.471,358.578 306.572,363.532 303.068,366.855 C300.229,369.573 299.262,370.117 296.725,370.479 C292.617,370.962 290.563,372.05 277.213,380.386 C270.749,384.434 264.768,388.119 263.923,388.541 C262.352,389.387 241.632,395.307 239.396,395.609 C238.732,395.67 237.705,395.488 237.04,395.247 C236.436,395.005 234.262,395.066 232.147,395.428 C227.979,396.213 228.1,396.213 225.382,395.549 z" fill="#000000"/>
  </g>
</svg>
