<?xml version="1.0" encoding="UTF-8"?>
<!DOCTYPE svg PUBLIC "-//W3C//DTD SVG 1.1//EN" "http://www.w3.org/Graphics/SVG/1.1/DTD/svg11.dtd">
<svg version="1.1" xmlns="http://www.w3.org/2000/svg" xmlns:xlink="http://www.w3.org/1999/xlink" x="0" y="0" width="500" height="500" viewBox="0, 0, 500, 500">
  <g id="layer102">
    <path d="M414.423,391.518 C408.845,390.206 403.265,387.253 401.953,384.956 C400.641,382.329 396.374,380.361 393.091,380.361 C389.482,380.361 386.528,378.391 386.528,375.767 C386.528,373.14 384.56,370.516 381.934,369.531 C379.31,368.546 374.059,360.998 370.447,352.794 C366.838,344.59 362.573,337.698 360.932,337.698 C359.62,337.698 354.04,342.293 348.789,347.543 C343.539,353.123 336.647,357.388 333.693,357.388 C330.411,357.388 326.802,359.03 325.816,360.671 C324.504,362.639 307.767,363.951 286.436,363.951 C265.104,363.951 248.367,362.639 247.055,360.671 C246.07,359.03 235.24,357.388 223.097,357.388 C201.439,357.388 200.454,357.718 185.358,372.157 C165.994,390.206 148.931,395.786 125.629,391.192 C116.442,389.221 101.017,388.565 90.843,389.221 C75.747,390.533 70.167,389.55 56.057,382.329 C46.541,377.408 35.71,367.89 30.787,360.998 C23.568,350.497 22.256,345.246 22.256,324.9 C22.256,298.644 18.644,288.473 9.455,288.473 C4.534,288.473 2.563,285.19 0.925,272.392 C-1.702,253.357 1.581,223.166 6.831,216.274 C13.394,207.741 26.521,200.849 41.288,198.552 C56.713,196.255 68.199,190.348 68.199,184.768 C68.199,173.282 96.423,164.422 104.956,172.955 C107.253,175.252 110.206,176.894 111.518,176.894 C115.457,176.894 114.801,161.139 110.862,158.842 C106.924,156.218 106.597,146.044 110.206,138.169 C111.847,135.216 115.128,128.324 117.754,122.744 C123.99,109.946 136.459,103.054 148.275,106.007 C156.805,108.304 157.464,109.29 155.823,121.103 C153.852,137.184 161.4,146.044 168.621,135.872 C171.245,132.589 173.216,127.665 173.216,125.371 C173.216,120.776 189.623,111.258 197.5,111.258 C205.704,111.258 225.068,130.621 229.004,142.434 C232.616,153.592 233.272,153.921 249.023,153.921 C261.822,153.921 268.058,155.889 276.917,162.454 C289.06,171.97 295.296,170.658 288.733,160.157 C283.153,151.623 286.436,146.373 294.64,150.638 C303.829,155.562 304.814,154.906 302.517,145.061 C300.219,136.528 300.219,136.528 314.659,138.825 C322.534,140.137 330.082,142.764 331.067,144.732 C332.379,146.7 339.927,149.326 347.804,150.311 C360.276,151.953 361.914,153.265 362.9,161.139 C363.885,168.687 366.182,170.658 377.669,173.611 C417.049,183.785 446.255,199.208 478.746,227.104 C492.857,239.247 492.857,239.903 486.621,244.497 C483.012,247.451 476.449,252.372 471.855,255.984 L463.651,262.217 L472.511,268.782 C486.95,279.939 498.107,302.256 499.749,324.244 C500.405,335.401 499.749,344.919 498.107,345.902 C496.139,346.887 494.827,350.826 494.827,354.435 C494.827,358.044 492.53,361.656 489.904,362.639 C487.277,363.951 484.982,367.234 484.982,370.187 C484.982,373.469 481.7,377.735 477.432,380.032 C473.496,382.329 465.289,386.597 459.056,389.877 C447.896,395.786 435.098,396.113 414.423,391.518 z" fill="#000000"/>
    <path d="M326.472,291.755 C326.146,280.595 324.831,275.345 321.878,275.345 C318.924,275.345 317.612,280.269 317.612,291.755 C317.612,303.568 318.924,308.163 322.207,308.163 C325.487,308.163 326.472,303.568 326.472,291.755 z" fill="#FAFAFA"/>
    <path d="M317.612,268.782 C317.612,267.141 315.971,265.5 314.33,265.5 C312.362,265.5 311.047,267.141 311.047,268.782 C311.047,270.75 312.362,272.062 314.33,272.062 C315.971,272.062 317.612,270.75 317.612,268.782 z" fill="#FAFAFA"/>
    <path d="M238.849,219.557 C262.807,215.618 266.09,206.429 243.773,206.429 C233.598,206.429 228.348,208.07 227.036,211.35 C223.753,219.557 227.036,221.525 238.849,219.557 z" fill="#FAFAFA"/>
    <path d="M158.12,214.633 C160.088,208.726 148.602,201.178 145.321,206.429 C143.024,210.038 149.258,219.557 153.525,219.557 C154.837,219.557 156.805,217.259 158.12,214.633 z" fill="#FAFAFA"/>
  </g>
</svg>
