<?xml version="1.0" encoding="UTF-8"?>
<!DOCTYPE svg PUBLIC "-//W3C//DTD SVG 1.1//EN" "http://www.w3.org/Graphics/SVG/1.1/DTD/svg11.dtd">
<svg version="1.1" xmlns="http://www.w3.org/2000/svg" xmlns:xlink="http://www.w3.org/1999/xlink" x="0" y="0" width="500" height="500" viewBox="0, 0, 500, 500">
  <g id="layer101">
    <path d="M391.925,432.567 C390.178,431.926 387.79,430.47 386.508,429.188 L384.236,426.974 L384.236,421.906 C384.236,418.877 384.586,415.848 385.11,414.334 C385.634,412.935 385.867,411.13 385.692,410.314 C385.518,409.44 385.634,407.518 385.984,406.062 C386.275,404.547 386.741,402.333 386.916,401.11 C387.498,397.207 390.061,385.207 390.353,384.683 C390.993,383.634 389.479,383.518 387.498,384.45 L385.459,385.44 L385.459,394.819 C385.459,403.149 385.343,404.256 384.411,404.955 C383.013,405.945 377.362,407.576 376.43,407.227 C376.022,407.052 375.09,405.013 374.333,402.683 C373.576,400.295 372.527,397.032 371.945,395.401 C371.42,393.77 370.488,388.702 369.964,384.042 C369.498,379.44 368.799,374.488 368.508,373.032 C368.216,371.576 367.809,368.838 367.634,366.916 C367.459,364.993 366.935,362.255 366.469,360.799 C366.061,359.343 365.537,355.148 365.362,351.479 C365.129,347.809 364.896,342.682 364.721,340.119 C364.547,336.741 364.838,334.061 365.712,330.216 C366.644,326.371 366.935,322.935 366.993,317.4 C367.051,310.061 366.935,309.595 364.838,303.536 C363.265,299.051 362.741,296.721 362.974,295.497 C363.207,294.565 364.78,291.653 366.527,288.973 L369.731,284.196 L369.382,280.468 C369.149,278.371 368.45,275.75 367.867,274.643 C367.284,273.478 366.76,271.847 366.76,270.915 C366.76,268.876 364.43,266.429 362.508,266.429 C361.692,266.429 359.945,266.953 358.605,267.536 C356.566,268.41 355.284,268.584 351.906,268.351 C348.003,268.06 347.653,268.118 346.721,269.4 C346.197,270.157 345.789,271.672 345.789,272.837 C345.731,277.614 341.653,282.74 337.925,282.74 C336.818,282.74 334.546,282.216 332.857,281.517 C327.206,279.303 324.701,278.546 324.235,279.07 C323.828,279.478 321.905,289.264 321.905,290.837 C321.905,291.187 323.944,292.352 326.449,293.517 C331.342,295.789 334.838,298.76 335.944,301.614 C336.352,302.604 338.682,305.517 341.129,308.08 C348.643,315.886 352.954,324.041 355.051,334.41 C356.216,340.119 356.042,342.158 354.294,342.158 C351.731,342.158 351.964,346.469 354.76,350.255 C356.799,352.993 357.731,357.304 356.857,359.867 C355.867,362.896 353.537,364.527 342.702,369.77 C336.643,372.741 333.09,374.78 333.206,375.188 C333.614,376.236 332.391,376.993 317.42,385.498 C315.09,386.838 311.362,389.168 309.031,390.741 L304.895,393.595 L294.876,394.353 C289.4,394.761 283.167,395.11 281.07,395.168 C277.225,395.168 268.08,393.246 266.623,392.081 C266.041,391.615 265.924,390.566 266.157,388.12 C266.623,383.925 266.914,383.226 268.604,382.469 C269.536,382.061 270.876,380.139 272.332,377.285 C273.555,374.78 275.303,372.1 276.177,371.285 C279.264,368.372 279.322,366.683 276.351,365.11 C275.186,364.469 274.138,363.187 273.148,360.915 C271.109,356.255 267.73,346.177 267.147,342.857 C266.914,341.342 266.39,338.605 265.982,336.741 C265.633,334.76 265.283,326.896 265.225,318.391 C265.05,302.08 264.759,299.866 261.846,296.604 C258.934,293.4 258.817,287.633 261.613,285.245 C263.769,283.322 265.05,283.555 267.147,286.235 C270.643,290.662 271.983,290.604 275.07,285.886 C276.584,283.555 277.284,281.75 277.75,278.837 C278.041,276.623 279.089,272.313 280.021,269.225 C282.177,262.235 282.177,262.177 280.72,258.274 C277.75,250.526 277.225,247.031 278.216,242.254 C278.623,240.39 278.973,236.312 279.031,233.225 C279.148,228.215 279.322,227.283 280.837,224.72 C281.711,223.147 283.633,220.526 284.973,218.836 C287.886,215.458 288.002,214.875 286.371,213.885 C285.439,213.302 285.206,212.487 285.206,210.331 C285.206,208.351 285.555,207.011 286.371,206.021 C288.41,203.399 287.42,194.195 285.089,194.195 C284.682,194.195 283.225,195.302 281.885,196.642 C279.555,198.972 279.264,199.089 277.633,198.448 C276.351,197.982 275.419,197.982 274.138,198.448 C272.74,198.972 272.099,198.914 270.759,198.157 C269.361,197.341 269.012,197.341 268.08,198.04 C266.623,199.089 264.759,199.089 263.303,197.982 C262.72,197.516 261.264,197.108 260.157,197.108 C259.05,197.108 257.128,196.584 255.905,195.943 C254.74,195.302 252.992,194.778 252.06,194.778 C249.613,194.778 248.332,193.322 248.798,190.933 C249.206,188.487 248.681,188.195 241.807,187.03 C230.681,185.108 231.497,184.991 229.283,188.836 C228.06,190.817 226.37,191.283 225.205,189.826 C224.215,188.603 223.283,188.72 219.788,190.525 C215.594,192.681 211.05,192.739 206.331,190.525 C201.962,188.487 200.856,188.545 198.933,190.817 L197.36,192.739 L190.778,191.749 C184.836,190.933 183.962,190.933 182.681,191.69 C181.341,192.448 180.292,192.448 172.719,191.341 C168.059,190.642 164.098,190.118 163.865,190.118 C163.69,190.118 163.807,190.933 164.156,191.865 C164.913,194.137 167.943,196.467 171.729,197.691 C175.166,198.797 176.331,200.079 175.341,201.652 C174.409,203.05 169.574,202.817 156.292,200.661 C150.467,199.729 144.641,198.797 143.36,198.623 C139.806,198.157 106.777,193.263 95.884,191.632 C90.583,190.817 79.922,189.244 72.175,188.079 C64.369,186.914 56.155,185.457 53.825,184.817 C51.495,184.176 48.524,183.419 47.301,183.069 C41.242,181.496 28.834,176.195 25.339,173.69 C24.174,172.816 21.669,171.36 19.747,170.428 C16.776,168.855 14.737,167.341 7.63,161.224 C6.698,160.409 4.601,158.894 2.97,157.845 C-0.642,155.457 -0.991,153.651 2.096,153.768 C21.669,154.409 38.504,155.865 55.631,158.37 C60.874,159.185 65.359,159.651 65.65,159.477 C67.165,158.544 64.893,154.001 59.941,148.001 C58.252,145.904 58.136,142.816 59.767,141.185 C60.815,140.137 61.456,140.02 64.602,140.311 C66.699,140.544 69.32,141.302 70.835,142.117 C79.398,146.661 80.621,147.127 89.651,148.525 C94.486,149.282 100.602,150.04 103.107,150.273 C107.709,150.68 108,150.855 110.33,153.651 C111.379,154.991 114.35,154.816 116.796,153.302 C117.961,152.603 119.01,151.787 119.068,151.554 C119.185,151.263 119.709,150.68 120.175,150.156 C120.991,149.399 121.165,149.399 122.214,150.331 C123.146,151.146 123.612,151.205 125.068,150.68 C126.991,149.923 126.816,149.807 129.787,155.108 C131.418,158.02 136.602,158.661 143.942,156.855 C146.156,156.273 148.078,156.506 165.03,159.069 C166.428,159.302 167.011,159.069 167.535,158.137 C168.117,157.03 170.273,155.341 174.467,152.777 C175.282,152.253 178.719,150.972 182.098,149.923 L188.215,148.059 L190.72,149.69 C192.176,150.622 193.632,152.195 194.04,153.243 C194.972,155.399 195.962,155.632 197.826,154.117 C198.875,153.243 198.991,152.894 198.467,151.496 C197.943,150.214 198.118,148.583 198.991,144.214 C199.69,141.127 200.623,136.35 201.147,133.612 C202.079,128.311 203.011,126.564 204.059,127.903 C204.875,128.894 207.904,148.991 207.555,151.03 C207.438,151.845 207.147,152.952 206.914,153.535 C206.623,154.176 206.856,154.583 207.729,154.875 C208.428,155.108 211.166,157.496 213.788,160.176 C219.322,165.768 224.099,168.447 229.283,168.797 C231.264,168.972 232.953,169.496 234.06,170.312 C235.924,171.71 244.254,173.457 247.516,173.108 C249.031,172.991 249.322,172.7 249.206,171.768 C249.089,171.127 248.798,168.972 248.565,167.049 C248.274,164.195 247.924,163.205 246.759,162.273 C245.477,161.224 245.303,160.583 245.244,157.379 C245.186,155.399 244.953,152.661 244.72,151.321 C244.429,149.515 244.604,148.001 245.652,144.913 C246.817,141.302 248.099,139.03 252.409,132.738 C253.866,130.525 255.206,122.428 254.623,118.991 C254.39,117.767 254.507,115.903 254.856,114.855 C255.206,113.806 255.73,110.66 256.021,107.864 C256.371,105.068 257.07,101.923 257.594,100.874 C259.109,97.903 265.516,88.583 266.856,87.418 C269.07,85.495 279.497,80.544 283.691,79.437 C285.963,78.854 289.691,77.398 291.905,76.291 C297.09,73.67 300.759,72.563 306.235,72.097 C308.74,71.864 312.818,70.932 316.08,69.825 C324.643,66.796 328.371,66.155 334.43,66.679 C366.469,69.243 370.081,70.116 383.945,78.447 C387.149,80.311 390.819,82.874 392.1,84.097 C393.382,85.32 395.654,87.476 397.11,88.874 C399.149,90.738 399.906,91.961 400.197,93.709 C400.547,95.748 401.246,96.622 405.557,100.291 C408.295,102.68 411.382,104.952 412.431,105.359 C416.042,106.874 416.333,107.515 416.217,113.923 C416.159,119.34 416.217,119.806 417.557,121.263 C421.751,125.748 425.013,132.214 426.761,139.146 C428.101,144.389 428.159,150.506 426.994,157.03 C426.703,158.836 426.819,159.302 427.693,159.593 C428.334,159.768 430.605,160.875 432.819,161.981 L436.78,164.02 L443.887,163.613 C451.868,163.146 451.984,163.205 452.567,167.049 C452.975,169.438 455.247,171.943 458.276,173.224 C460.373,174.156 461.946,177.768 461.538,180.797 C461.305,182.894 461.421,183.244 462.878,184.292 C463.81,184.933 464.975,186.622 465.499,188.079 C466.489,190.525 466.489,190.817 465.499,193.729 C464.975,195.419 463.926,197.458 463.227,198.273 C462.47,199.089 461.713,200.195 461.538,200.778 C461.014,202.176 463.285,207.477 464.684,208.176 C465.266,208.526 467.654,208.759 469.985,208.759 C474.121,208.759 474.237,208.817 476.276,210.972 C478.082,212.953 478.723,213.302 481.868,213.652 C483.849,213.885 486.062,213.827 486.82,213.535 C487.577,213.244 490.548,212.895 493.461,212.778 L498.703,212.545 L499.461,214.875 C500.567,218.137 499.927,223.438 497.946,227.4 C496.664,230.079 496.14,230.603 494.917,230.545 C492.936,230.429 486.295,227.924 484.315,226.584 C481.693,224.836 480.295,225.652 477.441,230.429 C473.538,237.07 472.373,238.468 470.567,238.468 C468.12,238.468 466.897,237.303 463.635,231.885 C461.946,229.205 459.674,226.176 458.567,225.186 C455.421,222.448 450.412,221.4 446.8,222.739 C445.46,223.264 444.878,223.147 443.13,221.924 C440.392,220.06 435.149,219.361 432.819,220.584 C431.887,221.05 430.489,222.157 429.732,222.972 C428.217,224.545 426.528,224.953 425.829,223.846 C425.596,223.438 424.547,223.322 423.033,223.555 C421.11,223.846 420.236,223.671 419.13,222.856 C417.324,221.4 412.664,219.302 409.168,218.37 C407.712,217.963 405.44,216.798 404.217,215.807 C402.353,214.293 401.013,213.885 395.77,213.011 C389.77,212.079 389.479,212.079 387.032,213.128 C384.76,214.118 380.799,217.264 380.741,218.137 C380.741,218.312 382.838,218.662 385.343,218.836 C387.964,219.069 391.809,219.827 394.256,220.7 C396.586,221.574 399.673,222.332 401.129,222.448 C402.586,222.565 404.566,222.914 405.498,223.264 C406.489,223.613 407.945,224.021 408.819,224.196 C409.984,224.429 410.741,225.244 411.965,227.691 C414.236,232.468 414.411,235.38 412.547,238.118 C411.149,240.215 410.741,242.312 411.032,245.866 C411.091,246.623 410.566,247.963 409.926,248.895 C408.935,250.293 408.702,251.458 408.702,255.361 C408.702,258.856 408.411,260.837 407.596,262.584 C404.392,269.633 403.984,271.381 405.265,272.662 C405.615,273.012 406.489,277.672 407.304,283.031 C408.877,293.983 409.401,296.488 410.159,296.371 C410.45,296.313 411.848,294.391 413.246,292.06 C415.751,287.924 415.867,287.691 415.751,283.322 C415.693,279.594 415.809,278.72 416.8,277.847 C419.246,275.633 423.324,278.371 426.12,284.138 C427.693,287.4 430.081,297.012 430.955,303.595 L431.654,309.07 L430.023,311.983 L428.392,314.837 L430.489,319.032 C437.072,332.139 442.431,351.77 445.111,372.45 C446.217,380.955 446.101,381.188 441.324,380.722 C439.052,380.547 438.353,380.663 438.062,381.362 C437.887,381.887 437.945,382.644 438.178,383.052 C438.47,383.459 438.586,384.333 438.528,384.974 C438.47,385.615 439.052,389.401 439.868,393.362 C441.615,402.042 441.732,404.314 440.334,404.722 C439.751,404.897 437.771,405.071 435.907,405.13 C434.042,405.246 432.411,405.421 432.295,405.654 C432.178,405.887 431.829,407.576 431.479,409.499 C431.188,411.596 429.848,415.033 428.159,418.353 C425.887,422.897 424.838,424.178 422.159,426.275 C414.586,431.984 411.499,433.033 402.003,433.382 C396.178,433.615 394.489,433.499 391.925,432.567 z M394.314,197.458 C395.013,195.71 392.916,190.7 391.459,190.7 C390.294,190.7 389.246,193.205 389.712,195.011 C390.411,197.807 393.557,199.438 394.314,197.458 z" fill="#000000"/>
  </g>
</svg>
