<?xml version="1.0" encoding="UTF-8"?>
<!DOCTYPE svg PUBLIC "-//W3C//DTD SVG 1.1//EN" "http://www.w3.org/Graphics/SVG/1.1/DTD/svg11.dtd">
<svg version="1.1" xmlns="http://www.w3.org/2000/svg" xmlns:xlink="http://www.w3.org/1999/xlink" x="0" y="0" width="500" height="500" viewBox="0, 0, 500, 500">
  <g id="layer102">
    <path d="M99.594,361.098 L99.594,359.066 L117.819,359.066 L136.111,359.066 L136.314,360.963 C136.517,362.589 136.789,362.792 138.889,362.792 C140.786,362.792 141.26,362.521 141.599,361.098 C141.937,359.676 142.48,359.337 145.325,358.998 C147.222,358.795 149.323,358.389 150.068,358.05 C152.439,357.101 155.826,354.323 155.826,353.307 C155.826,352.765 156.572,351.207 157.52,349.852 C159.621,346.803 159.621,345.177 157.723,342.128 C156.843,340.841 155.894,339.012 155.488,338.131 C155.081,337.183 153.591,336.099 151.762,335.421 L148.712,334.269 L148.509,327.697 C148.374,322.074 148.509,321.125 149.39,321.125 C150,321.125 159.35,325.665 170.257,331.22 C198.78,345.719 198.577,345.651 199.052,346.803 C200,349.378 201.152,349.513 217.954,349.581 L234.35,349.581 L234.553,344.703 L234.756,339.757 L239.499,339.96 C245.731,340.164 247.29,340.57 247.29,341.925 C247.29,342.535 247.967,344.364 248.713,345.99 C249.797,348.294 250.474,348.903 251.558,348.768 C252.439,348.633 253.184,347.887 253.387,346.871 C253.726,345.38 254.133,345.177 256.978,345.177 C260.569,345.177 261.517,344.364 261.517,341.316 C261.517,339.215 261.992,339.08 265.718,340.164 C267.683,340.706 268.361,341.247 268.699,342.67 C268.903,343.686 269.309,344.974 269.715,345.516 C270.528,346.803 271.477,348.903 271.951,350.462 C272.29,351.41 272.9,351.681 274.797,351.478 C276.22,351.342 277.507,350.8 277.778,350.258 C280.217,344.906 279.878,345.177 284.689,344.974 C289.024,344.77 289.228,344.703 289.431,343.009 C289.905,338.944 292.344,341.789 294.038,348.429 C294.783,351.139 295.122,351.614 296.274,351.478 C297.222,351.342 297.832,350.53 298.238,348.903 C299.458,343.755 300.407,341.316 301.626,340.706 C303.116,339.892 304.201,340.434 304.201,341.993 C304.201,342.603 304.674,344.364 305.149,345.855 C305.894,347.955 306.504,348.633 307.859,348.768 C309.214,348.971 309.621,348.7 309.621,347.684 C309.621,344.161 314.16,343.958 315.718,347.345 C316.531,349.175 317.141,349.581 318.902,349.581 C320.799,349.581 321.274,349.242 322.154,347.142 C322.696,345.787 323.171,343.822 323.171,342.738 C323.171,341.586 323.51,340.773 324.052,340.773 C325,340.773 327.236,345.245 327.236,347.074 C327.236,348.023 327.981,348.226 331.301,348.226 C334.96,348.226 335.366,348.09 335.366,346.871 C335.366,345.177 337.33,344.297 338.076,345.516 C338.415,345.99 338.821,347.752 339.092,349.378 C339.634,353.239 340.921,352.833 341.87,348.497 C342.48,345.38 342.683,345.177 344.919,344.838 C346.748,344.567 347.29,344.161 347.425,342.806 C347.561,341.858 347.967,340.841 348.306,340.502 C349.052,339.689 355.759,339.96 356.775,340.841 C357.114,341.112 357.859,342.941 358.401,344.838 C359.146,347.616 359.62,348.226 360.84,348.226 C361.856,348.226 362.466,347.684 362.737,346.464 C363.144,345.042 363.55,344.77 365.311,344.974 C366.463,345.109 367.615,345.651 367.886,346.194 C369.241,348.836 369.851,350.733 370.054,352.291 C370.258,353.714 370.596,353.984 372.561,353.984 C374.729,353.984 374.864,353.781 375.881,350.597 C376.423,348.768 377.439,345.516 378.048,343.483 L379.2,339.757 L383.808,339.892 C388.753,340.096 390.244,340.841 390.244,343.077 C390.244,343.89 390.854,345.042 391.599,345.719 C392.344,346.329 392.954,347.481 392.954,348.226 C392.954,349.106 393.428,349.581 394.309,349.581 C395.257,349.581 395.664,349.106 395.664,348.023 C395.664,345.99 396.884,344.838 399.051,344.838 C401.762,344.838 403.184,346.261 403.591,349.445 C403.862,351.545 404.268,352.291 405.149,352.291 C406.436,352.291 407.046,350.394 407.656,344.297 C408.062,340.299 408.198,340.231 414.634,339.96 L418.36,339.757 L418.564,342.399 L418.767,344.974 L434.485,344.635 C443.157,344.432 452.507,344.161 455.285,344.025 L460.298,343.822 L461.518,340.434 C462.195,338.605 463.414,335.217 464.16,332.982 C464.973,330.746 465.853,328.646 466.192,328.307 C466.531,327.9 466.802,326.478 466.802,325.055 C466.802,323.564 467.886,319.296 469.241,315.502 C470.596,311.708 471.883,307.711 472.222,306.559 C473.103,303.443 476.558,293.822 477.168,292.874 C477.507,292.399 478.93,291.993 480.42,291.993 L483.062,291.993 L483.062,282.643 C483.062,277.494 483.333,273.023 483.605,272.616 C483.943,272.277 484.892,269.703 485.772,266.925 C486.585,264.147 487.534,261.573 487.872,261.234 C488.211,260.828 488.483,259.879 488.483,259.066 C488.483,258.185 488.753,257.304 489.16,257.101 C490.108,256.559 490.041,253.849 489.024,252.833 C488.279,252.087 488.414,251.342 490.515,247.278 C490.922,246.464 492.073,246.329 495.528,246.464 C497.967,246.6 500,246.464 500,246.058 C500,245.719 498.509,244.635 496.612,243.619 C494.783,242.603 493.089,241.519 492.886,241.18 C492.683,240.841 493.089,239.418 493.834,237.995 C496.341,233.05 496.477,222.819 494.038,221.871 C492.683,221.397 491.667,222.481 490.583,225.936 C489.092,230.34 489.16,230.34 479.81,230.34 L471.341,230.34 L468.428,233.05 L465.447,235.76 L454.268,235.76 C447.968,235.76 442.412,235.489 441.734,235.082 C440.718,234.54 440.108,234.744 439.024,235.895 L437.602,237.453 L402.303,237.657 C367.547,237.86 366.938,237.86 365.108,236.437 C362.737,234.744 362.398,234.744 360.298,236.437 C358.672,237.657 357.588,237.725 337.33,237.522 C272.425,236.911 275.678,237.047 274.864,235.692 C273.781,233.931 270.596,233.998 269.648,235.76 C268.97,237.047 268.225,237.115 252.168,237.115 C239.702,237.115 235.095,236.911 234.282,236.302 C233.198,235.353 227.642,227.359 227.642,226.614 C227.642,226.41 226.423,224.445 225,222.277 C222.629,218.822 221.071,216.247 218.564,211.708 C218.157,210.963 216.802,209.066 215.65,207.44 C214.431,205.814 213.686,204.052 213.889,203.51 C214.296,202.359 213.076,199.581 211.247,197.549 C210.569,196.803 210.027,195.787 210.027,195.313 C210.027,194.838 209.756,194.432 209.418,194.432 C209.079,194.432 208.537,193.822 208.333,193.077 C208.062,192.332 207.317,191.722 206.572,191.722 C205.827,191.722 205.013,191.18 204.743,190.57 C204.471,189.893 202.913,187.183 201.219,184.54 C199.526,181.966 197.832,179.188 197.426,178.443 C196.138,176.139 187.737,174.377 186.653,176.139 C186.111,177.088 173.171,177.02 170.054,176.071 L167.548,175.326 L166.667,169.635 C166.26,166.518 165.447,163.673 164.905,163.199 C164.295,162.657 161.721,162.521 157.046,162.724 C150,163.063 148.645,163.47 139.228,167.67 C137.398,168.483 132.995,170.177 129.472,171.329 C125.271,172.752 122.629,174.039 121.816,175.191 C120.935,176.207 119.783,176.816 118.564,176.816 C115.176,176.816 114.499,176.207 114.499,173.158 C114.499,170.651 115.041,169.838 119.444,164.893 C122.087,161.844 126.491,157.373 129.133,154.865 L133.943,150.394 L138.483,150.394 C141.26,150.394 143.834,149.987 144.986,149.378 C146.884,148.429 147.019,148.023 147.019,144.703 C147.019,142.264 146.68,140.773 146.003,140.231 C145.393,139.757 141.87,139.079 138.144,138.809 C134.417,138.47 130.759,137.928 130.081,137.521 C128.32,136.573 124.119,136.708 123.848,137.725 C123.577,138.334 119.513,138.606 107.249,138.741 C93.225,138.944 90.921,138.809 90.108,137.86 C89.024,136.573 85.095,136.505 84.011,137.86 C83.333,138.673 81.504,138.876 75.61,138.876 C68.157,138.876 67.954,138.944 64.702,141.045 C58.334,145.381 49.526,151.343 35.84,160.692 C30.759,164.148 22.832,169.568 18.225,172.684 C13.618,175.868 8.74,179.255 7.453,180.272 C6.166,181.288 3.997,182.711 2.71,183.456 L0.339,184.744 L0.136,211.234 L-0,237.725 L1.965,240.638 C5.149,245.448 7.656,249.513 9.011,252.02 C9.689,253.307 11.179,255.814 12.331,257.576 C14.16,260.489 14.634,260.76 17.819,261.302 C21.206,261.844 21.342,261.912 21.545,264.215 C21.68,265.502 22.358,267.332 23.103,268.348 C23.781,269.364 24.39,270.448 24.39,270.854 C24.39,271.193 24.864,271.871 25.406,272.345 C26.626,273.362 32.52,282.237 32.52,283.118 C32.52,283.456 32.792,283.863 33.062,283.998 C33.604,284.201 37.195,289.215 44.715,300.394 C46.003,302.291 48.509,305.949 50.339,308.457 C53.32,312.792 53.523,313.266 53.523,317.535 C53.523,321.6 53.794,322.413 56.572,327.088 C58.265,329.866 59.621,332.305 59.621,332.44 C59.621,332.643 61.111,334.947 62.873,337.589 C64.634,340.299 68.36,346.194 71.071,350.8 L76.016,359.066 L84.756,359.066 C93.428,359.066 93.496,359.066 93.496,360.624 C93.496,362.792 93.97,363.131 97.019,363.131 C99.458,363.131 99.594,362.995 99.594,361.098 z" fill="#000000"/>
  </g>
</svg>
