<?xml version="1.0" encoding="UTF-8"?>
<!DOCTYPE svg PUBLIC "-//W3C//DTD SVG 1.1//EN" "http://www.w3.org/Graphics/SVG/1.1/DTD/svg11.dtd">
<svg version="1.1" xmlns="http://www.w3.org/2000/svg" xmlns:xlink="http://www.w3.org/1999/xlink" x="0" y="0" width="500" height="500" viewBox="0, 0, 500, 500">
  <g id="Layer_1">
    <path d="M337.659,188.372 C317.778,171.051 301.712,153.68 281.78,136.359 L196.882,146.199 L194.121,160.458 C192.966,160.709 177.854,165.177 167.311,178.532 C156.918,191.686 175.394,217.19 196.882,225.073 C193.619,215.935 195.275,206.195 201.25,199.869 C206.019,194.899 211.944,193.644 214.404,193.292 C231.875,192.138 244.879,192.489 251.104,203.685 C260.041,219.851 252.259,256.351 218.27,271.061 C250.703,282.81 286.299,276.333 310.247,254.092 C337.509,228.838 337.709,194.297 337.659,188.372 z M216.061,167.587 L205.668,159.353 L227.006,154.985 L216.061,167.587 z" fill="#000000"/>
    <path d="M318.782,463.802 C306.13,451.15 306.883,436.188 307.134,432.574 L307.134,432.574 L307.134,301.486 C323.853,292.7 338.312,280.149 349.307,264.986 L366.678,283.663 L337.659,283.663 L463.626,369.063 L406.642,300.08 L432.398,300.08 L368.184,225.675 C370.996,215.333 372.552,204.488 372.552,193.292 C372.552,177.076 369.389,161.562 363.616,147.404 L431.243,68.983 L405.487,68.983 L462.521,-0 L336.555,85.4 L365.574,85.4 L341.224,111.608 C331.584,100.864 320.037,91.877 307.134,85.099 L307.134,67.326 L307.134,67.326 C306.883,63.711 306.18,48.75 318.782,36.098 C330.982,23.898 350.914,18.476 370.594,21.84 L370.594,-0 L251.506,-0 L249.448,-0 L130.259,-0 L130.259,21.89 C149.94,18.476 169.921,23.898 182.071,36.148 C194.723,48.8 193.97,63.761 193.719,67.376 L193.719,67.376 L193.719,85.149 C180.414,92.128 168.516,101.516 158.675,112.712 L133.321,85.45 L162.34,85.45 L36.474,-0 L93.408,68.983 L67.702,68.983 L136.685,148.911 C131.263,162.667 128.351,177.628 128.351,193.292 C128.351,204.589 129.907,215.534 132.769,225.926 L68.807,300.08 L94.562,300.08 L37.579,369.063 L163.495,283.663 L134.476,283.663 L151.697,265.137 C162.692,280.249 177.101,292.75 193.769,301.486 L193.769,432.624 L193.769,432.624 C194.02,436.239 194.723,451.2 182.121,463.852 C169.921,476.052 149.99,481.474 130.309,478.11 L130.309,500 L249.448,500 L251.506,500 L370.644,500 L370.644,478.11 C350.964,481.424 330.982,476.002 318.782,463.802 z M250.452,289.688 C197.233,289.688 154.056,246.561 154.056,193.292 C154.056,140.024 197.183,96.897 250.452,96.897 C303.72,96.897 346.847,140.024 346.847,193.292 C346.847,246.561 303.67,289.688 250.452,289.688 z" fill="#000000"/>
  </g>
</svg>
