<?xml version="1.0" encoding="UTF-8"?>
<!DOCTYPE svg PUBLIC "-//W3C//DTD SVG 1.1//EN" "http://www.w3.org/Graphics/SVG/1.1/DTD/svg11.dtd">
<svg version="1.1" xmlns="http://www.w3.org/2000/svg" xmlns:xlink="http://www.w3.org/1999/xlink" x="0" y="0" width="500" height="500" viewBox="0, 0, 500, 500">
  <g id="layer102">
    <path d="M333.769,499.003 C335.143,498.033 335.143,496.578 334.254,470.468 C332.637,426.091 331.991,414.128 329.485,389.716 C328.919,383.573 328.999,378.804 329.889,369.912 C330.536,363.445 331.021,356.493 331.021,354.311 C331.021,350.916 331.263,350.351 333.041,349.704 C334.173,349.3 335.386,348.087 335.79,347.117 C337.73,342.186 342.661,332.163 343.792,330.95 C345.328,329.172 347.025,329.091 348.966,330.87 C350.259,332.001 350.421,333.618 350.421,344.935 C350.421,357.868 350.905,360.05 353.331,357.706 C353.896,357.06 354.786,353.907 355.271,350.593 C355.755,347.36 356.402,344.126 356.726,343.48 C358.989,339.519 361.656,352.937 361.737,368.134 C361.737,376.945 361.899,378.076 363.03,377.833 C364.728,377.511 366.021,373.064 368.042,360.212 C370.386,345.419 370.871,333.456 369.497,319.472 C368.608,310.176 367.961,306.943 366.749,305.326 C364.89,302.82 361.737,291.019 361.737,286.735 C361.737,283.825 361.495,283.501 358.504,282.289 C355.513,281.076 355.271,280.753 355.271,277.924 C355.271,274.691 353.331,267.9 350.339,261.111 C349.289,258.524 348.642,255.371 348.642,252.057 C348.642,244.54 351.229,242.357 354.381,247.288 C355.351,248.662 357.372,251.168 358.908,252.704 C361.252,254.967 362.464,255.533 365.213,255.614 C368.284,255.695 373.054,257.554 383.804,262.727 C390.675,266.122 399.325,274.61 411.207,289.887 C416.784,297.081 425.919,311.712 430.284,320.361 C432.951,325.615 435.78,331.193 436.669,332.729 C437.478,334.265 438.691,336.851 439.337,338.387 C439.903,339.923 441.439,343.48 442.732,346.309 C443.944,349.057 444.995,351.563 444.995,351.806 C444.995,351.967 446.208,354.796 447.743,358.03 C451.22,365.304 453.887,372.579 454.695,376.783 C455.019,378.561 455.827,381.633 456.474,383.654 C458.171,388.665 459.303,392.95 460.435,398.204 C460.919,400.628 461.647,403.701 462.051,404.993 C462.455,406.287 462.778,408.146 462.778,409.197 C462.778,410.814 463.264,411.056 467.224,411.541 C470.296,411.945 472.075,411.865 472.883,411.137 C474.257,410.005 474.419,406.125 473.287,401.195 C472.883,399.335 470.7,388.342 468.437,376.783 C466.093,365.224 463.91,355.2 463.506,354.392 C463.102,353.665 462.778,352.29 462.778,351.402 C462.778,349.865 459.626,338.791 456.069,327.879 C455.423,325.858 454.13,321.493 453.079,318.179 C452.108,314.865 450.977,311.47 450.573,310.742 C450.169,309.934 449.845,308.964 449.845,308.479 C449.845,308.075 448.956,305.812 447.905,303.467 C446.855,301.123 445.723,298.294 445.4,297.162 C445.076,296.03 443.702,292.878 442.489,290.049 C441.196,287.3 440.146,284.31 440.146,283.501 C440.146,282.693 439.095,279.864 437.801,277.277 C436.508,274.691 434.891,271.214 434.163,269.598 C433.517,268.062 431.819,264.263 430.445,261.272 C428.99,257.958 427.858,253.835 427.616,251.168 C427.454,248.097 425.999,243.65 423.251,237.103 C420.988,231.849 419.129,227.322 419.129,226.999 C419.129,225.463 411.935,219.643 409.105,218.915 C406.599,218.188 401.992,214.066 384.209,196.201 C358.989,170.982 357.372,169.122 358.585,166.94 C359.069,165.889 359.069,164.919 358.504,163.868 C357.291,161.605 358.423,161.281 364.566,162.09 C370.386,162.898 377.499,161.686 378.793,159.665 C379.682,158.29 379.763,140.023 378.954,139.214 C378.55,138.891 378.308,137.759 378.308,136.87 C378.308,135.253 377.823,135.091 373.054,135.011 C370.144,134.93 364.566,134.444 360.524,133.879 C354.786,133.151 352.845,132.505 351.148,130.969 C349.612,129.433 348.238,129.029 345.166,129.029 C341.771,129.029 340.963,128.625 338.619,126.2 C337.083,124.745 335.87,123.128 335.87,122.724 C335.87,121.593 331.505,111.003 326.979,101.142 C325.767,98.474 324.149,94.513 323.341,92.25 C321.644,86.915 314.935,71.799 313.237,69.212 C312.51,68.081 311.136,65.09 310.165,62.584 C309.196,59.997 307.659,55.875 306.69,53.45 C305.72,51.025 305.154,48.6 305.396,48.034 C305.558,47.468 305.315,46.417 304.749,45.771 C303.618,44.478 296.828,28.958 295.939,25.562 C295.616,24.431 294.565,21.763 293.595,19.661 C292.22,16.509 292.059,15.458 292.867,14.246 C293.675,12.952 293.595,12.548 292.302,11.901 C291.493,11.417 290.604,9.962 290.361,8.668 C290.038,7.294 288.664,5.112 287.209,3.657 C284.622,1.151 284.46,1.151 278.883,1.636 C275.812,1.959 272.174,2.444 270.8,2.767 L268.375,3.495 L268.375,11.497 C268.375,18.61 268.617,19.985 270.638,24.188 L272.901,28.796 L273.386,52.965 C273.79,74.466 273.71,77.457 272.578,79.235 L271.284,81.176 L267.405,79.802 C263.282,78.347 261.585,75.679 264.656,75.679 C266.111,75.679 266.354,75.194 266.354,72.203 C266.354,70.263 266.92,68 267.566,67.11 C268.213,66.302 268.779,64.2 268.779,62.584 C268.779,59.836 268.536,59.431 265.384,58.058 C260.938,56.117 259.806,54.662 259.321,50.298 C258.998,47.468 259.241,46.175 260.614,44.315 C263.524,40.193 262.555,34.454 258.998,34.454 C258.271,34.454 256.735,33.241 255.603,31.786 C253.421,28.958 253.421,28.958 236.688,28.553 C234.991,28.553 233.293,29.2 232.161,30.251 C229.817,32.514 228.281,32.514 226.422,30.331 C225.129,28.796 224.967,27.179 225.048,18.368 C225.21,8.507 225.129,8.183 223.351,7.375 C222.3,6.971 221.168,5.758 220.683,4.788 C220.279,3.818 219.228,2.686 218.258,2.202 C215.671,0.989 208.962,-0.385 208.073,0.1 C207.669,0.423 207.346,2.686 207.346,5.192 C207.346,7.698 206.699,14.892 206.052,21.116 C205.325,27.341 204.597,38.415 204.354,45.771 C204.032,55.875 203.708,59.431 202.819,60.401 C201.849,61.452 201.687,63.069 202.172,67.757 C202.738,74.466 201.849,78.589 199.263,80.933 C198.212,81.903 197.645,83.439 197.645,85.54 C197.645,88.289 197.403,88.612 195.625,88.612 C194.412,88.612 193.362,88.046 193.038,87.157 C192.796,86.43 191.583,84.49 190.452,82.954 L188.35,80.125 L188.107,54.016 C187.784,28.23 187.784,27.826 189.481,26.048 C191.098,24.35 191.179,23.38 191.017,15.782 L190.774,7.375 L182.691,7.132 C170.243,6.728 169.758,6.971 166.929,12.952 C165.555,15.782 164.504,19.257 164.504,20.712 C164.504,22.167 162.645,27.583 160.382,32.757 C158.118,37.93 155.37,44.235 154.238,46.741 C153.106,49.247 152.379,51.671 152.622,52.075 C153.511,53.369 150.439,61.372 142.921,78.104 C141.548,81.014 139.688,85.702 138.638,88.612 C136.859,93.786 132.655,103.566 128.048,113.509 C126.755,116.338 125.704,119.087 125.704,119.733 C125.704,123.37 119.237,132.424 116.085,133.151 C114.953,133.475 111.962,133.717 109.456,133.798 C104.687,133.879 100.241,135.011 98.221,136.708 C97.574,137.274 95.958,137.921 94.745,138.244 C93.452,138.567 91.593,139.78 90.622,140.911 C88.925,142.933 88.844,143.175 89.975,146.327 C90.784,148.671 90.865,150.046 90.218,151.016 C89.652,151.985 89.733,153.036 90.622,154.815 C91.593,156.755 91.673,157.644 90.946,159.018 C90.218,160.231 90.218,160.958 90.865,161.605 C91.35,162.09 91.754,163.141 91.754,163.868 C91.754,166.455 94.017,167.263 101.212,167.183 C105.011,167.101 108.567,166.697 109.214,166.212 C111.477,164.273 113.417,166.212 117.298,174.134 C119.399,178.418 121.824,183.026 122.713,184.238 C124.815,187.31 124.168,189.088 118.429,195.716 C115.761,198.869 113.013,202.507 112.366,203.8 C111.72,205.174 109.133,208.407 106.628,211.075 C104.202,213.742 101.212,217.541 99.999,219.562 C98.867,221.583 96.847,224.493 95.472,226.11 C94.099,227.726 91.431,231.121 89.571,233.627 C86.661,237.427 85.692,238.154 83.59,238.154 C82.135,238.154 80.518,238.8 79.872,239.609 C76.638,243.57 74.94,246.964 75.264,248.501 C75.507,249.39 75.183,251.249 74.456,252.623 C73.728,253.997 72.92,256.826 72.677,258.928 C72.435,261.111 71.465,265.233 70.657,268.224 C69.767,271.214 69.121,275.418 69.202,277.52 C69.363,280.268 68.474,283.986 66.292,290.291 C62.169,302.335 62.25,302.012 60.714,305.488 C59.987,307.185 59.421,309.126 59.421,309.934 C59.421,311.389 56.753,320.765 54.975,325.454 C54.409,326.99 53.116,330.466 52.145,333.133 C51.176,335.8 49.963,339.115 49.317,340.408 C47.458,344.611 47.054,345.986 46.407,350.108 C45.275,356.979 43.497,364.658 40.91,373.55 C39.94,376.702 38.889,380.663 38.485,382.441 C35.171,397.153 33.473,405.56 32.665,411.298 C31.776,418.412 31.048,423.423 29.513,432.558 C27.977,442.5 27.007,449.371 26.279,456.808 C25.39,465.942 26.036,466.912 32.746,466.912 C38.323,466.912 39.616,465.781 40.344,460.041 C41.153,454.14 46.326,426.9 47.781,421.241 C49.721,413.643 61.28,378.884 63.866,372.741 C64.432,371.448 65.888,368.053 67.019,365.224 C70.495,356.575 71.869,353.745 72.516,353.745 C73.081,353.745 73.001,356.736 71.95,374.923 C71.546,381.956 72.112,382.845 77.446,382.845 C81.165,382.845 81.407,382.118 85.206,356.17 C85.61,353.261 86.419,349.138 86.823,346.874 C87.308,344.692 87.955,341.378 88.197,339.599 C88.52,337.822 89.248,335.396 89.814,334.265 C90.38,333.052 92.562,327.07 94.583,320.927 C96.604,314.703 98.625,308.398 99.11,306.862 C102.505,296.677 110.265,287.22 121.177,280.107 C126.108,276.873 127.321,276.711 127.321,279.54 C127.321,283.501 125.462,287.381 123.198,288.351 C121.177,289.159 120.854,289.726 120.854,292.393 C120.854,294.091 120.53,296.273 120.126,297.323 C119.722,298.374 118.995,300.8 118.429,302.82 C117.863,304.841 116.731,307.913 115.923,309.691 C112.933,316.482 112.69,318.906 113.013,337.175 C113.256,346.955 113.741,357.14 114.225,359.808 C114.63,362.476 115.276,366.113 115.6,367.891 C116.247,371.852 117.54,377.511 118.591,381.067 C119.237,383.169 119.803,383.654 121.097,383.492 C122.794,383.249 122.875,382.926 122.632,373.55 C122.39,364.011 123.036,358.999 124.572,358.999 C124.977,358.999 125.381,359.97 125.542,361.263 C125.704,362.799 126.27,363.445 127.401,363.445 C128.856,363.445 128.937,362.799 128.937,352.937 C128.937,341.378 129.584,339.357 133.868,337.094 C136.778,335.639 137.02,335.639 137.02,337.579 C137.02,338.549 138.314,340.004 140.173,341.297 C142.356,342.752 144.215,345.015 146.074,348.572 C148.418,353.179 149.065,353.826 151.571,354.23 C153.106,354.473 154.804,354.796 155.37,354.958 C157.633,355.685 158.846,360.535 160.058,373.711 C161.27,387.372 162.564,397.396 163.372,400.063 C163.615,400.79 164.585,401.437 165.474,401.437 C166.848,401.437 167.01,401.114 166.606,399.255 C165.716,395.132 165.151,366.355 165.878,364.335 C166.606,362.394 166.686,362.476 168.384,365.386 C169.354,367.002 170.405,369.265 170.647,370.316 C171.536,373.954 175.013,372.175 177.195,366.921 C179.054,362.394 181.641,364.335 180.024,369.104 C179.054,371.771 180.428,377.268 182.126,377.833 C183.338,378.238 187.946,370.882 187.946,368.538 C187.946,366.275 190.047,366.032 193.604,367.891 C195.867,369.104 196.029,369.427 196.029,374.196 C196.029,377.511 196.433,379.855 197.241,380.906 C198.454,382.361 198.535,382.361 200.475,380.016 C202.495,377.591 202.899,375.732 202.657,371.044 C202.334,367.326 204.274,366.032 207.022,368.214 C208.558,369.427 209.528,369.669 210.094,369.104 C211.468,367.73 213.085,368.134 215.106,370.397 C216.722,372.095 217.046,373.226 217.046,377.915 C217.046,381.794 217.369,383.734 218.258,384.462 C219.228,385.271 219.632,384.866 220.683,382.279 C221.411,380.582 222.138,377.429 222.219,375.166 C222.38,369.669 223.027,368.861 226.665,369.508 C228.281,369.75 231.434,369.993 233.697,369.912 C236.203,369.912 238.143,370.236 238.628,370.882 C239.437,371.852 240.729,383.654 241.7,397.8 C242.266,406.206 242.751,407.904 244.69,407.904 C246.308,407.904 246.308,409.359 245.014,380.825 C244.448,369.75 245.984,367.163 251.966,369.185 C254.31,369.912 255.28,369.993 256.007,369.265 C257.22,368.053 260.13,368.053 261.342,369.265 C261.908,369.831 262.312,371.529 262.312,373.146 C262.312,378.4 265.788,385.271 267.566,383.573 C267.809,383.33 268.052,380.339 268.132,376.945 C268.213,369.75 269.021,368.7 274.437,368.053 C276.458,367.81 279.126,367.326 280.419,367.002 C282.682,366.436 282.763,366.517 282.197,368.7 C281.55,371.286 284.38,379.208 286.158,379.935 C287.937,380.582 289.229,376.136 288.583,371.609 C287.856,366.436 289.715,363.526 293.514,363.445 C295.858,363.445 296.101,363.688 296.585,366.679 C296.909,368.538 298.04,371.044 299.415,372.499 C302.648,376.136 303.86,374.843 303.941,367.73 C303.941,364.173 304.265,362.233 304.911,362.072 C305.477,361.829 306.204,362.394 306.528,363.203 C306.771,364.011 307.659,365.547 308.387,366.679 C309.842,368.861 311.297,373.55 311.944,377.995 C312.187,379.531 312.752,383.007 313.237,385.675 C313.722,388.342 314.45,392.707 314.854,395.374 C315.258,398.042 315.985,402.811 316.47,405.883 C317.279,411.298 317.683,413.804 319.704,430.133 C321.563,444.602 322.21,452.201 322.937,466.912 C324.149,491.97 324.554,494.88 327.706,498.679 C329.081,500.296 331.748,500.458 333.769,499.003 z" fill="#000000"/>
  </g>
</svg>
