<?xml version="1.0" encoding="UTF-8"?>
<!DOCTYPE svg PUBLIC "-//W3C//DTD SVG 1.1//EN" "http://www.w3.org/Graphics/SVG/1.1/DTD/svg11.dtd">
<svg version="1.1" xmlns="http://www.w3.org/2000/svg" xmlns:xlink="http://www.w3.org/1999/xlink" x="0" y="0" width="500" height="500" viewBox="0, 0, 500, 500">
  <g id="layer101">
    <path d="M429.566,451.362 C435.802,447.666 440.884,444.202 440.884,443.509 C440.884,442.931 441.346,441.661 441.923,440.737 C442.847,439.236 443.655,439.351 447.697,441.084 C452.201,443.162 452.432,443.162 456.243,440.968 C458.322,439.698 462.48,438.312 465.482,437.85 C470.91,437.042 474.259,434.963 482.69,426.879 C487.425,422.49 488.002,419.026 486.039,408.516 C484.307,399.739 475.53,393.388 465.02,393.272 C460.863,393.272 458.207,392.348 452.779,388.768 C448.968,386.343 445.503,383.802 445.041,383.109 C444.695,382.532 441.23,380.799 437.419,379.414 C433.608,378.028 429.335,375.603 427.834,374.101 C426.448,372.6 424.023,371.329 422.406,371.329 C419.865,371.329 415.477,368.789 406.007,361.86 C404.505,360.82 400.694,359.319 397.576,358.51 C389.954,356.778 383.718,353.66 377.481,348.694 L372.284,344.537 L359.581,345.229 C352.536,345.576 346.3,345.807 345.722,345.922 C345.26,345.922 343.066,347.77 340.872,350.08 L337.061,354.353 L329.785,352.852 C325.743,351.928 319.391,349.849 315.465,348.117 C311.654,346.5 306.11,344.652 303.339,344.19 C300.567,343.844 295.37,342.689 291.905,341.765 C286.131,340.148 284.976,340.148 280.357,341.765 C273.89,343.959 271.811,344.075 270.078,341.996 C267.884,339.34 269.501,337.607 282.436,328.946 C290.866,323.287 296.294,320.515 299.412,320.169 C301.953,319.822 306.457,319.129 309.46,318.783 C318.006,317.397 321.817,318.783 329.67,325.828 C338.793,333.912 341.796,334.836 352.074,332.641 C366.626,329.523 379.56,321.555 386.72,311.045 C389.146,307.35 391.224,303.77 391.224,303.077 C391.224,302.268 392.148,299.612 393.419,296.956 C396.421,290.373 399.655,276.053 399.539,270.394 C399.424,267.853 398.154,262.887 396.883,259.538 C393.419,250.877 394.458,249.029 405.198,245.218 C414.206,242.1 421.597,239.328 439.729,232.168 C445.734,229.858 452.779,227.202 455.32,226.509 C457.86,225.7 462.942,223.622 466.637,222.005 C470.333,220.273 473.797,218.887 474.49,218.887 C476.916,218.887 487.656,212.766 491.236,209.301 C493.315,207.222 496.086,204.682 497.357,203.642 C502.207,199.485 500.013,183.086 493.777,176.503 C491.929,174.54 489.966,173.847 486.27,173.847 C483.498,173.847 479.572,173.038 477.609,171.999 C473.336,169.805 467.908,170.267 450.7,174.424 C444.348,175.926 435.225,177.889 430.49,178.928 C425.755,179.852 419.634,181.469 416.978,182.393 C414.437,183.317 408.663,184.472 404.274,184.934 C400.001,185.28 394.573,186.088 392.264,186.666 C386.489,188.167 384.873,187.243 382.563,181.238 C380.715,176.387 380.369,176.156 376.095,176.156 C372.169,176.156 371.245,175.579 368.589,171.537 C366.972,168.996 364.662,166.687 363.507,166.34 C362.468,165.994 360.62,163.684 359.465,161.143 C357.387,156.639 357.271,156.524 352.767,157.332 C350.226,157.679 347.224,158.833 346.069,159.757 C341.103,164.03 316.62,172.461 313.155,171.075 C312.231,170.729 304.378,170.151 295.717,169.689 C282.782,169.112 279.202,168.534 276.777,166.802 C275.044,165.647 272.85,164.608 271.926,164.608 C268.231,164.608 266.498,163.106 266.498,159.988 C266.498,156.87 263.496,153.059 261.07,153.059 C260.378,153.059 259.569,152.482 259.338,151.904 C258.645,149.71 243.285,147.978 239.012,149.594 C236.818,150.403 233.354,150.634 231.159,150.287 C228.041,149.594 227.233,149.825 227.233,151.211 C227.233,152.251 225.616,153.406 223.422,153.983 L219.726,154.907 L219.726,166.456 C219.726,179.852 218.918,182.508 214.529,184.818 C212.797,185.742 211.065,187.705 210.603,189.322 C209.794,192.787 208.524,193.249 196.86,194.172 C191.663,194.634 186.466,195.443 185.426,195.905 C184.041,196.598 182.539,196.136 180.23,194.172 C178.497,192.787 173.531,190.361 169.258,188.976 C164.985,187.474 161.174,185.857 160.828,185.28 C160.366,184.703 159.095,184.241 157.941,184.241 C154.36,184.241 152.166,181.007 152.166,175.81 C152.166,171.537 151.704,170.729 148.355,169.227 L144.66,167.495 L144.66,144.975 L144.66,122.455 L149.279,120.145 C155.053,117.374 162.56,109.059 165.101,102.822 C167.641,96.817 168.45,93.93 170.182,84.922 C171.337,78.685 171.222,76.838 169.951,74.297 C169.027,72.565 168.334,70.255 168.334,68.985 C168.334,65.52 159.557,48.543 156.093,45.194 C151.242,40.806 143.967,41.037 136.691,45.772 C133.804,47.735 130.686,50.507 129.993,51.892 C128.029,55.588 126.644,56.05 120.754,55.357 C114.056,54.433 104.932,57.436 100.544,62.055 C96.732,65.982 95.809,71.987 95.693,91.505 C95.578,99.589 95.116,105.825 94.423,106.287 C92.113,107.673 93.268,112.408 96.271,114.371 C98.927,116.103 99.158,116.912 98.696,120.492 C98.349,122.917 97.425,131.579 96.732,139.778 L95.347,154.791 L90.958,158.833 C88.417,161.028 86.339,163.915 86.108,165.185 C85.761,167.264 84.722,167.957 76.984,171.537 C75.021,172.461 73.52,174.424 72.711,177.196 C72.018,179.506 69.709,183.317 67.514,185.626 L63.703,189.784 L64.165,220.619 L64.627,251.454 L60.47,255.727 C55.042,261.27 51.693,267.969 51.693,273.281 C51.693,277.554 51.693,277.67 57.813,278.824 C61.047,279.517 66.128,280.326 69.131,280.672 C75.136,281.365 75.945,282.174 88.071,297.187 C97.31,308.736 100.428,315.665 97.887,318.783 C97.079,319.707 95.693,320.515 94.769,320.515 C93.845,320.515 90.958,322.017 88.302,323.749 C78.255,330.563 64.05,333.681 52.385,331.948 C43.147,330.447 42.223,331.025 40.144,338.762 C38.296,345.345 37.372,346.615 32.637,348.925 C30.558,349.849 28.364,351.928 27.671,353.429 C26.285,356.316 25.015,356.778 15.314,358.048 C10.579,358.741 8.731,359.665 5.267,363.245 C0.647,368.211 -0.508,372.6 0.185,383.109 C0.532,388.653 1.225,390.5 4.458,394.311 C6.653,396.852 9.193,399.97 10.117,401.356 C11.619,403.435 16.585,404.59 49.96,410.595 C83.567,416.6 90.15,417.409 105.279,417.64 C116.596,417.871 125.258,418.564 130.686,419.95 C135.421,420.989 139.463,421.451 140.156,420.873 C140.964,420.296 142.465,420.989 144.198,422.837 C145.699,424.454 147.893,426.301 148.933,426.879 C150.434,427.687 223.537,442.008 240.514,444.779 C242.708,445.126 250.677,443.393 261.879,440.16 C279.664,434.847 291.79,433.231 290.058,436.349 C289.365,437.504 289.596,437.504 290.866,436.349 C293.176,434.154 293.869,434.385 299.759,439.813 C305.648,445.357 304.378,445.01 334.867,448.706 C340.179,449.399 350.111,450.669 357.156,451.708 C374.132,454.134 399.077,456.905 409.702,457.483 L418.364,457.945 L429.566,451.362 z M193.28,336.106 C192.009,335.182 189.584,334.374 187.852,334.374 C186.235,334.374 181.962,333.103 178.613,331.602 C175.148,330.101 170.067,328.484 167.18,328.022 C160.712,326.983 155.631,324.442 155.631,322.363 C155.631,320.284 170.644,306.657 172.954,306.772 C173.878,306.772 175.726,307.465 176.88,308.389 C178.151,309.313 180.923,310.121 183.001,310.121 C188.083,310.121 192.471,314.394 197.668,324.211 C202.172,332.641 202.519,334.374 200.44,336.452 C198.592,338.3 195.936,338.185 193.28,336.106 z M269.963,310.237 C269.963,307.696 274.005,304.347 277.123,304.347 C280.588,304.347 280.819,306.888 277.585,309.775 C273.659,313.124 269.963,313.355 269.963,310.237 z M330.709,306.657 C329.092,306.079 327.706,305.04 327.706,304.463 C327.706,300.998 368.589,278.824 371.476,280.672 C376.095,283.444 365.586,300.651 356.232,305.733 C352.074,307.927 335.675,308.62 330.709,306.657 z M330.247,275.36 C329.785,271.433 331.171,270.509 343.297,266.814 C348.956,265.081 355.077,262.656 356.809,261.386 C360.851,258.614 365.124,259.076 365.586,262.194 C365.817,264.273 363.507,265.659 350.573,271.664 C342.142,275.591 334.174,278.709 332.903,278.593 C331.402,278.478 330.478,277.323 330.247,275.36 z M306.803,205.144 C304.725,203.527 304.147,201.795 304.147,197.406 L304.032,191.747 L314.425,190.477 C320.084,189.784 327.822,188.629 331.518,187.705 C339.717,185.857 341.103,186.781 339.602,193.018 C338.447,198.214 337.061,199.023 321.932,203.758 C308.536,207.915 310.037,207.8 306.803,205.144 z" fill="#000000"/>
  </g>
</svg>
