<?xml version="1.0" encoding="UTF-8"?>
<!DOCTYPE svg PUBLIC "-//W3C//DTD SVG 1.1//EN" "http://www.w3.org/Graphics/SVG/1.1/DTD/svg11.dtd">
<svg version="1.1" xmlns="http://www.w3.org/2000/svg" xmlns:xlink="http://www.w3.org/1999/xlink" x="0" y="0" width="500" height="500" viewBox="0, 0, 500, 500">
  <g id="layer101">
    <path d="M320.427,443.435 C314.699,440.998 312.96,439.84 313.368,438.783 C313.719,438.024 314.628,434.894 315.298,431.926 C316.107,428.778 317.982,424.904 319.653,422.643 C322.682,418.679 323.684,415.052 321.869,414.292 C321.39,414.098 319.515,415.803 317.864,417.965 L314.915,422.047 L316.013,417.921 C316.745,415.17 316.833,413.639 316.055,413.387 C312.408,412.484 298.968,410.431 297.896,410.638 C296.725,410.828 293.652,402.602 294.109,400.212 C294.204,399.714 293.053,397.636 291.665,395.719 C289.656,393.271 289.102,391.307 289.36,388.879 C289.946,385.274 287.904,381.375 283.434,377.217 C280.869,374.972 280.723,374.119 281.466,370.234 C281.922,367.845 282.175,364.899 281.987,363.728 C281.816,362.457 283.502,359.579 286.611,355.735 C291.629,349.468 292.54,346.855 292.071,340.676 C291.722,337.099 291.2,336.587 284.104,332.133 C279.846,329.565 275.93,327.371 275.333,327.257 C274.734,327.143 272.151,324.997 269.644,322.453 C267.037,319.89 259.955,314.821 253.82,311.274 C247.704,307.627 239.47,302.647 235.511,300.136 C226.494,294.386 223.108,293.739 217.126,296.415 C214.631,297.59 212.196,298.982 211.684,299.504 C210.384,300.907 205.959,299.752 200.185,296.48 C191.253,291.367 189.987,289.886 189.043,284.028 C188.429,279.679 187.742,278.412 185.628,277.594 C184.191,277.01 181.555,275.681 179.578,274.684 C177.7,273.705 174.551,272.897 172.484,272.914 C169.083,272.884 168.543,272.471 164.918,267.133 C161.895,262.427 159.871,260.595 154.718,257.854 C147.127,253.823 143.86,253.095 138.482,254.235 C136.337,254.65 129.82,255.263 124.195,255.529 C113.68,255.998 111.778,256.769 111.51,260.331 C111.428,262.379 112.826,263.163 122.978,266.755 C125.093,267.572 127.35,268.726 127.933,269.457 C129.459,271.194 128.437,274.921 125.409,278.884 C122.95,282.027 121.84,282.434 110.64,284.318 C85.544,288.708 75.746,289.209 58.725,286.989 C41.606,284.748 33.649,282.092 19.881,274.196 C14.026,270.806 7.512,267.083 5.435,266.068 C3.377,264.951 1.159,263.599 0.538,263.066 C-1.287,261.273 1.705,255.342 6.835,250.644 C9.341,248.337 12.297,245.289 13.361,244.047 C14.443,242.706 18.704,238.772 22.989,235.256 C30.729,228.787 33.466,227.968 35.303,231.313 C35.849,232.243 37.11,233.207 38.205,233.416 C40.297,233.815 56.42,228.846 56.629,227.751 C56.705,227.353 59.211,225.044 62.372,222.552 C67.743,218.211 67.88,218.031 68.173,212.719 C68.446,209.675 69.112,206.189 69.677,204.852 C71.064,201.917 78.393,198.673 80.968,199.784 C82.106,200.312 83.737,200.417 84.629,200.071 C85.977,199.503 85.972,198.986 84.741,196.789 C83.873,195.385 81.665,192.898 79.921,191.223 C78.096,189.43 76.726,187.413 76.879,186.616 C77.183,185.022 81.652,184.329 83.154,185.648 C85.079,187.461 89.87,185.074 98.54,178.06 C103.655,173.98 109.648,170.17 111.849,169.456 C114.13,168.86 118.509,167.013 121.578,165.535 C124.666,163.958 127.978,162.836 128.974,163.026 C129.97,163.217 131.957,163.08 133.466,162.749 C138.882,161.41 140.306,167.463 135.688,171.638 C134.445,172.743 131.432,176.089 128.912,179.014 C126.49,181.957 123.515,185.104 122.41,186.029 C118.993,188.782 111.555,197.993 112.138,198.723 C112.863,199.79 125.677,207.814 127.071,208.081 C127.868,208.233 128.077,207.138 127.913,204.216 C127.622,200.341 127.797,199.962 132.557,196.123 C135.362,193.872 142.299,188.901 148.191,185.073 C156.931,179.312 159.327,178.118 161.817,178.594 C164.107,179.032 165.268,179.976 166.121,181.997 C167.158,184.672 167.1,184.972 163.241,189.499 C159.246,194.205 159.246,194.205 160.662,197.057 C162.684,201.056 162.024,202.891 156.362,208.209 C153.581,210.877 151.218,213.522 151.103,214.12 C150.914,215.115 156.212,220.876 157.507,221.124 C157.805,221.181 159.262,219.498 160.715,217.299 C163.582,213.099 169.257,209.332 173.231,209.059 C175.954,208.857 188.996,217.853 189.454,220.314 C189.6,221.168 191.985,223.276 194.744,225.042 C200.902,229.006 201.844,232.18 199.505,240.093 C196.991,248.387 196.91,248.268 208.96,250.571 L219.517,252.589 L222.842,257.87 C224.657,260.797 226.865,263.284 227.762,263.456 C229.952,263.875 234.442,258.745 235.185,254.862 C235.527,253.069 237.166,249.357 238.951,246.498 C242.284,240.942 248.276,237.133 253.982,236.985 C257.202,236.877 261.197,234.337 266.323,229.124 C268.885,226.517 269.413,225.38 268.921,223.634 C267.899,220.342 269.398,218.977 274.763,218.454 C280.326,217.969 282.537,216.121 278.554,215.36 C277.16,215.093 275.401,214.034 274.676,212.967 C273.468,211.187 273.525,210.888 275.456,208.883 C279.813,204.451 274.432,200.739 261.855,199.574 L252.94,198.695 L240.61,189.217 C233.864,184.004 227.414,178.333 226.224,176.454 C224.329,173.408 223.266,167.63 223.021,157.572 C222.829,153.715 223.199,152.857 226.118,150.009 C229.193,146.88 229.232,146.681 227.786,145.063 C225.459,142.656 223.609,142.613 216.684,144.283 C209.421,146.094 207.046,145.021 202.654,138.298 C200.034,134.184 199.972,133.966 201.718,126.455 C203.615,118.147 203.289,117.155 198.737,115.046 C197.301,114.462 195.594,112.588 194.965,111.022 C193.729,108.308 193.904,107.929 198.485,101.786 C204.067,94.182 205.751,93.471 210.113,96.577 C213.896,99.467 215.92,99.132 217.521,95.619 C218.205,94.2 220.289,91.399 222.083,89.574 C223.896,87.649 225.957,84.43 226.674,82.297 C228.631,76.375 232.777,75.206 242.086,77.811 C246.112,78.891 250.142,80.486 251.043,81.175 C253.005,82.788 255.295,90.245 254.687,93.432 C254.097,96.519 255.584,98.455 259.07,99.121 C260.863,99.464 263.205,101.254 265.475,103.959 C267.502,106.308 269.986,108.434 270.982,108.625 C275.065,109.404 275.576,111.051 273.33,115.783 C270.733,121.273 270.881,126.979 274.026,132.121 C275.821,135.149 276.642,135.718 279.046,135.558 C280.716,135.465 282.813,134.214 284.132,132.711 C288.305,127.625 291.014,125.872 296.27,124.296 C305.335,121.693 306.337,120.233 309.134,105.594 L311.572,92.848 L316.71,89.184 C325.152,83.366 327.278,80.883 328.229,75.903 C328.686,73.513 329.832,70.222 330.771,68.544 C332.163,66.126 332.387,64.414 331.811,59.865 C331.018,53.211 332.077,51.452 338.083,49.194 C341.551,47.792 346.36,47.473 359.962,47.595 C361.712,47.621 364.705,46.541 366.703,45.271 C368.72,43.902 372.287,42.519 374.511,42.222 C379.933,41.4 381.957,43.233 382.787,49.688 C383.301,54.018 383.804,54.63 387.378,56.448 C389.654,57.503 392.746,58.61 394.34,58.915 C397.825,59.581 404.205,66.168 404.33,69.289 C404.382,70.641 402.9,74.074 400.721,77.373 C398.661,80.592 396.67,85.063 396.176,87.653 C395.432,91.536 395.783,92.945 398.384,97.158 C402.014,103.013 403.608,108.169 402.961,111.555 C402.466,114.144 402.788,114.619 406.963,119.236 C410.717,123.36 412.046,129.911 411.011,139.106 C410.452,143.644 410.53,148.098 410.975,149.008 C411.521,149.939 411.841,152.58 411.782,155.047 C411.705,157.612 412.713,161.522 414.129,164.373 C415.465,167.105 417.009,170.91 417.581,172.774 C418.196,174.956 419.201,176.18 420.334,176.19 C421.785,176.158 422.388,174.622 424.286,166.314 C425.414,160.956 427.082,156.01 427.813,155.427 C428.544,154.844 430.35,154.57 431.845,154.855 C433.836,155.237 435.777,154.265 439.649,151.29 C443.815,147.854 445.38,147.224 448.425,147.497 C452.167,147.902 452.286,147.821 455.197,141.771 C458.402,135.262 461.482,132.65 465.366,133.393 C466.66,133.64 469.046,133.58 470.635,133.368 C474.269,132.72 478.781,135.028 481.241,138.905 C482.188,140.428 483.707,145.983 484.586,151.105 L486.179,160.596 L491.741,162.279 C494.851,163.287 497.867,164.791 498.43,165.622 C499.842,167.957 500.45,173.957 499.632,178.238 C498.793,182.62 495.117,185.118 489.449,185.066 C485.114,185.064 484.009,185.987 482.364,191.351 C479.869,199.544 475.985,205.821 471.596,208.802 C465.884,212.767 461.62,211.849 454.306,205.29 C448.354,199.713 445.683,199.1 442.191,202.252 C439.922,204.398 439.885,204.598 440.791,210.655 C441.891,218.4 442.417,219.43 446.447,221.026 C448.163,221.767 450.164,223.182 450.771,224.33 C452.627,227.575 453.737,236.355 452.587,239.128 C451.903,240.546 450.734,243.42 449.917,245.534 C448.611,248.587 447.742,249.351 445.219,249.591 C433.438,250.745 431.955,254.178 438.987,264.915 C441.446,268.792 441.815,270.101 441.091,273.885 C440.273,278.167 440.135,278.348 433.575,280.809 C426.321,283.655 425.32,285.115 427.019,290.807 C427.511,292.553 427.75,297.243 427.524,301.123 C427.077,311.566 427.093,322.82 427.672,330.053 C427.959,333.412 427.932,337.329 427.685,338.624 C427.438,339.918 427.573,341.906 427.962,343.115 C428.251,344.306 428.508,348.897 428.468,353.431 C428.426,357.965 428.604,362.438 428.912,363.529 C429.219,364.62 429.548,368.296 429.617,371.716 C429.899,383.743 430.154,385.649 431.992,388.994 C433.063,390.954 433.739,393.354 433.549,394.35 C433.168,396.342 426.861,402.878 424.622,403.792 C423.967,403.976 423.183,405.374 422.898,406.869 C422.613,408.362 421.084,410.961 419.627,412.643 C417.557,414.828 416.779,416.744 416.568,420.007 C416.258,423.25 415.849,424.307 414.852,424.118 C412.96,423.756 412.508,426.663 414.267,427.721 C415.088,428.291 415.399,429.899 415.095,431.493 C414.79,433.086 415.083,434.793 415.742,435.126 C416.562,435.695 416.281,437.706 414.854,443.007 C412.212,452.516 409.795,455.976 405.759,456.03 C404.109,456.025 400.793,456.629 398.393,457.306 C394.784,458.371 393.052,458.246 385.816,456.14 C380.813,454.771 376.323,452.881 374.721,451.542 C369.492,447.034 365.889,446.448 355.804,448.443 C347.427,450.144 345.578,450.101 337.331,448.422 C332.253,447.45 324.638,445.169 320.427,443.435 z M292.752,306.329 C292.957,304.717 293.6,300.814 294.071,297.807 C294.642,294.819 294.971,291.476 294.844,290.523 C294.566,288.199 291.597,287.528 287.911,288.991 C284.305,290.573 280.907,288.375 280.734,284.42 C280.621,282.849 279.802,280.112 278.912,278.291 C277.069,274.429 278.266,272.489 282.966,271.118 C286.676,270.071 288.033,268.37 289.598,262.888 L290.753,258.465 L285.816,257.83 C282.311,257.263 280.396,256.484 279.41,255.16 C277.259,252.375 274.806,253.868 272.9,258.974 C271.794,262.066 269.606,264.332 261.563,270.227 C256.149,274.25 250.574,278.035 249.327,278.622 C244.493,280.692 245.705,282.988 254.84,288.657 C274.752,301.134 288.42,309.01 290.35,309.173 C291.982,309.278 292.513,308.658 292.752,306.329 z" fill="#000000"/>
  </g>
</svg>
