<?xml version="1.0" encoding="UTF-8"?>
<!DOCTYPE svg PUBLIC "-//W3C//DTD SVG 1.1//EN" "http://www.w3.org/Graphics/SVG/1.1/DTD/svg11.dtd">
<svg version="1.1" xmlns="http://www.w3.org/2000/svg" xmlns:xlink="http://www.w3.org/1999/xlink" x="0" y="0" width="500" height="500" viewBox="0, 0, 500, 500">
  <g id="layer101">
    <path d="M97.581,497.977 C91.996,497.005 86.25,495.872 84.793,495.629 L82.122,495.144 L82.689,486.726 L83.255,478.309 L81.07,477.338 C79.289,476.529 78.966,475.962 79.37,474.343 C79.613,473.291 80.018,471.349 80.261,470.135 C80.584,468.516 81.879,467.383 85.117,465.602 C89.164,463.417 89.487,463.012 89.487,460.341 C89.487,456.456 92.077,450.224 102.113,430.314 C106.727,421.087 111.016,411.375 111.745,408.704 C112.392,406.114 112.959,400.691 112.959,396.725 C112.959,390.17 113.202,389.037 115.873,383.533 C118.301,378.434 118.705,376.896 118.22,374.063 C117.572,369.612 118.705,367.588 123.076,365.727 C126.799,364.108 130.765,359.657 130.765,357.067 C130.765,356.176 130.036,354.801 129.065,353.91 C123.642,349.054 121.862,339.504 124.695,330.924 C126.475,325.34 131.169,315.87 132.545,315.061 C133.112,314.656 136.349,314.171 139.668,313.928 C147.033,313.442 147.6,312.147 141.934,308.991 C139.749,307.858 136.997,305.915 135.702,304.701 C133.921,303.001 132.707,302.516 130.765,302.759 C129.308,302.92 127.851,303.568 127.446,304.215 C127.123,304.863 125.504,307.777 123.804,310.609 C122.105,313.523 120.486,317.651 120.162,319.836 C119.353,324.854 118.301,326.068 114.901,326.068 C113.04,326.068 111.907,326.554 111.34,327.687 C110.207,329.791 105.998,329.791 103.327,327.768 L101.385,326.311 L103.246,317.084 C104.218,311.985 105.513,306.644 106.16,305.106 C106.808,303.649 107.293,300.978 107.293,299.197 C107.293,297.417 107.617,295.312 108.103,294.503 C108.507,293.694 108.669,292.48 108.426,291.751 C108.022,290.618 95.072,283.172 93.453,283.172 C92.32,283.172 89.487,289.404 89.487,291.994 C89.487,293.289 88.759,297.902 87.869,302.354 C86.978,306.724 86.25,311.257 86.25,312.471 C86.25,313.685 85.683,315.223 84.955,315.87 C83.417,317.489 78.804,317.57 75.89,316.032 C74.676,315.385 72.248,314.575 70.548,314.252 C68.849,314.009 66.744,313.037 65.935,312.228 C64.559,310.852 64.559,310.609 66.582,304.863 C68.282,299.926 68.606,297.983 68.201,293.289 C67.716,286.976 68.93,282.929 71.762,280.663 C73.219,279.611 73.462,278.397 73.624,271.598 C73.786,264.557 74.029,263.505 76.052,260.591 C77.347,258.81 78.885,256.139 79.694,254.683 C81.394,251.121 86.088,250.15 90.135,252.497 C91.592,253.307 93.372,254.035 94.02,254.035 C95.881,254.035 95.315,251.283 93.049,249.098 C90.378,246.589 87.059,240.114 87.059,237.362 C87.059,234.853 90.863,229.592 98.552,221.499 C103.085,216.643 104.056,215.995 106.646,215.995 C110.693,215.995 113.525,214.781 117.087,211.544 C118.786,210.006 121.133,208.549 122.266,208.225 C124.128,207.74 124.29,207.416 123.804,205.15 C123.076,201.993 123.076,201.669 123.804,198.432 L124.371,195.842 L120.405,196.328 C116.682,196.732 116.277,196.651 113.202,193.657 C109.64,190.176 105.189,180.545 104.38,174.475 C103.489,168.162 108.669,160.958 114.982,159.825 C117.572,159.34 118.139,158.773 119.838,154.969 C121.943,150.194 127.689,144.771 130.603,144.771 C131.574,144.771 132.95,143.881 133.678,142.667 C134.407,141.534 136.107,140.077 137.321,139.429 C138.535,138.863 141.286,135.625 143.391,132.388 C145.414,129.231 150.028,123.809 153.508,120.409 C157.717,116.282 160.306,113.125 161.035,110.94 C161.682,109.24 163.139,106.812 164.272,105.679 C165.405,104.546 166.377,103.008 166.377,102.361 C166.377,101.632 167.51,99.771 168.967,98.152 L171.557,95.238 L169.857,93.862 C168.319,92.729 165.244,88.359 162.573,83.745 C162.006,82.855 161.359,80.184 161.035,77.837 C160.711,75.166 159.983,73.143 158.931,72.171 C156.098,69.662 155.612,67.234 157.393,64.321 C158.85,62.054 159.012,60.598 158.688,50.885 C158.526,44.896 158.283,38.907 158.121,37.531 C157.878,35.507 158.202,35.022 160.306,34.455 C164.839,33.079 165.163,32.675 165.405,28.547 C165.648,24.419 167.186,22.315 169.29,23.124 C171.718,24.014 184.183,13.736 184.183,10.822 C184.183,9.122 185.72,8.475 189.605,8.718 C193.733,8.879 197.537,7.18 200.532,3.699 L202.636,1.11 L205.712,2.566 C209.597,4.428 218.176,3.78 220.28,1.433 C222.142,-0.59 223.194,-0.509 226.755,1.919 C228.455,3.052 230.397,3.78 231.126,3.538 C232.016,3.214 233.716,4.104 235.658,5.885 C237.439,7.423 240.757,10.417 243.104,12.522 C245.37,14.626 247.313,16.811 247.313,17.378 C247.313,17.944 247.718,19.401 248.284,20.534 C249.093,22.315 249.66,22.639 251.522,22.234 C254.84,21.586 256.054,22.396 258.239,26.604 C259.372,28.871 261.639,31.542 263.419,32.837 C265.2,34.051 267.061,36.236 267.628,37.531 C268.113,38.907 269.247,41.659 270.056,43.844 C271.594,47.486 271.594,47.81 270.299,50.562 C269.004,53.313 269.004,53.718 270.218,57.279 C271.027,59.303 271.594,61.974 271.594,63.188 C271.594,64.968 272.16,65.697 274.265,66.506 C277.907,68.125 279.202,69.824 282.358,77.19 L285.11,83.664 L289.4,84.069 C294.984,84.636 297.493,87.307 297.493,92.648 C297.493,95.967 297.898,96.695 301.621,100.418 C305.425,104.384 305.911,104.627 310.524,104.951 C313.842,105.193 316.351,104.87 318.375,104.06 C320.398,103.17 325.092,102.684 333.105,102.361 C344.355,101.956 349.778,102.603 352.287,104.546 C354.31,106.084 356.577,115.553 356.577,122.676 C356.577,129.07 356.739,129.636 358.843,131.579 C360.057,132.712 362.89,134.411 365.075,135.464 C370.579,137.892 379.401,144.124 385.634,150.032 C390.732,154.888 390.732,154.969 391.299,160.392 C391.865,165.41 392.189,166.219 394.859,168.647 C397.449,170.995 397.854,171.885 397.854,174.879 C397.854,178.36 397.53,178.926 388.385,193.899 C387.494,195.518 385.066,198.027 383.205,199.565 C379.643,202.398 379.077,202.479 373.816,200.941 C372.359,200.536 371.793,200.86 371.065,202.56 C370.256,204.34 370.336,205.069 372.197,207.74 C374.787,211.382 374.868,212.11 373.007,215.267 C372.279,216.481 371.874,217.776 372.197,218.099 C372.521,218.423 375.192,218.261 378.268,217.695 C382.233,216.966 384.419,216.966 386.038,217.533 C387.252,218.018 389.518,218.423 390.975,218.423 C393.241,218.423 394.941,219.475 400.202,224.089 C403.762,227.245 408.052,230.24 409.752,230.887 C413.232,232.02 415.66,235.663 417.279,242.137 C418.25,245.86 418.17,246.346 415.822,251.04 C414.041,254.683 413.313,257.272 413.313,260.348 C413.313,262.695 413.07,264.961 412.908,265.285 C412.665,265.609 413.557,268.037 414.851,270.708 C417.845,276.697 417.845,278.397 414.851,285.438 C410.724,295.232 411.451,299.845 419.464,312.876 C437.108,341.608 438.484,348.245 429.906,364.27 C427.396,368.883 425.372,373.335 425.372,374.144 C425.372,376.491 422.378,381.59 419.384,384.18 C415.985,387.175 407.162,390.089 401.416,390.17 C394.617,390.251 388.142,389.522 387.171,388.551 C386.604,387.984 385.066,387.58 383.69,387.58 C382.314,387.58 379.886,386.689 378.268,385.556 C376.649,384.423 374.302,383.533 373.169,383.533 C371.874,383.533 370.256,382.643 368.879,381.186 C367.665,379.891 365.803,378.596 364.67,378.272 C362.08,377.625 360.3,376.33 359.167,374.063 C358.276,372.526 350.992,367.75 350.426,368.398 C350.264,368.56 351.397,371.392 353.015,374.711 C355.605,379.972 355.848,381.186 355.363,384.828 C354.877,388.875 355.12,389.522 363.052,405.871 C367.908,415.826 372.926,427.562 375.192,434.28 C378.51,444.235 379.563,446.42 382.881,450.062 C384.904,452.41 387.657,455.08 388.871,455.971 C393.645,459.37 395.183,462.122 396.397,469.487 L397.611,476.448 L391.055,478.633 L384.5,480.818 L374.868,477.095 C363.294,472.563 362.404,472.805 363.78,479.928 C364.589,484.217 364.508,484.379 362.161,486.565 L359.814,488.75 L342.332,488.75 L324.85,488.75 L318.86,483.165 C312.466,477.176 311.981,477.014 301.54,476.205 C296.117,475.719 294.66,475.962 288.267,478.147 C279.687,481.061 278.878,481.142 277.016,479.038 C275.964,477.823 274.669,477.419 271.594,477.419 C269.408,477.419 267.547,477.176 267.466,476.852 C267.466,476.448 267.142,473.129 266.738,469.325 C266.171,463.174 266.252,462.122 267.79,459.451 C268.68,457.751 270.218,456.133 271.108,455.89 C272.079,455.566 274.588,453.704 276.774,451.762 C278.959,449.82 282.439,447.391 284.463,446.42 L288.186,444.64 L288.428,438.812 C288.59,435.575 288.267,432.175 287.781,431.285 C287.295,430.476 286.405,426.51 285.677,422.625 C285.029,418.74 283.815,414.127 282.925,412.508 C282.115,410.889 280.982,406.6 280.497,403.038 C279.121,392.76 277.502,385.233 276.531,384.018 C275.883,383.29 275.721,381.105 276.126,377.544 C276.693,371.878 275.883,369.774 273.212,369.774 C270.622,369.774 268.599,366.213 268.113,360.628 C267.466,354.072 265.523,348.973 263.257,348.245 C259.858,347.112 252.574,347.597 250.388,349.054 C246.827,351.401 244.642,350.511 243.185,346.059 C242.457,343.955 241.485,341.77 241,341.284 C239.867,340.151 228.698,344.36 228.698,345.978 C228.698,346.545 229.426,348.245 230.316,349.702 C232.34,353.02 232.421,358.928 230.559,361.68 C229.75,362.813 228.455,365.16 227.483,366.941 C226.108,369.693 225.298,370.34 222.061,371.15 C216.881,372.364 210.73,378.434 209.435,383.614 C208.14,388.713 206.44,390.089 201.503,389.846 C196.728,389.522 196.242,390.736 198.589,396.321 C200.046,399.882 200.127,400.934 199.399,413.884 C198.751,424.487 198.185,428.291 197.051,430.638 C195.433,433.875 194.947,442.131 196.323,443.021 C197.861,443.992 197.132,446.177 193.814,450.143 C190.658,453.785 189.12,457.751 188.715,463.255 C188.634,465.117 199.722,473.291 202.474,473.372 C205.388,473.372 206.116,475.153 205.874,482.032 L205.631,488.345 L200.775,490.126 C197.375,491.421 194.947,491.825 192.519,491.502 C189.605,491.178 189.039,491.34 189.039,492.473 C189.039,493.444 188.796,493.606 188.068,492.959 C187.501,492.473 179.165,491.34 169.614,490.369 C160.064,489.478 151.808,488.507 151.242,488.345 C150.675,488.183 149.704,486.726 149.056,485.108 C148.409,483.57 147.276,482.275 146.628,482.275 C145.171,482.275 143.553,484.946 144.119,486.484 C145.09,489.235 142.177,490.53 127.204,494.011 C118.948,495.953 111.421,498.058 110.369,498.786 C109.398,499.514 108.345,500 108.103,500 C107.86,499.919 103.166,499.029 97.581,497.977 z M109.155,456.537 C110.854,454.999 110.935,451.276 109.236,449.496 C108.426,448.686 106.889,448.282 105.351,448.444 C103.246,448.686 102.518,449.334 100.98,452.652 C98.39,457.994 98.957,459.046 103.813,458.318 C105.998,458.075 108.345,457.266 109.155,456.537 z M359.005,435.413 C359.005,434.442 356.658,432.58 356.091,433.147 C355.201,433.956 356.496,436.141 357.791,436.141 C358.438,436.141 359.005,435.818 359.005,435.413 z M201.503,374.468 C202.798,372.364 201.179,370.259 198.104,369.936 C195.999,369.693 195.514,370.017 195.028,371.797 C194.704,373.011 194.947,374.306 195.595,375.116 C196.89,376.653 200.37,376.249 201.503,374.468 z M408.376,359.657 C409.51,358.281 408.7,355.205 407.162,355.205 C406.11,355.205 403.52,358.605 403.52,360.061 C403.52,361.275 407.243,361.033 408.376,359.657 z M211.215,357.148 C211.944,356.5 212.753,354.962 212.996,353.748 C213.32,352.534 214.21,350.43 215.1,348.973 C217.043,345.655 216.476,345.331 207.735,344.684 C202.393,344.198 200.694,343.793 199.965,342.66 C199.561,341.932 198.508,340.475 197.78,339.504 C196.566,338.047 196.242,337.966 195.514,339.018 C193.976,341.365 194.623,342.984 197.537,344.198 C199.075,344.845 200.694,346.221 201.098,347.273 C201.503,348.326 202.636,351.239 203.607,353.829 C205.226,357.957 205.631,358.443 207.654,358.443 C208.949,358.443 210.568,357.876 211.215,357.148 z M209.92,338.128 C210.082,337.237 208.949,336.185 206.764,335.133 C203.041,333.272 201.989,333.433 201.989,335.781 C201.989,339.099 209.354,341.284 209.92,338.128 z M197.132,332.138 C197.132,328.982 196.89,328.496 195.514,328.496 C193.328,328.496 192.681,330.439 193.895,333.352 C195.433,337.076 197.132,336.428 197.132,332.138 z M276.855,290.375 C277.826,288.838 276.531,285.438 274.993,285.762 C272.565,286.248 272.727,291.266 275.155,291.266 C275.802,291.266 276.612,290.861 276.855,290.375 z M269.085,286.329 C270.461,282.444 270.218,280.825 267.547,275.24 C266.09,272.165 265.2,269.089 265.362,267.551 C265.523,265.285 265.281,264.961 263.338,264.719 C261.558,264.476 260.748,265.042 258.887,267.875 C256.459,271.517 256.378,271.598 254.273,275.807 L252.897,278.559 L256.378,282.201 C259.534,285.438 264.795,288.595 267.304,288.757 C267.79,288.838 268.599,287.704 269.085,286.329 z M216.152,280.744 C222.87,277.83 219.471,274.269 210.001,274.269 C203.526,274.269 201.422,272.893 198.832,267.228 C197.861,265.123 196.566,262.452 195.918,261.319 C195.271,260.186 194.542,258.325 194.3,257.111 C193.976,255.33 193.167,254.763 190.415,253.954 C185.154,252.578 177.627,248.936 176.817,247.398 C176.413,246.67 176.089,244.889 176.089,243.513 C176.089,241.976 175.361,240.357 174.308,239.224 C171.314,236.31 165.082,231.373 164.353,231.373 C163.949,231.373 162.573,232.344 161.359,233.558 C160.064,234.772 157.474,236.553 155.612,237.443 C152.86,238.738 151.727,240.033 149.542,244.323 C143.876,255.411 139.506,262.938 137.482,265.447 C135.135,268.199 135.783,268.118 125.828,266.499 C117.491,265.123 116.115,274.431 123.885,279.044 C128.337,281.634 129.551,281.31 132.303,276.373 C135.135,271.436 135.945,270.951 139.911,271.598 C142.581,272.003 142.824,271.841 145.171,267.713 C149.785,259.62 156.745,253.226 160.873,253.226 C165.001,253.226 168.157,255.168 171.638,259.701 C175.522,264.719 175.927,264.961 183.616,265.771 C189.201,266.418 192.924,269.251 197.213,276.131 C198.67,278.478 199.965,280.42 200.046,280.582 C200.127,280.744 201.26,280.339 202.555,279.611 C204.74,278.478 205.145,278.559 208.14,280.339 C212.106,282.686 211.701,282.686 216.152,280.744 z M301.135,264.152 C303.806,263.828 306.477,263.181 307.044,262.776 C307.61,262.29 308.015,260.024 308.015,257.272 C308.015,252.173 308.905,251.202 312.466,252.093 C314.085,252.497 314.975,251.769 318.456,246.994 C320.722,243.999 322.583,241.085 322.583,240.6 C322.583,240.114 320.965,239.224 319.022,238.657 C314.571,237.443 312.547,238.414 311.252,242.299 C310.443,244.646 309.796,245.213 306.963,246.022 C300.731,247.641 300.002,248.127 299.517,251.121 C298.788,254.683 297.331,255.977 291.828,257.839 C286.81,259.458 285.919,261.076 288.59,263.747 C289.966,265.123 291.018,265.366 293.285,265.042 C294.903,264.8 298.465,264.395 301.135,264.152 z" fill="#000000"/>
  </g>
</svg>
