<?xml version="1.0" encoding="UTF-8"?>
<!DOCTYPE svg PUBLIC "-//W3C//DTD SVG 1.1//EN" "http://www.w3.org/Graphics/SVG/1.1/DTD/svg11.dtd">
<svg version="1.1" xmlns="http://www.w3.org/2000/svg" xmlns:xlink="http://www.w3.org/1999/xlink" x="0" y="0" width="500" height="500" viewBox="0, 0, 500, 500">
  <g id="Layer_1">
    <path d="M230.266,0 C228.771,0 227.221,0 225.726,0.055 L225.726,42.742 L200.812,45.233 L200.812,81.331 C188.466,83.269 176.618,86.535 165.323,91.02 L146.278,60.458 C140.188,62.119 132.049,64.998 123.301,70.147 C114.222,75.518 107.578,81.497 103.093,86.203 C103.093,86.203 115.606,106.079 121.973,115.934 C112.062,123.796 102.982,132.71 95.01,142.509 L62.4,125.457 C57.915,130.274 52.6,136.973 47.728,145.665 C42.635,154.8 39.756,163.216 38.039,169.749 C48.171,175.839 58.303,181.984 68.49,188.074 C64.172,199.147 61.016,210.719 59.078,222.788 L21.153,225.944 C20.378,232.643 19.824,240.062 19.769,248.09 C19.714,257.557 20.267,266.194 21.153,273.835 C33.666,274.444 46.233,275.053 58.746,275.662 C60.684,288.672 64.116,301.185 68.822,313.088 L38.039,329.255 C39.424,335.013 41.749,342.266 45.791,350.017 C51.438,360.923 58.303,368.73 63.507,373.824 L93.737,356.273 C101.654,366.239 110.623,375.318 120.478,383.291 L102.207,413.963 C107.522,418.115 113.613,422.434 120.478,426.697 C129.558,432.289 138.195,436.607 145.946,439.984 C152.036,429.631 158.181,419.278 164.271,408.98 C175.953,413.631 188.244,417.063 201.034,419.112 L201.034,452.774 C206.404,455.044 214.432,457.424 223.733,456.096 C224.398,455.985 225.062,455.874 225.671,455.763 L225.671,499.945 C227.166,499.945 228.661,500 230.211,500 C368.235,500 480.128,388.108 480.128,250.083 C480.128,112.058 368.291,0 230.266,0 z M413.801,335.456 C407.987,347.968 400.901,359.816 392.762,370.778 L360.263,354.114 C355.502,356.827 350.353,362.252 344.484,367.401 C338.062,373.048 332.691,377.035 329.259,381.796 C331.529,385.948 333.799,390.156 336.069,394.364 C339.833,401.34 344.318,409.755 347.252,415.402 C335.57,423.707 323.002,430.794 309.659,436.497 L291.057,406.71 C284.192,408.094 276.939,410.309 269.465,412.247 C262.433,414.074 255.789,415.513 249.533,417.506 C249.533,428.912 249.533,440.317 249.533,451.722 C243.111,452.331 236.633,452.663 230.045,452.663 C229.325,452.663 228.661,452.663 227.941,452.663 C227.941,429.576 227.941,406.544 227.941,383.457 L223.512,384.62 L223.512,372.107 L219.304,372.107 L218.806,385.505 L208.231,385.505 L207.622,372.439 L203.248,373.048 L202.03,385.505 L188.964,385.505 L187.746,372.439 L181.324,372.495 L177.725,385.45 L170.251,385.45 C170.251,385.45 172.908,348.19 175.787,343.262 C179.607,336.784 155.468,349.352 147.883,343.151 C143.676,339.719 112.782,298.029 135.537,271.786 C141.184,265.253 113.28,216.643 128.007,173.569 C145.281,123.131 196.328,115.27 218.418,114.218 C218.418,114.218 220.245,114.107 223.512,114.107 C223.512,114.107 223.512,114.107 223.567,114.107 L223.567,312.922 C223.899,312.756 224.231,312.535 224.564,312.369 C226.391,313.42 228.052,314.472 229.27,315.69 C238.848,325.158 239.125,338.224 238.737,344.535 C238.682,345.421 237.63,345.754 237.076,345.089 C235.747,343.428 233.976,341.49 231.54,339.719 C228.938,337.836 226.501,336.618 224.564,335.954 C224.231,336.065 223.899,336.231 223.567,336.341 L223.567,372.107 L227.941,372.107 L228.439,385.505 L239.014,385.505 L239.623,372.439 L243.997,373.048 L245.215,385.505 L258.281,385.505 L259.499,372.439 L265.921,372.495 L269.52,385.45 L276.994,385.45 C276.994,385.45 274.337,348.19 271.458,343.262 C267.638,336.784 291.777,349.297 299.362,343.151 C303.569,339.719 334.463,298.029 311.708,271.786 C306.061,265.198 333.909,216.587 319.238,173.569 C301.964,123.131 250.917,115.27 228.827,114.218 L228.827,47.614 C229.27,47.614 229.713,47.614 230.156,47.614 C235.803,47.614 241.395,47.835 246.931,48.278 L249.644,81.165 C254.738,83.324 260.994,84.321 267.361,86.148 C276.33,88.75 284.026,91.352 291.168,92.238 C297.811,82.992 304.455,73.691 311.154,64.445 C322.947,69.594 334.186,75.85 344.65,83.047 L329.259,115.491 C333.19,120.695 338.671,125.955 344.761,131.824 C350.187,137.028 354.893,141.9 359.709,145.388 C371.17,140.737 382.63,136.031 394.146,131.381 C402.008,142.232 408.818,153.859 414.41,166.15 L382.409,185.251 C383.572,191.673 385.731,198.76 387.945,206.289 C390.492,214.816 392.817,222.401 395.696,228.989 C407.655,228.989 419.559,228.989 431.518,228.989 C432.237,235.965 432.625,242.996 432.625,250.138 C432.625,257.391 432.237,264.589 431.518,271.62 L396.25,271.62 C393.26,276.658 391.157,283.69 388.499,291.551 C385.343,300.963 382.907,308.825 382.409,315.358 C392.873,322.057 403.337,328.757 413.801,335.456 z M238.737,295.039 C244.716,291.939 252.025,288.672 260.606,286.015 C271.236,282.693 280.814,281.143 288.51,280.478 C288.898,280.423 289.23,280.478 289.617,280.644 C295.984,282.97 298.033,286.79 298.586,287.897 C302.185,295.427 297.535,307.496 285.299,315.192 C284.967,315.414 284.635,315.524 284.247,315.58 C278.655,316.355 264.925,317.462 250.917,309.6 C245.104,306.334 240.841,302.403 237.907,299.081 C236.855,297.752 237.187,295.814 238.737,295.039 z" fill="#000000"/>
    <path d="M210.335,344.591 C210.39,345.477 211.442,345.809 211.996,345.145 C213.325,343.484 215.096,341.546 217.532,339.774 C219.692,338.224 221.795,337.117 223.512,336.397 L223.512,313.033 C222.072,313.863 220.799,314.805 219.802,315.801 C210.224,325.213 209.947,338.224 210.335,344.591 z" fill="#000000"/>
    <path d="M208.84,295.039 C202.861,291.939 195.553,288.672 186.971,286.015 C176.396,282.693 166.818,281.143 159.067,280.478 C158.68,280.478 158.347,280.534 157.96,280.644 C151.537,282.97 149.489,286.79 148.991,287.897 C145.392,295.427 150.043,307.441 162.223,315.192 C162.5,315.414 162.887,315.524 163.275,315.58 C168.867,316.355 182.652,317.462 196.604,309.6 C202.418,306.334 206.681,302.403 209.615,299.081 C210.612,297.752 210.335,295.814 208.84,295.039 z" fill="#000000"/>
  </g>
</svg>
