<?xml version="1.0" encoding="UTF-8"?>
<!DOCTYPE svg PUBLIC "-//W3C//DTD SVG 1.1//EN" "http://www.w3.org/Graphics/SVG/1.1/DTD/svg11.dtd">
<svg version="1.1" xmlns="http://www.w3.org/2000/svg" xmlns:xlink="http://www.w3.org/1999/xlink" x="0" y="0" width="500" height="500" viewBox="0, 0, 500, 500">
  <g id="layer101">
    <path d="M262.819,499.536 C261.001,499.245 258.237,498.373 256.782,497.427 C253.582,495.609 251.037,495.391 249.727,496.845 C248.127,498.809 244.273,499.609 240.854,498.736 C239.109,498.227 237.218,497.354 236.49,496.773 C235.472,495.827 235.036,495.827 233.072,496.845 C230.454,498.227 225.799,498.3 224.053,496.991 C223.181,496.336 221.29,496.118 217.726,496.409 C213.871,496.627 211.762,496.409 209.216,495.463 C205.58,494.082 201.725,490.445 201.725,488.481 C201.725,487.827 201.071,486.736 200.271,486.008 C199.471,485.281 198.816,483.754 198.816,482.663 C198.816,481.426 198.161,480.117 196.998,479.245 C195.761,478.226 195.18,477.063 195.18,475.608 C195.18,474.153 194.67,472.99 193.652,472.262 C191.834,471.026 189.361,467.171 189.361,465.644 C189.361,465.062 188.706,464.189 187.906,463.68 C187.106,463.171 186.452,462.226 186.452,461.498 C186.452,460.844 186.088,460.044 185.652,459.753 C185.07,459.389 185.215,459.025 186.015,458.589 C187.616,457.644 187.47,456.625 185.07,453.062 C183.834,451.316 183.106,449.425 183.324,448.625 C183.543,447.898 183.106,446.225 182.452,444.916 C181.215,442.443 180.27,442.37 175.106,443.825 C172.488,444.625 169.651,441.497 169.215,437.279 C168.706,432.406 167.251,430.806 163.905,431.533 C162.524,431.824 160.705,431.97 159.905,431.97 C157.941,431.897 155.905,429.206 155.905,426.733 C155.905,423.824 154.305,422.733 151.468,423.751 C148.268,424.842 147.396,424.769 145.723,423.097 C144.777,422.151 144.268,420.697 144.268,418.806 C144.268,414.369 142.159,412.842 138.159,414.369 C136.05,415.169 134.74,417.569 133.359,423.097 C132.268,427.897 129.068,434.37 126.667,436.988 C125.649,438.006 122.958,439.679 120.558,440.552 C116.776,442.079 114.958,442.225 105.721,442.297 C99.903,442.297 93.648,442.007 91.757,441.716 C88.484,441.134 88.266,441.207 87.611,442.952 C85.429,448.552 81.211,456.334 78.956,458.953 C68.119,470.953 57.501,467.317 53.064,450.08 C51.9,445.57 50.155,425.86 49.428,408.914 C48.7,392.404 48.046,384.113 47.464,382.949 C47.1,382.295 45.937,381.277 44.846,380.767 C43.536,380.186 42.736,379.022 42.445,377.64 C42.155,376.404 41.355,374.513 40.7,373.422 C39.027,370.876 39.391,364.767 41.645,359.021 C43.246,354.875 43.9,354.003 49.719,348.984 L53.064,346.075 L58.81,346.511 C64.41,346.948 64.774,347.021 68.556,350.221 L72.483,353.566 L72.047,358.439 C71.61,363.821 70.956,365.494 67.828,369.131 C65.137,372.185 65.065,375.313 67.538,390.441 C69.938,405.423 73.138,414.151 78.738,420.769 C80.92,423.315 82.229,424.333 82.738,423.824 C83.32,423.242 83.829,418.369 84.12,410.005 C84.12,408.987 83.902,407.605 83.611,406.95 C83.175,406.005 83.32,405.641 84.047,405.641 C86.52,405.641 88.411,401.205 88.411,395.314 C88.411,392.913 88.629,392.55 90.157,392.55 C91.684,392.55 91.902,392.186 91.902,390.15 C91.902,388.55 92.484,387.168 93.575,386.222 C95.757,384.186 103.394,380.186 105.139,380.186 C105.866,380.186 107.394,379.749 108.485,379.167 C109.576,378.658 111.903,377.931 113.721,377.64 C115.54,377.349 117.576,376.767 118.303,376.404 C119.54,375.749 119.54,375.676 118.085,373.858 C116.194,371.458 116.194,368.112 118.085,366.949 C119.249,366.221 120.122,364.33 119.394,364.112 C119.249,364.112 116.703,363.894 113.721,363.749 C107.103,363.239 105.721,362.294 105.721,358.076 C105.721,356.403 105.212,354.366 104.63,353.494 C103.248,351.603 99.903,341.129 99.903,338.802 C99.903,337.784 99.03,333.129 98.012,328.329 C96.339,321.056 96.193,319.31 96.921,316.983 C97.357,315.456 97.721,311.674 97.721,308.619 C97.721,303.528 97.866,302.873 99.83,300.909 C101.721,298.946 101.939,298 102.739,290.509 C103.175,286.072 103.757,281.054 103.975,279.454 C104.921,272.108 105.503,257.998 105.066,254.58 C104.63,251.598 103.903,249.998 101.575,247.234 C99.903,245.271 97.575,242.143 96.412,240.252 C94.23,236.834 94.23,236.761 95.321,233.561 C96.193,230.943 96.266,229.852 95.611,228.47 C94.23,225.415 94.666,224.033 97.866,220.979 C100.921,218.069 101.139,217.997 106.085,217.997 C110.085,217.997 111.976,217.56 115.176,216.033 C117.358,215.015 119.685,213.924 120.267,213.633 C121.14,213.196 121.285,211.96 121.14,207.669 L120.849,202.214 L125.576,198.432 C128.195,196.396 130.522,194.214 130.74,193.559 C131.613,191.377 131.177,188.832 129.577,186.65 C128.122,184.686 128.049,184.25 128.922,181.05 C130.158,176.395 131.395,174.649 134.013,174.14 C137.359,173.413 138.813,170.14 137.65,165.703 C136.559,161.412 137.213,158.794 139.904,156.03 C141.868,154.139 142.377,153.921 145.214,154.358 C147.687,154.721 148.705,154.576 150.087,153.412 C151.614,152.176 151.687,151.812 150.887,150.866 C150.378,150.212 148.996,149.63 147.759,149.485 C146.523,149.339 145.286,148.757 144.995,148.175 C144.705,147.594 143.832,145.775 142.959,144.103 C140.995,140.248 140.632,134.866 142.304,133.048 C143.032,132.32 143.541,130.502 143.541,128.975 C143.541,125.993 140.268,114.574 138.741,112.174 C137.868,110.865 137.141,107.737 135.541,98.355 C134.813,94.064 128.631,75.736 127.467,74.281 C126.958,73.699 125.213,72.899 123.467,72.463 C121.649,72.027 119.031,70.499 117.576,69.19 C116.121,67.808 114.594,66.717 114.23,66.717 C112.994,66.717 108.63,69.699 107.903,71.081 C107.467,71.808 107.176,74.209 107.176,76.318 C107.176,79.3 107.757,81.263 109.794,85.336 L112.485,90.5 L109.648,95.882 C106.085,102.646 104.194,103.592 100.266,100.537 C97.793,98.719 97.575,98.282 97.939,95.664 C98.23,93.409 98.012,92.464 96.775,91.009 C95.393,89.409 94.884,89.264 93.211,89.918 C91.539,90.573 90.884,90.427 89.429,89.046 C87.393,87.227 87.102,86.064 87.829,83.373 C88.702,80.391 86.593,76.9 83.975,76.9 C80.556,76.9 79.829,75.3 80.265,68.899 C80.411,66.79 79.465,64.317 77.065,61.117 C76.12,59.881 75.174,57.262 74.883,55.299 C74.665,53.408 73.574,49.044 72.483,45.698 C70.883,40.825 70.156,39.516 68.628,38.934 L66.81,38.207 L69.283,36.098 C72.41,33.552 77.72,31.661 82.302,31.661 C84.193,31.588 86.52,31.079 87.466,30.425 C89.066,29.407 89.284,29.407 90.011,30.716 C90.448,31.516 91.684,33.043 92.775,34.134 C97.139,38.716 106.303,34.789 106.448,28.388 C106.448,27.516 107.394,26.134 108.63,25.261 C111.685,23.079 113.212,19.879 112.558,17.042 C112.267,15.733 111.976,13.915 111.83,12.897 C111.758,11.879 111.103,9.042 110.376,6.569 C108.921,1.042 109.503,-0.195 113.794,0.023 C116.267,0.096 116.776,0.387 117.067,1.987 C117.358,3.005 117.94,5.115 118.522,6.715 C121.285,14.933 122.231,16.897 123.904,17.77 C125.722,18.715 129.649,18.424 132.049,17.188 C133.504,16.388 142.086,17.188 142.086,18.061 C142.086,19.297 136.05,23.079 132.195,24.17 C130.013,24.825 128.049,25.77 127.831,26.352 C127.54,26.934 127.758,29.043 128.267,31.079 C128.995,34.134 129.649,35.08 132.195,36.825 C136.486,39.807 137.868,41.553 138.813,45.407 L139.686,48.898 L143.977,49.48 C146.305,49.771 149.359,49.917 150.668,49.771 C151.905,49.698 152.996,49.771 152.996,50.062 C152.996,51.008 146.086,54.935 143.104,55.735 C137.504,57.19 138.595,60.244 146.232,64.608 C155.105,69.699 159.832,80.463 155.978,86.864 C155.178,88.1 153.069,90.137 151.25,91.373 C147.905,93.7 145.723,96.755 145.723,99.228 C145.723,99.955 146.741,101.482 147.977,102.573 C149.941,104.319 150.159,104.828 149.723,107.301 C149.432,109.192 149.868,112.392 151.25,117.629 C154.16,129.12 154.669,129.775 160.633,130.211 C162.742,130.356 162.814,130.284 163.251,126.211 C163.542,123.374 164.415,121.047 165.869,118.792 C167.106,116.974 169.142,112.828 170.524,109.628 C172.269,105.337 173.724,103.083 175.688,101.41 C177.215,100.101 179.833,97.919 181.433,96.537 C183.106,95.155 186.67,92.828 189.288,91.373 C193.943,88.9 194.089,88.682 194.452,85.555 C194.961,81.263 195.325,80.827 199.543,79.445 C203.398,78.136 206.089,75.518 206.089,72.899 C206.089,70.645 208.707,68.536 213.58,66.717 C216.49,65.626 218.599,65.263 220.272,65.554 C222.453,65.99 223.181,65.626 227.981,61.481 C230.89,58.935 235.254,55.008 237.727,52.753 C240.927,49.698 242.963,48.389 245.364,47.88 C249.655,46.862 254.018,46.862 256.855,47.88 C258.819,48.535 259.691,48.389 263.328,46.571 C265.655,45.48 268.928,43.153 270.601,41.48 C272.347,39.807 274.674,37.916 275.838,37.334 C280.929,34.643 285.074,26.206 284.274,20.17 C283.911,17.624 284.056,16.024 284.856,14.57 C285.438,13.479 286.384,11.442 286.82,10.133 C287.911,7.297 289.584,6.278 292.711,6.496 C294.093,6.569 295.184,6.278 295.402,5.769 C295.766,4.605 297.511,4.678 298.239,5.915 C298.53,6.424 299.839,7.806 301.148,8.824 C303.33,10.642 303.621,10.715 305.221,9.624 C307.257,8.315 307.912,8.751 307.912,11.442 C307.912,12.679 308.857,14.424 310.53,16.17 C313.076,18.861 313.148,18.933 316.058,18.061 C318.53,17.261 319.185,17.333 320.058,18.206 C320.93,19.006 320.93,19.588 320.349,20.752 C319.403,22.497 320.276,23.37 323.185,23.37 C324.712,23.443 325.003,23.734 324.785,25.261 C324.131,31.298 324.276,36.243 325.149,36.971 C326.894,38.498 326.167,41.043 323.185,43.734 C321.585,45.189 319.694,46.353 318.967,46.353 C318.167,46.353 317.003,47.007 316.276,47.88 C315.185,49.044 314.385,49.262 312.203,48.898 C308.348,48.244 306.093,49.626 296.348,58.79 C294.384,60.681 290.675,63.226 287.984,64.463 C281.947,67.299 281.656,68.826 286.82,71.008 C290.966,72.827 291.547,73.627 292.275,79.081 C293.002,84.245 295.111,89.046 298.02,92.173 C300.348,94.646 300.493,95.009 300.857,102.064 C301.221,108.465 301.148,109.628 299.911,111.519 C298.966,112.901 298.602,114.356 298.82,115.81 C299.111,117.338 298.457,119.738 296.566,123.811 C295.111,127.011 293.729,130.647 293.438,131.811 C293.147,133.048 291.693,136.393 290.238,139.302 C287.911,144.103 287.256,147.23 287.474,152.03 C287.547,152.757 288.711,153.994 290.093,154.794 C294.238,157.267 294.457,158.43 291.911,163.449 C289.075,168.976 287.184,170.358 283.402,169.34 C281.874,168.976 278.674,168.249 276.274,167.813 C267.983,166.14 264.564,164.976 261.001,162.358 C257.219,159.74 255.473,159.158 255.619,160.758 C255.691,161.994 259.91,169.413 262.237,172.322 C265.073,175.886 267.11,186.141 265.874,190.796 C264.71,195.087 264.783,196.541 266.164,199.305 C267.837,202.505 268.492,202.796 272.128,202.36 C273.874,202.069 276.274,202.287 277.656,202.796 C279.692,203.523 280.783,203.523 283.038,202.796 C285.365,201.996 286.384,201.996 288.565,202.796 C290.602,203.523 291.911,203.596 294.238,202.941 C296.857,202.214 297.657,202.287 300.057,203.523 C301.948,204.469 302.966,205.56 303.184,206.942 C303.984,210.433 304.639,211.087 307.621,210.942 C309.294,210.796 311.039,210.069 312.13,209.124 C313.73,207.596 314.53,207.451 322.822,207.451 C330.385,207.451 331.986,207.233 333.222,206.142 C335.186,204.323 338.022,205.196 340.422,208.251 C342.677,211.233 344.568,211.378 345.877,208.76 C346.386,207.669 347.404,206.651 348.132,206.505 C349.659,206.214 352.277,208.251 352.277,209.705 C352.277,210.215 353.296,211.451 354.605,212.542 C356.714,214.287 357.223,214.433 361.005,213.997 C364.932,213.56 365.296,213.633 367.769,215.742 C369.951,217.706 370.824,217.997 374.315,217.997 C376.715,217.997 378.606,218.36 379.115,218.942 C379.551,219.524 379.988,223.815 380.06,229.415 C380.279,238.798 380.279,238.87 378.242,241.343 C377.151,242.725 374.969,245.707 373.442,247.962 L370.678,252.107 L370.533,272.835 C370.387,295.6 370.46,296.036 374.824,299.964 C376.86,301.782 376.933,301.855 375.915,304.4 C374.897,306.728 374.969,307.092 376.278,309.273 C377.806,311.746 378.242,318.001 377.078,320.91 C376.715,321.783 376.86,323.456 377.588,325.129 C379.115,329.056 377.588,338.147 375.115,340.111 C372.933,341.857 369.951,348.548 368.933,354.221 C368.496,356.694 367.987,359.457 367.842,360.33 C367.623,361.421 366.533,362.294 364.278,363.167 C360.569,364.549 360.205,365.349 362.751,366.367 C365.005,367.24 366.969,370.149 366.387,371.749 C366.096,372.403 364.642,373.64 363.114,374.44 C359.332,376.331 358.75,378.658 361.296,381.713 C364.351,385.277 363.696,387.822 359.478,388.913 C357.805,389.422 356.132,390.441 355.405,391.604 C354.241,393.35 354.241,393.568 355.768,396.259 C356.787,398.005 357.368,400.259 357.368,402.441 C357.368,409.132 365.951,440.916 370.024,449.28 C372.205,453.789 372.424,454.007 375.187,454.225 C377.006,454.371 379.115,453.934 381.079,452.989 C383.77,451.607 384.351,451.534 386.897,452.407 C388.497,452.989 390.897,453.28 392.352,453.134 C394.097,452.916 395.697,453.207 396.934,454.007 C398.316,454.953 399.625,455.171 401.952,454.807 C405.516,454.225 411.334,455.316 415.917,457.353 C419.48,458.953 420.426,459.898 420.789,462.371 C421.226,465.862 422.753,465.353 433.954,458.08 C441.518,453.207 444.645,451.971 449.809,451.898 C455.409,451.825 456.573,452.48 459.118,457.644 C460.864,461.062 460.718,464.844 458.827,467.899 C457.518,469.935 449.882,473.862 445.954,474.444 C441.445,475.172 436.136,478.008 431.844,482.008 C428.135,485.499 424.571,487.099 420.28,487.099 C419.044,487.099 416.935,487.463 415.553,487.899 C414.171,488.336 402.534,488.918 389.734,489.209 L366.46,489.718 L362.532,491.754 C358.823,493.645 358.314,493.718 352.714,493.209 C345.877,492.554 344.713,492.7 341.804,494.154 C340.35,494.882 337.586,495.245 333.222,495.245 C329.076,495.245 325.803,495.609 324.131,496.263 C322.094,497.136 320.858,497.209 317.876,496.554 C314.894,495.973 314.021,495.973 313.076,496.845 C310.966,498.736 304.857,499.609 293.947,499.464 C284.493,499.391 282.747,499.173 278.747,497.573 C272.928,495.318 271.983,495.391 270.092,498.009 C268.492,500.264 268.274,500.336 262.819,499.536 z M394.388,471.899 C396.425,470.59 394.316,469.644 389.37,469.644 C384.57,469.644 382.97,470.299 383.915,471.826 C384.497,472.699 393.006,472.772 394.388,471.899 z M71.029,451.825 C72.483,450.371 74.811,446.807 76.265,443.898 C77.647,440.916 79.32,438.297 79.902,438.079 C81.138,437.643 81.356,436.188 80.193,436.188 C78.956,436.188 70.447,427.315 68.992,424.551 C68.338,423.169 67.319,421.497 66.81,420.915 C66.228,420.333 65.137,417.86 64.265,415.46 C62.374,410.369 61.646,409.423 60.628,410.442 C60.119,410.951 60.264,416.187 60.919,426.442 C62.374,446.879 64.046,454.371 67.247,454.371 C67.901,454.371 69.574,453.207 71.029,451.825 z M329.076,449.28 C329.876,448.843 331.258,447.17 332.276,445.643 C334.386,442.297 334.677,438.152 333.004,434.224 C332.422,432.842 331.913,430.733 331.913,429.57 C331.913,426.442 330.458,423.824 328.64,423.824 C326.531,423.824 325.367,425.206 325.367,427.824 C325.367,430.37 323.622,433.279 322.094,433.279 C320.567,433.279 315.112,440.988 314.676,443.898 C314.239,446.37 314.312,446.37 317.076,446.37 C318.821,446.37 321.076,447.098 322.822,448.189 C326.094,450.152 327.04,450.371 329.076,449.28 z M301.73,446.661 C302.675,445.716 302.748,444.625 302.384,440.988 C301.802,435.388 301.002,433.861 298.966,434.152 C297.657,434.297 297.293,435.024 296.929,437.425 C296.711,439.097 295.984,441.134 295.329,441.861 C293.729,443.607 293.729,446.079 295.402,447.025 C297.293,448.189 300.421,447.97 301.73,446.661 z M115.176,431.897 C120.049,430.879 121.722,428.988 123.976,422.006 C124.849,419.242 126.231,416.187 127.031,415.314 C128.558,413.569 128.486,410.805 126.74,403.823 C125.795,399.896 125.722,398.005 126.449,393.932 C127.031,391.022 126.158,390.004 121.794,388.259 C118.594,387.022 115.758,387.022 111.903,388.113 C110.303,388.622 107.976,389.277 106.667,389.568 C105.43,389.932 102.375,391.75 99.975,393.641 C93.575,398.659 92.12,402.587 91.32,417.278 C90.957,423.46 90.811,428.915 90.957,429.279 C92.12,432.697 104.848,434.079 115.176,431.897 z M259.91,129.193 C261.437,126.284 261.364,124.174 259.691,122.138 C258.819,121.047 257,122.283 257,123.956 C257,124.538 256.491,126.138 255.837,127.52 C253.437,132.611 257.364,134.284 259.91,129.193 z M273.292,94.791 C276.71,91.155 278.165,86.718 278.601,78.645 C279.11,70.717 276.783,69.263 269.801,73.19 C267.765,74.354 265.219,75.445 264.201,75.736 C263.11,75.954 261.728,77.045 261.001,78.136 C260.273,79.3 258.746,80.9 257.655,81.845 C254.164,84.682 255.473,89.991 259.691,89.991 C261.728,89.991 264.273,92.391 264.273,94.282 C264.273,96.246 266.237,97.991 268.492,97.991 C269.728,97.991 271.256,96.973 273.292,94.791 z M149.723,84.536 C151.759,82.573 151.905,81.627 150.741,78.572 C149.287,74.718 142.595,68.899 139.686,68.899 C137.722,68.899 137.65,71.227 139.468,73.918 C140.413,75.372 141.577,78.209 142.086,80.172 C143.541,86.355 146.377,87.955 149.723,84.536 z" fill="#000000"/>
  </g>
</svg>
