<?xml version="1.0" encoding="UTF-8"?>
<!DOCTYPE svg PUBLIC "-//W3C//DTD SVG 1.1//EN" "http://www.w3.org/Graphics/SVG/1.1/DTD/svg11.dtd">
<svg version="1.1" xmlns="http://www.w3.org/2000/svg" xmlns:xlink="http://www.w3.org/1999/xlink" x="0" y="0" width="500" height="500" viewBox="0, 0, 500, 500">
  <g id="layer101">
    <path d="M87.55,369.39 C86.439,369.057 85.521,368.356 85.53,367.859 C85.539,367.424 85.06,366.544 84.512,365.975 C83.722,365.089 82.793,364.946 79.556,365.255 C76.195,365.561 75.205,365.355 72.806,364.189 C71.084,363.285 69.802,362.142 69.451,361.078 C66.86,353.883 63.173,348.716 59.956,348.03 C57.358,347.419 53.428,341.999 53.004,338.325 C52.58,334.651 49.294,331.169 44.911,329.777 C42.935,329.179 40.724,327.893 39.384,326.562 C37.433,324.659 37.196,324.095 37.485,322.051 C38.205,317.095 35.187,312.624 29.881,310.779 C25.932,309.397 22.648,305.853 23.19,303.564 C23.605,301.461 22.243,298.079 20.049,295.923 C19.136,294.973 16.31,293.364 13.785,292.257 C7.995,289.781 6.776,288.577 6.659,285.096 C6.466,279.128 4.021,270.879 1.705,268.597 C0.12,267.074 -0.053,266.387 0.011,263.22 C0.069,260.301 0.335,259.375 1.408,258.526 C2.607,257.618 3.631,256.085 6.464,251.047 C6.981,250.064 8.188,248.721 9.135,247.994 C10.269,247.147 11.234,245.489 11.897,243.389 C12.891,240.303 13.271,239.876 17.045,237.59 C19.307,236.268 21.326,234.693 21.522,234.2 C21.719,233.707 21.566,232.026 21.16,230.527 C20.467,227.904 20.538,227.47 22.085,224.644 C23.631,221.878 23.706,221.197 23.265,218.393 C22.594,214.652 22.057,213.522 19.744,211.116 C18.101,209.406 16.682,205.774 16.729,203.415 C16.74,202.856 16.325,201.854 15.843,201.098 C14.635,199.335 15.106,197.543 18.324,191.891 C20.127,188.696 21.335,187.291 22.65,186.758 C23.714,186.345 24.535,185.678 24.605,185.306 C24.675,184.935 24.84,182.826 25.008,180.655 C25.265,177.119 25.588,176.442 27.298,174.799 C28.437,173.765 30.599,171.261 32.13,169.241 C34.747,165.752 34.877,165.444 34.565,162.393 C34.255,159.219 34.32,159.096 36.853,156.661 C39.64,153.983 41.71,152.968 44.07,153.014 C45.001,153.033 46.387,152.066 47.976,150.296 C55.472,141.934 56.04,141.51 60.221,140.537 C63.592,139.735 75.936,134.45 82.151,131.157 C85.479,129.359 86.846,129.386 89.165,131.482 C92.581,134.656 93.072,138.083 90.421,140.205 C89.853,140.628 89.404,141.365 89.395,141.8 C89.386,142.234 88.604,144.082 87.637,145.865 C86.348,148.2 85.813,150.116 85.702,152.598 C85.665,154.461 85.245,156.814 84.855,157.738 C84.4,158.723 84.061,160.145 84.044,161.014 C84.012,162.629 86.569,168.395 87.611,169.099 C88.592,169.74 88.328,170.543 86.808,172.003 C84.022,174.619 81.852,177.558 81.83,178.676 C81.807,179.794 86.107,182.24 91.846,184.217 C95.054,185.337 95.053,185.399 95.489,191.621 C95.823,196.721 98.151,198.383 101.431,195.839 L102.945,194.688 L101.572,191.865 C100.261,189.106 100.362,187.12 101.793,187.024 C103.349,186.869 104.955,187.335 106.241,188.231 C107.039,188.744 108.275,189.079 109.085,188.97 C110.891,188.758 111.304,186.716 110.063,183.523 C109.354,181.645 109.306,180.961 110.006,180.105 C110.709,179.125 111.02,179.131 114.974,180.204 C119.98,181.545 120.357,181.304 119.948,176.886 C119.747,174.52 119.883,173.902 120.758,173.609 C122.011,173.136 123.363,173.847 125.308,175.997 C127.983,178.971 130.304,177.837 130.388,173.613 C130.416,172.185 130.634,170.574 130.832,170.019 C131.419,168.602 133.838,168.836 135.852,170.616 C138.172,172.649 140.202,173.684 140.956,173.264 C141.332,173.085 141.602,172.035 141.622,171.041 C141.711,166.507 144.714,165.449 148.314,168.751 C149.412,169.766 150.886,170.666 151.568,170.679 C153.307,170.713 155.392,165.847 155.48,161.438 C155.579,156.408 156.081,156.169 162.372,158.468 C165.271,159.52 170.155,160.735 173.19,161.168 C182.051,162.338 218.57,162.876 225.92,161.904 C232.959,160.987 237.991,160.963 239.34,161.859 C240.015,162.308 240.767,161.95 242.35,160.49 C243.806,159.09 244.62,158.734 245.233,159.181 C248.904,162.049 248.099,161.909 263.883,161.663 C272.087,161.515 281.474,161.205 284.709,160.958 C290.681,160.58 305.258,161.739 306.914,162.765 C307.956,163.469 307.802,165.02 306.675,165.432 C305.423,165.904 305.446,167.893 306.678,168.414 C307.294,168.675 307.469,169.238 307.205,170.04 C306.742,171.459 307.764,173.157 309.13,173.184 C309.565,173.193 310.82,172.597 311.89,171.872 C313.214,170.905 314.025,170.734 314.576,171.118 C318.554,174.179 318.183,174.109 321.311,172.991 C324.188,171.992 324.25,171.993 325.713,173.451 C327.053,174.782 328.043,174.989 333.006,175.335 C338.775,175.761 346.625,174.674 347.084,173.44 C347.152,173.131 347.664,172.395 348.111,171.784 C348.94,170.682 349.189,170.687 352.896,171.692 C356.666,172.699 356.977,172.705 358.924,171.625 C361.687,170.127 361.936,170.132 364.741,172.735 L367.12,174.956 L372.22,174.685 C375.019,174.492 378.073,173.993 379.015,173.515 C380.394,172.859 381.326,172.877 383.612,173.482 C387.937,174.686 401.678,174.151 403.321,172.754 C404.206,171.964 405.703,171.684 408.996,171.687 C411.419,171.673 414.342,171.482 415.465,171.256 C416.775,170.971 417.767,171.115 418.378,171.625 C418.989,172.134 420.29,172.284 422.283,172.075 C423.901,171.92 425.514,172.015 425.944,172.272 C427.6,173.361 428.529,179.716 427.314,181.493 C426.673,182.475 421.783,184.739 420.354,184.71 C419.672,184.696 418.92,184.992 418.727,185.299 C418.534,185.668 417.535,185.896 416.542,185.877 C412.94,185.806 411.761,188.826 413.924,192.534 C415.068,194.421 415.374,194.613 417.8,194.475 C420.101,194.334 420.541,194.095 421.699,192.067 C423.245,189.303 423.558,189.185 426.716,189.744 C428.759,190.095 429.371,190.542 430.021,192.232 C431.09,194.677 432.025,194.571 432.885,191.917 C433.945,188.583 435.279,188.264 436.666,193.51 C437.36,196.071 438.886,196.323 439.01,193.219 C439.141,189.742 440.33,189.269 441.263,192.393 C442.66,197.08 444.582,197.305 444.671,192.834 C444.73,189.853 446.04,189.568 447.104,192.323 C448.346,195.454 449.901,195.36 449.965,192.131 C450.027,189.026 451.688,188.608 453.014,191.882 C454.43,195.374 454.43,196.119 455.553,192.305 C456.325,189.683 457.78,188.78 458.611,191.619 C460.144,196.864 461.118,193.657 461.162,191.422 C461.175,190.739 461.504,189.813 461.947,189.387 C462.961,188.413 467.182,188.559 468.032,189.57 C468.335,189.949 469.121,191.021 469.787,191.903 L470.876,193.416 L477.361,192.178 C480.916,191.503 486.718,190.252 490.214,189.389 C497.769,187.489 498.138,187.683 499.39,193.485 C500.698,199.537 499.772,211.819 497.848,214.825 C496.567,216.788 495.324,216.763 489.521,214.971 C484.828,213.511 474.436,211.255 472.138,211.209 C471.766,211.202 470.634,211.863 469.626,212.588 C468.551,213.499 466.612,214.206 464.744,214.417 C462.004,214.735 461.51,214.601 460.541,213.34 L459.647,209.287 L458.429,213.297 C457.217,214.889 455.349,215.209 455.193,213.544 C454.554,206.678 454.406,212.535 453.461,213.199 C451.321,214.586 450.115,214.9 449.848,213.686 C448.716,208.541 447.846,209.784 446.807,213.502 C446.417,214.902 446.076,214.712 444.989,213.138 L443.125,209.535 L442.132,213.386 C440.605,215.157 439.366,215.34 439.274,213.759 C438.835,206.23 437.062,213.06 435.559,213.714 C434.118,214.306 433.852,211.722 433.187,210.778 C432.221,209.391 430.997,211.946 429.913,213.353 C429.212,214.209 428.9,214.265 427.857,213.623 C427.12,213.173 425.762,212.774 424.706,212.753 C423.402,212.727 422.357,212.147 421.203,210.82 C419.079,208.292 417.337,208.382 413.863,211.295 C410.516,214.024 408.335,214.354 405.889,212.379 C403.933,210.787 397.975,210.482 396.767,211.887 C395.685,213.171 389.91,216.163 387.663,216.677 C384.981,217.245 380.514,220.076 380.428,221.255 C380.417,221.814 380.958,222.757 381.629,223.391 C383.458,225.105 383.149,228.143 380.929,230.459 C379.343,232.105 378.655,232.34 375.923,232.286 C374.122,232.25 372.065,232.582 371.31,233.064 C370.304,233.666 366.572,233.902 358.121,233.983 C351.597,234.04 345.814,234.298 345.189,234.472 C344.125,234.885 343.656,236.616 344.587,236.635 C345.269,236.71 351.604,243.048 352.686,244.871 C353.529,246.255 354.085,246.39 358.244,246.597 C362.092,246.797 363.267,247.069 365.41,248.602 C367.127,249.755 368.219,251.081 368.687,252.519 C369.154,254.02 369.944,254.905 371.423,255.556 C374.071,256.727 375.934,256.763 376.392,255.592 C376.848,254.545 377.769,255.06 383.46,259.46 C385.722,261.306 387.69,262.277 389.549,262.563 C391.531,262.851 392.7,263.433 393.547,264.568 C394.275,265.452 395.067,266.213 395.44,266.221 C396.869,266.249 401.097,269.191 403.346,271.658 C404.683,273.176 406.642,274.644 407.63,274.912 C408.681,275.181 410.522,276.336 411.804,277.479 C413.022,278.684 414.308,279.642 414.681,279.649 C416.047,279.676 418.506,284.136 418.516,286.745 C418.529,289.231 418.71,289.483 422.327,291.915 C427.107,295.241 427.107,295.241 426.217,296.279 C425.581,297.012 425.822,297.389 427.79,298.423 C431.415,300.42 432.503,301.933 431.956,304.469 C431.341,307.315 433.142,310.456 435.919,311.381 C437.338,311.907 438.314,312.796 439.027,314.425 C439.802,316.056 440.717,316.944 442.259,317.471 C444.603,318.326 445.808,320.213 446.294,323.888 C446.51,325.57 446.1,327.426 444.601,330.999 C440.943,339.997 440.073,343.148 440.436,346.758 C440.942,352.546 439.551,353.761 424.761,360.239 C421.188,361.846 419.614,362.933 418.904,364.223 C416.971,367.726 414.599,368.3 400.493,368.455 C393.471,368.564 384.15,368.69 379.676,368.725 C375.263,368.824 360.537,368.967 347.055,369.01 C333.573,369.053 313.689,369.218 302.939,369.377 C282.557,369.594 241.177,369.829 214.402,369.795 C169.175,369.767 135.252,369.902 117.171,370.04 C93.436,370.252 90.206,370.188 87.55,369.39 z" fill="#000000"/>
  </g>
</svg>
