<?xml version="1.0" encoding="UTF-8"?>
<!DOCTYPE svg PUBLIC "-//W3C//DTD SVG 1.1//EN" "http://www.w3.org/Graphics/SVG/1.1/DTD/svg11.dtd">
<svg version="1.1" xmlns="http://www.w3.org/2000/svg" xmlns:xlink="http://www.w3.org/1999/xlink" x="0" y="0" width="500" height="500" viewBox="0, 0, 500, 500">
  <g id="layer101">
    <path d="M34.515,465.188 C32.191,464.76 29.623,463.72 27.788,462.558 C26.198,461.458 24.608,460.54 24.303,460.54 C24.058,460.54 23.813,460.112 23.813,459.623 C23.813,459.134 23.141,458.278 22.285,457.727 C20.878,456.81 20.633,456.81 18.677,458.033 C17.515,458.767 14.518,459.806 12.072,460.296 C7.669,461.213 4.856,462.497 4.856,463.598 C4.856,464.515 2.533,464.943 1.187,464.209 C-0.341,463.353 -0.403,461.458 1.187,458.033 C2.716,454.609 2.716,453.447 1.187,450.45 C-0.219,447.76 -0.341,446.109 0.637,443.601 C1.004,442.684 1.371,439.81 1.493,437.303 C1.738,430.943 2.41,429.598 5.896,428.13 C7.547,427.457 9.137,426.724 9.504,426.479 C9.871,426.173 10.91,425.439 11.828,424.828 C13.295,423.788 13.785,423.727 15.497,424.339 C16.536,424.767 18.677,425.256 20.205,425.439 L23.018,425.806 L26.015,419.813 C29.317,413.087 31.335,411.375 35.432,411.497 C38.551,411.619 46.562,415.411 50.231,418.529 C53.227,421.036 53.472,421.098 58.914,421.526 C72.612,422.688 74.936,422.382 78.238,419.324 C79.094,418.529 80.378,417.673 81.112,417.49 C82.641,417.001 85.576,413.76 85.576,412.536 C85.576,412.047 86.127,411.497 86.86,411.313 C88.45,410.763 90.04,407.277 94.015,395.108 C108.63,350.407 107.713,353.464 107.407,349.612 C107.163,346.86 107.346,345.392 108.141,343.802 C108.753,342.579 110.404,338.299 111.81,334.202 C114.317,326.986 114.317,326.802 113.4,324.234 C112.116,320.443 112.238,316.712 113.767,314.817 C115.357,312.738 114.99,312.187 110.22,308.64 C108.08,307.112 106.245,305.216 106.062,304.482 C105.573,302.648 107.101,298.428 109.609,294.576 C111.321,291.885 111.565,290.968 111.504,287.788 C111.382,283.752 108.814,272.5 106.979,268.403 C106.368,266.935 105.389,263.817 104.839,261.432 C103.616,256.05 102.637,254.46 101.231,255.622 C99.152,257.335 87.166,273.906 86.004,276.597 C85.087,278.921 84.109,279.899 81.234,281.734 C79.033,283.079 77.504,284.486 77.382,285.281 C75.486,295.248 74.141,298.917 71.206,302.158 C69.004,304.543 66.436,311.025 66.742,313.227 C66.864,314.45 67.353,314.756 69.371,314.878 C70.716,315 73.346,314.633 75.242,314.083 C77.565,313.349 80.134,313.104 83.252,313.227 L87.778,313.471 L93.22,318.119 C101.292,324.968 103.922,327.964 103.922,330.471 C103.922,333.651 101.231,335.853 96.522,336.525 C94.504,336.77 92.547,337.137 92.242,337.382 C91.936,337.565 92.119,338.482 92.609,339.461 C93.832,341.846 93.77,343.864 92.303,346.371 C90.835,348.817 90.163,349.184 82.213,352.058 C70.594,356.277 65.396,357.806 62.767,357.806 C59.954,357.806 58.547,358.784 57.813,361.292 C56.59,365.328 50.536,366.428 46.195,363.493 C43.626,361.659 39.957,361.353 34.331,362.392 L31.641,362.882 L27.421,358.662 C23.324,354.565 23.202,354.382 23.202,351.385 C23.202,347.716 24.303,345.882 26.81,345.392 C28.339,345.087 28.767,344.597 29.378,342.396 C29.745,340.928 30.051,339.094 30.051,338.238 C29.928,333.101 29.439,329.187 28.828,328.025 C27.727,326.007 27.972,323.806 29.623,320.504 C30.479,318.853 31.152,316.835 31.152,316.101 C31.152,315.306 31.396,314.389 31.641,314.022 C32.313,312.982 34.759,311.82 35.432,312.248 C36.533,312.921 40.385,310.597 41.364,308.64 C42.709,306.011 42.77,300.385 41.364,298.306 C40.508,296.961 39.835,296.655 37.695,296.655 C35.86,296.655 34.454,296.166 32.925,295.126 C29.623,292.68 29.317,291.946 29.317,286.626 C29.317,281.673 29.806,279.41 31.824,274.763 C32.497,273.356 32.986,271.766 32.986,271.277 C32.986,270.788 33.72,269.932 34.698,269.32 C35.616,268.77 37.205,267.363 38.245,266.263 C39.346,265.162 40.691,264.245 41.303,264.245 C41.975,264.245 44.666,263.694 47.357,263.022 L52.188,261.86 L61.238,252.809 C66.191,247.856 70.533,243.086 70.961,242.169 C71.328,241.252 72.367,240.212 73.285,239.906 C74.936,239.295 91.324,223.885 92.364,221.867 C92.853,221.072 92.486,220.155 90.835,218.014 C87.594,213.795 86.555,209.942 86.555,202.788 C86.616,195.755 87.227,193.798 91.691,185.971 C93.404,183.036 94.749,180.1 94.749,179.428 C94.749,178.755 95.85,176.003 97.195,173.374 C98.663,170.5 99.641,167.687 99.641,166.403 C99.641,165.241 100.069,163.467 100.619,162.428 C102.515,158.82 107.285,134.359 106.796,130.751 C106.612,129.345 106.918,127.205 107.652,125.125 C108.263,123.291 108.814,121.456 108.814,121.028 C108.814,120.539 109.67,119.194 110.709,117.91 C112.055,116.258 112.727,114.607 113.217,111.672 C113.95,107.147 113.4,105.863 110.709,105.863 C107.224,105.863 104.227,104.517 101.659,101.766 C98.112,97.974 96.889,94.122 96.95,86.906 C96.95,82.014 97.256,80.485 98.663,76.999 C100.375,72.78 103.188,69.661 106.184,68.499 C106.979,68.194 109.058,67.949 110.709,67.949 C113.828,67.949 118.231,66.237 118.781,64.769 C118.965,64.341 118.965,61.528 118.781,58.47 C118.414,52.417 119.026,50.154 122.022,46.24 C125.019,42.327 130.522,42.021 133.886,45.629 C135.781,47.586 137.249,47.524 140.551,45.323 C142.569,43.916 143.915,43.488 146.055,43.488 C150.458,43.488 159.141,39.636 161.526,36.578 L163.483,34.132 L170.21,34.56 C178.893,35.111 180.544,35.661 182.256,38.474 C184.458,42.143 185.925,43.427 188.249,43.855 C193.447,44.711 195.037,46.057 195.037,49.542 C195.037,51.499 196.872,53.578 205.494,61.467 C207.634,63.424 210.202,65.747 211.12,66.604 C212.037,67.46 215.462,69.906 218.764,71.924 C225.857,76.449 226.652,77.611 225.613,82.197 C225.185,83.971 224.451,86.05 223.962,86.845 C223.105,88.19 222.8,88.251 218.58,87.945 C212.832,87.517 211.792,86.906 210.814,83.42 C209.958,80.485 209.53,80.118 203.782,76.999 C202.375,76.204 199.684,74.676 197.728,73.575 C193.814,71.251 192.53,71.557 193.753,74.492 C194.487,76.082 198.767,79.262 203.354,81.586 C204.454,82.136 206.839,84.276 208.735,86.355 C211.976,89.963 212.282,90.147 215.339,90.391 C219.681,90.758 221.882,91.676 222.31,93.327 C222.739,95.1 220.904,102.194 219.62,103.661 C217.785,105.679 216.012,105.924 211.854,104.823 C207.512,103.661 206.044,104.151 206.044,106.719 C206.044,109.654 207.328,110.327 212.526,110.204 C217.235,110.082 219.742,110.694 226.041,113.262 C229.098,114.485 229.587,113.629 228.67,108.37 C227.936,103.967 228.242,97.913 229.404,94.856 C230.933,90.636 234.969,85.071 237.537,83.543 C241.023,81.525 247.811,81.341 250.195,83.176 C251.418,84.154 252.886,84.399 259.796,84.582 L267.868,84.766 L270.131,87.273 C271.354,88.618 272.699,90.269 273.066,90.942 C273.739,92.043 273.861,92.043 275.634,90.391 C281.994,84.399 290.433,90.208 290.433,100.543 C290.433,104.579 294.469,111.305 298.566,114.057 C299.85,114.913 300.768,116.381 301.501,118.643 C302.235,120.784 304.253,123.902 307.311,127.633 C311.897,133.32 311.958,133.381 314.649,133.381 C317.401,133.381 318.257,133.931 320.58,137.356 C321.253,138.212 322.414,139.19 323.21,139.557 C325.045,140.23 326.512,143.471 326.512,146.712 C326.512,150.809 327.674,150.931 331.955,147.507 C338.62,142.125 345.897,140.413 355.62,141.942 C358.433,142.37 360.879,142.615 361.063,142.431 C361.246,142.248 361.124,141.33 360.757,140.413 C359.962,138.334 361.063,135.888 363.203,134.848 C364.059,134.42 365.526,133.748 366.443,133.32 C367.361,132.892 369.685,130.568 371.581,128.244 C373.476,125.859 375.678,123.23 376.473,122.374 C378.491,120.172 380.692,117.604 383.444,114.24 C386.318,110.633 386.135,110.082 380.876,106.352 C378.858,104.884 376.106,102.927 374.699,101.949 C371.764,99.87 369.318,95.1 369.318,91.492 C369.318,85.499 372.376,79.262 376.045,77.733 C377.268,77.244 378.062,76.327 378.552,74.737 C380.081,69.845 385.156,66.542 391.088,66.481 C395.307,66.481 397.142,67.399 404.786,73.147 C408.7,76.082 409.617,76.51 411.207,76.204 C412.246,76.021 414.876,75.715 417.138,75.593 C422.153,75.287 423.62,76.266 423.131,79.507 C423.07,79.935 423.376,81.096 423.743,82.075 C425.394,85.989 430.775,82.748 432.365,76.938 C432.854,75.042 433.344,74.553 434.811,74.248 C435.79,74.064 436.951,73.33 437.318,72.596 C437.685,71.924 439.459,69.845 441.232,68.071 C443.005,66.359 445.207,63.668 446.124,62.14 C446.98,60.611 448.203,59.082 448.815,58.776 C450.405,57.92 452.973,59.021 453.829,60.917 C454.196,61.834 455.358,62.69 456.703,63.118 C459.516,64.035 460.984,65.319 462.085,67.827 C463.062,70.212 462.88,70.517 459.333,73.758 C457.804,75.104 455.664,77.611 454.501,79.384 C453.401,81.158 451.749,83.053 450.955,83.604 C449.915,84.276 449.426,85.194 449.426,86.355 C449.426,87.701 448.937,88.435 447.103,89.597 C444.045,91.553 441.477,94.611 441.477,96.384 C441.477,98.891 443.25,102.071 445.757,104.089 C447.041,105.129 448.448,106.963 448.815,108.064 C449.732,110.694 453.095,113.629 455.908,114.179 C458.721,114.73 462.635,113.507 463.552,111.856 C463.98,111.122 464.042,109.348 463.797,107.392 C463.552,105.129 463.674,104.028 464.225,103.6 C464.653,103.294 469.912,102.499 475.904,101.888 C485.139,100.909 487.462,100.848 491.132,101.46 C496.084,102.316 497.736,103.417 497.736,105.924 C497.736,106.902 498.042,109.593 498.47,111.978 C499.326,117.053 499.081,117.726 495.29,119.744 C491.498,121.762 491.009,122.312 491.009,124.575 C491.009,127.021 492.171,128.244 495.167,129.039 C496.39,129.406 498.042,130.14 498.836,130.69 C500.427,131.791 500.427,132.953 498.592,140.841 C497.369,146.1 496.084,147.446 492.355,147.446 C488.93,147.446 488.44,147.751 487.096,150.32 C485.628,153.316 485.811,155.09 487.952,156.618 C489.175,157.474 489.786,158.453 489.786,159.492 C489.786,161.266 486.851,165.546 483.121,169.093 C480.919,171.295 480.491,171.417 478.045,171.111 C476.578,170.989 474.987,170.622 474.437,170.439 C473.826,170.133 472.48,170.744 470.768,172.09 C468.139,174.046 468.077,174.23 468.077,177.471 C468.077,179.367 467.711,181.262 467.343,181.813 C466.488,182.791 457.988,186.888 455.48,187.5 C454.196,187.805 453.462,187.5 451.872,185.971 C450.099,184.198 449.609,184.075 447.347,184.381 C442.577,185.115 440.865,185.971 440.498,187.683 C440.315,188.6 440.009,189.823 439.825,190.374 C439.459,191.78 435.973,192.698 430.714,192.698 C428.329,192.698 425.454,193.003 424.415,193.37 C421.847,194.288 420.93,193.431 419.707,188.967 C418.606,184.931 417.077,170.805 417.016,164.507 C417.016,158.942 417.872,157.658 420.379,159.309 C421.541,160.104 422.214,160.165 423.131,159.676 C427.779,157.169 423.865,151.115 417.628,151.115 C415.364,151.115 412.552,149.769 409.8,147.384 C407.415,145.305 407.232,145.244 405.214,146.834 C404.357,147.568 402.768,148.424 401.728,148.73 C400.444,149.219 398.059,151.726 393.962,156.863 C390.721,160.899 385.768,166.464 383.016,169.154 C380.264,171.845 375.494,177.043 372.437,180.712 C369.379,184.381 366.016,187.928 365.038,188.539 C363.937,189.212 362.653,190.802 361.98,192.392 C361.307,193.982 358.984,196.978 356.476,199.485 C353.358,202.543 352.257,204.133 352.502,204.867 C352.99,206.518 352.257,207.924 350.3,208.964 C349.321,209.453 348.527,210.187 348.527,210.615 C348.527,211.043 349.505,213.734 350.728,216.547 C352.012,219.421 353.113,222.845 353.235,224.19 C353.48,226.331 353.174,227.003 350.85,229.694 C349.383,231.406 347.671,233.791 347.059,235.075 C345.04,239.05 341.922,242.169 339.599,242.597 C336.174,243.209 334.768,242.169 332.077,236.849 C328.469,229.694 327.368,229.266 324.617,233.73 C321.987,238.072 320.886,239.234 318.501,240.212 C316.299,241.068 312.57,245.043 308.289,251.097 C306.516,253.604 306.944,255.745 309.696,257.885 C310.796,258.741 311.897,259.842 312.081,260.392 C312.692,261.86 307.8,271.277 305.354,273.417 C304.192,274.396 302.847,275.252 302.357,275.252 C301.868,275.252 300.584,276.047 299.483,277.025 C298.383,277.942 296.854,278.921 296.059,279.165 C295.325,279.41 294.286,280.389 293.796,281.367 C293.307,282.345 292.39,283.263 291.717,283.507 C290.433,283.874 286.58,282.529 285.908,281.428 C285.052,280.083 283.278,280.817 280.221,283.996 C277.897,286.32 276.857,287.91 276.429,289.806 C276.124,291.273 275.39,293.047 274.717,293.72 C274.106,294.453 272.149,296.532 270.437,298.428 C268.663,300.324 267.195,302.036 267.195,302.281 C267.195,302.586 266.217,303.871 264.994,305.155 C263.832,306.5 262.181,308.457 261.386,309.619 C260.591,310.72 259.429,312.248 258.94,312.982 C258.084,314.083 258.084,314.633 258.695,316.835 C259.796,320.381 257.962,327.842 255.393,330.471 C253.375,332.551 253.436,333.651 256.005,340.867 C257.044,343.802 257.839,347.838 258.329,352.914 C258.757,357.684 259.429,361.231 260.041,362.392 C260.713,363.554 261.08,365.633 261.08,368.018 C261.08,372.177 261.325,372.482 267.318,376.151 C271.048,378.475 271.843,380.982 270.865,387.342 C270.131,392.295 269.703,391.562 276.124,396.331 C279.303,398.716 280.649,401.162 280.649,404.893 L280.649,407.339 L284.012,407.339 C287.62,407.339 288.476,407.889 291.35,411.986 C292.634,413.821 294.591,418.713 295.142,421.465 C295.875,425.256 291.778,429.965 287.681,429.965 C285.541,429.965 282.728,433.022 281.811,436.324 C281.077,439.076 278.875,440.911 275.696,441.461 C273.494,441.889 273.005,442.195 273.127,443.234 C273.311,444.641 271.904,445.436 266.278,447.087 C264.26,447.698 260.591,449.227 258.084,450.45 C253.926,452.529 253.008,452.774 247.994,452.896 C243.775,452.957 241.818,453.263 239.983,454.242 C237.843,455.342 236.559,455.465 230.505,455.342 C223.839,455.159 221.76,455.404 216.134,456.81 C214.789,457.116 210.997,457.666 207.756,458.033 C204.026,458.4 200.908,459.073 199.501,459.806 C195.71,461.824 191.001,462.436 181.584,462.252 C172.533,462.069 163.177,462.925 159.875,464.209 C157.307,465.249 140.307,465.065 132.846,463.965 C129.544,463.475 122.634,462.925 117.436,462.681 C109.731,462.375 107.713,462.069 106.429,461.213 C104.472,459.868 101.537,458.95 97.501,458.4 C95.85,458.155 93.526,457.483 92.425,456.81 C88.939,454.792 83.375,455.22 77.382,457.911 C74.141,459.378 70.594,460.418 67.108,460.907 C64.234,461.335 60.26,462.314 58.242,462.986 C50.659,465.799 41.914,466.594 34.515,465.188 z M41.975,424.094 C42.893,421.709 37.144,419.141 35.188,421.098 C34.637,421.709 34.27,422.443 34.393,422.871 C35.065,424.889 41.241,425.929 41.975,424.094 z M74.385,274.518 C74.569,273.601 75.303,272.317 76.037,271.644 C80.623,267.302 82.213,265.529 87.655,258.435 C90.957,254.093 94.137,249.385 94.749,248.04 C95.299,246.694 96.278,245.165 96.889,244.676 C98.112,243.637 99.886,239.845 99.396,239.356 C98.907,238.806 96.216,241.374 79.95,257.885 C71.573,266.324 64.785,273.54 64.785,273.906 C64.785,274.273 65.702,275.068 66.803,275.619 C67.842,276.169 69.432,277.209 70.288,277.82 C71.756,278.982 71.817,278.982 72.918,277.637 C73.529,276.842 74.202,275.496 74.385,274.518 z M301.563,235.748 C303.519,233.547 305.293,231.039 305.476,230.122 C306.21,226.759 307.127,225.047 308.717,224.19 C310.307,223.396 314.955,218.32 316.973,215.201 C318.196,213.306 318.134,213.061 313.793,206.64 C312.325,204.377 310.491,202.359 309.757,202.115 C307.8,201.503 306.332,199.975 306.332,198.507 C306.332,197.834 305.537,194.716 304.559,191.597 C303.152,187.194 302.235,185.359 300.278,183.219 C298.872,181.751 297.771,180.223 297.771,179.856 C297.771,179.55 298.199,178.144 298.811,176.737 L299.789,174.23 L296.976,168.298 C295.447,165.057 293.857,161.51 293.429,160.41 C292.268,157.23 290.311,156.251 286.886,157.108 C285.296,157.474 282.483,157.964 280.649,158.208 C277.897,158.514 276.552,159.187 272.821,161.938 C269.947,164.079 267.99,165.974 267.44,167.32 C266.584,169.46 263.954,171.906 262.487,171.906 C261.998,171.906 260.224,173.19 258.573,174.841 C256.922,176.431 254.904,178.266 254.109,179 C253.253,179.795 252.458,181.323 252.213,182.913 C251.785,185.482 251.847,185.604 254.843,188.356 C256.494,189.885 258.757,192.575 259.796,194.349 C261.508,197.162 261.753,197.834 261.386,200.28 C261.08,202.115 261.264,203.949 261.936,206.029 C262.915,208.964 262.854,210.248 261.386,215.079 C260.836,216.73 261.57,217.28 268.419,219.91 C275.023,222.417 279.303,224.985 281.75,227.86 C282.667,228.899 284.868,230.611 286.642,231.529 C288.415,232.507 291.411,234.709 293.368,236.482 C295.264,238.255 297.16,239.723 297.465,239.723 C297.832,239.784 299.667,237.95 301.563,235.748 z M98.112,206.457 C98.724,204.439 99.641,201.87 100.13,200.77 C100.986,198.874 100.925,198.629 99.824,197.162 C99.213,196.244 98.173,195.266 97.562,194.899 C94.321,192.881 92.242,205.295 95.116,209.759 C96.278,211.471 96.645,211.104 98.112,206.457 z M347.426,179.428 C348.038,178.877 348.527,177.716 348.527,176.859 C348.588,174.658 349.383,173.435 355.13,166.769 C357.882,163.528 360.145,160.471 360.145,159.92 C360.145,159.37 359.595,158.208 358.922,157.352 C358.188,156.435 357.149,155.028 356.538,154.233 C355.07,152.215 349.566,151.787 344.613,153.194 C339.293,154.784 333.912,160.165 333.789,164.079 C333.727,167.748 334.584,172.885 335.624,175.269 C336.908,178.205 338.376,179.244 341.127,179.244 C342.106,179.244 343.145,179.55 343.329,179.856 C343.94,180.773 346.142,180.59 347.426,179.428 z M138.839,159.309 C147.217,150.136 149.296,147.629 149.357,146.712 C149.54,141.759 149.051,139.496 147.217,136.805 C144.893,133.259 142.019,131.241 140.735,132.28 C139.206,133.564 132.051,148.669 131.44,151.849 C131.073,153.622 130.461,155.456 130.033,155.946 C129.605,156.496 128.627,158.514 127.832,160.41 C126.548,163.651 126.425,166.464 127.587,168.421 C128.26,169.582 133.03,165.73 138.839,159.309 z M250.318,166.708 C250.99,166.219 251.969,165.791 252.58,165.791 C253.131,165.791 254.231,165.057 255.026,164.201 C255.821,163.284 257.106,161.938 257.778,161.205 C258.573,160.287 260.163,159.615 261.936,159.37 C263.71,159.064 265.728,158.208 267.379,156.924 C268.785,155.885 270.559,154.661 271.293,154.233 C272.088,153.867 273.739,151.298 275.206,148.302 L277.775,143.104 L276.001,141.147 C270.926,135.46 259.857,124.514 257.595,122.924 C256.188,121.946 254.354,121.151 253.559,121.151 C250.929,121.151 251.113,120.723 246.221,139.19 C243.775,148.424 242.796,152.46 241.695,158.636 C241.451,159.859 241.695,160.715 242.674,161.572 C243.346,162.244 243.958,163.039 243.958,163.345 C243.958,164.385 247.138,167.626 248.116,167.626 C248.728,167.626 249.706,167.197 250.318,166.708 z M137.004,116.197 C138.655,115.341 143.058,108.431 143.058,106.78 C143.058,105.985 142.691,105.129 142.325,104.823 C139.084,102.377 136.271,104.762 135.17,110.816 C134.069,117.176 134.253,117.665 137.004,116.197 z M397.448,93.816 C400.077,93.327 400.2,93.204 400.382,91.064 C400.628,87.945 399.71,86.478 396.897,85.622 C394.879,85.01 393.962,85.071 391.21,86.05 C386.869,87.517 386.441,87.945 386.441,90.269 C386.441,91.798 386.869,92.654 388.092,93.632 C389.865,94.978 390.721,95.039 397.448,93.816 z M142.141,55.719 C142.325,55.413 142.08,55.107 141.591,55.107 C141.102,55.107 140.49,55.413 140.307,55.719 C140.123,56.086 140.368,56.33 140.857,56.33 C141.346,56.33 141.958,56.086 142.141,55.719 z M153.515,50.765 C154.371,49.909 154.616,49.298 154.188,48.87 C153.393,48.075 149.785,49.909 149.785,51.132 C149.785,52.478 152.048,52.233 153.515,50.765 z" fill="#000000"/>
  </g>
</svg>
