<?xml version="1.0" encoding="UTF-8"?>
<!DOCTYPE svg PUBLIC "-//W3C//DTD SVG 1.1//EN" "http://www.w3.org/Graphics/SVG/1.1/DTD/svg11.dtd">
<svg version="1.1" xmlns="http://www.w3.org/2000/svg" xmlns:xlink="http://www.w3.org/1999/xlink" x="0" y="0" width="500" height="500" viewBox="0, 0, 500, 500">
  <g id="layer101">
    <path d="M318.955,493.777 C315.122,493.464 311.601,493.386 311.288,493.543 C310.271,494.169 301.353,492.134 298.224,490.648 C295.877,489.475 293.373,489.396 279.448,489.709 C270.607,489.866 262.158,489.709 260.672,489.318 L257.934,488.536 L258.09,481.73 C258.168,476.331 258.481,474.532 259.655,473.28 C261.219,471.559 267.791,467.882 270.842,467.1 C271.937,466.787 275.458,465.535 278.665,464.362 C281.873,463.188 285.628,462.328 287.036,462.328 C291.652,462.484 292.278,458.416 287.975,455.913 C286.723,455.209 285.55,453.8 285.315,452.862 C285.159,451.923 284.298,440.97 283.359,428.453 C281.403,400.446 281.482,401.776 279.917,393.17 C278.665,386.285 278.665,385.973 280.152,382.374 C281.012,380.418 282.029,378.775 282.342,378.775 C284.142,378.697 285.941,376.115 286.567,372.829 C287.114,369.857 287.036,368.84 285.784,367.118 C284.142,364.771 282.577,356.948 282.42,350.22 C282.264,346.621 282.655,344.822 284.063,342.397 C285.706,339.581 285.784,338.955 285.002,335.982 C283.985,332.148 284.533,332.383 272.094,331.131 C266.07,330.505 262.393,329.723 259.342,328.315 C253.709,325.733 253.083,325.812 252.536,329.097 C251.831,332.696 248.859,336.06 245.103,337.546 C240.488,339.424 231.334,339.972 224.606,338.876 C219.443,338.016 218.504,337.546 215.531,334.574 C212.872,331.992 212.167,330.662 212.167,328.628 C212.167,325.499 211.62,324.56 209.273,323.386 C208.021,322.682 206.848,322.76 204.344,323.621 C202.467,324.247 200.198,324.794 199.181,324.794 C198.164,324.794 195.582,325.186 193.47,325.655 C190.184,326.359 189.167,326.985 187.368,329.645 C185.725,331.992 184.004,333.244 180.483,334.652 C177.901,335.669 174.694,337.625 173.364,339.111 C170.704,342.006 167.888,348.343 168.592,350.064 C168.826,350.768 170.704,351.315 173.286,351.628 C177.823,352.098 181.5,353.584 184.942,356.479 C186.82,358.043 187.681,358.2 192.062,357.887 C194.878,357.652 198.398,357.652 199.963,357.965 C208.725,359.608 213.341,372.673 208.725,382.843 C205.596,389.806 199.337,394.422 193,394.422 C189.48,394.422 184.004,391.292 180.874,387.537 C178.997,385.268 177.901,384.721 174.459,384.173 C172.19,383.86 169.374,383.391 168.279,383.078 C165.619,382.452 163.428,384.486 164.132,386.911 C166.323,394.422 168.748,395.908 179.153,395.908 C186.429,395.986 188.698,396.769 188.698,399.35 C188.698,401.854 183.925,414.684 179.779,423.446 C175.711,431.895 175.554,433.46 177.745,438.31 C179.857,443.083 179.701,446.212 177.276,449.185 C174.694,452.158 171.486,453.879 168.357,453.879 C166.636,453.879 165.306,454.583 163.663,456.382 C162.411,457.712 159.908,459.59 158.03,460.528 C156.153,461.467 154.666,462.719 154.666,463.423 C154.666,464.049 157.326,466.709 160.534,469.369 C163.741,471.95 167.575,475.08 168.983,476.175 C171.252,478.131 171.486,478.678 171.486,482.825 C171.486,486.58 171.095,487.832 169.531,489.709 L167.575,491.978 L155.292,491.822 C148.486,491.665 142.071,491.587 140.976,491.509 C139.88,491.509 136.673,491.509 133.778,491.509 C130.336,491.509 127.911,491.117 126.894,490.413 C125.564,489.553 124.547,489.475 122.121,490.022 C120.479,490.492 119.07,491.117 119.07,491.509 C119.07,492.291 76.668,492.291 73.695,491.509 C72.522,491.196 71.192,489.866 70.331,488.066 C69.001,485.485 68.532,485.172 65.95,485.172 C62.195,485.172 61.178,483.216 61.178,476.253 L61.178,471.325 L68.219,468.039 C72.052,466.161 76.668,464.518 78.546,464.284 C80.502,464.049 82.692,463.11 83.866,462.015 C85.274,460.763 87.23,460.059 90.907,459.59 C95.522,459.042 95.992,458.807 96.226,457.008 C96.696,452.705 98.965,445.508 100.686,442.77 C101.781,441.205 102.798,438.936 103.111,437.841 C103.659,435.572 110.465,425.089 114.768,419.847 C118.992,414.606 121.574,408.66 121.809,403.731 C121.887,401.15 122.513,398.49 123.295,397.473 C125.329,394.5 124.86,393.014 121.574,392.075 C117.819,391.136 113.907,388.476 111.716,385.581 C110.308,383.626 110.074,382.296 110.152,375.02 C110.152,367.04 110.308,366.258 113.594,358.043 C115.472,353.349 117.427,348.968 117.975,348.343 C118.601,347.638 120.791,347.247 124.312,347.247 C127.207,347.247 130.101,346.934 130.649,346.465 C132.37,345.135 131.744,342.162 129.241,340.441 C127.989,339.502 126.894,338.094 126.894,337.234 C126.894,336.138 135.499,317.675 136.595,316.345 C136.751,316.267 137.924,316.032 139.333,315.876 C142.775,315.485 143.01,315.015 141.367,311.964 L139.959,309.304 L148.095,292.25 C155.057,277.62 156.857,274.491 160.768,270.266 C166.323,264.321 170.469,262.208 176.337,262.208 C179.388,262.208 182.048,261.582 185.255,260.096 C192.687,256.732 197.303,257.671 198.32,262.834 C198.555,264.086 200.12,266.12 202.075,267.606 C206.065,270.814 207.63,270.266 208.334,265.416 C208.569,263.616 209.195,261.739 209.664,261.269 C210.212,260.722 210.603,259.783 210.603,259.079 C210.603,257.045 207.786,252.194 205.361,249.847 C203.327,248.048 202.936,246.875 202.467,242.337 C201.841,237.096 200.276,234.123 197.929,233.966 C197.381,233.966 194.096,233.653 190.653,233.34 C185.334,232.714 183.769,232.871 180.327,234.201 C178.058,234.983 174.85,235.687 173.286,235.766 C169.765,235.766 164.837,233.888 162.255,231.463 C160.064,229.429 154.666,218.554 153.493,213.939 C153.102,212.061 152.319,209.088 151.85,207.289 C151.224,204.629 151.302,202.986 152.398,199.074 C153.102,196.336 153.493,193.911 153.258,193.598 C152.554,192.894 144.418,195.632 142.54,197.119 C141.68,197.901 140.663,200.013 140.271,201.969 C139.254,206.898 136.047,215.19 131.901,223.561 C128.615,230.289 123.451,236.47 113.907,245.075 C112.968,245.936 111.091,249.456 109.682,252.899 C107.335,258.766 107.257,259.235 108.431,261.035 C109.135,262.052 109.682,264.086 109.682,265.572 C109.682,266.98 110.308,270.11 111.012,272.457 C111.873,275.195 112.342,279.107 112.264,283.722 C112.186,289.668 111.873,291.624 109.917,296.24 C107.179,302.968 103.111,308.991 100.686,310.087 C98.026,311.26 95.992,309.774 93.566,304.689 C91.689,300.855 91.298,298.821 90.907,291.702 C90.515,283.957 90.359,283.018 88.638,281.688 C87.621,280.906 85.743,280.202 84.335,280.202 C83.005,280.124 79.798,279.654 77.216,279.028 C74.634,278.402 70.722,277.855 68.454,277.855 L64.386,277.855 L61.413,282.236 C59.77,284.661 57.501,287.79 56.328,289.199 C55.076,290.607 54.137,292.406 54.137,293.11 C54.137,297.257 64.777,305.471 72.835,307.583 C79.015,309.226 88.56,319.866 88.56,324.951 C88.481,329.176 85.43,330.584 76.433,330.505 C68.063,330.349 58.675,328.55 52.181,325.812 C49.6,324.794 45.453,323.152 42.95,322.213 C38.412,320.492 38.412,320.492 37.239,322.056 C36.457,323.073 36.144,325.186 36.222,327.924 C36.457,336.216 33.64,342.006 29.337,342.006 C26.364,342.006 17.446,332.618 12.439,324.169 C7.745,316.345 1.252,299.682 0.548,293.423 L0,288.807 L2.425,288.807 C4.381,288.807 4.929,288.416 5.32,286.695 C5.555,285.443 6.259,283.096 6.806,281.375 C8.293,276.994 10.17,266.824 10.718,259.47 C11.5,250.395 12.361,248.205 15.568,246.875 C17.133,246.171 19.245,244.215 20.732,242.024 C24.956,235.844 31.293,229.663 35.987,227.16 C38.569,225.83 41.698,223.248 43.185,221.371 C49.287,213.626 54.841,207.993 59.222,204.942 C61.726,203.142 64.464,201.03 65.246,200.248 C66.029,199.466 67.202,198.84 67.828,198.84 C70.175,198.84 72.913,195.163 72.913,192.19 C72.913,189.999 74.008,187.731 77.294,182.724 C82.379,175.135 83.474,174.744 88.247,178.734 C92.941,182.802 93.958,183.115 99.199,182.489 C102.563,182.098 104.676,181.315 106.788,179.751 C110.699,176.778 110.699,173.883 106.944,170.128 C104.363,167.547 103.893,167.39 100.138,167.703 C97.087,168.016 95.522,167.781 93.723,166.686 C92.315,165.825 90.594,165.434 89.342,165.669 C86.682,166.217 78.389,163.322 76.668,161.21 C74.008,158.08 75.416,150.022 79.328,145.876 C80.423,144.703 81.91,144.077 83.631,144.077 C86.995,144.077 93.645,146.189 94.896,147.675 C95.444,148.301 97.243,148.771 99.277,148.771 C101.624,148.771 102.798,149.162 103.189,149.944 C103.737,151.509 107.492,153.465 109.917,153.465 C111.012,153.465 113.125,152.917 114.689,152.291 C118.288,150.805 118.288,148.379 114.768,146.424 C112.577,145.25 112.342,144.624 111.482,138.522 C111.012,134.923 110.543,128.039 110.543,123.189 C110.465,111.688 109.761,112.471 123.764,109.732 C143.323,105.899 148.329,104.882 149.034,104.413 C149.425,104.178 151.693,103.943 154.119,103.865 L158.578,103.787 L159.517,99.875 C160.768,95.025 162.568,93.382 164.602,95.338 C165.619,96.355 166.167,98.936 166.714,104.804 C167.105,109.263 167.888,113.409 168.435,114.035 C169.531,115.365 175.476,115.522 176.806,114.192 C177.354,113.644 177.745,111.141 177.745,108.324 C177.745,105.586 178.136,102.692 178.684,101.909 C179.388,100.736 179.231,99.406 177.98,95.338 C176.493,90.8 176.415,89.47 177.119,83.759 C177.667,79.065 177.667,76.092 176.963,72.885 C176.18,69.208 176.259,67.643 177.276,63.575 C177.98,60.915 178.527,57.786 178.527,56.691 C178.527,55.595 179.31,52.544 180.248,49.884 C181.657,45.973 183.143,43.939 188.228,38.775 C191.749,35.255 196.13,30.248 198.007,27.51 C204.109,18.904 213.106,13.428 229.379,8.421 C241.035,4.822 246.512,4.666 253.24,7.873 C255.821,9.047 259.42,11.237 261.141,12.724 C267.478,17.887 270.529,20.078 274.597,22.581 C285.393,29.153 290.635,35.411 297.363,49.884 C301.275,58.255 302.448,61.698 303.778,69.051 C305.108,76.562 305.969,79.143 309.254,85.324 C315.435,96.902 315.2,102.457 308.394,106.994 C305.108,109.185 303.543,112.471 305.264,113.566 C306.673,114.426 308.785,113.644 310.819,111.532 C311.758,110.515 313.244,109.654 314.027,109.654 C315.278,109.654 339.53,116.069 351.735,119.59 C354.238,120.294 357.133,121.546 358.15,122.328 C360.497,124.206 362.374,130.542 362.374,136.723 C362.374,139.461 362.766,141.886 363.235,142.199 C363.704,142.434 366.521,141.573 369.572,140.165 C376.535,136.957 379.586,137.192 383.263,141.417 C386.157,144.703 387.174,148.458 386.157,152.135 C385.61,154.169 384.514,155.107 380.368,157.142 C377.552,158.55 374.657,159.723 373.796,159.723 C373.014,159.723 371.215,160.427 369.885,161.288 C368.32,162.227 366.208,162.696 364.174,162.618 C360.419,162.54 358.463,163.87 358.463,166.529 C358.463,168.094 359.48,168.876 365.034,171.458 C368.633,173.179 373.562,175.135 376.065,175.761 C380.211,176.856 380.681,176.856 382.011,175.683 C382.95,174.822 383.497,173.258 383.497,171.38 C383.497,167.312 384.123,165.982 386.157,165.982 C388.661,165.982 397.344,176.7 398.283,180.924 C399.144,184.601 399.066,184.523 406.576,188.435 C412.835,191.642 423.944,199.935 428.481,204.707 C430.593,206.976 432.706,208.384 435.131,209.01 C440.373,210.418 445.536,213.313 449.995,217.224 C452.186,219.18 454.767,220.745 455.706,220.745 C458.601,220.745 460.478,222.622 466.893,232.167 C470.336,237.174 473.934,241.868 475.03,242.494 C476.125,243.198 478.003,244.528 479.176,245.545 C480.428,246.562 482.384,247.344 483.557,247.344 C484.731,247.344 486.295,247.813 486.999,248.361 C488.955,249.847 496.857,267.293 498.578,273.865 C500.377,280.828 500.455,288.103 498.891,296.318 C497.248,305.002 495.057,306.723 488.799,304.141 C485.669,302.811 477.064,294.597 476.281,292.171 C475.968,291.154 475.264,290.372 474.795,290.372 C473.309,290.372 470.57,294.988 468.693,300.542 C465.251,310.791 459.696,320.492 453.281,327.376 C450.386,330.349 449.291,331.053 447.101,331.053 C443.111,331.053 441.077,328.471 439.825,321.978 C438.495,315.172 438.573,314.077 441.077,308.209 C443.58,302.263 443.424,299.838 439.747,288.729 C437.4,281.61 436.852,280.515 434.036,278.481 C432.315,277.229 430.202,276.134 429.342,275.977 C428.403,275.821 424.882,275.038 421.44,274.334 C416.59,273.239 413.382,273.083 406.576,273.474 C401.334,273.787 396.171,273.63 393.276,273.083 C384.671,271.518 384.749,271.44 384.201,275.899 C383.497,281.297 380.133,287.712 377.16,289.199 C375.048,290.372 374.579,290.372 373.014,289.277 C370.589,287.712 366.364,280.984 365.034,276.603 C363.626,271.831 363.626,260.487 365.034,255.48 C365.66,253.368 366.13,250.63 366.13,249.3 C366.13,248.048 366.443,245.779 366.677,244.449 C367.225,241.789 365.582,236.313 363.548,234.044 C362.296,232.714 360.419,227.16 359.636,222.857 C359.402,221.214 358.463,218.711 357.602,217.381 C356.585,215.66 356.116,213.469 356.116,210.34 C356.116,206.976 355.646,205.098 354.238,202.908 C352.126,199.466 347.197,194.928 345.633,194.928 C345.007,194.928 342.582,195.867 340.156,196.962 C337.262,198.292 333.741,199.074 329.83,199.387 C325.996,199.7 323.727,200.248 323.493,200.874 C323.258,201.5 323.806,203.455 324.744,205.333 C327.326,210.653 326.857,213.704 322.085,224.187 C316.843,235.453 315.357,237.565 311.523,239.521 C307.064,241.789 305.108,241.477 296.502,237.487 C290.948,234.905 288.131,233.966 286.645,234.279 C285.472,234.514 282.968,235.061 281.012,235.531 C279.056,236 274.597,236.313 271.077,236.391 C263.801,236.391 263.566,236.548 262.706,242.65 C261.923,247.657 260.75,250.317 259.107,250.864 C258.325,251.099 256.682,252.977 255.587,254.933 L253.474,258.453 L255.117,261.426 C255.978,263.069 256.76,265.259 256.76,266.433 C256.76,267.919 257.542,268.936 260.046,270.501 C261.923,271.674 264.74,274.021 266.383,275.743 C269.043,278.481 269.356,279.185 268.886,281.532 C268.495,283.879 268.573,284.113 270.294,284.113 C273.737,284.113 274.988,280.906 273.033,276.681 C272.407,275.195 272.407,274.256 273.033,272.77 C274.128,270.344 276.397,270.266 279.448,272.457 C281.873,274.334 281.012,274.334 292.043,271.596 C299.084,269.797 299.006,269.719 302.448,288.416 C309.724,327.689 310.037,328.706 313.088,328.706 C314.965,328.706 317.938,333.165 317.391,335.043 C316.843,336.764 319.033,349.281 320.363,352.02 C321.302,353.975 321.615,364.615 320.833,368.918 C320.598,370.091 321.146,370.561 323.18,371.03 C324.588,371.343 326.857,372.595 328.108,373.925 C330.377,376.193 330.847,377.445 332.646,386.99 C333.037,389.18 334.602,395.282 336.166,400.68 C337.731,406.078 341.564,420.004 344.772,431.582 C349.857,450.436 350.405,452.862 349.388,454.27 C346.18,458.807 346.258,461.702 349.622,461.702 C350.718,461.702 353.143,462.406 354.864,463.188 C356.663,463.971 359.48,465.144 361.201,465.614 C368.398,467.882 375.205,472.263 376.613,475.627 C377.082,476.801 377.552,480.087 377.552,482.903 L377.63,488.066 L367.46,488.77 C361.905,489.083 354.395,489.396 350.874,489.475 C347.354,489.475 344.224,489.788 343.911,490.1 C343.599,490.413 342.816,490.648 342.112,490.648 C341.408,490.648 339.139,491.509 337.027,492.604 C332.881,494.716 331.551,494.794 318.955,493.777 z" fill="#000000"/>
  </g>
</svg>
