<?xml version="1.0" encoding="UTF-8"?>
<!DOCTYPE svg PUBLIC "-//W3C//DTD SVG 1.1//EN" "http://www.w3.org/Graphics/SVG/1.1/DTD/svg11.dtd">
<svg version="1.1" xmlns="http://www.w3.org/2000/svg" xmlns:xlink="http://www.w3.org/1999/xlink" x="0" y="0" width="500" height="500" viewBox="0, 0, 500, 500">
  <g id="layer101">
    <path d="M419.695,379.52 C419.753,379.461 428.911,379.343 440.006,379.343 C465.073,379.226 482.802,378.463 485.502,377.289 C486.618,376.878 488.79,375.528 490.257,374.412 C491.784,373.238 493.31,372.299 493.662,372.299 C494.073,372.299 495.189,371.418 496.187,370.42 C497.537,369.011 498.3,367.25 499.122,363.904 C500.648,357.799 500.237,354.453 497.478,351.048 C496.304,349.698 494.073,346.528 492.547,344.121 C490.962,341.714 488.085,337.957 486.089,335.785 C482.978,332.321 482.215,331.734 479.573,331.206 C477.401,330.736 476.051,330.032 474.583,328.505 C473.292,327.155 471.883,326.333 470.357,326.099 C469.065,325.922 467.128,324.924 465.719,323.809 C464.31,322.576 462.432,321.637 460.964,321.402 C459.496,321.167 457.794,320.345 456.444,319.113 C455.035,317.821 453.215,316.941 451.278,316.471 C448.93,316.001 447.814,315.356 446.523,313.712 C444.644,311.481 444.644,310.659 446.523,310.659 C448.46,310.659 452.276,308.37 453.156,306.667 C453.626,305.787 454.565,304.554 455.27,303.908 C457.266,302.088 458.087,299.505 457.97,295.044 C457.853,290.758 457.207,289.056 454.8,286.414 C453.978,285.534 452.628,283.597 451.806,282.012 C450.691,280.016 449.575,278.9 447.814,278.078 C446.464,277.433 444.468,276.024 443.411,275.026 C442.355,274.028 440.3,272.854 438.832,272.501 C437.365,272.149 435.369,271.034 434.371,270.036 C433.314,269.097 431.436,268.04 429.968,267.746 C428.5,267.394 426.563,266.337 425.213,265.163 C423.98,264.048 422.454,263.109 421.749,263.109 C420.223,263.109 418.462,262.169 416.055,260.115 C414.998,259.176 413.472,258.412 412.65,258.412 C411.711,258.412 410.361,257.649 409.128,256.416 C407.484,254.773 407.132,253.951 407.132,252.014 C407.132,247.963 404.373,246.965 396.448,248.08 C393.336,248.55 393.043,248.491 391.751,247.141 C390.108,245.38 388.229,244.323 386.703,244.323 C386.057,244.323 384.413,243.384 383.005,242.269 C381.596,241.153 380.128,240.214 379.834,240.214 C379.482,240.214 377.604,239.392 375.608,238.335 C372.027,236.516 371.909,236.516 368.739,237.279 C366.978,237.69 364.513,237.866 363.28,237.69 C361.577,237.396 360.345,237.631 358.114,238.746 C356.47,239.51 354.122,240.214 352.83,240.214 C351.539,240.214 349.308,240.742 347.899,241.388 C346.49,242.034 344.26,242.503 342.909,242.503 C341.618,242.445 339.681,242.797 338.624,243.325 C337.567,243.912 335.689,244.323 334.397,244.323 C333.106,244.323 330.699,244.852 329.055,245.497 C327.411,246.143 324.887,246.671 323.42,246.671 C321.952,246.671 320.073,247.024 319.193,247.493 C318.312,247.904 315.905,248.491 313.792,248.726 C311.679,248.961 309.154,249.548 308.215,250.076 C306.924,250.722 304.282,251.016 298.529,251.133 C291.25,251.25 290.31,251.368 287.082,252.894 C285.144,253.775 283.031,255.184 282.385,256.005 C280.8,257.943 279.274,262.346 279.215,264.929 C279.156,266.103 278.804,267.394 278.335,267.746 C277.454,268.451 270.762,268.333 261.428,267.512 L257.495,267.101 L256.555,268.979 C255.792,270.447 255.322,270.799 254.324,270.505 C253.62,270.329 250.861,270.153 248.219,270.153 C243.523,270.153 243.288,270.095 241.175,268.157 C239.942,267.101 237.946,265.868 236.713,265.516 C235.48,265.105 233.719,264.107 232.721,263.285 C231.782,262.463 229.903,261.582 228.553,261.23 C227.203,260.937 225.266,259.939 224.15,258.999 C223.094,258.06 221.098,257.003 219.748,256.651 C218.339,256.24 216.401,255.242 215.462,254.303 C214.464,253.364 212.644,252.366 211.353,252.014 C210.061,251.661 207.831,250.429 206.422,249.313 C205.013,248.198 203.369,247.259 202.841,247.259 C201.314,247.259 198.731,244.969 198.731,243.678 C198.731,241.916 203.721,239.04 206.95,239.04 C210.296,239.04 211.059,238.277 211.059,235.224 C211.059,233.874 211.353,232.524 211.764,232.113 C212.175,231.702 214.112,231.408 216.343,231.408 C219.043,231.408 220.922,231.056 222.507,230.234 C224.209,229.354 225.97,229.06 229.258,229.06 C234.365,229.06 235.128,229.471 238.416,233.815 C239.707,235.459 241.644,237.22 242.76,237.748 C244.697,238.688 244.991,239.216 247.163,245.791 C249.922,254.068 251.448,256.945 253.033,256.945 C254.442,256.945 255.733,253.129 255.264,250.311 C255.088,249.254 255.205,248.08 255.557,247.669 C256.086,246.965 256.908,240.449 257.084,235.4 C257.201,231.995 258.375,230.645 262.132,229.706 C284.146,224.07 291.25,222.603 308.215,220.548 C323.126,218.728 357.116,217.73 359.581,219.08 C360.168,219.374 360.99,220.665 361.343,221.84 C362.575,225.655 364.806,229.001 367.213,230.586 C371.733,233.58 373.612,231.35 375.138,220.959 C375.608,217.848 376.254,215.089 376.547,214.795 C377.193,214.149 378.367,214.736 378.367,215.734 C378.367,217.554 381.948,223.718 384.179,225.714 C388.171,229.295 389.99,228.18 391.575,221.194 C391.928,219.55 392.515,218.2 392.926,218.024 C393.278,217.906 394.217,218.846 394.98,220.078 C397.857,224.481 401.731,227.182 403.786,226.066 C405.253,225.186 406.075,223.366 407.132,218.493 C408.306,213.034 409.128,212.74 412.474,216.38 C413.824,217.848 415.292,219.08 415.703,219.08 C416.114,219.08 417.347,218.317 418.403,217.378 C419.46,216.497 422.16,214.795 424.45,213.68 C432.081,209.805 438.539,207.868 451.278,205.637 C457.618,204.463 458.792,203.817 458.792,201.469 C458.792,199.062 457.266,198.182 451.16,197.184 C437.189,194.894 423.98,190.257 418.697,185.854 C416.349,183.858 414.998,184.093 412.592,186.793 C409.245,190.491 408.247,190.08 407.426,184.445 C406.897,181.392 405.195,177.694 404.021,177.224 C402.201,176.52 396.683,180.864 394.452,184.738 C393.571,186.382 392.632,185.384 391.575,181.627 C390.166,176.578 389.697,175.639 388.347,175.639 C385.47,175.639 380.598,181.275 378.954,186.382 C378.308,188.495 376.958,189.728 376.195,188.906 C376.019,188.73 375.608,186.499 375.373,184.034 C374.668,177.518 372.907,171.295 371.616,171.06 C368.798,170.473 364.395,174.348 362.399,179.22 C360.462,183.858 358.936,184.093 336.687,183.329 C313.675,182.508 300.994,181.099 282.385,177.283 C267.181,174.113 259.08,172.058 257.671,170.884 C257.142,170.473 256.908,169.651 257.084,168.888 C257.26,168.184 257.142,163.311 256.849,158.028 C256.203,147.989 255.322,144.408 253.209,144.056 C251.859,143.821 249.863,147.813 247.456,155.562 C246.106,160.024 245.284,161.726 244.345,162.196 C243.64,162.548 241.175,164.779 238.944,167.186 L234.835,171.471 L229.551,171.178 C226.616,171.002 223.505,170.591 222.565,170.297 C221.626,170.004 218.926,169.769 216.578,169.769 C213.055,169.769 212.057,169.534 211.294,168.653 C206.657,163.194 204.602,162.489 198.731,164.485 C194.916,165.777 193.096,165.953 192.626,165.131 C192.45,164.838 190.982,164.309 189.397,163.898 C185.699,163.018 182.118,164.016 180.357,166.364 C178.831,168.419 178.478,168.419 176.659,166.246 C174.956,164.309 171.258,163.018 168.616,163.546 C167.266,163.84 164.8,164.779 162.276,166.012 C162.1,166.129 160.926,165.659 159.693,165.014 C156.993,163.546 152.12,163.311 149.713,164.485 C148.715,164.955 147.483,166.364 146.895,167.597 C145.545,170.238 145.076,170.297 144.136,168.008 C142.375,163.722 137.503,162.372 131.75,164.485 L128.227,165.836 L125.703,164.544 C122.416,162.959 118.072,162.9 115.489,164.485 C114.432,165.131 113.434,166.07 113.258,166.54 C112.73,167.89 111.79,167.597 110.147,165.659 C108.972,164.309 107.798,163.722 105.391,163.253 C102.398,162.724 101.869,162.783 98.817,164.251 L95.529,165.836 L93.533,164.603 C92.359,163.84 89.952,163.194 87.604,162.959 C84.669,162.666 83.319,162.196 82.145,161.198 C81.323,160.435 79.972,159.789 79.092,159.789 C78.211,159.73 76.861,159.378 76.039,158.908 C75.1,158.38 72.752,158.028 69.288,158.028 C64.768,157.969 63.653,157.793 61.657,156.56 C58.721,154.74 57.958,154.74 55.493,156.56 C52.968,158.38 51.912,158.38 50.327,156.56 C48.742,154.74 46.276,154.623 44.163,156.267 C42.343,157.734 41.697,157.734 39.76,156.325 C36.59,154.153 36.12,154.212 31.365,157.265 C30.191,158.028 28.43,158.615 27.197,158.615 C24.79,158.615 21.973,159.554 21.327,160.552 C20.74,161.55 21.855,163.194 23.969,164.251 C25.025,164.779 26.023,165.542 26.258,165.894 C27.08,167.068 26.728,169.006 25.554,170.062 C24.908,170.649 24.379,171.471 24.379,171.882 C24.379,172.293 23.323,173.702 22.031,174.993 C20.74,176.285 19.683,177.576 19.683,177.929 C19.683,178.281 18.45,179.22 16.865,179.983 C13.578,181.686 11.288,183.975 10.114,186.852 C9.645,187.967 8.236,189.728 6.944,190.785 C5.653,191.783 3.774,194.19 2.718,196.127 C1.074,199.297 0.78,200.53 0.252,206.87 C-0.629,217.672 0.663,222.016 6.298,226.947 C9.879,230.117 13.519,231.408 18.685,231.408 C20.622,231.408 23.44,231.878 24.966,232.406 C27.491,233.287 28.195,233.346 30.837,232.641 C34.124,231.819 44.632,232.172 46.922,233.228 C47.626,233.58 48.742,234.755 49.505,235.811 C50.679,237.69 51.031,237.866 53.673,237.866 C55.258,237.866 56.96,238.042 57.489,238.218 C58.663,238.688 58.134,239.627 56.784,239.627 C54.26,239.627 45.513,247.846 45.513,250.135 C45.513,250.663 44.809,252.131 43.928,253.423 C42.754,255.125 42.284,256.71 42.108,259.293 C41.873,261.876 41.462,263.226 40.464,264.459 C39.349,265.809 39.056,266.807 39.056,269.625 C39.056,271.562 39.408,273.617 39.76,274.263 C40.23,275.026 40.288,275.613 39.936,275.965 C39.584,276.258 36.179,277.433 32.305,278.548 C23.558,281.131 23.264,281.248 22.677,282.422 C22.031,283.597 22.971,289.643 24.086,291.933 C25.319,294.281 25.201,294.926 22.971,297.099 C21.855,298.155 20.505,300.092 19.918,301.443 C19.331,302.793 17.922,305.611 16.689,307.724 C13.813,312.831 11.817,319.054 12.228,321.578 C12.404,322.694 13.167,324.396 13.871,325.394 C14.576,326.392 15.398,328.447 15.691,329.914 C16.337,333.437 17.452,335.022 20.329,336.489 C21.679,337.194 23.147,338.544 23.675,339.601 C24.203,340.657 26.023,342.829 27.667,344.414 C29.369,346.058 31.248,348.406 31.894,349.698 C32.598,350.989 34.183,352.926 35.533,353.983 C36.825,355.04 38.41,356.977 39.056,358.21 C39.643,359.443 41.228,361.262 42.519,362.26 C43.811,363.258 45.63,365.43 46.628,367.015 C47.626,368.6 49.211,370.303 50.209,370.831 C51.266,371.36 53.262,372.71 54.73,373.825 C59.543,377.524 59.954,377.582 71.519,377.993 C85.491,378.404 84.493,378.404 93.944,378.287 C98.464,378.228 123.942,378.345 150.594,378.522 C177.246,378.698 209.944,378.815 223.211,378.874 L247.456,378.874 L249.628,377.113 C250.861,376.173 252.798,374.882 253.972,374.295 C258.669,371.771 259.667,370.831 261.78,366.722 C263.6,363.024 263.893,361.967 263.893,358.445 C263.893,352.339 262.426,343.534 261.017,340.775 C260.371,339.424 259.784,337.898 259.784,337.428 C259.784,335.491 258.199,333.319 255.381,331.441 C253.796,330.384 251.507,328.682 250.333,327.684 C248.924,326.451 247.28,325.746 245.167,325.394 C242.936,325.042 241.586,324.396 240.235,323.105 C239.179,322.107 236.948,320.756 235.187,320.111 C233.426,319.465 231.195,318.115 230.197,317.175 C229.199,316.236 227.262,315.18 225.97,314.827 C223.035,314.064 221.685,312.773 223.211,312.186 C223.74,311.951 227.555,311.599 231.606,311.422 C238.122,311.129 239.296,311.188 240.822,312.127 C242.231,312.949 243.112,313.066 244.873,312.655 C246.165,312.42 248.571,312.244 250.274,312.362 C254.207,312.596 255.088,311.892 255.088,308.487 C255.088,305.376 255.91,303.615 257.318,303.615 C259.314,303.615 259.784,304.906 259.784,309.837 C259.784,316.823 259.667,316.706 270.292,316.295 C274.988,316.06 281.446,315.59 284.675,315.238 C291.66,314.416 292.189,314.71 291.426,319.465 C290.78,323.633 291.308,329.092 292.6,331.558 C293.187,332.673 293.598,334.082 293.422,334.728 C292.893,336.841 294.948,341.714 297.179,343.358 C298.294,344.238 299.997,346.352 300.994,347.995 C301.992,349.815 303.577,351.576 304.752,352.281 C306.102,353.103 307.158,354.394 307.922,356.155 C308.685,357.916 309.741,359.208 311.15,360.03 C312.442,360.793 313.792,362.378 314.673,364.08 C315.494,365.724 316.962,367.426 318.136,368.19 C319.31,368.894 320.954,370.538 321.893,371.888 C322.774,373.238 324.183,374.647 324.946,374.999 C325.768,375.352 328.233,376.584 330.523,377.641 L334.632,379.637 L377.075,379.637 C400.44,379.637 419.636,379.578 419.695,379.52 z M258.14,224.833 C257.729,224.423 257.436,222.896 257.436,221.37 C257.436,218.611 257.964,217.906 260.136,217.906 C261.428,217.906 263.893,220.607 263.893,221.957 C263.893,224.54 259.843,226.536 258.14,224.833 z M268.59,221.429 C267.063,219.902 267.827,218.2 270.175,217.73 C273.227,217.143 275.693,219.961 273.756,221.898 C272.64,223.014 269.881,222.72 268.59,221.429 z M279.685,220.842 C278.217,220.02 278.217,218.082 279.743,217.613 C282.268,216.791 284.675,218.904 283.207,220.607 C282.385,221.605 281.27,221.663 279.685,220.842 z M13.754,220.078 C10.76,218.082 10.232,216.556 10.408,210.744 C10.643,203.993 11.23,203.406 14.576,206.576 C15.926,207.868 18.157,209.512 19.507,210.216 C21.503,211.214 22.09,211.919 22.618,213.738 C22.912,214.971 23.616,216.321 24.086,216.732 C25.26,217.73 25.201,220.078 23.91,220.783 C23.381,221.135 21.327,221.429 19.331,221.429 C16.572,221.429 15.28,221.135 13.754,220.078 z M288.49,219.315 C287.492,218.082 288.901,217.143 290.486,217.965 C291.308,218.435 291.426,218.728 290.839,219.433 C289.958,220.489 289.488,220.489 288.49,219.315 z M278.511,183.858 C277.16,183.095 277.043,181.157 278.335,180.688 C280.565,179.807 282.796,181.979 281.446,183.623 C280.624,184.621 280.037,184.621 278.511,183.858 z M286.905,183.153 C287.316,182.038 289.136,181.862 289.136,182.919 C289.136,183.506 288.608,183.858 287.903,183.858 C287.199,183.858 286.788,183.564 286.905,183.153 z M268.707,183.212 C266.535,182.449 265.948,181.275 267.181,180.042 C268.355,178.927 270.351,178.927 271.995,180.101 C273.462,181.099 273.638,182.097 272.582,183.153 C271.701,184.034 271.055,184.034 268.707,183.212 z M258.493,180.688 C257.729,179.572 257.964,177.4 258.845,177.048 C261.017,176.226 264.011,180.336 262.073,181.568 C261.134,182.155 259.08,181.686 258.493,180.688 z M64.885,168.301 C63.594,166.775 64.885,166.246 69.875,166.246 C74.806,166.246 75.863,166.657 75.217,168.301 C74.748,169.534 65.942,169.534 64.885,168.301 z" fill="#000000"/>
  </g>
</svg>
