<?xml version="1.0" encoding="UTF-8"?>
<!DOCTYPE svg PUBLIC "-//W3C//DTD SVG 1.1//EN" "http://www.w3.org/Graphics/SVG/1.1/DTD/svg11.dtd">
<svg version="1.1" xmlns="http://www.w3.org/2000/svg" xmlns:xlink="http://www.w3.org/1999/xlink" x="0" y="0" width="500" height="500" viewBox="0, 0, 500, 500">
  <g id="layer101">
    <path d="M251.621,498.962 C249.813,498.359 247.737,497.421 247.135,496.819 C245.996,495.681 245.996,495.145 247.67,487.378 C247.871,486.507 249.344,484.498 251.018,482.891 C254.634,479.477 254.835,477.334 251.621,476.329 C250.55,475.995 247.537,474.722 244.925,473.517 C241.711,472.044 237.961,470.973 233.207,470.169 C225.306,468.897 225.507,468.897 217.606,473.584 C214.124,475.66 212.986,475.928 205.888,476.597 C193.032,477.669 182.453,477.468 179.239,475.995 C177.699,475.325 176.225,474.388 175.958,473.919 C175.221,472.714 175.422,461.732 176.292,458.585 C177.163,455.237 179.506,453.363 183.524,452.76 C187.475,452.224 190.421,449.613 193.099,444.323 C194.974,440.707 194.974,440.44 193.97,438.096 C193.032,435.819 193.032,435.351 194.304,431.534 C196.514,424.838 197.317,416 196.447,409.505 C195.443,402.474 192.831,396.983 190.354,396.448 C189.082,396.247 188.144,395.309 187.14,393.167 C185.801,390.421 185.734,390.02 186.604,386.404 C187.14,384.194 187.675,377.967 187.809,372.142 C188.01,362.968 187.876,361.763 186.939,361.562 C186.269,361.428 185.265,362.299 184.327,363.705 C183.055,365.781 182.52,366.115 180.31,366.115 C177.833,366.115 177.498,366.383 175.087,369.999 C173.614,372.075 171.94,374.887 171.271,376.159 C170.668,377.431 169.597,379.105 168.927,379.842 C168.324,380.578 167.588,382.386 167.387,383.793 C167.119,385.266 166.249,387.207 165.244,388.212 C163.972,389.551 163.57,390.689 163.57,392.966 C163.503,397.854 158.95,404.282 155,404.885 C152.656,405.286 152.388,405.621 149.71,410.911 C146.362,417.54 145.358,418.745 142.411,419.682 C139.599,420.62 137.657,419.682 136.452,416.803 C135.715,414.995 135.715,414.393 136.519,412.853 C137.055,411.848 137.456,410.308 137.456,409.505 C137.456,408.5 138.126,407.496 139.398,406.759 C141.742,405.353 143.817,400.331 143.081,397.72 C142.344,395.042 142.545,394.64 147.031,389.015 C149.308,386.203 152.053,382.386 153.058,380.645 C155.067,377.298 159.285,372.677 162.767,370.267 C165.914,367.99 170.266,361.094 170.132,358.482 C170.065,356.808 171.204,354.665 175.422,348.639 C182.118,339.064 182.453,338.461 181.917,336.185 C180.712,331.297 177.23,326.878 172.141,323.798 C170.534,322.726 170.266,322.19 170.266,319.378 C170.266,317.637 170.668,315.629 171.204,314.892 C171.672,314.155 172.275,312.214 172.476,310.54 C172.677,308.866 173.011,306.656 173.279,305.585 C173.815,303.643 173.413,301.165 170.467,289.113 C168.726,281.881 166.784,277.194 165.378,276.792 C164.909,276.659 163.302,276.19 161.695,275.721 C159.754,275.252 158.883,274.65 159.084,274.114 C159.285,273.578 158.883,270.967 158.147,268.289 C157.41,265.543 156.674,261.392 156.473,258.981 C156.071,255.098 156.272,254.093 157.879,250.679 L159.754,246.795 L158.682,241.304 C158.08,238.358 157.276,233.805 156.874,231.194 C156.473,228.649 155.067,222.623 153.861,217.802 C152.589,213.048 150.848,205.214 149.911,200.393 C147.098,186.13 147.5,186.867 141.34,184.389 C138.394,183.251 138.059,182.582 136.184,174.814 C134.979,169.926 134.845,168.453 135.448,167.248 C136.05,166.11 136.05,165.306 135.448,163.833 C134.711,162.159 134.778,161.69 135.782,160.552 C136.385,159.883 137.724,159.213 138.729,159.079 C140.202,158.878 140.47,158.543 140.67,156.334 C140.871,154.124 140.536,153.455 138.528,151.647 C134.711,148.098 133.573,143.076 136.117,140.799 C138.461,138.657 137.456,135.443 134.042,134.237 C132.635,133.769 130.493,127.542 129.02,120.042 C128.417,116.761 127.814,113.614 127.68,113.145 C127.547,112.677 126.408,111.873 125.136,111.337 C123.127,110.467 122.324,110.467 118.239,111.538 C111.677,113.212 111.744,113.145 112.28,118.301 C112.883,123.859 116.9,139.46 119.043,144.281 C119.98,146.29 122.659,150.307 125.136,153.254 C130.426,159.615 131.564,163.297 134.845,183.653 C136.519,194.366 136.519,199.455 134.845,200.995 C133.64,202.134 133.372,202.134 130.493,200.861 C121.52,196.844 111.811,188.608 104.312,178.497 C95.339,166.445 86.3,146.156 83.622,132.095 C83.086,129.149 82.015,123.524 81.211,119.64 C79.336,109.797 79.47,108.391 82.55,101.562 C85.697,94.598 85.831,92.79 84.157,80.202 C83.086,72.033 82.015,66.14 79.068,52.347 C78.332,48.597 77.863,45.048 78.064,44.446 C79.336,41.232 100.495,35.741 102.437,38.152 C102.839,38.62 103.508,42.37 103.977,46.388 C106.254,67.881 112.816,76.787 120.918,69.287 C122.324,67.881 122.725,66.944 122.725,64.667 C122.659,59.244 121.721,56.766 118.373,53.82 C114.557,50.405 113.753,47.258 115.963,44.178 C117.837,41.5 117.771,40.495 114.958,34.67 C111.811,28.108 110.673,22.617 110.673,13.511 C110.673,5.543 111.409,2.262 113.418,1.19 C115.36,0.119 122.324,-0.417 123.797,0.387 C124.466,0.789 127.145,5.141 129.689,10.163 C134.778,20.14 134.778,20.274 133.774,31.657 C133.238,38.152 133.372,38.553 137.055,40.361 C138.059,40.83 138.662,42.035 139.063,44.312 C139.666,47.526 139.599,47.66 137.456,49.401 C135.582,50.941 135.314,51.476 135.715,53.15 C136.318,55.896 137.523,58.775 138.059,58.775 C142.746,59.177 152.053,58.976 152.723,58.574 C153.125,58.239 153.526,57.369 153.526,56.565 C153.526,55.829 154.598,54.088 155.87,52.682 C157.142,51.209 158.214,49.468 158.214,48.731 C158.214,46.789 160.557,44.714 162.834,44.714 C165.713,44.714 168.793,45.986 169.262,47.392 C169.53,48.195 170.936,48.999 173.145,49.669 C177.833,51.075 179.64,52.414 179.64,54.623 C179.64,56.967 181.381,59.444 182.921,59.444 C184.93,59.444 187.675,62.056 187.675,63.931 C187.675,64.868 186.805,66.676 185.667,67.948 C183.993,69.823 183.792,70.493 184.327,71.497 C184.729,72.234 185.533,72.836 186.068,72.836 C186.671,72.836 188.01,73.707 189.082,74.778 C192.095,77.858 191.425,81.541 187.809,81.541 C185.6,81.541 183.658,82.746 183.658,84.085 C183.658,84.755 184.595,86.161 185.667,87.232 C187.876,89.375 188.211,91.25 186.604,93.46 C184.863,95.937 183.323,96.406 180.511,95.267 C178.435,94.397 177.899,94.33 177.096,95.133 C176.426,95.87 176.359,96.674 176.828,98.414 C177.632,101.294 177.23,101.963 174.083,103.302 C170.266,104.909 168.659,104.575 166.65,102.03 C165.713,100.758 164.24,99.486 163.436,99.218 C162.566,99.017 161.361,98.347 160.758,97.745 C159.62,96.807 159.553,96.874 159.553,99.084 C159.553,100.49 160.222,102.432 161.227,103.905 C162.164,105.244 162.901,106.985 162.901,107.722 C162.901,109.061 170.735,117.029 174.083,119.038 C176.025,120.243 179.64,125.6 181.18,129.617 C182.854,133.769 182.72,142.607 180.913,146.491 C178.569,151.714 176.56,153.321 168.86,155.932 C166.516,156.736 164.173,157.673 163.771,158.075 C161.562,159.749 163.771,166.11 168.19,170.998 C169.998,172.94 172.141,176.02 173.011,177.694 C173.815,179.435 175.69,182.113 177.163,183.586 C181.582,188.139 187.006,195.237 188.345,198.25 C189.215,200.125 189.483,201.866 189.282,203.473 L188.881,205.883 L192.764,206.285 C197.184,206.754 197.92,206.419 202.272,202.267 C204.683,199.991 205.018,199.187 205.687,194.701 C207.428,183.586 211.178,173.274 214.593,170.127 C219.28,165.708 237.359,162.226 247.202,163.833 C249.746,164.235 254.366,165.909 258.585,167.851 C262.468,169.659 267.289,171.667 269.231,172.27 C273.985,173.81 277.199,176.689 278.137,180.171 C279.61,185.796 280.012,187.737 280.413,190.081 C280.614,191.487 281.217,192.96 281.819,193.429 C282.422,193.898 282.69,194.835 282.489,195.639 C281.886,198.25 283.292,202.334 285.502,204.276 C287.377,206.017 287.913,206.151 290.725,205.749 C292.399,205.548 295.68,205.214 297.956,205.013 C301.907,204.678 302.108,204.678 303.313,206.553 C305.054,209.298 305.389,209.432 310.879,209.432 C317.307,209.432 320.187,210.236 322.664,212.847 L324.606,214.856 L324.405,222.556 C324.271,226.841 324.472,230.591 324.807,231.06 C325.209,231.528 326.012,233.738 326.615,235.948 L327.753,240.099 L325.008,244.652 C323.468,247.13 322.262,249.406 322.262,249.741 C322.262,250.009 323.2,250.277 324.338,250.277 C327.017,250.277 330.097,247.264 330.498,244.184 C330.699,242.911 331.168,239.831 331.503,237.22 C331.838,234.675 332.641,231.194 333.311,229.52 C333.98,227.779 334.583,223.694 334.784,219.744 C335.119,213.717 334.985,212.579 333.712,209.968 C331.971,206.352 331.971,205.816 333.645,203.54 C334.449,202.401 335.185,199.656 335.654,196.04 C337.529,181.979 340.877,167.516 343.354,162.829 C344.292,161.088 345.028,159.146 345.028,158.543 C345.028,157.874 345.899,153.655 346.97,149.102 C349.916,136.514 349.983,135.71 348.51,132.363 C346.435,127.742 346.167,123.39 347.372,114.953 C349.046,103.503 350.318,102.03 359.023,101.227 C363.308,100.825 364.045,100.892 365.786,102.231 C366.924,103.035 368.531,103.972 369.468,104.307 C370.874,104.842 371.075,105.244 370.674,106.985 C370.406,108.659 370.674,109.463 372.013,110.869 L373.821,112.744 L373.151,120.243 C372.214,130.555 373.62,133.769 379.043,133.769 C382.257,133.769 385.405,136.38 386.409,139.929 C387.078,142.406 387.681,143.143 389.221,143.679 C391.364,144.482 393.573,147.361 392.904,148.567 C391.23,151.245 394.377,167.315 397.055,169.792 C398.194,170.797 398.997,172.672 399.667,175.484 C400.135,177.761 401.006,181.711 401.609,184.256 C402.345,187.67 403.082,189.411 404.421,190.684 C406.095,192.291 407.099,193.697 409.844,198.451 C411.585,201.531 411.652,205.95 409.978,209.499 L408.438,212.78 L409.978,214.387 C410.782,215.324 411.987,217.668 412.657,219.61 C413.661,222.757 414.063,223.226 416.406,224.029 C420.223,225.301 420.893,226.44 420.424,231.194 C420.223,233.537 420.491,237.756 421.027,241.237 C422.165,248.134 422.299,253.491 421.361,254.964 C420.826,255.767 420.491,255.834 419.42,255.165 C418.616,254.696 417.21,254.495 416.072,254.696 C414.264,255.098 413.862,254.83 412.858,252.955 C410.112,248 409.51,247.598 405.291,247.598 C401.006,247.598 399.265,248.603 399.265,251.147 C399.332,254.964 400.604,261.258 401.609,262.329 C402.747,263.602 404.823,272.172 404.22,273.11 C404.086,273.445 404.354,275.52 404.956,277.797 C406.296,282.953 405.291,288.242 402.814,289.18 C401.609,289.649 401.274,290.251 401.274,292.059 C401.274,296.612 397.591,297.215 392.971,293.398 C390.293,291.122 389.891,290.586 390.293,288.912 C390.761,286.568 389.355,280.676 387.681,278.132 C385.204,274.583 383.597,267.217 383.463,259.316 C383.329,252.62 383.262,251.884 381.923,251.013 C381.119,250.478 379.579,248.134 378.508,245.724 C377.436,243.38 375.629,240.434 374.557,239.229 C373.151,237.622 372.415,235.814 371.879,232.466 C371.41,229.921 370.607,225.971 370.071,223.694 C368.732,218.271 369.201,216.262 372.883,212.311 C376.633,208.227 376.968,206.955 375.093,203.339 C373.352,199.857 373.084,193.429 374.49,188.139 C375.227,185.461 375.227,183.921 374.691,181.443 C373.62,176.622 369.87,165.038 369.134,164.302 C368.196,163.364 363.978,167.65 363.174,170.194 C362.839,171.333 362.237,174.011 361.768,176.154 C361.099,179.568 360.697,180.238 358.353,181.711 C356.88,182.582 355.407,184.055 355.072,184.858 C353.599,188.675 350.988,202 350.05,211.106 C349.448,216.664 348.845,221.685 348.644,222.355 C347.774,225.167 348.309,231.528 349.649,234.073 C350.787,236.349 350.921,237.287 350.385,240.434 C350.05,242.51 349.448,244.786 349.113,245.523 C348.711,246.259 348.376,247.866 348.376,249.072 C348.376,255.433 344.895,259.852 339.203,260.99 C334.449,261.861 333.244,262.731 331.369,266.749 C330.297,269.025 328.958,270.632 327.351,271.57 C324.539,273.244 324.338,274.181 326.481,275.052 C327.82,275.587 327.753,275.654 325.744,275.654 C324.539,275.721 323.401,276.123 323.2,276.659 C322.932,277.462 325.677,283.756 328.557,288.778 C328.958,289.515 329.494,292.863 329.762,296.144 C330.498,306.187 331.101,310.54 331.704,310.941 C332.038,311.142 332.306,312.615 332.306,314.289 C332.306,316.164 332.909,318.441 334.047,320.583 C336.726,325.739 334.985,329.958 330.231,329.958 C327.887,329.958 327.619,330.828 327.619,338.595 C327.619,344.488 327.485,345.224 326.146,346.497 C323.869,348.505 321.928,349.376 319.584,349.376 C316.705,349.376 314.562,351.786 313.625,355.871 C313.022,358.817 313.156,359.888 314.294,363.37 L315.701,367.455 L314.027,370.334 C311.817,374.083 311.147,374.619 305.724,376.829 C303.179,377.833 301.103,379.105 300.97,379.708 C300.836,380.244 303.849,386.672 307.598,394.037 C318.513,415.397 321.526,420.419 330.364,432.137 C333.177,435.886 335.721,439.904 335.989,441.042 C336.525,443.654 340.341,446.935 346.435,450.149 C351.59,452.827 352.729,454.3 352.126,457.514 C351.724,459.657 345.698,469.299 342.819,472.513 C340.676,474.789 332.038,478.807 320.053,482.958 C315.901,484.431 314.763,484.565 308.134,484.164 C303.246,483.896 300.568,483.427 300.099,482.824 C299.162,481.753 296.55,481.686 295.613,482.824 C295.211,483.226 294.943,484.967 294.943,486.641 C295.01,488.315 294.675,490.324 294.207,491.127 C293.47,492.6 289.854,494.007 287.042,494.007 C286.306,494.007 283.025,494.944 279.878,496.015 C276.664,497.154 273.048,498.024 271.909,498.024 C270.704,498.024 268.829,498.493 267.758,499.028 C265.281,500.368 256.107,500.301 251.621,498.962 z M186.939,274.449 C187.408,274.114 188.077,272.641 188.345,271.101 C188.747,268.958 188.546,267.753 187.542,265.677 C186.805,264.204 185.801,262.999 185.265,262.999 C184.127,262.999 182.988,265.142 182.988,267.351 C182.988,268.356 182.386,270.03 181.649,271.034 C179.841,273.578 180.511,275.052 183.591,275.052 C184.93,275.052 186.403,274.784 186.939,274.449 z M316.772,252.152 C317.91,251.013 317.776,250.277 316.37,250.277 C315.098,250.277 313.558,251.482 313.558,252.42 C313.558,253.223 315.901,253.022 316.772,252.152 z M170.333,145.888 C172.744,143.545 172.945,143.009 172.945,139.728 C172.878,133.099 172.141,131.291 166.784,125.934 C158.214,117.163 157.343,117.565 159.419,128.881 C160.222,133.233 161.093,139.192 161.361,142.139 C161.562,145.085 162.097,147.696 162.499,147.964 C162.901,148.232 164.24,148.5 165.512,148.5 C167.253,148.5 168.324,147.897 170.333,145.888 z" fill="#000000"/>
  </g>
</svg>
