<?xml version="1.0" encoding="UTF-8"?>
<!DOCTYPE svg PUBLIC "-//W3C//DTD SVG 1.1//EN" "http://www.w3.org/Graphics/SVG/1.1/DTD/svg11.dtd">
<svg version="1.1" xmlns="http://www.w3.org/2000/svg" xmlns:xlink="http://www.w3.org/1999/xlink" x="0" y="0" width="500" height="500" viewBox="0, 0, 500, 500">
  <g id="layer101">
    <path d="M209.451,451.116 C209.935,415.763 211.872,411.566 216.392,435.296 C217.845,443.044 219.459,449.663 219.782,449.986 C220.105,450.47 224.302,450.793 229.145,450.954 C239.315,451.438 241.252,449.501 242.705,438.201 C245.126,421.736 245.611,420.121 248.516,420.121 C251.583,420.121 253.682,426.417 255.942,441.591 C256.749,447.403 257.879,449.663 260.462,450.793 C264.498,452.246 275.798,451.6 277.735,449.663 C278.38,449.017 279.995,442.237 281.125,434.811 C282.416,426.901 284.03,420.929 285.322,420.444 C286.775,419.96 287.259,426.901 287.259,451.6 L287.259,483.24 L303.886,482.755 L320.352,482.271 L321.159,472.585 C321.966,463.223 322.127,462.9 326.809,462.415 C329.392,462.093 332.136,460.963 332.781,459.994 C333.427,458.864 334.073,451.6 334.073,443.69 C334.073,430.453 333.589,428.516 328.262,417.861 C325.033,411.566 321.804,405.754 321.159,404.786 C320.513,403.979 315.509,394.616 310.02,384.284 L300.173,365.397 L300.173,350.385 C300.173,336.663 299.366,328.753 295.976,308.898 L294.846,301.956 L314.056,283.069 C343.113,254.819 377.981,221.888 410.105,192.347 C412.527,190.248 422.858,180.563 433.351,170.716 C443.682,161.03 454.821,150.537 457.888,147.793 C460.955,144.887 470.641,137.462 479.358,131.327 L495.178,120.027 L496.146,85.643 C496.792,65.949 498.083,49.645 499.052,47.546 C500.666,44.641 500.343,43.349 497.115,39.959 L493.402,35.924 L432.382,35.924 L371.524,35.924 L369.748,40.443 C367.488,45.932 355.381,79.993 352.96,87.58 C349.731,97.589 346.341,97.589 344.727,87.58 C343.436,79.509 341.014,79.186 339.561,86.935 C338.916,90.97 337.301,93.069 334.719,94.199 C332.62,94.845 331.006,96.136 331.167,96.782 C331.974,99.687 328.907,105.015 326.002,105.822 C322.127,106.79 321.159,105.822 321.159,100.979 C321.159,98.88 320.029,95.329 318.576,93.23 C316.639,90.163 316.154,86.45 316.639,77.895 C317.123,71.599 316.8,66.11 315.993,65.626 C314.217,64.496 314.379,54.811 316.316,49.806 C317.123,47.546 317.284,45.286 316.477,44.963 C315.832,44.479 315.509,38.345 315.993,31.242 C316.639,19.296 316.477,18.489 313.249,17.359 C305.984,15.099 305.5,17.521 305.5,55.456 C305.339,84.998 305.016,91.616 302.917,93.553 C299.366,97.105 293.716,94.845 293.716,89.84 C293.716,87.58 292.586,85.482 291.295,84.998 C289.519,84.19 288.873,81.285 288.873,73.213 C288.873,63.205 288.389,61.752 281.286,50.936 C276.605,43.833 272.569,39.152 270.793,39.152 C269.018,39.152 267.888,37.699 267.565,34.794 C267.08,30.596 266.596,30.274 259.978,30.919 C255.458,31.242 252.39,30.596 251.583,29.305 C250.776,27.852 249.808,27.691 248.193,28.982 C245.449,31.242 235.763,32.534 234.633,30.758 C232.858,27.852 230.759,29.789 230.759,34.309 C230.759,37.861 229.952,39.152 228.015,39.152 C226.239,39.152 222.365,43.511 218.329,50.129 C212.034,59.815 211.388,61.913 211.388,70.953 C211.388,77.41 210.581,81.769 209.128,83.222 C207.836,84.352 206.545,87.258 206.222,89.356 C205.899,91.939 204.446,93.392 202.025,93.715 C195.406,94.683 193.308,91.293 193.792,80.478 C193.954,74.989 193.631,67.24 192.985,63.043 C192.178,58.362 192.339,53.519 193.308,50.613 C194.277,47.869 194.438,45.286 193.792,44.963 C193.147,44.479 192.824,38.345 193.308,31.242 C193.954,19.942 193.631,18.005 191.209,17.198 C189.595,16.552 187.174,16.714 185.721,17.682 C183.461,19.135 183.138,24.139 182.977,55.295 C182.654,83.545 182.169,91.455 180.555,92.585 C179.264,93.392 174.259,93.876 169.417,93.715 L160.538,93.23 L159.085,86.45 C157.31,78.218 154.888,77.249 154.888,84.836 C154.888,89.84 152.628,94.037 149.884,94.037 C148.431,94.037 147.785,92.585 137.938,63.528 C133.095,49.968 128.737,38.184 127.93,37.538 C127.284,36.731 105.814,35.601 80.47,34.955 C38.176,33.986 33.979,34.148 28.329,36.731 C22.679,39.475 21.872,39.475 16.706,36.892 C13.639,35.439 9.765,34.309 8.312,34.309 C2.5,34.309 -2.827,45.286 1.693,48.192 C2.823,48.838 3.308,54.972 3.146,65.626 C2.823,74.505 2.823,90.002 2.985,100.01 L3.146,117.929 L19.45,129.552 C28.329,136.009 50.444,155.057 68.363,172.168 C86.12,189.118 113.886,215.27 129.867,230.444 C145.848,245.457 165.381,264.021 173.452,271.608 C207.029,303.571 205.092,300.826 201.541,311.965 C200.572,315.032 199.281,328.592 198.635,341.829 C197.505,364.429 197.182,366.527 192.985,374.115 C190.402,378.635 182.654,392.84 175.551,405.754 L162.798,429.484 L163.282,445.304 L163.767,461.285 L169.901,461.77 L175.874,462.254 L175.874,472.747 L175.874,483.24 L192.501,482.755 L208.966,482.271 L209.451,451.116 z" fill="#000000"/>
  </g>
</svg>
