<?xml version="1.0" encoding="UTF-8"?>
<!DOCTYPE svg PUBLIC "-//W3C//DTD SVG 1.1//EN" "http://www.w3.org/Graphics/SVG/1.1/DTD/svg11.dtd">
<svg version="1.1" xmlns="http://www.w3.org/2000/svg" xmlns:xlink="http://www.w3.org/1999/xlink" x="0" y="0" width="500" height="500" viewBox="0, 0, 500, 500">
  <g id="layer102">
    <path d="M51.604,337.769 C52.059,333.676 53.423,332.16 62.67,326.855 C71.765,321.549 74.493,320.791 81.315,320.943 C87.985,321.246 90.562,322.156 97.535,327.31 L105.721,333.373 L133.613,333.373 C148.771,333.373 161.96,332.767 162.718,332.009 C163.627,331.099 171.358,330.19 180.15,329.735 C188.942,329.28 202.433,328.522 210.164,327.916 C220.169,327.31 224.869,327.613 226.536,328.977 C229.113,331.099 250.941,331.099 253.518,328.977 C257.309,325.794 312.334,327.916 317.64,331.402 C320.369,333.222 326.28,333.525 347.351,333.07 L373.727,332.615 L381.914,326.248 C394.192,316.698 401.468,316.85 419.203,327.006 C426.934,331.554 428.602,333.222 429.511,337.466 L430.421,342.468 L453.159,342.468 C472.563,342.468 476.049,342.165 476.807,340.043 C477.868,337.163 474.837,334.889 469.682,334.889 C467.56,334.889 464.528,333.979 462.861,332.767 C461.194,331.706 456.494,328.825 452.25,326.552 C448.157,324.278 442.245,320.943 439.365,319.124 C423.903,309.271 421.175,307.603 420.265,307.603 C419.81,307.603 416.93,305.481 414.049,303.055 L408.744,298.357 L371.15,298.66 C338.862,298.811 332.95,298.508 329.919,296.385 C328.1,295.022 324.007,293.961 320.823,293.961 L315.063,293.961 L315.063,286.533 L315.063,278.953 L320.823,278.498 C325.977,278.044 326.432,277.589 326.887,272.89 C327.19,270.161 326.735,267.129 325.826,266.22 C323.703,264.098 323.703,258.034 325.674,256.821 C326.584,256.366 327.19,254.244 327.19,252.274 C327.19,250.303 327.796,248.332 328.403,247.878 C329.009,247.574 346.593,247.12 367.361,246.968 C413.444,246.665 425.267,245.301 437.697,239.389 C442.851,236.812 447.702,234.841 448.46,234.841 C449.37,234.841 449.976,233.477 449.976,231.81 C449.976,229.081 448.915,228.778 437.242,228.778 C423.6,228.778 421.78,227.868 423.296,221.805 C424.51,217.105 432.392,216.651 434.818,221.198 C435.727,222.866 437.394,224.23 438.607,224.23 C439.82,224.23 441.487,222.866 442.397,221.198 C444.519,217.257 447.854,217.409 450.128,221.502 L451.947,224.837 L454.22,221.502 C456.949,217.409 461.648,217.105 462.861,221.198 C463.618,223.624 465.134,224.23 470.137,224.23 C475.14,224.23 477.414,223.321 481.354,219.379 C484.083,216.651 486.357,213.619 486.357,212.406 C486.357,211.194 487.722,208.465 489.54,206.343 C493.33,201.34 500,191.033 500,190.123 C500,189.668 485.296,189.365 467.409,189.365 C436.485,189.365 434.818,189.516 433.301,192.397 C431.179,196.338 424.812,196.338 422.69,192.397 C421.477,190.123 419.507,189.365 415.111,189.365 C411.928,189.365 409.047,190.123 408.744,191.033 C408.29,192.245 407.228,192.245 404.803,190.73 C401.923,188.91 401.165,189.062 397.981,192.093 C394.647,195.277 393.282,195.428 367.361,195.428 C341.59,195.428 340.075,195.277 336.74,192.093 C334.012,189.516 332.799,189.214 331.434,190.577 C329.161,192.851 320.217,193.003 318.853,190.881 C317.488,188.758 310.06,188.91 307.787,191.184 C306.422,192.549 305.21,192.245 302.482,189.668 C300.359,187.698 297.024,186.333 294.296,186.333 C290.961,186.333 289.445,185.575 288.839,183.302 C288.232,181.028 286.716,180.269 282.623,180.269 C279.592,180.269 277.166,179.967 277.166,179.664 C277.166,179.36 279.288,174.51 281.714,168.901 C284.291,163.292 286.262,158.441 286.262,158.138 C286.262,157.835 282.169,157.532 277.318,157.532 C270.042,157.532 267.465,158.29 263.978,161.17 C260.037,164.505 258.521,164.808 238.966,164.959 C215.773,165.111 210.922,166.475 210.164,172.539 C209.71,176.329 209.406,176.48 197.128,176.934 C184.85,177.39 184.698,177.238 183.182,173.448 C181.969,170.265 180.757,169.507 177.724,169.962 C173.784,170.417 172.116,172.084 170.449,177.693 C169.842,179.36 168.023,180.269 164.991,180.269 C158.928,180.269 152.864,184.363 152.864,188.304 C152.864,189.972 154.229,193.003 156.048,194.822 C160.292,199.37 158.625,201.492 150.439,201.492 C146.801,201.492 143.769,202.098 143.769,202.857 C143.769,203.615 141.95,204.524 139.677,204.827 C135.584,205.282 135.432,205.736 134.977,214.528 C134.523,222.866 135.128,224.685 139.221,230.748 C141.798,234.69 143.769,239.541 143.769,242.269 C143.769,246.816 143.921,246.968 151.197,246.968 C157.564,246.968 159.231,247.574 162.414,251.516 C166.053,255.761 167.114,256.063 176.057,256.063 C181.363,256.063 186.062,256.366 186.517,256.821 C186.971,257.276 186.971,259.398 186.517,261.369 C185.911,265.008 185.304,265.159 175.754,265.31 C170.297,265.31 163.021,265.765 159.686,266.371 C153.925,267.432 153.622,267.736 153.622,272.738 C153.622,277.589 154.078,278.044 158.928,278.802 C164.082,279.56 164.234,279.711 164.234,286.381 L164.234,293.051 L157.564,294.264 C153.925,294.87 149.833,296.385 148.468,297.599 C146.498,299.418 138.767,300.024 106.933,300.327 C82.982,300.63 67.369,301.388 66.762,302.297 C65.095,304.723 55.697,311.393 49.027,315.031 C45.693,316.85 40.993,319.579 38.416,321.094 C21.135,331.706 11.433,336.405 6.734,336.405 C1.277,336.405 -1.148,338.224 0.519,340.953 C1.125,341.862 11.433,342.468 26.289,342.468 L51.149,342.468 L51.604,337.769 z" fill="#000000"/>
    <path d="M319.611,227.262 C319.611,224.837 327.796,221.502 331.889,222.259 C334.315,222.714 336.437,222.108 337.65,220.592 C339.317,218.47 344.016,218.167 366.906,218.167 C392.373,218.167 394.343,218.318 398.436,221.502 C407.835,228.475 406.167,228.778 361.297,228.626 C336.892,228.626 319.611,228.02 319.611,227.262 z" fill="#FDFDFD"/>
  </g>
</svg>
