<?xml version="1.0" encoding="UTF-8"?>
<!DOCTYPE svg PUBLIC "-//W3C//DTD SVG 1.1//EN" "http://www.w3.org/Graphics/SVG/1.1/DTD/svg11.dtd">
<svg version="1.1" xmlns="http://www.w3.org/2000/svg" xmlns:xlink="http://www.w3.org/1999/xlink" x="0" y="0" width="500" height="500" viewBox="0, 0, 500, 500">
  <g id="layer101">
    <path d="M368.393,344.238 C365.929,341.595 365.929,341.595 364.821,341.809 C364.25,341.917 363.286,342.452 362.679,343.024 C361.214,344.417 360.714,344.524 356.786,344.167 C353.643,343.917 352.464,343.559 349.929,342.131 C349.071,341.667 348.821,341.667 347.786,342.095 C347.143,342.381 346.214,343.024 345.75,343.559 C344.929,344.452 344.679,344.488 341.536,344.488 C338.321,344.488 338.071,344.417 335.393,343.059 C332.464,341.559 331.429,341.345 330.643,342.095 C329.071,343.631 327.607,344.131 324.571,344.131 C322.75,344.131 321.036,343.917 320.286,343.631 C318.857,343.024 313,343.131 311.786,343.774 C311.25,344.059 309.679,344.131 307.036,344.024 C300.786,343.738 295.821,343.738 292.321,344.059 C290.036,344.274 288.571,344.202 287.286,343.917 C286.179,343.631 284.5,343.524 282.964,343.667 C281,343.809 280.393,343.738 279.929,343.309 C279.393,342.774 279.286,342.774 278.464,343.417 C277.714,344.024 277,344.131 273.821,344.131 C270.143,344.131 270,344.095 268.893,343.059 C267.643,341.917 265.357,341.381 263.679,341.809 C263.143,341.917 262.179,342.524 261.536,343.095 C260.393,344.095 260.179,344.131 256.857,344.131 C253.607,344.131 253.286,344.059 251.821,343.059 C250.607,342.238 249.857,341.988 248.536,341.988 C247.036,341.988 246.571,342.167 245.321,343.345 C243.857,344.631 243.75,344.667 240.536,344.774 L237.25,344.917 L235.536,343.417 C234.571,342.595 233.286,341.667 232.643,341.345 C231.536,340.845 231.357,340.845 230.036,341.452 C229.25,341.774 228.179,342.524 227.643,343.095 C226.714,344.059 226.464,344.131 223.75,344.131 C221.357,344.131 220.607,343.988 219.286,343.274 C215.143,341.024 214.643,340.845 213.464,341.274 C212.857,341.488 211.857,342.095 211.25,342.667 C210.286,343.595 209.857,343.702 206.893,343.917 C203.679,344.131 203.607,344.131 202.429,343.167 C199.107,340.345 196.786,340.274 194,342.845 C193.286,343.488 192.607,343.631 189.857,343.702 C186.786,343.845 186.5,343.774 185.5,342.952 C184,341.702 183.036,341.274 181.786,341.274 C180.464,341.274 178.214,342.167 178.214,342.667 C178.214,343.524 176.071,344.131 173.036,344.131 C170,344.131 168.679,343.774 168.107,342.809 C167.964,342.559 167.179,342.024 166.393,341.595 C164.643,340.702 163.286,341.059 161.036,342.917 C159.607,344.095 159.5,344.131 156.393,344.131 C153.429,344.131 153.107,344.059 152.357,343.274 C151.929,342.774 150.643,342.059 149.536,341.631 C147.643,340.917 147.5,340.917 146.357,341.488 C145.714,341.809 144.643,342.559 144,343.095 C142.893,344.095 142.679,344.131 139.429,344.131 C136.179,344.131 136.036,344.095 135.643,343.238 C135.357,342.595 134.679,342.202 133.25,341.738 C132.143,341.417 130.964,341.167 130.607,341.202 C130.286,341.238 128.964,341.917 127.714,342.702 C125.536,344.095 125.357,344.131 122.357,344.131 C119.393,344.131 119.25,344.095 117.964,342.917 C116.393,341.559 115.286,340.917 114.429,340.917 C114.107,340.917 112.75,341.595 111.464,342.417 C109.214,343.881 108.964,343.952 105.857,344.059 L102.607,344.202 L101.5,343.024 C100.607,342.059 100.107,341.845 98.464,341.702 C96.714,341.559 96.25,341.702 94.214,342.845 C92.071,344.024 91.679,344.131 89,344.131 C86.429,344.131 86,344.024 85.036,343.238 C84.464,342.738 83.107,342.059 82.071,341.774 C81.036,341.452 79.5,340.809 78.643,340.309 C77.286,339.524 76.821,339.452 75,339.667 C73.107,339.881 72.714,339.809 71.071,338.917 C68.857,337.738 67.5,336.202 67.5,334.952 C67.5,334.452 67.179,333.667 66.786,333.167 C66.393,332.667 66.071,331.809 66.071,331.274 C66.071,329.595 64,327.381 61.571,326.417 C60.429,325.988 59.893,325.488 59.286,324.274 C58.821,323.417 58.357,322.702 58.214,322.702 C57.643,322.702 57.071,320.559 57.107,318.559 C57.143,316.595 57.036,316.274 55.929,314.988 C55,313.917 54.286,313.488 52.679,313.059 C50.679,312.524 50.536,312.452 49.036,310.024 C47.75,307.952 47.5,307.309 47.679,306.274 C47.786,305.595 47.714,304.059 47.536,302.917 C47.179,300.381 45.929,299.024 43.643,298.667 C42.214,298.417 40.357,296.809 40.357,295.809 C40.357,295.559 39.893,294.845 39.321,294.167 L38.286,292.952 L36.964,293.559 C35.893,294.059 35.429,294.131 34.786,293.809 C33.571,293.274 33.214,292.059 33.464,289.202 C33.679,286.631 33.25,285.202 32.286,285.202 C32,285.202 31,285.917 30.071,286.774 C27.321,289.309 25.964,289.738 24.643,288.417 C23.75,287.524 23.75,286.309 24.643,283.667 C25.143,282.131 25.25,281.381 24.964,280.881 C24.464,279.917 22.857,280.024 21.214,281.131 C19.179,282.524 17.643,282.881 16.571,282.167 C15.357,281.381 15.429,279.631 16.786,277.095 C18,274.845 18.107,273.952 17.286,273.488 C16.643,273.131 16.643,273.131 13.107,273.952 C10.857,274.488 10.571,274.488 9.786,273.952 C8.357,273.024 8.821,270.702 10.857,268.809 C11.929,267.774 12.393,266.095 11.75,265.345 C11.393,264.917 10.786,264.845 8.607,265.024 C5.429,265.309 4.036,264.917 3.714,263.631 C3.357,262.202 3.821,261.452 6.071,259.702 C9.25,257.202 9.357,255.595 6.393,255.559 C4.179,255.559 1.429,254.559 1,253.559 C0.357,252.202 1.107,251.131 3.857,249.524 C7.571,247.345 7.571,246.524 3.857,245.167 C1.179,244.167 0,243.238 0,242.167 C0,240.952 1.143,240.024 3.464,239.309 C5.393,238.702 6.786,237.738 6.786,236.988 C6.786,236.774 6.036,236.095 5.107,235.452 C1.893,233.202 1.429,232.738 1.429,231.417 C1.429,230.024 1.929,229.667 4.464,229.345 C7.25,228.952 8.5,228.452 8.786,227.595 C8.964,226.988 8.571,226.417 6.643,224.631 C4.036,222.167 3.714,221.131 5.036,219.809 C5.821,219.024 6.179,219.024 10.464,219.702 C13,220.131 13.643,218.238 11.786,215.738 C10.679,214.274 9.643,212.274 9.643,211.667 C9.643,210.988 10.786,210.202 11.75,210.202 C12.286,210.202 13.714,210.559 14.964,210.952 C16.75,211.559 17.393,211.631 18.071,211.309 C19.179,210.809 19.143,210.131 17.857,207.417 C16.536,204.595 16.464,203.274 17.679,202.488 C18.536,201.917 18.679,201.952 21.571,203.452 C24.571,204.988 24.607,204.988 25.357,204.309 C26,203.738 26.107,203.345 25.929,202.167 C25.321,197.952 25.286,196.988 25.714,196.452 C26.464,195.559 28.036,195.809 29.786,197.167 C30.714,197.845 31.5,198.417 31.607,198.417 C31.714,198.417 32.321,197.238 33.036,195.845 C34.964,191.738 35.536,191.059 38.179,189.309 L40.679,187.667 L42.536,188.202 C43.571,188.524 45.143,188.774 46.036,188.774 C46.893,188.774 48.143,188.952 48.786,189.202 C49.821,189.559 50.036,189.524 51.071,188.667 C52.321,187.595 53.75,187.417 54.857,188.202 C55.607,188.738 57.286,188.595 57.821,187.917 C58,187.702 58.5,186.238 58.929,184.667 C59.357,183.095 60.107,181.059 60.607,180.167 C61.786,177.988 64.357,175.309 66.893,173.631 C68.036,172.881 69.464,171.702 70.071,171.059 C70.821,170.274 71.571,169.845 72.143,169.845 C72.714,169.845 73.5,169.417 74.143,168.738 C75.607,167.202 76.286,166.881 77.179,167.345 C77.643,167.631 78.036,167.631 78.321,167.417 C78.75,167.059 83.821,166.952 91.429,167.131 C93.679,167.167 96.071,167.059 96.714,166.845 C97.571,166.559 98.071,166.595 98.607,166.917 C99.071,167.238 100.571,167.381 102.786,167.345 C104.679,167.345 106.893,167.417 107.679,167.524 C110.25,167.917 114.357,167.702 115.393,167.095 L116.357,166.524 L115.286,165.488 C114.25,164.524 114.214,164.345 114.393,162.667 C114.571,161.131 114.857,160.667 116.214,159.381 C120.714,155.131 123.643,154.381 133.214,155.095 C136.821,155.381 137.071,155.452 140.143,157.167 C144.643,159.702 145.714,160.774 145.714,162.774 C145.714,164.131 145.571,164.488 144.607,165.167 C143.143,166.274 143.286,167.381 145,167.809 C145.679,167.988 146.571,168.095 146.964,168.059 C147.357,168.024 150.143,167.917 153.179,167.845 C158.321,167.667 158.786,167.702 159.679,168.381 C160.929,169.309 161.643,169.345 162.107,168.452 C162.393,167.917 163.071,167.738 165.071,167.559 C169.571,167.131 169.964,167.167 170.821,168.024 C171.5,168.702 171.607,169.167 171.607,171.774 C171.607,175.202 171.25,175.809 169.357,175.988 C168.321,176.059 167.929,176.309 167.571,177.095 C167.321,177.631 166.643,178.309 166.036,178.595 C164.929,179.202 164.75,179.809 165.429,181.024 C165.679,181.452 165.964,182.774 166.071,183.952 L166.25,186.095 L168.571,186.274 C169.857,186.381 171.393,186.738 172.036,187.095 C173.071,187.631 176.286,187.702 214.714,187.774 C237.571,187.809 261.964,187.845 268.929,187.845 C279.964,187.881 281.607,187.809 281.607,187.345 C281.607,186.988 281.179,186.774 280.25,186.702 C278.179,186.524 277.714,185.274 277.964,180.845 C278.107,178.917 278.393,176.881 278.643,176.345 C279.071,175.488 279.321,175.381 280.893,175.381 C281.964,175.381 283.179,175.095 283.893,174.738 C284.893,174.167 285.321,174.131 286.5,174.417 C287.786,174.738 287.964,174.702 288.107,174.095 C288.393,173.024 290.286,172.238 292.75,172.131 C293.964,172.059 295.321,171.845 295.75,171.595 C296.25,171.345 299.429,171.167 304.786,171.059 C309.321,170.988 314.25,170.774 315.714,170.559 C317.179,170.381 319.607,170.059 321.107,169.845 C322.571,169.631 324.107,169.559 324.5,169.702 C324.857,169.845 325.929,170.667 326.893,171.524 C329.036,173.524 331.107,174.452 333.393,174.488 C334.393,174.488 335.5,174.738 335.857,175.024 C336.321,175.381 337.393,175.559 338.786,175.559 C340.643,175.559 341.214,175.702 342.036,176.417 C342.929,177.167 343.036,177.524 343.143,179.988 C343.393,184.488 342.357,185.917 338.929,185.917 C337.571,185.917 336.643,186.131 335.893,186.631 C335.321,187.024 334.25,187.345 333.571,187.345 C331.964,187.345 331.071,187.845 332,188.202 C332.679,188.452 352.071,188.595 371.786,188.417 C385.393,188.345 388.786,188.345 404.286,188.559 C410.679,188.631 420.357,188.738 425.786,188.774 L435.714,188.881 L436.75,187.738 C437.929,186.488 438.321,186.417 439.714,187.131 C440.25,187.417 441,187.559 441.429,187.452 C441.821,187.345 442.571,187.524 443.071,187.881 C443.821,188.381 443.964,188.667 443.786,189.488 C443.679,190.131 443.857,191.131 444.321,192.167 C445.25,194.274 445.536,199.202 444.786,200.595 C444.5,201.167 444.286,201.988 444.286,202.488 C444.286,202.988 444.107,203.774 443.893,204.274 C443.5,205.095 443.393,205.131 440.036,205.059 C437.107,204.988 436.357,204.845 434.821,204.024 C433.25,203.167 432.643,203.059 429.643,203.059 C424.143,203.059 418.679,204.559 414.286,207.238 C410.607,209.488 406.286,215.238 405.036,219.452 C403.857,223.488 403.571,225.131 403.571,227.881 L403.571,230.559 L404.75,231.024 C406.5,231.774 407,232.559 406.536,233.774 C406.179,234.702 406.25,234.881 407,235.381 C407.643,235.809 407.857,236.238 407.857,237.309 C407.857,238.631 410.286,244.167 411.071,244.667 C411.286,244.809 411.429,245.095 411.429,245.345 C411.429,245.845 416.464,254.702 417.857,256.631 C419.179,258.452 419.536,259.095 420.571,261.274 C421.107,262.345 421.786,263.595 422.107,263.988 C422.429,264.417 422.929,265.131 423.214,265.595 C423.5,266.024 424.5,267.238 425.393,268.274 C426.321,269.274 427.25,270.738 427.5,271.488 C427.75,272.274 428.536,273.595 429.25,274.488 C429.964,275.345 431.357,277.131 432.321,278.452 C434.821,281.774 443.786,291.274 448.536,295.631 C449.321,296.381 450.5,297.238 451.143,297.559 C451.786,297.881 453.536,298.988 455,300.024 C458.143,302.238 460,303.095 466.25,305.309 C473.321,307.845 480.464,309.095 486.607,308.881 C490.071,308.774 490.893,308.881 493.571,309.702 C498,311.095 500,312.667 500,314.702 C500,316.202 497.929,318.024 495.036,319.095 C493.893,319.524 492.357,320.274 491.607,320.774 C490.393,321.595 490,321.667 488.25,321.488 C487.143,321.345 484.571,321.167 482.536,321.059 C478.893,320.845 478.821,320.845 477.964,321.774 C476.964,322.845 475.643,322.952 473,322.167 C470.679,321.452 465.036,321.452 464.071,322.131 C463.5,322.559 462.179,322.631 456.357,322.452 C450.036,322.238 449.25,322.309 448.393,322.845 C447.643,323.345 447.036,323.417 445.75,323.238 C444.857,323.131 440.143,322.917 435.321,322.845 C425.464,322.631 425.429,322.631 426.107,324.881 C426.464,326.024 426.357,326.417 425.036,329.095 C424.214,330.702 423.286,332.095 422.929,332.202 C421.393,332.667 419.714,333.702 418.357,335.024 C417.571,335.809 416.321,336.881 415.643,337.417 C414.929,337.952 413.964,339.059 413.5,339.917 C412.714,341.345 412.536,341.452 409.286,342.417 C405.179,343.595 403.107,343.667 401.464,342.667 C400.464,342.059 400.071,341.988 399.393,342.309 C398.929,342.524 398.179,342.702 397.714,342.702 C397.25,342.702 396.679,342.952 396.393,343.274 C395.393,344.488 394,344.845 390.179,344.845 C386.179,344.845 384.429,344.381 383.536,343.167 C382.464,341.667 381.286,341.845 379,343.845 C377.964,344.738 377.571,344.845 375.786,344.774 C374.679,344.738 372.75,344.845 371.536,344.988 C369.393,345.274 369.286,345.238 368.393,344.238 z M316.25,341.988 C316.393,341.774 316.036,341.631 315.393,341.631 C314.821,341.631 314.214,341.809 314.107,341.988 C313.964,342.202 314.321,342.345 314.964,342.345 C315.536,342.345 316.143,342.202 316.25,341.988 z M29.643,273.774 C29.643,273.274 28,271.631 27.5,271.631 C26.893,271.631 27.107,272.345 28.036,273.238 C28.929,274.167 29.643,274.381 29.643,273.774 z M20,259.381 C20,259.167 19.679,258.309 19.25,257.452 C18.75,256.452 18.286,255.917 17.821,255.917 C17,255.917 17,256.024 17.714,258.059 C18.464,260.202 18.893,260.702 19.5,260.167 C19.786,259.952 20,259.595 20,259.381 z M16,236.595 C15.929,235.917 15.75,235.417 15.536,235.452 C15.107,235.559 14.857,237.202 15.179,237.988 C15.536,238.917 16.143,237.917 16,236.595 z M19.179,227.738 C19.607,227.524 20.286,227.345 20.679,227.345 C22.107,227.345 21.893,225.809 20.357,225.024 C19.179,224.417 18.964,224.595 17.893,227.024 C16.964,229.024 16.929,229.952 17.786,228.917 C18.143,228.488 18.75,227.988 19.179,227.738 z M48.036,223.452 C47.821,223.309 47.214,223.059 46.607,222.917 C45.607,222.702 45.571,222.738 46.214,223.238 C46.964,223.809 48.607,224.024 48.036,223.452 z M26.929,221.059 C27.643,220.381 27.643,220.167 26.893,218.595 C25.821,216.345 24.25,216.488 22.321,219.024 C20.714,221.131 21.036,221.631 24.143,221.631 C25.714,221.631 26.536,221.452 26.929,221.059 z" fill="#000000"/>
  </g>
</svg>
