<?xml version="1.0" encoding="UTF-8"?>
<!DOCTYPE svg PUBLIC "-//W3C//DTD SVG 1.1//EN" "http://www.w3.org/Graphics/SVG/1.1/DTD/svg11.dtd">
<svg version="1.1" xmlns="http://www.w3.org/2000/svg" xmlns:xlink="http://www.w3.org/1999/xlink" x="0" y="0" width="500" height="500" viewBox="0, 0, 500, 500">
  <g id="layer101">
    <path d="M365.726,498.577 C359.484,498.321 356.405,497.893 356.149,497.209 C355.978,496.611 355.636,495.157 355.379,493.874 C354.866,491.737 354.439,491.48 351.531,491.48 C347.854,491.48 347.854,491.395 346.657,483.528 C346.315,481.133 345.546,479.167 344.861,478.91 C344.177,478.654 337.166,479.252 329.299,480.278 C316.301,481.988 314.762,481.988 312.453,480.791 C311.085,480.107 308.776,479.509 307.323,479.509 C305.869,479.509 304.501,479.338 304.244,479.081 C303.988,478.739 304.415,476.345 305.185,473.694 C306.468,469.418 307.152,468.563 310.23,466.853 C312.453,465.57 314.334,463.775 315.019,462.15 C315.617,460.611 318.695,456.592 321.774,453.086 C327.332,446.844 327.417,446.673 326.904,442.825 C326.648,440.687 326.306,426.15 326.049,410.588 C325.707,383.053 325.793,382.284 327.503,380.745 C329.213,379.205 329.213,379.205 327.589,376.555 C326.648,375.101 325.622,372.365 325.365,370.483 C324.425,365.438 323.655,364.925 317.669,364.925 C313.65,364.925 312.026,364.583 311,363.386 C307.665,359.709 310.829,355.263 317.669,353.809 C321.346,353.039 322.8,352.27 324.51,350.047 C325.707,348.507 326.648,346.968 326.648,346.626 C326.648,346.284 327.417,344.916 328.444,343.719 C329.812,342.009 330.068,340.812 329.641,338.246 C328.957,334.227 323.484,323.111 321.945,322.512 C321.261,322.256 318.61,322.683 315.959,323.453 C313.308,324.137 310.829,324.565 310.401,324.308 C309.973,324.052 306.895,323.539 303.475,323.111 C298.686,322.427 296.719,322.512 295.009,323.453 C293.727,324.137 291.931,324.394 290.905,324.137 C289.879,323.881 286.116,324.394 282.439,325.163 C275.085,326.788 267.988,326.531 257.812,324.137 C252.254,322.769 251.57,322.341 246.354,316.869 C242.677,313.021 240.197,311.054 238.915,311.054 C235.836,311.054 229.851,315.586 227.029,320.033 C225.661,322.256 223.694,324.394 222.753,324.736 C220.53,325.591 208.644,342.009 208.644,344.232 C208.644,345.087 209.414,346.541 210.44,347.481 C211.894,348.764 212.15,349.79 211.723,352.697 C211.381,355.263 211.637,356.46 212.578,357.315 C213.262,357.914 214.459,359.453 215.143,360.821 C217.537,365.438 218.563,364.412 229.936,345.344 C235.323,336.28 238.402,334.056 242.848,335.852 C246.269,337.306 247.466,340.127 246.782,345.173 C246.44,347.823 246.611,350.218 247.124,351.329 C247.979,352.783 247.466,354.151 244.387,359.624 C240.967,365.695 240.454,366.208 237.718,366.465 C232.074,367.063 230.962,369.97 235.152,373.647 C236.691,375.016 237.718,376.726 237.718,378.008 C237.718,379.12 238.487,380.745 239.428,381.6 C240.368,382.455 241.138,384.08 241.138,385.191 C241.138,387.671 238.316,390.578 235.836,390.578 C234.81,390.578 232.501,391.604 230.706,392.802 C227.884,394.768 227.2,394.939 224.806,394.084 C223.266,393.571 221.556,393.144 221.043,393.144 C219.418,393.144 212.92,399.984 212.92,401.695 C212.92,402.55 214.288,404.516 215.913,406.141 L218.905,409.048 L217.11,424.355 C216.169,432.82 215.314,442.312 215.228,445.476 L215.057,451.205 L218.905,454.711 C221.043,456.677 223.865,458.901 225.148,459.67 C226.601,460.525 227.798,462.15 228.055,463.518 C228.397,465.143 230.193,467.195 233.528,469.675 C238.829,473.865 239.171,474.806 239.684,486.264 L239.855,490.026 L229.594,493.447 L219.333,496.782 L206.934,491.651 C196.331,487.29 193.936,486.691 190.516,487.033 C187.181,487.29 186.412,487.119 186.412,486.093 C186.412,483.955 184.787,483.528 180.682,484.639 C177.69,485.494 176.92,486.093 177.262,487.29 C177.604,488.658 175.637,489.513 163.067,493.532 L148.531,498.235 L144.426,496.183 L140.407,494.131 L134.336,496.183 L128.265,498.235 L118.602,494.302 C113.386,492.079 108.683,490.112 108.341,489.77 C107.999,489.428 109.966,484.639 112.873,478.996 C115.695,473.437 118.004,468.307 118.004,467.708 C118.004,465.57 127.923,450.948 130.232,449.666 C136.645,446.074 138.612,441.884 139.723,429.485 C139.98,426.663 140.749,422.645 141.519,420.507 C142.288,418.369 142.973,414.35 143.058,411.443 C143.229,406.996 142.887,405.799 140.749,402.635 L138.184,399.044 L140.578,391.604 C141.946,387.5 143.571,383.566 144.255,382.711 C146.307,380.403 159.39,375.187 163.153,375.187 C165.633,375.187 167.343,375.871 169.31,377.495 C171.533,379.376 172.302,379.548 173.5,378.778 C174.269,378.179 176.15,376.897 177.69,375.956 C179.143,374.93 180.426,373.818 180.426,373.391 C180.426,372.45 167.514,364.925 165.804,364.925 C163.067,364.925 157.082,362.36 153.832,359.709 C149.899,356.545 149.642,354.921 152.635,348.507 C153.832,346.028 154.773,343.377 154.773,342.607 C154.773,341.838 156.654,338.759 158.963,335.681 C162.811,330.55 164.778,329.182 169.908,327.729 C171.875,327.215 176.578,319.691 177.433,315.586 C177.775,314.303 178.63,311.738 179.314,309.942 C181.11,305.838 180.426,305.068 172.816,302.332 C164.607,299.425 164.607,298.997 170.507,287.795 C175.381,278.56 175.466,278.218 174.953,273.344 C174.44,268.983 174.611,267.957 176.492,264.964 C182.649,255.216 187.694,252.138 197.015,252.052 C202.744,252.052 203.001,251.967 205.651,248.888 C207.533,246.665 209.072,245.725 210.782,245.639 L213.176,245.639 L213.433,237.687 L213.604,229.734 L210.525,227.767 C208.815,226.656 205.908,225.459 204.198,225.202 C197.784,224.09 193.423,217.848 194.364,211.007 C194.535,209.212 194.535,207.416 194.193,206.903 C193.509,205.791 183.419,201.601 181.367,201.601 C180.426,201.601 179.4,202.371 179.143,203.312 C178.801,204.338 175.894,206.903 172.559,209.126 C166.83,212.889 166.146,213.145 160.673,213.145 C155.628,213.145 154.431,212.803 151.182,210.58 C147.847,208.186 146.478,206.133 142.802,198.181 C142.46,197.497 141.262,196.727 140.151,196.556 C139.039,196.471 137.158,195.616 135.961,194.846 C133.909,193.392 133.481,193.392 128.094,194.761 C123.562,195.872 121.424,196.984 117.833,200.148 C115.353,202.371 112.702,204.68 112.018,205.364 C111.334,205.962 110.051,207.673 109.282,209.126 C108.512,210.58 105.69,213.231 103.039,214.855 C96.712,218.96 91.752,226.057 92.949,229.563 C94.146,232.984 92.778,237.259 89.956,238.969 C88.674,239.739 86.365,241.535 84.826,242.817 C83.287,244.1 81.491,245.211 80.892,245.211 C78.156,245.211 58.147,263.511 58.147,265.99 C58.147,267.872 54.128,272.404 51.135,273.943 C49.083,274.969 48.057,275.054 45.577,274.199 C43.097,273.43 42.071,273.515 39.42,274.627 C36.427,275.995 36.171,275.995 31.553,273.943 C26.252,271.634 22.233,267.102 22.233,263.511 C22.233,262.313 23.088,259.834 24.028,258.123 C28.646,250.428 30.099,248.803 33.776,247.435 C36.256,246.494 37.624,245.382 37.966,244.1 C38.479,241.962 37.795,238.456 36.513,236.917 C34.974,234.95 29.586,235.805 21.805,239.226 C17.615,241.107 12.912,242.646 11.373,242.646 C7.867,242.646 4.275,239.397 4.275,236.318 C4.275,235.121 3.933,234.01 3.506,233.753 C2.394,233.069 0,225.202 0,222.38 C0,219.473 6.499,211.777 10.945,209.468 C12.57,208.613 14.879,206.048 16.589,203.312 C19.154,198.951 19.667,198.609 22.233,198.865 C23.772,198.951 26.337,198.694 27.962,198.095 C30.698,197.24 30.784,197.069 30.784,192.537 C30.784,188.689 30.527,187.92 29.33,187.92 C28.475,187.92 26.081,187.065 23.943,185.953 C21.121,184.585 20.009,183.473 19.838,181.849 C19.582,179.369 21.72,177.06 24.798,176.632 C26.252,176.461 27.363,175.521 28.133,173.64 C28.817,172.015 30.099,170.818 31.126,170.647 C33.605,170.305 33.862,167.654 31.639,164.576 C29.928,162.352 29.843,161.668 30.698,159.274 C31.211,157.82 31.639,155.939 31.639,155.17 C31.639,153.374 34.717,152.091 41.045,151.151 C45.748,150.466 52.674,148.243 54.299,146.875 C54.812,146.447 55.752,144.224 56.266,142.001 C57.292,138.068 57.206,137.554 54.299,130.457 C52.674,126.353 51.306,122.248 51.306,121.393 C51.306,119.084 55.239,115.835 62.166,112.329 C72.256,107.369 73.368,107.883 77.472,119.512 C78.669,123.018 80.037,126.524 80.379,127.208 C81.491,129.26 87.648,130.97 94.146,130.97 C100.816,131.056 102.013,131.911 103.895,137.383 C105.348,142.001 104.835,144.481 101.842,147.217 C99.277,149.526 99.619,152.433 102.868,155.939 L105.605,158.932 L110.992,154.998 C113.985,152.775 116.293,150.466 116.293,149.611 C116.293,148.842 115.695,146.276 115.011,143.968 C114.327,141.659 113.728,136.443 113.728,132.338 C113.728,124.044 115.267,120.538 120.141,117.545 C121.595,116.69 124.844,114.638 127.41,113.013 C132.968,109.507 144.939,105.659 150.925,105.403 C153.319,105.317 156.056,104.804 157.082,104.291 C158.108,103.693 163.067,102.666 168.198,101.982 C180.853,100.187 180.255,100.358 185.984,95.997 C188.806,93.944 193.509,91.123 196.502,89.925 C199.409,88.643 201.803,87.104 201.803,86.505 C201.803,85.821 200.777,84.709 199.58,83.94 C197.613,82.572 197.015,82.572 192.996,83.769 C189.918,84.624 185.557,84.966 178.716,84.709 C173.329,84.624 168.113,84.453 167.172,84.453 C166.231,84.453 163.153,84.624 160.246,84.966 C155.97,85.393 154.431,85.222 151.524,83.683 C144.426,80.092 140.578,71.883 141.604,62.391 C142.288,55.465 144.512,52.13 150.241,49.479 C154.26,47.598 154.944,46.828 157.338,41.954 C159.39,37.593 160.502,36.225 162.896,35.199 C164.521,34.601 166.488,34.002 167.257,34.002 C168.027,34.002 170.763,32.634 173.243,31.009 C176.578,28.786 177.946,27.247 178.716,24.767 C181.11,16.9 183.248,12.624 185.043,12.026 C185.984,11.684 192.825,11.513 200.093,11.598 C212.492,11.855 213.689,11.684 218.478,9.803 C221.3,8.606 225.746,7.408 228.311,7.066 C230.877,6.724 235.836,5.271 239.342,3.817 L245.584,1.166 L249.432,3.218 C251.998,4.587 254.478,5.185 256.872,5.1 C263.371,4.758 277.48,5.014 279.788,5.442 C281.584,5.784 282.354,6.724 283.465,9.888 C284.235,12.111 285.432,14.848 286.116,16.045 C290.392,23.741 290.392,23.741 289.28,36.054 C288.767,41.612 288.254,43.836 287.313,44.092 C286.629,44.349 284.834,45.802 283.38,47.427 C281.926,49.052 278.848,51.018 276.539,51.874 C272.52,53.413 272.349,53.669 271.922,57.261 C271.323,61.793 269.271,65.299 266.62,66.154 C262.43,67.436 259.266,70.771 258.668,74.363 C257.898,78.809 258.668,79.493 265.252,80.348 C270.81,81.032 274.658,81.802 283.465,83.854 C288.51,85.051 289.793,85.65 301.251,92.405 L307.066,95.826 L310.23,92.747 C313.907,89.156 318.524,87.018 322.629,87.018 C326.135,87.018 327.075,88.044 327.931,92.576 C328.786,97.536 329.726,98.818 332.89,99.161 C335.284,99.417 335.968,100.016 338.106,104.377 C341.014,110.191 342.553,110.362 342.211,104.633 L341.869,100.614 L346.914,101.127 C349.65,101.384 355.721,101.982 360.424,102.495 C365.127,103.008 372.054,103.693 375.816,104.035 C384.111,104.804 398.476,108.567 402.495,111.046 C405.83,113.099 407.027,115.065 407.027,118.4 C407.027,121.906 408.481,122.932 413.44,122.932 C418.143,122.932 420.709,124.557 420.709,127.635 C420.709,132.595 410.533,158.504 407.968,160.129 C407.369,160.471 405.146,160.984 402.923,161.241 C399.588,161.754 398.818,162.181 398.647,163.806 C398.305,166.2 400.614,169.108 402.923,169.108 C403.863,169.108 405.488,167.483 407.113,164.832 C409.849,160.386 411.73,158.932 415.92,158.077 C417.288,157.735 419.084,156.538 419.939,155.426 C421.307,153.63 421.393,152.604 420.794,148.585 C420.196,144.908 420.281,143.626 421.136,142.685 C422.932,140.804 425.925,142.514 427.037,146.02 C427.55,147.645 428.661,149.098 429.431,149.269 C430.2,149.44 432.595,147.987 434.732,146.02 C439.093,142.001 440.376,142.001 442.428,146.105 C444.053,149.44 443.54,150.295 438.067,152.946 C435.759,154.058 433.022,156.452 431.141,158.932 C429.431,161.241 427.379,163.378 426.523,163.635 C424.3,164.319 424.642,165.431 427.892,168.253 C431.569,171.502 433.535,175.692 433.535,180.138 C433.535,184.157 431.825,185.526 427.379,185.183 C425.07,184.927 424.471,185.269 424.3,186.808 C423.702,190.656 425.497,192.195 430.542,192.195 C433.022,192.195 435.417,192.623 435.759,193.136 C436.443,194.333 440.12,193.649 447.046,190.827 C450.808,189.373 453.63,188.775 456.452,188.946 C460.3,189.202 460.556,189.373 462.609,193.478 C464.917,198.01 469.535,203.397 473.468,206.048 C476.547,208.015 479.882,208.015 485.525,205.877 C490.998,203.739 491.853,203.739 494.247,205.706 C496.129,207.245 496.898,209.81 499.549,222.551 C500.319,226.485 500.233,226.912 498.266,228.537 C497.155,229.563 493.307,231.017 489.63,231.872 C484.157,233.24 482.703,233.924 480.908,236.233 L478.856,238.969 L480.566,242.817 C481.506,244.869 482.875,250.257 483.559,254.703 C484.414,259.321 485.867,264.28 487.064,266.503 C489.459,270.864 489.544,271.634 487.834,272.917 C487.15,273.43 486.295,275.995 485.953,278.56 C485.354,282.408 484.927,283.349 483.473,283.52 C482.276,283.691 481.164,283.007 480.138,281.468 C479.027,279.672 478.513,279.415 477.915,280.356 C476.718,282.237 476.974,286.085 478.513,288.993 C479.54,290.959 479.625,292.071 479.027,293.525 C478.513,294.636 478.342,297.629 478.599,300.28 L479.112,305.068 L475.863,306.437 C471.673,308.147 468.338,306.95 466.884,303.102 C466.371,301.562 465.516,299.681 465.088,298.912 C464.661,298.057 464.319,296.603 464.319,295.748 C464.319,294.807 463.977,293.867 463.549,293.525 C462.523,292.926 461.411,296.175 462.181,297.458 C462.523,297.886 462.181,298.997 461.497,299.767 C460.813,300.536 459.872,302.503 459.359,304.042 C458.846,305.581 457.649,307.89 456.623,309.087 C455.682,310.284 454.913,311.824 454.913,312.422 C454.913,313.021 453.887,315.757 452.69,318.493 C451.407,321.315 450.381,325.334 450.295,327.729 C450.124,331.576 446.789,341.923 444.737,345.173 C442.941,347.994 419.768,349.02 415.835,346.455 C413.526,345.002 413.355,342.436 414.809,331.747 C416.006,322.598 415.407,320.289 413.697,327.643 C412.927,330.892 411.73,334.056 411.046,334.74 C410.448,335.424 407.54,336.451 404.633,337.135 C399.502,338.332 399.246,338.332 395.312,336.194 C393.004,334.997 390.096,333.03 388.728,331.747 C386.419,329.524 386.334,329.182 386.761,323.71 C387.018,320.631 387.873,316.869 388.557,315.415 C389.412,313.79 390.011,310.028 390.182,304.897 C390.524,293.61 390.182,292.242 386.163,290.19 C380.006,286.94 380.263,279.757 386.847,272.062 C390.609,267.615 392.918,257.439 391.55,251.026 C390.78,247.435 390.78,246.58 392.148,245.126 C392.918,244.271 394.03,243.501 394.457,243.501 C394.885,243.501 397.963,241.791 401.127,239.653 C407.369,235.549 408.652,232.984 405.146,231.872 C404.034,231.53 399.844,228.109 395.825,224.176 C391.721,220.243 387.958,216.993 387.445,216.993 C385.821,216.993 375.389,207.502 374.961,205.62 C374.704,204.594 375.047,201.858 375.731,199.549 C376.415,197.24 376.757,194.846 376.415,194.248 C376.073,193.649 374.02,191.597 371.797,189.63 C366.923,185.44 364.614,185.355 364.956,189.459 C365.64,198.352 365.811,197.582 361.621,200.319 C359.484,201.687 357.004,203.312 356.149,203.739 C355.208,204.338 354.353,206.39 353.84,209.725 C352.899,215.711 348.196,224.176 344.69,225.972 C340.586,228.024 340.073,229.307 340.329,236.831 C340.5,240.765 340.586,245.468 340.672,247.264 C340.757,250.342 341.014,250.684 344.177,251.796 C346.059,252.48 352.386,253.249 358.287,253.591 L368.89,254.19 L370.429,258.123 C371.199,260.347 372.738,266.418 373.764,271.634 L375.731,281.211 L372.054,284.632 C368.804,287.539 368.462,288.223 368.975,290.275 C369.317,291.643 369.745,295.406 369.916,298.655 C370.087,301.99 370.6,306.437 371.199,308.745 C372.396,313.876 371.968,314.902 367.949,316.783 C364.956,318.237 364.614,318.664 364.101,323.025 C363.674,326.275 363.845,329.61 364.785,333.714 C366.239,340.042 368.206,342.693 371.455,342.693 C372.567,342.693 374.619,344.317 376.842,346.883 C381.374,352.184 383.768,360.564 382.144,365.524 C381.374,367.918 381.46,368.688 382.486,369.885 C386.334,374.246 389.498,384.251 388.215,387.671 C387.36,389.723 387.616,390.493 389.925,393.486 C393.346,398.103 397.536,407.082 401.042,417.086 C402.495,421.533 404.205,425.894 404.633,426.835 C405.146,427.69 405.83,430.426 406.258,432.82 C408.053,443.68 407.626,442.996 418.4,452.659 C425.925,459.243 428.832,461.381 429.602,460.782 C430.457,460.098 430.884,460.867 431.569,463.86 C432.68,468.478 432.424,469.247 430.029,469.247 C429.174,469.247 427.721,469.932 426.866,470.787 C425.754,471.898 421.649,472.753 410.533,474.293 C399.844,475.746 395.654,476.687 395.312,477.542 C395.056,478.226 395.483,481.903 396.338,485.665 C398.049,493.019 397.707,493.96 393.773,494.045 C391.379,494.045 389.84,495.242 389.583,497.124 C389.327,498.577 388.557,498.748 382.144,498.834 C378.21,498.834 370.771,498.748 365.726,498.577 z" fill="#000000"/>
  </g>
</svg>
