<?xml version="1.0" encoding="UTF-8"?>
<!DOCTYPE svg PUBLIC "-//W3C//DTD SVG 1.1//EN" "http://www.w3.org/Graphics/SVG/1.1/DTD/svg11.dtd">
<svg version="1.1" xmlns="http://www.w3.org/2000/svg" xmlns:xlink="http://www.w3.org/1999/xlink" x="0" y="0" width="500" height="500" viewBox="0, 0, 500, 500">
  <g id="layer101">
    <path d="M383.242,357.019 C381.183,355.854 380.882,355.799 378.436,356.619 C374.32,358.007 367.427,358.36 365.669,357.25 C363.79,356.081 361.571,356.117 359.252,357.355 C356.814,358.656 350.151,358.405 347.486,356.83 C345.73,355.839 345.31,355.846 342.744,356.668 C341.133,357.175 338.082,357.705 335.865,357.861 C332.449,358.098 331.547,357.933 330.211,356.935 C328.206,355.408 327.187,355.425 323.253,356.99 C319.379,358.494 314.043,358.702 312.102,357.414 C311.071,356.711 309.929,356.61 307.894,356.883 C299.456,358.102 296.338,358.154 293.861,357.115 C291.746,356.19 291.206,356.199 288.699,356.96 C283.566,358.545 279.069,358.619 276.224,357.106 L273.684,355.828 L270.048,357.268 C265.994,358.835 261.976,358.841 258.649,357.216 C256.351,356.054 254.311,356.088 251.571,357.273 C248.833,358.518 242.415,358.624 240.837,357.451 C239.319,356.335 236.44,356.383 233.641,357.629 C230.901,358.814 224.417,358.501 222.355,357.155 C220.777,356.042 219.098,356.069 216.418,357.253 C213.142,358.687 207.922,358.593 205.797,357.069 C204.158,355.896 203.797,355.842 200.87,356.61 C195.195,358.023 190.279,358.225 186.781,357.083 C183.704,356.054 183.404,356.058 180.663,357.124 C177.025,358.443 172.708,358.575 170.288,357.355 C169.018,356.716 167.696,356.558 165.96,356.827 C159.142,358.019 154.284,358.099 151.628,357.123 C149.274,356.262 148.795,356.27 146.35,357.15 C142.712,358.47 135.635,358.587 133.335,357.305 C131.761,356.431 131.161,356.441 128.353,357.147 C124.769,358.046 119.247,357.897 115.389,356.761 C113.16,356.138 112.44,356.15 109.996,357.09 C106.478,358.408 100.362,358.569 98.783,357.395 C97.265,356.281 95.046,356.317 91.826,357.51 C90.455,358.013 87.883,358.475 86.144,358.504 C83.445,358.548 82.479,358.204 79.447,356.215 C77.263,354.751 75.15,353.886 74.07,353.904 C73.11,353.92 70.699,353.18 68.705,352.313 C65.442,350.867 65.014,350.394 63.216,346.884 C61.788,343.969 60.748,342.726 59.054,341.854 C56.452,340.517 53.873,336.901 53.284,333.911 C52.75,330.681 51.703,329.018 49.22,327.559 C46.31,325.748 43.362,321.537 42.646,318.13 C42.055,315.08 41.197,313.955 38.838,312.793 C36.297,311.516 32.793,306.354 32.751,303.836 C32.716,301.677 31.307,299.901 27.728,297.56 C25.485,296.097 22.345,291.23 22.313,289.251 C22.275,286.972 20.924,285.075 18.075,283.262 C14.982,281.274 11.909,276.765 11.986,274.184 C12.006,271.784 10.651,269.647 8.168,268.188 C7.138,267.605 5.429,265.834 4.384,264.292 C2.662,261.681 2.533,261.143 2.837,257.778 C3.089,254.895 2.888,253.638 1.893,251.495 C1.209,250.007 0.44,247.08 0.226,244.984 C-0.19,241.572 -0.082,240.85 0.972,239.332 C1.677,238.421 2.371,236.85 2.596,235.947 C3.098,233.599 3.862,232.686 5.302,232.663 C6.441,232.643 9.927,229.407 9.909,228.327 C9.905,228.087 9.106,226.901 8.069,225.838 C4.83,222.232 5.813,220.057 10.791,219.974 C13.37,219.932 14.025,219.681 14.548,218.652 C15.131,217.623 14.941,216.966 13.649,215.068 C11.929,212.577 11.603,211.023 12.724,209.864 C13.609,208.95 16.126,208.849 18.3,209.652 C20.834,210.57 22.433,209.344 21.915,207.013 C20.686,201.635 20.683,201.395 22.105,200.351 C22.875,199.799 24.068,199.359 24.788,199.347 C25.687,199.332 26.513,198.479 27.56,196.482 C30.294,191.338 37.264,184.744 39.963,184.699 C40.743,184.687 41.755,184.25 42.166,183.703 C43.637,181.94 44.951,181.558 47.782,182.291 C50.974,183.078 52.044,182.46 52.595,179.512 C53.425,175.239 57.185,170.498 62.878,166.505 C66.673,163.803 71.462,163.184 81.733,163.974 C84.075,164.115 87.678,164.356 89.718,164.382 C91.819,164.467 94.403,164.725 95.366,164.949 C97.112,165.28 97.171,165.219 96.789,163.905 C95.967,161.339 95.543,157.507 95.936,155.821 C96.161,154.917 97.57,153.035 99.045,151.57 L101.762,149.006 L106.385,149.23 C110.889,149.516 111.008,149.453 112.12,147.815 C112.706,146.906 114.118,145.263 115.24,144.165 L117.306,142.151 L124.498,141.793 L131.752,141.493 L134.609,143.725 C137.769,146.192 137.894,146.49 138.636,155.117 C139.089,160.747 139.217,161.226 140.922,162.757 L142.687,164.348 L151.441,164.083 C158.156,163.852 160.379,163.995 161.048,164.584 C161.536,165.056 161.864,166.791 161.903,169.13 C161.997,174.827 161.522,175.134 150.853,175.671 C144.14,176.021 142.045,176.296 141.636,176.963 C140.82,178.416 141.111,188.789 142.024,189.554 C142.996,190.318 162.376,190.537 164.763,189.779 C165.719,189.522 169.7,187.237 173.619,184.773 C181.515,179.783 181.634,179.722 191.671,173.617 C195.591,171.213 199.804,168.444 200.988,167.465 C204.305,164.89 205.332,165.353 205.339,169.373 C205.274,183.651 204.959,186.355 203.096,189.806 C200.943,193.8 200.943,193.86 202.692,194.371 C203.415,194.599 204.808,195.356 205.72,196.121 C206.692,196.885 208.143,197.521 208.922,197.508 C210.661,197.479 213.32,194.976 213.294,193.416 C213.309,190.717 216.455,188.685 219.229,189.599 C220.798,190.113 221.576,190.04 223.601,189.107 C226.993,187.492 238.343,180.945 239.466,179.907 C239.998,179.418 240.887,178.804 241.603,178.552 C243.569,177.74 259.844,167.933 261.619,166.464 C262.922,165.422 263.46,165.293 264.308,165.759 C265.217,166.344 265.358,167.662 265.52,177.437 C265.645,184.994 265.47,188.956 265.009,190.103 C264.605,191.01 264.266,192.335 264.277,192.995 C264.312,195.094 266.255,200.161 267.034,200.148 C267.814,200.135 271.757,195.511 273.45,192.664 L274.501,190.906 L302.514,190.864 C339.225,190.738 353.09,191.169 360.913,192.659 C367.712,193.927 374.284,195.918 378.033,197.716 C379.304,198.355 381.111,198.865 382.011,198.85 C382.971,198.834 384.664,199.646 386.184,200.881 C387.582,201.998 388.977,202.934 389.217,202.93 C390.416,202.911 397.791,209.927 399.271,212.362 C402.235,217.473 405.281,223.961 405.861,226.351 C406.763,230.115 408.722,236.142 410.536,240.671 C411.474,242.995 412.602,245.916 413.104,247.228 C414.295,250.327 415.727,253.483 417.893,257.526 C418.822,259.311 419.58,261.638 419.598,262.717 C419.643,265.416 426.786,276.636 432.16,282.366 C434.48,284.787 438.683,288.677 441.599,290.908 C449.196,296.842 462.979,303.273 467.714,303.015 C474.248,302.727 476.171,302.876 478.828,303.971 C482.09,305.358 486.231,305.469 488.611,304.23 C490.096,303.366 490.637,303.417 494.315,304.556 C499.381,306.212 500.538,307.273 499.795,309.504 C499.396,310.771 498.212,311.69 494.94,313.364 C492.5,314.544 490.304,316.02 490.015,316.624 C489.489,317.473 488.472,317.67 482.955,317.761 C477.318,317.854 476.361,318.049 475.477,319.024 C474.536,320.119 473.876,320.19 469.074,319.969 C464.271,319.749 463.493,319.822 462.011,320.926 C460.59,322.029 459.812,322.162 454.889,321.943 C450.028,321.784 449.19,321.918 448.126,322.895 C447.003,323.933 446.046,324.069 437.046,323.977 C427.867,323.949 427.209,324.02 426.866,325.046 C426.637,325.709 425.83,327.702 425.02,329.515 C424.095,331.63 423.477,334.16 423.398,336.621 C423.25,342.202 421.848,344.504 416.625,347.89 C414.191,349.43 411.944,351.387 411.596,352.172 C411.309,352.897 409.713,354.363 408.169,355.288 C405.556,356.891 405.077,356.959 400.693,356.671 C397.09,356.431 395.473,356.578 393.805,357.325 C390.648,358.697 385.967,358.594 383.242,357.019 z" fill="#000000"/>
  </g>
</svg>
