<?xml version="1.0" encoding="UTF-8"?>
<!DOCTYPE svg PUBLIC "-//W3C//DTD SVG 1.1//EN" "http://www.w3.org/Graphics/SVG/1.1/DTD/svg11.dtd">
<svg version="1.1" xmlns="http://www.w3.org/2000/svg" xmlns:xlink="http://www.w3.org/1999/xlink" x="0" y="0" width="500" height="500" viewBox="0, 0, 500, 500">
  <g id="layer101">
    <path d="M319.581,499.9 C298.565,497.862 265.193,485.252 256.787,476.336 C252.329,471.624 247.616,455.829 246.597,442.328 C244.941,420.038 245.833,399.149 248.89,390.361 C250.418,386.03 251.31,381.954 250.928,381.317 C250.546,380.68 248.253,379.789 245.833,379.407 C240.483,378.388 233.605,371 233.605,366.415 C233.605,359.664 243.922,349.347 250.8,349.347 C253.73,349.347 271.18,334.699 275.638,328.585 C277.93,325.401 281.369,322.089 283.407,321.325 C296.399,315.848 307.099,291.265 310.665,258.276 C311.684,248.469 312.958,239.043 313.212,237.26 C314.104,233.184 309.646,225.796 306.334,225.796 C302.386,225.796 294.743,237.515 294.998,243.246 C295.126,250.124 292.96,260.696 290.54,264.517 C289.394,266.301 286.846,268.721 285.063,269.994 C283.153,271.268 279.714,274.07 277.294,276.236 C273.345,280.184 273.09,280.694 273.09,289.482 C273.09,297.379 272.581,299.672 269.397,305.276 C263.92,314.702 259.589,318.268 249.909,321.325 C240.993,324 233.605,330.368 233.605,335.336 C233.605,341.195 214.117,354.442 201.635,357.117 C196.413,358.263 194.375,358.135 190.171,356.48 C183.675,353.932 178.071,353.932 176.033,356.48 C163.933,371.637 151.323,381.19 143.171,381.19 C141.515,381.19 137.057,382.463 133.364,383.992 C127.25,386.539 126.104,386.539 119.735,385.011 C115.277,383.992 109.8,383.737 104.068,384.247 C95.407,385.138 90.949,384.501 90.949,382.463 C90.949,381.827 93.369,379.661 96.426,377.369 C101.521,373.547 101.648,373.42 97.954,374.312 C95.916,374.821 93.496,375.713 92.732,376.35 C91.968,376.859 87.765,377.496 83.561,377.751 C77.448,378.005 75.41,377.496 73.117,375.458 C70.57,373.165 70.315,372.146 71.079,365.268 C71.461,361.065 72.607,356.989 73.499,356.225 C74.263,355.461 84.835,352.149 96.681,348.837 C153.234,333.298 149.922,334.062 154.635,335.463 C158.456,336.61 160.749,336.355 168.646,333.68 C173.868,332.024 180.364,330.241 182.911,329.732 C194.375,327.694 213.863,317.504 219.212,310.753 C220.486,309.225 224.052,306.168 227.237,304.003 C234.751,299.035 235.388,295.341 229.274,292.412 C225.326,290.629 224.18,290.501 219.594,292.03 C215.009,293.558 213.863,293.558 210.933,291.775 C207.621,289.864 206.857,289.864 199.215,292.157 C194.629,293.558 188.133,295.723 184.567,297.125 C181.128,298.398 175.906,299.799 173.104,300.181 C170.301,300.564 162.914,302.602 156.545,304.512 C142.152,309.225 131.708,310.499 128.524,308.078 C127.25,307.187 125.467,303.748 124.702,300.564 C123.429,295.341 123.556,294.322 126.231,289.355 C127.887,286.298 129.16,282.349 129.16,280.566 C129.16,278.656 129.925,276.236 130.816,275.217 C132.217,273.179 149.413,266.555 152.979,266.555 C153.998,266.555 156.8,265.664 159.475,264.517 C163.933,262.607 164.06,262.479 161.64,260.696 C160.112,259.55 157.819,259.168 155.144,259.677 C152.852,260.059 147.247,259.55 142.662,258.404 C131.071,255.474 124.702,257.385 114.64,266.555 C101.776,278.274 93.369,279.42 76.429,271.395 L65.22,266.046 L58.979,269.485 C51.591,273.561 48.025,273.688 32.995,270.376 C8.157,265.027 3.063,262.607 3.063,256.238 C3.063,249.36 5.737,248.469 22.168,248.978 C37.326,249.36 41.274,248.341 41.274,244.265 C41.274,241.591 38.09,241.081 22.678,241.081 C9.686,241.081 7.903,240.826 5.483,238.406 C2.808,235.731 3.063,231.91 6.119,228.599 C7.648,227.07 34.141,220.574 46.496,218.791 C53.884,217.645 58.597,219.937 64.328,227.07 C66.621,229.872 69.423,232.165 70.57,232.165 C71.716,232.165 75.282,233.821 78.339,235.986 C85.09,240.572 90.694,240.826 99.865,237.26 C109.927,233.311 118.589,233.821 129.16,239.17 C138.586,243.883 142.407,244.52 147.502,242.227 C150.049,241.081 152.342,241.208 158.201,242.864 C162.277,244.011 168.646,244.902 172.339,244.902 C176.288,244.902 180.873,245.921 183.675,247.322 C186.223,248.596 192.464,249.997 197.304,250.379 C204.947,251.016 207.621,250.634 215.518,247.832 C223.415,245.03 225.708,243.501 230.93,237.387 C237.936,229.235 239.337,226.815 240.483,220.829 C240.865,218.409 242.903,213.824 244.941,210.639 C246.979,207.455 249.144,202.487 249.654,199.685 C250.546,194.59 261.627,176.249 266.34,172.046 C267.613,170.772 270.798,168.989 273.472,167.842 C280.605,164.913 279.459,160.837 270.798,158.926 C265.575,157.907 263.92,154.723 264.939,148.1 C265.575,144.533 265.193,142.113 263.665,139.948 C262.518,138.165 261.627,135.745 261.627,134.598 C261.627,130.777 271.817,116.512 279.332,109.634 C286.464,103.138 299.584,95.877 304.169,95.877 C305.443,95.877 311.047,93.585 316.651,90.655 C325.567,86.197 328.242,85.433 337.795,84.796 C345.565,84.287 350.15,83.268 352.952,81.612 C356.519,79.447 357.792,79.319 361.614,80.593 C370.912,83.65 372.313,79.192 365.944,66.837 C363.269,61.869 360.977,58.94 359.066,58.43 C357.283,57.921 355.627,55.883 354.353,52.826 C352.825,49.005 350.914,46.967 345.947,44.292 C337.922,39.961 335.884,36.013 338.305,28.88 C339.578,25.441 339.706,22.511 338.941,19.072 C336.649,9.774 339.706,5.826 349.513,4.934 C352.315,4.679 355.627,3.66 356.901,2.641 C360.34,-0.415 362.505,-0.67 367.218,1.113 C369.511,2.132 372.567,2.896 373.841,2.896 C375.115,2.896 377.153,4.297 378.299,5.953 C379.955,8.628 380.082,10.538 379.063,16.907 C377.79,25.568 378.809,30.154 383.394,36.65 C389.381,45.184 391.801,52.698 390.909,60.723 C389.508,72.696 393.966,77.409 401.608,72.186 C405.811,69.257 409.633,71.422 414.855,79.574 C420.841,88.872 421.478,94.604 417.784,102.119 C414.6,108.105 411.416,111.544 405.302,115.365 C399.443,119.059 400.844,124.918 409.505,132.943 C412.817,135.999 414.473,138.674 414.473,140.967 C414.473,143.005 415.619,144.915 417.784,146.317 C419.568,147.59 423.007,151.157 425.427,154.214 C430.776,161.219 431.031,166.314 426.446,172.937 L423.134,177.905 L424.026,197.647 L425.045,217.39 L433.069,225.924 C439.183,232.547 441.221,235.477 441.221,238.279 C441.221,240.317 442.24,243.374 443.513,245.03 C448.481,251.398 454.085,263.626 454.595,268.721 C454.977,271.65 456.378,276.236 457.779,278.91 C459.435,282.095 460.072,285.024 459.562,287.572 C459.18,289.61 459.562,294.322 460.326,297.761 C462.619,307.442 464.53,323.873 464.148,330.241 C463.129,352.786 465.039,366.033 469.625,368.58 C470.898,369.344 473.828,369.217 477.14,368.453 C482.234,367.179 483.126,367.306 490.004,371.255 C497.264,375.458 497.392,375.458 496.627,380.298 C495.354,388.959 490.131,395.201 480.069,399.659 C475.102,401.951 470.389,404.753 469.37,405.9 C465.549,410.485 460.326,407.428 460.326,400.55 C460.326,397.493 459.053,394.819 455.868,390.997 C453.448,388.195 451.41,384.884 451.41,383.737 C451.41,382.591 449.5,378.77 447.335,375.458 C442.877,368.835 442.877,368.707 444.15,348.837 C444.532,342.087 444.15,337.501 443.004,334.699 C441.73,331.642 441.73,329.477 442.749,325.401 C444.532,318.396 443.004,301.455 440.457,300.436 C438.419,299.672 437.909,301.583 436.89,313.046 C436.508,317.249 435.616,325.274 434.852,330.878 C434.088,336.482 433.196,343.87 432.814,347.309 C432.559,350.748 431.923,354.06 431.541,354.569 C430.394,356.48 427.337,386.794 426.446,404.371 L425.681,421.694 L428.866,423.732 C431.158,425.26 434.215,425.77 440.074,425.515 L448.226,425.133 L448.608,428.954 C449.245,434.304 446.443,447.168 443.386,452.773 C440.839,457.485 437.272,459.778 434.98,458.377 C433.578,457.485 429.248,467.293 430.267,469.331 C430.649,470.222 431.923,472.133 432.942,473.661 C434.852,476.209 434.725,476.336 427.847,475.699 L420.714,475.063 L414.473,481.559 C410.142,486.017 406.576,488.564 402.755,489.583 C395.112,491.621 363.015,490.092 359.321,487.545 C357.792,486.526 354.353,485.634 351.679,485.634 C347.475,485.634 345.819,486.526 340.342,492.003 C336.776,495.569 333.592,498.372 333.082,498.372 C332.7,498.372 330.28,498.881 327.86,499.391 C325.44,499.9 321.746,500.155 319.581,499.9 z M416.001,465 C415.11,464.109 414.473,461.943 414.473,460.033 C414.473,458.122 413.581,456.339 412.562,455.829 C411.543,455.447 409.505,453.282 408.104,450.989 C405.684,447.041 405.429,445.003 405.684,422.586 C405.811,409.211 406.321,394.564 406.958,390.106 C407.467,385.52 408.232,378.133 408.614,373.547 C409.378,364.759 411.161,351.13 413.072,338.52 C413.708,334.317 415.237,325.019 416.256,317.886 C418.421,304.13 418.803,289.61 417.53,278.274 C416.765,272.669 416.383,272.032 415.11,273.688 C413.708,275.726 412.944,275.599 405.557,273.179 C395.622,269.74 393.456,270.759 394.603,278.528 C395.24,282.732 394.603,285.279 391.546,291.393 C389.508,295.596 387.725,299.927 387.725,300.946 C387.725,301.965 386.069,306.295 384.158,310.499 C382.12,314.702 380.082,319.797 379.573,321.835 C379.063,323.745 377.662,326.929 376.389,328.84 C371.294,336.228 361.231,354.442 359.83,358.518 C359.066,360.938 356.264,364.886 353.844,367.306 C348.24,372.656 336.139,388.705 334.993,392.271 C334.483,393.672 333.082,396.22 331.681,397.748 C330.28,399.404 329.134,401.442 329.134,402.461 C329.134,405.263 338.305,414.561 343.781,417.109 C359.576,424.496 370.912,438.507 361.104,438.507 C358.939,438.507 357.028,439.016 356.519,439.781 C355.245,441.691 358.811,446.149 362.25,446.913 C364.034,447.296 368.619,448.697 372.567,450.098 C376.516,451.371 381.866,452.518 384.413,452.518 C387.47,452.518 393.074,454.428 399.443,457.613 C405.175,460.415 410.524,462.708 411.416,462.708 C412.18,462.708 413.199,463.599 413.708,464.618 C414.091,465.637 415.11,466.529 416.001,466.529 C417.148,466.529 417.148,466.147 416.001,465 z M338.687,440.8 C332.7,435.068 331.936,434.304 327.351,429.464 L323.402,425.26 L323.02,430.228 C322.765,432.903 322.893,436.342 323.275,437.87 C324.166,441.309 331.554,444.748 338.305,444.748 L343.017,444.876 L338.687,440.8 z M110.055,370.745 C111.328,369.981 110.946,369.854 108.781,370.491 C106.998,370.873 104.705,371.892 103.686,372.528 C102.412,373.293 102.795,373.42 104.96,372.783 C106.743,372.401 109.036,371.382 110.055,370.745 z M209.277,342.469 C211.442,341.322 213.735,339.412 214.117,338.393 C214.499,337.501 215.264,336.61 216.028,336.61 C216.665,336.61 218.066,335.718 219.085,334.699 C220.868,333.043 220.868,332.789 219.085,332.789 C218.066,332.789 216.919,333.298 216.537,333.935 C216.155,334.572 211.442,337.119 206.093,339.667 C200.871,342.087 196.795,344.761 197.177,345.398 C198.068,346.799 203.291,345.526 209.277,342.469 z M241.884,287.062 C242.521,285.916 237.936,281.84 235.898,281.84 C233.987,281.84 234.879,285.534 237.172,286.807 C239.974,288.463 240.865,288.463 241.884,287.062 z M99.865,267.447 C102.158,266.301 103.049,264.772 103.049,262.097 C103.049,256.748 95.789,253.309 86.109,254.073 C73.626,255.092 72.353,260.696 83.307,266.301 C89.675,269.485 95.152,269.867 99.865,267.447 z M256.532,233.693 C256.532,232.038 255.004,230.891 253.73,231.656 C252.456,232.42 253.602,234.712 255.386,234.712 C256.022,234.712 256.532,234.203 256.532,233.693 z M284.044,218.409 C288.375,215.479 289.903,204.525 286.337,201.086 C284.554,199.303 284.044,199.431 279.968,202.615 C274.491,206.945 273.727,209.238 276.147,214.842 C278.058,219.3 280.86,220.574 284.044,218.409 z" fill="#000000"/>
  </g>
</svg>
