<?xml version="1.0" encoding="UTF-8"?>
<!DOCTYPE svg PUBLIC "-//W3C//DTD SVG 1.1//EN" "http://www.w3.org/Graphics/SVG/1.1/DTD/svg11.dtd">
<svg version="1.1" xmlns="http://www.w3.org/2000/svg" xmlns:xlink="http://www.w3.org/1999/xlink" x="0" y="0" width="500" height="500" viewBox="0, 0, 500, 500">
  <g id="layer101">
    <path d="M99.555,343.713 C97.135,342.927 94.534,341.535 93.445,340.447 C92.417,339.479 91.267,338.632 90.904,338.632 C90.542,338.632 88.303,337.059 85.944,335.063 C83.646,333.127 80.924,331.313 80.016,331.071 C79.109,330.889 76.629,329.075 74.572,327.078 C72.153,324.78 70.338,323.51 69.431,323.51 C67.797,323.51 65.075,321.695 61.93,318.428 C60.599,317.037 59.268,316.251 58.301,316.251 C56.486,316.251 53.824,314.557 50.437,311.109 C49.106,309.718 47.17,308.448 46.203,308.206 C45.174,308.024 42.694,306.391 40.698,304.576 C38.641,302.762 36.161,301.068 35.133,300.826 C34.105,300.645 31.504,298.83 29.326,296.834 C27.148,294.898 24.91,293.265 24.305,293.265 C22.854,293.265 18.317,290.301 16.079,287.881 C15.051,286.853 13.659,286.006 12.994,286.006 C11.3,286.006 7.913,283.344 3.739,278.868 C0.049,274.876 -0.314,273.908 0.17,268.827 C0.654,263.988 2.953,258.967 5.735,256.669 C8.578,254.37 11.845,251.104 14.446,247.958 C15.534,246.567 16.865,245.478 17.41,245.478 C17.894,245.478 20.132,243.663 22.37,241.425 C24.547,239.127 27.088,236.828 27.995,236.223 C30.052,234.892 30.173,231.989 28.419,228.541 C27.753,227.21 27.209,225.516 27.209,224.73 C27.209,222.25 32.834,217.774 42.029,212.935 C45.9,210.938 61.628,205.313 67.132,204.043 C70.822,203.196 74.27,202.046 81.045,199.445 C83.525,198.538 87.094,197.328 88.969,196.784 C91.509,196.058 93.324,194.969 96.046,192.55 C98.042,190.735 99.978,189.223 100.401,189.223 C100.764,189.223 101.914,188.739 103.002,188.194 C105.12,187.045 114.374,186.622 130.344,186.924 C132.037,186.985 136.635,186.259 140.627,185.351 C144.619,184.444 150.305,183.174 153.209,182.569 C156.173,181.964 158.955,181.117 159.439,180.694 C159.923,180.27 161.375,179.968 162.585,180.028 C163.794,180.089 167.424,179.484 170.569,178.697 C173.715,177.911 177.526,177.125 179.038,176.883 C180.55,176.641 183.151,176.096 184.784,175.673 C188.474,174.645 195.733,173.072 202.629,171.862 C205.472,171.378 208.496,170.592 209.404,170.108 C210.311,169.624 212.368,169.261 214.001,169.261 C215.574,169.261 217.449,168.898 218.054,168.414 C219.082,167.688 219.082,167.325 218.417,164.906 C217.993,163.454 217.751,161.155 217.872,159.885 C218.054,157.768 218.356,157.345 220.473,156.256 C222.469,155.288 224.405,155.046 230.998,154.865 C240.253,154.623 241.161,154.744 243.701,156.921 C245.032,158.01 246.847,158.675 250.234,159.22 C255.739,160.127 263.723,163.333 270.014,167.144 C274.914,170.168 276.729,170.41 281.628,169.019 C283.261,168.535 286.467,168.051 288.827,167.93 C292.637,167.749 293.061,167.87 293.242,168.959 C293.363,169.624 293.787,170.531 294.089,170.955 C294.875,171.862 302.8,171.983 303.405,171.015 C303.828,170.35 311.631,170.713 313.688,171.499 C314.172,171.681 315.2,172.951 315.926,174.342 C317.075,176.459 317.257,177.79 317.257,183.718 L317.257,190.674 L318.89,191.098 C319.797,191.34 321.007,192.005 321.551,192.55 C322.398,193.396 323.366,193.457 326.874,193.215 C329.234,192.973 332.379,192.852 333.891,192.852 C335.404,192.913 340.545,192.973 345.384,193.094 C350.223,193.154 355.789,193.578 357.845,194.001 C360.628,194.606 366.435,194.727 382.041,194.425 C393.292,194.243 419.968,194.122 441.321,194.122 C469.872,194.183 481.062,193.941 483.906,193.396 L487.716,192.671 L489.592,194.848 C491.406,197.026 491.588,197.086 494.552,196.723 C497.516,196.36 497.758,196.421 498.786,198.054 C500.298,200.292 500.419,210.636 499.028,212.753 L498.121,214.144 L477.554,214.326 C456.685,214.507 421.662,215.657 419.484,216.201 C418.819,216.382 417.427,217.532 416.339,218.802 L414.403,221.04 L415.008,228.601 C415.855,238.098 415.734,272.214 414.947,280.441 C413.798,291.571 409.987,300.645 402.728,309.415 C399.281,313.65 391.538,319.699 388.997,320.243 C384.824,321.03 384.461,321.332 383.19,325.022 C379.924,334.156 377.02,337.362 368.37,341.475 L364.439,343.35 L320.584,343.774 C296.448,343.955 250.597,344.379 218.659,344.681 C186.72,345.044 147.825,345.225 132.158,345.225 C103.97,345.165 103.668,345.104 99.555,343.713 z M395.53,247.232 C396.498,245.659 396.74,244.087 396.74,239.308 C396.74,236.042 397.224,230.477 397.708,226.968 C398.978,218.621 398.797,216.745 396.8,216.745 C387.183,216.745 366.495,217.895 363.41,218.621 C361.354,219.165 355.305,219.77 350.103,220.072 C344.84,220.375 340.243,220.798 339.819,221.101 C339.396,221.343 335.827,221.585 331.835,221.585 C324.757,221.585 324.636,221.585 323.427,223.218 C322.398,224.609 322.277,225.214 322.761,227.452 C323.487,230.779 324.818,231.444 331.774,231.626 C334.738,231.747 338.549,232.17 340.182,232.594 C341.876,233.017 344.961,233.38 347.078,233.38 C349.679,233.38 351.373,233.743 352.462,234.469 C353.671,235.195 355.365,235.497 358.874,235.497 L363.592,235.497 L366.495,238.582 C368.128,240.336 370.064,241.909 370.85,242.151 C371.637,242.393 373.21,243.421 374.298,244.329 C376.476,246.264 377.02,246.385 379.863,245.417 C382.404,244.51 387.364,245.599 389.844,247.595 C392.324,249.652 394.139,249.531 395.53,247.232 z" fill="#000000"/>
  </g>
</svg>
