<?xml version="1.0" encoding="UTF-8"?>
<!DOCTYPE svg PUBLIC "-//W3C//DTD SVG 1.1//EN" "http://www.w3.org/Graphics/SVG/1.1/DTD/svg11.dtd">
<svg version="1.1" xmlns="http://www.w3.org/2000/svg" xmlns:xlink="http://www.w3.org/1999/xlink" x="0" y="0" width="500" height="500" viewBox="0, 0, 500, 500">
  <g id="layer101">
    <path d="M267.353,461.805 C266.351,460.692 265.461,459.134 265.461,458.466 C265.461,457.798 264.236,455.906 262.789,454.125 C257.67,448.004 255.11,441.326 254.108,430.975 C252.661,416.618 252.773,412.834 254.999,406.378 C256.557,401.815 256.668,399.812 255.778,396.027 C254.887,392.689 254.887,390.463 255.778,388.014 C258.338,381.225 252.661,378.554 243.312,382.115 C239.862,383.339 233.518,388.237 224.058,396.695 C216.267,403.707 209.032,409.495 207.919,409.495 C205.693,409.606 181.43,402.928 178.425,401.37 C174.53,399.366 175.086,396.361 181.43,385.565 C184.769,379.667 187.552,374.102 187.552,373.211 C187.552,372.21 186.55,370.874 185.437,370.095 C183.767,369.093 183.545,368.314 184.324,367.312 C185.214,366.311 184.435,364.53 181.541,360.746 C176.978,354.736 176.756,353.511 179.649,348.726 C182.543,344.051 184.101,333.812 183.767,321.791 C183.434,313.333 183.767,311.107 185.993,306.21 C190.223,297.194 189.666,290.85 183.99,282.392 C179.204,275.157 177.757,269.926 177.646,259.687 C177.535,253.565 181.987,237.761 184.992,233.309 C187.218,230.081 199.238,218.951 203.356,216.28 C204.914,215.279 207.029,212.719 208.253,210.604 L210.368,206.709 L204.692,201.7 C201.575,199.029 198.348,195.245 197.568,193.353 C196.789,191.572 195.565,189.902 194.897,189.902 C194.23,189.791 188.665,189.68 182.543,189.569 C169.633,189.235 161.73,186.786 154.496,180.553 C147.595,174.655 145.147,175.545 143.255,184.226 C142.587,186.786 140.027,192.574 137.467,197.026 C134.907,201.366 132.459,205.707 132.014,206.597 C131.568,207.488 127.116,210.27 121.997,212.83 C112.202,217.727 110.756,219.063 110.756,223.292 C110.756,224.739 109.531,227.299 108.084,228.968 C106.637,230.749 104.857,234.756 104.078,237.872 C102.074,246.22 99.96,247.221 88.273,245.663 C83.153,244.995 76.698,243.66 73.693,242.658 L68.462,240.988 L63.454,245.552 C60.782,248.112 57.777,250.115 56.998,250.115 C56.108,250.115 53.993,251.784 52.101,253.788 C50.209,255.68 46.981,258.908 44.644,260.911 C41.973,263.248 40.637,265.363 40.637,267.366 C40.637,274.712 36.185,278.385 27.059,278.385 C21.16,278.496 19.936,276.827 21.605,271.262 C23.164,266.031 22.273,264.139 17.821,263.026 C13.814,262.024 12.479,258.796 14.037,253.677 C14.705,251.339 15.039,248.223 14.816,246.776 C14.482,244.216 13.814,243.994 7.916,243.437 C-1.1,242.658 -1.656,241.545 2.462,230.526 L5.69,221.734 L13.035,221.734 C19.936,221.734 20.715,221.511 24.388,217.95 C27.504,214.945 29.396,214.054 32.958,213.832 C37.855,213.609 41.862,211.16 45.423,206.375 C47.427,203.926 47.427,203.258 46.091,201.589 C44.867,200.031 43.42,199.919 36.742,200.587 C32.513,201.032 26.948,201.589 24.499,201.7 C22.051,201.923 18.823,202.479 17.265,203.147 C13.481,204.594 11.7,203.703 11.7,200.476 C11.7,196.246 13.369,194.02 19.491,189.457 C26.725,184.115 28.728,180.331 27.727,173.875 C27.17,169.646 27.504,168.088 30.509,162.857 C35.072,155.066 39.747,151.059 44.422,151.059 C50.432,151.059 54.995,148.945 55.774,145.828 C56.553,143.157 51.99,131.916 49.541,130.469 C48.874,130.135 48.428,128.132 48.428,126.128 C48.428,123.123 49.207,121.788 52.546,119.228 C54.772,117.558 58.668,115.778 61.116,115.332 C69.909,113.774 73.47,112.439 78.813,108.877 C82.374,106.428 86.159,104.982 90.277,104.425 C95.396,103.646 96.955,102.978 99.292,100.084 C100.739,98.081 102.519,96.523 103.076,96.523 C103.744,96.523 105.97,95.299 108.084,93.852 C111.201,91.737 112.982,91.292 117.211,91.737 C125.558,92.516 131.902,94.186 135.13,96.634 L138.246,98.86 L145.036,95.41 C152.493,91.626 162.398,88.732 167.74,88.732 C174.196,88.732 186.773,102.199 187.997,110.435 L188.776,115.444 L194.675,115.444 C201.687,115.444 204.803,113.552 203.913,109.767 C202.466,103.535 198.681,94.297 196.01,90.179 C193.562,86.506 193.339,85.393 194.23,81.943 C195.12,78.938 195.009,76.934 193.784,74.263 C190.223,65.582 194.675,56.901 207.474,47.774 C214.708,42.654 218.715,41.319 235.967,38.648 C239.639,38.091 243.646,37.312 244.87,36.978 C246.54,36.422 248.766,37.646 252.884,40.985 C257.67,44.769 259.117,46.884 261.009,52.337 C262.233,56.121 263.235,60.24 263.235,61.575 C263.235,65.359 269.245,77.713 273.029,81.72 C276.145,85.059 277.036,85.393 283.268,85.393 C291.393,85.393 299.741,87.285 302.634,89.734 C303.747,90.735 305.639,93.407 306.864,95.744 C307.977,98.081 309.758,100.307 310.648,100.641 C312.763,101.42 319.44,99.528 329.123,95.299 C335.356,92.516 337.916,92.071 346.152,92.071 C355.167,92.071 355.946,92.294 360.064,95.521 C362.402,97.413 364.628,100.196 365.073,101.865 C365.407,103.423 367.41,106.985 369.302,109.767 C371.306,112.55 373.866,116.891 375.201,119.339 C376.425,121.788 378.429,125.461 379.43,127.353 C381.211,130.803 381.211,131.359 379.43,137.703 C377.093,146.273 377.872,154.843 381.656,162.3 C383.215,165.305 384.55,168.422 384.55,169.201 C384.55,172.317 387.667,174.766 392.452,175.434 C397.016,176.101 397.572,176.435 400.132,181.778 C402.803,187.231 404.807,190.125 411.818,198.584 C413.71,200.81 416.159,204.26 417.383,206.152 C424.395,217.393 425.508,218.617 429.96,219.397 C432.409,219.73 434.857,220.621 435.525,221.4 C437.974,224.405 441.312,236.425 441.312,242.324 C441.312,245.663 442.203,250.894 443.205,253.788 C444.874,258.351 444.874,259.575 443.65,262.692 C441.535,267.589 441.758,271.039 444.429,274.489 C448.213,279.609 448.547,282.392 445.653,284.395 C442.203,286.844 433.633,290.182 430.85,290.182 C429.626,290.182 427.289,288.847 425.508,287.177 C423.839,285.619 422.058,284.506 421.724,284.951 C421.279,285.397 424.061,289.07 427.845,293.188 C431.63,297.417 438.196,305.096 442.537,310.439 C450.105,319.788 452.665,322.014 454.78,320.678 C455.336,320.344 455.781,320.567 455.781,321.235 C455.781,321.903 457.34,324.129 459.12,326.132 C461.012,328.247 462.459,330.695 462.459,331.586 C462.459,334.702 470.473,343.606 474.034,344.496 C476.26,345.053 478.041,346.5 478.931,348.614 C479.822,350.506 482.048,352.955 483.94,354.179 C486.166,355.626 488.726,358.965 490.84,363.306 C492.732,367.09 495.292,371.208 496.628,372.432 C501.859,377.329 500.746,392.689 495.07,394.915 C489.95,396.807 487.724,395.694 481.714,387.569 C477.262,381.67 474.257,378.999 469.471,376.439 C463.906,373.545 462.904,372.543 461.903,368.648 C461.346,366.199 459.899,362.972 458.898,361.414 C457.785,359.967 456.894,356.85 456.894,354.624 C456.894,351.508 455.781,349.171 452.22,344.608 C449.66,341.269 447.211,338.375 446.877,338.041 C446.544,337.707 444.874,335.481 442.982,333.032 C441.201,330.584 437.974,326.8 435.748,324.462 C433.633,322.237 428.847,316.783 425.174,312.442 C418.496,304.317 403.582,290.182 382.881,272.152 C361.4,253.677 353.164,246.776 352.162,246.776 C351.606,246.776 350.715,247.889 350.159,249.336 C348.378,254.01 354.277,263.248 363.181,269.926 C371.751,276.27 380.989,281.279 384.105,281.279 C390.115,281.279 396.904,289.96 395.346,295.747 C395.012,296.972 396.348,299.977 398.574,303.093 C404.027,310.773 403.471,316.226 396.793,319.677 C394.233,321.012 393.454,322.125 393.454,324.796 C393.454,327.356 392.675,328.581 389.67,330.361 C385.107,333.032 384.439,334.591 385.663,339.376 C387.221,345.387 389.336,364.753 388.557,365.643 C388.112,365.977 380.766,368.203 372.196,370.429 C360.287,373.545 355.724,374.324 353.275,373.656 C348.935,372.432 347.154,373.1 341.478,378.331 C336.024,383.228 333.575,383.451 316.213,381.225 C306.864,380.112 305.751,379.667 302.078,375.994 C299.852,373.768 297.849,371.208 297.515,370.318 C297.069,369.093 296.29,369.427 294.064,371.987 C292.395,373.879 290.725,376.439 290.392,377.886 C290.058,379.221 289.279,380.334 288.722,380.334 C288.166,380.334 288.054,381.225 288.388,382.338 C288.833,383.785 288.722,383.896 287.943,382.783 C287.386,381.893 285.717,381.447 284.27,381.67 C281.154,382.115 281.154,381.781 283.268,405.933 C284.938,425.522 284.381,438.432 281.71,443.663 C280.597,445.667 279.039,450.23 278.149,453.68 C277.258,457.13 275.923,460.469 275.144,461.137 C272.584,463.697 269.245,463.92 267.353,461.805 z M390.338,252.786 C389.113,250.338 386.665,246.553 384.884,244.327 C383.215,242.101 380.321,237.65 378.429,234.533 C376.648,231.417 373.754,227.076 372.085,224.85 C370.415,222.736 368.746,219.063 368.301,216.837 C367.967,214.611 366.409,211.049 364.962,208.934 C363.181,206.263 362.402,203.481 362.513,200.587 C362.513,198.139 362.068,193.353 361.4,190.014 C359.953,182.334 347.933,157.292 343.481,152.506 C338.361,146.83 332.908,147.832 326.007,155.4 C322,159.963 321.666,160.742 321.444,167.643 C321.333,171.649 320.887,177.103 320.553,179.663 C319.886,183.67 320.22,185.228 322.891,189.68 C332.129,205.818 346.82,221.845 371.083,242.658 C390.783,259.575 394.901,261.69 390.338,252.786 z" fill="#000000"/>
  </g>
</svg>
