<?xml version="1.0" encoding="UTF-8"?>
<!DOCTYPE svg PUBLIC "-//W3C//DTD SVG 1.1//EN" "http://www.w3.org/Graphics/SVG/1.1/DTD/svg11.dtd">
<svg version="1.1" xmlns="http://www.w3.org/2000/svg" xmlns:xlink="http://www.w3.org/1999/xlink" x="0" y="0" width="500" height="500" viewBox="0, 0, 500, 500">
  <g id="layer101">
    <path d="M123.369,465.093 C111.759,464.583 112.142,465.476 115.204,446.976 C116.224,440.979 116.735,435.493 116.479,434.728 C116.097,433.962 113.29,431.793 110.228,430.007 C103.976,426.18 103.466,424.521 105.89,415.59 C107.676,408.956 109.973,407.297 117.373,407.297 C123.114,407.297 123.497,407.042 124.9,402.832 C126.176,398.876 126.048,397.728 123.497,393.518 C121.838,390.711 120.817,386.883 120.945,384.077 C121.073,378.59 130.004,354.987 137.531,340.06 C141.231,332.66 142.762,327.939 142.762,324.112 C142.762,321.05 143.655,316.329 144.676,313.522 C145.696,310.715 146.462,306.377 146.59,303.826 C146.59,301.274 147.355,296.936 148.248,294.257 C149.779,289.919 149.779,288.26 147.993,281.881 L145.824,274.481 L143.145,277.415 C141.741,279.074 139.828,281.753 138.934,283.54 C136.128,289.153 121.966,308.036 114.693,315.819 C105.507,325.643 99.511,328.832 93.642,326.918 C91.218,326.153 88.156,323.984 86.88,322.198 C83.69,317.732 81.138,318.881 77.183,326.663 C73.994,332.915 73.611,333.17 51.666,344.015 C39.418,350.139 28.573,356.135 27.553,357.284 C24.108,360.984 22.705,366.725 21.939,378.59 C21.556,384.97 20.663,390.456 19.898,390.839 C17.729,392.37 14.411,390.583 8.798,384.842 C4.46,380.249 3.056,377.697 1.653,371.318 C-0.388,361.622 -0.516,352.18 1.143,345.929 C2.163,342.484 3.567,340.698 6.884,339.167 C9.308,338.018 11.605,336.487 11.987,335.849 C12.37,335.211 10.967,331.511 8.798,327.684 C6.501,323.729 5.098,320.029 5.608,319.391 C5.991,318.625 6.501,313.139 6.756,307.143 C7.139,296.426 7.267,296.043 11.987,291.322 C17.091,285.964 28.191,280.988 34.825,280.988 C39.673,280.988 57.025,272.95 58.046,270.143 C58.556,269.122 58.301,267.464 57.535,266.571 C53.835,261.85 54.473,259.298 60.98,252.919 C64.552,249.347 67.87,246.54 68.508,246.412 C69.018,246.412 71.825,246.285 74.759,246.03 C79.607,245.774 81.011,244.881 87.9,237.481 C92.111,233.016 97.852,227.019 100.659,224.213 C104.614,220.13 106.273,217.068 108.314,209.54 C109.717,204.309 110.866,199.078 110.866,198.058 C110.866,197.037 106.911,191.806 101.935,186.703 C92.621,176.878 91.218,173.179 95.173,169.351 C96.576,167.82 98.362,167.437 101.169,168.075 C103.338,168.458 107.166,168.968 109.717,169.096 C112.397,169.351 116.607,171.01 119.669,173.051 C124.262,176.241 124.9,177.261 124.9,181.599 C124.9,186.065 125.41,186.83 129.621,188.744 C132.3,190.02 136,193.465 138.041,196.527 C139.955,199.461 142.379,201.885 143.272,201.885 C146.079,201.885 148.886,197.675 150.8,190.402 C151.948,186.575 153.99,179.43 155.393,174.454 C156.924,169.606 158.072,162.079 158.072,157.996 C158.072,149.83 159.476,143.962 163.176,136.689 C164.834,133.5 165.982,126.738 167.003,113.724 C168.917,90.376 168.917,90.248 182.951,91.269 C194.944,92.162 197.241,92.8 198.261,95.99 C198.644,97.265 200.686,100.455 202.727,103.007 C204.896,105.686 207.065,110.024 207.83,112.576 C209.489,118.7 212.168,121.124 214.848,118.955 C217.654,116.658 217.144,114.107 213.317,110.789 C210.254,108.11 210.127,107.6 211.403,103.645 C212.296,101.348 212.934,98.031 212.934,96.372 C212.934,94.331 215.358,90.631 219.823,86.038 C226.968,78.383 230.796,72.259 230.796,68.304 C230.796,65.752 236.409,45.338 238.578,39.597 C241.258,32.963 251.592,32.197 254.909,38.449 C255.675,39.852 256.313,45.594 256.313,51.207 C256.313,63.328 257.461,64.986 266.647,66.135 C270.347,66.645 274.685,68.176 276.471,69.707 C278.385,71.238 281.447,73.535 283.488,74.683 C286.423,76.597 286.933,77.745 286.933,82.976 C286.933,88.59 289.23,93.948 292.547,96.245 C293.312,96.755 297.14,97.265 300.967,97.265 C309.771,97.265 312.705,99.179 315.64,107.089 C316.916,110.407 319.085,115.127 320.488,117.424 C322.657,121.124 322.912,123.038 322.147,131.458 C321.381,140.134 321.636,141.92 324.06,146.386 C326.102,150.086 327.25,155.699 328.398,166.417 C330.184,183.258 331.843,186.958 338.86,190.02 C342.433,191.423 344.219,191.551 346.515,190.53 C350.981,188.489 353.405,188.744 356.722,191.934 C359.529,194.485 360.039,194.613 363.867,193.082 C366.163,192.061 371.394,190.913 375.732,190.53 C384.791,189.637 389.894,186.703 391.042,181.727 C393.594,170.372 396.401,166.289 403.673,163.992 C406.608,163.099 407.628,161.823 408.139,158.761 C409.032,153.02 414.901,147.279 420.642,146.386 C423.194,146.003 427.021,145.11 429.063,144.472 C433.656,142.941 438.759,145.748 438.759,149.703 C438.759,151.234 434.677,156.592 429.19,162.334 C423.959,167.82 419.621,173.051 419.621,173.816 C419.621,174.582 420.515,176.878 421.535,178.92 C422.556,180.834 423.832,185.809 424.215,189.765 C424.852,195.378 426.128,198.185 429.318,202.14 C431.742,204.947 433.656,207.882 433.656,208.52 C433.656,209.285 435.697,212.985 438.121,216.557 C441.694,221.916 443.48,223.447 447.052,224.085 C450.369,224.723 452.028,225.999 453.687,229.061 C454.835,231.357 456.876,234.674 458.152,236.461 C460.066,239.012 460.321,240.288 459.3,243.095 C458.535,245.009 458.28,247.433 458.662,248.454 C459.683,251.005 474.738,262.998 482.011,266.953 C485.2,268.74 489.028,271.929 490.559,274.226 C494.004,279.329 495.407,291.577 493.11,296.17 C492.217,297.957 491.707,300.126 491.962,301.019 C492.217,301.784 491.579,305.484 490.559,309.184 C488.517,316.074 488.645,316.839 492.6,321.305 C496.045,325.26 500,340.315 500,350.011 C500,366.342 488.262,378.973 485.583,365.449 C483.924,356.901 481.755,348.608 479.331,341.336 C477.29,334.701 475.759,332.405 470.911,328.577 C457.259,317.605 445.011,305.867 442.076,300.891 C440.418,298.084 437.866,294.512 436.335,293.236 C433.656,290.812 433.656,290.812 427.532,297.064 C416.687,308.419 402.653,312.501 386.449,309.057 C382.239,308.163 378.284,307.781 377.901,308.291 C376.37,309.822 380.58,315.946 384.153,317.732 C388.746,319.901 399.08,331.639 401.377,337.125 C402.397,339.549 406.608,348.225 410.691,356.263 C422.046,378.59 423.832,383.821 422.046,389.052 C420.897,392.625 421.025,393.901 422.684,396.452 C425.108,400.152 428.552,400.535 433.145,397.601 C437.356,394.794 443.99,396.707 450.625,402.832 C455.09,407.042 455.345,407.807 455.345,414.952 C455.345,422.862 455.09,423.118 449.349,422.99 C446.669,422.862 447.435,425.669 452.156,433.452 C456.621,440.979 458.79,447.869 457.514,451.186 C456.494,453.738 439.27,457.438 436.08,455.779 C434.421,454.759 432.125,454.886 428.68,455.779 C424.47,456.928 422.556,456.545 415.028,453.738 C410.18,451.952 403.291,449.272 399.591,447.869 C393.722,445.7 392.829,444.935 392.063,440.979 C391.042,435.366 389.894,434.728 380.58,435.111 C373.181,435.493 330.057,433.069 329.291,432.176 C328.143,431.028 332.226,419.8 334.777,417.504 C336.308,416.1 341.922,413.549 347.026,412.018 C355.446,409.466 356.467,408.7 356.85,405.638 C357.105,403.342 355.829,400.152 353.022,396.197 C350.726,392.752 348.429,389.945 347.919,389.69 C347.408,389.435 347.281,388.542 347.664,387.649 C347.919,386.883 347.408,383.949 346.26,381.397 C345.239,378.846 344.346,373.997 344.346,370.68 C344.346,367.235 343.581,363.408 342.56,362.004 C341.667,360.601 340.519,357.794 340.008,355.88 C339.498,353.839 337.074,350.904 334.395,348.991 C326.102,343.122 323.55,338.911 323.295,331.256 C323.04,326.025 322.147,323.346 319.595,319.901 C317.681,317.477 315.895,315.436 315.64,315.436 C315.512,315.436 313.471,318.625 311.174,322.581 C307.985,328.449 306.071,330.236 300.585,332.787 C296.885,334.446 293.312,335.849 292.547,335.849 C289.102,335.849 284.381,341.208 284.381,344.908 C284.381,350.904 282.34,353.711 277.875,353.711 C275.833,353.711 271.878,354.86 269.071,356.263 C266.264,357.666 263.457,358.815 262.692,358.815 C262.054,358.815 259.12,356.773 256.44,354.222 C252.358,350.649 251.082,348.353 249.933,342.867 C248.785,337.508 247.509,335.211 244.065,332.405 C241.768,330.491 237.685,327.174 235.134,325.005 C224.161,316.201 224.289,301.912 235.261,289.791 C237.685,286.984 239.727,284.05 239.727,283.029 C239.727,280.477 236.154,277.16 233.603,277.16 C228.627,277.16 212.041,267.719 205.023,261.085 C196.22,252.664 193.668,252.536 192.265,260.574 C191.372,265.933 191.499,266.443 195.71,270.271 C199.92,273.971 200.175,274.864 200.175,282.009 C200.175,286.346 199.665,290.174 198.899,290.557 C196.73,291.833 197.496,297.446 200.303,301.401 C202.855,304.719 202.982,305.612 201.579,311.225 C200.686,314.543 199.155,318.625 198.134,320.284 C192.01,329.598 188.437,341.973 186.141,360.728 C184.737,371.318 183.717,382.418 183.589,385.608 C183.589,388.797 182.441,393.773 181.038,396.707 C178.231,402.959 177.975,402.704 189.968,407.297 C198.644,410.742 201.579,414.187 203.492,423.373 L204.258,427.2 L188.31,433.835 C179.507,437.407 171.724,440.469 171.086,440.469 C169.555,440.469 168.279,443.531 168.279,447.486 C168.279,450.931 164.451,459.607 163.048,459.607 C162.41,459.607 160.496,461.01 158.583,462.796 C154.883,466.241 152.969,466.369 123.369,465.093 z M320.616,301.019 C325.464,296.936 325.591,296.553 324.188,292.47 C323.295,290.174 322.657,285.581 322.657,282.264 C322.657,273.843 320.871,272.695 312.705,276.012 C306.326,278.691 303.519,282.519 303.519,288.515 C303.519,290.684 313.343,305.229 314.747,305.229 C315.257,305.229 317.936,303.315 320.616,301.019 z M416.687,285.964 C420.77,284.433 426.001,279.967 426.001,277.926 C426.001,275.502 415.028,264.274 408.522,260.064 C402.015,255.854 401.76,255.216 399.591,240.161 C398.57,233.526 398.315,233.143 394.615,232.761 C392.191,232.506 388.874,233.399 386.322,234.93 C383.898,236.461 380.963,237.609 379.687,237.609 C375.86,237.609 369.863,241.309 369.863,243.861 C369.863,245.136 371.012,247.178 372.287,248.326 C377.136,252.664 378.029,257.385 375.732,265.55 C374.584,269.633 374.074,273.971 374.456,275.119 C375.349,277.543 382.494,281.498 392.191,284.943 C399.463,287.495 411.328,288.005 416.687,285.964 z M158.583,261.085 C161.134,258.533 161.134,255.598 158.583,254.578 C156.286,253.685 153.607,256.109 152.331,260.319 C151.693,262.616 152.076,263.126 154.117,263.126 C155.521,263.126 157.562,262.233 158.583,261.085 z M192.01,182.492 C198.517,179.43 200.686,175.475 197.368,172.923 C196.475,172.158 190.479,171.265 183.972,170.754 C170.703,169.861 169.3,170.627 170.448,178.665 C171.724,186.83 180.017,188.234 192.01,182.492 z" fill="#000000"/>
  </g>
</svg>
