<?xml version="1.0" encoding="UTF-8"?>
<!DOCTYPE svg PUBLIC "-//W3C//DTD SVG 1.1//EN" "http://www.w3.org/Graphics/SVG/1.1/DTD/svg11.dtd">
<svg version="1.1" xmlns="http://www.w3.org/2000/svg" xmlns:xlink="http://www.w3.org/1999/xlink" x="0" y="0" width="500" height="500" viewBox="0, 0, 500, 500">
  <g id="layer101">
    <path d="M292.293,498.319 C290.332,495.658 286.83,488.655 284.169,481.653 C282.209,476.331 281.088,464.146 280.668,442.577 C280.528,440.756 279.408,437.395 277.867,435.434 C276.466,433.333 275.206,430.952 275.206,430.112 C275.206,429.272 272.545,423.389 269.323,416.947 C264.001,406.443 263.441,404.342 262.881,392.157 C262.181,376.05 258.539,368.067 250.556,365.546 C247.895,364.706 245.794,363.866 245.794,363.725 C245.794,363.585 244.534,359.944 242.993,355.742 C241.452,351.541 240.192,346.359 240.192,344.258 C240.192,337.815 237.671,333.333 232.909,331.232 C230.388,330.252 227.867,329.692 227.307,329.972 C226.746,330.392 222.545,331.232 218.203,331.933 C209.52,333.333 205.178,336.835 205.178,342.157 C205.178,343.697 203.357,349.16 201.116,354.202 C188.371,383.333 185.57,394.258 188.651,403.081 C189.772,406.443 190.472,415.966 190.472,430.672 C190.472,452.801 190.472,453.221 186.27,461.345 L182.069,469.608 L164.562,468.627 C154.898,468.207 144.113,467.787 140.612,467.787 C134.59,467.787 133.889,467.367 130.248,462.185 C126.046,456.162 126.046,457.983 129.548,433.473 C130.108,428.852 132.069,421.288 133.609,416.807 C137.111,406.863 137.391,395.098 134.169,382.633 C132.349,375.63 132.209,372.829 133.469,368.487 C136.13,360.084 135.71,358.543 131.088,358.543 C128.847,358.543 125.906,358.123 124.646,357.703 C120.584,356.022 117.923,348.459 117.643,337.675 C117.503,328.291 117.083,327.031 113.721,324.37 C111.62,322.689 109.94,320.588 109.94,319.608 C109.94,318.767 107.419,316.387 104.337,314.426 C101.396,312.605 98.175,309.804 97.335,308.263 C95.234,304.202 95.654,297.619 98.315,292.017 C100.416,287.535 100.556,286.555 98.735,283.333 C97.615,281.373 92.293,277.171 86.83,273.81 C73.665,265.826 71.284,261.204 68.063,238.235 C67.223,232.493 66.242,230.112 63.441,228.011 C61.34,226.611 57.419,222.129 54.618,218.207 C50.276,212.185 49.295,209.664 48.735,202.101 C48.315,195.658 48.595,192.297 50.136,190.056 C51.256,188.375 52.517,185.014 53.077,182.633 C53.637,180.252 55.598,176.751 57.559,174.93 C59.52,173.109 62.741,168.207 64.702,164.006 C69.183,154.762 75.206,147.619 81.788,144.258 C94.534,137.675 98.875,128.992 99.295,108.403 C99.436,96.499 101.396,93.697 112.181,88.796 C118.063,86.275 119.884,84.454 122.405,79.272 C123.945,75.77 125.346,72.269 125.346,71.569 C125.346,70.728 126.046,66.947 126.887,63.025 C128.427,55.602 135.01,47.759 143.273,43.557 C145.374,42.577 149.155,39.496 151.676,36.835 C155.878,32.353 156.718,31.933 162.181,32.773 C174.786,34.594 174.786,34.734 178.147,28.712 C179.828,25.63 181.368,21.148 181.368,18.627 C181.368,16.247 182.349,13.165 183.609,12.045 C186.13,9.524 191.312,9.104 193.553,11.345 C196.494,14.286 204.618,11.205 209.38,5.462 C212.881,1.12 214.702,0 218.343,0 C221.004,0 223.805,0.98 224.786,2.101 C225.626,3.221 229.127,5.602 232.349,7.563 C236.971,10.224 239.492,10.784 243.833,10.224 C248.035,9.664 250.136,10.224 252.797,12.325 C255.738,14.706 256.298,16.527 256.718,24.93 C257.419,37.395 260.22,40.756 267.223,37.955 C275.906,34.454 276.326,34.594 281.508,40.056 C287.671,46.919 288.651,50.42 285.85,56.162 C282.629,62.605 283.049,65.406 287.531,67.927 C291.872,70.588 298.455,81.653 301.256,91.317 C303.077,97.479 303.777,98.039 309.239,99.44 C312.461,100.28 318.483,103.221 322.545,105.882 C328.987,110.084 329.828,111.204 329.828,115.406 C329.828,121.148 332.909,124.65 337.671,124.65 C339.772,124.65 342.993,126.611 345.934,129.412 C348.455,132.073 351.256,134.314 352.097,134.594 C352.937,134.874 354.057,138.095 354.478,141.597 C355.318,148.039 355.318,148.179 348.035,155.322 C342.153,161.064 339.772,162.465 335.99,162.465 C332.489,162.465 330.248,163.585 326.887,167.227 C324.506,169.888 321.704,171.709 320.724,171.429 C319.744,171.008 317.503,172.549 315.962,174.93 C313.161,178.852 313.021,179.552 314.842,183.053 C315.962,185.294 317.643,189.636 318.483,192.997 C320.864,201.681 323.945,203.081 343.273,203.922 C352.517,204.342 366.522,205.042 374.646,205.462 C382.769,205.742 393.413,206.303 398.455,206.583 C418.903,207.703 423.105,208.964 431.088,216.667 C435.57,221.008 440.192,224.23 442.993,224.79 C449.295,226.05 452.237,230.952 451.256,238.515 C450.276,245.378 445.094,250.7 439.352,250.7 C437.251,250.7 431.929,253.221 427.167,256.443 L418.763,262.185 L406.438,261.345 C399.716,260.784 392.853,259.944 391.172,259.244 C389.352,258.683 385.85,258.683 383.329,259.384 C380.388,260.224 376.046,260.084 371.424,259.244 C362.741,257.563 330.948,254.482 324.926,254.762 C318.063,255.042 315.822,256.303 315.122,260.224 C312.741,271.709 311.48,274.23 307.559,275.91 C302.377,278.011 301.256,280.672 303.777,285.574 C304.898,287.675 307.139,293.417 308.819,298.319 L311.76,307.143 L308.959,311.064 C305.178,316.246 305.178,317.227 310.36,323.81 C317.923,333.333 320.444,342.997 316.382,347.619 C314.422,349.58 314.001,352.801 314.281,364.286 C314.422,372.129 314.982,379.552 315.682,380.812 C316.382,382.073 317.363,389.636 317.923,397.759 C318.483,405.882 319.043,414.566 319.323,417.087 C319.464,419.608 321.004,423.109 322.685,424.93 C324.225,426.611 325.626,429.412 325.626,431.092 C325.626,432.773 327.867,437.255 330.528,441.036 C333.189,444.678 335.43,448.319 335.43,449.02 C335.43,454.902 338.931,461.204 343.833,464.426 C346.774,466.387 349.996,469.888 350.836,472.129 C352.937,476.891 351.676,488.515 349.015,491.036 C347.615,492.437 302.377,500 295.654,500 C294.674,500 293.133,499.16 292.293,498.319 z" fill="#000000"/>
  </g>
</svg>
