<?xml version="1.0" encoding="UTF-8"?>
<!DOCTYPE svg PUBLIC "-//W3C//DTD SVG 1.1//EN" "http://www.w3.org/Graphics/SVG/1.1/DTD/svg11.dtd">
<svg version="1.1" xmlns="http://www.w3.org/2000/svg" xmlns:xlink="http://www.w3.org/1999/xlink" x="0" y="0" width="500" height="500" viewBox="0, 0, 500, 500">
  <g id="Background">
    <rect x="0" y="0" width="500" height="500" fill="#000000" fill-opacity="0"/>
  </g>
  <g id="Layer_1">
    <path d="M175.198,1.944 C171.02,2.474 164.615,3.895 160.971,5.099 C155.566,6.89 153.768,7.067 151.198,6.065 C139.646,1.567 114.928,4.277 101.113,11.555 C96.568,13.951 91.527,15.911 89.916,15.911 C86.329,15.911 81.729,19.358 80.879,22.68 C80.467,24.294 78.085,26.249 73.968,28.352 C59.312,35.851 45.447,55.842 42.732,73.394 C39.395,94.982 40.042,101.353 47.89,124.127 C49.488,128.768 58.193,140.677 65.646,148.42 L70.372,153.326 L67.07,159.595 C60.446,172.174 67.304,184.123 87.526,195.23 C90.271,196.739 90.81,197.78 91.26,202.456 C91.63,206.302 92.786,209.285 95.166,212.522 C100.372,219.598 97.364,223.197 83.365,226.649 C78.327,227.893 71.208,230.545 67.544,232.546 C63.88,234.544 56.657,237.996 51.491,240.216 C45.924,242.607 41.223,245.409 39.947,247.093 C38.763,248.656 36.58,251.289 35.094,252.942 C29.961,258.657 31.082,269.802 37.479,276.641 L42.562,282.073 L40.714,287.214 C36.555,298.775 37.519,307.645 43.946,316.931 C45.472,319.137 48.569,326.031 50.824,332.247 C56.869,348.897 57.391,349.791 61.275,350.171 C64.2,350.458 64.929,351.243 67.075,356.42 C73.291,371.419 107.475,377.726 110.885,364.505 C112.556,358.036 117.681,355.898 123.743,359.143 C125.506,360.087 126.932,359.617 131.546,356.575 C134.65,354.53 138.657,352.102 140.448,351.18 C142.241,350.261 144.928,348.193 146.422,346.584 C147.916,344.976 151.083,342.663 153.463,341.441 C166.754,334.63 186.528,312.428 186.605,304.235 C186.663,297.904 187.874,297.444 197.878,299.957 C200.048,300.501 200.72,300.262 200.72,298.948 C200.72,296.712 204.562,294.345 209.627,293.458 C214.437,292.614 216.328,294.789 217.587,302.604 C219.123,312.171 220.152,311.948 219.937,302.097 C219.748,293.388 219.937,292.316 221.738,291.952 C224.211,291.45 231.127,297.869 231.127,300.664 C231.127,303.311 236.56,306.493 245.786,309.251 C254.756,311.928 256.104,312.858 256.104,316.362 C256.104,318.6 245.332,342.955 238.558,356.038 C223.779,384.575 226.354,409.522 247.003,437.808 C253.292,446.426 253.344,446.558 253.367,454.099 C253.404,467.149 259.664,472.767 282.758,480.479 C286.821,481.836 291.162,483.879 292.401,485.02 C293.64,486.162 296.473,488.852 298.693,491 C308.589,500.566 325.291,500.299 321.652,490.635 C320.288,487.016 320.66,486.134 323.55,486.134 C326.468,486.134 326.927,484.453 325.161,480.232 C323.57,476.423 317.94,472.027 314.641,472.02 C313.687,472.017 311.764,471.026 310.367,469.814 C308.971,468.603 306.576,467.359 305.042,467.049 C297.424,465.511 293.123,463.937 288.467,460.982 C283.28,457.69 275.652,450.057 275.652,448.159 C275.652,446.401 268.915,439.325 264.719,436.677 C262.506,435.281 258.462,430.695 255.572,426.309 C238.895,400.995 238.78,387.874 254.928,352.369 C261.022,338.966 262.099,340.39 263.69,363.963 C266.333,403.103 273.514,419.505 292.366,429.451 C303.102,435.116 323.071,433.333 332.122,425.902 C335.567,423.072 337.295,423.407 344.169,428.227 C352.844,434.309 365.182,440.568 374.664,443.688 C382.539,446.281 383.443,447.045 387.504,454.493 C392.013,462.763 397.668,463.997 413.026,460.071 C423.804,457.313 427.108,457.338 431.142,460.211 C434.979,462.943 450.467,465.915 455.317,464.851 C461.989,463.388 470.039,458.674 470.039,456.232 C470.039,452.203 457.605,443.451 449.947,442.09 C447.56,441.665 444.138,440.563 442.347,439.642 C439.862,438.363 435.228,437.948 422.8,437.886 C406.972,437.808 406.342,437.719 400.538,434.641 C395.502,431.974 393.202,431.454 385.876,431.322 C373.854,431.107 356.39,423.389 347.966,414.57 L344.803,411.263 L348.398,403.357 C354.177,390.647 355.294,390.349 360.317,400.208 C370.34,419.88 391.613,425.09 404.284,410.975 L408.258,406.55 L416.118,407.214 L423.979,407.878 L430.175,403.482 C438.068,397.882 438.733,393.566 432.573,387.924 C430.483,386.008 428.772,383.658 428.772,382.701 C428.772,381.745 427.468,379.412 425.874,377.519 L422.977,374.074 L424.748,366.846 C429.663,346.774 427.453,342.945 411.862,344.544 C404.092,345.338 392.505,340.969 386.915,335.135 L383.978,332.07 L391.815,322.511 C400.233,312.243 401.172,308.591 396.666,303.616 C394.61,301.341 394.91,299.62 401.309,277.085 C407.131,256.584 407.471,254.249 405.5,248.227 C404.561,245.359 403.795,241.665 403.795,240.022 C403.795,237.104 401.881,224.498 398.959,208.186 C397.206,198.392 397.458,197.595 402.755,196.169 C408.777,194.548 409.077,192.095 404.314,183.431 C402.119,179.437 399.339,172.975 398.135,169.071 C396.933,165.167 394.261,157.889 392.198,152.901 C388.311,143.5 388.184,140.797 391.626,140.797 C396.594,140.797 409.212,121.597 410.296,112.391 C410.743,108.602 412.149,103.566 413.423,101.201 C417.794,93.086 412.659,83.24 404.057,83.24 C402.161,83.24 399.006,82.535 397.046,81.676 C395.082,80.815 387.859,77.967 380.99,75.347 L368.502,70.581 L368.339,63.608 C368.112,53.809 372.601,49.85 380.523,52.863 C384.377,54.329 387.205,51.651 390.262,43.648 L392.17,38.648 L389.11,32.604 C387.429,29.277 385.037,26.157 383.793,25.667 C380.323,24.301 371.294,21.396 365.075,19.645 C361.995,18.779 357.354,17.105 354.759,15.929 C345.932,11.922 342.058,14.163 340.512,24.171 C338.701,35.903 338.979,39.155 342.191,43.788 C348.66,53.125 345.076,58.008 333.114,56.15 C325.496,54.968 325.174,55.011 322.446,57.556 C315.16,64.355 308.162,63.388 303.878,54.988 C299.25,45.919 288.527,39.023 272.604,34.874 C263.603,32.529 258.175,29.022 256.769,24.636 C254.808,18.521 249.378,15.564 241.685,16.416 C236.088,17.035 234.741,16.761 229.197,13.866 C206.36,1.939 195.02,-0.566 175.198,1.944 M280.337,354.892 C281.644,355.576 284.319,357.534 286.287,359.243 C288.253,360.951 292.659,363.761 296.075,365.487 C300.804,367.872 302.764,369.616 304.268,372.768 C305.354,375.048 308.109,379.145 310.39,381.867 C314.653,386.957 323.433,404.559 323.433,408.011 C323.433,416.55 299.21,410.606 290.483,399.926 C283.824,391.776 277.243,374.124 276.041,361.193 C275.292,353.131 275.736,352.476 280.337,354.892 M386.962,391.423 C398.255,397.338 399.426,399.429 393.993,403.999 C387.554,409.417 378.837,407.022 372.336,398.042 C363.744,386.183 370.835,382.976 386.962,391.423 M411.398,452.485 C413.673,453.981 411.443,455.32 404.119,456.849 C397.648,458.202 394.021,457.006 394.021,453.517 C394.021,451.121 408.051,450.29 411.398,452.485 M271.131,464.936 C276.743,470.366 277.043,470.886 274.565,470.883 C268.061,470.881 257.85,463.395 259.876,460.118 C261.417,457.623 265.284,459.276 271.131,464.936" fill="#000000" id="mechanicum-taghmata-vultarax-stratos-automata"/>
  </g>
</svg>
