<?xml version="1.0" encoding="UTF-8"?>
<!DOCTYPE svg PUBLIC "-//W3C//DTD SVG 1.1//EN" "http://www.w3.org/Graphics/SVG/1.1/DTD/svg11.dtd">
<svg version="1.1" xmlns="http://www.w3.org/2000/svg" xmlns:xlink="http://www.w3.org/1999/xlink" x="0" y="0" width="500" height="500" viewBox="0, 0, 500, 500">
  <g id="layer101">
    <path d="M365.445,469.149 C361.783,468.04 359.897,466.265 355.126,459.497 C351.797,454.948 348.247,451.175 347.138,450.953 C345.14,450.62 343.809,447.736 343.809,443.187 C343.809,440.302 316.071,393.258 306.085,379.168 C302.646,374.286 299.206,368.627 298.319,366.63 C297.542,364.633 296.322,362.636 295.656,362.192 C293.881,361.193 289.332,349.1 288.666,343.885 C287.889,338.337 285.67,337.561 281.565,341.555 C276.905,345.993 274.686,350.542 275.574,353.871 C276.794,358.753 264.146,373.065 258.598,373.065 C256.934,373.065 256.49,372.511 256.934,370.846 C257.6,368.516 254.715,367.629 253.383,369.737 C252.94,370.402 251.719,370.181 250.055,369.071 C247.836,367.629 247.503,366.852 248.391,365.299 C249.833,362.525 249.833,361.97 248.058,361.97 C246.172,361.97 243.62,354.758 244.507,351.984 C245.062,350.32 244.729,349.765 243.287,349.765 C241.844,349.765 241.623,349.1 242.177,346.437 C242.51,344.662 242.288,343.108 241.734,343.108 C240.402,343.108 237.185,336.451 237.961,335.231 C238.294,334.676 237.85,334.232 236.963,334.232 C236.075,334.232 234.744,333.567 234.078,332.679 C233.412,331.902 231.304,330.904 229.529,330.46 C226.644,329.905 226.2,329.35 226.2,326.133 C226.2,324.136 225.202,320.585 223.981,318.144 C222.761,315.703 221.762,312.708 221.762,311.487 C221.762,305.829 214.107,301.169 206.895,302.389 C200.792,303.388 200.238,302.167 202.9,294.401 C205.563,286.412 205.119,283.416 200.903,282.529 C199.239,282.196 193.913,280.975 189.142,279.755 C177.714,276.981 176.716,277.092 174.497,280.532 C172.611,283.195 172.722,283.527 177.271,292.404 C181.709,301.058 190.141,313.04 200.016,324.69 C204.232,329.683 204.232,329.905 204.343,339.447 C204.454,350.32 202.457,356.755 196.465,365.521 C193.802,369.404 192.027,370.735 189.142,371.29 C187.034,371.734 183.373,373.62 180.932,375.617 C177.493,378.391 162.625,386.49 148.312,393.258 C144.429,395.034 138.881,393.924 129.672,389.375 C118.466,383.828 115.803,380.61 118.799,375.617 C121.462,371.068 125.234,360.639 125.234,357.865 C125.234,356.534 124.68,354.204 123.903,352.65 C123.015,350.431 123.015,347.103 124.014,338.67 C125.234,328.907 125.123,327.131 123.57,323.47 C116.802,307.937 112.697,298.839 111.254,296.176 C110.367,294.401 109.701,292.182 109.701,291.072 C109.701,289.963 108.481,285.414 106.927,280.865 C105.374,276.316 103.71,268.327 103.155,263.112 C102.711,257.898 101.935,253.016 101.602,252.461 C100.936,251.462 102.378,239.48 103.71,235.152 C104.486,232.601 111.809,227.719 115.027,227.719 C116.469,227.719 119.132,228.495 120.907,229.494 C124.125,231.158 124.458,231.047 129.783,227.719 C136.219,223.503 145.76,220.396 155.191,219.286 C161.737,218.51 162.403,218.177 168.838,211.742 C172.833,207.747 175.828,203.642 176.272,201.645 C177.604,195.432 171.612,183.338 167.174,183.338 C162.514,183.338 156.079,186.001 154.082,188.886 C152.75,190.661 149.422,192.658 144.762,194.322 C135.997,197.429 134.998,198.538 136.219,203.087 C138.105,209.412 135.664,209.301 128.563,202.644 C122.239,196.763 119.021,196.541 120.242,202.2 C121.24,206.749 120.242,207.969 116.58,206.416 C114.916,205.861 109.923,204.863 105.374,204.419 L97.164,203.531 L59.329,219.065 C38.47,227.608 21.051,235.042 20.496,235.596 C19.83,236.151 18.277,236.595 16.946,236.595 C15.503,236.595 14.061,237.15 13.728,237.704 C12.508,239.702 8.846,238.814 7.071,236.151 C4.852,232.712 5.629,231.158 11.842,226.942 C14.727,224.945 19.276,221.395 22.049,218.954 L27.042,214.516 L18.721,216.845 C14.172,218.177 8.18,219.286 5.407,219.286 C0.747,219.397 0.414,219.175 0.081,216.291 C-0.363,212.74 0.969,210.632 5.296,208.524 C6.849,207.637 13.062,204.419 19.054,201.201 C29.483,195.654 30.038,195.432 32.701,197.096 C35.253,198.871 36.029,198.649 49.787,193.102 C63.989,187.332 64.1,187.221 62.103,185.002 C58.885,181.452 58.552,180.342 59.884,177.458 C61.215,174.462 63.434,173.131 70.313,171.022 C77.303,168.914 80.854,166.806 80.854,164.698 C80.854,161.814 78.635,160.038 74.862,159.927 C72.976,159.927 70.535,159.484 69.426,159.04 C67.65,158.374 67.761,157.93 70.757,153.714 C74.64,148.388 77.525,147.501 85.403,148.943 C89.841,149.831 92.393,151.051 95.388,154.047 C99.272,157.819 99.826,158.041 104.819,157.486 C116.247,156.155 125.789,154.269 127.121,153.048 C128.119,152.05 128.119,149.387 127.231,142.286 C126.011,131.635 125.789,118.21 126.788,105.228 C127.342,97.794 128.119,95.243 132.002,88.031 C137.217,78.267 139.88,75.16 145.206,72.387 C147.314,71.277 150.531,68.836 152.307,66.95 C154.082,65.175 156.856,63.289 158.52,62.956 C161.959,62.179 164.511,59.738 165.621,56.077 C166.508,53.081 168.284,52.859 171.39,55.189 C175.052,57.963 179.157,57.075 191.251,50.64 C201.125,45.425 203.344,43.761 205.119,40.211 C206.784,36.882 208.892,35.107 214.218,32.555 C220.653,29.448 221.54,29.226 225.424,30.447 C228.752,31.445 230.527,31.445 233.412,30.336 C236.852,29.115 237.628,29.226 240.291,31.334 C242.066,32.555 246.393,34.219 250.055,34.996 C259.042,36.882 261.039,38.213 263.702,43.761 C265.81,48.31 277.127,59.405 284.006,63.732 C285.892,64.953 287.224,67.061 287.667,69.613 C288.333,73.052 289.221,73.94 293.437,75.826 C303.423,80.042 304.421,79.82 317.624,69.835 C319.732,68.281 331.604,75.826 335.71,81.263 C342.478,90.361 343.143,92.913 341.59,101.789 C340.813,106.116 340.037,111.885 340.037,114.77 C339.926,119.541 340.369,120.429 344.808,124.978 C347.47,127.751 351.132,130.525 352.907,131.302 C357.012,132.966 356.79,134.852 352.13,137.071 C347.803,139.179 347.47,140.622 349.689,149.054 C351.465,155.822 353.129,157.597 358.011,158.041 L362.116,158.374 L362.449,164.254 C362.782,169.58 363.115,170.246 366.887,172.687 C369.106,174.129 373.766,175.904 377.094,176.681 C384.306,178.345 387.08,180.453 387.08,184.226 C387.08,187.665 396.844,197.762 400.172,197.762 C402.502,197.762 411.157,207.304 414.374,213.517 C415.262,215.181 416.482,216.624 417.037,216.624 C417.592,216.624 420.809,219.065 424.138,222.06 C427.466,225.056 431.239,228.052 432.459,228.717 C433.68,229.383 435.233,231.824 435.788,234.154 C436.675,237.039 439.449,240.7 445.884,246.802 C454.539,255.235 457.201,259.229 458.644,265.997 C459.088,267.994 461.64,271.545 465.301,274.873 C472.513,281.53 476.951,289.63 476.951,295.732 C476.951,299.615 477.728,300.836 483.053,306.161 C488.157,311.154 489.156,312.819 489.156,316.036 C489.156,321.029 492.928,332.124 496.589,337.894 C500.584,344.218 501.027,350.986 498.143,358.863 C495.369,365.964 493.594,367.185 488.823,364.744 C484.274,362.525 482.166,362.636 479.614,365.41 C476.618,368.849 471.181,370.846 465.301,370.846 C462.527,370.846 460.308,371.068 460.308,371.401 C460.308,371.623 461.418,374.064 462.638,376.727 C465.634,382.94 464.968,385.714 459.088,390.707 C454.982,394.257 454.539,394.368 448.547,393.591 C443.776,393.037 441.446,392.038 438.34,389.264 C429.02,381.054 414.485,375.728 412.044,379.722 C411.6,380.388 413.376,383.939 415.817,387.822 C420.144,394.368 421.586,399.916 419.367,401.358 C417.259,402.578 412.599,399.25 406.829,392.26 C399.729,383.606 397.51,382.163 395.069,384.493 C392.85,386.823 394.514,390.818 401.393,400.137 C414.485,417.557 415.595,420.774 411.378,427.986 C410.047,430.094 409.381,432.646 409.714,433.645 C410.047,434.643 409.936,434.976 409.159,434.643 C407.384,433.534 404.832,436.308 404.832,439.303 C404.832,440.857 403.723,445.628 402.391,449.844 C399.396,459.053 397.288,461.05 383.973,466.708 C373.988,471.036 372.324,471.257 365.445,469.149 z M464.857,325.245 C466.632,321.806 464.635,315.814 459.975,310.378 C456.425,306.272 455.759,306.051 450.877,306.272 C444.553,306.494 443,307.604 444.553,310.489 C446.106,313.373 460.974,327.575 462.416,327.575 C463.082,327.575 464.08,326.466 464.857,325.245 z M49.233,209.966 C62.436,203.864 65.431,200.868 53.449,205.861 C49.898,207.415 43.685,209.634 39.58,210.965 C33.366,213.073 32.368,213.739 33.477,214.959 C34.254,215.847 35.142,216.402 35.475,216.291 C35.918,216.18 42.021,213.295 49.233,209.966 z" fill="#000000"/>
  </g>
</svg>
