<?xml version="1.0" encoding="UTF-8"?>
<!DOCTYPE svg PUBLIC "-//W3C//DTD SVG 1.1//EN" "http://www.w3.org/Graphics/SVG/1.1/DTD/svg11.dtd">
<svg version="1.1" xmlns="http://www.w3.org/2000/svg" xmlns:xlink="http://www.w3.org/1999/xlink" x="0" y="0" width="500" height="500" viewBox="0, 0, 500, 500">
  <g id="Layer_1">
    <path d="M215.656,327.399 C215.406,327.399 215.206,327.399 214.956,327.399 C214.706,327.399 214.706,327.399 214.506,327.549 C214.356,327.649 214.206,327.799 213.906,327.949 C211.456,329.299 210.606,333.949 211.406,340.949 C212.856,342.199 214.656,343.549 216.706,344.949 C216.756,340.399 217.356,333.749 217.356,333.749 L217.506,327.599 C216.856,327.349 216.306,327.399 215.656,327.399 z" fill="#000000"/>
    <g>
      <path d="M273.156,346.049 L273.056,342.649 C272.756,339.399 271.906,337.249 270.356,336.449 C270.056,336.299 269.906,336.149 269.756,336.049 C269.506,335.899 269.506,335.899 269.306,335.899 C269.056,335.899 268.856,335.899 268.606,335.899 C267.906,335.899 267.356,335.799 266.756,336.149 L266.906,346.199 C267.056,347.499 267.056,348.899 267.006,350.249 L267.056,354.249 C268.906,353.349 270.806,352.399 272.606,351.349 C272.906,349.449 273.106,347.649 273.156,346.049 z" fill="#000000"/>
      <path d="M265.456,350.199 L265.356,346.449 C265.056,343.399 264.106,341.199 262.656,340.449 C262.356,340.299 262.206,340.149 262.056,340.049 C261.806,339.899 261.806,339.899 261.606,339.899 C261.406,339.899 261.156,339.899 260.906,339.899 C260.206,339.899 259.656,339.799 259.056,340.149 L259.356,357.649 C261.156,356.999 263.006,356.199 264.956,355.299 C265.256,353.449 265.406,351.749 265.456,350.199 z" fill="#000000"/>
      <g>
        <path d="M255.406,340.999 C255.106,340.849 254.956,340.699 254.806,340.599 C254.556,340.449 254.556,340.449 254.356,340.449 C254.106,340.449 253.906,340.449 253.656,340.449 C252.956,340.449 251.306,340.149 250.706,340.449 L250.706,359.999 C252.256,359.749 255.206,358.249 257.406,357.449 C257.506,356.799 257.606,356.199 257.706,355.599 L257.506,343.949 C257.006,342.499 256.306,341.449 255.406,340.999 z" fill="#000000"/>
        <path d="M345.205,291.55 C343.205,284.35 342.155,280.8 340.605,276.95 C335.755,265.1 336.205,249.45 339.055,239.3 C342.905,225.45 342.905,202.4 339.055,182.451 C330.355,151.501 271.406,134.051 249.906,134.801 C228.406,134.051 169.457,151.501 160.757,182.451 C156.907,202.45 156.907,225.5 160.757,239.3 C163.607,249.45 164.057,265.1 159.207,276.95 C157.657,280.8 156.607,284.35 154.607,291.55 C152.057,300.6 152.057,302.449 153.057,303.849 C153.607,304.599 168.407,308.449 172.257,307.699 C176.107,306.949 188.857,304.299 194.556,305.399 C203.106,306.999 209.056,311.099 209.906,319.249 C210.656,326.949 207.606,329.599 207.606,336.149 C207.606,336.999 208.406,338.199 209.756,339.549 C209.256,333.899 209.806,328.399 213.206,326.549 C213.456,326.449 213.606,326.299 213.756,326.249 C214.206,325.949 214.456,325.799 215.156,325.799 C215.406,325.799 215.556,325.799 215.756,325.799 C216.656,325.699 217.656,325.699 218.806,326.499 L219.106,326.749 L219.006,331.299 C219.306,330.999 219.706,330.749 220.106,330.549 C220.356,330.449 220.506,330.299 220.656,330.249 C221.106,329.949 221.356,329.799 222.056,329.799 C222.306,329.799 222.456,329.799 222.656,329.799 C223.556,329.699 224.556,329.699 225.706,330.499 L226.006,330.749 L225.856,336.949 C226.306,336.199 226.956,335.549 227.706,335.199 C227.956,335.099 228.106,334.949 228.256,334.899 C228.706,334.599 228.956,334.449 229.656,334.449 C229.906,334.449 230.056,334.449 230.256,334.449 C231.156,334.349 232.156,334.349 233.306,335.149 L233.606,335.399 L233.506,340.849 C233.956,340.099 234.606,339.449 235.356,339.099 C235.606,338.999 235.756,338.849 235.906,338.799 C236.356,338.499 236.606,338.349 237.306,338.349 C237.556,338.349 237.706,338.349 237.906,338.349 C238.806,338.249 239.806,338.249 240.956,339.049 L241.356,339.199 L241.306,341.499 C241.856,340.449 242.556,339.649 243.456,339.149 C245.956,337.799 247.806,338.449 249.956,339.899 L249.956,339.899 L250.356,339.749 C251.506,338.999 252.506,338.999 253.406,339.049 C253.656,339.049 253.806,339.049 254.006,339.049 C254.706,339.049 254.906,339.199 255.406,339.499 C255.556,339.599 255.706,339.749 255.956,339.799 C256.456,340.049 256.906,340.449 257.306,340.899 L257.256,339.349 L257.656,339.199 C258.806,338.449 259.806,338.449 260.706,338.499 C260.956,338.499 261.106,338.499 261.306,338.499 C262.006,338.499 262.206,338.649 262.706,338.949 C262.856,339.049 263.006,339.199 263.256,339.249 C264.006,339.649 264.656,340.249 265.106,340.999 L265.006,335.549 L265.306,335.299 C266.456,334.549 267.456,334.549 268.356,334.599 C268.606,334.599 268.756,334.599 268.956,334.599 C269.656,334.599 269.856,334.749 270.356,335.049 C270.506,335.149 270.656,335.299 270.906,335.349 C271.656,335.749 272.306,336.349 272.756,337.099 L272.606,330.899 L272.906,330.649 C274.056,329.899 275.056,329.899 275.956,329.949 C276.206,329.949 276.356,329.949 276.556,329.949 C277.256,329.949 277.456,330.099 277.956,330.399 C278.106,330.499 278.256,330.649 278.506,330.699 C278.906,330.949 279.256,331.149 279.606,331.449 L279.506,326.899 L279.806,326.649 C280.956,325.899 281.956,325.899 282.856,325.949 C283.106,325.949 283.256,325.949 283.456,325.949 C284.156,325.949 284.356,326.099 284.856,326.399 C285.006,326.499 285.156,326.649 285.406,326.699 C288.956,328.649 289.406,334.649 288.756,340.599 C290.756,338.799 291.956,337.249 291.956,336.199 C291.956,329.649 288.906,326.999 289.656,319.299 C290.506,311.149 296.506,307.099 305.005,305.449 C310.705,304.349 323.455,306.999 327.305,307.749 C331.155,308.499 345.955,304.699 346.505,303.899 C347.705,302.449 347.705,300.6 345.205,291.55 z M236.206,277.85 C235.656,279.6 234.056,280.85 232.206,280.9 C228.806,281.05 223.506,281.2 220.606,281.05 C217.756,282.45 214.156,283.9 214.556,286.1 C215.306,289.95 185.107,282.35 182.257,269.2 C179.957,258.45 182.257,250 182.257,250 C182.257,250 195.306,260 204.556,261.55 C213.806,263.1 222.206,274.6 223.756,277.7 C224.006,278.1 223.906,278.45 223.756,278.85 C227.056,279.7 234.956,280.4 239.906,266.15 C241.756,260.95 238.056,272.25 236.206,277.85 z M249.906,302.299 C246.856,301.549 239.556,324.049 240.706,316.149 C243.006,300.799 242.256,288.5 249.906,280.05 C257.606,288.5 256.806,300.799 259.106,316.149 C260.256,324.049 252.956,301.5 249.906,302.299 z M316.955,269.25 C314.105,282.4 283.906,290 284.656,286.15 C285.106,283.9 281.506,282.45 278.606,281.1 C275.606,281.2 270.306,281 267.006,280.95 C265.156,280.85 263.556,279.65 263.006,277.9 C261.156,272.3 257.556,261 259.306,266.2 C264.206,280.4 272.156,279.75 275.456,278.9 C275.206,278.5 275.206,278.15 275.456,277.75 C277.006,274.7 285.456,263.15 294.656,261.6 C303.855,260.05 316.955,250.05 316.955,250.05 C316.955,250.05 319.305,258.5 316.955,269.25 z" fill="#000000"/>
      </g>
      <path d="M279.906,334.149 C279.456,333.049 278.806,332.299 278.056,331.849 C277.756,331.699 277.606,331.549 277.456,331.449 C277.206,331.299 277.206,331.299 277.006,331.299 C276.756,331.299 276.556,331.299 276.306,331.299 C275.606,331.299 275.056,331.199 274.456,331.549 L274.706,342.549 C274.806,343.699 274.856,344.949 274.806,346.249 L274.806,349.999 C275.006,349.949 275.206,349.949 275.406,349.899 C277.056,348.949 278.656,347.999 280.156,346.999 L279.906,334.149 z" fill="#000000"/>
      <path d="M287.406,341.849 C288.356,334.399 287.556,329.449 285.006,328.099 C284.706,327.949 284.556,327.799 284.406,327.699 C284.156,327.549 284.156,327.549 283.956,327.549 C283.706,327.549 283.506,327.549 283.256,327.549 C282.556,327.549 282.006,327.449 281.406,327.799 L281.556,333.949 L282.156,345.699 C284.106,344.349 285.856,343.049 287.406,341.849 z" fill="#000000"/>
    </g>
    <path d="M230.256,335.799 C230.006,335.799 229.806,335.799 229.556,335.799 C229.306,335.799 229.306,335.799 229.106,335.949 C228.956,336.049 228.806,336.199 228.506,336.349 C226.956,337.199 226.106,339.349 225.806,342.549 L225.706,345.949 C225.756,347.449 225.906,349.049 226.156,350.849 C228.006,351.899 229.906,352.899 231.806,353.799 L231.856,350.149 C231.756,348.749 231.756,347.399 231.956,346.099 L232.106,336.049 C231.456,335.699 230.906,335.799 230.256,335.799 z" fill="#000000"/>
    <path d="M222.556,331.199 C222.306,331.199 222.106,331.199 221.856,331.199 C221.606,331.199 221.606,331.199 221.406,331.349 C221.256,331.449 221.106,331.599 220.806,331.749 C220.056,332.199 219.406,332.999 218.956,334.049 L218.756,346.399 C220.456,347.499 222.256,348.599 224.106,349.699 L224.106,346.149 C224.006,344.849 224.106,343.599 224.206,342.449 L224.456,331.449 C223.806,331.099 223.256,331.199 222.556,331.199 z" fill="#000000"/>
    <path d="M237.906,339.799 C237.656,339.799 237.456,339.799 237.206,339.799 C236.956,339.799 236.956,339.799 236.756,339.949 C236.606,340.049 236.456,340.199 236.156,340.349 C234.706,341.099 233.756,343.249 233.456,346.349 L233.356,350.099 C233.406,351.549 233.556,353.099 233.806,354.799 C235.756,355.699 237.656,356.549 239.456,357.249 L239.756,339.999 C239.156,339.699 238.606,339.799 237.906,339.799 z" fill="#000000"/>
    <path d="M245.606,339.699 C244.906,339.799 244.906,339.949 244.056,340.399 C239.356,342.999 241.006,353.999 241.756,358.149 C244.656,359.149 246.456,359.849 248.506,359.999 L248.906,340.249 C247.756,339.449 246.706,339.699 245.606,339.699 z" fill="#000000"/>
    <path d="M161.157,166.651 C161.157,166.651 81.258,54.452 145.007,37.552 C1.308,46.752 -55.591,300.35 67.358,462.498 C41.208,372.599 82.708,395.649 95.807,407.149 C95.807,407.149 80.458,308.799 129.607,347.199 C129.607,347.199 135.007,278.8 154.207,274.95 C169.607,251.2 139.607,202.75 161.157,166.651 z" fill="#000000"/>
    <path d="M355.005,37.552 C418.804,54.452 338.855,166.651 338.855,166.651 C360.355,202.75 330.405,251.2 345.755,275 C364.955,278.85 370.355,347.249 370.355,347.249 C419.554,308.849 404.155,407.199 404.155,407.199 C417.204,395.649 458.704,372.599 432.604,462.548 C555.603,300.35 498.704,46.752 355.005,37.552 z" fill="#000000"/>
  </g>
</svg>
