<?xml version="1.0" encoding="UTF-8"?>
<!DOCTYPE svg PUBLIC "-//W3C//DTD SVG 1.1//EN" "http://www.w3.org/Graphics/SVG/1.1/DTD/svg11.dtd">
<svg version="1.1" xmlns="http://www.w3.org/2000/svg" xmlns:xlink="http://www.w3.org/1999/xlink" x="0" y="0" width="500" height="500" viewBox="0, 0, 500, 500">
  <g id="Layer_1">
    <path d="M220.827,352.91 C209.324,370.469 197.877,388.084 186.208,405.922 C176.484,400.254 166.87,394.641 157.035,388.973 C157.868,387.918 158.48,387.14 159.146,386.417 C174.483,368.969 189.82,351.465 205.212,334.072 C206.601,332.516 206.99,331.183 206.49,329.127 C204.823,322.57 203.434,316.013 201.823,309.011 C189.82,314.068 178.151,319.013 166.037,324.126 C167.371,327.793 168.704,331.294 169.927,334.85 C170.816,337.295 172.649,340.018 172.094,342.074 C171.538,344.13 168.537,345.575 166.537,347.186 C163.703,349.576 160.814,351.854 157.924,354.188 C157.813,354.299 157.591,354.299 157.035,354.41 C157.035,353.354 156.868,352.41 157.09,351.465 C157.98,347.464 156.424,344.408 153.756,341.463 C151.145,338.629 148.922,335.461 146.199,332.072 C142.81,339.073 139.587,345.575 136.586,352.187 C136.253,352.91 136.753,354.132 137.142,354.966 C141.809,364.301 146.588,373.637 151.311,382.972 C151.756,383.861 152.145,384.75 152.145,386.028 C137.142,377.304 122.194,368.58 107.024,359.8 C107.413,358.467 107.746,357.244 108.135,356.022 C110.914,347.297 113.747,338.573 116.415,329.793 C117.026,327.793 118.082,326.571 120.027,325.626 C145.532,313.568 171.038,301.398 196.544,289.34 C198.211,288.562 198.933,287.729 198.6,285.839 C195.21,265.39 191.987,244.941 188.542,224.492 C188.097,221.936 187.208,219.491 186.319,217.046 C185.986,216.046 185.263,215.157 184.374,213.601 C183.596,215.935 182.93,217.491 182.485,219.158 C177.262,238.384 172.038,257.555 166.982,276.782 C166.315,279.227 165.259,280.394 162.814,281.06 C150.089,284.617 137.419,288.451 124.694,292.118 C123.805,292.396 122.972,292.563 121.638,292.952 C138.031,255.777 148.922,217.213 159.424,178.371 C158.702,178.038 158.313,177.871 157.868,177.704 C154.812,176.704 151.756,175.648 148.366,174.537 C148.033,175.593 147.755,176.537 147.477,177.426 C134.641,220.38 116.693,261.112 93.521,299.509 C92.854,300.62 91.52,301.732 90.242,302.121 C74.572,306.844 58.791,311.4 43.065,315.957 C42.398,316.179 41.676,316.29 40.676,316.457 C40.954,315.846 41.009,315.513 41.231,315.235 C56.401,294.841 67.793,272.281 78.517,249.387 C91.854,220.769 103.467,191.429 114.081,161.701 C114.303,161.034 114.525,160.311 114.803,159.367 C113.359,158.644 111.969,157.977 110.58,157.311 C109.191,156.644 107.746,155.977 106.079,155.199 C105.523,156.422 105.079,157.477 104.579,158.589 C90.02,192.152 74.294,225.159 55.068,256.388 C48.233,267.502 40.898,278.338 31.952,287.951 C28.84,291.34 25.339,294.341 21.783,297.731 C14.503,289.951 7.502,282.45 -0,274.392 C0.667,274.114 1.167,274.003 1.5,273.725 C39.675,243.552 66.904,205.21 85.852,160.756 C97.355,133.805 105.468,105.855 109.302,76.793 C109.524,75.07 110.136,74.237 111.858,73.848 C137.586,68.124 163.37,62.401 189.098,56.622 C189.709,56.51 190.376,56.455 191.098,56.399 C191.543,60.734 192.098,64.957 192.376,69.18 C192.432,69.958 191.543,70.903 190.931,71.625 C186.597,76.682 181.707,81.349 177.984,86.795 C172.427,95.019 169.927,104.299 171.927,114.301 C174.928,128.971 187.597,139.64 201.878,139.14 C213.547,138.751 221.994,132.805 227.106,122.358 C229.607,117.191 227.884,112.078 222.549,109.911 C218.66,108.355 214.381,107.3 210.213,107.133 C201.878,106.799 193.543,107.188 185.208,107.244 C183.652,107.244 182.096,107.244 180.373,107.244 C180.373,104.077 181.485,101.687 183.485,100.076 C187.097,97.242 190.765,94.297 194.821,92.185 C209.713,84.628 225.772,80.46 241.998,77.015 C247.666,75.793 253.445,74.681 259.224,74.181 C273.227,73.014 283.23,79.571 287.23,93.019 C289.175,99.409 289.842,106.244 290.62,112.912 C291.176,117.857 290.898,122.914 290.954,127.915 C291.065,135.25 296.51,139.862 303.845,138.695 C318.793,136.362 330.518,120.58 328.851,105.188 C327.573,93.352 322.016,83.683 313.514,75.793 C309.235,71.847 306.846,68.069 308.513,62.234 C309.013,60.4 308.902,58.4 309.124,56.288 C310.124,56.455 310.902,56.51 311.736,56.733 C337.186,62.401 362.581,68.124 387.975,73.681 C389.92,74.126 390.809,74.792 391.142,76.959 C399.311,132.639 419.538,183.316 453.823,228.16 C466.659,244.941 481.44,259.833 497.944,273.003 C498.555,273.503 499.166,274.059 500,274.781 C492.943,282.338 485.997,289.785 478.884,297.453 C477.995,296.842 477.106,296.342 476.439,295.675 C470.716,289.507 464.548,283.672 459.435,277.06 C445.821,259.389 434.819,240.051 424.928,220.158 C414.759,199.709 405.312,178.871 395.588,158.2 C395.199,157.366 394.81,156.533 394.31,155.366 C391.42,156.699 388.642,158.033 385.697,159.422 C385.808,160.089 385.864,160.645 386.03,161.145 C400.978,202.71 417.259,243.774 438.542,282.616 C444.599,293.73 451.934,304.121 458.657,314.846 C458.991,315.346 459.324,315.901 459.88,316.846 C458.491,316.513 457.491,316.29 456.546,316.013 C441.265,311.567 425.984,307.066 410.702,302.676 C408.758,302.121 407.535,301.12 406.535,299.398 C383.585,261 365.637,220.38 352.912,177.482 C352.689,176.704 352.412,175.926 352.023,174.815 C348.411,176.037 344.854,177.204 340.909,178.538 C351.411,217.435 362.303,255.944 378.695,293.063 C377.695,292.841 376.917,292.785 376.195,292.563 C363.025,288.729 349.911,284.839 336.741,281.06 C334.852,280.505 334.074,279.56 333.63,277.782 C328.517,258.444 323.294,239.162 318.071,219.88 C317.571,218.102 316.904,216.379 315.57,214.434 C314.903,215.824 313.903,217.157 313.57,218.658 C311.569,227.493 309.402,236.328 307.902,245.219 C305.623,258.611 303.956,272.17 301.9,285.617 C301.567,287.84 302.178,288.84 304.179,289.785 C329.629,301.787 355.023,313.901 380.473,325.904 C382.307,326.793 383.363,327.849 383.974,329.793 C386.864,339.184 389.864,348.52 392.921,357.855 C393.365,359.3 393.31,360.134 391.865,361.023 C377.584,369.247 363.359,377.582 349.133,385.806 C348.855,385.973 348.522,386.084 347.633,386.417 C348.522,384.639 349.133,383.361 349.8,382.083 C354.357,373.081 358.913,364.079 363.414,355.077 C363.803,354.243 364.192,353.021 363.859,352.298 C360.858,345.741 357.691,339.296 354.301,332.238 C351.745,335.406 349.689,338.462 347.188,341.074 C343.965,344.408 342.521,348.02 343.41,352.576 C343.521,353.188 343.41,353.799 343.41,355.077 C338.186,350.798 333.407,346.964 328.74,342.963 C328.24,342.574 328.351,341.074 328.629,340.296 C330.462,335.072 332.407,329.905 334.519,324.292 C322.627,319.236 310.847,314.29 298.733,309.178 C297.455,314.735 296.566,320.18 294.843,325.292 C293.176,330.238 294.51,333.517 297.9,337.295 C312.569,353.521 326.85,370.025 341.298,386.473 C341.965,387.251 342.576,388.029 343.521,389.14 C333.796,394.808 324.239,400.365 314.292,406.144 C302.734,388.473 291.231,370.858 279.729,353.243 C279.562,353.299 279.395,353.354 279.229,353.41 C279.34,354.132 279.451,354.855 279.618,355.577 C284.508,375.248 289.398,394.919 294.454,414.535 C295.066,416.813 294.454,417.757 292.565,418.869 C279.062,426.593 265.615,434.428 252.223,442.318 C250.889,443.096 249.944,443.208 248.5,442.374 C234.941,434.372 221.327,426.482 207.657,418.647 C205.768,417.591 205.657,416.535 206.101,414.646 C211.102,394.808 216.104,374.97 221.049,355.132 C221.216,354.521 221.327,353.91 221.438,353.299 C221.216,353.021 220.994,352.965 220.827,352.91 z M234.997,90.296 C236.83,91.018 237.886,91.629 238.942,91.741 C244.61,92.407 250.222,91.741 255.501,89.573 C256.39,89.184 257.002,88.129 257.724,87.406 C256.835,86.906 255.946,86.073 255.001,85.906 C249.333,85.072 243.776,85.795 238.442,87.906 C237.386,88.295 236.553,89.184 234.997,90.296 z" fill="#000000"/>
  </g>
</svg>
