<?xml version="1.0" encoding="UTF-8"?>
<!DOCTYPE svg PUBLIC "-//W3C//DTD SVG 1.1//EN" "http://www.w3.org/Graphics/SVG/1.1/DTD/svg11.dtd">
<svg version="1.1" xmlns="http://www.w3.org/2000/svg" xmlns:xlink="http://www.w3.org/1999/xlink" x="0" y="0" width="500" height="500" viewBox="0, 0, 500, 500">
  <g id="layer101">
    <path d="M334.13,499.876 C333.924,499.67 331.66,499.395 328.984,499.19 C326.377,498.984 320.339,498.503 315.536,498.092 C310.802,497.749 304.078,496.788 300.51,496.033 C296.943,495.21 293.1,494.593 291.934,494.593 C290.836,494.593 288.503,493.975 286.857,493.22 L283.838,491.848 L278.966,494.181 C274.301,496.514 273.82,496.582 266.753,496.514 C262.362,496.445 258.657,496.788 257.422,497.268 C255.776,497.955 255.021,497.955 253.717,497.2 C252.894,496.72 250.287,496.308 248.022,496.239 C239.377,496.033 233.683,494.798 227.851,491.848 C221.333,488.555 219.411,486.222 219.686,481.899 L219.892,479.155 L217.01,479.361 C215.363,479.498 213.099,479.292 211.864,478.881 C210.629,478.538 208.296,477.851 206.65,477.44 C204.111,476.822 203.494,476.273 202.19,473.598 C200.955,470.99 200.886,470.304 201.641,469.069 C203.631,465.913 204.523,461.796 204.523,456.307 C204.454,451.024 204.591,450.475 206.238,449.103 C207.199,448.28 209.531,446.084 211.453,444.232 C213.305,442.448 215.912,440.664 217.147,440.321 C219.617,439.635 220.921,437.439 220.921,434.009 C220.921,429.48 224.146,427.147 231.213,426.393 C233.683,426.187 237.319,425.432 239.377,424.815 C242.465,423.854 243.357,423.786 245.209,424.609 C248.503,425.981 251.659,426.256 252.894,425.226 C253.511,424.746 254.884,422.619 255.913,420.424 C258.04,416.238 261.127,413.425 266.753,410.612 C270.596,408.691 271.213,407.319 268.812,406.015 C264.695,403.82 255.981,396.547 246.307,387.284 C240.475,381.658 233.683,375.757 231.213,374.111 C228.743,372.533 225.038,369.445 222.911,367.25 C219.549,363.682 210.08,349.891 203.151,338.57 C201.916,336.512 199.857,334.042 198.622,333.081 C197.387,332.12 196.221,330.474 196.015,329.307 C195.192,325.465 185.998,313.115 184.351,313.664 C183.871,313.801 181.538,319.565 179.068,326.494 C174.745,338.844 174.54,339.187 171.726,341.109 C170.08,342.138 168.776,343.51 168.776,343.99 C168.776,344.539 168.227,346.049 167.61,347.352 C166.581,349.616 166.581,349.891 167.61,351.057 C168.913,352.498 169.119,354.145 168.09,355.997 C167.61,356.889 167.747,357.987 168.433,359.702 C168.982,361.006 169.462,362.996 169.462,364.025 C169.462,365.054 171.178,369.377 173.305,373.63 C178.176,383.716 178.999,388.039 179.617,407.456 C180.372,429.961 179.411,443.408 176.529,451.162 C175.98,452.74 175.637,454.523 175.843,455.072 C176.049,455.621 175.569,456.582 174.814,457.337 C172.824,459.12 171.726,461.522 171.178,465.433 C170.903,467.354 170.423,469.549 170.08,470.373 C169.325,472.431 164.385,475.176 155.877,478.126 C151.829,479.567 146.203,481.694 143.39,482.86 C140.371,484.164 135.98,485.33 132.755,485.81 C123.081,487.045 91.725,485.261 88.501,483.272 C88.089,483.066 87.815,482.311 87.815,481.556 C87.815,480.87 86.717,479.018 85.413,477.44 C82.463,473.941 82.394,472.225 85.001,468.795 C89.05,463.443 89.667,462.62 91.451,459.464 C92.48,457.68 93.303,455.896 93.303,455.484 C93.303,455.072 92.206,454.112 90.833,453.288 L88.295,451.779 L88.775,445.261 C89.05,441.625 89.873,435.724 90.628,432.156 C91.382,428.588 92.274,424.129 92.617,422.207 C93.166,419.189 95.225,409.034 99.067,390.989 L100.165,385.912 L98.381,383.305 C96.734,381.041 96.597,380.286 97.008,377.13 C97.283,375.14 97.9,372.258 98.381,370.749 C98.93,369.239 99.616,366.769 100.027,365.26 C100.439,363.75 101.194,361.212 101.811,359.634 C102.429,357.987 103.046,354.625 103.184,352.086 C103.389,349.479 104.007,345.911 104.556,343.99 C105.173,342.138 105.654,339.736 105.654,338.707 C105.654,336.649 108.672,332.669 110.182,332.669 C111.417,332.669 112.103,330.954 113.612,324.093 C114.916,318.33 116.769,315.517 119.239,315.517 C119.993,315.517 121.023,315.036 121.503,314.419 C122.326,313.458 122.12,313.046 120.062,311.263 C118.758,310.165 116.151,308.518 114.23,307.695 C111.417,306.391 98.312,295.276 96.665,292.737 C95.293,290.611 96.528,265.018 98.518,254.933 C99.89,247.866 99.547,246.699 94.538,240.936 C92.892,239.015 90.079,235.447 88.158,232.908 C85.139,228.929 84.041,228.037 79.169,225.704 C74.504,223.508 72.926,222.273 68.878,217.676 C66.271,214.726 63.32,211.433 62.428,210.472 C61.468,209.443 59.341,206.218 57.625,203.268 C54.744,198.259 54.538,197.505 54.538,193.045 C54.607,188.448 54.744,187.968 59.204,179.94 C61.742,175.343 63.801,171.158 63.801,170.609 C63.801,169.099 62.771,168.413 57.282,166.355 C48.088,162.787 45.618,161.689 42.325,159.631 C37.728,156.681 37.454,155.995 39.375,150.437 C43.011,139.871 51.999,119.836 57.625,109.956 C62.017,102.203 63.32,100.419 69.632,92.666 C71.897,89.922 74.298,86.766 74.916,85.736 C76.356,83.541 86.374,74.964 90.216,72.632 C91.725,71.74 95.087,70.23 97.695,69.27 C100.302,68.309 102.635,67.006 102.909,66.457 C105.31,61.311 105.516,61.105 112.789,55.959 C114.436,54.793 114.573,54.381 114.573,49.304 C114.573,39.218 119.239,31.602 128.09,27.211 C132,25.29 133.441,25.015 139.822,24.672 C145.929,24.329 147.644,23.986 149.771,22.682 C152.515,20.899 153.682,19.32 153.682,17.125 C153.682,15.478 156.701,11.842 159.102,10.607 C162.258,9.029 166.512,8.754 176.186,9.578 C181.332,10.058 187.507,10.47 189.84,10.47 C194.025,10.538 194.231,10.47 196.701,7.725 C198.142,6.147 200.681,4.157 202.327,3.265 C203.974,2.373 205.964,1.207 206.787,0.727 C207.816,0.109 211.796,-0.097 221.95,0.041 L235.672,0.246 L238.897,2.236 C240.612,3.403 242.534,5.187 243.22,6.216 C245.415,9.989 246.444,10.264 264.558,11.499 C283.701,12.802 283.357,12.665 283.357,18.566 C283.357,22.477 285.279,24.809 289.601,26.113 C291.042,26.525 292.757,27.622 293.306,28.514 C294.267,29.955 294.816,30.092 300.442,30.092 C305.107,30.092 307.371,30.436 309.841,31.465 C314.644,33.592 319.584,37.434 321.094,40.384 C323.221,44.57 325.21,52.666 325.21,57.194 C325.21,59.801 325.622,61.928 326.24,62.82 C326.857,63.644 329.739,65.633 332.758,67.143 C335.708,68.721 338.315,70.436 338.521,71.054 C339.482,73.455 333.924,80.179 324.113,88.481 C322.535,89.853 321.917,91.088 321.574,93.421 C321.162,96.303 321.505,97.332 325.073,104.673 C328.915,112.701 329.053,112.769 332.758,114.553 C338.453,117.298 339.619,121.209 336.531,127.246 C335.571,129.099 334.816,131.5 334.816,132.53 C334.816,135.823 338.178,149.545 339.55,151.809 C340.236,152.976 340.991,154.965 341.266,156.269 C341.471,157.504 342.569,159.631 343.736,160.935 C346.686,164.228 346.617,168.345 343.667,171.775 C341.883,173.834 341.403,175 340.923,179.46 C340.511,182.959 339.688,186.047 338.453,188.517 C336.806,191.81 336.188,192.427 334.199,192.839 C332.415,193.114 330.699,194.486 327.543,197.985 C325.21,200.524 321.849,203.748 320.065,205.052 L316.84,207.453 L317.114,213.217 C317.457,219.941 317.457,219.941 325.142,222.548 C335.982,226.253 337.972,228.105 337.835,234.486 C337.698,240.661 334.747,244.915 331.317,243.817 C328.572,242.925 319.241,244.16 317.732,245.601 C315.948,247.248 315.879,248.62 317.526,249.306 C322.26,251.365 338.384,256.579 340.648,256.785 C342.158,256.922 345.588,258.089 348.195,259.461 C350.871,260.764 354.713,262.548 356.772,263.372 C358.83,264.195 361.918,265.636 363.633,266.596 C371.455,270.919 377.904,272.497 381.815,270.988 C382.638,270.645 384.354,270.919 386.275,271.674 C392.175,274.075 416.121,283.475 420.581,285.122 C423.256,286.082 427.648,287.043 431.558,287.386 C439.243,288.072 439.929,288.278 440.821,290.336 C441.233,291.228 442.605,292.189 444.251,292.737 C445.761,293.218 447.339,294.11 447.819,294.659 C448.231,295.207 450.221,296.305 452.279,297.06 C454.269,297.883 456.464,298.981 457.15,299.53 C458.934,301.245 461.747,307.626 461.747,310.165 C461.679,315.448 457.356,321.005 453.308,321.005 C452.21,321.005 450.152,321.348 448.78,321.76 C446.722,322.378 445.692,322.24 442.536,321.005 C438.9,319.565 433.136,317.438 420.718,312.841 C417.63,311.674 414.131,310.233 413.033,309.685 C408.368,307.283 397.253,303.715 391.764,302.823 C388.539,302.274 383.599,300.971 380.786,299.942 C375.366,297.883 375.571,298.089 372.484,290.885 C371.592,288.895 370.22,286.837 369.465,286.357 C368.71,285.876 363.633,284.161 358.144,282.583 C352.655,281.005 347.372,279.152 346.274,278.398 C345.245,277.643 343.118,276.751 341.471,276.408 C339.893,276.065 335.639,274.967 332.072,274.075 C319.447,270.713 316.222,270.988 314.301,275.585 C313.409,277.78 313.89,279.495 317.046,284.573 C317.8,285.808 318.967,288.415 319.722,290.199 C322.123,296.648 331.454,306.597 335.091,306.597 C336.051,306.597 340.168,310.371 347.303,317.643 C356.566,327.043 358.487,329.376 360.545,333.699 C363.633,340.285 365.485,347.009 366.72,356.34 C367.269,360.526 368.093,364.985 368.504,366.289 C370.288,371.778 375.434,380.629 379.071,384.334 L382.776,388.176 L378.59,392.224 L374.336,396.341 L375.846,400.732 C376.669,403.065 377.355,405.741 377.355,406.564 C377.355,407.387 378.11,408.965 379.071,410.063 C382.501,414.18 382.981,417.816 380.717,422.894 C379.139,426.393 379.208,428.177 380.992,436.479 C382.089,441.419 384.697,444.163 389.774,445.81 C391.97,446.565 393.753,447.594 394.165,448.417 C395.537,451.093 396.566,451.848 400.615,453.357 C404.251,454.661 404.937,455.278 407.544,459.258 C410.014,463.031 410.357,464.06 410.014,466.05 C409.74,467.491 409.946,469.549 410.632,471.402 C411.181,472.98 411.661,475.107 411.661,475.999 C411.661,476.891 412.484,478.743 413.514,480.047 L415.297,482.448 L413.582,483.958 C412.622,484.781 410.632,485.673 409.122,485.879 C407.613,486.153 405.829,486.977 405.143,487.731 C404.457,488.486 403.565,489.104 403.153,489.104 C402.742,489.104 400.82,490.75 398.831,492.809 C394.645,497.131 393.548,497.474 382.158,497.68 C371.18,497.955 347.098,499.121 339.276,499.807 C336.669,500.013 334.336,500.082 334.13,499.876 z" fill="#000000"/>
  </g>
</svg>
