<?xml version="1.0" encoding="UTF-8"?>
<!DOCTYPE svg PUBLIC "-//W3C//DTD SVG 1.1//EN" "http://www.w3.org/Graphics/SVG/1.1/DTD/svg11.dtd">
<svg version="1.1" xmlns="http://www.w3.org/2000/svg" xmlns:xlink="http://www.w3.org/1999/xlink" x="0" y="0" width="500" height="500" viewBox="0, 0, 500, 500">
  <g id="layer101">
    <path d="M256.261,496.638 C254.623,494.569 253.503,492.241 253.503,490.776 C253.503,487.241 251.951,482.241 250.399,480.948 C249.71,480.345 248.072,479.914 246.692,479.914 C244.365,479.914 244.278,479.655 241.951,469.483 C239.02,456.638 234.882,439.569 233.589,434.914 C232.727,431.81 226.175,416.897 222.727,409.828 C221.434,407.328 221.434,405.776 222.899,398.621 C223.675,395.086 217.985,377.069 214.71,372.586 C211.778,368.534 208.158,367.672 202.123,369.483 C199.882,370.172 195.399,370.69 192.123,370.69 C187.382,370.69 186.089,370.948 185.658,372.155 C184.968,373.879 188.244,380.259 196.003,392.155 C203.589,403.707 204.968,406.81 205.658,413.965 C206.261,419.31 206.089,420.172 203.934,424.31 C200.485,430.948 193.33,441.034 190.054,443.879 C186.434,447.069 173.072,453.534 168.934,454.052 C166.347,454.397 165.572,454.138 164.365,452.5 C162.641,449.914 162.554,445.086 164.365,439.569 C165.658,435.603 165.658,435.259 164.192,433.103 C161.089,428.707 160.399,427.155 160.399,423.965 C160.399,422.241 159.192,417.586 157.727,413.621 C156.347,409.655 154.71,404.914 154.278,403.103 C153.847,401.207 152.727,397.931 151.865,395.776 C143.158,374.224 139.968,363.621 141.003,360.259 C141.261,359.569 142.727,358.362 144.192,357.672 C146.434,356.724 147.21,355.603 148.158,352.414 C149.278,348.276 150.83,346.638 160.313,339.483 L164.882,336.034 L161.434,332.845 C158.675,330.431 157.641,328.707 156.692,324.914 C156.089,322.241 155.744,319.655 155.916,319.138 C156.089,318.534 157.985,318.103 160.485,318.103 C162.813,318.103 164.71,317.759 164.71,317.328 C164.71,316.897 162.985,313.19 160.916,309.224 C158.761,305.172 156.778,300.431 156.52,298.534 C155.399,291.552 155.227,291.293 151.52,289.655 C146.434,287.328 145.485,287.5 141.003,291.379 C136.606,295.172 132.296,296.034 131.434,293.362 C129.796,287.759 129.278,287.5 121.951,287.5 C114.623,287.5 113.589,287.069 105.916,280.862 L103.503,278.965 L96.003,280.862 C83.503,284.052 80.227,283.448 80.227,278.362 C80.227,274.569 79.968,274.483 75.658,276.293 C72.037,277.759 70.83,276.81 72.468,273.707 C73.072,272.586 73.33,271.034 72.985,270.259 C72.554,269.052 71.261,268.879 64.106,269.052 C55.227,269.31 53.503,268.534 57.382,266.034 C60.658,263.879 59.278,262.931 53.589,263.534 L48.503,264.052 L48.934,261.724 C49.365,259.483 49.278,259.397 46.089,259.655 C42.985,259.914 42.727,259.741 42.468,257.414 C42.037,253.879 45.744,250.345 51.606,248.621 C54.451,247.845 62.468,246.983 71.52,246.465 C79.882,246.121 89.192,245.172 92.296,244.397 C100.313,242.586 105.658,242.672 107.727,244.741 C110.054,247.069 114.192,249.138 116.52,249.138 C117.554,249.138 123.158,250.086 129.106,251.293 C138.847,253.276 139.968,253.362 142.296,252.155 C146.003,250.259 146.951,248.017 144.968,245.603 C142.899,242.845 141.089,233.707 141.692,229.224 C142.468,223.103 147.554,218.103 154.71,216.379 C161.261,214.741 162.382,213.276 158.072,211.724 C156.52,211.207 153.934,208.879 152.037,206.466 C147.382,200.431 147.21,200.086 148.416,198.621 C149.278,197.586 149.106,196.983 147.727,195.431 C146.692,194.397 144.451,190.603 142.727,187.069 C140.141,181.897 139.71,180.431 140.485,179.138 C141.865,176.897 140.744,175.172 133.934,169.569 C128.244,164.914 127.985,164.483 123.33,153.707 C119.71,145.259 117.641,141.638 114.537,138.362 C110.313,133.793 105.485,123.707 100.572,108.793 C98.675,103.103 97.21,100.517 93.416,96.293 C90.83,93.362 87.813,89.224 86.778,87.069 C84.278,82.155 76.778,59.397 76.778,56.638 C76.778,55.517 74.537,51.034 71.692,46.724 C68.503,41.638 65.658,35.948 64.02,30.862 C61.175,22.328 57.813,9.914 57.813,8.017 C57.813,5.517 59.796,7.155 63.244,12.586 C67.641,19.483 68.244,18.19 65.227,8.621 C62.641,0.603 62.554,0 64.106,0 C65.399,0 65.658,0.345 76.778,20.69 C85.83,37.241 90.227,44.655 111.261,78.879 C117.123,88.362 124.968,101.207 128.761,107.328 C132.554,113.534 138.072,122.328 141.089,126.897 C144.106,131.552 146.606,135.69 146.606,136.034 C146.606,136.466 147.382,137.5 148.33,138.362 C149.278,139.224 150.054,140.948 150.054,142.241 C150.054,143.534 151.003,145.862 152.21,147.5 C153.416,149.138 155.916,153.707 157.813,157.586 C159.71,161.552 162.554,166.983 164.192,169.655 C165.83,172.414 167.382,176.293 167.727,178.448 C168.072,180.603 170.227,185.862 172.554,190.172 C175.744,196.121 176.778,198.966 176.778,201.81 C176.778,203.879 177.727,207.759 178.761,210.345 C180.916,215.776 182.985,216.724 186.865,213.879 C189.192,212.155 189.537,212.155 198.675,213.362 C203.847,214.052 208.934,215.172 210.141,215.948 C212.813,217.759 214.02,220.948 212.985,223.707 C212.468,225.086 212.468,225.948 213.072,226.379 C214.106,226.983 213.934,227.241 216.52,222.586 C219.278,217.586 221.778,216.379 229.71,216.379 C237.382,216.379 240.227,217.328 241.606,220.259 C242.468,222.155 242.296,222.759 240.485,224.655 C238.416,226.81 238.416,226.897 240.141,228.103 C241.865,229.397 248.416,229.224 259.537,227.672 C264.451,226.983 271.175,228.362 275.141,230.862 C279.537,233.534 280.658,233.276 282.296,229.31 C283.934,225.259 284.02,222.414 282.727,219.569 C281.951,217.845 282.382,216.121 285.744,208.448 C290.485,197.5 290.83,194.052 287.21,190.431 C284.192,187.414 281.089,187.241 276.434,189.741 C272.296,191.983 271.089,190.776 273.072,186.293 C273.761,184.569 274.71,182.241 275.141,181.121 C277.037,176.293 287.813,166.293 299.623,158.362 C303.934,155.517 309.278,151.897 311.692,150.259 C314.02,148.707 316.261,146.897 316.692,146.121 C317.037,145.431 318.589,144.224 319.968,143.448 C321.434,142.759 326.52,138.103 331.261,133.103 C338.847,125.259 340.313,124.138 342.813,124.138 C345.141,124.138 347.21,122.931 353.244,117.845 C373.244,101.121 405.658,70.172 412.296,61.293 C424.278,45.517 425.227,44.483 426.52,46.121 C427.296,47.328 427.641,50.948 427.641,59.397 C427.554,74.397 426.865,77.759 423.244,81.638 C419.451,85.603 392.296,108.276 381.003,116.897 C371.261,124.397 362.727,131.983 363.33,132.586 C364.451,133.621 397.21,113.017 409.968,103.276 C420.485,95.172 436.347,80.862 446.692,70 C455.744,60.517 458.33,59.224 457.382,64.828 C457.123,66.379 456.52,71.207 456.003,75.431 C454.623,87.845 451.951,97.069 449.02,100 C442.296,106.724 422.382,120 398.158,133.707 C377.985,145.172 368.158,151.034 367.641,151.81 C364.71,156.638 415.399,133.707 433.934,121.81 C440.054,117.931 442.296,117.241 442.296,119.397 C442.296,121.724 436.951,137.414 434.451,142.328 C432.641,146.034 431.261,147.5 428.761,148.621 C414.71,155 409.796,157.155 402.727,160 C398.244,161.81 395.054,163.448 395.572,163.621 C396.865,164.052 412.813,158.879 415.399,157.155 C417.641,155.776 419.882,156.207 419.882,158.017 C419.882,160 409.968,174.31 404.71,179.914 L399.623,185.345 L383.244,188.793 C346.347,196.724 343.158,197.759 359.192,196.983 C364.882,196.724 372.037,196.121 375.141,195.603 C387.813,193.707 389.71,193.621 389.71,195.086 C389.71,197.069 381.261,206.81 376.865,209.914 L373.158,212.5 L353.503,212.931 C340.313,213.19 333.416,213.707 332.727,214.397 C331.52,215.603 332.641,215.948 341.003,217.241 C350.83,218.793 350.744,220.172 340.227,227.328 C336.606,229.828 333.675,232.155 333.675,232.5 C333.675,232.931 335.227,233.707 337.123,234.31 C342.813,236.207 341.778,238.017 332.037,242.759 C327.296,245.086 323.416,247.241 323.416,247.586 C323.33,247.931 324.796,249.655 326.606,251.293 C329.623,254.138 329.71,254.397 328.158,255.603 C327.296,256.207 324.365,257.069 321.692,257.328 C315.141,258.103 314.71,258.276 314.71,260.603 C314.71,263.19 313.503,264.224 309.02,265.431 C304.71,266.552 302.554,268.707 304.451,269.828 C306.261,271.034 326.52,277.845 345.227,283.707 C354.192,286.465 361.692,288.965 361.951,289.138 C363.158,290.431 360.485,292.759 354.192,295.69 C342.382,301.207 344.796,301.465 319.451,292.241 C302.641,286.121 301.778,285.862 301.778,286.983 C301.778,288.879 315.399,299.138 326.003,305.345 C334.02,310 332.123,312.069 319.02,312.759 C309.796,313.19 309.451,313.103 305.916,310.776 C302.037,308.19 283.33,292.328 280.916,289.483 C280.054,288.534 279.365,286.81 279.365,285.603 C279.365,282.759 276.434,277.241 274.02,275.69 C272.899,275 269.537,273.362 266.434,272.155 C261.778,270.259 260.658,270.086 259.71,271.034 C258.675,271.983 258.847,273.362 260.744,279.224 C262.468,284.741 263.675,286.81 266.003,288.965 C267.727,290.431 269.882,293.103 270.744,294.914 C271.692,296.638 274.192,299.569 276.434,301.465 C278.675,303.276 283.503,307.586 287.21,311.034 C295.572,319.052 297.727,323.362 297.382,332.241 C297.123,341.724 299.192,351.293 301.778,352.155 C302.554,352.414 304.365,354.224 305.744,356.121 C307.123,358.017 309.71,361.379 311.52,363.448 C315.141,367.845 315.399,368.965 313.158,370.948 C310.658,373.19 308.158,372.759 306.003,369.655 C301.692,363.707 294.623,356.465 292.813,356.293 C291.865,356.293 290.485,356.207 289.968,356.121 C289.365,356.034 288.33,354.914 287.554,353.534 C286.865,352.069 285.227,350.431 283.934,349.828 C282.641,349.224 280.141,346.81 278.503,344.569 C275.485,340.517 275.485,340.431 271.606,340.948 C267.899,341.465 267.554,341.293 264.968,338.448 C260.141,332.931 258.761,334.655 261.434,342.672 C263.589,349.31 263.158,350.776 258.589,352.241 C256.089,353.103 255.572,353.707 255.399,356.121 C255.227,357.759 254.192,360.086 252.985,361.293 L250.83,363.534 L252.641,372.328 C254.02,379.31 254.278,382.672 253.847,389.138 L253.244,397.241 L256.347,399.224 C258.503,400.69 261.003,404.052 265.054,411.293 C268.158,416.81 271.692,421.983 272.813,422.672 C274.02,423.448 276.175,426.638 277.641,429.741 C279.106,432.845 280.658,435.345 281.175,435.345 C281.606,435.345 281.951,436.207 281.951,437.328 C287.037,442.328 286.261,443.793 286.261,444.31 C286.261,444.828 287.813,450.172 289.623,456.121 C294.278,470.862 294.192,470 290.227,470.862 C284.365,472.155 283.416,473.534 284.106,480.69 L284.623,486.81 L280.399,490 C278.072,491.724 275.744,493.103 275.313,493.103 C274.882,493.103 273.589,493.793 272.468,494.569 C270.141,496.207 261.434,500 259.882,500 C259.365,500 257.727,498.448 256.261,496.638 z" fill="#000000"/>
  </g>
</svg>
