<?xml version="1.0" encoding="UTF-8"?>
<!DOCTYPE svg PUBLIC "-//W3C//DTD SVG 1.1//EN" "http://www.w3.org/Graphics/SVG/1.1/DTD/svg11.dtd">
<svg version="1.1" xmlns="http://www.w3.org/2000/svg" xmlns:xlink="http://www.w3.org/1999/xlink" x="0" y="0" width="500" height="500" viewBox="0, 0, 500, 500">
  <g id="layer101">
    <path d="M226.644,477.652 C224.629,475.553 222.671,471.616 222.235,468.936 C221.969,466.156 219.984,461.783 218.074,459.285 C215.211,455.537 214.734,453.557 215.654,449.522 C216.256,446.687 218.384,434.272 220.244,421.786 C222.357,407.799 225.263,394.591 227.664,387.095 C231.489,375.268 231.595,374.869 229.244,367.549 C227.889,363.484 226.409,356.109 225.833,351.252 C223.09,324.295 222.417,316.56 222.179,306.089 L221.92,294.614 L216.487,293.042 C210.086,291.357 205.545,285.314 206.844,280.381 C207.687,277.18 204.073,269.242 201.538,268.576 C200.739,268.365 198.044,269.937 195.51,271.979 C192.843,273.987 187.425,276.695 183.431,277.783 C177.691,279.551 174.518,281.853 168.791,287.903 C161.435,295.805 157.301,300.135 151.918,305.42 C150.226,306.971 147.202,310.88 144.956,313.997 C133.34,331.044 106.487,352.35 103.441,347.128 C102.557,345.611 103.315,343.815 107.154,338.98 C112.489,332.257 114.608,328.537 120.623,315.433 C126.26,303.229 124.715,300.969 112.7,304.366 C107.162,305.902 105.709,307.088 101.954,313.23 C97.378,320.865 89.069,332.937 80.737,344.004 C77.235,348.644 74.932,353.598 73.458,359.199 C71.844,365.332 70.131,368.589 67.423,371.297 C62.853,375.656 60.657,374.793 60.362,368.869 C60.018,358.798 60.053,358.664 57.274,361.64 C55.885,363.127 53.281,368.146 51.617,372.842 C48.024,382.161 45.63,383.67 44.437,377.368 C42.999,369.29 47.484,352.79 56.517,333.637 C61.122,323.727 65.284,314.414 65.705,312.813 C66.125,311.214 69.355,307.073 72.878,303.438 C79.146,296.96 83.743,290.328 88.241,280.818 C89.547,278.026 91.898,274.51 93.59,272.958 C95.282,271.407 97.899,267.961 99.472,265.238 C101.83,261.154 104.294,259.378 112.26,256.199 C121.166,252.697 145.484,238.85 149.275,235.286 C151.542,233.174 149.892,228.604 145.401,224 C142.924,221.494 141.717,219.039 142.173,217.304 C143.121,213.704 168.247,185.955 173.539,182.642 C178.459,179.659 179.26,177.161 177.111,172.318 C174.311,166.163 169.581,167.342 158.492,176.97 C153.116,181.688 147.677,186.101 146.23,186.719 C143.507,187.855 127,183.939 118.487,179.987 C114.164,177.994 113.54,177.117 113.982,173.811 C114.355,170.772 116.754,168.694 127.304,162.204 C134.448,157.811 140.421,153.536 140.596,152.869 C140.807,152.069 141.916,151.649 142.983,151.929 C144.049,152.21 145.228,151.522 145.509,150.456 C146.772,145.655 121.541,154.841 100.458,166.687 L86.919,174.246 L74.033,172.279 C66.889,171.255 57.843,169.872 54.004,169.289 C45.624,168.082 44.346,165.892 48.734,160.06 C51.078,157.112 76.456,146.824 96.094,141.013 C104.453,138.509 126.94,126.747 126.188,125.267 C125.761,124.726 122.111,125.049 118.082,126.269 C114.054,127.491 110.061,128.579 109.155,128.768 C103.119,130.031 89.757,134.213 88.844,134.971 C88.269,135.532 83.797,137.35 78.997,138.796 C74.162,140.375 67.677,142.803 64.715,144.305 C61.885,145.841 53.955,148.887 47.203,151.245 C40.62,153.505 27.903,159.568 19.045,164.508 C10.188,169.449 2.314,173.365 1.514,173.155 C-1.554,172.347 0.131,165.946 5.753,157.587 C8.953,153.012 12.646,146.569 14.022,143.509 C20.942,127.509 23.307,125.564 41.217,121.437 C59.563,117.284 75.004,112.793 80.725,110.02 C83.987,108.455 90.465,106.597 95.092,105.817 C99.716,105.038 103.576,103.916 103.787,103.115 C104.278,101.248 101.274,100.743 97.645,102.07 C95.934,102.617 87.68,104.723 79.328,106.659 C31.232,117.669 32.136,117.479 31.75,113.528 C31.449,110.882 37.253,98.58 42.054,91.716 C43.928,88.929 47.038,86.326 49.15,85.883 C52.939,85.027 52.939,85.027 50.94,81.792 C49.824,80.072 49.325,77.09 49.782,75.357 C51.081,70.422 58.492,57.972 60.886,56.463 C63.209,55.221 92.033,55.679 105.06,57.11 C113.473,58.184 128.233,57.364 133.237,55.687 C135.251,55.076 141.618,54.185 147.372,53.988 C176.99,52.515 206.502,40.607 217.121,25.721 C220.013,21.778 222.996,18.57 223.662,18.745 C224.498,18.823 226.372,24.164 227.999,30.438 C231.165,42.25 239.102,57.599 247.081,66.828 C252.688,73.153 253.321,73.462 258.731,71.321 C269.314,67.405 287.542,64.788 297.129,65.743 C312.927,67.476 324.556,70.965 329.616,75.577 C336.129,81.711 338.269,81.704 342.832,75.205 C345.113,71.956 349.555,66.994 352.806,63.857 C356.02,60.854 364.969,51.232 372.766,42.732 C399.148,13.46 397.66,14.78 400.749,16.59 C404.3,18.809 406.876,24.192 405.963,27.658 C405.577,29.126 402.853,35.681 399.864,42.166 C394.059,54.468 392.628,62.075 395.181,66.455 C396.164,68.14 399.322,69.684 404.523,71.053 C412.923,73.263 418.033,76.605 418.425,79.987 C418.825,82.801 411.14,95.75 408.108,97.519 C406.221,98.733 405.02,98.417 400.57,95.821 C395.791,92.85 395.257,92.711 392.254,94.915 C388.372,97.743 388.906,100.591 394.696,108.389 C399.532,114.937 399.341,116.741 392.259,126.855 C385.859,136.007 383.037,136.975 378.756,131.571 C372.201,123.428 370.958,126.524 374.061,143.453 C375.099,148.716 375.288,155.039 374.622,157.574 C373.814,160.64 374.334,164.627 375.983,169.196 C379.45,178.235 381.885,181.442 388.917,186.145 C393.928,189.318 394.945,190.869 396.075,196.869 C396.763,200.757 398.748,205.13 400.433,206.856 C403.311,209.468 404.145,209.545 412.694,207.946 C417.789,207.005 424.147,206.682 426.884,207.117 C434.191,208.613 448.269,208.754 454.039,207.42 C457.191,206.823 460.264,207.063 462.391,208.192 C464.153,209.084 468.174,211.14 471.297,212.818 C474.454,214.361 478.926,217.963 481.396,221.037 C483.767,223.942 487.34,227.164 489.2,228.223 C490.961,229.115 492.905,231.48 493.284,233.291 C493.698,234.969 495.417,239.271 497.08,242.703 C498.913,246.037 500.106,249.63 499.993,250.598 C497.522,263.779 492.139,282.609 490.524,283.325 C489.213,283.977 485.878,283.1 480.425,280.524 C470.48,276.053 469.013,275.666 458.992,274.74 C449.068,273.981 447.994,274.27 436.069,281.112 L426.3,286.811 L409.133,284.858 C398.044,283.652 389.251,283.475 383.888,284.345 C373.396,286.289 370.097,285.279 363.759,278.477 C358.412,272.793 358.153,272.153 358.433,265.668 C358.566,262.995 356.924,260.566 352.159,256.46 C348.685,253.407 345.373,250.825 345.106,250.754 C343.239,250.263 343.822,254.552 346.019,258.123 C351.036,266.145 345.4,272.932 333.897,272.756 C330.353,272.678 327.566,273.514 326.985,274.643 C325.784,277.037 331.728,294 338.163,306.388 C340.648,311.035 343.994,318.903 345.875,323.675 C347.622,328.411 350.648,335.339 352.374,339.073 C354.268,342.709 356.486,347.284 357.265,349.201 C358.375,351.488 360.36,353.153 363.161,353.889 C367.961,355.152 373.421,362.579 372.368,366.579 C371.456,370.045 362.64,379.703 356.702,383.842 C354.071,385.716 350.723,388.685 349.227,390.573 C347.901,392.362 345.747,393.507 344.546,393.191 C343.48,392.91 339.044,394.595 334.699,397.016 C321.702,404.146 311.616,408.335 305.994,408.567 C303.116,408.665 298.689,409.78 296.134,410.819 L291.727,412.938 L292.147,419.466 C292.533,423.417 291.796,428.926 290.231,433.789 L287.725,441.685 L291.928,445.216 C294.511,447.322 296.378,450.522 296.68,453.168 C297.052,455.547 298.181,458.838 299.297,460.558 C302.02,464.839 299.999,471.437 295.331,472.917 C293.45,473.563 286.229,476.082 279.511,478.307 C272.76,480.664 264.372,482.734 260.626,482.889 C257.011,483.079 251.487,483.479 248.504,483.977 C240.799,485.085 231.001,482.221 226.644,477.652 z M67.398,84.27 C71.953,83.758 72.157,83.526 69.222,82.754 C67.355,82.262 64.478,82.361 62.864,83.077 C59.031,84.635 60.498,85.021 67.398,84.27 z M214.024,97.624 C215.855,95.539 218.361,93.063 219.61,92.107 C224.748,87.757 218.692,82.599 211.435,85.25 C207.637,86.676 205.293,92.332 206.5,97.497 C207.651,101.793 210.227,101.758 214.024,97.624 z M336.95,99.18 C338.36,95.986 336.269,94.723 334.227,97.608 C332.149,100.625 332.03,102.162 334.036,102.121 C334.942,101.93 336.262,100.71 336.95,99.18 z" fill="#000000"/>
  </g>
</svg>
