<?xml version="1.0" encoding="UTF-8"?>
<!DOCTYPE svg PUBLIC "-//W3C//DTD SVG 1.1//EN" "http://www.w3.org/Graphics/SVG/1.1/DTD/svg11.dtd">
<svg version="1.1" xmlns="http://www.w3.org/2000/svg" xmlns:xlink="http://www.w3.org/1999/xlink" x="0" y="0" width="500" height="500" viewBox="0, 0, 500, 500">
  <g id="layer102">
    <path d="M165.622,-0 C165.915,-0 166.938,0.975 167.962,2.242 C168.985,3.461 170.253,4.679 170.886,5.02 C171.471,5.362 173.665,7.165 175.712,9.017 C177.759,10.918 180.098,12.77 180.976,13.16 C181.804,13.55 182.633,14.33 182.779,14.866 C183.072,16.085 184.583,18.375 186.142,20.13 C187.069,21.154 187.799,21.446 189.311,21.446 C190.432,21.446 191.65,21.251 191.991,21.008 C192.966,20.374 195.355,22.08 195.549,23.542 C195.647,24.274 196.086,24.663 196.914,24.761 C197.597,24.858 198.718,25.492 199.497,26.223 C200.521,27.198 200.814,27.88 200.716,29.245 C200.57,30.902 200.619,30.951 202.52,31.097 C205.444,31.341 206.321,32.413 205.98,35.094 L205.688,37.336 L210.659,39.725 C214.851,41.723 216.167,42.6 218.556,45.232 C220.164,46.938 222.26,48.888 223.283,49.522 C224.989,50.594 225.087,50.789 224.844,52.544 L224.6,54.444 L226.598,54.786 C227.865,54.981 228.743,55.419 228.938,55.955 C229.133,56.394 229.815,57.174 230.449,57.71 C231.96,58.929 231.57,60.488 229.084,63.072 C228.06,64.193 225.331,67.166 223.089,69.701 C220.798,72.235 217.045,76.135 214.754,78.377 C212.463,80.619 210.562,82.666 210.562,82.91 C210.562,83.153 209.295,84.665 207.784,86.224 C206.224,87.784 204.323,89.88 203.592,90.855 C202.861,91.83 201.837,92.609 201.399,92.609 C200.96,92.609 198.62,90.708 196.183,88.417 C193.795,86.127 191.211,83.884 190.529,83.446 C188.238,81.935 186.435,80.18 184.339,77.353 C182.146,74.429 181.61,74.136 180.049,75.306 C179.562,75.696 178.636,76.037 178.051,76.037 C177.223,76.037 176.687,76.573 175.955,78.182 C174.542,81.301 175.175,82.227 179.416,83.348 L181.512,83.933 L179.172,85.98 C177.028,87.833 176.833,88.174 177.125,89.539 C177.418,90.855 177.807,91.147 180.147,91.878 C181.61,92.317 183.413,93.194 184.144,93.828 C184.875,94.413 186.337,95.436 187.41,96.119 C188.482,96.801 190.675,98.605 192.284,100.116 L195.208,102.845 L199.937,102.845 C202.568,102.845 204.811,103.04 204.957,103.332 C205.103,103.625 206.078,103.82 207.053,103.82 C208.027,103.82 209.49,104.161 210.27,104.551 C211.001,104.941 212.171,105.282 212.804,105.282 C213.389,105.282 214.071,105.477 214.218,105.77 C214.364,106.013 214.9,106.257 215.388,106.257 C216.314,106.257 221.675,108.84 223.966,110.4 C224.795,110.985 226.062,111.716 226.793,112.106 C227.573,112.496 228.548,113.568 229.035,114.543 C229.522,115.567 230.205,116.298 230.79,116.347 C231.813,116.395 235.225,117.175 238.589,118.004 C242.927,119.125 243.707,119.125 243.707,118.004 C243.707,117.419 243.511,116.98 243.268,116.98 C241.61,116.98 242.731,112.935 244.876,111.131 C245.607,110.497 245.754,109.523 245.851,105.185 C245.949,101.041 246.192,99.726 246.923,98.605 C247.411,97.873 247.947,96.167 248.093,94.802 C248.337,92.512 248.434,92.366 249.799,92.219 C251.602,92.024 253.114,90.513 253.991,87.979 C254.429,86.809 256.233,84.567 258.865,81.886 C261.156,79.595 263.447,77.109 263.934,76.378 C264.422,75.55 265.202,75.062 265.932,75.062 C266.517,75.062 267.2,74.867 267.346,74.575 C267.493,74.331 268.029,74.088 268.516,74.088 C269.491,74.088 270.514,76.817 270.514,79.351 C270.514,80.375 270.856,81.057 271.489,81.399 C272.025,81.691 272.464,82.325 272.464,82.812 C272.464,83.3 272.854,84.226 273.341,84.81 L274.267,85.931 L275.583,84.762 C277.192,83.397 279.775,79.693 279.775,78.766 C279.775,77.938 281.969,75.939 282.359,76.378 C282.553,76.524 282.7,77.256 282.7,77.987 C282.7,78.669 283.138,80.18 283.674,81.301 C284.211,82.374 284.65,83.982 284.65,84.81 C284.65,86.663 285.576,86.712 287.866,85.006 C288.792,84.274 289.67,83.836 289.865,83.982 C290.255,84.372 293.91,81.496 293.91,80.765 C293.91,80.424 295.08,78.962 296.494,77.451 C299.272,74.477 302.635,72.625 305.219,72.625 C306.437,72.625 307.363,72.138 309.167,70.432 C311.604,68.189 312.53,68.044 313.797,69.798 C314.138,70.286 314.869,70.676 315.357,70.676 C315.893,70.676 317.014,71.407 317.891,72.284 C319.938,74.282 321.937,75.209 323.058,74.624 C323.497,74.38 324.276,74.039 324.764,73.892 C325.251,73.746 325.885,72.966 326.129,72.138 C326.714,70.48 327.542,70.627 327.542,72.43 C327.542,74.331 324.618,78.474 323.302,78.474 C322.961,78.474 321.742,78.913 320.572,79.4 C319.451,79.936 318.038,80.472 317.453,80.668 C316.429,80.96 315.698,81.984 313.017,86.76 C312.335,87.979 311.506,89.149 311.165,89.343 C310.775,89.539 310.483,90.172 310.483,90.66 C310.483,91.732 308.825,92.804 307.802,92.414 C307.461,92.317 306.778,92.512 306.242,92.853 C305.755,93.243 305.072,93.584 304.683,93.584 C303.707,93.584 300.734,95.924 300.734,96.704 C300.734,97.045 300.052,97.922 299.272,98.653 C298.443,99.384 297.566,100.505 297.322,101.139 C297.078,101.822 296.542,102.358 296.104,102.358 C295.665,102.358 295.372,102.796 295.372,103.576 C295.372,104.453 294.544,105.428 292.351,107.281 C290.645,108.694 289.231,110.108 289.134,110.497 C288.646,112.544 293.082,113.52 294.3,111.618 C295.08,110.351 296.104,110.4 297.03,111.716 C297.81,112.788 297.81,112.788 298.736,111.862 C299.223,111.326 300.003,109.571 300.442,107.963 C302.148,101.968 302.635,101.041 304.292,100.359 C305.17,100.018 307.022,98.897 308.436,97.825 C309.849,96.801 311.799,95.826 312.725,95.68 C313.602,95.534 314.382,95.242 314.382,94.998 C314.382,94.559 318.281,92.414 318.525,92.707 C318.915,93.097 317.599,97.288 316.722,98.556 C316.234,99.238 315.844,99.969 315.844,100.213 C315.844,100.749 313.31,105.867 312.335,107.329 C310.726,109.669 311.555,111.326 313.651,109.961 C314.284,109.523 315.162,109.181 315.503,109.181 C315.893,109.181 316.575,108.743 317.063,108.206 C318.232,106.939 318.525,106.988 319.207,108.597 C320.67,112.057 324.13,113.958 324.13,111.277 C324.13,110.351 324.715,109.425 326.031,108.206 C328.273,106.159 329.443,105.331 330.564,104.99 C331.003,104.843 331.441,104.307 331.588,103.771 C331.734,103.186 332.27,102.845 333.05,102.845 C334.464,102.845 337.291,101.529 337.291,100.847 C337.291,100.554 337.485,100.505 337.778,100.652 C338.704,101.237 338.265,103.235 337.047,104.161 L335.779,105.038 L337.047,107.476 C338.314,109.815 338.314,109.864 337.485,111.667 C337.047,112.691 335.585,114.446 334.268,115.567 C330.369,118.979 330.272,119.027 326.714,119.368 C326.421,119.368 325.251,121.026 324.179,122.927 C322.766,125.559 321.693,126.826 320.231,127.703 C319.11,128.386 317.989,129.312 317.745,129.75 C317.501,130.238 316.868,130.628 316.38,130.628 C315.308,130.628 314.284,131.7 314.772,132.334 C314.967,132.626 316.185,132.919 317.453,132.968 C318.72,133.065 320.377,133.455 321.108,133.845 C321.84,134.235 322.814,134.527 323.253,134.527 C323.74,134.527 324.374,134.966 324.715,135.551 C325.397,136.623 328.956,138.427 330.467,138.427 C330.954,138.427 331.734,139.012 332.221,139.742 C332.66,140.474 334.122,142.033 335.438,143.252 C338.412,145.933 340.215,149.93 340.215,153.683 C340.215,155.34 340.41,155.584 342.311,156.461 C344.407,157.484 348.014,161.579 348.014,162.992 C348.014,163.431 348.453,163.967 348.989,164.26 C349.525,164.552 349.963,165.186 349.963,165.722 C349.963,166.989 351.133,167.233 355.861,167.087 L359.955,166.989 L363.855,170.742 C365.951,172.79 367.949,174.496 368.29,174.496 C369.704,174.496 370.825,177.664 370.971,182.294 C371.069,183.951 370.24,187.071 369.07,189.605 C367.705,192.579 363.904,197.404 362.88,197.404 C360.93,197.404 361.71,201.888 364.049,204.472 C368.388,209.199 370.776,213.733 371.215,218.07 C371.41,219.874 371.751,221.434 371.946,221.58 C372.19,221.726 372.384,222.457 372.384,223.188 C372.384,224.846 373.505,227.722 374.481,228.55 C374.919,228.891 375.748,228.988 376.576,228.794 L377.892,228.452 L377.6,230.841 C377.356,232.547 377.454,233.619 377.99,234.643 C378.38,235.374 378.721,236.446 378.721,236.934 C378.721,237.47 379.257,238.103 379.94,238.444 C380.622,238.737 381.158,239.176 381.158,239.42 C381.158,239.614 381.499,239.809 381.889,239.809 C382.815,239.809 383.595,241.369 383.254,242.636 C383.059,243.465 383.303,243.806 384.375,244.245 C385.155,244.488 386.471,245.268 387.348,245.951 C388.177,246.585 389.444,247.315 390.126,247.608 C391.881,248.242 393.149,250.825 392.368,252.238 C391.881,253.213 392.125,253.603 395.488,256.869 C397.535,258.819 399.192,260.671 399.192,261.012 C399.192,261.304 399.973,262.279 400.898,263.205 C402.556,264.814 402.604,264.911 402.604,268.859 C402.604,271.101 402.848,273.051 403.092,273.198 C403.726,273.587 403.726,284.311 403.141,284.944 C402.751,285.334 402.215,290.208 402.117,294.4 C402.02,296.788 402.702,299.323 403.579,299.762 C406.016,301.078 406.553,308.633 404.457,312.483 C403.53,314.189 403.482,314.384 404.262,317.65 C404.651,319.502 404.895,321.793 404.749,322.719 C404.457,324.571 406.553,329.055 412.353,338.95 C414.936,343.434 415.326,344.36 414.887,345.14 C414.546,345.628 414.303,346.505 414.303,347.041 C414.303,348.065 416.009,350.892 417.032,351.525 C419.469,353.134 419.81,353.719 419.762,356.058 C419.664,358.154 419.81,358.544 421.419,360.006 C422.345,360.932 423.368,361.664 423.612,361.664 C423.856,361.664 424.051,362.297 424.051,363.126 C424.051,365.319 427.755,373.459 430.923,378.089 C433.312,381.648 433.36,383.256 431.118,383.5 C430.339,383.598 429.364,383.89 429.071,384.182 C428.145,384.913 428.292,387.448 429.364,389.69 C432.434,396.319 433.945,399 437.163,403.825 C441.354,410.064 443.547,414.451 443.547,416.498 C443.547,418.545 442.524,420.3 440.964,421.031 C438.82,422.055 438.04,423.663 438.429,426.344 C438.576,427.66 438.917,431.657 439.112,435.264 C439.356,438.871 440.038,444.281 440.623,447.206 C441.208,450.178 441.841,455.15 441.939,458.319 L442.183,464.07 L439.794,467.19 C438.527,468.944 437.211,470.358 436.919,470.358 C436.626,470.358 436.041,469.87 435.602,469.285 C434.92,468.213 434.872,468.213 433.945,469.042 C433.117,469.724 432.727,469.773 431.313,469.334 C430.387,468.993 429.413,468.554 429.12,468.311 C428.779,468.067 428.096,468.311 427.316,468.896 C426.634,469.432 425.952,469.87 425.805,469.87 C425.659,469.87 422.345,467.384 418.494,464.314 C412.743,459.683 411.329,458.806 410.744,459.293 C410.354,459.634 408.989,461.292 407.771,462.998 C405.578,466.02 405.529,466.166 405.529,469.675 L405.529,473.282 L396.804,473.282 L379.842,461.584 L375.748,463.68 C372.384,465.386 371.361,466.215 370.094,468.164 C369.216,469.432 368.29,470.65 367.998,470.845 C367.705,471.04 366.146,470.747 364.537,470.211 C362.929,469.724 361.369,469.383 361.028,469.529 C360.687,469.626 359.907,471.04 359.273,472.6 C358.639,474.208 357.372,477.035 356.544,478.888 L354.984,482.299 L346.405,488.1 L337.876,493.851 L327.737,493.315 C318.232,492.779 317.16,492.633 311.945,490.976 C308.874,490.049 305.901,489.074 305.365,488.88 C304.828,488.636 304,488.344 303.561,488.197 C302.928,488.002 302.684,487.417 302.684,486.199 C302.684,482.738 300.588,480.594 297.176,480.594 L295.616,480.594 L293.764,474.647 C292.741,471.332 291.717,468.213 291.473,467.677 C291.23,467.141 289.816,463.436 288.305,459.391 C286.794,455.394 285.38,451.641 285.137,451.105 C284.357,449.106 282.261,443.696 281.238,440.869 C280.653,439.26 280.019,437.506 279.775,436.97 C279.58,436.433 278.8,434.484 278.07,432.583 C276.168,427.66 276.071,427.368 275.437,425.856 C275.047,424.882 275.047,423.858 275.437,422.055 C275.827,420.3 275.827,419.228 275.486,418.497 C275.194,417.96 274.852,416.255 274.755,414.743 C274.462,411.478 273.683,410.113 271.879,409.479 C270.563,408.992 269.978,407.969 271.002,407.969 C271.928,407.969 271.489,406.604 270.173,405.434 C268.175,403.679 267.541,402.363 268.029,400.998 C268.418,400.072 268.175,399.292 266.956,397.196 C266.079,395.734 265.055,393.931 264.665,393.199 C263.544,390.957 257.305,383.841 256.477,383.841 C255.648,383.841 254.478,387.545 254.429,390.227 C254.429,391.006 254.235,391.884 253.991,392.176 C253.796,392.42 253.308,394.028 252.967,395.783 C252.041,400.462 251.31,401.632 249.409,401.632 C246.875,401.583 245.51,399.975 244.437,395.783 C243.17,390.568 242.342,389.69 241.318,392.517 C240.977,393.346 240.197,395.198 239.563,396.514 C238.93,397.879 238.296,399.536 238.15,400.316 C237.419,403.533 234.738,404.361 231.326,402.46 L229.376,401.388 L229.522,397.879 C229.718,392.615 228.255,387.984 226.452,387.984 C225.477,388.033 223.235,389.495 223.235,390.129 C223.235,390.568 219.774,395.831 218.653,397.148 C216.362,399.78 211.976,397.489 212.024,393.638 C212.024,392.517 211.927,389.251 211.78,386.278 C211.634,382.818 211.732,380.429 212.073,379.552 C212.755,377.895 212.658,377.748 210.903,378.089 C208.953,378.48 208.271,380.137 209.051,382.622 C209.441,383.89 209.441,384.816 209.149,385.401 C208.856,385.888 208.32,388.13 207.881,390.372 C206.809,395.831 204.762,398.707 201.301,399.439 C200.375,399.634 198.279,400.657 196.67,401.632 C195.062,402.655 193.064,403.63 192.235,403.825 C190.87,404.069 190.626,404.41 190.09,406.408 C189.554,408.553 189.213,411.673 188.141,424.784 C187.897,427.758 187.605,431.706 187.41,433.558 C187.263,435.459 186.825,440.918 186.386,445.743 C185.996,450.569 185.411,456.661 185.167,459.245 L184.631,463.973 L182.097,465.581 C179.708,467.141 179.611,467.287 179.27,469.87 C178.734,474.452 177.466,478.303 176.053,479.716 C174.054,481.666 136.572,493.948 124.045,496.678 C118.977,497.848 113.469,499.066 111.86,499.408 C107.035,500.48 106.742,500.383 100.942,496.678 C96.896,494.095 95.629,492.34 96.312,490.244 C96.506,489.659 99.187,486.491 102.307,483.274 C108.789,476.597 113.176,471.576 115.565,468.116 C117.271,465.581 117.368,465.24 118.44,454.273 C118.733,451.446 119.171,447.059 119.415,444.525 C119.659,441.99 120.098,437.701 120.341,435.02 C120.634,432.339 121.17,426.977 121.608,423.078 C122.388,415.913 122.924,410.357 123.851,401.145 C124.582,393.395 124.874,392.127 125.995,391.981 C126.58,391.884 127.848,390.519 129.066,388.715 L131.113,385.547 L131.113,380.478 C131.113,372.728 131.698,370.876 135.5,366.294 C137.255,364.15 139.009,361.615 139.399,360.689 C140.569,357.813 143.006,354.352 143.932,354.352 C144.468,354.352 144.907,353.865 145.102,352.89 C145.346,351.525 145.492,351.428 147.734,351.428 C149.781,351.428 150.122,351.282 150.707,350.112 C151.146,349.186 152.023,348.552 153.437,348.113 C155.386,347.48 155.484,347.334 155.484,345.53 C155.484,344.019 155.679,343.629 156.361,343.629 C157.19,343.629 158.116,342.654 160.602,339.242 C161.138,338.511 164.306,334.612 167.669,330.664 C175.322,321.549 177.418,318.917 177.418,318.381 C177.418,317.698 174.59,315.847 173.518,315.847 C172.982,315.847 172.543,315.554 172.495,315.262 C172.348,311.167 172.154,310.485 170.642,308.584 C169.034,306.585 168.985,306.537 166.304,306.683 L163.526,306.829 L163.185,308.974 C162.99,310.192 162.503,311.46 162.113,311.85 C161.528,312.435 161.382,312.337 161.089,310.924 C160.894,309.997 160.066,308.438 159.335,307.463 C158.067,305.903 157.726,305.757 156.556,306.049 C155.289,306.439 151.341,305.513 149.781,304.489 C148.758,303.856 149.05,302.199 150.61,299.762 C152.608,296.642 154.509,291.183 154.509,288.551 C154.509,287.332 154.948,285.432 155.484,284.311 C156.215,282.654 156.312,281.922 155.923,280.508 C155.338,278.413 155.679,277.048 156.995,276.366 C158.067,275.781 158.262,273.246 157.336,271.248 C156.849,270.224 156.946,269.834 157.775,268.908 C158.36,268.323 159.383,266.666 160.066,265.204 C161.187,262.815 161.284,262.377 160.748,260.915 C160.261,259.55 160.309,258.916 161.041,256.966 C162.551,253.067 163.185,250.191 162.747,249.509 C162.21,248.632 162.162,242.003 162.747,240.882 C164.257,237.811 164.16,235.228 162.405,233.278 C160.699,231.377 159.676,226.649 160.845,225.918 C161.138,225.772 161.333,224.894 161.333,224.017 C161.333,223.14 161.479,222.262 161.674,222.067 C161.869,221.872 162.064,219.874 162.113,217.534 C162.21,214.025 162.405,213.196 163.331,212.222 C164.209,211.246 164.355,210.759 164.062,208.858 C163.721,206.08 163.477,205.69 162.307,205.69 C161.723,205.69 161.333,205.3 161.235,204.618 C161.138,203.789 160.748,203.497 159.871,203.497 C158.701,203.497 157.531,202.815 154.509,200.426 C153.778,199.841 152.755,199.354 152.267,199.354 C151.195,199.354 148.416,200.231 146.418,201.206 C145.005,201.888 144.566,201.839 141.349,201.011 C136.962,199.89 136.279,199.061 137.06,195.942 C137.352,194.723 138.034,193.115 138.522,192.383 C139.35,191.214 139.691,191.068 141.105,191.36 C142.031,191.506 142.811,191.409 143.006,191.116 C143.201,190.824 143.688,190.58 144.078,190.58 C144.517,190.58 145.15,190.288 145.541,189.898 C146.272,189.118 146.515,186.681 145.833,186.681 C145.59,186.681 145.005,185.901 144.468,184.975 C143.688,183.464 143.347,183.269 142.324,183.561 C137.937,184.731 137.985,184.731 136.719,183.074 C136.036,182.197 135.5,181.222 135.5,180.929 C135.5,180.637 134.817,179.613 133.989,178.638 C132.868,177.371 132.088,176.932 130.918,176.932 C130.041,176.932 128.92,176.543 128.384,176.055 C127.896,175.617 126.483,174.69 125.264,174.057 C124.045,173.423 122.681,172.497 122.242,172.009 C121.511,171.181 121.511,170.888 122.145,169.719 C122.486,168.988 122.827,168.11 122.827,167.818 C122.827,167.476 123.119,167.184 123.509,167.184 C123.899,167.184 124.533,166.161 124.972,164.893 C125.849,162.31 125.946,160.848 125.264,160.848 C125.02,160.848 124.777,160.653 124.777,160.36 C124.777,159.337 122.047,156.022 120.926,155.73 C119.464,155.34 118.489,154.121 118.44,152.757 C118.44,152.172 118.099,151.44 117.709,151.099 C117.124,150.612 117.027,149.93 117.271,148.224 C117.416,147.005 117.758,145.786 118.001,145.543 C118.44,145.055 117.124,142.813 116.295,142.813 C115.613,142.813 112.299,145.738 112.055,146.566 C111.957,146.859 110.008,149.101 107.766,151.587 C105.524,154.024 103.086,156.851 102.356,157.826 C101.624,158.801 100.552,160.068 99.967,160.555 C99.431,161.091 98.944,161.676 98.944,161.92 C98.944,162.359 96.653,165.088 94.654,166.989 C93.874,167.769 93.582,168.5 93.679,169.67 L93.826,171.327 L90.56,171.376 C88.61,171.376 87.002,171.668 86.514,172.058 C85.491,172.936 84.321,175.714 84.321,177.371 C84.321,178.151 83.834,179.174 83.102,179.857 C82.128,180.783 81.884,181.465 81.884,183.318 C81.884,186.096 81.153,186.681 77.887,186.681 C75.888,186.681 75.645,186.827 74.914,188.387 C74.037,190.19 73.5,190.385 71.356,189.605 C70.625,189.313 69.699,189.215 69.26,189.362 C68.431,189.605 66.774,192.189 66.774,193.212 C66.774,193.553 65.848,194.382 64.678,195.113 C62.339,196.575 56.148,200.962 55.174,201.791 C53.76,203.058 53.809,201.839 55.319,198.72 C56.197,196.916 57.123,195.162 57.416,194.821 C57.659,194.528 58.001,193.456 58.195,192.481 C58.39,191.409 59.122,190.093 60.096,189.215 C63.508,185.852 63.947,185.267 63.947,184 C63.947,183.269 63.752,182.538 63.508,182.343 C63.264,182.197 62.826,181.612 62.533,181.124 C61.9,180.003 62.631,177.907 63.654,177.907 C64.532,177.907 64.873,176.494 64.288,175.373 C63.557,174.008 63.996,173.228 66.287,172.058 C67.359,171.522 68.821,170.206 69.504,169.134 C70.283,167.964 71.21,167.184 71.746,167.184 C74.914,167.184 79.154,161.92 77.01,160.604 C76.279,160.165 76.425,157.972 77.205,157.143 C77.594,156.754 78.423,156.461 79.106,156.461 C80.324,156.461 83.395,153.488 85.54,150.173 C86.173,149.198 87.246,147.883 87.928,147.249 C88.61,146.615 89.195,145.738 89.195,145.25 C89.195,144.763 89.975,143.886 90.901,143.301 C91.876,142.716 92.607,141.839 92.607,141.351 C92.607,140.863 93.241,139.986 94.07,139.401 C94.849,138.816 95.629,137.89 95.775,137.306 C95.97,136.721 97.481,134.819 99.236,133.065 C102.209,130.092 102.356,129.848 102.356,127.557 C102.356,125.802 102.063,124.779 101.137,123.609 C99.529,121.464 99.577,120.636 101.624,118.15 C102.794,116.736 103.33,115.567 103.33,114.543 C103.33,113.324 103.769,112.593 105.28,111.277 C106.352,110.302 107.424,108.889 107.619,108.06 C107.912,106.891 108.594,106.257 110.349,105.379 C111.909,104.6 112.884,103.722 113.42,102.552 C114.59,100.116 116.295,100.164 119.025,102.65 C121.413,104.794 122.681,104.794 123.558,102.699 C124.24,101.09 125.946,99.92 127.652,99.92 C128.676,99.92 130.138,98.458 130.138,97.435 C130.138,97.045 130.577,96.46 131.113,96.119 C131.649,95.778 132.088,95.242 132.088,94.851 C132.088,93.974 141.105,84.81 142.031,84.81 C142.421,84.81 142.811,84.616 142.908,84.421 C143.006,84.226 144.127,83.3 145.394,82.374 C146.808,81.35 148.075,79.936 148.611,78.766 C149.099,77.645 151.877,74.38 154.704,71.455 C159.676,66.386 160.456,65.265 159.383,64.583 C158.652,64.095 158.798,63.754 160.602,61.658 C162.551,59.465 162.6,58.393 160.845,58.003 C160.017,57.808 159.481,57.223 159.188,56.199 C158.798,54.932 158.116,54.298 155.776,53.129 C150.512,50.496 149.586,49.765 144.273,44.258 C141.982,41.869 139.887,39.968 139.643,39.968 C139.35,39.968 137.985,38.798 136.572,37.385 C134.086,34.851 134.037,34.802 134.866,33.632 C135.305,32.949 136.523,31.584 137.547,30.61 C138.57,29.586 139.399,28.563 139.399,28.319 C139.399,28.027 141.105,26.028 143.201,23.834 C145.248,21.69 147.1,19.497 147.295,19.058 C147.539,18.424 156.605,7.994 159.383,5.167 C161.43,3.12 165.135,-0 165.622,-0 z M191.407,252.97 C191.211,252.97 190.383,253.311 189.603,253.701 C187.995,254.529 187.41,256.138 187.799,258.575 C187.946,259.501 187.848,260.378 187.605,260.525 C186.727,261.109 187.117,263.303 188.141,263.547 C188.872,263.742 189.067,264.083 188.872,264.716 C188.677,265.253 188.726,266.081 188.872,266.617 C189.116,267.397 189.603,267.592 191.358,267.592 C193.259,267.592 193.502,267.495 193.502,266.52 C193.454,265.886 193.161,264.863 192.771,264.18 C191.796,262.474 191.796,259.306 192.771,259.306 C194.087,259.306 194.136,257.844 192.966,255.407 C192.332,254.091 191.602,253.018 191.407,252.97 z M304.39,137.695 L301.075,137.793 C296.64,137.89 295.372,138.231 295.372,139.401 C295.372,140.133 295.763,140.327 297.469,140.474 C299.369,140.62 299.516,140.718 299.662,142.228 C299.857,144.032 300.442,144.178 302.928,142.96 C304.536,142.131 304.634,141.984 304.536,139.889 L304.39,137.695 z M142.02,115.191 C141.387,115.363 141.655,115.257 141.203,115.469 C140.13,116.054 140.082,116.347 140.082,121.172 C140.13,124.925 140.276,126.29 140.764,126.485 C141.154,126.631 141.641,126.631 141.836,126.485 C142.665,125.997 145.638,127.606 146.515,129.019 C146.954,129.75 148.953,131.847 150.902,133.698 C155.045,137.5 156.02,137.695 158.36,135.307 L159.968,133.65 L158.945,131.7 C157.775,129.409 157.677,128.093 158.506,126.777 C158.798,126.29 158.896,125.51 158.75,125.071 C158.506,124.438 157.677,124.34 153.437,124.438 L148.416,124.535 L148.173,123.073 C147.977,122 147.539,121.464 146.467,121.123 C144.127,120.343 143.786,119.953 143.786,118.004 C143.753,116.802 143.547,115.16 142.02,115.191 z" fill="#000000"/>
    <path d="M140.618,353.378 C141.008,353.378 141.349,353.621 141.349,353.865 C141.349,354.158 141.008,354.352 140.618,354.352 C140.228,354.352 139.887,354.158 139.887,353.865 C139.887,353.621 140.228,353.378 140.618,353.378 z" fill="#000000"/>
  </g>
</svg>
