<?xml version="1.0" encoding="UTF-8"?>
<!DOCTYPE svg PUBLIC "-//W3C//DTD SVG 1.1//EN" "http://www.w3.org/Graphics/SVG/1.1/DTD/svg11.dtd">
<svg version="1.1" xmlns="http://www.w3.org/2000/svg" xmlns:xlink="http://www.w3.org/1999/xlink" x="0" y="0" width="500" height="500" viewBox="0, 0, 500, 500">
  <g id="layer102">
    <path d="M51.177,466.944 C52.901,465.22 52.901,462.851 51.177,458.327 C49.453,453.586 49.453,451.431 51.394,449.493 C52.687,448.2 54.841,443.03 56.133,438.073 C58.287,429.241 58.504,429.024 67.552,429.024 C76.601,429.024 77.032,428.81 83.711,416.097 C87.59,408.987 92.114,399.291 93.623,394.552 C95.131,389.812 96.855,385.287 97.716,384.425 C98.362,383.564 107.843,383.778 118.399,384.856 C129.174,385.718 144.901,385.933 153.519,385.287 C167.093,384.425 169.679,383.564 171.187,379.685 C172.91,375.377 173.125,375.592 173.125,380.763 C173.341,383.778 171.832,395.198 169.894,406.401 C167.739,419.114 167.093,427.948 168.386,430.963 C169.463,433.334 170.108,441.306 169.894,448.416 C169.248,469.315 167.739,468.237 197.687,469.099 C260.17,470.606 267.28,470.177 272.235,465.868 C278.052,460.481 278.052,456.388 272.019,454.017 C264.263,451 243.795,429.455 245.95,426.655 C256.077,413.08 255.86,414.373 251.981,395.414 C250.043,385.718 248.75,375.377 249.397,372.36 C250.043,369.127 249.181,363.095 247.457,359.002 C245.088,352.968 244.871,349.737 246.595,345.213 C249.828,336.379 249.181,328.621 244.226,320.435 C240.778,314.834 238.84,313.541 234.53,314.403 C230.222,315.049 229.144,314.403 228.067,309.662 C223.758,290.702 219.233,275.836 211.907,258.384 C207.168,247.396 203.506,237.269 203.506,235.976 C203.506,234.468 201.351,231.021 198.765,228.22 C195.103,224.342 194.886,223.265 197.472,223.265 C199.41,223.265 201.996,221.972 203.289,220.248 C208.675,213.784 214.278,214.646 222.896,223.48 C230.437,231.021 237.116,233.606 245.519,231.883 C248.535,231.452 268.142,240.931 268.142,243.086 C268.142,246.965 256.291,259.892 252.843,259.892 C242.933,259.892 242.502,273.25 252.198,282.946 C258.23,288.978 263.832,288.763 267.063,282.299 C268.142,279.929 274.39,273.25 280.853,267.647 C289.041,260.323 293.134,258.168 294.642,259.677 C298.306,263.34 304.123,262.478 312.955,256.875 C326.099,248.472 329.116,243.948 327.606,235.114 C326.099,227.789 326.744,226.713 334.071,220.463 C338.381,216.586 351.091,204.952 362.08,194.177 C404.955,152.595 421.33,139.237 428.44,139.237 C432.534,139.237 435.334,141.392 439.429,147.855 C444.168,155.396 461.836,169.401 466.577,169.401 C469.808,169.401 498.679,145.054 499.756,141.175 C501.696,135.358 491.784,117.907 480.58,106.918 C472.825,99.593 470.67,95.931 470.67,90.545 C470.67,86.881 469.16,82.573 467.438,81.064 C465.715,79.556 464.205,76.325 464.205,73.739 C464.205,66.629 452.787,48.746 441.151,37.758 C431.457,28.278 430.379,27.847 424.993,30.217 C421.761,31.509 413.789,37.327 407.11,42.929 C398.493,50.47 395.259,54.778 395.259,58.871 C395.259,66.412 406.465,85.588 414.435,91.405 C422.838,97.439 422.838,100.455 414.435,106.703 C408.618,111.013 407.325,111.228 404.31,108.427 C402.369,106.918 396.769,105.194 392.028,104.98 C380.608,104.549 370.267,113.383 368.328,125.448 C367.681,130.189 366.174,135.358 364.881,137.082 C363.804,138.806 361.864,142.685 360.571,145.7 C359.28,148.717 350.446,158.412 340.965,167.461 C327.175,180.605 323.513,185.345 323.082,190.946 C322.006,204.735 315.11,204.09 301.321,188.791 C297.013,184.267 290.118,179.312 285.808,177.804 C270.942,173.278 268.142,170.263 268.142,159.705 C268.142,151.519 269.004,149.795 274.174,147.424 C278.914,145.054 280.207,142.899 280.638,136.006 C281.069,131.265 282.146,126.524 283.224,125.231 C284.086,124.155 284.948,119.631 284.948,115.537 C284.948,104.549 275.897,94.207 265.987,93.776 C260.17,93.345 256.508,91.19 249.612,83.866 C243.58,77.832 238.84,74.601 235.177,74.601 C229.575,74.601 216.647,68.784 213.847,64.905 C212.985,63.828 212.769,61.243 213.416,59.519 C216.216,53.054 217.94,38.189 216.216,35.388 C214.924,33.233 205.228,32.586 176.142,32.586 C140.377,32.802 136.929,33.233 124.864,38.189 C117.754,41.205 106.334,47.237 99.655,51.761 C87.806,59.519 86.513,59.733 73.8,58.871 C66.259,58.226 56.78,56.933 52.47,56.287 C45.36,54.995 44.067,55.425 38.681,62.536 C35.45,66.843 32.002,70.291 30.925,70.291 C30.063,70.291 24.892,72.877 19.722,76.325 C10.672,81.925 10.026,82.787 8.948,93.991 C8.302,100.455 6.578,113.597 5.502,123.078 C2.7,143.547 2.485,203.011 5.071,207.967 C6.147,209.907 7.655,217.662 8.517,225.42 C9.379,233.175 11.534,241.147 13.258,243.086 C18.213,248.689 19.506,270.664 15.412,278.636 C12.181,284.884 12.181,285.746 16.274,294.149 C18.644,299.105 21.015,306.215 21.875,310.093 C22.522,313.756 25.539,321.513 28.123,327.114 C30.925,332.717 33.295,338.748 33.295,340.472 C33.295,342.196 26.616,350.599 18.429,359.433 C7.655,370.851 3.131,377.53 2.054,383.347 C0.547,390.674 0.976,391.536 8.302,395.845 C12.612,398.215 16.058,400.8 16.058,401.231 C16.058,401.877 14.119,406.187 11.534,411.142 C4.855,424.284 0.761,439.797 1.192,450.14 C1.623,455.31 0.976,460.481 0.33,461.774 C-0.532,463.067 0.33,465.868 2.485,467.806 C5.502,471.037 9.379,471.468 27.263,470.606 C39.328,469.961 49.67,468.453 51.177,466.944 z" fill="#000000"/>
  </g>
</svg>
