<?xml version="1.0" encoding="UTF-8"?>
<!DOCTYPE svg PUBLIC "-//W3C//DTD SVG 1.1//EN" "http://www.w3.org/Graphics/SVG/1.1/DTD/svg11.dtd">
<svg version="1.1" xmlns="http://www.w3.org/2000/svg" xmlns:xlink="http://www.w3.org/1999/xlink" x="0" y="0" width="500" height="500" viewBox="0, 0, 500, 500">
  <g id="layer101">
    <path d="M422.401,496.282 C417.062,494.229 410.628,491.217 408.027,489.574 C386.945,476.296 381.88,471.231 384.755,466.029 C387.493,460.827 386.398,459.321 379.964,458.226 C376.542,457.815 373.393,456.857 373.119,456.172 C372.708,455.625 372.298,448.643 372.298,440.977 C372.298,429.478 368.875,397.582 366.138,382.661 C365.042,376.911 361.757,377.595 353.543,385.398 C349.3,389.505 344.508,393.475 343.003,394.296 C341.497,394.981 334.241,395.802 326.986,395.802 C313.981,396.076 313.707,395.939 306.726,391.285 C302.756,388.684 298.786,386.494 297.828,386.494 C295.774,386.494 293.995,390.19 295.09,392.106 C295.501,392.791 296.459,398.403 297.006,404.563 C297.691,410.861 299.06,417.979 300.018,420.443 C301.661,424.55 301.661,425.508 298.649,430.984 C296.322,435.501 295.774,437.555 296.87,438.924 C299.06,441.388 293.858,449.465 290.572,448.506 C286.192,447.411 281.127,450.423 280.305,454.53 C278.8,461.785 270.723,471.778 261.14,478.349 C251.968,484.783 229.518,494.639 224.316,494.639 C220.209,494.639 214.597,490.806 210.9,485.331 C207.889,481.087 207.478,479.034 207.615,469.451 C207.752,456.583 209.395,452.887 217.608,445.905 C224.316,440.156 224.727,437.829 219.114,436.597 C215.965,436.049 214.46,434.68 213.091,431.395 C210.353,424.55 208.847,407.301 208.847,383.071 C208.984,365.001 209.395,360.21 211.448,355.693 C212.817,352.681 214.733,345.973 215.829,340.634 C216.924,335.432 218.977,329.546 220.483,327.629 C225.685,321.332 231.434,307.917 231.434,302.304 C231.571,299.292 232.393,295.322 233.488,293.406 C234.583,291.489 235.404,287.93 235.541,285.466 C235.541,283.002 236.499,278.758 237.595,276.021 C240.743,268.491 240.196,261.099 236.226,257.129 C229.792,250.558 223.221,254.391 223.221,264.795 C223.221,268.491 222.126,272.324 220.483,274.925 C218.703,277.663 217.745,281.359 217.745,285.877 C217.608,295.322 212.269,303.262 195.021,319.69 C184.754,329.546 179.689,333.242 175.582,334.474 C170.928,335.706 166.547,339.402 151.762,354.597 C141.769,364.727 128.627,377.459 122.604,382.797 C116.581,388.136 110.147,394.57 108.367,397.171 C105.356,401.552 104.945,401.826 99.332,400.867 C93.72,400.046 93.172,400.32 91.256,404.153 C88.655,409.081 82.768,413.872 79.209,413.872 C77.84,413.872 73.733,415.104 70.311,416.747 C58.812,421.949 49.64,417.021 48.271,404.837 L47.586,398.54 L40.605,399.498 C28.285,401.141 24.999,400.867 21.44,397.445 C15.69,392.106 15.827,388.273 22.124,375.816 C25.136,369.793 29.243,363.769 31.022,362.537 C33.897,360.758 34.308,359.389 34.308,352.407 C34.308,343.098 37.319,338.992 43.206,340.497 C47.586,341.592 55.663,338.307 56.758,334.885 C57.169,333.379 61.002,329.409 64.972,325.85 C69.626,321.743 72.775,317.91 73.322,315.446 C74.418,310.107 78.388,305.316 84.411,301.483 C89.339,298.471 89.476,298.471 94.13,300.935 C99.332,303.81 99.743,303.673 104.671,294.09 C107.683,288.067 107.957,286.561 106.724,282.181 C105.629,278.211 105.903,276.157 107.546,273.009 C108.641,270.682 109.599,266.712 109.599,263.974 C109.599,253.433 115.896,245.356 128.764,239.333 C137.936,235.089 150.804,224.549 152.994,219.483 C153.953,217.43 156.554,213.871 158.881,211.544 C162.577,207.711 164.494,201.687 161.893,201.687 C161.345,201.687 158.744,199.908 156.28,197.854 C152.721,194.843 151.899,193.337 152.584,191.147 C153.131,189.504 154.774,187.724 156.417,187.177 C160.661,185.945 172.296,172.803 174.076,167.464 C175.856,161.988 179.004,157.881 181.468,157.881 C185.438,157.881 190.366,147.204 190.366,138.579 C190.366,130.092 199.401,118.593 210.9,112.296 C214.049,110.653 215.144,109.284 214.597,107.505 C214.186,106.273 212.406,101.207 210.764,96.416 C208.026,88.476 208.026,87.244 209.668,84.096 C213.501,77.388 225.274,72.46 244.85,69.585 C250.052,68.764 251.284,67.805 254.706,62.33 C256.897,58.771 258.813,54.937 258.813,53.705 C258.813,52.473 260.319,49.872 262.235,47.819 C266.205,43.575 267.164,33.719 263.604,32.487 C260.593,31.255 262.509,23.589 266.89,20.03 C269.765,17.429 272.092,16.881 279.484,16.881 C291.394,16.881 296.185,15.101 298.102,10.036 C299.881,5.245 303.304,3.466 306.863,5.656 C308.369,6.614 310.559,7.983 311.928,8.804 C315.761,11.132 321.51,9.215 326.986,3.739 C331.23,-0.504 331.777,-0.778 334.515,1.138 C336.295,2.37 337.39,4.698 337.527,6.888 C337.527,11.132 338.348,11.268 355.049,9.215 C363.947,8.257 367.507,10.036 369.012,16.881 C369.423,18.935 371.613,22.357 373.804,24.41 C375.857,26.464 378.047,30.297 378.595,32.898 C379.006,35.636 381.196,39.332 383.386,41.385 C385.577,43.302 387.767,46.998 388.451,49.599 C389.136,52.2 390.505,54.801 391.6,55.348 C392.695,55.896 401.182,57.265 410.354,58.497 C438.28,62.056 442.524,65.068 439.649,79.852 C438.691,84.506 436.775,91.077 435.269,94.363 C431.299,103.672 431.846,109.969 436.775,114.76 C439.102,116.95 440.881,119.551 440.881,120.509 C440.881,121.468 442.524,122.974 444.578,123.795 C449.643,125.711 450.464,127.217 450.464,136.115 C450.464,145.013 451.833,146.793 459.636,147.751 C471.409,149.394 471.409,149.257 470.724,154.87 C470.314,157.608 470.861,163.357 471.956,167.464 C474.831,178.689 473.462,184.986 466.754,190.736 C461.279,195.527 461.279,195.664 462.237,202.782 C463.195,210.585 465.522,214.008 469.766,214.008 C476.2,216.472 476.337,217.156 478.938,219.894 C482.223,223.316 483.045,231.53 480.444,234.131 C478.938,235.637 477.158,254.118 477.432,265.069 C477.569,268.902 478.801,273.42 480.581,276.157 C483.045,280.127 483.182,281.633 482.086,286.835 C481.265,290.121 479.485,295.596 477.98,298.882 C476.063,303.262 475.516,306.685 476.063,310.655 C476.748,316.267 476.611,316.541 465.385,328.177 C453.202,340.771 450.327,341.866 441.429,338.581 C437.322,336.938 432.668,337.896 432.668,340.36 C432.668,342.414 442.935,353.639 444.851,353.639 C446.631,353.639 450.464,363.906 450.464,368.56 C450.464,373.215 452.244,382.661 455.94,397.445 C463.606,428.383 463.195,442.757 454.708,444.673 C451.833,445.221 450.19,446.727 449.095,449.875 C447.726,453.845 448,454.53 450.875,457.131 C452.654,458.636 454.434,461.1 454.982,462.606 C455.392,463.975 456.761,467.671 457.856,470.683 C458.951,473.695 459.91,479.581 460.047,483.825 C460.047,491.08 459.636,491.902 455.255,495.871 C450.738,499.704 449.643,500.115 441.155,499.978 C434.721,499.978 429.109,498.746 422.401,496.282 z M425.276,281.633 C425.686,279.854 425.686,277.253 425.139,276.021 C424.591,274.652 423.359,270.408 422.264,266.438 C421.306,262.605 419.252,257.54 417.883,255.076 C415.83,251.79 415.282,248.779 415.556,240.839 L415.967,230.846 L410.765,229.066 C400.909,225.781 400.361,228.929 406.795,248.916 C407.753,251.927 408.438,257.266 408.301,260.688 C407.89,266.438 408.438,267.807 413.503,273.42 C416.514,276.979 418.979,280.949 418.979,282.318 C418.979,287.656 423.907,287.109 425.276,281.633 z M256.349,237.964 C258.539,233.036 253.748,219.483 249.094,217.156 C244.302,214.829 229.107,212.913 226.506,214.418 C225.274,215.103 223.358,217.841 222.263,220.579 C220.346,225.096 220.483,225.644 222.673,227.286 C224.042,228.245 226.232,229.066 227.601,229.066 C231.434,229.066 244.166,235.226 247.04,238.512 C250.6,242.345 254.433,242.208 256.349,237.964 z" fill="#000000"/>
  </g>
</svg>
