<?xml version="1.0" encoding="UTF-8"?>
<!DOCTYPE svg PUBLIC "-//W3C//DTD SVG 1.1//EN" "http://www.w3.org/Graphics/SVG/1.1/DTD/svg11.dtd">
<svg version="1.1" xmlns="http://www.w3.org/2000/svg" xmlns:xlink="http://www.w3.org/1999/xlink" x="0" y="0" width="500" height="500" viewBox="0, 0, 500, 500">
  <g id="Layer_1">
    <path d="M0,353.551 C0.75,349.106 1.178,344.553 2.303,340.214 C3.482,335.662 5.249,331.269 6.856,326.824 C7.231,325.806 7.981,324.949 9.159,324.092 C9.427,326.342 9.641,328.538 10.016,330.787 C10.498,333.626 10.873,336.519 11.837,339.197 C12.962,342.464 15.587,343.053 18.157,340.696 C20.193,338.822 22.121,336.733 23.781,334.537 C35.619,319.272 47.991,304.435 62.56,291.634 C65.828,288.741 69.255,286.01 72.469,283.117 C73.219,282.475 73.969,281.35 73.969,280.439 C74.505,260.139 82.432,242.732 95.126,227.413 C102.464,218.575 110.605,210.434 118.372,201.971 C118.64,202.078 118.907,202.132 119.122,202.239 C119.336,203.632 119.389,205.024 119.711,206.417 C120.139,208.399 120.514,210.434 121.371,212.255 C122.389,214.612 124.156,215.094 126.352,213.862 C127.959,212.951 129.513,211.88 130.905,210.702 C145.099,198.49 157.258,184.564 166.792,168.441 C170.541,162.121 173.808,155.533 173.326,147.767 C173.273,146.963 174.344,145.892 175.147,145.249 C189.77,133.198 204.339,121.146 219.068,109.202 C247.563,86.063 276.058,63.032 304.606,40 C305.356,39.411 306.106,38.822 307.177,38.554 C304.713,43.696 302.142,48.838 299.786,54.033 C294.537,65.603 289.395,77.226 286.556,89.705 C285.217,95.544 285.378,101.328 287.252,107.006 C290.091,115.576 296.679,119.539 305.57,118.093 C312.748,116.968 319.229,113.969 325.549,110.595 C345.313,100.043 362.989,86.492 380.021,72.137 C388.431,65.013 396.411,57.354 404.606,49.909 C404.928,49.588 405.249,49.32 406.106,49.266 C405.517,51.141 405.088,53.069 404.285,54.837 C398.875,66.727 393.412,78.618 387.841,90.455 C377.236,112.844 366.256,135.072 358.49,158.693 C355.544,167.638 353.401,176.904 351.848,186.224 C351.044,190.884 352.062,195.972 352.705,200.793 C353.08,203.846 355.383,205.881 358.436,205.988 C365.345,206.256 372.362,206.792 379.218,206.149 C407.338,203.471 434.869,197.204 462.453,191.205 C473.969,188.688 485.431,186.063 496.947,183.492 C497.858,183.278 498.822,183.171 500,183.492 C499.25,184.135 498.554,184.831 497.75,185.421 C476.54,202.721 455.329,220.075 435.886,239.411 C430.37,244.874 425.121,250.712 420.407,256.926 C414.462,264.746 415.747,269.406 425.174,272.244 C434.44,275.03 444.135,276.529 453.669,278.404 C458.543,279.368 463.524,279.797 468.506,281.082 C467.542,281.51 466.577,281.993 465.613,282.421 C437.761,294.472 408.57,302.4 379.057,309.148 C359.882,313.487 340.707,317.879 321.639,322.592 C314.14,324.414 306.963,327.306 300.643,331.966 C295.126,336.036 292.287,341.393 293.465,348.356 C293.787,350.177 294.644,352.051 295.661,353.658 C297.697,356.711 297.858,358.693 294.858,360.782 C291.591,363.032 288.109,365.067 284.414,366.513 C274.451,370.316 264.435,374.065 254.312,377.279 C212.748,390.616 174.023,410.059 135.779,430.787 C126.995,435.554 118.265,440.536 109.373,445.088 C98.232,450.82 86.984,456.229 75.736,461.746 C74.612,461.746 73.487,461.746 72.416,461.746 C64.221,458.64 56.401,454.89 50.67,447.445 C61.275,444.071 72.041,442.517 80.932,436.679 C79.325,434.108 77.986,431.966 76.326,429.234 C86.77,428.591 96.197,427.734 104.124,422.003 C102.303,420.021 100.75,418.307 98.875,416.272 C107.713,415.201 116.604,416.808 122.764,409.47 C121.478,408.184 120.407,407.113 119.014,405.774 C127.745,403.096 134.387,398.168 140.921,393.133 C147.242,388.259 153.401,383.171 159.614,378.19 C174.933,365.924 191.002,354.783 209.32,347.338 C209.588,347.231 209.802,347.124 210.337,346.856 C208.516,345.624 207.07,344.553 205.624,343.642 C196.144,337.75 185.806,334.055 174.879,331.805 C160.525,328.859 148.259,332.716 138.082,343.16 C130.155,351.302 125.013,361.103 122.014,372.03 C121.746,372.994 121.478,373.905 120.996,375.779 C117.783,371.869 115.051,368.549 112.319,365.228 C109.802,362.121 108.409,362.068 106.106,365.281 C104.981,366.835 103.964,368.549 103.107,370.263 C100.589,375.244 98.286,380.279 95.769,385.26 C94.43,387.991 92.93,390.616 91.377,393.508 C86.449,390.027 87.145,384.189 84.681,379.154 C77.397,386.813 75.254,396.561 70.327,405.453 C68.72,403.739 67.22,402.293 65.988,400.686 C65.131,399.507 64.649,398.061 63.899,396.776 C62.185,393.669 60.043,393.187 57.418,395.651 C55.811,397.151 54.151,398.865 53.24,400.793 C50.884,405.828 48.956,411.023 46.867,416.165 C46.545,416.968 46.385,417.879 46.17,418.736 C45.903,418.897 45.635,419.057 45.313,419.218 C43.974,417.718 42.314,416.433 41.35,414.719 C40.332,412.898 40.171,410.648 39.422,408.666 C39.047,407.595 38.19,406.738 37.6,405.72 C36.743,406.524 35.512,407.113 35.137,408.077 C32.458,414.88 29.941,421.735 27.37,428.591 C27.049,429.395 26.888,430.252 26.62,431.216 C26.138,430.787 25.924,430.627 25.763,430.466 C14.301,415.629 6.052,399.293 2.303,380.868 C1.393,376.315 0.803,371.762 0.054,367.156 C0,362.496 0,357.997 0,353.551 z M95.287,275.726 C95.554,275.94 95.822,276.101 96.09,276.315 C101.607,271.816 107.231,267.477 112.48,262.71 C116.443,259.122 120.032,255.051 123.407,250.927 C124.96,249.052 125.978,246.588 126.567,244.231 C127.531,240.268 124.531,237.75 120.836,239.464 C118.211,240.696 115.64,242.41 113.498,244.392 C105.999,251.302 100.536,259.604 97.054,269.191 C96.411,271.227 95.929,273.476 95.287,275.726 z M13.39,354.783 C7.874,357.89 6.052,370.048 10.07,375.887 C14.087,369.298 13.605,362.228 13.39,354.783 z" fill="#000000"/>
  </g>
</svg>
