<?xml version="1.0" encoding="UTF-8"?>
<!DOCTYPE svg PUBLIC "-//W3C//DTD SVG 1.1//EN" "http://www.w3.org/Graphics/SVG/1.1/DTD/svg11.dtd">
<svg version="1.1" xmlns="http://www.w3.org/2000/svg" xmlns:xlink="http://www.w3.org/1999/xlink" x="0" y="0" width="500" height="500" viewBox="0, 0, 500, 500">
  <g id="Layer_1">
    <path d="M349.171,465.884 L356.561,478.671 L398.433,454.512 L328.052,408.815 z" fill="#000000"/>
    <path d="M155.691,477.413 L181.16,389.058 C131.584,362.069 97.94,309.506 97.94,249.083 C97.94,222.723 104.333,197.83 115.705,175.925 L81.432,149.617 L139.55,138.822 L96.787,105.754 C93.381,109.632 90.132,113.615 87.04,117.703 L56.33,99.99 L27.874,149.251 L59.055,167.278 C52.347,184.048 47.736,201.866 45.535,220.417 L8.694,220.417 L8.694,277.277 L46.268,277.277 C48.941,295.462 53.867,312.913 60.837,329.316 L27.612,348.496 L56.068,397.757 L89.87,378.21 C100.927,392.202 113.714,404.779 127.863,415.575 L108.054,449.9 L155.691,477.413 z" fill="#000000"/>
    <path d="M505.706,277.853 L505.706,220.994 L468.918,220.994 C466.717,202.442 462.158,184.624 455.554,167.802 L486.788,149.775 L458.332,100.514 L427.727,118.174 C416.565,103.343 403.516,89.98 388.895,78.503 L406.346,48.318 L357.085,19.862 L339.896,49.575 C322.916,42.448 304.837,37.417 285.918,34.85 L285.918,0.629 L229.058,0.629 L229.058,34.797 C214.752,36.684 200.864,39.985 187.553,44.597 L230.316,74.678 L195.676,90.242 L208.568,97.422 C218.682,94.173 229.268,91.919 240.168,90.766 L250.02,74.835 L255.156,78.294 C263.122,83.639 268.782,87.622 272.922,90.609 C353.521,98.522 416.46,166.44 416.46,249.135 C416.46,268.473 413.001,287.024 406.66,304.213 L438.208,351.326 L381.506,348.706 C377.89,353.212 374.064,357.51 370.029,361.545 L399.638,404.727 C408.494,396.761 416.722,388.062 424.111,378.734 L458.018,398.281 L486.474,349.02 L453.301,329.84 C460.323,313.489 465.302,296.038 468.027,277.853 L505.706,277.853 z" fill="#000000"/>
    <path d="M426.627,344.932 L380.51,276.072 L335.022,306.624 L305.099,280.893 L347.599,234.776 L342.202,229.378 L297.29,274.866 L266.161,250.917 L311.073,197.621 L258.405,165.287 L284.136,117.965 L279.367,115.554 L250.02,160.465 L208.725,135.311 L224.289,113.143 L182.365,89.77 L218.315,73.577 L113.504,-0 L54.81,65.874 L153.804,142.438 L95.739,153.233 L148.826,194.057 L193.737,138.927 L282.931,199.403 C274.441,219.107 237.862,224.452 213.494,214.391 L193.161,243.738 C228.01,266.901 261.707,293.418 292.574,328.739 C270.144,328.477 249.339,329.735 233.88,335.919 L441.667,476.627 L348.805,341.316 L426.627,344.932 z" fill="#000000"/>
    <path d="M336.227,297.034 L399.69,252.122 L370.972,228.173 L318.881,281.469 z" fill="#000000"/>
    <path d="M278.739,247.93 L297.919,262.289 L372.754,191.647 L344.036,167.068 z" fill="#000000"/>
    <path d="M331.458,134.158 L298.495,112.567 L269.777,161.671 L303.317,182.633 z" fill="#000000"/>
    <path d="M278.739,103.029 C277.533,100.618 251.802,83.272 251.802,83.272 L220.673,133.581 L247.033,152.762 C247.033,152.709 279.944,105.387 278.739,103.029 z" fill="#000000"/>
    <path d="M273.341,376.061 L266.161,500 L355.408,500 L323.074,412.588 z" fill="#000000"/>
    <path d="M271.559,320.354 C243.417,289.907 212.341,265.119 177.544,247.301 L211.66,206.006 C235.033,217.378 250.335,219.002 273.341,203.595 L195.519,149.093 L119.479,250.917 L193.737,367.1 L155.376,500 L245.199,500 L251.802,359.868 L214.07,328.739 C230.945,322.765 249.706,319.359 271.559,320.354 z" fill="#000000"/>
  </g>
</svg>
