<?xml version="1.0" encoding="UTF-8"?>
<!DOCTYPE svg PUBLIC "-//W3C//DTD SVG 1.1//EN" "http://www.w3.org/Graphics/SVG/1.1/DTD/svg11.dtd">
<svg version="1.1" xmlns="http://www.w3.org/2000/svg" xmlns:xlink="http://www.w3.org/1999/xlink" x="0" y="0" width="500" height="500" viewBox="0, 0, 500, 500">
  <g id="Layer_1">
    <path d="M426.154,109.581 C394.294,16.649 300.227,2.119 259.512,0.227 L259.512,0.227 C259.512,0.227 256.031,0 250.129,0 C250.053,0 250.053,0 249.977,0 C249.901,0 249.901,0 249.826,0 C243.847,0 240.442,0.227 240.442,0.227 L240.442,0.227 C199.803,2.119 105.661,16.649 73.876,109.581 C46.708,188.891 98.168,278.493 87.725,290.525 C45.875,338.959 102.785,415.771 110.504,422.052 C124.504,433.48 169.002,410.322 161.964,422.279 C156.667,431.361 151.748,500 151.748,500 L165.521,500 L172.105,476.086 L183.911,475.935 L186.181,500 L210.247,500 L212.517,477.07 L220.539,475.935 L221.674,500 L241.199,500 L242.107,475.329 L257.923,475.329 L258.831,500 L278.356,500 L279.491,475.935 L287.513,477.07 L289.783,500 L313.849,500 L316.119,475.935 L327.925,476.086 L334.509,500 L348.282,500 C348.282,500 343.363,431.361 338.066,422.279 C331.028,410.322 375.526,433.404 389.526,422.052 C397.321,415.695 454.155,338.959 412.305,290.525 C401.862,278.417 453.246,188.815 426.154,109.581 z M224.096,340.624 C218.647,346.753 210.776,354.018 200.106,359.997 C174.451,374.451 149.024,372.408 138.732,370.97 C138.05,370.895 137.369,370.667 136.84,370.289 C114.363,356.062 105.812,333.888 112.471,320.039 C113.455,317.92 117.239,310.958 129.045,306.644 C129.726,306.417 130.407,306.342 131.088,306.342 C145.315,307.628 162.948,310.428 182.473,316.558 C198.29,321.477 211.76,327.456 222.809,333.207 C225.533,334.645 226.139,338.278 224.096,340.624 z M277.826,424.55 C277.751,426.139 275.783,426.744 274.799,425.534 C272.378,422.431 269.048,418.874 264.583,415.62 C259.815,412.139 255.275,409.944 251.718,408.658 C248.237,409.944 243.62,412.139 238.853,415.62 C234.388,418.874 231.058,422.431 228.636,425.534 C227.652,426.744 225.685,426.139 225.609,424.55 C224.852,412.82 225.382,388.83 243.015,371.424 C245.285,369.154 248.237,367.186 251.718,365.294 C255.123,367.186 258.15,369.154 260.421,371.424 C278.053,388.83 278.583,412.895 277.826,424.55 z M363.796,370.289 C363.19,370.667 362.585,370.895 361.904,370.97 C351.612,372.408 326.26,374.451 300.53,359.997 C289.859,354.018 281.989,346.753 276.54,340.624 C274.497,338.278 275.102,334.645 277.902,333.207 C288.951,327.456 302.422,321.477 318.238,316.558 C337.839,310.428 355.471,307.628 369.623,306.342 C370.304,306.266 370.985,306.342 371.666,306.644 C383.396,310.958 387.18,317.996 388.24,320.039 C394.824,333.888 386.272,356.137 363.796,370.289 z" fill="#000000"/>
  </g>
</svg>
