<?xml version="1.0" encoding="UTF-8"?>
<!DOCTYPE svg PUBLIC "-//W3C//DTD SVG 1.1//EN" "http://www.w3.org/Graphics/SVG/1.1/DTD/svg11.dtd">
<svg version="1.1" xmlns="http://www.w3.org/2000/svg" xmlns:xlink="http://www.w3.org/1999/xlink" x="0" y="0" width="500" height="500" viewBox="0, 0, 500, 500">
  <g id="layer101">
    <path d="M40.497,362.242 C39.14,361.593 38.125,361.438 36.308,361.575 C34.18,361.75 33.475,361.601 30.761,360.258 C29.054,359.38 27.082,358.54 26.377,358.392 C24.793,357.958 20.572,354.723 20.286,353.655 C20.118,353.209 18.78,351.675 17.219,350.224 C14.791,347.958 14.404,347.419 14.434,346.092 C14.459,344.942 14.079,344.093 12.783,342.648 C10.064,339.535 8.894,336.367 8.984,332.298 C9.042,329.644 7.956,326.744 6.894,326.72 C6.673,326.715 5.944,325.637 5.352,324.385 C4.717,323.088 3.693,321.34 3.002,320.572 C1.493,318.769 0.961,316.81 0.536,311.977 C0.361,309.893 0.108,307.277 -0,306.168 C-0.146,304.793 0.011,303.69 0.471,302.859 C0.933,301.984 1.091,300.838 0.992,299.286 C0.779,296.936 1.652,293.459 3.273,290.132 C3.737,289.169 4.48,287.592 4.901,286.583 C5.413,285.4 6.548,284.097 8.35,282.676 C10.87,280.741 11.009,280.478 10.771,279.234 C10.327,277.277 10.446,273.872 11.187,270.392 C11.489,268.717 11.991,266.029 12.247,264.441 C13.324,257.739 13.563,256.903 15.051,255.653 C15.818,254.961 16.457,254.09 16.465,253.736 C16.481,253.028 17.415,252.784 17.978,253.371 C18.323,253.777 28.233,253.907 28.861,253.522 C29.084,253.394 29.327,252.426 29.349,251.409 C29.372,250.392 29.899,248.545 30.502,247.319 C31.104,246.093 31.76,244.426 31.955,243.589 C32.495,241.211 33.633,237.741 34.046,237.086 C34.275,236.737 35.212,236.359 36.144,236.247 C39.074,235.824 39.899,232.523 37.644,230.438 C37.122,229.984 35.908,228.851 34.998,227.99 L33.308,226.36 L33.639,223.403 C34.029,219.738 34.97,217.192 36.182,216.422 C36.99,215.909 37.429,216.051 40.229,217.529 C45.739,220.527 51.074,227.459 52.363,233.24 C52.601,234.485 52.974,235.599 53.147,235.824 C53.491,236.274 56.235,232.219 66.141,216.418 C73.891,204.108 74.393,203.412 76.269,202.612 C77.342,202.105 78.501,201.732 78.855,201.74 C79.74,201.759 80.334,200.887 80.959,198.6 C81.293,197.501 81.943,196.143 82.396,195.666 C83.346,194.714 83.48,194.672 88.584,193.988 C90.403,193.762 93.202,193.293 94.802,192.974 C96.401,192.7 102.175,191.72 107.681,190.868 C113.188,190.015 119.183,189.041 121.005,188.727 C133.71,186.484 139.567,185.772 145.102,185.628 C148.467,185.57 151.304,185.322 151.442,185.104 C151.579,184.886 151.336,183.863 150.872,182.835 C150.408,181.806 149.566,179.841 149.021,178.501 C147.967,176.088 147.88,175.998 143.289,173.507 C138.609,170.97 137.353,169.748 137.397,167.758 C137.406,167.315 136.951,165.889 136.36,164.593 C135.518,162.627 135.323,161.472 135.387,158.553 C135.463,155.059 135.512,154.838 136.82,153.761 C138.038,152.682 138.179,152.33 138.235,149.765 C138.273,148.04 138.521,146.806 138.881,146.549 C139.467,146.075 154.872,145.839 166.638,146.097 C173.582,146.25 177.351,145.935 177.633,145.144 C177.682,144.924 178.004,144.4 178.322,144.009 C178.824,143.312 179.223,143.321 181.954,143.868 C184.818,144.417 184.995,144.421 185.767,143.553 C186.222,142.988 186.655,141.404 186.876,139.418 C187.477,134.209 184.15,134.579 223.516,135.444 C261.865,136.288 257.983,135.716 257.966,140.495 C257.98,145.938 258.795,147.062 261.699,145.843 C263.263,145.169 263.572,145.176 264.709,145.776 C265.541,146.193 267.879,146.554 271.547,146.768 L277.16,147.112 L280.022,143.723 C283.067,140.073 284.633,139.311 287.091,140.206 C288.671,140.816 289.214,142.288 289.471,146.675 C289.693,150.707 290.107,151.955 291.081,151.976 C291.523,151.986 291.754,151.549 291.775,150.62 C291.818,148.629 292.593,147.584 294.693,146.701 C297.193,145.694 300.457,146.208 302.454,147.934 C303.191,148.614 304.109,149.165 304.462,149.173 C304.816,149.181 306.469,150.5 308.159,152.131 C312.969,156.751 312.486,156.607 323.153,156.488 C331.873,156.414 333.869,156.193 335.175,155.159 C336.797,153.867 339.888,152.165 340.64,152.182 C341.126,152.192 342.09,152.612 342.789,153.07 C343.965,153.892 344.76,153.954 356.929,154 C366.398,154.031 370.119,153.892 370.924,153.467 C374.102,151.856 374.146,151.856 376.375,153.145 C377.511,153.789 378.959,154.352 379.667,154.368 C380.33,154.382 381.737,154.811 382.788,155.322 C384.451,156.155 385.688,156.27 393.605,156.444 C398.471,156.551 411.657,156.62 422.853,156.601 C440.512,156.502 443.346,156.432 444.334,155.79 C447.476,153.779 450.804,153.366 462.532,153.314 C468.24,153.307 475.72,153.25 479.129,153.192 C485.106,153.058 485.459,153.11 488.619,154.33 C490.419,154.989 493.013,155.755 494.336,155.961 C495.659,156.167 497.112,156.509 497.506,156.694 C499.038,157.436 499.603,159.927 499.888,167.102 C500.44,180.213 499.02,184.43 494.11,184.322 C493.314,184.304 491.13,185.009 489.296,185.897 L485.899,187.46 L467.986,187.022 C449.806,186.622 446.627,186.331 444.447,184.823 C443.315,184.001 442.254,183.933 423.891,183.839 C413.272,183.783 400.172,183.804 394.818,183.819 C385.345,183.921 385.034,183.958 382.752,185.103 C381.455,185.738 379.939,186.236 379.409,186.224 C378.834,186.212 377.452,186.668 376.288,187.262 C373.738,188.533 373.694,188.532 371.285,187.373 C369.49,186.493 368.959,186.481 361.918,186.724 C357.844,186.856 352.221,186.954 349.523,186.894 C344.923,186.793 344.346,186.869 342.376,187.932 L340.182,189.078 L337.38,187.733 C335.846,187.036 334.054,186.023 333.401,185.522 L332.182,184.61 L329.857,185.709 C327.128,187.021 326.153,187.088 323.829,186.108 C322.295,185.455 318.316,185.278 317.728,185.885 C317.592,186.015 317.662,186.857 317.906,187.836 C318.559,190.329 318.51,190.549 316.706,192.102 C315.172,193.441 315.123,193.616 315.867,194.031 C316.741,194.493 321.593,195.219 324.865,195.379 C326.412,195.458 326.938,195.691 327.318,196.496 C327.995,197.926 329.119,199.146 331.902,201.376 C334.771,203.74 335.313,205.257 334.148,207.886 C333.73,208.806 333.385,210.392 333.361,211.454 C333.306,213.974 334.82,215.557 337.991,216.29 C339.266,216.628 340.975,217.418 341.887,218.19 C342.756,218.918 343.673,219.513 343.893,219.518 C344.159,219.524 345.157,220.431 346.238,221.561 C347.708,223.142 348.406,223.6 349.556,223.625 C351.723,223.673 357.366,222.646 358.086,222.087 C358.447,221.785 359.696,221.326 360.897,221.086 C362.72,220.684 363.17,220.34 364.09,218.723 C365.056,217.063 365.371,216.848 366.606,217.008 C367.71,217.121 368.144,217.529 368.865,218.961 C369.584,220.437 369.975,220.8 371.255,220.916 C373.241,221.181 373.718,221.634 374.025,223.765 C374.332,225.896 373.829,226.637 371.471,227.205 C369.647,227.652 369.276,228.44 370.361,229.393 C370.795,229.757 372.297,229.878 375.841,229.735 C381.821,229.468 382.565,229.838 383.55,233.312 C384.982,238.654 383.674,241.767 379.772,242.124 C378.665,242.188 377.552,242.473 377.281,242.733 C376.603,243.381 378.865,247.149 380.395,248.023 C381.094,248.392 382.216,249.745 382.939,251.044 C383.619,252.342 384.95,254.186 385.946,255.181 C387.288,256.539 387.669,257.299 387.645,258.405 C387.628,259.201 387.995,260.625 388.461,261.565 C389.055,262.684 389.212,263.617 389.017,264.454 C388.868,265.158 388.961,266.975 389.236,268.574 C389.668,271.062 389.656,271.593 389.008,272.906 C388.5,273.868 388.298,274.97 388.448,276.212 C388.597,277.499 388.395,278.645 387.653,280.178 C387.14,281.361 386.665,282.855 386.652,283.43 C386.639,284.005 386.264,284.971 385.809,285.536 C384.671,286.971 382.963,290.208 382.946,290.961 C382.939,291.314 381.966,293.284 380.769,295.382 C378.884,298.615 378.294,299.266 376.731,299.896 C375.749,300.316 374.58,301.131 374.168,301.742 C373.665,302.483 372.814,302.952 371.748,303.149 C368.462,303.652 364.289,306.26 362.729,308.792 C362.04,309.928 360.999,310.967 360.196,311.259 C359.437,311.596 358.224,312.411 357.5,313.147 C356.731,313.882 355.789,314.481 355.346,314.471 C353.135,314.423 347.658,317.975 346.009,320.506 C345.092,321.946 344.235,322.679 343.166,323.01 C342.275,323.3 341.286,323.986 340.875,324.552 C340.418,325.206 339.299,325.801 337.785,326.21 C336.45,326.579 334.617,327.424 333.671,328.155 C332.727,328.843 331.784,329.442 331.607,329.438 C331.386,329.433 330.477,330.519 329.607,331.828 C328.556,333.353 327.47,334.436 326.533,334.813 C325.73,335.106 324.741,335.792 324.244,336.268 C323.79,336.789 322.359,337.465 321.023,337.834 C319.733,338.16 318.124,338.877 317.403,339.436 C316.727,339.997 315.604,340.769 314.932,341.152 C314.258,341.579 313.26,342.708 312.752,343.67 C312.061,344.895 311.249,345.629 310.177,346.092 C309.284,346.427 307.982,347.283 307.303,347.976 C306.624,348.669 305.726,349.225 305.24,349.214 C304.798,349.204 302.875,350.091 300.993,351.156 C298.305,352.646 297.222,353.596 296.124,355.253 C295.344,356.519 294.214,357.601 293.5,357.85 C292.831,358.101 291.708,358.829 290.942,359.476 C290.219,360.168 288.874,360.935 288.028,361.182 C287.182,361.429 285.66,362.192 284.672,362.834 C283.146,363.818 282.39,363.979 279.781,363.921 C278.1,363.884 276.282,364.066 275.789,364.32 C274.491,365 267.582,365.246 266.49,364.602 C266.009,364.326 263.85,363.925 261.642,363.699 C258.066,363.311 257.534,363.343 256.1,364.153 C254.218,365.218 248.329,365.398 245.915,364.46 C245.082,364.132 242.922,363.73 241.112,363.557 C238.417,363.321 237.441,363.433 235.701,364.102 C233.289,365.111 228.823,364.924 221.683,363.617 C217.717,362.866 217.451,362.86 215.487,363.658 C213.076,364.622 207.407,364.852 205.434,364.012 C204.732,363.731 202.396,363.281 200.276,363.102 C197.097,362.766 196.166,362.834 194.959,363.427 C193.034,364.403 186.173,364.473 184.512,363.552 C182.631,362.537 176.568,362.58 174.067,363.632 C171.7,364.597 168.295,364.478 160.402,363.198 C156.301,362.533 155.947,362.525 154.205,363.283 C151.971,364.252 145.816,364.426 144.153,363.593 C143.54,363.27 141.248,362.865 139.039,362.684 C135.461,362.384 134.84,362.459 133.495,363.226 C132.33,363.908 131.086,364.147 128.21,364.128 C126.129,364.17 123.876,363.988 123.128,363.794 C122.425,363.558 120.221,363.155 118.28,362.891 C115.06,362.422 114.617,362.412 112.739,363.3 C111.084,364.105 110.107,364.26 107.146,364.107 C105.2,364.02 103.216,363.71 102.691,363.433 C102.21,363.157 99.739,362.837 97.22,362.694 C93.506,362.523 92.397,362.632 91.5,363.187 C90.065,364.085 83.338,364.07 81.987,363.155 C81.507,362.835 79.26,362.387 77.051,362.206 C73.34,361.903 72.764,361.979 71.019,362.825 C69.407,363.675 68.564,363.789 65.514,363.633 C63.083,363.491 61.63,363.194 60.845,362.645 C59.973,362.051 59.267,361.947 57.802,362.181 C56.736,362.334 55.186,362.388 54.347,362.326 C53.463,362.262 52.176,362.411 51.462,362.705 C49.275,363.542 42.599,363.262 40.497,362.242 z M302.472,195.418 C306.882,194.099 308.004,193.371 306.467,192.851 C304.84,192.372 294.004,192.09 293.507,192.566 C293.19,192.869 293.396,193.581 294.341,194.885 C295.927,197.221 296.502,197.234 302.472,195.418 z M483.016,177.661 C484.1,176.667 484.15,176.403 484.273,170.829 C484.395,165.257 484.357,164.99 483.318,163.949 C482.108,162.639 480.518,162.472 479.123,163.547 C478.043,164.364 477.991,164.717 477.97,171.709 C477.961,176.134 478.04,176.578 479.035,177.574 C480.376,179.019 481.614,179.046 483.016,177.661 z M461.622,170.552 C461.911,163.434 461.709,162.545 460.237,163.088 C459.434,163.38 459.086,177.179 459.92,177.507 C461.191,178.066 461.339,177.361 461.622,170.552 z M470.547,177.21 C470.725,177.17 470.923,174.209 471.004,170.538 C471.138,164.434 471.061,163.901 470.319,163.442 C469.749,163.164 469.353,163.111 469.169,163.417 C468.803,163.94 468.127,176.581 468.425,177.119 C468.554,177.299 468.993,177.441 469.437,177.363 C469.837,177.283 470.326,177.205 470.547,177.21 z" fill="#000000"/>
  </g>
</svg>
