<?xml version="1.0" encoding="UTF-8"?>
<!DOCTYPE svg PUBLIC "-//W3C//DTD SVG 1.1//EN" "http://www.w3.org/Graphics/SVG/1.1/DTD/svg11.dtd">
<svg version="1.1" xmlns="http://www.w3.org/2000/svg" xmlns:xlink="http://www.w3.org/1999/xlink" x="0" y="0" width="500" height="500" viewBox="0, 0, 500, 500">
  <g id="layer101">
    <path d="M369.443,404.441 C368.057,404.2 366.671,403.778 366.309,403.598 C365.827,403.296 302.801,396.668 281.953,394.74 L274.421,394.077 L172.591,350.453 C116.615,326.472 68.471,305.865 65.7,304.66 C60.939,302.551 60.277,302.008 52.624,293.934 C48.226,289.295 43.586,284.173 42.321,282.546 C41.055,280.919 38.043,277.485 35.572,275.014 C33.162,272.484 30.752,269.592 30.33,268.507 C29.848,267.483 28.764,266.217 27.86,265.796 C25.811,264.831 22.256,258.203 22.256,255.371 C22.256,254.227 21.774,253.022 21.111,252.419 C19.665,251.154 18.761,244.104 18.641,233.981 C18.581,230.968 17.797,223.738 17.074,220.303 C16.893,219.339 16.11,218.737 14.363,218.255 C11.47,217.351 9.422,215.061 7.132,210.181 C2.914,201.263 3.939,191.502 9.121,190.116 C11.772,189.453 11.892,188.308 9.482,187.284 C6.951,186.26 3.637,182.343 1.769,178.246 C0.805,176.077 0.323,173.666 0.143,169.509 C-0.159,164.508 -0.038,163.423 1.046,161.374 C3.095,157.337 6.831,154.023 10.326,152.939 C14.604,151.673 15.869,151.794 18.882,153.541 C20.328,154.385 21.895,154.927 22.316,154.746 C22.798,154.566 23.883,153.361 24.726,152.095 C26.052,150.227 26.956,149.625 29.908,148.842 C34.548,147.516 35.994,147.576 38.404,149.022 C42.682,151.673 44.309,149.384 40.995,145.407 C38.706,142.575 37.32,139.743 37.32,137.875 C37.32,135.103 40.995,132.754 43.767,133.778 C45.334,134.38 50.576,139.201 52.323,141.731 C53.106,142.756 53.95,143.599 54.251,143.599 C55.215,143.599 54.854,141.972 53.046,138.598 C51.962,136.55 51.419,134.742 51.6,133.959 C52.022,132.272 54.613,130.343 56.481,130.343 C58.288,130.343 66.603,136.55 67.025,138.237 C67.748,141.008 71.845,139.743 72.569,136.489 C73.051,134.26 75.521,131.91 78.715,130.645 C80.703,129.861 81.426,129.199 81.908,127.572 C83.354,123.294 86.849,122.571 90.404,125.824 C93.236,128.355 93.959,128.475 93.959,126.246 C93.959,124.378 95.767,122.33 97.996,121.667 C100.045,121.004 103.057,122.691 106.552,126.367 C108.299,128.295 110.469,130.102 111.372,130.464 C114.988,131.91 122.037,132.633 128.244,132.272 L134.57,131.85 L135.956,128.355 C137.583,124.378 137.342,122.691 135.173,122.149 C133.004,121.606 132.582,119.98 132.582,111.363 C132.522,107.206 132.281,103.289 131.919,102.626 C131.076,100.999 131.196,99.192 132.16,98.83 C132.642,98.649 135.836,98.167 139.27,97.806 C142.705,97.444 146.682,96.842 148.188,96.541 C149.694,96.179 153.069,95.998 155.72,96.059 C158.371,96.119 162.046,96.179 163.854,96.119 C191.511,95.637 199.947,95.396 201.332,95.034 C202.538,94.793 203.441,95.034 204.586,95.938 C205.49,96.661 206.876,97.203 207.659,97.203 C209.346,97.203 213.022,98.167 222,100.939 C225.314,101.903 228.869,102.988 229.953,103.349 C231.038,103.651 232.846,103.711 233.99,103.53 C235.798,103.169 236.28,103.349 238.509,105.579 C239.835,106.904 241.944,108.531 243.209,109.194 C244.475,109.857 246.945,111.725 248.753,113.412 C250.5,115.099 252.308,116.485 252.79,116.485 C253.212,116.485 255.32,117.027 257.369,117.63 C261.466,118.895 273.035,120.703 276.651,120.703 C278.82,120.703 279.663,121.185 287.858,127.15 C288.46,127.572 292.257,128.415 296.414,129.138 C300.572,129.801 306.959,130.886 310.574,131.548 C314.249,132.211 318.588,132.754 320.335,132.754 C322.022,132.754 323.649,133.055 323.83,133.416 C324.131,133.778 325.698,133.898 328.349,133.597 C330.699,133.356 333.712,133.477 335.399,133.838 C336.965,134.2 340.219,134.802 342.509,135.164 C349.438,136.309 351.125,137.032 354.439,140.165 L357.572,143.117 L357.753,147.817 C357.994,152.457 357.994,152.517 355.825,154.927 C354.499,156.373 352.33,157.88 350.282,158.663 C346.787,160.109 343.955,160.109 334.977,158.723 C332.868,158.362 331,158.241 330.88,158.362 C330.699,158.482 331,160.049 331.482,161.796 C332.446,165.291 332.446,165.291 339.797,166.496 C344.015,167.159 348.534,168.183 351.246,169.087 C352.391,169.449 354.74,169.931 356.367,170.172 C370.648,172.22 376.914,173.365 381.614,174.691 C383.181,175.173 385.289,175.534 386.193,175.534 C387.097,175.534 389.869,176.739 392.279,178.125 C394.749,179.571 399.751,182.464 403.366,184.512 C409.813,188.188 410.114,188.248 413.549,188.007 C416.863,187.706 417.164,187.766 418.731,189.513 C419.815,190.658 420.9,191.261 421.804,191.2 C426.865,190.779 428.974,192.165 428.974,195.9 C428.974,198.732 429.155,198.973 433.493,201.624 C435.964,203.131 437.831,203.854 439.338,203.854 C442.712,203.854 450.545,207.168 460.608,212.772 C465.368,215.483 467.356,216.869 470.851,220.002 C471.875,220.906 475.37,223.256 478.684,225.184 C488.987,231.27 490.373,232.234 493.507,235.729 C495.194,237.596 497.423,240.79 498.387,242.899 C501.581,249.527 500.436,252.479 491.277,261.397 C487.782,264.771 487.541,265.193 487.18,268.507 C486.879,271.098 487.059,272.424 487.782,273.809 C488.566,275.376 488.566,275.979 488.023,277.425 C487.602,278.389 487.059,279.172 486.758,279.172 C486.457,279.172 485.553,280.257 484.649,281.522 C483.806,282.787 481.456,285.619 479.407,287.728 C477.358,289.777 474.587,292.729 473.201,294.236 C471.875,295.742 468.923,298.694 466.633,300.864 L462.415,304.78 L455.968,304.78 C452.353,304.78 449.461,304.599 449.461,304.358 C449.461,304.117 449.039,304.057 448.557,304.238 C447.834,304.539 436.024,304.117 413.79,303.033 C412.223,302.973 410.536,302.551 410.054,302.129 C409.03,301.285 407.704,301.767 408.005,302.912 C408.186,303.635 418.369,312.794 424.214,317.434 C427.407,319.964 431.505,324.905 432.589,327.376 C432.951,328.219 433.132,329.665 432.891,330.69 C432.408,333.161 428.673,338.161 426.745,338.885 C425.841,339.186 423.672,340.752 421.864,342.258 L418.67,345.03 L419.032,347.983 C419.333,350.152 419.213,351.297 418.49,352.381 C417.285,354.189 417.285,355.635 418.429,357.141 C418.911,357.804 419.333,358.889 419.333,359.552 C419.333,361.419 414.031,369.132 408.969,374.796 C407.764,376.122 406.077,378.592 405.234,380.219 C404.45,381.785 402.402,384.617 400.775,386.425 C399.148,388.233 397.401,390.583 396.798,391.667 C396.256,392.752 395.231,393.957 394.448,394.319 C393.725,394.74 391.496,396.247 389.507,397.693 C386.736,399.742 385.53,400.223 384.446,399.982 C383.181,399.681 382.457,400.103 380.409,402.332 C378.059,404.923 377.697,405.104 374.986,405.044 C373.359,404.983 370.889,404.742 369.443,404.441 z M314.49,152.939 C314.49,152.035 309.007,150.649 287.918,146.492 C284.484,145.829 282.556,146.07 282.556,147.154 C282.556,147.877 288.46,149.625 290.871,149.625 C291.895,149.625 294.124,149.926 295.932,150.288 C297.679,150.649 300.511,151.131 302.138,151.432 C303.825,151.734 306.537,152.216 308.164,152.517 C311.658,153.18 314.49,153.361 314.49,152.939 z" fill="#000000"/>
  </g>
</svg>
