<?xml version="1.0" encoding="UTF-8"?>
<!DOCTYPE svg PUBLIC "-//W3C//DTD SVG 1.1//EN" "http://www.w3.org/Graphics/SVG/1.1/DTD/svg11.dtd">
<svg version="1.1" xmlns="http://www.w3.org/2000/svg" xmlns:xlink="http://www.w3.org/1999/xlink" x="0" y="0" width="500" height="500" viewBox="0, 0, 500, 500">
  <g id="layer101">
    <path d="M119.381,498.807 C104.654,498.138 97.29,497.134 95.114,495.293 C93.441,493.954 91.767,492.782 91.6,492.782 C90.596,492.448 96.453,476.716 100.135,469.52 C102.478,465.001 104.821,458.642 105.49,455.295 C105.992,451.948 108.001,446.258 109.674,442.408 C111.515,438.559 113.356,429.857 114.025,422.326 L115.03,408.937 L107.833,401.574 C98.629,391.867 93.273,380.152 91.935,367.098 C90.596,355.383 91.6,351.032 101.306,329.443 C106.327,318.23 107.499,313.879 106.662,309.193 C105.992,304.675 106.662,301.495 109.34,297.311 C114.36,288.943 114.193,276.057 108.837,269.865 L104.654,265.179 L98.796,268.358 C88.253,274.049 74.53,269.195 70.011,258.15 C67.333,251.958 68.003,247.606 72.856,240.577 C74.864,237.9 76.036,233.381 76.036,228.36 C76.036,221.164 75.366,219.825 66.162,210.286 L56.288,199.91 L55.116,186.522 C53.61,168.782 53.945,155.059 55.786,150.038 C58.798,142.172 72.856,125.437 80.052,121.253 C84.738,118.575 89.759,117.069 94.612,117.069 C105.323,116.902 114.862,112.048 120.887,103.513 C123.565,99.497 131.263,91.129 137.79,85.104 C146.66,76.904 149.672,73.054 149.672,69.707 C149.672,66.528 152.015,63.515 158.207,58.16 C162.893,54.143 168.081,48.453 169.588,45.273 C171.428,41.424 174.106,39.081 177.955,37.742 C182.139,36.404 184.984,33.726 188.164,28.371 C192.515,21.007 192.85,20.84 200.381,21.342 C207.745,21.844 208.247,21.509 212.431,14.982 C215.276,10.463 217.953,8.288 220.464,8.288 C222.472,8.288 227.158,6.28 230.84,4.104 C240.379,-1.754 245.902,-1.419 252.429,5.61 C269.331,24.354 274.352,32.722 272.846,40.253 C271.34,48.286 273.013,50.127 282.051,50.127 C288.745,50.127 290.92,50.964 294.267,54.645 C297.28,57.825 300.292,59.331 304.644,59.499 C313.346,59.666 317.028,64.687 317.028,76.067 C317.028,80.92 315.856,88.116 314.518,91.966 C311.338,100.835 311.338,111.546 314.518,117.069 C317.865,122.926 317.697,123.261 311.672,128.951 C306.652,133.47 306.15,134.641 306.317,144.348 C306.317,150.038 305.648,155.226 304.811,155.728 C303.974,156.23 303.137,163.761 302.97,172.464 C302.803,181.166 301.966,189.367 301.296,190.873 C300.627,192.379 301.798,195.726 304.141,199.241 C309.999,207.943 310.836,214.47 306.987,224.679 C305.146,229.532 302.97,238.234 301.966,244.259 C300.962,250.284 299.623,257.648 299.121,260.827 C298.284,265.848 300.46,276.392 303.472,282.751 C305.648,286.935 323.889,294.801 328.575,293.629 C341.964,290.282 341.964,290.282 376.606,307.52 C394.848,316.724 414.094,326.096 419.115,328.439 C430.16,333.125 431.834,335.133 434.009,344.505 C434.846,348.522 437.189,353.375 439.03,355.383 C443.214,359.735 443.549,366.764 440.034,369.776 C438.026,371.45 436.018,371.45 430.16,369.776 C420.956,367.266 418.445,368.604 419.784,375.299 C421.458,383.164 423.633,384.838 433.173,384.838 C438.026,384.838 442.712,385.675 443.883,386.846 C449.239,392.202 442.879,399.9 433.005,399.9 C429.993,399.9 423.968,401.239 419.617,403.08 C392.505,413.623 373.092,405.59 378.949,386.177 C381.627,377.14 378.782,374.629 367.402,375.801 C360.708,376.638 357.695,375.801 343.805,368.939 C325.228,359.902 322.049,357.392 322.049,351.869 C322.049,345.342 319.538,342.33 310.166,337.978 L301.464,333.795 L298.786,337.811 C292.929,346.514 287.071,351.2 280.042,353.208 C276.026,354.212 271.34,356.722 269.834,358.563 C265.817,362.914 265.984,374.127 270.168,383.667 C272.177,388.018 274.017,396.553 274.687,402.745 C275.189,409.105 276.36,415.631 277.365,417.472 C279.205,420.987 281.883,433.873 282.385,442.576 C282.887,449.437 278.201,451.278 256.78,452.617 L239.207,453.789 L234.856,447.094 C232.346,443.412 228.664,435.547 226.823,429.522 C224.815,423.664 221.3,416.301 219.125,413.288 C210.924,402.243 209.418,395.381 211.426,378.144 C212.431,369.441 212.933,362.078 212.431,361.743 C211.092,360.237 208.247,363.584 198.875,377.474 C193.687,385.34 185.654,395.047 181.135,398.896 C170.759,407.933 169.42,412.954 168.918,444.249 C168.249,484.582 168.583,482.406 162.893,489.603 C159.211,494.456 155.697,496.632 150.007,498.138 C145.656,499.309 141.807,500.146 141.304,499.979 C140.802,499.811 130.928,499.309 119.381,498.807 z M119.381,200.077 C121.724,197.4 120.05,192.379 117.038,192.379 C113.858,192.379 112.519,195.224 113.691,199.073 C114.862,202.922 116.703,203.257 119.381,200.077 z" fill="#000000"/>
  </g>
</svg>
