<?xml version="1.0" encoding="UTF-8"?>
<!DOCTYPE svg PUBLIC "-//W3C//DTD SVG 1.1//EN" "http://www.w3.org/Graphics/SVG/1.1/DTD/svg11.dtd">
<svg version="1.1" xmlns="http://www.w3.org/2000/svg" xmlns:xlink="http://www.w3.org/1999/xlink" x="0" y="0" width="500" height="500" viewBox="0, 0, 500, 500">
  <g id="layer101">
    <path d="M84.595,496.55 C79.812,490.641 84.033,478.542 94.162,468.693 C100.353,462.503 103.729,456.875 103.729,451.81 C103.729,447.308 106.824,438.023 110.482,430.988 C114.422,423.954 116.954,416.638 116.391,414.668 C115.829,412.699 113.296,402.569 110.764,391.595 C108.231,380.903 104.855,367.959 102.885,362.894 C100.353,355.016 100.915,351.92 107.95,338.977 C112.171,330.817 118.08,321.531 120.893,318.436 C123.707,315.341 128.491,305.774 131.586,297.333 C134.962,288.891 141.153,276.229 145.936,269.195 C150.438,262.16 154.378,254.844 154.378,252.874 C154.378,250.623 156.347,245.559 158.88,241.056 C164.507,231.771 162.538,225.018 153.252,221.36 C149.313,219.953 143.967,215.169 141.153,210.949 C134.4,200.256 132.711,199.412 115.547,197.161 C100.915,195.473 100.353,195.754 92.755,204.477 C86.565,211.793 84.033,213.2 78.686,211.512 C73.059,209.823 72.496,208.135 73.903,200.819 C75.028,195.754 76.435,183.655 77.279,173.525 C78.968,156.08 79.53,154.673 93.318,141.166 C101.478,133.288 111.608,122.314 116.11,116.124 C121.456,109.089 129.616,102.899 140.027,98.397 C159.443,89.955 165.633,84.609 165.633,76.449 C165.633,73.072 168.165,66.882 171.261,62.943 C174.356,59.003 176.888,54.501 176.888,52.813 C176.888,44.934 191.52,21.861 199.961,16.515 C205.026,13.138 212.623,7.792 216.563,4.415 C223.597,-1.212 224.441,-1.212 232.601,3.009 C237.385,5.541 244.138,7.511 247.233,7.511 C265.242,7.511 271.151,19.61 266.367,47.467 C262.991,68.57 264.397,72.228 276.497,72.228 C279.592,72.228 284.938,75.042 288.596,78.419 C292.536,82.076 300.696,86.86 307.167,89.111 C318.141,93.05 318.985,94.457 319.829,104.587 C321.518,124.284 335.305,133.288 351.063,124.565 C356.128,121.751 366.257,121.188 389.049,122.033 C424.222,123.721 430.412,126.535 425.066,138.071 C421.971,145.106 399.179,153.829 383.421,153.829 C379.201,153.829 376.387,154.673 377.512,155.517 C378.357,156.361 377.794,160.863 376.106,165.365 C372.729,175.213 363.162,178.309 349.093,174.088 C333.336,169.023 330.241,173.807 329.959,204.477 C329.678,235.147 325.176,242.463 309.418,239.931 C293.942,237.399 289.44,241.619 289.44,259.346 C289.44,267.506 290.566,275.385 292.254,276.229 C293.661,277.073 297.6,283.826 300.696,291.142 C304.072,298.458 312.232,313.371 319.267,324.345 C326.02,335.6 331.647,345.73 331.647,347.418 C331.647,348.825 336.15,353.609 341.496,357.548 C346.842,361.769 351.344,367.115 351.344,369.647 C351.344,377.807 379.763,433.802 389.049,443.65 C405.369,461.096 407.902,490.641 393.27,494.58 C389.612,495.706 377.794,496.55 366.82,496.831 C351.625,496.831 345.435,495.706 340.37,491.767 C334.18,486.983 333.898,485.858 336.712,474.602 C339.245,464.754 338.963,460.252 335.587,452.373 C330.522,439.992 305.479,414.105 293.098,407.915 C288.033,405.664 283.25,401.725 282.406,399.192 C281.562,396.379 269.744,382.591 255.956,368.522 C227.255,338.414 222.19,336.726 202.775,350.795 C194.615,356.704 190.394,362.331 188.143,370.21 C186.736,376.119 183.078,382.872 180.546,384.842 C172.386,391.876 169.009,405.383 168.165,435.49 C167.321,456.031 168.165,466.724 170.698,469.537 C173.512,472.914 172.949,475.728 167.603,483.325 C164.226,488.39 158.036,494.299 154.378,496.269 C144.811,501.052 88.535,501.333 84.595,496.55 z" fill="#000000"/>
  </g>
</svg>
