<?xml version="1.0" encoding="UTF-8"?>
<!DOCTYPE svg PUBLIC "-//W3C//DTD SVG 1.1//EN" "http://www.w3.org/Graphics/SVG/1.1/DTD/svg11.dtd">
<svg version="1.1" xmlns="http://www.w3.org/2000/svg" xmlns:xlink="http://www.w3.org/1999/xlink" x="0" y="0" width="500" height="500" viewBox="0, 0, 500, 500">
  <g id="layer101">
    <path d="M302.412,334.595 C301.609,334.421 300.494,333.942 300.057,333.456 C298.872,332.362 297.702,332.378 296.547,333.563 C295.879,334.25 294.158,334.518 289.292,334.581 C283.688,334.655 282.763,334.544 281.825,333.448 C281.262,332.778 280.515,332.233 280.146,332.237 C279.838,332.242 278.983,332.807 278.315,333.493 C277.281,334.554 276.299,334.752 271.865,334.81 C268.231,334.857 266.01,334.578 264.461,333.86 C262.664,333.021 261.986,332.968 261.07,333.596 C259.237,334.729 248.951,334.74 247.766,333.585 C247.205,333.1 246.276,332.681 245.721,332.688 C245.106,332.696 244.249,333.138 243.825,333.637 C242.673,335.069 233.249,335.069 230.829,333.684 C229.34,332.841 228.785,332.786 227.807,333.415 C225.975,334.609 213.41,334.589 212.409,333.432 C211.972,332.945 210.981,332.527 210.242,332.536 C209.503,332.546 208.523,332.99 208.099,333.488 C206.947,334.92 195.429,334.947 193.81,333.552 C192.875,332.763 192.382,332.709 191.096,333.279 C188.648,334.482 177.621,334.379 175.759,333.234 C174.33,332.329 174.084,332.332 172.68,333.274 C171.581,334.028 169.675,334.299 165.118,334.359 C159.822,334.428 158.896,334.255 157.897,333.221 C156.584,331.76 153.996,331.671 153.52,332.97 C153.222,333.714 152.054,333.913 148.359,333.962 C145.65,333.998 143.306,333.781 143.117,333.414 C142.928,333.109 142.062,332.813 141.261,332.823 C140.461,332.834 139.603,333.153 139.422,333.463 C138.82,334.518 128.963,334.4 128.025,333.304 C127.025,332.147 125.546,332.166 123.839,333.421 C122.679,334.237 121.51,334.375 117.502,334.057 C114.851,333.846 112.444,333.446 112.255,333.141 C111.814,332.407 109.106,332.505 108.623,333.25 C108.02,334.305 100.442,334.096 98.764,333.009 C97.336,332.104 97.09,332.107 95.686,333.05 C93.976,334.181 88.314,334.501 87.622,333.463 C87.371,333.097 86.446,332.986 85.278,333.186 C81.469,333.975 69.394,333.701 68.027,332.795 C67.343,332.312 66.291,331.956 65.737,331.963 C65.183,331.971 64.25,331.305 63.685,330.45 C62.491,328.68 61.134,328.513 59.368,330.076 C58.15,331.077 58.15,331.077 58.936,330.02 C59.724,329.024 59.473,328.657 56.607,326.17 C54.801,324.654 53.363,323.009 53.356,322.516 C53.351,322.085 52.402,320.188 51.209,318.418 C49.449,315.731 48.453,314.943 46.039,314.051 C35.519,310.247 21.479,301.13 13.487,292.858 C9.678,288.904 1.534,278.416 0.581,276.212 C-0.244,274.374 -0.186,274.066 0.724,273.007 C2.12,271.449 4.831,271.475 7.87,273.098 C10.228,274.423 10.351,274.421 14.402,273.321 C16.673,272.737 19.069,272.213 19.684,272.205 C20.3,272.197 22.226,273.403 23.846,274.922 C27.212,277.958 27.892,278.072 34.897,276.871 C40.181,275.878 41.911,276.287 42.928,278.676 C44.833,283.085 47.356,282.867 52.712,277.993 L55.937,274.995 L53.266,273.243 C48.296,269.983 46.436,264.34 48.522,259.016 C50.431,254.31 53.24,252.425 60.122,251.165 C63.87,250.438 65.039,250.423 66.65,251.08 C69.312,252.154 69.251,252.154 72.296,249.527 C73.757,248.215 75.892,246.647 76.932,246.079 C77.971,245.45 79.006,244.512 79.244,243.893 C80.015,241.666 81.418,240.6 83.697,240.571 C85.113,240.552 86.646,240.039 87.621,239.226 C89.267,237.911 94.238,236.491 101.798,235.344 C104.38,234.941 106.955,234.046 108.238,233.228 C111.351,231.093 116.386,229.919 118.307,230.756 C120.04,231.472 128.038,230.751 130.117,229.616 C130.73,229.3 133.369,228.588 135.888,228.123 C139.267,227.463 140.861,226.888 141.831,225.767 C142.803,224.645 144.028,224.198 146.735,223.916 C148.704,223.767 150.981,223.614 151.844,223.665 C157.146,224.088 168.094,222.836 169.248,221.651 C169.613,221.277 170.369,217.879 170.935,214.053 C171.556,209.733 172.377,206.52 173.041,205.525 L174.192,204.032 L188.907,203.655 C200.607,203.379 204.36,203.083 207.182,202.245 C210.371,201.218 210.676,200.968 210.656,199.428 C210.64,198.197 211.244,197.265 212.767,196.013 L214.902,194.384 L214.827,188.657 C214.729,181.143 214.606,181.207 224.463,181.324 C233.702,181.388 235.357,180.751 234.634,177.311 C234.301,175.405 234.541,174.91 238.062,170.983 C243.161,165.189 243.222,165.187 247.286,165.134 C251.658,165.077 253.711,166.529 253.132,169.37 C252.845,171.036 254.91,178.216 256.035,179.433 C256.286,179.737 257.331,179.662 258.372,179.156 C259.781,178.583 260.704,178.571 262.189,179.045 C263.736,179.579 264.474,179.507 265.879,178.626 C267.529,177.619 267.652,177.618 268.836,178.649 C270.207,179.863 271.929,179.718 272.651,178.353 C272.952,177.857 273.727,175.814 274.379,173.896 C275.153,171.853 276.056,170.24 276.73,169.984 C278.263,169.472 284.644,172.345 285.094,173.755 C285.349,174.43 285.242,175.663 284.885,176.592 C283.695,179.81 284.073,180.483 287.597,181.422 C297.116,184.007 319.31,185.626 321.936,183.868 C322.547,183.49 323.287,183.542 324.157,184.147 C324.902,184.568 326.694,185.037 328.173,185.141 C330.578,185.295 330.888,185.475 330.906,186.83 L330.926,188.37 L323.84,188.154 C310.839,187.77 293.538,188.304 290.963,189.2 C289.675,189.648 287.538,191.093 286.201,192.404 C284.011,194.527 283.832,194.96 284.29,196.987 C284.753,199.506 286.434,200.839 289.828,201.349 C292.544,201.745 293.211,200.997 293.169,197.733 C293.121,194.1 294.892,192.968 301.414,192.389 C306.397,191.955 307.076,192.069 308.507,193.159 C310.001,194.31 310.066,194.617 310.021,200.592 L309.917,206.753 L312.512,207.397 C314.057,207.807 317.693,207.945 321.877,207.643 C325.632,207.409 329.14,207.24 329.633,207.234 C330.126,207.289 337.888,207.311 346.88,207.316 C361.293,207.374 363.448,207.284 365.468,206.334 C367.428,205.446 368.842,205.304 374.328,205.602 C377.965,205.801 381.419,206.187 382.039,206.487 C382.659,206.848 384.633,207.069 386.419,207.045 C397.812,206.958 413.452,211.249 413.493,214.39 C413.51,215.683 411.259,217.807 409.904,217.825 C408.056,217.849 407.703,219.085 409.201,220.544 C410.448,221.759 411.188,221.812 420.858,221.808 C440.629,221.796 452.04,223.063 454.906,225.551 C456.277,226.765 457.2,226.691 459.028,225.189 C461.223,223.436 464.18,223.52 466.238,225.403 C468.294,227.223 469.342,227.272 470.922,225.649 C471.773,224.776 472.938,224.391 474.662,224.369 C476.756,224.341 477.686,224.76 479.741,226.52 C482.172,228.705 482.295,228.703 486.047,228.346 C490.722,227.854 494.808,229.463 498.057,232.994 C500.057,235.185 500.123,235.492 499.926,239.313 C499.728,243.012 499.55,243.507 497.6,245.133 C496.443,246.134 494.246,247.703 492.655,248.524 C489.903,249.976 489.595,249.981 487.49,249.146 C483.899,247.715 481.994,248.048 479.315,250.485 C476.577,253.046 473.38,253.457 471.568,251.51 C469.819,249.624 468.215,249.398 466.694,250.897 C465.903,251.646 464.312,252.405 463.144,252.606 C461.424,252.936 460.682,252.7 459.248,251.425 C457.129,249.544 456.205,249.494 454.625,251.116 C453.957,251.802 452.855,252.371 452.239,252.379 C451.562,252.388 450.273,252.713 449.293,253.156 C448.374,253.538 445.548,254.068 443.025,254.286 C437.92,254.783 438.103,254.658 436.575,260.283 C435.226,265.474 430.367,270.65 425.277,272.38 C424.05,272.765 422.401,273.834 421.612,274.768 C419.73,276.826 415.029,279.967 413.735,279.984 C413.181,279.991 411.168,281.495 409.283,283.368 C406.91,285.616 404.895,286.936 403.055,287.514 C401.276,288.03 399.687,289.037 398.718,290.281 C396.9,292.523 393.176,295.035 391.636,295.055 C391.02,295.063 389.069,296.567 387.245,298.439 C385.18,300.621 383.044,302.128 381.511,302.64 C379.977,303.092 378.024,304.472 376.505,306.093 C375.17,307.589 372.485,309.534 370.527,310.483 C368.629,311.432 365.944,313.376 364.548,314.873 C362.725,316.744 361.137,317.812 359.111,318.332 C357.331,318.786 355.253,320.045 353.427,321.732 C351.845,323.169 349.65,324.861 348.548,325.43 C347.264,326.124 346.414,327.059 346.244,328.232 C345.956,329.714 345.651,329.903 344.108,329.676 C342.689,329.51 342.199,329.763 341.661,331.002 C341.303,331.869 340.633,332.432 340.2,332.314 C339.767,332.135 338.479,332.583 337.379,333.275 C335.608,334.407 334.256,334.609 328.529,334.684 C322.001,334.77 321.753,334.711 320.502,333.188 C319,331.36 316.785,331.574 316.197,333.676 C315.841,334.727 315.289,334.857 309.868,334.867 C306.603,334.848 303.214,334.708 302.412,334.595 z M347.751,316.263 C347.678,315.34 346.263,315.543 345.967,316.471 C345.79,317.028 346.101,317.27 346.714,317.077 C347.33,317.007 347.756,316.632 347.751,316.263 z M355.688,310.862 C356.167,309.87 356.042,309.687 354.748,309.704 C353.024,309.726 352.297,310.599 352.806,311.885 C353.251,312.988 354.845,312.413 355.688,310.862 z M376.69,296.667 C377.225,295.182 376.169,294.519 374.827,295.521 C374.156,296.023 373.858,296.766 374.111,297.317 C374.558,298.481 376.154,298.091 376.69,296.667 z M385.303,291.258 C386.399,290.258 386.819,289.39 386.565,288.777 C386.054,287.429 385.624,287.496 383.241,289.005 C382.02,289.761 381.232,290.756 381.242,291.495 C381.264,293.22 383.233,293.071 385.303,291.258 z M404.957,277.512 C405.808,276.638 405.906,274.789 405.1,274.307 C403.485,273.281 401.426,275.956 402.677,277.418 C403.552,278.454 404.045,278.447 404.957,277.512 z M420.808,269.79 C422.209,268.54 422.387,268.044 421.821,267.128 C421.382,266.518 420.389,266.038 419.405,266.051 C417.988,266.069 417.562,266.444 417.211,267.866 C416.741,269.658 417.44,271.312 418.611,271.297 C418.857,271.294 419.895,270.602 420.808,269.79 z" fill="#000000"/>
  </g>
</svg>
