<?xml version="1.0" encoding="UTF-8"?>
<!DOCTYPE svg PUBLIC "-//W3C//DTD SVG 1.1//EN" "http://www.w3.org/Graphics/SVG/1.1/DTD/svg11.dtd">
<svg version="1.1" xmlns="http://www.w3.org/2000/svg" xmlns:xlink="http://www.w3.org/1999/xlink" x="0" y="0" width="500" height="500" viewBox="0, 0, 500, 500">
  <g id="layer101">
    <path d="M239.954,470.196 C239.717,469.88 239.361,468.773 239.243,467.746 C239.084,466.717 238.689,465.769 238.373,465.571 C238.056,465.413 236.436,465.057 234.815,464.82 C233.194,464.543 231.336,464.187 230.704,463.99 C230.071,463.792 229.043,463.634 228.451,463.634 C226.948,463.634 225.446,462.922 224.734,461.776 C224.023,460.709 223.272,460.63 221.928,461.499 C220.939,462.171 220.03,462.132 215.444,461.262 C214.259,461.025 212.203,460.63 210.899,460.432 C209.594,460.195 207.657,459.839 206.55,459.641 C205.483,459.483 203.506,459.127 202.202,458.93 C200.898,458.732 198.96,458.376 197.853,458.139 C196.786,457.902 194.889,457.507 193.703,457.309 C192.517,457.111 190.461,456.756 189.156,456.519 C187.852,456.281 185.718,455.926 184.413,455.728 C183.108,455.53 181.053,455.174 179.867,454.977 C178.681,454.739 176.546,454.384 175.123,454.147 C173.7,453.909 171.565,453.554 170.379,453.316 C169.193,453.119 167.414,452.802 166.426,452.644 C164.489,452.289 162.868,451.537 162.868,450.984 C162.868,450.786 162.513,450.549 162.117,450.391 C160.536,449.917 157.65,451.972 152.393,457.349 L147.254,462.646 L144.091,462.883 C140.059,463.199 138.952,462.686 139.308,460.63 C139.664,458.811 139.94,440.469 139.94,417.027 C139.98,394.889 139.901,395.364 142.866,394.02 C146.068,392.557 148.163,393.347 149.428,396.431 C149.704,397.103 150.298,397.696 150.772,397.815 C152.116,398.091 177.376,398.724 190.738,398.764 C197.498,398.803 209.554,399.001 217.619,399.198 C234.657,399.633 234.301,399.672 233.866,396.471 C233.708,395.482 233.431,392.715 233.194,390.304 C232.996,387.932 232.641,384.176 232.404,382.002 C232.206,379.828 231.889,376.112 231.653,373.701 C231.455,371.329 231.099,367.494 230.862,365.202 C230.427,360.814 229.874,354.766 229.281,347.729 C229.083,345.396 228.846,343.341 228.727,343.143 C228.609,342.946 228.253,339.704 227.936,335.909 C227.186,327.647 226.632,321.638 226.158,316.578 C225.921,314.522 225.564,310.886 225.328,308.474 C225.09,306.102 224.814,303.849 224.734,303.533 C224.656,303.217 224.537,301.517 224.498,299.777 C224.458,298.038 224.221,295.824 223.944,294.836 C223.43,293.136 222.521,286.179 221.809,278.194 C221.611,276.059 221.216,273.924 220.9,273.371 C220.623,272.817 213.271,264.121 204.574,254.079 C177.969,223.285 174.925,219.727 174.53,218.818 C174.016,217.592 172.198,215.26 169.193,211.939 C167.77,210.358 165.636,207.907 164.449,206.444 C163.264,205.021 161.287,202.729 160.061,201.384 C158.836,200.08 155.95,196.681 153.658,193.913 C149.744,189.209 149.428,188.734 149.428,187.153 C149.428,185.177 148.479,184.109 146.028,183.437 C144.289,182.924 143.459,182.093 134.841,172.013 C132.39,169.127 130.216,166.756 130.018,166.756 C129.386,166.756 128.871,168.297 128.871,170.194 C128.871,171.222 128.595,172.448 128.279,172.843 C127.844,173.436 127.764,174.266 127.923,176.242 C128.121,178.417 128.041,179.168 127.29,180.907 C126.499,182.766 126.46,183.2 126.856,184.544 C127.251,185.849 127.211,186.323 126.698,187.272 C126.381,187.944 126.104,189.446 126.104,190.672 C126.104,191.897 125.946,193.202 125.709,193.597 C125.116,194.704 122.704,195.494 118.831,195.811 L115.313,196.127 L114.166,194.783 L113.059,193.439 L111.913,194.783 L110.806,196.127 L105.232,195.89 C97.563,195.534 96.061,194.783 96.061,191.344 C96.061,190.751 95.784,189.288 95.428,188.102 C95.112,186.916 94.835,184.663 94.875,183.082 C94.914,181.224 94.717,179.761 94.321,178.931 C93.373,176.915 92.503,173.594 92.108,170.116 C91.871,168.376 91.514,165.925 91.317,164.621 C90.882,161.972 91.356,160.431 93.056,158.731 C94.282,157.505 94.361,156.556 93.373,155.252 C92.978,154.738 92.226,153.196 91.673,151.812 C91.159,150.429 90.368,149.006 89.933,148.611 C89.301,148.017 80.564,144.894 69.179,141.179 C68.191,140.862 65.345,139.874 62.854,139.004 C60.364,138.135 56.609,136.87 54.553,136.237 C48.268,134.261 27.711,127.342 6.364,120.029 C2.095,118.606 2.333,119.121 2.569,111.174 L2.807,104.217 L1.739,102.438 C0.751,100.738 0.751,100.58 1.226,98.801 C1.581,97.536 1.739,94.413 1.7,88.286 C1.621,75.399 1.503,73.422 0.712,72.276 C0.198,71.564 0,70.537 0,68.441 C0,65.793 0.079,65.477 1.186,64.37 C1.819,63.697 2.372,62.789 2.372,62.354 C2.372,60.851 3.123,60.021 4.506,60.021 C6.404,60.021 7.906,61.326 7.906,62.986 C7.906,63.697 8.143,64.449 8.381,64.686 C9.053,65.2 13.757,65.516 27.869,65.991 C34.392,66.188 42.654,66.544 46.251,66.781 C68.389,68.125 90.21,68.679 91.119,67.927 C91.436,67.651 91.713,66.821 91.713,66.03 C91.713,64.962 91.356,64.251 90.131,62.947 C88.748,61.444 88.55,60.97 88.55,59.428 C88.55,58.44 88.273,57.096 87.957,56.503 C87.245,55.08 87.443,51.008 88.313,48.597 C88.668,47.648 89.538,46.186 90.289,45.395 C91.04,44.564 91.831,43.497 92.108,43.062 C93.61,40.177 103.928,38.556 115.154,39.426 C122.823,39.979 126.974,40.769 129.86,42.153 C131.362,42.865 133.22,44.604 133.22,45.276 C133.22,45.553 133.734,46.344 134.366,47.055 C134.999,47.767 135.789,49.032 136.106,49.862 C136.896,51.72 136.936,56.622 136.145,58.084 C135.829,58.717 135.592,59.824 135.592,60.614 C135.592,62.472 134.722,64.093 133.457,64.686 C132.271,65.239 131.718,66.9 132.469,67.769 C132.864,68.244 133.378,68.323 134.564,68.165 C135.473,68.007 138.043,67.73 140.336,67.492 C148.716,66.702 152.828,66.307 154.962,66.109 C158.441,65.793 172.474,64.37 178.088,63.737 C180.934,63.381 185.085,62.947 187.378,62.749 C189.671,62.551 193.189,62.116 195.205,61.8 C198.526,61.247 199,61.247 200.067,61.84 C202.202,62.907 202.399,62.551 202.399,57.372 C202.399,51.957 202.953,50.376 205.167,49.229 C207.657,47.964 210.226,48.913 211.333,51.601 C212.124,53.459 212.124,66.742 211.333,68.283 C210.819,69.272 210.819,69.469 211.531,70.537 C212.164,71.446 212.243,72.118 212.084,73.857 C211.926,75.043 211.571,76.704 211.215,77.494 C210.859,78.324 210.701,79.352 210.859,79.945 C211.096,80.854 211.294,80.972 212.994,80.972 C216.038,80.972 221.888,80.182 222.442,79.707 C222.916,79.352 222.995,76.98 222.876,66.781 L222.758,54.289 L224.853,49.743 C227.225,44.604 227.858,43.062 229.676,38.279 C231.099,34.563 232.285,33.14 234.024,33.14 C234.854,33.14 235.566,32.666 236.949,31.124 C238.689,29.187 238.847,29.108 240.27,29.345 C243.986,29.977 244.539,30.136 245.449,30.807 C246.042,31.282 247.03,31.559 248.137,31.559 C249.204,31.559 250.469,31.875 251.418,32.468 C253.236,33.496 253.988,33.219 255.055,31.164 C256.043,29.187 256.399,28.989 257.546,29.503 C258.099,29.741 258.534,30.215 258.534,30.531 C258.534,30.807 258.889,31.48 259.284,31.994 C259.996,32.903 260.273,32.942 263.554,32.824 C267.942,32.666 268.416,32.982 269.958,37.291 C271.144,40.572 272.369,43.734 275.058,50.217 C275.928,52.312 276.836,54.961 277.074,56.068 C277.311,57.254 277.509,62.551 277.509,68.876 C277.509,77.612 277.627,79.787 278.062,80.142 C278.378,80.419 280.434,80.656 283.241,80.696 C288.775,80.775 289.052,80.617 288.221,77.534 C287.945,76.506 287.668,75.281 287.549,74.846 C287.471,74.411 287.313,73.581 287.154,72.987 C286.996,72.197 287.194,71.525 287.787,70.655 C288.617,69.509 288.656,69.39 288.063,68.007 C287.233,66.069 286.798,55.159 287.431,52.827 C287.668,51.917 288.459,50.573 289.17,49.862 C290.277,48.755 290.751,48.557 292.333,48.557 C295.851,48.557 297.274,51.127 297.274,57.531 C297.274,61.405 297.472,61.761 299.211,61.128 C299.804,60.931 301.702,61.009 304.35,61.366 C310.873,62.274 317.633,63.105 322.179,63.539 C335.58,64.804 343.565,65.674 348.269,66.346 C353.092,67.058 360.721,67.572 364.082,67.453 C367.403,67.334 367.442,67.334 367.561,66.267 C367.679,65.437 367.323,64.804 366.098,63.619 C364.635,62.196 364.477,61.84 364.477,60.14 C364.477,58.914 364.2,57.807 363.686,57.056 C362.105,54.684 362.935,49.387 365.307,46.699 C365.939,45.948 366.691,44.762 367.007,44.011 C367.837,42.074 371.079,40.532 376.732,39.504 C384.124,38.161 393.137,37.884 399.699,38.832 C404.562,39.504 406.815,40.532 408.08,42.509 C408.594,43.339 409.345,44.288 409.701,44.564 C411.875,46.383 413.219,52.708 412.033,55.554 C411.756,56.266 411.519,57.491 411.519,58.242 C411.519,60.021 411.005,61.009 409.266,62.631 C408.041,63.777 407.922,64.054 408.198,65.437 C408.356,66.267 408.633,67.137 408.831,67.414 C409.226,67.927 422.351,67.809 431.68,67.256 C433.973,67.137 438.163,66.939 440.97,66.86 C448.441,66.702 453.224,66.386 456.387,65.951 C457.929,65.753 463.068,65.397 467.851,65.161 C486.905,64.291 490.621,64.014 491.214,63.539 C491.53,63.302 491.768,62.512 491.768,61.84 C491.768,60.259 492.598,59.072 494.139,58.44 C495.721,57.807 497.025,58.637 497.736,60.693 C497.974,61.524 498.527,62.591 498.883,63.105 C499.318,63.619 499.713,65.081 499.871,66.781 C500.108,69.272 500.069,69.706 499.318,70.734 C498.646,71.604 498.488,72.434 498.448,74.727 C498.448,76.308 498.29,78.166 498.093,78.799 C497.697,80.024 498.211,95.244 498.685,98.05 C498.923,99.197 498.764,99.789 498.093,100.738 C497.262,101.885 497.223,102.28 497.341,109.237 C497.42,113.981 497.341,116.669 497.064,116.946 C496.59,117.421 493.428,118.606 486.628,120.899 C484.138,121.769 476.824,124.259 470.421,126.434 C464.016,128.647 458.245,130.624 457.573,130.782 C456.94,130.94 455.319,131.494 454.015,131.968 C447.729,134.261 433.301,139.202 431.917,139.518 C431.087,139.716 430.019,140.072 429.585,140.309 C429.189,140.546 426.304,141.614 423.22,142.681 C408.713,147.662 408.989,147.504 408.594,150.311 C408.356,151.773 407.843,152.841 406.301,154.975 C405.906,155.489 406.064,156.161 407.171,158.533 C408.356,161.181 408.475,161.774 408.594,166.123 C408.713,169.839 408.594,171.064 408.159,171.776 C407.843,172.25 407.566,173.001 407.566,173.436 C407.566,173.871 407.329,175.176 407.013,176.322 C406.696,177.626 406.459,180.71 406.459,184.544 C406.459,187.944 406.261,191.186 406.024,191.779 C405.471,193.202 403.811,193.874 399.62,194.387 C393.928,195.139 392.742,195.02 391.754,193.636 C390.765,192.213 389.974,192.134 389.342,193.32 C389.066,193.834 388.67,194.348 388.433,194.506 C387.761,194.981 380.843,194.862 378.866,194.387 C376.692,193.834 376.099,192.964 375.704,190.079 C375.546,188.892 375.269,187.469 375.032,186.916 C374.834,186.362 374.597,184.584 374.558,182.963 C374.518,181.302 374.162,179.287 373.806,178.456 C373.451,177.587 373.174,176.242 373.253,175.452 C373.293,174.504 373.016,173.634 372.463,172.882 C371.869,172.013 371.514,170.867 371.356,168.732 C370.999,164.897 370.763,164.384 369.814,165.846 C369.418,166.439 367.284,169.009 365.07,171.499 C362.896,173.989 359.773,177.587 358.192,179.484 C355.938,182.172 354.95,183.042 353.804,183.398 C351.59,184.07 350.088,185.77 350.167,187.509 C350.206,188.774 349.771,189.446 345.976,193.755 C343.644,196.404 340.008,200.634 337.912,203.124 C335.778,205.614 332.061,210.002 329.65,212.809 C324.946,218.304 316.289,228.74 314.668,230.875 C313.086,232.97 299.923,248.585 288.656,261.749 C282.924,268.469 278.023,274.517 277.706,275.189 C277.429,275.901 277.113,279.142 276.955,282.621 C276.797,286.614 276.52,289.302 276.125,290.211 C275.769,291.081 275.413,294.322 275.176,299.224 C274.939,303.454 274.544,308.514 274.346,310.451 C273.872,314.444 272.567,328.793 271.934,336.344 C271.698,339.071 271.381,343.143 271.144,345.436 C270.946,347.729 270.591,351.445 270.393,353.737 C270.195,356.031 269.879,359.391 269.642,361.249 C269.128,365.122 268.535,371.329 268.021,377.851 C267.823,380.342 267.428,384.611 267.151,387.339 C266.874,390.067 266.677,393.901 266.638,395.838 L266.638,399.396 L275.532,399.317 C280.434,399.317 294.033,399.04 305.773,398.764 C317.514,398.487 332.259,398.171 338.505,398.052 L349.929,397.815 L350.76,396.747 C351.234,396.154 352.025,395.127 352.539,394.454 C353.843,392.794 356.176,392.122 357.954,392.992 C360.445,394.178 360.445,394.059 360.721,413.667 C360.879,423.431 361.156,432.562 361.394,433.986 C361.631,435.409 361.749,436.99 361.71,437.544 C361.67,438.097 361.591,443.512 361.552,449.601 C361.552,455.688 361.354,460.906 361.196,461.183 C360.484,462.251 353.013,461.539 353.013,460.392 C353.013,459.879 347.083,453.751 345.344,452.486 C344.474,451.854 343.288,451.379 342.656,451.379 C341.984,451.379 340.956,451.063 340.324,450.707 C339.217,450.036 339.177,450.036 338.031,451.142 C337.24,451.893 336.173,452.407 334.948,452.605 C333.919,452.763 331.983,453.119 330.678,453.356 C328.306,453.791 326.171,454.147 321.586,454.897 C320.281,455.096 318.146,455.491 316.842,455.728 C315.538,455.965 313.403,456.361 312.098,456.558 C310.794,456.795 308.936,457.111 307.948,457.309 C306.959,457.507 305.101,457.823 303.797,458.06 C302.493,458.297 300.555,458.692 299.448,458.93 C297.472,459.325 295.653,459.641 290.949,460.432 C289.526,460.669 287.391,461.064 286.206,461.262 C281.462,462.092 279.841,462.171 278.259,461.657 C276.718,461.144 276.639,461.144 275.611,462.29 C274.781,463.199 273.99,463.555 271.776,463.95 C270.274,464.227 268.139,464.622 267.033,464.82 C265.966,465.017 264.384,465.294 263.594,465.413 C261.854,465.69 260.906,466.836 260.906,468.576 C260.906,469.247 260.708,469.999 260.431,470.275 C260.075,470.631 257.269,470.749 250.193,470.749 C242.168,470.749 240.349,470.631 239.954,470.196 z M372.779,159.719 C372.779,159.244 372.541,159.324 371.79,160.035 C371.237,160.549 370.802,161.102 370.802,161.3 C370.802,161.497 371.237,161.339 371.79,160.984 C372.344,160.628 372.779,160.074 372.779,159.719 z" fill="#000000"/>
  </g>
</svg>
