<?xml version="1.0" encoding="UTF-8"?>
<!DOCTYPE svg PUBLIC "-//W3C//DTD SVG 1.1//EN" "http://www.w3.org/Graphics/SVG/1.1/DTD/svg11.dtd">
<svg version="1.1" xmlns="http://www.w3.org/2000/svg" xmlns:xlink="http://www.w3.org/1999/xlink" x="0" y="0" width="500" height="500" viewBox="0, 0, 500, 500">
  <g id="Layer_1">
    <path d="M200.516,229.225 C196.369,228.213 192.424,225.331 187.822,223.409 C185.698,221.74 180.034,217.341 177.101,207.327 C174.067,196.96 183.322,185.582 184.384,183.559 C188.884,182.345 190.199,182.598 194.7,181.334 L194.7,165.151 L-0,165.151 C3.945,173.293 7.99,181.03 12.087,188.464 L132.042,187.959 C132.244,189.071 132.497,190.234 132.75,191.448 L18.813,200.247 C26.55,213.345 34.389,225.179 42.177,235.951 L134.217,207.378 C134.722,209.148 135.228,210.918 135.835,212.739 L53.859,251.375 C61.293,260.731 68.524,269.075 75.453,276.56 L139.324,230.186 C139.881,231.501 140.437,232.765 140.993,234.08 L83.493,285.056 C90.877,292.591 97.704,299.013 104.076,304.475 L148.326,248.745 C149.439,250.566 150.602,252.336 151.816,254.055 L112.167,311.1 C122.889,319.495 131.992,324.906 139.577,328.396 C146.303,308.369 153.94,284.449 160.615,264.878 C162.183,266.344 162.638,267.103 164.155,268.215 L144.634,330.52 C157.581,335.475 165.369,334.414 168.757,333.756 C169.819,333.554 170.881,333.301 171.892,333.048 C174.674,314.235 176.747,293.349 179.579,274.638 C180.945,274.79 182.209,274.84 183.372,274.84 L181.45,327.637 C185.547,325.968 190.402,323.338 195.105,319.04 C196.217,318.028 197.229,317.017 198.139,316.005 C198.139,298.609 198.139,281.263 198.139,263.866 C198.24,263.108 199.555,264.423 202.134,262.299 C203.651,261.034 205.32,255.421 205.32,252.235 C203.146,245.913 201.527,244.7 200.819,235.9 C200.769,235.951 200.516,231.45 200.516,229.225 z" fill="#000000"/>
    <path d="M487.913,188.97 C492.01,181.587 496.055,173.799 500,165.657 L305.3,165.657 L305.3,181.839 C309.801,183.053 311.116,182.8 315.616,184.065 C316.729,186.087 325.933,197.466 322.899,207.833 C319.966,217.846 314.302,222.297 312.178,223.915 C307.576,225.887 303.631,228.719 299.484,229.731 C299.484,231.956 299.231,236.457 299.231,236.457 C298.523,245.256 296.905,246.419 294.73,252.791 C294.73,255.977 296.399,261.591 297.916,262.855 C300.496,264.979 301.76,263.664 301.912,264.423 C301.912,281.819 301.912,299.165 301.912,316.562 C302.822,317.573 303.833,318.585 304.946,319.596 C309.598,323.895 314.504,326.524 318.6,328.193 L316.577,275.397 C317.74,275.397 319.005,275.346 320.37,275.194 C323.202,293.855 325.276,314.792 328.057,333.604 C329.068,333.857 330.13,334.11 331.192,334.312 C334.581,334.919 342.369,335.981 355.315,331.076 L335.845,268.772 C337.312,267.659 337.817,266.901 339.385,265.434 C346.06,285.056 353.646,308.925 360.423,328.952 C368.008,325.462 377.162,320.001 387.832,311.656 L348.184,254.612 C349.398,252.892 350.561,251.122 351.674,249.302 L395.924,305.031 C402.296,299.57 409.123,293.147 416.507,285.612 L358.956,234.585 C359.512,233.321 360.069,232.006 360.625,230.691 L424.497,277.065 C431.425,269.581 438.657,261.186 446.091,251.881 L364.115,213.244 C364.671,211.424 365.227,209.654 365.733,207.884 L457.773,236.457 C465.561,225.685 473.45,213.851 481.137,200.753 L367.25,191.954 C367.503,190.74 367.756,189.577 367.958,188.464 L487.913,188.97 z" fill="#000000"/>
    <path d="M250,227 C274.485,227 294.333,246.849 294.333,271.333 C294.333,295.818 274.485,315.667 250,315.667 C225.515,315.667 205.667,295.818 205.667,271.333 C205.667,246.849 225.515,227 250,227 z M250,245.333 C235.641,245.333 224,256.974 224,271.333 C224,285.693 235.641,297.333 250,297.333 C264.359,297.333 276,285.693 276,271.333 C276,256.974 264.359,245.333 250,245.333 z" fill="#000000"/>
    <path d="M250.667,105.333 L279.667,173.333 L261,165.609 L261,222 L239,222 L239,165.949 L220.333,173.333 L250.667,105.333 z" fill="#000000"/>
    <path d="M214.664,310.489 C223.936,320.192 236.747,324.998 250,325.333 C263.357,325.328 275.934,319.891 285.336,310.489 L290.286,333.666 L306.776,327.666 L346.5,434.333 L301.529,381 L288.038,398.333 L276.795,361.666 L264.053,372.333 L250,350.905 L235.947,372.333 L223.205,361.666 L211.962,398.333 L198.471,381 L153.5,434.333 L193.224,327.666 L209.714,333.666 L214.664,310.489 z" fill="#000000"/>
    <path d="M297.358,187.425 L294.173,208.307 C297.899,210.772 301.176,213.795 304.292,216.972 L291.683,230.187 C284.618,223.022 275.769,218.136 266.28,214.986 L266.28,196.478 C271.166,197.569 276.006,198.974 280.602,200.98 L297.358,187.425 z" fill="#000000"/>
    <path d="M202.279,187.425 L219.279,201.177 C223.896,199.066 228.803,197.684 233.72,196.478 L233.72,214.986 C223.469,217.707 214.863,223.635 207.371,230.943 L194.98,217.957 C198.086,214.43 201.824,211.604 205.534,208.765 L202.279,187.425 z" fill="#000000"/>
  </g>
</svg>
