<?xml version="1.0" encoding="UTF-8"?>
<!DOCTYPE svg PUBLIC "-//W3C//DTD SVG 1.1//EN" "http://www.w3.org/Graphics/SVG/1.1/DTD/svg11.dtd">
<svg version="1.1" xmlns="http://www.w3.org/2000/svg" xmlns:xlink="http://www.w3.org/1999/xlink" x="0" y="0" width="500" height="500" viewBox="0, 0, 500, 500">
  <g id="layer101">
    <path d="M178.78,370.6 C176.434,369.921 169.578,368.068 163.65,366.462 C153.584,363.745 152.843,363.436 152.658,362.078 C152.287,358.805 151.917,358.002 150.064,356.952 C147.347,355.285 140.678,354.482 137.652,355.346 C135.675,355.964 134.811,355.902 132.649,355.099 C131.167,354.544 128.882,353.988 127.524,353.803 C126.165,353.679 123.386,352.814 121.348,351.888 C117.952,350.344 117.396,350.283 115.173,350.962 C107.762,353.185 104.242,352.197 101.278,347.071 C99.117,343.304 98.746,338.179 100.475,334.659 C101.71,332.003 101.154,331.077 97.449,330.027 C93.929,328.977 93.497,328.545 91.335,324.284 C90.347,322.369 89.05,320.517 88.495,320.208 C87.877,319.899 84.728,318.849 81.516,317.923 C72.191,315.206 69.165,313.847 67.375,311.5 C66.51,310.327 64.596,308.104 63.175,306.498 C61.693,304.893 60.52,303.102 60.52,302.546 C60.52,301.99 59.779,300.076 58.914,298.347 C57.741,296.062 57.185,293.592 56.691,288.96 C55.703,278.956 55.765,278.77 64.163,263.887 C68.239,256.6 71.636,250.116 71.636,249.56 C71.636,249.005 72.315,247.769 73.056,246.781 C73.859,245.855 76.7,241.1 79.417,236.221 L84.295,227.39 L91.212,222.697 C95.041,220.103 98.252,217.633 98.437,217.201 C99.117,215.41 98.623,215.472 71.018,221.338 C63.052,223.068 53.418,225.105 49.651,225.908 C41.499,227.576 39.894,228.378 37.176,231.713 C35.756,233.504 34.459,234.369 32.545,234.863 C31.124,235.233 28.963,235.913 27.79,236.407 C22.788,238.444 20.441,238.692 17.415,237.518 C15.809,236.962 13.586,235.913 12.536,235.295 C10.869,234.307 10.19,234.245 8.584,234.801 C5.434,235.913 3.149,235.604 1.544,233.936 C0.679,233.134 -0,231.775 -0,230.972 C-0,229.243 2.964,226.032 5.558,224.982 C6.546,224.55 8.028,223.191 8.831,221.956 C10.869,218.868 15.686,215.719 18.341,215.719 C19.515,215.719 22.355,214.731 24.825,213.496 C28.84,211.458 38.35,208.308 46.934,206.085 C48.786,205.653 53.541,204.232 57.432,203.059 C61.323,201.824 65.954,200.465 67.622,199.971 C76.823,197.378 81.269,195.772 87.136,192.684 C90.78,190.77 94.917,189.102 96.523,188.855 C98.128,188.608 99.672,187.991 99.981,187.497 C100.228,186.941 100.105,184.965 99.549,182.803 C98.993,180.148 98.746,176.566 98.931,171.255 C99.117,164.092 99.302,163.227 101.154,159.213 C103.378,154.458 105.23,152.296 109.121,149.641 C112.394,147.418 112.579,147.356 121.657,146.492 C127.833,145.936 129.623,145.565 130.488,144.639 C131.106,144.021 132.217,143.466 132.958,143.466 C133.699,143.466 135.737,143.033 137.405,142.477 C139.134,141.922 141.851,141.304 143.58,141.119 C146.112,140.748 146.791,140.378 147.471,139.019 C148.829,136.178 150.188,135.87 154.387,137.228 C158.525,138.587 159.697,138.463 160.315,136.487 C160.871,134.511 163.712,131.732 165.071,131.732 C165.75,131.732 167.232,132.288 168.343,133.029 C169.517,133.708 170.69,134.141 170.937,133.955 C171.246,133.77 172.543,133.894 173.778,134.264 C175.693,134.82 176.371,134.696 178.101,133.646 C179.83,132.535 180.448,132.473 182.053,133.029 C183.535,133.523 185.017,133.461 188.291,132.72 C194.466,131.3 196.936,131.485 200.764,133.461 C203.668,135.005 204.47,135.129 206.879,134.696 C208.423,134.449 210.461,134.388 211.387,134.573 C212.498,134.82 213.487,134.635 214.166,134.017 C214.722,133.523 216.451,132.967 217.933,132.782 C220.094,132.535 221.144,131.917 222.75,130.188 C224.788,127.965 224.911,127.903 228.061,128.274 C232.816,128.891 234.174,128.891 243.005,128.336 C249.613,127.965 251.403,128.027 252.886,128.768 C254.183,129.447 255.295,129.571 256.591,129.2 C257.641,128.891 259.247,128.891 260.297,129.2 C261.347,129.509 264.496,130.003 267.399,130.188 C276.847,130.929 280.12,133.338 286.419,144.515 C286.975,145.442 287.778,145.936 288.951,145.936 C289.877,145.936 291.174,146.368 291.853,146.862 C292.471,147.356 294.262,147.788 295.682,147.788 C297.411,147.788 298.955,148.221 299.943,149.023 C300.808,149.703 302.167,150.259 302.969,150.259 C303.772,150.259 305.316,151.185 306.551,152.42 C308.651,154.52 308.836,154.581 312.294,154.273 C319.087,153.593 319.581,153.408 322.175,150.691 C323.595,149.27 325.263,147.109 325.88,145.936 C328.227,141.675 330.944,140.687 347.371,138.216 C355.523,136.981 365.342,135.561 369.232,135.067 C378.125,133.955 378.249,134.017 378.743,141.057 C379.298,149.518 380.842,150.629 390.723,149.641 C394.305,149.27 397.763,149.147 398.504,149.394 C399.245,149.641 400.974,149.95 402.333,150.073 C413.387,150.814 419.13,151.617 421.539,152.667 C425.923,154.643 429.876,159.089 431.852,164.462 C432.84,166.994 434.198,170.514 434.878,172.182 C438.954,182.248 441.362,189.473 442.412,194.722 C443.091,197.748 443.338,198.119 444.82,198.304 C445.808,198.427 449.081,197.81 452.231,196.945 C463.717,193.734 472.486,191.696 474.648,191.634 C476.624,191.634 484.713,197.933 492.248,205.344 C494.594,207.691 496.015,209.667 496.447,211.211 C496.818,212.507 497.373,219.424 497.744,226.526 C498.053,233.689 498.485,240.482 498.67,241.656 C498.856,242.829 499.288,250.425 499.659,258.577 C500.338,274.509 500.214,275.93 497.312,277.782 C496.015,278.647 463.594,289.948 443.091,296.679 C439.015,298.038 434.878,299.397 433.828,299.767 C432.84,300.138 429.629,301.249 426.726,302.299 C423.824,303.287 420.983,304.399 420.427,304.707 C418.636,305.696 419.13,306.992 421.786,308.351 C423.144,309.03 425.614,310.821 427.344,312.365 C429.073,313.909 430.678,315.144 430.987,315.144 C431.234,315.144 431.79,315.823 432.16,316.688 C433.025,318.541 432.222,321.196 430.617,321.69 C429.999,321.937 426.85,323.11 423.638,324.407 C417.092,327.063 393.687,334.906 392.576,334.906 C392.143,334.844 392.699,334.473 393.687,333.979 C395.293,333.238 395.355,333.176 394.181,333.115 C392.39,333.053 389.611,334.103 388.129,335.523 C386.647,336.82 381.769,338.92 365.836,344.786 L354.102,349.109 L341.504,346.021 C326.374,342.254 319.89,339.475 319.89,336.82 C319.89,334.967 321.558,333.176 324.707,331.571 C325.757,331.015 326.683,330.274 326.683,329.903 C326.683,328.915 322.793,324.593 320.384,322.802 C318.47,321.381 318.038,321.32 312.788,321.628 L307.23,322.061 L303.031,319.467 C299.202,317.182 298.523,316.935 296.238,317.367 C294.818,317.552 291.421,318.788 288.704,319.961 C284.813,321.69 282.59,322.246 278.206,322.616 C275.18,322.863 271.721,323.357 270.548,323.728 C269.375,324.098 268.263,324.284 268.14,324.098 C268.016,323.975 268.819,323.604 269.93,323.357 C272.771,322.616 273.203,321.011 270.425,321.628 C267.213,322.369 259.864,324.84 257.827,325.889 C256.838,326.445 255.295,326.877 254.43,326.939 C252.083,327.001 250.725,327.68 249.922,329.286 C249.428,330.15 248.007,331.077 245.97,331.756 C244.24,332.374 241.647,333.547 240.288,334.473 C238.93,335.338 236.151,336.635 234.112,337.376 C229.852,338.796 224.788,342.007 224.788,343.242 C224.788,343.737 225.158,344.416 225.59,344.725 C225.961,345.095 227.505,346.33 228.925,347.565 C235.224,353 232.692,355.717 216.451,360.843 C210.399,362.757 204.409,364.918 199.468,367.018 C192.366,369.982 186.438,371.958 184.708,371.897 C183.844,371.897 181.189,371.279 178.78,370.6 z" fill="#000000"/>
  </g>
</svg>
