<?xml version="1.0" encoding="UTF-8"?>
<!DOCTYPE svg PUBLIC "-//W3C//DTD SVG 1.1//EN" "http://www.w3.org/Graphics/SVG/1.1/DTD/svg11.dtd">
<svg version="1.1" xmlns="http://www.w3.org/2000/svg" xmlns:xlink="http://www.w3.org/1999/xlink" x="0" y="0" width="500" height="500" viewBox="0, 0, 500, 500">
  <g id="layer101">
    <path d="M258.086,485.772 C235.08,482.452 232.709,479.843 235.555,458.497 C238.875,430.986 225.119,393.275 207.806,382.366 C202.825,379.282 198.793,374.776 198.793,372.404 C198.793,368.135 197.133,365.289 185.037,346.316 C176.499,333.034 168.198,328.765 161.795,334.22 C156.814,338.489 142.821,360.309 140.687,367.424 C139.738,370.507 135.943,376.436 132.386,380.231 C118.63,395.173 115.072,411.775 120.527,434.78 C121.95,441.184 121.95,446.876 120.053,452.568 C115.309,467.747 113.886,468.458 79.496,470.119 C62.183,471.067 46.293,471.067 43.921,470.119 C33.011,466.087 35.62,451.145 48.664,440.71 C53.645,436.915 55.068,433.832 54.594,428.851 C53.882,423.87 56.017,419.601 62.657,412.249 C72.619,401.339 72.381,403.237 68.112,360.072 C65.978,337.777 64.318,329.002 60.997,324.733 C58.388,321.65 56.491,316.906 56.491,314.06 C56.491,307.894 63.132,288.92 66.689,284.651 C68.112,282.754 69.061,278.248 68.824,274.453 C68.349,268.761 70.01,266.626 77.836,261.646 C84.951,257.139 87.323,254.056 87.323,249.313 C87.323,245.044 90.169,240.3 95.861,235.083 C102.976,228.679 104.162,226.307 102.976,220.852 C100.368,210.417 93.252,202.353 87.086,202.59 C84.003,202.827 70.721,204.962 57.677,207.334 C38.703,210.654 32.537,212.789 26.133,218.243 C16.883,226.07 11.429,226.544 5.499,220.141 C1.467,215.635 0.519,208.757 1.705,195.238 C1.942,192.629 1.467,187.411 0.519,183.854 C-0.667,178.636 0.044,175.79 4.076,171.995 C6.922,169.149 11.429,163.694 14.037,160.137 C16.883,156.342 23.999,151.124 29.691,148.278 C38.229,144.009 41.075,141.163 43.684,133.574 C45.344,127.881 51.036,120.055 57.44,114.363 C63.132,109.145 68.349,102.267 68.824,98.947 C69.061,95.863 71.907,92.306 74.516,91.12 C79.496,88.985 84.951,77.838 84.951,70.012 C84.951,65.268 86.849,64.083 96.81,62.422 C105.822,60.762 111.04,57.442 111.04,52.936 C111.04,47.955 134.994,14.04 139.501,12.617 C145.193,10.719 153.019,14.751 154.68,20.443 C156.577,26.135 151.122,39.417 140.924,53.647 C131.674,66.691 126.931,78.076 127.879,84.005 C128.354,86.614 127.879,89.934 126.931,91.357 C125.508,93.492 126.219,93.966 129.302,92.78 C134.994,90.646 139.501,85.902 139.501,82.108 C139.501,80.447 141.161,76.89 143.058,74.518 C144.956,71.909 146.616,67.64 146.616,65.268 C146.616,62.66 149.462,56.019 153.019,50.327 L159.66,40.128 L174.602,39.891 C188.121,39.891 190.018,40.603 197.845,47.718 C205.197,54.596 206.383,56.967 207.569,70.249 C208.992,84.954 208.992,84.954 216.344,84.954 C226.542,84.954 228.44,86.851 233.42,101.318 C236.978,111.042 241.01,116.734 251.445,125.747 C267.573,139.74 272.316,148.99 272.316,165.829 C272.316,176.264 273.976,181.245 282.277,195.001 C287.495,204.25 296.27,215.872 301.488,220.852 C310.738,229.865 310.738,230.102 309.315,242.909 C307.655,257.614 309.552,259.748 322.834,257.139 C330.186,255.716 338.25,250.736 372.165,226.782 C403.709,204.25 492.173,145.669 495.731,144.721 C499.526,143.772 500,145.432 500,158.714 L500,173.893 L481.026,192.155 C470.591,202.353 458.021,213.263 453.277,216.583 C448.297,219.666 435.015,229.628 423.631,238.403 C412.01,247.415 392.325,262.357 379.28,271.844 L356.037,288.92 L354.852,300.779 C353.429,315.721 347.262,322.836 329.949,329.239 C314.058,335.169 311.212,335.169 291.053,329.002 C278.008,324.97 274.451,322.836 273.265,318.567 C271.13,309.554 273.028,304.811 281.092,299.593 C294.847,291.055 290.341,278.959 271.13,273.504 C257.137,269.472 248.599,261.171 248.599,252.159 C248.599,246.23 231.76,223.936 224.645,219.904 C218.241,216.583 216.818,221.327 219.427,239.589 C221.325,254.293 221.325,254.531 229.625,255.716 C238.638,256.902 238.401,256.665 243.381,287.972 C244.804,296.035 248.362,304.336 254.054,312.163 C266.861,329.951 270.182,339.912 268.521,352.956 C267.098,363.392 268.996,375.488 277.534,410.589 C278.72,415.569 283.463,423.87 288.207,429.088 C294.136,435.729 296.27,439.761 295.322,443.318 C294.373,446.876 295.322,448.773 298.405,449.485 C301.014,450.196 304.334,454.94 306.469,461.581 C311.449,475.574 311.212,479.368 305.994,484.112 C301.251,488.381 282.515,489.092 258.086,485.772 z" fill="#000000"/>
  </g>
</svg>
