<?xml version="1.0" encoding="UTF-8"?>
<!DOCTYPE svg PUBLIC "-//W3C//DTD SVG 1.1//EN" "http://www.w3.org/Graphics/SVG/1.1/DTD/svg11.dtd">
<svg version="1.1" xmlns="http://www.w3.org/2000/svg" xmlns:xlink="http://www.w3.org/1999/xlink" x="0" y="0" width="500" height="500" viewBox="0, 0, 500, 500">
  <g id="layer101">
    <path d="M234.582,411.513 C223.078,408.191 179.217,395.641 137.077,383.584 C94.938,371.526 59.935,361.438 59.197,361.13 C57.536,360.392 31.883,338.369 31.883,337.692 C31.883,337.384 30.222,335.477 28.192,333.509 C25.178,330.617 24.501,329.572 24.501,327.972 C24.501,326.25 24.255,325.942 22.594,325.573 C21.056,325.265 20.379,324.527 18.595,321.021 C16.381,316.53 16.073,314.992 17.18,312.962 C17.796,311.855 17.673,311.486 16.442,310.501 C15.643,309.886 14.597,309.086 14.166,308.779 C13.12,307.856 13.243,301.397 14.412,297.952 C15.273,295.368 15.273,294.938 14.351,292.661 L13.366,290.201 L15.889,287.863 C18.288,285.648 18.349,285.525 18.288,281.65 C18.165,275.375 17.919,274.883 13.12,272.607 C5.554,268.977 1.617,263.81 0.755,256.366 C-0.167,248.492 3.032,242.217 8.445,241.356 C9.798,241.11 10.967,240.741 10.967,240.433 C10.967,240.126 9.921,239.203 8.568,238.403 C5.554,236.496 1.494,230.406 0.509,226.284 C-0.413,222.47 -0.044,216.257 1.309,213.673 C1.863,212.628 3.524,210.228 5.123,208.321 C7.399,205.492 8.507,204.692 11.09,203.892 C15.089,202.723 18.903,202.723 20.441,203.892 C22.225,205.246 22.902,205.061 25.239,202.723 C28.869,199.094 36.866,197.802 40.065,200.324 C40.988,201.062 42.587,201.862 43.571,202.047 C46.893,202.785 52.184,210.905 52.184,215.211 C52.184,216.626 54.214,218.472 55.321,218.041 C55.813,217.795 57.72,215.826 59.566,213.612 C61.411,211.397 66.21,206.291 70.147,202.17 L77.344,194.788 L82.758,195.28 C85.711,195.526 89.279,195.772 90.632,195.772 L93.093,195.895 L93.277,192.45 C93.462,189.436 93.216,188.759 91.555,186.729 C89.463,184.022 89.34,183.468 90.693,181.561 C91.801,179.962 94.384,179.777 96.415,181.192 C98.322,182.546 100.106,186.667 100.167,189.743 C100.167,191.097 100.475,192.635 100.782,193.127 C101.951,194.849 103.243,192.081 103.243,187.836 C103.243,184.576 102.997,183.776 101.397,181.746 C99.306,179.162 99.121,177.686 100.536,176.271 C101.767,175.041 104.719,174.979 105.704,176.209 C106.872,177.563 107.734,177.317 108.903,175.287 C110.256,172.949 112.655,172.826 115.485,174.918 C117.515,176.455 117.515,176.455 118.807,175.225 C120.529,173.626 121.821,173.749 124.097,175.656 C126.681,177.809 127.358,179.224 128.157,183.899 L128.834,187.898 L133.448,187.959 C138.062,188.021 140.768,187.098 140.768,185.56 C140.768,183.961 145.567,177.44 147.597,176.209 C149.258,175.225 150.796,174.979 155.533,174.979 C160.331,174.918 161.869,174.671 163.96,173.564 C168.02,171.473 173.249,171.657 177.617,174.118 C179.524,175.164 181.554,176.455 182.108,176.948 C183.707,178.363 189.551,177.747 191.397,176.025 C192.197,175.287 193.366,174.671 194.042,174.671 C194.719,174.671 195.826,174.302 196.441,173.81 C197.487,173.072 197.672,172.026 197.795,165.628 C197.856,161.63 198.102,156.585 198.348,154.371 C198.902,149.203 197.426,95.991 196.626,91.931 C195.396,85.472 195.396,84.487 196.441,83.442 C196.995,82.826 198.102,82.396 198.964,82.396 C200.686,82.396 201.363,84.241 200.871,87.809 C200.44,91.377 201.67,144.713 202.347,151.295 C202.655,154.494 203.208,160.4 203.454,164.398 C203.762,168.397 204.377,172.026 204.746,172.518 C205.915,173.872 207.884,173.626 210.59,171.78 C214.035,169.443 218.588,169.135 222.094,170.98 C223.817,171.903 227.446,172.764 232.429,173.503 C242.395,174.979 244.486,174.979 246.393,173.441 C248.116,172.088 249.961,171.842 250.576,172.826 C250.761,173.195 252.176,173.441 253.591,173.441 C255.375,173.441 256.79,173.872 257.959,174.795 C260.788,177.009 268.478,177.932 275.306,176.825 C278.505,176.332 278.567,176.394 280.535,178.547 C281.889,179.962 283.796,181.131 286.133,181.931 C290.809,183.468 296.776,189.128 297.391,192.511 C297.637,193.68 298.129,195.095 298.56,195.587 C299.052,196.079 299.544,197.187 299.79,198.048 C299.975,198.909 300.713,200.263 301.328,201.124 L302.558,202.662 L303.912,201.001 C306.742,197.74 311.109,194.972 313.57,194.972 C314.8,194.972 316.4,194.542 317.077,194.049 C318.43,193.004 320.891,192.881 323.044,193.68 C323.966,194.049 325.566,194.049 327.165,193.68 C329.011,193.25 330.795,193.311 333.071,193.803 C335.409,194.357 337.008,194.357 338.854,193.865 C341.868,193.127 344.944,193.803 346.543,195.587 C347.158,196.264 348.081,196.818 348.635,196.818 C349.188,196.818 350.726,197.371 352.08,198.048 C353.433,198.725 355.402,199.278 356.509,199.278 C358.724,199.278 359.277,199.709 361.184,203.277 C362.23,205.061 363.091,205.799 364.691,206.23 C365.86,206.476 368.505,207.276 370.535,207.891 C375.702,209.49 382.223,210.474 384.684,209.982 C386.037,209.736 387.698,209.921 389.113,210.474 C391.02,211.213 391.758,211.274 393.235,210.659 C394.711,210.044 395.572,210.044 397.541,210.659 C398.956,211.09 402.708,211.828 405.907,212.197 C409.106,212.628 412.12,213.243 412.551,213.55 C413.535,214.412 413.474,217.857 412.428,219.271 C411.628,220.379 410.706,220.502 402.708,220.563 C394.957,220.625 393.665,220.502 391.881,219.394 C390.036,218.349 389.544,218.287 386.652,218.964 C381.054,220.256 378.655,220.317 374.349,219.333 C370.043,218.349 365.183,218.041 364.506,218.718 C364.322,218.964 364.814,219.641 365.614,220.317 C367.459,221.732 367.644,224.254 366.106,227.392 C365.244,229.237 365.244,229.606 365.983,230.098 C367.275,230.898 369.182,230.775 371.765,229.668 C373.918,228.807 374.164,228.807 375.395,229.914 C376.071,230.591 377.548,231.575 378.594,232.129 C380.624,233.113 383.392,233.728 397.295,236.127 C399.14,236.435 401.478,236.988 402.401,237.357 C403.385,237.727 404.923,238.034 405.846,238.034 C406.83,238.034 408.245,238.526 409.045,239.141 C409.844,239.757 411.321,240.556 412.244,240.987 C413.228,241.418 416.796,243.509 420.179,245.724 C423.624,247.938 427.008,249.722 427.684,249.722 C428.361,249.722 429.53,250.338 430.391,251.076 C431.191,251.876 432.975,252.737 434.39,253.106 C436.358,253.598 437.343,254.275 438.573,256.182 C440.111,258.458 445.094,262.21 453.398,267.316 C464.164,273.96 478.067,283.311 479.359,284.787 C480.774,286.51 480.835,286.879 480.528,293.092 L480.158,299.551 L482.865,302.32 C484.957,304.411 486.003,305.088 487.54,305.088 C489.078,305.088 489.878,305.642 491.539,307.733 C494.984,311.978 495.722,313.516 495.722,316.161 C495.722,318.314 495.968,318.745 497.383,319.298 C498.306,319.667 499.29,320.283 499.536,320.652 C500.336,321.882 500.029,331.11 499.167,333.078 C498.491,334.616 498.552,335.231 499.29,336.892 C500.152,338.738 500.152,338.922 497.752,342.736 C496.399,344.828 494.369,347.227 493.2,348.027 C492.031,348.827 490.739,350.241 490.309,351.287 C489.817,352.579 488.648,353.502 486.741,354.302 C485.203,354.978 483.603,355.532 483.173,355.532 C482.804,355.532 481.327,356.086 480.035,356.762 C476.59,358.546 464.164,362.237 460.411,362.606 C458.689,362.791 442.264,363.898 423.87,365.129 C392.004,367.159 390.22,367.22 384.684,366.297 C377.609,365.19 375.149,365.129 375.087,366.174 C375.087,366.543 375.087,369.066 375.149,371.649 C375.21,376.325 374.534,378.724 372.934,379.708 C371.95,380.262 371.765,383.584 372.688,384.137 C373.057,384.322 372.38,386.29 371.15,388.813 C369.182,392.688 368.628,393.242 365.614,394.718 C363.768,395.641 362.107,396.871 361.923,397.425 C361.184,399.701 357.493,401.731 345.251,406.591 C338.177,409.359 331.841,412.005 331.164,412.435 C330.487,412.866 327.719,413.42 325.012,413.604 C317.446,414.219 259.435,417.664 257.343,417.603 C256.359,417.603 246.086,414.834 234.582,411.513 z M111.732,185.437 C111.855,182.915 110.563,178.978 109.579,178.978 C109.087,178.978 109.764,184.576 110.563,186.544 C110.933,187.467 111.302,188.205 111.363,188.205 C111.486,188.205 111.609,186.975 111.732,185.437 z M119.914,183.099 C119.114,182.3 118.991,183.776 119.668,185.56 C120.099,186.544 120.16,186.483 120.345,185.191 C120.468,184.391 120.283,183.468 119.914,183.099 z" fill="#000000"/>
  </g>
</svg>
