<?xml version="1.0" encoding="UTF-8"?>
<!DOCTYPE svg PUBLIC "-//W3C//DTD SVG 1.1//EN" "http://www.w3.org/Graphics/SVG/1.1/DTD/svg11.dtd">
<svg version="1.1" xmlns="http://www.w3.org/2000/svg" xmlns:xlink="http://www.w3.org/1999/xlink" x="0" y="0" width="500" height="500" viewBox="0, 0, 500, 500">
  <g id="layer101">
    <path d="M337.696,499.272 C334.62,498.589 330.861,495.513 329.921,492.95 C329.152,490.985 331.032,485.261 333.339,482.27 C334.962,480.305 335.047,479.365 334.535,473.641 C334.193,469.711 332.741,464.072 330.946,459.117 C327.187,448.779 327.102,448.608 324.88,447.582 C322.403,446.472 320.95,441.858 321.548,437.33 C321.975,434.681 321.719,433.4 320.865,432.631 C320.267,432.118 319.583,430.837 319.412,429.897 C319.071,427.505 317.191,426.906 316.422,428.872 C316.08,429.726 315.397,431.007 314.713,431.776 C313.261,433.571 308.135,440.406 307.451,441.516 C307.195,442.029 306.426,445.361 305.828,448.864 C304.375,457.322 298.822,469.369 294.208,474.325 C293.61,474.923 293.268,476.29 293.439,477.315 C293.695,478.34 294.294,481.16 294.806,483.466 C295.917,488.764 294.635,493.634 291.389,495.94 C289.424,497.393 288.057,497.478 272.165,496.709 C244.312,495.342 242.86,495.171 240.126,492.608 C237.819,490.472 237.734,490.045 238.332,486.2 C238.844,483.125 239.784,481.245 242.262,478.767 C245.765,475.179 247.132,474.666 255.078,474.068 C259.349,473.726 260.546,473.214 262.852,470.907 C265.416,468.258 265.586,467.746 265.159,463.645 C264.817,460.313 265.159,458.006 266.441,454.674 C267.381,452.196 268.406,447.753 268.662,444.763 C268.918,441.858 269.773,438.27 270.456,436.903 C271.14,435.536 271.738,433.485 271.738,432.289 C271.738,430.922 272.421,429.726 273.788,429.042 C278.317,426.65 283.956,417.594 290.791,401.873 C291.73,399.737 292.072,396.491 292.499,385.64 C292.585,382.564 293.012,379.488 293.354,378.719 C293.695,378.036 293.866,372.824 293.781,367.185 L293.525,357.018 L290.193,367.271 C288.398,372.91 285.835,380.77 284.554,384.785 C283.187,388.801 282.161,393.073 282.161,394.269 C282.247,396.747 279.598,404.607 273.874,418.961 C271.738,424.343 269.26,432.374 268.32,436.817 C267.381,441.431 265.843,446.13 264.647,447.924 C261.742,452.452 261.4,453.819 262.34,457.408 C262.938,459.715 262.852,461.936 262.083,465.61 C260.973,470.394 260.802,470.651 258.239,470.907 C256.445,471.078 255.505,471.676 255.419,472.616 C255.334,473.385 254.992,472.018 254.65,469.455 C254.223,466.977 253.54,464.499 253.112,464.072 C251.575,462.534 243.714,462.278 240.211,463.73 C235.939,465.354 233.718,464.755 231.497,461.167 C229.361,457.664 228.677,457.664 218.51,460.484 C209.197,463.047 206.122,464.841 204.327,468.6 C203.558,470.224 202.021,471.761 200.824,472.103 C191.853,474.752 164.94,478.426 160.583,477.571 C158.874,477.315 156.055,475.777 154.175,474.154 C152.381,472.616 149.989,471.078 148.964,470.736 C146.059,469.796 142.727,466.806 142.727,465.183 C142.727,463.132 145.033,461.338 149.305,460.142 C154.09,458.775 157.251,454.93 157.251,450.487 C157.251,447.924 157.934,446.472 160.241,443.909 C161.95,441.944 163.488,439.039 164.001,436.817 C164.513,434.767 164.94,424.77 164.94,414.689 C164.94,403.582 165.453,392.133 166.222,386.067 C168.443,368.296 167.845,342.75 164.513,307.464 C163.83,300.458 163.061,290.035 162.719,284.396 C161.779,264.574 154.944,224.162 152.552,224.162 C151.783,224.162 149.562,229.374 148.707,233.218 C148.195,235.525 147.682,242.788 147.511,249.366 C147.255,259.875 146.998,261.84 145.204,265.599 C143.068,270.128 142.47,277.817 143.837,284.225 C144.435,286.959 144.264,287.642 142.385,289.522 C139.822,292.085 135.891,292.342 133.926,290.12 C132.132,288.155 132.047,283.541 133.841,278.757 C134.781,276.023 135.379,269.615 135.891,255.432 C136.319,244.667 136.49,235.525 136.233,235.184 C136.062,234.842 136.575,231.168 137.344,226.982 C138.54,221.001 138.882,215.875 138.711,201.863 C138.54,192.208 138.027,181.87 137.6,178.794 C137.088,175.804 136.404,171.191 136.062,168.627 C135.379,163.928 133.926,160.169 132.132,159.058 C130.509,157.948 126.75,158.289 125.639,159.656 C124.357,161.194 118.975,160.767 113.08,158.717 C107.355,156.666 107.27,155.812 112.225,151.454 C118.889,145.559 124.614,143.167 126.066,145.559 C127.177,147.268 129.142,146.328 131.705,142.825 L134.268,139.151 L145.119,138.98 C163.488,138.639 169.383,138.809 171.69,139.749 C175.62,141.202 183.48,139.749 186.727,136.93 C188.265,135.563 190.743,134.025 192.195,133.512 C194.417,132.743 194.844,132.145 194.844,129.668 C194.844,126.506 193.733,125.652 188.778,124.712 C185.018,124.029 183.395,122.32 183.993,119.842 C184.42,118.219 184.249,118.048 181.345,118.561 C166.905,120.697 163.317,120.782 158.618,118.988 C155.115,117.706 153.833,116.766 153.663,115.399 C153.406,113.776 152.979,113.52 149.818,113.776 C145.546,114.118 141.274,112.067 140.163,109.333 C139.651,107.796 138.54,107.112 135.806,106.685 C131.62,105.916 125.297,102.755 122.136,99.764 C120.94,98.654 119.573,97.714 119.146,97.714 C118.633,97.714 117.351,96.689 116.155,95.492 L114.105,93.271 L116.155,91.648 C118.035,90.11 119.744,90.024 141.787,90.024 C163.232,90.024 165.709,89.854 169.041,88.316 C172.288,86.863 172.63,86.351 172.63,83.787 C172.63,78.917 170.579,77.38 162.292,75.927 C152.979,74.304 148.707,72.937 147.511,70.972 C146.315,69.092 147.596,68.238 152.466,67.554 C156.824,66.956 163.232,64.308 165.197,62.257 C167.333,60.207 166.991,57.473 164.001,53.03 C161.267,48.929 161.01,45.853 163.232,44.742 C163.915,44.315 166.137,43.375 168.187,42.521 C173.997,40.129 175.706,35.259 173.057,28.082 C172.374,26.202 171.861,23.383 171.775,21.93 C171.775,18.598 172.972,18.342 177.585,20.734 C182.882,23.468 187.923,24.664 189.034,23.554 C189.547,23.041 190.401,17.488 190.914,11.251 C192.024,-2.505 192.793,-3.018 198.005,6.295 C204.925,18.598 205.951,19.965 208.257,19.965 C209.539,19.965 211.76,18.769 213.726,16.975 C215.605,15.352 217.656,13.985 218.339,13.985 C219.023,13.985 220.988,16.804 222.782,20.136 C227.652,29.363 232.436,31.841 240.98,29.363 C243.287,28.68 244.227,28.765 245.167,29.705 C246.192,30.73 246.107,31.67 244.825,36.455 C243.629,41.068 243.543,42.521 244.398,45.084 C245.765,49.356 248.072,50.637 256.786,52.004 C266.526,53.628 267.466,53.97 267.466,55.849 C267.466,57.045 265.757,58.327 260.887,60.548 C253.198,64.137 251.233,65.675 251.233,68.238 C251.233,70.288 257.641,80.541 259.264,81.139 C259.862,81.395 263.536,80.626 267.466,79.43 C271.482,78.319 277.206,76.867 280.196,76.354 C288.655,74.816 295.319,72.51 298.224,70.032 C303.777,65.418 306.426,68.665 301.641,74.133 C300.189,75.756 297.967,79.259 296.6,81.908 C293.525,87.888 281.734,100.96 275.583,104.976 C271.652,107.625 269.858,108.137 262.596,109.077 C254.309,110.102 254.223,110.102 253.796,112.665 C253.454,114.631 252.344,115.741 248.67,117.792 C244.996,119.842 243.885,120.868 243.714,122.747 C243.287,125.994 244.654,127.275 248.67,127.873 C250.464,128.13 253.198,129.155 254.736,130.18 C257.128,131.974 257.982,132.06 263.963,131.547 C278.744,130.266 284.126,129.326 286.433,127.617 C290.278,124.798 293.183,123.943 299.932,123.772 C303.435,123.602 308.989,122.918 312.236,122.064 L318.045,120.611 L323.172,123.26 C329.067,126.25 330.776,126.506 333.766,124.541 C335.731,123.174 336.073,123.26 341.455,125.908 C352.135,131.12 352.391,133.598 343.079,137.955 C338.038,140.347 337.525,140.433 333.766,139.408 C329.836,138.382 329.75,138.382 327.102,141.031 C325.308,142.911 324.539,144.448 324.624,146.157 C325.649,169.225 324.282,186.484 320.523,196.822 C313.944,214.678 313.517,216.216 313.517,225.358 C313.517,230.057 312.919,238.601 312.236,244.24 C308.135,279.44 306.682,291.231 306.255,293.111 C305.742,294.99 305.913,295.161 307.707,294.905 C310.1,294.563 312.663,290.035 312.748,285.848 C312.748,281.576 315.824,276.536 320.01,273.545 C323.684,270.982 324.88,268.419 323.001,267.308 C322.574,267.052 322.146,265.343 322.146,263.549 C322.146,259.363 324.197,257.483 328.811,257.483 C333.424,257.483 335.56,259.533 336.244,264.916 C337.098,271.238 337.354,271.751 341.37,275.51 C344.873,278.842 345.984,280.893 347.265,286.703 C347.778,288.924 354.1,294.221 356.236,294.221 C357.945,294.221 358.97,290.718 359.825,281.235 C360.337,275.938 361.021,271.238 361.448,270.726 C362.302,269.615 364.011,253.04 364.011,245.351 C364.011,242.104 365.036,231.595 366.232,221.855 C368.197,206.562 368.796,203.657 370.846,199.898 C373.324,195.455 375.801,194.088 378.108,195.968 C379.39,197.078 379.561,194.942 375.374,240.822 C373.751,259.192 372.298,276.621 372.042,279.697 C371.871,282.773 371.53,287.984 371.188,291.231 C370.931,294.563 370.761,299.006 370.761,301.313 C370.761,303.534 370.846,306.781 370.846,308.575 C370.931,310.284 370.846,313.018 370.675,314.641 C370.419,317.289 370.675,317.631 373.153,318.315 C376.229,319.084 377.767,321.049 379.475,326.26 C380.073,328.14 381.013,330.276 381.611,330.96 C382.124,331.643 382.893,333.437 383.149,334.89 C383.491,336.342 384.687,338.478 385.883,339.503 C387.079,340.699 387.934,342.494 387.934,343.775 C387.934,345.057 388.788,347.962 389.728,350.183 C393.487,358.556 390.668,366.673 382.124,372.055 C376.827,375.387 372.042,375.985 363.755,374.02 L356.92,372.482 L354.955,375.046 C351.879,378.89 350.341,382.564 350.341,386.323 C350.341,391.193 351.964,392.475 358.03,392.475 C364.096,392.475 365.036,393.415 366.66,401.702 C367.685,406.572 367.685,407.427 366.318,409.733 C365.549,411.1 364.865,413.578 364.865,415.116 C364.865,419.388 364.096,420.584 361.021,421.182 C358.799,421.609 358.116,422.207 357.689,424.172 C357.432,425.539 357.689,427.675 358.201,429.042 C359.483,431.947 360.764,447.582 360.593,457.92 C360.508,462.876 360.935,467.404 361.79,470.309 C362.559,472.787 363.157,476.29 363.157,477.998 C363.157,479.793 363.498,482.185 363.926,483.296 C364.524,484.833 364.353,485.859 363.498,487.226 C362.729,488.251 362.302,489.874 362.388,490.985 C362.644,492.95 359.056,497.478 355.724,499.187 C353.673,500.212 342.053,500.298 337.696,499.272 z M220.475,171.789 C222.953,170.507 223.893,166.321 221.842,165.552 C220.475,165.039 209.795,166.15 201.252,167.773 C195.784,168.798 192.281,168.029 192.281,165.808 C192.281,163.587 195.784,160.084 197.919,160.084 C199.714,160.084 199.97,159.742 199.97,156.751 C199.97,154.957 199.457,153.078 198.859,152.565 C197.663,151.54 183.908,151.882 176.902,153.078 C171.519,153.932 171.348,156.153 176.304,160.682 C181.772,165.722 187.325,168.713 195.613,170.849 C203.986,173.07 216.972,173.583 220.475,171.789 z M240.895,166.833 C242.604,166.235 243.543,165.381 243.373,164.526 C243.202,163.757 242.86,163.245 242.518,163.33 C242.091,163.501 240.724,163.757 239.271,164.014 C236.879,164.526 236.025,165.893 237.306,167.175 C237.99,167.944 237.648,167.944 240.895,166.833 z M269.517,154.872 C281.222,149.147 285.921,142.483 277.548,143.423 C275.497,143.594 269.858,144.192 264.903,144.705 C259.947,145.217 253.711,146.072 251.062,146.584 C246.534,147.439 246.107,147.695 246.107,149.746 C246.107,153.163 247.815,154.957 252.6,156.666 C259.179,158.973 261.656,158.717 269.517,154.872 z M192.024,116.51 C192.195,116.51 192.281,115.741 192.281,114.801 C192.281,112.58 191.084,112.665 187.923,114.887 C184.847,117.108 185.446,118.39 189.119,117.279 C190.572,116.852 191.939,116.51 192.024,116.51 z M205.865,117.45 C206.72,116.852 206.549,116.425 205.011,115.399 C203.986,114.631 202.789,114.203 202.362,114.46 C201.337,115.143 201.508,117.194 202.789,117.621 C204.327,118.304 204.584,118.304 205.865,117.45 z M235.427,113.947 C236.623,110.102 232.266,109.163 229.104,112.58 C226.968,114.887 227.566,115.485 232.18,115.57 C234.145,115.656 235,115.229 235.427,113.947 z M207.659,93.1 C207.659,90.793 206.89,90.11 202.533,88.572 C194.417,85.667 192.195,88.743 199.543,92.758 C205.096,95.834 207.659,95.92 207.659,93.1 z M231.497,87.034 C236.537,81.224 235.939,77.038 230.386,78.917 C227.908,79.686 227.396,80.284 227.737,81.481 C227.994,82.335 227.737,83.958 227.225,85.154 C226.199,87.376 226.627,90.024 228.079,90.024 C228.506,90.024 230.044,88.657 231.497,87.034 z M191.426,56.02 C193.989,54.739 194.417,54.14 194.246,51.834 C193.989,49.356 194.502,48.758 198.774,45.938 L203.558,42.777 L208.001,44.144 C210.479,44.999 213.726,45.597 215.263,45.597 C217.912,45.597 217.912,45.597 216.545,43.461 C215.776,42.35 215.007,39.958 214.922,38.164 C214.494,34.148 213.042,33.037 206.89,32.268 C195.784,30.901 188.009,35.002 188.009,42.435 C188.009,44.401 187.411,47.903 186.727,50.21 C185.36,54.653 185.702,57.558 187.411,57.558 C188.009,57.473 189.803,56.789 191.426,56.02 z" fill="#000000"/>
  </g>
</svg>
