<?xml version="1.0" encoding="UTF-8"?>
<!DOCTYPE svg PUBLIC "-//W3C//DTD SVG 1.1//EN" "http://www.w3.org/Graphics/SVG/1.1/DTD/svg11.dtd">
<svg version="1.1" xmlns="http://www.w3.org/2000/svg" xmlns:xlink="http://www.w3.org/1999/xlink" x="0" y="0" width="500" height="500" viewBox="0, 0, 500, 500">
  <g id="layer101">
    <path d="M84.478,498.402 C80.379,497.416 78.571,493.942 78.666,487.044 C78.745,481.473 79.293,480.286 83.998,475.842 C86.955,473.097 91.412,467.454 93.861,463.111 C97.529,456.926 99.28,455.093 103.41,453.824 C114.207,450.26 119.896,441.982 118.581,431.615 C118.102,427.893 117.926,421.522 118.247,417.546 C119.077,405.617 118.773,398.848 117.31,389.673 C114.737,374.511 114.536,369.866 116.119,360.999 C117.695,352.662 117.704,351.999 114.718,347.314 C112.899,344.635 111.226,340.897 110.724,338.899 C110.222,336.77 107.481,333.547 103.543,330.573 C94.087,323.675 92.793,321.268 94.249,312.135 C94.982,307.103 96.495,303.277 99.058,300.261 C107.018,290.821 112.032,283.328 111.386,282.125 C110.866,281.322 109.414,280.77 107.955,280.75 C106.628,280.732 104.39,279.506 103.215,278.164 C101.907,276.818 98.901,273.592 96.68,271.04 C94.328,268.486 91.086,263.135 89.285,259.128 C85.817,250.987 83.726,248.703 75.427,244.473 C66.995,240.243 62.288,235.268 62.349,230.89 C62.377,228.9 63.071,226.789 63.74,226.4 C66.147,224.974 65.308,218.594 61.935,213.107 C56.75,204.41 58.421,198.728 66.537,197.118 C73.055,195.883 80.268,192.401 81.764,189.769 C82.853,187.793 82.476,186.329 80.264,183.247 C74.669,175.341 75.257,171.236 85.2,152.8 C91.873,140.556 94.208,134.883 94.263,130.904 C94.341,125.333 95.557,123.759 101.42,121.982 C103.953,121.09 105.972,118.995 107.751,115.172 L110.351,109.503 L107.052,108.264 C105.205,107.442 103.223,106.883 102.56,106.874 C101.896,106.864 99.783,106.172 97.939,105.217 C93.985,103.437 93.524,98.389 97.141,95.919 C101.428,92.927 101.581,91.471 99.712,73.401 C97.247,50.414 97.243,50.679 93.331,45.848 C89.287,40.882 89.831,39.962 99.601,33.863 C107.229,29.194 108.456,26.822 105.73,22.538 C103.394,18.791 103.259,9.502 105.672,7.679 C106.48,6.894 109.015,5.868 111.144,5.367 C114.604,4.62 115.526,5.163 120.355,10.803 C126.489,18.053 129.804,18.232 131.23,11.087 C131.807,7.779 133.158,6.073 136.494,4.66 C145.709,0.411 147.538,2.427 149.694,19.041 C152.932,43.631 154.199,47.893 158.442,47.953 C159.504,47.968 162.983,45.894 166.467,43.421 C169.821,40.816 175.835,37.583 179.57,36.176 C186.374,33.485 186.639,33.488 193.503,35.973 C197.73,37.359 200.905,37.933 201.581,37.147 C202.121,36.491 201.932,30.916 200.957,24.8 L199.121,13.763 L203.697,9.182 C206.119,6.696 210.145,3.435 212.686,2.012 C216.7,-0.453 217.631,-0.572 221.984,1.213 C224.624,2.179 230.311,3.453 234.683,3.912 C242.367,4.682 242.631,4.819 244.026,9.349 C245.297,13.346 246.214,14.155 250.711,15.148 C253.887,15.722 257.44,17.895 259.793,20.316 C262.93,23.676 263.57,25.41 263.231,30.58 C262.67,42.247 261.3,45.413 253.758,53.4 C245.273,62.436 244.699,65.611 250.312,72.191 C252.531,74.742 254.219,77.419 254.207,78.215 C254.197,78.879 255.635,80.49 257.344,81.576 C259.315,82.93 261.387,86.541 262.654,90.805 C265.83,100.932 266.224,101.204 274.99,100.53 C282.429,99.838 282.429,99.838 290.956,106.724 C295.68,110.505 302.107,115.769 305.388,118.336 C316.019,126.578 316.669,127.514 318.269,136.426 C321.72,155.314 325.611,161.736 336.938,167.6 C343.129,170.739 346.17,171.577 354.526,171.694 C366.198,171.99 367.774,173.073 371.342,183.604 C372.616,187.337 374.951,191.217 376.526,192.3 C378.104,193.384 385.492,196.406 392.885,199.03 C405.426,203.451 407.138,204.404 414.199,211.799 C418.382,216.237 422.971,220.148 424.292,220.564 C425.613,220.981 428.256,221.681 430.108,222.106 C436.059,223.516 439.105,233.375 440.389,255.418 C441.776,279.45 441.006,287.134 437.101,291.193 C435.353,292.893 432.409,294.709 430.544,295.214 C428.548,295.717 423.589,299.23 419.423,303.019 C410.148,311.645 406.018,312.914 399.705,308.978 C397.071,307.483 390.886,303.946 385.749,301.221 C380.748,298.365 374.964,294.569 373,292.684 C369.595,289.453 367.612,289.027 346.685,286.479 C330.259,284.656 323.235,284.16 321.363,285.196 C319.892,285.97 317.459,289.254 315.95,292.682 L313.079,298.744 L316.052,304.358 C317.863,307.7 320.741,310.66 323.114,311.754 C325.617,312.984 328.101,315.672 329.515,318.875 C331.704,323.682 331.692,324.478 329.764,329.492 C327.841,334.243 327.821,335.701 329.468,341.163 C330.349,344.626 331.883,348.759 332.659,350.231 C333.432,351.833 334.398,358.612 334.572,365.249 C335.133,381.973 337.675,389.969 347.284,404.831 C354.164,415.673 355.581,418.744 356.283,425.52 C357.088,434.288 356.177,433.082 379.225,454.631 C384.465,459.481 391.127,466.871 393.856,471.022 C398.663,478.254 398.792,478.52 397.743,487.13 L396.693,495.739 L389.099,498.021 C384.038,499.409 377.263,500.111 368.375,499.986 C346.224,499.544 331.039,494.422 323.875,484.902 C320.487,480.477 320.238,479.412 320.292,466.013 C320.382,450.093 318.871,444.234 310.578,430.188 C305.656,421.628 300.035,415.579 290.97,409.216 C287.293,406.511 284.164,402.621 281.714,397.545 C277.328,388.594 273.666,384.828 266.545,381.678 C259.16,378.523 256.805,376.102 256.088,370.52 C254.383,359.616 254.644,359.886 243.05,354.151 C234.487,349.785 231.729,347.757 230.711,344.691 C229.945,342.558 228.667,339.09 227.9,336.957 C227.133,334.824 225.449,332.014 224.008,330.666 C221.781,328.646 221.25,328.638 218.573,330.325 C216.834,331.363 212.499,337.802 208.82,344.65 C205.01,351.496 200.385,359.656 198.218,362.811 C196.181,366.099 194.395,370.585 194.365,372.707 C194.154,378.276 192.122,381.299 183.528,388.609 C173.997,396.569 173.322,397.488 169.883,406.196 C161.352,427.968 156.494,452.841 159.883,457.134 C161.709,459.416 159.374,474.507 156.677,477.654 C152.092,482.897 131.507,493.886 118.718,497.687 C112.191,499.587 91.221,500.089 84.478,498.402 z" fill="#000000"/>
  </g>
</svg>
