<?xml version="1.0" encoding="UTF-8"?>
<!DOCTYPE svg PUBLIC "-//W3C//DTD SVG 1.1//EN" "http://www.w3.org/Graphics/SVG/1.1/DTD/svg11.dtd">
<svg version="1.1" xmlns="http://www.w3.org/2000/svg" xmlns:xlink="http://www.w3.org/1999/xlink" x="0" y="0" width="500" height="500" viewBox="0, 0, 500, 500">
  <g id="layer102">
    <path d="M51.369,344.403 C52.064,341.273 56.064,337.969 65.801,332.404 C81.973,323.363 86.842,323.536 99.535,333.969 L107.883,340.925 L136.922,340.925 C154.311,340.925 166.309,340.23 167.005,339.186 C167.526,338.316 175.351,337.447 184.045,337.447 C196.044,337.447 201.086,336.752 204.216,334.665 C206.825,332.752 211.867,331.882 219.693,331.882 C228.213,331.882 231.516,332.578 233.082,334.665 C236.386,339.012 257.252,338.49 262.991,333.969 C268.208,329.97 281.249,329.274 289.074,332.578 C296.029,335.534 324.026,337.795 360.02,337.969 L391.494,338.316 L399.492,331.709 C410.97,322.319 417.403,321.623 431.314,328.752 C443.487,334.839 447.138,338.143 448.181,343.533 C448.703,346.49 450.442,347.185 461.744,347.88 C468.875,348.402 480.525,348.576 487.48,348.228 C498.261,347.533 500,347.011 500,344.229 C500,341.968 498.783,340.925 496.001,340.925 C493.74,340.925 485.045,336.926 476.526,332.056 C444.704,313.799 428.88,304.235 427.837,302.669 C427.141,301.626 411.317,300.931 388.885,300.931 C354.63,300.931 350.108,300.583 343.327,297.453 C339.154,295.54 333.937,293.975 331.85,293.975 C328.373,293.975 327.851,293.105 327.851,287.889 C327.851,282.324 328.199,281.803 332.893,281.803 C338.111,281.803 343.5,277.977 343.5,274.326 C343.5,273.108 342.284,270.326 340.719,268.24 C338.98,265.631 337.937,259.893 337.763,250.851 L337.415,237.462 L347.848,236.592 L358.281,235.722 L358.803,226.159 C359.498,212.769 357.065,208.77 347.674,208.77 C343.674,208.77 339.154,208.249 337.589,207.726 C333.937,206.335 333.763,196.598 337.241,196.598 C343.849,196.598 342.284,187.729 335.154,184.425 C332.546,183.208 324.721,181.991 317.592,181.644 C307.507,181.295 304.028,180.252 301.073,177.47 C298.986,175.557 295.856,173.992 294.29,173.992 C290.812,173.992 290.812,174.166 293.769,166.863 C298.812,154.516 298.812,153.647 293.421,151.56 C287.335,148.953 279.162,152.083 266.121,161.994 C258.818,167.558 255.688,168.776 249.428,168.776 C245.081,168.776 238.647,170.34 234.995,172.08 C229.43,175.036 225.605,175.384 212.042,175.036 C196.913,174.513 195.348,173.992 191.001,169.819 C185.436,164.254 181.785,164.602 178.655,171.036 C177.438,173.644 175.003,175.731 173.265,175.731 C171.525,175.731 167.7,176.948 164.744,178.514 C158.484,181.47 157.267,187.903 161.787,193.815 C163.179,195.728 164.396,200.249 164.396,203.727 C164.396,211.205 166.831,218.682 171.004,223.202 C172.395,224.942 173.96,229.636 174.308,233.635 C174.829,238.853 176.221,241.983 179.177,244.417 C181.611,246.503 183.524,248.938 183.524,249.981 C183.524,251.025 185.262,252.242 187.523,252.59 C190.479,252.937 191.522,254.503 191.87,258.676 C192.566,265.11 192.74,265.11 170.482,267.371 L156.571,268.761 L156.05,275.369 C155.527,281.629 155.527,281.803 161.787,281.803 C168.569,281.803 170.656,284.411 168.917,291.367 C168.048,294.497 166.309,295.888 161.266,296.758 C157.788,297.453 153.963,298.496 152.92,299.365 C152.05,300.062 133.792,301.278 112.577,301.8 L73.975,302.843 L64.063,309.451 C42.327,323.71 9.462,342.663 6.332,342.663 C2.68,342.663 -1.319,346.663 0.419,348.576 C1.115,349.097 12.592,349.446 25.981,349.271 L50.325,348.749 L51.369,344.403 z" fill="#000000"/>
  </g>
</svg>
