<?xml version="1.0" encoding="UTF-8"?>
<!DOCTYPE svg PUBLIC "-//W3C//DTD SVG 1.1//EN" "http://www.w3.org/Graphics/SVG/1.1/DTD/svg11.dtd">
<svg version="1.1" xmlns="http://www.w3.org/2000/svg" xmlns:xlink="http://www.w3.org/1999/xlink" x="0" y="0" width="500" height="500" viewBox="0, 0, 500, 500">
  <g id="layer101">
    <path d="M209.451,446.73 C209.935,411.377 211.872,407.18 216.392,430.91 C217.845,438.659 219.459,445.277 219.782,445.6 C220.105,446.084 224.302,446.407 229.145,446.569 C239.315,447.053 241.252,445.116 242.705,433.816 C245.126,417.35 245.611,415.736 248.516,415.736 C251.583,415.736 253.682,422.032 255.942,437.206 C256.749,443.017 257.879,445.277 260.462,446.407 C264.498,447.86 275.797,447.214 277.735,445.277 C278.38,444.632 279.995,437.852 281.125,430.426 C282.416,422.516 284.03,416.543 285.322,416.059 C286.775,415.574 287.259,422.516 287.259,447.214 L287.259,478.854 L303.886,478.37 L320.352,477.886 L321.159,468.2 C321.966,458.837 322.127,458.514 326.809,458.03 C329.392,457.707 332.136,456.577 332.781,455.609 C333.427,454.479 334.073,447.214 334.073,439.304 C334.073,426.067 333.589,424.13 328.262,413.476 C325.033,407.18 321.804,401.369 321.159,400.4 C320.513,399.593 315.509,390.23 310.02,379.899 L300.173,361.012 L300.173,345.999 C300.173,332.278 299.366,324.368 295.976,304.512 L294.846,297.571 L314.056,278.684 C343.113,250.434 377.981,217.503 410.105,187.961 C412.527,185.863 422.858,176.177 433.351,166.33 C443.682,156.644 454.821,146.152 457.888,143.407 C460.955,140.502 470.641,133.076 479.358,126.942 L495.178,115.642 L496.146,81.258 C496.792,61.564 498.083,45.259 499.052,43.161 C500.666,40.255 500.343,38.964 497.115,35.574 L493.402,31.538 L432.382,31.538 L371.524,31.538 L369.748,36.058 C367.488,41.546 355.381,75.608 352.96,83.195 C349.731,93.203 346.341,93.203 344.727,83.195 C343.436,75.123 341.014,74.801 339.561,82.549 C338.916,86.585 337.301,88.683 334.719,89.813 C332.62,90.459 331.006,91.751 331.167,92.396 C331.974,95.302 328.907,100.629 326.002,101.436 C322.127,102.405 321.159,101.436 321.159,96.593 C321.159,94.495 320.029,90.943 318.576,88.845 C316.639,85.778 316.154,82.065 316.639,73.509 C317.123,67.213 316.8,61.725 315.993,61.241 C314.217,60.111 314.379,50.425 316.316,45.421 C317.123,43.161 317.284,40.901 316.477,40.578 C315.832,40.094 315.509,33.959 315.993,26.857 C316.639,14.911 316.477,14.104 313.249,12.974 C305.984,10.714 305.5,13.135 305.5,51.071 C305.339,80.612 305.016,87.231 302.917,89.168 C299.366,92.719 293.716,90.459 293.716,85.455 C293.716,83.195 292.586,81.096 291.295,80.612 C289.519,79.805 288.873,76.899 288.873,68.828 C288.873,58.819 288.389,57.366 281.286,46.551 C276.605,39.448 272.569,34.767 270.793,34.767 C269.018,34.767 267.888,33.314 267.565,30.408 C267.08,26.211 266.596,25.888 259.978,26.534 C255.458,26.857 252.39,26.211 251.583,24.919 C250.776,23.467 249.808,23.305 248.193,24.597 C245.449,26.857 235.763,28.148 234.633,26.372 C232.858,23.467 230.759,25.404 230.759,29.924 C230.759,33.475 229.952,34.767 228.015,34.767 C226.239,34.767 222.365,39.125 218.329,45.744 C212.034,55.429 211.388,57.528 211.388,66.568 C211.388,73.025 210.581,77.383 209.128,78.836 C207.836,79.966 206.545,82.872 206.222,84.971 C205.899,87.553 204.446,89.006 202.025,89.329 C195.406,90.298 193.308,86.908 193.792,76.092 C193.954,70.603 193.631,62.855 192.985,58.658 C192.178,53.976 192.339,49.134 193.308,46.228 C194.277,43.484 194.438,40.901 193.792,40.578 C193.146,40.094 192.824,33.959 193.308,26.857 C193.954,15.557 193.631,13.619 191.209,12.812 C189.595,12.167 187.174,12.328 185.721,13.297 C183.461,14.749 183.138,19.754 182.977,50.909 C182.654,79.159 182.169,87.069 180.555,88.199 C179.264,89.006 174.259,89.491 169.417,89.329 L160.538,88.845 L159.085,82.065 C157.31,73.832 154.888,72.863 154.888,80.451 C154.888,85.455 152.628,89.652 149.884,89.652 C148.431,89.652 147.785,88.199 137.938,59.142 C133.095,45.582 128.737,33.798 127.93,33.152 C127.284,32.345 105.814,31.215 80.47,30.569 C38.176,29.601 33.979,29.762 28.329,32.345 C22.679,35.089 21.872,35.089 16.706,32.507 C13.639,31.054 9.765,29.924 8.312,29.924 C2.5,29.924 -2.827,40.901 1.693,43.806 C2.823,44.452 3.308,50.586 3.146,61.241 C2.823,70.119 2.823,85.616 2.985,95.625 L3.146,113.543 L19.45,125.166 C28.329,131.623 50.444,150.672 68.363,167.783 C86.12,184.733 113.885,210.884 129.867,226.058 C145.848,241.071 165.381,259.635 173.452,267.222 C207.029,299.185 205.092,296.441 201.541,307.579 C200.572,310.646 199.281,324.206 198.635,337.443 C197.505,360.043 197.182,362.142 192.985,369.729 C190.402,374.249 182.654,388.455 175.551,401.369 L162.798,425.099 L163.282,440.919 L163.767,456.9 L169.901,457.384 L175.874,457.869 L175.874,468.361 L175.874,478.854 L192.501,478.37 L208.966,477.886 L209.451,446.73 z" fill="#000000"/>
  </g>
</svg>
