<?xml version="1.0" encoding="UTF-8"?>
<!DOCTYPE svg PUBLIC "-//W3C//DTD SVG 1.1//EN" "http://www.w3.org/Graphics/SVG/1.1/DTD/svg11.dtd">
<svg version="1.1" xmlns="http://www.w3.org/2000/svg" xmlns:xlink="http://www.w3.org/1999/xlink" x="0" y="0" width="500" height="500" viewBox="0, 0, 500, 500">
  <g id="layer102">
    <path d="M339.7,144.731 C337.096,144.614 334.508,144.936 331.938,145.311 C327.948,146.097 327.122,146.91 326.275,150.066 C325.431,152.87 325.648,154.98 327.03,157.569 C329.678,163.096 329.323,163.562 322.887,162.687 C314.231,161.441 313.531,161.084 314.384,157.109 C314.997,153.952 314.883,153.716 311.251,153.686 C308.908,153.665 305.736,154.81 303.261,156.663 C299.253,159.674 299.017,159.789 286.375,158.861 C279.233,158.449 272.565,157.455 271.399,156.859 C270.234,156.146 267.426,155.654 265.084,155.634 C262.858,155.615 260.638,155.127 260.292,154.422 C259.369,152.774 251.989,152.828 248.812,154.558 C247.4,155.249 242.236,156.493 237.426,157.272 C232.618,158.05 226.282,159.285 223.348,159.963 C210.437,163.015 206.801,163.571 194.967,164.055 L182.312,164.533 L182.913,176.368 C183.209,182.93 183.627,188.907 183.854,189.728 C184.082,190.551 186.061,191.973 188.278,192.929 C190.496,193.768 193.402,196.369 194.672,198.606 C196.404,201.433 198.964,203.445 202.468,204.763 C205.385,205.96 207.717,207.268 207.713,207.737 C207.706,208.556 203.052,218.473 202.225,219.403 C202.107,219.519 197.766,220.302 192.724,220.962 C184.399,221.945 178.541,222.129 168.356,221.456 C166.014,221.32 164.369,222.009 163.299,223.756 C161.521,226.318 155.54,227.087 154.27,224.968 C153.115,223.084 149.01,223.634 144.655,226.174 C141.005,228.368 140.184,228.479 135.393,227.149 C130.603,225.702 129.782,225.813 126.953,227.897 C123.889,230.096 119.782,230.998 107.353,232.415 C104.071,232.739 100.431,233.762 99.136,234.57 C97.603,235.612 95.494,235.828 93.39,235.224 C90.469,234.38 90.122,233.791 89.939,227.932 C89.737,224.066 88.604,219.605 87.222,216.781 C81.92,206.78 78.426,204.407 68.588,204.323 C61.794,204.266 60.738,204.608 54.844,208.892 C47.772,214.102 44.802,218.88 44.746,225.438 C44.724,228.015 44.112,231.172 43.398,232.454 C42.447,234.087 42.438,235.141 43.367,236.085 C44.064,236.794 44.637,238.205 44.629,239.142 C44.604,242.07 50.29,248.444 54.376,250.001 C56.945,250.961 58.689,252.498 59.026,254.14 C59.365,255.549 62.251,260.61 65.49,265.324 C68.612,270.035 71.267,274.626 71.261,275.446 C71.246,277.086 53.13,286.185 49.85,286.157 C48.679,286.147 46.933,284.843 46.009,283.313 C44.39,280.839 43.457,280.48 39.821,281.034 C37.476,281.249 34.073,282.039 32.31,282.727 C28.786,283.985 22.596,281.825 19.697,278.286 C18.538,276.87 16.433,276.5 9.519,276.911 C4.715,277.103 0.492,277.653 0.138,278.002 C-1.042,279.046 5.55,289.058 12.162,296.494 C23.768,309.126 45.549,323.602 62.945,330.194 C67.498,331.989 68.893,333.173 70.734,337.171 C73.146,342.697 77.212,346.596 84.556,350.759 L89.685,353.614 L134.66,354.233 C159.372,354.56 179.752,354.618 179.871,354.384 C180.107,354.269 207.399,354.268 240.545,354.433 C277.91,354.635 302.042,354.373 304.039,353.57 C306.389,352.77 307.677,352.781 308.722,353.844 C310.348,355.498 315.97,355.546 319.147,353.934 C320.794,353.01 322.433,353.141 324.884,354.216 C327.568,355.294 329.442,355.309 332.848,354.284 C336.135,353.375 338.361,353.395 340.929,354.353 C343.615,355.314 345.724,355.332 348.543,354.418 C351.361,353.506 353.47,353.524 356.272,354.484 C359.192,355.563 361.183,355.581 364.472,354.437 C367.995,353.413 369.519,353.309 371.5,354.497 C374.182,355.926 379.928,355.155 390.144,352.079 C394.725,350.713 406.619,343.201 409.46,339.711 C410.643,338.316 412.293,337.276 413.229,337.284 C414.049,337.291 417.112,335.208 419.945,332.655 C422.778,330.102 425.49,328.018 426.075,328.023 C426.544,328.027 429.139,326.057 431.971,323.505 C434.686,321.068 438.103,318.754 439.512,318.298 C440.922,317.841 443.397,315.988 444.935,314.245 C446.473,312.383 449.656,310.068 452.125,308.918 C454.477,307.766 456.954,305.913 457.666,304.748 C458.261,303.582 460.503,301.727 462.62,300.691 C464.738,299.655 468.628,296.76 471.342,294.323 C474.176,291.771 476.769,289.801 477.238,289.806 C477.824,289.81 480.535,287.725 483.369,285.172 C486.201,282.619 489.147,280.536 489.967,280.543 C490.904,280.551 493.265,278.463 495.397,275.788 C500.014,269.97 501.371,261.899 498.491,256.252 C496.418,252.135 491.311,246.586 489.672,246.572 C489.086,246.567 486.874,245.025 484.783,243.016 C482.69,241.124 479.899,238.758 478.619,237.81 C476.757,236.389 476.644,235.919 477.947,234.29 C479.247,232.779 479.256,231.725 478.11,228.787 C476.731,225.612 476.149,225.255 473.216,225.817 C470.283,226.376 469.933,226.14 469.957,223.445 C469.987,219.932 467.186,218.62 463.539,220.58 C461.185,221.848 460.015,221.721 455.465,219.573 C451.383,217.548 448.576,217.056 441.663,217.348 C434.515,217.638 431.708,217.145 424.353,214.272 C413.963,210.2 413.144,210.077 412.299,213.114 C411.695,215.218 410.99,215.329 405.961,214.583 C399.759,213.71 398.48,212.645 398.869,208.314 C399.245,205.39 399.245,205.39 412.247,205.383 C423.842,205.482 425.601,205.263 428.549,202.945 C431.615,200.512 432.905,200.405 455.51,200.599 L479.286,200.802 L479.832,191.787 C480.226,186.754 480.265,182.186 479.918,181.714 C479.687,181.244 468.447,180.796 454.976,180.799 C433.307,180.731 430.146,180.47 428.171,178.695 C426.312,176.923 423.268,176.663 404.527,176.62 C392.696,176.636 379.459,176.874 375.122,177.189 C363.987,178.031 362.119,177.312 360.292,171.791 L358.81,167.094 L350.155,165.614 C340.798,164.011 339.05,162.942 342.815,160.983 C344.932,159.829 345.293,158.779 344.996,152.451 L344.707,145.186 L340.609,144.799 L339.7,144.731 z M199.183,342.484 C203.985,342.525 204.218,342.644 204.189,346.041 C204.161,349.32 203.925,349.553 199.708,349.517 C196.078,349.486 194.911,348.89 193.877,346.655 C192.267,343.011 192.975,342.432 199.183,342.484 z M166.388,342.205 C169.785,342.234 173.742,345.196 173.72,347.772 C173.712,348.709 172.302,349.283 169.608,349.26 C166.211,349.231 165.279,348.637 164.363,346.169 C162.874,342.175 162.757,342.173 166.388,342.205 z M127.854,341.875 C140.855,341.987 143.308,342.827 143.273,346.927 C143.246,349.972 136.688,349.799 135.076,346.622 C134.384,345.328 133.339,344.264 132.636,344.258 C131.933,344.252 131.104,345.3 130.742,346.585 C130.258,348.455 129.083,348.914 125.569,348.883 C122.289,348.856 120.771,348.257 119.85,346.492 C119.158,345.198 118.113,344.135 117.41,344.129 C116.707,344.123 115.878,345.17 115.516,346.455 C115.032,348.325 113.857,348.784 110.342,348.754 C104.487,348.704 104.501,347.064 110.5,344.07 C114.264,342.228 117.43,341.786 127.854,341.875 z M232.456,341.596 C236.79,341.634 237.595,343.281 235.105,346.891 C233.562,349.22 232.269,349.795 229.46,349.537 C222.321,348.772 225.077,341.533 232.456,341.596 z M241.744,346.611 C242.425,346.736 242.099,346.623 242.718,346.955 C243.418,347.313 243.645,348.251 243.287,348.951 C242.812,349.65 242.109,349.644 241.296,348.818 C240.686,348.034 240.22,347.451 241.102,346.618 L241.744,346.611 z M265.954,341.882 C269.701,341.915 276.813,345.958 276.795,348.066 C276.781,349.706 272.452,349.084 270.945,347.196 C270.134,346.252 268.851,345.421 268.032,345.415 C267.212,345.408 265.916,346.216 265.089,347.147 C263.433,349.007 257.456,349.424 256.299,347.774 C255.26,345.892 261.737,341.846 265.954,341.882 z M299.923,341.939 C304.021,342.091 311.127,346.602 310.058,348.35 C308.989,349.981 302.904,349.343 301.398,347.456 C300.586,346.512 299.304,345.681 298.485,345.675 C297.665,345.668 296.369,346.476 295.541,347.406 C294.003,349.268 288.492,349.806 288.507,348.166 C288.525,345.941 296.175,341.789 299.923,341.939 z M332.401,342.15 C334.317,342.239 333.472,342.151 334.942,342.354 C339.97,343.217 342.869,346.639 340.044,348.372 C337.1,350.221 333.708,349.606 331.505,347.011 C329.776,344.864 328.566,342.452 332.401,342.15 z M367.628,341.579 C373.133,341.626 375.54,347.738 370.727,348.985 C367.91,349.781 363.117,348.686 362.077,347.037 C359.88,343.621 362.006,341.531 367.628,341.579 z M398.11,338.686 C398.976,338.791 398.598,338.999 398.684,339.736 C398.676,340.673 398.314,341.841 397.844,342.189 C396.779,343.351 395.141,343.22 395.151,341.931 C395.156,341.346 395.985,340.298 396.929,339.487 C397.625,338.939 397.236,339.213 398.11,338.686 z M407.811,326.997 C410.018,327.042 409.508,327.553 410.604,329.295 C411.756,331.531 411.515,332.232 408.567,334.55 C404.558,337.678 403.034,337.9 400.947,335.305 C399.556,333.653 399.913,332.953 403.452,330.055 C404.814,328.922 406.155,327.681 407.811,326.997 z M433.78,309.167 C434.898,309.421 434.475,309.179 435.134,309.71 C437.109,311.718 436.623,313.705 433.322,316.254 C429.784,319.034 430.136,318.92 427.684,317.962 C424.766,316.766 425.489,314.547 429.85,311.304 C431.064,310.428 432.265,309.448 433.78,309.167 z M75.885,284.821 C76.288,284.994 76.785,285.027 77.093,285.339 C78.693,286.955 77.617,291.944 77.544,294.006 C77.025,299.976 76.309,301.493 72.528,305.326 C70.164,307.765 67.57,309.735 66.868,309.728 C64.293,309.589 56.607,304.253 54.877,301.075 C52.221,296.602 53.522,295.091 65.641,288.868 C68.9,287.214 72.188,285.201 75.885,284.821 z M445.571,301.332 L446.484,301.359 C447.469,301.822 448.149,301.972 448.192,303.144 C448.183,304.199 446.997,305.946 445.463,307.221 C442.279,309.771 440.637,309.992 438.9,307.751 C437.739,306.452 438.098,305.519 440.106,303.661 C441.766,302.508 443.469,301.387 445.571,301.332 z M481.769,275.71 C482.896,276.113 483.477,276.213 483.551,277.56 C483.53,279.903 480.003,281.512 476.144,280.777 C473.455,280.168 472.983,280.516 472.963,282.858 C472.951,284.264 471.759,286.713 470.34,288.223 C467.622,291.128 467.035,291.242 464.233,290.163 C460.732,288.728 462.515,285.58 469.467,280.72 C473.182,278.327 477.191,275.675 481.769,275.71 z M374.397,204.622 C378.316,204.724 382.223,205.018 386.126,205.395 C394.202,206.167 394.902,206.407 393.832,208.388 C392.998,209.904 391.001,210.59 385.962,210.899 C382.329,211.102 379.165,211.309 379.046,211.425 C378.22,212.121 370.53,207.37 370.542,206.081 C370.589,205.888 370.554,205.651 370.682,205.5 C371.576,204.458 373.222,204.721 374.397,204.622 z" fill="#000000"/>
  </g>
</svg>
