<?xml version="1.0" encoding="UTF-8"?>
<!DOCTYPE svg PUBLIC "-//W3C//DTD SVG 1.1//EN" "http://www.w3.org/Graphics/SVG/1.1/DTD/svg11.dtd">
<svg version="1.1" xmlns="http://www.w3.org/2000/svg" xmlns:xlink="http://www.w3.org/1999/xlink" x="0" y="0" width="500" height="500" viewBox="0, 0, 500, 500">
  <g id="layer101">
    <path d="M57.462,389.417 C56.288,388.736 55.39,388.593 51.947,388.6 C47.929,388.635 47.807,388.591 44.849,387.051 C43.229,386.156 41.483,385.421 41.032,385.411 C39.311,385.373 33.348,380.653 32.933,379.004 C32.822,378.469 32.103,377.593 31.295,377.043 C28.43,375.013 26.837,372.887 26.08,370.002 C25.511,367.899 25.078,367.07 23.911,366.102 C22.14,364.588 20.643,361.809 19.854,358.513 C19.556,357.154 19.13,355.997 18.927,355.911 C17.056,355.255 14.679,353.4 13.166,351.359 C12.171,349.984 10.688,348.436 9.881,347.844 C8.227,346.661 6.717,344.455 6.067,342.351 C5.797,341.525 5.245,340.53 4.804,340.11 C2.916,338.348 0.592,332.149 1.24,330.606 C1.328,330.321 1.298,329.828 1.099,329.537 C0.942,329.247 0.803,328.096 0.787,326.948 C0.811,325.842 0.57,323.746 0.314,322.306 C-0.129,320.083 -0.118,319.551 0.44,318.415 C0.867,317.605 1.107,316.012 1.109,314.044 C1.113,311.995 1.306,310.647 1.728,310.082 C2.152,309.436 2.252,308.618 2.116,307.345 C1.906,305.701 1.994,305.415 3.125,304.293 C3.795,303.651 4.773,302.033 5.252,300.732 C6.641,297.156 7.064,296.55 8.639,295.765 C9.633,295.295 10.557,294.29 11.62,292.51 C12.599,290.851 13.607,289.725 14.352,289.372 C16.05,288.59 16.39,288.023 17.068,285.128 C18.243,280.112 19.873,271.131 20.18,268.351 C20.549,264.588 21.066,263.41 22.512,262.909 C23.543,262.604 23.713,262.32 23.87,260.767 C24.027,259.212 24.154,259.01 25.099,258.908 C26.126,258.807 27.693,260.235 30.162,263.568 C30.798,264.442 31.326,264.699 32.555,264.727 L34.154,264.72 L32.939,264.038 C31.156,263.097 29.113,260.921 29.131,260.061 C29.15,259.201 29.972,259.096 30.694,259.85 C30.974,260.143 32.077,260.331 33.307,260.275 C36.793,260.187 36.917,260.149 36.97,257.732 C37.005,256.134 37.4,254.913 38.513,252.765 C39.454,250.942 40.33,248.338 40.927,245.441 C42.065,240.219 42.867,239.13 45.571,239.189 C47.538,239.232 48.463,238.145 48.516,235.728 C48.561,233.639 47.607,232.265 44.659,230.275 C41.71,228.284 41.477,227.705 42.158,222.761 C43.002,216.016 44.475,214.245 47.928,215.673 C50.406,216.67 57.148,221.407 59.554,223.837 C61.439,225.763 64.355,231.114 65.349,234.415 C65.96,236.477 67.538,237.372 68.548,236.206 C68.926,235.763 69.72,235.084 70.301,234.727 C70.883,234.371 72.15,232.636 73.09,230.894 C74.03,229.111 75.647,226.401 76.705,224.866 C77.763,223.332 79.803,219.974 81.294,217.425 C87.766,206.295 89.885,203.103 92.645,200.581 C95.029,198.379 95.569,198.063 96.962,198.093 C98.724,198.131 98.808,198.01 100.042,194.061 C100.396,192.839 101.251,191.219 101.923,190.495 C102.973,189.33 103.47,189.095 105.934,188.862 C107.495,188.69 110.62,188.226 112.884,187.783 C118.892,186.685 127.488,185.315 132.256,184.722 C134.516,184.443 139.821,183.616 143.976,182.928 C148.131,182.199 153.85,181.217 156.688,180.746 C159.527,180.234 164.67,179.362 168.167,178.742 C171.623,178.161 174.953,177.66 175.486,177.671 C176.428,177.692 178.1,178.097 185.272,179.975 C191.833,181.717 192.978,181.824 195.99,180.905 C199.827,179.76 199.951,179.721 200.105,178.29 C200.207,177.391 200.052,176.936 199.526,176.638 C199.121,176.424 195.973,176.069 192.494,175.829 C189.016,175.589 185.868,175.234 185.503,175.021 C185.139,174.808 184.426,173.686 183.92,172.445 C179.555,162.104 179.316,161.77 175.856,160.67 C174.595,160.274 173.093,159.586 172.53,159.081 C171.564,158.282 171.487,158.034 171.77,156.319 C172.294,153.01 172.756,143.061 172.433,140.963 C172.186,139.114 171.986,138.904 170.726,138.426 C168.693,137.685 168.877,136.746 171.048,136.794 C171.991,136.814 172.978,136.631 173.188,136.43 C173.816,135.829 174.768,122.201 174.203,121.82 C173.961,121.651 173.063,121.468 172.244,121.45 C170.4,121.409 168.655,120.634 168.671,119.855 C168.682,119.364 170.692,119.326 181.71,119.648 C193.833,120.035 194.776,120.015 195.899,119.301 C197.062,118.548 197.062,118.589 197.739,119.505 C198.375,120.38 198.457,120.382 200.027,119.801 C200.896,119.451 202.089,119.231 202.619,119.365 C203.19,119.501 204.423,119.323 205.331,119.056 C206.363,118.709 208.375,118.548 210.709,118.64 C212.715,118.725 214.932,118.568 215.552,118.336 C216.213,118.104 218.061,117.939 219.699,117.976 C221.625,118.017 222.858,117.84 223.11,117.558 C223.362,117.276 223.764,115.769 224.044,114.217 C224.418,112.094 224.849,111.12 225.687,110.278 C226.818,109.155 228.836,108.707 229.31,109.537 C229.429,109.703 230.452,109.808 231.561,109.709 C232.915,109.616 234.263,109.849 235.645,110.372 C237.84,111.198 238.954,110.894 238.987,109.338 C239.008,108.396 239.585,108.244 245.041,108.035 C249.266,107.881 249.715,107.932 251.008,108.78 C252.1,109.46 253.038,109.685 255.291,109.734 C257.831,109.789 258.279,109.922 258.795,110.712 C259.153,111.212 259.42,112.119 259.407,112.734 C259.382,113.84 259.986,114.345 261.461,114.377 C261.911,114.387 263.495,115.077 264.953,115.888 C267.586,117.338 270.728,117.94 271.811,117.144 C272.061,116.985 272.264,115.186 272.309,113.097 C272.422,107.935 272.506,107.855 278.487,107.985 C281.968,108.102 283.398,108.297 284.452,108.853 C285.424,109.366 286.854,109.602 289.394,109.658 C293.777,109.753 294.626,110.304 294.935,113.057 C295.205,115.686 295.64,116.434 296.913,116.297 C298.187,116.161 298.442,115.757 299.208,112.576 C300.017,109.274 300.392,108.996 303.663,109.395 C306.688,109.747 308.393,110.481 308.982,111.683 C309.219,112.098 309.313,115.297 309.237,118.779 C309.103,124.924 309.382,127.144 310.434,127.822 C310.717,127.992 312.925,128.205 315.342,128.257 C319.439,128.346 319.932,128.275 321.716,127.29 C322.795,126.698 324.334,125.666 325.21,124.947 C327.298,123.189 327.878,122.915 330.548,122.645 C332.273,122.478 333.172,122.58 334.063,123.091 C335.846,124.031 337.398,126.156 337.367,127.548 C337.353,128.204 337.702,129.113 338.183,129.615 C338.985,130.453 339.311,130.501 343.413,130.344 C345.793,130.232 348.381,129.961 349.123,129.772 C350.073,129.465 350.85,129.523 351.745,129.829 C352.436,130.09 353.538,130.319 354.193,130.333 C354.848,130.348 355.907,130.658 356.597,131 C357.244,131.383 357.978,131.563 358.227,131.446 C358.435,131.286 359.496,131.474 360.554,131.865 C361.612,132.217 364.223,132.765 366.348,133.057 C369.084,133.486 370.592,133.888 371.438,134.562 C372.77,135.534 375.06,135.747 378.923,135.258 C381.061,134.977 381.06,135.018 382.663,136.692 C384.465,138.617 384.67,138.621 390.424,137.886 C393.877,137.428 394.455,137.236 395.503,136.152 C396.133,135.469 396.645,134.578 396.653,134.169 C396.662,133.759 397.003,133.152 397.42,132.833 C398.214,132.153 398.584,132.08 404.754,131.066 C407.345,130.672 409.572,130.024 410.734,129.393 C413.762,127.697 421.563,127.088 426.501,128.098 C429.071,128.645 430.083,129.2 431.156,130.781 C431.91,131.904 432.235,132.034 434.242,132.078 C437.069,132.139 437.88,132.567 438.819,134.596 C439.604,136.17 440.919,141.65 441.262,144.732 C441.366,145.636 441.645,147.855 441.892,149.664 C442.557,154.884 442.303,162.788 441.351,165.104 C440.53,167.053 440.321,167.213 437.525,167.644 C435.181,168.002 434.557,168.398 433.991,169.944 C433.423,171.571 432.503,172.411 430.856,172.744 C430.197,172.894 429.202,173.405 428.7,173.845 C428.074,174.405 426.671,174.826 424.369,175.144 C419.23,175.852 416.405,175.708 414.748,174.648 C413.415,173.758 413.128,173.752 409.964,174.093 C401.705,175.06 401.623,175.058 399.676,172.229 L398.287,170.149 L395.332,170.372 C388.477,170.837 386.824,171.416 386.782,173.382 C386.742,175.226 385.271,178.76 383.97,180.125 C382.628,181.53 382.464,181.567 379.555,181.504 C377.383,181.498 376.272,181.679 375.442,182.193 C374.528,182.747 373.952,182.816 372.77,182.545 C369.181,181.729 344.701,182.22 343.081,183.209 C342.542,183.525 343.34,184.485 344.798,185.296 C345.527,185.681 346.467,185.825 347.536,185.684 C349.714,185.403 353.893,187.339 354.717,189.037 C355.659,190.943 356.474,191.166 359.853,190.338 C361.501,189.923 363.724,189.52 364.792,189.38 C366.025,189.242 367.266,188.737 368.266,187.98 C369.099,187.342 369.889,186.827 369.971,186.828 C370.053,186.83 370.903,187.3 371.834,187.853 C373.25,188.703 374.556,188.978 380.076,189.549 C383.675,189.914 387.604,190.205 388.793,190.19 C390.884,190.153 390.925,190.154 390.9,191.301 C390.869,192.694 393.432,195.455 396.108,196.825 C399.39,198.536 400.433,199.583 400.679,201.433 C400.818,202.625 400.716,203.524 400.203,204.497 C399.602,205.754 399.596,206 400.249,208.022 C400.747,209.632 401.343,210.465 402.473,211.268 C403.321,211.86 404.731,212.997 405.616,213.755 C406.744,214.681 407.677,215.111 408.66,215.133 C410.545,215.174 412.451,216.076 413.691,217.496 C414.251,218.123 415.867,219.183 417.287,219.87 L419.924,221.116 L429.15,220.907 C444.652,220.507 444.241,220.539 445.915,218.977 C447.716,217.213 449.192,217.204 450.752,218.919 C451.874,220.132 452.037,220.176 455.478,220.251 C460.435,220.36 461.965,219.737 462.052,217.649 C462.078,216.42 463.437,216.121 466.706,216.602 C470.342,217.132 478.863,217.318 489.728,217.145 C498.298,217.004 499.198,217.065 499.717,217.691 C500.196,218.275 500.108,218.56 499.136,219.891 C498.164,221.264 498.029,221.793 497.957,225.112 C497.853,229.864 497.559,230.185 493.381,230.094 C490.267,230.026 488.782,230.486 487.355,232.012 C486.348,233.056 483.737,234.393 482.713,234.37 C482.344,234.363 481.456,233.769 480.773,233.098 C479.33,231.633 478.632,231.699 477.61,233.439 C476.759,234.896 475.28,235.028 474.201,233.775 C473.282,232.689 472.503,232.713 471.865,233.765 C471.568,234.21 470.482,235.169 469.442,235.843 C467.863,236.875 467.161,237.064 465.153,237.062 C462.491,237.003 462.773,237.215 461.287,233.904 C461.052,233.407 460.154,233.264 456.547,233.267 C454.128,233.297 451.91,233.494 451.701,233.695 C450.99,234.376 451.013,238.967 451.739,239.474 C452.103,239.728 453.617,239.802 455.629,239.641 C457.435,239.517 461.207,239.476 463.994,239.496 C468.377,239.591 469.113,239.689 469.509,240.313 C469.824,240.893 469.777,241.179 469.232,241.741 C468.646,242.302 467.331,242.437 462.041,242.568 C454.619,242.734 453.221,242.95 452.214,243.993 C451.25,244.997 451.644,245.702 453.709,246.895 C454.72,247.491 455.723,248.496 456.075,249.282 C456.428,250.028 457.905,251.823 459.39,253.249 C460.835,254.674 462.032,256.175 462.023,256.585 C462.014,256.995 463.247,258.702 464.808,260.416 C467.45,263.343 467.608,263.592 467.488,265.311 C467.375,266.743 467.606,267.445 468.441,268.611 C469.595,270.193 469.775,271.345 469.009,272.64 C468.709,273.248 468.733,274.027 469.149,275.635 C469.947,278.521 469.839,281.593 468.993,282.804 C468.444,283.53 468.346,284.265 468.501,286.564 C468.732,289.11 468.641,289.559 467.664,291.095 C467.069,292.066 466.461,293.651 466.316,294.673 C466.169,295.776 465.653,296.871 465.065,297.514 C464.017,298.598 461.842,302.486 461.823,303.346 C461.817,303.633 461.261,304.686 460.583,305.696 C459.906,306.706 459.22,308.085 459.04,308.819 C458.633,310.572 456.762,313.646 455.85,314.118 C455.436,314.355 454.653,314.502 454.203,314.492 C453.67,314.48 452.631,315.154 451.708,316.118 C450.659,317.243 449.703,317.837 448.841,317.9 C447.363,318.032 443.802,319.676 443.045,320.561 C442.751,320.882 441.88,321.355 441.138,321.585 C440.065,321.889 439.479,322.491 438.623,324.112 C437.172,326.786 436.375,327.629 435.391,327.608 C434.121,327.58 433.04,328.294 431.937,329.992 C431.048,331.325 430.632,331.602 429.526,331.578 C428.706,331.561 427.011,332.22 425.02,333.325 C423.236,334.31 421.539,335.093 421.211,335.086 C420.597,335.073 418.446,337.854 418.427,338.714 C418.404,339.738 416.939,341.182 415.455,341.559 C414.464,341.866 413.383,342.58 412.583,343.546 C411.53,344.835 411.033,345.111 409.762,345.124 C408.86,345.104 407.54,345.526 406.501,346.16 C401.267,349.365 400.1,350.283 398.739,352.548 C397.634,354.328 397.048,354.889 396.102,355.073 C394.374,355.363 393.999,355.642 392.814,357.378 C391.965,358.712 391.549,358.949 389.989,359.079 C388.593,359.213 387.226,359.88 384.274,361.783 C381.114,363.886 380.11,364.766 378.922,366.666 C377.817,368.446 377.189,369.047 376.284,369.232 C375.173,369.413 373.837,370.531 372.487,372.305 C372.107,372.789 371.323,373.059 370.174,373.116 C368.902,373.17 367.704,373.636 365.667,374.944 C364.128,375.935 362.592,376.844 362.221,376.959 C361.849,377.074 360.922,378.242 360.156,379.537 C358.327,382.612 357.656,383.294 356.632,383.272 C356.099,383.26 354.935,384.014 353.888,385.057 C352.464,386.46 351.758,386.854 350.734,386.832 C349.915,386.814 348.715,387.321 347.426,388.195 C346.303,388.949 344.971,389.862 344.513,390.18 C343.473,390.895 342.119,390.948 339.097,390.472 C337.26,390.145 336.766,390.216 335.809,390.893 C334.227,392.005 326.352,392.285 324.242,391.296 C323.471,390.911 320.982,390.446 318.774,390.193 C314.807,389.779 314.683,389.817 312.406,390.874 C310.293,391.894 309.676,392.003 305.621,391.915 C301.892,391.875 300.87,391.729 299.535,390.963 C298.116,390.235 297.299,390.094 293.772,390.181 C290.287,390.228 289.383,390.373 288.054,391.163 C286.684,391.953 286.149,392.065 284.065,391.773 C282.676,391.579 280.912,391.622 279.965,391.848 C278.564,392.186 278.073,392.134 276.41,391.319 C275.113,390.676 273.155,390.224 270.579,389.963 C266.857,389.594 266.61,389.63 264.416,390.648 C262.304,391.627 261.77,391.697 257.633,391.566 C254.521,391.457 252.764,391.173 251.913,390.745 C251.184,390.36 248.98,389.943 246.524,389.766 C242.597,389.435 242.268,389.469 240.362,390.452 C238.621,391.315 237.798,391.461 233.863,391.458 C230.175,391.459 229.071,391.312 227.937,390.714 C226.883,390.158 225.291,389.877 222.384,389.732 C218.577,389.526 218.083,389.597 216.137,390.539 C214.273,391.44 213.45,391.587 209.597,391.585 C206.113,391.591 204.886,391.441 203.874,390.886 C203.024,390.417 201.595,390.14 199.752,390.1 C198.195,390.066 196.356,389.821 195.665,389.56 C194.607,389.168 194.113,389.28 192.208,390.181 C190.219,391.203 189.562,391.271 185.299,391.26 C182.185,391.233 180.263,391.027 179.574,390.684 C179.006,390.385 176.678,390.007 174.387,389.834 C170.583,389.505 170.007,389.574 167.61,390.465 C165.46,391.32 164.597,391.424 162.84,391.181 C161.574,390.989 159.974,391.077 159.067,391.303 C157.83,391.645 157.175,391.631 155.752,391.067 C154.736,390.676 151.958,390.246 149.257,390.065 C145.082,389.81 144.343,389.876 142.893,390.582 C141.568,391.208 140.334,391.387 136.728,391.39 C133.859,391.369 131.854,391.202 131.206,390.86 C130.639,390.561 127.901,390.173 125.077,389.989 C120.494,389.643 119.755,389.709 118.1,390.41 C115.494,391.501 108.28,391.549 106.582,390.446 C105.693,389.853 104.345,389.66 100.209,389.487 C95.5,389.303 94.802,389.37 93.309,390.157 C91.899,390.905 91.036,391.009 87.144,390.924 C83.334,390.841 82.436,390.699 81.427,389.98 C80.337,389.219 79.764,389.165 76.114,389.29 C73.858,389.364 71.187,389.675 70.156,389.98 C68.959,390.323 66.579,390.476 63.589,390.37 C59.739,390.245 58.636,390.098 57.462,389.417 z M444.95,238.794 C445.33,238.31 445.636,237.415 445.648,236.842 C445.661,236.268 445.394,235.36 445.036,234.861 C444.52,234.071 444.072,233.938 441.655,233.886 C438.255,233.811 437.547,234.329 438.449,236.193 C439.98,239.3 443.555,240.731 444.95,238.794 z M339.209,184.109 C339.548,183.583 338.606,183.563 337.775,184.077 C337.276,184.394 337.315,184.477 338.053,184.493 C338.544,184.504 339.081,184.352 339.209,184.109 z" fill="#000000"/>
  </g>
</svg>
