<?xml version="1.0" encoding="UTF-8"?>
<!DOCTYPE svg PUBLIC "-//W3C//DTD SVG 1.1//EN" "http://www.w3.org/Graphics/SVG/1.1/DTD/svg11.dtd">
<svg version="1.1" xmlns="http://www.w3.org/2000/svg" xmlns:xlink="http://www.w3.org/1999/xlink" x="0" y="0" width="500" height="500" viewBox="0, 0, 500, 500">
  <g id="layer101">
    <path d="M256.266,411.202 C255.773,410.956 212.191,398.46 159.375,383.563 C106.559,368.605 61.992,355.924 60.268,355.432 C58.606,354.939 55.959,353.585 54.42,352.354 C52.881,351.184 50.481,349.461 49.003,348.476 C47.095,347.183 46.664,346.629 47.403,346.444 C48.203,346.321 47.526,345.336 44.694,342.443 C41.062,338.565 40.078,338.011 39.339,339.181 C38.662,340.227 37.923,339.858 38.231,338.627 C38.416,337.765 36.877,335.857 32.444,331.425 C29.059,328.039 25.858,324.592 25.304,323.668 C24.75,322.807 23.642,321.945 22.903,321.822 C20.687,321.514 17.301,314.435 17.732,311.111 C17.979,308.956 17.855,308.402 16.501,307.233 C14.962,305.94 14.962,305.694 15.27,300.215 C15.763,291.905 15.763,291.043 15.332,289.012 C15.024,287.534 15.209,286.857 16.501,285.688 C17.979,284.272 18.102,283.779 18.102,278.916 C18.102,276.023 17.855,273.315 17.609,272.945 C17.363,272.576 15.209,271.222 12.808,270.052 C10.407,268.821 7.637,266.913 6.714,265.805 C3.944,262.542 1.974,257.556 1.604,253.062 C1.112,245.553 3.636,240.566 8.437,239.643 C11.638,238.966 12.008,237.181 9.176,235.827 C6.16,234.472 3.513,231.518 1.728,227.516 C0.312,224.377 0.004,222.838 0.004,218.529 C-0.058,212.681 0.558,211.081 4.744,206.033 C7.637,202.524 9.422,201.478 13.793,200.924 C16.563,200.554 17.425,200.739 19.764,201.97 L22.472,203.448 L24.442,201.17 C26.966,198.338 28.074,197.784 32.752,197.23 C36.323,196.861 36.877,196.984 41.124,199.015 C43.648,200.247 46.356,202.093 47.218,203.14 C48.696,204.863 51.342,210.958 51.342,212.62 C51.342,213.789 54.359,216.375 54.913,215.697 C55.221,215.39 57.868,212.373 60.761,208.988 C63.715,205.602 68.394,200.37 71.287,197.292 L76.458,191.752 L80.705,191.752 C82.983,191.752 86.492,192.183 88.461,192.614 C92.955,193.722 93.509,193.229 93.447,188.366 C93.386,185.411 93.017,184.18 91.662,182.21 C90.062,179.871 90,179.687 90.985,178.209 C93.878,173.777 99.972,179.379 99.972,186.458 C99.972,189.474 100.465,190.828 101.573,190.828 C104.22,190.828 104.158,181.533 101.45,177.532 C99.665,174.947 99.603,174.085 101.081,172.792 C102.743,171.315 103.974,171.499 106.313,173.592 C108.652,175.624 109.822,179.009 109.822,183.872 C109.822,185.473 110.068,187.197 110.376,187.689 C111.237,188.982 112.284,186.519 112.284,183.195 C112.284,179.748 111.422,177.471 109.514,175.685 C108.16,174.454 108.098,174.085 108.652,172.423 C109.514,169.899 111.791,169.283 114.007,170.945 C116.778,173.038 117.886,175.624 118.255,180.918 C118.44,183.626 118.87,186.15 119.178,186.643 C120.102,188.058 121.517,185.35 121.517,182.149 C121.517,179.871 121.148,178.825 119.979,177.532 C117.886,175.254 117.516,173.716 118.809,172.3 C120.471,170.453 122.933,170.822 125.088,173.223 C126.934,175.378 127.242,176.239 127.981,181.903 C128.72,187.135 128.966,187.32 134.013,186.827 C139.184,186.335 140.969,185.411 141.523,182.949 C142.016,180.548 147.494,173.408 149.464,172.484 C152.173,171.253 157.097,170.884 159.744,171.746 C161.96,172.484 162.268,172.423 163.561,171.315 C165.592,169.468 166.146,169.222 170.332,168.606 C173.964,168.114 174.333,168.175 178.642,170.268 C183.752,172.792 185.783,175.07 187.322,179.933 C187.876,181.718 189.292,184.365 190.584,185.842 C192.431,187.997 193.416,188.612 196.432,189.289 C201.849,190.582 204.188,190.459 206.097,188.674 C207.697,187.197 207.697,187.073 207.328,181.472 C206.835,174.454 207.143,174.085 212.806,174.146 C216.869,174.146 219.947,175.008 220.747,176.239 C220.994,176.67 221.24,178.025 221.24,179.256 C221.24,180.487 221.486,181.718 221.855,181.903 C222.84,182.518 226.164,180.425 226.78,178.825 C227.088,178.086 227.642,177.224 228.011,176.978 C229.304,176.178 234.167,177.347 235.952,178.886 C237.922,180.487 239.83,180.487 242.662,178.763 C243.831,177.963 244.016,177.347 244.016,174.023 C244.016,171.93 243.77,169.283 243.4,168.114 C242.969,166.636 243.031,165.59 243.646,164.42 C244.324,163.066 244.262,159.681 243.339,144.045 C242.723,133.704 241.923,118.93 241.554,111.174 C241.061,101.201 240.63,96.585 239.953,95.354 C239.03,93.507 238.845,90.614 239.584,89.444 C239.83,89.013 240.753,88.582 241.554,88.521 C243.4,88.274 244.816,90.675 244.324,93.261 C244.077,94.307 243.831,96.092 243.646,97.262 C243.462,98.431 244.139,113.636 245.185,130.995 C246.601,154.202 247.278,162.882 247.955,163.928 C248.386,164.667 248.94,167.621 249.125,170.515 C249.31,173.408 249.679,176.239 249.864,176.855 C250.418,178.148 252.018,178.148 255.958,176.978 C260.205,175.685 266.115,176.362 270.485,178.579 C272.578,179.687 275.164,180.425 277.257,180.548 C279.103,180.733 282.181,181.225 284.028,181.78 C285.875,182.272 288.829,182.888 290.553,183.072 C293.446,183.442 293.939,183.318 295.724,181.78 C297.694,180.179 297.755,180.179 299.479,181.164 C300.71,181.841 301.756,182.026 302.68,181.656 C304.342,181.041 305.388,181.349 307.604,183.195 C308.835,184.242 310.128,184.673 312.036,184.673 C313.452,184.673 315.545,185.042 316.653,185.534 C318.377,186.212 319.177,186.212 322.009,185.473 C325.763,184.488 327.118,184.734 330.196,187.012 C331.858,188.305 332.966,188.612 335.12,188.489 C342.322,188.181 343.061,188.243 344.785,189.474 C347.432,191.321 353.649,193.352 355.557,192.983 C357.342,192.552 358.081,193.106 359.62,196.369 C360.297,197.784 361.282,198.708 362.513,199.015 C363.559,199.323 365.591,199.939 367.13,200.431 C370.823,201.601 380.303,202.647 382.827,202.155 C383.935,201.97 385.843,202.155 387.013,202.586 C388.736,203.201 389.537,203.201 391.075,202.524 C392.553,201.97 393.846,201.909 396.8,202.401 C398.955,202.77 402.525,203.263 404.864,203.448 C407.265,203.694 409.358,204.248 409.912,204.802 C411.02,205.91 411.143,208.926 410.097,209.788 C409.112,210.527 403.448,211.265 399.324,211.204 C397.6,211.142 395.384,211.45 394.461,211.758 C393.045,212.312 392.43,212.189 391.075,211.142 C389.044,209.726 386.274,209.603 382.827,210.834 C379.811,211.942 377.41,211.942 368.977,211.019 C362.451,210.28 358.82,210.588 359.25,211.881 C359.374,212.25 360.851,212.927 362.451,213.297 C365.591,214.097 366.514,214.959 366.514,217.052 C366.514,218.529 367.992,220.068 368.915,219.514 C369.223,219.329 370.762,219.021 372.362,218.837 C373.963,218.714 375.748,218.221 376.302,217.729 C378.826,215.513 379.995,215.328 382.273,216.744 C383.873,217.667 385.043,217.975 386.582,217.729 C389.352,217.298 390.645,218.529 390.398,221.484 C390.214,223.33 389.906,223.761 388.428,224.131 C386.397,224.685 385.597,225.608 385.597,227.639 C385.597,229.301 386.643,229.794 393.292,231.148 C396,231.641 399.386,232.379 400.863,232.687 C402.279,233.056 404.064,233.303 404.864,233.303 C405.603,233.303 407.08,233.857 408.065,234.534 C409.112,235.211 410.343,235.765 410.835,235.765 C411.328,235.765 414.652,237.673 418.222,239.951 C421.854,242.29 425.671,244.506 426.717,244.875 C427.825,245.245 429.487,246.107 430.349,246.845 C431.211,247.522 432.503,248.076 433.18,248.076 C433.858,248.076 435.951,249.677 437.859,251.647 C440.136,253.924 445.492,257.741 453.063,262.542 C472.577,274.854 478.486,278.855 479.225,280.209 C479.718,281.132 479.841,283.595 479.533,287.904 L479.164,294.244 L482.241,296.46 C483.903,297.63 485.442,299.169 485.627,299.846 C485.873,300.461 486.735,301.2 487.658,301.385 C488.582,301.569 489.628,301.816 490.059,301.939 C490.428,302.062 491.967,303.909 493.445,306.063 C495.784,309.51 496.03,310.31 495.969,313.019 C495.845,315.912 495.969,316.158 497.815,317.02 C499.785,317.944 499.785,318.005 499.97,322.868 C500.093,326.5 499.847,328.408 499.108,330.132 C498.185,332.163 498.123,332.779 498.8,334.625 C499.724,337.272 499.108,338.504 494.799,342.012 C493.26,343.367 490.921,345.398 489.567,346.568 C487.597,348.414 485.073,349.461 473.808,353.154 L460.389,357.586 L436.381,359.495 C423.208,360.541 408.004,361.772 402.587,362.203 L392.861,363.003 L384.366,361.095 C379.749,360.049 375.44,358.817 374.886,358.325 C373.039,356.786 372.485,358.325 372.608,364.419 C372.731,369.097 372.547,370.513 371.377,372.852 C370.454,374.699 370.023,376.669 370.146,378.639 C370.208,381.347 369.961,381.901 367.13,385.287 C365.406,387.38 363.744,389.042 363.375,389.042 C363.067,389.042 361.59,390.15 360.112,391.504 C358.142,393.351 354.511,395.259 346.324,398.829 C340.229,401.476 334.812,404 334.32,404.554 C332.35,406.524 324.286,407.447 293.261,409.356 C276.149,410.402 261.006,411.325 259.651,411.449 C258.236,411.572 256.697,411.449 256.266,411.202 z" fill="#000000"/>
  </g>
</svg>
