<?xml version="1.0" encoding="UTF-8"?>
<!DOCTYPE svg PUBLIC "-//W3C//DTD SVG 1.1//EN" "http://www.w3.org/Graphics/SVG/1.1/DTD/svg11.dtd">
<svg version="1.1" xmlns="http://www.w3.org/2000/svg" xmlns:xlink="http://www.w3.org/1999/xlink" x="0" y="0" width="500" height="500" viewBox="0, 0, 500, 500">
  <g id="layer102">
    <path d="M94.993,440.841 C98.162,440.841 100.33,434.335 98.829,430.165 C98.328,428.664 96.327,427.497 94.658,427.497 C89.989,427.497 90.656,425.995 98.495,417.988 C105.334,411.15 105.834,410.816 115.842,410.816 C122.848,410.816 126.684,409.983 128.185,408.315 C129.352,406.981 132.689,405.813 135.691,405.813 C140.361,405.813 141.196,406.48 142.196,410.984 L143.197,416.155 L248.614,414.987 C306.659,414.486 355.864,413.652 357.866,413.152 C360.034,412.818 361.703,410.984 362.036,408.648 C362.537,404.644 362.202,404.644 384.554,406.981 C393.06,407.981 397.564,409.315 400.4,411.817 C402.568,413.818 405.904,416.821 408.072,418.489 C410.074,420.158 411.742,422.159 411.742,422.826 C411.742,423.327 410.074,424.16 408.072,424.494 C404.903,424.827 404.236,425.995 404.236,430.832 L404.236,436.671 L451.774,436.671 L499.311,436.671 L499.811,430.499 C500.312,424.494 500.145,424.16 495.141,424.16 C489.804,424.16 483.466,421.325 481.296,417.988 C478.628,413.818 473.791,412.318 470.122,414.486 C467.452,416.155 466.118,416.155 463.449,414.486 C461.614,413.485 459.279,412.484 458.112,412.484 C456.945,412.484 453.274,409.983 449.939,406.981 C446.603,404.145 441.432,399.642 438.262,397.306 C432.925,393.136 432.758,392.636 434.927,388.466 C437.261,384.296 437.095,383.795 429.922,376.456 C419.248,365.447 413.576,361.611 411.241,363.947 C410.24,364.947 404.737,365.782 399.065,365.782 C389.391,365.782 388.557,365.447 384.387,360.11 C381.884,356.774 380.051,352.103 380.051,349.268 C380.051,346.433 379.383,344.097 378.382,344.097 C377.548,344.097 376.714,341.929 376.714,339.094 L376.714,334.09 L348.359,334.09 C328.176,334.09 320.003,333.589 320.003,332.255 C320.003,331.087 322.171,326.751 324.84,322.413 C331.012,312.406 335.015,300.73 335.015,292.89 C335.015,288.053 336.182,285.717 341.02,281.381 C347.858,275.043 351.861,272.541 385.888,254.027 C391.393,251.024 396.897,247.855 398.064,246.855 C399.733,245.519 401.233,245.686 403.569,247.021 C406.738,249.023 413.41,246.187 427.921,236.513 C431.09,234.177 434.593,232.342 435.428,232.342 C436.595,232.342 442.265,229.006 451.606,222.835 C451.94,222.668 450.605,219.166 448.605,215.163 C444.434,206.489 444.434,205.989 447.771,199.15 C450.773,192.978 448.938,188.975 442.766,188.975 C436.094,188.975 432.091,186.973 430.257,182.803 C428.755,179.301 428.755,177.966 430.757,175.798 C432.091,174.297 433.759,170.961 434.427,168.292 C435.761,162.788 433.426,160.62 425.586,160.62 C422.084,160.62 419.414,159.451 417.746,156.95 C414.745,152.78 414.244,146.275 416.745,144.774 C417.746,144.274 418.414,141.605 418.414,139.103 C418.414,134.932 417.746,134.266 411.742,133.431 C408.072,132.932 404.069,131.43 402.568,130.096 C399.399,126.76 399.399,118.252 402.568,115.584 C408.74,110.414 404.069,103.908 394.229,103.908 C387.556,103.908 387.223,103.575 385.055,97.237 C383.22,91.565 383.22,90.231 385.388,87.728 C386.722,86.061 387.723,82.557 387.723,79.723 C387.556,75.052 386.888,74.552 379.716,73.217 C374.88,72.216 371.376,70.549 370.877,69.047 C370.376,67.546 368.708,64.544 367.04,62.376 L363.871,58.539 L355.698,62.876 C326.008,78.889 318.001,83.726 315.833,87.728 C314.999,89.397 308.161,93.9 300.821,97.903 C281.139,108.244 263.792,117.753 236.604,132.764 C223.26,140.104 208.248,148.276 203.244,151.112 C198.24,153.781 190.734,157.951 186.564,160.286 C182.395,162.454 174.221,166.958 168.216,170.294 C162.212,173.463 153.705,178.134 149.034,180.635 C116.676,198.315 118.01,197.816 114.841,194.813 C112.005,192.311 111.339,192.311 105.001,196.314 C101.331,198.65 97.828,200.652 97.327,200.652 C96.994,200.652 92.991,202.82 88.487,205.654 C81.982,209.491 79.481,212.494 75.81,220.5 C71.974,228.84 71.641,231.008 73.309,234.177 C74.81,237.346 74.81,238.347 72.475,239.849 C70.973,241.016 69.806,242.685 69.806,243.686 C69.806,245.186 86.485,275.877 106.335,311.238 C108.17,314.741 109.837,319.078 109.837,320.913 C109.837,326.417 113.006,330.753 117.009,330.753 C123.014,330.753 128.185,335.424 128.185,340.761 C128.185,343.43 127.517,346.098 126.518,346.599 C125.684,347.099 124.849,349.268 124.849,351.437 C124.849,353.605 122.848,357.942 120.345,361.444 L115.675,367.615 L100.998,366.949 L86.485,366.115 L75.477,376.456 C64.969,386.13 64.635,386.798 66.47,390.967 C68.305,395.137 67.971,395.805 61.133,402.31 C45.787,416.321 35.946,420.991 29.941,417.155 C26.938,415.32 25.937,415.653 20.935,420.491 C17.264,424.16 12.928,426.329 7.924,427.162 C1.419,428.331 0.585,428.997 0.084,433.334 C-0.249,436.336 0.418,438.839 1.919,440.006 C3.754,441.34 18.432,441.675 48.455,441.34 C72.475,441.007 93.491,440.841 94.993,440.841 z" fill="#000000"/>
  </g>
</svg>
