<?xml version="1.0" encoding="UTF-8"?>
<!DOCTYPE svg PUBLIC "-//W3C//DTD SVG 1.1//EN" "http://www.w3.org/Graphics/SVG/1.1/DTD/svg11.dtd">
<svg version="1.1" xmlns="http://www.w3.org/2000/svg" xmlns:xlink="http://www.w3.org/1999/xlink" x="0" y="0" width="500" height="500" viewBox="0, 0, 500, 500">
  <g id="layer101">
    <path d="M154.12,494.728 C150.683,491.72 147.533,487.997 147.246,486.565 C144.382,470.814 144.526,470.527 151.829,463.797 C155.982,459.93 160.993,456.78 164.573,455.778 C178.75,452.055 180.898,451.625 183.905,451.625 C188.774,451.625 187.485,446.756 180.898,439.596 C169.013,426.995 165.146,421.553 162.425,412.818 C158.989,401.792 158.989,400.503 162.998,395.205 C165.719,391.625 166.578,388.188 167.437,378.021 C168.583,363.701 172.02,353.534 177.604,347.949 C180.898,344.656 181.184,343.367 180.468,337.925 C179.18,329.477 180.325,326.326 186.196,322.89 C190.779,320.312 191.208,319.31 191.208,313.439 C191.208,308.856 190.492,306.708 188.917,305.992 C186.053,304.99 177.891,312.723 172.879,321.458 C170.731,325.181 160.993,337.066 151.113,347.949 C123.332,378.88 123.619,378.594 117.461,378.594 C114.597,378.594 110.444,377.735 108.44,376.589 C106.292,375.443 100.707,374.011 95.981,373.295 L87.389,372.15 L87.676,367.138 C88.249,358.689 87.103,357.544 82.378,362.126 C78.368,365.849 78.082,365.992 74.788,363.844 C72.783,362.556 69.919,361.983 68.344,362.269 C63.905,363.558 63.475,360.837 66.626,351.529 C68.201,346.804 69.49,341.649 69.49,340.073 C69.49,337.639 69.06,337.496 64.478,338.928 C60.755,339.93 58.463,339.93 55.743,338.641 C52.163,337.066 52.019,336.493 53.165,330.909 C53.738,327.615 54.311,321.744 54.454,317.734 C54.454,313.868 55.17,309.286 56.029,307.711 C56.888,306.135 58.463,301.41 59.466,297.114 C60.755,291.672 63.046,287.52 67.485,282.508 C70.922,278.498 73.786,274.489 73.786,273.486 C73.786,272.341 77.222,268.331 81.375,264.608 C85.385,260.742 89.967,255.873 91.256,253.725 C92.688,251.72 94.979,249.572 96.411,248.999 C97.986,248.57 101.853,244.56 105.003,239.978 C108.153,235.539 112.02,230.527 113.738,229.095 C115.456,227.52 116.745,224.799 116.745,222.794 C116.745,220.789 118.75,215.777 121.041,211.481 C126.769,201.457 126.769,193.295 121.041,182.412 C113.165,167.233 112.449,165.085 111.447,154.488 C110.731,146.04 111.16,142.46 113.165,137.161 C115.17,131.72 115.456,128.14 114.597,116.541 C113.738,103.51 113.881,102.221 116.602,99.5 C120.755,95.347 126.769,95.777 133.356,100.789 C136.363,103.08 139.943,105.085 141.232,105.085 C143.523,105.085 159.418,88.903 164.573,81.457 C167.008,77.877 167.724,77.591 174.597,78.307 C187.772,79.882 196.507,81.887 202.378,84.894 C213.261,90.479 214.693,88.76 213.261,72.292 C212.115,58.832 214.12,55.681 222.855,56.827 C227.581,57.4 242.473,66.851 244.908,70.717 C245.337,71.433 248.488,72.149 251.924,72.149 C262.378,72.149 273.691,79.023 288.44,94.345 C295.6,101.791 302.33,107.949 303.333,107.949 C306.197,107.949 324.383,99.5 328.536,96.35 C330.397,94.775 333.548,93.629 335.695,93.629 C340.994,93.629 342.999,91.911 346.435,84.894 C348.583,80.598 350.731,78.307 353.738,77.448 C359.466,75.586 359.323,75.729 359.037,70.145 C358.75,65.992 360.039,63.701 367.056,55.395 C371.638,50.097 377.796,42.078 380.66,37.782 C395.839,14.87 404.574,5.705 415.314,1.123 C422.474,-1.884 423.047,0.693 417.748,14.44 C415.457,20.598 411.447,32.054 408.87,39.93 C406.435,47.662 402.283,57.4 399.562,61.409 C388.965,77.734 375.648,100.932 374.502,105.228 C372.784,111.242 374.932,114.106 377.939,109.954 C381.376,105.515 399.562,70.717 403.142,61.839 C405.004,57.4 408.727,50.526 411.591,46.803 C414.455,43.08 419.753,35.634 423.476,30.479 C431.066,19.882 442.235,9.858 445.385,11.147 C450.254,13.008 446.674,27.185 433.93,55.825 C428.774,67.567 421.901,81.887 418.751,87.615 C414.884,95.061 413.452,99.214 414.025,101.648 C414.598,103.796 413.595,107.519 411.591,111.815 C408.87,117.4 408.297,120.55 408.727,128.569 C408.87,133.868 410.015,140.455 411.161,143.176 C414.741,151.624 408.44,158.498 398.273,157.209 C385.529,155.634 386.245,162.221 400.135,172.675 C404.574,175.968 410.445,179.405 413.166,180.407 C424.335,184.274 431.782,201.887 427.486,214.775 C425.194,221.505 415.314,232.245 403.858,240.407 C393.548,247.854 371.925,258.737 363.046,261.171 C348.87,265.037 341.423,268.474 339.991,272.054 C336.698,281.076 336.841,282.365 341.423,284.656 C343.715,285.944 346.722,288.665 348.011,290.813 C349.299,293.104 352.879,296.541 355.886,298.689 C360.039,301.553 361.901,304.131 363.046,308.713 C365.194,316.589 367.915,322.46 371.638,327.042 C373.213,329.047 376.077,334.775 377.796,339.93 C380.23,346.804 382.378,349.954 385.672,352.102 C388.106,353.677 390.827,356.684 391.686,358.689 C392.545,360.837 395.552,364.56 398.273,367.281 C400.994,369.859 403.142,372.866 403.142,373.868 C403.142,374.871 405.576,382.031 408.727,389.62 C412.736,399.787 414.455,406.804 415.171,415.109 C415.6,421.41 416.459,427.997 416.889,429.572 C417.462,431.577 416.459,433.868 414.025,436.589 C412.02,438.737 410.302,440.885 410.302,441.315 C410.302,441.744 413.452,445.324 417.175,449.334 C422.331,454.775 425.051,459.214 427.342,466.231 C430.206,474.966 430.35,476.112 428.345,480.837 C427.199,483.701 425.624,485.993 424.908,485.993 C424.192,485.993 420.755,488.141 417.319,490.861 L411.018,495.73 L384.24,497.448 L357.605,499.167 L349.872,495.3 L342.283,491.577 L342.426,480.551 C342.426,468.236 343.571,465.515 352.02,456.35 C357.032,450.909 357.605,449.763 356.173,446.756 C355.314,444.895 350.159,440.026 344.717,436.016 C334.836,428.57 328.106,420.837 323.81,411.529 C322.521,408.809 319.944,404.37 317.939,401.649 C315.648,398.498 314.359,394.918 314.359,391.482 C314.359,387.043 313.5,385.754 308.201,381.887 C304.765,379.453 299.323,376.732 296.316,375.73 C293.309,374.727 288.726,372.007 286.292,369.715 C281.853,365.563 281.71,365.563 276.698,367.711 C272.545,369.429 271.256,370.861 269.967,375.73 C268.392,381.744 267.963,382.031 255.075,387.043 L251.065,388.761 L251.781,402.651 C252.211,411.673 251.638,421.124 250.206,429.572 C248.201,441.458 248.201,443.033 250.349,447.329 C251.781,450.05 252.784,455.491 252.784,460.36 C252.784,464.942 253.5,470.241 254.359,472.246 C256.793,477.544 255.075,481.84 247.485,488.141 L240.755,493.868 L206.244,497.019 C159.991,501.315 161.709,501.315 154.12,494.728 z M164.001,309.286 C164.001,308.999 164.43,307.711 164.86,306.422 C165.433,304.847 165.003,304.131 163.428,304.131 C162.139,304.131 161.137,304.417 161.137,304.703 C161.137,304.99 160.707,306.279 160.277,307.567 C159.705,309.143 160.134,309.859 161.709,309.859 C162.998,309.859 164.001,309.572 164.001,309.286 z M361.328,245.419 C390.54,234.25 413.166,216.923 413.166,205.467 C413.166,201.744 401.424,193.295 393.118,191.004 C386.674,189.142 375.934,188.856 371.352,190.431 C370.063,190.861 367.342,194.011 365.194,197.448 C363.19,201.028 359.753,204.751 357.605,206.04 C355.457,207.185 351.161,210.193 348.011,212.913 L342.426,217.782 L346.579,227.52 C350.015,235.825 350.445,237.83 349.013,241.553 C346.149,249.142 349.156,250.002 361.328,245.419 z M324.526,143.748 C330.111,140.741 326.531,133.581 318.368,131.577 C315.075,130.717 314.359,131.004 314.359,133.152 C314.359,136.016 319.371,145.18 320.946,145.18 C321.376,145.18 322.951,144.464 324.526,143.748 z M348.44,115.538 C355.886,111.242 357.318,109.81 357.318,106.23 C357.318,103.367 353.595,99.357 350.731,99.357 C349.586,99.357 345.863,102.221 342.426,105.801 C338.846,109.381 335.409,112.245 334.55,112.245 C332.116,112.245 332.688,116.254 335.552,117.83 C339.275,120.121 341.137,119.691 348.44,115.538 z M369.92,98.927 C370.206,97.495 369.49,96.493 368.202,96.493 C366.77,96.493 365.91,97.782 365.91,99.5 C365.91,102.937 369.204,102.507 369.92,98.927 z M376.65,85.18 C377.653,83.462 373.5,79.309 370.779,79.309 C368.345,79.309 368.202,82.46 370.493,84.751 C372.497,86.756 375.505,87.042 376.65,85.18 z M385.815,72.292 C387.82,68.569 384.669,64.56 380.23,65.276 C375.791,65.849 374.645,70.574 378.225,73.152 C381.805,75.729 384.24,75.443 385.815,72.292 z M394.98,57.113 C395.982,54.822 393.834,52.961 391.686,54.249 C389.538,55.538 389.968,59.261 392.259,59.261 C393.404,59.261 394.55,58.259 394.98,57.113 z" fill="#000000"/>
  </g>
</svg>
