<?xml version="1.0" encoding="UTF-8"?>
<!DOCTYPE svg PUBLIC "-//W3C//DTD SVG 1.1//EN" "http://www.w3.org/Graphics/SVG/1.1/DTD/svg11.dtd">
<svg version="1.1" xmlns="http://www.w3.org/2000/svg" xmlns:xlink="http://www.w3.org/1999/xlink" x="0" y="0" width="500" height="500" viewBox="0, 0, 500, 500">
  <g id="layer101">
    <path d="M245.884,414.232 C240.833,412.754 196.848,400.556 148.242,387.065 C99.637,373.635 59.286,362.238 58.609,361.807 C56.391,360.39 34.645,340.862 29.963,335.995 C26.328,332.299 25.281,330.759 25.035,329.034 C24.788,327.063 24.418,326.693 22.694,326.262 C20.907,325.769 20.353,325.091 18.751,321.703 C17.149,318.253 16.964,317.268 17.272,314.434 C17.704,311.292 17.642,311.107 16.164,310.738 C14.131,310.245 13.761,308.582 14.192,302.852 C14.808,295.337 14.808,294.105 14.315,292.441 C13.946,291.024 14.192,290.408 16.348,288.314 L18.874,285.85 L18.504,280.983 C18.073,276.055 17.519,274.638 15.979,274.638 C14.254,274.638 7.909,270.942 6.122,268.909 C2.857,265.212 1.44,261.331 1.132,255.725 C0.701,247.532 2.796,243.466 7.724,242.789 C11.42,242.296 12.098,241.125 9.51,239.524 C8.401,238.846 7.293,238.292 6.985,238.292 C6.738,238.292 5.444,236.628 4.151,234.595 C0.763,229.421 -0.716,223.014 0.331,218.332 C0.763,216.484 1.748,214.02 2.549,212.911 C3.412,211.802 4.705,209.892 5.568,208.66 C7.231,206.196 10.126,204.779 14.87,204.101 C17.334,203.67 18.258,203.855 20.414,205.026 L23.063,206.442 L25.404,203.978 C27.868,201.391 30.948,200.159 35.138,199.974 C38.279,199.851 46.103,203.855 48.259,206.627 C49.183,207.859 50.662,210.94 51.524,213.527 C53.619,219.81 54.543,220.303 57.808,216.73 C59.225,215.19 62.736,211.309 65.755,208.106 C68.712,204.902 72.285,200.96 73.702,199.358 C75.18,197.695 77.028,196.339 78.014,196.093 C78.999,195.908 82.572,196.031 86.084,196.463 C93.23,197.263 93.415,197.202 93.415,192.643 C93.415,190.61 92.984,189.317 91.875,187.776 C90.088,185.374 89.903,183.341 91.32,181.986 C94.585,178.721 99.76,183.711 100.622,190.918 C101.3,196.894 103.456,195.231 103.148,188.947 C102.963,185.62 102.594,184.388 101.177,182.294 C99.637,180.138 99.514,179.522 100.068,178.228 C100.992,176.195 103.271,175.702 105.736,176.996 C107.584,177.92 107.83,177.981 108.323,177.119 C110.048,173.977 113.066,173.484 115.777,175.949 C117.317,177.304 119.288,181.185 119.35,182.971 L119.35,184.388 L120.028,182.971 C120.582,181.863 120.459,181.246 119.412,179.768 C117.687,177.489 117.687,176.934 119.535,175.764 C121.383,174.532 123.416,175.271 125.634,177.92 C127.42,180.014 127.728,180.877 128.406,185.62 L128.837,188.701 L133.95,188.762 C139.679,188.885 138.694,189.563 143.499,182.232 C147.133,176.688 148.92,175.764 156.251,175.764 C160.686,175.702 162.596,175.456 164.198,174.593 C165.368,173.977 167.894,173.3 169.865,173.176 C173.192,172.868 173.746,172.992 178.674,175.702 C184.896,179.029 187.545,179.337 190.749,176.996 C191.919,176.133 193.644,175.456 194.815,175.456 C197.895,175.456 198.264,174.47 198.203,166.4 C198.141,162.396 198.264,157.899 198.511,156.359 C198.757,154.818 198.572,139.725 198.141,122.784 C197.525,98.328 197.156,91.736 196.478,90.627 C195.061,88.471 195.677,84.775 197.648,83.728 C199.004,82.927 199.373,82.927 200.297,83.666 C201.221,84.405 201.283,85.268 200.913,89.518 C200.482,95.063 201.653,140.465 202.515,151.307 C203.994,169.788 204.302,172.56 204.979,173.361 C206.027,174.593 208.86,174.408 210.154,172.992 C212.618,170.219 219.887,169.85 223.337,172.376 C224.323,173.053 226.664,173.669 229.251,173.916 C231.654,174.162 235.104,174.716 237.013,175.209 C241.942,176.441 244.529,176.318 245.884,174.84 C247.486,173.053 249.026,172.807 250.751,173.916 C251.798,174.593 252.907,174.84 254.078,174.532 C255.371,174.285 256.295,174.532 257.589,175.517 C260.361,177.735 268.862,178.782 275.269,177.673 C278.041,177.181 278.288,177.242 280.198,179.214 C282.354,181.431 286.173,183.464 288.206,183.464 C290.054,183.464 296.584,190.056 297.323,192.643 C298.001,195.231 301.759,203.116 302.313,203.177 C302.498,203.177 303.915,202.007 305.393,200.652 C309.151,197.14 311.431,195.785 313.833,195.785 C314.942,195.785 316.544,195.354 317.345,194.799 C318.392,194.122 319.501,193.937 320.856,194.183 C322.581,194.553 328.495,194.923 335.826,195.107 C336.873,195.169 339.152,195.046 340.939,194.799 C343.896,194.491 344.45,194.615 345.867,195.97 C347.715,197.633 352.274,199.42 356.463,199.974 C358.866,200.344 359.358,200.713 360.283,202.623 C361.576,205.395 364.102,207.49 366.135,207.49 C366.936,207.49 368.907,208.044 370.509,208.66 C374.143,210.139 382.029,211.371 384.678,210.816 C386.033,210.57 387.45,210.755 389.051,211.494 C391.208,212.418 391.577,212.418 393.241,211.556 C394.842,210.755 395.458,210.755 397.799,211.432 C399.278,211.925 403.036,212.603 406.054,212.972 C411.968,213.773 413.139,214.451 413.139,217.346 C413.139,220.919 412.338,221.166 402.42,221.351 C394.411,221.474 393.179,221.351 391.885,220.303 C390.16,218.948 389.236,218.948 384.616,220.242 C381.289,221.166 380.55,221.166 374.759,220.18 C371.31,219.626 367.121,219.194 365.396,219.194 L362.315,219.194 L364.348,220.426 C365.457,221.104 366.628,222.336 366.936,223.137 C367.244,223.938 367.737,224.8 368.045,224.985 C368.353,225.17 373.219,225.786 378.825,226.34 C387.511,227.265 389.421,227.326 391.516,226.587 C393.487,225.971 395.212,225.909 400.017,226.464 C405.623,227.141 406.116,227.08 408.025,225.909 L410.058,224.616 L413.077,226.525 C414.802,227.634 416.835,228.435 418.005,228.435 C419.053,228.435 421.578,229.236 423.488,230.221 C427.123,232.07 428.478,232.316 446.713,234.349 C455.214,235.273 455.46,235.273 459.157,234.041 C463.592,232.562 467.535,232.932 470.553,235.211 C471.662,236.012 473.942,236.752 476.344,237.121 C478.562,237.429 481.396,238.168 482.628,238.846 C483.86,239.462 485.954,240.14 487.248,240.325 C491.991,241.064 495.688,245.499 495.688,250.428 C495.688,253.939 494.086,258.867 492.176,261.085 C491.314,262.132 489.342,263.611 487.741,264.412 C485.03,265.767 484.599,265.829 476.591,265.336 C469.691,264.904 467.843,264.966 465.871,265.767 C462.606,266.999 458.972,266.383 454.968,263.796 C451.395,261.516 446.774,260.469 445.604,261.639 C444.741,262.564 445.357,263.118 452.38,267.492 C457.124,270.51 467.535,277.225 475.42,282.462 C477.699,283.94 479.732,285.542 479.917,286.096 C480.102,286.651 480.287,290.1 480.287,293.797 L480.287,300.511 L482.689,302.914 C484.537,304.762 485.708,305.44 487.494,305.563 C489.589,305.748 490.082,306.117 492.546,309.752 C494.579,312.709 495.38,314.496 495.564,316.713 C495.688,318.315 496.119,319.609 496.427,319.609 C496.735,319.609 497.659,320.286 498.46,321.149 C499.815,322.442 500,323.182 500,326.816 C500,329.342 499.63,331.683 499.076,332.792 C497.905,334.948 497.905,335.687 499.014,337.843 C499.507,338.767 499.754,339.815 499.569,340.184 C495.749,346.468 494.332,348.193 491.745,349.486 C491.067,349.856 490.082,351.027 489.589,352.074 C488.603,354.292 487.371,354.846 478.439,357.495 C475.543,358.357 472.894,359.466 472.525,359.898 C472.217,360.39 469.444,361.499 466.364,362.362 C461.374,363.84 457.863,364.21 429.156,366.12 C411.722,367.29 395.643,368.276 393.487,368.276 C391.023,368.276 386.895,367.598 382.46,366.366 C378.64,365.319 375.314,364.579 375.252,364.703 C375.129,364.826 374.821,367.536 374.575,370.74 C374.328,373.943 373.651,378.009 373.034,379.672 C372.357,381.397 371.864,383.738 371.864,384.97 C371.864,387.558 369.03,392.178 366.196,394.334 C365.149,395.073 363.178,396.86 361.761,398.215 C360.098,399.878 357.387,401.603 353.999,403.082 C351.104,404.314 347.962,405.854 346.914,406.47 C345.929,407.086 341.37,408.996 336.873,410.721 L328.68,413.862 L301.143,415.095 C285.988,415.772 269.478,416.45 264.365,416.573 L255.125,416.881 L245.884,414.232 z M111.588,184.142 C111.341,182.54 110.849,181.616 110.294,181.616 C109.678,181.616 109.493,182.109 109.74,183.156 C109.925,184.019 110.171,185.436 110.417,186.298 C110.972,189.07 112.081,187.037 111.588,184.142 z" fill="#000000"/>
  </g>
</svg>
