<?xml version="1.0" encoding="UTF-8"?>
<!DOCTYPE svg PUBLIC "-//W3C//DTD SVG 1.1//EN" "http://www.w3.org/Graphics/SVG/1.1/DTD/svg11.dtd">
<svg version="1.1" xmlns="http://www.w3.org/2000/svg" xmlns:xlink="http://www.w3.org/1999/xlink" x="0" y="0" width="500" height="500" viewBox="0, 0, 500, 500">
  <g id="layer102">
    <path d="M412.531,403.172 C413.855,401.967 418.554,397.991 422.892,394.497 C427.229,391.003 431.687,386.907 432.892,385.34 C434.217,383.895 437.108,381.605 439.518,380.401 C442.048,379.075 445.302,376.665 446.988,374.858 C448.675,373.051 451.446,370.642 453.133,369.557 C455.904,367.87 463.012,361.726 476.385,349.798 C478.433,347.87 482.892,344.497 486.144,342.328 C497.229,334.738 500,331.605 500,326.063 C500,318.834 497.952,315.942 483.253,302.208 C470,289.918 468.072,286.906 471.686,283.895 C474.578,281.485 473.855,278.111 469.157,272.328 C465.301,267.629 464.217,267.027 459.759,266.906 C447.831,266.786 442.65,264.858 436.265,258.473 C435.181,257.388 430,252.087 424.699,246.545 C419.398,241.124 413.494,235.942 411.687,234.979 C409.277,233.654 404.82,233.171 397.229,233.292 C391.085,233.413 385.542,233.413 384.699,233.413 C383.976,233.292 383.132,231.846 382.891,230.039 C382.651,227.509 381.807,226.545 379.518,226.304 C377.832,226.063 375.783,225.219 374.82,224.497 C372.53,222.569 346.144,222.931 339.157,224.979 C334.699,226.304 333.133,227.388 331.928,230.521 C330.843,232.93 329.398,234.497 328.072,234.497 C325.301,234.497 321.687,228.593 320.241,221.967 C317.59,210.16 317.59,210.762 321.446,208.713 C323.735,207.509 325.663,205.22 326.506,202.69 C327.47,199.557 329.157,197.991 333.133,196.063 C336.145,194.617 338.916,193.533 339.277,193.533 C339.638,193.533 342.169,191.846 344.699,189.798 C349.277,186.184 349.398,185.943 349.398,178.473 C349.398,171.123 349.518,170.883 353.976,167.991 C356.386,166.424 362.29,163.292 366.868,161.244 C371.566,159.075 376.265,156.786 377.349,156.184 C378.554,155.461 380,154.979 380.723,154.979 C381.446,154.979 384.096,153.533 386.747,151.846 C391.205,148.834 391.566,148.232 391.566,142.931 C391.566,139.436 390.843,136.665 389.879,135.822 C388.916,134.979 387.831,132.931 387.35,131.124 C386.867,129.316 384.819,125.701 382.651,123.051 C380.482,120.401 376.627,114.135 374.096,109.196 C366.747,94.738 362.29,91.606 357.229,97.147 C356.024,98.473 354.458,99.557 353.855,99.557 C353.132,99.557 347.711,101.967 341.687,104.858 C316.385,117.268 314.94,117.75 301.807,118.232 L289.639,118.593 L283.133,112.69 C279.518,109.436 275.903,106.786 275.06,106.786 C270.603,106.786 254.578,118.834 253.494,123.172 C252.892,125.461 252.169,125.942 249.879,125.34 C247.47,124.737 234.578,130.401 222.891,137.148 C221.928,137.629 219.518,138.955 217.47,139.919 C215.542,140.883 211.687,143.051 209.036,144.618 C202.169,148.834 180,159.798 178.313,159.798 C177.47,159.798 175.421,160.762 173.735,162.087 C171.928,163.292 164.698,167.268 157.591,171.003 C150.482,174.618 143.735,178.232 142.771,179.075 C140,181.365 140.602,184.738 144.699,190.762 C147.711,195.099 148.193,196.424 146.868,197.268 C145.904,197.871 138.193,198.352 129.759,198.352 C120.602,198.352 113.253,198.955 111.686,199.678 C110.241,200.521 103.615,206.666 96.988,213.533 L84.94,226.063 L45.181,226.063 C11.084,226.063 4.94,226.304 2.65,227.991 L-0,229.798 L-0,275.46 L-0,321.003 L6.868,327.388 C10.602,331.003 14.82,335.099 16.265,336.545 C18.554,338.955 20.603,339.195 40.361,340.28 C52.289,340.882 63.735,341.364 65.663,341.364 C67.711,341.485 72.048,342.328 75.301,343.292 L81.326,344.979 L83.133,353.774 C84.94,362.087 85.422,362.81 92.169,369.075 C96.144,372.69 102.891,378.473 107.229,382.087 C111.566,385.581 117.47,390.762 120.361,393.413 C131.446,403.774 121.204,402.81 228.916,404.015 C281.566,404.617 343.856,405.22 367.349,405.341 C408.072,405.581 410,405.461 412.531,403.172 z" fill="#000000"/>
  </g>
</svg>
