<?xml version="1.0" encoding="UTF-8"?>
<!DOCTYPE svg PUBLIC "-//W3C//DTD SVG 1.1//EN" "http://www.w3.org/Graphics/SVG/1.1/DTD/svg11.dtd">
<svg version="1.1" xmlns="http://www.w3.org/2000/svg" xmlns:xlink="http://www.w3.org/1999/xlink" x="0" y="0" width="500" height="500" viewBox="0, 0, 500, 500">
  <g id="layer102">
    <path d="M414.144,401.481 C415.456,400.262 420.114,396.237 424.415,392.697 C428.716,389.157 433.131,385.015 434.32,383.436 C435.63,381.976 438.498,379.656 440.895,378.426 C443.411,377.074 446.64,374.631 448.307,372.806 C449.976,370.981 452.722,368.542 454.397,367.44 C457.15,365.724 464.195,359.505 477.444,347.437 C479.472,345.488 483.895,342.068 487.126,339.865 C498.131,332.158 500.87,328.997 500.812,323.454 C500.736,316.225 498.658,313.354 483.815,299.773 C470.433,287.621 468.473,284.629 472.056,281.58 C474.923,279.14 474.165,275.774 469.406,270.039 C465.501,265.38 464.41,264.789 459.951,264.715 C448.021,264.72 442.82,262.846 436.368,256.527 C435.272,255.453 430.036,250.207 424.676,244.719 C419.318,239.353 413.36,234.233 411.542,233.289 C409.119,231.988 404.656,231.553 397.066,231.753 C390.923,231.938 385.381,231.996 384.537,232.004 C383.813,231.891 382.954,230.454 382.694,228.65 C382.427,226.122 381.574,225.166 379.282,224.95 C377.593,224.726 375.535,223.904 374.564,223.191 C372.254,221.287 345.871,221.925 338.905,224.046 C334.461,225.418 332.906,226.518 331.734,229.664 C330.674,232.085 329.245,233.666 327.919,233.68 C325.148,233.709 321.472,227.843 319.957,221.231 C317.182,209.452 317.188,210.054 321.023,207.965 C323.299,206.736 325.204,204.427 326.02,201.888 C326.952,198.745 328.622,197.161 332.578,195.192 C335.575,193.714 338.335,192.601 338.697,192.597 C339.058,192.594 341.57,190.88 344.08,188.806 C348.62,185.143 348.739,184.901 348.66,177.431 C348.584,170.081 348.701,169.839 353.129,166.9 C355.523,165.309 361.394,162.115 365.951,160.018 C370.627,157.8 375.302,155.462 376.38,154.849 C377.577,154.113 379.019,153.616 379.741,153.608 C380.464,153.601 383.1,152.127 385.733,150.413 C390.16,147.354 390.515,146.748 390.459,141.446 C390.423,137.952 389.671,135.188 388.698,134.355 C387.726,133.522 386.62,131.485 386.119,129.683 C385.618,127.88 383.532,124.287 381.336,121.659 C379.139,119.031 375.218,112.806 372.636,107.892 C365.135,93.51 360.645,90.425 355.642,96.019 C354.451,97.358 352.896,98.459 352.294,98.465 C351.57,98.473 346.174,100.939 340.18,103.893 C315.007,116.568 313.566,117.065 300.438,117.684 L288.273,118.172 L281.705,112.337 C278.056,109.121 274.413,106.509 273.57,106.517 C269.112,106.564 253.213,118.78 252.174,123.129 C251.596,125.425 250.878,125.914 248.582,125.335 C246.166,124.758 233.333,130.556 221.716,137.425 C220.758,137.917 218.361,139.268 216.323,140.253 C214.405,141.237 210.573,143.447 207.938,145.041 C201.114,149.329 179.059,160.525 177.373,160.543 C176.529,160.552 174.491,161.537 172.818,162.88 C171.023,164.104 163.835,168.156 156.766,171.964 C149.695,175.654 142.985,179.339 142.03,180.192 C139.283,182.511 139.92,185.878 144.08,191.859 C147.138,196.166 147.633,197.485 146.317,198.343 C145.359,198.956 137.653,199.518 129.219,199.606 C120.062,199.702 112.718,200.381 111.159,201.121 C109.722,201.979 103.16,208.193 96.605,215.13 L84.687,227.787 L44.927,228.202 C10.828,228.559 4.686,228.864 2.414,230.574 L-0.218,232.41 L0.259,278.074 L0.735,323.619 L7.67,329.933 C11.442,333.508 15.703,337.561 17.164,338.991 C19.478,341.377 21.529,341.597 41.3,342.475 C53.234,342.953 64.686,343.315 66.614,343.295 C68.663,343.394 73.01,344.192 76.273,345.122 L82.315,346.746 L84.215,355.523 C86.109,363.818 86.598,364.535 93.411,370.73 C97.424,374.303 104.232,380.016 108.608,383.585 C112.982,387.034 118.94,392.153 121.859,394.774 C133.052,405.02 122.8,404.163 230.529,404.243 C283.189,404.295 345.487,404.246 368.983,404.122 C409.711,403.937 411.638,403.796 414.144,401.481 z" fill="#000000"/>
  </g>
</svg>
