<?xml version="1.0" encoding="UTF-8"?>
<!DOCTYPE svg PUBLIC "-//W3C//DTD SVG 1.1//EN" "http://www.w3.org/Graphics/SVG/1.1/DTD/svg11.dtd">
<svg version="1.1" xmlns="http://www.w3.org/2000/svg" xmlns:xlink="http://www.w3.org/1999/xlink" x="0" y="0" width="500" height="500" viewBox="0, 0, 500, 500">
  <g id="layer101">
    <path d="M103.292,355.734 C102.827,355.555 101.611,355.484 100.573,355.627 C99.429,355.77 98.427,355.699 97.962,355.412 C97.497,355.198 95.136,354.947 92.453,354.911 C88.84,354.804 87.409,354.625 86.3,354.16 C85.513,353.803 84.225,353.409 83.438,353.23 C80.325,352.658 77.285,351.334 76.998,350.404 C76.855,349.975 76.033,349.295 75.102,348.866 C73.743,348.222 73.421,347.864 73.206,346.827 C73.063,346.147 72.777,345.539 72.563,345.467 C71.346,345.074 70.452,343.857 70.237,342.355 C69.951,340.602 69.271,339.672 68.198,339.672 C67.84,339.672 66.696,339.35 65.694,338.956 C64.657,338.599 63.083,338.169 62.188,338.062 C60.757,337.847 56.572,336.595 54.461,335.737 C54.068,335.558 52.458,334.986 50.884,334.449 C48.415,333.626 44.015,331.694 40.152,329.727 C39.579,329.441 38.184,328.725 37.039,328.189 C35.93,327.652 34.929,327.008 34.786,326.829 C34.678,326.615 34.321,326.436 33.999,326.436 C33.677,326.436 32.925,326.078 32.317,325.613 C31.709,325.148 29.992,324.075 28.561,323.216 C27.094,322.358 25.234,321.07 24.447,320.354 C23.624,319.639 22.694,318.887 22.336,318.673 C21.657,318.315 20.655,317.457 15.79,313.128 C13.214,310.803 4.557,301.645 4.557,301.215 C4.557,301.072 3.841,300.285 3.019,299.427 C1.48,297.888 1.123,297.28 0.264,294.383 C-0.129,293.095 -0.094,292.773 0.443,291.986 C1.337,290.591 2.124,290.519 4.664,291.521 C5.916,292.057 7.025,292.451 7.097,292.451 C7.204,292.451 7.204,291.878 7.133,291.199 C6.775,288.194 9.565,287.657 13.679,289.875 C16.398,291.378 16.183,291.378 20.655,289.982 C26.558,288.158 27.058,288.086 28.239,288.301 C29.098,288.444 29.777,288.945 30.493,289.911 C31.065,290.662 32.389,291.878 33.462,292.63 C35.286,293.882 35.501,293.953 37.576,293.774 C40.617,293.56 46.555,292.522 48.88,291.843 C51.528,291.056 52.815,291.664 53.746,294.132 C54.497,296.064 56.321,298.532 57.037,298.532 C57.43,298.532 59.147,297.602 61.795,295.992 C62.081,295.813 62.975,295.348 63.762,294.919 C64.549,294.49 65.658,293.774 66.195,293.309 C66.767,292.844 67.411,292.451 67.662,292.451 C67.912,292.451 68.663,292.021 69.343,291.521 C70.023,291.02 72.026,289.803 73.779,288.802 C75.568,287.8 77.07,286.87 77.177,286.763 C77.285,286.62 77.893,286.155 78.537,285.69 L79.753,284.831 L79.681,278.535 C79.61,269.413 79.932,263.152 80.504,261.507 C80.862,260.576 81.577,259.646 82.579,258.895 C83.688,258.037 84.582,256.856 85.656,254.853 C87.659,250.989 90.736,247.519 92.632,246.947 C94.134,246.517 95.493,245.051 96.137,243.19 C96.71,241.545 98.534,240.865 103.113,240.543 C105.295,240.4 108.658,240.114 110.626,239.899 C112.593,239.72 115.956,239.434 118.102,239.291 L121.966,239.041 L122.681,237.86 C123.504,236.429 123.611,236.393 128.012,236.107 L131.446,235.857 L132.734,237.002 L134.022,238.111 L137.814,237.681 C141.212,237.288 141.677,237.145 141.999,236.429 C142.428,235.499 143.251,235.213 145.648,235.213 C146.65,235.213 148.367,235.034 149.512,234.784 C151.515,234.354 151.622,234.39 152.552,235.285 C153.375,236 153.948,236.215 155.522,236.25 C158.026,236.286 160.852,235.606 161.245,234.819 C161.782,233.889 164.286,233.067 166.754,233.067 C168.472,233.067 169.151,232.923 169.581,232.423 C170.296,231.636 170.368,229.453 169.759,228.845 C169.438,228.523 167.005,228.416 160.995,228.416 C153.733,228.416 152.445,228.344 150.799,227.736 C149.762,227.379 148.438,226.949 147.866,226.806 C147.294,226.699 146.22,225.948 145.469,225.161 L144.074,223.694 L144.074,217.469 C144.074,213.999 144.217,210.923 144.432,210.565 C145.004,209.42 146.685,208.597 148.868,208.347 C150.764,208.132 151.121,207.918 152.123,206.737 C153.089,205.592 153.482,205.378 154.591,205.414 C155.343,205.449 156.344,205.628 156.881,205.807 C159.421,206.773 160.136,206.666 161.603,205.163 C162.354,204.376 163.463,202.73 164.071,201.514 C165.073,199.547 165.467,199.153 167.756,197.794 C169.151,196.971 170.976,196.112 171.799,195.898 C172.621,195.683 173.587,195.218 173.945,194.825 C174.303,194.395 175.161,193.966 175.877,193.859 C176.592,193.716 177.272,193.429 177.415,193.215 C177.844,192.571 177.737,187.026 177.308,186.06 C176.843,185.023 177.2,184.307 179.418,181.839 C181.422,179.621 182.96,179.084 187.396,179.048 C189.435,179.013 191.724,179.013 192.512,179.013 C193.263,178.977 194.515,179.263 195.266,179.585 L196.625,180.229 L197.878,179.191 C198.521,178.619 199.201,177.76 199.344,177.26 C199.452,176.759 199.809,175.9 200.06,175.292 C200.31,174.72 200.632,173.253 200.739,172.108 C201.061,169.246 201.562,168.316 203.387,167.279 C204.853,166.492 205.032,166.456 206.249,166.993 C208.431,167.851 210.398,168.209 211.543,167.887 C212.115,167.708 212.974,167.708 213.475,167.851 C214.477,168.102 226.532,168.424 231.29,168.316 C231.827,168.28 233.902,168.316 235.905,168.352 C238.91,168.459 239.661,168.352 240.234,167.851 C240.985,167.172 242.809,167.028 243.417,167.637 C243.632,167.851 244.204,168.209 244.634,168.459 C245.528,168.889 245.922,169.926 245.993,172.001 C246.065,174.112 246.565,174.756 248.104,174.756 C249.964,174.756 251.109,175.471 251.824,177.009 C252.54,178.476 253.255,178.762 256.153,178.798 C260.088,178.834 270.069,177.045 271.643,176.008 C272.072,175.721 273.503,175.149 274.827,174.72 C276.794,174.112 277.689,174.004 279.62,174.183 C282.84,174.505 284.557,175.006 285.451,175.9 C286.095,176.544 286.131,176.902 285.916,178.869 C285.702,180.909 285.773,181.195 286.417,181.517 C286.811,181.731 287.848,181.91 288.743,181.91 C290.281,181.91 290.424,181.839 291.068,180.515 C291.855,178.977 292.499,178.691 295.432,178.691 C297.543,178.691 298.115,178.977 299.117,180.587 C299.654,181.481 299.904,181.588 300.906,181.409 C301.55,181.302 302.802,181.338 303.732,181.517 C305.163,181.767 305.592,181.731 306.236,181.195 C306.987,180.551 307.023,180.408 306.916,173.968 C306.808,168.424 306.88,167.172 307.381,165.884 C307.738,165.061 307.917,164.023 307.81,163.594 C307.416,162.163 308.132,161.519 310.171,161.519 C311.208,161.484 313.069,161.269 314.356,160.983 C315.644,160.696 318.005,160.482 319.615,160.446 C323.085,160.446 324.373,160.053 324.373,159.015 C324.373,158.157 325.017,156.833 325.589,156.439 C326.376,155.903 328.201,156.153 328.845,156.869 C330.383,158.586 331.17,157.298 331.277,152.934 C331.349,149.32 331.85,148.355 334.247,146.924 C335.427,146.208 335.964,146.137 337.896,146.315 C339.827,146.494 340.292,146.423 341.079,145.779 C342.331,144.813 344.084,144.849 345.05,145.886 C346.052,146.959 346.052,148.033 344.943,150.358 C343.619,153.184 343.727,153.864 345.945,156.046 C348.735,158.8 350.953,159.337 353.707,157.942 C355.353,157.083 356.856,157.048 358.537,157.727 C359.217,158.013 361.291,158.371 363.116,158.514 L366.479,158.765 L367.266,157.62 C368.375,156.082 370.986,154.365 372.238,154.365 C372.811,154.365 373.705,154.043 374.206,153.649 C375.172,152.898 376.746,152.719 378.105,153.256 C379.143,153.649 386.691,154.4 389.91,154.436 C392.2,154.436 392.379,154.508 393.202,155.617 C394.239,156.976 396.457,158.443 396.994,158.121 C397.172,158.013 399.068,158.228 401.179,158.622 C403.969,159.158 406.76,159.373 411.303,159.409 C414.737,159.444 418.744,159.659 420.175,159.945 C421.785,160.231 423.86,160.339 425.541,160.231 C427.473,160.088 429.047,160.196 430.8,160.589 C432.195,160.911 435.379,161.305 437.954,161.412 C442.14,161.627 442.641,161.698 443.392,162.449 C444.394,163.451 444.501,165.955 443.642,167.207 C443.142,167.923 442.855,167.994 441.639,167.815 C440.53,167.637 439.922,167.744 438.992,168.316 C438.026,168.924 436.988,169.139 433.84,169.282 L429.905,169.497 L427.508,171.285 L425.076,173.038 L422.393,172.824 C419.71,172.609 412.806,171.858 407.01,171.178 C402.646,170.677 392.2,170.677 391.234,171.214 C390.733,171.464 389.696,171.536 388.551,171.429 C386.905,171.25 386.583,171.357 385.904,172.108 C385.403,172.609 384.974,173.682 384.795,174.791 C384.437,176.973 383.543,178.082 381.682,178.619 C380.931,178.834 379.643,179.728 378.749,180.658 C377.89,181.553 376.996,182.268 376.781,182.268 C375.994,182.268 374.814,183.914 374.814,185.058 C374.814,186.418 375.601,186.919 377.604,186.919 C378.713,186.919 379.464,187.241 380.931,188.385 L382.863,189.852 L387.156,189.637 C391.735,189.387 394.919,189.137 396.099,188.886 C396.85,188.743 399.784,186.024 401.895,183.556 C402.968,182.304 403.111,182.232 404.935,182.34 L406.831,182.447 L406.939,185.309 C407.01,186.847 407.225,188.349 407.475,188.636 C407.797,189.029 408.62,189.101 411.303,188.958 C413.736,188.85 415.202,188.958 416.49,189.315 C417.492,189.637 418.458,189.924 418.708,189.995 C418.959,190.067 419.567,190.925 420.068,191.927 C420.568,192.893 421.105,193.716 421.248,193.716 C421.427,193.716 422.5,194.61 423.645,195.719 C424.79,196.828 426.221,197.937 426.829,198.187 C427.437,198.438 428.439,199.225 429.082,199.94 C429.691,200.656 430.513,201.228 430.907,201.228 C431.3,201.228 432.481,202.23 433.733,203.625 C437.597,207.953 440.137,210.422 441.353,211.066 C442.033,211.423 443.821,212.926 445.288,214.464 L448.043,217.219 L452.657,217.648 C457.451,218.077 461.171,218.793 463.461,219.616 C464.176,219.902 465.25,220.224 465.822,220.367 C466.43,220.474 467.36,220.939 467.968,221.369 C468.577,221.798 469.829,222.478 470.795,222.907 C472.977,223.837 473.907,224.624 473.907,225.554 C473.907,226.27 475.517,227.343 476.626,227.343 C476.948,227.343 477.663,226.949 478.235,226.448 C478.808,225.983 479.81,225.518 480.453,225.411 C481.097,225.339 483.28,224.982 485.354,224.66 C487.429,224.374 490.649,224.052 492.509,224.016 C496.623,223.944 496.874,224.266 494.691,227.128 C493.904,228.166 493.117,229.525 493.01,230.169 C492.867,230.813 492.509,231.421 492.187,231.564 C491.865,231.671 491.078,232.244 490.398,232.816 C489.361,233.71 489.003,233.818 487.751,233.639 C486.893,233.496 486.141,233.567 485.855,233.818 C485.569,234.032 484.961,234.104 484.46,233.997 C483.852,233.854 483.136,233.997 482.457,234.39 C481.455,234.998 481.348,234.998 480.31,234.39 C478.951,233.639 477.341,233.603 476.626,234.354 C475.91,235.07 475.91,235.177 476.769,236.465 C477.341,237.324 477.448,237.896 477.27,239.363 C476.912,242.332 477.413,242.403 486.678,241.08 C487.894,240.901 488.216,240.973 488.538,241.545 C488.824,242.153 488.61,242.69 487.143,244.836 C486.141,246.231 485.354,247.591 485.354,247.805 C485.354,248.02 485.176,248.735 484.925,249.379 C484.567,250.417 484.603,250.667 485.176,251.311 C485.855,252.062 490.148,254.531 490.756,254.531 C491.543,254.531 497.839,260.29 498.555,261.65 C498.734,261.972 498.877,263.045 498.841,263.975 C498.77,265.263 498.913,265.764 499.413,266.014 C500.165,266.443 500.2,268.053 499.485,268.983 C499.056,269.556 499.056,269.77 499.485,270.665 C500.2,271.988 500.165,272.167 499.127,273.705 C498.626,274.457 498.126,275.637 498.018,276.388 C497.839,277.39 497.088,278.535 494.834,281.111 C491.901,284.437 491.472,284.724 488.073,285.833 C486.07,286.477 483.816,288.301 482.421,290.447 C480.918,292.809 478.915,294.168 475.839,294.955 C474.73,295.205 473.907,295.813 472.512,297.352 C468.147,302.253 465.965,303.898 463.89,303.898 C463.461,303.898 462.424,304.506 461.601,305.258 C460.814,306.009 459.812,306.832 459.383,307.118 C458.989,307.404 458.524,308.048 458.417,308.549 C458.166,309.622 454.339,312.269 452.443,312.663 C451.763,312.806 450.475,313.557 449.617,314.308 C448.758,315.095 447.899,315.704 447.756,315.704 C447.577,315.704 447.112,316.348 446.719,317.135 C446.254,318.065 445.503,318.816 444.751,319.174 C444.072,319.496 443.428,320.032 443.32,320.39 C443.106,321.034 441.854,321.606 439.922,321.928 C438.741,322.143 437.275,323.323 433.662,327.115 C431.73,329.119 430.084,330.371 429.297,330.371 C427.759,330.371 426.078,331.337 424.146,333.34 C423.073,334.449 421.928,335.737 421.606,336.202 C421.248,336.703 420.497,337.311 419.889,337.561 C419.316,337.847 418.815,338.169 418.815,338.313 C418.815,338.742 416.955,339.565 415.417,339.815 C414.058,340.065 412.376,341.425 408.942,345.11 C407.368,346.755 405.043,348.15 403.433,348.365 C401.501,348.615 397.172,350.869 396.457,351.978 C395.67,353.194 390.948,354.697 388.229,354.625 C385.51,354.554 381.79,354.983 380.18,355.591 C378.212,356.307 374.599,356.199 372.989,355.412 C371.916,354.84 371.201,354.768 369.197,354.947 C367.874,355.055 366.336,355.377 365.799,355.627 C364.332,356.378 359.825,356.271 357.929,355.448 C356.677,354.911 355.89,354.84 353.886,355.019 C352.491,355.162 351.024,355.448 350.595,355.699 C349.307,356.414 344.263,356.235 342.689,355.448 C341.616,354.911 340.865,354.804 338.861,354.947 C337.466,355.055 336.035,355.377 335.642,355.627 C334.533,356.414 329.668,356.271 327.986,355.412 C326.841,354.84 326.162,354.768 323.98,354.947 C322.513,355.055 320.903,355.377 320.366,355.627 C319.794,355.913 318.256,356.128 316.646,356.128 C314.464,356.128 313.641,355.985 312.675,355.377 C311.566,354.697 311.137,354.625 308.74,354.84 C307.238,354.983 305.663,355.341 305.27,355.627 C304.089,356.45 299.296,356.307 297.829,355.412 C296.183,354.411 291.819,354.411 290.46,355.377 C288.993,356.378 284.664,356.307 282.518,355.233 C281.123,354.518 280.515,354.446 278.404,354.59 C277.009,354.697 275.649,354.983 275.363,355.233 C275.077,355.484 273.539,355.77 271.965,355.877 C269.389,356.056 268.96,356.02 267.672,355.233 C266.384,354.446 265.991,354.375 263.558,354.59 C262.091,354.697 260.553,355.019 260.159,355.269 C259.086,356.02 254.972,355.913 252.826,355.055 C251.359,354.482 250.536,354.375 248.426,354.554 C246.995,354.697 245.492,355.019 245.063,355.269 C243.775,356.092 239.196,355.913 237.443,355.019 C236.191,354.375 235.654,354.303 233.401,354.518 C232.006,354.661 230.503,354.983 230.11,355.233 C229.001,355.913 223.599,355.734 222.168,354.947 C221.238,354.446 220.486,354.375 218.412,354.554 C216.981,354.697 215.407,354.983 214.906,355.233 C214.369,355.52 212.867,355.663 211.15,355.627 C208.86,355.591 208.001,355.412 206.928,354.768 C205.784,354.053 205.247,353.946 202.993,354.089 C201.312,354.16 200.024,354.446 199.487,354.804 C198.2,355.734 193.12,355.663 191.903,354.697 C190.83,353.838 190.365,353.803 188.684,354.518 C187.968,354.804 186.752,355.055 186.001,355.055 C185.249,355.055 184.319,355.305 183.926,355.591 C183.139,356.164 181.529,356.271 180.635,355.806 C180.241,355.591 179.454,355.627 178.56,355.842 C177.236,356.199 176.986,356.164 175.698,355.305 C173.945,354.089 170.546,353.946 168.472,355.019 C166.504,356.02 161.854,355.842 159.671,354.661 C158.24,353.91 157.918,353.874 156.845,354.268 C156.201,354.518 155.235,354.697 154.699,354.697 C154.162,354.697 153.089,354.983 152.266,355.305 C151.05,355.77 150.477,355.806 149.297,355.52 C148.474,355.305 147.222,355.233 146.507,355.305 C145.541,355.448 144.825,355.269 143.931,354.733 C142.858,354.053 142.357,353.981 140.425,354.196 C139.173,354.339 137.742,354.661 137.205,354.911 C136.669,355.198 135.131,355.412 133.628,355.412 C132.197,355.412 130.587,355.412 130.051,355.448 C129.55,355.484 128.691,355.162 128.119,354.733 C127.26,354.053 126.867,354.017 124.792,354.196 C123.075,354.375 122.109,354.661 121.25,355.305 C120.07,356.199 120.034,356.199 118.675,355.591 C117.423,355.019 117.244,355.019 116.206,355.591 C115.097,356.164 114.99,356.128 113.309,355.269 C111.77,354.446 111.27,354.375 109.302,354.59 C108.05,354.697 106.44,355.09 105.725,355.448 C104.973,355.842 104.33,356.128 104.294,356.092 C104.222,356.092 103.793,355.913 103.292,355.734 z M70.309,312.198 C71.31,311.232 72.419,309.801 72.849,308.978 C73.278,308.155 74.172,307.118 74.852,306.653 C75.532,306.224 76.247,305.437 76.426,304.864 C76.641,304.328 77.32,303.576 78,303.183 L79.252,302.432 L79.216,299.784 C79.216,298.246 79.038,296.958 78.823,296.744 C78.537,296.529 77.32,297.03 75.246,298.21 C73.493,299.176 71.919,299.963 71.74,299.963 C71.561,299.963 69.844,300.822 67.948,301.895 C66.052,302.932 64.12,303.898 63.655,304.041 C63.19,304.185 62.582,304.828 62.26,305.472 C61.759,306.581 61.759,306.724 62.51,308.155 C63.476,310.087 67.089,313.915 67.912,313.915 C68.27,313.915 69.343,313.128 70.309,312.198 z M472.261,236.429 C472.977,236.143 473.013,235.356 472.297,235.07 C470.938,234.569 469.042,235.571 469.864,236.393 C470.151,236.715 471.51,236.715 472.261,236.429 z M462.102,227.879 C462.638,227.2 463.819,227.2 465.285,227.808 C466.144,228.166 466.931,228.201 468.541,227.951 C469.721,227.772 470.687,227.45 470.687,227.271 C470.687,226.913 465.643,224.552 463.89,224.159 C463.211,223.98 461.672,223.551 460.492,223.229 C457.916,222.442 454.661,222.12 454.196,222.585 C453.731,223.05 454.16,224.016 454.947,224.23 C455.305,224.338 456.02,225.053 456.521,225.84 C457.773,227.844 461.136,229.06 462.102,227.879 z M354.423,180.408 C355.067,179.37 355.782,177.975 355.997,177.26 C356.319,176.33 356.82,175.829 357.893,175.292 C359.717,174.362 362.651,172.001 362.651,171.393 C362.651,171.142 362.114,170.749 361.506,170.57 C360.576,170.284 360.039,170.355 358.93,170.928 C358.036,171.357 357.106,171.536 356.355,171.429 C354.423,171.107 353.707,171.929 353.707,174.398 C353.707,176.258 353.6,176.58 352.742,177.188 C351.919,177.796 351.776,178.19 351.668,180.086 C351.561,182.196 351.561,182.268 352.42,182.268 C353.099,182.268 353.564,181.839 354.423,180.408 z M371.237,175.328 C373.133,174.434 373.168,174.29 371.559,173.897 C370.128,173.575 366.693,175.113 367.158,175.865 C367.516,176.437 369.341,176.186 371.237,175.328 z M423.502,169.533 C424.217,168.674 423.323,168.316 420.533,168.316 C419.209,168.316 417.42,168.173 416.598,167.959 C413.449,167.279 409.157,166.85 403.182,166.706 C399.784,166.635 396.672,166.384 396.278,166.17 C395.777,165.884 395.348,165.884 394.847,166.17 C393.738,166.778 394.275,167.136 396.529,167.386 C402.431,168.066 407.94,168.674 411.303,169.032 C413.378,169.246 416.276,169.568 417.742,169.711 C422.035,170.176 422.965,170.141 423.502,169.533 z" fill="#000000"/>
  </g>
</svg>
