<?xml version="1.0" encoding="UTF-8"?>
<!DOCTYPE svg PUBLIC "-//W3C//DTD SVG 1.1//EN" "http://www.w3.org/Graphics/SVG/1.1/DTD/svg11.dtd">
<svg version="1.1" xmlns="http://www.w3.org/2000/svg" xmlns:xlink="http://www.w3.org/1999/xlink" x="0" y="0" width="500" height="500" viewBox="0, 0, 500, 500">
  <g id="layer101">
    <path d="M185.285,458.376 L165.483,456.319 L165.483,449.119 C165.612,445.133 165.997,440.632 166.383,439.218 C167.669,435.232 182.199,426.103 187.213,426.103 C190.299,426.103 191.842,425.331 192.999,423.274 C193.771,421.602 195.7,419.031 197.114,417.488 C199.814,414.402 199.428,411.059 195.957,409.773 C194.671,409.259 192.742,410.287 190.814,412.473 C187.342,416.202 185.799,416.459 180.399,414.402 C175.512,412.602 164.455,405.144 161.754,401.801 C160.469,400.258 158.283,399.101 156.74,399.101 C155.325,399.101 152.368,397.815 150.182,396.401 C147.096,394.086 145.296,393.829 140.281,394.472 C134.881,395.243 133.852,394.858 131.024,391.9 C128.066,388.686 127.552,388.557 118.294,389.329 C107.622,390.1 95.921,387.529 89.106,382.643 C87.178,381.228 81.777,378.399 77.148,376.342 C72.519,374.285 66.605,370.685 64.033,368.499 C58.633,363.613 57.604,363.484 52.847,367.084 C48.603,370.17 46.289,369.527 46.289,364.898 C46.289,362.198 45.775,361.941 43.332,362.455 C39.603,363.484 36.645,360.398 37.674,356.541 C38.06,355.126 37.546,352.04 36.645,349.854 C33.945,343.297 36.26,334.553 41.789,330.696 C44.232,329.153 46.803,326.453 47.703,325.038 C48.475,323.495 50.532,321.438 52.332,320.538 C54.004,319.638 59.79,313.595 65.062,307.166 C74.834,295.465 87.692,283.635 104.922,270.392 C110.065,266.534 119.709,258.691 126.266,253.033 C143.496,238.375 147.739,235.161 167.798,221.531 C190.942,205.844 204.314,194.786 204.443,191.443 C204.443,189.9 202.129,186.429 199.171,183.728 C196.342,180.9 191.328,174.985 188.113,170.613 C181.556,161.741 179.241,160.841 171.912,164.698 C168.312,166.499 161.369,167.399 147.225,167.784 C145.167,167.913 140.667,167.27 137.324,166.241 C129.609,164.184 124.723,165.984 124.723,170.87 C124.723,174.728 119.58,178.457 115.723,177.299 C114.308,176.785 112.251,175.114 111.094,173.442 C109.422,170.87 109.422,169.97 111.351,165.213 C114.694,156.855 114.051,156.598 87.178,155.698 C41.532,154.155 18.13,149.912 9.258,141.554 C5.658,138.211 0,127.539 0,124.196 C0,118.667 3.086,118.281 15.044,122.01 C47.832,132.168 77.92,135.768 108.522,132.939 C129.352,131.139 137.838,128.31 140.924,122.395 C144.139,116.095 152.155,113.224 159.44,124.368 C160.438,125.894 154.126,133.754 157.726,133.369 C160.94,132.854 183.142,128.654 185.585,129.939 C188.028,131.225 194.671,127.796 197.628,127.153 C200.843,126.639 204.7,127.153 210.358,129.21 C218.201,132.039 218.587,132.039 221.03,129.853 C223.216,127.796 225.145,127.667 235.817,128.439 C245.332,129.21 248.546,129.853 250.218,131.782 C253.304,135.254 255.232,134.868 258.575,130.239 C260.376,127.667 264.619,124.71 269.633,122.524 C282.234,116.738 291.364,110.437 293.164,106.066 C297.921,94.494 318.365,94.365 330.966,105.937 C334.052,108.766 340.61,112.623 345.882,114.809 C356.297,119.052 363.369,124.967 364.526,130.625 C365.812,136.282 369.669,138.211 377.641,137.182 C382.27,136.668 385.099,136.925 386.385,138.082 C388.699,140.011 388.828,145.411 386.513,149.526 C383.684,154.541 385.356,156.984 394.228,160.712 C401.3,163.67 402.586,164.698 403.871,168.813 C405.672,174.599 408.243,177.428 412.229,178.457 C416.858,179.614 420.458,177.171 420.458,172.928 C420.458,170.485 422.13,167.27 424.959,163.798 C427.53,160.712 430.359,155.312 431.516,151.198 C432.674,147.083 434.602,142.711 435.888,141.297 C438.717,138.211 441.031,132.553 441.031,128.825 C441.031,127.41 442.574,124.324 444.632,121.881 C446.56,119.567 449.389,115.966 450.932,113.909 C454.661,109.023 463.919,87.807 464.947,81.635 C465.333,79.064 466.49,75.721 467.519,74.306 C468.419,72.763 470.733,66.849 472.662,61.063 C474.591,55.276 477.805,47.947 479.863,44.604 C483.591,38.818 483.72,38.818 489.378,39.461 C492.592,39.718 496.321,41.133 497.864,42.418 C501.721,46.019 500.307,55.662 494.006,68.906 C491.178,74.821 488.477,80.993 488.092,82.793 C487.577,84.593 484.106,93.208 480.377,102.08 C473.048,119.31 470.605,127.539 470.605,135.254 C470.605,138.982 469.319,141.811 464.819,147.726 C461.604,151.969 458.647,156.726 458.261,158.269 C457.232,162.127 459.933,173.442 463.661,180.514 C465.333,183.728 466.747,187.329 466.747,188.614 C466.747,192.986 463.147,199.672 458.004,204.558 C455.047,207.387 451.446,212.788 449.646,216.645 C447.975,220.502 445.66,224.36 444.503,225.26 C443.346,226.289 441.417,230.017 440.26,233.618 C437.688,241.204 429.33,250.205 419.558,255.734 C412.744,259.462 399.628,264.091 395.128,264.091 C391.399,264.091 390.371,266.02 392.428,269.492 C393.328,271.163 394.357,279.264 394.742,288.522 C395.385,304.337 395.514,304.851 400.143,312.695 C402.843,317.066 405.543,323.11 406.443,326.196 C407.215,329.153 408.629,332.496 409.529,333.525 C412.744,337.254 416.73,346.64 417.887,353.198 C419.558,362.198 418.144,366.956 412.615,370.17 C410.172,371.585 404,376.085 398.857,380.328 C389.342,388.043 387.927,391 390.885,396.529 C391.656,397.815 392.428,401.93 392.814,405.53 C393.199,409.13 394.357,413.759 395.385,415.816 C396.414,417.874 397.314,420.702 397.314,422.245 C397.314,425.846 390.242,429.96 383.684,429.96 C376.612,429.96 375.198,432.017 374.684,442.818 C374.555,447.704 374.041,452.719 373.655,454.133 C372.241,458.634 363.883,460.819 348.839,460.819 C330.323,460.819 325.437,457.862 325.309,446.547 C325.309,444.747 324.666,442.69 323.894,441.918 C322.994,441.018 321.709,437.675 320.808,434.203 C319.008,427.26 315.922,425.717 310.522,429.189 C307.95,430.86 303.707,431.246 287.12,431.117 C275.934,430.989 265.519,431.246 264.104,431.76 C262.69,432.146 260.504,434.846 259.218,437.675 C256.647,443.461 250.475,448.476 245.717,448.476 C242.889,448.604 242.246,449.247 241.989,452.719 C241.603,457.219 241.217,457.348 229.645,459.405 C219.744,461.205 209.586,460.948 185.285,458.376 z" fill="#000000"/>
  </g>
</svg>
