<?xml version="1.0" encoding="UTF-8"?>
<!DOCTYPE svg PUBLIC "-//W3C//DTD SVG 1.1//EN" "http://www.w3.org/Graphics/SVG/1.1/DTD/svg11.dtd">
<svg version="1.1" xmlns="http://www.w3.org/2000/svg" xmlns:xlink="http://www.w3.org/1999/xlink" x="0" y="0" width="500" height="500" viewBox="0, 0, 500, 500">
  <g id="Layer_1">
    <path d="M293.82,214.509 C285.83,191.246 262.314,187.655 252.149,187.149 C252.149,187.149 251.29,187.099 249.823,187.099 C249.823,187.099 249.823,187.099 249.772,187.099 C249.772,187.099 249.772,187.099 249.722,187.099 C248.205,187.099 247.396,187.149 247.396,187.149 C237.231,187.605 213.715,191.246 205.725,214.509 C198.948,234.333 211.793,256.736 209.164,259.77 C198.695,271.857 212.906,291.074 214.878,292.641 C218.368,295.524 229.493,289.708 227.723,292.692 C226.408,294.968 225.144,312.111 225.144,312.111 L228.583,312.111 L230.252,306.144 L233.185,306.093 L233.741,312.111 L239.759,312.111 L240.316,306.397 L242.338,306.093 L242.642,312.111 L247.547,312.111 L247.75,305.942 L251.694,305.942 L251.896,312.111 L256.802,312.111 L257.105,306.093 L259.128,306.397 L259.684,312.111 L265.702,312.111 L266.259,306.093 L269.192,306.144 L270.861,312.111 L274.3,312.111 C274.3,312.111 273.086,294.968 271.72,292.692 C269.95,289.708 281.076,295.473 284.566,292.641 C286.538,291.074 300.748,271.857 290.28,259.77 C287.752,256.736 300.597,234.333 293.82,214.509 z M243.299,272.261 C241.934,273.778 239.962,275.599 237.281,277.116 C230.859,280.707 224.487,280.201 221.958,279.847 C221.806,279.847 221.604,279.796 221.503,279.695 C215.89,276.155 213.766,270.592 215.434,267.153 C215.687,266.648 216.648,264.878 219.581,263.816 C219.733,263.765 219.935,263.765 220.087,263.765 C223.627,264.069 228.077,264.777 232.932,266.344 C236.877,267.558 240.265,269.075 242.996,270.491 C243.653,270.795 243.805,271.705 243.299,272.261 z M256.701,293.248 C256.701,293.653 256.195,293.805 255.942,293.501 C255.335,292.743 254.526,291.832 253.363,291.023 C252.149,290.163 251.037,289.607 250.126,289.304 C249.267,289.607 248.104,290.163 246.89,291.023 C245.777,291.832 244.918,292.743 244.311,293.501 C244.058,293.805 243.552,293.653 243.552,293.248 C243.35,290.315 243.502,284.297 247.901,279.948 C248.458,279.392 249.216,278.886 250.076,278.431 C250.936,278.886 251.694,279.392 252.25,279.948 C256.802,284.348 256.903,290.366 256.701,293.248 z M278.244,279.695 C278.092,279.796 277.941,279.847 277.789,279.847 C275.21,280.201 268.888,280.707 262.466,277.116 C259.786,275.599 257.813,273.829 256.448,272.261 C255.942,271.654 256.094,270.744 256.802,270.39 C259.583,268.974 262.921,267.457 266.866,266.243 C271.771,264.726 276.171,264.018 279.711,263.664 C279.862,263.664 280.065,263.664 280.216,263.715 C283.15,264.777 284.11,266.547 284.363,267.052 C285.982,270.592 283.858,276.155 278.244,279.695 z" fill="#000000"/>
    <path d="M200.516,229.225 C196.369,228.213 192.424,225.331 187.822,223.409 C185.698,221.74 180.034,217.341 177.101,207.327 C174.067,196.96 183.322,185.582 184.384,183.559 C188.884,182.345 190.199,182.598 194.7,181.334 L194.7,165.151 L0,165.151 C3.945,173.293 7.99,181.03 12.087,188.464 L132.042,187.959 C132.244,189.071 132.497,190.234 132.75,191.448 L18.813,200.247 C26.55,213.345 34.389,225.179 42.177,235.951 L134.217,207.378 C134.722,209.148 135.228,210.918 135.835,212.739 L53.859,251.375 C61.293,260.731 68.524,269.075 75.453,276.56 L139.324,230.186 C139.881,231.501 140.437,232.765 140.993,234.08 L83.493,285.056 C90.877,292.591 97.704,299.013 104.076,304.475 L148.326,248.745 C149.439,250.566 150.602,252.336 151.816,254.055 L112.167,311.1 C122.889,319.495 131.992,324.906 139.577,328.396 C146.303,308.369 153.94,284.449 160.615,264.878 C162.183,266.344 162.638,267.103 164.155,268.215 L144.634,330.52 C157.581,335.475 165.369,334.414 168.757,333.756 C169.819,333.554 170.881,333.301 171.892,333.048 C174.674,314.235 176.747,293.349 179.579,274.638 C180.945,274.79 182.209,274.84 183.372,274.84 L181.45,327.637 C185.547,325.968 190.402,323.338 195.105,319.04 C196.217,318.028 197.229,317.017 198.139,316.005 C198.139,298.609 198.139,281.263 198.139,263.866 C198.24,263.108 199.555,264.423 202.134,262.299 C203.651,261.034 205.32,255.421 205.32,252.235 C203.146,245.913 201.527,244.7 200.819,235.9 C200.769,235.951 200.516,231.45 200.516,229.225 z" fill="#000000"/>
    <path d="M487.913,188.97 C492.01,181.587 496.055,173.799 500,165.657 L305.3,165.657 L305.3,181.839 C309.801,183.053 311.116,182.8 315.616,184.065 C316.729,186.087 325.933,197.466 322.899,207.833 C319.966,217.846 314.302,222.297 312.178,223.915 C307.576,225.887 303.631,228.719 299.484,229.731 C299.484,231.956 299.231,236.457 299.231,236.457 C298.523,245.256 296.905,246.419 294.73,252.791 C294.73,255.977 296.399,261.591 297.916,262.855 C300.496,264.979 301.76,263.664 301.912,264.423 C301.912,281.819 301.912,299.165 301.912,316.562 C302.822,317.573 303.833,318.585 304.946,319.596 C309.598,323.895 314.504,326.524 318.6,328.193 L316.577,275.397 C317.74,275.397 319.005,275.346 320.37,275.194 C323.202,293.855 325.276,314.792 328.057,333.604 C329.068,333.857 330.13,334.11 331.192,334.312 C334.581,334.919 342.369,335.981 355.315,331.076 L335.845,268.772 C337.312,267.659 337.817,266.901 339.385,265.434 C346.06,285.056 353.646,308.925 360.423,328.952 C368.008,325.462 377.162,320.001 387.832,311.656 L348.184,254.612 C349.398,252.892 350.561,251.122 351.674,249.302 L395.924,305.031 C402.296,299.57 409.123,293.147 416.507,285.612 L358.956,234.585 C359.512,233.321 360.069,232.006 360.625,230.691 L424.497,277.065 C431.425,269.581 438.657,261.186 446.091,251.881 L364.115,213.244 C364.671,211.424 365.227,209.654 365.733,207.884 L457.773,236.457 C465.561,225.685 473.45,213.851 481.137,200.753 L367.25,191.954 C367.503,190.74 367.756,189.577 367.958,188.464 L487.913,188.97 z" fill="#000000"/>
  </g>
</svg>
