<?xml version="1.0" encoding="UTF-8"?>
<!DOCTYPE svg PUBLIC "-//W3C//DTD SVG 1.1//EN" "http://www.w3.org/Graphics/SVG/1.1/DTD/svg11.dtd">
<svg version="1.1" xmlns="http://www.w3.org/2000/svg" xmlns:xlink="http://www.w3.org/1999/xlink" x="0" y="0" width="500" height="500" viewBox="0, 0, 500, 500">
  <g id="layer101">
    <path d="M139.389,347.689 C138.814,345.515 137.803,343.848 136.502,342.904 C134.694,341.669 134.478,341.018 134.485,337.542 C134.489,335.443 134.858,332.185 135.367,330.376 C136.535,326.106 135.669,324.656 131.977,324.359 C128.574,324.063 121.69,326.729 121.107,328.61 C120.816,329.406 120.883,332.52 121.093,335.706 C122.015,345.917 119.183,349.749 115.866,343.081 C114.063,339.457 113.123,338.659 110.806,338.655 C107.548,338.648 106.827,336.836 107.13,329.669 L107.361,323.008 L104.761,319.817 C100.282,314.233 100.067,313.509 102.245,310.544 C103.914,308.23 103.987,307.723 103.121,306.419 C102.327,305.186 101.387,304.967 97.549,305.032 L92.914,305.096 L92.906,309.73 C92.901,312.264 92.461,315.086 91.952,316.027 C91.298,317.184 91.149,319.284 91.503,323.629 C91.927,328.843 91.78,329.929 90.545,331.953 C89.093,334.267 89.093,334.267 87.792,332.817 C87.07,332.019 85.551,331.365 84.465,331.363 C81.785,331.357 81.064,329.763 81.219,324.477 C81.373,320.278 81.445,320.134 83.691,319.486 C86.081,318.839 86.737,317.175 85.147,315.579 C84.496,314.926 84.213,311.812 84.225,305.802 C84.241,297.476 84.169,296.969 82.793,296.966 C81.49,296.964 81.271,297.687 80.606,304.709 C79.499,315.568 77.613,317.012 76.401,307.815 C75.26,298.979 75.044,297.675 74.323,296.805 C73.817,296.152 71.573,295.858 67.952,295.851 C61.436,295.839 60.276,296.633 60.993,300.326 C62.284,306.411 62.281,307.932 61.048,309.088 C59.379,310.75 58.873,310.604 57.068,308.139 C55.19,305.456 54.176,305.889 54.097,309.437 C54.014,314.36 52.41,320.149 50.379,322.462 C49.362,323.691 48.345,325.137 48.128,325.644 C47.909,326.367 47.547,326.366 46.969,325.787 C46.391,325.278 46.036,321.223 45.833,314.272 C45.699,308.406 45.275,303.265 44.913,302.902 C44.552,302.539 41.729,302.317 38.542,302.455 L32.822,302.661 L32.453,306.281 C31.715,313.593 28.889,314.383 28.107,307.503 L27.751,304.099 L24.276,304.093 C21.017,304.086 20.584,303.868 18.489,301.185 C17.188,299.589 14.01,295.746 11.337,292.627 L6.425,286.897 L6.437,280.598 C6.448,275.167 6.233,274.009 5.004,272.92 C4.209,272.194 3.559,271.397 3.559,271.108 C3.561,270.311 8.561,268.221 10.371,268.224 C13.34,268.23 14.067,266.494 12.626,262.943 C11.833,261.276 10.823,259.392 10.317,258.739 C9.812,258.159 9.38,256.493 9.383,255.117 C9.387,253.017 9.026,252.509 7.217,251.782 C5.481,251.127 5.047,250.547 5.051,248.882 C5.056,246.348 3.9,245.042 1.655,245.037 C0.062,245.034 -0.009,244.817 0.001,239.676 C0.011,234.318 0.011,234.246 1.967,234.032 C3.487,233.89 4.285,233.168 5.157,231.287 C6.248,228.972 12.995,221.962 18.435,217.411 C20.104,215.966 20.685,214.737 21.125,211.696 C21.492,209.525 21.931,206.774 22.15,205.616 C22.516,203.951 22.3,203.082 21.144,202.066 C19.193,200.253 19.195,198.949 21.297,197.939 C22.166,197.507 23.617,196.278 24.488,195.267 C26.375,193.098 27.026,193.462 28.248,197.446 C28.897,199.403 28.894,200.561 28.385,201.573 C27.296,203.526 27.35,212.722 28.434,213.81 C29.735,215.116 35.889,214.911 37.051,213.538 C37.85,212.525 37.778,212.019 36.768,210.206 C35.108,207.234 35.188,203.47 37.148,200.939 C38.527,199.059 38.601,198.48 37.882,195.944 C37.378,194.423 36.223,192.61 35.21,191.957 C34.198,191.303 33.403,190.505 33.404,190.143 C33.405,189.781 35.072,188.843 37.028,187.978 C40.29,186.608 40.652,186.175 40.657,184.075 C40.659,182.772 40.951,181.324 41.315,180.746 C42.259,179.227 43.559,180.46 43.555,182.85 C43.553,184.008 44.055,186.254 44.703,187.848 C45.569,190.022 45.639,191.036 45.058,192.193 C43.895,194.218 44.03,198.997 45.331,200.665 C45.908,201.391 46.411,203.564 46.407,205.374 C46.403,207.691 46.906,209.357 48.206,211.098 C49.217,212.475 50.01,214.432 50.008,215.518 C50.003,217.907 50.943,218.633 52.755,217.695 C53.769,217.191 54.493,217.264 55.506,217.99 C56.301,218.571 57.314,219.08 57.821,219.081 C59.051,219.083 60.216,215.827 60.588,211.194 C60.809,208.878 61.465,206.49 62.41,205.26 C64.152,202.802 63.722,200.557 61.262,199.393 C58.296,198.084 58.449,193.885 61.571,189.547 C62.806,187.811 62.952,186.725 62.671,182.453 C62.248,176.587 62.976,174.778 65.29,176.231 C66.085,176.74 67.099,176.959 67.461,176.742 C68.403,176.165 68.42,167.476 67.411,165.302 C66.834,164.07 66.91,162.26 67.787,158.279 C69.03,152.2 70.119,150.536 70.765,153.651 C70.98,154.81 71.698,157.635 72.345,159.954 C73.28,163.286 73.349,164.517 72.696,165.602 C71.825,166.976 71.446,175.374 72.239,177.403 C72.815,178.925 73.975,178.13 73.979,176.175 C73.98,175.307 74.635,173.643 75.434,172.413 C76.669,170.533 76.889,169.013 76.905,160.469 C76.925,150.55 77.436,148.378 79.317,149.106 C80.692,149.615 81.263,153.527 81.245,163.157 C81.236,167.574 81.446,171.411 81.807,171.557 C82.097,171.775 82.321,167.865 82.331,162.942 C82.269,157.511 82.567,153.674 83.074,153.241 C84.307,152.229 88.578,152.817 89.299,154.194 C89.732,154.847 90.088,157.889 90.227,160.93 C90.435,165.926 90.651,166.65 92.674,168.682 C94.553,170.568 95.06,170.714 96.002,169.92 C96.873,169.269 97.165,167.532 97.175,162.681 C97.188,155.73 97.554,153.993 99.002,153.996 C100.016,153.998 102.249,159.794 102.244,162.473 C102.242,163.415 102.964,164.575 104.048,165.301 L105.929,166.535 L103.681,167.834 C101.796,168.989 101.506,169.64 101.5,172.319 C101.497,174.057 101.927,176.086 102.505,176.81 C103.299,177.97 103.299,178.405 102.281,180.14 C101.337,181.877 101.263,182.384 102.202,183.978 C102.706,185.065 103.935,186.081 104.876,186.3 C106.541,186.738 107.045,187.897 107.399,192.025 C107.541,193.619 108.046,194.271 109.132,194.418 C110.58,194.638 111.089,193.553 112.842,185.881 C113.061,184.869 114.297,181.974 115.533,179.37 C116.842,176.766 118.298,172.57 118.883,169.964 C120.052,164.318 121.213,162.727 124.327,162.734 C126.065,162.738 127.005,163.246 127.871,164.551 C128.521,165.566 129.534,166.364 130.113,166.365 C131.923,166.369 132.93,169.484 132.848,174.698 C132.691,180.924 133.05,182.3 134.788,182.304 C135.512,182.305 137.753,183.975 139.777,185.934 C141.8,187.965 143.897,189.563 144.476,189.563 C144.983,189.565 146.212,190.291 147.225,191.234 C148.236,192.105 149.682,193.194 150.405,193.63 C151.562,194.283 151.2,194.572 147.794,195.724 C142.216,197.524 141.78,197.957 143.152,200.494 C144.089,202.378 144.596,202.597 147.492,202.602 C151.619,202.611 154.006,203.774 152.845,205.147 C152.409,205.726 152.117,206.884 152.26,207.825 C152.402,209.201 152.837,209.419 154.575,209.278 C155.805,209.135 157.18,209.573 158.048,210.298 C159.349,211.531 159.494,211.532 161.67,209.219 C163.556,207.268 164.281,206.907 166.163,207.273 C167.394,207.493 171.593,207.863 175.502,208.16 C181.511,208.606 182.524,208.826 182.522,209.912 C182.52,210.708 181.65,211.502 180.346,212.007 C177.882,212.798 177.59,214.174 179.323,216.856 C180.334,218.306 180.912,218.597 182.578,218.238 C183.664,218.023 184.75,218.17 185.039,218.533 C185.616,219.547 188.802,219.554 189.384,218.613 C189.602,218.252 190.833,217.965 192.136,218.112 C194.163,218.261 194.453,218.044 194.892,215.728 C195.477,212.471 196.787,209.215 197.511,209.216 C198.235,209.218 201.336,215.741 201.334,217.262 C201.33,218.927 202.848,220.088 205.093,220.093 C206.831,220.095 207.338,219.59 208.285,217.202 C209.521,214.236 212.64,211.129 213.725,211.855 C214.087,212.001 215.535,212.365 216.982,212.513 C218.43,212.733 220.095,213.171 220.673,213.534 C221.324,213.824 223.206,213.974 224.944,213.759 C228.638,213.404 229.866,214.927 227.762,217.241 C226.528,218.613 226.528,218.686 227.976,218.689 C229.062,218.691 229.57,218.258 229.571,217.317 C229.576,215.434 234.006,208.347 234.729,209.072 C235.018,209.362 235.883,211.247 236.676,213.203 C237.828,216.174 238.479,216.827 240.793,217.7 C242.386,218.21 243.979,218.358 244.414,217.997 C244.776,217.708 245.936,217.276 246.949,217.133 C248.325,216.991 248.906,216.268 249.635,213.735 C251.312,207.946 253.122,208.022 254.631,213.89 C255.277,216.642 255.566,216.933 257.449,216.792 C258.535,216.721 260.128,216.941 260.851,217.377 C261.791,217.886 262.515,217.888 263.095,217.454 C263.603,217.02 264.762,216.589 265.776,216.446 C267.369,216.232 267.66,215.797 268.248,211.744 C268.614,209.211 269.198,207.184 269.56,207.185 C270.356,207.187 273.096,213.202 273.741,216.244 C274.314,219.286 275.836,218.927 278.088,215.238 C280.485,211.116 282.948,210.325 288.665,211.856 C291.415,212.586 293.37,212.735 294.964,212.231 C296.63,211.799 297.499,211.874 298.221,212.599 C299.089,213.397 298.943,213.832 297.275,215.421 C294.881,217.589 295.386,218.82 298.644,218.827 C301.396,218.832 302.701,217.749 302.778,215.287 C302.855,212.753 304.384,208.773 305.253,208.631 C305.687,208.559 306.481,210.009 307.13,211.675 C308.714,215.95 312.908,218.565 315.735,217.05 C316.75,216.545 318.055,215.896 318.707,215.753 C319.358,215.537 320.231,213.945 320.741,212.063 C321.179,210.255 321.834,208.735 322.196,208.736 C322.485,208.736 323.496,210.404 324.361,212.433 C325.586,215.476 326.164,216.057 327.25,215.769 C328.047,215.553 329.35,215.918 330.218,216.499 C331.519,217.443 332.026,217.372 334.997,216.002 C336.882,215.064 338.695,213.547 339.349,212.318 C339.93,211.16 340.512,210.22 340.656,210.22 C340.801,210.221 341.668,211.381 342.534,212.83 L344.049,215.512 L346.008,213.634 C347.894,211.827 348.184,211.827 357.306,211.99 C362.954,212.146 366.791,212.516 366.935,212.95 C367.079,213.312 366.062,214.542 364.612,215.625 C363.162,216.781 362.073,218.154 362.217,218.734 C362.575,220.472 369.305,222.802 371.334,221.865 C373.218,221.072 375.108,217.166 375.114,214.052 C375.117,212.966 375.554,211.374 376.135,210.652 C377.006,209.495 377.295,209.423 378.308,210.221 C378.958,210.729 379.463,211.672 379.462,212.179 C379.461,212.758 380.256,213.556 381.269,213.92 C382.282,214.283 383.438,215.444 383.798,216.459 C384.519,218.343 385.532,218.779 386.33,217.55 C386.912,216.682 393.138,216.839 395.018,217.857 C395.814,218.293 398.275,218.804 400.446,219.025 C403.921,219.322 404.428,219.613 404.642,221.061 C404.999,223.596 407.025,224.252 410.866,222.956 C414.199,221.804 414.271,221.804 417.091,223.692 C420.273,225.798 420.56,227.102 418.959,230.936 C418.378,232.239 418.011,234.483 418.153,235.786 C418.295,237.741 418.8,238.466 420.68,239.411 L423.068,240.574 L420.821,241.366 C417.416,242.518 417.847,244.257 421.756,245.206 C423.565,245.644 425.012,246.226 425.011,246.443 C425.011,246.661 424.43,247.456 423.777,248.178 C422.834,249.263 422.687,249.841 423.338,250.784 C423.987,251.799 425.073,251.946 429.49,251.81 C432.459,251.671 436.368,251.968 438.105,252.478 C439.842,252.916 443.389,253.285 445.851,253.218 C450.268,253.154 454.682,254.611 454.679,256.204 C454.677,257.217 451.055,257.645 448.233,256.987 C445.555,256.258 435.998,256.384 432.231,257.173 C430.638,257.532 430.782,257.75 434.036,259.566 C436.424,260.801 437.58,261.89 437.434,262.686 C437.14,264.351 440.976,265.083 444.092,263.93 C446.121,263.21 446.99,263.284 449.305,264.157 C450.897,264.74 453.357,265.469 454.805,265.761 C459.944,266.713 459.071,268.81 452.695,270.825 C447.478,272.553 446.825,273.565 449.572,275.671 C450.801,276.614 452.826,278.284 454.127,279.372 C456.512,281.332 456.585,281.332 468.821,281.428 C486.705,281.536 498.288,282.499 499.588,284.095 C500.672,285.401 500.02,285.616 492.634,286.181 C480.54,287.099 475.904,287.669 474.382,288.535 C472.208,289.762 466.271,289.605 462.581,288.295 C460.916,287.713 457.225,287.198 454.474,287.193 C449.984,287.184 449.332,287.4 447.591,289.207 C446.575,290.291 445.415,291.013 444.909,290.794 C444.475,290.576 436.801,290.2 427.822,289.964 C418.845,289.73 410.302,289.206 408.854,288.769 C407.408,288.332 404.152,286.66 401.693,284.99 C396.993,281.867 396.053,281.576 393.951,282.73 C393.299,283.091 391.849,283.74 390.762,284.172 C388.878,284.82 388.733,285.182 388.726,288.513 C388.72,291.481 389.08,292.568 390.525,294.019 C392.043,295.543 392.186,296.122 391.533,297.279 C391.097,298.147 390.949,299.523 391.165,300.465 C391.451,301.696 391.088,302.781 389.854,304.227 C387.314,307.19 385.797,305.595 385.807,300.019 C385.815,295.747 383.871,290.82 380.836,287.411 C380.113,286.613 379.319,285.381 379.103,284.656 C378.815,284.004 377.731,283.06 376.646,282.624 C375.488,282.26 373.681,280.808 372.452,279.43 C368.479,274.933 364.133,275.649 364.123,280.79 C364.12,282.093 363.898,284.699 363.677,286.508 C363.238,289.259 363.453,289.984 364.755,291.072 C366.851,292.887 366.705,293.394 363.734,294.763 C360.255,296.422 358.737,295.188 359.397,291.207 C359.762,289.108 359.476,287.369 358.324,284.471 L356.739,280.486 L352.177,280.476 C348.774,280.47 347.397,280.757 346.526,281.769 C345.075,283.359 344.925,286.4 346.224,288.502 C346.873,289.734 346.872,290.169 346.22,290.384 C345.713,290.601 344.986,291.975 344.548,293.567 C343.892,295.955 343.456,296.461 342.154,296.241 C340.706,296.021 340.49,295.369 339.778,289.286 C338.637,280.378 338.709,280.523 335.016,280.588 C333.278,280.584 331.034,280.363 329.949,280.071 C328.429,279.633 327.632,279.922 326.109,281.439 C323.86,283.68 322.773,283.822 321.04,281.864 C319.594,280.268 316.699,279.901 315.899,281.203 C315.609,281.636 314.451,281.779 313.075,281.559 L310.687,281.12 L309.953,286.332 C309.585,289.227 309.432,293.281 309.717,295.309 C310.289,299.51 310.069,300.668 308.694,300.665 C307.245,300.662 306.815,298.779 306.395,290.886 C306.186,286.903 305.687,283.065 305.326,282.412 C304.821,281.326 303.664,281.106 298.74,281.096 C295.047,281.089 292.367,281.446 291.859,281.952 C291.352,282.457 290.984,284.918 290.979,287.959 C290.968,293.535 288.85,302.944 287.692,302.58 C286.607,302.215 285.099,295.334 284.533,288.671 C284.322,285.485 283.821,282.443 283.532,282.008 C282.739,280.775 273.471,280.757 272.31,281.914 C271.802,282.42 271.436,284.302 271.433,286.112 C271.428,288.791 271.063,289.804 269.54,291.249 C267.727,292.911 267.655,292.911 266.715,291.677 C266.138,290.88 265.491,288.2 265.279,285.665 C264.994,283.13 264.348,280.74 263.769,280.304 C262.107,278.853 259.57,279.789 257.754,282.682 C256.157,285.068 255.65,285.356 253.043,285.351 C251.378,285.349 249.712,285.634 249.277,285.923 C248.044,286.718 246.808,289.394 246.805,291.349 C246.8,293.449 247.812,294.392 250.707,295.049 C253.964,295.852 252.95,296.285 243.17,298.221 C241.142,298.651 240.562,299.085 240.415,300.677 C240.12,303.283 242.434,304.664 245.26,303.438 C246.999,302.717 247.651,302.936 250.254,304.606 C251.917,305.695 253.291,306.857 253.29,307.219 C253.288,308.305 248.434,309.961 245.175,309.954 C243.293,309.951 241.192,310.526 239.887,311.392 C237.929,312.691 236.481,312.834 224.679,312.811 C212.877,312.787 211.501,312.929 209.833,314.23 C208.31,315.458 206.861,315.672 200.489,315.66 C196.29,315.651 191.801,315.28 190.499,314.771 C188.474,314.043 187.677,314.042 186.082,314.98 C184.994,315.557 184.124,316.496 184.123,317.075 C184.121,317.944 186.148,318.238 195.053,318.618 C200.99,318.846 207.216,319.51 208.736,320.02 C211.485,320.966 211.557,320.966 209.818,321.688 C208.804,322.047 202.142,322.614 194.973,322.89 C187.804,323.237 180.707,323.73 179.258,323.945 C175.275,324.661 173.249,323.933 171.517,321.033 C170.218,318.786 169.712,318.496 167.033,318.49 C165.15,318.487 163.411,318.991 162.251,319.929 C159.858,321.807 158.265,321.732 156.531,319.846 C155.447,318.613 154.651,318.466 152.623,318.825 C151.247,319.111 148.857,319.324 147.408,319.321 C144.367,319.315 144.441,319.098 144.645,325.687 C144.847,333.001 145.354,333.291 157.591,333.026 C162.95,332.891 165.12,334.054 160.918,334.842 C159.47,335.057 156.501,335.123 154.329,334.829 C149.334,334.241 146.074,335.537 143.967,339.009 C142.66,341.106 142.441,342.192 142.798,344.799 C143.298,347.985 142.351,351.025 140.975,351.022 C140.541,351.021 139.82,349.499 139.389,347.689 z M217.392,299.329 C218.261,298.968 218.553,297.81 218.561,293.9 C218.572,288.325 217.561,287.02 214.661,288.97 C213.719,289.547 210.386,290.119 206.259,290.329 C201.045,290.608 199.379,290.894 199.378,291.691 C199.376,292.704 199.737,292.995 203.354,294.595 C204.367,295.104 206.826,296.412 208.779,297.574 C212.323,299.608 215.146,300.193 217.392,299.329 z" fill="#000000"/>
  </g>
</svg>
