<?xml version="1.0" encoding="UTF-8"?>
<!DOCTYPE svg PUBLIC "-//W3C//DTD SVG 1.1//EN" "http://www.w3.org/Graphics/SVG/1.1/DTD/svg11.dtd">
<svg version="1.1" xmlns="http://www.w3.org/2000/svg" xmlns:xlink="http://www.w3.org/1999/xlink" x="0" y="0" width="500" height="500" viewBox="0, 0, 500, 500">
  <g id="layer101">
    <path d="M198.319,356.007 C197.814,355.81 195.988,354.711 194.226,353.484 C192.465,352.258 190.7,351.286 190.32,351.281 C189.94,351.277 188.997,350.568 188.246,349.671 C187.432,348.773 186.172,348.06 185.284,348.049 C184.397,348.039 183.703,347.65 183.71,347.143 C183.715,346.699 183.035,345.232 182.162,343.953 C181.289,342.674 180.609,341.207 180.615,340.7 C180.632,339.305 176.41,331.707 174.406,329.526 L172.653,327.602 L160.794,327.46 C147.349,327.3 146.458,327.543 143.489,331.821 L141.618,334.526 L137.115,334.472 C132.676,334.419 132.484,334.48 129.982,336.86 C127.288,339.429 126.179,342.016 127.244,343.107 C127.62,343.492 127.931,344.003 127.927,344.32 C127.913,345.462 123.903,346.683 120.478,346.641 L116.8,346.598 L115.501,343.855 C114.326,341.304 114.267,340.923 115.175,339.284 C115.889,337.897 115.963,337.01 115.473,335.546 C115.106,334.463 114.658,329.447 114.528,324.371 C114.237,316.883 113.944,314.85 113.009,313.443 C110.702,310.181 111.548,308.352 116.588,305.874 C123.606,302.47 128.19,301.066 132.502,301.117 C134.849,301.146 138.154,300.614 140.509,299.881 C143.755,298.905 145.788,298.675 150.288,298.919 C154.155,299.093 155.996,298.924 156.193,298.419 C156.324,298.04 154.255,296.049 151.616,293.925 C148.977,291.864 145.772,289.351 144.58,288.259 C142.948,286.844 141.496,286.256 139.152,285.974 C134.719,285.477 134.162,284.266 134.764,276.407 C135.515,266.585 135.566,262.336 135.093,259.477 C134.502,255.79 136.043,254.223 140.102,254.271 C142.639,254.302 143.149,254.055 144.054,252.606 C144.637,251.598 146.178,250.094 147.521,249.159 C149.823,247.538 149.953,247.285 149.992,244.051 C149.956,241.767 150.423,239.807 151.332,238.042 C152.111,236.592 152.696,235.33 152.698,235.267 C152.7,235.076 149.205,230.278 140.84,219.078 C138.467,215.942 135.402,212.353 133.957,211.195 C132.576,209.973 130.698,207.857 129.827,206.451 C128.956,205.046 127.145,202.677 125.83,201.203 C123.014,198.061 121.899,195.828 120.81,191.375 C120.388,189.531 119.712,187.746 119.273,187.361 C118.896,187.039 116.37,186.057 113.653,185.264 C108.092,183.485 109.806,183.378 86.039,187.091 C60.431,191.034 62.213,190.548 58.619,194.057 C55.988,196.626 55.147,197.948 53.83,202.055 C52.909,204.772 51.731,207.865 51.083,208.999 C50.498,210.134 49.647,212.408 49.183,214.051 C48.388,216.896 48.448,217.214 49.638,218.433 C52.521,221.385 52.654,226.144 49.992,231.313 C48.952,233.394 48.041,235.349 48.037,235.666 C48.034,235.92 47.195,237.178 46.102,238.371 C45.074,239.5 44.167,241.075 44.159,241.772 C44.15,242.47 43.883,243.609 43.495,244.238 C43.17,244.868 43.031,245.882 43.216,246.391 C43.707,247.729 48.196,248.924 51.117,248.579 C53.913,248.232 57.068,249.538 59.765,252.17 C62.961,255.38 62.562,256.961 57.311,261.148 C52.955,264.648 52.891,264.71 50.852,270.839 C47.759,280.189 45.888,282.831 40.911,285.308 C37.02,287.165 36.575,287.286 33.983,286.558 C31.454,285.83 31.01,285.888 27.756,287.498 C19.652,291.524 11.128,288.314 7.677,279.901 C6.629,277.351 6.064,276.837 3.977,276.305 C-0.893,275.105 -1.27,269.518 2.733,258.339 C4.176,254.361 5.363,250.506 5.372,249.745 C5.381,249.047 4.635,247.77 3.756,246.998 C2.313,245.713 2.13,245.14 2.476,242.67 C3.036,238.237 4.642,236.543 8.961,236.087 C12.899,235.627 15.174,236.289 18.188,238.862 C19.068,239.57 20.645,240.287 21.595,240.362 C23.939,240.58 24.466,239 25.016,230.064 C25.187,226.387 25.871,222.209 26.396,220.756 C27.575,217.599 31.809,213.653 33.965,213.679 C35.297,213.695 35.684,213.129 36.932,209.528 C38.772,204.222 38.453,199.081 36.01,196.451 C33.756,194.014 34.426,191.041 38.088,187.152 C39.628,185.585 41.759,182.439 42.865,180.169 C45.01,175.754 48.603,172.309 52.04,171.398 C53.313,171.033 55.151,171.119 57.112,171.586 C59.388,172.184 60.784,172.137 62.629,171.652 C64.029,171.225 65.936,170.93 66.95,170.942 C69.678,170.975 84.362,168.232 86.912,167.185 C88.122,166.692 90.603,166.087 92.318,165.917 C94.097,165.685 96.895,165.084 98.549,164.66 C100.267,164.173 103.383,163.512 105.481,163.157 C107.641,162.802 110.826,161.635 112.678,160.642 C117.338,158.097 121.402,157.765 125.44,159.526 C127.838,160.57 130.097,162.626 134.793,167.693 C140.929,174.426 140.991,174.49 143.342,174.138 C145.502,173.847 145.882,173.978 146.815,175.511 C149.551,180.048 151.298,182.479 153.241,184.405 C155.058,186.329 155.306,186.776 154.902,188.801 C154.496,190.826 154.805,191.59 157.856,196.321 C159.724,199.197 161.462,202.453 161.703,203.47 C162.366,206.396 173.658,222.134 175.741,222.984 C176.687,223.439 177.944,224.468 178.505,225.3 C179.874,227.473 181.145,227.234 182.573,224.524 C184.326,221.183 190.218,216.433 194.486,214.898 C196.46,214.224 198.248,213.23 198.38,212.788 C198.576,212.283 200.885,210.218 203.447,208.092 C207.802,204.528 208.125,204.088 207.571,202.623 C207.264,201.795 207.028,200.333 207.039,199.381 C207.069,196.909 211.53,189.794 213.957,188.428 C215.043,187.743 216.584,186.24 217.36,184.98 C218.784,182.587 218.466,182.647 225.744,184.002 C228.655,184.544 233.432,182.888 235.171,180.689 C236.136,179.496 236.338,178.547 236.105,176.768 C235.633,173.845 236.337,173.346 240.65,173.334 C242.997,173.298 245.925,172.445 251.789,170.042 C256.187,168.255 260.588,166.214 261.548,165.528 C263.21,164.406 263.654,164.348 265.93,165.009 C268.267,165.798 268.967,165.68 274.316,163.841 C277.501,162.737 281.327,161.007 282.861,160.01 C284.908,158.576 286.373,158.086 288.911,157.99 C290.688,157.948 292.976,157.594 293.931,157.225 C294.887,156.856 296.093,156.743 296.598,156.94 C297.04,157.135 300.158,156.348 303.406,155.182 C306.719,154.016 312.069,152.113 315.318,150.948 C318.565,149.845 322.137,148.175 323.29,147.237 C325.982,144.986 330.563,143.772 336.271,143.777 C341.726,143.778 343.866,145.136 344.454,149.012 C344.806,151.427 343.645,153.062 340.387,154.989 C338.024,156.293 340.547,157.528 347.197,158.305 L353.341,159.076 L360.538,156.625 C374.103,151.966 382.824,149.343 384.536,149.364 C385.488,149.375 387.575,149.844 389.217,150.435 C391.617,151.288 392.567,151.363 394.414,150.751 C397.407,149.771 399.619,150.432 402.19,152.936 C406.955,157.56 411.629,169.794 411.54,177.277 C411.473,182.921 410.823,184.245 406.995,186.103 C404.953,187.093 403.224,188.532 402.19,190.104 C399.669,194.07 400.562,193.637 379.352,201.059 C369.543,204.493 369.225,204.616 365.819,208.255 C363.892,210.325 362.282,212.399 362.275,212.906 C362.256,214.491 365.167,215.097 374.486,215.526 C383.551,215.951 386.277,216.047 394.777,215.958 C397.251,215.987 400.736,216.22 402.382,216.493 C404.471,216.835 405.931,216.789 406.952,216.23 C407.974,215.672 409.75,215.63 412.791,215.983 C416.971,216.477 420.458,216.582 428.514,216.488 C435.873,216.449 443.887,219.843 449.402,225.427 C451.408,227.417 454.489,229.674 456.256,230.456 C458.022,231.302 460.789,233.238 462.357,234.778 C465.929,238.373 468.382,240.115 470.469,240.648 C471.353,240.911 473.993,242.973 476.438,245.349 C478.821,247.661 481.899,250.171 483.286,250.822 C487.764,253.032 494.915,259.65 494.892,261.553 C494.888,261.934 495.573,263.02 496.385,264.044 C498.697,266.926 499.126,268.2 499.763,273.345 C500.448,279.633 499.618,285.458 497.678,288.543 C496.837,289.929 494.134,293.131 491.693,295.765 C486.616,301.287 485.081,302.41 479.468,305.007 C478.065,305.624 475.827,307.183 474.544,308.373 C471.401,311.317 468.329,313.627 466.351,314.618 C465.458,315.052 462.958,317.178 460.776,319.372 C458.657,321.503 455.582,324.067 454.048,325 C452.579,325.87 449.502,328.561 447.319,330.882 C445.07,333.266 442.508,335.328 441.554,335.57 C439.391,336.052 434.975,339.424 434.961,340.629 C434.955,341.073 433.863,342.202 432.584,343.075 C427.278,346.563 419.912,352.564 419.005,354.203 L417.969,355.966 L398.622,356.052 C368.747,356.14 284.895,356.153 245.762,356.066 C226.417,356.025 208.023,356.059 204.85,356.149 C201.74,356.301 198.761,356.202 198.319,356.007 z M173.74,310.87 C175.224,308.858 174.853,307.966 171.091,304.369 C165.948,299.487 164.425,299.532 160.874,304.818 C158.226,308.782 157.435,311.246 158.825,311.707 C159.204,311.838 162.5,312.004 166.18,311.985 C172.014,312.055 172.903,311.938 173.74,310.87 z M42.354,265.409 C43.92,261.749 43.622,260.16 41.035,259.051 C37.501,257.486 35.538,257.273 34.13,258.334 C32.85,259.207 32.913,259.335 35.418,262.028 C36.795,263.567 38.419,265.616 39.042,266.575 C40.286,268.62 41.114,268.375 42.354,265.409 z M15.39,260.711 C15.84,260.208 17.881,259.218 19.92,258.482 C23.742,257.132 24.258,256.376 23.08,254.143 C22.521,253.121 19.178,251.622 15.003,250.685 C12.03,249.952 10.206,253.989 11.876,257.561 C12.432,258.773 12.859,260.173 12.853,260.68 C12.839,261.885 14.361,261.904 15.39,260.711 z" fill="#000000"/>
  </g>
</svg>
