<?xml version="1.0" encoding="UTF-8"?>
<!DOCTYPE svg PUBLIC "-//W3C//DTD SVG 1.1//EN" "http://www.w3.org/Graphics/SVG/1.1/DTD/svg11.dtd">
<svg version="1.1" xmlns="http://www.w3.org/2000/svg" xmlns:xlink="http://www.w3.org/1999/xlink" x="0" y="0" width="500" height="500" viewBox="0, 0, 500, 500">
  <g id="layer102">
    <path d="M398.89,442.199 C401.418,439.764 409.003,432.591 415.923,426.23 C422.711,419.868 430.163,412.966 432.558,410.665 C437.483,406.063 449.462,395.098 458.914,386.703 C476.485,370.863 478.344,368.567 478.288,361.996 C478.259,358.509 477.285,354.225 475.926,352.224 C473.615,348.489 461.572,335.848 448.861,323.615 C441.288,316.302 440.6,314.295 443.65,310.112 C446.701,306.063 446.01,303.654 440.874,298.869 C436.685,295.148 435.07,294.625 428.767,294.678 L421.525,294.739 L407.73,281.175 L393.934,267.476 L381.459,267.446 C367.778,267.293 365.626,266.641 366.533,262.877 C367.054,260.995 366.512,260.329 364.768,260.344 C363.294,260.356 361.675,259.297 360.86,258.097 C359.77,255.96 357.353,255.712 342.332,255.838 C326.373,256.106 324.899,256.253 322.106,259.093 C320.51,260.716 319.187,262.873 319.195,263.812 C319.215,266.226 316.42,268.798 313.872,268.819 C312.665,268.83 311.172,266.697 310.07,263.218 C309.104,260.007 307.459,255.729 306.367,253.458 C305.275,251.321 303.353,245.972 302.111,241.825 C300.179,235.403 300.028,233.392 301.476,230.027 C302.922,226.662 302.779,225.59 301.153,223.592 C300.07,222.394 297.762,219.06 296.129,216.392 L293.136,211.32 L296.041,205.93 C297.627,202.966 300.151,200.263 301.488,199.715 C302.826,199.301 303.89,198.219 303.882,197.281 C303.875,196.476 309.341,192.406 315.878,188.327 C322.552,184.382 328.553,180.308 329.348,179.227 C330.145,178.282 331.48,177.466 332.151,177.46 C333.358,177.45 339.761,173.373 353.365,164.272 C355.9,162.642 358.57,161.143 359.106,161.139 C359.642,161.134 362.578,159.366 365.646,157.329 C377.114,149.319 382.05,146.192 383.258,146.182 C383.794,146.178 386.196,144.682 388.461,142.919 C390.727,141.291 394.729,138.709 397.266,137.346 C399.803,135.984 404.599,132.054 407.923,128.673 C413.508,122.858 415.774,121.23 427.787,114.289 C430.456,112.791 436.327,108.986 440.994,105.728 C445.662,102.604 449.932,100.019 450.468,100.015 C451.139,100.009 453.006,98.652 454.736,97.028 C456.599,95.269 460.6,92.687 463.673,91.186 C466.744,89.684 469.278,87.919 469.273,87.383 C469.269,86.847 471.937,85.081 475.144,83.712 C478.351,82.209 481.685,80.036 482.616,78.955 C483.545,77.875 485.013,76.923 485.817,76.916 C486.756,76.908 489.956,74.736 493.02,72.161 L498.478,67.287 L494.936,60.745 C493.028,57.139 490.318,53.809 488.838,53.285 C485.745,52.372 477.864,56.328 458.385,68.563 C454.382,71.011 448.376,74.549 445.038,76.186 C441.699,77.958 438.897,79.725 438.633,80.263 C438.37,80.802 435.968,82.298 433.297,83.662 C430.625,84.892 425.953,87.478 423.018,89.381 C415.682,94.271 413.146,95.768 407.137,99.037 C404.334,100.537 401.133,102.709 400.069,103.792 C399.005,104.874 397.001,105.829 395.526,105.841 C392.307,105.868 385.897,109.142 380.165,113.482 C377.9,115.245 375.096,116.743 373.889,116.753 C372.548,116.765 371.614,117.309 371.62,117.979 C371.625,118.65 368.291,120.958 364.285,123.004 C360.28,125.183 356.943,127.224 356.948,127.76 C356.952,128.296 354.95,129.386 352.678,130.344 C350.272,131.303 347.068,133.208 345.604,134.562 C344.139,135.781 339.737,138.635 335.865,140.679 C332.127,142.856 327.322,145.58 325.185,146.67 C323.182,147.76 319.715,150.069 317.315,151.833 C315.049,153.462 312.646,154.823 311.841,154.83 C311.17,154.835 309.97,155.65 309.04,156.598 C308.244,157.677 304.241,160.125 300.236,162.304 C293.959,165.577 292.217,165.859 289.39,164.542 C287.505,163.753 284.013,163.111 281.465,163.133 L276.771,163.172 L276.699,154.589 L276.626,146.006 L270.009,140.562 C266.361,137.508 262.854,135.123 262.049,135.13 C259.769,135.149 249.096,141.811 246.171,144.92 C244.576,146.677 243.124,149.506 242.872,151.386 C242.628,154.205 241.693,154.75 237.805,154.916 C235.123,155.072 230.845,156.584 228.045,158.619 C225.244,160.52 221.64,162.563 220.035,163.113 C218.43,163.663 215.36,165.298 213.226,166.792 C211.226,168.283 204.819,171.958 199.212,174.956 C193.603,177.955 188.13,181.085 187.065,182.034 C186,182.981 182.664,185.021 179.726,186.521 C171.579,190.614 160.5,196.876 151.692,202.315 C147.288,204.901 142.216,207.894 140.346,208.849 C138.478,209.803 136.611,211.16 135.947,211.97 C134.355,213.996 136.018,220.419 139.136,224.283 C140.626,226.149 141.856,228.82 141.867,230.162 C141.887,232.576 140.547,232.722 124.453,232.857 L107.018,233.003 L94.256,246.523 L81.36,260.044 L46.49,260.337 C24.226,260.524 9.88,261.181 6.536,262.148 C1.854,263.663 1.323,264.338 0.695,269.306 C0.183,272.395 0.235,294.392 0.704,318.396 L1.475,362.115 L10.266,370.893 L19.059,379.805 L42.536,380.412 C55.416,380.841 67.226,381.68 68.707,382.338 C70.188,382.997 73.013,384.046 74.896,384.701 C77.721,385.615 78.672,387.083 79.38,391.503 C80.51,398.334 85.428,408.888 87.984,409.806 C88.926,410.201 96.63,417.244 105.15,425.623 C113.671,434.001 121.239,440.777 122.043,440.77 C122.714,440.765 123.93,441.828 124.746,443.162 C126.652,446.5 138.592,446.801 235.561,446.388 C281.162,446.139 318.851,446.226 319.121,446.491 C319.392,446.757 336.427,446.882 356.948,446.844 L394.232,446.53 L398.89,442.199 z" fill="#000000"/>
  </g>
</svg>
