<?xml version="1.0" encoding="UTF-8"?>
<!DOCTYPE svg PUBLIC "-//W3C//DTD SVG 1.1//EN" "http://www.w3.org/Graphics/SVG/1.1/DTD/svg11.dtd">
<svg version="1.1" xmlns="http://www.w3.org/2000/svg" xmlns:xlink="http://www.w3.org/1999/xlink" x="0" y="0" width="500" height="500" viewBox="0, 0, 500, 500">
  <g id="layer101">
    <path d="M76.567,439.709 C67.159,439.336 59.242,438.777 58.869,438.498 C58.59,438.219 58.31,436.169 58.31,434.027 C58.217,430.301 58.031,430.022 54.771,429.09 C50.206,427.879 44.711,422.849 44.711,420.055 C44.711,418.844 49.927,408.598 56.354,397.234 C63.992,383.727 67.811,376.089 67.439,375.065 C66.6,372.922 68.836,369.103 71.91,367.52 C73.307,366.774 74.797,365.098 75.077,363.794 C75.449,362.583 76.847,360.906 78.151,360.161 C79.734,359.416 81.877,356.528 83.74,352.989 C90.353,340.227 95.29,333.614 100.506,330.913 C103.301,329.329 106.188,324.485 106.188,321.039 C106.281,319.549 106.84,317.22 107.585,315.916 C108.331,314.612 108.889,312.004 108.983,310.048 C108.983,308.091 109.635,305.018 110.38,303.155 C112.522,297.938 112.056,296.262 107.12,291.045 C99.202,282.942 86.627,262.729 86.627,258.258 C86.627,256.208 84.298,254.066 82.901,254.904 C81.411,255.836 81.783,258.63 83.833,261.238 C84.857,262.542 85.696,264.033 85.696,264.592 C85.696,265.15 83.74,269.249 81.318,273.72 C78.896,278.191 76.754,283.221 76.474,284.991 C76.008,287.599 75.17,288.53 71.91,290.3 C68.091,292.35 67.625,292.443 64.085,291.139 C58.403,289.182 56.82,289.369 56.82,292.256 C56.82,295.517 61.757,300.081 65.296,300.081 C90.446,304.086 91.191,304.179 93.054,305.204 C94.731,306.042 95.756,307.067 95.476,307.533 C85.23,311.538 72.888,308.93 72.422,309.396 C71.956,309.861 82.249,315.357 84.392,317.313 C88.77,321.318 87.751,323.574 80.386,322.436 C78.127,322.087 65.149,315.945 65.204,317.197 C65.321,319.875 71.63,328.118 74.332,331.006 C77.312,334.173 76.567,336.688 72.934,335.849 C71.444,335.57 67.905,334.08 64.924,332.589 C53.187,326.535 47.365,317.895 47.272,317.895 C52.535,330.819 52.535,331.565 53.187,333.241 C54.212,336.129 54.398,335.943 50.486,336.688 C47.785,337.247 47.039,336.874 43.5,333.334 C41.357,331.192 38.749,328.956 37.725,328.491 C36.7,327.932 33.254,323.554 30.087,318.71 C26.92,313.867 22.542,307.626 20.492,304.831 C18.443,302.037 16.767,298.87 16.767,297.752 C16.767,294.678 13.786,289.741 9.78,285.922 C7.731,284.059 4.657,281.265 2.981,279.681 C-0.373,276.608 -0.373,274.931 2.888,270.274 C5.961,265.802 5.961,263.94 2.888,261.052 C1.304,259.562 -0,257.978 -0,257.512 C-0,257.14 4.564,247.732 10.06,236.74 C20.772,215.223 22.914,212.522 29.435,212.522 C31.95,212.522 32.602,212.056 33.347,209.821 C34.837,205.629 39.867,204.977 44.524,208.237 C46.481,209.541 48.623,210.659 49.182,210.659 C50.393,210.659 51.511,208.33 52.535,203.58 C53.094,201.158 52.815,200.599 50.859,199.668 C47.971,198.364 46.108,192.309 46.946,187.186 C47.319,185.23 47.133,182.715 46.574,181.69 C45.735,180.293 45.922,179.362 47.412,177.499 C48.437,176.195 49.461,173.866 49.834,172.189 C51.511,163.527 52.628,159.707 54.119,158.031 C55.516,156.354 55.609,155.888 54.491,153.839 C52.535,150.486 52.815,146.946 55.05,144.897 C58.31,141.916 59.894,138.097 59.242,134.371 C58.776,132.043 59.428,128.689 61.105,123.101 C64.458,112.575 64.458,112.389 67.718,112.109 C70.699,111.83 72.655,109.035 72.655,105.309 C72.655,103.54 76.474,98.137 80.666,93.852 C81.783,92.828 83.74,89.847 85.044,87.239 C88.397,80.532 92.961,76.527 98.271,75.502 C100.692,75.036 103.859,73.639 105.35,72.428 C108.889,69.448 113.64,68.609 118.577,70.006 C122.396,71.031 122.862,70.938 129.661,67.212 C133.76,64.976 139.069,63.02 142.329,62.461 C147.546,61.53 148.384,61.623 152.389,63.579 L156.674,65.815 L158.351,63.672 C160.4,61.157 161.145,61.157 164.219,63.486 L166.641,65.349 L168.97,62.275 C171.298,59.201 171.485,59.201 177.167,59.574 C184.898,60.133 190.021,62.648 190.021,65.908 C190.021,67.305 188.81,69.727 187.226,71.59 C184.153,75.036 184.059,75.502 185.364,80.439 C186.388,84.072 192.722,90.499 195.423,90.499 C196.262,90.499 198.87,91.803 201.105,93.293 C203.341,94.877 205.763,96.088 206.415,96.088 C207.067,96.088 209.023,97.299 210.7,98.696 C212.376,100.186 217.034,102.981 221.039,104.937 C224.951,106.8 228.491,108.756 228.677,109.222 C228.957,109.594 231.937,110.246 235.384,110.619 C245.63,111.643 254.665,116.394 255.69,121.238 C256.156,123.194 256.994,124.218 258.577,124.591 C261.651,125.429 262.303,128.596 260.999,137.538 C259.882,144.99 259.882,144.99 262.21,147.133 C264.353,148.902 265.284,149.089 269.941,148.623 C272.829,148.25 276.834,147.226 278.697,146.294 C281.585,144.804 282.61,144.711 284.566,145.642 C287.639,147.039 288.478,150.393 286.429,153.467 C285.59,154.771 285.031,156.261 285.311,156.913 C285.87,158.59 296.023,160.08 301.332,159.242 C306.828,158.403 316.608,159.055 324.898,160.918 C330.115,162.036 331.419,162.036 336.076,160.732 C338.964,159.894 341.758,158.869 342.317,158.403 C342.783,157.938 345.484,157.565 348.372,157.565 C351.166,157.565 356.475,156.82 360.015,155.888 C366.535,154.212 366.535,154.212 367.001,150.579 C367.653,145.456 369.609,144.618 374.08,147.691 C377.993,150.393 379.669,150.579 384.885,149.182 C387.866,148.343 388.425,147.691 388.984,144.99 C389.45,142.475 390.009,141.73 391.592,141.73 C392.617,141.73 394.293,141.078 395.318,140.333 C396.529,139.401 397.647,139.308 399.323,139.96 C405.378,142.289 409.57,140.146 408.545,135.21 C408.266,133.719 407.707,131.204 407.427,129.714 C406.961,127.385 407.427,126.64 410.594,124.125 C414.413,120.958 416.369,116.58 416.369,110.898 C416.369,105.496 417.487,104.75 421.958,106.8 C425.964,108.569 428.106,108.197 429.41,105.309 C433.415,96.553 434.16,96.088 441.053,98.323 C447.201,100.186 449.716,99.72 450.461,96.274 C452.138,88.636 454.467,86.773 457.82,90.499 C458.751,91.523 462.664,94.132 466.483,96.274 C471.14,98.789 474.028,101.118 475.239,103.26 C476.636,105.496 477.567,106.241 478.685,105.868 C481.014,104.937 490.049,103.54 493.775,103.54 C495.545,103.54 497.873,104.098 498.805,104.844 C500.482,106.055 500.482,106.148 498.246,108.29 C496.942,109.501 494.334,112.947 492.471,115.928 C489.77,120.12 488.559,121.238 486.696,121.238 C483.994,121.238 483.808,122.542 485.764,126.64 C487.068,129.155 487.068,129.9 485.857,132.695 C485.112,134.558 484.274,138.749 483.901,142.196 C483.436,146.015 482.69,148.623 481.945,148.902 C481.2,149.182 478.778,148.716 476.449,147.878 C473.189,146.853 472.072,146.76 471.792,147.598 C471.513,148.25 470.581,150.952 469.65,153.746 C467.414,160.266 465.924,161.291 461.546,159.149 C455.864,156.447 449.902,157.751 449.902,161.664 C449.902,163.62 446.177,167.811 444.593,167.811 C443.755,167.811 441.519,166.135 439.656,164.085 C437.048,161.291 435.465,160.36 433.322,160.36 C431.739,160.36 428.292,159.894 425.684,159.335 C421.399,158.403 420.84,157.938 419.443,154.678 C418.232,151.51 417.673,151.045 414.972,151.045 C411.432,151.045 410.128,152.349 409.663,156.168 C409.383,158.683 409.104,158.962 406.403,158.776 C403.701,158.497 403.329,158.776 402.397,162.036 C401.838,164.179 401.652,170.978 402.025,180.386 C402.677,194.638 402.583,195.849 399.789,209.262 C398.206,216.993 396.156,227.426 395.318,232.549 C393.734,242.236 391.406,249.502 387.028,258.164 C381.905,268.597 373.335,283.128 371.379,284.991 C365.045,290.859 348.651,295.237 339.057,293.56 C330.58,292.163 315.677,290.673 314.745,291.325 C314.28,291.604 313.907,292.908 313.907,294.212 C313.907,295.423 313.069,297.659 312.044,298.963 C310.926,300.36 308.132,304.179 305.71,307.439 C303.381,310.793 299.562,314.705 297.234,316.288 C289.502,321.691 289.316,321.97 289.13,326.255 C289.037,328.491 288.292,333.707 287.453,337.806 C286.615,342.183 285.777,352.709 285.404,363.421 C284.752,384.752 284.659,384.379 293.508,386.615 L299.469,388.198 L300.68,393.135 C301.332,395.836 301.705,398.631 301.425,399.283 C301.239,399.935 297.513,402.357 293.228,404.685 C288.944,406.921 283.075,410.181 280.188,411.765 C272.643,415.956 264.259,417.26 243.767,417.447 C224.206,417.54 222.623,417.074 222.623,411.671 C222.623,407.946 221.318,405.617 215.916,400.121 C212.097,396.116 211.165,394.532 210.793,391.179 C210.42,388.385 210.793,386.056 211.817,384.007 C214.332,379.256 217.22,369.01 216.568,367.333 C216.195,366.402 217.034,363.794 218.524,360.999 C221.97,354.665 221.318,353.547 214.053,352.895 L208.185,352.337 L204.086,356.994 C197.007,365.005 190.58,366.774 179.775,363.514 C174,361.744 172.23,360.533 164.592,353.641 C159.934,349.263 155.37,345.723 154.532,345.723 C151.83,345.723 146.242,353.641 146.242,357.646 C146.242,358.577 146.894,360.72 147.732,362.396 C149.036,365.098 149.036,365.47 147.452,367.985 C139.908,379.908 136.461,386.615 127.705,406.455 C113.547,438.312 114.758,436.076 111.125,436.076 C108.703,436.076 107.772,436.635 106.933,438.405 C105.722,441.106 107.026,441.013 76.567,439.709 z" fill="#000000"/>
  </g>
</svg>
