<?xml version="1.0" encoding="UTF-8"?>
<!DOCTYPE svg PUBLIC "-//W3C//DTD SVG 1.1//EN" "http://www.w3.org/Graphics/SVG/1.1/DTD/svg11.dtd">
<svg version="1.1" xmlns="http://www.w3.org/2000/svg" xmlns:xlink="http://www.w3.org/1999/xlink" x="0" y="0" width="500" height="500" viewBox="0, 0, 500, 500">
  <g id="layer101">
    <path d="M194.667,486.736 C178.646,489.032 173.697,488.647 168.713,484.708 C163.592,480.677 162.699,473.029 166.818,467.771 C168.303,465.797 170.226,461.949 171.203,459.25 C172.067,456.576 174.133,453.411 175.85,451.982 C177.455,450.576 179.203,447.597 179.66,445.245 C180.116,442.893 181.254,440.398 182.092,439.866 C185.851,437.414 184.991,433.321 177.04,416.943 C170.272,402.811 168.933,400.955 164.853,398.487 C162.4,396.983 159.504,394.505 158.44,392.828 C156.287,389.363 148.056,358.084 148.309,353.637 C148.352,351.017 149.029,350.28 151.872,349.684 C156.307,348.752 160.6,342.626 158.189,340.758 C157.316,339.991 155.282,339.35 153.732,339.32 C152.182,339.289 150.076,338.306 149.13,337.199 C147.241,334.984 143.104,324.336 139.836,313.861 C138.491,309.157 137.242,307.163 135.435,306.474 C132.485,305.432 131.637,302.522 133.709,299.951 C135.488,297.677 139.648,282.436 140.663,274.268 C141.042,270.983 142.462,267.004 143.816,265.532 C146.205,262.775 146.545,262.703 152.159,263.424 C158.616,264.205 160.812,262.793 159.857,258.245 C158.854,253.469 160.207,249.741 164.651,244.89 C167.064,242.246 169.064,239.333 169.303,238.214 C169.454,237.232 167.858,234.718 165.74,232.551 C161.99,228.827 160.206,228.251 159.475,230.423 C158.762,232.116 151.141,238.229 149.094,238.659 C148.071,238.874 145.622,240.219 143.701,241.81 C140.624,244.118 139.032,244.453 132.676,244.719 C122.628,244.93 96.246,250.471 94.808,252.673 C93.192,255.149 94.316,258.237 97.151,259.304 C99.598,260.215 99.442,260.604 94.42,264.39 C88.9,268.636 87.527,272.842 90.83,274.999 C93.995,277.065 92.641,278.536 84.884,282.303 C74.427,287.348 70.986,287.359 69.863,282.015 C69.41,279.853 67.802,276.155 66.276,273.982 C59.871,264.403 52.148,271.724 56.272,283.444 C57.163,285.987 57.77,290.016 57.566,292.433 C57.259,296.059 56.564,297.274 53.027,299.086 C50.692,300.407 47.101,301.399 45.096,301.464 C35.616,301.555 32.087,299.447 32.605,293.996 C32.749,292.421 31.494,289.836 29.556,287.393 C27.319,284.657 25.783,281.299 24.851,276.864 C23.418,270.041 21.641,267.801 18.116,268.543 C15.046,269.188 10.637,265.72 9.873,262.081 C9.466,260.148 7.619,257.568 5.62,255.969 C-0.786,250.903 -1.61,245.852 2.608,236.536 C3.902,233.652 4.208,230.026 3.703,224.789 C2.606,215.046 2.822,213.813 6.372,210.93 C8.115,209.615 9.277,207.234 9.349,205.319 C9.592,199.687 11.851,192.919 13.958,191.646 C17.472,189.72 24.084,190.113 27.435,192.496 C31.036,194.946 35.112,194.565 36.609,191.519 C37.459,189.916 39.89,189.049 46.964,187.682 C52.105,186.721 56.882,185.719 57.678,185.551 C58.449,185.27 59.546,183.14 60.001,180.788 C60.457,178.437 61.326,176.354 62.008,176.211 C63.828,175.829 72.833,178.568 74.167,179.832 C75.824,181.502 80.147,190.212 80.881,193.145 C81.645,196.783 85.373,198.138 93.416,197.991 C102.394,197.768 105.224,195.987 104.221,191.21 C103.744,188.936 102.685,187.852 100.561,187.349 C93.207,185.687 84.699,168.359 88.681,163.01 C89.693,161.61 90.532,158.823 90.558,156.68 C90.488,151.826 91.453,150.2 95.242,148.453 C96.875,147.754 98.977,145.887 99.828,144.284 C100.816,142.771 103.337,139.511 105.683,137.118 C107.916,134.749 110.092,130.968 110.547,128.616 C111.093,126.127 113.112,122.735 115.368,120.48 C117.649,118.338 119.339,116.203 119.356,115.724 C119.261,115.27 118.49,111.038 117.649,106.465 C116.182,98.343 115.948,97.799 112.304,95.715 C104.078,91.031 104.104,86.633 112.231,85.757 C116.672,85.417 118.169,84.628 122.39,80.417 C125.437,77.402 127.479,74.124 127.798,71.683 C129.131,63.328 129.394,62.323 130.986,61.989 C131.782,61.822 133.732,63.194 135.21,65.139 C138.35,69.347 139.516,69.814 147.571,70.854 C155.626,71.893 157.301,70.829 156.179,65.484 C155.558,62.528 155.948,60.427 157.409,58.339 C158.87,56.252 159.435,53.283 159.191,49.298 C158.863,46.042 159.422,42.481 160.164,41.495 C161.469,39.795 162.361,40.083 166.195,43.077 L170.605,46.545 L173.539,43.554 C175.681,41.322 178.405,40.156 184.204,38.939 C195.007,36.669 200.366,32.22 205.363,20.959 C209.67,11.506 211.957,9.957 216.21,13.813 C223.753,20.897 231.601,26.609 233.905,26.838 C235.342,26.892 237.969,27.528 239.776,28.217 C244.305,29.997 253.264,30.253 256.873,28.782 C259.166,27.825 260.877,28.06 263.743,29.832 L267.434,32.145 L269.566,28.728 C274.076,21.37 278.12,24.794 282.087,39.159 C284.799,48.682 287.221,51.734 291.201,50.899 C295.75,49.944 304.131,42.365 307.241,36.251 C309.031,32.906 311.17,30.082 312.079,29.891 C314.126,29.462 316.9,33.628 318,38.86 C318.692,42.157 320.211,43.737 325.949,47.875 C332.601,52.415 333.606,52.679 338.155,51.724 C348.162,49.622 351.02,53.058 345.625,60.721 C342.816,64.874 342.576,65.993 343.88,68.806 C347.424,77.203 348.016,79.454 347.553,83.469 C347.036,88.921 344.352,94.233 341.203,96.202 C338.69,97.798 338.478,101.879 340.787,102.701 C341.427,102.921 342.558,104.347 343.234,105.867 C344.023,107.364 346.858,110.687 349.526,113.213 C356.608,119.799 361.202,125.84 362.037,129.82 C363.517,136.871 373.909,146.205 384.104,149.526 C388.975,151.233 395.195,158.238 396.318,163.582 C397.363,167.994 395.457,175.874 392.186,181.785 C390.731,184.466 389.429,189.013 389.32,191.885 C388.667,206.864 388.834,207.66 392.237,213.12 C394.042,216.065 396.022,218.142 396.567,217.91 C397.112,217.676 397.885,215.14 398.336,212.195 C398.93,207.678 400.84,204.902 404.965,202.492 C405.372,202.169 406.314,198.171 406.908,193.654 C407.634,188.633 409.139,183.923 410.918,181.651 C412.648,179.15 414.176,174.554 414.993,169.396 C415.948,162.071 415.841,160.432 413.916,156.918 C412.015,153.518 411.745,151.675 412.359,146.678 C412.737,143.393 412.554,138.564 412.004,135.948 C411.359,132.878 411.865,128.497 413.405,122.83 C414.682,118.17 415.821,113.419 415.923,112.209 C415.912,111.025 417.374,108.937 419.068,107.394 C420.672,105.988 422.182,104.127 422.241,103.284 C422.44,102.53 420.64,97.921 418.315,93.067 C416.102,88.188 414.171,84.081 414.124,83.855 C413.766,82.149 417.496,78.991 420.566,78.346 C425.001,77.414 428.692,79.726 436.456,88.425 C442.168,94.705 444.411,95.777 453.238,96.536 C459.989,97.018 463.291,99.174 466.011,104.777 C467.243,107.248 469.61,111.738 471.326,114.821 C474.364,120.238 474.436,120.58 473.266,126.881 C471.879,134.414 472.226,137.191 475.114,141.334 C476.154,142.897 478.174,149.121 479.53,155.011 C481.889,165.676 482.774,167.628 493.578,186.849 C497.543,193.852 498.433,196.396 499.208,203.476 C500.602,215.77 500.625,215.882 495.348,216.754 C491.798,217.38 490.236,218.421 488.146,221.472 C486.595,223.698 485.57,226.169 485.761,227.079 C485.976,228.102 485.077,231.734 483.699,235.348 C481.566,241.02 479.367,244.688 470.241,257.765 C465.318,264.855 455.867,267.908 445.616,266.024 C442.512,265.371 441.387,264.537 440.909,262.263 C440.55,260.558 439.444,259.247 438.211,259.031 C435.381,258.557 433.91,257.203 433.265,254.133 C432.882,252.314 432.033,251.66 430.441,251.995 C429.076,252.282 426.653,251.485 424.84,250.203 C418.141,245.436 415.086,250.115 418.462,259.973 C419.986,264.401 420.212,266.61 419.23,268.716 C418.517,270.41 418.54,272.779 419.263,274.527 C421.105,278.772 418.431,287.525 411.921,297.798 C407.004,305.479 405.627,306.837 400.114,309.42 C395.122,311.655 393.2,313.246 390.601,317.829 C387.504,322.873 386.805,323.495 381.687,324.569 C377.252,325.5 375.313,325.314 372.447,323.541 C364.15,318.517 361.849,311.519 365.832,303.915 C366.952,301.899 368.132,299.039 368.552,297.645 C369.211,295.132 364.154,271.616 361.154,262.985 C357.992,254.151 340.139,234.154 336.158,234.99 C335.589,235.109 333.279,234.289 331.036,233.217 C328.792,232.144 325.753,231.239 324.293,231.07 C322.24,230.908 320.512,228.896 317.313,223.276 C315.017,219.128 312.385,215.643 311.541,215.582 C310.673,215.409 306.645,218.274 302.621,221.73 C298.509,225.326 294.389,228.327 293.48,228.519 C292.57,228.709 290.375,227.864 288.562,226.583 C284.111,223.482 282.112,224.138 282.995,228.346 C283.545,230.961 285.225,232.746 289.215,235.351 C292.793,237.687 294.911,239.854 295.317,241.787 C295.699,243.607 296.782,244.804 298.104,244.883 C299.199,245.008 303.31,245.926 307.079,246.915 C313.249,248.588 314.074,249.127 314.354,252.155 C315.171,258.871 315.918,260.732 318.723,263.348 C320.656,265.199 322.33,268.646 323.985,274.829 C327.922,288.487 325.753,292.86 313.962,296.644 L307.828,298.525 L313.303,322.903 C317.919,343.187 319.473,348.321 322.438,353.398 C324.316,356.684 326.128,360.222 326.319,361.132 C326.51,362.042 328.096,363.371 329.903,364.06 C331.71,364.749 334.653,367.455 336.5,370.035 C339.826,374.561 339.849,374.675 338.668,379.791 C337.942,382.555 337.198,388.055 336.825,391.932 C336.566,395.787 335.205,401.178 333.863,403.834 C331.425,408.621 331.473,408.848 334.275,418.234 C336.797,426.846 336.904,428.486 335.584,433.512 C333.384,441.691 330.192,446.28 324.206,449.437 C314.934,454.472 302.318,455.46 292.691,452.019 C287.407,450.043 281.983,442.87 278.929,433.419 C277.8,429.738 276.013,426.314 275.073,425.799 C274.02,425.308 272.956,423.632 272.669,422.267 C272.048,419.311 268.746,417.154 267.165,418.674 C266.668,419.134 266.363,420.505 266.601,421.642 C267.174,424.371 263.189,434.232 259.099,440.196 C254.267,447.148 227.448,476.052 222.426,479.838 C218.127,483.115 215.967,483.569 194.667,486.736 z M238.421,332.694 C237.776,329.623 237.042,326.69 236.832,326.259 C235.93,324.787 226.335,327.158 226.1,328.87 C225.867,330.58 229.814,335.807 232.978,337.873 C234.217,338.682 236.204,339.095 237.454,338.833 C239.274,338.45 239.448,337.584 238.421,332.694 z M443.889,212.007 C447.501,206.025 449.026,196.325 448.11,184.05 C447.021,170.388 446.43,168.137 443.779,167.387 C440.488,166.416 437.512,169.772 435.821,176.421 C435.005,179.322 431.883,188.764 428.846,197.477 C425.807,206.188 423.673,214.116 424.115,215.092 C424.629,216.409 426.137,216.805 428.89,216.345 C431.074,216.005 434.264,215.929 436,216.276 C440.565,217.099 440.883,216.913 443.889,212.007 z" fill="#000000"/>
  </g>
</svg>
