<?xml version="1.0" encoding="UTF-8"?>
<!DOCTYPE svg PUBLIC "-//W3C//DTD SVG 1.1//EN" "http://www.w3.org/Graphics/SVG/1.1/DTD/svg11.dtd">
<svg version="1.1" xmlns="http://www.w3.org/2000/svg" xmlns:xlink="http://www.w3.org/1999/xlink" x="0" y="0" width="500" height="500" viewBox="0, 0, 500, 500">
  <g id="layer101">
    <path d="M92.754,433.893 C88.8,429.499 89.386,420.272 93.926,413.535 C97.587,408.117 97.734,407.677 95.83,399.769 C94.805,395.375 93.047,390.249 91.876,388.492 C89.679,385.123 90.851,381.462 95.244,377.801 C96.416,376.776 97.148,374.725 96.709,373.407 C96.269,371.796 97.441,368.428 99.638,365.352 C101.688,362.277 103.299,358.615 103.299,357.151 C103.299,355.54 104.031,354.368 104.91,354.368 C107.107,354.368 110.622,344.995 110.622,339.137 C110.622,335.769 111.94,332.547 114.43,329.471 C116.626,326.981 118.823,322.734 119.263,320.244 C119.995,317.169 121.606,314.972 124.242,313.654 C129.221,311.164 130.393,308.968 132.736,297.251 C133.761,291.686 135.958,286.267 137.862,284.07 C139.62,282.02 141.524,278.798 142.109,276.748 C142.695,274.697 146.064,267.521 149.578,260.491 C156.169,247.75 157.194,243.503 154.558,238.523 C152.361,234.423 147.675,235.155 143.135,239.988 C137.13,246.578 132.004,248.043 125.707,244.967 C121.02,242.77 120.288,242.77 116.626,244.967 C112.819,247.164 111.94,247.164 105.057,244.967 C96.416,242.185 94.658,243.063 90.118,251.704 C86.164,259.613 82.21,262.395 74.008,263.274 C68.443,263.713 65.807,263.274 62.731,261.224 C58.631,258.441 52.919,255.219 40.324,248.921 C36.663,247.018 32.708,244.674 31.39,243.503 C30.219,242.478 25.679,241.306 21.578,241.013 C8.69,239.841 6.054,237.059 1.66,219.631 C-0.976,209.525 -0.39,198.395 2.832,193.855 C4.15,192.244 7.518,191.072 13.084,190.633 C18.356,190.194 21.871,189.168 22.31,187.997 C23.775,184.042 21.285,179.356 16.306,176.573 C10.447,173.351 8.69,169.836 11.033,165.443 C12.351,163.1 14.109,162.514 20.553,162.514 C27.29,162.514 28.901,161.928 30.805,158.999 C31.976,157.241 35.198,154.459 37.834,152.994 C42.521,150.505 42.814,150.505 49.697,153.727 C56.287,156.949 57.02,156.949 60.828,154.752 C69.029,149.772 83.235,152.408 91.583,160.171 C97.734,166.029 101.102,167.347 103.153,164.857 C104.324,163.539 104.324,161.635 103.153,158.267 C101.688,154.166 101.835,153.141 104.91,149.919 C107.253,147.429 108.132,144.793 107.986,141.278 C107.693,138.495 108.864,133.662 110.622,130.294 C113.258,125.022 113.844,124.582 117.212,125.9 C120.141,127.072 121.166,126.779 122.338,124.436 C123.51,122.385 125.414,121.507 128.928,121.507 C132.443,121.507 134.347,120.628 135.519,118.578 C136.691,116.381 138.009,115.795 140.645,116.527 C142.988,117.113 145.624,116.381 148.553,114.33 C150.897,112.573 153.826,111.255 154.997,111.255 C156.169,111.255 160.123,108.619 163.784,105.397 L170.375,99.539 L184.434,99.539 C193.075,99.539 200.398,98.806 203.327,97.488 C208.014,95.584 208.16,95.438 209.917,81.232 C210.943,73.323 212.407,66.001 213.286,64.829 C215.776,61.9 220.169,62.486 224.123,66.587 C227.345,69.809 227.785,71.42 227.785,81.818 C227.785,95.292 229.396,98.074 237.451,98.074 C241.551,98.074 243.016,98.953 245.066,102.468 C248.435,108.472 257.954,112.719 267.913,112.719 C278.018,112.719 299.401,116.674 303.501,119.456 C305.259,120.628 308.481,125.168 310.678,129.708 C313.753,136.299 314.192,138.788 313.314,143.182 C312.728,146.111 312.289,150.065 312.435,151.823 C312.728,153.727 311.849,156.802 310.531,158.706 C307.602,163.1 308.774,171.155 313.167,176.573 C315.657,179.942 315.95,181.113 314.485,184.921 C312.142,191.072 314.339,194.734 320.636,194.734 C326.641,194.734 331.767,198.688 336.746,207.036 C341.14,214.505 348.756,221.388 351.978,220.802 C353.149,220.509 355.346,218.752 356.957,216.702 C359.154,213.626 359.447,212.162 358.129,208.354 C356.81,204.546 356.957,203.081 358.861,200.006 C360.765,197.223 361.058,194.587 360.325,188.583 C359.593,182.139 360.032,179.649 362.815,174.23 C365.891,168.372 367.355,167.2 377.021,163.246 C388.737,158.267 396.207,151.53 396.207,145.672 C396.207,143.475 397.964,140.546 400.6,138.056 C403.09,136.006 404.994,133.369 404.994,132.198 C404.994,129.855 388.445,112.719 382.44,108.912 C380.097,107.447 375.117,105.836 371.456,105.397 C362.083,104.372 362.522,101.15 372.628,97.488 C380.097,94.706 380.975,94.706 392.985,97.049 C406.605,99.685 412.316,102.614 412.316,106.861 C412.316,108.472 414.367,111.987 416.857,114.916 L421.397,120.042 L435.017,120.042 C447.905,120.042 448.637,120.189 449.516,123.411 C451.127,129.415 450.394,133.077 447.465,134.688 C443.511,136.884 443.804,138.495 449.369,144.061 C451.859,146.55 455.96,151.237 458.156,154.166 C460.5,157.241 465.186,161.782 468.408,164.125 C474.266,168.372 474.999,168.518 484.225,167.64 C493.598,166.614 494.038,166.761 497.26,170.862 C500.042,174.377 500.335,176.134 499.749,183.457 C497.553,207.475 471.337,224.464 455.52,212.015 C451.713,209.086 451.566,208.5 452.445,200.445 C453.616,190.047 451.859,185.361 442.486,173.937 C434.724,164.418 430.33,162.514 424.619,166.175 C415.538,172.033 393.57,195.905 389.763,203.96 C387.712,208.5 380.682,218.459 374.238,226.221 C363.547,238.963 362.522,240.867 363.254,245.114 C363.987,248.775 363.108,251.558 358.861,258.441 C351.831,270.304 349.341,272.501 342.165,273.379 C335.428,274.258 327.813,280.995 323.273,289.929 C321.076,294.322 320.051,295.054 315.95,294.762 C310.385,294.615 304.673,289.929 303.208,284.51 C302.476,281.581 303.648,279.677 310.385,273.086 C314.778,268.693 318.733,263.86 319.318,262.102 C320.197,259.173 318,254.78 315.511,254.78 C314.778,254.78 310.238,252.143 305.259,248.921 C300.426,245.846 295.007,242.77 293.542,242.331 C291.931,241.745 289.735,239.256 288.71,236.619 C287.245,232.958 285.488,231.493 281.973,230.908 C279.336,230.322 275.236,228.271 272.893,226.221 C266.741,220.949 264.105,221.974 261.762,230.615 C259.712,237.645 259.858,238.23 265.863,256.976 C270.549,271.036 273.478,277.48 277.14,281.581 C280.947,285.974 281.973,288.318 281.973,293.297 C281.973,301.205 286.952,319.219 289.588,320.83 C290.613,321.563 292.957,322.148 294.714,322.148 C298.815,322.148 301.744,327.567 303.062,337.526 C303.648,341.627 305.845,348.071 307.895,352.171 C314.192,364.327 321.515,382.634 321.515,386.002 C321.515,387.906 319.758,390.542 317.707,392.153 C313.021,395.522 313.607,399.915 319.318,406.799 C322.247,410.314 322.98,412.803 322.98,419.101 C322.98,431.256 321.662,431.989 298.375,431.989 C274.943,431.989 272.307,431.256 270.989,423.494 C270.549,420.272 269.085,416.465 268.06,414.854 C266.302,412.51 265.716,412.51 262.787,414.268 C259.858,416.025 259.126,415.879 256.783,412.95 C255.318,411.192 254.146,408.849 254.146,407.824 C254.146,406.799 253.121,405.188 251.95,404.162 C250.632,403.137 250.046,401.087 250.485,399.622 C250.924,398.158 250.046,391.421 248.288,384.684 C246.677,377.801 245.359,371.21 245.359,369.892 C245.359,368.574 243.016,362.716 240.087,357.004 L234.815,346.46 L239.355,342.652 C241.844,340.455 243.895,337.819 243.895,336.647 C243.895,332.986 235.107,322.148 232.032,322.148 C228.517,322.148 228.371,325.37 231.593,339.137 C234.229,350.414 233.643,356.272 229.689,358.176 C228.224,358.908 216.508,359.494 203.62,359.641 C190.732,359.641 179.455,359.933 178.43,359.933 C177.405,360.08 175.501,363.888 174.183,368.428 C171.986,375.018 171.839,377.361 173.304,381.023 C174.329,383.952 174.476,386.442 173.597,388.199 C171.547,391.86 171.839,398.89 173.89,400.94 C175.208,402.259 174.915,403.284 172.572,405.481 C170.814,407.092 169.057,411.192 168.471,414.707 C167.299,421.59 165.835,423.201 160.562,423.201 C158.659,423.201 152.068,425.984 145.917,429.352 L134.787,435.504 L115.015,436.089 C96.855,436.675 95.098,436.529 92.754,433.893 z M380.975,187.118 C387.273,180.381 391.813,173.498 391.813,170.715 C391.813,168.079 390.348,167.786 385.662,169.69 C383.758,170.422 380.536,171.447 378.193,172.033 C369.991,173.791 366.037,181.699 369.845,189.022 C372.042,193.123 375.996,192.39 380.975,187.118 z" fill="#000000"/>
  </g>
</svg>
