<?xml version="1.0" encoding="UTF-8"?>
<!DOCTYPE svg PUBLIC "-//W3C//DTD SVG 1.1//EN" "http://www.w3.org/Graphics/SVG/1.1/DTD/svg11.dtd">
<svg version="1.1" xmlns="http://www.w3.org/2000/svg" xmlns:xlink="http://www.w3.org/1999/xlink" x="0" y="0" width="500" height="500" viewBox="0, 0, 500, 500">
  <g id="Layer_1">
    <path d="M285.002,55.274 C286.461,66.311 284.741,78.645 282.222,87.496 C262.538,85.787 237.462,85.787 217.776,87.496 C215.554,78.862 212.825,65.229 215.554,55.274 C236.386,59.646 264.098,59.429 285.002,55.274" fill="#000000"/>
    <path d="M218.891,121.947 C166.968,129.759 131.745,152.286 102.776,184.183 C98.703,188.662 91.588,194.418 91.666,198.616 C91.731,202.144 99.777,209.631 103.888,213.072 C165.756,264.553 308.088,267.085 380.001,223.61 C386.413,219.737 408.652,206.71 408.332,198.054 C408.204,194.591 400.537,187.234 397.224,183.62 C368.019,151.81 330.61,129.088 279.443,121.406 C280.395,145.945 277.783,169.143 273.332,189.181 C269.039,208.484 263.114,228.977 249.998,239.732 C236.105,228.566 231.587,208.765 227.22,189.181 C222.786,169.273 219.038,146.465 220.555,121.947 C220.328,121.016 219.836,122.077 218.891,121.947 z M500,204.719 C461.468,229.172 420.268,250.92 378.889,272.516 C383.814,261.502 389.122,250.898 395.556,241.398 C376.848,252.435 353.633,260.42 328.886,266.955 C304.495,273.382 277.872,279.722 249.998,279.722 C222.106,279.722 195.548,273.403 171.11,266.955 C146.642,260.485 123.34,252.759 104.998,241.398 C109.755,249.968 116.288,261.588 121.109,271.954 C80.455,252.045 38.404,228.739 -0,204.719 C13.272,189.831 32.031,180.504 49.445,170.29 C84.161,149.905 121.267,129.564 159.444,112.512 C179.653,103.488 199.722,97.667 227.22,96.39 C257.36,94.984 293.113,95.178 316.668,103.055 C340.543,111.04 362.005,122.336 382.221,132.507 C414.101,148.542 444.104,165.659 473.331,184.183 C482.79,190.155 493.577,195.241 500,204.719" fill="#000000"/>
    <path d="M274.444,285.846 C272.352,315.233 270.551,344.901 268.333,374.18 C276.848,372.276 285.957,369.03 294.998,365.849 C303.708,362.776 312.851,357.193 322.225,359.183 C322.078,363.858 317.808,367.645 314.997,370.847 C293.872,394.932 271.363,420.77 249.444,444.726 C228.362,420.121 206.777,394.954 184.998,370.285 C182.328,367.255 177.541,363.988 177.777,359.183 C187.357,357.258 196.411,362.819 204.998,365.849 C213.907,368.986 222.883,371.713 231.665,374.721 C229.492,345.615 227.778,316.034 225.556,286.95 C225.53,285.998 225.967,285.522 226.666,285.284 C242.411,285.652 259.621,284.548 274.444,285.846" fill="#000000"/>
  </g>
</svg>
