<?xml version="1.0" encoding="UTF-8"?>
<!DOCTYPE svg PUBLIC "-//W3C//DTD SVG 1.1//EN" "http://www.w3.org/Graphics/SVG/1.1/DTD/svg11.dtd">
<svg version="1.1" xmlns="http://www.w3.org/2000/svg" xmlns:xlink="http://www.w3.org/1999/xlink" x="0" y="0" width="500" height="500" viewBox="0, 0, 500, 500">
  <g id="Layer_1">
    <path d="M348.705,281.865 L318.187,257.565 C329.119,251.036 337.876,243.057 343.057,234.197 L360.622,234.197 C358.031,245.544 352.798,256.788 345.078,266.321 C363.161,256.995 414.663,239.119 483.42,218.653 C411.554,197.098 360.518,179.43 345.078,170.984 C352.798,180.518 358.031,191.762 360.622,203.109 L345.181,203.109 C342.332,196.788 337.617,190.725 331.399,185.181 C339.793,163.731 355.233,139.223 375.648,112.435 C344.145,126.477 313.523,139.585 292.746,142.487 C299.482,145.078 303.627,147.15 306.218,151.813 L294.197,164.301 C284.611,161.036 274.301,158.705 263.731,157.668 L263.731,120.725 C273.161,120.777 280.881,125.803 292.746,132.124 C283.005,113.057 265.648,54.041 249.223,-0 C234.663,55.181 220.104,111.192 207.254,136.269 C218.135,128.964 228.86,121.917 236.269,121.244 L236.269,157.876 C225.907,159.067 215.803,161.503 206.321,164.87 L193.782,151.813 C196.373,147.15 200.518,145.078 207.254,142.487 C186.477,139.585 155.855,126.477 124.352,112.435 C145.026,139.534 160.57,164.404 168.912,186.01 C171.036,178.86 173.731,174.456 175.13,173.575 L179.845,177.927 C168.964,185.233 160.622,193.886 156.425,203.109 L139.378,203.109 C141.969,191.762 147.202,180.518 154.922,170.984 C139.482,179.43 88.446,197.098 16.58,218.653 C85.337,239.119 136.839,256.995 154.922,266.321 C147.202,256.788 141.969,245.544 139.378,234.197 L158.549,234.197 C163.627,242.798 172.073,250.518 182.539,256.943 L151.295,281.865 C148.601,280.881 146.062,273.264 143.523,266.321 C131.295,289.637 110.518,318.29 87.047,348.705 C124.301,333.679 160.829,319.171 181.865,316.062 C175.233,312.591 169.948,307.306 165.803,300.518 L206.684,268.135 C215.648,271.192 225.181,273.42 234.715,274.611 L234.715,358.031 C227.306,357.358 212.435,350.311 201.554,343.005 C214.404,368.083 234.663,444.819 249.223,500 C265.648,445.959 287.668,361.554 297.409,342.487 C285.544,348.808 271.088,358.497 261.658,358.549 L261.658,275.181 C272.642,274.249 283.627,271.969 293.886,268.549 L334.197,300.518 C330.052,307.306 324.767,312.591 318.135,316.062 C339.171,319.171 375.699,333.679 412.953,348.705 C389.482,318.29 368.705,289.637 356.477,266.321 C353.938,273.264 351.399,280.881 348.705,281.865 z M324.87,173.575 C326.166,174.404 328.549,178.238 330.622,184.456 C327.72,181.917 324.456,179.482 320.984,177.202 L324.87,173.575 z M248.394,255.44 C217.461,255.44 185.907,228.964 185.907,220.725 C185.907,212.487 217.461,186.01 248.394,186.01 C279.326,186.01 313.057,212.487 313.057,220.725 C313.057,227.254 279.326,255.44 248.394,255.44 z" fill="#000000"/>
    <path d="M249.223,189.637 C232.073,189.637 218.135,203.575 218.135,220.725 C218.135,237.876 232.073,251.813 249.223,251.813 C266.373,251.813 280.311,237.876 280.311,220.725 C280.311,203.575 266.373,189.637 249.223,189.637 z M249.223,244.56 C236.062,244.56 225.389,233.886 225.389,220.725 C225.389,207.565 236.062,196.891 249.223,196.891 C262.383,196.891 273.057,207.565 273.057,220.725 C273.057,233.886 262.383,244.56 249.223,244.56 z" fill="#000000"/>
  </g>
</svg>
