<?xml version="1.0" encoding="UTF-8"?>
<!DOCTYPE svg PUBLIC "-//W3C//DTD SVG 1.1//EN" "http://www.w3.org/Graphics/SVG/1.1/DTD/svg11.dtd">
<svg version="1.1" xmlns="http://www.w3.org/2000/svg" xmlns:xlink="http://www.w3.org/1999/xlink" x="0" y="0" width="500" height="500" viewBox="0, 0, 500, 500">
  <g id="layer101">
    <path d="M105.865,498.74 C101.297,497.789 96.348,495.885 94.826,494.743 C90.068,490.556 86.642,481.992 86.642,473.808 C86.642,467.146 85.309,464.482 79.029,457.63 C74.842,453.062 71.416,448.304 71.416,446.972 C71.416,445.449 73.7,441.072 76.364,437.075 C79.219,432.888 83.026,425.655 84.929,420.897 C86.642,416.139 92.161,402.436 96.919,390.635 C101.868,379.026 106.245,366.654 106.816,363.609 C108.148,357.138 103.581,348.383 98.632,348.383 C92.161,348.383 69.703,340.58 62.661,335.822 C55.428,330.873 54.857,330.873 43.818,333.157 C26.689,336.583 25.547,336.393 21.17,330.683 C16.602,324.402 16.221,312.031 20.408,303.276 C22.692,298.518 24.405,297.757 36.205,296.044 L49.528,294.14 L49.528,272.253 C49.528,259.121 48.386,246.94 46.864,241.801 C44.389,233.617 44.58,232.665 49.148,222.578 C57.332,205.258 57.712,201.071 50.67,193.268 C47.435,189.461 44.77,185.655 44.77,184.703 C44.77,183.752 49.909,176.9 56.19,169.287 C62.47,161.864 67.609,154.822 67.609,153.68 C67.609,152.538 74.842,144.164 83.787,135.028 C99.964,118.66 102.629,113.141 97.11,108.573 C94.064,105.909 92.542,106.67 80.742,116.567 C71.606,123.99 60.757,129.509 55.048,129.509 C50.861,129.509 41.154,118.851 36.967,109.525 C28.021,90.112 34.493,79.073 58.093,73.553 C78.648,68.605 82.264,66.321 84.738,56.614 C88.355,42.34 96.539,25.972 105.103,16.075 C112.716,7.32 114.81,5.988 126.61,3.133 C152.114,-2.958 172.478,-0.103 184.279,11.127 C188.656,15.314 191.511,16.265 198.934,16.265 C209.973,16.265 214.54,19.882 218.347,31.491 C220.821,38.914 221.011,39.104 231.479,40.246 C247.467,41.959 253.367,46.908 258.696,63.466 C259.457,65.75 261.741,66.702 266.309,66.702 C275.635,66.702 282.106,69.556 291.242,77.74 C295.619,81.547 305.706,88.779 313.7,93.728 C326.452,101.531 328.926,104.005 333.874,113.712 C343.01,131.983 346.436,132.744 352.717,118.089 C358.236,105.338 362.804,102.292 376.507,101.341 C387.165,100.58 389.64,101.341 401.63,107.431 C419.14,116.757 430.56,129.89 444.453,156.725 C456.825,180.706 473.573,228.859 475.857,246.559 C476.618,252.84 478.331,260.263 479.854,263.117 C483.09,269.208 483.47,294.711 480.425,301.182 C479.473,303.657 474.906,312.031 470.528,319.834 C463.867,331.635 461.012,334.87 453.97,338.486 C443.882,343.435 432.273,343.815 421.614,339.628 C408.292,334.299 388.307,309.557 373.843,281.008 C363.185,259.501 360.33,255.504 351.194,248.272 C340.916,240.088 334.255,236.853 316.935,232.285 C306.468,229.43 292.764,216.488 291.051,207.733 C290.1,203.546 288.767,201.833 286.674,202.213 C283.628,202.784 282.487,208.875 281.916,229.43 L281.725,238.946 L290.861,240.088 C300.948,241.23 302.851,243.133 304.755,253.22 C306.468,261.785 313.129,275.108 322.645,289.002 C326.832,294.902 330.258,301.182 330.258,302.895 C330.258,304.608 333.303,308.415 337.11,311.27 C344.723,317.17 351.004,329.16 351.194,338.106 C351.194,341.341 352.526,347.812 354.049,352.19 C355.572,356.567 356.904,362.087 356.904,364.371 C356.904,370.271 367.943,396.155 372.891,401.674 C381.075,410.81 385.643,420.136 385.072,427.178 C384.691,433.459 386.024,435.362 399.346,448.875 C416.285,465.814 419.14,473.237 412.479,481.611 C408.672,486.369 408.292,486.369 377.459,486.369 C338.062,486.179 325.31,483.705 313.7,473.617 C309.132,469.62 304.564,466.385 303.613,466.385 C301.329,466.385 294.477,447.352 292.383,435.362 C291.622,430.033 289.909,421.658 288.577,416.9 C287.435,412.142 285.151,401.484 283.438,393.11 C279.251,372.364 277.538,368.367 274.112,371.222 C272.59,372.364 270.496,376.551 269.164,380.358 C268.022,384.164 264.977,390.445 262.312,394.252 C256.793,402.626 246.705,428.13 244.802,438.788 C243.089,448.494 239.473,454.965 236.047,454.965 C234.715,454.965 231.67,452.491 229.576,449.446 C224.057,441.833 214.16,438.407 193.414,436.885 C172.669,435.172 172.288,435.362 172.288,451.54 C172.288,460.675 171.527,462.769 167.53,466.004 C164.865,468.098 162.772,471.524 162.772,473.617 C162.772,479.708 154.588,487.892 142.788,493.792 C130.988,499.882 118.997,501.405 105.865,498.74 z M197.792,383.593 C200.647,379.216 200.647,378.645 197.982,377.693 C196.269,376.932 194.747,376.742 194.556,377.122 C194.366,377.503 192.082,380.168 189.608,383.022 C184.659,388.732 185.611,393.3 191.13,390.255 C193.034,389.303 196.079,386.258 197.792,383.593 z M270.877,358.661 C274.683,357.519 273.541,347.432 268.593,340.39 C266.119,336.773 263.264,331.254 262.312,328.209 C260.599,323.26 259.267,322.499 250.702,321.547 C245.373,320.786 238.141,318.502 234.715,316.409 C231.289,314.315 224.437,312.031 219.489,311.27 L210.353,309.937 L210.353,316.218 C210.353,319.834 208.26,326.115 205.595,330.302 C200.076,339.438 199.885,342.102 204.072,346.861 C206.166,349.335 209.782,350.286 216.634,350.286 C221.773,350.286 229.386,351.238 233.383,352.57 C239.854,354.474 241.376,354.283 244.421,351.428 C248.989,347.241 254.889,348.193 255.651,353.141 C257.173,362.087 258.315,362.658 270.877,358.661 z" fill="#000000"/>
  </g>
</svg>
