<?xml version="1.0" encoding="UTF-8"?>
<!DOCTYPE svg PUBLIC "-//W3C//DTD SVG 1.1//EN" "http://www.w3.org/Graphics/SVG/1.1/DTD/svg11.dtd">
<svg version="1.1" xmlns="http://www.w3.org/2000/svg" xmlns:xlink="http://www.w3.org/1999/xlink" x="0" y="0" width="500" height="500" viewBox="0, 0, 500, 500">
  <g id="layer101">
    <path d="M206.568,499.452 C187.049,497.059 177.934,482.328 186.036,466.4 C186.957,464.651 190.824,459.679 194.691,455.352 C202.609,446.421 203.713,443.107 199.018,441.45 C194.046,439.7 191.837,433.624 190.18,417.696 C189.443,410.054 187.97,400.295 186.865,396.152 C185.852,392.009 184.84,385.472 184.84,381.605 C184.655,374.885 184.748,374.424 188.338,369.176 L192.021,363.744 L192.297,353.064 C192.573,344.686 192.297,341.648 191.1,338.794 C187.325,329.863 174.988,296.443 174.988,295.154 C174.988,294.325 174.344,291.471 173.607,288.893 C172.41,285.118 170.753,282.633 165.874,277.661 C162.375,274.162 158.416,270.848 157.035,270.296 C152.8,268.638 147.46,269.283 140.923,272.137 C136.044,274.254 129.691,275.728 111.922,278.582 C99.401,280.607 88.721,282.541 88.26,282.817 C87.8,283.093 84.209,283.922 80.343,284.474 C75.555,285.303 73.345,286.039 73.53,286.776 C73.622,287.42 73.253,288.525 72.701,289.261 C72.056,289.998 71.872,290.827 72.149,291.195 C72.517,291.471 72.333,292.484 71.872,293.405 C71.32,294.325 70.768,296.443 70.583,298.1 C70.307,299.757 70.123,301.138 70.031,301.138 C69.939,301.138 68.466,307.399 66.717,314.948 C64.967,322.59 63.402,329.587 63.126,330.6 C62.758,331.613 62.389,333.27 62.205,334.283 C62.021,335.295 61.561,337.137 61.192,338.426 C59.811,343.029 60.272,348.921 62.205,351.039 C65.888,355.09 66.348,355.827 65.98,358.681 C65.612,361.811 63.955,363.652 58.983,366.414 C54.011,369.176 52.998,371.202 52.906,378.475 C52.906,385.38 52.354,387.222 50.144,387.222 C49.408,387.222 48.855,387.59 48.855,388.05 C48.855,388.971 42.779,390.352 38.728,390.444 C37.439,390.444 35.045,389.984 33.48,389.339 C31.823,388.695 30.442,388.511 30.442,388.879 C30.35,389.247 29.797,388.234 29.153,386.669 C27.496,382.987 27.864,374.332 29.889,368.624 C31.455,363.744 31.455,363.284 27.312,353.893 C25.931,350.763 25.931,350.118 27.127,347.725 C27.956,346.251 29.153,344.87 29.982,344.502 C31.915,343.766 33.296,340.083 34.585,332.441 C34.861,330.968 35.321,328.667 35.506,327.378 C35.782,326.089 36.242,323.603 36.518,321.853 C37.163,317.526 37.439,316.237 38.083,313.567 C38.728,311.266 39.188,308.504 40.201,302.519 C40.477,300.77 41.122,297.64 41.582,295.614 C42.687,290.458 42.687,290.55 39.741,290.55 C37.899,290.55 35.414,289.169 31.915,286.315 C25.194,283.829 25.194,282.448 25.838,280.883 C26.299,279.594 26.759,276.28 26.759,273.61 C26.759,269.927 27.864,266.06 31.731,256.762 C39.741,237.427 39.649,237.611 50.236,233.468 C55.484,231.443 58.062,229.97 58.338,228.773 C58.891,226.655 57.418,220.855 55.668,218.277 C53.459,215.147 54.011,208.518 56.681,205.572 C57.97,204.191 59.443,203.086 59.904,203.086 C60.548,203.086 61.561,199.956 62.297,195.721 C62.389,194.984 62.758,193.419 62.942,192.314 C63.218,191.301 63.77,188.355 64.139,185.869 C64.415,183.476 64.967,180.621 65.151,179.609 C65.428,178.596 65.704,176.939 65.888,175.926 C66.717,170.954 67.361,167.272 68.19,163.036 C68.742,160.551 69.387,156.96 69.663,155.211 C70.215,151.712 70.583,149.779 71.412,145.544 C71.78,144.071 72.149,141.953 72.333,140.94 C72.517,139.927 72.885,138.178 73.069,137.073 C73.345,136.061 73.898,133.114 74.266,130.629 C74.542,128.235 75.003,125.381 75.279,124.368 C75.463,123.355 75.831,120.869 76.107,118.844 C76.384,116.818 76.844,114.517 77.12,113.78 C77.396,113.044 77.765,111.202 78.041,109.637 C78.317,108.164 78.777,105.218 79.146,103.192 C79.974,98.129 79.514,96.471 76.66,94.998 C72.609,92.973 68.834,93.617 67.453,96.656 C66.717,98.037 66.072,99.694 65.98,100.338 C65.888,100.891 65.612,101.811 65.336,102.272 C64.691,103.284 63.494,107.52 63.034,110.558 C62.205,115.161 61.929,116.082 61.745,116.082 C61.653,116.082 61.377,116.911 61.192,117.923 C60.272,123.724 59.719,127.406 59.443,129.892 C59.259,131.457 58.799,133.943 58.523,135.416 C58.246,136.981 58.062,140.02 58.062,142.321 C58.338,151.16 58.246,157.789 57.694,163.497 C56.589,175.097 56.589,175.097 52.998,174.177 C51.157,173.716 49.868,171.875 46.554,164.878 C44.252,160.09 42.411,155.855 42.411,155.487 C42.411,155.119 41.582,154.014 40.569,152.909 C39.557,151.804 37.255,147.569 35.506,143.426 C33.756,139.283 30.902,132.562 29.153,128.511 C27.404,124.368 25.654,119.857 25.378,118.292 C24.734,115.53 24.734,115.53 22.34,117.003 L19.854,118.476 L22.34,116.358 L24.826,114.241 L22.524,103.192 C21.327,97.116 19.854,86.528 19.394,79.715 C18.473,66.549 18.105,63.972 16.448,55.501 C15.251,48.964 16.079,36.904 18.013,33.957 C19.578,31.564 21.051,31.195 29.982,30.551 C33.572,30.367 37.715,29.906 39.188,29.63 C40.753,29.446 44.62,28.802 47.935,28.249 C65.796,25.303 89.549,20.792 91.115,19.871 C92.219,19.319 93.048,18.306 93.048,17.569 C93.048,16.833 93.508,16.188 94.061,16.188 C94.521,16.188 94.705,15.728 94.337,15.084 C93.969,14.439 94.061,14.347 94.705,14.715 C95.35,15.084 96.454,13.795 97.559,11.401 C101.058,3.667 105.293,1.181 116.709,0.076 C120.024,-0.2 120.945,0.169 123.799,2.931 C127.297,6.337 128.586,11.125 127.573,17.109 C126.469,23.646 126.469,25.855 127.85,27.973 C128.586,29.078 129.875,29.999 130.796,29.999 C131.716,29.999 133.742,31.195 135.307,32.668 C138.069,35.246 138.161,35.707 138.161,42.612 C138.161,46.571 137.517,52.095 136.78,54.857 C136.044,57.711 135.399,63.972 135.399,69.035 C135.399,77.782 135.307,78.334 132.913,80.82 C131.532,82.201 130.335,84.134 130.151,85.055 C129.231,89.382 128.862,91.5 128.586,94.446 C128.126,100.43 124.719,104.481 121.129,103.653 C119.379,103.192 105.201,105.034 104.372,105.77 C104.188,106.047 103.82,107.612 103.636,109.269 C103.36,111.018 102.991,113.504 102.623,114.977 C102.347,116.358 101.979,118.844 101.794,120.501 C101.61,122.066 101.242,124.92 100.966,126.67 C99.861,133.575 98.48,142.597 98.112,146.004 C97.928,147.293 97.743,148.306 97.651,148.306 C97.467,148.306 97.283,149.318 97.191,150.607 C97.007,151.896 96.639,154.382 96.362,156.131 C95.258,162.944 94.797,165.891 94.429,168.561 C94.061,171.875 93.048,178.044 92.588,180.529 C92.403,181.542 91.943,183.936 91.667,185.777 C91.391,187.619 90.654,191.762 90.01,194.984 C89.365,198.206 88.813,204.743 88.905,209.531 C88.997,215.975 88.721,218.645 87.708,219.842 C86.971,220.671 86.603,221.96 86.879,222.604 C87.064,223.249 86.971,224.446 86.511,225.274 C85.775,226.655 86.695,226.747 95.626,226.379 C102.439,226.103 106.49,225.458 108.699,224.354 C110.449,223.433 113.395,222.236 115.236,221.592 L118.551,220.487 L119.103,204.651 C119.656,187.711 120.3,184.857 125.456,173.9 C127.573,169.481 130.704,165.614 138.345,157.973 C149.946,146.372 151.419,145.636 168.083,144.071 C173.607,143.518 178.763,142.69 179.316,142.137 C180.789,140.94 180.881,138.086 179.5,137.165 C177.29,135.876 175.633,129.524 174.988,119.765 C174.436,111.11 174.62,108.901 176.093,104.666 C177.014,101.903 177.75,99.049 177.75,98.313 C177.75,97.484 178.579,95.183 179.592,93.065 C181.709,88.738 191.1,81.925 196.808,80.544 C200.951,79.623 209.974,80.82 215.038,82.845 C216.971,83.674 219.089,84.226 219.733,83.95 C220.378,83.674 220.93,80.912 221.206,77.137 C221.391,73.362 222.127,70.048 222.864,69.127 C223.6,68.207 227.467,65.997 231.334,64.248 C237.042,61.762 238.699,60.473 239.896,57.987 C240.633,56.33 241.83,54.581 242.474,54.212 C244.039,53.292 277.92,51.266 294.308,51.266 C307.198,51.174 308.487,51.358 312.261,53.292 C314.471,54.489 317.417,55.777 318.706,56.054 C320.455,56.514 321.284,57.435 321.744,59.46 C322.021,61.209 323.033,62.591 324.322,63.143 C325.519,63.603 327.545,64.892 328.834,66.089 C331.043,68.115 331.78,70.416 334.726,83.674 L335.278,86.344 L338.317,84.503 C339.974,83.582 343.472,82.017 346.234,81.096 C350.562,79.623 352.035,79.623 359.032,80.544 C365.385,81.464 368.147,82.385 373.026,85.239 C378.458,88.462 379.471,89.566 382.693,95.551 L386.284,102.272 L386.192,113.78 C386.1,129.8 383.522,138.639 378.734,138.639 C378.09,138.639 377.538,139.191 377.538,139.927 C377.538,140.756 379.379,141.308 383.982,141.585 C389.414,142.045 391.256,142.597 395.307,145.267 C403.961,151.068 409.393,156.776 413.536,164.233 C415.654,168.1 419.336,173.993 421.73,177.307 C427.346,184.857 432.686,197.93 433.699,206.308 C434.896,215.975 435.724,252.895 434.804,256.025 C434.067,258.695 433.791,258.787 426.518,259.616 C421.27,260.076 418.968,260.72 418.968,261.549 C418.968,262.286 422.743,266.245 427.254,270.388 C431.858,274.531 435.54,278.49 435.54,279.042 C435.54,281.344 455.335,309.701 460.03,314.028 C464.265,317.987 465.646,320.196 469.421,329.219 C473.933,339.623 474.025,339.991 474.577,352.236 C475.221,364.665 476.142,367.887 479.272,367.887 C479.917,367.887 481.114,368.624 481.942,369.637 C486.178,374.332 483.876,385.749 477.891,389.523 C473.656,392.193 472.736,394.771 471.815,406.464 C471.355,413.737 470.894,415.486 469.145,417.144 C467.304,419.077 460.03,421.287 455.887,421.287 C453.401,421.287 440.144,411.343 439.131,408.673 C438.671,407.477 438.302,404.162 438.302,401.4 C438.302,395.232 436.553,391.549 432.778,389.984 C429.003,388.419 427.254,385.749 427.254,381.421 C427.254,379.028 426.149,375.897 424.032,372.122 C422.283,368.9 420.809,365.678 420.809,364.941 C420.809,364.205 419.889,362.363 418.876,360.982 C417.035,358.773 416.482,358.589 412.799,359.141 L408.749,359.693 L400.186,351.315 C391.44,342.753 386.744,335.664 386.744,330.968 C386.744,327.654 384.995,326.457 380.392,326.641 C375.788,326.825 373.026,324.523 367.41,315.777 C359.953,304.361 357.283,290.919 360.873,283.001 C363.267,277.661 363.267,277.201 360.781,275.451 C359.308,274.346 356.454,273.978 350.378,273.978 C341.539,273.978 339.79,273.334 339.79,269.743 C339.79,268.638 339.053,266.797 338.133,265.692 C336.015,263.022 332.977,263.851 331.78,267.349 C325.98,283.737 325.98,283.645 331.043,294.601 C332.608,298.192 335.002,303.44 336.199,306.202 C337.396,308.964 340.158,313.844 342.276,316.974 C349.733,327.93 350.193,329.403 350.93,342.569 C351.574,355.919 352.771,359.693 360.229,371.018 C362.438,374.332 365.661,379.396 367.41,382.25 C369.988,386.485 371.553,387.866 375.236,389.523 C380.484,391.825 381.957,394.219 382.785,401.124 C383.522,407.2 381.404,425.982 379.195,433.071 C376.893,440.529 370.725,447.71 366.213,448.171 C363.543,448.447 363.267,448.723 363.635,451.209 C363.819,452.774 363.911,458.942 363.819,464.927 C363.819,474.41 363.451,476.527 361.702,480.118 C358.848,485.642 355.717,487.76 349.457,488.312 C343.012,488.865 331.135,487.023 326.9,484.814 C322.573,482.512 317.233,476.896 315.392,472.384 C311.985,464.282 309.407,455.72 309.407,452.406 C309.407,449.091 309.223,448.907 306.645,448.907 C301.674,448.907 298.359,446.421 295.781,440.805 C294.492,437.951 292.467,433.992 291.178,432.151 C289.521,429.573 288.692,426.627 288.14,420.642 C287.035,410.423 286.022,407.937 282.247,406.188 C278.38,404.346 275.895,404.346 274.329,406.188 C273.409,407.384 273.501,408.766 274.882,414.013 C276.999,422.207 276.355,433.9 273.501,440.345 C271.291,445.409 267.424,449.828 265.215,449.828 C262.913,449.828 261.532,451.761 261.532,454.891 C261.532,456.457 260.98,458.482 260.335,459.495 C259.691,460.508 257.757,464.651 256.1,468.61 C253.246,475.607 249.747,480.21 238.055,492.639 C232.347,498.716 220.654,501.202 206.568,499.452 z" fill="#000000"/>
  </g>
</svg>
