<?xml version="1.0" encoding="UTF-8"?>
<!DOCTYPE svg PUBLIC "-//W3C//DTD SVG 1.1//EN" "http://www.w3.org/Graphics/SVG/1.1/DTD/svg11.dtd">
<svg version="1.1" xmlns="http://www.w3.org/2000/svg" xmlns:xlink="http://www.w3.org/1999/xlink" x="0" y="0" width="500" height="500" viewBox="0, 0, 500, 500">
  <g id="Layer_1">
    <path d="M471.321,170.209 C466.7,170.209 462.079,170.042 457.459,170.265 C453.172,170.487 448.996,171.545 445.545,174.329 C442.316,176.834 442.26,178.504 445.6,180.787 C449.275,183.348 453.06,185.63 456.846,187.969 C478.892,201.775 492.866,221.483 499.881,246.369 C499.992,246.814 500.104,247.204 499.825,247.872 C499.269,247.204 498.712,246.536 498.155,245.868 C490.695,237.127 482.233,229.556 472.156,223.877 C468.259,221.706 464.251,219.813 459.463,220.203 C459.407,220.593 459.296,220.871 459.407,221.038 C469.372,248.206 474.995,276.321 476.61,305.215 C477.055,312.73 476.666,320.246 474.606,327.595 C473.325,332.16 471.655,334.777 468.76,336.725 C467.424,329.933 465.976,323.197 461.801,317.574 C457.681,311.951 452.17,307.943 446.268,304.491 C442.483,335.668 434.02,365.063 417.875,391.897 C417.541,391.841 417.207,391.841 416.873,391.785 C416.539,391.117 416.15,390.449 415.816,389.725 C414.09,386.274 412.531,382.655 410.527,379.315 C409.413,377.478 407.799,375.752 406.073,374.416 C402.677,371.855 400.84,372.523 398.78,376.253 C384.639,402.14 368.438,426.636 349.343,449.072 C346.893,451.912 343.998,454.417 341.326,457.089 C341.048,456.978 340.769,456.922 340.491,456.811 C340.324,454.695 340.212,452.524 339.99,450.408 C339.6,445.342 339.322,440.22 338.654,435.21 C338.153,431.591 336.872,428.084 333.532,426.024 C332.752,425.523 331.026,425.467 330.47,426.024 C312.042,442.948 289.439,451.243 265.945,457.757 C245.569,463.436 224.803,467.333 203.926,470.785 C203.537,470.84 203.091,470.785 202.646,470.785 C202.701,470.562 202.646,470.451 202.701,470.395 C224.97,457.534 240.893,438.272 255.089,417.45 C259.543,410.937 263.217,403.978 267.17,397.13 C268.284,395.237 269.063,393.121 269.787,391.006 C270.956,387.443 268.451,384.325 264.721,384.882 C262.494,385.216 260.155,385.995 258.263,387.22 C254.031,389.892 250.079,392.954 246.015,395.849 C244.623,396.852 243.231,397.965 241.282,399.468 C241.394,398.021 241.394,397.241 241.561,396.518 C241.784,395.738 242.062,394.903 242.452,394.179 C252.807,375.418 258.43,354.93 264.776,334.665 C266.391,329.488 268.506,324.422 270.511,318.91 C279.307,323.865 286.934,329.599 292.779,337.171 C298.569,344.631 303.58,352.648 309.092,360.664 C310.817,359.106 312.933,357.435 314.77,355.543 C327.408,342.905 336.427,327.818 343.664,311.617 C344.165,310.448 345.334,309.613 346.169,308.611 C347.728,306.885 349.621,305.437 350.734,303.489 C357.248,292.299 361.145,280.162 362.76,267.357 C362.871,266.467 363.094,265.52 363.595,264.797 C371.946,251.936 374.395,238.185 370.109,223.321 C369.774,222.096 369.607,220.815 369.273,219.034 C370.665,219.59 371.612,219.98 372.558,220.37 C375.23,221.316 376.344,220.648 376.288,217.865 C376.177,207.12 376.4,196.319 375.676,185.63 C375.119,176.945 373.616,168.316 371.946,159.798 C371.111,155.623 368.939,151.726 367.269,147.328 C387.033,139.812 406.518,130.236 428.565,130.292 C428.676,130.626 428.843,130.96 428.954,131.294 C427.507,132.24 426.004,133.131 424.668,134.189 C421.606,136.583 418.488,138.977 415.649,141.538 C414.479,142.596 413.533,144.154 412.865,145.658 C411.362,149.109 412.42,151.614 416.094,152.394 C420.77,153.396 425.614,154.008 430.346,154.732 C444.431,156.903 457.626,161.58 470.096,168.483 C470.542,168.762 470.987,169.04 471.432,169.318 C471.432,169.541 471.377,169.875 471.321,170.209 z" fill="#000000"/>
    <path d="M357.471,135.525 C351.347,115.038 342.05,96.165 327.797,80.02 C327.129,79.24 326.517,78.35 325.905,77.514 C324.902,80.632 324.624,83.193 324.179,85.698 C323.733,88.148 323.177,90.597 322.509,92.991 C321.841,95.385 321.061,97.724 320.115,100.897 C314.158,69.164 292.557,49.456 270.399,29.191 C269.731,31.585 269.23,33.366 268.785,34.925 C266.224,33.366 263.718,31.863 260.879,30.137 C260.824,31.195 260.768,31.473 260.824,31.752 C261.269,33.923 261.77,36.094 262.271,38.265 C266.224,56.359 269.119,74.564 268.061,93.158 C267.783,97.835 267.059,102.567 266.168,107.188 C263.663,120.104 256.314,129.512 245.124,136.193 C235.103,142.15 224.358,146.493 213.335,150.167 C194.685,156.402 175.923,162.248 157.328,168.595 C145.916,172.492 134.837,177.335 124.927,184.35 C121.086,187.078 117.634,190.307 113.96,193.313 C114.628,194.148 114.85,194.538 115.129,194.872 C117.745,198.212 117.133,200.105 113.013,201.219 C110.508,201.887 107.891,202.109 105.33,202.499 C101.767,203.056 97.982,203.056 94.697,204.281 C78.218,210.46 61.683,216.584 45.482,223.432 C33.123,228.665 21.154,234.9 9.184,240.913 C6.456,242.305 4.118,244.587 1.78,246.703 C-0.169,248.484 -0.726,250.878 1.167,252.883 C3.227,255.054 5.677,256.891 8.126,258.561 C11.355,260.788 15.085,262.458 18.092,265.019 C21.321,267.747 24.049,271.087 26.832,274.316 C34.292,283.001 42.588,290.851 52.33,296.975 C64.133,304.324 76.269,311.116 88.239,318.186 C88.684,318.465 89.185,318.576 90.076,318.91 C89.686,317.463 89.297,316.461 89.074,315.403 C88.35,311.951 87.348,308.555 87.07,305.048 C86.624,299.592 89.185,297.421 94.53,298.59 C97.759,299.313 100.932,300.427 104.161,301.373 C106.945,302.208 109.784,302.988 112.957,303.934 C112.679,302.654 112.568,301.986 112.401,301.262 C111.9,298.979 111.232,296.753 111.009,294.47 C110.508,290.016 112.011,288.624 116.465,289.459 C119.081,289.96 121.642,290.851 124.203,291.631 C127.599,292.688 130.995,293.858 134.28,294.971 C134.28,291.519 134.057,288.402 134.336,285.284 C134.614,281.777 136.284,280.83 139.68,281.944 C141.183,282.445 142.631,283.113 144.078,283.669 C146.472,284.616 148.866,285.562 151.316,286.564 L151.316,263.349 C161.671,278.603 169.855,294.693 186.278,304.157 C183.94,305.103 184.831,304.992 180.934,305.27 C173.975,305.827 167.015,303.6 161.671,299.091 C160.502,298.089 159.277,297.031 157.885,295.917 C157.495,300.872 157.217,305.326 156.716,309.724 C156.159,314.846 154.266,316.349 149.256,315.069 C144.691,313.955 140.181,312.341 135.672,310.949 C134.614,310.615 133.556,310.281 131.942,309.724 C133.222,311.84 134.169,313.176 134.948,314.679 C135.728,316.126 136.563,317.63 137.119,319.188 C138.957,324.255 137.008,327.038 131.719,326.259 C127.432,325.646 123.257,324.31 119.137,322.974 C116.075,322.028 113.18,320.58 109.561,319.133 C113.292,325.257 114.739,331.214 114.683,337.672 C114.683,338.284 115.685,339.175 116.354,339.453 C126.597,343.796 136.785,348.305 147.196,352.202 C161.504,357.602 163.285,357.435 176.814,350.142 C188.728,343.684 200.419,336.892 212.277,330.379 C224.469,323.698 236.773,317.073 250.413,313.677 C269.174,309 285.486,313.287 297.957,328.541 C302.856,334.554 306.475,341.569 310.595,348.082 C311.096,348.918 311.541,349.808 311.986,350.643 C314.547,346.245 316.886,342.07 319.391,337.95 C322.843,332.327 326.517,326.871 329.913,321.248 C333.476,315.347 336.093,309 337.317,302.153 C337.596,300.538 337.763,298.924 338.041,297.142 C339.433,297.81 340.546,298.367 341.604,298.868 C341.938,298.534 342.161,298.478 342.217,298.311 C348.229,285.618 353.462,272.646 355.467,258.561 C355.467,258.45 355.522,258.339 355.578,258.227 C356.97,254.998 359.698,251.992 360.255,248.652 C361.813,239.744 362.648,230.669 363.651,221.65 C363.762,220.704 363.149,219.59 362.593,218.644 C360.867,215.749 359.586,212.743 359.642,208.901 C361.479,210.349 362.927,211.462 364.931,213.077 C365.321,208.846 365.822,205.283 365.933,201.72 C366.88,179.172 363.929,157.126 357.471,135.525 z M58.009,251.936 C55.726,248.484 58.287,244.754 61.572,244.81 C64.021,244.81 65.97,246.814 65.97,249.208 C65.914,252.771 61.405,255.555 58.009,251.936 z M78.886,252.549 C74.321,255.889 69.143,250.6 72.595,246.091 C77.271,242.193 82.95,247.983 78.886,252.549 z M75.824,241.08 C72.484,241.08 70.145,237.517 72.317,233.898 C75.88,230.502 80.333,233.23 80.278,236.738 C80.278,239.132 78.274,241.08 75.824,241.08 z M89.13,253.606 C85.734,253.495 83.228,249.431 86.068,245.979 C89.631,243.084 93.751,245.868 93.639,249.264 C93.639,251.658 91.524,253.718 89.13,253.606 z M89.241,241.08 C86.791,241.08 84.843,239.132 84.899,236.682 C84.899,234.232 86.903,232.339 89.352,232.339 C91.746,232.339 93.751,234.399 93.751,236.738 C93.639,239.187 91.635,241.08 89.241,241.08 z M154.322,218.366 C153.877,218.811 152.986,219.201 152.429,219.089 C146.027,217.753 139.625,216.306 133.167,214.357 C147.753,207.844 162.283,201.274 176.869,194.761 C169.354,202.61 161.894,210.516 154.322,218.366 z" fill="#000000"/>
  </g>
</svg>
