<?xml version="1.0" encoding="UTF-8"?>
<!DOCTYPE svg PUBLIC "-//W3C//DTD SVG 1.1//EN" "http://www.w3.org/Graphics/SVG/1.1/DTD/svg11.dtd">
<svg version="1.1" xmlns="http://www.w3.org/2000/svg" xmlns:xlink="http://www.w3.org/1999/xlink" x="0" y="0" width="500" height="500" viewBox="0, 0, 500, 500">
  <g id="layer101">
    <path d="M177.2,499.307 C163.692,497.491 159.606,493.064 159.606,480.351 C159.606,473.086 159.947,471.838 164.828,463.552 C167.665,458.671 169.708,453.903 169.368,452.995 C169.027,452.087 167.325,450.612 165.622,449.93 C163.919,449.136 161.536,447.887 160.401,446.979 C158.585,445.39 158.585,445.163 160.741,443.688 C162.557,442.439 163.011,440.85 163.011,435.855 C163.011,431.202 163.465,429.499 164.828,428.931 C167.211,428.023 170.957,419.17 170.957,414.289 C170.957,411.224 171.638,409.975 174.362,408.273 C176.519,407.024 180.038,402.37 183.443,396.354 C186.621,391.019 191.162,384.776 193.545,382.506 C199.334,377.398 202.172,369.453 201.15,361.28 C200.356,354.583 201.945,350.837 206.258,348.794 C208.074,347.886 211.139,343.232 215.339,334.946 C218.744,328.135 223.739,319.168 226.349,315.195 C228.96,311.223 231.117,307.25 231.117,306.342 C231.117,305.547 231.911,303.504 232.933,302.028 C234.408,299.758 234.522,298.85 233.387,297.488 C231.571,295.218 229.982,296.353 229.982,299.985 C229.982,303.958 225.782,309.407 222.717,309.407 C221.355,309.407 219.652,309.974 218.858,310.769 C217.836,311.79 216.928,311.563 214.885,309.634 C211.593,306.455 210.912,306.455 208.188,309.974 C206.939,311.563 205.237,312.812 204.442,312.812 C201.831,312.812 199.334,317.579 199.561,322.12 C199.675,324.503 198.994,327.114 198.199,328.135 C195.929,330.86 182.081,339.6 178.676,340.394 C177.087,340.848 174.249,343.005 172.546,345.275 C165.509,354.129 160.968,358.215 158.358,358.215 C152.001,358.329 151.774,359.918 155.974,372.404 C160.855,386.593 163.352,400.441 162.784,410.656 C162.33,419.624 161.876,420.986 157.449,428.477 C152.228,437.331 149.844,438.466 145.191,434.039 C142.92,431.883 142.126,431.769 138.493,432.904 C134.975,433.926 134.18,433.812 132.251,431.883 C129.526,429.158 129.413,422.461 132.023,414.175 C133.613,409.294 133.726,407.592 132.591,405.889 C131.796,404.64 131.229,402.484 131.229,401.122 C131.229,399.646 129.867,396.468 128.391,393.971 C126.802,391.473 125.553,388.295 125.553,386.933 C125.553,384.549 122.716,382.052 119.992,382.052 C119.31,382.052 115.565,384.89 111.819,388.409 C106.484,393.403 104.327,394.538 102.511,394.084 C101.149,393.63 97.176,392.836 93.771,392.154 C90.366,391.473 84.917,390.225 81.739,389.317 C78.561,388.409 74.134,387.728 71.977,387.728 C64.94,387.728 59.378,380.69 61.421,374.22 C61.761,373.085 65.167,369.68 69.026,366.728 L75.95,361.28 L75.156,353.788 L74.474,346.297 L84.123,336.989 C89.458,331.881 94.793,327.341 96.041,327 C99.106,325.979 101.944,321.552 101.036,319.168 C99.673,315.65 101.603,312.244 105.916,310.201 C108.3,309.066 112.159,307.136 114.43,305.888 C117.04,304.526 119.765,303.958 121.808,304.412 C124.532,304.98 126.235,304.185 130.888,300.553 C134.861,297.375 137.926,295.785 140.991,295.558 L145.418,295.218 L145.077,289.769 C144.85,285.797 145.531,282.959 147.688,278.646 C150.298,273.424 150.412,272.403 149.163,268.997 C148.028,265.706 148.142,264.571 150.412,259.576 C152.796,254.695 153.023,252.993 152.342,245.955 C151.547,237.782 151.888,236.193 157.79,225.41 C158.585,223.821 160.174,220.643 161.309,218.372 C162.898,214.967 164.941,213.265 171.298,210.086 C175.724,207.816 180.946,204.524 183.102,202.708 C185.146,200.892 189.005,198.849 191.616,198.168 C197.745,196.692 204.896,193.627 206.712,191.698 C207.734,190.676 207.847,189.087 207.053,185.455 C205.237,177.736 207.734,173.196 214.885,170.699 C220.56,168.656 227.144,164.342 226.122,163.321 C225.782,162.98 224.193,163.775 222.49,165.137 C217.836,168.769 207.053,168.429 194.794,164.229 C189.459,162.413 181.627,160.142 177.314,159.121 C160.514,155.261 149.958,147.997 145.985,137.327 C143.261,129.949 142.92,122.344 145.418,121.436 C146.326,121.095 148.709,122.117 150.639,123.706 C152.569,125.295 155.179,126.657 156.655,126.657 C158.017,126.657 162.444,128.36 166.417,130.517 C172.546,133.808 175.838,134.716 185.486,135.738 C196.837,136.987 197.291,136.987 203.421,134.149 C206.826,132.56 211.253,130.176 213.182,128.814 C216.247,126.544 216.474,125.863 215.907,122.117 C215.225,117.804 215.225,117.804 220.22,116.555 C223.966,115.647 226.349,114.058 229.755,109.858 C233.614,105.318 235.771,103.955 243.035,101.345 L251.662,98.28 L257.564,101.345 C260.856,102.934 264.602,105.318 265.964,106.566 C267.326,107.815 269.71,109.404 271.072,110.085 C272.547,110.766 275.045,114.058 276.861,117.463 C280.493,124.728 281.061,135.397 278.223,142.321 C275.385,148.905 276.634,151.175 283.217,151.97 C291.957,152.991 299.563,157.532 301.606,162.64 C302.173,164.115 303.422,165.25 304.33,165.25 C305.352,165.25 308.53,166.612 311.367,168.201 C316.135,171.039 317.043,171.153 326.124,170.472 C332.821,170.018 337.021,168.996 339.518,167.52 C341.901,166.045 344.966,165.364 348.712,165.364 C353.366,165.477 354.841,166.045 358.02,168.996 C361.538,172.401 361.879,172.515 364.717,170.926 C366.419,169.904 368.122,167.974 368.576,166.385 C369.938,161.391 369.711,151.062 368.008,148.791 C367.214,147.543 366.192,144.251 365.852,141.527 C365.511,138.576 364.149,135.511 362.447,133.581 C359.041,129.949 356.544,125.068 355.409,119.96 C354.274,114.852 349.393,108.155 342.242,102.139 C336.226,96.918 335.772,96.804 325.329,99.529 C319.086,101.118 318.519,100.891 318.519,96.804 C318.519,94.534 317.156,90.902 315.113,87.724 C313.297,84.772 311.708,81.708 311.708,81.027 C311.708,80.346 314.773,76.486 318.632,72.514 C327.145,63.319 328.28,60.822 325.783,55.601 C324.762,53.444 323.967,50.493 323.967,48.904 C323.967,46.974 323.172,46.066 321.47,45.839 C319.427,45.498 318.632,43.455 315.454,30.175 C311.254,12.808 311.027,9.97 313.411,9.062 C315.681,8.154 318.519,10.197 328.848,20.186 C337.588,28.586 341.22,33.807 341.22,38.12 C341.22,39.823 341.901,40.391 344.058,40.391 C346.442,40.391 347.35,39.482 349.052,35.51 C350.188,32.899 351.89,30.061 352.912,29.267 C353.933,28.359 355.295,25.975 355.977,23.932 C356.658,21.889 358.474,19.278 360.063,18.37 C361.538,17.348 362.787,15.873 362.787,14.965 C362.787,14.17 365.852,10.311 369.598,6.338 C376.295,-0.473 376.635,-0.7 379.813,0.662 C382.197,1.684 384.127,1.684 386.51,0.889 C389.689,-0.246 390.143,-0.019 392.299,3.046 C394.115,5.543 395.591,6.338 398.429,6.338 C402.969,6.338 403.877,7.132 402.175,9.857 C401.153,11.446 401.267,12.354 402.856,14.056 C403.877,15.192 404.785,17.462 404.785,19.051 C404.785,20.64 405.807,22.797 407.055,23.932 C408.304,25.067 409.326,27.337 409.326,29.04 C409.326,30.742 410.347,33.012 411.596,34.148 C412.844,35.283 413.866,37.553 413.866,39.255 C413.866,40.958 414.888,43.228 416.25,44.477 C417.952,46.066 418.406,47.428 417.952,49.925 C417.498,52.309 417.839,53.898 419.428,55.601 C421.017,57.417 421.698,60.482 422.266,67.746 C422.947,77.394 422.833,77.621 419.882,80.232 C418.293,81.708 415.115,84.886 412.844,87.156 C409.439,90.561 408.418,91.129 406.715,90.107 C405.012,89.199 403.991,89.54 401.494,91.924 C397.521,95.783 395.818,95.669 394.456,91.469 C393.548,89.086 392.186,87.837 389.689,87.156 C387.191,86.475 385.943,85.34 385.489,83.41 C385.035,81.367 383.673,80.459 380.608,79.665 C376.976,78.757 376.068,78.87 373.57,81.254 C369.144,85.454 369.03,87.61 372.889,92.151 C374.819,94.307 376.408,97.258 376.408,98.734 C376.408,101.912 380.154,106.907 383.105,107.928 C384.467,108.382 387.418,113.036 390.937,120.301 C396.272,131.311 396.953,132.219 402.742,135.397 C411.823,140.619 415.796,146.408 420.677,162.413 C423.287,170.699 426.352,185.795 426.352,189.882 C426.352,191.925 427.828,194.309 431.233,197.487 C439.292,205.092 441.562,216.329 435.773,220.756 C433.276,222.799 431.914,223.026 427.033,222.459 C417.271,221.097 415.682,220.416 413.98,216.556 C411.936,212.016 410.461,212.016 407.964,216.329 C406.715,218.599 404.785,220.075 402.515,220.529 C400.131,220.983 397.294,223.14 393.775,227.226 C386.964,235.058 377.43,241.528 371.414,242.323 C366.987,243.004 366.646,243.344 363.241,250.495 C360.517,256.171 358.814,258.328 356.09,259.463 C354.16,260.257 350.188,263.549 347.35,266.727 C344.512,269.905 340.312,273.538 338.042,274.786 C332.707,277.624 328.167,286.364 329.302,291.699 C329.642,293.629 333.161,301.574 337.021,309.407 C343.036,321.438 344.739,323.936 348.371,325.865 C353.479,328.59 353.593,328.93 354.274,340.167 C354.955,350.043 355.977,353.448 359.949,359.35 C361.425,361.507 364.263,368.999 366.192,375.809 C368.576,384.095 370.733,389.317 372.549,391.246 C374.592,393.403 375.841,396.581 376.976,402.597 C377.77,407.251 379.019,413.608 379.813,416.672 C380.494,419.851 380.835,425.072 380.381,428.704 C379.813,434.834 379.927,435.401 383.786,440.396 C385.943,443.233 387.759,446.185 387.759,446.752 C387.759,447.433 389.348,450.952 391.164,454.698 C393.094,458.444 394.57,462.416 394.57,463.552 C394.57,467.411 389.689,473.2 384.921,474.789 C378.792,477.059 360.176,475.924 355.863,473.086 C346.669,467.184 343.604,464.8 340.199,460.941 C338.156,458.671 336.112,455.492 335.545,454.017 C334.296,450.952 331.345,450.498 328.053,452.995 C324.762,455.492 321.47,455.038 313.638,451.179 C309.778,449.136 304.33,446.979 301.492,446.298 C297.406,445.277 296.044,444.255 294.568,441.304 C292.412,436.536 290.709,435.401 285.601,435.401 C283.444,435.401 280.493,435.061 279.131,434.72 C276.52,434.039 270.845,425.64 270.845,422.461 C270.845,418.943 266.077,405.094 261.991,397.035 C258.926,390.906 257.11,388.636 255.067,388.068 C250.867,387.047 247.121,389.771 243.262,396.581 C239.97,402.597 239.857,403.051 239.516,420.986 C239.403,433.358 238.608,441.531 237.473,445.958 C236.452,449.59 235.657,453.336 235.657,454.357 C235.657,455.379 233.954,461.508 232.025,467.865 L228.393,479.556 L223.398,481.486 C219.879,482.848 217.042,485.118 213.75,489.432 C207.62,497.264 200.81,500.215 188.778,499.988 C184.238,499.874 179.13,499.534 177.2,499.307 z M244.511,157.872 C251.662,154.58 253.024,152.197 249.165,149.246 C245.646,146.521 240.311,146.408 239.403,149.132 C239.062,150.154 237.246,152.651 235.317,154.694 C229.414,160.937 234.181,162.64 244.511,157.872 z" fill="#000000"/>
  </g>
</svg>
