<?xml version="1.0" encoding="UTF-8"?>
<!DOCTYPE svg PUBLIC "-//W3C//DTD SVG 1.1//EN" "http://www.w3.org/Graphics/SVG/1.1/DTD/svg11.dtd">
<svg version="1.1" xmlns="http://www.w3.org/2000/svg" xmlns:xlink="http://www.w3.org/1999/xlink" x="0" y="0" width="500" height="500" viewBox="0, 0, 500, 500">
  <g id="layer101">
    <path d="M281.804,466.612 C278.73,466.203 276.987,465.793 278.012,465.69 C280.677,465.383 280.164,463.23 276.065,458.516 C271.145,452.674 270.633,450.111 271.863,437.198 C273.503,419.877 273.503,391.692 271.863,375.293 C269.915,355.717 269.915,356.332 272.99,352.643 C274.425,350.9 275.655,348.953 275.655,348.338 C275.552,346.698 266.943,337.371 265.406,337.371 C264.791,337.371 263.049,338.294 261.511,339.421 C256.592,343.111 252.287,343.111 245.523,339.421 L239.373,336.244 L234.966,339.421 C230.661,342.598 222.257,345.776 215.083,347.006 C210.983,347.723 209.651,349.055 205.654,355.922 C204.219,358.485 200.119,363.302 196.532,366.581 C192.945,369.861 189.563,373.858 188.845,375.498 C188.128,377.035 186.898,378.368 185.975,378.368 C185.053,378.368 183.823,379.7 183.311,381.34 C182.696,382.877 181.158,384.722 179.826,385.337 C178.391,385.952 177.161,387.694 176.751,389.642 C176.341,391.692 175.214,393.126 173.574,393.741 C171.934,394.356 170.807,395.791 170.499,397.739 C170.089,399.481 168.859,401.531 167.527,402.351 C166.297,403.171 163.735,406.45 161.992,409.628 C158.815,415.162 157.073,416.597 151.538,417.724 C149.694,418.134 148.259,419.569 147.029,422.131 C146.004,424.284 144.672,426.743 143.852,427.563 C143.134,428.383 141.392,433.713 139.854,439.247 C137.6,448.164 135.55,451.956 133.09,452.161 C132.783,452.161 130.425,453.801 127.965,455.748 C125.506,457.696 122.431,459.336 121.099,459.336 C118.126,459.336 99.371,450.214 99.268,448.677 C99.166,448.062 98.961,445.909 98.858,443.962 C97.013,423.156 95.168,411.985 93.221,411.37 C88.097,409.628 83.177,397.636 82.255,384.517 C81.742,378.06 81.947,377.343 86.559,368.119 C95.373,350.49 102.548,340.959 110.645,336.142 C112.592,334.912 115.462,332.862 116.999,331.427 C118.536,330.095 121.816,328.557 124.583,328.045 C130.22,327.02 136.267,322.715 136.267,319.845 C136.267,317.488 134.32,317.386 128.58,319.333 C121.611,321.69 112.694,323.228 99.883,324.253 C78.872,325.892 79.385,325.995 74.055,320.87 C71.595,318.411 68.521,314.311 67.188,311.749 C65.446,308.367 64.216,307.034 62.269,306.829 C58.579,306.419 55.299,310.724 46.588,327.225 C42.591,334.707 37.261,343.111 34.596,346.083 C28.754,352.54 15.123,361.969 11.638,361.969 C8.564,361.969 4.054,357.46 4.054,354.385 C4.054,353.155 4.669,351.31 5.489,350.183 C6.206,349.055 7.334,345.263 7.949,341.676 C9.179,334.912 11.433,329.582 18.3,317.591 C20.555,313.799 22.605,309.289 23.015,307.649 C23.425,306.009 25.065,303.652 26.704,302.422 C28.754,300.987 29.677,299.552 29.472,298.015 C29.164,296.068 28.652,295.863 23.22,296.17 C16.148,296.683 14.303,295.453 14.303,290.328 C14.406,284.896 19.838,275.159 26.09,269.215 C30.907,264.603 39.106,254.764 40.848,251.484 C41.566,250.152 41.771,247.589 41.361,245.027 L40.643,240.825 L50.277,231.703 C55.607,226.579 60.629,221.864 61.449,221.044 C71.903,211.103 81.947,198.701 81.947,195.729 C81.947,191.322 74.26,190.604 63.499,193.884 C52.84,197.164 50.585,196.446 49.56,189.58 C48.638,184.148 50.892,177.486 55.299,173.181 C58.887,169.491 59.502,169.286 65.446,169.286 C68.828,169.286 74.978,170.209 79.077,171.234 C84.714,172.771 89.326,173.181 97.628,173.079 C108.082,172.771 108.8,172.669 111.362,170.004 C113.924,167.544 114.129,166.519 114.334,158.935 C114.437,151.965 114.744,150.326 116.487,148.891 C121.099,145.201 126.531,133.107 125.198,129.52 C124.993,128.802 125.711,127.163 126.838,125.933 C129.708,122.755 131.45,119.168 132.27,114.454 C133.295,108.919 135.55,103.18 137.497,100.925 C138.42,99.9 139.649,97.235 140.162,94.98 C142.007,86.679 156.868,67.82 161.583,67.82 C164.247,67.82 171.114,63.721 172.754,61.056 C173.779,59.621 176.341,57.571 178.493,56.444 C181.056,55.111 182.901,53.267 183.618,51.422 C184.233,49.372 185.668,48.142 188.025,47.322 C189.972,46.707 192.945,44.35 194.79,42.095 C198.684,37.073 201.144,37.073 205.551,41.685 C208.933,45.272 209.036,45.272 209.548,43.018 C209.753,41.685 210.163,39.02 210.266,37.073 C210.676,32.051 214.468,31.641 218.772,36.048 C221.745,39.225 224.717,40.045 226.049,37.996 C226.459,37.278 228.817,37.073 233.019,37.483 C238.246,37.996 239.783,37.791 242.345,36.048 C245.625,33.896 250.442,33.383 254.542,35.023 C257.924,36.253 259.461,41.89 258.641,50.192 C258.129,55.214 258.231,56.546 259.359,56.649 C260.179,56.649 264.688,56.751 269.505,56.751 C282.214,56.751 285.801,59.211 284.367,67 C283.444,72.022 285.597,74.38 291.131,74.482 C305.07,74.79 304.967,74.687 310.707,81.964 C311.732,83.296 313.679,84.219 315.216,84.219 C319.214,84.219 323.518,87.806 324.236,91.701 C324.646,93.648 326.388,96.62 328.54,98.67 C330.59,100.617 333.357,104.102 334.792,106.562 C337.252,110.662 337.252,111.277 336.125,115.479 C335.407,117.938 333.767,121.013 332.435,122.243 C329.873,124.6 328.95,130.647 331,131.877 C331.615,132.287 332.742,134.029 333.46,135.772 C335.407,140.179 340.634,145.406 344.836,147.148 C346.681,147.968 349.038,149.813 349.961,151.248 C352.421,154.938 358.878,154.938 363.797,151.35 C367.999,148.276 371.791,148.071 389.112,150.428 C405.511,152.58 419.962,155.758 423.959,158.217 C427.751,160.472 429.186,163.752 427.136,165.802 C425.292,167.646 413.3,170.004 396.082,171.644 C384.705,172.771 380.606,173.693 376.608,175.641 C373.739,177.076 370.254,178.511 368.717,178.921 C365.744,179.638 364.72,181.585 367.384,181.585 C368.204,181.585 370.357,182.918 372.099,184.455 C374.559,186.607 375.379,188.452 375.789,192.039 C376.506,198.496 373.841,202.288 367.282,204.133 C362.567,205.466 362.567,205.466 359.492,202.288 C357.853,200.444 356.315,199.009 356.008,199.009 C355.7,199.009 352.933,199.726 349.858,200.649 C342.274,202.801 339.199,206.593 339.199,213.767 C339.199,216.74 338.584,219.917 337.969,220.839 C337.252,221.762 333.665,223.504 329.975,224.631 C326.285,225.759 319.419,227.809 314.704,229.244 C309.887,230.678 305.172,232.626 304.147,233.548 C301.79,235.7 294.103,251.382 294.103,254.046 C294.103,258.761 299.945,268.088 300.97,265.115 C302.303,261.221 305.07,256.916 306.402,256.916 C307.222,256.916 309.169,258.863 310.809,261.323 C312.449,263.68 314.089,265.423 314.601,265.115 C315.114,264.808 315.729,261.938 316.139,258.658 C317.574,245.847 320.751,244.72 326.388,255.174 C332.947,267.063 334.587,267.883 340.327,261.938 C342.172,259.991 345.656,257.531 347.911,256.506 C350.166,255.481 353.138,253.431 354.47,251.997 C356.315,249.947 357.545,249.434 359.8,249.947 C363.592,250.664 365.744,248.922 365.642,244.925 C365.539,241.337 366.462,240.518 374.046,238.365 C386.14,234.676 431.544,213.357 444.662,205.056 C447.84,203.108 453.374,199.521 457.064,197.266 C460.753,194.909 468.03,190.912 473.36,188.35 C481.457,184.455 484.019,183.635 488.938,183.635 C500.11,183.635 502.057,185.89 498.163,194.499 C496.113,198.906 497.548,197.881 455.526,226.681 C448.557,231.498 441.793,236.315 440.46,237.545 C439.128,238.673 436.976,240.108 435.541,240.723 C431.851,242.26 409.201,258.863 403.769,263.988 C401.206,266.448 397.619,269.42 395.774,270.752 C392.597,272.905 391.982,273.007 388.292,271.777 C383.578,270.137 382.553,270.855 382.04,275.877 C381.733,279.259 381.528,279.464 378.351,279.157 C375.891,279.054 372.816,280.182 366.974,283.564 C362.567,286.126 358.058,288.176 356.828,288.176 C355.7,288.176 353.958,288.996 352.933,289.918 C351.293,291.66 351.396,291.865 354.573,294.325 C361.132,299.245 366.872,304.882 366.872,306.112 C366.872,308.162 364.002,308.776 357.033,308.059 C350.063,307.342 349.448,307.752 352.113,311.544 C354.675,315.233 353.241,317.283 348.423,316.566 C342.991,315.848 342.376,317.386 346.374,321.485 C351.088,326.302 350.268,328.557 343.811,328.967 C341.044,329.172 338.174,329.787 337.457,330.402 C335.817,331.734 335.715,344.238 337.252,351.925 C340.224,366.991 340.634,368.324 342.991,370.169 C345.451,372.116 346.066,374.678 344.324,375.806 C342.274,377.035 343.299,382.057 345.964,384.415 C347.809,385.952 348.321,387.182 347.809,388.412 C346.066,392.614 346.169,396.304 348.321,398.251 C350.576,400.301 351.191,403.478 349.448,404.503 C347.706,405.528 348.321,409.73 350.473,411.677 C352.216,413.317 352.421,414.342 351.806,420.902 C351.396,426.539 351.601,428.998 352.933,431.868 C355.393,436.89 356.725,446.217 355.29,447.857 C354.163,449.292 348.321,449.087 343.401,447.549 C341.044,446.729 341.044,446.832 341.659,451.751 C342.786,460.361 342.581,462.513 340.634,464.46 C338.892,466.203 336.33,466.408 313.064,466.817 C299.023,467.125 284.879,467.022 281.804,466.612 z M326.285,327.532 C327.105,325.278 325.158,321.998 322.801,321.998 C320.136,321.998 319.521,323.33 320.751,326.507 C321.878,329.48 325.26,330.095 326.285,327.532 z M130.118,267.678 C130.118,266.55 129.503,265.628 128.683,265.628 C126.633,265.628 124.686,268.395 125.403,270.24 C126.223,272.495 130.118,270.342 130.118,267.678 z M143.749,257.531 C146.721,255.174 151.333,251.484 153.998,249.229 C156.765,246.974 159.943,245.13 160.968,245.13 C162.3,245.13 163.53,244.002 164.452,241.85 C165.17,240.005 167.937,236.93 170.602,235.086 C173.164,233.241 175.214,231.191 174.906,230.473 C174.496,229.141 169.987,229.039 166.195,230.268 C164.35,230.883 163.017,230.063 158.815,225.656 C155.946,222.684 153.691,219.712 153.691,218.994 C153.691,216.432 149.386,212.333 143.852,209.873 C137.292,206.798 133.91,207.208 131.348,211.103 C129.093,214.587 129.195,225.861 131.655,232.113 C133.09,236.008 133.295,238.775 132.885,247.384 C132.578,253.226 131.963,258.966 131.553,260.298 C130.938,262.451 131.143,262.553 134.627,262.143 C137.087,261.836 140.469,260.093 143.749,257.531 z M340.737,190.399 C342.991,189.58 347.706,188.145 351.293,187.12 C357.545,185.377 360.722,183.328 358.878,182.2 C358.365,181.893 354.06,182.2 349.346,182.815 C342.172,183.738 339.814,183.635 335.407,182.405 C329.258,180.56 327.925,181.278 327.925,186.402 C327.925,191.732 332.64,193.167 340.737,190.399 z M145.491,147.763 C148.874,146.021 149.591,145.099 149.591,142.639 C149.591,138.027 147.644,137.822 143.852,142.229 C136.882,150.223 137.395,151.863 145.491,147.763 z" fill="#000000"/>
  </g>
</svg>
