<?xml version="1.0" encoding="UTF-8"?>
<!DOCTYPE svg PUBLIC "-//W3C//DTD SVG 1.1//EN" "http://www.w3.org/Graphics/SVG/1.1/DTD/svg11.dtd">
<svg version="1.1" xmlns="http://www.w3.org/2000/svg" xmlns:xlink="http://www.w3.org/1999/xlink" x="0" y="0" width="500" height="500" viewBox="0, 0, 500, 500">
  <g id="Layer_1">
    <path d="M452.15,248.42 C436.201,246.229 420.302,220.954 412.607,215.45 C403.842,208.418 391.256,208.826 383.306,209.998 C377.65,190.94 367.968,173.563 355.279,158.887 L375.102,125.204 L341.47,144.976 C322.106,128.108 298.053,116.541 271.453,112.566 C265.389,103.088 259.937,92.591 259.937,85.711 C259.937,70.322 272.574,71.953 273.135,47.799 C273.695,30.779 259.376,21.963 257.746,17.581 C252.803,8.816 252.803,0 252.803,0 C238.534,14.829 250.611,30.218 250.611,47.799 C248.42,63.749 223.145,79.647 217.642,87.342 C210.711,96.005 211.017,108.439 212.138,116.388 C192.316,122.095 174.378,132.134 159.295,145.332 L125,125.153 L145.23,159.601 C129.841,177.64 118.987,199.704 114.503,223.96 C104.515,230.483 93.1,236.751 85.762,236.751 C70.373,236.751 72.004,224.113 47.85,223.553 C30.83,222.992 22.014,237.311 17.631,238.942 C8.816,243.987 0.051,243.987 0.051,243.987 C14.88,258.255 30.269,246.178 47.85,246.178 C63.799,248.369 79.698,273.645 87.393,279.148 C96.158,286.129 108.693,285.773 116.643,284.6 C121.993,305.035 131.879,323.685 145.23,339.278 L124.949,373.624 L159.193,353.496 C177.843,369.853 200.876,381.319 226.355,385.803 C232.827,395.74 238.942,407.002 238.942,414.289 C238.942,429.678 226.305,428.047 225.744,452.201 C225.183,469.221 239.503,478.037 241.133,482.419 C246.076,491.184 246.076,500 246.076,500 C260.344,485.171 248.267,469.782 248.267,452.201 C250.459,436.252 275.734,420.353 281.237,412.658 C288.32,403.842 287.862,391.103 286.639,383.153 C307.175,377.599 325.876,367.458 341.47,353.852 L375.051,373.624 L355.279,339.992 C372.248,320.424 383.765,296.015 387.587,269.16 C397.014,263.147 407.409,257.746 414.238,257.746 C429.627,257.746 427.996,270.383 452.15,270.944 C469.17,271.504 477.986,257.185 482.368,255.554 C491.133,250.612 499.949,250.612 499.949,250.612 C485.12,236.343 469.731,248.42 452.15,248.42 z M250,334.081 C203.577,334.081 165.97,296.474 165.97,250.051 C165.97,203.628 203.577,166.021 250,166.021 C296.423,166.021 334.03,203.628 334.03,250.051 C334.03,296.474 296.423,334.081 250,334.081 z" fill="#000000"/>
  </g>
</svg>
