<?xml version="1.0" encoding="UTF-8"?>
<!DOCTYPE svg PUBLIC "-//W3C//DTD SVG 1.1//EN" "http://www.w3.org/Graphics/SVG/1.1/DTD/svg11.dtd">
<svg version="1.1" xmlns="http://www.w3.org/2000/svg" xmlns:xlink="http://www.w3.org/1999/xlink" x="0" y="0" width="500" height="500" viewBox="0, 0, 500, 500">
  <g id="Layer_1">
    <path d="M376.928,61.281 L377.508,60.411 C376.464,60.121 376.406,60.527 376.928,61.281 z" fill="#D16969"/>
    <path d="M500,316.183 C497.68,307.077 500.696,297.449 499.71,288.112 C497.97,271.466 483.819,258.359 481.035,241.829 C480.687,239.683 480.513,237.363 481.441,235.333 C482.369,233.362 484.689,231.854 486.776,232.434 C488.226,232.84 489.27,234.058 490.082,235.275 C493.272,239.799 495.128,245.251 495.476,250.819 C499.768,241.423 498.898,230.23 494.664,220.834 C490.43,211.438 483.123,203.725 474.945,197.461 C471.639,194.909 468.101,192.531 465.665,189.167 C465.085,188.413 456.443,170.376 454.471,163.532 C452.326,155.992 452.674,143.754 450.064,138.999 C450.122,139.057 450.238,139.115 450.354,139.173 C458.357,143.58 464.795,145.842 466.361,146.422 C470.479,147.93 476.511,151.178 484.979,158.718 C480.571,146.364 473.553,140.043 469.725,135.171 C459.343,122.063 440.378,118.525 429.184,106.056 C427.734,104.432 426.342,102.576 426.052,100.372 C425.762,98.168 426.922,95.674 429.01,95.036 C430.402,94.63 431.968,95.094 433.302,95.674 C438.406,97.82 442.93,101.416 446.178,105.94 C444.728,95.732 438,86.742 429.416,81.058 C420.833,75.375 410.509,72.707 400.243,71.837 C396.067,71.489 391.833,71.373 387.948,69.807 C385.976,68.995 368.808,60.295 357.847,54.263 C359.471,53.103 361.558,52.755 363.588,52.523 C376.754,50.841 389.862,49.101 403.027,47.42 C393.689,46.376 385.802,40.054 376.696,37.676 C360.457,33.384 343.173,41.91 326.76,38.662 C324.614,38.256 322.41,37.56 320.844,35.994 C319.336,34.428 318.698,31.702 320.032,29.962 C320.902,28.802 322.41,28.28 323.86,27.932 C329.254,26.598 335.053,26.772 340.331,28.454 C333.081,21.146 322.294,17.956 312.028,18.536 C301.762,19.116 291.903,23.176 283.145,28.628 C279.607,30.832 276.127,33.268 272.125,34.37 C269.631,35.008 263.31,34.95 259.83,34.486 C259.888,34.08 260.004,33.732 260.178,33.326 C261.164,31.122 263.426,29.904 265.572,28.86 C277.461,22.944 289.293,17.029 301.182,11.113 C292.019,13.201 282.507,9.837 273.111,10.533 C256.466,11.809 242.894,25.496 226.307,27.816 C224.103,28.164 221.841,28.222 219.811,27.236 C217.781,26.25 216.331,23.93 217.027,21.842 C217.491,20.45 218.767,19.464 219.985,18.652 C224.625,15.637 230.135,13.955 235.703,13.781 C226.481,9.257 215.229,9.779 205.717,13.723 C196.148,17.666 188.202,24.742 181.706,32.746 C179.096,35.994 176.66,39.474 173.181,41.794 C169.701,44.172 156.419,47.942 159.551,45.216 C161.233,43.708 174.63,22.596 170.571,23.756 C157.231,34.776 143.195,39.59 136.7,53.393 C135.192,56.641 133.452,61.049 129.856,60.933 C126.028,60.875 124.694,55.713 124.926,51.827 C125.68,37.096 131.654,22.654 141.456,11.635 C126.608,24.22 114.718,32.63 109.615,59.657 C108.397,63.543 107.295,67.603 104.801,70.793 C101.669,74.737 96.797,76.767 92.911,80.014 C85.371,86.336 82.297,96.66 75.222,103.446 C74.12,104.548 72.902,105.476 71.684,106.404 C65.942,110.637 61.998,113.595 61.07,114.291 C49.065,123.803 56.024,147.582 55.966,147.234 C58.228,146.596 70.06,123.397 86.299,121.309 C89.315,120.961 90.997,119.975 92.389,120.729 C95.115,122.179 95.579,126.529 95.521,128.443 C95.173,140.913 90.359,153.208 82.181,162.604 C87.691,163.59 94.129,164.344 98.247,160.516 C100.219,158.66 101.205,156.108 102.365,153.672 C107.643,142.304 116.342,132.619 127.072,126.181 C130.552,124.093 134.728,121.657 134.902,117.597 C135.018,115.393 133.8,113.305 133.452,111.101 C132.408,104.49 139.31,99.096 145.921,98.284 C152.475,97.472 159.087,99.618 165.757,99.792 C172.427,99.966 180.14,97.298 182.054,90.918 C182.518,89.352 182.866,87.496 183.562,86.046 C184.258,84.596 190.174,83.726 191.682,84.306 C187.738,80.188 176.66,85.06 170.919,85.002 C169.991,85.002 169.063,84.828 168.309,84.306 C166.685,83.146 166.627,80.536 167.787,78.855 C168.947,77.173 170.861,76.245 172.775,75.549 C182.228,72.185 193.016,72.765 201.948,77.231 C205.833,79.145 209.429,81.812 213.547,83.204 C221.667,85.988 231.411,83.204 236.862,76.593 C234.137,76.767 231.237,76.883 228.975,75.375 C226.771,73.867 225.901,70.097 228.105,68.531 C229.439,67.603 231.295,67.835 232.919,68.125 C241.734,69.749 250.956,71.489 258.032,76.999 C262.034,80.13 265.05,84.422 269.109,87.438 C279.607,95.326 286.799,98.168 299.848,96.718 C286.857,90.976 278.563,80.942 273.053,68.183 C278.505,70.039 283.551,73.171 287.611,77.289 C290.627,80.42 293.179,84.074 296.601,86.742 C303.386,92.078 313.478,92.658 320.844,88.192 C318.234,87.496 315.45,86.626 313.826,84.48 C312.202,82.334 312.608,78.507 315.218,77.753 C316.842,77.347 318.466,78.159 319.916,78.971 C327.746,83.378 324.266,88.018 329.138,95.558 C331.863,99.792 333.429,104.78 336.271,108.956 C343.579,119.801 357.499,123.687 370.316,126.587 C358.717,115.799 346.247,103.272 345.957,87.438 C345.957,86.452 346.247,85.408 346.769,84.422 C356.339,91.498 373.39,104.722 374.608,113.479 C375.188,117.829 375.014,122.237 376.174,126.471 C378.436,134.765 386.15,141.319 394.733,142.13 C393.051,139.985 391.312,137.665 391.312,134.939 C391.312,132.213 393.921,129.429 396.473,130.357 C397.981,130.937 398.793,132.619 399.489,134.127 C403.085,142.304 406.797,150.946 406.217,159.878 C405.927,164.924 404.187,169.854 403.955,174.899 C403.317,188.007 412.133,199.433 420.659,209.408 C417.759,193.865 415.323,176.349 424.544,163.474 C424.602,163.416 424.602,163.416 424.66,163.358 C429.242,171.478 431.388,178.785 432.432,183.831 C433.94,190.907 436.956,205.058 430.982,218.978 C428.314,225.126 426.864,225.88 425.356,230.752 C422.805,238.987 425.878,248.615 432.664,253.893 C432.374,251.225 432.2,248.325 433.592,246.005 C434.984,243.685 438.754,242.757 440.378,244.903 C441.364,246.237 441.132,248.093 440.9,249.717 C439.566,258.533 438.116,267.812 432.838,275.062 C429.88,279.18 425.82,282.428 422.921,286.546 C415.381,297.275 416.715,311.659 418.571,324.651 C424.312,310.383 431.33,294.724 445.25,288.402 C443.626,297.739 440.552,304.815 438.232,309.397 C435.042,315.487 429.532,326.043 418.281,332.654 C412.191,336.25 410.567,335.67 406.391,338.628 C399.257,343.674 395.777,353.36 398.097,361.827 C399.547,359.507 401.171,357.072 403.723,356.086 C406.275,355.158 409.929,356.724 409.929,359.449 C409.929,361.131 408.653,362.465 407.435,363.625 C400.881,369.947 399.721,364.843 390.964,367.395 C385.976,368.845 380.698,368.903 375.768,370.411 C363.008,374.297 355.237,386.767 348.741,398.366 C362.602,390.246 378.552,381.779 394.153,386.187 C394.327,386.245 394.501,386.303 394.617,386.361 C384.352,395.466 370.548,410.14 363.472,407.356 C359.413,405.79 355.585,403.47 351.351,402.426 C342.999,400.396 333.545,403.992 328.674,411.068 C331.341,410.604 334.241,410.256 336.619,411.532 C338.997,412.808 340.215,416.52 338.127,418.26 C336.851,419.304 334.995,419.246 333.371,419.072 C324.44,418.26 296.659,417.332 292.367,414.664 C278.447,412.924 275.895,421.681 263.02,424.465 C271.893,427.423 281.289,430.845 288.945,436.181 C286.567,436.761 282.681,437.631 277.867,438.153 C268.239,439.255 255.538,440.705 244.576,434.209 C238.95,430.903 239.53,429.337 234.601,426.495 C227.293,422.261 217.317,422.029 210.647,425.973 C213.315,426.495 216.157,427.133 218.013,428.873 C219.927,430.613 219.927,433.861 217.491,434.557 C215.983,434.963 214.243,434.325 212.735,433.687 C204.5,430.207 195.974,426.495 190.232,420.29 C187.042,416.81 184.896,412.75 181.59,409.27 C173.065,400.338 158.913,397.438 145.979,395.35 C157.637,403.354 170.223,412.576 173.877,424.291 C170.629,423.363 165.931,421.74 160.711,419.014 C152.881,414.954 141.92,409.212 137.744,398.192 C135.424,392.16 136.99,390.652 135.076,385.375 C132.118,377.313 123.824,371.455 115.24,371.397 C117.038,373.369 119.01,375.573 119.242,378.241 C119.474,380.909 117.096,383.983 114.486,383.229 C112.862,382.765 111.935,381.199 111.123,379.749 C106.831,371.919 102.365,363.683 102.191,354.694 C102.075,349.648 103.351,344.602 103.177,339.556 C102.655,326.449 92.853,315.835 83.515,306.613 C87.633,321.403 91.461,338.048 84.327,351.504 C77.078,337.99 63.738,316.299 66.174,309.861 C67.566,306.207 69.422,302.901 70.408,299.073 C72.38,291.534 70.466,282.544 65.768,277.44 C65.884,279.934 65.942,282.66 64.898,284.748 C63.854,286.836 61.186,287.59 60.084,285.56 C59.388,284.284 59.562,282.602 59.794,281.094 C60.896,272.916 62.172,264.391 66.058,257.837 C68.204,254.125 71.162,251.283 73.308,247.513 C78.876,237.769 78.296,224.372 77.252,212.308 C72.786,225.764 67.276,240.495 56.778,245.541 C56.256,245.773 55.792,246.005 55.27,246.179 C61.824,233.826 55.386,225.996 62.868,211.67 C66.58,204.478 68.842,205.232 71.742,197.925 C76.15,186.963 71.742,172 71.742,172 C71.742,172 67.102,187.833 59.388,184.585 C51.674,181.279 61.534,170.492 67.334,166.2 C73.134,161.908 81.833,136.389 81.253,136.041 C80.268,135.403 77.948,146.886 68.088,150.366 C61.94,152.57 49.297,162.488 44.715,173.739 C41.177,182.439 44.889,184.643 43.555,210.104 C43.149,217.876 42.279,233.652 39.495,233.884 C37.523,234.058 37.175,226.924 33.869,220.138 C30.563,213.352 33.695,206.624 33.695,206.624 C33.695,206.624 25.285,212.134 24.241,220.138 C23.197,228.2 28.707,230.346 32.187,243.743 C33.463,248.615 33.753,252.327 33.927,255.053 C32.651,254.357 31.143,253.661 29.867,252.849 C22.907,248.499 17.514,242.583 15.774,231.216 C17.108,239.741 11.888,239.915 15.774,249.195 C21.747,263.521 29.867,271.93 31.433,287.3 C31.665,289.33 31.723,291.476 31.027,293.332 C30.331,295.188 28.707,296.522 27.199,295.884 C26.213,295.478 25.517,294.318 24.937,293.158 C22.791,288.808 21.631,283.704 21.515,278.542 C18.268,287.126 18.615,297.565 21.399,306.381 C24.125,315.197 29.113,322.621 34.739,328.652 C35.957,329.928 37.233,331.32 38.625,333.118 C40.017,334.858 40.887,336.25 41.119,336.598 C45.237,342.862 57.3,351.098 56.372,353.766 C55.792,355.39 29.925,348.43 28.243,343.036 C31.723,354.346 43.903,358.986 55.56,366.119 C61.128,369.541 63.39,379.343 61.302,381.315 C59.91,382.591 56.372,380.909 48.543,376.675 C42.395,373.369 33.985,368.729 23.893,362.813 C25.749,367.685 29.113,374.355 35.377,380.271 C37.233,382.011 38.973,383.403 41.177,384.969 C54.4,394.19 75.512,402.194 84.095,410.43 C85.661,411.938 87.227,413.678 87.691,415.824 C88.213,417.97 87.285,420.58 85.255,421.392 C83.863,421.913 82.297,421.565 80.905,421.102 C75.628,419.42 70.814,416.23 67.218,411.996 C69.538,422.087 77.02,430.439 86.067,435.369 C95.115,440.299 105.613,442.039 115.936,442.039 C121.388,442.039 119.996,442.213 128.348,442.967 C155.781,445.403 166.047,449.405 170.339,451.261 C173.935,452.826 176.776,454.392 178.516,455.378 C176.718,455.958 174.92,456.828 173.007,457.06 C160.305,458.858 147.603,460.598 134.902,462.396 C144.239,463.034 152.765,468.08 161.987,469.878 C178.458,473.068 194.408,465.412 210.937,467.732 C213.083,468.022 215.345,468.544 217.085,469.82 C218.825,471.096 219.753,473.358 218.651,474.866 C217.955,475.91 216.563,476.374 215.171,476.722 C210.009,477.998 204.326,477.998 198.932,476.722 C206.993,482.638 217.955,485.015 227.989,484.261 C238.022,483.508 247.186,479.854 255.132,475.04 C260.7,471.676 260.642,471.85 265.282,469.936 C274.793,466.05 283.261,464.832 289.525,463.962 C292.657,463.556 296.833,463.092 301.936,462.86 C299.79,466.63 296.485,471.444 291.555,476.142 C282.913,484.377 273.633,487.973 268.239,489.597 C277.171,486.697 286.973,489.191 296.253,487.625 C312.782,484.841 315.044,462.28 343.695,458.684 C345.841,458.394 348.103,457.872 350.191,458.684 C352.279,459.496 353.903,461.7 353.439,463.846 C353.091,465.238 351.931,466.34 350.771,467.268 C346.363,470.69 341.027,472.894 335.517,473.532 C345.145,477.186 356.223,475.678 365.386,470.922 C374.55,466.166 381.858,458.452 387.6,449.869 C390.21,445.925 391.254,444.881 395.313,440.067 C401.751,432.411 404.709,430.149 409.001,425.103 C412.249,421.276 416.599,415.534 420.775,407.472 C420.949,408.98 421.471,411.3 421.065,414.026 C418.977,427.365 416.947,440.647 414.859,453.986 C418.513,445.171 426.98,439.313 431.91,431.193 C440.726,416.694 437.304,397.264 445.192,382.243 C446.236,380.271 447.57,378.299 449.542,377.255 C451.514,376.211 454.355,376.443 455.689,378.241 C456.617,379.459 456.675,381.083 456.617,382.591 C456.385,388.275 454.529,393.784 451.398,398.482 C460.677,393.61 466.825,384.041 469.203,373.833 C471.581,363.625 470.363,352.838 467.521,342.688 C465.491,335.38 464.969,334.568 465.027,330.218 C465.085,320.185 470.421,315.081 474.539,305.917 C477.149,300.117 479.933,291.186 479.585,278.368 C479.991,279.006 480.629,279.934 481.267,281.152 C487.472,292.81 493.736,304.525 500,316.183 z" fill="#000000"/>
    <path d="M469.145,316.705 L470.189,316.937 C470.073,315.835 469.667,315.893 469.145,316.705 z" fill="#D16969"/>
    <path d="M408.073,434.557 L408.595,435.485 C409.291,434.673 409.001,434.441 408.073,434.557 z" fill="#D16969"/>
    <path d="M278.969,469.762 L279.201,470.632 C280.071,470.226 279.839,469.936 278.969,469.762 z" fill="#D16969"/>
    <path d="M140.006,450.449 L139.542,451.377 C140.586,451.551 140.586,451.145 140.006,450.449 z" fill="#D16969"/>
    <path d="M2.956,235.449 C-8.992,261.665 19.137,267.116 19.137,267.116 C7.248,259.229 4.348,244.323 2.956,235.449 z" fill="#000000"/>
  </g>
</svg>
