<?xml version="1.0" encoding="UTF-8"?>
<!DOCTYPE svg PUBLIC "-//W3C//DTD SVG 1.1//EN" "http://www.w3.org/Graphics/SVG/1.1/DTD/svg11.dtd">
<svg version="1.1" xmlns="http://www.w3.org/2000/svg" xmlns:xlink="http://www.w3.org/1999/xlink" x="0" y="0" width="500" height="500" viewBox="0, 0, 500, 500">
  <g id="layer101">
    <path d="M71.931,474.603 C69.303,472.058 69.138,468.691 71.52,464.174 C73.737,459.78 77.104,457.686 78.008,457.275 C79.322,456.618 76.119,456.126 76.448,453.087 C76.776,450.788 77.351,447.667 77.844,446.106 C78.993,442.657 82.935,416.295 82.935,412.353 C82.935,409.233 81.786,407.837 77.351,405.619 C73.245,403.484 69.795,398.228 69.795,393.876 C69.795,391.987 70.124,390.344 70.452,390.344 C70.863,390.344 72.67,391.658 74.477,393.219 C76.365,394.779 78.665,396.093 79.568,396.093 C81.046,396.093 81.293,395.6 81.293,392.972 C81.293,391.248 81.786,388.045 82.36,385.745 C82.935,383.446 83.264,379.175 83.1,376.219 C82.771,371.456 82.935,370.634 84.578,368.992 C85.645,367.924 86.713,365.953 86.959,364.557 C87.37,362.751 88.027,361.929 89.259,361.765 C91.476,361.437 93.119,359.548 92.462,357.905 C92.133,357.002 90.737,356.673 86.959,356.673 C80.8,356.673 79.732,355.606 79.65,349.529 C79.65,345.505 79.897,344.93 84.66,339.263 C91.805,330.804 91.723,331.133 88.766,322.592 C86.631,316.433 86.302,314.872 87.041,312.655 C87.616,310.93 87.616,309.37 87.041,307.892 C86.631,306.66 86.22,304.771 86.22,303.621 C86.22,302.554 84.414,297.873 82.196,293.274 C79.979,288.593 77.926,283.829 77.597,282.598 C76.858,279.641 74.887,277.916 73.902,279.395 C71.274,283.747 70.452,326.123 72.834,336.553 C73.491,339.756 74.148,345.258 74.23,348.872 C74.312,355.031 74.23,355.441 72.259,356.509 C70.617,357.412 69.467,357.495 66.921,356.755 C63.965,356.016 63.39,355.441 62.158,351.992 C61.419,349.775 60.762,347.147 60.762,345.997 C60.762,344.848 60.269,343.041 59.694,341.891 C58.052,338.852 57.559,336.224 58.38,335.65 C59.694,334.828 59.284,320.867 57.805,317.747 C56.656,315.447 56.573,314.133 57.148,310.93 C58.052,306.331 57.066,296.559 54.274,283.994 C53.289,279.477 51.892,273.153 51.235,269.95 C50.25,265.598 50.086,261.41 50.332,253.936 C50.578,248.352 50.825,242.192 50.825,240.304 C50.825,238.415 51.4,235.787 51.975,234.555 C52.632,233.323 53.617,230.12 54.192,227.492 C55.177,222.729 55.095,222.565 52.96,220.348 C51.153,218.459 50.004,218.048 44.912,217.637 C36.946,217.063 22.328,211.807 21.342,209.261 C20.932,208.275 18.796,206.058 16.497,204.415 C14.28,202.773 12.144,200.638 11.898,199.816 C11.57,198.913 10.995,198.174 10.502,198.174 C10.091,198.174 9.845,198.667 10.091,199.324 C11.077,201.87 7.299,203.184 4.589,201.213 C2.947,199.981 0.401,188.401 1.14,185.363 C1.386,184.377 3.275,182.57 5.41,181.339 C7.463,180.107 8.942,178.957 8.695,178.711 C5.985,177.889 4.917,176.083 3.029,174.194 C-1.899,169.431 -0.667,165.324 5.657,165.324 C7.463,165.324 8.531,165.981 9.845,167.788 C11.487,170.088 16.825,173.373 17.729,172.551 C17.893,172.305 16.99,169.759 15.594,166.885 C14.28,164.01 13.13,160.972 13.13,160.233 C13.13,158.59 15.265,156.291 16.908,156.291 C19.289,156.291 22.985,160.89 24.956,166.392 C27.091,172.223 32.347,180.928 33.825,180.928 C34.236,180.928 35.796,180.025 37.11,178.875 C40.067,176.411 41.873,176.493 43.187,179.121 C45.979,181.831 43.762,182.324 41.955,184.706 C38.506,189.14 40.395,190.783 47.211,189.223 C50.661,188.483 52.385,187.416 55.013,184.706 C59.448,180.189 66.51,169.759 66.51,167.788 C66.51,165.571 70.288,161.382 74.066,159.494 C78.09,157.441 78.665,155.88 76.448,153.499 C75.544,152.513 74.723,151.117 74.723,150.46 C74.723,149.803 73.245,147.011 71.438,144.136 C67.824,138.47 67.578,137.32 69.385,135.76 C70.37,134.939 71.109,134.939 73.08,135.76 C74.477,136.335 75.791,136.581 76.119,136.253 C76.365,136.006 76.119,133.625 75.462,131.079 C73.82,124.18 73.984,105.702 75.873,98.393 C77.269,93.055 82.196,78.848 86.302,68.418 C87.288,65.954 88.355,61.684 88.602,58.974 C88.93,56.264 89.752,53.143 90.491,51.993 C92.297,49.283 94.843,40.907 96.404,32.776 C97.718,25.96 99.689,22.757 101.988,23.66 C104.288,24.564 105.355,28.506 105.766,38.032 C106.094,47.641 106.751,50.351 108.722,50.351 C109.297,50.351 110.611,51.254 111.679,52.404 C113.157,53.964 113.732,55.935 114.389,62.012 C115.621,72.935 115.539,76.63 114.06,80.326 C113.321,82.133 112.089,86.732 111.432,90.592 C110.036,98.065 109.626,111.944 110.775,111.944 C111.679,111.944 112.5,109.891 112.5,107.509 C112.5,104.717 115.046,100.118 117.838,97.818 C119.891,96.094 121.287,95.765 126.461,95.683 C135.659,95.437 137.137,94.944 137.137,92.398 C137.137,90.263 133.524,80.326 132.045,78.519 C131.553,77.862 131.717,76.877 132.538,75.645 C133.606,74.085 133.688,73.099 132.949,70.471 C131.717,66.036 132.538,59.549 134.673,57.331 C135.577,56.346 138.041,54.703 140.011,53.718 C143.953,51.747 145.103,50.104 147.403,43.124 C148.142,40.742 149.62,37.786 150.688,36.554 C155.779,30.477 167.605,25.221 168.837,28.506 C169.166,29.327 167.934,31.38 165.306,34.501 C163.006,37.129 160.707,40.167 160.132,41.317 C158.572,44.274 158.818,60.616 160.542,65.708 C162.103,70.389 165.552,77.205 167.605,79.505 C168.344,80.408 169.987,83.447 171.136,86.321 C172.286,89.195 174.093,92.645 175.243,93.959 C176.721,95.683 177.378,97.49 177.378,99.461 C177.378,101.103 178.117,103.731 179.02,105.21 C180.417,107.509 181.074,107.838 184.276,107.838 C186.576,107.838 188.218,108.33 188.957,109.152 C189.861,110.219 191.01,110.383 195.445,109.973 C198.402,109.644 201.851,108.823 203.165,108.248 C204.807,107.345 206.86,107.181 209.899,107.509 C217.537,108.412 217.783,111.533 210.474,114.572 C203.575,117.446 202.508,120.977 208.667,120.977 C210.885,120.977 212.363,120.485 213.266,119.335 C215.319,117.035 216.387,117.282 220.411,120.977 L223.942,124.262 L231.744,124.262 C238.807,124.262 239.628,124.427 241.27,126.151 C244.063,129.108 243.57,130.422 239.217,132.064 C232.565,134.528 231.58,135.431 232.155,138.388 C232.812,141.508 230.923,143.151 226.817,143.151 C224.024,143.151 223.942,143.151 224.435,146.19 C224.763,148.078 226.077,150.296 227.966,152.267 C230.841,155.223 230.923,155.387 229.937,158.344 C229.362,159.986 229.198,162.532 229.445,163.846 C229.855,165.817 229.362,167.295 227.391,170.334 C223.039,177.15 219.754,180.764 215.812,183.31 C211.295,186.184 210.967,187.169 214.005,188.319 C215.73,188.976 216.715,188.812 218.851,187.498 C222.382,185.281 225.749,185.445 229.116,187.909 C230.676,189.058 232.812,189.962 233.961,189.962 C235.111,189.962 237.985,191.029 240.203,192.343 C245.705,195.546 257.695,201.459 258.681,201.459 C259.091,201.459 260.159,202.198 261.062,203.184 C261.884,204.087 264.758,205.483 267.386,206.304 C271.821,207.618 272.231,207.947 271.985,209.918 C271.821,211.724 272.231,212.217 274.859,212.956 C277.487,213.778 278.308,214.599 279.704,217.884 C280.69,220.101 282.497,222.483 283.646,223.222 C285.535,224.454 286.274,224.536 289.395,223.632 C291.941,222.975 293.419,222.893 294.569,223.468 C295.39,223.961 298.511,224.618 301.385,224.946 C307.298,225.521 311.076,226.835 315.346,229.792 C317.153,231.024 320.438,232.009 324.38,232.584 C327.747,233.077 332.182,234.062 334.235,234.719 C336.288,235.294 340.558,236.608 343.679,237.511 C346.882,238.497 350.906,240.222 352.713,241.453 C355.669,243.506 356.983,243.753 367.084,244.328 C384.084,245.313 389.751,246.052 391.393,247.531 C395.746,251.144 406.011,254.84 416.687,256.482 C419.48,256.893 424.078,257.796 427.035,258.453 C429.991,259.192 433.358,259.685 434.672,259.767 C435.904,259.767 438.286,260.506 439.928,261.41 C441.653,262.313 444.363,263.052 446.006,263.052 C447.648,263.052 451.836,263.873 455.45,264.777 C458.981,265.762 463.087,266.665 464.401,266.912 C465.797,267.158 469.082,267.979 471.793,268.719 C474.503,269.54 478.773,270.69 481.237,271.264 C486.657,272.414 497.579,276.767 499.222,278.327 C500.7,279.723 500.043,280.462 497.497,280.38 C487.725,280.134 475.488,278.902 474.585,278.163 C473.928,277.67 471.957,277.013 470.15,276.767 C468.343,276.438 465.223,275.863 463.169,275.371 C461.116,274.878 457.667,274.221 455.368,273.892 C453.15,273.482 450.112,272.578 448.634,271.839 C447.155,271.1 444.527,270.443 442.721,270.443 C440.832,270.443 437.136,269.704 434.426,268.719 C430.977,267.569 428.02,267.158 424.243,267.322 C420.301,267.487 418.001,267.076 415.045,265.762 C408.064,262.724 399.031,260.753 392.543,260.753 C387.944,260.753 384.823,260.178 380.306,258.617 C376.939,257.468 373.49,256.482 372.669,256.482 C371.848,256.482 369.712,255.743 367.906,254.84 C362.157,251.883 355.505,250.487 346.143,250.323 C339.901,250.159 336.042,249.666 333.824,248.68 C331.525,247.777 329.472,247.531 327.008,247.859 C324.462,248.27 322.902,248.023 321.506,247.12 C320.274,246.299 317.646,245.806 314.771,245.806 C312.143,245.724 307.462,245.395 304.26,244.903 C301.139,244.492 296.293,243.917 293.583,243.589 C290.216,243.26 288.081,242.603 286.767,241.371 C285.207,239.975 283.893,239.647 280.197,239.729 C264.84,240.139 265.004,240.139 262.787,238.004 C257.613,232.83 251.536,230.531 240.86,229.628 C235.522,229.135 235.029,230.531 239.299,233.816 C240.86,234.966 242.338,236.608 242.667,237.511 C242.913,238.333 244.555,239.975 246.362,241.125 C248.087,242.357 249.729,243.917 249.976,244.738 C250.222,245.56 252.193,247.531 254.246,249.091 C260.323,253.69 262.869,256.482 271.081,267.569 C280.526,280.38 282.743,282.926 285.043,284.322 C286.274,285.061 287.835,286.457 288.41,287.525 C288.984,288.593 290.791,290.564 292.516,291.96 C294.24,293.274 295.637,294.916 295.637,295.491 C295.637,296.066 296.129,296.887 296.704,297.462 C297.361,297.955 298.839,300.254 299.989,302.718 C303.274,309.206 306.477,312.573 311.979,315.529 C317.564,318.486 318.303,320.21 314.854,322.92 C311.979,325.22 309.926,325.713 306.559,325.056 C302.781,324.399 295.554,317.007 292.269,310.602 C291.038,308.056 288.738,304.935 287.26,303.703 C285.782,302.472 283.975,300.418 283.236,299.269 C282.497,298.119 280.279,295.491 278.308,293.438 C273.217,288.264 266.893,280.544 264.019,276.192 C262.787,274.139 253.589,264.366 243.734,254.347 C233.879,244.41 225.092,235.13 224.189,233.734 C223.367,232.338 222.3,230.941 221.807,230.613 C221.314,230.367 220.329,228.888 219.754,227.328 C218.194,223.715 216.715,223.058 209.817,222.729 L204.068,222.401 L204.068,227.246 C204.15,231.352 204.397,232.255 206.121,233.569 C207.271,234.391 208.749,235.623 209.406,236.28 C210.063,236.854 211.87,238.004 213.348,238.743 C214.744,239.482 215.976,240.386 215.976,240.714 C215.976,241.125 219.918,244.985 224.846,249.419 C239.546,262.888 246.691,269.458 248.579,271.429 C253.835,276.849 266.072,289.989 273.627,298.365 C278.226,303.539 283.975,309.616 286.192,311.916 C288.492,314.133 291.284,317.5 292.352,319.307 C293.419,321.114 295.719,324.316 297.443,326.452 C299.825,329.326 300.892,331.543 301.549,335.157 C303.192,343.862 301.796,345.587 292.434,346.901 C285.535,347.886 259.42,354.949 252.111,357.905 C250.55,358.562 247.183,359.63 244.72,360.369 C242.256,361.108 235.768,363.243 230.348,365.132 C221.232,368.335 220.493,368.746 220.247,370.799 C220,373.098 223.778,391.33 225.01,393.629 C226.324,396.093 234.865,430.913 234.865,433.788 C234.865,435.43 235.522,437.894 236.261,439.208 C237.246,441.097 237.575,443.478 237.411,449.063 C237.328,453.169 236.918,456.7 236.589,457.111 C236.261,457.44 234.454,457.193 232.647,456.536 C228.377,455.058 226.652,456.043 225.913,460.642 L225.42,463.845 L206.121,463.845 L186.822,463.845 L186.412,460.56 C186.001,457.44 185.837,457.275 183.127,457.193 C178.528,457.029 178.035,456.947 178.61,456.043 C178.938,455.551 178.774,453.251 178.281,450.87 C177.789,448.57 177.214,444.218 176.967,441.261 C176.721,438.305 175.982,429.353 175.325,421.305 C174.668,413.257 174.093,404.716 174.093,402.252 C174.093,399.788 173.764,397.653 173.354,397.325 C172.861,397.078 169.494,399.049 165.716,401.677 C161.939,404.387 157.832,406.851 156.601,407.262 C154.712,407.919 153.973,408.986 152.823,412.353 C150.523,419.005 148.47,420.73 142.804,420.73 C139.929,420.73 137.958,420.319 137.794,419.745 C137.548,419.17 136.809,419.005 135.987,419.334 C134.756,419.827 134.591,420.566 135.084,425.411 C135.413,428.532 135.987,432.638 136.398,434.609 C136.891,436.58 137.384,441.59 137.712,445.778 L138.205,453.333 L133.442,461.299 C130.157,466.637 128.35,468.937 127.775,468.362 C126.297,466.884 121.862,467.377 120.63,469.183 C119.809,470.497 118.084,471.072 114.06,471.647 C111.022,472.058 107.573,472.797 106.423,473.289 C105.191,473.7 102.809,474.111 101.167,474.111 C99.442,474.111 96.979,474.439 95.665,474.85 C94.268,475.178 88.848,475.835 83.592,476.164 C74.066,476.739 73.984,476.739 71.931,474.603 z M197.498,153.006 C197.252,152.595 196.431,152.185 195.774,152.185 C195.117,152.185 194.624,152.595 194.624,153.006 C194.624,153.499 195.363,153.827 196.349,153.827 C197.252,153.827 197.745,153.499 197.498,153.006 z M106.751,144.629 C106.751,141.837 105.519,140.523 103.384,140.851 C100.592,141.262 100.428,143.644 103.22,145.122 C106.341,146.847 106.751,146.764 106.751,144.629 z M95.582,109.48 C96.239,102.746 98.21,94.205 101.824,82.79 C104.862,73.099 106.259,65.79 105.519,62.916 C105.027,60.781 104.862,60.698 103.877,62.095 C102.645,63.819 98.949,74.742 98.21,79.094 C97.882,80.655 96.568,84.925 95.254,88.538 C92.462,96.258 91.066,111.287 92.79,115.639 C94.104,119.006 94.925,117.282 95.582,109.48 z M160.132,97.572 C160.132,96.34 158.9,93.137 153.151,79.915 C151.509,76.056 149.538,71.292 148.881,69.239 C148.142,67.186 146.828,64.476 145.924,63.162 C144.364,60.945 144.2,60.863 143.132,62.341 C140.668,65.79 142.393,72.196 150.277,88.374 C153.644,95.273 156.601,98.804 158.982,98.804 C159.639,98.804 160.132,98.229 160.132,97.572 z" fill="#000000"/>
  </g>
</svg>
