<?xml version="1.0" encoding="UTF-8"?>
<!DOCTYPE svg PUBLIC "-//W3C//DTD SVG 1.1//EN" "http://www.w3.org/Graphics/SVG/1.1/DTD/svg11.dtd">
<svg version="1.1" xmlns="http://www.w3.org/2000/svg" xmlns:xlink="http://www.w3.org/1999/xlink" x="0" y="0" width="500" height="500" viewBox="0, 0, 500, 500">
  <g id="layer101">
    <path d="M146.254,458.379 C139.207,452.483 134.893,444.717 130.003,428.611 C126.408,416.243 125.401,414.661 119.074,409.196 C115.191,406.033 112.171,402.15 112.171,400.712 C112.171,397.692 124.107,379.859 132.448,370.224 C135.324,367.06 140.07,360.014 142.946,354.693 C147.979,345.633 148.698,344.914 153.3,344.914 C158.909,344.914 160.059,343.332 163.223,331.108 C164.373,326.65 166.243,321.904 167.393,320.61 C168.544,319.316 173.29,307.811 178.179,294.868 C183.069,281.926 187.814,269.989 188.965,268.408 C192.991,262.655 186.52,253.02 180.192,255.321 C178.754,255.752 175.447,258.772 172.714,261.792 C166.962,268.551 161.353,271.571 155.026,271.571 C151.431,271.571 149.417,272.578 146.685,276.029 C143.377,279.912 141.795,280.487 131.585,281.782 C123.532,282.788 119.217,284.083 117.204,286.096 C114.472,288.828 114.472,288.828 119.217,297.601 C123.244,305.079 123.963,307.38 123.388,313.276 C122.957,317.159 121.662,321.904 120.224,323.918 C117.492,328.376 103.686,335.566 93.044,338.299 C83.841,340.743 80.533,339.593 72.336,331.683 L66.296,325.787 L60.112,328.088 C53.641,330.389 50.621,330.964 44.725,330.677 C40.123,330.533 29.049,319.172 27.899,313.563 C26.748,307.524 25.167,306.517 14.237,304.072 C4.458,301.771 0,298.176 0,292.567 C0,288.397 2.013,286.096 10.498,280.2 C17.113,275.454 17.257,275.31 17.257,267.401 C17.257,256.615 19.27,253.308 29.481,247.987 C34.227,245.398 39.835,241.803 42.136,239.933 C46.019,236.626 47.457,231.305 44.437,231.305 C43.574,231.305 43.143,230.298 43.43,229.004 C44.149,225.409 55.654,221.382 65.721,221.382 C71.904,221.238 76.506,220.232 80.533,218.218 C86.429,215.198 91.031,215.054 102.248,217.787 L105.987,218.65 L106.994,203.981 C107.569,195.928 108.576,188.018 109.295,186.293 C109.87,184.567 115.191,177.952 121.087,171.48 C126.839,165.153 136.618,153.936 142.946,146.745 C151.718,136.535 156.033,132.796 161.929,130.063 C166.243,128.05 171.852,124.886 174.44,122.873 C177.172,120.86 179.761,119.134 180.192,119.134 C183.931,119.134 197.306,112.519 198.744,110.074 C200.757,106.479 202.627,96.268 203.777,84.045 C204.352,76.998 203.921,74.985 201.476,71.533 C199.75,69.376 198.456,66.069 198.456,64.199 C198.456,57.871 204.784,49.531 214.131,43.347 C221.897,38.026 224.198,37.163 230.526,37.163 C238.147,37.163 244.475,39.895 251.234,46.079 C254.11,48.812 254.254,49.818 253.535,63.624 C252.528,81.168 254.685,88.359 261.301,89.653 C263.458,90.085 267.628,91.091 270.504,91.81 C273.381,92.673 277.263,93.248 279.277,93.248 C281.29,93.248 284.885,94.255 287.33,95.549 C289.775,96.7 297.684,98.282 304.875,99.145 C312.065,99.864 319.975,101.302 322.563,102.308 C333.636,107.054 346.292,128.194 346.723,143.15 C347.586,167.166 347.298,171.768 344.566,175.795 C342.409,179.246 342.265,180.684 343.559,186.58 C344.566,190.176 346.148,195.209 347.154,197.51 C350.606,204.988 353.626,213.185 355.208,219.369 C356.214,223.539 358.947,227.71 363.836,232.599 C367.863,236.626 371.027,240.365 371.027,241.228 C371.027,241.947 369.301,244.535 367.288,246.98 C365.274,249.425 363.836,252.589 364.124,253.883 C364.555,256.184 367,256.615 384.689,257.334 C395.762,257.766 406.835,258.916 409.136,259.779 C411.581,260.786 417.046,262.368 421.504,263.662 C430.132,265.963 435.165,270.133 433.727,273.728 C433.296,274.879 429.845,277.324 426.105,278.906 C422.366,280.487 418.771,282.501 418.34,283.364 C417.046,285.377 420.785,294.437 424.667,298.607 C432.433,307.092 448.971,312.413 457.168,308.962 C462.345,306.948 464.646,302.634 465.797,294.005 C466.66,287.246 467.091,286.527 472.268,284.083 C476.726,281.926 479.602,281.638 486.505,282.357 C497.722,283.651 501.03,286.815 499.736,295.012 C497.003,313.276 490.1,324.205 478.02,329.958 C470.686,333.409 468.817,333.697 457.6,332.978 C443.794,332.259 427.256,326.362 416.183,318.165 C413.019,315.864 407.267,312.269 403.671,310.4 C399.932,308.386 396.912,306.085 396.912,305.079 C396.912,304.072 395.187,302.203 393.173,300.764 C389.147,297.888 380.662,289.835 375.772,283.939 C372.177,279.625 367.288,279.768 360.96,284.658 C352.044,291.561 349.168,292.28 340.395,289.691 C335.65,288.253 330.329,285.521 327.884,283.076 C322.132,277.467 310.627,277.18 310.627,282.501 C310.627,286.384 316.667,296.738 320.837,300.045 C323.138,301.915 325.008,304.36 325.008,305.51 C325.008,306.661 327.309,312.125 330.041,317.59 C334.643,326.65 335.506,327.657 339.245,327.657 C344.854,327.657 348.017,331.108 348.017,337.004 C348.017,339.737 348.736,343.62 349.599,345.92 C353.338,355.412 354.776,369.937 353.051,379.716 C351.9,385.612 354.201,394.384 357.94,398.698 C359.234,400.136 359.953,401.718 359.81,402.294 C359.522,402.725 358.228,404.882 357.077,406.895 C355.064,410.347 355.064,410.922 357.365,414.373 C358.659,416.531 360.385,418.256 360.96,418.256 C362.973,418.256 372.609,428.754 374.047,432.35 C374.766,434.363 375.772,438.821 376.204,442.129 C376.779,447.449 376.348,448.888 372.896,452.77 C370.451,455.503 366.569,457.804 363.117,458.523 C353.338,460.68 330.473,458.81 317.53,454.784 C302.574,450.901 297.397,446.73 289.775,442.272 C274.531,433.212 271.367,428.754 275.106,422.139 C278.126,416.962 278.126,413.367 275.394,411.066 C272.518,408.621 272.661,400.28 275.969,389.351 C277.407,384.317 278.845,376.264 279.133,371.518 C279.996,351.098 279.708,348.94 277.263,347.215 C275.681,346.208 274.243,346.208 273.381,347.071 C271.367,349.084 265.902,375.257 266.909,378.277 C267.341,379.716 267.053,380.866 266.19,380.866 C265.327,380.866 264.608,382.16 264.608,383.742 C264.608,385.324 263.602,386.618 262.451,386.618 C261.301,386.618 259.719,387.913 258.856,389.495 C257.849,391.508 255.836,392.371 252.528,392.371 C248.933,392.371 247.495,393.09 246.92,395.247 C246.344,397.692 244.906,398.123 239.01,398.123 C234.408,398.123 231.245,397.404 230.094,395.966 C229.087,394.815 227.074,393.809 225.78,393.809 C219.308,393.809 218.733,392.658 219.452,382.592 C220.171,373.676 220.027,373.1 218.014,375.689 C216.72,377.271 215.713,379.284 215.713,380.291 C215.713,382.16 206.797,399.993 202.483,406.752 C191.41,424.44 186.664,431.199 185.657,431.199 C184.219,431.199 181.199,437.67 181.199,440.69 C181.199,441.841 179.617,446.299 177.748,450.326 C173.865,458.954 167.681,462.837 157.758,462.837 C153.013,462.837 150.424,461.83 146.254,458.379 z M222.904,364.184 C224.917,359.007 230.094,334.991 230.094,331.108 C230.094,326.075 227.649,325.643 224.773,330.102 C223.047,332.69 222.328,336.429 222.472,341.175 C222.616,346.927 221.897,349.228 219.165,352.536 C215.282,357.281 214.994,358.719 217.583,364.04 C219.74,368.93 221.178,368.93 222.904,364.184 z M316.092,255.465 C316.379,254.027 314.941,250.863 313.072,248.274 C311.058,245.686 308.47,241.084 307.176,238.208 C306.025,235.188 304.299,232.743 303.437,232.743 C298.979,232.743 295.383,255.896 299.554,257.766 C300.417,258.197 304.443,258.341 308.47,258.197 C313.935,257.909 315.804,257.334 316.092,255.465 z" fill="#000000"/>
  </g>
</svg>
