<?xml version="1.0" encoding="UTF-8"?>
<!DOCTYPE svg PUBLIC "-//W3C//DTD SVG 1.1//EN" "http://www.w3.org/Graphics/SVG/1.1/DTD/svg11.dtd">
<svg version="1.1" xmlns="http://www.w3.org/2000/svg" xmlns:xlink="http://www.w3.org/1999/xlink" x="0" y="0" width="500" height="500" viewBox="0, 0, 500, 500">
  <g id="layer102">
    <path d="M280.768,491.522 C280.982,490.027 280.875,485.752 280.447,482.013 C279.913,476.672 279.273,475.069 277.776,474.642 C273.823,473.573 274.144,463.744 278.311,461.073 C279.7,460.219 283.76,459.364 287.499,459.15 L294.337,458.829 L294.016,451.885 C293.696,445.795 291.559,434.043 288.567,421.971 C288.033,419.941 286.858,414.384 285.897,409.684 C283.119,394.941 279.059,376.884 276.601,368.017 C271.046,347.504 270.619,343.872 273.504,340.026 C276.281,336.18 276.708,325.282 274.251,319.405 C271.367,312.461 275.32,292.696 279.486,292.696 C280.341,292.696 281.196,291.521 281.623,290.025 C282.264,287.568 282.05,285.858 280.341,277.632 C279.7,274.961 280.02,274.641 285.255,273.572 C293.054,271.863 294.764,270.688 297.114,265.452 C298.61,262.034 299.892,260.751 302.136,260.325 C303.952,260.004 306.623,258.081 308.332,255.837 C310.042,253.701 313.14,249.961 315.17,247.504 C320.832,240.773 323.717,236.286 323.717,234.683 C323.717,233.828 324.572,232.012 325.64,230.73 C327.563,228.38 327.884,228.38 334.508,229.555 C338.354,230.196 343.482,230.73 345.939,230.73 C348.29,230.73 350.534,231.157 350.854,231.691 C351.282,232.226 353.952,232.973 356.944,233.401 C360.255,233.828 363.034,235.004 364.315,236.393 C365.491,237.567 368.482,238.85 370.939,239.277 C380.235,240.88 394.978,243.657 404.38,245.687 C409.722,246.863 417.093,248.251 420.94,248.893 C431.623,250.709 439.316,252.204 442.841,253.166 C444.658,253.701 449.466,254.555 453.525,255.303 C457.692,255.944 466.132,257.44 472.329,258.508 C486.325,261.179 488.355,261.179 491.56,258.721 C492.948,257.653 494.871,256.478 495.833,256.157 C497.649,255.41 500,248.679 500,243.764 C500,240.666 496.688,236.072 494.445,236.072 C494.017,236.072 493.59,235.431 493.59,234.576 C493.59,232.76 488.248,230.73 483.547,230.73 C481.731,230.624 477.351,229.875 473.824,229.02 C470.299,228.059 464.53,226.884 461.005,226.457 C457.478,225.922 451.175,224.747 447.115,223.893 C439.744,222.183 436.217,221.649 425.64,220.153 C419.978,219.405 416.667,217.589 416.667,215.239 C416.667,213.529 409.829,211.499 396.367,209.363 C393.162,208.828 387.606,207.973 384.081,207.333 C378.205,206.264 377.457,206.371 373.931,208.721 C371.901,210.11 369.23,211.606 367.948,211.926 C365.491,212.674 357.692,211.393 348.824,208.828 L342.948,207.119 L342.948,198.037 L342.948,188.956 L348.29,183.721 C354.166,177.952 354.914,175.174 352.029,168.336 C350.534,164.918 349.999,164.49 346.367,164.49 C342.093,164.49 334.935,160.217 334.935,157.759 C334.935,155.943 338.568,155.516 341.559,157.118 C345.405,159.149 346.153,157.439 344.978,150.067 C344.337,146.542 343.482,140.345 343.055,136.178 C342.521,132.118 340.918,124.96 339.315,120.473 C337.82,115.986 336.538,111.499 336.538,110.644 C336.538,109.682 336.004,107.866 335.255,106.478 C332.584,101.135 332.264,100.28 332.264,96.22 C332.264,93.871 331.837,91.627 331.196,91.306 C330.661,90.986 330.128,88.208 330.128,85.217 C330.128,80.195 329.807,79.554 325.32,75.601 C320.832,71.648 317.307,65.879 317.307,62.353 C317.307,61.498 315.598,58.186 313.461,55.088 C309.507,49.105 300.427,42.161 295.832,41.412 C293.268,41.093 293.268,40.986 293.696,31.477 C293.909,26.135 294.764,20.579 295.512,18.977 C297.435,15.238 297.435,10.216 295.405,8.507 C294.551,7.758 293.803,6.584 293.803,5.942 C293.696,3.806 288.567,0.921 283.332,0.173 C275.106,-1.002 272.542,-0.361 270.084,3.806 C268.909,5.835 267.306,7.439 266.452,7.439 C264.315,7.439 264.422,16.84 266.666,19.297 C267.627,20.365 268.482,22.823 268.482,24.746 L268.696,28.272 L261.858,28.272 C255.234,28.272 255.02,28.165 253.097,24.639 C252.029,22.609 249.678,19.511 247.862,17.588 C244.657,14.383 244.443,14.276 238.033,15.024 C234.507,15.451 227.456,15.879 222.542,15.879 C217.52,15.985 213.139,16.199 212.712,16.412 C211.003,17.481 177.242,18.335 175.96,17.374 C175.319,16.733 171.045,16.412 166.665,16.412 C158.759,16.519 158.545,16.519 154.699,20.793 C152.456,23.143 150.639,25.921 150.639,26.883 C150.639,29.661 146.687,32.759 142.199,33.507 C138.994,34.041 138.033,34.682 136.964,37.673 C136.216,39.596 135.682,42.268 135.682,43.549 C135.682,46.541 133.652,46.541 128.097,43.656 L123.716,41.519 L113.139,44.939 C107.37,46.755 102.562,48.678 102.562,49.212 C102.562,49.639 100.852,52.203 98.822,54.874 C96.793,57.652 95.083,60.537 95.083,61.392 C95.083,62.566 93.908,62.994 90.81,62.994 C85.575,62.994 74.891,66.84 72.434,69.511 C71.472,70.58 70.297,71.541 69.656,71.541 C68.374,71.541 59.186,82.118 53.31,90.558 C48.395,97.717 46.472,101.028 42.733,109.148 C41.558,111.926 40.062,114.49 39.421,114.811 C38.887,115.238 38.459,116.413 38.459,117.588 C38.459,120.259 30.767,136.605 29.591,136.605 C28.417,136.712 26.6,138.849 24.784,141.948 C19.549,151.028 19.228,151.99 19.228,157.866 C19.228,161.286 18.588,166.52 17.733,169.405 C15.382,177.845 12.925,190.132 12.071,198.144 C10.574,213.636 11.964,270.688 13.994,272.932 C14.527,273.465 14.955,274.641 14.955,275.602 C14.955,276.671 15.81,279.021 16.771,281.051 C18.694,284.79 19.976,297.183 18.908,301.457 C18.267,303.701 12.39,306.586 8.437,306.586 C7.049,306.586 3.417,310.325 1.28,313.85 C-0.11,316.414 -0.536,336.499 0.852,336.499 C1.28,336.499 2.241,339.171 2.989,342.376 C5.019,350.923 12.177,364.064 17.626,369.086 C26.066,376.884 28.844,378.701 37.711,381.692 C46.899,384.897 51.066,385.004 61.964,382.334 C66.237,381.265 67.733,381.479 76.707,384.471 C82.156,386.287 89.314,389.278 92.733,390.987 C96.045,392.697 101.814,395.581 105.447,397.397 C113.139,401.137 112.819,400.496 114.421,417.697 C114.956,424.428 115.703,432.548 116.023,435.645 C116.772,442.697 114.849,445.261 105.874,448.787 C98.61,451.672 96.259,453.488 94.443,457.975 C93.588,459.898 91.879,462.035 90.596,462.675 C87.284,464.385 86.536,465.667 86.536,470.154 C86.536,475.71 91.879,479.663 100.852,480.731 C104.379,481.266 110.468,482.441 114.314,483.403 C119.443,484.684 125.853,485.112 138.674,485.112 C148.182,485.112 156.515,484.791 157.05,484.471 C157.584,484.15 161.858,483.403 166.558,482.868 C172.114,482.227 176.281,481.159 178.097,479.769 C179.806,478.702 182.798,477.419 185.042,477.099 C187.178,476.672 190.49,474.962 192.627,472.932 C196.152,469.727 196.366,469.192 195.618,465.24 C195.084,462.889 194.122,459.684 193.375,458.082 C191.772,454.556 193.375,449.535 197.007,446.971 C199.037,445.582 199.251,444.513 198.93,436.607 C198.716,430.518 197.649,424.855 195.512,417.804 C193.695,412.248 192.306,407.013 192.306,406.051 C192.306,404.021 186.11,386.927 180.234,372.611 C177.776,366.628 176.174,360.966 175.853,356.586 C175.105,347.504 173.716,341.414 171.473,337.996 C170.298,336.18 169.87,334.256 170.404,332.333 C171.793,326.457 173.182,318.551 174.465,308.828 L175.746,298.786 L181.408,297.397 C184.614,296.542 188.139,295.153 189.421,294.298 C190.704,293.337 194.015,292.696 197.221,292.696 C202.562,292.696 202.776,292.803 203.524,296.221 C205.447,305.41 205.341,310.004 203.204,314.491 C199.144,322.932 198.396,325.709 199.144,331.479 C199.465,334.47 200.105,339.812 200.426,343.23 L201.174,349.32 L205.341,349.32 L209.507,349.32 L208.866,362.461 C207.691,388.53 206.729,460.966 207.691,462.355 C208.226,462.996 210.682,463.637 213.246,463.637 C219.229,463.637 220.619,466.629 216.559,470.903 C212.819,474.855 210.789,483.189 212.605,486.714 C213.888,488.958 214.849,489.279 220.512,489.385 C232.37,489.706 237.606,490.027 253.524,491.736 C262.285,492.59 269.764,493.659 270.084,494.086 C270.405,494.406 272.969,494.62 275.64,494.406 C279.807,494.086 280.447,493.766 280.768,491.522 z" fill="#000000"/>
  </g>
</svg>
