<?xml version="1.0" encoding="UTF-8"?>
<!DOCTYPE svg PUBLIC "-//W3C//DTD SVG 1.1//EN" "http://www.w3.org/Graphics/SVG/1.1/DTD/svg11.dtd">
<svg version="1.1" xmlns="http://www.w3.org/2000/svg" xmlns:xlink="http://www.w3.org/1999/xlink" x="0" y="0" width="500" height="500" viewBox="0, 0, 500, 500">
  <g id="Layer_1">
    <path d="M-0.021,-1.029 C65.728,-1.019 131.477,-1.01 197.227,-1 L197.227,90.775 C137.419,112.67 96.34,171.188 96.458,234.958 C96.458,319.757 165.201,388.5 250,388.5 C334.799,388.5 403.542,319.757 403.542,234.958 C402.729,170.793 363.709,112.751 302.773,90.775 L302.773,-0.985 C368.523,-0.976 434.272,-0.971 500.021,-0.971 C500.021,41.235 500.021,51.456 500.021,93.661 C467.255,93.661 451.488,93.602 418.722,93.602 C418.367,93.602 418.07,93.839 417.833,93.898 C423.758,100.469 429.861,106.624 435.313,113.372 C483.484,172.98 500.016,240.579 484.314,315.399 C463.457,414.667 381.867,487.949 279.005,499.254 C273.258,499.905 267.451,500.379 261.644,500.971 C254.119,500.971 246.653,500.971 239.128,500.971 C238.18,500.793 237.232,500.556 236.224,500.497 C221.826,499.669 207.547,497.715 193.503,494.46 C72.747,466.521 -2.977,354.171 13.08,232.233 C20.072,179.195 43.536,134.031 81.22,96.147 C81.872,95.496 82.465,94.785 83.472,93.661 C81.931,93.661 80.924,93.661 79.977,93.661 C24.753,93.543 20.48,93.602 -0.021,93.602 L-0.021,-1.029 z" fill="#000000"/>
  </g>
</svg>
