<?xml version="1.0" encoding="UTF-8"?>
<!DOCTYPE svg PUBLIC "-//W3C//DTD SVG 1.1//EN" "http://www.w3.org/Graphics/SVG/1.1/DTD/svg11.dtd">
<svg version="1.1" xmlns="http://www.w3.org/2000/svg" xmlns:xlink="http://www.w3.org/1999/xlink" x="0" y="0" width="500" height="500" viewBox="0, 0, 500, 500">
  <g id="layer102">
    <path d="M194.683,493.157 C195.825,489.355 198.485,483.272 200.386,479.849 C202.287,476.049 206.47,448.676 209.51,419.021 C216.355,355.531 221.297,330.818 228.902,324.355 C233.081,320.932 234.223,321.311 234.223,325.873 C234.223,338.04 261.596,339.941 269.581,328.537 C273.763,322.453 275.664,321.694 278.704,325.494 C285.93,334.62 288.21,345.645 295.053,406.475 C298.855,439.932 304.177,474.528 307.22,483.651 L312.161,500 L355.883,498.858 C397.322,497.719 399.603,497.339 398.464,490.114 C397.701,485.932 396.562,475.667 396.183,467.305 C394.282,445.633 365.007,361.611 351.701,340.703 C345.618,331.197 340.673,320.173 340.673,315.99 C340.673,308.386 329.649,279.873 315.964,252.12 C306.457,233.111 307.22,219.422 317.865,204.216 C326.609,192.429 333.831,192.049 335.352,203.074 C336.491,208.398 339.535,222.463 342.575,234.629 C345.998,247.176 347.14,263.145 345.998,271.129 C342.195,293.938 361.204,304.966 375.272,288.237 C379.075,283.673 380.593,220.182 377.553,189.768 C376.794,184.444 379.834,181.784 388.198,180.262 C395.803,178.743 399.223,176.083 398.084,172.28 C397.322,169.237 396.183,164.296 395.42,161.253 C394.661,157.833 399.223,152.129 406.448,147.947 C417.473,141.104 418.995,138.061 420.893,117.533 C422.035,104.987 421.655,88.638 419.754,81.416 C418.232,74.191 416.714,56.703 416.714,43.015 C416.714,5.759 410.63,-0.325 374.13,0.055 C337.633,0.435 314.062,11.08 314.062,28.188 C314.062,40.734 308.359,46.058 300.757,39.595 C295.053,34.651 209.889,35.793 199.627,40.734 C194.683,43.398 192.781,41.117 190.88,30.469 C188.599,19.444 185.179,15.262 172.254,8.419 C153.244,-1.084 115.226,-2.985 100.016,4.996 C88.232,11.08 85.951,18.685 85.951,51.379 C85.951,65.067 84.05,82.175 81.389,89.018 C78.346,98.145 78.346,102.327 81.389,103.466 C83.67,104.225 84.429,109.929 83.287,117.533 C80.627,133.5 89.371,148.709 103.059,152.129 C112.562,154.41 115.605,162.774 108.763,166.956 C101.537,171.518 104.96,180.262 113.704,180.262 C128.911,180.262 129.67,184.064 127.772,233.49 C125.488,283.673 127.389,291.277 143.358,295.46 C155.525,298.503 163.127,287.475 160.466,270.747 C159.328,263.145 160.087,248.318 162.368,238.432 C164.649,228.166 167.309,214.101 168.451,206.876 C171.112,189.009 171.871,188.626 183.278,199.654 C195.062,211.818 201.908,237.672 194.303,241.855 C189.362,244.895 172.633,285.194 167.309,307.247 C165.791,312.947 160.087,327.015 154.003,338.04 C139.936,364.654 108,461.602 110.281,470.725 C111.423,474.907 110.281,481.37 108.38,485.173 C106.479,488.975 105.719,493.917 106.861,495.818 C108,498.099 127.772,499.62 150.963,499.62 C187.46,499.62 192.781,498.858 194.683,493.157 z" fill="#000000"/>
  </g>
</svg>
