<?xml version="1.0" encoding="UTF-8"?>
<!DOCTYPE svg PUBLIC "-//W3C//DTD SVG 1.1//EN" "http://www.w3.org/Graphics/SVG/1.1/DTD/svg11.dtd">
<svg version="1.1" xmlns="http://www.w3.org/2000/svg" xmlns:xlink="http://www.w3.org/1999/xlink" x="0" y="0" width="500" height="500" viewBox="0, 0, 500, 500">
  <g id="Layer_1">
    <path d="M0.632,118.599 C0.632,79.084 0.632,39.57 0.632,-0 C74.174,-0 147.661,-0 221.204,-0 C221.315,0.887 221.481,1.829 221.481,2.716 C221.481,36.688 221.481,70.661 221.536,104.689 C221.536,106.739 220.816,107.46 218.932,108.014 C169.441,122.368 137.187,154.456 125.77,204.5 C114.243,254.932 129.04,298.493 168.555,332.243 C197.539,357.016 231.567,367.38 269.641,361.117 C339.581,349.59 386.633,284.638 376.491,214.254 C369.176,163.378 331.213,120.927 281.445,108.125 C279.007,107.515 278.564,106.407 278.564,104.19 C278.619,70.55 278.619,36.965 278.619,3.325 C278.619,2.217 278.785,1.108 278.896,0.055 C352.439,0.055 425.926,0.055 499.468,0.055 C499.468,39.57 499.468,79.14 499.468,118.654 C468.821,118.654 438.173,118.599 407.526,118.599 C407.194,118.599 406.917,118.821 406.695,118.876 C412.237,125.028 417.945,130.791 423.044,137.109 C468.1,192.917 483.563,256.207 468.876,326.258 C449.368,419.198 373.055,487.808 276.846,498.393 C271.47,499.002 266.039,499.446 260.608,500 C253.569,500 246.586,500 239.548,500 C238.661,499.834 237.774,499.612 236.832,499.557 C223.365,498.781 210.009,496.952 196.874,493.904 C83.928,467.746 13.101,362.558 28.12,248.393 C34.66,198.736 56.606,156.451 91.853,120.982 C92.463,120.372 93.017,119.707 93.959,118.654 C92.518,118.654 91.576,118.654 90.69,118.654 C79.883,118.654 69.076,118.654 58.269,118.654 C39.038,118.544 19.807,118.599 0.632,118.599 z" fill="#000000"/>
  </g>
</svg>
