<?xml version="1.0" encoding="UTF-8"?>
<!DOCTYPE svg PUBLIC "-//W3C//DTD SVG 1.1//EN" "http://www.w3.org/Graphics/SVG/1.1/DTD/svg11.dtd">
<svg version="1.1" xmlns="http://www.w3.org/2000/svg" xmlns:xlink="http://www.w3.org/1999/xlink" x="0" y="0" width="500" height="500" viewBox="0, 0, 500, 500">
  <g id="layer101">
    <path d="M120.384,477.377 C109.088,476.488 104.646,474.204 104.646,469.127 C104.646,461.258 111.754,442.729 117.084,436.383 C120.003,432.829 118.1,430.291 112.388,430.291 C108.581,430.291 106.804,429.529 105.408,427.499 C102.616,423.437 102.87,420.391 106.55,416.076 C108.327,414.046 109.85,411.127 109.977,409.604 C110.485,402.242 110.231,390.947 109.596,390.947 C109.215,390.947 107.819,392.216 106.423,393.612 C101.347,399.323 78.882,415.061 75.836,415.061 C72.917,415.061 63.272,421.407 54.007,429.403 C47.915,434.606 39.158,438.287 36.619,436.891 C32.812,434.733 5.398,403.131 3.494,398.562 C0.829,392.343 2.098,383.459 7.048,374.702 C11.109,367.34 30.4,346.526 33.066,346.526 C33.954,346.526 38.396,350.588 43.092,355.664 C50.58,363.787 51.469,365.31 51.088,368.99 C50.58,372.798 50.834,373.179 54.134,373.179 C56.164,373.179 58.068,372.29 58.449,371.275 C59.718,368.229 54.134,356.68 48.042,349.699 C36.746,336.754 36.365,336.373 32.685,336.373 C30.654,336.373 24.689,333.708 18.47,329.773 C7.429,322.92 3.24,317.462 3.113,309.594 C3.113,307.69 2.225,304.136 1.21,301.725 C-1.963,294.11 0.829,289.922 12.886,283.83 C16.44,282.053 20.882,278.753 22.532,276.468 C26.085,271.519 41.188,241.693 41.188,239.282 C41.188,238.394 42.584,235.601 44.361,233.063 L47.407,228.494 L43.092,226.717 C39.792,225.321 38.65,224.052 38.65,221.768 C38.65,217.96 48.423,204.126 55.911,197.146 C60.987,192.45 61.622,191.181 60.86,188.262 C60.48,186.231 59.972,183.439 59.972,181.916 C59.972,177.981 67.206,169.224 72.79,166.432 C78.882,163.259 82.944,158.69 84.974,152.979 C88.147,143.587 83.451,139.145 74.06,142.191 C68.729,143.968 68.729,143.968 65.175,139.653 C59.845,133.307 51.342,116.3 51.342,112.112 C51.342,109.447 52.865,107.035 56.799,103.228 C61.241,99.04 64.414,97.39 75.456,93.963 C95.128,87.998 93.859,88.759 95.508,81.144 C96.27,77.337 97.285,71.626 97.666,68.453 C98.428,62.488 101.22,58.934 108.835,54.238 C112.896,51.7 113.15,48.781 109.723,44.466 C106.296,40.024 106.423,33.551 110.104,31.266 C114.419,28.601 134.472,27.586 139.802,29.87 C146.148,32.536 147.417,32.282 148.813,28.093 C150.209,24.032 151.098,23.778 166.074,22.255 C173.435,21.621 173.816,21.748 182.319,27.332 C191.33,33.297 195.138,37.993 197.295,45.862 C198.564,50.558 200.468,52.081 205.037,52.081 C206.306,52.081 209.606,53.984 212.144,56.396 C218.617,62.107 221.156,62.615 232.07,60.965 C246.793,58.553 261.642,62.615 264.561,69.976 C266.972,75.687 265.322,89.14 261.388,96.121 C259.738,99.293 258.596,102.339 258.977,102.974 C259.992,104.751 266.465,104.37 270.399,102.213 C281.821,96.247 301.24,105.766 324.211,128.357 C330.684,134.703 336.269,139.145 338.807,139.78 C341.091,140.414 345.28,143.46 348.199,146.633 C354.037,152.979 354.544,156.279 351.498,165.163 C350.356,168.209 349.849,171.382 350.102,172.27 C351.245,174.936 355.941,174.174 357.21,171.128 C358.733,167.447 366.602,145.872 371.424,132.672 C373.328,127.088 376.247,121.504 377.897,120.235 C379.42,118.839 387.543,114.016 395.919,109.447 C409.753,101.832 411.784,101.07 418.764,101.07 C425.998,100.943 427.775,101.578 445.416,110.589 C476.257,126.327 493.898,137.749 498.848,145.491 C501.006,148.791 500.498,152.091 494.152,173.666 C492.756,178.108 492.122,182.297 492.502,183.058 C492.883,183.693 491.868,186.358 490.218,188.896 C485.903,195.369 470.165,234.459 470.165,238.647 C470.165,240.551 469.023,243.597 467.627,245.374 C466.231,247.151 461.916,255.908 457.981,264.919 C448.082,287.51 446.051,292.841 446.051,296.267 C446.051,297.917 445.163,299.948 444.02,300.963 C440.213,304.136 423.587,341.957 422.318,350.334 C421.937,352.745 420.287,356.172 418.764,357.949 C415.591,361.629 400.996,396.912 399.727,404.273 C399.219,407.065 398.077,410.238 397.061,411.254 C395.031,413.665 387.67,429.149 387.67,431.179 C387.67,433.337 380.943,436.637 376.628,436.637 C372.44,436.637 364.444,431.052 354.671,421.407 C350.737,417.599 343.63,411.761 338.807,408.588 C316.596,393.866 313.931,392.597 312.281,396.658 C311.901,397.673 310.505,398.562 309.235,398.562 C305.936,398.562 299.844,403.512 300.351,405.796 C300.605,406.938 306.443,411.38 313.424,415.696 C327.257,424.326 334.619,432.322 337.03,441.079 C337.792,443.871 338.934,446.79 339.441,447.425 C340.076,448.186 338.172,451.359 334.872,455.293 L329.288,461.766 L318.754,462.655 C310.631,463.289 303.651,462.781 286.137,460.116 C257.707,455.801 255.677,455.293 251.108,450.344 C245.904,444.759 245.143,442.221 247.554,438.414 C250.092,434.733 249.458,433.718 239.939,424.96 L233.466,418.995 L232.832,407.319 L232.197,395.516 L225.598,395.135 C219.759,394.881 218.744,395.135 216.713,398.054 C208.972,409.096 206.306,410.492 199.58,407.319 C197.549,406.431 195.518,406.431 193.234,407.319 C190.188,408.461 189.934,409.096 190.569,412.903 C192.092,422.549 181.304,440.317 174.45,439.429 C170.389,438.794 167.978,442.221 168.993,447.298 C169.374,449.455 170.262,451.74 170.77,452.501 C174.323,456.309 170.262,460.751 154.778,470.65 C143.229,478.011 138.787,478.9 120.384,477.377 z M110.738,358.964 C111.5,358.203 112.261,356.553 112.261,355.41 C112.261,354.141 113.657,351.349 115.561,349.191 C118.48,345.765 118.607,344.876 117.338,340.307 C116.323,336.373 116.45,334.215 117.846,330.408 C120.638,322.793 124.065,302.74 124.826,288.906 L125.588,276.215 L129.903,275.199 C133.837,274.057 133.964,273.93 131.933,271.646 C130.791,270.376 128.126,268.6 126.095,267.838 C123.557,266.696 122.034,265.046 121.399,262.254 C120.638,259.208 118.988,257.685 114.419,255.273 C111.119,253.75 106.677,252.227 104.393,252.101 C100.966,251.974 100.077,252.481 99.824,254.766 C99.316,258.193 95.001,261.492 91.193,261.492 C87.259,261.492 85.609,264.158 86.37,269.234 C87.005,272.915 86.624,274.184 83.578,276.849 C68.095,290.556 60.226,298.933 60.226,301.852 C60.226,303.502 59.21,308.578 58.068,313.02 C54.515,326.22 57.561,328.123 71.648,321.397 C76.725,318.858 80.659,317.97 85.99,317.97 C92.843,317.97 93.732,318.351 97.158,322.158 C101.474,326.854 101.981,333.2 98.935,340.561 C96.651,345.892 96.397,355.791 98.428,359.472 C99.57,361.629 100.585,361.883 104.393,361.122 C107.058,360.614 109.85,359.726 110.738,358.964 z M84.847,337.261 C87.005,331.296 80.786,329.9 75.963,335.231 C74.187,337.134 74.06,337.896 75.456,339.546 C78.121,342.719 83.451,341.45 84.847,337.261 z M303.651,315.432 C305.936,309.086 308.347,302.613 308.982,300.836 C309.616,299.06 311.139,294.871 312.535,291.318 C321.8,267.711 330.557,243.597 330.557,241.947 C330.557,240.805 328.907,239.536 326.496,238.901 C322.562,237.886 322.308,237.505 322.688,232.936 C323.069,229.002 322.435,227.479 319.389,224.687 C317.104,222.656 313.424,220.879 309.997,220.372 C307.078,219.864 302.382,218.087 299.844,216.31 C295.021,213.264 294.513,211.741 295.021,204.253 C295.148,200.319 293.879,199.303 284.614,195.75 C276.364,192.704 274.714,193.592 274.968,200.699 C275.095,206.918 273.445,213.391 270.653,217.452 C267.226,222.275 268.115,225.067 273.445,226.083 C278.395,227.098 281.06,230.144 281.06,234.713 C281.06,236.49 283.091,242.074 285.629,247.151 C290.833,257.177 290.706,260.096 285.502,266.315 C283.725,268.473 282.329,271.392 282.329,272.788 C282.329,276.088 279.41,282.053 276.745,284.21 C273.445,287.003 274.333,292.333 278.522,296.394 C281.821,299.567 282.329,300.963 282.329,307.055 C282.329,313.782 282.583,314.29 288.929,320.762 C292.609,324.57 296.544,327.362 297.559,327.235 C298.574,326.981 301.24,322.031 303.651,315.432 z" fill="#000000"/>
  </g>
</svg>
