<?xml version="1.0" encoding="UTF-8"?>
<!DOCTYPE svg PUBLIC "-//W3C//DTD SVG 1.1//EN" "http://www.w3.org/Graphics/SVG/1.1/DTD/svg11.dtd">
<svg version="1.1" xmlns="http://www.w3.org/2000/svg" xmlns:xlink="http://www.w3.org/1999/xlink" x="0" y="0" width="500" height="500" viewBox="0, 0, 500, 500">
  <g id="layer102">
    <path d="M54.946,90.158 C83.152,93.367 109.697,114.464 130.534,132.24 C167.838,165.089 189.794,201.127 179.574,212.732 C173.084,218.911 162.567,216.032 155.084,213.489 C143.716,209.625 132.965,203.575 123.03,196.905 L123.03,223.224 C124.394,223.313 126.698,222.974 127.889,223.827 C128.226,224.069 128.449,224.454 128.626,224.83 C128.729,225.047 128.676,225.308 128.701,225.548 C128.702,226.712 129.182,227.329 130.278,227.604 C131.1,227.809 151.243,227.878 174.947,227.809 L218.108,227.604 L218.45,219.52 C218.725,212.464 219,211.229 220.095,210.408 C221.123,209.654 224.275,209.449 233.798,209.38 C240.648,209.38 246.814,209.105 247.569,208.831 C248.322,208.49 249.692,208.557 250.514,208.831 C252.227,209.516 257.16,208.557 257.845,207.462 C257.982,207.118 257.982,205.885 257.776,204.721 C257.365,202.939 257.022,202.597 255.31,202.597 C254.008,202.597 252.707,201.98 251.611,200.747 C250.309,199.378 248.939,198.829 245.786,198.35 C243.458,198.076 241.334,197.664 240.992,197.39 C240.648,197.186 240.375,194.992 240.375,192.457 C240.443,188.689 240.717,187.525 242.019,185.88 C243.389,184.236 243.937,183.962 245.582,184.442 C246.678,184.716 248.528,184.854 249.624,184.785 C250.788,184.785 258.53,184.578 266.889,184.373 C279.699,184.1 282.44,184.236 284.152,185.128 C285.66,185.88 288.332,186.154 293.812,186.154 L301.348,186.154 L301.348,184.167 C301.349,183.003 301.759,182.044 302.445,181.77 C303.186,181.557 302.755,181.637 303.754,181.62 C304.461,181.826 304.695,182.253 304.775,182.934 C304.775,184.785 306.281,188.895 307.241,189.923 C307.926,190.607 309.639,190.951 312.38,190.951 L316.42,190.951 L316.42,203.145 L310.803,203.556 C307.652,203.762 301.897,204.104 297.923,204.309 C293.949,204.515 290.319,204.858 289.771,204.995 C288.195,205.611 290.25,207.393 292.512,207.393 C293.539,207.393 294.566,207.666 294.772,207.941 C294.978,208.283 297.444,209.105 300.253,209.79 C304.294,210.818 305.529,211.436 306.076,212.668 C306.488,213.559 307.652,214.587 308.749,214.997 C309.776,215.34 311.352,216.778 312.242,218.217 C314.708,221.917 315.6,222.465 319.298,222.465 C321.833,222.465 322.725,222.74 323.272,223.835 C323.684,224.589 324.711,225.205 325.602,225.205 C326.423,225.205 328.479,226.096 330.191,227.192 C345.333,236.99 345.059,236.852 348.896,236.852 C352.32,236.852 355.473,238.016 355.473,239.25 C355.473,239.73 356.089,240.62 356.773,241.237 C357.802,242.197 358.419,242.264 359.447,241.716 C361.091,240.826 361.432,241.168 365.064,246.581 C366.366,248.567 368.695,251.445 370.202,252.952 C371.71,254.459 374.176,257.542 375.682,259.734 C377.19,261.927 379.383,264.531 380.547,265.626 C381.712,266.654 383.973,269.327 385.479,271.587 C387.056,273.848 388.768,275.904 389.385,276.177 C390.001,276.383 395.414,276.589 401.375,276.589 L412.199,276.589 L412.678,285.085 C412.953,289.674 412.953,294.47 412.747,295.634 C412.199,297.965 413.227,299.06 414.803,297.758 C416.104,296.663 417.268,297.211 426.107,303.307 C437.273,311.118 436.315,309.473 436.315,320.779 C436.315,327.355 436.589,330.712 437.137,331.26 C437.617,331.74 440.014,332.082 443.234,332.082 C450.017,332.082 450.359,331.74 449.811,324.478 C449.469,318.996 449.469,318.996 451.25,318.243 C453.716,317.284 456.732,318.311 471.803,325.299 C474.133,326.396 477.97,328.177 480.367,329.273 C482.697,330.37 487.423,332.561 490.781,334.137 C494.207,335.714 497.632,337.289 498.522,337.632 C499.824,338.111 500.03,338.728 500.03,341.673 C500.03,344.962 499.961,345.099 497.564,346.126 C496.125,346.676 494.686,347.565 494.275,348.113 C493.863,348.594 490.85,349.348 487.355,349.827 C483.999,350.237 479.203,350.922 476.737,351.333 C471.734,352.156 461.389,351.676 455.156,350.374 C451.387,349.621 451.044,349.415 450.84,347.634 C450.702,346.538 450.29,345.784 449.811,345.991 C448.852,346.264 448.099,350.512 447.414,358.801 C446.797,366.337 445.016,369.626 439.809,372.914 C437.686,374.216 435.219,375.245 434.19,375.245 C431.999,375.245 424.257,380.108 423.708,381.889 C423.229,383.465 416.242,387.576 414.048,387.576 C411.172,387.576 403.43,392.577 403.43,394.495 C403.43,395.454 395.962,399.908 394.454,399.908 C392.811,399.908 385.754,403.47 383.768,405.32 C379.587,409.156 374.997,409.841 368.009,407.65 C364.721,406.621 363.831,406.621 360.406,407.375 C354.034,408.883 349.648,409.02 346.087,407.854 C342.113,406.484 339.236,406.484 336.083,407.786 C334.714,408.335 331.768,408.814 329.576,408.814 C327.315,408.814 324.368,408.335 323.066,407.786 C321.697,407.238 319.298,406.758 317.792,406.758 C316.285,406.758 313.887,407.238 312.517,407.786 C311.215,408.335 308.474,408.814 306.488,408.814 C304.501,408.814 301.759,408.335 300.458,407.786 C297.307,406.484 291.277,406.484 289.018,407.786 C286.688,409.089 279.426,409.089 277.645,407.786 C275.932,406.484 269.354,406.484 266.82,407.786 C264.353,409.089 257.708,409.089 255.447,407.786 C254.488,407.238 251.952,406.827 249.624,406.827 C247.295,406.827 244.76,407.238 243.801,407.786 C242.84,408.335 240.375,408.745 238.32,408.745 C236.264,408.745 233.798,408.335 232.839,407.786 C231.811,407.238 229.276,406.827 226.673,406.827 C224.069,406.827 221.534,407.238 220.507,407.786 C219.548,408.335 217.286,408.745 215.368,408.745 C213.519,408.745 211.189,408.335 210.23,407.786 C209.202,407.238 206.667,406.827 204.064,406.827 C201.461,406.827 198.926,407.238 197.898,407.786 C196.939,408.335 194.473,408.745 192.418,408.745 C190.362,408.745 187.896,408.335 186.937,407.786 C185.909,407.238 183.374,406.827 180.77,406.827 C178.167,406.827 175.632,407.238 174.604,407.786 C172.344,409.089 167.206,409.02 164.808,407.719 C163.299,406.896 161.588,406.758 157.271,407.102 C154.188,407.307 149.598,407.512 147.062,407.443 L135.552,407.443 C126.442,407.443 120.413,407.443 112.808,407.375 C109.314,407.375 104.655,407.581 102.463,407.786 C99.586,408.129 97.804,407.992 95.749,407.169 C92.324,405.799 86.911,405.732 83.691,407.102 C80.745,408.335 75.744,408.471 73.689,407.307 C72.866,406.827 68.961,406.279 64.988,406.073 C58.616,405.663 57.452,405.457 54.848,403.745 C53.272,402.648 51.354,400.798 50.601,399.633 C48.751,396.62 44.503,393.331 41.215,392.371 C38.406,391.482 34.226,387.987 30.596,383.328 C28.883,381.137 24.772,378.602 21.415,377.642 C19.976,377.23 16.071,373.736 11.892,369.009 C9.357,366.133 5.178,362.844 2.643,361.747 C0.93,360.993 0.656,360.378 0.177,357.021 C-0.029,354.896 -0.029,351.607 0.245,349.689 C0.519,347.702 0.93,343.523 1.204,340.303 C1.752,334.137 3.054,330.848 5.589,329.137 C10.385,325.917 10.179,326.738 10.179,309.884 L10.178,294.538 L13.604,291.661 C17.099,288.715 17.784,286.934 16.414,284.262 C16.071,283.646 15.112,281.247 14.29,278.986 C13.468,276.725 12.508,274.327 12.166,273.711 C11.823,273.026 11.549,271.999 11.549,271.451 C11.549,270.902 11.276,269.874 10.933,269.189 C10.59,268.573 9.837,266.996 9.357,265.832 C8.329,263.16 7.37,262.681 4.972,263.641 C3.534,264.12 2.848,264.051 1.889,263.16 C-0.029,261.448 0.313,260.352 3.328,258.434 C5.931,256.789 6.685,255.487 5.589,254.391 C4.287,253.089 3.328,248.156 3.328,242.607 L3.327,236.304 L6.479,235.826 C8.193,235.619 10.796,235.551 12.235,235.826 C14.77,236.236 14.975,236.167 16.619,233.563 C17.578,232.056 18.674,230.618 19.086,230.344 C19.428,230.138 19.771,227.809 19.771,225.274 C19.771,222.123 20.113,220.341 20.73,219.793 C21.963,218.765 23.881,219.587 23.881,221.232 C23.881,222.876 27.581,224.52 31.349,224.52 C35.117,224.52 36.898,226.85 36.898,231.714 C36.898,235.619 38.063,236.921 39.913,235.139 C40.529,234.523 42.242,234.112 44.366,234.112 C47.449,234.112 47.86,233.906 48.271,232.467 C48.613,231.029 49.162,230.824 53.41,230.48 C59.096,230.001 59.918,230.206 60.466,232.467 L60.945,234.18 L71.358,233.837 C75.915,233.713 80.47,233.464 85.03,233.492 L85.03,166.419 C70.498,152.062 55.901,136.726 46.832,118.164 C43.385,111.11 39.137,100.944 44.485,93.775 C47.499,90.569 50.831,90.421 54.946,90.158 z M264.832,377.299 C260.242,377.299 260.173,377.368 259.488,379.354 L258.734,381.41 L252.021,381.41 C243.937,381.41 243.115,381.684 243.115,384.15 C243.115,385.246 242.498,387.508 241.812,389.22 C240.443,392.302 240.443,392.302 241.882,395.249 C242.704,396.893 243.663,398.948 244.074,399.908 C244.76,401.415 245.445,401.689 248.939,401.962 C253.872,402.443 255.31,401.758 256.475,398.332 C257.639,394.839 258.734,393.741 260.859,393.741 C263.326,393.741 263.874,394.29 265.312,398.059 C266.682,401.758 267.984,402.648 271.684,402.648 C275.59,402.648 277.37,401.346 278.535,397.853 C279.083,396.139 280.111,394.29 280.863,393.604 C282.509,392.167 282.509,391.206 280.796,388.398 C280.043,387.164 279.426,385.246 279.426,384.15 C279.426,381.957 278.741,381.616 273.945,381.272 C272.164,381.137 271.479,380.724 271.272,379.698 C270.931,377.642 269.971,377.299 264.833,377.299 z M344.853,378.327 C339.715,378.327 339.372,378.396 339.167,379.833 C338.893,381.822 337.797,382.095 327.725,382.301 C319.504,382.438 319.504,382.438 319.298,384.15 C318.888,387.508 316.285,392.919 313.954,395.18 C311.557,397.509 311.009,399.702 312.448,401.142 C312.927,401.62 315.324,401.962 318.544,401.962 L323.751,401.962 L324.916,398.742 C325.602,396.893 326.219,395.043 326.423,394.633 C326.561,394.085 327.794,393.741 329.302,393.741 C332.384,393.741 332.863,394.221 334.509,398.742 L335.74,402.031 L340.879,401.827 C346.497,401.62 346.155,401.827 348.348,396.688 C349.307,394.221 349.854,393.741 351.431,393.741 C354.582,393.741 355.335,394.426 356.569,397.99 C357.254,400.113 358.212,401.62 359.172,401.962 C359.926,402.305 360.953,402.579 361.365,402.579 C362.94,402.716 366.434,401.758 366.434,401.277 C366.434,400.935 365.064,399.908 363.419,398.948 C358.419,396.003 354.992,390.932 353.828,384.698 C353.555,383.055 352.868,382.026 352.047,381.753 C351.362,381.547 350.677,380.656 350.54,379.833 C350.333,378.396 349.992,378.327 344.854,378.327 z M183.472,377.331 C182.043,377.424 180.549,377.534 180.223,379.217 C180.017,380.656 179.674,380.724 173.577,380.724 C166.794,380.724 166.383,380.93 166.383,384.355 C166.383,386.754 163.299,392.783 160.834,395.111 C159.601,396.276 157.408,397.853 155.97,398.674 C154.599,399.496 153.572,400.387 153.778,400.73 C154.325,401.62 163.368,401.415 164.123,400.456 C164.465,399.977 165.355,398.059 165.972,396.276 C167.206,392.988 167.206,392.988 170.014,393.193 C172.618,393.4 172.823,393.605 173.851,396.482 C175.564,401.277 175.564,401.277 181.113,401.277 C186.046,401.277 186.252,401.21 187.279,399.223 C187.827,398.126 188.307,396.824 188.306,396.413 C188.307,394.839 190.568,393.056 192.623,393.056 C194.61,393.056 196.46,394.564 196.528,396.208 C196.528,396.62 197.007,398.126 197.556,399.496 L198.582,401.962 L203.583,401.962 C209.271,401.962 209.956,401.62 210.573,399.017 C210.984,397.509 210.71,396.689 209.339,395.249 C206.736,392.44 204.954,388.878 204.064,384.63 L203.31,380.724 L197.418,380.724 C192.212,380.724 191.595,380.587 191.253,379.423 C190.979,378.396 190.088,377.984 187.347,377.642 C186.062,377.482 184.771,377.32 183.473,377.331 z M105.819,376.615 C102.052,376.615 99.928,377.711 99.928,379.698 C99.928,380.452 98.627,380.724 94.995,380.861 L90.061,381.068 L89.308,384.492 C88.144,389.288 87.391,390.932 84.924,394.016 C82.8,396.689 82.664,398.263 84.308,400.456 C85.061,401.346 93.556,401.62 94.858,400.73 C95.338,400.456 96.228,398.607 96.845,396.689 C98.01,393.056 98.01,393.056 100.956,393.056 C103.833,393.056 103.833,393.056 105.614,397.167 L107.395,401.277 L112.875,401.277 C119.042,401.277 119.18,401.142 120.413,395.454 C120.824,393.605 121.166,393.4 123.77,393.193 C126.51,392.988 126.716,393.125 127.743,395.591 C130.415,401.758 129.799,401.277 135.211,401.277 C137.883,401.277 140.35,401.073 140.555,400.866 C140.829,400.592 139.527,399.633 137.745,398.674 C135.965,397.784 133.567,395.935 132.402,394.701 C129.936,392.098 127.332,386.96 127.332,384.767 C127.332,384.013 126.99,382.78 126.647,382.026 C125.962,380.861 125.14,380.724 119.111,380.724 C112.74,380.724 112.26,380.656 112.26,379.354 C112.26,377.504 110.205,376.615 105.82,376.615 z M48.063,380.935 L47.824,380.964 C47.2,381.198 46.911,381.896 46.627,382.438 C44.983,386 45.668,388.398 48.751,390.797 C51.422,392.783 53.341,393.604 53.341,392.715 C53.341,392.44 52.861,391.413 52.313,390.316 C51.765,389.22 50.875,386.685 50.327,384.698 C49.957,383.349 49.606,381.693 48.312,380.941 L48.063,380.935 z M407.231,373.978 C405.786,374.383 406.431,374.124 405.28,374.695 C404.115,375.312 396.305,381.068 394.523,382.642 C394.318,382.78 395.414,383.945 396.922,385.246 C398.428,386.479 400.142,387.576 400.69,387.576 C401.306,387.576 403.499,386.479 405.69,385.109 C409.938,382.438 410.281,381.547 408.841,376.478 C408.531,375.415 408.447,374.341 407.232,373.978 z M30.457,366.885 L29.224,368.392 C28.54,369.215 27.992,370.927 27.992,372.229 C27.992,374.079 28.472,374.832 30.596,376.409 C31.966,377.436 33.541,378.738 34.09,379.217 C35.185,380.245 37.447,379.698 39.296,377.848 C40.667,376.546 40.667,376.478 35.528,371.681 L30.457,366.885 z M420.924,372.361 C419.616,372.4 416.395,372.363 418.913,374.216 C420.695,375.586 422.202,375.518 424.052,373.874 C425.902,372.435 425.902,372.435 421.585,372.366 L420.924,372.361 z" fill="#000000"/>
  </g>
</svg>
