<?xml version="1.0" encoding="UTF-8"?>
<!DOCTYPE svg PUBLIC "-//W3C//DTD SVG 1.1//EN" "http://www.w3.org/Graphics/SVG/1.1/DTD/svg11.dtd">
<svg version="1.1" xmlns="http://www.w3.org/2000/svg" xmlns:xlink="http://www.w3.org/1999/xlink" x="0" y="0" width="500" height="500" viewBox="0, 0, 500, 500">
  <g id="layer102">
    <path d="M131.332,161.439 C124.75,161.31 116.789,165.251 116.123,172.529 C116.123,173.72 114.666,177.825 112.945,181.533 C109.767,188.154 103.941,193.186 101.955,191.067 C101.292,190.537 101.027,184.711 101.16,178.222 L101.425,166.306 L77.061,167.1 L76.663,172.794 C76.133,179.68 74.942,180.341 58.787,181.533 C47.664,182.327 37.601,184.182 32.039,186.433 C25.286,189.08 23.167,189.213 21.579,186.829 C19.858,184.578 19.46,184.578 12.045,186.829 C7.675,188.154 3.703,189.345 3.173,189.478 C2.643,189.61 1.849,204.176 1.452,222.052 C1.187,239.928 0.657,257.804 0.26,261.909 C-0.27,267.073 -0.005,269.721 1.187,270.781 C2.114,271.442 7.013,272.767 12.177,273.561 C41.176,277.931 66.335,282.963 68.321,284.949 C69.513,286.273 65.408,288.26 61.568,288.26 C54.682,288.26 53.888,289.319 53.888,297.528 C53.888,303.222 54.682,306.665 57.198,310.902 L60.508,316.729 L57.463,317.39 C54.947,318.052 54.55,318.98 54.55,325.203 L54.55,332.354 L61.833,334.075 C65.805,335.002 71.631,336.458 74.809,337.253 C81.033,338.709 150.816,339.107 152.404,337.65 C155.582,334.472 164.719,333.28 186.699,333.28 C200.471,333.28 211.329,332.751 212.918,331.956 C214.375,331.161 215.433,329.175 215.433,327.189 C215.433,325.203 216.361,323.614 217.685,323.217 C219.009,322.82 222.452,321.363 225.365,319.906 C229.867,317.788 233.442,317.391 249.332,317.39 C269.591,317.391 268.4,317.788 276.742,308.254 C280.052,304.414 280.979,304.149 288.659,304.149 C296.472,304.149 297.531,304.546 305.608,310.24 C310.243,313.55 315.672,316.861 317.79,317.655 C319.909,318.45 321.762,320.304 322.16,322.157 C323.087,325.998 327.987,326.659 327.987,322.82 C327.987,319.112 331.429,316.596 333.945,318.715 C335.004,319.641 335.931,321.496 335.931,322.82 C335.931,324.673 336.858,325.336 339.242,325.336 C341.625,325.336 342.552,324.673 342.552,322.82 C342.552,317.126 349.967,316.199 350.761,321.761 C351.026,323.614 352.218,324.806 354.072,325.071 C356.588,325.468 357.117,324.938 357.117,322.29 C357.117,318.052 361.09,316.331 363.341,319.51 C364.268,320.833 365.062,322.687 365.062,323.614 C365.062,324.541 366.519,325.336 368.372,325.336 C370.624,325.336 371.683,324.541 371.683,323.084 C371.683,318.98 373.802,316.994 376.848,318.052 C378.701,318.582 379.628,320.039 379.628,322.157 C379.628,324.938 380.158,325.468 382.674,325.071 C384.527,324.806 385.719,323.614 385.984,321.761 C386.513,318.317 389.559,316.994 392.869,318.715 C396.445,320.701 426.37,320.436 428.356,318.45 C429.416,317.391 429.946,312.227 429.946,303.885 L429.946,290.907 L455.369,290.907 C469.405,290.907 481.72,290.378 482.779,289.716 C484.368,288.789 484.368,286.67 483.177,277.533 C482.382,271.442 480.793,263.365 479.468,259.526 L477.217,252.64 L482.249,248.005 C485.03,245.357 488.473,243.238 490.061,243.238 C491.651,243.106 494.564,241.782 496.551,240.06 C499.993,237.28 500.258,236.353 499.861,230.527 L499.198,224.038 L493.372,223.376 C484.765,222.449 480.263,218.874 480.263,213.181 C480.263,208.016 481.058,208.149 468.081,211.723 C464.771,212.783 460.798,214.504 459.341,215.828 C458.018,217.02 456.164,218.079 455.369,218.079 C453.648,218.079 445.835,211.591 445.835,210.135 C445.835,209.472 448.219,206.692 451.132,204.044 C454.045,201.263 456.429,198.35 456.429,197.556 C456.429,195.569 445.835,191.199 432.594,187.757 C416.175,183.652 401.873,181.666 373.669,179.68 C364.135,179.017 355.263,178.222 353.807,178.09 C351.556,177.693 351.159,178.62 350.761,183.652 C350.496,186.962 349.835,190.14 349.173,190.802 C347.584,192.391 332.753,191.861 326.132,189.875 C322.027,188.684 320.704,188.816 320.306,190.008 C319.644,192.126 301.504,192.126 297.002,190.14 C294.353,188.948 293.161,188.948 291.572,190.273 C288.659,192.789 271.18,192.126 268.135,189.345 C266.149,187.624 265.752,187.624 263.765,190.008 C261.779,192.259 260.19,192.524 252.643,191.994 C247.876,191.729 242.314,190.802 240.328,190.008 C237.415,188.948 236.223,189.08 234.502,190.935 C232.383,192.921 231.986,192.789 228.543,189.478 C225.895,186.829 224.703,184.578 224.703,181.401 C224.703,173.72 215.698,172.794 213.182,180.341 C212.786,181.798 210.931,185.241 209.078,187.889 C206.43,191.994 205.105,192.921 201.398,192.921 C196.366,192.921 195.042,196.099 199.544,197.556 C201.266,198.085 202.192,199.542 202.192,201.66 C202.192,206.56 194.777,209.472 187.229,207.354 C177.034,204.705 165.778,200.733 158.098,197.158 C150.551,193.715 150.418,193.45 151.08,189.08 C151.61,185.77 150.948,183.519 148.565,179.944 C146.71,177.296 145.254,174.118 145.254,172.926 C145.254,170.145 137.044,162.73 132.675,161.671 L131.332,161.439 z M109.578,228.993 L110.747,229.05 L111.885,229.335 C117.58,230.792 118.771,232.513 118.771,239.531 C118.771,247.078 117.182,250.918 113.078,252.508 C111.488,253.169 109.502,253.434 108.84,253.302 C106.986,252.772 106.457,246.681 107.516,236.883 C107.701,235.229 107.824,230.036 109.235,229.116 L109.578,228.993 z M158.521,216.559 C163.501,216.625 168.55,216.591 173.458,217.55 C175.18,218.079 175.577,219.007 175.048,220.463 C173.193,224.832 173.723,226.554 177.299,228.408 C179.417,229.335 181.006,230.659 181.006,231.321 C181.006,232.778 175.18,238.736 172.797,239.795 C170.545,240.722 162.997,239.531 159.29,237.677 C157.833,236.883 155.582,235.823 154.523,235.294 C153.463,234.764 152.14,232.38 151.742,229.864 C151.212,227.348 150.551,224.435 150.021,223.244 C148.829,220.463 152.404,216.755 156.244,216.623 L158.521,216.559 z" fill="#000000"/>
  </g>
</svg>
