<?xml version="1.0" encoding="UTF-8"?>
<!DOCTYPE svg PUBLIC "-//W3C//DTD SVG 1.1//EN" "http://www.w3.org/Graphics/SVG/1.1/DTD/svg11.dtd">
<svg version="1.1" xmlns="http://www.w3.org/2000/svg" xmlns:xlink="http://www.w3.org/1999/xlink" x="0" y="0" width="500" height="500" viewBox="0, 0, 500, 500">
  <g id="layer102">
    <path d="M62.216,140.793 C48,140.793 46.793,140.928 44.915,143.743 C43.709,145.353 42.77,149.108 42.77,151.925 C42.77,154.741 41.563,159.569 40.088,162.519 C38.612,165.604 37.405,169.225 37.405,170.432 C37.405,171.773 36.601,173.382 35.528,173.918 C33.919,174.857 31.102,180.222 28.018,188.403 C26.274,192.962 23.726,198.997 22.519,201.411 C21.849,202.752 21.312,205.434 21.312,207.446 C21.178,214.018 18.63,215.895 9.511,215.895 C5.085,215.895 0.927,216.565 0.525,217.37 C-0.012,218.041 0.391,222.601 1.329,227.294 C2.671,234.268 2.671,236.548 1.329,239.097 C0.391,240.84 -0.145,243.79 0.123,245.534 C0.525,248.484 1.196,248.752 10.181,249.423 C15.412,249.825 20.239,250.496 20.776,251.032 C21.178,251.568 20.91,253.848 19.971,256.128 C18.63,259.213 18.63,260.554 19.971,262.164 C22.251,264.979 20.507,266.857 15.545,266.857 C2.939,266.857 -2.292,269.807 0.927,275.038 C2.939,278.256 2.939,288.985 1.062,292.204 C0.123,293.545 -0.145,296.227 0.391,298.105 C1.196,301.592 1.598,301.725 9.913,301.725 C18.362,301.725 18.63,301.86 18.63,305.079 C18.63,307.224 19.569,308.833 20.91,309.236 C27.347,311.248 29.359,312.991 29.359,316.478 C29.359,318.49 30.432,321.574 31.639,323.318 C35.528,328.548 37.405,332.437 37.405,334.986 C37.405,336.327 37.942,337.936 38.612,338.74 C39.417,339.411 40.088,344.239 40.356,349.335 L40.758,358.723 L59.131,359.125 C70.665,359.394 77.773,358.991 78.309,358.053 C78.711,357.247 77.37,354.431 75.09,351.749 C71.336,347.189 70.933,345.848 70.933,336.863 C70.933,326.939 72.408,323.049 78.577,316.746 C81.394,313.796 95.341,312.052 102.717,313.528 C107.813,314.6 110.764,314.467 116.531,312.857 C120.554,311.65 125.919,310.711 128.332,310.577 C132.49,310.443 133.026,310.98 135.306,316.746 C139.866,328.816 150.327,337.936 159.714,337.936 C162.396,337.936 166.822,336.863 169.772,335.388 C172.588,334.047 177.015,332.035 179.696,330.828 C182.378,329.621 186.67,326.939 189.353,324.659 C193.644,320.77 194.717,320.501 204.641,320.501 C215.504,320.501 218.454,321.708 218.454,326 C218.454,327.341 220.064,329.219 222.075,330.157 C224.758,331.498 225.964,333.241 226.501,336.46 C227.708,344.507 234.95,345.848 236.693,338.338 C238.705,329.219 241.656,323.183 244.069,323.183 C245.813,323.183 246.484,323.988 246.216,326.134 C245.947,328.682 246.751,329.219 251.177,330.023 C253.994,330.426 256.944,331.767 257.615,332.974 C259.358,336.058 271.965,335.656 275.183,332.437 C278.402,329.085 283.498,329.219 286.046,332.706 C287.655,335.119 288.863,335.521 293.288,334.717 C298.384,333.912 298.519,334.047 300.798,339.679 C302.944,345.044 303.212,345.178 304.955,342.764 C306.029,341.288 306.967,339.143 306.967,337.801 C306.967,333.912 310.052,332.437 314.612,334.18 C318.099,335.521 319.038,335.254 321.451,332.839 C323.597,330.694 326.011,329.889 330.302,329.889 C336.069,329.889 336.338,329.755 336.74,325.598 C337.142,321.306 337.276,321.172 343.043,321.574 C346.664,321.977 352.833,320.77 359.941,318.49 L371.072,314.869 L374.962,317.819 C377.912,319.965 380.46,320.635 384.885,320.233 C389.982,319.831 391.054,319.294 392.664,315.808 C395.078,310.577 396.419,309.772 402.99,309.772 C405.941,309.772 409.025,309.102 409.83,308.298 C410.903,307.224 413.585,307.492 420.022,309.504 C424.85,310.98 429.947,311.919 431.288,311.65 C432.629,311.248 438.798,310.577 445.101,310.041 C456.098,309.102 456.501,308.968 456.501,305.749 L456.501,302.396 L478.226,301.994 C499.818,301.725 503.841,300.653 496.868,297.569 C494.588,296.495 492.979,296.495 490.967,297.569 C487.346,299.446 444.296,299.58 443.089,297.703 C442.687,296.898 436.384,296.362 429.142,296.362 L415.999,296.362 L414.39,290.058 C413.451,286.437 412.378,280.268 411.976,276.111 C411.305,268.466 411.305,268.466 406.343,267.662 C403.527,267.259 400.174,265.65 398.699,264.041 C397.358,262.431 394.005,260.152 391.457,258.81 C388.909,257.469 385.288,255.056 383.411,253.446 C379.119,249.557 358.064,239.632 349.212,237.352 C345.457,236.28 341.031,234.537 339.154,233.463 C337.008,231.989 331.509,231.05 322.39,230.648 L308.979,229.977 L308.577,223.003 C308.174,216.968 308.442,216.03 310.32,216.834 C311.527,217.236 316.087,216.432 320.512,215.091 C327.218,212.944 328.425,212.006 328.425,209.458 C328.425,205.837 326.145,203.289 322.122,201.947 C320.512,201.411 318.769,199.936 318.367,198.729 C317.964,197.522 316.489,194.974 315.148,193.231 L312.734,190.012 L307.504,193.633 C303.883,196.047 300.53,197.12 296.641,197.12 C293.556,197.12 287.79,198.326 283.901,199.668 C280.011,201.143 272.501,203.021 267.405,203.96 C259.358,205.301 257.212,206.373 252.25,211.067 C247.02,215.895 246.484,217.102 247.154,221.125 C247.557,223.673 247.154,227.965 246.216,230.648 L244.74,235.743 L234.548,236.28 C229.049,236.682 223.819,236.682 222.88,236.28 C222.075,236.012 219.661,233.463 217.65,230.513 C214.565,225.953 214.297,224.747 215.504,221.93 C218.857,214.689 211.212,204.898 202.093,204.63 C197.667,204.496 196.192,205.166 193.51,208.519 C191.766,210.799 190.292,213.75 190.292,215.224 C190.292,216.968 188.548,218.711 185.597,220.187 L180.904,222.601 L176.88,216.163 C174.735,212.676 172.857,208.251 172.857,206.373 C172.857,204.362 171.247,201.411 168.699,198.997 C165.347,195.778 164.81,194.437 165.48,191.085 C167.358,181.295 167.895,181.697 155.422,181.026 L144.023,180.356 L143.352,174.321 C142.413,166.006 138.793,165.872 138.257,174.321 C137.72,181.295 136.379,182.636 131.417,180.893 C129.405,180.222 122.7,179.954 116.531,180.356 C101.778,181.161 103.119,181.161 97.755,180.222 C95.207,179.685 92.525,178.478 91.988,177.539 C91.184,176.198 89.44,175.93 85.685,176.467 C81.259,177.137 79.516,176.735 75.627,173.785 C71.067,170.298 70.933,169.895 70.933,160.91 C70.933,152.461 71.201,151.388 75.09,147.633 C77.37,145.353 78.846,142.939 78.309,142.134 C77.773,141.33 71.067,140.793 62.216,140.793 z M163.201,296.361 C170.979,296.362 172.455,296.764 175.807,299.982 C177.819,301.994 179.563,304.274 179.563,305.212 C179.563,308.565 176.612,313.528 173.661,315.002 C168.834,317.417 160.519,315.808 157.166,311.65 C154.216,307.761 152.07,299.982 153.411,297.702 C153.813,296.898 158.239,296.362 163.201,296.361 z" fill="#000000"/>
  </g>
</svg>
