<?xml version="1.0" encoding="UTF-8"?>
<!DOCTYPE svg PUBLIC "-//W3C//DTD SVG 1.1//EN" "http://www.w3.org/Graphics/SVG/1.1/DTD/svg11.dtd">
<svg version="1.1" xmlns="http://www.w3.org/2000/svg" xmlns:xlink="http://www.w3.org/1999/xlink" x="0" y="0" width="500" height="500" viewBox="0, 0, 500, 500">
  <g id="Background">
    <rect x="0" y="0" width="500" height="500" fill="#000000" fill-opacity="0"/>
  </g>
  <g id="Layer_1">
    <path d="M428.655,111.202 C420.94,112.345 419.901,112.731 417.447,115.371 C414.894,118.115 414.733,119.546 416.621,122.767 C418.692,126.301 418.379,130.427 415.633,135.818 C414.347,138.342 413.93,139.874 414.19,141.111 C414.425,142.221 414.229,143.228 413.646,143.891 C413.144,144.463 412.543,145.556 412.31,146.321 C411.777,148.072 410.297,148.098 408.477,146.388 C405.054,143.171 395.354,145.288 389.14,150.608 C386.445,152.915 384.026,153.708 377.85,154.31 C372.468,154.836 371.636,154.434 370.015,150.52 C367.336,144.057 364.273,142.877 356.383,145.274 C353.647,146.105 350.949,146.477 348.569,146.355 L344.934,146.168 L344.448,142.776 C343.752,137.913 341.799,134.229 339.283,133.029 C337.008,131.945 336.874,131.957 321.75,134.764 C314.881,136.039 314.497,136.049 310.205,135.037 C307.763,134.463 305.506,134.152 305.189,134.348 C304.872,134.544 302.109,134.988 299.046,135.334 C290.049,136.353 281.588,138.78 279.56,140.922 C278.286,142.265 277.048,142.835 274.737,143.142 C267.277,144.131 264.059,150.247 267.294,157.291 C269.305,161.671 270.415,162.234 277.034,162.234 C282.79,162.234 285.496,163.23 283.214,164.508 C282.023,165.175 264.588,166.353 262.75,165.891 C261.705,165.628 259.566,166.043 256.682,167.065 C251.32,168.965 239.797,170.894 228.435,171.792 C223.847,172.155 216.756,172.736 212.679,173.083 C205.494,173.694 197.635,174.123 186.106,174.534 C157.65,175.546 159.239,175.009 159.398,183.554 C159.452,186.443 159.266,190.655 158.986,192.913 C158.168,199.494 158.852,199.895 169.934,199.323 C174.721,199.076 179.293,198.625 180.095,198.321 C180.895,198.016 182.803,197.767 184.332,197.767 C185.863,197.767 187.582,197.525 188.154,197.23 C189.584,196.493 200.009,195.922 200.009,196.581 C200.009,197.551 193.441,200.239 191.073,200.239 C181.094,200.239 154.112,207.518 152.115,210.749 C151.896,211.102 147.536,213.462 142.423,215.994 C137.311,218.527 132.706,220.953 132.19,221.388 C131.672,221.821 130.203,222.732 128.921,223.412 C125.999,224.962 118.147,230.873 112.877,235.49 C108.684,239.163 101.44,244.114 100.259,244.114 C99.882,244.114 98.481,244.699 97.147,245.413 C95.221,246.445 94.11,246.633 91.758,246.32 C85.224,245.455 81.587,250.145 84.111,256.184 C85.467,259.429 87.467,259.128 90.315,255.246 C93.875,250.397 96.811,248.584 96.811,251.237 C96.811,251.714 95.837,253.08 94.647,254.27 C92.151,256.764 91.994,257.631 93.755,259.14 C94.482,259.763 94.892,260.68 94.714,261.285 C94.544,261.868 94.227,263.456 94.008,264.816 C93.099,270.494 91.931,271.433 87.932,269.704 C84.488,268.216 83.216,267.054 83.216,265.404 C83.216,262.397 77.651,262.866 74.476,266.142 C72.405,268.278 72.223,269.196 72.837,274.374 C73.004,275.766 72.671,275.991 69.003,276.979 C66.046,277.775 64.554,278.57 63.351,279.988 C61.613,282.038 59.427,282.676 45.52,285.189 C42.29,285.772 37.702,286.637 35.323,287.11 C32.944,287.584 28.495,288.256 25.435,288.604 C11.044,290.244 7.807,292.103 8.721,298.202 C9.114,300.823 6.67,304.057 4.296,304.057 C2.129,304.057 0.409,306.665 0.409,309.951 C0.409,311.784 -0.046,314.238 -0.602,315.402 C-1.855,318.03 -1.361,320.351 0.918,322.535 C1.84,323.418 3.089,324.917 3.696,325.867 C5.544,328.762 6.944,329.021 12.48,327.496 C19.267,325.626 21.753,325.263 30.997,324.785 C39.479,324.346 40.542,324.109 46.446,321.338 C48.486,320.382 52.1,319.134 54.48,318.564 C56.859,317.995 60.335,317.126 62.204,316.632 C64.073,316.139 66.994,315.493 68.693,315.195 C77.557,313.646 81.894,312.688 83.968,311.818 C88.123,310.074 90.012,310.998 90.012,314.775 C90.012,316.216 91.805,318.169 94.673,319.852 C96.627,321 95.089,321.859 90.274,322.311 C86.789,322.637 85.178,323.098 83.943,324.124 C81.166,326.434 79.785,326.911 73.19,327.842 C69.698,328.336 65.398,329.013 63.637,329.35 C61.876,329.687 59.035,329.797 57.322,329.593 C54.934,329.311 53.823,329.478 52.549,330.313 C50.521,331.641 44.384,331.352 41.351,329.782 C37.091,327.579 26.75,328.681 25.336,331.489 C24.803,332.545 23.67,334.156 22.816,335.068 C19.768,338.327 23.113,342.362 28.865,342.368 C30.411,342.368 32.01,342.702 32.418,343.11 C33.123,343.815 39.031,344.834 43.665,345.05 C45.606,345.14 45.889,344.944 46.419,343.143 C47.16,340.628 49.613,340.209 51.853,342.212 C52.848,343.102 52.935,343.073 52.935,341.856 C52.935,339.982 59.439,336.774 64.093,336.352 C68.207,335.978 68.86,336.566 67.422,339.348 C65.266,343.517 66.572,344.318 75.342,344.21 C80.572,344.146 83.95,344.415 86.291,345.079 C90.373,346.238 92.112,345.511 92.151,342.631 C92.183,340.326 93.468,340.073 97.957,341.485 C102.901,343.04 108.418,342.163 115.514,338.697 C123.415,334.837 125.083,334.764 128.82,338.12 C130.476,339.608 132.642,341.23 133.632,341.724 C134.623,342.217 135.989,343.086 136.668,343.652 C137.349,344.219 138.655,345.066 139.575,345.533 C140.493,346.002 144.386,348.215 148.226,350.45 C152.065,352.684 155.764,354.833 156.443,355.225 C163.197,359.122 184.436,368.271 194.865,371.778 C201.705,374.076 207.87,373.341 211.162,369.838 C213.068,367.81 213.666,367.908 217.004,370.796 C220.214,373.574 221.172,373.716 227.2,372.315 C234.02,370.729 235.081,370.23 236.407,367.98 C237.854,365.528 238.887,365.321 240.545,367.153 C242.93,369.788 255.326,367.349 258.483,363.624 C260.355,361.414 260.454,361.377 261.864,362.363 C263.741,363.678 265.934,363.645 272.342,362.212 C279.113,360.699 279.599,360.476 280.692,358.362 C281.753,356.313 282.279,356.202 284.392,357.587 C285.995,358.638 287.792,358.553 294.249,357.117 C299.468,355.956 300.835,355.252 301.483,353.39 C302.213,351.3 302.754,351.23 305.136,352.927 C307.208,354.402 309.235,354.255 316.46,352.105 C321.738,350.535 323.197,349.045 324.231,344.166 C325.351,338.894 327.911,336.19 331.786,336.19 C338.524,336.19 342.444,333.137 343.037,327.426 C343.352,324.387 343.837,322.896 344.875,321.778 C345.649,320.942 346.455,319.806 346.667,319.255 C347.299,317.609 350.295,316.753 351.181,317.966 C351.853,318.884 352.126,318.862 354.389,317.708 C356.625,316.567 357.932,316.153 364.078,314.645 C365.779,314.228 370.435,314.981 373.255,316.129 C373.959,316.416 374.583,316.298 374.877,315.822 C376.728,312.828 384.685,313.245 386.33,316.425 C386.849,317.43 387.898,318.408 388.659,318.6 C389.421,318.79 390.51,319.758 391.079,320.749 C391.647,321.739 392.827,322.73 393.699,322.949 C396.003,323.527 395.664,324.64 392.351,327.369 C390.736,328.699 385.382,333.134 380.454,337.226 C375.527,341.316 370.799,344.882 369.949,345.15 C369.099,345.417 366.983,346.848 365.248,348.329 C363.389,349.915 361.47,351.021 360.577,351.021 C359.488,351.021 358.521,351.791 357.133,353.76 C356.072,355.266 354.419,356.989 353.461,357.589 C352.503,358.189 350.166,360.085 348.269,361.802 C346.37,363.52 343.759,365.825 342.465,366.924 C340.001,369.021 339.61,373.401 341.563,377.051 C342.031,377.925 341.947,378.587 341.242,379.595 C338.867,382.986 340.45,387.829 344.629,389.961 C347.98,391.671 348.601,391.547 351.9,388.511 C353.5,387.037 356.148,384.925 357.786,383.818 C359.423,382.709 360.911,381.417 361.092,380.947 C361.272,380.475 362.347,379.518 363.48,378.818 C364.611,378.118 367.014,375.61 368.818,373.243 C370.623,370.878 372.34,368.942 372.636,368.942 C372.93,368.942 374.574,367.824 376.291,366.458 C378.007,365.092 380.028,363.819 380.783,363.629 C381.537,363.44 383.614,361.52 385.398,359.364 C387.183,357.207 389.293,355.279 390.091,355.079 C390.887,354.878 392.729,353.608 394.184,352.253 C395.639,350.9 397.317,349.632 397.912,349.438 C398.543,349.232 398.992,348.467 398.992,347.597 C398.992,346.569 399.567,345.813 400.847,345.151 C401.866,344.624 402.701,344.348 402.701,344.538 C402.701,344.729 403.256,344.587 403.937,344.223 C404.616,343.86 405.172,343.151 405.172,342.65 C405.172,341.146 411.808,337.251 413.601,337.702 C414.638,337.962 415.633,337.683 416.72,336.828 C417.599,336.137 418.849,335.573 419.502,335.573 C420.255,335.573 420.915,334.915 421.317,333.763 C422.359,330.774 426.691,329.728 429.008,331.906 C431.526,334.271 445.114,334.621 449.02,332.422 C452.539,330.439 456.03,325.248 455.624,322.598 C455.443,321.407 455.107,318.732 454.881,316.654 L454.469,312.876 L457.475,309.492 C459.128,307.631 460.954,305.229 461.533,304.155 C462.829,301.75 463.29,301.743 468.725,304.057 C474.914,306.69 477.717,306.275 482.005,302.087 C483.16,300.961 486.765,297.73 490.022,294.908 C498.169,287.842 499.225,283.797 494.747,276.819 C493.372,274.675 492.893,273.389 493.278,272.872 C501.855,261.351 498.737,252.287 484.227,246.568 C479.913,244.868 477.965,245.274 473.398,248.823 C471.391,250.382 468.637,252.223 467.278,252.914 C465.918,253.604 464.02,254.827 463.059,255.631 C462.099,256.434 460.646,257.091 459.83,257.091 C458.81,257.091 458.051,257.667 457.39,258.944 C456.862,259.965 456.021,260.799 455.521,260.799 C454.374,260.799 454.372,260.124 455.512,257.914 C456.008,256.952 456.564,255.422 456.747,254.516 C456.949,253.511 457.923,252.347 459.243,251.531 C461.676,250.026 462.018,248.35 460.369,245.998 C459.354,244.548 459.384,244.47 461.695,242.473 C464.371,240.157 464.493,237.404 462.271,229.408 L461.251,225.745 L463.493,221.739 C464.725,219.534 465.733,216.905 465.733,215.896 C465.733,211.46 467.407,208.084 471.309,204.652 C475.344,201.101 476.211,198.364 473.458,197.861 C470.204,197.265 470.338,194.904 473.726,193.153 C477.923,190.983 478.392,188.952 475.924,183.648 C475.077,181.828 474.384,179.792 474.384,179.119 C474.384,177.336 471.078,174.284 469.148,174.284 C467.876,174.284 467.328,173.815 466.62,172.122 C466.122,170.933 465.436,169.959 465.093,169.959 C464.749,169.959 463.294,168.883 461.857,167.567 C460.42,166.252 458.645,164.99 457.911,164.763 C456.108,164.204 455.931,163.56 455.208,154.91 C454.864,150.781 454.321,146.013 454.004,144.313 C453.686,142.614 453.255,139.554 453.048,137.516 C450.309,110.771 448.046,108.33 428.655,111.202 M242.031,181.391 C242.031,181.901 241.683,182.321 241.258,182.326 C240.833,182.331 239.929,182.474 239.25,182.643 C237.458,183.09 235.826,181.919 237.087,181.092 C238.586,180.107 242.031,180.316 242.031,181.391 M206.807,184.188 C206.807,185.09 203.77,186.126 202.4,185.691 C200.947,185.229 200.91,184.35 202.327,183.98 C204.38,183.443 206.807,183.555 206.807,184.188 M190.741,185.717 C190.741,186.232 190.191,186.644 189.504,186.644 C188.273,186.644 187.897,185.986 188.68,185.201 C189.433,184.449 190.741,184.776 190.741,185.717 M107.315,332.483 C110.258,335.425 108.676,336.822 102.504,336.731 C93.911,336.606 96.324,332.395 105.616,331.3 C105.871,331.271 106.636,331.802 107.315,332.483 M80.743,334.97 C80.743,335.935 78.176,336.704 74.233,336.922 C70.401,337.132 68.922,336.057 71.577,334.993 C73.564,334.196 80.743,334.178 80.743,334.97" fill="#000000" id="white-scars-kyzagan-assault-speeder"/>
  </g>
</svg>
