<?xml version="1.0" encoding="UTF-8"?>
<!DOCTYPE svg PUBLIC "-//W3C//DTD SVG 1.1//EN" "http://www.w3.org/Graphics/SVG/1.1/DTD/svg11.dtd">
<svg version="1.1" xmlns="http://www.w3.org/2000/svg" xmlns:xlink="http://www.w3.org/1999/xlink" x="0" y="0" width="500" height="500" viewBox="0, 0, 500, 500">
  <g id="layer102">
    <path d="M141.25,105.092 C132.033,105.092 129.154,105.86 125.121,109.7 C118.785,115.461 114.753,123.333 114.753,129.285 C114.753,131.782 113.025,136.198 110.913,138.885 C105.728,145.414 105.728,156.743 110.913,159.431 C115.137,161.736 116.097,170.568 112.64,176.904 C110.913,180.168 111.297,180.936 114.753,181.896 C118.017,182.856 118.785,184.2 118.401,189.961 C118.209,193.801 119.17,199.37 120.513,202.249 C122.817,206.857 122.626,208.01 120.129,210.698 C118.401,212.426 115.521,213.194 113.985,212.618 C111.488,211.658 110.913,208.394 110.913,196.873 L110.913,182.472 L102.656,182.472 C98.048,182.472 92.672,183.816 90.56,185.353 C88.639,186.889 83.263,188.232 79.039,188.232 C74.623,188.232 63.486,190.921 54.269,194.185 C40.829,198.985 36.605,199.753 33.149,198.217 C29.692,196.681 28.348,196.681 27.58,198.985 C27.004,200.329 23.163,203.017 18.939,204.746 C7.227,209.354 2.235,218.57 0.506,238.539 C-0.069,247.755 -0.261,261.965 0.506,269.837 L1.851,284.43 L9.531,287.502 C19.324,291.342 20.668,295.183 20.668,320.528 C20.668,343.953 22.588,351.825 30.46,360.082 C33.532,363.346 36.028,366.994 36.028,367.954 C36.028,369.875 43.133,374.291 61.566,383.891 C83.648,395.22 112.449,389.268 134.338,368.915 C143.746,360.466 151.619,348.178 153.923,339.153 C155.844,331.664 160.643,333.009 173.508,344.337 C179.653,350.098 186.565,355.666 188.869,356.818 C191.173,357.97 203.846,358.93 219.399,358.93 C234.76,358.93 246.856,359.89 248.008,361.042 C250.312,363.346 269.705,363.538 271.05,361.234 C271.625,360.466 275.081,359.122 278.922,358.546 C286.027,357.394 295.243,351.25 308.108,338.961 L316.364,331.28 L316.364,307.279 C316.364,278.478 317.325,274.253 322.893,275.022 C325.389,275.405 326.541,276.749 326.157,278.478 C324.045,286.158 323.853,295.758 325.965,299.599 C327.501,302.287 328.269,312.464 328.077,327.824 C327.693,350.482 329.036,357.202 333.645,357.202 C334.605,357.202 341.134,352.402 348.238,346.449 C360.335,336.657 361.487,336.081 363.791,339.153 C365.135,341.073 366.287,343.377 366.287,344.337 C366.287,345.297 368.015,348.178 370.127,350.865 C372.24,353.554 373.967,357.394 373.967,359.314 C373.967,361.042 376.271,364.498 379.152,366.802 C381.84,368.915 385.104,372.755 386.256,375.059 C387.6,377.555 390.673,379.475 393.745,379.859 C396.816,380.244 400.273,382.548 402.001,385.235 C404.497,388.691 406.801,389.843 412.37,389.843 C416.594,389.843 420.626,391.188 422.162,392.916 C423.698,394.836 426.003,395.412 429.459,394.452 C432.146,393.876 435.219,393.108 436.371,393.108 C437.331,393.108 440.019,393.684 442.132,394.26 C444.627,395.028 448.852,393.684 453.652,390.803 C457.876,388.116 462.868,386.004 464.596,386.004 C466.516,386.004 468.82,384.275 469.972,382.163 C471.124,380.051 473.621,378.323 475.541,378.323 C479.958,378.323 485.334,372.371 485.334,367.379 C485.334,365.267 487.253,362.578 490.134,361.426 C493.59,359.89 494.934,357.778 494.934,353.746 C494.934,350.865 496.278,346.641 497.814,344.529 C501.463,339.345 500.311,313.808 496.086,301.711 C491.862,289.807 481.11,274.253 473.045,268.109 C469.205,265.229 466.133,261.772 466.133,260.428 C466.133,259.084 471.701,254.477 478.613,250.06 C485.526,245.644 491.094,240.843 491.094,239.308 C491.094,236.235 469.397,217.034 453.652,206.473 C448.275,202.826 441.939,198.217 439.251,196.104 C436.562,193.801 433.298,192.073 431.954,192.073 C430.611,192.073 427.538,190.729 425.234,189.193 C422.93,187.657 407.953,182.088 392.208,176.904 L363.406,167.495 L363.406,160.584 C363.214,156.743 362.447,152.902 361.294,151.75 C360.142,150.598 353.422,149.254 346.318,148.486 C335.181,147.526 333.069,146.759 331.725,143.11 C330.381,139.462 328.077,138.694 316.173,137.542 C299.851,135.813 297.547,137.35 301.963,145.99 C303.691,149.254 304.652,152.519 304.267,153.095 C303.691,153.479 300.044,152.135 296.011,149.831 C289.098,146.182 288.331,146.182 286.027,149.254 C282.762,153.862 283.146,156.359 287.563,160.391 C289.675,162.311 291.403,165 291.403,166.535 C291.403,170.568 286.794,169.416 281.803,164.231 C279.306,161.543 276.233,159.431 274.89,159.431 C273.738,159.431 271.625,158.087 270.282,156.551 C268.553,154.439 263.753,153.671 252.041,153.671 C234.183,153.671 232.264,152.327 228.423,139.27 C227.079,134.086 222.855,128.518 216.519,122.373 C207.11,113.541 206.726,113.349 195.013,113.349 C188.293,113.349 181.572,114.501 180.036,115.845 C176.004,119.109 172.356,126.021 172.356,130.437 C172.356,132.549 169.668,135.621 165.828,137.925 L159.3,141.766 L158.148,137.733 C157.571,135.43 156.996,127.749 156.996,120.644 C156.996,112.964 156.035,107.204 154.692,106.436 C153.539,105.668 147.395,105.092 141.25,105.092 z M314.416,265.486 C316.568,266.07 316.088,266.946 316.364,268.877 C316.364,271.373 315.404,272.718 313.868,272.333 C312.716,271.757 311.564,270.221 311.564,268.877 C311.564,267.533 312.716,265.996 313.868,265.613 L314.416,265.486 z M250.106,205.101 C253.832,205.199 256.016,204.878 255.881,209.354 C255.881,213.002 253.384,215.114 242.824,220.49 C235.72,224.139 227.463,230.091 224.583,233.547 C219.014,240.652 213.063,242.764 216.327,236.619 C217.479,234.507 218.631,230.667 219.206,227.595 C219.783,224.715 221.511,220.875 223.239,218.955 C224.775,217.226 226.119,214.346 226.119,212.426 C226.119,208.394 232.456,205.898 245.512,205.321 C248.196,205.169 246.665,205.248 250.106,205.101 z M145.756,204.177 C150.532,204.327 148.481,203.85 152.003,205.13 C156.227,207.05 156.996,208.586 156.996,215.114 C156.996,219.338 157.763,222.794 158.915,222.794 C159.875,222.794 160.835,223.754 160.835,224.715 C160.835,225.867 156.996,226.635 152.579,226.635 C141.442,226.635 136.834,222.027 139.138,213.002 C140.412,209.227 141.693,205.715 145.756,204.177 z" fill="#000000"/>
  </g>
</svg>
