<?xml version="1.0" encoding="UTF-8"?>
<!DOCTYPE svg PUBLIC "-//W3C//DTD SVG 1.1//EN" "http://www.w3.org/Graphics/SVG/1.1/DTD/svg11.dtd">
<svg version="1.1" xmlns="http://www.w3.org/2000/svg" xmlns:xlink="http://www.w3.org/1999/xlink" x="0" y="0" width="500" height="500" viewBox="0, 0, 500, 500">
  <g id="layer102">
    <path d="M141.25,106.756 C132.033,106.756 129.154,107.515 125.121,111.311 C118.785,117.006 114.753,124.788 114.753,130.672 C114.753,133.139 113.025,137.505 110.913,140.161 C105.728,146.616 105.728,157.814 110.913,160.472 C115.137,162.749 116.097,171.48 112.64,177.743 C110.913,180.97 111.297,181.73 114.753,182.678 C118.017,183.627 118.785,184.956 118.401,190.65 C118.209,194.447 119.17,199.951 120.513,202.798 C122.817,207.353 122.626,208.492 120.129,211.149 C118.401,212.857 115.521,213.617 113.985,213.047 C111.488,212.098 110.913,208.872 110.913,197.483 L110.913,183.247 L102.656,183.247 C98.048,183.247 92.672,184.576 90.56,186.095 C88.639,187.614 83.263,188.942 79.039,188.942 C74.623,188.942 63.486,191.599 54.269,194.826 C40.829,199.571 36.605,200.33 33.149,198.812 C29.692,197.293 28.348,197.293 27.58,199.571 C27.004,200.9 23.163,203.556 18.939,205.265 C7.227,209.821 2.235,218.931 0.506,238.671 C-0.069,247.781 -0.261,261.827 0.506,269.609 L1.851,284.034 L9.531,287.072 C19.324,290.867 20.668,294.664 20.668,319.718 C20.668,342.874 22.588,350.656 30.46,358.818 C33.532,362.044 36.028,365.651 36.028,366.599 C36.028,368.498 43.133,372.864 61.566,382.353 C83.648,393.553 112.449,387.669 134.338,367.549 C143.746,359.198 151.619,347.05 153.923,338.13 C155.844,330.727 160.643,332.055 173.508,343.254 C179.653,348.948 186.565,354.452 188.869,355.591 C191.173,356.73 203.846,357.679 219.399,357.679 C234.76,357.679 246.856,358.628 248.008,359.766 C250.312,362.044 269.705,362.234 271.05,359.956 C271.625,359.198 275.081,357.869 278.922,357.3 C286.027,356.161 295.243,350.087 308.108,337.94 L316.364,330.347 L316.364,306.621 C316.364,278.151 317.325,273.975 322.893,274.734 C325.389,275.113 326.541,276.442 326.157,278.151 C324.045,285.743 323.853,295.233 325.965,299.029 C327.501,301.687 328.269,311.746 328.077,326.93 C327.693,349.328 329.036,355.971 333.645,355.971 C334.605,355.971 341.134,351.226 348.238,345.341 C360.335,335.662 361.487,335.092 363.791,338.13 C365.135,340.027 366.287,342.305 366.287,343.254 C366.287,344.203 368.015,347.05 370.127,349.707 C372.24,352.365 373.967,356.161 373.967,358.059 C373.967,359.766 376.271,363.183 379.152,365.461 C381.84,367.549 385.104,371.345 386.256,373.622 C387.6,376.09 390.673,377.988 393.745,378.368 C396.816,378.748 400.273,381.025 402.001,383.682 C404.497,387.099 406.801,388.237 412.37,388.237 C416.594,388.237 420.626,389.566 422.162,391.275 C423.698,393.173 426.003,393.742 429.459,392.793 C432.146,392.224 435.219,391.464 436.371,391.464 C437.331,391.464 440.019,392.034 442.132,392.603 C444.627,393.363 448.852,392.034 453.652,389.186 C457.876,386.53 462.868,384.442 464.596,384.442 C466.516,384.442 468.82,382.733 469.972,380.646 C471.125,378.558 473.621,376.849 475.541,376.849 C479.958,376.849 485.334,370.966 485.334,366.031 C485.334,363.943 487.253,361.285 490.134,360.146 C493.59,358.628 494.934,356.54 494.934,352.554 C494.934,349.707 496.278,345.531 497.814,343.444 C501.463,338.318 500.311,313.075 496.086,301.117 C491.862,289.349 481.11,273.975 473.045,267.901 C469.205,265.054 466.133,261.637 466.133,260.308 C466.133,258.98 471.701,254.425 478.613,250.059 C485.526,245.694 491.094,240.948 491.094,239.43 C491.094,236.393 469.397,217.413 453.652,206.973 C448.275,203.368 441.939,198.812 439.251,196.723 C436.562,194.447 433.298,192.738 431.954,192.738 C430.611,192.738 427.538,191.409 425.234,189.891 C422.93,188.373 407.953,182.868 392.208,177.743 L363.406,168.442 L363.406,161.61 C363.214,157.814 362.447,154.017 361.294,152.879 C360.142,151.74 353.422,150.411 346.318,149.652 C335.181,148.703 333.069,147.944 331.725,144.338 C330.381,140.731 328.077,139.972 316.173,138.834 C299.851,137.125 297.547,138.644 301.963,147.184 C303.691,150.411 304.652,153.639 304.267,154.207 C303.691,154.587 300.044,153.259 296.011,150.981 C289.098,147.374 288.331,147.374 286.027,150.411 C282.763,154.966 283.146,157.434 287.563,161.42 C289.675,163.318 291.403,165.976 291.403,167.494 C291.403,171.48 286.794,170.341 281.803,165.216 C279.306,162.559 276.233,160.472 274.89,160.472 C273.738,160.472 271.625,159.143 270.282,157.624 C268.553,155.536 263.753,154.777 252.041,154.777 C234.183,154.777 232.264,153.449 228.423,140.541 C227.079,135.417 222.855,129.913 216.519,123.839 C207.11,115.108 206.726,114.918 195.013,114.918 C188.293,114.918 181.573,116.057 180.036,117.386 C176.004,120.612 172.356,127.445 172.356,131.811 C172.356,133.898 169.668,136.935 165.828,139.213 L159.3,143.009 L158.148,139.023 C157.571,136.746 156.996,129.153 156.996,122.13 C156.996,114.538 156.035,108.844 154.692,108.085 C153.539,107.326 147.395,106.756 141.25,106.756 z M314.416,265.308 C316.568,265.886 316.088,266.751 316.364,268.66 C316.364,271.128 315.404,272.457 313.868,272.077 C312.716,271.507 311.564,269.989 311.564,268.66 C311.564,267.331 312.716,265.813 313.868,265.434 L314.416,265.308 z M250.106,205.617 C253.832,205.713 256.016,205.396 255.881,209.821 C255.881,213.427 253.384,215.515 242.824,220.829 C235.72,224.436 227.463,230.32 224.583,233.736 C219.014,240.759 213.063,242.847 216.327,236.773 C217.479,234.685 218.631,230.889 219.206,227.852 C219.783,225.005 221.511,221.209 223.239,219.311 C224.775,217.603 226.119,214.756 226.119,212.857 C226.119,208.872 232.456,206.404 245.512,205.834 C248.196,205.684 246.665,205.762 250.106,205.617 z M145.756,204.703 C150.532,204.852 148.481,204.38 152.003,205.645 C156.227,207.543 156.996,209.062 156.996,215.515 C156.996,219.69 157.763,223.107 158.915,223.107 C159.875,223.107 160.835,224.056 160.835,225.005 C160.835,226.144 156.996,226.903 152.579,226.903 C141.442,226.903 136.834,222.348 139.138,213.427 C140.412,209.696 141.693,206.223 145.756,204.703 z" fill="#000000"/>
  </g>
</svg>
