<?xml version="1.0" encoding="UTF-8"?>
<!DOCTYPE svg PUBLIC "-//W3C//DTD SVG 1.1//EN" "http://www.w3.org/Graphics/SVG/1.1/DTD/svg11.dtd">
<svg version="1.1" xmlns="http://www.w3.org/2000/svg" xmlns:xlink="http://www.w3.org/1999/xlink" x="0" y="0" width="500" height="500" viewBox="0, 0, 500, 500">
  <g id="Layer_1">
    <path d="M433.463,115 C433.655,113.974 434.04,113.013 434.296,112.051 C434.296,111.731 434.296,111.41 434.296,111.09 C420.194,115.192 406.219,119.423 392.053,123.205 C383.463,125.513 374.681,127.115 366.027,129.038 C365.578,129.167 365.13,129.167 363.976,129.359 C372.245,118.397 380.194,107.949 388.078,97.436 C387.95,97.308 387.822,97.115 387.758,96.987 C365.258,107.756 342.822,118.526 320.322,129.231 C320.194,129.103 320.065,128.974 319.937,128.846 C320.386,128.141 320.835,127.436 321.283,126.795 C349.104,85.769 376.988,44.679 404.809,3.654 C405.578,2.5 406.219,1.218 406.988,-0 C364.424,-0 321.924,-0 279.488,-0 C279.168,0.641 278.912,1.282 278.527,1.923 C251.54,46.538 224.553,91.154 197.63,135.833 C196.54,137.628 195.45,138.205 193.399,137.885 C182.694,136.41 171.924,135.256 161.219,133.654 C129.553,128.782 98.399,121.859 68.078,111.538 C67.694,111.41 67.245,111.346 66.668,111.218 C66.732,111.795 66.732,112.051 66.796,112.372 C72.694,143.526 78.655,174.679 84.553,205.833 C84.809,207.115 84.809,208.59 84.617,209.872 C80.001,234.487 75.258,259.103 70.578,283.782 C69.296,290.705 67.95,297.564 66.604,304.872 C85.129,298.462 103.655,293.59 122.437,289.487 C141.219,285.385 160.194,282.051 179.809,279.679 C170.578,297.436 161.668,314.615 152.758,331.795 C152.886,331.923 153.078,331.987 153.206,332.115 C171.924,323.333 190.642,314.487 209.36,305.705 C209.488,305.833 209.617,305.962 209.745,306.154 C175.45,370.769 141.219,435.385 106.988,500 C108.014,499.551 108.655,498.846 109.232,498.141 C169.617,425 230.065,351.859 290.45,278.718 C291.604,277.308 292.758,276.667 294.681,276.859 C331.412,280 367.63,285.962 403.206,295.513 C413.655,298.333 423.912,301.667 434.296,304.808 C434.296,304.487 434.296,304.167 434.296,303.846 C433.206,298.526 431.988,293.269 430.963,287.885 C426.027,262.051 421.091,236.154 416.219,210.256 C415.963,208.718 415.963,207.051 416.219,205.513 C421.988,175.385 427.694,145.192 433.463,115 z M230.835,181.346 C217.245,207.5 203.655,233.654 190.13,259.808 C189.36,261.346 188.399,261.987 186.668,262.179 C154.553,265.705 122.758,270.962 91.347,278.718 C90.899,278.846 90.386,278.846 89.617,278.974 C89.809,277.436 90.001,276.026 90.194,274.679 C93.591,253.526 96.988,232.308 100.514,211.154 C101.347,205.897 99.745,200.962 98.976,195.962 C96.027,176.923 92.886,157.821 89.809,138.782 C89.745,138.333 89.745,137.821 89.681,137.372 C105.835,140.577 121.796,144.103 137.886,146.859 C153.976,149.679 170.13,151.731 186.54,154.231 C180.13,164.808 173.719,175.449 167.309,186.026 C160.899,196.667 154.488,207.244 148.399,218.333 C176.412,204.615 204.424,190.833 232.501,177.115 C232.63,177.244 232.758,177.372 232.886,177.5 C232.181,178.718 231.476,180.064 230.835,181.346 z M401.86,220.321 C404.809,239.295 407.95,258.269 411.027,277.244 C411.091,277.692 411.091,278.141 411.155,279.038 C376.219,270.513 341.091,264.744 304.937,261.218 C322.373,240.128 339.424,219.423 356.54,198.718 C356.412,198.59 356.347,198.397 356.219,198.269 C334.553,207.692 312.822,217.115 290.578,226.795 C291.155,225.833 291.347,225.321 291.732,224.872 C310.386,200.128 329.104,175.385 347.822,150.705 C348.527,149.808 349.809,149.103 350.899,148.846 C370.45,144.872 390.001,140.962 409.553,137.115 C410.001,137.051 410.45,136.987 411.155,136.923 C411.027,137.885 410.963,138.654 410.835,139.423 C407.309,161.218 403.783,183.077 400.258,204.872 C399.424,210.256 401.091,215.256 401.86,220.321 z" fill="#000000"/>
  </g>
</svg>
