<?xml version="1.0" encoding="UTF-8"?>
<!DOCTYPE svg PUBLIC "-//W3C//DTD SVG 1.1//EN" "http://www.w3.org/Graphics/SVG/1.1/DTD/svg11.dtd">
<svg version="1.1" xmlns="http://www.w3.org/2000/svg" xmlns:xlink="http://www.w3.org/1999/xlink" x="0" y="0" width="500" height="500" viewBox="0, 0, 500, 500">
  <g id="layer102">
    <path d="M187.39,497.856 C189.145,495.419 189.438,489.669 187.975,488.791 C187.488,488.499 187.001,486.258 187.001,484.016 L187.001,479.824 L191.971,479.337 C201.328,478.363 202.303,476.706 204.447,458.577 C205.032,453.216 206.201,443.568 206.981,437.134 C207.761,430.702 208.93,414.035 209.515,400.098 C210.295,380.994 210.88,374.366 211.952,373.197 C213.706,371.248 213.706,369.006 211.854,367.447 C210.88,366.569 210.393,364.425 210.393,360.331 L210.393,354.483 L216.631,355.068 C220.334,355.458 223.161,355.264 223.746,354.679 C224.428,353.996 227.351,353.899 231.445,354.191 C248.989,355.751 252.595,355.848 253.57,354.873 C254.155,354.288 257.371,353.801 260.782,353.801 L266.923,353.801 L266.923,359.649 C266.923,363.45 266.338,366.471 265.363,368.032 C263.901,370.176 263.901,370.565 265.266,372.125 C266.923,373.879 267.312,378.167 268.775,407.895 C269.164,417.544 269.847,428.07 270.237,431.287 C273.55,460.039 275.11,470.663 276.279,474.756 C276.864,476.706 280.471,478.265 286.708,479.143 C291.289,479.727 291.289,479.727 291.289,483.529 C291.289,485.575 290.899,487.524 290.315,487.817 C288.755,488.791 289.145,495.321 290.997,497.271 C292.459,498.928 295.383,499.026 342.459,499.026 C388.755,499.026 392.459,498.928 393.824,497.369 C394.896,496.199 395.48,492.885 395.87,487.037 C396.26,478.752 396.162,478.363 394.116,477.583 C392.654,476.998 391.582,475.536 391.191,473.49 C390.802,471.735 389.438,467.934 388.17,465.01 C386.903,462.183 385.831,459.649 385.831,459.454 C385.831,459.259 387.196,459.065 388.755,459.065 C391.387,459.065 391.679,458.772 391.776,455.945 C391.874,454.191 391.776,452.339 391.679,451.755 C391.484,451.267 389.73,443.762 387.683,435.185 C384.174,420.37 381.737,412.67 375.305,397.173 C373.746,393.47 370.919,385.77 368.969,380.117 C366.046,371.637 365.558,369.298 366.24,366.179 C367.02,363.158 366.825,362.378 365.363,361.598 C364.389,361.111 362.634,358.674 361.465,356.336 C359.905,352.924 359.613,351.559 360.393,350 C361.854,347.369 361.757,346.004 360.1,346.589 C358.833,347.076 357.079,343.762 356.396,339.669 C356.201,338.304 355.227,337.622 353.083,337.427 C349.282,337.037 349.282,337.037 343.433,316.277 C340.802,307.212 338.268,299.415 337.78,299.123 C337.293,298.733 337.098,297.953 337.488,297.369 C337.878,296.784 336.611,295.712 334.369,294.834 C330.665,293.372 330.568,293.08 329.496,286.745 C328.814,283.138 328.423,276.706 328.521,272.417 L328.814,264.62 L326.085,264.327 C322.965,263.938 322.089,262.281 321.114,254.386 C320.237,247.563 315.559,228.947 312.244,219.006 C310.88,214.912 309.905,211.209 310.197,210.721 C310.393,210.331 309.418,208.48 307.858,206.628 L305.129,203.314 L301.328,205.945 C295.87,209.649 291.289,209.357 292.848,205.264 C293.239,204.386 294.603,203.703 296.26,203.703 C299.086,203.703 308.345,200.39 310.587,198.635 C311.562,197.758 311.562,197.271 310.49,196.004 C308.93,194.347 309.321,192.398 311.465,189.863 C312.732,188.499 312.732,187.817 311.27,184.795 C309.71,181.481 309.71,181.092 313.706,166.959 C315.948,159.065 317.897,151.949 318.092,151.365 C318.384,150.682 318.969,150.098 319.554,150.098 C320.334,150.098 320.529,154.191 320.334,163.548 L320.041,176.901 L327.449,177.193 C334.857,177.486 334.857,177.486 336.416,180.896 C339.047,186.452 338.755,187.134 333.2,187.134 L328.327,187.134 L328.327,196.686 C328.327,209.259 330.665,226.316 334.174,240.351 C335.831,246.589 337.098,251.949 337.098,252.047 C337.098,252.242 337.78,252.437 338.56,252.437 C339.438,252.437 340.022,253.314 340.022,254.679 C340.022,255.848 340.802,257.31 341.776,257.992 C343.141,258.772 343.824,260.819 344.311,265.302 C344.7,269.104 345.48,271.833 346.455,272.612 C347.234,273.197 349.184,277.193 350.743,281.384 C353.375,288.889 353.472,288.986 356.592,288.791 C364.096,288.402 369.262,281.872 369.262,272.709 C369.262,269.493 369.749,266.862 370.529,266.277 C371.211,265.692 372.576,262.183 373.648,258.382 C375.5,251.559 375.597,251.462 378.716,251.462 C383.687,251.462 384.857,254.191 384.369,264.035 C383.979,270.955 384.174,272.417 385.636,273.489 C388.073,275.244 388.658,300.585 386.416,308.285 C385.539,311.209 384.857,314.912 384.857,316.471 C384.857,321.248 390.022,327.388 394.116,327.486 C395.188,327.486 398.014,329.045 400.354,330.896 C402.693,332.749 405.324,334.308 406.201,334.308 C409.808,334.308 415.851,313.353 419.456,288.499 C420.236,283.431 421.211,279.143 421.698,278.947 C425.11,277.875 425.792,276.316 424.622,272.612 C423.843,269.883 423.746,268.421 424.525,267.154 C426.085,264.62 426.962,259.552 425.89,258.869 C425.402,258.577 424.72,256.432 424.33,254.094 C421.796,238.206 413.901,211.501 406.786,194.444 C402.887,184.99 402.693,184.308 403.863,180.8 C405.324,176.608 404.935,174.854 402.4,174.171 C401.133,173.879 399.769,170.955 397.527,164.035 C393.92,152.631 393.92,147.856 397.429,147.369 C399.379,147.076 399.574,146.589 399.086,144.152 C398.599,141.618 398.794,141.326 400.938,141.326 C403.667,141.326 405.032,139.669 403.472,138.109 C402.887,137.524 402.4,135.185 402.4,132.944 C402.4,128.752 398.697,105.068 395.968,91.423 C394.603,84.698 394.603,83.041 395.87,75.829 C396.747,71.345 397.625,65.302 398.014,62.281 L398.599,56.823 L395.577,56.238 L392.654,55.556 L392.848,49.026 L393.141,42.398 L388.268,40.838 C355.714,29.922 333.589,21.93 332.907,20.857 C332.517,20.078 331.64,19.493 331.152,19.493 C329.496,19.493 321.504,15.595 321.504,14.718 C321.504,14.327 320.334,14.133 318.872,14.327 C314.876,14.912 310.977,13.158 310.587,10.526 C310.393,8.869 309.613,8.285 307.858,8.285 C305.422,8.285 305.422,8.48 304.837,18.032 C304.447,23.392 304.155,33.529 304.057,40.448 C303.959,54.288 303.18,60.721 301.913,59.844 C301.426,59.552 301.036,46.393 301.036,30.604 L301.036,1.949 L282.517,1.949 C270.821,1.949 263.999,1.559 263.999,0.974 C263.999,0.39 255.422,-0 240.119,-0 C226.962,-0 216.24,0.39 216.24,0.877 C216.24,1.267 207.176,1.949 196.065,2.339 C184.954,2.729 175.694,3.119 175.597,3.314 C175.5,3.411 175.11,16.764 174.72,32.944 C174.33,49.123 173.746,62.378 173.355,62.378 C172.868,62.378 172.283,53.703 171.893,43.177 C171.601,32.553 171.017,20.565 170.626,16.569 C170.041,10.039 169.749,9.259 167.8,8.967 C166.338,8.772 165.363,9.454 164.389,11.403 C163.219,13.84 162.537,14.133 157.761,14.425 C153.57,14.62 151.913,15.205 150.158,17.154 C148.892,18.421 147.332,19.493 146.553,19.493 C145.773,19.493 144.408,20.273 143.433,21.248 C142.459,22.222 132.907,26.023 122.186,29.727 C111.465,33.333 98.697,37.817 93.824,39.571 C87.39,41.813 84.564,42.398 83.785,41.618 C82.03,39.863 81.348,43.568 82.42,49.318 C83.492,55.166 82.712,57.115 79.301,57.7 C77.059,58.089 77.059,57.895 79.301,73.099 C81.056,84.893 80.665,92.203 77.351,109.649 C75.305,120.663 74.038,129.727 73.746,135.965 C73.453,141.423 73.648,141.813 75.694,142.105 C77.936,142.495 78.521,143.664 76.864,144.736 C75.402,145.614 76.864,148.051 79.106,148.343 C80.665,148.538 81.348,149.415 81.543,151.267 C81.835,153.703 82.224,153.996 85.734,153.996 C89.243,153.996 90.704,155.166 88.658,156.336 C88.17,156.725 87.293,160.137 86.611,164.035 C86.026,167.836 85.051,173.197 84.564,175.731 C84.077,178.363 83.979,182.066 84.272,184.113 C84.857,187.817 80.568,213.158 76.669,228.558 C75.597,232.846 74.525,237.817 74.233,239.571 C73.746,242.495 73.843,242.69 76.767,242.69 L79.886,242.69 L79.399,249.805 C79.203,253.606 78.716,257.602 78.327,258.48 C77.351,260.819 89.535,272.125 96.357,275.146 C109.515,280.994 114.194,281.189 119.847,276.121 C124.622,271.735 126.572,268.226 126.572,263.645 C126.572,261.696 127.547,258.382 128.619,256.14 C131.25,251.072 130.665,246.199 126.572,236.842 C125.012,233.236 123.648,229.922 123.648,229.532 C123.648,229.239 124.72,229.143 126.085,229.239 C127.936,229.435 128.911,228.85 129.886,227.095 C131.932,223.197 134.661,215.107 134.759,212.476 C134.857,211.111 135.636,209.454 136.611,208.772 C137.78,207.895 138.17,206.725 137.683,205.458 C137.39,204.386 137.586,201.559 138.268,199.22 C139.34,195.419 139.243,194.834 137.39,192.398 C135.344,189.766 135.344,189.766 137.196,187.719 C138.17,186.55 139.73,184.113 140.51,182.164 C141.874,178.752 142.069,178.655 148.404,178.07 C152.011,177.68 155.324,177.193 155.812,176.901 C156.396,176.51 156.786,170.468 156.786,163.06 C156.786,155.751 157.079,150.098 157.468,150.487 C158.249,151.17 163.511,168.616 165.753,177.778 C166.727,181.872 166.727,182.553 165.363,183.333 C163.609,184.308 164.096,187.427 166.533,191.911 C167.41,193.568 167.41,194.444 166.435,195.614 C165.363,196.881 165.461,197.369 167.02,198.441 C169.456,200.195 178.716,203.703 181.056,203.703 C183.297,203.703 184.466,208.187 182.42,208.967 C180.763,209.649 177.059,208.187 175.402,206.238 C173.55,203.996 170.724,204.288 169.262,206.92 C166.338,212.183 157.956,242.885 156.299,254.386 C155.032,263.84 154.935,264.035 151.621,264.327 C148.404,264.62 147.917,265.887 148.112,273.879 C148.502,290.546 148.014,292.885 143.433,295.127 C139.047,297.173 139.145,297.173 135.831,310.916 C134.272,317.056 131.932,325.634 130.568,329.922 C128.131,337.33 127.839,337.719 125.012,338.012 C122.381,338.304 121.796,338.791 121.309,341.618 C120.919,343.568 119.652,345.712 118.092,346.784 C115.851,348.441 115.655,348.928 116.728,350.292 C118.58,352.534 116.435,358.48 113.219,359.746 C110.978,360.526 110.88,360.916 111.367,365.887 C111.854,370.37 111.367,372.905 108.249,382.261 C106.104,388.304 102.693,397.661 100.549,403.022 C95.577,415.107 93.141,423.392 90.119,437.719 C88.853,443.86 87.39,449.805 86.903,451.072 C86.416,452.339 86.221,454.873 86.416,456.725 C86.806,459.649 87.196,460.039 89.632,460.039 C91.191,460.039 92.459,460.137 92.459,460.331 C92.459,460.429 91.095,463.742 89.535,467.739 C87.878,471.637 86.611,475.536 86.611,476.316 C86.611,477.095 85.734,477.973 84.661,478.265 C82.907,478.752 82.712,479.63 82.712,488.109 C82.712,495.809 83.005,497.563 84.466,498.635 C85.831,499.708 96.065,499.902 136.026,500 L185.929,500 L187.39,497.856 z" fill="#000000"/>
  </g>
</svg>
