<?xml version="1.0" encoding="UTF-8"?>
<!DOCTYPE svg PUBLIC "-//W3C//DTD SVG 1.1//EN" "http://www.w3.org/Graphics/SVG/1.1/DTD/svg11.dtd">
<svg version="1.1" xmlns="http://www.w3.org/2000/svg" xmlns:xlink="http://www.w3.org/1999/xlink" x="0" y="0" width="500" height="500" viewBox="0, 0, 500, 500">
  <g id="layer102">
    <path d="M140.665,195.439 C134.083,195.31 126.122,199.251 125.456,206.529 C125.456,207.72 123.999,211.825 122.278,215.533 C119.1,222.154 113.274,227.186 111.288,225.067 C110.625,224.537 110.36,218.711 110.493,212.222 L110.758,200.306 L86.394,201.1 L85.996,206.794 C85.466,213.68 84.275,214.341 68.12,215.533 C56.997,216.327 46.934,218.182 41.372,220.433 C34.619,223.08 32.5,223.213 30.912,220.829 C29.191,218.578 28.793,218.578 21.378,220.829 C17.008,222.154 13.036,223.345 12.506,223.478 C11.976,223.61 11.182,238.176 10.785,256.052 C10.52,273.928 9.99,291.804 9.593,295.909 C9.063,301.073 9.328,303.721 10.52,304.781 C11.447,305.442 16.346,306.767 21.51,307.561 C50.509,311.931 75.668,316.963 77.654,318.949 C78.846,320.273 74.741,322.26 70.901,322.26 C64.015,322.26 63.221,323.319 63.221,331.528 C63.221,337.222 64.015,340.665 66.531,344.902 L69.841,350.729 L66.796,351.39 C64.28,352.052 63.883,352.98 63.883,359.203 L63.883,366.354 L71.166,368.075 C75.138,369.002 80.964,370.458 84.142,371.253 C90.366,372.709 160.149,373.107 161.737,371.65 C164.915,368.472 174.052,367.28 196.032,367.28 C209.804,367.28 220.662,366.751 222.251,365.956 C223.708,365.161 224.766,363.175 224.766,361.189 C224.766,359.203 225.694,357.614 227.018,357.217 C228.342,356.82 231.785,355.363 234.698,353.906 C239.2,351.788 242.775,351.391 258.665,351.39 C278.924,351.391 277.733,351.788 286.075,342.254 C289.385,338.414 290.312,338.149 297.992,338.149 C305.805,338.149 306.864,338.546 314.941,344.24 C319.576,347.55 325.005,350.861 327.123,351.655 C329.242,352.45 331.095,354.304 331.493,356.157 C332.42,359.998 337.32,360.659 337.32,356.82 C337.32,353.112 340.762,350.596 343.278,352.715 C344.337,353.641 345.264,355.496 345.264,356.82 C345.264,358.673 346.191,359.335 348.575,359.335 C350.958,359.335 351.885,358.673 351.885,356.82 C351.885,351.126 359.3,350.199 360.094,355.761 C360.359,357.614 361.551,358.806 363.405,359.071 C365.921,359.468 366.45,358.938 366.45,356.29 C366.45,352.052 370.423,350.331 372.674,353.51 C373.601,354.833 374.395,356.687 374.395,357.614 C374.395,358.541 375.852,359.335 377.705,359.335 C379.957,359.335 381.016,358.541 381.016,357.084 C381.016,352.98 383.135,350.994 386.181,352.052 C388.034,352.582 388.961,354.039 388.961,356.157 C388.961,358.938 389.491,359.468 392.007,359.071 C393.86,358.806 395.052,357.614 395.317,355.761 C395.846,352.317 398.892,350.994 402.202,352.715 C405.778,354.701 435.703,354.436 437.689,352.45 C438.749,351.391 439.279,346.227 439.279,337.885 L439.279,324.907 L464.702,324.907 C478.738,324.907 491.053,324.378 492.112,323.716 C493.701,322.789 493.701,320.67 492.51,311.533 C491.715,305.442 490.126,297.365 488.802,293.526 L486.55,286.64 C467.351,251.02 465.497,252.079 464.702,252.079 C462.981,252.079 455.168,245.591 455.168,244.135 C455.168,243.472 457.552,240.692 460.465,238.044 C463.378,235.263 465.762,232.35 465.762,231.556 C465.762,229.569 455.168,225.199 441.927,221.757 C425.508,217.652 411.206,215.666 383.002,213.68 C373.468,213.017 364.596,212.222 363.14,212.09 C360.889,211.693 360.492,212.62 360.094,217.652 C359.829,220.962 359.168,224.14 358.506,224.802 C356.917,226.391 342.086,225.861 335.465,223.875 C331.36,222.684 330.037,222.816 329.639,224.008 C328.977,226.126 310.837,226.126 306.335,224.14 C303.686,222.948 302.494,222.948 300.905,224.273 C297.992,226.789 280.513,226.126 277.468,223.345 C275.482,221.624 275.085,221.624 273.098,224.008 C271.112,226.259 269.523,226.524 261.976,225.994 C257.209,225.729 251.647,224.802 249.661,224.008 C246.748,222.948 245.556,223.08 243.835,224.935 C241.716,226.921 241.319,226.789 237.876,223.478 C235.228,220.829 234.036,218.578 234.036,215.401 C234.036,207.72 225.031,206.794 222.515,214.341 C222.119,215.798 220.264,219.241 218.411,221.889 C215.763,225.994 214.438,226.921 210.731,226.921 C205.699,226.921 204.375,230.098 208.877,231.556 C210.599,232.085 211.525,233.542 211.525,235.66 C211.525,240.56 204.11,243.472 196.562,241.354 C186.367,238.705 175.111,234.733 167.431,231.158 C159.884,227.715 159.751,227.45 160.413,223.08 C160.943,219.77 160.281,217.519 157.898,213.944 C156.043,211.296 154.587,208.118 154.587,206.926 C154.587,204.145 146.377,196.73 142.008,195.671 L140.665,195.439 z M118.911,262.993 L120.08,263.05 L121.218,263.335 C126.913,264.792 128.104,266.513 128.104,273.531 C128.104,281.078 126.515,284.918 122.411,286.508 C120.821,287.169 118.835,287.434 118.173,287.301 C116.319,286.772 115.79,280.681 116.849,270.883 C117.034,269.229 117.157,264.036 118.568,263.116 L118.911,262.993 z M167.854,250.559 C172.834,250.625 177.883,250.591 182.791,251.55 C184.513,252.079 184.91,253.007 184.381,254.463 C182.526,258.832 183.056,260.554 186.632,262.408 C188.75,263.335 190.339,264.659 190.339,265.321 C190.339,266.778 184.513,272.736 182.13,273.795 C179.878,274.722 172.33,273.531 168.623,271.677 C167.166,270.883 164.915,269.823 163.856,269.294 C162.796,268.764 161.473,266.38 161.075,263.864 C160.545,261.348 159.884,258.435 159.354,257.244 C158.162,254.463 161.737,250.755 165.577,250.623 L167.854,250.559 z" fill="#000000"/>
    <g>
      <path d="M134.333,259 L250.667,145.333 L236.667,123.333 L260,133.333 L302.667,99.333 L270,145.333 L279.333,164 L260.667,153.333 L144.333,267 L134.333,259 z" fill="#000000"/>
      <path d="M134.333,259 L250.667,145.333 L236.667,123.333 L260,133.333 L302.667,99.333 L270,145.333 L279.333,164 L260.667,153.333 L144.333,267 L134.333,259 z" fill-opacity="0" stroke="#000000" stroke-width="1"/>
    </g>
  </g>
</svg>
