<?xml version="1.0" encoding="UTF-8"?>
<!DOCTYPE svg PUBLIC "-//W3C//DTD SVG 1.1//EN" "http://www.w3.org/Graphics/SVG/1.1/DTD/svg11.dtd">
<svg version="1.1" xmlns="http://www.w3.org/2000/svg" xmlns:xlink="http://www.w3.org/1999/xlink" x="0" y="0" width="500" height="500" viewBox="0, 0, 500, 500">
  <g id="svgg">
    <path d="M228.995,1.005 C224.197,1.396 223.825,1.696 224.009,5.034 C224.118,6.99 224.4,7.7 225.79,9.515 C227.171,11.32 234.673,22.652 251.371,48.158 C252.882,50.464 256.315,56.408 259.002,61.367 C261.69,66.326 265.158,72.648 266.71,75.415 C272.578,85.883 274.168,89.18 277.251,97.279 C281.763,109.135 285.985,121.083 287.896,127.416 C288.801,130.414 290.14,134.809 290.87,137.181 C292.251,141.671 292.155,143.981 290.585,143.981 C290.263,143.981 289.673,144.157 289.272,144.373 C288.872,144.588 287.933,145.01 287.188,145.31 C285.652,145.93 285.227,146.65 285.786,147.693 C285.996,148.088 286.361,149.796 286.596,151.491 C286.932,153.92 287.295,154.911 288.31,156.175 C290.513,158.915 297.786,180.779 296.842,181.822 C296.297,182.424 296.236,182.778 296.582,183.332 C297.632,185.015 297.632,186.516 296.582,187.176 C296.031,187.521 294.752,188.503 293.739,189.359 C288.067,194.152 286.975,194.86 286.587,193.989 C286.371,193.505 280.339,189.063 278.689,188.174 C277.883,187.74 277.127,187.276 277.012,187.143 C276.897,187.011 275.909,186.54 274.818,186.095 C273.726,185.651 272.267,184.793 271.574,184.19 C270.281,183.062 265.195,181.297 257.189,179.198 C255.443,178.74 255.09,178.762 254.429,179.359 C254.012,179.737 253.249,180.045 252.733,180.045 C252.218,180.045 251.458,180.226 251.045,180.447 C250.41,180.787 250.21,180.589 249.739,179.164 C248.584,175.664 244.346,174.378 242.036,176.828 L240.645,178.303 L240.629,182.844 C240.62,185.341 240.41,188.234 240.162,189.271 C239.912,190.309 239.69,193.046 239.666,195.352 C239.612,200.618 239.409,200.106 239.049,193.797 C238.796,189.351 238.673,188.789 237.75,187.866 C236.232,186.348 227.662,183.777 217.254,181.718 C216.331,181.536 214.255,181.075 212.64,180.694 C202.032,178.185 192.532,177.819 184.334,179.599 C183.296,179.825 181.503,180.191 180.35,180.415 C179.197,180.637 177.215,181.107 175.947,181.457 C168.816,183.427 167.281,183.888 166.622,184.254 C166.221,184.477 165.605,184.659 165.253,184.659 C164.901,184.659 164.285,184.834 163.884,185.049 C163.484,185.264 161.646,186.031 159.801,186.752 C152.519,189.601 148.598,191.851 147.922,193.57 C147.119,195.611 146.956,195.569 145.165,192.87 C142.827,189.347 138.889,189.383 137.191,192.94 C136.405,194.588 135.341,194.696 134.089,193.255 C132.909,191.897 132.418,191.936 130.735,193.512 C129.411,194.753 129.32,194.777 128.772,194.034 C128.311,193.41 128.091,193.36 127.665,193.78 C127.372,194.068 126.687,194.304 126.141,194.304 C125.595,194.304 124.547,194.754 123.813,195.306 C123.079,195.858 121.818,196.445 121.01,196.612 C119.15,196.997 114.55,199.187 113.101,200.378 C112.492,200.878 111.053,201.737 109.901,202.286 C105.72,204.278 97.527,211.054 97.527,212.52 C97.527,213.153 97.019,213.642 95.744,214.233 C93.607,215.227 92.748,216.766 92.705,219.675 C92.674,221.824 92.218,223.956 91.626,224.716 C90.933,225.607 91.958,230.741 93.239,232.785 C93.922,233.878 95.187,236.187 96.048,237.917 C98.807,243.462 99.171,243.788 102.608,243.788 C106.03,243.788 107.352,244.289 106.789,245.373 C104.353,250.068 105.095,251.643 110.382,252.997 C111.34,253.243 112.525,253.772 113.014,254.173 L113.902,254.901 L112.817,258.885 C112.22,261.076 111.574,263.485 111.382,264.239 C111.15,265.145 110.043,266.524 108.126,268.3 C106.507,269.799 104.772,271.878 104.205,273 C101.974,277.414 98.816,281.949 97.975,281.949 C93.545,281.949 91.599,296.339 95.802,298.031 C96.634,298.367 97.767,299.125 98.318,299.715 L99.319,300.788 L99.03,309.297 C97.93,341.739 98.108,345.386 100.888,347.441 C101.576,347.949 102.139,348.605 102.139,348.896 C102.139,349.188 102.942,349.981 103.922,350.661 C105.912,352.04 108.436,354.381 110.323,356.6 C111.643,358.151 113.741,359.112 115.81,359.112 C116.492,359.112 117.425,359.374 117.882,359.695 C118.694,360.264 121.828,361.339 124.785,362.065 C127.207,362.66 129.209,360.691 128.165,358.74 C127.757,357.978 127.858,357.923 129.551,357.988 C133.299,358.133 133.113,360.193 128.531,369.322 L124.71,376.934 L124.979,380.289 C125.127,382.134 125.249,384.118 125.251,384.699 C125.252,385.279 123.449,389.336 121.245,393.715 L117.236,401.675 L117.236,405.298 C117.236,407.508 117.504,409.748 117.924,411.047 C118.602,413.145 118.596,413.207 117.542,415.393 C115.965,418.663 115.945,418.871 117.056,420.378 C118.314,422.082 118.314,422.299 117.076,425.043 C115.396,428.765 115.384,428.962 116.761,429.943 C117.44,430.426 118.204,430.822 118.46,430.822 C118.716,430.822 119.252,430.995 119.654,431.205 C120.054,431.417 121.108,431.907 121.996,432.293 C123.691,433.033 123.892,434.585 122.698,437.691 C122.509,438.18 122.124,439.429 121.842,440.467 C121.559,441.505 121.09,443.204 120.801,444.241 C120.511,445.28 120.065,446.883 119.81,447.806 C119.554,448.729 118.87,450.988 118.29,452.827 C117.71,454.665 117.236,456.473 117.236,456.845 C117.236,457.216 117.098,457.659 116.928,457.829 C116.528,458.229 115.553,462.373 115.29,464.79 C115.111,466.428 115.331,468.297 116.23,472.757 C116.376,473.478 116.14,474.134 115.476,474.855 C113.285,477.234 110.107,482.617 110.107,483.952 C110.107,484.656 108.625,485.757 107.678,485.757 C106.548,485.757 105.913,486.921 105.913,488.992 C105.913,491.244 106.873,492.506 108.361,492.208 C109.362,492.008 111.12,493.817 110.438,494.347 C110.372,494.399 109.949,494.638 109.499,494.88 C108.764,495.275 108.88,495.413 110.653,496.246 C111.737,496.756 112.624,497.311 112.624,497.478 C112.624,499.488 152.815,500.869 155.817,498.964 C156.163,498.744 157.296,498.539 158.333,498.508 C160.139,498.454 161.468,498.122 167.559,496.206 C174.01,494.177 180.913,491.332 177.1,492.274 C175.5,492.668 175.571,491.635 177.208,490.705 C178.716,489.846 179.123,485.749 177.775,484.995 C176.896,484.503 177.305,483.852 179.005,483.041 C180.592,482.282 181.399,480.759 181.399,478.517 C181.399,477.626 181.626,476.484 181.904,475.98 C182.467,474.96 182.919,468.587 183.278,456.612 C183.409,452.23 183.693,447.418 183.909,445.919 C184.125,444.42 184.593,440.739 184.948,437.741 C186.008,428.815 186.473,425.221 186.716,424.112 C187.523,420.414 187.362,417.836 186.298,417.431 C184.568,416.774 184.598,416.21 186.499,413.791 C189.982,409.357 190.067,409.19 190.335,406.324 C190.476,404.809 190.787,403.202 191.028,402.754 C191.79,401.33 191.545,397.879 190.564,396.217 L189.665,394.694 L190.941,391.266 C191.644,389.38 192.435,387.145 192.7,386.298 C192.966,385.452 193.457,384.533 193.79,384.255 C194.125,383.978 194.398,383.236 194.398,382.606 C194.398,381.977 194.619,380.83 194.888,380.055 C195.592,378.039 203.891,370.014 205.273,370.014 C205.519,370.014 205.72,369.872 205.72,369.698 C205.72,369.303 207.134,368.702 211.172,367.379 C216.736,365.556 216.625,365.547 218.301,367.951 C220.065,370.479 223.245,372.95 224.736,372.95 C226.967,372.95 229.512,376.832 228.764,379.095 C228.452,380.042 228.353,381.661 228.507,383.31 C228.708,385.461 228.634,386.034 228.131,386.228 C226.928,386.69 226.613,387.943 227.345,389.358 C227.86,390.354 227.904,390.75 227.523,390.986 C227.245,391.157 227.126,391.651 227.257,392.083 C227.949,394.365 229.488,408.918 230.423,422.015 C230.678,425.59 231.074,430.591 231.303,433.128 C231.531,435.665 231.719,440.11 231.72,443.004 C231.72,446.635 231.882,448.429 232.242,448.787 C232.656,449.202 232.643,449.382 232.175,449.672 C231.68,449.977 231.699,450.266 232.301,451.535 C233.12,453.26 233.479,453.493 237.181,454.694 C238.676,455.18 240.226,455.762 240.627,455.989 C241.027,456.217 241.614,456.403 241.93,456.403 C242.347,456.403 242.583,457.351 242.789,459.862 C242.946,461.765 243.185,464.026 243.321,464.885 C243.54,466.273 243.45,466.493 242.524,466.845 C241.165,467.362 240.872,468.219 241.204,470.714 C241.46,472.651 241.423,472.761 240.476,472.823 C239.928,472.859 238.716,472.941 237.784,473.005 C236.197,473.114 232.033,474.515 231.093,475.256 C230.862,475.438 229.729,475.715 228.576,475.873 C222.064,476.761 218.39,477.831 218.058,478.936 C217.223,481.719 215.045,482.716 209.625,482.796 C208.658,482.81 207.75,483.011 207.609,483.242 C207.466,483.472 206.916,483.661 206.388,483.661 C203.537,483.661 202.786,484.394 202.786,487.173 C202.786,490.08 203.436,491.386 205.089,491.8 C205.675,491.948 207.198,492.735 208.474,493.551 C213.174,496.558 216.534,496.858 242.834,496.622 C245.833,496.595 248.757,496.611 249.334,496.658 C251,496.792 272.786,496.59 275.335,496.417 C276.602,496.331 279.811,496.155 282.463,496.028 C285.116,495.9 289.834,495.517 292.947,495.175 C296.061,494.835 303.708,494.486 309.941,494.402 L321.274,494.248 L325.038,492.347 C327.108,491.301 329.534,489.768 330.428,488.94 C331.477,487.969 332.464,487.435 333.211,487.435 C334.286,487.435 340.974,485.258 341.492,484.74 C341.866,484.367 341.604,479.854 341.161,479.025 C340.938,478.606 340.755,477.892 340.755,477.437 C340.755,476.642 337.108,468.992 336.524,468.564 C336.367,468.448 336.132,467.976 336.002,467.516 C335.872,467.055 335.857,467.715 335.967,468.983 L336.167,471.29 L335.288,468.983 C334.804,467.715 334.408,465.969 334.409,465.104 C334.41,464.24 334.275,463.531 334.11,463.531 C333.945,463.531 333.59,462.95 333.322,462.241 C332.855,461.003 332.747,460.956 330.642,461.067 C328.838,461.163 328.368,461.04 327.996,460.376 C327.445,459.388 326.433,458.519 325.867,458.546 C325.636,458.557 325.683,458.661 325.972,458.777 C326.58,459.022 326.687,460.177 326.102,460.177 C325.885,460.177 325.596,459.997 325.459,459.775 C325.323,459.555 324.948,459.475 324.628,459.598 C324.308,459.721 323.701,459.639 323.279,459.416 C322.535,459.022 315.034,459.756 313.445,460.378 C313.03,460.541 312.668,460.391 312.515,459.991 C312.163,459.074 310.88,459.146 311.065,460.072 C311.162,460.558 310.801,460.984 310,461.33 C308.585,461.942 307.206,462.015 307.206,461.479 C307.206,461.018 308.246,460.596 309.385,460.596 C311.609,460.596 309.413,455.218 306.9,454.513 C305.566,454.139 305.152,453.703 304.023,451.483 C303.298,450.058 301.821,447.91 300.742,446.709 C299.605,445.445 298.877,444.276 299.009,443.929 C299.675,442.195 299.707,438.712 299.082,435.965 C298.499,433.401 298.486,432.81 298.987,431.596 C299.427,430.526 299.472,429.594 299.172,427.676 C298.466,423.156 296.856,415.688 296.278,414.257 C296.093,413.795 295.841,412.852 295.72,412.16 C295.058,408.384 294.151,403.517 293.766,401.676 C293.526,400.523 293.152,398.448 292.935,397.063 C292.585,394.831 292.024,391.702 290.869,385.531 C289.233,376.789 289.198,377.392 291.375,376.756 C296.585,375.233 298.916,373.479 298.666,371.273 C297.983,365.222 297.383,362.068 296.687,360.87 C296.244,360.108 295.883,358.915 295.883,358.222 C295.883,357.527 295.716,356.641 295.512,356.254 C294.431,354.199 294.511,347.989 295.635,346.652 C296.232,345.942 296.722,345.005 296.722,344.57 C296.722,344.135 297.854,342.658 299.237,341.289 C302.979,337.587 302.385,336.508 293.787,331.377 C292.518,330.619 289.734,328.719 287.601,327.153 L283.721,324.306 L283.721,322.404 C283.721,321.357 283.428,320.054 283.069,319.506 C282.686,318.921 282.47,317.852 282.546,316.912 C282.708,314.869 282.56,314.79 268.625,309.456 C260.984,306.532 254.336,303.821 253.76,303.395 C253.517,303.216 252.535,302.822 251.577,302.52 C249.421,299.573 251.791,297.585 252.088,295.996 C252.428,294.183 251.812,293.051 249.203,290.697 C247.242,288.927 247.089,288.66 247.518,287.761 C248.084,286.569 249.043,283.684 249.728,281.111 C250.004,280.073 250.406,278.644 250.621,277.936 C251.406,275.347 251.163,274.435 247.802,267.372 C246.564,264.773 246.643,264.261 248.305,264.087 C249.485,263.963 250.237,263.29 251.975,260.803 C252.39,260.209 253.064,259.724 253.474,259.724 C254.269,259.724 255.64,258.419 256.402,256.936 C256.708,256.343 257.568,255.869 258.936,255.541 C261.173,255.003 261.905,254.38 262.723,252.311 C263.1,251.357 263.74,250.781 264.969,250.29 C266.724,249.587 268.205,248.247 268.205,247.361 C268.205,246.843 269.939,245.046 270.439,245.046 C270.798,245.046 274.47,246.646 275.335,247.179 C275.681,247.392 276.246,247.682 276.592,247.822 C276.938,247.962 278.353,248.597 279.738,249.233 C282.094,250.317 282.923,250.683 286.657,252.287 C287.465,252.633 288.88,253.153 289.802,253.443 C290.725,253.732 291.916,254.169 292.449,254.414 C298.279,257.097 312.83,252.636 318.765,246.347 C319.49,245.58 320.56,244.99 321.519,244.827 C322.383,244.682 323.582,244.105 324.185,243.545 C325.551,242.28 325.465,242.268 326.255,243.852 C326.986,245.316 327.111,247.444 326.521,248.376 C325.998,249.201 326.819,250.621 329.438,253.431 C331.813,255.979 332.476,257.211 333.202,260.424 C333.472,261.615 333.954,262.937 334.274,263.358 C334.948,264.247 335.084,267.518 334.464,267.901 C333.546,268.469 334.104,270.094 335.762,271.695 C338.417,274.255 340.596,277.711 340.915,279.867 C341.07,280.912 341.569,282.379 342.025,283.126 C342.643,284.142 342.851,285.24 342.851,287.471 L342.851,290.457 L346.159,293.903 C347.979,295.798 349.589,297.8 349.738,298.35 C350.647,301.707 351.028,302.78 351.523,303.37 C351.863,303.776 352.077,305.132 352.077,306.883 L352.077,309.734 L355.557,313.141 C358.524,316.044 359.183,316.949 360.017,319.272 C360.555,320.772 361.172,322.112 361.388,322.251 C361.604,322.39 361.796,323.956 361.815,325.73 L361.848,328.957 L364.581,331.349 C367.478,333.884 369.689,336.903 369.692,338.33 C369.693,338.804 370.159,339.947 370.727,340.869 C371.544,342.195 371.764,343.122 371.774,345.297 L371.787,348.048 L375.112,351.065 C378.056,353.737 379.754,355.946 379.754,357.106 C379.754,357.316 380.213,358.466 380.773,359.662 C381.331,360.858 381.897,362.338 382.028,362.95 C382.16,363.562 383.352,365.376 384.68,366.982 C386.008,368.587 387.623,370.54 388.271,371.322 C389.314,372.579 390.014,373.818 390.852,375.886 C391.401,377.244 401.468,392.419 401.92,392.57 C402.184,392.658 402.399,392.337 402.399,391.856 C402.399,391.333 402.67,390.983 403.074,390.983 C403.501,390.983 403.659,391.213 403.507,391.612 C402.615,393.933 409.418,389.501 410.406,387.117 C410.694,386.421 411.832,384.909 412.935,383.76 C415.243,381.352 418.006,377.206 418.777,374.991 C419.372,373.281 419.398,373.34 415.779,368.024 C414.719,366.466 412.85,363.494 411.627,361.418 C410.403,359.342 408.675,356.761 407.787,355.682 C406.901,354.602 406.175,353.576 406.175,353.4 C406.175,353.225 405.231,352.209 404.077,351.143 C402.387,349.582 401.98,348.941 401.98,347.84 C401.98,345.827 400.923,344.072 399.352,343.476 C398.942,343.322 398.5,342.649 398.366,341.98 C398.232,341.312 397.481,340.16 396.697,339.42 C395.912,338.681 395.271,337.782 395.271,337.422 C395.271,337.063 394.532,335.969 393.63,334.989 C392.252,333.494 391.941,332.814 391.688,330.748 C391.428,328.628 391.163,328.074 389.764,326.733 C388.871,325.877 388.142,324.895 388.142,324.551 C388.142,323.702 387.245,321.789 386.847,321.789 C386.47,321.789 385.206,319.369 385.206,318.646 C385.206,318.373 384.566,317.566 383.782,316.853 C382.633,315.806 382.3,315.126 382.058,313.326 C381.645,310.244 380.828,308.458 379.573,307.886 C378.831,307.548 378.427,306.949 378.234,305.894 C378.082,305.064 377.418,303.765 376.759,303.008 C376.101,302.25 375.561,301.366 375.561,301.041 C375.561,300.717 374.823,299.599 373.92,298.557 C372.315,296.703 372.113,296.187 371.56,292.525 C371.355,291.162 370.944,290.455 369.861,289.59 C368.891,288.815 368.432,288.098 368.432,287.354 C368.432,286.752 367.862,285.54 367.165,284.664 C366.467,283.786 365.778,282.581 365.634,281.984 C365.489,281.389 364.853,280.304 364.22,279.575 C363.07,278.249 362.13,276.008 362.224,274.821 C362.348,273.255 362.057,272.417 360.928,271.097 C360.263,270.317 359.611,269.02 359.48,268.215 C359.349,267.409 358.965,266.442 358.625,266.067 C357.906,265.271 354.596,255.814 354.585,254.52 C354.581,254.038 353.967,252.711 353.222,251.571 C351.036,248.227 349.728,245.791 349.156,243.997 C348.861,243.074 348.219,241.848 347.728,241.272 C346.262,239.55 345.905,238.646 345.576,235.814 C345.34,233.774 344.917,232.603 343.848,231.014 C343.069,229.858 342.431,228.671 342.431,228.376 C342.431,227.645 341.703,226.402 339.602,223.55 C337.584,220.816 337.476,220.324 338.657,219.255 C339.118,218.838 339.496,218.323 339.496,218.112 C339.496,217.901 340.316,216.562 341.318,215.137 C346.708,207.47 348.341,202.68 347.045,198.332 C345.242,192.277 343.12,186.094 342.416,184.84 C341.963,184.034 341.589,182.578 341.583,181.605 C341.565,178.763 337.782,171.659 336.286,171.659 C335.976,171.659 335.722,171.506 335.722,171.318 C335.722,171.132 334.805,170.743 333.683,170.456 C332.295,170.1 331.475,169.615 331.111,168.937 C330.305,167.429 328.42,166.788 326.666,167.423 C325.134,167.976 324.399,167.776 324.399,166.806 C324.399,166.47 324.232,165.867 324.029,165.467 C323.329,164.09 322.78,162.637 322.093,160.336 C321.714,159.067 321.235,157.652 321.029,157.191 C319.611,154.016 318.448,149.238 318.911,148.497 C319.435,147.658 318.932,145.509 317.808,143.783 C317.513,143.328 317.27,142.656 317.27,142.288 C317.27,141.922 316.741,141.231 316.092,140.752 C314.394,139.495 313.674,136.859 314.559,135.145 C315.223,133.861 315.354,125.539 314.71,125.532 C314.57,125.53 314.348,124.098 314.215,122.348 C313.801,116.866 311.016,100.144 308.844,90.093 C305.125,72.882 302.774,62.91 302.171,61.782 C301.767,61.028 301.358,59.631 299.468,52.561 C295.041,36.001 267.926,12.743 243.056,4.175 C233.327,0.823 232.77,0.697 228.995,1.005 M104.596,241.226 C104.941,241.445 105.001,241.688 104.748,241.844 C104.518,241.985 104.098,241.82 103.813,241.476 C103.247,240.795 103.691,240.653 104.596,241.226 M146.092,287.087 C146.757,288.529 147.555,290.407 147.863,291.262 L148.424,292.816 L146.459,294.646 C143.501,297.402 143.968,302.105 147.326,303.374 C147.96,303.613 148.95,304.25 149.526,304.788 C150.104,305.326 152.226,306.836 154.243,308.142 C156.262,309.449 158.104,310.876 158.338,311.313 C158.573,311.751 159.469,312.419 160.331,312.798 C161.193,313.177 162.307,313.68 162.807,313.916 C163.529,314.257 163.985,314.154 165.009,313.426 C166.278,312.522 166.301,312.521 166.301,313.348 C166.301,313.811 166.49,314.307 166.721,314.45 C167.9,315.178 167.071,315.918 165.075,315.918 C163.523,315.918 162.716,316.163 161.825,316.903 C161.156,317.46 159.821,317.996 158.761,318.135 C157.729,318.269 156.817,318.58 156.735,318.826 C156.653,319.071 156.262,319.272 155.865,319.272 C155.468,319.272 154.357,320.052 153.394,321.005 C151.708,322.674 151.597,322.718 150.337,322.196 C149.197,321.724 148.858,321.755 147.706,322.432 C145.73,323.593 145.94,323.24 139.71,335.808 L133.904,347.521 L133.258,346.292 C132.826,345.47 132.623,343.985 132.646,341.812 C132.669,339.461 132.467,338.127 131.912,336.989 C131.173,335.478 131.173,335.362 131.894,333.95 C132.729,332.313 133.591,329.022 133.591,327.472 C133.591,326.41 135.053,325.104 137.121,324.318 C139.159,323.543 139.433,321.984 140.749,303.756 C140.941,301.104 141.221,297.794 141.373,296.4 C141.594,294.353 141.519,293.76 140.974,293.309 C140.604,293.002 140.299,292.538 140.298,292.277 C140.297,292.017 140.025,291.286 139.695,290.652 C139.096,289.503 139.099,289.497 140.489,289.497 C141.891,289.497 143.656,287.046 143.656,285.1 C143.656,283.589 144.97,284.663 146.092,287.087 M164.204,311.514 C164.204,311.864 163.831,312.144 163.366,312.144 C162.899,312.144 162.527,311.864 162.527,311.514 C162.527,311.165 162.899,310.885 163.366,310.885 C163.831,310.885 164.204,311.165 164.204,311.514 M157.076,319.87 C157.076,320.437 154.914,321.789 154.011,321.789 C153.064,321.789 155.616,319.642 156.971,319.299 C157.028,319.285 157.076,319.542 157.076,319.87 M398.206,343.644 C398.206,344.12 396.649,344.129 396.355,343.654 C396.233,343.455 396.233,343.193 396.355,343.071 C396.683,342.741 398.206,343.213 398.206,343.644 M327.48,463.96 C327.055,464.368 326.234,464.839 325.658,465.005 C324.626,465.304 325.897,463.406 327.545,462.186 C328.321,461.612 328.263,463.209 327.48,463.96" fill="#000000" id="path0"/>
  </g>
</svg>
