<?xml version="1.0" encoding="UTF-8"?>
<!DOCTYPE svg PUBLIC "-//W3C//DTD SVG 1.1//EN" "http://www.w3.org/Graphics/SVG/1.1/DTD/svg11.dtd">
<svg version="1.1" xmlns="http://www.w3.org/2000/svg" xmlns:xlink="http://www.w3.org/1999/xlink" x="0" y="0" width="500" height="500" viewBox="0, 0, 500, 500">
  <g id="layer101">
    <path d="M383.849,495.898 C381.661,493.573 379.199,489.471 378.379,486.6 C377.559,483.865 376.465,480.583 376.055,479.489 C375.644,478.395 375.097,476.481 375.097,475.387 C374.961,474.156 373.593,473.336 371.405,473.336 C366.619,473.199 360.74,469.234 359.236,464.995 C358.552,463.217 357.321,461.713 356.638,461.713 C355.954,461.713 355.68,460.619 355.954,459.252 C357.048,455.286 338.178,418.367 330.247,409.068 C325.871,403.872 320.949,382.814 320.949,369.414 C320.949,365.448 319.718,363.261 315.069,358.338 L309.189,352.048 L303.172,359.842 C299.754,364.218 296.062,368.867 294.831,370.371 C293.601,372.149 290.729,373.379 287.584,373.653 C279.653,374.2 279.106,375.704 284.166,384.455 L288.541,392.386 L287.174,419.597 C286.354,436.69 285.26,447.355 284.302,448.312 C283.345,449.27 282.662,452.141 282.662,454.876 C282.662,457.474 281.157,462.123 279.517,465.131 C275.551,472.242 265.296,476.618 252.989,476.754 C245.605,476.754 244.101,476.344 241.23,473.199 C239.178,471.011 237.538,467.183 236.991,463.217 C236.444,459.799 235.623,454.192 234.94,450.774 C230.29,426.981 229.196,424.52 222.086,421.648 C216.89,419.461 209.233,411.256 202.532,400.727 C199.934,396.625 196.926,393.343 195.969,393.343 C193.371,393.343 181.611,378.712 180.654,374.337 C179.15,366.953 176.825,363.944 172.45,364.218 C170.262,364.355 167.254,364.628 165.749,364.765 C164.245,364.902 158.092,364.765 152.076,364.491 C142.23,364.218 140.453,363.671 133.889,359.295 C126.779,354.646 126.505,354.236 127.326,349.587 C127.736,346.989 127.599,344.117 127.052,343.297 C125.411,340.699 120.352,338.648 115.566,338.648 C113.105,338.648 105.037,337.964 97.79,337.007 C85.483,335.503 84.253,335.639 81.791,337.827 C77.826,341.382 76.869,348.356 79.467,353.415 C83.432,361.21 87.261,361.757 102.439,356.834 C113.788,353.279 116.797,357.381 108.045,364.355 C99.431,371.055 74.544,382.541 64.015,384.592 C59.913,385.412 58.956,385.002 55.538,380.9 C51.846,376.251 51.709,376.251 47.88,378.575 C44.735,380.353 42.958,380.49 37.898,379.396 C34.48,378.712 29.694,378.028 27.233,377.892 C24.087,377.755 21.626,376.524 19.712,374.063 C18.071,372.012 15.063,370.098 13.012,369.551 C10.961,369.14 8.909,367.5 8.499,365.859 C6.858,360.936 7.405,344.391 9.183,340.015 C10.55,336.733 10.55,334.956 9.32,332.358 C8.089,329.623 8.226,328.119 10.003,324.7 C11.644,321.555 11.918,318.82 11.234,314.171 C10.55,310.753 10.14,304.736 10.277,300.908 C10.277,291.199 18.755,266.586 25.455,256.877 C34.206,243.887 47.333,234.726 56.905,234.726 C61.828,234.726 67.981,236.913 67.981,238.691 C67.981,239.375 64.562,242.52 60.323,245.665 C53.897,250.451 51.846,253.322 47.196,262.757 C42.274,273.013 42,274.654 42.821,281.217 C44.462,294.071 54.854,301.865 72.493,303.779 C74.955,304.052 79.193,304.736 81.928,305.283 C89.859,306.651 96.559,304.873 98.063,300.908 C98.747,299.13 100.388,297.216 101.619,296.669 C102.849,296.258 112.831,296.532 123.907,297.352 C139.495,298.583 144.145,298.583 145.512,297.216 C146.469,296.395 147.563,289.968 148.11,283.131 C148.93,271.235 148.93,270.415 145.239,264.261 C143.187,260.706 140.042,257.151 138.402,256.33 C134.026,254.416 132.248,249.63 132.248,239.785 C132.248,228.983 134.299,221.462 137.855,219.274 C141.82,216.95 150.845,200.951 152.076,194.388 C153.169,188.234 158.229,175.518 159.87,174.834 C160.553,174.56 162.878,171.552 165.066,168.27 C170.399,160.75 173.544,159.109 182.158,159.246 C190.226,159.519 191.183,159.109 194.875,152.682 C196.926,149.4 199.661,147.212 203.489,145.845 C210.19,143.521 212.104,140.376 207.045,140.376 C205.267,140.376 202.259,139.145 200.344,137.777 C193.918,132.718 190.499,132.855 186.397,138.188 C183.115,142.563 182.432,142.837 179.15,141.606 C176.552,140.649 175.048,140.786 173.407,142.153 C172.176,143.247 168.894,144.888 166.16,145.708 C163.425,146.666 158.912,149.127 156.041,151.451 C150.571,155.69 148.52,156.237 144.418,154.049 C142.64,152.956 140.179,153.092 136.35,154.186 C127.052,157.058 114.472,154.049 105.447,146.939 C101.345,143.657 95.739,139.555 93.141,137.777 C89.312,135.043 88.492,133.539 88.492,129.436 C88.492,126.291 87.535,123.557 85.894,122.052 C83.979,120.275 83.159,116.856 82.475,106.054 C81.791,96.345 81.928,91.696 83.159,90.329 C84.116,89.098 84.39,86.227 83.843,82.398 C83.022,77.065 83.432,75.151 87.945,66.946 C90.68,61.887 94.372,55.734 96.149,53.273 C97.927,50.948 99.431,48.076 99.431,47.119 C99.431,46.025 101.072,41.923 102.986,38.094 C105.584,32.762 108.045,30.164 111.874,28.112 C114.882,26.608 121.172,22.233 125.822,18.131 C133.616,11.567 135.257,10.747 144.692,9.242 C155.767,7.465 170.399,8.832 177.509,12.387 C184.483,15.806 196.242,25.514 202.532,32.762 C207.318,38.505 209.506,42.607 211.694,50.264 C213.335,55.871 214.839,61.34 215.249,62.434 C215.659,63.801 217.574,62.571 221.949,57.922 C228.786,50.811 229.06,50.811 234.256,53.136 C237.538,54.64 238.085,54.503 240.546,51.085 C243.828,46.572 246.015,46.436 250.665,50.811 C255.04,54.913 258.869,55.187 260.783,51.495 C261.604,49.991 263.518,48.076 265.022,47.256 C267.347,46.025 268.714,46.436 272.816,49.307 C277.329,52.452 277.876,52.589 281.431,50.674 C286.354,48.213 285.67,48.076 292.097,53.546 C296.609,57.238 298.387,57.922 300.848,57.101 C303.172,56.281 303.856,54.777 303.856,51.085 C303.993,48.35 304.95,45.068 306.044,43.701 C307.275,42.333 308.642,39.735 309.052,37.684 C309.599,35.77 311.787,31.531 314.112,28.112 C316.299,24.831 318.214,21.412 318.214,20.455 C318.214,17.584 333.529,7.328 342.69,3.91 C354.586,-0.329 375.371,-1.423 380.02,2.132 C381.798,3.363 386.583,6.097 390.822,8.149 C395.061,10.2 400.121,13.071 402.035,14.575 C407.505,18.951 415.299,33.992 415.299,40.282 C415.299,43.701 416.393,46.983 418.307,49.444 C420.905,52.726 421.042,53.546 419.401,56.144 C412.154,67.767 411.06,72.963 410.513,96.072 C410.103,116.036 409.829,118.497 406.547,125.744 C403.676,132.171 401.625,134.359 395.335,138.461 C388.224,142.974 387.677,143.657 388.498,147.486 C389.592,152.819 393.01,160.066 398.48,167.997 C401.351,172.509 403.129,177.022 403.813,182.218 C404.496,187.824 405.727,191.106 408.598,194.388 C413.111,199.447 416.666,207.241 416.666,211.753 C416.666,213.531 415.162,217.36 413.248,220.368 C409.009,227.342 409.009,228.983 413.248,230.077 C417.897,231.17 430.34,244.981 430.34,249.083 C430.34,250.724 429.383,252.912 428.289,253.869 C425.828,255.92 425.554,260.159 428.015,261.663 C428.836,262.21 432.118,263.031 435.126,263.441 C440.322,264.125 440.595,264.398 441.006,269.321 C441.416,273.423 442.236,274.79 444.834,275.747 C448.116,276.978 448.663,278.209 448.116,282.995 C447.979,284.362 449.757,288.464 452.082,292.019 C455.09,296.532 456.32,300.224 456.32,304.189 C456.32,309.112 457.414,311.026 466.166,321.145 C473.686,329.759 476.695,332.494 479.429,332.494 C482.164,332.631 483.121,333.451 483.395,335.776 C484.079,340.152 490.095,349.587 492.283,349.587 C493.103,349.587 491.326,351.228 488.044,353.142 C484.626,355.193 481.481,358.338 480.387,361.073 C479.019,364.491 477.242,365.859 472.866,367.226 C467.67,368.73 466.439,368.593 461.243,366.132 C458.098,364.491 454.68,363.261 453.859,363.261 C452.902,363.261 448.526,359.705 444.151,355.466 C439.638,351.091 433.485,345.485 430.477,342.886 C426.375,339.605 424.87,337.28 424.87,334.545 C424.87,331.947 423.777,330.033 421.315,328.392 C417.897,326.204 417.76,325.521 418.444,318.82 C419.264,310.479 418.033,308.565 411.743,308.565 C408.325,308.565 405.727,306.924 398.343,299.54 C393.42,294.481 389.318,289.968 389.318,289.421 C389.318,288.738 385.9,284.089 381.798,279.166 C377.695,274.107 374.277,269.047 374.277,268.09 C374.277,264.398 369.628,256.604 366.893,255.784 C365.252,255.373 362.517,253.185 360.603,251.271 C358.689,249.22 356.091,246.895 354.997,246.212 C353.903,245.528 351.578,242.93 349.801,240.605 C348.16,238.144 345.972,236.093 345.015,236.093 C343.921,236.093 341.733,239.375 340.092,243.34 C338.451,247.169 336.263,251.408 335.306,252.502 C334.349,253.596 333.255,259.065 332.708,264.535 L331.888,274.517 L337.357,280.123 C340.229,283.131 343.784,288.464 345.015,292.019 C346.382,295.438 349.39,300.497 351.715,303.095 C356.091,307.881 360.603,318.684 360.603,324.427 C360.603,326.204 361.697,328.392 363.064,329.349 C367.713,332.631 380.704,348.903 381.524,352.595 C382.891,358.065 396.702,372.285 401.625,373.243 C404.77,373.926 406.411,375.567 409.282,381.31 C411.333,385.276 416.119,392.796 419.948,398.129 C423.913,403.325 428.562,410.436 430.477,413.854 C434.442,420.691 439.912,437.647 439.912,442.98 C439.912,448.586 435.946,456.243 432.391,457.611 C428.562,459.115 428.152,462.123 431.024,467.183 C432.118,469.097 432.938,473.746 433.075,477.575 C433.075,483.591 432.528,484.959 428.699,488.787 C422.272,494.941 407.778,500 396.702,500 C388.361,500 387.404,499.59 383.849,495.898 z M200.618,318.82 C201.985,315.539 203.626,310.616 204.173,308.018 C204.994,303.095 210.053,296.942 214.155,295.575 C215.386,295.164 217.71,292.84 219.351,290.379 C221.129,288.054 224,283.952 226.051,281.627 C229.47,277.388 229.607,276.431 229.47,262.62 C229.196,247.716 227.966,242.93 224.547,242.93 C222.496,242.93 222.086,244.161 219.898,257.014 C216.616,275.884 214.018,279.85 204.857,279.85 C200.071,279.85 195.148,282.995 195.148,286.003 C195.148,286.823 192.14,292.703 188.311,298.993 C184.619,305.283 181.474,311.3 181.474,312.53 C181.611,318.547 188.448,324.837 194.875,324.974 C197.336,324.974 198.567,323.606 200.618,318.82 z M318.214,134.222 C322.589,129.71 322.726,129.3 320.538,127.112 C318.624,125.197 317.53,125.061 312.881,126.565 C309.873,127.385 306.317,129.163 305.087,130.394 C303.036,132.581 303.036,132.855 306.454,135.863 C311.377,140.102 312.744,139.829 318.214,134.222 z" fill="#000000"/>
  </g>
</svg>
