<?xml version="1.0" encoding="UTF-8"?>
<!DOCTYPE svg PUBLIC "-//W3C//DTD SVG 1.1//EN" "http://www.w3.org/Graphics/SVG/1.1/DTD/svg11.dtd">
<svg version="1.1" xmlns="http://www.w3.org/2000/svg" xmlns:xlink="http://www.w3.org/1999/xlink" x="0" y="0" width="500" height="500" viewBox="0, 0, 500, 500">
  <g id="layer101">
    <path d="M332.29,466.537 C331.458,465.706 330.116,464.299 329.348,463.34 C328.581,462.445 326.279,460.591 324.297,459.248 C320.717,456.882 320.653,456.882 312.213,456.435 C304.092,455.987 303.517,455.923 297.123,453.174 C293.479,451.576 288.619,449.529 286.317,448.634 C284.016,447.675 281.202,446.333 280.051,445.629 C277.622,444.095 275.831,440.514 276.279,437.701 C276.471,436.422 275.768,434.184 274.169,430.667 C272.826,427.79 271.292,423.89 270.78,421.972 C267.392,409.759 267.328,408.864 268.99,406.563 C269.885,405.412 270.269,404.197 270.013,403.43 C269.757,402.726 270.205,401.192 271.1,399.657 C272.315,397.483 272.443,396.908 271.739,395.949 C271.292,395.309 270.333,393.519 269.629,391.984 C267.839,388.34 268.287,385.91 271.612,380.475 C273.977,376.447 274.169,375.872 274.169,371.396 C274.105,368.775 273.849,363.787 273.53,360.271 C272.954,353.941 272.954,353.877 274.617,352.151 C275.831,350.872 276.151,349.977 275.895,348.634 C275.704,347.675 275.959,346.076 276.471,345.117 C277.174,343.775 277.238,342.688 276.791,340.642 C276.407,339.107 276.279,335.654 276.471,332.841 L276.727,327.854 L274.425,325.296 C272.571,323.186 272.187,322.355 272.443,320.693 C272.762,318.583 271.548,315.002 269.949,313.212 C268.798,311.933 267.136,305.667 267.136,302.406 C267.136,296.332 261.126,295.565 256.138,300.999 C255.051,302.15 253.453,303.045 251.982,303.301 C247.57,304.132 247.379,304.26 246.292,308.225 C244.757,313.787 244.31,313.915 233.888,313.276 C224.744,312.7 220.844,311.869 214.322,309.056 C209.015,306.818 208.056,307.393 208.568,312.572 C209.783,324.465 209.783,324.465 208.376,327.214 C207.609,328.685 205.882,330.667 204.54,331.562 C201.854,333.289 201.087,334.823 202.046,336.549 C202.941,338.212 201.982,343.711 200.575,344.989 C198.849,346.524 198.977,350.104 201.215,359.44 C202.238,363.787 203.389,370.181 203.836,373.698 C204.284,377.215 205.051,381.179 205.563,382.458 C206.33,384.248 206.394,385.271 205.882,386.678 C205.499,387.764 204.923,395.309 204.476,403.557 C204.092,411.742 203.453,419.414 203.133,420.565 C202.621,422.164 202.685,423.251 203.517,425.488 C204.22,427.215 204.476,429.005 204.22,430.028 C203.772,431.691 197.89,437.957 196.739,437.957 C196.419,437.957 194.949,438.66 193.542,439.555 C191.688,440.77 191.049,441.537 191.304,442.304 C191.624,443.2 191.112,443.583 188.875,444.223 C187.212,444.67 184.271,446.396 181.713,448.506 C174.488,454.261 174.936,454.197 159.143,453.749 C145.972,453.366 132.608,452.471 127.685,451.703 C126.151,451.448 124.936,450.68 123.913,449.338 C121.867,446.524 122.57,443.647 126.151,440.386 C128.005,438.66 129.028,437.125 129.347,435.591 C129.603,434.248 130.818,432.202 132.353,430.54 C134.654,428.046 134.91,427.534 134.271,426.192 C133.887,425.361 132.8,424.465 131.841,424.274 C130.882,424.018 129.22,423.123 128.197,422.228 C127.174,421.396 126.023,420.693 125.511,420.693 C123.593,420.693 123.018,418.903 123.849,415.322 C124.616,411.933 124.296,410.335 122.506,407.777 C121.867,406.882 121.995,406.243 123.145,404.197 C124.808,401.192 125,394.542 123.529,384.248 C122.57,377.406 122.698,375.808 124.36,370.821 C125,368.775 125.191,366.793 124.872,363.915 C124.552,360.654 124.616,359.631 125.511,358.672 C126.534,357.521 126.726,354.261 126.406,344.158 C126.342,341.984 126.726,339.746 127.621,337.764 C128.708,335.143 128.964,333.161 129.092,326.127 L129.22,317.687 L126.854,315.386 C125,313.531 124.552,312.7 124.552,310.59 C124.552,308.352 124.744,308.033 126.726,307.202 C128.9,306.242 131.585,303.493 131.585,302.15 C131.585,301.703 132.736,300.296 134.143,298.953 C135.55,297.611 136.7,296.332 136.7,296.012 C136.7,295.181 138.683,294.542 142.391,294.158 C145.78,293.774 145.844,293.71 146.867,290.897 C147.57,289.043 148.657,287.508 150.128,286.549 C151.342,285.782 152.813,284.311 153.389,283.416 C154.412,281.946 154.412,281.498 153.644,279.644 C153.005,278.109 152.813,275.104 152.941,268.71 C153.133,260.654 153.325,259.375 155.179,254.324 C156.266,251.319 157.161,247.802 157.161,246.587 C157.161,245.117 157.8,243.582 159.079,241.984 C160.166,240.641 160.997,239.49 160.997,239.426 C160.997,239.298 160.166,237.38 159.079,235.142 C156.841,230.411 156.458,225.296 158.248,224.592 C158.823,224.337 159.463,224.529 159.591,224.912 C160.486,227.662 164.45,232.073 168.35,234.759 C172.506,237.572 173.337,237.892 179.54,238.851 C183.248,239.362 187.788,240.194 189.578,240.641 C194.309,241.792 195.077,240.833 192.583,236.805 C191.56,235.206 190.089,232.841 189.386,231.626 C188.619,230.411 186.765,228.045 185.166,226.447 C183.568,224.784 181.586,222.163 180.69,220.564 C179.795,218.966 178.453,217.112 177.685,216.472 C176.918,215.769 176.343,214.874 176.343,214.426 C176.343,214.043 175.32,212.444 174.105,210.973 C172.89,209.503 171.867,207.777 171.867,207.073 C171.867,206.434 171.036,205.475 169.949,204.899 C167.839,203.812 166.496,201.638 165.793,198.186 C165.537,196.971 164.642,194.669 163.747,193.135 C162.851,191.536 162.02,189.234 161.892,188.019 C161.573,183.672 160.422,178.173 159.527,176.83 C158.44,175.232 158.568,169.861 159.655,168.518 C160.933,166.984 160.166,164.746 157.992,163.339 C156.458,162.38 155.626,161.165 154.859,158.608 C154.092,156.37 152.749,154.132 151.087,152.342 L148.401,149.592 L145.908,151.574 C144.565,152.661 142.647,153.876 141.688,154.196 C140.729,154.515 139.514,155.475 138.938,156.37 C138.171,157.584 137.404,157.904 135.486,157.904 C133.376,157.904 132.289,158.48 128.708,161.613 C126.342,163.595 123.785,166.408 122.954,167.815 C122.122,169.221 120.396,171.395 119.117,172.61 C117.902,173.761 116.879,175.168 116.879,175.615 C116.879,176.958 111.764,182.201 109.207,183.48 C107.928,184.119 106.138,185.654 105.243,186.868 C102.813,190.002 95.204,193.582 90.281,193.838 C86.636,194.094 85.677,194.477 82.033,197.163 C81.521,197.546 80.434,197.418 79.092,196.779 C77.557,196.076 75.639,195.884 72.762,196.076 C67.774,196.395 62.659,194.733 61.444,192.367 C60.421,190.385 58.183,188.595 56.713,188.595 C56.074,188.595 53.58,189.874 51.15,191.472 C47.698,193.646 46.227,195.117 44.501,197.994 C42.646,201.127 42.007,201.766 40.153,202.022 C38.49,202.278 37.467,203.045 35.805,205.219 C33.183,208.608 32.544,208.927 28.068,208.991 C25.447,209.055 24.232,209.375 22.761,210.654 C20.907,212.252 18.861,212.636 16.879,211.869 C16.112,211.613 15.856,210.59 15.856,208.416 C15.856,205.858 15.6,205.219 14.577,204.899 C12.979,204.388 12.339,203.109 11.764,199.528 C11.444,197.227 11.572,196.459 12.531,195.372 C14.066,193.71 16.048,187.892 15.728,185.909 C15.408,183.735 12.531,182.393 10.101,183.288 C8.375,183.927 7.736,183.799 4.922,182.457 C0.894,180.411 -0.448,178.045 0.127,173.697 C0.319,171.971 0.958,169.925 1.598,169.285 C3.132,167.559 7.928,165.193 11.061,164.618 C15.728,163.787 15.92,163.531 15.472,158.544 C14.897,152.469 17.071,145.564 20.14,143.582 C21.994,142.367 22.25,141.919 22.25,139.17 C22.25,136.613 22.506,136.037 23.72,135.59 C24.488,135.27 26.726,133.543 28.644,131.753 C30.562,129.963 33.311,127.917 34.782,127.277 C36.252,126.574 37.595,125.551 37.787,125.04 C38.362,123.633 39.961,123.761 43.861,125.615 C45.779,126.51 48.145,127.214 49.104,127.214 C50.511,127.214 51.022,127.597 51.534,129.068 C52.365,131.433 55.37,133.671 60.613,135.845 C62.915,136.804 65.345,138.019 66.048,138.467 C67.327,139.426 73.849,139.682 74.999,138.85 C75.383,138.595 76.342,137.444 77.173,136.293 C78.452,134.439 78.9,134.247 82.033,134.247 C85.23,134.247 85.613,134.055 87.595,131.753 C90.984,127.789 94.501,126.382 101.214,126.19 C109.399,125.999 115.409,124.464 117.647,121.907 C119.693,119.669 119.757,119.221 118.542,116.983 C117.391,115.001 118.478,112.635 121.419,110.589 C124.616,108.288 132.864,97.93 132.864,96.203 C132.864,94.477 134.399,92.687 135.933,92.687 C137.596,92.687 141.624,90.385 146.611,86.612 C154.156,80.922 159.527,78.62 166.688,77.917 C175.895,77.021 176.726,76.83 179.859,74.464 C183.056,71.97 184.591,71.715 187.212,73.249 C188.171,73.888 189.386,74.144 189.898,73.952 C191.688,73.313 194.885,66.663 194.885,63.786 C194.885,56.369 197.251,49.528 200.511,47.162 C201.215,46.714 202.238,45.5 202.813,44.413 C204.22,41.919 206.266,39.17 209.143,35.717 C211.189,33.351 211.957,32.904 214.834,32.52 C219.693,31.817 223.21,33.671 226.407,38.53 C229.668,43.39 231.33,44.221 235.294,43.006 C237.532,42.367 238.619,41.663 239.322,40.257 C241.304,36.42 244.885,36.037 249.617,39.234 C251.407,40.448 253.837,41.855 255.051,42.367 C256.266,42.878 258.568,44.604 260.23,46.203 C261.893,47.865 264.195,49.656 265.346,50.231 C266.496,50.807 268.798,52.213 270.397,53.364 C274.425,56.241 275.448,56.433 279.604,55.282 C283.184,54.195 286.317,54.387 286.317,55.602 C286.317,55.986 287.468,57.52 288.875,59.055 C290.282,60.589 291.433,62.379 291.433,63.019 C291.433,65.193 293.351,67.239 295.013,66.919 C298.466,66.28 299.425,69.157 298.21,76.126 C297.699,79.004 297.763,79.131 299.681,79.771 C300.704,80.154 301.982,81.05 302.43,81.817 C302.878,82.584 304.924,84.055 306.97,85.078 C312.213,87.763 318.223,87.955 321.676,85.653 C323.018,84.758 324.233,83.351 324.425,82.456 C324.617,81.561 325,80.346 325.384,79.771 C325.704,79.131 325.96,77.789 325.96,76.702 C325.96,74.592 326.919,73.888 330.627,73.313 C332.737,72.993 333.376,73.185 334.783,74.592 L336.446,76.254 L338.811,74.912 C340.154,74.144 341.944,73.505 342.776,73.505 C345.077,73.505 351.471,78.3 351.919,80.41 C352.43,82.84 354.924,87.507 355.819,87.827 C356.267,88.019 357.993,87.763 359.655,87.252 C362.277,86.484 362.852,86.484 364.067,87.252 C366.177,88.594 367.264,92.367 366.049,94.157 C365.41,95.116 365.026,98.505 364.77,105.538 C364.323,116.664 364.323,116.536 368.671,118.262 C370.013,118.774 371.228,119.924 371.804,121.203 C372.699,123.057 372.699,123.505 371.74,125.871 C371.164,127.341 370.717,130.219 370.717,132.265 C370.717,134.311 370.269,137.124 369.694,138.403 C368.479,141.28 369.118,143.006 372.06,144.733 C373.083,145.308 374.106,146.523 374.297,147.418 C374.553,148.249 375.256,149.272 375.96,149.656 C376.919,150.168 377.494,149.912 379.221,148.122 C380.372,146.907 382.482,143.902 384.016,141.472 C386.382,137.508 386.702,136.485 386.702,133.16 C386.702,130.283 387.149,128.492 388.492,125.871 C391.433,119.988 393.735,121.395 393.735,129.132 C393.735,133.416 394.566,136.165 395.909,136.165 C396.356,136.165 397.507,135.781 398.466,135.334 C399.553,134.758 402.047,134.503 406.203,134.63 L412.277,134.758 L413.684,132.776 C414.451,131.625 416.497,129.068 418.287,127.022 L421.42,123.377 L425.96,123.377 C428.709,123.377 430.883,123.697 431.331,124.144 C431.906,124.72 432.61,124.72 434.336,124.081 C435.551,123.633 436.894,123.505 437.277,123.761 C437.661,123.953 440.027,124.4 442.456,124.656 C445.845,125.04 447.316,125.551 448.594,126.702 C449.553,127.533 451.088,128.748 451.983,129.324 C452.942,129.899 453.837,131.114 454.029,132.265 C454.605,135.014 456.842,136.293 459.592,135.526 C460.807,135.142 462.469,134.886 463.3,134.886 C466.753,134.886 471.804,132.84 474.426,130.347 C475.96,128.876 478.07,127.277 479.093,126.766 C480.18,126.19 481.395,125.487 481.843,125.104 C482.866,124.272 490.219,124.464 493.991,125.423 C497.572,126.318 500.832,129.835 499.809,131.753 C498.722,133.863 496.74,135.59 494.566,136.357 C491.625,137.316 489.196,139.298 487.725,141.728 C487.022,142.879 486.126,143.838 485.679,143.838 C485.167,143.838 483.825,144.541 482.546,145.372 C481.267,146.267 479.285,147.226 478.134,147.482 C476.408,147.93 475.832,148.505 475.449,150.104 C475.129,151.255 474.362,152.405 473.786,152.597 C472.699,152.981 468.479,156.498 467.904,157.521 C467.392,158.416 473.531,159.758 477.623,159.694 C482.93,159.631 485.679,161.229 487.213,165.257 C489.004,170.053 488.556,172.035 485.551,173.441 C484.208,174.081 481.139,175.04 478.837,175.551 C469.694,177.661 463.812,179.388 461.574,180.73 C460.295,181.498 458.057,182.776 456.523,183.48 C454.988,184.183 453.07,185.59 452.175,186.613 C451.344,187.636 449.745,188.723 448.658,188.915 C447.635,189.17 446.293,190.065 445.717,190.961 C444.438,192.879 441.305,194.349 438.492,194.349 C437.405,194.349 435.679,194.797 434.656,195.308 C433.505,195.884 432.098,196.14 431.139,195.884 C428.262,195.181 423.978,196.843 421.484,199.592 C418.991,202.406 416.689,203.301 412.277,203.301 C410.039,203.301 408.888,202.917 407.162,201.447 C405.947,200.487 404.029,199.209 402.878,198.633 C400.512,197.354 393.671,196.395 388.492,196.587 C385.359,196.651 384.592,196.907 383.505,198.378 C382.162,200.104 376.855,202.022 373.466,202.022 C370.909,202.022 363.811,200.424 360.998,199.209 C359.655,198.633 357.609,198.186 356.395,198.186 C354.54,198.186 353.965,197.802 352.686,195.82 C351.855,194.477 350.96,192.559 350.576,191.472 C350.001,189.682 349.681,189.554 346.292,189.234 C342.072,188.851 341.561,188.467 339.387,183.927 C338.172,181.37 337.469,180.666 336.509,180.794 C335.806,180.858 332.865,181.242 329.924,181.689 C325,182.393 324.553,182.329 322.891,181.114 C321.676,180.219 320.589,178.173 319.246,174.464 C318.159,171.523 316.241,167.239 314.962,164.937 C312.788,160.973 311.893,158.608 310.998,154.515 C310.678,153.109 310.231,152.725 309.208,152.917 C306.97,153.237 306.266,155.027 307.609,157.073 C311.254,162.636 313.172,169.605 311.765,172.163 C311.382,172.93 310.998,176.383 310.934,179.963 C310.87,185.462 310.678,186.677 309.463,188.275 C308.696,189.362 307.801,191.6 307.417,193.39 C306.458,197.738 301.215,207.393 299.169,208.608 C298.274,209.119 296.1,211.677 294.31,214.234 C292.456,216.984 290.218,219.349 288.939,219.989 C287.788,220.628 286.254,221.715 285.614,222.419 C284.911,223.122 282.865,224.72 281.011,225.871 C279.22,227.086 276.599,229.068 275.192,230.347 C273.146,232.329 272.826,232.968 273.146,234.439 C274.489,240.257 274.425,241.344 272.251,243.135 C270.652,244.541 269.565,244.861 266.944,244.861 C263.747,244.861 263.491,244.989 260.87,248.058 C258.248,251.127 258.12,251.383 258.824,253.429 C259.847,256.626 260.934,257.329 263.236,256.37 C264.259,255.986 265.665,255.795 266.305,255.986 C267.903,256.498 268.99,255.603 269.565,253.493 C270.461,250.168 272.379,249.401 281.522,248.697 C286.126,248.314 291.56,247.738 293.67,247.419 C299.425,246.587 306.906,246.715 308.696,247.61 C310.87,248.697 310.998,250.104 309.016,252.406 C307.034,254.836 306.97,256.178 309.016,258.928 C309.911,260.142 310.614,261.549 310.614,262.061 C310.614,262.636 311.062,263.979 311.637,265.002 C312.213,266.089 312.916,268.518 313.172,270.565 C313.491,272.547 314.195,275.168 314.77,276.447 C315.538,277.981 315.729,279.388 315.41,280.795 C315.218,281.946 314.834,284.375 314.706,286.102 C314.515,287.892 313.939,290.258 313.364,291.473 C312.596,293.199 312.532,294.094 313.108,296.012 C313.491,297.355 313.811,299.401 313.811,300.616 C313.811,304.26 314.834,305.092 318.607,304.388 C320.333,304.068 321.867,303.813 321.867,303.877 C321.931,303.941 322.827,305.475 323.85,307.202 C326.663,311.997 328.07,316.856 327.558,320.053 C327.11,323.314 328.325,330.923 329.668,332.969 C330.435,334.12 330.499,335.526 330.18,339.427 C329.732,344.862 329.476,344.158 334.719,351 C335.87,352.47 336.957,354.772 337.149,356.051 C338.364,364.043 339.579,367.624 347.059,384.887 C348.722,388.788 348.978,389.043 351.151,389.235 C353.261,389.427 353.453,389.619 353.453,391.473 C353.453,392.624 353.901,394.031 354.412,394.67 C354.924,395.437 355.116,396.652 354.924,398.059 C354.476,400.552 356.011,402.79 358.121,402.79 C358.824,402.79 360.359,403.813 361.574,405.028 C362.788,406.243 365.09,407.969 366.753,408.8 C368.415,409.696 370.717,411.166 371.868,412.189 C373.978,413.915 373.978,414.043 373.338,416.857 C372.443,420.565 372.443,424.913 373.274,426.511 C374.169,428.174 376.983,428.11 378.773,426.384 C381.714,423.57 383.313,426.384 381.011,430.412 C380.372,431.563 379.604,433.801 379.412,435.271 C379.029,437.701 379.157,438.212 380.563,439.299 C381.586,440.13 382.29,441.601 382.737,443.839 C383.121,445.693 383.569,447.803 383.824,448.57 C384.208,449.785 383.888,449.913 379.349,450.489 C376.663,450.872 374.361,451 374.169,450.808 C373.53,450.169 369.054,448.826 367.392,448.826 C366.433,448.826 365.474,448.443 365.154,448.059 C364.898,447.611 364.451,444.67 364.259,441.473 C363.811,434.504 362.277,430.731 359.783,430.412 C358.824,430.284 357.737,430.731 357.034,431.435 C355.947,432.65 356.011,432.777 357.929,435.015 C359.464,436.742 360.039,438.212 360.487,441.153 C360.806,443.263 361.829,446.588 362.724,448.506 C364.259,451.576 364.451,452.599 364.195,456.627 C364.067,459.184 363.428,462.445 362.788,463.852 L361.701,466.409 L360.423,463.852 C358.952,460.911 355.18,456.819 352.686,455.476 C351.727,454.964 349.169,454.581 346.804,454.581 C343.287,454.581 342.392,454.836 340.729,456.243 C339.642,457.138 338.747,458.161 338.747,458.481 C338.747,458.801 337.916,460.271 336.829,461.742 C335.806,463.148 334.911,465.003 334.911,465.834 C334.911,467.944 334.016,468.2 332.29,466.537 z M200.959,296.204 C200.703,294.158 200.384,292.304 200.192,292.048 C199.744,291.217 198.274,291.473 197.442,292.496 C196.803,293.327 196.803,293.71 197.698,294.606 C198.274,295.245 198.721,296.332 198.721,297.035 C198.721,298.378 199.872,299.849 200.831,299.849 C201.151,299.849 201.215,298.314 200.959,296.204 z M300.896,106.305 C301.279,105.602 301.279,103.556 300.959,101.126 C299.745,92.303 297.315,92.687 294.885,102.086 C294.374,104.068 294.118,106.114 294.246,106.561 C294.757,107.904 300.192,107.648 300.896,106.305 z M193.158,92.75 C194.182,91.024 194.182,90.896 192.967,89.809 C191.496,88.467 190.025,88.914 189.066,91.024 C187.404,94.605 191.112,96.203 193.158,92.75 z" fill="#000000"/>
  </g>
</svg>
