<?xml version="1.0" encoding="UTF-8"?>
<!DOCTYPE svg PUBLIC "-//W3C//DTD SVG 1.1//EN" "http://www.w3.org/Graphics/SVG/1.1/DTD/svg11.dtd">
<svg version="1.1" xmlns="http://www.w3.org/2000/svg" xmlns:xlink="http://www.w3.org/1999/xlink" x="0" y="0" width="500" height="500" viewBox="0, 0, 500, 500">
  <g id="layer101">
    <path d="M206.751,498.329 C202.426,497.489 196.54,495.687 193.537,494.365 C188.251,491.963 187.891,491.362 184.047,481.031 C179.362,468.417 177.56,465.534 173.595,464.093 C171.914,463.372 170.352,462.05 169.871,460.969 C169.511,460.008 171.673,452.2 174.677,443.911 C181.404,425.411 183.806,417.122 189.332,393.817 C191.615,383.966 194.738,370.992 196.06,365.226 C197.982,357.178 199.663,353.454 202.667,349.73 C207.352,344.204 207.472,342.402 205.43,323.782 C204.709,316.574 203.508,311.408 202.426,310.327 C200.504,308.405 200.624,308.285 190.774,320.418 C187.05,324.983 185.128,330.509 185.128,336.275 C185.128,341.921 181.644,344.444 175.037,343.603 C168.67,342.642 163.865,340.6 163.024,338.317 C162.063,335.795 165.667,320.058 168.55,313.931 C172.034,306.723 180.443,297.954 188.011,293.509 C196.9,288.344 198.582,284.86 199.784,267.681 C201.826,239.571 201.586,236.448 196.54,230.922 C194.258,228.399 191.855,224.315 191.254,221.672 C190.534,219.149 188.732,216.026 187.41,214.704 C185.969,213.503 184.047,210.62 183.086,208.578 C182.004,205.695 180.683,204.613 178.761,204.613 C177.319,204.613 174.797,203.773 173.235,202.691 C170.712,200.889 170.232,200.889 167.349,203.292 C165.547,204.613 159.54,208.217 153.894,211.221 C148.248,214.104 141.521,218.428 138.998,220.831 C134.553,224.795 134.313,225.156 135.154,230.681 C136.235,239.211 140.68,257.23 143.203,264.077 C145.966,271.405 145.966,273.087 143.683,283.538 C141.281,294.59 138.518,299.756 135.394,299.275 C133.112,298.915 132.751,297.834 132.031,289.305 C130.349,269.964 127.466,265.038 118.576,266.6 C110.648,267.801 106.443,270.084 98.274,277.532 C93.95,281.376 87.943,286.061 84.82,287.983 C78.093,292.188 77.372,293.509 79.174,300.236 C81.216,307.684 80.135,309.486 74.609,308.525 C70.524,307.804 69.804,308.165 67.281,311.769 C64.878,315.132 64.518,316.934 64.758,323.301 C65.239,334.834 62.476,338.077 56.229,333.152 C53.466,330.989 53.106,329.788 52.385,318.496 C51.424,303.6 52.986,294.71 57.551,288.223 C59.352,285.701 61.635,282.337 62.716,280.775 C63.797,279.094 65.239,274.769 66.08,270.925 C66.921,267.201 68.362,261.555 69.323,258.431 C70.404,255.308 70.885,251.704 70.404,250.383 C70.044,248.941 70.524,246.058 71.726,243.535 C73.648,239.451 73.648,238.97 71.846,235.847 C68.843,230.922 69.323,228.639 73.408,227.318 C77.011,225.996 77.011,225.876 77.011,217.227 C77.011,209.539 77.372,208.097 79.534,206.535 C83.979,203.412 89.024,191.88 89.024,184.672 C89.024,181.068 88.544,178.185 88.063,178.185 C87.463,178.185 86.021,177.464 84.82,176.503 C82.658,174.941 83.018,174.941 87.823,175.782 C90.826,176.383 93.589,176.503 94.07,176.263 C95.391,175.422 98.635,180.828 98.635,183.831 C98.635,185.393 99.596,186.714 100.917,187.195 C102.239,187.555 103.68,188.876 104.041,190.198 C105.482,194.643 107.644,195.243 111.128,192 C112.93,190.318 114.852,188.997 115.453,188.997 C116.053,188.997 117.135,186.954 117.976,184.552 C118.696,182.029 121.82,177.704 124.703,174.821 C129.628,170.136 129.988,169.175 129.388,165.571 C128.427,160.526 132.751,151.156 139.599,143.708 C142.242,140.825 144.284,137.461 144.284,136.14 C144.284,130.734 148.849,124.487 155.576,120.643 C159.3,118.601 163.264,116.919 164.586,116.919 C165.907,116.919 167.349,116.318 167.709,115.718 C169.391,113.075 190.413,100.101 195.099,98.9 C197.861,98.179 201.105,97.338 202.186,96.978 C204.469,96.377 209.634,87.968 210.715,83.163 C211.196,81.481 212.878,78.117 214.559,75.595 C216.241,73.192 217.563,70.189 217.563,69.108 C217.563,65.384 219.965,64.062 225.491,64.903 C229.576,65.384 231.257,65.023 233.9,62.981 C235.702,61.66 238.105,60.458 239.306,60.458 C240.507,60.458 242.67,58.776 244.231,56.854 C245.673,54.812 248.676,52.53 250.959,51.809 C253.842,50.728 257.205,47.484 262.251,40.757 C272.342,30.426 274.384,31.627 274.984,31.627 C276.426,31.627 281.231,26.342 281.231,24.78 C281.231,22.137 285.916,19.374 289.04,20.095 C293.124,21.176 298.65,31.988 296.608,35.111 C294.205,39.075 296.488,43.4 302.494,46.163 C308.981,49.046 315.708,48.565 320.634,44.841 C322.195,43.52 325.199,42.439 327.121,42.439 C329.043,42.439 331.926,41.478 333.608,40.397 C336.731,38.475 348.383,23.579 352.708,16.251 C355.351,11.806 358.234,10.485 361.598,12.286 C362.919,13.007 364.721,13.608 365.802,13.608 C368.805,13.608 374.932,7.601 374.932,4.598 C374.932,0.754 377.575,-1.168 380.218,0.754 C381.9,1.955 382.62,5.079 383.461,13.127 C384.182,19.014 384.302,25.501 383.942,27.663 C383.461,30.186 383.942,31.988 385.263,33.309 C386.585,34.63 386.945,36.312 386.344,38.835 C385.744,41.598 386.344,43.88 388.747,47.965 C390.549,51.088 391.51,53.851 390.909,54.332 C390.309,54.692 389.107,57.575 388.266,60.699 C387.305,63.822 385.864,67.065 385.023,67.786 C382.861,69.588 382.861,72.952 385.263,77.517 C386.464,79.799 386.945,83.283 386.705,86.767 C386.464,90.731 387.065,93.854 388.747,96.857 L391.029,101.182 L388.266,105.026 C384.422,110.192 386.464,112.114 392.111,108.63 C397.156,105.507 398.477,105.507 400.039,108.39 C401.601,111.153 396.555,128.331 392.711,133.136 C388.747,138.182 389.468,142.747 395.835,153.318 C402.322,163.769 404.364,173.019 400.88,176.743 C397.516,180.467 398.117,189.237 402.201,197.045 C407.487,207.016 408.448,217.107 404.964,224.435 C401.841,230.922 402.442,233.444 407.247,233.444 C410.13,233.444 411.571,234.646 415.295,239.811 C422.143,249.301 426.588,258.431 426.588,262.996 C426.588,265.159 428.75,272.006 431.513,278.133 C434.276,284.259 437.399,292.788 438.721,296.993 C439.922,301.197 442.084,306.964 443.406,309.727 C444.727,312.49 446.529,317.775 447.25,321.499 C448.932,329.187 447.25,336.035 442.565,341.681 C438.841,346.006 438.961,350.33 442.805,352.853 C446.529,355.256 446.529,356.457 442.805,364.986 C441.123,368.83 438.841,375.437 437.88,379.762 C436.318,386.729 436.318,388.051 437.88,392.976 C438.961,395.979 439.802,400.664 439.802,403.547 C439.802,409.194 435.237,422.288 430.432,430.456 C428.149,434.301 426.828,438.865 425.987,445.953 L424.786,456.164 L419.26,460.128 C416.136,462.291 410.731,465.414 407.127,466.976 L400.399,469.979 L401.481,465.534 C401.961,463.011 403.162,459.167 404.123,456.885 C405.085,454.602 406.286,449.317 406.646,445.112 C407.127,441.028 408.328,435.382 409.289,432.739 C411.692,425.771 411.451,424.93 406.766,420.125 C402.201,415.56 401.961,414.72 403.883,410.995 C405.685,407.632 403.283,405.83 395.594,404.629 C389.107,403.668 384.542,401.145 384.542,398.502 C384.542,397.541 385.383,395.138 386.344,393.216 C388.387,389.132 387.906,388.291 379.737,383.246 C371.809,378.2 374.091,371.593 383.822,371.593 C391.51,371.473 400.64,368.59 401.12,366.307 C401.721,363.424 399.078,357.538 397.036,356.697 C396.075,356.337 394.153,357.298 392.711,358.98 C385.023,367.869 378.536,354.655 384.422,342.161 C388.867,332.911 382.981,330.509 373.971,337.957 C371.689,339.879 368.685,343.483 367.244,346.006 C364.481,350.931 360.637,352.372 358.234,349.489 C357.273,348.288 356.552,343.002 356.312,335.314 L355.952,322.941 L352.348,322.22 C344.179,320.538 336.25,312.129 333.367,302.158 C331.445,295.431 331.445,288.944 333.608,272.246 C334.569,265.159 332.526,263.236 330.364,269.243 C329.763,271.045 327.601,273.568 325.559,274.769 C321.955,276.931 321.835,277.292 322.556,282.577 C323.036,285.581 323.877,292.668 324.598,298.314 C325.919,310.447 328.082,321.259 329.523,323.061 C330.004,323.782 333.007,324.743 336.13,325.103 C343.578,325.944 346.702,329.428 345.5,335.554 C344.419,340.48 344.419,341.561 345.981,363.785 C346.702,373.035 346.942,382.044 346.582,383.966 C345.621,388.411 340.815,394.057 335.169,396.82 C331.565,398.742 329.884,400.905 326.76,407.271 C323.156,414.84 323.036,415.44 325.078,416.642 C333.487,421.447 340.095,431.177 340.095,438.865 C340.095,441.508 338.893,443.07 333.728,446.554 L327.481,450.878 L305.617,450.878 C285.556,450.878 283.514,450.638 281.592,448.596 C278.708,445.473 273.303,443.551 269.819,444.391 C265.134,445.593 262.251,449.797 259.728,459.648 C257.926,466.615 256.364,469.979 253.481,472.742 C249.998,476.346 249.757,476.946 250.478,482.713 C251.079,488.599 250.959,489.08 246.994,492.924 C239.907,499.771 224.77,501.813 206.751,498.329 z M267.657,348.048 C268.858,346.366 271.621,342.642 273.783,339.639 C275.825,336.756 277.627,333.032 277.627,331.47 C277.627,326.064 266.936,312.73 262.491,312.73 C258.407,312.73 256.845,320.178 259.728,326.424 C260.929,328.827 260.689,330.269 259.127,333.752 C256.845,338.437 257.566,342.402 261.41,348.408 C263.812,352.012 265.014,351.892 267.657,348.048 z M362.318,304.201 C368.805,298.194 369.526,295.071 367.724,281.977 C366.403,273.087 366.523,271.525 368.205,268.883 C370.367,265.519 370.728,256.149 368.805,252.305 C366.523,247.98 360.156,241.853 357.874,241.853 C355.111,241.853 352.588,245.818 350.426,253.866 C343.698,278.373 342.497,283.899 342.497,290.866 C342.497,298.795 343.578,301.918 347.663,306.483 C351.507,310.567 356.072,309.967 362.318,304.201 z M343.578,239.331 C344.299,237.168 344.9,232.363 344.9,228.519 C344.9,221.912 344.659,221.432 342.257,221.432 C340.695,221.432 337.692,222.513 335.65,223.834 C330.244,227.078 330.124,232.844 335.41,238.85 C339.974,244.016 341.896,244.136 343.578,239.331 z" fill="#000000"/>
  </g>
</svg>
