<?xml version="1.0" encoding="UTF-8"?>
<!DOCTYPE svg PUBLIC "-//W3C//DTD SVG 1.1//EN" "http://www.w3.org/Graphics/SVG/1.1/DTD/svg11.dtd">
<svg version="1.1" xmlns="http://www.w3.org/2000/svg" xmlns:xlink="http://www.w3.org/1999/xlink" x="0" y="0" width="500" height="500" viewBox="0, 0, 500, 500">
  <g id="Layer_1">
    <path d="M24.413,164.591 L23.639,165.437 C24.916,189.758 23.684,214.08 22.743,238.423 C21.735,264.469 22.251,290.47 22.004,316.538 C21.735,342.897 21.153,369.257 21.131,395.616 C21.131,408.739 21.803,421.953 21.534,435.076 C21.332,444.617 20.325,454.112 19.921,463.653 C54.656,473.171 91.743,459.173 122.962,444.617 C131.987,440.406 141.259,436.666 150.083,432.03 C152.837,430.575 155.547,429.119 158.279,427.753 C162.288,427.148 166.185,426.297 170.149,425.334 C170.821,425.177 171.493,425.065 172.142,424.976 C176.778,423.475 181.548,423.072 185.87,424.282 C195.008,425.267 202.129,434.583 205.444,442.422 C208.87,450.484 213.439,463.563 211.423,472.991 C225.04,472.521 238.678,473.394 252.407,473.686 C266.359,473.999 280.289,473.506 294.174,474.022 C292.113,461.413 293.748,447.886 303.378,440.339 C303.602,440.16 303.871,440.026 304.117,439.846 C304.162,439.802 304.184,439.757 304.229,439.712 C312.583,430.194 327.7,429.746 339.054,432.12 C345.526,433.464 351.259,437.114 356.701,441.033 C359.299,442.265 361.852,443.586 364.316,444.93 C379.074,453.015 392.489,461.099 409.241,464.705 C428.12,468.781 447.133,469.52 466.304,467.616 C469.238,467.348 473.829,466.497 478.666,466.004 C477.658,444.908 478.442,423.767 478.576,402.648 C478.733,374.9 477.86,347.197 478.532,319.427 C479.226,290.649 480.861,261.714 479.741,232.937 C479.226,219.298 479.383,205.682 478.957,192.065 C478.733,184.563 477.882,177.195 478.711,169.827 L476.388,168.026 C480.662,169.019 491.035,170.087 493.895,173.858 C502.114,188.056 499.874,462.757 493.895,477.694 C490.692,485.734 400.327,488.646 298.026,488.578 C297.914,492.139 297.354,495.073 296.077,496.35 C291.598,500.829 213.215,501.59 207.997,496.35 C206.429,494.804 205.802,491.557 205.69,487.795 C100.612,486.115 6.417,481.972 3.439,477.694 C-3.28,467.997 0.46,188.056 3.439,171.618 C4.549,168.909 8.443,168.01 10.951,167.296 C15.353,166.041 19.892,165.262 24.413,164.591 z" fill="#000000"/>
    <path d="M350.236,113.652 C353.85,115.149 350.904,113.932 359.098,117.243 C370.452,125.059 387.495,127.343 399.073,131.486 C409.778,135.316 421.177,137.107 432.465,138.003 C436.877,138.361 441.109,138.115 445.297,137.689 L445.409,137.801 C443.058,143.333 440.482,147.7 436.048,152.336 C435.063,153.389 433.965,154.329 432.868,155.27 C429.531,159.838 425.097,163.892 420.259,166.669 C420.349,166.691 420.461,166.714 420.55,166.714 L420.573,166.714 C428.478,167.968 435.555,164.698 442.565,161.339 C445.924,158.383 454.076,157.577 456.764,156.457 C457.458,156.143 458.152,156.21 458.734,156.479 C458.645,156.815 458.533,157.129 458.443,157.509 C455.33,165.079 453.427,173.88 453.359,182.189 C453.024,189.49 453.897,196.947 454.614,204.181 C455.711,215.423 455.957,226.688 456.338,237.975 C457.211,264.088 457.749,290.201 458.242,316.336 C458.734,342.069 458.645,367.823 460.862,393.488 C461.668,402.849 462.519,411.964 462.273,421.348 C460.369,432.725 458.757,445.804 464.042,455.993 C461.153,457.516 458.488,457.83 455.711,457.203 C443.214,459.308 428.971,450.395 418.983,444.169 C402.074,433.621 387.025,420.071 369.086,411.158 C349.893,401.618 327.968,398.594 307.074,403.141 C306.984,403.163 306.872,403.185 306.76,403.185 C285.92,404.607 270.355,418.123 258.446,434.166 L258.418,385.837 L263.936,385.837 L264.075,385.834 C324.124,384.506 359.796,365.188 372.603,330.712 C376.85,319.271 376.293,308.889 371.883,297.802 C370.726,294.893 369.358,292.018 367.482,288.421 C366.805,287.123 363.696,281.312 362.869,279.72 C357.429,269.245 354.615,261.294 353.522,251.247 C352.86,245.146 356.312,238.779 363.759,231.696 C366.591,229.002 375.927,221.487 377.157,220.262 C379.675,217.764 381.423,214.8 381.365,210.324 C381.282,203.928 377.289,199.82 372.536,198.113 C369.57,197.047 366.956,197.013 363.498,197.393 C359.372,197.847 353.762,199.116 347.829,200.901 C337.176,204.312 326.102,208.135 317.358,215.376 C322.52,207.981 328.854,201.241 336.517,196.404 C351.128,187.53 358.857,178.546 359.653,167.417 C360.027,162.193 358.763,157.309 356.253,152.403 C354.637,149.244 352.925,146.69 349.59,142.135 C348.735,140.957 345.673,137.141 345.535,136.962 C341.701,132.003 341.586,131.265 344.569,127.975 C347.375,124.885 349.194,122.129 349.986,118.605 C350.449,115.81 350.281,117.454 350.236,113.652 z" fill="#000000"/>
    <path d="M312.068,101.588 C317.124,102.243 322.085,103.454 326.953,104.947 C324.559,106.022 322.496,107.731 320.436,109.328 C308.05,119.421 300.971,134.372 305.699,150.465 C305.658,150.327 305.65,150.276 305.652,150.314 C305.663,150.512 305.654,150.791 305.613,151.128 C305.508,152.016 305.222,153.046 304.782,154.043 C304.056,155.424 303.298,156.974 301.829,157.717 C301.578,157.762 301.791,157.725 301.186,157.799 C300.005,157.916 298.631,157.909 297.269,157.747 C294.2,157.383 291.784,156.34 290.28,154.745 C288.215,152.553 287.021,148.668 287.457,141.959 C288.534,128.778 293.845,116.441 299.247,104.536 C307.328,102.448 303.06,103.451 312.068,101.588 z" fill="#000000"/>
    <path d="M171.591,106.569 C174.341,109.815 171.55,113.644 169.779,116.542 C169.338,117.25 167.7,119.804 167.685,119.828 C166.699,121.382 166.002,122.553 165.366,123.788 C160.867,132.505 157.552,144.531 157.552,155.976 C157.552,172.772 164.474,187.28 179.485,196.397 C199.242,208.367 202.299,213.827 199.299,231.61 L199.049,232.896 C197.923,231.262 196.995,229.5 196.025,227.772 C189.162,215.154 174.447,207.754 157.021,204.596 C150.494,203.414 144.054,202.998 139.138,203.449 C135.559,203.777 132.628,204.484 129.839,206.239 C122.129,211.09 121.235,221.281 127.566,227.559 C129.165,229.152 130.921,230.36 133.059,231.53 C134.279,232.198 139.74,234.803 141.168,235.584 C143.992,237.126 146.345,238.801 148.585,240.99 C153.426,245.72 157.518,252.682 160.721,263.022 C163.837,273.054 162.037,278.294 153.718,288.905 C153.344,289.381 151.99,291.098 151.724,291.437 C150.901,292.485 150.255,293.319 149.631,294.145 C145.546,299.561 142.949,304.015 141.367,309.266 C139.286,316.169 139.529,323.333 142.267,330.708 C158.822,373.851 208.641,384.452 249.949,385.771 L250.067,435.103 C247.576,430.963 244.409,427.326 241.231,423.722 C238.499,420.43 234.938,417.474 232.968,415.816 C225.913,409.926 217.246,406.567 208.288,404.663 C186.027,399.916 165.312,403.947 144.865,413.42 C126.12,422.132 107.353,431.247 88.854,440.496 C77.634,446.095 65.899,449.105 53.358,452.285 C50.088,452.688 46.818,452.912 43.481,452.822 C43.325,445.97 42.272,438.982 41.69,432.577 C41.623,431.659 41.578,430.718 41.511,429.8 C41.712,416.721 42.07,409.165 42.72,396.131 C43.593,378.842 45.228,361.015 40.368,344.151 C40.189,343.524 40.144,342.965 40.212,342.427 C47.109,340.456 57.075,341.822 62.741,346.257 C63.1,346.346 63.458,346.481 63.816,346.593 C62.473,344.801 61.196,342.987 59.942,341.128 C55.687,336.492 51.499,331.745 47.378,327.064 C47.087,326.75 46.863,326.414 46.661,326.056 C46.617,322.966 46.46,319.897 46.079,316.852 L46.393,315.396 C45.407,305.408 46.303,295.106 46.572,285.185 C46.997,269.575 47.557,253.943 48.677,238.334 C49.842,221.649 52.014,205.055 52.686,188.325 C53.223,175.269 53.537,162.235 54.791,149.223 C54.5,147.812 54.589,146.245 55.015,144.766 C63.615,143.378 72.774,140.982 79.247,135.181 C79.448,135.876 79.605,136.592 79.694,137.331 C79.784,137.981 79.851,138.63 79.918,139.257 C81.71,144.274 82.315,149.514 83.3,154.732 C83.614,149.29 83.77,143.848 84.98,138.541 C85.36,136.547 85.808,134.577 86.323,132.673 C90.444,131.8 94.632,130.859 98.686,130.545 C123.259,123.386 147.039,113.795 171.591,106.569 z" fill="#000000"/>
    <path d="M207.423,101.274 C210.781,101.576 208.825,101.365 213.282,101.991 L215.408,102.805 C218.098,112.622 220.299,122.68 220.35,132.902 C220.293,138.849 219.284,142.536 217.893,144.484 C216.854,145.941 214.954,146.377 213,145.988 C211.101,145.61 208.87,144.421 207.93,143.151 C206.705,141.498 206.611,138.573 209.587,132.293 C213.743,123.542 213.529,114.296 209.788,105.701 C208.313,102.605 209.109,104.077 207.423,101.274 z" fill="#000000"/>
    <path d="M259.125,14.852 C361.024,-26.58 221.77,26.833 266.561,75.207 C273.593,82.799 287.948,62.33 288.105,47.168 C288.351,26.004 304.789,62.979 288.934,95.295 C250.122,174.552 299.773,171.753 306.066,168.976 C315.181,164.989 319.234,152.918 317.308,146.401 C310.209,122.237 346.87,105.597 334.709,118.99 C322.549,132.404 334.105,142.482 338.897,149.089 C347.587,160.958 353.768,170.342 329.469,185.1 C305.148,199.836 284.902,240.036 287.59,256.116 C290.3,272.195 305.864,275.443 310.075,267.918 C316.323,256.81 305.596,246.083 322.706,226.644 C332.604,215.356 373.14,205.458 367.742,210.81 C362.345,216.185 338.136,230.652 340.465,252.107 C344.407,288.342 369.713,300.346 360.262,325.81 C350.812,351.251 324.049,371.362 263.291,372.705 L251.69,372.705 C190.932,371.362 163.05,351.251 153.599,325.81 C144.148,300.346 183.093,293.605 172.277,258.781 C161.482,223.934 141.349,223.463 135.951,218.089 C130.554,212.736 174.023,214.169 184.437,233.317 C191.626,246.486 192.074,242.925 198.837,248.3 C198.837,248.3 208.557,249.285 211.244,233.205 C215.32,209.041 208.49,199.008 185.535,185.1 C161.236,170.342 170.686,139.526 176.084,129.067 C179.824,121.811 191.783,110.009 179.622,96.594 C167.462,83.202 208.49,103.604 197.673,126.38 C186.878,149.156 203.294,156.524 210.035,157.868 C216.798,159.211 244.949,159.906 226.048,95.295 C205.937,26.609 259.125,14.852 259.125,14.852" fill="#000000"/>
  </g>
</svg>
