<?xml version="1.0" encoding="UTF-8"?>
<!DOCTYPE svg PUBLIC "-//W3C//DTD SVG 1.1//EN" "http://www.w3.org/Graphics/SVG/1.1/DTD/svg11.dtd">
<svg version="1.1" xmlns="http://www.w3.org/2000/svg" xmlns:xlink="http://www.w3.org/1999/xlink" x="0" y="0" width="500" height="500" viewBox="0, 0, 500, 500">
  <g id="Layer_1">
    <path d="M275.694,358.739 C274.668,360.736 273.642,362.464 272.617,363.273 C272.185,362.248 271.591,361.33 270.458,360.574 C268.73,369.643 264.52,375.364 259.122,379.467 C259.932,374.825 260.958,370.074 260.202,365.972 C258.421,369.589 256.154,371.478 253.725,371.91 C253.347,369.966 253.023,368.131 252.105,367.591 C250.108,369.643 248.812,370.776 248.327,370.83 C247.733,368.347 247.193,365.648 246.545,364.029 C245.736,363.489 244.98,363.489 244.17,364.029 C243.523,365.594 242.983,368.347 242.389,370.83 C241.903,370.776 240.608,369.643 238.611,367.591 C237.693,368.131 237.369,369.966 236.991,371.91 C234.562,371.478 232.295,369.589 230.514,365.972 C229.758,370.074 230.784,374.825 231.593,379.467 C226.196,375.364 221.985,369.643 220.258,360.574 C219.124,361.33 218.531,362.248 218.099,363.273 C217.127,362.464 216.102,360.79 215.022,358.739 C214.914,358.577 214.698,358.685 214.752,358.847 C223.929,392.044 220.798,397.981 222.417,412.339 C224.36,410.288 226.304,408.723 228.355,408.021 C228.517,409.101 228.841,409.91 229.434,410.18 C230.892,407.265 232.349,404.998 233.753,403.703 C235.372,408.021 236.937,412.933 238.611,413.419 C239.42,410.666 240.608,408.399 242.389,406.942 C243.415,409.479 244.44,411.422 245.358,411.746 C246.276,411.422 247.301,409.479 248.327,406.942 C250.108,408.399 251.295,410.666 252.105,413.419 C253.778,412.933 255.344,408.021 256.963,403.703 C258.367,404.998 259.824,407.265 261.281,410.18 C261.875,409.91 262.199,409.101 262.361,408.021 C264.412,408.723 266.355,410.288 268.299,412.339 C269.918,397.981 266.787,391.99 275.964,358.847 C276.071,358.685 275.802,358.577 275.694,358.739 z" fill="#000000"/>
    <path d="M231.647,314.153 C223.443,305.409 215.454,298.283 208.437,297.42 C203.633,303.627 199.8,307.136 196.022,310.375 C195.914,316.204 196.184,321.656 201.42,322.25 C206.062,323.977 216.264,323.059 226.25,322.25 C230.244,321.386 231,317.824 231.647,314.153 z" fill="#000000"/>
    <path d="M240.284,340.602 C241.687,338.821 242.983,336.986 244.332,335.852 C244.332,335.852 245.088,334.881 245.412,335.043 C245.79,334.827 246.491,335.852 246.491,335.852 C247.787,336.986 249.082,338.821 250.54,340.602 C252.645,341.142 253.778,341.682 253.778,338.983 C253.293,336.122 249.838,327.432 248.705,323.275 C248.597,322.844 248.003,322.79 247.787,323.167 C247.355,323.977 246.923,325.057 246.383,326.028 C246.383,326.028 245.736,327.756 245.412,327.432 C245.088,327.756 244.44,326.028 244.44,326.028 C243.9,325.057 243.415,323.977 243.037,323.167 C242.821,322.79 242.227,322.844 242.119,323.275 C240.986,327.432 237.531,336.176 237.045,338.983 C237.045,341.682 238.179,341.142 240.284,340.602 z" fill="#000000"/>
    <path d="M389.264,317.932 C382.894,321.71 381.437,318.201 382.786,310.375 C391.261,300.712 396.605,290.295 396.821,278.527 C389.534,262.712 396.821,236.964 396.821,232.106 C396.821,227.248 392.179,221.041 387.105,216.453 C391.315,224.873 391.963,231.027 387.105,236.424 C377.82,238.53 373.772,263.414 376.471,269.297 C376.849,270.107 376.579,271.078 375.823,271.564 C367.78,276.53 360.763,269.405 365.513,256.396 C371.127,246.95 375.175,237.72 375.229,228.868 C373.556,219.637 371.883,210.461 369.292,205.117 C366.701,191.946 373.124,179.208 383.866,173.81 C360.385,177.75 354.718,191.623 350.939,206.197 C346.945,222.552 334.206,213.214 334.746,204.038 C342.842,174.889 346.243,167.224 327.189,152.219 C321.089,146.497 323.626,136.619 334.746,122.53 C321.575,127.712 313.694,133.866 309.916,148.98 C312.615,168.412 313.101,179.1 307.757,183.526 C312.345,165.065 307.541,152.272 290.484,146.821 C273.75,139.264 290.484,113.354 290.484,83.126 C288.756,72.763 284.006,65.853 276.989,58.836 C268.029,47.825 266.625,33.359 275.91,14.034 C262.685,21.429 254.318,38.864 255.398,50.2 C256.477,61.535 272.131,96.081 250,97.701 C234.346,97.701 239.366,71.359 243.523,50.739 C245.466,41.023 231.539,27.745 226.25,16.193 C223.173,9.5 228.247,1.673 227.329,-0 C222.255,4.318 219.286,11.821 219.772,20.512 C223.443,33.682 227.005,44.91 226.789,52.899 C224.36,70.172 207.357,99.86 205.198,105.797 C192.783,131.707 227.869,158.696 193.323,164.633 C188.465,164.633 189.544,155.997 188.465,152.219 C185.766,141.963 168.493,137.105 166.334,123.07 C164.175,109.036 176.59,109.036 176.59,93.922 C176.59,76.109 160.396,73.95 160.396,73.95 C180.368,94.462 151.76,102.019 143.123,125.229 C141.666,124.798 141.504,144.122 150.68,154.378 C157.158,163.014 164.175,178.128 139.884,189.463 C139.884,189.463 124.231,196.481 122.611,209.975 C118.833,230.487 136.646,262.874 125.85,266.652 C111.816,268.272 122.611,255.857 118.833,248.3 C110.736,235.885 112.895,221.85 112.895,221.85 C100.48,231.566 106.958,254.777 105.338,256.936 C103.719,259.095 89.145,269.351 101.02,315.233 C106.418,329.807 119.373,338.443 112.895,343.301 C105.878,348.159 104.259,331.966 104.259,331.966 C102.64,323.869 96.702,319.983 89.145,319.551 C95.083,324.409 93.463,334.125 94.543,351.938 C96.864,366.62 118.455,381.356 159.317,396.2 C167.251,404.189 168.007,411.854 163.635,415.632 C156.888,419.896 154.027,409.533 150.68,396.2 C141.504,418.331 152.893,434.848 163.095,442.621 C163.095,442.621 190.084,452.877 196.022,459.894 C201.959,466.911 200.88,469.61 203.579,471.23 C210.488,473.875 216.534,476.627 216.534,480.406 C216.534,484.184 212.755,485.156 203.039,481.485 C209.57,498.705 228.949,490.824 233.267,486.883 C235.264,485.048 243.361,493.469 247.031,499.514 C247.409,500.162 248.381,500.162 248.759,499.514 C252.699,492.443 257.557,482.565 262.955,483.105 C268.892,486.344 273.157,487.963 275.91,487.963 C279.85,487.963 283.035,483.914 282.387,483.645 C283.682,480.136 290.376,474.63 294.802,475.008 C293.992,471.338 281.037,472.363 276.989,474.468 C274.02,476.034 283.466,460.974 286.705,465.292 C287.839,460.65 288.972,456.709 290.484,456.116 C309.916,462.593 337.984,453.417 339.064,435.064 C342.303,421.57 327.729,422.109 328.268,413.473 C329.888,408.615 342.627,407.373 352.019,409.694 C360.817,409.371 367.618,407.859 370.911,404.297 C376.309,393.501 382.786,380.546 395.741,378.387 C397.63,377.416 400.059,374.069 396.821,371.37 C395.741,378.387 387.644,372.45 380.087,375.148 C373.07,379.467 372.531,388.643 362.814,387.563 C355.365,384.325 356.121,379.143 366.053,371.91 C376.147,369.319 384.028,364.191 390.343,357.336 C390.343,357.336 396.821,349.239 399.52,341.682 C404.378,327.648 397.9,291.482 410.855,286.624 C399.736,283.709 393.312,301.09 389.264,317.932 z M348.24,255.317 C343.706,283.493 332.857,297.582 309.376,303.357 C304.518,305.355 305.112,312.318 309.376,322.79 C321.035,334.449 332.587,346.54 331.507,357.875 C326.001,351.182 311.427,348.375 306.677,349.779 C303.978,351.398 302.899,357.875 293.183,356.256 C282.873,360.089 284.6,392.637 286.165,399.978 C287.083,404.243 278.824,408.507 279.688,412.393 C280.498,416.172 281.307,419.95 282.387,422.649 C283.359,424.7 280.498,427.129 281.307,428.587 C283.359,432.257 288.54,447.641 281.307,452.877 C280.228,453.633 277.853,442.081 270.512,439.922 C265.816,438.573 263.117,442.081 254.858,441.542 C251.08,439.922 240.824,439.382 235.966,441.542 C227.707,442.081 225.008,438.573 220.312,439.922 C212.971,442.081 210.596,453.633 209.516,452.877 C202.283,447.641 207.465,432.257 209.516,428.587 C210.326,427.129 207.465,424.7 208.437,422.649 C209.516,419.95 210.326,416.172 211.136,412.393 C211.999,408.507 203.741,404.243 204.658,399.978 C206.224,392.637 207.951,360.089 197.641,356.256 C187.925,357.875 186.846,351.398 184.147,349.779 C179.397,348.375 164.822,351.182 159.317,357.875 C158.237,346.54 169.788,334.449 181.448,322.79 C185.712,312.318 186.306,305.355 181.448,303.357 C157.967,297.582 147.118,283.493 142.583,255.317 C141.99,233.186 157.589,218.342 182.527,207.816 C191.326,204.092 201.42,202.418 205.738,190.543 C206.278,181.907 203.687,180.881 196.022,173.81 C205.306,172.676 212.107,176.994 214.914,190.003 C210.056,213.754 188.465,211.055 184.686,234.805 C185.766,250.999 205.198,256.396 219.772,245.061 C220.15,238.044 223.551,232.052 229.488,228.868 C229.596,234.103 232.727,240.203 235.426,240.743 C235.966,241.283 240.824,239.123 245.142,239.123 L245.682,239.123 C250,239.123 254.858,241.283 255.398,240.743 C258.097,240.203 261.227,234.103 261.335,228.868 C267.273,232.052 270.674,238.044 271.052,245.061 C285.626,256.396 305.058,250.999 306.137,234.805 C302.359,211.055 280.768,213.754 275.91,190.003 C278.716,176.994 285.518,172.676 294.802,173.81 C287.137,180.881 284.546,181.907 285.086,190.543 C289.404,202.418 299.498,204.092 308.296,207.816 C333.18,218.342 348.78,233.186 348.24,255.317 z" fill="#000000"/>
    <path d="M282.387,297.42 C275.37,298.284 267.381,305.409 259.176,314.153 C259.824,317.824 260.58,321.386 264.574,322.25 C274.56,323.06 284.762,323.977 289.404,322.25 C294.64,321.656 294.91,316.204 294.802,310.375 C291.023,307.136 287.191,303.627 282.387,297.42 z" fill="#000000"/>
  </g>
</svg>
