<?xml version="1.0" encoding="UTF-8"?>
<!DOCTYPE svg PUBLIC "-//W3C//DTD SVG 1.1//EN" "http://www.w3.org/Graphics/SVG/1.1/DTD/svg11.dtd">
<svg version="1.1" xmlns="http://www.w3.org/2000/svg" xmlns:xlink="http://www.w3.org/1999/xlink" x="0" y="0" width="500" height="500" viewBox="0, 0, 500, 500">
  <g id="layer101">
    <path d="M441.205,488.256 C429.319,487.619 428.046,487.301 422.315,484.011 C418.707,481.995 415.736,479.448 415.099,477.856 C414.25,475.415 414.781,469.897 416.903,461.301 C417.646,457.905 415.948,455.252 412.87,455.252 C411.703,455.252 409.368,454.085 407.67,452.705 C406.078,451.325 401.621,449.097 398.013,447.929 C394.299,446.656 388.993,444.003 386.021,441.986 C383.156,439.864 377.425,437.211 373.286,436.044 C356.625,431.162 351.425,429.252 337.735,422.884 C322.772,415.986 310.461,411.741 305.261,411.741 C302.184,411.741 300.061,412.696 295.074,416.305 C292.527,418.109 292.208,418.109 289.131,416.305 C286.478,414.819 285.522,414.713 284.461,415.774 C283.4,416.835 283.4,417.578 284.567,419.382 C286.053,421.717 287.963,445.489 287.008,449.203 C286.796,450.158 285.735,451.007 284.673,451.007 C282.02,451.007 280.853,452.917 279.58,459.709 C277.669,469.472 274.91,472.762 265.359,476.477 C246.045,484.011 224.714,488.15 215.8,486.134 C211.236,485.179 206.036,481.57 204.869,478.811 C202.534,472.974 205.718,463.636 211.448,459.497 C213.253,458.223 217.073,454.297 219.938,450.901 C224.82,445.064 225.032,444.427 223.971,441.456 C222.379,436.893 223.44,434.24 229.596,426.492 C237.661,416.305 244.347,405.692 244.347,402.721 C244.347,399.007 242.755,397.733 223.759,385.741 C210.706,377.57 204.126,372.582 195.105,363.986 C188.632,357.831 180.142,350.296 176.216,347.218 C171.228,343.292 168.999,340.745 168.999,339.153 C168.999,336.712 176.958,330.239 198.077,315.7 C203.914,311.561 212.191,305.83 216.224,302.965 C220.363,300.1 226.942,295.536 231.081,292.671 C241.694,285.349 241.906,284.393 232.885,284.393 C226.624,284.393 223.334,285.242 211.873,289.594 C204.338,292.353 195.636,295.536 192.559,296.492 C186.722,298.508 184.918,300.418 184.812,305.3 C184.812,306.892 183.75,310.394 182.477,312.941 C180.567,316.761 179.081,318.035 173.775,320.369 C168.15,322.81 166.028,323.128 154.991,323.128 C145.015,323.235 142.256,323.553 140.664,325.039 C137.799,327.586 127.717,332.786 122.517,334.378 C116.468,336.182 115.195,337.773 117.423,341.169 C119.864,344.884 123.897,347.325 126.444,346.476 C129.203,345.627 133.342,347.855 139.179,353.161 C145.652,359.21 144.803,360.272 133.554,360.059 C125.595,359.953 123.897,359.635 122.199,357.725 C119.015,354.329 111.374,354.647 106.068,358.361 C101.929,361.227 97.897,367.594 97.897,371.096 C97.897,373.537 100.974,377.994 102.142,377.251 C103.097,376.615 104.688,385.847 103.84,387.227 C103.415,387.758 103.84,388.819 104.582,389.668 C105.431,390.411 106.386,393.064 106.705,395.505 C107.448,399.856 107.448,399.856 104.264,399.643 C102.566,399.537 100.019,398.37 98.746,397.202 C97.366,395.929 95.35,394.762 94.182,394.549 C92.484,394.337 91.848,393.064 91.317,388.925 C89.937,378.843 89.195,376.721 86.011,374.068 C82.296,370.99 81.448,370.884 76.035,373.113 C71.79,374.917 63.937,382.451 63.937,384.786 C63.937,385.529 62.239,388.076 60.223,390.517 C58.207,392.958 56.509,396.141 56.509,397.627 C56.509,399.643 56.084,400.068 54.492,399.537 C53.431,399.219 51.202,399.537 49.717,400.174 C48.019,401.023 46.533,401.129 46.002,400.492 C45.472,399.962 44.835,395.292 44.729,390.198 L44.41,380.86 L47.488,379.268 C51.733,377.145 53.325,374.81 53.325,370.99 C53.325,366.002 52.051,364.941 45.578,364.304 C39.847,363.774 39.635,363.561 39.317,360.378 C39.104,358.361 38.361,356.982 37.3,356.77 C34.753,356.345 31.888,359.635 32.525,362.288 C33.055,364.304 32.631,364.517 28.598,364.729 C26.157,364.835 19.896,365.896 14.802,367.17 C4.508,369.61 1.749,369.292 0.051,365.472 C-0.267,363.561 0.794,363.137 6.418,358.68 C9.284,356.345 12.043,354.435 12.361,354.435 C12.68,354.435 15.014,353.055 17.455,351.251 C19.79,349.553 23.08,348.067 24.672,348.067 C26.263,348.067 28.28,347.325 29.023,346.369 C30.19,344.884 30.084,344.459 28.386,343.186 C27.325,342.337 25.521,341.7 24.565,341.7 C18.41,341.7 23.504,335.439 32.206,332.255 C37.937,330.133 38.574,327.798 34.435,323.659 C31.888,321.112 30.296,320.475 26.582,320.475 C24.035,320.475 21.063,319.733 20.002,318.884 C18.835,318.035 17.031,317.504 15.969,317.928 C14.696,318.353 13.741,317.716 12.998,316.018 C12.467,314.639 10.876,312.198 9.602,310.606 C7.373,307.741 7.267,307.528 8.965,306.255 C10.239,305.3 13.529,305.088 19.578,305.406 C27.431,305.83 28.81,306.255 31.888,308.908 C35.921,312.41 37.088,312.622 42.5,310.394 C53.325,305.83 56.615,296.81 50.672,288.002 C48.019,284.075 46.002,270.067 47.806,268.263 C49.717,266.353 52.9,268.369 58.525,274.736 C62.77,279.724 63.937,281.847 63.937,284.606 C63.937,290.124 67.758,293.202 75.398,293.626 C80.705,293.945 81.978,293.626 85.692,290.973 C89.513,288.32 89.937,287.577 90.043,283.12 C90.15,278.663 90.786,277.495 96.305,271.234 C99.701,267.414 103.097,264.23 103.84,264.23 C108.403,264.23 108.191,282.059 103.627,287.577 C100.55,291.185 100.231,296.916 102.991,300.206 L104.795,302.541 L111.056,300.312 C114.558,299.145 118.591,298.19 120.076,298.19 C121.562,298.19 125.064,297.022 127.823,295.536 C130.583,294.051 134.509,292.883 136.632,292.883 C138.754,292.883 142.15,292.141 144.272,291.292 C146.289,290.443 149.154,289.7 150.64,289.7 C154.779,289.7 160.509,286.834 161.464,284.075 C162.526,281.422 168.362,275.904 170.273,275.904 C170.909,275.904 175.791,273.357 181.097,270.385 C190.754,264.761 190.754,264.761 199.244,264.973 C209.857,265.185 213.571,264.018 220.575,258.393 C228.216,252.132 232.249,250.965 238.51,252.981 C241.163,253.936 244.983,254.679 247,254.679 C250.29,254.679 253.898,252.45 253.898,250.434 C253.898,249.903 255.808,247.25 258.143,244.597 C260.477,241.944 262.388,239.609 262.388,239.503 C262.6,229.528 264.935,203.103 266.208,197.16 C267.163,192.703 267.694,188.246 267.269,187.291 C266.951,186.336 264.828,184.85 262.706,184.001 C260.477,183.046 257.4,181.029 255.702,179.544 C253.579,177.527 251.881,176.891 249.228,176.997 C245.832,177.209 245.726,177.103 244.983,172.327 C243.922,164.262 244.134,163.519 249.122,158.213 C254.322,152.588 254.747,151.633 252.2,149.511 C248.592,146.539 248.485,143.674 251.881,134.335 C254.959,125.739 255.065,125.315 253.473,121.494 C252.518,119.266 251.775,116.825 251.775,115.87 C251.775,115.021 255.702,110.458 260.477,105.894 C265.253,101.225 270.453,95.282 272.151,92.735 C275.653,87.217 277.457,86.261 280.959,88.066 C284.249,89.87 285.629,88.702 289.98,81.168 C293.376,75.118 301.016,67.478 304.731,66.31 C307.702,65.355 307.596,64.506 303.776,60.473 C300.061,56.441 299.318,53.151 299.743,41.902 L300.061,33.412 L304.2,31.396 C307.384,29.804 311.735,29.167 321.923,28.743 C334.658,28.106 335.613,27.894 338.478,25.347 C342.829,21.314 345.907,19.934 349.303,20.677 C351.637,21.208 353.229,20.571 356.943,17.6 C359.49,15.477 363.311,13.036 365.327,12.081 C368.935,10.489 369.254,10.489 374.348,13.143 C381.67,16.963 384.642,17.387 388.462,15.477 C391.115,14.098 392.707,13.992 397.376,14.947 C400.454,15.583 405.442,16.008 408.413,16.008 C412.552,15.902 414.25,16.432 415.736,18.024 C418.177,20.677 425.287,20.89 430.593,18.343 C433.883,16.751 434.626,16.751 437.066,18.13 C438.658,18.979 441.842,21.845 444.177,24.604 C447.36,28.424 449.164,29.698 451.393,29.698 C456.381,29.698 459.565,31.502 462.324,35.959 C465.295,40.628 467.312,41.477 480.895,43.6 C491.295,45.192 497.769,47.951 499.042,51.453 C501.802,58.669 498.3,72.041 492.357,77.029 C487.581,81.061 480.789,80.319 469.222,74.482 C458.928,69.388 453.409,68.645 453.409,72.465 C453.516,77.453 456.699,79.682 468.797,82.865 C475.165,84.563 480.683,86.368 481.108,87.11 C481.532,87.747 482.169,90.719 482.487,93.69 C483.124,98.466 482.806,99.951 479.41,106.955 C475.165,115.551 475.165,115.976 479.41,126.058 C480.895,129.772 482.806,136.352 483.548,140.703 C485.14,149.511 486.201,151.103 492.887,154.393 C501.165,158.319 501.589,164.899 493.63,168.082 C491.508,168.931 489.279,170.311 488.748,171.054 C488.324,171.797 487.899,176.254 487.899,180.923 C487.899,188.14 487.581,189.944 485.459,192.703 C483.018,195.887 483.018,195.993 484.61,203.846 C485.565,208.197 486.308,212.973 486.308,214.564 C486.308,216.156 487.581,220.613 489.067,224.328 C491.508,230.377 491.72,232.181 491.189,239.503 C490.34,250.646 490.34,253.193 491.189,259.455 C491.72,263.593 491.402,265.504 489.597,269.006 C488.43,271.34 486.944,275.161 486.308,277.602 C485.565,280.785 483.867,283.014 480.259,286.198 C471.769,293.308 465.72,295.643 464.34,292.353 C464.022,291.398 461.899,289.7 459.671,288.532 C454.258,285.773 454.152,286.198 454.895,302.647 C455.32,309.863 455.426,318.353 455.32,321.537 C455.107,326.843 455.107,349.235 455.426,362.394 C455.532,368.868 451.711,390.411 447.997,403.464 C446.618,408.558 446.724,409.937 450.12,423.097 C450.756,425.537 452.667,429.782 454.471,432.648 C456.169,435.407 457.654,438.378 457.654,439.227 C457.654,440.182 458.291,442.199 459.14,443.684 C459.883,445.17 460.838,448.248 461.263,450.37 C461.687,452.493 462.961,455.252 464.022,456.313 C466.038,458.329 466.038,458.329 463.916,458.966 C462.748,459.391 460.52,459.391 458.822,458.966 C457.124,458.648 455.532,458.648 455.214,459.178 C454.895,459.603 456.169,462.681 458.079,465.864 C462.324,473.081 464.234,478.387 463.173,480.191 C461.687,482.844 455.532,489.211 454.789,488.999 C454.365,488.893 448.209,488.575 441.205,488.256 z M99.807,354.223 C101.823,352.206 101.399,349.129 98.958,349.129 C97.048,349.129 94.713,351.888 94.713,354.329 C94.713,355.921 98.215,355.814 99.807,354.223 z M57.994,314.957 C59.798,312.304 59.374,310.924 56.615,310.924 C54.068,310.924 51.839,313.577 52.688,315.7 C53.537,318.035 56.084,317.61 57.994,314.957 z M173.987,309.439 C177.171,306.679 176.852,304.769 173.562,306.573 C172.501,307.104 170.379,307.847 168.787,308.271 C167.089,308.59 165.815,309.545 165.815,310.394 C165.815,312.835 170.591,312.304 173.987,309.439 z M79.856,303.92 C79.856,302.965 79.113,302.434 78.052,302.647 C75.398,303.177 75.08,305.618 77.627,305.618 C78.901,305.618 79.856,304.981 79.856,303.92 z M459.246,271.659 C460.52,270.279 461.156,268.051 461.05,265.504 C460.944,263.275 461.581,257.438 462.43,252.45 C463.279,247.569 464.022,243.218 464.022,242.793 C464.022,242.263 462.43,240.14 460.414,237.912 C458.397,235.683 455.744,231.12 454.471,227.83 C452.348,222.099 451.075,220.72 449.801,222.736 C449.271,223.585 453.197,269.536 454.046,272.508 C454.577,274.418 457.124,274.1 459.246,271.659 z" fill="#000000"/>
  </g>
</svg>
