<?xml version="1.0" encoding="UTF-8"?>
<!DOCTYPE svg PUBLIC "-//W3C//DTD SVG 1.1//EN" "http://www.w3.org/Graphics/SVG/1.1/DTD/svg11.dtd">
<svg version="1.1" xmlns="http://www.w3.org/2000/svg" xmlns:xlink="http://www.w3.org/1999/xlink" x="0" y="0" width="500" height="500" viewBox="0, 0, 500, 500">
  <g id="Layer_1">
    <path d="M237.405,440.723 C234.17,439.448 229.956,437.39 227.995,436.116 C226.035,434.744 223.095,433.078 221.429,432.392 C217.998,431.019 218.096,432.098 220.938,414.455 C221.723,409.751 222.311,405.046 222.311,403.968 C222.311,402.792 224.271,398.381 226.721,394.167 C231.426,385.836 234.464,376.622 232.994,375.054 C232.406,374.466 231.034,374.76 229.27,375.838 C225.643,377.995 224.173,377.897 219.468,375.446 C216.136,373.78 215.254,373.584 213.294,374.76 C209.863,376.622 204.374,378.485 202.022,378.485 C198.984,378.485 197.415,375.25 196.827,367.703 C196.337,361.528 196.239,361.234 192.613,359.372 C187.712,356.726 186.928,353.687 190.359,350.159 C194.573,345.748 193.887,344.67 186.83,345.062 C182.224,345.356 173.01,342.71 171.344,340.75 C170.266,339.476 170.364,337.907 171.638,332.125 C172.618,328.204 173.304,323.5 173.304,321.637 C173.304,319.775 173.99,316.933 174.775,315.364 C176.931,311.248 176.539,308.504 173.5,306.249 C171.932,305.073 170.266,302.525 169.58,300.173 C168.012,295.076 165.169,294.194 159.289,297.036 C151.742,300.663 148.801,299.486 148.801,292.626 C148.801,289.391 148.311,288.215 146.351,286.941 C144.979,286.059 143.901,284.491 143.901,283.412 C143.901,282.334 143.018,279.688 141.842,277.532 C139,272.043 139.882,268.024 145.371,261.752 C147.821,259.105 149.781,256.459 149.781,255.969 C149.781,255.479 152.428,253.322 155.564,251.068 C162.033,246.756 164.483,243.913 164.483,240.581 C164.483,237.542 166.738,235.778 172.618,234.014 C177.617,232.544 180.165,229.995 180.165,226.369 C180.165,225.879 181.243,224.115 182.616,222.449 C186.242,218.136 185.85,216.078 180.753,213.823 C175.853,211.765 173.99,209.413 172.324,203.336 C171.736,200.788 170.462,198.729 169.09,198.043 C167.914,197.455 166.051,195.789 164.973,194.515 C163.013,192.065 162.817,192.065 158.602,193.535 C156.152,194.319 151.84,195.299 148.997,195.691 C144.195,196.279 143.607,196.181 141.45,193.829 C140.176,192.457 138.314,191.281 137.334,191.281 C135.668,191.281 129.297,187.85 128.219,186.478 C126.944,184.714 122.632,182.459 120.672,182.459 L118.417,182.459 L120.476,186.576 C123.416,192.359 124.396,200.592 122.632,205.492 C120.868,210.687 118.809,212.647 114.301,213.921 C112.144,214.411 109.498,215.98 108.42,217.352 C106.754,219.214 105.676,219.606 103.225,219.116 C101.069,218.724 99.501,219.116 97.639,220.586 C96.266,221.762 93.914,222.645 92.444,222.645 C90.974,222.645 88.915,223.723 87.543,225.193 C85.681,227.251 84.603,227.643 82.545,227.153 C80.584,226.663 79.31,227.055 77.644,228.623 C75.488,230.682 75.39,230.682 72.449,228.917 C70.293,227.643 69.215,227.447 68.235,228.329 C67.353,229.015 63.726,229.211 58.14,228.917 C46.084,228.329 42.752,227.643 40.791,225.291 C39.419,223.429 37.165,222.645 26.285,219.998 C24.913,219.704 22.561,218.43 21.091,217.352 L18.346,215.392 L13.446,218.136 C8.153,221.076 4.919,220.978 1.586,218.038 C-1.942,214.804 0.116,210.785 10.799,199.808 C16.582,193.829 18.64,192.359 21.385,192.065 C26.089,191.673 30.402,185.498 29.618,180.499 C29.226,177.461 29.618,176.285 33.342,171.776 L37.557,166.581 L43.634,167.071 C49.514,167.659 49.808,167.561 52.259,164.621 C54.513,161.975 54.807,160.701 54.709,155.604 C54.611,152.271 54.611,148.841 54.611,147.861 C54.709,145.215 59.12,141.294 61.962,141.294 C63.53,141.294 65.098,140.314 66.471,138.354 C67.745,136.589 69.411,135.413 70.783,135.413 C71.959,135.413 73.822,134.727 74.9,133.943 C78.036,131.591 82.251,132.179 87.445,135.903 C90.092,137.766 92.934,139.334 93.62,139.334 C95.972,139.334 105.088,144.332 108.126,147.273 C120.966,159.622 119.887,158.936 125.768,158.936 C131.061,158.936 131.257,158.838 132.629,155.604 C134.393,151.389 139.294,149.429 143.312,151.193 C146.841,152.86 158.7,150.605 162.915,147.469 C164.581,146.293 166.934,144.823 168.11,144.332 C169.286,143.744 170.756,142.47 171.246,141.392 C173.01,138.158 175.755,138.06 182.812,141.196 C188.79,143.744 189.967,144.038 193.397,143.156 C195.553,142.568 201.532,141.098 206.629,139.922 C216.332,137.57 221.919,135.217 224.075,132.571 C225.251,131.101 225.251,128.454 223.977,114.831 C223.683,111.596 226.231,111.204 232.112,113.753 C234.758,114.929 238.091,115.811 239.659,115.811 C241.129,115.909 244.167,116.595 246.324,117.379 C258.673,122.084 269.455,122.966 273.669,119.633 C277.59,116.595 284.843,112.87 286.999,112.87 C288.077,112.87 289.645,111.694 290.625,110.224 C293.174,106.108 293.762,105.911 301.015,106.598 C308.66,107.382 309.248,106.99 315.619,98.463 C317.971,95.228 320.421,93.072 322.088,92.68 C323.558,92.288 326.596,91.112 328.85,90.033 C332.575,88.269 333.457,88.171 336.887,89.347 C343.552,91.504 351.295,88.563 347.865,85.133 C347.277,84.545 346.787,83.271 346.787,82.388 C346.787,79.938 353.942,73.959 358.254,72.783 C360.803,72.097 362.567,70.823 363.645,68.765 C365.017,66.314 365.997,65.824 368.84,65.824 C372.368,65.824 376.19,63.08 376.19,60.532 C376.19,59.846 376.877,58.669 377.661,57.983 C378.837,57.003 379.719,57.297 382.561,59.846 C384.522,61.512 386.874,62.884 387.952,62.884 C388.932,62.884 391.872,61.12 394.421,58.865 C399.812,54.259 400.694,54.749 400.694,62.59 C400.694,69.255 402.36,71.019 408.045,70.137 C413.337,69.353 414.219,70.627 411.867,75.822 L410.103,79.84 L413.631,82.879 C417.258,85.917 417.258,85.917 415.788,89.347 C414.415,92.484 414.513,92.876 416.376,95.522 C417.552,96.992 419.12,100.521 419.806,103.363 C421.08,108.166 421.08,108.558 419.218,110.126 C417.65,111.498 416.768,111.596 415.2,110.812 C412.945,109.636 410.495,110.322 410.495,112.086 C410.495,112.772 413.631,116.693 417.356,120.907 C421.668,125.612 424.217,129.239 424.217,130.611 C424.217,131.885 422.845,134.335 421.178,136.001 C417.062,140.314 417.846,141.882 424.707,142.764 C431.176,143.548 433.43,145.411 434.9,150.899 C436.076,155.212 437.35,156.486 444.309,160.407 C451.17,164.327 459.305,172.266 462.148,177.951 C464.206,181.969 464.402,183.439 463.912,187.752 C463.52,190.496 462.54,194.025 461.756,195.495 C460.971,197.063 460.481,200.2 460.677,202.846 C460.971,207.355 461.069,207.551 468.812,213.039 C473.125,216.078 478.908,219.508 481.554,220.488 C488.513,223.135 488.317,224.801 480.378,228.623 C469.891,233.72 466.362,236.17 466.362,238.425 C466.362,241.169 469.008,245.972 472.733,250.186 C474.497,252.146 477.634,257.047 479.594,261.164 C481.848,265.476 484.396,269.103 485.965,269.985 C490.571,272.729 495.57,285.177 493.904,289.587 C492.629,292.92 493.414,294.978 496.06,295.37 C498.902,295.762 500.176,301.741 499.98,313.208 C499.784,319.481 499.294,322.323 498.216,323.598 C497.432,324.48 496.06,327.322 495.178,329.772 C493.61,334.281 490.767,337.319 488.023,337.319 C487.337,337.319 484.69,338.299 482.338,339.476 L478.026,341.632 L471.949,338.593 C468.616,336.927 463.03,333.105 459.599,329.968 C456.071,326.832 451.366,323.5 449.112,322.519 C445.975,321.049 444.897,319.971 444.407,317.619 L443.819,314.58 L438.723,315.266 C432.842,316.051 431.078,317.129 431.078,319.775 C431.078,321.539 424.511,326.538 422.256,326.538 C421.668,326.538 419.218,328.4 416.866,330.556 C412.553,334.575 412.455,334.771 412.455,340.652 C412.455,343.886 412.063,348.199 411.475,350.061 C410.299,354.472 405.398,360.254 400.4,363.489 C398.243,364.861 394.421,367.899 391.872,370.252 C383.541,377.995 378.249,378.289 375.21,371.134 C374.132,368.683 372.662,366.723 371.878,366.723 C370.898,366.723 368.447,370.644 365.409,377.014 C361.881,384.267 359.528,387.992 356.98,389.854 C355.118,391.324 352.863,393.775 352.079,395.343 C351.295,396.813 348.845,398.969 346.591,400.145 L342.474,402.204 L340.71,400.047 C339.73,398.871 338.946,397.303 338.946,396.519 C338.946,394.069 337.083,394.167 332.183,396.813 C327.478,399.459 327.282,399.459 325.322,397.695 C324.244,396.715 321.695,395.539 319.637,395.049 C310.13,393.089 303.759,389.756 302.485,386.326 C302.289,385.836 299.741,385.247 296.8,384.855 L291.312,384.169 L288.665,389.952 C282.784,402.694 278.276,407.398 274.943,404.066 C273.375,402.498 269.847,402.792 267.494,404.752 C265.632,406.222 265.436,406.908 266.318,411.123 C266.808,413.867 268.181,417.004 269.651,418.474 C270.925,419.944 272.983,423.276 274.159,425.825 L276.218,430.627 L272.787,435.92 C270.925,438.86 268.181,441.703 266.808,442.193 C265.436,442.781 259.653,443.075 253.871,443.075 C245.54,442.977 242.207,442.487 237.405,440.723 z M86.955,197.553 C99.207,193.829 103.323,191.575 107.636,186.086 C114.595,177.363 113.027,174.422 99.109,170.11 C86.269,166.189 82.839,166.973 74.704,175.893 C69.999,181.087 63.53,191.771 63.53,194.319 C63.53,197.357 65.588,198.631 71.077,199.22 C74.214,199.514 77.154,199.906 77.644,200.004 C78.232,200.004 82.349,198.925 86.955,197.553 z" fill="#000000"/>
  </g>
</svg>
