<?xml version="1.0" encoding="UTF-8"?>
<!DOCTYPE svg PUBLIC "-//W3C//DTD SVG 1.1//EN" "http://www.w3.org/Graphics/SVG/1.1/DTD/svg11.dtd">
<svg version="1.1" xmlns="http://www.w3.org/2000/svg" xmlns:xlink="http://www.w3.org/1999/xlink" x="0" y="0" width="500" height="500" viewBox="0, 0, 500, 500">
  <g id="Layer_1">
    <path d="M298.338,470.077 C292.94,469.388 287.888,468.354 287.199,467.895 C286.395,467.321 285.706,465.369 285.706,463.531 C285.706,461.579 285.132,459.053 284.443,457.79 C283.524,456.067 283.983,453.771 286.28,447.914 C289.61,439.761 289.61,433.56 286.28,428.852 C285.361,427.474 284.558,424.948 284.558,423.225 C284.558,421.043 283.294,418.862 280.539,416.45 C275.027,411.397 274.452,407.034 278.127,399.11 C281.457,391.991 282.031,383.263 279.39,378.67 C278.472,377.062 277.783,373.732 277.668,371.321 C277.668,368.335 276.519,365.005 274.338,361.56 C269.285,353.522 268.137,348.469 268.94,339.512 L269.744,331.589 L265.725,329.636 C259.754,326.766 260.328,324.125 267.677,321.483 C274.108,319.072 278.357,313.904 277.208,310 C276.405,307.589 271.696,304.603 232.309,281.751 C225.993,278.077 218.07,273.254 214.739,271.072 L208.653,266.938 L204.864,269.005 C198.892,272.22 191.199,270.957 183.505,265.56 C167.773,254.421 163.983,249.943 163.983,242.593 C163.983,240.411 162.72,238.919 158.586,236.277 C155.6,234.325 152.156,232.833 151.007,232.833 C146.758,232.833 138.261,227.665 131.6,221.234 C126.433,216.067 123.792,214.344 119.199,213.311 C116.098,212.507 113.112,211.474 112.768,210.899 C110.356,206.995 101.859,213.426 94.28,224.794 C87.16,235.359 87.734,238 98.873,245.12 C110.242,252.354 129.304,261.541 132.978,261.541 C134.701,261.541 139.179,260.048 142.854,258.096 C150.778,254.077 152.615,253.962 156.864,256.833 C158.586,257.981 164.672,261.885 170.299,265.56 C181.553,272.794 185.802,276.813 185.802,280.603 C185.802,284.852 183.39,285.885 176.959,284.392 C169.61,282.67 166.969,283.933 166.969,289.215 C166.854,293.809 163.524,295.991 156.289,295.991 C152.156,295.991 151.352,296.45 149.17,300.01 C146.873,304.029 142.165,305.522 140.443,302.88 C139.065,300.584 135.275,301.732 133.553,305.062 C130.911,310.23 129.763,310.345 125.514,305.636 L121.495,301.273 L118.05,303.799 C113.342,307.359 111.505,307.014 109.897,302.306 C108.175,297.828 107.6,297.598 103.811,300.124 C101.17,301.732 100.94,301.732 99.218,299.206 C98.184,297.828 97.38,295.761 97.38,294.612 C97.38,291.742 95.198,290.938 92.902,293.005 C90.146,295.531 88.538,295.301 86.356,291.971 C85.208,290.134 83.715,289.215 82.567,289.675 C80.041,290.364 78.548,289.215 76.251,284.852 C74.873,281.981 73.725,281.292 71.313,281.407 C68.672,281.636 67.753,280.947 66.49,277.847 C65.227,275.206 64.308,274.287 63.045,274.861 C59.141,276.469 57.648,275.78 55.581,271.531 C54.088,268.316 53.17,267.397 52.251,268.316 C50.299,270.268 47.084,269.809 45.706,267.282 C44.672,265.33 43.753,264.986 40.538,265.675 C37.093,266.249 36.519,266.019 34.911,262.804 C33.418,260.048 32.27,259.244 29.744,259.244 C26.299,259.244 25.036,257.636 25.036,252.813 C25.036,249.024 21.82,249.254 16.538,253.388 C11.945,257.062 8.959,256.947 2.758,252.928 C-1.72,249.943 -0.917,246.842 6.433,238.344 C14.93,228.584 26.988,214 31.237,208.488 L34.452,204.009 L42.72,204.813 C50.529,205.502 51.103,205.387 54.663,202.402 C59.486,198.383 65.227,190 65.227,187.129 C65.227,185.866 64.538,184.258 63.619,183.569 C62.701,182.765 61.552,180.698 61.208,178.861 C60.749,177.024 57.648,172.43 54.203,168.526 C50.758,164.737 48.002,160.947 48.002,160.373 C48.002,159.454 52.825,159.225 62.701,159.454 C76.71,159.914 77.285,159.799 77.285,157.617 C77.285,155.895 76.366,155.206 73.265,154.746 C70.509,154.287 72.806,153.828 80.155,153.368 C86.127,152.909 93.361,153.024 96.232,153.483 C101.629,154.287 119.084,164.622 119.084,166.919 C119.199,169.33 123.907,174.268 126.088,174.268 C128.155,174.268 134.701,167.033 137.572,161.636 C139.524,157.962 145.036,150.727 150.089,145.33 C152.5,142.804 153.648,140.392 153.304,139.359 C152.845,138.096 154.682,135.799 158.931,132.124 C168.002,124.316 168.232,124.201 170.758,128.45 C172.825,131.895 172.94,132.469 171.333,136.143 C168.462,143.033 169.84,154.517 174.318,159.914 C175.122,160.947 179.601,163.703 183.964,165.885 C194.184,170.938 196.136,172.66 196.136,176.564 C196.136,182.421 183.275,199.761 177.419,201.828 C172.94,203.32 166.28,209.636 166.28,212.277 C166.28,214.689 170.414,217.904 173.514,217.904 C174.663,217.904 177.189,217.1 179.141,216.067 C181.093,215.033 185.113,213.885 187.983,213.426 C192.921,212.737 193.266,212.507 193.266,209.292 C193.38,207.34 194.184,204.469 195.333,202.976 C196.596,201.253 197.285,197.923 197.285,194.134 C197.285,190.919 197.744,187.933 198.318,187.588 C198.778,187.244 201.648,188.507 204.404,190.344 C209.916,194.019 213.361,194.019 213.361,190.344 C213.361,189.311 212.787,185.636 212.213,182.191 C210.835,174.842 211.869,173.464 216.577,175.875 C219.677,177.483 220.136,177.483 220.711,175.875 C221.055,174.842 221.4,172.545 221.4,170.708 C221.4,168.871 222.203,165.426 223.122,163.014 C225.074,158.536 238.395,144.985 242.184,143.837 C243.333,143.378 247.122,139.359 250.567,134.88 C258.261,124.545 272.156,111.11 278.472,107.895 C280.998,106.517 285.476,105.139 288.232,104.679 C296.385,103.531 296.271,103.761 292.826,97.1 C287.888,87.454 289.151,73.56 295.811,66.21 C300.634,60.928 311.199,58.631 322.452,60.583 C339.563,63.454 338.185,63.569 340.826,59.205 C343.122,55.301 349.323,51.397 353.457,51.397 C354.835,51.397 357.476,48.985 360.232,45.196 C366.089,37.272 376.424,28.43 379.869,28.43 C381.362,28.43 383.543,29.234 384.692,30.382 C386.414,31.99 387.448,31.99 391.237,30.957 C398.012,28.89 400.424,29.234 404.213,33.024 C407.084,36.009 408.462,36.469 413.859,36.469 C419.371,36.469 420.52,36.928 424.539,40.488 C426.95,42.67 430.051,44.507 431.429,44.507 C433.955,44.507 440.615,50.363 442.912,54.612 C443.601,55.875 444.175,58.402 444.175,60.009 C444.175,62.076 445.553,64.258 448.309,66.67 C454.166,71.837 454.855,73.56 455.773,85.732 C456.233,92.392 457.151,96.985 458.07,97.789 C458.989,98.593 464.615,100.66 470.587,102.497 C476.558,104.335 483.103,106.517 484.941,107.435 C489.993,109.961 499.065,117.77 499.869,120.411 C501.592,125.579 485.859,150.612 480.233,151.99 C478.625,152.45 474.721,151.875 471.391,150.842 C466.568,149.349 463.123,146.708 453.477,137.521 C446.816,131.32 441.075,126.383 440.5,126.727 C440.041,127.072 439.582,130.861 439.582,135.11 C439.582,143.952 440.845,145.904 446.127,145.445 C452.443,144.756 469.094,164.392 470.013,173.349 C470.242,175.416 471.391,183.569 472.654,191.493 C475.065,207.11 474.491,218.708 471.046,225.139 C468.52,229.732 469.668,231.684 475.065,231.684 C481.496,231.684 483.218,234.785 479.199,239.493 C477.017,242.134 476.443,243.742 477.017,246.498 C477.936,250.861 476.443,252.813 470.127,255.914 C464.271,258.67 461.285,258.67 457.496,255.684 C455.314,253.962 452.558,253.158 448.424,253.043 C443.027,252.928 442.453,253.158 441.419,256.029 C440.386,258.785 440.73,259.589 444.52,263.263 C450.835,269.464 451.639,278.191 446.472,286.574 C443.831,290.938 435.103,295.187 431.084,294.153 C429.132,293.694 427.754,294.383 425.343,297.139 C421.553,301.732 421.553,304.833 425.228,306.555 C429.132,308.278 428.788,310.459 424.079,313.445 C419.601,316.431 419.256,317.924 421.783,323.895 C422.816,326.306 423.505,331.589 423.505,336.412 C423.505,343.876 423.046,345.713 418.338,355.244 C414.204,363.742 413.4,366.498 414.204,368.68 C415.122,371.091 413.515,380.622 411.218,385.56 C410.759,386.479 409.955,389.809 409.266,393.024 C408.118,398.421 406.625,400.144 401.228,401.981 C400.539,402.211 401.343,405.426 402.835,409.101 C404.328,412.89 405.477,417.369 405.362,419.206 C405.132,421.732 406.051,423.455 409.151,426.44 C416.5,433.33 416.156,443.665 408.577,449.751 C404.673,452.852 402.721,453.541 395.945,454.115 C386.414,454.919 375.39,452.967 369.649,449.407 C367.352,448.029 364.596,446.536 363.448,446.077 C361.151,445.158 361.381,445.962 357.936,430.689 C355.754,421.158 354.835,418.862 353.228,418.862 C350.586,418.862 350.012,421.617 349.668,436.775 L349.438,449.522 L344.271,456.182 C337.266,465.254 332.443,468.01 320.385,469.962 C314.874,470.881 309.936,471.57 309.247,471.57 C308.673,471.455 303.735,470.766 298.338,470.077 z M347.716,366.613 C349.897,359.952 348.06,357.082 340.366,355.244 L337.151,354.44 L337.61,361.33 C338.414,372.928 344.615,376.144 347.716,366.613 z M283.18,274.976 C283.524,268.545 283.409,268.316 278.931,264.182 C271.696,257.751 272.845,255.799 283.869,255.799 C289.84,255.799 292.596,254.421 292.596,251.55 C292.596,250.632 291.103,250.057 288.577,250.057 C283.639,250.057 282.605,248.105 285.017,243.282 C286.28,240.986 286.854,236.737 286.854,230.766 L286.854,221.694 L281.457,217.445 C274.452,212.048 272.271,212.048 269.974,217.904 C268.366,221.923 267.333,222.842 261.476,224.909 C257.802,226.287 253.897,228.354 252.864,229.502 C251.83,230.766 249.534,231.684 247.811,231.684 C246.204,231.684 243.792,232.488 242.529,233.407 C241.381,234.325 238.625,235.129 236.672,235.129 C233.457,235.129 232.653,235.703 231.275,239.033 C229.897,242.249 228.864,243.053 225.763,243.397 C219.447,243.971 220.825,247.416 229.438,252.699 C251.715,266.364 279.62,282.096 281.113,281.866 C282.376,281.636 282.95,279.799 283.18,274.976 z M148.366,198.153 C152.27,194.708 153.419,189.081 150.663,186.44 C146.873,182.536 135.39,186.325 133.438,191.952 C132.634,194.364 134.242,196.316 139.294,198.842 C143.888,201.253 144.921,201.139 148.366,198.153 z M327.85,104.564 C332.443,102.497 333.706,99.627 330.146,99.627 C327.62,99.627 317.4,103.072 316.022,104.45 C315.677,104.909 315.677,105.713 316.022,106.402 C316.94,107.78 322.682,106.861 327.85,104.564 z" fill="#000000"/>
  </g>
</svg>
