<?xml version="1.0" encoding="UTF-8"?>
<!DOCTYPE svg PUBLIC "-//W3C//DTD SVG 1.1//EN" "http://www.w3.org/Graphics/SVG/1.1/DTD/svg11.dtd">
<svg version="1.1" xmlns="http://www.w3.org/2000/svg" xmlns:xlink="http://www.w3.org/1999/xlink" x="0" y="0" width="500" height="500" viewBox="0, 0, 500, 500">
  <g id="Layer_1">
    <path d="M288.59,500 C287.161,499.61 284.174,498.182 281.836,497.013 C278.459,495.064 277.55,493.636 276.77,488.7 C276.121,484.414 274.692,481.556 271.575,478.309 C269.107,475.971 266.509,472.464 265.86,470.646 C262.093,467.788 262.223,467.788 263.912,465.58 C265.86,462.982 266.639,455.709 264.951,455.709 C263.002,455.838 255.079,466.359 254.82,469.217 C254.69,470.646 254.43,472.724 254.3,473.763 C254.17,474.932 253.131,475.192 250.663,474.542 C248.585,474.153 240.532,473.243 232.739,472.854 C217.023,471.815 212.217,469.736 207.411,461.813 C204.943,457.917 204.943,457.787 207.671,456.488 C209.229,455.709 211.827,452.461 213.516,449.344 C215.204,446.097 217.542,442.46 218.711,441.161 C220.659,439.083 220.659,438.434 218.841,434.537 C217.672,432.329 215.464,427.523 213.905,423.886 C209.619,414.275 195.851,393.882 192.214,391.934 C188.837,390.116 184.031,383.102 184.031,379.985 C184.031,377.517 185.72,376.348 190.006,375.828 C191.824,375.698 193.383,375.309 193.643,375.049 C195.591,372.711 203.255,345.305 202.735,343.097 C201.306,337.641 203.255,334.005 209.229,331.147 C219.49,326.471 221.698,319.717 215.854,311.274 C213.905,308.287 212.606,304.65 212.606,301.663 C212.606,299.065 211.307,294.649 209.749,291.921 C207.281,287.505 207.151,286.466 208.58,283.738 C209.749,281.66 210.009,278.543 209.489,274.646 C208.58,269.191 207.93,268.282 201.046,263.606 C197.02,260.878 191.435,255.943 188.837,252.695 C181.953,244.383 172.341,241.525 172.341,247.76 C172.341,254.124 167.016,253.345 157.015,245.552 C154.287,243.473 150.78,241.006 149.222,240.226 C147.533,239.317 145.325,236.589 144.286,234.251 C143.377,231.784 140.259,228.277 137.662,226.328 C128.829,219.834 124.283,215.028 124.283,211.911 C124.283,209.313 118.438,202.429 116.23,202.429 C114.931,202.429 113.373,204.507 105.969,216.067 C102.332,221.782 98.176,227.497 96.877,228.796 C95.448,230.095 94.409,232.173 94.409,233.602 C94.409,238.278 92.851,240.096 89.084,240.096 C83.499,240.096 75.706,235.68 73.757,231.524 C72.329,228.147 72.458,227.627 77.394,223.081 C80.382,220.483 82.719,217.626 82.719,216.847 C82.719,216.197 85.707,210.742 89.344,205.027 C95.059,196.065 95.838,193.857 95.319,189.7 C94.669,184.375 98.436,172.295 102.203,168.009 C103.371,166.58 104.8,164.372 105.19,163.073 C105.969,161.125 107.008,160.865 112.334,161.645 C117.399,162.294 118.828,162.034 119.477,160.476 C120.646,157.488 116.75,153.722 109.866,151.254 C106.619,150.085 102.852,148.266 101.553,147.357 C99.215,145.669 99.345,145.279 105.06,139.824 C110.905,134.109 111.035,133.719 110.385,127.614 C109.606,120.341 108.177,118.522 100.644,114.756 C94.669,111.898 93.5,108.131 97.786,105.663 C99.085,105.014 101.813,102.806 103.761,100.858 C107.008,97.74 107.398,96.571 107.398,89.168 C107.398,80.076 106.749,78.777 99.345,73.322 C91.812,67.866 93.11,64.749 103.891,62.801 C109.866,61.632 111.944,58.774 114.022,48.253 L115.711,40.33 L111.424,35.525 C105.839,29.03 106.489,26.562 113.892,26.043 C117.01,25.783 120.387,25.004 121.296,24.224 C123.894,22.146 128.18,11.495 129.089,5.391 C129.998,-1.753 131.947,-1.753 141.169,5.131 C145.065,8.118 151.43,12.275 155.196,14.353 C158.963,16.561 162.6,19.289 163.249,20.458 C165.068,24.094 163.379,28.381 159.483,29.16 C152.858,30.589 151.56,31.108 149.611,33.057 C146.884,35.914 147.143,42.149 150.261,45.266 C152.079,47.084 154.547,47.864 158.833,47.864 C165.328,47.864 167.795,49.163 181.044,60.333 C185.46,63.97 193.253,69.425 198.579,72.412 C215.983,82.284 226.244,89.168 226.244,90.856 C226.244,92.545 224.946,92.935 207.541,95.922 C195.202,98 191.824,100.208 191.824,105.923 C191.824,109.69 190.785,111.508 186.889,115.275 C178.706,122.809 177.277,126.186 176.238,138.655 C174.679,156.579 171.172,160.865 155.846,163.463 C138.311,166.191 133.375,168.139 133.375,171.906 C133.375,174.114 136.363,175.153 142.987,175.153 C146.494,175.153 152.469,176.841 158.703,179.569 C164.418,182.037 169.484,183.725 170.003,183.466 C170.653,183.076 171.952,180.738 172.991,178.27 C175.329,172.555 179.745,170.867 191.175,171.516 C197.799,171.776 202.215,172.945 207.541,175.543 C211.567,177.491 216.633,179.05 218.971,179.05 C223.387,179.05 230.791,175.802 230.791,173.854 C230.791,171.516 238.584,167.36 245.338,166.061 C258.586,163.463 274.433,163.593 282.875,166.191 C287.291,167.619 292.097,168.659 293.656,168.659 C295.214,168.659 297.942,170.087 299.631,171.906 C301.319,173.724 303.527,175.153 304.696,175.153 C309.502,175.153 317.815,179.439 318.594,182.427 C318.984,184.115 321.841,187.492 324.959,189.96 C327.946,192.428 331.193,196.195 331.972,198.273 C333.141,201.13 335.609,203.079 341.324,205.676 C345.611,207.625 349.377,209.833 349.767,210.612 C350.027,211.521 350.416,215.937 350.676,220.613 C351.196,229.835 352.624,233.472 358.08,239.447 C360.028,241.655 362.626,246.461 364.054,250.098 C366.263,256.592 366.263,257.112 364.054,261.658 L361.846,266.463 L367.561,272.438 C373.666,278.673 378.862,287.635 378.862,291.661 C378.862,293.999 394.058,310.235 396.266,310.235 C396.786,310.235 398.994,308.417 401.072,306.209 C404.449,302.702 405.488,302.182 409.645,302.832 C414.451,303.611 419.906,307.767 421.075,311.534 C422.114,314.781 419.646,320.237 415.1,325.562 C411.593,329.588 411.203,330.887 411.333,337.382 C411.723,348.292 411.723,348.292 405.488,357.644 C402.241,362.45 400.033,366.866 400.423,367.515 C400.812,368.165 402.761,368.684 404.709,368.684 C410.164,368.684 412.242,372.061 413.282,382.323 C414.321,392.713 415.23,394.792 421.205,401.546 C426.53,407.391 427.05,411.547 422.374,411.547 C417.048,411.547 414.451,415.444 412.762,426.224 C411.074,436.745 410.944,435.836 416.918,446.487 C419.906,451.812 418.737,453.5 412.632,452.461 C407.956,451.682 407.437,451.942 405.488,455.579 C403.28,460.125 401.981,465.84 401.852,472.854 C401.722,476.49 402.891,479.088 407.047,484.543 L412.502,491.427 L409.775,494.285 C408.216,495.974 406.527,497.272 406.138,497.272 C404.579,497.272 375.744,467.398 373.796,463.891 C372.367,460.904 372.367,460.384 374.186,459.345 C378.342,457.007 376.524,452.332 367.691,442.85 C363.015,437.784 357.82,433.238 356.131,432.848 C354.443,432.459 352.105,431.03 350.806,429.601 C347.948,426.484 338.727,423.886 336.908,425.705 C335.739,426.874 336.129,428.952 341.584,448.175 C342.493,451.682 343.922,455.059 344.831,455.968 C347.039,458.176 346.78,470.646 344.442,475.192 C343.143,477.789 341.844,478.699 340.025,478.179 C336.259,477.27 332.102,479.997 332.102,483.634 C332.102,485.583 330.933,487.531 329.245,488.57 C327.556,489.479 323.14,492.207 319.373,494.415 C313.528,497.922 311.191,498.571 304.047,498.571 C299.371,498.571 294.565,499.091 293.396,499.61 C292.227,500.26 290.019,500.39 288.59,500 z M383.408,396.48 C386.395,389.207 385.746,380.374 382.109,380.374 C379.641,380.374 376.264,384.79 374.835,390.116 C373.666,394.402 373.796,395.311 376.394,398.039 C380.29,402.195 381.07,401.935 383.408,396.48 z M336.908,386.089 C338.207,384.271 341.194,380.114 343.532,376.867 C347.689,371.282 347.819,370.633 347.039,363.229 C345.611,350.76 350.157,344.266 359.249,346.084 C365.483,347.383 365.223,344.396 358.469,337.382 C340.675,318.938 340.285,318.548 338.467,324.653 C337.947,326.341 336.259,331.017 334.83,334.914 C333.271,338.81 332.102,344.396 332.102,347.383 C332.102,350.24 330.933,356.085 329.505,360.242 C326.517,368.814 325.868,385.31 328.465,387.908 C330.933,390.375 334.44,389.726 336.908,386.089 z M274.692,381.803 C275.082,377.906 274.692,377.517 267.549,374.27 C263.392,372.451 258.586,369.723 256.898,368.425 C254.82,366.866 253.261,366.476 252.482,367.256 C250.923,368.814 257.028,377.517 260.535,378.686 C261.704,379.205 264.561,381.154 266.899,383.232 C272.224,387.778 274.173,387.388 274.692,381.803 z M363.795,373.75 C366.263,369.204 366.263,369.074 363.795,364.008 C362.496,361.281 360.288,358.813 359.119,358.553 C357.041,358.164 356.781,359.203 356.781,367.775 C356.781,380.634 358.989,382.582 363.795,373.75 z M328.725,314.132 C333.271,312.443 333.141,307.508 328.595,303.091 C322.621,297.636 317.815,299.455 317.815,307.118 C317.815,315.301 320.672,317.249 328.725,314.132 z M161.041,152.942 C165.717,150.864 167.146,146.448 167.146,134.109 C167.146,124.497 166.886,123.068 164.938,123.458 C162.21,123.978 150.261,143.72 150.261,148.007 C150.261,153.851 154.547,155.93 161.041,152.942 z M144.286,122.029 C146.884,117.873 148.962,113.846 148.962,113.197 C148.962,112.547 151.04,108.911 153.508,105.014 C158.833,96.571 159.353,90.986 155.196,87.22 C150.91,83.323 143.896,80.076 141.688,80.855 C140.649,81.245 137.921,85.531 135.583,90.337 C131.817,98.26 131.427,100.338 131.557,110.859 C131.687,131.251 136.103,135.148 144.286,122.029 z" fill="#000000"/>
  </g>
</svg>
