<?xml version="1.0" encoding="UTF-8"?>
<!DOCTYPE svg PUBLIC "-//W3C//DTD SVG 1.1//EN" "http://www.w3.org/Graphics/SVG/1.1/DTD/svg11.dtd">
<svg version="1.1" xmlns="http://www.w3.org/2000/svg" xmlns:xlink="http://www.w3.org/1999/xlink" x="0" y="0" width="500" height="500" viewBox="0, 0, 500, 500">
  <g id="Layer_1">
    <path d="M456.766,276.032 C471.388,269.839 500,256.021 500,256.021 L457.397,240.195 C456.365,224.427 453.555,209.117 449.197,194.495 C459.862,183.486 482.053,157.97 482.053,157.97 L435.665,160.321 C429.014,147.076 421.044,134.633 411.869,123.165 C417.317,110.378 429.759,75 429.759,75 L385.206,95.47 C374.255,86.009 362.328,77.638 349.599,70.585 C350,55.906 348.796,20.298 348.796,20.298 L314.851,55.275 C300.115,50.344 284.633,46.961 268.635,45.413 C262.959,31.766 247.706,-0 247.706,-0 L230.963,45.126 C214.966,46.388 199.427,49.484 184.633,54.186 C173.165,43.177 149.197,22.362 149.197,22.362 L151.491,67.89 C135.894,75.975 121.502,85.952 108.486,97.477 C92.89,91.514 70.7,83.716 70.7,83.716 L87.099,119.495 C77.351,131.135 68.807,143.807 61.755,157.397 C45.183,157.339 17.202,158.257 17.202,158.257 L48.567,188.704 C43.005,205.677 39.564,223.567 38.475,242.087 C23.165,248.853 -0,260.034 -0,260.034 L39.105,274.541 C40.883,293.349 45.183,311.411 51.605,328.44 C40.252,340.711 24.255,359.06 24.255,359.06 L64.908,356.995 C72.592,370.7 81.766,383.429 92.259,395.011 C86.353,410.493 79.014,431.479 79.014,431.479 L113.647,415.596 C124.771,424.885 136.927,433.028 149.828,439.908 C149.943,456.537 150.688,479.53 150.688,479.53 L177.351,452.064 C195.47,458.544 214.736,462.615 234.805,463.819 C241.628,478.956 251.72,500 251.72,500 L265.252,463.475 C283.83,461.984 301.778,458.028 318.693,451.95 C330.963,463.303 350.287,480.161 350.287,480.161 L348.165,438.761 C359.576,432.569 370.355,425.344 380.333,417.202 C394.094,422.936 427.122,434.461 427.122,434.461 L407.167,391.055 C416.112,380.619 424.083,369.323 430.906,357.225 C447.362,357.339 476.319,356.365 476.319,356.365 L445.241,326.204 C451.032,310.264 454.931,293.463 456.766,276.032 z M347.018,419.725 L324.541,355.505 L300.975,411.525 C300.229,413.36 297.592,413.245 296.961,411.353 L286.697,379.587 L273.911,413.532 C273.28,415.195 270.814,415.08 270.413,413.303 L262.615,379.587 L250.688,410.895 C250.115,412.328 248.108,412.328 247.534,410.895 L235.665,379.587 L227.867,413.303 C227.466,415.08 225,415.195 224.369,413.532 L211.583,379.587 L201.319,411.353 C200.688,413.245 198.05,413.36 197.305,411.525 L173.739,355.505 L151.147,420.011 C94.667,386.525 56.766,325 56.766,254.587 C56.766,208.2 73.222,165.654 100.573,132.511 L102.638,133.601 C102.638,133.601 134.174,216.17 135.894,206.422 C137.385,197.993 164.966,127.523 172.477,108.486 C173.05,106.995 175.172,107.167 175.573,108.658 C179.128,122.534 189.507,160.722 193.234,153.67 C197.076,146.445 207.798,116.227 211.124,106.651 C211.468,105.677 212.844,105.677 213.245,106.651 C217.317,117.489 231.651,155.161 231.651,153.67 C231.651,152.638 241.571,123.509 249.599,100.057 C250,98.853 251.72,98.853 252.122,100.057 C260.149,123.567 270.069,152.695 270.069,153.67 C270.069,155.103 284.117,118.119 288.36,106.938 C288.761,105.849 290.252,105.906 290.654,106.938 C294.094,116.743 304.645,146.502 308.486,153.67 C312.213,160.665 322.362,123.394 326.032,109.117 C326.491,107.454 328.784,107.282 329.415,108.888 C337.156,128.498 364.335,197.993 365.826,206.365 C367.431,215.539 395.355,143.234 398.739,134.404 C425.115,167.317 440.94,209.06 440.94,254.53 C440.94,324.771 403.268,386.181 347.018,419.725 z" fill="#000000"/>
  </g>
</svg>
